<?xml version="1.0" standalone="no"?>
<svg width="1024.0" height="256.0"  viewBox="0 0 1024.0 256.0" preserveAspectRatio="xMidYMid meet" xmlns="http://www.w3.org/2000/svg">
    <path stroke="#3498db" stroke-linejoin="round" d="M 50.0 203.3394909090909 L 50 203.3394909090909L 52.61756373937677 202.32974545454545L 55.23512747875354 196.86690909090908L 57.85269121813031 195.94792727272727L 60.47025495750708 202.14254545454546L 63.08781869688385 197.35476363636363L 65.70538243626062 191.76145454545454L 68.3229461756374 179.96218181818182L 70.94050991501416 204.09396363636364L 73.55807365439094 194.17236363636363L 76.1756373937677 192.61803636363635L 78.79320113314448 195.1253818181818L 81.41076487252124 193.92843636363637L 84.02832861189802 182.2482909090909L 86.6458923512748 200.86618181818181L 89.26345609065156 201.45614545454546L 91.88101983002832 178.89003636363637L 94.4985835694051 197.33774545454546L 97.11614730878188 198.50065454545455L 99.73371104815864 200.41803636363636L 102.3512747875354 201.18385454545455L 104.96883852691218 202.26734545454545L 107.58640226628896 195.09134545454546L 110.20396600566572 198.08087272727272L 112.8215297450425 183.38850909090908L 115.43909348441926 197.47389090909093L 118.05665722379602 202.01774545454546L 120.67422096317281 194.66021818181818L 123.29178470254958 200.75272727272727L 125.90934844192635 200.00392727272728L 128.52691218130312 201.97236363636364L 131.1444759206799 204.2754909090909L 133.76203966005664 201.74545454545455L 136.37960339943342 201.01367272727273L 138.9971671388102 174.7829818181818L 141.61473087818698 195.76072727272728L 144.23229461756375 204.0032L 146.8498583569405 203.7309090909091L 149.46742209631728 197.87665454545453L 152.08498583569406 202.60770909090908L 154.7025495750708 202.6928L 157.32011331444758 197.55898181818182L 159.93767705382436 186.5141818181818L 162.55524079320114 199.26647272727274L 165.1728045325779 199.5728L 167.79036827195466 193.4802909090909L 170.40793201133144 199.10763636363635L 173.02549575070822 201.54690909090908L 175.643059490085 201.5696L 178.26062322946177 195.06865454545454L 180.87818696883852 201.70007272727273L 183.4957507082153 197.2866909090909L 186.11331444759205 172.35505454545455L 188.73087818696885 203.20901818181818L 191.34844192634563 199.6749090909091L 193.96600566572238 193.12858181818183L 196.58356940509915 196.8896L 199.2011331444759 199.78836363636364L 201.8186968838527 198.82967272727274L 204.43626062322946 204.1336727272727L 207.05382436260624 202.57934545454546L 209.671388101983 198.9261090909091L 212.28895184135976 206L 214.90651558073654 204.128L 217.52407932011332 192.1245090909091L 220.1416430594901 206L 222.75920679886684 206L 225.37677053824362 206L 227.9943342776204 206L 230.61189801699717 197.37178181818183L 233.22946175637395 199.57847272727273L 235.8470254957507 188.9024L 238.46458923512748 195.02894545454546L 241.08215297450423 191.20552727272727L 243.69971671388103 166.8128L 246.31728045325778 203.8386909090909L 248.93484419263456 198.09221818181817L 251.55240793201133 201.64334545454545L 254.16997167138808 202.2957090909091L 256.7875354107649 203.22036363636363L 259.4050991501416 200.66763636363635L 262.0226628895184 191.51185454545455L 264.64022662889516 189.18603636363636L 267.2577903682719 203.86705454545455L 269.8753541076487 197.56465454545454L 272.4929178470255 187.32538181818182L 275.1104815864023 201.2349090909091L 277.728045325779 200.44639999999998L 280.3456090651558 201.4618181818182L 282.9631728045326 201.09876363636363L 285.5807365439093 201.17818181818183L 288.19830028328613 193.02647272727273L 290.8158640226629 198.8069818181818L 293.4334277620396 203.39054545454545L 296.05099150141643 200.30458181818182L 298.6685552407932 198.35883636363636L 301.28611898017 193.3101090909091L 303.90368271954674 200.56552727272728L 306.52124645892354 203.03883636363636L 309.1388101983003 197.22996363636364L 311.75637393767704 201.95534545454547L 314.37393767705385 196.016L 316.9915014164306 202.30705454545455L 319.60906515580734 199.91316363636363L 322.2266288951841 194.62050909090908L 324.8441926345609 201.29163636363637L 327.4617563739377 202.98778181818182L 330.07932011331445 203.5437090909091L 332.69688385269126 200.60523636363638L 335.314447592068 195.5621818181818L 337.93201133144476 203.24305454545456L 340.5495750708215 200.15709090909093L 343.1671388101983 198.46661818181818L 345.78470254957506 201.70007272727273L 348.4022662889518 200.70734545454545L 351.0198300283286 200.4293818181818L 353.6373937677054 201.76814545454545L 356.25495750708217 204.6442181818182L 358.8725212464589 206L 361.4900849858357 196.35636363636365L 364.10764872521247 199.21541818181817L 366.7252124645892 156.87418181818182L 369.342776203966 165.1506909090909L 371.9603399433428 204.1733818181818L 374.5779036827195 202.17658181818183L 377.19546742209627 199.31185454545454L 379.8130311614731 198.7842909090909L 382.4305949008499 202.6757818181818L 385.04815864022663 202.8573090909091L 387.66572237960344 196.1861818181818L 390.2832861189802 199.64654545454545L 392.90084985835693 198.2056727272727L 395.5184135977337 201.2178909090909L 398.1359773371105 201.79083636363637L 400.75354107648724 201.90429090909092L 403.371104815864 200.1968L 405.9886685552408 195.17076363636363L 408.6062322946176 206L 411.22379603399435 206L 413.8413597733711 206L 416.4589235127479 191.4834909090909L 419.07648725212465 197.79723636363636L 421.6940509915014 198.85236363636363L 424.3116147308782 199.76L 426.92917847025495 200.03796363636363L 429.5467422096317 200.76407272727272L 432.16430594900845 201.80785454545455L 434.7818696883853 191.63098181818182L 437.39943342776206 194.41061818181817L 440.0169971671388 199.88479999999998L 442.63456090651556 152.63098181818182L 445.25212464589237 197.04843636363637L 447.8696883852691 194.4730181818182L 450.48725212464586 155.90414545454547L 453.10481586402267 91.60945454545454L 455.7223796033994 104.5376L 458.33994334277617 151.17876363636364L 460.957507082153 185.1981090909091L 463.5750708215298 142.76610909090908L 466.1926345609065 125.0672L 468.8101983002833 123.74545454545455L 471.4277620396601 157.99738181818182L 474.04532577903683 53.56814545454546L 476.6628895184136 50.78850909090909L 479.2804532577903 100.02210909090908L 481.89801699716713 156.2445090909091L 484.5155807365439 180.31956363636363L 487.1331444759207 192.43650909090908L 489.7507082152975 193.63912727272728L 492.36827195467424 193.3328L 494.985835694051 192.11316363636365L 497.60339943342774 197.93338181818183L 500.22096317280455 191.5629090909091L 502.8385269121813 198.7672727272727L 505.45609065155804 199.3005090909091L 508.07365439093485 201.64901818181818L 510.6912181303116 200.58821818181818L 513.3087818696883 202.43752727272727L 515.9263456090652 200.73003636363637L 518.543909348442 189.7703272727273L 521.1614730878186 203.17498181818183L 523.7790368271953 200.48610909090908L 526.3966005665723 185.1810909090909L 529.0141643059491 187.88698181818182L 531.6317280453258 191.01832727272728L 534.2492917847026 192.31738181818181L 536.8668555240793 177.09745454545455L 539.4844192634562 167.91330909090908L 542.1019830028329 179.30981818181817L 544.7195467422097 186.49716363636364L 547.3371104815864 150.34487272727273L 549.9546742209632 184.27345454545454L 552.57223796034 199.5104L 555.1898016997168 161.24785454545454L 557.8073654390935 155.49003636363636L 560.4249291784702 176.96130909090908L 563.0424929178471 190.30923636363636L 565.6600566572238 193.50865454545453L 568.2776203966006 201.72843636363638L 570.8951841359773 185.22647272727272L 573.5127478753541 192.03374545454545L 576.1303116147309 192.66909090909093L 578.7478753541077 180.18341818181818L 581.3654390934845 194.5013818181818L 583.9830028328612 194.6829090909091L 586.600566572238 201.85323636363637L 589.2181303116147 196.2032L 591.8356940509915 204.49105454545455L 594.4532577903682 191.55723636363638L 597.0708215297451 180.36494545454545L 599.6883852691218 193.02647272727273L 602.3059490084986 186.20785454545455L 604.9235127478754 191.72741818181817L 607.5410764872521 191.4834909090909L 610.1586402266289 196.63432727272726L 612.7762039660056 200.7810909090909L 615.3937677053825 176.26923636363637L 618.0113314447592 165.78036363636363L 620.628895184136 181.82850909090908L 623.2464589235127 160.6976L 625.8640226628895 163.93105454545454L 628.4815864022662 182.10647272727272L 631.099150141643 130.808L 633.7167138810199 190.49643636363635L 636.3342776203966 202.0914909090909L 638.9518413597734 184.09192727272728L 641.5694050991501 197.50225454545455L 644.1869688385269 187.54094545454547L 646.8045325779036 192.95272727272726L 649.4220963172804 201.88727272727272L 652.0396600566572 184.33585454545454L 654.657223796034 183.04814545454545L 657.2747875354108 182.36741818181818L 659.8923512747875 182.54327272727272L 662.5099150141643 186.38938181818182L 665.127478753541 174.3858909090909L 667.7450424929178 183.1786181818182L 670.3626062322946 183.5133090909091L 672.9801699716714 184.60247272727273L 675.5977337110481 186.968L 678.2152974504249 170.00087272727274L 680.8328611898016 167.8338909090909L 683.4504249291784 203.32247272727273L 686.0679886685552 206L 688.685552407932 128.43112727272728L 691.3031161473089 183.2637090909091L 693.9206798866855 156.8685090909091L 696.5382436260624 183.15592727272727L 699.155807365439 183.2013090909091L 701.7733711048159 182.25963636363636L 704.3909348441925 170.18807272727273L 707.0084985835695 186.86589090909092L 709.6260623229462 183.77425454545454L 712.243626062323 186.29861818181817L 714.8611898016998 184.17134545454545L 717.4787535410765 184.9655272727273L 720.0963172804533 178.1696L 722.71388101983 180.70530909090908L 725.3314447592069 170.80072727272727L 727.9490084985836 177.99374545454546L 730.5665722379604 175.99127272727273L 733.1841359773371 173.75621818181818L 735.8016997167139 175.45803636363638L 738.4192634560907 196.91796363636365L 741.0368271954674 150.30516363636363L 743.6543909348443 167.34036363636363L 746.271954674221 174.52203636363637L 748.8895184135978 132.05599999999998L 751.5070821529745 144.8309818181818L 754.1246458923513 173.60872727272726L 756.742209631728 151.91054545454546L 759.3597733711048 194.03621818181819L 761.9773371104816 160.59549090909093L 764.5949008498584 206L 767.2124645892352 153.43650909090908L 769.8300283286119 181.01163636363637L 772.4475920679887 181.6413090909091L 775.0651558073654 182.49221818181817L 777.6827195467422 183.08785454545455L 780.300283286119 206L 782.9178470254958 151.86516363636363L 785.5354107648725 172.45716363636365L 788.1529745042493 169.20669090909092L 790.7705382436261 178.22065454545455L 793.3881019830028 175.54312727272728L 796.0056657223796 177.61367272727273L 798.6232294617564 181.0173090909091L 801.2407932011332 176.80814545454547L 803.8583569405099 167.8962909090909L 806.4759206798867 167.1248L 809.0934844192634 176.62094545454545L 811.7110481586402 158.63272727272727L 814.3286118980169 151.3602909090909L 816.9461756373938 173.35345454545455L 819.5637393767706 206L 822.1813031161473 206L 824.7988668555241 206L 827.4164305949008 206L 830.0339943342776 206L 832.6515580736543 206L 835.2691218130311 206L 837.8866855524079 206L 840.5042492917847 206L 843.1218130311615 206L 845.7393767705382 206L 848.356940509915 206L 850.9745042492917 206L 853.5920679886685 206L 856.2096317280453 206L 858.8271954674221 206L 861.4447592067988 206L 864.0623229461756 206L 866.6798866855523 206L 869.2974504249291 206L 871.915014164306 206L 874.5325779036827 206L 877.1501416430596 206L 879.7677053824362 206L 882.385269121813 206L 885.0028328611897 206L 887.6203966005666 206L 890.2379603399434 206L 892.8555240793202 206L 895.473087818697 206L 898.0906515580737 206L 900.7082152974505 206L 903.3257790368272 206L 905.943342776204 206L 908.5609065155807 206L 911.1784702549576 206L 913.7960339943343 206L 916.4135977337111 206L 919.0311614730878 206L 921.6487252124646 206L 924.2662889518414 206L 926.8838526912181 206L 929.501416430595 206L 932.1189801699717 206L 934.7365439093485 206L 937.3541076487252 206L 939.971671388102 206L 942.5892351274787 206L 945.2067988668555 206L 947.8243626062324 206L 950.4419263456091 206L 953.0594900849859 206L 955.6770538243626 206L 958.2946175637394 206L 960.9121813031161 206L 963.5297450424929 206L 966.1473087818697 206L 968.7648725212465 206L 971.3824362606232 206L 974 206" stroke-width="2.0" fill="none" />
    
        
        
        <text x="45.0" font-family="-apple-system, system-ui, BlinkMacSystemFont, Roboto" y="50.0" dominant-baseline="middle" text-anchor="end" font-size="12" fill="#24292f">27500.0</text>
        
            
            <path stroke="#74838f" stroke-dasharray="10 6" stroke-width="0.5"  d="M 50.0 50.0 L 974.0 50.0" />
        
    
        
        
        <text x="45.0" font-family="-apple-system, system-ui, BlinkMacSystemFont, Roboto" y="81.2" dominant-baseline="middle" text-anchor="end" font-size="12" fill="#24292f">22000.0</text>
        
            
            
            <path stroke="#74838f" stroke-dasharray="10 6" stroke-width="0.5"  d="M 50.0 81.2 L 974.0 81.2" />
        
    
        
        
        <text x="45.0" font-family="-apple-system, system-ui, BlinkMacSystemFont, Roboto" y="112.4" dominant-baseline="middle" text-anchor="end" font-size="12" fill="#24292f">16500.0</text>
        
            
            
            <path stroke="#74838f" stroke-dasharray="10 6" stroke-width="0.5"  d="M 50.0 112.4 L 974.0 112.4" />
        
    
        
        
        <text x="45.0" font-family="-apple-system, system-ui, BlinkMacSystemFont, Roboto" y="143.6" dominant-baseline="middle" text-anchor="end" font-size="12" fill="#24292f">11000.0</text>
        
            
            
            <path stroke="#74838f" stroke-dasharray="10 6" stroke-width="0.5"  d="M 50.0 143.6 L 974.0 143.6" />
        
    
        
        
        <text x="45.0" font-family="-apple-system, system-ui, BlinkMacSystemFont, Roboto" y="174.8" dominant-baseline="middle" text-anchor="end" font-size="12" fill="#24292f">5500.0</text>
        
            
            
            <path stroke="#74838f" stroke-dasharray="10 6" stroke-width="0.5"  d="M 50.0 174.8 L 974.0 174.8" />
        
    
        
        
        <text x="45.0" font-family="-apple-system, system-ui, BlinkMacSystemFont, Roboto" y="206.0" dominant-baseline="middle" text-anchor="end" font-size="12" fill="#24292f">0.0</text>
        
    
    
        
        <path stroke="#74838f"  stroke-width="2.0"  d="M 91.88101983002832 206.0 L 91.88101983002832 214.0" />
        <text x="91.88101983002832" font-family="-apple-system, system-ui, BlinkMacSystemFont, Roboto" y="216.0" dominant-baseline="hanging" text-anchor="middle" font-size="12" fill="#24292f">Mar 2022</text>
    
        
        <path stroke="#74838f"  stroke-width="2.0"  d="M 173.02549575070822 206.0 L 173.02549575070822 214.0" />
        <text x="173.02549575070822" font-family="-apple-system, system-ui, BlinkMacSystemFont, Roboto" y="216.0" dominant-baseline="hanging" text-anchor="middle" font-size="12" fill="#24292f">Apr 2022</text>
    
        
        <path stroke="#74838f"  stroke-width="2.0"  d="M 251.55240793201133 206.0 L 251.55240793201133 214.0" />
        <text x="251.55240793201133" font-family="-apple-system, system-ui, BlinkMacSystemFont, Roboto" y="216.0" dominant-baseline="hanging" text-anchor="middle" font-size="12" fill="#24292f">May 2022</text>
    
        
        <path stroke="#74838f"  stroke-width="2.0"  d="M 332.69688385269126 206.0 L 332.69688385269126 214.0" />
        <text x="332.69688385269126" font-family="-apple-system, system-ui, BlinkMacSystemFont, Roboto" y="216.0" dominant-baseline="hanging" text-anchor="middle" font-size="12" fill="#24292f">Jun 2022</text>
    
        
        <path stroke="#74838f"  stroke-width="2.0"  d="M 411.22379603399435 206.0 L 411.22379603399435 214.0" />
        <text x="411.22379603399435" font-family="-apple-system, system-ui, BlinkMacSystemFont, Roboto" y="216.0" dominant-baseline="hanging" text-anchor="middle" font-size="12" fill="#24292f">Jul 2022</text>
    
        
        <path stroke="#74838f"  stroke-width="2.0"  d="M 492.36827195467424 206.0 L 492.36827195467424 214.0" />
        <text x="492.36827195467424" font-family="-apple-system, system-ui, BlinkMacSystemFont, Roboto" y="216.0" dominant-baseline="hanging" text-anchor="middle" font-size="12" fill="#24292f">Aug 2022</text>
    
        
        <path stroke="#74838f"  stroke-width="2.0"  d="M 573.5127478753541 206.0 L 573.5127478753541 214.0" />
        <text x="573.5127478753541" font-family="-apple-system, system-ui, BlinkMacSystemFont, Roboto" y="216.0" dominant-baseline="hanging" text-anchor="middle" font-size="12" fill="#24292f">Sep 2022</text>
    
        
        <path stroke="#74838f"  stroke-width="2.0"  d="M 652.0396600566572 206.0 L 652.0396600566572 214.0" />
        <text x="652.0396600566572" font-family="-apple-system, system-ui, BlinkMacSystemFont, Roboto" y="216.0" dominant-baseline="hanging" text-anchor="middle" font-size="12" fill="#24292f">Oct 2022</text>
    
        
        <path stroke="#74838f"  stroke-width="2.0"  d="M 733.1841359773371 206.0 L 733.1841359773371 214.0" />
        <text x="733.1841359773371" font-family="-apple-system, system-ui, BlinkMacSystemFont, Roboto" y="216.0" dominant-baseline="hanging" text-anchor="middle" font-size="12" fill="#24292f">Nov 2022</text>
    
        
        <path stroke="#74838f"  stroke-width="2.0"  d="M 811.7110481586402 206.0 L 811.7110481586402 214.0" />
        <text x="811.7110481586402" font-family="-apple-system, system-ui, BlinkMacSystemFont, Roboto" y="216.0" dominant-baseline="hanging" text-anchor="middle" font-size="12" fill="#24292f">Dec 2022</text>
    
        
        <path stroke="#74838f"  stroke-width="2.0"  d="M 892.8555240793202 206.0 L 892.8555240793202 214.0" />
        <text x="892.8555240793202" font-family="-apple-system, system-ui, BlinkMacSystemFont, Roboto" y="216.0" dominant-baseline="hanging" text-anchor="middle" font-size="12" fill="#24292f">Jan 2023</text>
    
        
        <path stroke="#74838f"  stroke-width="2.0"  d="M 974.0 206.0 L 974.0 214.0" />
        <text x="974.0" font-family="-apple-system, system-ui, BlinkMacSystemFont, Roboto" y="216.0" dominant-baseline="hanging" text-anchor="middle" font-size="12" fill="#24292f">Feb 2023</text>
    
    <path stroke="#74838f"   stroke-linejoin="round" stroke-width="2.0" d="M 50.0 216.0 L 50.0 206.0 L 974.0 206.0 L 974.0 216.0"  fill="none" />
    <text x="512.0" y="25.0" font-family="-apple-system, system-ui, BlinkMacSystemFont, Roboto" dominant-baseline="middle" text-anchor="middle" font-size="18" fill="#24292f">Total daily screen name changes</text>
</svg>
