<?xml version="1.0" standalone="no"?>
<svg width="1024.0" height="256.0"  viewBox="0 0 1024.0 256.0" preserveAspectRatio="xMidYMid meet" xmlns="http://www.w3.org/2000/svg">
    <path stroke="#3498db" stroke-linejoin="round" d="M 50.0 203.3394909090909 L 50 203.3394909090909L 52.321608040201006 202.32974545454545L 54.64321608040201 196.86690909090908L 56.96482412060301 195.94792727272727L 59.28643216080402 202.14254545454546L 61.608040201005025 197.35476363636363L 63.92964824120603 191.76145454545454L 66.25125628140704 179.96218181818182L 68.57286432160804 204.09396363636364L 70.89447236180905 194.17236363636363L 73.21608040201005 192.61803636363635L 75.53768844221105 195.1253818181818L 77.85929648241206 193.92843636363637L 80.18090452261308 182.2482909090909L 82.50251256281408 200.86618181818181L 84.82412060301507 201.45614545454546L 87.14572864321607 178.89003636363637L 89.46733668341707 197.33774545454546L 91.7889447236181 198.50065454545455L 94.1105527638191 200.41803636363636L 96.4321608040201 201.18385454545455L 98.7537688442211 202.26734545454545L 101.07537688442211 195.09134545454546L 103.39698492462313 198.08087272727272L 105.71859296482413 183.38850909090908L 108.04020100502512 197.47389090909093L 110.36180904522614 202.01774545454546L 112.68341708542714 194.66021818181818L 115.00502512562814 200.75272727272727L 117.32663316582914 200.00392727272728L 119.64824120603015 201.97236363636364L 121.96984924623116 204.2754909090909L 124.29145728643216 201.74545454545455L 126.61306532663316 201.01367272727273L 128.93467336683415 174.7829818181818L 131.25628140703517 195.76072727272728L 133.5778894472362 204.0032L 135.8994974874372 203.7309090909091L 138.2211055276382 197.87665454545453L 140.5427135678392 202.60770909090908L 142.8643216080402 202.6928L 145.1859296482412 197.55898181818182L 147.5075376884422 186.5141818181818L 149.8291457286432 199.26647272727274L 152.15075376884423 199.5728L 154.47236180904522 193.4802909090909L 156.79396984924625 199.10763636363635L 159.11557788944725 201.54690909090908L 161.43718592964825 201.5696L 163.75879396984925 195.06865454545454L 166.08040201005025 201.70007272727273L 168.40201005025125 197.2866909090909L 170.72361809045228 172.35505454545455L 173.04522613065325 203.20901818181818L 175.36683417085428 199.6749090909091L 177.68844221105525 193.12858181818183L 180.01005025125627 196.8896L 182.3316582914573 199.78836363636364L 184.65326633165827 198.82967272727274L 186.9748743718593 204.1336727272727L 189.2964824120603 202.57934545454546L 191.6180904522613 198.9261090909091L 193.93969849246233 206L 196.2613065326633 204.128L 198.58291457286433 192.1245090909091L 200.90452261306532 206L 203.22613065326632 206L 205.54773869346735 206L 207.86934673366832 206L 210.19095477386935 197.37178181818183L 212.51256281407035 199.57847272727273L 214.83417085427135 188.9024L 217.15577889447238 195.02894545454546L 219.47738693467335 191.20552727272727L 221.79899497487438 166.8128L 224.12060301507537 203.8386909090909L 226.44221105527637 198.09221818181817L 228.7638190954774 201.64334545454545L 231.08542713567837 202.2957090909091L 233.4070351758794 203.22036363636363L 235.7286432160804 200.66763636363635L 238.0502512562814 191.51185454545455L 240.37185929648243 189.18603636363636L 242.6934673366834 203.86705454545455L 245.01507537688443 197.56465454545454L 247.33668341708542 187.32538181818182L 249.65829145728642 201.2349090909091L 251.97989949748745 200.44639999999998L 254.30150753768845 201.4618181818182L 256.62311557788945 201.09876363636363L 258.94472361809045 201.17818181818183L 261.26633165829145 193.02647272727273L 263.5879396984925 198.8069818181818L 265.9095477386935 203.39054545454545L 268.2311557788945 200.30458181818182L 270.5527638190955 198.35883636363636L 272.8743718592965 193.3101090909091L 275.1959798994975 200.56552727272728L 277.5175879396985 203.03883636363636L 279.8391959798995 197.22996363636364L 282.1608040201005 201.95534545454547L 284.4824120603015 196.016L 286.8040201005025 202.30705454545455L 289.1256281407035 199.91316363636363L 291.44723618090455 194.62050909090908L 293.7688442211055 201.29163636363637L 296.0904522613065 202.98778181818182L 298.4120603015075 203.5437090909091L 300.73366834170855 200.60523636363638L 303.0552763819096 195.5621818181818L 305.3768844221105 203.24305454545456L 307.69849246231155 200.15709090909093L 310.02010050251255 198.46661818181818L 312.34170854271355 201.70007272727273L 314.6633165829146 200.70734545454545L 316.98492462311555 200.4293818181818L 319.30653266331655 201.76814545454545L 321.6281407035176 204.6442181818182L 323.9497487437186 206L 326.2713567839196 196.35636363636365L 328.5929648241206 199.21541818181817L 330.9145728643216 156.87418181818182L 333.2361809045226 165.1506909090909L 335.5577889447236 204.1733818181818L 337.87939698492465 202.17658181818183L 340.20100502512565 199.31185454545454L 342.5226130653266 198.7842909090909L 344.84422110552765 202.6757818181818L 347.16582914572865 202.8573090909091L 349.48743718592965 196.1861818181818L 351.80904522613065 199.64654545454545L 354.13065326633165 198.2056727272727L 356.45226130653265 201.2178909090909L 358.77386934673365 201.79083636363637L 361.0954773869347 201.90429090909092L 363.4170854271357 200.1968L 365.73869346733665 195.17076363636363L 368.0603015075377 206L 370.3819095477387 206L 372.7035175879397 206L 375.0251256281407 191.4834909090909L 377.3467336683417 197.79723636363636L 379.6683417085427 198.85236363636363L 381.9899497487437 199.76L 384.31155778894475 200.03796363636363L 386.63316582914575 200.76407272727272L 388.9547738693467 201.80785454545455L 391.27638190954775 191.63098181818182L 393.59798994974875 194.41061818181817L 395.91959798994975 199.88479999999998L 398.24120603015075 152.63098181818182L 400.56281407035175 197.04843636363637L 402.88442211055275 194.4730181818182L 405.20603015075375 155.90414545454547L 407.5276381909548 91.60945454545454L 409.8492462311558 104.5376L 412.17085427135675 151.17876363636364L 414.4924623115578 185.1981090909091L 416.8140703517588 142.76610909090908L 419.1356783919598 125.0672L 421.4572864321608 123.74545454545455L 423.7788944723618 157.99738181818182L 426.1005025125628 53.56814545454546L 428.4221105527638 50.78850909090909L 430.74371859296485 100.02210909090908L 433.06532663316585 156.2445090909091L 435.3869346733668 180.31956363636363L 437.70854271356785 192.43650909090908L 440.03015075376885 193.63912727272728L 442.35175879396985 193.3328L 444.67336683417085 192.11316363636365L 446.99497487437185 197.93338181818183L 449.31658291457285 191.5629090909091L 451.63819095477385 198.7672727272727L 453.9597989949749 199.3005090909091L 456.2814070351759 201.64901818181818L 458.6030150753769 200.58821818181818L 460.9246231155779 202.43752727272727L 463.2462311557789 200.73003636363637L 465.5678391959799 189.7703272727273L 467.8894472361809 203.17498181818183L 470.21105527638196 200.48610909090908L 472.5326633165829 185.1810909090909L 474.8542713567839 187.88698181818182L 477.17587939698495 191.01832727272728L 479.49748743718595 192.31738181818181L 481.81909547738695 177.09745454545455L 484.1407035175879 167.91330909090908L 486.46231155778895 179.30981818181817L 488.78391959798995 186.49716363636364L 491.10552763819095 150.34487272727273L 493.427135678392 184.27345454545454L 495.74874371859295 199.5104L 498.07035175879395 161.24785454545454L 500.391959798995 155.49003636363636L 502.713567839196 176.96130909090908L 505.035175879397 190.30923636363636L 507.35678391959794 193.50865454545453L 509.678391959799 201.72843636363638L 512 185.22647272727272L 514.321608040201 192.03374545454545L 516.643216080402 192.66909090909093L 518.964824120603 180.18341818181818L 521.286432160804 194.5013818181818L 523.608040201005 194.6829090909091L 525.929648241206 201.85323636363637L 528.251256281407 196.2032L 530.572864321608 204.49105454545455L 532.8944723618091 191.55723636363638L 535.21608040201 180.36494545454545L 537.537688442211 193.02647272727273L 539.8592964824121 186.20785454545455L 542.180904522613 191.72741818181817L 544.5025125628141 191.4834909090909L 546.824120603015 196.63432727272726L 549.145728643216 200.7810909090909L 551.4673366834171 176.26923636363637L 553.788944723618 165.78036363636363L 556.1105527638192 181.82850909090908L 558.4321608040201 160.6976L 560.753768844221 163.93105454545454L 563.0753768844221 182.10647272727272L 565.3969849246231 130.808L 567.7185929648242 190.49643636363635L 570.0402010050251 202.0914909090909L 572.3618090452261 184.09192727272728L 574.6834170854271 197.50225454545455L 577.0050251256281 187.54094545454547L 579.3266331658292 192.95272727272726L 581.6482412060301 201.88727272727272L 583.9698492462311 184.33585454545454L 586.2914572864322 183.04814545454545L 588.6130653266331 182.36741818181818L 590.9346733668342 182.54327272727272L 593.2562814070352 186.38938181818182L 595.5778894472361 174.3858909090909L 597.8994974874372 183.1786181818182L 600.2211055276382 183.5133090909091L 602.5427135678392 184.60247272727273L 604.8643216080402 186.968L 607.1859296482412 170.00087272727274L 609.5075376884422 167.8338909090909L 611.8291457286432 203.32247272727273L 614.1507537688442 206L 616.4723618090452 128.43112727272728L 618.7939698492462 183.2637090909091L 621.1155778894472 156.8685090909091L 623.4371859296482 183.15592727272727L 625.7587939698493 183.2013090909091L 628.0804020100502 182.25963636363636L 630.4020100502513 170.18807272727273L 632.7236180904523 186.86589090909092L 635.0452261306532 183.77425454545454L 637.3668341708543 186.29861818181817L 639.6884422110553 184.17134545454545L 642.0100502512563 184.9655272727273L 644.3316582914573 178.1696L 646.6532663316583 180.70530909090908L 648.9748743718593 170.80072727272727L 651.2964824120603 177.99374545454546L 653.6180904522613 175.99127272727273L 655.9396984924623 173.75621818181818L 658.2613065326633 175.45803636363638L 660.5829145728643 196.91796363636365L 662.9045226130653 150.30516363636363L 665.2261306532664 167.34036363636363L 667.5477386934673 174.52203636363637L 669.8693467336683 132.05599999999998L 672.1909547738694 144.8309818181818L 674.5125628140703 173.60872727272726L 676.8341708542714 151.91054545454546L 679.1557788944724 194.03621818181819L 681.4773869346733 160.59549090909093L 683.7989949748744 206L 686.1206030150754 153.43650909090908L 688.4422110552764 181.01163636363637L 690.7638190954774 181.6413090909091L 693.0854271356784 182.49221818181817L 695.4070351758794 183.08785454545455L 697.7286432160804 206L 700.0502512562814 151.86516363636363L 702.3718592964824 172.45716363636365L 704.6934673366834 169.20669090909092L 707.0150753768844 178.22065454545455L 709.3366834170854 175.54312727272728L 711.6582914572865 177.61367272727273L 713.9798994974874 181.0173090909091L 716.3015075376884 176.80814545454547L 718.6231155778895 167.8962909090909L 720.9447236180904 167.1248L 723.2663316582915 176.62094545454545L 725.5879396984925 158.63272727272727L 727.9095477386934 151.3602909090909L 730.2311557788945 173.35345454545455L 732.5527638190955 206L 734.8743718592965 206L 737.1959798994975 206L 739.5175879396985 206L 741.8391959798995 206L 744.1608040201005 206L 746.4824120603015 206L 748.8040201005025 206L 751.1256281407035 206L 753.4472361809045 206L 755.7688442211055 206L 758.0904522613066 206L 760.4120603015075 206L 762.7336683417085 206L 765.0552763819096 206L 767.3768844221105 206L 769.6984924623116 206L 772.0201005025126 206L 774.3417085427135 206L 776.6633165829146 206L 778.9849246231156 206L 781.3065326633166 206L 783.6281407035176 206L 785.9497487437186 206L 788.2713567839196 206L 790.5929648241206 206L 792.9145728643216 206L 795.2361809045226 206L 797.5577889447236 206L 799.8793969849246 206L 802.2010050251256 206L 804.5226130653267 206L 806.8442211055276 206L 809.1658291457286 206L 811.4874371859297 206L 813.8090452261306 206L 816.1306532663317 206L 818.4522613065327 206L 820.7738693467336 206L 823.0954773869347 206L 825.4170854271357 206L 827.7386934673367 206L 830.0603015075377 206L 832.3819095477387 206L 834.7035175879397 206L 837.0251256281407 206L 839.3467336683417 206L 841.6683417085427 206L 843.9899497487437 206L 846.3115577889447 206L 848.6331658291457 206L 850.9547738693468 206L 853.2763819095477 206L 855.5979899497487 206L 857.9195979899498 206L 860.2412060301507 206L 862.5628140703518 206L 864.8844221105528 206L 867.2060301507538 206L 869.5276381909548 206L 871.8492462311558 206L 874.1708542713568 206L 876.4924623115578 206L 878.8140703517588 206L 881.1356783919598 206L 883.4572864321608 206L 885.7788944723618 206L 888.1005025125628 206L 890.4221105527639 206L 892.7437185929648 206L 895.0653266331658 206L 897.3869346733669 206L 899.7085427135678 206L 902.0301507537689 206L 904.3517587939699 206L 906.6733668341708 206L 908.9949748743719 206L 911.3165829145729 206L 913.6381909547739 206L 915.9597989949749 206L 918.2814070351758 206L 920.6030150753769 206L 922.9246231155779 206L 925.2462311557789 206L 927.5678391959799 206L 929.8894472361809 206L 932.2110552763819 206L 934.5326633165829 206L 936.854271356784 206L 939.1758793969849 206L 941.4974874371859 206L 943.819095477387 206L 946.1407035175879 206L 948.462311557789 206L 950.78391959799 206L 953.1055276381909 206L 955.427135678392 206L 957.7487437185929 206L 960.070351758794 206L 962.391959798995 206L 964.7135678391959 206L 967.035175879397 206L 969.356783919598 206L 971.678391959799 206L 974 206" stroke-width="2.0" fill="none" />
    
        
        
        <text x="45.0" font-family="-apple-system, system-ui, BlinkMacSystemFont, Roboto" y="50.0" dominant-baseline="middle" text-anchor="end" font-size="12" fill="#24292f">27500.0</text>
        
            
            <path stroke="#74838f" stroke-dasharray="10 6" stroke-width="0.5"  d="M 50.0 50.0 L 974.0 50.0" />
        
    
        
        
        <text x="45.0" font-family="-apple-system, system-ui, BlinkMacSystemFont, Roboto" y="81.2" dominant-baseline="middle" text-anchor="end" font-size="12" fill="#24292f">22000.0</text>
        
            
            
            <path stroke="#74838f" stroke-dasharray="10 6" stroke-width="0.5"  d="M 50.0 81.2 L 974.0 81.2" />
        
    
        
        
        <text x="45.0" font-family="-apple-system, system-ui, BlinkMacSystemFont, Roboto" y="112.4" dominant-baseline="middle" text-anchor="end" font-size="12" fill="#24292f">16500.0</text>
        
            
            
            <path stroke="#74838f" stroke-dasharray="10 6" stroke-width="0.5"  d="M 50.0 112.4 L 974.0 112.4" />
        
    
        
        
        <text x="45.0" font-family="-apple-system, system-ui, BlinkMacSystemFont, Roboto" y="143.6" dominant-baseline="middle" text-anchor="end" font-size="12" fill="#24292f">11000.0</text>
        
            
            
            <path stroke="#74838f" stroke-dasharray="10 6" stroke-width="0.5"  d="M 50.0 143.6 L 974.0 143.6" />
        
    
        
        
        <text x="45.0" font-family="-apple-system, system-ui, BlinkMacSystemFont, Roboto" y="174.8" dominant-baseline="middle" text-anchor="end" font-size="12" fill="#24292f">5500.0</text>
        
            
            
            <path stroke="#74838f" stroke-dasharray="10 6" stroke-width="0.5"  d="M 50.0 174.8 L 974.0 174.8" />
        
    
        
        
        <text x="45.0" font-family="-apple-system, system-ui, BlinkMacSystemFont, Roboto" y="206.0" dominant-baseline="middle" text-anchor="end" font-size="12" fill="#24292f">0.0</text>
        
    
    
        
        <path stroke="#74838f"  stroke-width="2.0"  d="M 87.14572864321607 206.0 L 87.14572864321607 214.0" />
        <text x="87.14572864321607" font-family="-apple-system, system-ui, BlinkMacSystemFont, Roboto" y="216.0" dominant-baseline="hanging" text-anchor="middle" font-size="12" fill="#24292f">Mar 2022</text>
    
        
        <path stroke="#74838f"  stroke-width="2.0"  d="M 159.11557788944725 206.0 L 159.11557788944725 214.0" />
        <text x="159.11557788944725" font-family="-apple-system, system-ui, BlinkMacSystemFont, Roboto" y="216.0" dominant-baseline="hanging" text-anchor="middle" font-size="12" fill="#24292f">Apr 2022</text>
    
        
        <path stroke="#74838f"  stroke-width="2.0"  d="M 228.7638190954774 206.0 L 228.7638190954774 214.0" />
        <text x="228.7638190954774" font-family="-apple-system, system-ui, BlinkMacSystemFont, Roboto" y="216.0" dominant-baseline="hanging" text-anchor="middle" font-size="12" fill="#24292f">May 2022</text>
    
        
        <path stroke="#74838f"  stroke-width="2.0"  d="M 300.73366834170855 206.0 L 300.73366834170855 214.0" />
        <text x="300.73366834170855" font-family="-apple-system, system-ui, BlinkMacSystemFont, Roboto" y="216.0" dominant-baseline="hanging" text-anchor="middle" font-size="12" fill="#24292f">Jun 2022</text>
    
        
        <path stroke="#74838f"  stroke-width="2.0"  d="M 370.3819095477387 206.0 L 370.3819095477387 214.0" />
        <text x="370.3819095477387" font-family="-apple-system, system-ui, BlinkMacSystemFont, Roboto" y="216.0" dominant-baseline="hanging" text-anchor="middle" font-size="12" fill="#24292f">Jul 2022</text>
    
        
        <path stroke="#74838f"  stroke-width="2.0"  d="M 442.35175879396985 206.0 L 442.35175879396985 214.0" />
        <text x="442.35175879396985" font-family="-apple-system, system-ui, BlinkMacSystemFont, Roboto" y="216.0" dominant-baseline="hanging" text-anchor="middle" font-size="12" fill="#24292f">Aug 2022</text>
    
        
        <path stroke="#74838f"  stroke-width="2.0"  d="M 514.321608040201 206.0 L 514.321608040201 214.0" />
        <text x="514.321608040201" font-family="-apple-system, system-ui, BlinkMacSystemFont, Roboto" y="216.0" dominant-baseline="hanging" text-anchor="middle" font-size="12" fill="#24292f">Sep 2022</text>
    
        
        <path stroke="#74838f"  stroke-width="2.0"  d="M 583.9698492462311 206.0 L 583.9698492462311 214.0" />
        <text x="583.9698492462311" font-family="-apple-system, system-ui, BlinkMacSystemFont, Roboto" y="216.0" dominant-baseline="hanging" text-anchor="middle" font-size="12" fill="#24292f">Oct 2022</text>
    
        
        <path stroke="#74838f"  stroke-width="2.0"  d="M 655.9396984924623 206.0 L 655.9396984924623 214.0" />
        <text x="655.9396984924623" font-family="-apple-system, system-ui, BlinkMacSystemFont, Roboto" y="216.0" dominant-baseline="hanging" text-anchor="middle" font-size="12" fill="#24292f">Nov 2022</text>
    
        
        <path stroke="#74838f"  stroke-width="2.0"  d="M 725.5879396984925 206.0 L 725.5879396984925 214.0" />
        <text x="725.5879396984925" font-family="-apple-system, system-ui, BlinkMacSystemFont, Roboto" y="216.0" dominant-baseline="hanging" text-anchor="middle" font-size="12" fill="#24292f">Dec 2022</text>
    
        
        <path stroke="#74838f"  stroke-width="2.0"  d="M 797.5577889447236 206.0 L 797.5577889447236 214.0" />
        <text x="797.5577889447236" font-family="-apple-system, system-ui, BlinkMacSystemFont, Roboto" y="216.0" dominant-baseline="hanging" text-anchor="middle" font-size="12" fill="#24292f">Jan 2023</text>
    
        
        <path stroke="#74838f"  stroke-width="2.0"  d="M 869.5276381909548 206.0 L 869.5276381909548 214.0" />
        <text x="869.5276381909548" font-family="-apple-system, system-ui, BlinkMacSystemFont, Roboto" y="216.0" dominant-baseline="hanging" text-anchor="middle" font-size="12" fill="#24292f">Feb 2023</text>
    
        
        <path stroke="#74838f"  stroke-width="2.0"  d="M 934.5326633165829 206.0 L 934.5326633165829 214.0" />
        <text x="934.5326633165829" font-family="-apple-system, system-ui, BlinkMacSystemFont, Roboto" y="216.0" dominant-baseline="hanging" text-anchor="middle" font-size="12" fill="#24292f">Mar 2023</text>
    
    <path stroke="#74838f"   stroke-linejoin="round" stroke-width="2.0" d="M 50.0 216.0 L 50.0 206.0 L 974.0 206.0 L 974.0 216.0"  fill="none" />
    <text x="512.0" y="25.0" font-family="-apple-system, system-ui, BlinkMacSystemFont, Roboto" dominant-baseline="middle" text-anchor="middle" font-size="18" fill="#24292f">Total daily screen name changes</text>
</svg>
