<?xml version="1.0" standalone="no"?>
<svg width="1024.0" height="256.0"  viewBox="0 0 1024.0 256.0" preserveAspectRatio="xMidYMid meet" xmlns="http://www.w3.org/2000/svg">
    <path stroke="#3498db" stroke-linejoin="round" d="M 50.0 203.3394909090909 L 50 203.3394909090909L 52.808510638297875 202.32974545454545L 55.61702127659574 196.86690909090908L 58.42553191489362 195.94792727272727L 61.234042553191486 202.14254545454546L 64.04255319148936 197.35476363636363L 66.85106382978724 191.76145454545454L 69.65957446808511 179.96218181818182L 72.46808510638297 204.09396363636364L 75.27659574468085 194.17236363636363L 78.08510638297872 192.61803636363635L 80.8936170212766 195.1253818181818L 83.70212765957447 193.92843636363637L 86.51063829787233 182.2482909090909L 89.31914893617022 200.86618181818181L 92.12765957446808 201.45614545454546L 94.93617021276596 178.89003636363637L 97.74468085106383 197.33774545454546L 100.5531914893617 198.50065454545455L 103.36170212765958 200.41803636363636L 106.17021276595744 201.18385454545455L 108.9787234042553 202.26734545454545L 111.7872340425532 195.09134545454546L 114.59574468085106 198.08087272727272L 117.40425531914893 183.38850909090908L 120.2127659574468 197.47389090909093L 123.02127659574468 202.01774545454546L 125.82978723404256 194.66021818181818L 128.63829787234044 200.75272727272727L 131.44680851063828 200.00392727272728L 134.25531914893617 201.97236363636364L 137.06382978723406 204.2754909090909L 139.87234042553192 201.74545454545455L 142.68085106382978 201.01367272727273L 145.48936170212767 174.7829818181818L 148.29787234042553 195.76072727272728L 151.1063829787234 204.0032L 153.91489361702128 203.7309090909091L 156.72340425531917 197.87665454545453L 159.53191489361703 202.60770909090908L 162.3404255319149 202.6928L 165.14893617021278 197.55898181818182L 167.9574468085106 186.5141818181818L 170.7659574468085 199.26647272727274L 173.5744680851064 199.5728L 176.38297872340425 193.4802909090909L 179.1914893617021 199.10763636363635L 182 201.54690909090908L 184.80851063829786 201.5696L 187.61702127659575 195.06865454545454L 190.4255319148936 201.70007272727273L 193.23404255319147 197.2866909090909L 196.04255319148936 172.35505454545455L 198.85106382978722 203.20901818181818L 201.6595744680851 199.6749090909091L 204.46808510638297 193.12858181818183L 207.27659574468086 196.8896L 210.08510638297872 199.78836363636364L 212.89361702127658 198.82967272727274L 215.70212765957447 204.1336727272727L 218.51063829787233 202.57934545454546L 221.31914893617022 198.9261090909091L 224.12765957446808 206L 226.93617021276594 204.128L 229.74468085106383 192.1245090909091L 232.5531914893617 206L 235.36170212765958 206L 238.17021276595744 206L 240.97872340425533 206L 243.7872340425532 197.37178181818183L 246.59574468085106 199.57847272727273L 249.40425531914894 188.9024L 252.2127659574468 195.02894545454546L 255.0212765957447 191.20552727272727L 257.82978723404256 166.8128L 260.63829787234044 203.8386909090909L 263.44680851063833 198.09221818181817L 266.25531914893617 201.64334545454545L 269.06382978723406 202.2957090909091L 271.8723404255319 203.22036363636363L 274.6808510638298 200.66763636363635L 277.48936170212767 191.51185454545455L 280.29787234042556 189.18603636363636L 283.10638297872345 203.86705454545455L 285.9148936170212 197.56465454545454L 288.72340425531917 187.32538181818182L 291.531914893617 201.2349090909091L 294.3404255319149 200.44639999999998L 297.1489361702128 201.4618181818182L 299.95744680851067 201.09876363636363L 302.7659574468085 201.17818181818183L 305.5744680851064 193.02647272727273L 308.3829787234042 198.8069818181818L 311.1914893617021 203.39054545454545L 314 200.30458181818182L 316.8085106382979 198.35883636363636L 319.6170212765957 193.3101090909091L 322.4255319148936 200.56552727272728L 325.2340425531915 203.03883636363636L 328.0425531914894 197.22996363636364L 330.8510638297872 201.95534545454547L 333.6595744680851 196.016L 336.46808510638294 202.30705454545455L 339.2765957446809 199.91316363636363L 342.0851063829787 194.62050909090908L 344.8936170212766 201.29163636363637L 347.70212765957444 202.98778181818182L 350.51063829787233 203.5437090909091L 353.3191489361702 200.60523636363638L 356.1276595744681 195.5621818181818L 358.93617021276594 203.24305454545456L 361.74468085106383 200.15709090909093L 364.5531914893617 198.46661818181818L 367.3617021276596 201.70007272727273L 370.17021276595744 200.70734545454545L 372.97872340425533 200.4293818181818L 375.78723404255317 201.76814545454545L 378.5957446808511 204.6442181818182L 381.40425531914894 206L 384.21276595744683 196.35636363636365L 387.02127659574467 199.21541818181817L 389.82978723404256 156.87418181818182L 392.63829787234044 165.1506909090909L 395.44680851063833 204.1733818181818L 398.25531914893617 202.17658181818183L 401.06382978723406 199.31185454545454L 403.8723404255319 198.7842909090909L 406.68085106382983 202.6757818181818L 409.48936170212767 202.8573090909091L 412.29787234042556 196.1861818181818L 415.1063829787234 199.64654545454545L 417.9148936170213 198.2056727272727L 420.72340425531917 201.2178909090909L 423.531914893617 201.79083636363637L 426.3404255319149 201.90429090909092L 429.1489361702127 200.1968L 431.95744680851067 195.17076363636363L 434.7659574468085 206L 437.5744680851064 206L 440.3829787234042 206L 443.1914893617021 191.4834909090909L 446 197.79723636363636L 448.8085106382979 198.85236363636363L 451.6170212765957 199.76L 454.4255319148936 200.03796363636363L 457.23404255319144 200.76407272727272L 460.0425531914894 201.80785454545455L 462.8510638297872 191.63098181818182L 465.6595744680851 194.41061818181817L 468.46808510638294 199.88479999999998L 471.27659574468083 152.63098181818182L 474.0851063829787 197.04843636363637L 476.8936170212766 194.4730181818182L 479.70212765957444 155.90414545454547L 482.51063829787233 91.60945454545454L 485.3191489361702 104.5376L 488.1276595744681 151.17876363636364L 490.93617021276594 185.1981090909091L 493.74468085106383 142.76610909090908L 496.55319148936167 125.0672L 499.3617021276596 123.74545454545455L 502.17021276595744 157.99738181818182L 504.97872340425533 53.56814545454546L 507.78723404255317 50.78850909090909L 510.59574468085106 100.02210909090908L 513.404255319149 156.2445090909091L 516.2127659574469 180.31956363636363L 519.0212765957447 192.43650909090908L 521.8297872340424 193.63912727272728L 524.6382978723404 193.3328L 527.4468085106383 192.11316363636365L 530.2553191489362 197.93338181818183L 533.063829787234 191.5629090909091L 535.872340425532 198.7672727272727L 538.6808510638298 199.3005090909091L 541.4893617021277 201.64901818181818L 544.2978723404256 200.58821818181818L 547.1063829787234 202.43752727272727L 549.9148936170213 200.73003636363637L 552.7234042553191 189.7703272727273L 555.531914893617 203.17498181818183L 558.3404255319149 200.48610909090908L 561.1489361702128 185.1810909090909L 563.9574468085107 187.88698181818182L 566.7659574468084 191.01832727272728L 569.5744680851064 192.31738181818181L 572.3829787234042 177.09745454545455L 575.1914893617021 167.91330909090908L 578 179.30981818181817L 580.8085106382979 186.49716363636364L 583.6170212765958 150.34487272727273L 586.4255319148937 184.27345454545454L 589.2340425531914 199.5104L 592.0425531914894 161.24785454545454L 594.8510638297872 155.49003636363636L 597.6595744680851 176.96130909090908L 600.468085106383 190.30923636363636L 603.2765957446809 193.50865454545453L 606.0851063829788 201.72843636363638L 608.8936170212766 185.22647272727272L 611.7021276595744 192.03374545454545L 614.5106382978723 192.66909090909093L 617.3191489361702 180.18341818181818L 620.1276595744681 194.5013818181818L 622.9361702127659 194.6829090909091L 625.7446808510638 201.85323636363637L 628.5531914893618 196.2032L 631.3617021276596 204.49105454545455L 634.1702127659574 191.55723636363638L 636.9787234042552 180.36494545454545L 639.7872340425532 193.02647272727273L 642.5957446808511 186.20785454545455L 645.4042553191489 191.72741818181817L 648.2127659574468 191.4834909090909L 651.0212765957447 196.63432727272726L 653.8297872340426 200.7810909090909L 656.6382978723404 176.26923636363637L 659.4468085106382 165.78036363636363L 662.2553191489362 181.82850909090908L 665.063829787234 160.6976L 667.8723404255319 163.93105454545454L 670.6808510638298 182.10647272727272L 673.4893617021277 130.808L 676.2978723404256 190.49643636363635L 679.1063829787234 202.0914909090909L 681.9148936170212 184.09192727272728L 684.7234042553192 197.50225454545455L 687.531914893617 187.54094545454547L 690.3404255319149 192.95272727272726L 693.1489361702128 201.88727272727272L 695.9574468085107 184.33585454545454L 698.7659574468086 183.04814545454545L 701.5744680851063 182.36741818181818L 704.3829787234042 182.54327272727272L 707.1914893617022 186.38938181818182L 710 174.3858909090909L 712.8085106382979 183.1786181818182L 715.6170212765957 183.5133090909091L 718.4255319148937 184.60247272727273L 721.2340425531916 186.968L 724.0425531914893 170.00087272727274L 726.8510638297872 167.8338909090909L 729.6595744680851 203.32247272727273L 732.468085106383 206L 735.2765957446809 128.43112727272728L 738.0851063829787 183.2637090909091L 740.8936170212767 156.8685090909091L 743.7021276595744 183.15592727272727L 746.5106382978723 183.2013090909091L 749.3191489361702 182.25963636363636L 752.1276595744681 170.18807272727273L 754.936170212766 186.86589090909092L 757.7446808510638 183.77425454545454L 760.5531914893617 186.29861818181817L 763.3617021276597 184.17134545454545L 766.1702127659574 184.9655272727273L 768.9787234042553 178.1696L 771.7872340425531 180.70530909090908L 774.5957446808511 170.80072727272727L 777.404255319149 177.99374545454546L 780.2127659574468 175.99127272727273L 783.0212765957447 173.75621818181818L 785.8297872340426 175.45803636363638L 788.6382978723404 196.91796363636365L 791.4468085106383 150.30516363636363L 794.2553191489361 167.34036363636363L 797.063829787234 174.52203636363637L 799.8723404255319 132.05599999999998L 802.6808510638298 144.8309818181818L 805.4893617021277 173.60872727272726L 808.2978723404254 151.91054545454546L 811.1063829787234 194.03621818181819L 813.9148936170213 160.59549090909093L 816.7234042553191 206L 819.531914893617 153.43650909090908L 822.3404255319149 181.01163636363637L 825.1489361702128 181.6413090909091L 827.9574468085107 182.49221818181817L 830.7659574468084 183.08785454545455L 833.5744680851064 206L 836.3829787234042 151.86516363636363L 839.1914893617021 172.45716363636365L 842 169.20669090909092L 844.8085106382979 178.22065454545455L 847.6170212765958 175.54312727272728L 850.4255319148936 177.61367272727273L 853.2340425531914 181.0173090909091L 856.0425531914894 176.80814545454547L 858.8510638297872 167.8962909090909L 861.6595744680851 167.1248L 864.4680851063829 176.62094545454545L 867.2765957446809 158.63272727272727L 870.0851063829788 151.3602909090909L 872.8936170212766 173.35345454545455L 875.7021276595744 206L 878.5106382978723 206L 881.3191489361702 206L 884.1276595744681 206L 886.9361702127659 206L 889.7446808510639 206L 892.5531914893617 206L 895.3617021276596 206L 898.1702127659574 206L 900.9787234042553 206L 903.7872340425532 206L 906.595744680851 206L 909.4042553191489 206L 912.2127659574469 206L 915.0212765957447 206L 917.8297872340426 206L 920.6382978723404 206L 923.4468085106383 206L 926.2553191489362 206L 929.063829787234 206L 931.8723404255319 206L 934.6808510638298 206L 937.4893617021277 206L 940.2978723404256 206L 943.1063829787233 206L 945.9148936170213 206L 948.7234042553192 206L 951.531914893617 206L 954.3404255319149 206L 957.1489361702128 206L 959.9574468085107 206L 962.7659574468086 206L 965.5744680851063 206L 968.3829787234043 206L 971.1914893617021 206L 974 206" stroke-width="2.0" fill="none" />
    
        
        
        <text x="45.0" font-family="-apple-system, system-ui, BlinkMacSystemFont, Roboto" y="50.0" dominant-baseline="middle" text-anchor="end" font-size="12" fill="#24292f">27500.0</text>
        
            
            <path stroke="#74838f" stroke-dasharray="10 6" stroke-width="0.5"  d="M 50.0 50.0 L 974.0 50.0" />
        
    
        
        
        <text x="45.0" font-family="-apple-system, system-ui, BlinkMacSystemFont, Roboto" y="81.2" dominant-baseline="middle" text-anchor="end" font-size="12" fill="#24292f">22000.0</text>
        
            
            
            <path stroke="#74838f" stroke-dasharray="10 6" stroke-width="0.5"  d="M 50.0 81.2 L 974.0 81.2" />
        
    
        
        
        <text x="45.0" font-family="-apple-system, system-ui, BlinkMacSystemFont, Roboto" y="112.4" dominant-baseline="middle" text-anchor="end" font-size="12" fill="#24292f">16500.0</text>
        
            
            
            <path stroke="#74838f" stroke-dasharray="10 6" stroke-width="0.5"  d="M 50.0 112.4 L 974.0 112.4" />
        
    
        
        
        <text x="45.0" font-family="-apple-system, system-ui, BlinkMacSystemFont, Roboto" y="143.6" dominant-baseline="middle" text-anchor="end" font-size="12" fill="#24292f">11000.0</text>
        
            
            
            <path stroke="#74838f" stroke-dasharray="10 6" stroke-width="0.5"  d="M 50.0 143.6 L 974.0 143.6" />
        
    
        
        
        <text x="45.0" font-family="-apple-system, system-ui, BlinkMacSystemFont, Roboto" y="174.8" dominant-baseline="middle" text-anchor="end" font-size="12" fill="#24292f">5500.0</text>
        
            
            
            <path stroke="#74838f" stroke-dasharray="10 6" stroke-width="0.5"  d="M 50.0 174.8 L 974.0 174.8" />
        
    
        
        
        <text x="45.0" font-family="-apple-system, system-ui, BlinkMacSystemFont, Roboto" y="206.0" dominant-baseline="middle" text-anchor="end" font-size="12" fill="#24292f">0.0</text>
        
    
    
        
        <path stroke="#74838f"  stroke-width="2.0"  d="M 94.93617021276596 206.0 L 94.93617021276596 214.0" />
        <text x="94.93617021276596" font-family="-apple-system, system-ui, BlinkMacSystemFont, Roboto" y="216.0" dominant-baseline="hanging" text-anchor="middle" font-size="12" fill="#24292f">Mar 2022</text>
    
        
        <path stroke="#74838f"  stroke-width="2.0"  d="M 182.0 206.0 L 182.0 214.0" />
        <text x="182.0" font-family="-apple-system, system-ui, BlinkMacSystemFont, Roboto" y="216.0" dominant-baseline="hanging" text-anchor="middle" font-size="12" fill="#24292f">Apr 2022</text>
    
        
        <path stroke="#74838f"  stroke-width="2.0"  d="M 266.25531914893617 206.0 L 266.25531914893617 214.0" />
        <text x="266.25531914893617" font-family="-apple-system, system-ui, BlinkMacSystemFont, Roboto" y="216.0" dominant-baseline="hanging" text-anchor="middle" font-size="12" fill="#24292f">May 2022</text>
    
        
        <path stroke="#74838f"  stroke-width="2.0"  d="M 353.3191489361702 206.0 L 353.3191489361702 214.0" />
        <text x="353.3191489361702" font-family="-apple-system, system-ui, BlinkMacSystemFont, Roboto" y="216.0" dominant-baseline="hanging" text-anchor="middle" font-size="12" fill="#24292f">Jun 2022</text>
    
        
        <path stroke="#74838f"  stroke-width="2.0"  d="M 437.5744680851064 206.0 L 437.5744680851064 214.0" />
        <text x="437.5744680851064" font-family="-apple-system, system-ui, BlinkMacSystemFont, Roboto" y="216.0" dominant-baseline="hanging" text-anchor="middle" font-size="12" fill="#24292f">Jul 2022</text>
    
        
        <path stroke="#74838f"  stroke-width="2.0"  d="M 524.6382978723404 206.0 L 524.6382978723404 214.0" />
        <text x="524.6382978723404" font-family="-apple-system, system-ui, BlinkMacSystemFont, Roboto" y="216.0" dominant-baseline="hanging" text-anchor="middle" font-size="12" fill="#24292f">Aug 2022</text>
    
        
        <path stroke="#74838f"  stroke-width="2.0"  d="M 611.7021276595744 206.0 L 611.7021276595744 214.0" />
        <text x="611.7021276595744" font-family="-apple-system, system-ui, BlinkMacSystemFont, Roboto" y="216.0" dominant-baseline="hanging" text-anchor="middle" font-size="12" fill="#24292f">Sep 2022</text>
    
        
        <path stroke="#74838f"  stroke-width="2.0"  d="M 695.9574468085107 206.0 L 695.9574468085107 214.0" />
        <text x="695.9574468085107" font-family="-apple-system, system-ui, BlinkMacSystemFont, Roboto" y="216.0" dominant-baseline="hanging" text-anchor="middle" font-size="12" fill="#24292f">Oct 2022</text>
    
        
        <path stroke="#74838f"  stroke-width="2.0"  d="M 783.0212765957447 206.0 L 783.0212765957447 214.0" />
        <text x="783.0212765957447" font-family="-apple-system, system-ui, BlinkMacSystemFont, Roboto" y="216.0" dominant-baseline="hanging" text-anchor="middle" font-size="12" fill="#24292f">Nov 2022</text>
    
        
        <path stroke="#74838f"  stroke-width="2.0"  d="M 867.2765957446809 206.0 L 867.2765957446809 214.0" />
        <text x="867.2765957446809" font-family="-apple-system, system-ui, BlinkMacSystemFont, Roboto" y="216.0" dominant-baseline="hanging" text-anchor="middle" font-size="12" fill="#24292f">Dec 2022</text>
    
        
        <path stroke="#74838f"  stroke-width="2.0"  d="M 954.3404255319149 206.0 L 954.3404255319149 214.0" />
        <text x="954.3404255319149" font-family="-apple-system, system-ui, BlinkMacSystemFont, Roboto" y="216.0" dominant-baseline="hanging" text-anchor="middle" font-size="12" fill="#24292f">Jan 2023</text>
    
    <path stroke="#74838f"   stroke-linejoin="round" stroke-width="2.0" d="M 50.0 216.0 L 50.0 206.0 L 974.0 206.0 L 974.0 216.0"  fill="none" />
    <text x="512.0" y="25.0" font-family="-apple-system, system-ui, BlinkMacSystemFont, Roboto" dominant-baseline="middle" text-anchor="middle" font-size="18" fill="#24292f">Total daily screen name changes</text>
</svg>
