<?xml version="1.0" standalone="no"?>
<svg width="1024.0" height="256.0"  viewBox="0 0 1024.0 256.0" preserveAspectRatio="xMidYMid meet" xmlns="http://www.w3.org/2000/svg">
    <path stroke="#3498db" stroke-linejoin="round" d="M 50.0 203.36785454545455 L 50 203.36785454545455L 53.142857142857146 202.33541818181817L 56.285714285714285 196.87825454545455L 59.42857142857143 195.9536L 62.57142857142857 202.14254545454546L 65.71428571428572 197.36043636363638L 68.85714285714286 191.78414545454547L 72 179.96218181818182L 75.14285714285714 204.09396363636364L 78.28571428571428 194.17236363636363L 81.42857142857143 192.61803636363635L 84.57142857142857 195.1253818181818L 87.71428571428571 193.92843636363637L 90.85714285714286 182.2482909090909L 94 200.86618181818181L 97.14285714285714 201.4618181818182L 100.28571428571428 178.89003636363637L 103.42857142857143 197.33774545454546L 106.57142857142857 198.50065454545455L 109.71428571428572 200.41803636363636L 112.85714285714286 201.18385454545455L 116 202.26734545454545L 119.14285714285714 195.09701818181819L 122.28571428571429 198.08087272727272L 125.42857142857142 183.38850909090908L 128.57142857142856 197.47389090909093L 131.71428571428572 202.01774545454546L 134.85714285714286 194.66021818181818L 138 200.75272727272727L 141.14285714285714 200.00392727272728L 144.28571428571428 201.97236363636364L 147.42857142857144 204.2754909090909L 150.57142857142856 201.74545454545455L 153.71428571428572 201.01367272727273L 156.85714285714286 174.7829818181818L 160 195.76072727272728L 163.14285714285714 204.0032L 166.28571428571428 203.7309090909091L 169.42857142857144 197.87665454545453L 172.57142857142858 202.60770909090908L 175.71428571428572 202.6928L 178.85714285714283 197.55898181818182L 182 186.5141818181818L 185.14285714285714 199.26647272727274L 188.28571428571428 199.57847272727273L 191.42857142857144 193.4802909090909L 194.57142857142858 199.1133090909091L 197.71428571428572 201.54690909090908L 200.85714285714283 201.5696L 204 195.07432727272726L 207.14285714285714 201.70574545454545L 210.28571428571428 197.2866909090909L 213.42857142857142 172.3664L 216.57142857142858 203.20901818181818L 219.71428571428572 199.6749090909091L 222.85714285714286 193.12858181818183L 226 196.90094545454545L 229.14285714285714 199.78836363636364L 232.28571428571428 198.82967272727274L 235.42857142857142 204.1336727272727L 238.57142857142858 202.57934545454546L 241.71428571428572 198.9261090909091L 244.85714285714286 206L 248 204.128L 251.14285714285714 192.1245090909091L 254.28571428571428 206L 257.42857142857144 206L 260.57142857142856 206L 263.7142857142857 206L 266.8571428571429 197.37178181818183L 270 199.57847272727273L 273.1428571428571 188.9024L 276.2857142857143 195.02894545454546L 279.42857142857144 191.20552727272727L 282.57142857142856 166.80712727272726L 285.7142857142857 203.8386909090909L 288.8571428571429 198.09221818181817L 292 201.64334545454545L 295.14285714285717 202.2957090909091L 298.28571428571433 203.22036363636363L 301.42857142857144 200.66763636363635L 304.57142857142856 191.51185454545455L 307.71428571428567 189.18603636363636L 310.85714285714283 203.86705454545455L 314 197.56465454545454L 317.1428571428571 187.32538181818182L 320.2857142857143 201.24058181818182L 323.42857142857144 200.44639999999998L 326.57142857142856 201.4618181818182L 329.7142857142857 201.09876363636363L 332.8571428571429 201.17818181818183L 336 193.02647272727273L 339.14285714285717 198.8069818181818L 342.2857142857143 203.39054545454545L 345.42857142857144 200.30458181818182L 348.5714285714286 198.3645090909091L 351.71428571428567 193.30443636363637L 354.85714285714283 200.56552727272728L 358 203.03883636363636L 361.1428571428571 197.22996363636364L 364.2857142857143 201.95534545454547L 367.42857142857144 196.016L 370.57142857142856 202.30705454545455L 373.7142857142857 199.91316363636363L 376.85714285714283 194.62050909090908L 380 201.29163636363637L 383.14285714285717 202.98778181818182L 386.2857142857143 203.5437090909091L 389.42857142857144 200.60523636363638L 392.5714285714286 195.5621818181818L 395.7142857142857 203.24305454545456L 398.85714285714283 200.16276363636365L 402 198.46661818181818L 405.1428571428571 201.70007272727273L 408.2857142857143 200.70734545454545L 411.42857142857144 200.4293818181818L 414.57142857142856 201.76814545454545L 417.7142857142857 204.6442181818182L 420.85714285714283 206L 424 196.35636363636365L 427.14285714285717 199.20974545454544L 430.2857142857143 156.8685090909091L 433.42857142857144 165.1450181818182L 436.5714285714286 204.1733818181818L 439.7142857142857 202.17658181818183L 442.85714285714283 199.31185454545454L 446 198.78996363636364L 449.1428571428571 202.6757818181818L 452.2857142857143 202.8573090909091L 455.42857142857144 196.1861818181818L 458.57142857142856 199.64654545454545L 461.7142857142857 198.2056727272727L 464.85714285714283 201.2178909090909L 468 201.79083636363637L 471.14285714285717 201.90429090909092L 474.2857142857143 200.1968L 477.42857142857144 195.17076363636363L 480.5714285714286 206L 483.7142857142857 206L 486.8571428571429 206L 490 191.4834909090909L 493.1428571428571 197.79723636363636L 496.2857142857143 198.85236363636363L 499.4285714285714 199.76L 502.57142857142856 200.03796363636363L 505.7142857142857 200.76407272727272L 508.85714285714283 201.80785454545455L 512 191.63098181818182L 515.1428571428571 194.41061818181817L 518.2857142857142 199.88479999999998L 521.4285714285714 152.63098181818182L 524.5714285714287 197.0541090909091L 527.7142857142858 194.4730181818182L 530.8571428571429 155.90414545454547L 534 91.60945454545454L 537.1428571428571 104.51490909090909L 540.2857142857143 151.17876363636364L 543.4285714285714 185.1981090909091L 546.5714285714287 142.7717818181818L 549.7142857142858 125.06152727272728L 552.8571428571429 123.74545454545455L 556 157.9917090909091L 559.1428571428571 53.56814545454546L 562.2857142857142 50.78283636363636L 565.4285714285713 100.02210909090908L 568.5714285714286 156.2445090909091L 571.7142857142857 180.31956363636363L 574.8571428571428 192.43650909090908L 578 193.63912727272728L 581.1428571428571 193.3328L 584.2857142857142 192.11316363636365L 587.4285714285714 197.93338181818183L 590.5714285714286 191.5629090909091L 593.7142857142857 198.7672727272727L 596.8571428571429 199.3005090909091L 600 201.64901818181818L 603.1428571428571 200.58821818181818L 606.2857142857143 202.43752727272727L 609.4285714285714 200.73003636363637L 612.5714285714286 189.7703272727273L 615.7142857142858 203.17498181818183L 618.8571428571429 200.48610909090908L 622 185.1810909090909L 625.1428571428571 187.88698181818182L 628.2857142857143 191.01265454545455L 631.4285714285714 192.31738181818181L 634.5714285714286 177.09745454545455L 637.7142857142858 167.91330909090908L 640.8571428571429 179.30981818181817L 644 186.49716363636364L 647.1428571428572 150.34487272727273L 650.2857142857143 184.27345454545454L 653.4285714285713 199.5104L 656.5714285714286 161.24785454545454L 659.7142857142857 155.47869090909091L 662.8571428571428 176.96130909090908L 666 190.30923636363636L 669.1428571428571 193.50865454545453L 672.2857142857142 201.72843636363638L 675.4285714285714 185.23214545454545L 678.5714285714286 192.03374545454545L 681.7142857142857 192.66909090909093L 684.8571428571429 180.1890909090909L 688 194.5013818181818L 691.1428571428571 194.6829090909091L 694.2857142857143 201.85323636363637L 697.4285714285714 196.2032L 700.5714285714286 204.49105454545455L 703.7142857142857 191.55723636363638L 706.8571428571429 180.36494545454545L 710 193.02647272727273L 713.1428571428571 186.20785454545455L 716.2857142857143 191.72741818181817L 719.4285714285714 191.47781818181818L 722.5714285714286 196.63432727272726L 725.7142857142858 200.7810909090909L 728.8571428571429 176.26923636363637L 732 165.78603636363636L 735.1428571428572 181.82850909090908L 738.2857142857143 160.6976L 741.4285714285714 163.93105454545454L 744.5714285714286 182.10647272727272L 747.7142857142857 130.79098181818182L 750.8571428571428 190.49643636363635L 754 202.0914909090909L 757.1428571428571 184.09192727272728L 760.2857142857142 197.50225454545455L 763.4285714285714 187.54094545454547L 766.5714285714286 192.95272727272726L 769.7142857142857 201.88727272727272L 772.8571428571429 184.34152727272726L 776 183.0594909090909L 779.1428571428571 182.36741818181818L 782.2857142857143 182.54327272727272L 785.4285714285714 186.3837090909091L 788.5714285714286 174.39156363636363L 791.7142857142857 183.17294545454547L 794.8571428571429 183.50763636363635L 798 184.60247272727273L 801.1428571428571 186.96232727272726L 804.2857142857143 169.9895272727273L 807.4285714285714 167.84523636363636L 810.5714285714286 203.32247272727273L 813.7142857142858 206L 816.8571428571429 128.44247272727273L 820 183.24669090909092L 823.1428571428572 156.8685090909091L 826.2857142857143 183.15592727272727L 829.4285714285714 183.2013090909091L 832.5714285714287 182.2709818181818L 835.7142857142857 170.18807272727273L 838.8571428571428 186.86589090909092L 842 183.77425454545454L 845.1428571428571 186.29861818181817L 848.2857142857142 184.17134545454545L 851.4285714285714 184.9655272727273L 854.5714285714286 178.1696L 857.7142857142857 180.71098181818184L 860.8571428571429 170.79505454545455L 864 177.99941818181819L 867.1428571428571 175.99127272727273L 870.2857142857142 173.80727272727273L 873.4285714285714 175.45803636363638L 876.5714285714286 196.91796363636365L 879.7142857142857 150.2994909090909L 882.8571428571429 167.3346909090909L 886 174.51636363636362L 889.1428571428571 132.05599999999998L 892.2857142857143 144.8253090909091L 895.4285714285714 173.58603636363637L 898.5714285714286 151.91054545454546L 901.7142857142858 194.0418909090909L 904.8571428571429 160.60116363636362L 908 206L 911.1428571428572 153.4138181818182L 914.2857142857143 181.01163636363637L 917.4285714285714 181.6413090909091L 920.5714285714287 182.50356363636365L 923.7142857142858 183.08218181818182L 926.8571428571429 206L 930 151.8992L 933.1428571428571 172.44014545454547L 936.2857142857142 169.19534545454545L 939.4285714285714 178.20363636363635L 942.5714285714286 175.5261090909091L 945.7142857142857 177.61367272727273L 948.8571428571428 181.01163636363637L 952 176.80247272727271L 955.1428571428571 167.89061818181818L 958.2857142857142 167.11345454545454L 961.4285714285714 176.60392727272728L 964.5714285714286 158.60436363636364L 967.7142857142857 151.2978909090909L 970.8571428571429 194.21774545454545L 974 206" stroke-width="2.0" fill="none" />
    
        
        
        <text x="45.0" font-family="-apple-system, system-ui, BlinkMacSystemFont, Roboto" y="50.0" dominant-baseline="middle" text-anchor="end" font-size="12" fill="#24292f">27500.0</text>
        
            
            <path stroke="#74838f" stroke-dasharray="10 6" stroke-width="0.5"  d="M 50.0 50.0 L 974.0 50.0" />
        
    
        
        
        <text x="45.0" font-family="-apple-system, system-ui, BlinkMacSystemFont, Roboto" y="81.2" dominant-baseline="middle" text-anchor="end" font-size="12" fill="#24292f">22000.0</text>
        
            
            
            <path stroke="#74838f" stroke-dasharray="10 6" stroke-width="0.5"  d="M 50.0 81.2 L 974.0 81.2" />
        
    
        
        
        <text x="45.0" font-family="-apple-system, system-ui, BlinkMacSystemFont, Roboto" y="112.4" dominant-baseline="middle" text-anchor="end" font-size="12" fill="#24292f">16500.0</text>
        
            
            
            <path stroke="#74838f" stroke-dasharray="10 6" stroke-width="0.5"  d="M 50.0 112.4 L 974.0 112.4" />
        
    
        
        
        <text x="45.0" font-family="-apple-system, system-ui, BlinkMacSystemFont, Roboto" y="143.6" dominant-baseline="middle" text-anchor="end" font-size="12" fill="#24292f">11000.0</text>
        
            
            
            <path stroke="#74838f" stroke-dasharray="10 6" stroke-width="0.5"  d="M 50.0 143.6 L 974.0 143.6" />
        
    
        
        
        <text x="45.0" font-family="-apple-system, system-ui, BlinkMacSystemFont, Roboto" y="174.8" dominant-baseline="middle" text-anchor="end" font-size="12" fill="#24292f">5500.0</text>
        
            
            
            <path stroke="#74838f" stroke-dasharray="10 6" stroke-width="0.5"  d="M 50.0 174.8 L 974.0 174.8" />
        
    
        
        
        <text x="45.0" font-family="-apple-system, system-ui, BlinkMacSystemFont, Roboto" y="206.0" dominant-baseline="middle" text-anchor="end" font-size="12" fill="#24292f">0.0</text>
        
    
    
        
        <path stroke="#74838f"  stroke-width="2.0"  d="M 100.28571428571428 206.0 L 100.28571428571428 214.0" />
        <text x="100.28571428571428" font-family="-apple-system, system-ui, BlinkMacSystemFont, Roboto" y="216.0" dominant-baseline="hanging" text-anchor="middle" font-size="12" fill="#24292f">Mar 2022</text>
    
        
        <path stroke="#74838f"  stroke-width="2.0"  d="M 197.71428571428572 206.0 L 197.71428571428572 214.0" />
        <text x="197.71428571428572" font-family="-apple-system, system-ui, BlinkMacSystemFont, Roboto" y="216.0" dominant-baseline="hanging" text-anchor="middle" font-size="12" fill="#24292f">Apr 2022</text>
    
        
        <path stroke="#74838f"  stroke-width="2.0"  d="M 292.0 206.0 L 292.0 214.0" />
        <text x="292.0" font-family="-apple-system, system-ui, BlinkMacSystemFont, Roboto" y="216.0" dominant-baseline="hanging" text-anchor="middle" font-size="12" fill="#24292f">May 2022</text>
    
        
        <path stroke="#74838f"  stroke-width="2.0"  d="M 389.42857142857144 206.0 L 389.42857142857144 214.0" />
        <text x="389.42857142857144" font-family="-apple-system, system-ui, BlinkMacSystemFont, Roboto" y="216.0" dominant-baseline="hanging" text-anchor="middle" font-size="12" fill="#24292f">Jun 2022</text>
    
        
        <path stroke="#74838f"  stroke-width="2.0"  d="M 483.7142857142857 206.0 L 483.7142857142857 214.0" />
        <text x="483.7142857142857" font-family="-apple-system, system-ui, BlinkMacSystemFont, Roboto" y="216.0" dominant-baseline="hanging" text-anchor="middle" font-size="12" fill="#24292f">Jul 2022</text>
    
        
        <path stroke="#74838f"  stroke-width="2.0"  d="M 581.1428571428571 206.0 L 581.1428571428571 214.0" />
        <text x="581.1428571428571" font-family="-apple-system, system-ui, BlinkMacSystemFont, Roboto" y="216.0" dominant-baseline="hanging" text-anchor="middle" font-size="12" fill="#24292f">Aug 2022</text>
    
        
        <path stroke="#74838f"  stroke-width="2.0"  d="M 678.5714285714286 206.0 L 678.5714285714286 214.0" />
        <text x="678.5714285714286" font-family="-apple-system, system-ui, BlinkMacSystemFont, Roboto" y="216.0" dominant-baseline="hanging" text-anchor="middle" font-size="12" fill="#24292f">Sep 2022</text>
    
        
        <path stroke="#74838f"  stroke-width="2.0"  d="M 772.8571428571429 206.0 L 772.8571428571429 214.0" />
        <text x="772.8571428571429" font-family="-apple-system, system-ui, BlinkMacSystemFont, Roboto" y="216.0" dominant-baseline="hanging" text-anchor="middle" font-size="12" fill="#24292f">Oct 2022</text>
    
        
        <path stroke="#74838f"  stroke-width="2.0"  d="M 870.2857142857142 206.0 L 870.2857142857142 214.0" />
        <text x="870.2857142857142" font-family="-apple-system, system-ui, BlinkMacSystemFont, Roboto" y="216.0" dominant-baseline="hanging" text-anchor="middle" font-size="12" fill="#24292f">Nov 2022</text>
    
        
        <path stroke="#74838f"  stroke-width="2.0"  d="M 964.5714285714286 206.0 L 964.5714285714286 214.0" />
        <text x="964.5714285714286" font-family="-apple-system, system-ui, BlinkMacSystemFont, Roboto" y="216.0" dominant-baseline="hanging" text-anchor="middle" font-size="12" fill="#24292f">Dec 2022</text>
    
    <path stroke="#74838f"   stroke-linejoin="round" stroke-width="2.0" d="M 50.0 216.0 L 50.0 206.0 L 974.0 206.0 L 974.0 216.0"  fill="none" />
    <text x="512.0" y="25.0" font-family="-apple-system, system-ui, BlinkMacSystemFont, Roboto" dominant-baseline="middle" text-anchor="middle" font-size="18" fill="#24292f">Total daily screen name changes</text>
</svg>
