<?xml version="1.0" standalone="no"?>
<svg width="1024.0" height="256.0"  viewBox="0 0 1024.0 256.0" preserveAspectRatio="xMidYMid meet" xmlns="http://www.w3.org/2000/svg">
    <path stroke="#3498db" stroke-linejoin="round" d="M 50.0 203.6288 L 50 203.6288L 53.335740072202164 202.69847272727273L 56.671480144404335 197.1845818181818L 60.0072202166065 196.04436363636364L 63.34296028880867 202.23330909090907L 66.67870036101083 197.41716363636363L 70.014440433213 191.9202909090909L 73.35018050541515 179.96785454545454L 76.68592057761734 204.12232727272726L 80.0216606498195 194.15534545454545L 83.35740072202165 192.63505454545455L 86.69314079422384 195.1253818181818L 90.028880866426 193.92843636363637L 93.36462093862815 182.30501818181818L 96.70036101083032 200.8605090909091L 100.03610108303249 201.54123636363636L 103.37184115523466 178.88436363636364L 106.70758122743682 197.42283636363635L 110.04332129963899 198.54603636363635L 113.37906137184116 200.49178181818183L 116.71480144404332 201.1952L 120.05054151624549 202.3184L 123.38628158844766 195.17076363636363L 126.72202166064982 198.08087272727272L 130.057761732852 183.42254545454546L 133.39350180505414 197.55898181818182L 136.7292418772563 202.0631272727273L 140.06498194945848 194.67156363636363L 143.40072202166064 200.7584L 146.73646209386283 200.04363636363638L 150.07220216606498 201.97803636363636L 153.40794223826714 204.52509090909092L 156.74368231046932 201.85323636363637L 160.07942238267148 201.02501818181818L 163.41516245487364 175.0269090909091L 166.75090252707582 195.76072727272728L 170.08664259927798 204.0032L 173.42238267148014 203.75927272727273L 176.75812274368232 197.88232727272728L 180.09386281588448 202.60770909090908L 183.42960288808663 202.7949090909091L 186.7653429602888 197.58167272727272L 190.10108303249098 186.49716363636364L 193.43682310469316 199.2778181818182L 196.77256317689532 199.62952727272727L 200.10830324909747 193.53134545454546L 203.44404332129963 199.1530181818182L 206.7797833935018 201.55825454545453L 210.11552346570397 201.60363636363635L 213.45126353790613 195.1026909090909L 216.78700361010831 201.70007272727273L 220.12274368231047 197.27534545454546L 223.45848375451263 172.3664L 226.7942238267148 203.20901818181818L 230.12996389891697 199.7146181818182L 233.46570397111913 193.1456L 236.80144404332128 196.9293090909091L 240.13718411552347 199.8394181818182L 243.47292418772562 198.83534545454546L 246.8086642599278 204.1336727272727L 250.14440433212997 202.70981818181818L 253.48014440433212 198.92043636363636L 256.8158844765343 206L 260.15162454873644 204.128L 263.48736462093865 192.10749090909093L 266.8231046931408 206L 270.15884476534296 206L 273.4945848375451 206L 276.8303249097473 206L 280.16606498194943 197.35476363636363L 283.50180505415165 199.57847272727273L 286.8375451263538 188.89672727272728L 290.17328519855596 195.27287272727273L 293.5090252707581 191.20552727272727L 296.8447653429603 166.7957818181818L 300.18050541516243 203.88407272727272L 303.51624548736464 198.09221818181817L 306.8519855595668 201.68305454545455L 310.18772563176896 202.2957090909091L 313.5234657039711 203.24872727272728L 316.85920577617327 200.68465454545455L 320.1949458483754 191.51752727272728L 323.5306859205776 189.18036363636364L 326.8664259927798 203.88407272727272L 330.20216606498195 197.5533090909091L 333.5379061371841 187.42749090909092L 336.8736462093863 201.25192727272727L 340.2093862815885 200.44072727272726L 343.54512635379064 201.4674909090909L 346.8808664259928 201.09876363636363L 350.21660649819495 201.20087272727272L 353.5523465703971 193.01512727272728L 356.88808664259926 198.8013090909091L 360.2238267148014 203.39054545454545L 363.5595667870036 200.30458181818182L 366.8953068592058 198.5517090909091L 370.23104693140795 193.31578181818182L 373.5667870036101 200.55985454545456L 376.90252707581226 203.03883636363636L 380.2382671480145 197.33207272727273L 383.57400722021663 201.95534545454547L 386.9097472924188 196.0784L 390.24548736462094 202.32974545454545L 393.5812274368231 199.91316363636363L 396.91696750902526 194.67156363636363L 400.2527075812274 201.29163636363637L 403.5884476534296 202.99912727272726L 406.9241877256318 203.53803636363637L 410.25992779783394 200.64494545454545L 413.5956678700361 195.5735272727273L 416.93140794223825 203.29978181818183L 420.2671480144404 200.16843636363637L 423.60288808664257 198.45527272727273L 426.9386281588448 201.70007272727273L 430.27436823104694 200.73003636363637L 433.6101083032491 200.44639999999998L 436.94584837545125 201.76247272727272L 440.28158844765346 204.6442181818182L 443.6173285198556 206L 446.9530685920578 196.3904L 450.28880866425993 199.20407272727272L 453.6245487364621 156.8061090909091L 456.96028880866425 165.09963636363636L 460.2960288808664 204.2925090909091L 463.63176895306856 202.17658181818183L 466.9675090252707 199.31185454545454L 470.30324909747293 198.85236363636363L 473.6389891696751 202.69847272727273L 476.9747292418773 202.85163636363637L 480.31046931407946 196.19185454545453L 483.6462093862816 199.68058181818182L 486.98194945848377 198.2L 490.3176895306859 201.2178909090909L 493.6534296028881 201.84189090909092L 496.98916967509024 201.90429090909092L 500.3249097472924 200.18545454545455L 503.66064981949455 195.21614545454545L 506.9963898916967 206L 510.33212996389886 206L 513.6678700361011 206L 517.0036101083033 191.46647272727273L 520.3393501805054 197.83694545454546L 523.6750902527076 198.85803636363636L 527.0108303249098 199.77701818181816L 530.3465703971119 200.11170909090907L 533.6823104693141 200.76974545454544L 537.0180505415162 201.80785454545455L 540.3537906137184 191.63665454545455L 543.6895306859205 194.44465454545454L 547.0252707581227 199.89047272727274L 550.3610108303249 152.5629090909091L 553.6967509025271 197.1789090909091L 557.0324909747293 194.46167272727274L 560.3682310469314 155.8701090909091L 563.7039711191336 91.5130181818182L 567.0397111913358 104.48087272727274L 570.3754512635379 151.15607272727271L 573.7111913357401 185.23214545454545L 577.0469314079422 142.71505454545454L 580.3826714801445 124.99345454545455L 583.7184115523465 123.6546909090909L 587.0541516245488 157.9293090909091L 590.3898916967509 53.36392727272727L 593.7256317689531 50.584290909090896L 597.0613718411552 99.88596363636364L 600.3971119133574 156.18210909090908L 603.7328519855596 180.3138909090909L 607.0685920577617 192.4194909090909L 610.4043321299639 193.69018181818183L 613.7400722021661 193.32712727272727L 617.0758122743682 192.1245090909091L 620.4115523465704 197.93338181818183L 623.7472924187726 191.55723636363638L 627.0830324909747 198.75592727272726L 630.418772563177 199.31185454545454L 633.754512635379 201.64901818181818L 637.0902527075813 200.58254545454545L 640.4259927797834 202.47723636363637L 643.7617328519856 200.73003636363637L 647.0974729241877 190.03127272727272L 650.4332129963899 203.16930909090908L 653.768953068592 200.48610909090908L 657.1046931407942 185.14705454545455L 660.4404332129964 187.9834181818182L 663.7761732851985 190.99563636363638L 667.1119133574008 192.3117090909091L 670.4476534296028 177.0861090909091L 673.7833935018051 167.8736L 677.1191335740072 179.36087272727272L 680.4548736462094 186.44043636363637L 683.7906137184116 150.2370909090909L 687.1263537906137 184.27912727272727L 690.4620938628159 199.54443636363635L 693.797833935018 161.16843636363637L 697.1335740072202 155.5410909090909L 700.4693140794224 176.99534545454546L 703.8050541516245 190.28654545454546L 707.1407942238267 193.50865454545453L 710.476534296029 201.71141818181817L 713.812274368231 185.21512727272727L 717.1480144404333 192.05643636363635L 720.4837545126354 192.7088L 723.8194945848376 180.1493818181818L 727.1552346570397 194.51839999999999L 730.4909747292419 194.69992727272728L 733.826714801444 201.86458181818182L 737.1624548736462 196.2032L 740.4981949458484 204.5024L 743.8339350180505 191.57425454545455L 747.1696750902527 180.37061818181817L 750.5054151624548 193.02647272727273L 753.841155234657 186.22487272727273L 757.1768953068593 191.7330909090909L 760.5126353790614 191.4608L 763.8483754512636 196.62865454545454L 767.1841155234657 200.84349090909092L 770.5198555956679 176.26923636363637L 773.85559566787 165.67825454545454L 777.1913357400722 181.80581818181818L 780.5270758122743 160.68058181818182L 783.8628158844765 163.8402909090909L 787.1985559566787 182.06109090909092L 790.5342960288808 130.81367272727272L 793.8700361010831 190.47374545454545L 797.2057761732851 202.09716363636363L 800.5415162454874 184.08058181818183L 803.8772563176896 197.49658181818182L 807.2129963898917 187.55796363636364L 810.5487364620939 192.95272727272726L 813.884476534296 201.91563636363637L 817.2202166064982 184.39825454545453L 820.5559566787003 184.9088L 823.8916967509025 182.26530909090908L 827.2274368231047 182.46385454545455L 830.5631768953069 186.32698181818182L 833.898916967509 174.32916363636363L 837.2346570397112 183.09352727272727L 840.5703971119133 183.4962909090909L 843.9061371841156 184.5344L 847.2418772563177 186.95098181818182L 850.5776173285199 169.85338181818182L 853.913357400722 168.34443636363636L 857.2490974729242 203.32247272727273L 860.5848375451263 206L 863.9205776173285 128.312L 867.2563176895308 183.24669090909092L 870.5920577617328 156.78341818181818L 873.9277978339351 183.05381818181817L 877.2635379061371 183.1389090909091L 880.5992779783394 182.29934545454546L 883.9350180505414 169.98385454545453L 887.2707581227437 186.7808L 890.6064981949459 183.6608L 893.942238267148 186.2589090909091L 897.2779783393502 184.14865454545455L 900.6137184115523 184.89745454545454L 903.9494584837546 178.07316363636363L 907.2851985559566 180.65425454545453L 910.6209386281589 170.63054545454546L 913.956678700361 177.93134545454546L 917.2924187725632 175.87214545454546L 920.6281588447653 174.29512727272729L 923.9638989169675 175.29919999999998L 927.2996389891696 196.89527272727273L 930.6353790613719 150.05556363636364L 933.971119133574 167.05672727272727L 937.3068592057762 174.29512727272729L 940.6425992779784 131.6589090909091L 943.9783393501805 144.42254545454546L 947.3140794223827 173.35345454545455L 950.6498194945848 151.68363636363637L 953.9855595667871 194.1042909090909L 957.3212996389891 160.01687272727273L 960.6570397111914 206L 963.9927797833934 206L 967.3285198555957 206L 970.6642599277977 206L 974 206" stroke-width="2.0" fill="none" />
    
        
        
        <text x="45.0" font-family="-apple-system, system-ui, BlinkMacSystemFont, Roboto" y="50.0" dominant-baseline="middle" text-anchor="end" font-size="12" fill="#24292f">27500.0</text>
        
            
            <path stroke="#74838f" stroke-dasharray="10 6" stroke-width="0.5"  d="M 50.0 50.0 L 974.0 50.0" />
        
    
        
        
        <text x="45.0" font-family="-apple-system, system-ui, BlinkMacSystemFont, Roboto" y="81.2" dominant-baseline="middle" text-anchor="end" font-size="12" fill="#24292f">22000.0</text>
        
            
            
            <path stroke="#74838f" stroke-dasharray="10 6" stroke-width="0.5"  d="M 50.0 81.2 L 974.0 81.2" />
        
    
        
        
        <text x="45.0" font-family="-apple-system, system-ui, BlinkMacSystemFont, Roboto" y="112.4" dominant-baseline="middle" text-anchor="end" font-size="12" fill="#24292f">16500.0</text>
        
            
            
            <path stroke="#74838f" stroke-dasharray="10 6" stroke-width="0.5"  d="M 50.0 112.4 L 974.0 112.4" />
        
    
        
        
        <text x="45.0" font-family="-apple-system, system-ui, BlinkMacSystemFont, Roboto" y="143.6" dominant-baseline="middle" text-anchor="end" font-size="12" fill="#24292f">11000.0</text>
        
            
            
            <path stroke="#74838f" stroke-dasharray="10 6" stroke-width="0.5"  d="M 50.0 143.6 L 974.0 143.6" />
        
    
        
        
        <text x="45.0" font-family="-apple-system, system-ui, BlinkMacSystemFont, Roboto" y="174.8" dominant-baseline="middle" text-anchor="end" font-size="12" fill="#24292f">5500.0</text>
        
            
            
            <path stroke="#74838f" stroke-dasharray="10 6" stroke-width="0.5"  d="M 50.0 174.8 L 974.0 174.8" />
        
    
        
        
        <text x="45.0" font-family="-apple-system, system-ui, BlinkMacSystemFont, Roboto" y="206.0" dominant-baseline="middle" text-anchor="end" font-size="12" fill="#24292f">0.0</text>
        
    
    
        
        <path stroke="#74838f"  stroke-width="2.0"  d="M 103.37184115523466 206.0 L 103.37184115523466 214.0" />
        <text x="103.37184115523466" font-family="-apple-system, system-ui, BlinkMacSystemFont, Roboto" y="216.0" dominant-baseline="hanging" text-anchor="middle" font-size="12" fill="#24292f">Mar 2022</text>
    
        
        <path stroke="#74838f"  stroke-width="2.0"  d="M 206.7797833935018 206.0 L 206.7797833935018 214.0" />
        <text x="206.7797833935018" font-family="-apple-system, system-ui, BlinkMacSystemFont, Roboto" y="216.0" dominant-baseline="hanging" text-anchor="middle" font-size="12" fill="#24292f">Apr 2022</text>
    
        
        <path stroke="#74838f"  stroke-width="2.0"  d="M 306.8519855595668 206.0 L 306.8519855595668 214.0" />
        <text x="306.8519855595668" font-family="-apple-system, system-ui, BlinkMacSystemFont, Roboto" y="216.0" dominant-baseline="hanging" text-anchor="middle" font-size="12" fill="#24292f">May 2022</text>
    
        
        <path stroke="#74838f"  stroke-width="2.0"  d="M 410.25992779783394 206.0 L 410.25992779783394 214.0" />
        <text x="410.25992779783394" font-family="-apple-system, system-ui, BlinkMacSystemFont, Roboto" y="216.0" dominant-baseline="hanging" text-anchor="middle" font-size="12" fill="#24292f">Jun 2022</text>
    
        
        <path stroke="#74838f"  stroke-width="2.0"  d="M 510.33212996389886 206.0 L 510.33212996389886 214.0" />
        <text x="510.33212996389886" font-family="-apple-system, system-ui, BlinkMacSystemFont, Roboto" y="216.0" dominant-baseline="hanging" text-anchor="middle" font-size="12" fill="#24292f">Jul 2022</text>
    
        
        <path stroke="#74838f"  stroke-width="2.0"  d="M 613.7400722021661 206.0 L 613.7400722021661 214.0" />
        <text x="613.7400722021661" font-family="-apple-system, system-ui, BlinkMacSystemFont, Roboto" y="216.0" dominant-baseline="hanging" text-anchor="middle" font-size="12" fill="#24292f">Aug 2022</text>
    
        
        <path stroke="#74838f"  stroke-width="2.0"  d="M 717.1480144404333 206.0 L 717.1480144404333 214.0" />
        <text x="717.1480144404333" font-family="-apple-system, system-ui, BlinkMacSystemFont, Roboto" y="216.0" dominant-baseline="hanging" text-anchor="middle" font-size="12" fill="#24292f">Sep 2022</text>
    
        
        <path stroke="#74838f"  stroke-width="2.0"  d="M 817.2202166064982 206.0 L 817.2202166064982 214.0" />
        <text x="817.2202166064982" font-family="-apple-system, system-ui, BlinkMacSystemFont, Roboto" y="216.0" dominant-baseline="hanging" text-anchor="middle" font-size="12" fill="#24292f">Oct 2022</text>
    
        
        <path stroke="#74838f"  stroke-width="2.0"  d="M 920.6281588447653 206.0 L 920.6281588447653 214.0" />
        <text x="920.6281588447653" font-family="-apple-system, system-ui, BlinkMacSystemFont, Roboto" y="216.0" dominant-baseline="hanging" text-anchor="middle" font-size="12" fill="#24292f">Nov 2022</text>
    
    <path stroke="#74838f"   stroke-linejoin="round" stroke-width="2.0" d="M 50.0 216.0 L 50.0 206.0 L 974.0 206.0 L 974.0 216.0"  fill="none" />
    <text x="512.0" y="25.0" font-family="-apple-system, system-ui, BlinkMacSystemFont, Roboto" dominant-baseline="middle" text-anchor="middle" font-size="18" fill="#24292f">Total daily screen name changes</text>
</svg>
