<?xml version="1.0" standalone="no"?>
<svg width="1024.0" height="256.0"  viewBox="0 0 1024.0 256.0" preserveAspectRatio="xMidYMid meet" xmlns="http://www.w3.org/2000/svg">
    <path stroke="#3498db" stroke-linejoin="round" d="M 50.0 203.3394909090909 L 50 203.3394909090909L 52.45092838196287 202.32974545454545L 54.90185676392573 196.86690909090908L 57.352785145888596 195.94792727272727L 59.80371352785146 202.14254545454546L 62.254641909814325 197.35476363636363L 64.70557029177719 191.76145454545454L 67.15649867374006 179.96218181818182L 69.60742705570291 204.09396363636364L 72.05835543766578 194.17236363636363L 74.50928381962865 192.61803636363635L 76.96021220159152 195.1253818181818L 79.41114058355438 193.92843636363637L 81.86206896551724 182.2482909090909L 84.3129973474801 200.86618181818181L 86.76392572944297 201.45614545454546L 89.21485411140583 178.89003636363637L 91.6657824933687 197.33774545454546L 94.11671087533156 198.50065454545455L 96.56763925729443 200.41803636363636L 99.0185676392573 201.18385454545455L 101.46949602122015 202.26734545454545L 103.92042440318303 195.09134545454546L 106.37135278514589 198.08087272727272L 108.82228116710876 183.38850909090908L 111.27320954907162 197.47389090909093L 113.72413793103448 202.01774545454546L 116.17506631299736 194.66021818181818L 118.62599469496021 200.75272727272727L 121.07692307692308 200.00392727272728L 123.52785145888593 201.97236363636364L 125.97877984084882 204.2754909090909L 128.42970822281166 201.74545454545455L 130.88063660477454 201.01367272727273L 133.3315649867374 174.7829818181818L 135.78249336870027 195.76072727272728L 138.23342175066313 204.0032L 140.68435013262598 203.7309090909091L 143.13527851458886 197.87665454545453L 145.58620689655174 202.60770909090908L 148.0371352785146 202.6928L 150.48806366047745 197.55898181818182L 152.9389920424403 186.5141818181818L 155.3899204244032 199.26647272727274L 157.84084880636607 199.5728L 160.29177718832892 193.4802909090909L 162.74270557029178 199.10763636363635L 165.19363395225463 201.54690909090908L 167.6445623342175 201.5696L 170.09549071618036 195.06865454545454L 172.54641909814325 201.70007272727273L 174.9973474801061 197.2866909090909L 177.44827586206895 172.35505454545455L 179.8992042440318 203.20901818181818L 182.35013262599472 199.6749090909091L 184.80106100795757 193.12858181818183L 187.25198938992042 196.8896L 189.70291777188328 199.78836363636364L 192.15384615384616 198.82967272727274L 194.604774535809 204.1336727272727L 197.05570291777187 202.57934545454546L 199.50663129973475 198.9261090909091L 201.95755968169763 206L 204.40848806366049 204.128L 206.85941644562334 192.1245090909091L 209.31034482758622 206L 211.76127320954907 206L 214.21220159151193 206L 216.66312997347478 206L 219.11405835543766 197.37178181818183L 221.56498673740055 199.57847272727273L 224.0159151193634 188.9024L 226.46684350132625 195.02894545454546L 228.91777188328913 191.20552727272727L 231.368700265252 166.8128L 233.81962864721484 203.8386909090909L 236.27055702917772 198.09221818181817L 238.72148541114058 201.64334545454545L 241.17241379310346 202.2957090909091L 243.6233421750663 203.22036363636363L 246.0742705570292 200.66763636363635L 248.52519893899205 191.51185454545455L 250.9761273209549 189.18603636363636L 253.42705570291776 203.86705454545455L 255.87798408488064 197.56465454545454L 258.32891246684346 187.32538181818182L 260.7798408488064 201.2349090909091L 263.2307692307693 200.44639999999998L 265.68169761273214 201.4618181818182L 268.132625994695 201.09876363636363L 270.58355437665784 201.17818181818183L 273.0344827586207 193.02647272727273L 275.48541114058355 198.8069818181818L 277.9363395225464 203.39054545454545L 280.38726790450926 200.30458181818182L 282.83819628647217 198.35883636363636L 285.289124668435 193.3101090909091L 287.7400530503979 200.56552727272728L 290.19098143236073 203.03883636363636L 292.6419098143236 197.22996363636364L 295.0928381962865 201.95534545454547L 297.54376657824935 196.016L 299.9946949602122 202.30705454545455L 302.44562334217505 199.91316363636363L 304.8965517241379 194.62050909090908L 307.34748010610076 201.29163636363637L 309.7984084880636 202.98778181818182L 312.2493368700265 203.5437090909091L 314.70026525198944 200.60523636363638L 317.1511936339523 195.5621818181818L 319.60212201591514 203.24305454545456L 322.053050397878 200.15709090909093L 324.50397877984085 198.46661818181818L 326.9549071618037 201.70007272727273L 329.40583554376656 200.70734545454545L 331.85676392572947 200.4293818181818L 334.3076923076923 201.76814545454545L 336.7586206896552 204.6442181818182L 339.209549071618 206L 341.6604774535809 196.35636363636365L 344.11140583554374 199.21541818181817L 346.5623342175066 156.87418181818182L 349.0132625994695 165.1506909090909L 351.46419098143235 204.1733818181818L 353.91511936339526 202.17658181818183L 356.3660477453581 199.31185454545454L 358.81697612732097 198.7842909090909L 361.2679045092838 202.6757818181818L 363.7188328912467 202.8573090909091L 366.16976127320953 196.1861818181818L 368.62068965517244 199.64654545454545L 371.0716180371353 198.2056727272727L 373.52254641909815 201.2178909090909L 375.973474801061 201.79083636363637L 378.42440318302386 201.90429090909092L 380.8753315649867 200.1968L 383.32625994694956 195.17076363636363L 385.7771883289125 206L 388.2281167108753 206L 390.6790450928382 206L 393.1299734748011 191.4834909090909L 395.58090185676394 197.79723636363636L 398.0318302387268 198.85236363636363L 400.48275862068965 199.76L 402.9336870026525 200.03796363636363L 405.3846153846154 200.76407272727272L 407.83554376657827 201.80785454545455L 410.2864721485411 191.63098181818182L 412.737400530504 194.41061818181817L 415.18832891246683 199.88479999999998L 417.6392572944297 152.63098181818182L 420.09018567639254 197.04843636363637L 422.54111405835545 194.4730181818182L 424.9920424403183 155.90414545454547L 427.44297082228115 91.60945454545454L 429.893899204244 104.5376L 432.3448275862069 151.17876363636364L 434.7957559681698 185.1981090909091L 437.2466843501326 142.76610909090908L 439.69761273209554 125.0672L 442.1485411140584 123.74545454545455L 444.59946949602124 157.99738181818182L 447.0503978779841 53.56814545454546L 449.50132625994695 50.78850909090909L 451.9522546419098 100.02210909090908L 454.40318302387266 156.2445090909091L 456.8541114058355 180.31956363636363L 459.3050397877984 192.43650909090908L 461.7559681697613 193.63912727272728L 464.2068965517241 193.3328L 466.657824933687 192.11316363636365L 469.10875331564984 197.93338181818183L 471.55968169761275 191.5629090909091L 474.0106100795756 198.7672727272727L 476.4615384615385 199.3005090909091L 478.91246684350136 201.64901818181818L 481.3633952254642 200.58821818181818L 483.81432360742707 202.43752727272727L 486.2652519893899 200.73003636363637L 488.7161803713528 189.7703272727273L 491.16710875331563 203.17498181818183L 493.6180371352785 200.48610909090908L 496.0689655172414 185.1810909090909L 498.51989389920425 187.88698181818182L 500.9708222811671 191.01832727272728L 503.42175066312996 192.31738181818181L 505.8726790450928 177.09745454545455L 508.32360742705566 167.91330909090908L 510.7745358090186 179.30981818181817L 513.2254641909815 186.49716363636364L 515.6763925729443 150.34487272727273L 518.1273209549072 184.27345454545454L 520.57824933687 199.5104L 523.0291777188329 161.24785454545454L 525.4801061007958 155.49003636363636L 527.9310344827586 176.96130909090908L 530.3819628647215 190.30923636363636L 532.8328912466843 193.50865454545453L 535.2838196286472 201.72843636363638L 537.73474801061 185.22647272727272L 540.185676392573 192.03374545454545L 542.6366047745357 192.66909090909093L 545.0875331564987 180.18341818181818L 547.5384615384614 194.5013818181818L 549.9893899204244 194.6829090909091L 552.4403183023873 201.85323636363637L 554.8912466843501 196.2032L 557.3421750663131 204.49105454545455L 559.7931034482758 191.55723636363638L 562.2440318302388 180.36494545454545L 564.6949602122015 193.02647272727273L 567.1458885941645 186.20785454545455L 569.5968169761272 191.72741818181817L 572.0477453580902 191.4834909090909L 574.498673740053 196.63432727272726L 576.9496021220159 200.7810909090909L 579.4005305039789 176.26923636363637L 581.8514588859416 165.78036363636363L 584.3023872679046 181.82850909090908L 586.7533156498673 160.6976L 589.2042440318303 163.93105454545454L 591.655172413793 182.10647272727272L 594.106100795756 130.808L 596.5570291777188 190.49643636363635L 599.0079575596817 202.0914909090909L 601.4588859416446 184.09192727272728L 603.9098143236074 197.50225454545455L 606.3607427055703 187.54094545454547L 608.8116710875331 192.95272727272726L 611.262599469496 201.88727272727272L 613.7135278514589 184.33585454545454L 616.1644562334218 183.04814545454545L 618.6153846153846 182.36741818181818L 621.0663129973475 182.54327272727272L 623.5172413793103 186.38938181818182L 625.9681697612732 174.3858909090909L 628.419098143236 183.1786181818182L 630.870026525199 183.5133090909091L 633.3209549071618 184.60247272727273L 635.7718832891247 186.968L 638.2228116710875 170.00087272727274L 640.6737400530504 167.8338909090909L 643.1246684350132 203.32247272727273L 645.5755968169761 206L 648.026525198939 128.43112727272728L 650.4774535809019 183.2637090909091L 652.9283819628647 156.8685090909091L 655.3793103448276 183.15592727272727L 657.8302387267905 183.2013090909091L 660.2811671087533 182.25963636363636L 662.7320954907162 170.18807272727273L 665.183023872679 186.86589090909092L 667.6339522546419 183.77425454545454L 670.0848806366048 186.29861818181817L 672.5358090185676 184.17134545454545L 674.9867374005305 184.9655272727273L 677.4376657824934 178.1696L 679.8885941644562 180.70530909090908L 682.3395225464191 170.80072727272727L 684.7904509283819 177.99374545454546L 687.2413793103449 175.99127272727273L 689.6923076923076 173.75621818181818L 692.1432360742706 175.45803636363638L 694.5941644562334 196.91796363636365L 697.0450928381963 150.30516363636363L 699.4960212201592 167.34036363636363L 701.946949602122 174.52203636363637L 704.397877984085 132.05599999999998L 706.8488063660477 144.8309818181818L 709.2997347480107 173.60872727272726L 711.7506631299734 151.91054545454546L 714.2015915119364 194.03621818181819L 716.6525198938991 160.59549090909093L 719.1034482758621 206L 721.554376657825 153.43650909090908L 724.0053050397878 181.01163636363637L 726.4562334217507 181.6413090909091L 728.9071618037135 182.49221818181817L 731.3580901856764 183.08785454545455L 733.8090185676392 206L 736.2599469496022 151.86516363636363L 738.710875331565 172.45716363636365L 741.1618037135279 169.20669090909092L 743.6127320954907 178.22065454545455L 746.0636604774536 175.54312727272728L 748.5145888594164 177.61367272727273L 750.9655172413793 181.0173090909091L 753.4164456233422 176.80814545454547L 755.867374005305 167.8962909090909L 758.3183023872679 167.1248L 760.7692307692308 176.62094545454545L 763.2201591511936 158.63272727272727L 765.6710875331565 151.3602909090909L 768.1220159151193 173.35345454545455L 770.5729442970822 206L 773.0238726790451 206L 775.474801061008 206L 777.9257294429709 206L 780.3766578249337 206L 782.8275862068966 206L 785.2785145888594 206L 787.7294429708223 206L 790.1803713527851 206L 792.631299734748 206L 795.0822281167109 206L 797.5331564986737 206L 799.9840848806366 206L 802.4350132625995 206L 804.8859416445623 206L 807.3368700265252 206L 809.787798408488 206L 812.238726790451 206L 814.6896551724138 206L 817.1405835543767 206L 819.5915119363395 206L 822.0424403183024 206L 824.4933687002653 206L 826.9442970822281 206L 829.3952254641911 206L 831.8461538461538 206L 834.2970822281168 206L 836.7480106100795 206L 839.1989389920425 206L 841.6498673740052 206L 844.1007957559682 206L 846.5517241379309 206L 849.0026525198939 206L 851.4535809018568 206L 853.9045092838196 206L 856.3554376657826 206L 858.8063660477453 206L 861.2572944297083 206L 863.708222811671 206L 866.159151193634 206L 868.6100795755968 206L 871.0610079575597 206L 873.5119363395225 206L 875.9628647214854 206L 878.4137931034483 206L 880.8647214854111 206L 883.315649867374 206L 885.7665782493369 206L 888.2175066312997 206L 890.6684350132626 206L 893.1193633952255 206L 895.5702917771883 206L 898.0212201591512 206L 900.472148541114 206L 902.923076923077 206L 905.3740053050398 206L 907.8249336870027 206L 910.2758620689655 206L 912.7267904509284 206L 915.1777188328912 206L 917.6286472148541 206L 920.079575596817 206L 922.5305039787798 206L 924.9814323607427 206L 927.4323607427056 206L 929.8832891246684 206L 932.3342175066313 206L 934.7851458885942 206L 937.236074270557 206L 939.6870026525199 206L 942.1379310344828 206L 944.5888594164456 206L 947.0397877984085 206L 949.4907161803714 206L 951.9416445623342 206L 954.3925729442971 206L 956.8435013262599 206L 959.2944297082229 206L 961.7453580901856 206L 964.1962864721486 206L 966.6472148541113 206L 969.0981432360743 206L 971.5490716180371 206L 974 206" stroke-width="2.0" fill="none" />
    
        
        
        <text x="45.0" font-family="-apple-system, system-ui, BlinkMacSystemFont, Roboto" y="50.0" dominant-baseline="middle" text-anchor="end" font-size="12" fill="#24292f">27500.0</text>
        
            
            <path stroke="#74838f" stroke-dasharray="10 6" stroke-width="0.5"  d="M 50.0 50.0 L 974.0 50.0" />
        
    
        
        
        <text x="45.0" font-family="-apple-system, system-ui, BlinkMacSystemFont, Roboto" y="81.2" dominant-baseline="middle" text-anchor="end" font-size="12" fill="#24292f">22000.0</text>
        
            
            
            <path stroke="#74838f" stroke-dasharray="10 6" stroke-width="0.5"  d="M 50.0 81.2 L 974.0 81.2" />
        
    
        
        
        <text x="45.0" font-family="-apple-system, system-ui, BlinkMacSystemFont, Roboto" y="112.4" dominant-baseline="middle" text-anchor="end" font-size="12" fill="#24292f">16500.0</text>
        
            
            
            <path stroke="#74838f" stroke-dasharray="10 6" stroke-width="0.5"  d="M 50.0 112.4 L 974.0 112.4" />
        
    
        
        
        <text x="45.0" font-family="-apple-system, system-ui, BlinkMacSystemFont, Roboto" y="143.6" dominant-baseline="middle" text-anchor="end" font-size="12" fill="#24292f">11000.0</text>
        
            
            
            <path stroke="#74838f" stroke-dasharray="10 6" stroke-width="0.5"  d="M 50.0 143.6 L 974.0 143.6" />
        
    
        
        
        <text x="45.0" font-family="-apple-system, system-ui, BlinkMacSystemFont, Roboto" y="174.8" dominant-baseline="middle" text-anchor="end" font-size="12" fill="#24292f">5500.0</text>
        
            
            
            <path stroke="#74838f" stroke-dasharray="10 6" stroke-width="0.5"  d="M 50.0 174.8 L 974.0 174.8" />
        
    
        
        
        <text x="45.0" font-family="-apple-system, system-ui, BlinkMacSystemFont, Roboto" y="206.0" dominant-baseline="middle" text-anchor="end" font-size="12" fill="#24292f">0.0</text>
        
    
    
        
        <path stroke="#74838f"  stroke-width="2.0"  d="M 89.21485411140583 206.0 L 89.21485411140583 214.0" />
        <text x="89.21485411140583" font-family="-apple-system, system-ui, BlinkMacSystemFont, Roboto" y="216.0" dominant-baseline="hanging" text-anchor="middle" font-size="12" fill="#24292f">Mar 2022</text>
    
        
        <path stroke="#74838f"  stroke-width="2.0"  d="M 165.19363395225463 206.0 L 165.19363395225463 214.0" />
        <text x="165.19363395225463" font-family="-apple-system, system-ui, BlinkMacSystemFont, Roboto" y="216.0" dominant-baseline="hanging" text-anchor="middle" font-size="12" fill="#24292f">Apr 2022</text>
    
        
        <path stroke="#74838f"  stroke-width="2.0"  d="M 238.72148541114058 206.0 L 238.72148541114058 214.0" />
        <text x="238.72148541114058" font-family="-apple-system, system-ui, BlinkMacSystemFont, Roboto" y="216.0" dominant-baseline="hanging" text-anchor="middle" font-size="12" fill="#24292f">May 2022</text>
    
        
        <path stroke="#74838f"  stroke-width="2.0"  d="M 314.70026525198944 206.0 L 314.70026525198944 214.0" />
        <text x="314.70026525198944" font-family="-apple-system, system-ui, BlinkMacSystemFont, Roboto" y="216.0" dominant-baseline="hanging" text-anchor="middle" font-size="12" fill="#24292f">Jun 2022</text>
    
        
        <path stroke="#74838f"  stroke-width="2.0"  d="M 388.2281167108753 206.0 L 388.2281167108753 214.0" />
        <text x="388.2281167108753" font-family="-apple-system, system-ui, BlinkMacSystemFont, Roboto" y="216.0" dominant-baseline="hanging" text-anchor="middle" font-size="12" fill="#24292f">Jul 2022</text>
    
        
        <path stroke="#74838f"  stroke-width="2.0"  d="M 464.2068965517241 206.0 L 464.2068965517241 214.0" />
        <text x="464.2068965517241" font-family="-apple-system, system-ui, BlinkMacSystemFont, Roboto" y="216.0" dominant-baseline="hanging" text-anchor="middle" font-size="12" fill="#24292f">Aug 2022</text>
    
        
        <path stroke="#74838f"  stroke-width="2.0"  d="M 540.185676392573 206.0 L 540.185676392573 214.0" />
        <text x="540.185676392573" font-family="-apple-system, system-ui, BlinkMacSystemFont, Roboto" y="216.0" dominant-baseline="hanging" text-anchor="middle" font-size="12" fill="#24292f">Sep 2022</text>
    
        
        <path stroke="#74838f"  stroke-width="2.0"  d="M 613.7135278514589 206.0 L 613.7135278514589 214.0" />
        <text x="613.7135278514589" font-family="-apple-system, system-ui, BlinkMacSystemFont, Roboto" y="216.0" dominant-baseline="hanging" text-anchor="middle" font-size="12" fill="#24292f">Oct 2022</text>
    
        
        <path stroke="#74838f"  stroke-width="2.0"  d="M 689.6923076923076 206.0 L 689.6923076923076 214.0" />
        <text x="689.6923076923076" font-family="-apple-system, system-ui, BlinkMacSystemFont, Roboto" y="216.0" dominant-baseline="hanging" text-anchor="middle" font-size="12" fill="#24292f">Nov 2022</text>
    
        
        <path stroke="#74838f"  stroke-width="2.0"  d="M 763.2201591511936 206.0 L 763.2201591511936 214.0" />
        <text x="763.2201591511936" font-family="-apple-system, system-ui, BlinkMacSystemFont, Roboto" y="216.0" dominant-baseline="hanging" text-anchor="middle" font-size="12" fill="#24292f">Dec 2022</text>
    
        
        <path stroke="#74838f"  stroke-width="2.0"  d="M 839.1989389920425 206.0 L 839.1989389920425 214.0" />
        <text x="839.1989389920425" font-family="-apple-system, system-ui, BlinkMacSystemFont, Roboto" y="216.0" dominant-baseline="hanging" text-anchor="middle" font-size="12" fill="#24292f">Jan 2023</text>
    
        
        <path stroke="#74838f"  stroke-width="2.0"  d="M 915.1777188328912 206.0 L 915.1777188328912 214.0" />
        <text x="915.1777188328912" font-family="-apple-system, system-ui, BlinkMacSystemFont, Roboto" y="216.0" dominant-baseline="hanging" text-anchor="middle" font-size="12" fill="#24292f">Feb 2023</text>
    
    <path stroke="#74838f"   stroke-linejoin="round" stroke-width="2.0" d="M 50.0 216.0 L 50.0 206.0 L 974.0 206.0 L 974.0 216.0"  fill="none" />
    <text x="512.0" y="25.0" font-family="-apple-system, system-ui, BlinkMacSystemFont, Roboto" dominant-baseline="middle" text-anchor="middle" font-size="18" fill="#24292f">Total daily screen name changes</text>
</svg>
