<?xml version="1.0" standalone="no"?>
<svg width="1024.0" height="256.0"  viewBox="0 0 1024.0 256.0" preserveAspectRatio="xMidYMid meet" xmlns="http://www.w3.org/2000/svg">
    <path stroke="#3498db" stroke-linejoin="round" d="M 50.0 203.3394909090909 L 50 203.3394909090909L 52.16901408450704 202.32974545454545L 54.33802816901409 196.86690909090908L 56.50704225352113 195.94792727272727L 58.67605633802817 202.14254545454546L 60.84507042253521 197.35476363636363L 63.014084507042256 191.76145454545454L 65.1830985915493 179.96218181818182L 67.35211267605634 204.09396363636364L 69.52112676056338 194.17236363636363L 71.69014084507042 192.61803636363635L 73.85915492957747 195.1253818181818L 76.02816901408451 193.92843636363637L 78.19718309859155 182.2482909090909L 80.36619718309859 200.86618181818181L 82.53521126760563 201.45614545454546L 84.70422535211267 178.89003636363637L 86.87323943661971 197.33774545454546L 89.04225352112675 198.50065454545455L 91.2112676056338 200.41803636363636L 93.38028169014083 201.18385454545455L 95.54929577464787 202.26734545454545L 97.71830985915494 195.09134545454546L 99.88732394366198 198.08087272727272L 102.05633802816902 183.38850909090908L 104.22535211267606 197.47389090909093L 106.3943661971831 202.01774545454546L 108.56338028169014 194.66021818181818L 110.73239436619718 200.75272727272727L 112.90140845070422 200.00392727272728L 115.07042253521126 201.97236363636364L 117.2394366197183 204.2754909090909L 119.40845070422536 201.74545454545455L 121.57746478873239 201.01367272727273L 123.74647887323944 174.7829818181818L 125.91549295774648 195.76072727272728L 128.0845070422535 204.0032L 130.25352112676057 203.7309090909091L 132.4225352112676 197.87665454545453L 134.59154929577466 202.60770909090908L 136.76056338028167 202.6928L 138.92957746478874 197.55898181818182L 141.09859154929575 186.5141818181818L 143.26760563380282 199.26647272727274L 145.43661971830988 199.5728L 147.6056338028169 193.4802909090909L 149.77464788732397 199.10763636363635L 151.94366197183098 201.54690909090908L 154.11267605633805 201.5696L 156.28169014084506 195.06865454545454L 158.45070422535213 201.70007272727273L 160.61971830985914 197.2866909090909L 162.7887323943662 172.35505454545455L 164.95774647887325 203.20901818181818L 167.1267605633803 199.6749090909091L 169.29577464788733 193.12858181818183L 171.46478873239437 196.8896L 173.63380281690138 199.78836363636364L 175.80281690140845 198.82967272727274L 177.9718309859155 204.1336727272727L 180.14084507042253 202.57934545454546L 182.3098591549296 198.9261090909091L 184.4788732394366 206L 186.64788732394365 204.128L 188.81690140845072 192.1245090909091L 190.98591549295776 206L 193.15492957746477 206L 195.32394366197184 206L 197.49295774647888 206L 199.66197183098592 197.37178181818183L 201.83098591549296 199.57847272727273L 204 188.9024L 206.16901408450704 195.02894545454546L 208.33802816901408 191.20552727272727L 210.50704225352115 166.8128L 212.67605633802816 203.8386909090909L 214.8450704225352 198.09221818181817L 217.01408450704224 201.64334545454545L 219.1830985915493 202.2957090909091L 221.35211267605635 203.22036363636363L 223.52112676056336 200.66763636363635L 225.69014084507043 191.51185454545455L 227.85915492957747 189.18603636363636L 230.0281690140845 203.86705454545455L 232.19718309859152 197.56465454545454L 234.3661971830986 187.32538181818182L 236.53521126760563 201.2349090909091L 238.70422535211267 200.44639999999998L 240.87323943661974 201.4618181818182L 243.04225352112675 201.09876363636363L 245.2112676056338 201.17818181818183L 247.38028169014083 193.02647272727273L 249.5492957746479 198.8069818181818L 251.7183098591549 203.39054545454545L 253.88732394366195 200.30458181818182L 256.056338028169 198.35883636363636L 258.2253521126761 193.3101090909091L 260.3943661971831 200.56552727272728L 262.5633802816901 203.03883636363636L 264.7323943661972 197.22996363636364L 266.90140845070425 201.95534545454547L 269.07042253521126 196.016L 271.2394366197183 202.30705454545455L 273.40845070422534 199.91316363636363L 275.5774647887324 194.62050909090908L 277.7464788732394 201.29163636363637L 279.9154929577465 202.98778181818182L 282.08450704225356 203.5437090909091L 284.2535211267606 200.60523636363638L 286.4225352112676 195.5621818181818L 288.59154929577466 203.24305454545456L 290.76056338028167 200.15709090909093L 292.92957746478874 198.46661818181818L 295.09859154929575 201.70007272727273L 297.26760563380276 200.70734545454545L 299.4366197183099 200.4293818181818L 301.6056338028169 201.76814545454545L 303.77464788732397 204.6442181818182L 305.943661971831 206L 308.112676056338 196.35636363636365L 310.28169014084506 199.21541818181817L 312.4507042253521 156.87418181818182L 314.6197183098592 165.1506909090909L 316.7887323943662 204.1733818181818L 318.9577464788732 202.17658181818183L 321.1267605633803 199.31185454545454L 323.2957746478873 198.7842909090909L 325.46478873239437 202.6757818181818L 327.63380281690144 202.8573090909091L 329.80281690140845 196.1861818181818L 331.9718309859155 199.64654545454545L 334.14084507042253 198.2056727272727L 336.30985915492954 201.2178909090909L 338.4788732394366 201.79083636363637L 340.6478873239437 201.90429090909092L 342.81690140845075 200.1968L 344.98591549295776 195.17076363636363L 347.15492957746477 206L 349.32394366197184 206L 351.49295774647885 206L 353.6619718309859 191.4834909090909L 355.830985915493 197.79723636363636L 358 198.85236363636363L 360.16901408450707 199.76L 362.3380281690141 200.03796363636363L 364.50704225352115 200.76407272727272L 366.67605633802816 201.80785454545455L 368.8450704225352 191.63098181818182L 371.0140845070423 194.41061818181817L 373.1830985915493 199.88479999999998L 375.3521126760563 152.63098181818182L 377.5211267605634 197.04843636363637L 379.6901408450704 194.4730181818182L 381.85915492957747 155.90414545454547L 384.0281690140845 91.60945454545454L 386.19718309859155 104.5376L 388.3661971830986 151.17876363636364L 390.53521126760563 185.1981090909091L 392.7042253521127 142.76610909090908L 394.8732394366197 125.0672L 397.0422535211267 123.74545454545455L 399.2112676056338 157.99738181818182L 401.38028169014086 53.56814545454546L 403.54929577464793 50.78850909090909L 405.71830985915494 100.02210909090908L 407.88732394366195 156.2445090909091L 410.056338028169 180.31956363636363L 412.22535211267603 192.43650909090908L 414.39436619718305 193.63912727272728L 416.5633802816902 193.3328L 418.7323943661972 192.11316363636365L 420.90140845070425 197.93338181818183L 423.07042253521126 191.5629090909091L 425.2394366197183 198.7672727272727L 427.40845070422534 199.3005090909091L 429.57746478873236 201.64901818181818L 431.7464788732395 200.58821818181818L 433.9154929577465 202.43752727272727L 436.0845070422535 200.73003636363637L 438.2535211267606 189.7703272727273L 440.4225352112676 203.17498181818183L 442.59154929577466 200.48610909090908L 444.76056338028167 185.1810909090909L 446.92957746478874 187.88698181818182L 449.0985915492958 191.01832727272728L 451.2676056338028 192.31738181818181L 453.4366197183098 177.09745454545455L 455.6056338028169 167.91330909090908L 457.7746478873239 179.30981818181817L 459.943661971831 186.49716363636364L 462.11267605633805 150.34487272727273L 464.28169014084506 184.27345454545454L 466.4507042253521 199.5104L 468.61971830985914 161.24785454545454L 470.7887323943662 155.49003636363636L 472.9577464788732 176.96130909090908L 475.1267605633803 190.30923636363636L 477.29577464788736 193.50865454545453L 479.46478873239437 201.72843636363638L 481.63380281690144 185.22647272727272L 483.80281690140845 192.03374545454545L 485.97183098591546 192.66909090909093L 488.14084507042253 180.18341818181818L 490.3098591549296 194.5013818181818L 492.4788732394366 194.6829090909091L 494.6478873239437 201.85323636363637L 496.8169014084507 196.2032L 498.98591549295776 204.49105454545455L 501.15492957746477 191.55723636363638L 503.3239436619718 180.36494545454545L 505.4929577464789 193.02647272727273L 507.6619718309859 186.20785454545455L 509.830985915493 191.72741818181817L 512 191.4834909090909L 514.1690140845071 196.63432727272726L 516.338028169014 200.7810909090909L 518.5070422535211 176.26923636363637L 520.6760563380283 165.78036363636363L 522.8450704225352 181.82850909090908L 525.0140845070423 160.6976L 527.1830985915493 163.93105454545454L 529.3521126760563 182.10647272727272L 531.5211267605633 130.808L 533.6901408450703 190.49643636363635L 535.8591549295775 202.0914909090909L 538.0281690140845 184.09192727272728L 540.1971830985915 197.50225454545455L 542.3661971830986 187.54094545454547L 544.5352112676055 192.95272727272726L 546.7042253521126 201.88727272727272L 548.8732394366198 184.33585454545454L 551.0422535211269 183.04814545454545L 553.2112676056338 182.36741818181818L 555.3802816901409 182.54327272727272L 557.5492957746479 186.38938181818182L 559.7183098591549 174.3858909090909L 561.887323943662 183.1786181818182L 564.0563380281691 183.5133090909091L 566.225352112676 184.60247272727273L 568.3943661971831 186.968L 570.5633802816901 170.00087272727274L 572.7323943661971 167.8338909090909L 574.9014084507043 203.32247272727273L 577.0704225352113 206L 579.2394366197184 128.43112727272728L 581.4084507042253 183.2637090909091L 583.5774647887324 156.8685090909091L 585.7464788732394 183.15592727272727L 587.9154929577464 183.2013090909091L 590.0845070422536 182.25963636363636L 592.2535211267606 170.18807272727273L 594.4225352112676 186.86589090909092L 596.5915492957746 183.77425454545454L 598.7605633802817 186.29861818181817L 600.9295774647887 184.17134545454545L 603.0985915492957 184.9655272727273L 605.2676056338029 178.1696L 607.4366197183099 180.70530909090908L 609.6056338028169 170.80072727272727L 611.7746478873239 177.99374545454546L 613.943661971831 175.99127272727273L 616.112676056338 173.75621818181818L 618.2816901408451 175.45803636363638L 620.4507042253522 196.91796363636365L 622.6197183098591 150.30516363636363L 624.7887323943662 167.34036363636363L 626.9577464788732 174.52203636363637L 629.1267605633803 132.05599999999998L 631.2957746478874 144.8309818181818L 633.4647887323944 173.60872727272726L 635.6338028169015 151.91054545454546L 637.8028169014084 194.03621818181819L 639.9718309859155 160.59549090909093L 642.1408450704225 206L 644.3098591549295 153.43650909090908L 646.4788732394367 181.01163636363637L 648.6478873239437 181.6413090909091L 650.8169014084507 182.49221818181817L 652.9859154929577 183.08785454545455L 655.1549295774648 206L 657.3239436619718 151.86516363636363L 659.4929577464789 172.45716363636365L 661.661971830986 169.20669090909092L 663.830985915493 178.22065454545455L 666 175.54312727272728L 668.169014084507 177.61367272727273L 670.3380281690141 181.0173090909091L 672.507042253521 176.80814545454547L 674.6760563380282 167.8962909090909L 676.8450704225353 167.1248L 679.0140845070423 176.62094545454545L 681.1830985915493 158.63272727272727L 683.3521126760563 151.3602909090909L 685.5211267605634 173.35345454545455L 687.6901408450703 206L 689.8591549295775 206L 692.0281690140846 206L 694.1971830985915 206L 696.3661971830986 206L 698.5352112676056 206L 700.7042253521126 206L 702.8732394366197 206L 705.0422535211268 206L 707.2112676056339 206L 709.3802816901408 206L 711.5492957746479 206L 713.7183098591549 206L 715.887323943662 206L 718.056338028169 206L 720.2253521126761 206L 722.3943661971831 206L 724.5633802816901 206L 726.7323943661972 206L 728.9014084507041 206L 731.0704225352113 206L 733.2394366197183 206L 735.4084507042254 206L 737.5774647887324 206L 739.7464788732394 206L 741.9154929577466 206L 744.0845070422534 206L 746.2535211267606 206L 748.4225352112676 206L 750.5915492957746 206L 752.7605633802817 206L 754.9295774647887 206L 757.0985915492959 206L 759.2676056338028 206L 761.4366197183099 206L 763.6056338028169 206L 765.7746478873239 206L 767.943661971831 206L 770.112676056338 206L 772.2816901408451 206L 774.4507042253521 206L 776.6197183098592 206L 778.7887323943661 206L 780.9577464788732 206L 783.1267605633803 206L 785.2957746478874 206L 787.4647887323944 206L 789.6338028169014 206L 791.8028169014085 206L 793.9718309859154 206L 796.1408450704225 206L 798.3098591549297 206L 800.4788732394366 206L 802.6478873239437 206L 804.8169014084507 206L 806.9859154929577 206L 809.1549295774647 206L 811.3239436619718 206L 813.492957746479 206L 815.6619718309859 206L 817.830985915493 206L 820 206L 822.169014084507 206L 824.338028169014 206L 826.5070422535211 206L 828.6760563380282 206L 830.8450704225352 206L 833.0140845070423 206L 835.1830985915493 206L 837.3521126760563 206L 839.5211267605633 206L 841.6901408450705 206L 843.8591549295775 206L 846.0281690140845 206L 848.1971830985916 206L 850.3661971830985 206L 852.5352112676056 206L 854.7042253521126 206L 856.8732394366197 206L 859.0422535211268 206L 861.2112676056338 206L 863.3802816901409 206L 865.5492957746478 206L 867.7183098591549 206L 869.887323943662 206L 872.056338028169 206L 874.2253521126761 206L 876.3943661971831 206L 878.5633802816901 206L 880.7323943661971 206L 882.9014084507043 206L 885.0704225352113 206L 887.2394366197183 206L 889.4084507042254 206L 891.5774647887324 206L 893.7464788732394 206L 895.9154929577464 206L 898.0845070422536 206L 900.2535211267606 206L 902.4225352112676 206L 904.5915492957747 206L 906.7605633802816 206L 908.9295774647887 206L 911.0985915492957 206L 913.2676056338029 206L 915.4366197183099 206L 917.6056338028169 206L 919.774647887324 206L 921.9436619718309 206L 924.112676056338 206L 926.2816901408451 206L 928.4507042253521 206L 930.6197183098592 206L 932.7887323943662 206L 934.9577464788732 206L 937.1267605633802 206L 939.2957746478874 206L 941.4647887323944 206L 943.6338028169014 206L 945.8028169014085 206L 947.9718309859155 206L 950.1408450704225 206L 952.3098591549295 206L 954.4788732394367 206L 956.6478873239436 206L 958.8169014084507 206L 960.9859154929578 206L 963.1549295774648 206L 965.3239436619718 206L 967.4929577464789 206L 969.661971830986 206L 971.8309859154929 206L 974 206" stroke-width="2.0" fill="none" />
    
        
        
        <text x="45.0" font-family="-apple-system, system-ui, BlinkMacSystemFont, Roboto" y="50.0" dominant-baseline="middle" text-anchor="end" font-size="12" fill="#24292f">27500.0</text>
        
            
            <path stroke="#74838f" stroke-dasharray="10 6" stroke-width="0.5"  d="M 50.0 50.0 L 974.0 50.0" />
        
    
        
        
        <text x="45.0" font-family="-apple-system, system-ui, BlinkMacSystemFont, Roboto" y="81.2" dominant-baseline="middle" text-anchor="end" font-size="12" fill="#24292f">22000.0</text>
        
            
            
            <path stroke="#74838f" stroke-dasharray="10 6" stroke-width="0.5"  d="M 50.0 81.2 L 974.0 81.2" />
        
    
        
        
        <text x="45.0" font-family="-apple-system, system-ui, BlinkMacSystemFont, Roboto" y="112.4" dominant-baseline="middle" text-anchor="end" font-size="12" fill="#24292f">16500.0</text>
        
            
            
            <path stroke="#74838f" stroke-dasharray="10 6" stroke-width="0.5"  d="M 50.0 112.4 L 974.0 112.4" />
        
    
        
        
        <text x="45.0" font-family="-apple-system, system-ui, BlinkMacSystemFont, Roboto" y="143.6" dominant-baseline="middle" text-anchor="end" font-size="12" fill="#24292f">11000.0</text>
        
            
            
            <path stroke="#74838f" stroke-dasharray="10 6" stroke-width="0.5"  d="M 50.0 143.6 L 974.0 143.6" />
        
    
        
        
        <text x="45.0" font-family="-apple-system, system-ui, BlinkMacSystemFont, Roboto" y="174.8" dominant-baseline="middle" text-anchor="end" font-size="12" fill="#24292f">5500.0</text>
        
            
            
            <path stroke="#74838f" stroke-dasharray="10 6" stroke-width="0.5"  d="M 50.0 174.8 L 974.0 174.8" />
        
    
        
        
        <text x="45.0" font-family="-apple-system, system-ui, BlinkMacSystemFont, Roboto" y="206.0" dominant-baseline="middle" text-anchor="end" font-size="12" fill="#24292f">0.0</text>
        
    
    
        
        <path stroke="#74838f"  stroke-width="2.0"  d="M 84.70422535211267 206.0 L 84.70422535211267 214.0" />
        <text x="84.70422535211267" font-family="-apple-system, system-ui, BlinkMacSystemFont, Roboto" y="216.0" dominant-baseline="hanging" text-anchor="middle" font-size="12" fill="#24292f">Mar 2022</text>
    
        
        <path stroke="#74838f"  stroke-width="2.0"  d="M 151.94366197183098 206.0 L 151.94366197183098 214.0" />
        <text x="151.94366197183098" font-family="-apple-system, system-ui, BlinkMacSystemFont, Roboto" y="216.0" dominant-baseline="hanging" text-anchor="middle" font-size="12" fill="#24292f">Apr 2022</text>
    
        
        <path stroke="#74838f"  stroke-width="2.0"  d="M 217.01408450704224 206.0 L 217.01408450704224 214.0" />
        <text x="217.01408450704224" font-family="-apple-system, system-ui, BlinkMacSystemFont, Roboto" y="216.0" dominant-baseline="hanging" text-anchor="middle" font-size="12" fill="#24292f">May 2022</text>
    
        
        <path stroke="#74838f"  stroke-width="2.0"  d="M 284.2535211267606 206.0 L 284.2535211267606 214.0" />
        <text x="284.2535211267606" font-family="-apple-system, system-ui, BlinkMacSystemFont, Roboto" y="216.0" dominant-baseline="hanging" text-anchor="middle" font-size="12" fill="#24292f">Jun 2022</text>
    
        
        <path stroke="#74838f"  stroke-width="2.0"  d="M 349.32394366197184 206.0 L 349.32394366197184 214.0" />
        <text x="349.32394366197184" font-family="-apple-system, system-ui, BlinkMacSystemFont, Roboto" y="216.0" dominant-baseline="hanging" text-anchor="middle" font-size="12" fill="#24292f">Jul 2022</text>
    
        
        <path stroke="#74838f"  stroke-width="2.0"  d="M 416.5633802816902 206.0 L 416.5633802816902 214.0" />
        <text x="416.5633802816902" font-family="-apple-system, system-ui, BlinkMacSystemFont, Roboto" y="216.0" dominant-baseline="hanging" text-anchor="middle" font-size="12" fill="#24292f">Aug 2022</text>
    
        
        <path stroke="#74838f"  stroke-width="2.0"  d="M 483.80281690140845 206.0 L 483.80281690140845 214.0" />
        <text x="483.80281690140845" font-family="-apple-system, system-ui, BlinkMacSystemFont, Roboto" y="216.0" dominant-baseline="hanging" text-anchor="middle" font-size="12" fill="#24292f">Sep 2022</text>
    
        
        <path stroke="#74838f"  stroke-width="2.0"  d="M 548.8732394366198 206.0 L 548.8732394366198 214.0" />
        <text x="548.8732394366198" font-family="-apple-system, system-ui, BlinkMacSystemFont, Roboto" y="216.0" dominant-baseline="hanging" text-anchor="middle" font-size="12" fill="#24292f">Oct 2022</text>
    
        
        <path stroke="#74838f"  stroke-width="2.0"  d="M 616.112676056338 206.0 L 616.112676056338 214.0" />
        <text x="616.112676056338" font-family="-apple-system, system-ui, BlinkMacSystemFont, Roboto" y="216.0" dominant-baseline="hanging" text-anchor="middle" font-size="12" fill="#24292f">Nov 2022</text>
    
        
        <path stroke="#74838f"  stroke-width="2.0"  d="M 681.1830985915493 206.0 L 681.1830985915493 214.0" />
        <text x="681.1830985915493" font-family="-apple-system, system-ui, BlinkMacSystemFont, Roboto" y="216.0" dominant-baseline="hanging" text-anchor="middle" font-size="12" fill="#24292f">Dec 2022</text>
    
        
        <path stroke="#74838f"  stroke-width="2.0"  d="M 748.4225352112676 206.0 L 748.4225352112676 214.0" />
        <text x="748.4225352112676" font-family="-apple-system, system-ui, BlinkMacSystemFont, Roboto" y="216.0" dominant-baseline="hanging" text-anchor="middle" font-size="12" fill="#24292f">Jan 2023</text>
    
        
        <path stroke="#74838f"  stroke-width="2.0"  d="M 815.6619718309859 206.0 L 815.6619718309859 214.0" />
        <text x="815.6619718309859" font-family="-apple-system, system-ui, BlinkMacSystemFont, Roboto" y="216.0" dominant-baseline="hanging" text-anchor="middle" font-size="12" fill="#24292f">Feb 2023</text>
    
        
        <path stroke="#74838f"  stroke-width="2.0"  d="M 876.3943661971831 206.0 L 876.3943661971831 214.0" />
        <text x="876.3943661971831" font-family="-apple-system, system-ui, BlinkMacSystemFont, Roboto" y="216.0" dominant-baseline="hanging" text-anchor="middle" font-size="12" fill="#24292f">Mar 2023</text>
    
        
        <path stroke="#74838f"  stroke-width="2.0"  d="M 943.6338028169014 206.0 L 943.6338028169014 214.0" />
        <text x="943.6338028169014" font-family="-apple-system, system-ui, BlinkMacSystemFont, Roboto" y="216.0" dominant-baseline="hanging" text-anchor="middle" font-size="12" fill="#24292f">Apr 2023</text>
    
    <path stroke="#74838f"   stroke-linejoin="round" stroke-width="2.0" d="M 50.0 216.0 L 50.0 206.0 L 974.0 206.0 L 974.0 216.0"  fill="none" />
    <text x="512.0" y="25.0" font-family="-apple-system, system-ui, BlinkMacSystemFont, Roboto" dominant-baseline="middle" text-anchor="middle" font-size="18" fill="#24292f">Total daily screen name changes</text>
</svg>
