<?xml version="1.0" standalone="no"?>
<svg width="1024.0" height="256.0"  viewBox="0 0 1024.0 256.0" preserveAspectRatio="xMidYMid meet" xmlns="http://www.w3.org/2000/svg">
    <path stroke="#3498db" stroke-linejoin="round" d="M 50.0 203.3394909090909 L 50 203.3394909090909L 52.095238095238095 202.32974545454545L 54.19047619047619 196.86690909090908L 56.285714285714285 195.94792727272727L 58.38095238095238 202.14254545454546L 60.476190476190474 197.35476363636363L 62.57142857142857 191.76145454545454L 64.66666666666667 179.96218181818182L 66.76190476190476 204.09396363636364L 68.85714285714286 194.17236363636363L 70.95238095238095 192.61803636363635L 73.04761904761905 195.1253818181818L 75.14285714285714 193.92843636363637L 77.23809523809524 182.2482909090909L 79.33333333333333 200.86618181818181L 81.42857142857143 201.45614545454546L 83.52380952380952 178.89003636363637L 85.61904761904762 197.33774545454546L 87.71428571428571 198.50065454545455L 89.80952380952381 200.41803636363636L 91.9047619047619 201.18385454545455L 94 202.26734545454545L 96.0952380952381 195.09134545454546L 98.19047619047619 198.08087272727272L 100.28571428571428 183.38850909090908L 102.38095238095238 197.47389090909093L 104.47619047619048 202.01774545454546L 106.57142857142857 194.66021818181818L 108.66666666666666 200.75272727272727L 110.76190476190476 200.00392727272728L 112.85714285714286 201.97236363636364L 114.95238095238096 204.2754909090909L 117.04761904761905 201.74545454545455L 119.14285714285714 201.01367272727273L 121.23809523809524 174.7829818181818L 123.33333333333333 195.76072727272728L 125.42857142857142 204.0032L 127.52380952380953 203.7309090909091L 129.61904761904762 197.87665454545453L 131.71428571428572 202.60770909090908L 133.8095238095238 202.6928L 135.9047619047619 197.55898181818182L 138 186.5141818181818L 140.0952380952381 199.26647272727274L 142.1904761904762 199.5728L 144.28571428571428 193.4802909090909L 146.38095238095238 199.10763636363635L 148.47619047619048 201.54690909090908L 150.57142857142856 201.5696L 152.66666666666666 195.06865454545454L 154.76190476190476 201.70007272727273L 156.85714285714286 197.2866909090909L 158.95238095238096 172.35505454545455L 161.04761904761904 203.20901818181818L 163.14285714285714 199.6749090909091L 165.23809523809524 193.12858181818183L 167.33333333333331 196.8896L 169.42857142857144 199.78836363636364L 171.52380952380952 198.82967272727274L 173.61904761904762 204.1336727272727L 175.71428571428572 202.57934545454546L 177.8095238095238 198.9261090909091L 179.90476190476193 206L 182 204.128L 184.0952380952381 192.1245090909091L 186.19047619047618 206L 188.28571428571428 206L 190.38095238095238 206L 192.47619047619048 206L 194.57142857142858 197.37178181818183L 196.66666666666666 199.57847272727273L 198.76190476190476 188.9024L 200.85714285714283 195.02894545454546L 202.95238095238096 191.20552727272727L 205.04761904761907 166.8128L 207.14285714285714 203.8386909090909L 209.23809523809524 198.09221818181817L 211.33333333333331 201.64334545454545L 213.42857142857142 202.2957090909091L 215.52380952380955 203.22036363636363L 217.61904761904762 200.66763636363635L 219.71428571428572 191.51185454545455L 221.8095238095238 189.18603636363636L 223.9047619047619 203.86705454545455L 226 197.56465454545454L 228.0952380952381 187.32538181818182L 230.1904761904762 201.2349090909091L 232.28571428571428 200.44639999999998L 234.38095238095238 201.4618181818182L 236.47619047619048 201.09876363636363L 238.57142857142858 201.17818181818183L 240.66666666666666 193.02647272727273L 242.76190476190476 198.8069818181818L 244.85714285714286 203.39054545454545L 246.95238095238093 200.30458181818182L 249.04761904761907 198.35883636363636L 251.14285714285714 193.3101090909091L 253.23809523809524 200.56552727272728L 255.33333333333331 203.03883636363636L 257.42857142857144 197.22996363636364L 259.5238095238095 201.95534545454547L 261.6190476190476 196.016L 263.7142857142857 202.30705454545455L 265.8095238095238 199.91316363636363L 267.9047619047619 194.62050909090908L 270 201.29163636363637L 272.0952380952381 202.98778181818182L 274.1904761904762 203.5437090909091L 276.2857142857143 200.60523636363638L 278.3809523809524 195.5621818181818L 280.4761904761905 203.24305454545456L 282.57142857142856 200.15709090909093L 284.66666666666663 198.46661818181818L 286.7619047619048 201.70007272727273L 288.8571428571429 200.70734545454545L 290.95238095238096 200.4293818181818L 293.04761904761904 201.76814545454545L 295.14285714285717 204.6442181818182L 297.23809523809524 206L 299.3333333333333 196.35636363636365L 301.42857142857144 199.21541818181817L 303.5238095238095 156.87418181818182L 305.6190476190476 165.1506909090909L 307.71428571428567 204.1733818181818L 309.80952380952385 202.17658181818183L 311.9047619047619 199.31185454545454L 314 198.7842909090909L 316.09523809523813 202.6757818181818L 318.1904761904762 202.8573090909091L 320.2857142857143 196.1861818181818L 322.38095238095235 199.64654545454545L 324.4761904761905 198.2056727272727L 326.57142857142856 201.2178909090909L 328.66666666666663 201.79083636363637L 330.76190476190476 201.90429090909092L 332.8571428571429 200.1968L 334.95238095238096 195.17076363636363L 337.04761904761904 206L 339.14285714285717 206L 341.23809523809524 206L 343.3333333333333 191.4834909090909L 345.42857142857144 197.79723636363636L 347.5238095238095 198.85236363636363L 349.6190476190476 199.76L 351.71428571428567 200.03796363636363L 353.8095238095238 200.76407272727272L 355.9047619047619 201.80785454545455L 358 191.63098181818182L 360.09523809523813 194.41061818181817L 362.1904761904762 199.88479999999998L 364.2857142857143 152.63098181818182L 366.38095238095235 197.04843636363637L 368.4761904761905 194.4730181818182L 370.57142857142856 155.90414545454547L 372.66666666666663 91.60945454545454L 374.76190476190476 104.5376L 376.85714285714283 151.17876363636364L 378.95238095238096 185.1981090909091L 381.0476190476191 142.76610909090908L 383.14285714285717 125.0672L 385.23809523809524 123.74545454545455L 387.3333333333333 157.99738181818182L 389.42857142857144 53.56814545454546L 391.5238095238095 50.78850909090909L 393.6190476190476 100.02210909090908L 395.7142857142857 156.2445090909091L 397.8095238095238 180.31956363636363L 399.9047619047619 192.43650909090908L 402 193.63912727272728L 404.09523809523813 193.3328L 406.1904761904762 192.11316363636365L 408.2857142857143 197.93338181818183L 410.3809523809524 191.5629090909091L 412.4761904761905 198.7672727272727L 414.57142857142856 199.3005090909091L 416.66666666666663 201.64901818181818L 418.76190476190476 200.58821818181818L 420.85714285714283 202.43752727272727L 422.95238095238096 200.73003636363637L 425.0476190476191 189.7703272727273L 427.14285714285717 203.17498181818183L 429.23809523809524 200.48610909090908L 431.3333333333333 185.1810909090909L 433.42857142857144 187.88698181818182L 435.5238095238095 191.01832727272728L 437.6190476190476 192.31738181818181L 439.7142857142857 177.09745454545455L 441.8095238095238 167.91330909090908L 443.90476190476187 179.30981818181817L 446 186.49716363636364L 448.09523809523813 150.34487272727273L 450.1904761904762 184.27345454545454L 452.2857142857143 199.5104L 454.3809523809524 161.24785454545454L 456.4761904761905 155.49003636363636L 458.57142857142856 176.96130909090908L 460.66666666666663 190.30923636363636L 462.76190476190476 193.50865454545453L 464.85714285714283 201.72843636363638L 466.95238095238096 185.22647272727272L 469.0476190476191 192.03374545454545L 471.14285714285717 192.66909090909093L 473.23809523809524 180.18341818181818L 475.3333333333333 194.5013818181818L 477.42857142857144 194.6829090909091L 479.5238095238095 201.85323636363637L 481.6190476190476 196.2032L 483.7142857142857 204.49105454545455L 485.8095238095238 191.55723636363638L 487.90476190476187 180.36494545454545L 490 193.02647272727273L 492.09523809523813 186.20785454545455L 494.1904761904762 191.72741818181817L 496.2857142857143 191.4834909090909L 498.3809523809524 196.63432727272726L 500.4761904761905 200.7810909090909L 502.57142857142856 176.26923636363637L 504.66666666666663 165.78036363636363L 506.76190476190476 181.82850909090908L 508.85714285714283 160.6976L 510.9523809523809 163.93105454545454L 513.047619047619 182.10647272727272L 515.1428571428571 130.808L 517.2380952380953 190.49643636363635L 519.3333333333333 202.0914909090909L 521.4285714285714 184.09192727272728L 523.5238095238096 197.50225454545455L 525.6190476190476 187.54094545454547L 527.7142857142858 192.95272727272726L 529.8095238095237 201.88727272727272L 531.9047619047619 184.33585454545454L 534 183.04814545454545L 536.0952380952381 182.36741818181818L 538.1904761904761 182.54327272727272L 540.2857142857143 186.38938181818182L 542.3809523809523 174.3858909090909L 544.4761904761905 183.1786181818182L 546.5714285714287 183.5133090909091L 548.6666666666666 184.60247272727273L 550.7619047619048 186.968L 552.8571428571429 170.00087272727274L 554.952380952381 167.8338909090909L 557.047619047619 203.32247272727273L 559.1428571428571 206L 561.2380952380952 128.43112727272728L 563.3333333333334 183.2637090909091L 565.4285714285713 156.8685090909091L 567.5238095238095 183.15592727272727L 569.6190476190477 183.2013090909091L 571.7142857142857 182.25963636363636L 573.8095238095239 170.18807272727273L 575.9047619047619 186.86589090909092L 578 183.77425454545454L 580.0952380952381 186.29861818181817L 582.1904761904763 184.17134545454545L 584.2857142857142 184.9655272727273L 586.3809523809524 178.1696L 588.4761904761905 180.70530909090908L 590.5714285714286 170.80072727272727L 592.6666666666667 177.99374545454546L 594.7619047619047 175.99127272727273L 596.8571428571429 173.75621818181818L 598.952380952381 175.45803636363638L 601.047619047619 196.91796363636365L 603.1428571428571 150.30516363636363L 605.2380952380953 167.34036363636363L 607.3333333333333 174.52203636363637L 609.4285714285714 132.05599999999998L 611.5238095238095 144.8309818181818L 613.6190476190476 173.60872727272726L 615.7142857142858 151.91054545454546L 617.8095238095239 194.03621818181819L 619.9047619047619 160.59549090909093L 622 206L 624.0952380952381 153.43650909090908L 626.1904761904761 181.01163636363637L 628.2857142857143 181.6413090909091L 630.3809523809523 182.49221818181817L 632.4761904761905 183.08785454545455L 634.5714285714286 206L 636.6666666666666 151.86516363636363L 638.7619047619048 172.45716363636365L 640.8571428571429 169.20669090909092L 642.952380952381 178.22065454545455L 645.047619047619 175.54312727272728L 647.1428571428572 177.61367272727273L 649.2380952380952 181.0173090909091L 651.3333333333334 176.80814545454547L 653.4285714285713 167.8962909090909L 655.5238095238095 167.1248L 657.6190476190476 176.62094545454545L 659.7142857142857 158.63272727272727L 661.8095238095239 151.3602909090909L 663.9047619047619 173.35345454545455L 666 206L 668.0952380952381 206L 670.1904761904763 206L 672.2857142857142 206L 674.3809523809524 206L 676.4761904761905 206L 678.5714285714286 206L 680.6666666666666 206L 682.7619047619047 206L 684.8571428571429 206L 686.952380952381 206L 689.047619047619 206L 691.1428571428571 206L 693.2380952380953 206L 695.3333333333333 206L 697.4285714285714 206L 699.5238095238095 206L 701.6190476190476 206L 703.7142857142857 206L 705.8095238095239 206L 707.9047619047619 206L 710 206L 712.0952380952382 206L 714.1904761904761 206L 716.2857142857143 206L 718.3809523809523 206L 720.4761904761905 206L 722.5714285714286 206L 724.6666666666666 206L 726.7619047619048 206L 728.8571428571429 206L 730.952380952381 206L 733.047619047619 206L 735.1428571428572 206L 737.2380952380952 206L 739.3333333333334 206L 741.4285714285714 206L 743.5238095238095 206L 745.6190476190476 206L 747.7142857142857 206L 749.8095238095239 206L 751.9047619047619 206L 754 206L 756.0952380952381 206L 758.1904761904763 206L 760.2857142857142 206L 762.3809523809524 206L 764.4761904761905 206L 766.5714285714286 206L 768.6666666666666 206L 770.7619047619048 206L 772.8571428571429 206L 774.952380952381 206L 777.047619047619 206L 779.1428571428571 206L 781.2380952380953 206L 783.3333333333333 206L 785.4285714285714 206L 787.5238095238095 206L 789.6190476190476 206L 791.7142857142857 206L 793.8095238095239 206L 795.9047619047619 206L 798 206L 800.0952380952382 206L 802.1904761904761 206L 804.2857142857143 206L 806.3809523809523 206L 808.4761904761905 206L 810.5714285714286 206L 812.6666666666666 206L 814.7619047619047 206L 816.8571428571429 206L 818.952380952381 206L 821.047619047619 206L 823.1428571428572 206L 825.2380952380952 206L 827.3333333333334 206L 829.4285714285714 206L 831.5238095238095 206L 833.6190476190476 206L 835.7142857142857 206L 837.8095238095237 206L 839.9047619047619 206L 842 206L 844.0952380952381 206L 846.1904761904763 206L 848.2857142857142 206L 850.3809523809524 206L 852.4761904761905 206L 854.5714285714286 206L 856.6666666666666 206L 858.7619047619048 206L 860.8571428571429 206L 862.952380952381 206L 865.0476190476192 206L 867.1428571428571 206L 869.2380952380953 206L 871.3333333333333 206L 873.4285714285714 206L 875.5238095238095 206L 877.6190476190476 206L 879.7142857142857 206L 881.8095238095239 206L 883.9047619047619 206L 886 206L 888.0952380952382 206L 890.1904761904761 206L 892.2857142857143 206L 894.3809523809524 206L 896.4761904761905 206L 898.5714285714286 206L 900.6666666666666 206L 902.7619047619047 206L 904.8571428571429 206L 906.952380952381 206L 909.047619047619 206L 911.1428571428572 206L 913.2380952380952 206L 915.3333333333334 206L 917.4285714285714 206L 919.5238095238095 206L 921.6190476190476 206L 923.7142857142858 206L 925.8095238095237 206L 927.9047619047619 206L 930 206L 932.0952380952381 206L 934.1904761904763 206L 936.2857142857142 206L 938.3809523809524 206L 940.4761904761905 206L 942.5714285714286 206L 944.6666666666666 206L 946.7619047619048 206L 948.8571428571428 206L 950.952380952381 206L 953.047619047619 206L 955.1428571428571 206L 957.2380952380953 206L 959.3333333333333 206L 961.4285714285714 206L 963.5238095238095 206L 965.6190476190476 206L 967.7142857142857 206L 969.8095238095239 206L 971.9047619047618 206L 974 206" stroke-width="2.0" fill="none" />
    
        
        
        <text x="45.0" font-family="-apple-system, system-ui, BlinkMacSystemFont, Roboto" y="50.0" dominant-baseline="middle" text-anchor="end" font-size="12" fill="#24292f">27500.0</text>
        
            
            <path stroke="#74838f" stroke-dasharray="10 6" stroke-width="0.5"  d="M 50.0 50.0 L 974.0 50.0" />
        
    
        
        
        <text x="45.0" font-family="-apple-system, system-ui, BlinkMacSystemFont, Roboto" y="81.2" dominant-baseline="middle" text-anchor="end" font-size="12" fill="#24292f">22000.0</text>
        
            
            
            <path stroke="#74838f" stroke-dasharray="10 6" stroke-width="0.5"  d="M 50.0 81.2 L 974.0 81.2" />
        
    
        
        
        <text x="45.0" font-family="-apple-system, system-ui, BlinkMacSystemFont, Roboto" y="112.4" dominant-baseline="middle" text-anchor="end" font-size="12" fill="#24292f">16500.0</text>
        
            
            
            <path stroke="#74838f" stroke-dasharray="10 6" stroke-width="0.5"  d="M 50.0 112.4 L 974.0 112.4" />
        
    
        
        
        <text x="45.0" font-family="-apple-system, system-ui, BlinkMacSystemFont, Roboto" y="143.6" dominant-baseline="middle" text-anchor="end" font-size="12" fill="#24292f">11000.0</text>
        
            
            
            <path stroke="#74838f" stroke-dasharray="10 6" stroke-width="0.5"  d="M 50.0 143.6 L 974.0 143.6" />
        
    
        
        
        <text x="45.0" font-family="-apple-system, system-ui, BlinkMacSystemFont, Roboto" y="174.8" dominant-baseline="middle" text-anchor="end" font-size="12" fill="#24292f">5500.0</text>
        
            
            
            <path stroke="#74838f" stroke-dasharray="10 6" stroke-width="0.5"  d="M 50.0 174.8 L 974.0 174.8" />
        
    
        
        
        <text x="45.0" font-family="-apple-system, system-ui, BlinkMacSystemFont, Roboto" y="206.0" dominant-baseline="middle" text-anchor="end" font-size="12" fill="#24292f">0.0</text>
        
    
    
        
        <path stroke="#74838f"  stroke-width="2.0"  d="M 83.52380952380952 206.0 L 83.52380952380952 214.0" />
        <text x="83.52380952380952" font-family="-apple-system, system-ui, BlinkMacSystemFont, Roboto" y="216.0" dominant-baseline="hanging" text-anchor="middle" font-size="12" fill="#24292f">Mar 2022</text>
    
        
        <path stroke="#74838f"  stroke-width="2.0"  d="M 148.47619047619048 206.0 L 148.47619047619048 214.0" />
        <text x="148.47619047619048" font-family="-apple-system, system-ui, BlinkMacSystemFont, Roboto" y="216.0" dominant-baseline="hanging" text-anchor="middle" font-size="12" fill="#24292f">Apr 2022</text>
    
        
        <path stroke="#74838f"  stroke-width="2.0"  d="M 211.33333333333331 206.0 L 211.33333333333331 214.0" />
        <text x="211.33333333333331" font-family="-apple-system, system-ui, BlinkMacSystemFont, Roboto" y="216.0" dominant-baseline="hanging" text-anchor="middle" font-size="12" fill="#24292f">May 2022</text>
    
        
        <path stroke="#74838f"  stroke-width="2.0"  d="M 276.2857142857143 206.0 L 276.2857142857143 214.0" />
        <text x="276.2857142857143" font-family="-apple-system, system-ui, BlinkMacSystemFont, Roboto" y="216.0" dominant-baseline="hanging" text-anchor="middle" font-size="12" fill="#24292f">Jun 2022</text>
    
        
        <path stroke="#74838f"  stroke-width="2.0"  d="M 339.14285714285717 206.0 L 339.14285714285717 214.0" />
        <text x="339.14285714285717" font-family="-apple-system, system-ui, BlinkMacSystemFont, Roboto" y="216.0" dominant-baseline="hanging" text-anchor="middle" font-size="12" fill="#24292f">Jul 2022</text>
    
        
        <path stroke="#74838f"  stroke-width="2.0"  d="M 404.09523809523813 206.0 L 404.09523809523813 214.0" />
        <text x="404.09523809523813" font-family="-apple-system, system-ui, BlinkMacSystemFont, Roboto" y="216.0" dominant-baseline="hanging" text-anchor="middle" font-size="12" fill="#24292f">Aug 2022</text>
    
        
        <path stroke="#74838f"  stroke-width="2.0"  d="M 469.0476190476191 206.0 L 469.0476190476191 214.0" />
        <text x="469.0476190476191" font-family="-apple-system, system-ui, BlinkMacSystemFont, Roboto" y="216.0" dominant-baseline="hanging" text-anchor="middle" font-size="12" fill="#24292f">Sep 2022</text>
    
        
        <path stroke="#74838f"  stroke-width="2.0"  d="M 531.9047619047619 206.0 L 531.9047619047619 214.0" />
        <text x="531.9047619047619" font-family="-apple-system, system-ui, BlinkMacSystemFont, Roboto" y="216.0" dominant-baseline="hanging" text-anchor="middle" font-size="12" fill="#24292f">Oct 2022</text>
    
        
        <path stroke="#74838f"  stroke-width="2.0"  d="M 596.8571428571429 206.0 L 596.8571428571429 214.0" />
        <text x="596.8571428571429" font-family="-apple-system, system-ui, BlinkMacSystemFont, Roboto" y="216.0" dominant-baseline="hanging" text-anchor="middle" font-size="12" fill="#24292f">Nov 2022</text>
    
        
        <path stroke="#74838f"  stroke-width="2.0"  d="M 659.7142857142857 206.0 L 659.7142857142857 214.0" />
        <text x="659.7142857142857" font-family="-apple-system, system-ui, BlinkMacSystemFont, Roboto" y="216.0" dominant-baseline="hanging" text-anchor="middle" font-size="12" fill="#24292f">Dec 2022</text>
    
        
        <path stroke="#74838f"  stroke-width="2.0"  d="M 724.6666666666666 206.0 L 724.6666666666666 214.0" />
        <text x="724.6666666666666" font-family="-apple-system, system-ui, BlinkMacSystemFont, Roboto" y="216.0" dominant-baseline="hanging" text-anchor="middle" font-size="12" fill="#24292f">Jan 2023</text>
    
        
        <path stroke="#74838f"  stroke-width="2.0"  d="M 789.6190476190476 206.0 L 789.6190476190476 214.0" />
        <text x="789.6190476190476" font-family="-apple-system, system-ui, BlinkMacSystemFont, Roboto" y="216.0" dominant-baseline="hanging" text-anchor="middle" font-size="12" fill="#24292f">Feb 2023</text>
    
        
        <path stroke="#74838f"  stroke-width="2.0"  d="M 848.2857142857142 206.0 L 848.2857142857142 214.0" />
        <text x="848.2857142857142" font-family="-apple-system, system-ui, BlinkMacSystemFont, Roboto" y="216.0" dominant-baseline="hanging" text-anchor="middle" font-size="12" fill="#24292f">Mar 2023</text>
    
        
        <path stroke="#74838f"  stroke-width="2.0"  d="M 913.2380952380952 206.0 L 913.2380952380952 214.0" />
        <text x="913.2380952380952" font-family="-apple-system, system-ui, BlinkMacSystemFont, Roboto" y="216.0" dominant-baseline="hanging" text-anchor="middle" font-size="12" fill="#24292f">Apr 2023</text>
    
    <path stroke="#74838f"   stroke-linejoin="round" stroke-width="2.0" d="M 50.0 216.0 L 50.0 206.0 L 974.0 206.0 L 974.0 216.0"  fill="none" />
    <text x="512.0" y="25.0" font-family="-apple-system, system-ui, BlinkMacSystemFont, Roboto" dominant-baseline="middle" text-anchor="middle" font-size="18" fill="#24292f">Total daily screen name changes</text>
</svg>
