<?xml version="1.0" standalone="no"?>
<svg width="1024.0" height="256.0"  viewBox="0 0 1024.0 256.0" preserveAspectRatio="xMidYMid meet" xmlns="http://www.w3.org/2000/svg">
    <path stroke="#3498db" stroke-linejoin="round" d="M 50.0 203.3394909090909 L 50 203.3394909090909L 51.96595744680851 202.32974545454545L 53.93191489361702 196.86690909090908L 55.89787234042553 195.94792727272727L 57.86382978723404 202.14254545454546L 59.829787234042556 197.35476363636363L 61.795744680851065 191.76145454545454L 63.761702127659575 179.96218181818182L 65.72765957446808 204.09396363636364L 67.6936170212766 194.17236363636363L 69.65957446808511 192.61803636363635L 71.62553191489361 195.1253818181818L 73.59148936170213 193.92843636363637L 75.55744680851063 182.2482909090909L 77.52340425531915 200.86618181818181L 79.48936170212765 201.45614545454546L 81.45531914893617 178.89003636363637L 83.42127659574467 197.33774545454546L 85.38723404255319 198.50065454545455L 87.3531914893617 200.41803636363636L 89.31914893617022 201.18385454545455L 91.28510638297873 202.26734545454545L 93.25106382978723 195.09134545454546L 95.21702127659574 198.08087272727272L 97.18297872340426 183.38850909090908L 99.14893617021276 197.47389090909093L 101.11489361702127 202.01774545454546L 103.08085106382978 194.66021818181818L 105.0468085106383 200.75272727272727L 107.01276595744682 200.00392727272728L 108.9787234042553 201.97236363636364L 110.94468085106382 204.2754909090909L 112.91063829787234 201.74545454545455L 114.87659574468086 201.01367272727273L 116.84255319148936 174.7829818181818L 118.80851063829788 195.76072727272728L 120.77446808510638 204.0032L 122.7404255319149 203.7309090909091L 124.70638297872341 197.87665454545453L 126.67234042553191 202.60770909090908L 128.63829787234044 202.6928L 130.60425531914893 197.55898181818182L 132.57021276595745 186.5141818181818L 134.53617021276597 199.26647272727274L 136.50212765957446 199.5728L 138.46808510638297 193.4802909090909L 140.4340425531915 199.10763636363635L 142.4 201.54690909090908L 144.36595744680852 201.5696L 146.331914893617 195.06865454545454L 148.29787234042553 201.70007272727273L 150.26382978723404 197.2866909090909L 152.22978723404253 172.35505454545455L 154.19574468085108 203.20901818181818L 156.16170212765957 199.6749090909091L 158.12765957446808 193.12858181818183L 160.0936170212766 196.8896L 162.0595744680851 199.78836363636364L 164.02553191489363 198.82967272727274L 165.99148936170212 204.1336727272727L 167.9574468085106 202.57934545454546L 169.92340425531916 198.9261090909091L 171.88936170212764 206L 173.8553191489362 204.128L 175.82127659574468 192.1245090909091L 177.7872340425532 206L 179.7531914893617 206L 181.71914893617023 206L 183.68510638297872 206L 185.65106382978723 197.37178181818183L 187.61702127659575 199.57847272727273L 189.58297872340424 188.9024L 191.54893617021276 195.02894545454546L 193.51489361702127 191.20552727272727L 195.4808510638298 166.8128L 197.4468085106383 203.8386909090909L 199.41276595744682 198.09221818181817L 201.3787234042553 201.64334545454545L 203.34468085106383 202.2957090909091L 205.31063829787234 203.22036363636363L 207.27659574468086 200.66763636363635L 209.24255319148935 191.51185454545455L 211.20851063829787 189.18603636363636L 213.17446808510638 203.86705454545455L 215.1404255319149 197.56465454545454L 217.10638297872342 187.32538181818182L 219.0723404255319 201.2349090909091L 221.03829787234042 200.44639999999998L 223.00425531914894 201.4618181818182L 224.97021276595746 201.09876363636363L 226.93617021276594 201.17818181818183L 228.90212765957446 193.02647272727273L 230.86808510638298 198.8069818181818L 232.8340425531915 203.39054545454545L 234.8 200.30458181818182L 236.7659574468085 198.35883636363636L 238.73191489361702 193.3101090909091L 240.69787234042553 200.56552727272728L 242.66382978723405 203.03883636363636L 244.62978723404254 197.22996363636364L 246.59574468085106 201.95534545454547L 248.56170212765957 196.016L 250.5276595744681 202.30705454545455L 252.4936170212766 199.91316363636363L 254.4595744680851 194.62050909090908L 256.4255319148936 201.29163636363637L 258.39148936170216 202.98778181818182L 260.35744680851064 203.5437090909091L 262.32340425531913 200.60523636363638L 264.2893617021276 195.5621818181818L 266.25531914893617 203.24305454545456L 268.2212765957447 200.15709090909093L 270.1872340425532 198.46661818181818L 272.1531914893617 201.70007272727273L 274.1191489361702 200.70734545454545L 276.0851063829787 200.4293818181818L 278.05106382978727 201.76814545454545L 280.01702127659576 204.6442181818182L 281.98297872340424 206L 283.94893617021273 196.35636363636365L 285.9148936170212 199.21541818181817L 287.88085106382977 156.87418181818182L 289.8468085106383 165.1506909090909L 291.8127659574468 204.1733818181818L 293.7787234042553 202.17658181818183L 295.74468085106383 199.31185454545454L 297.7106382978724 198.7842909090909L 299.67659574468087 202.6757818181818L 301.64255319148936 202.8573090909091L 303.60851063829784 196.1861818181818L 305.5744680851064 199.64654545454545L 307.54042553191493 198.2056727272727L 309.5063829787234 201.2178909090909L 311.4723404255319 201.79083636363637L 313.43829787234046 201.90429090909092L 315.40425531914894 200.1968L 317.37021276595743 195.17076363636363L 319.3361702127659 206L 321.30212765957447 206L 323.26808510638296 206L 325.2340425531915 191.4834909090909L 327.2 197.79723636363636L 329.1659574468085 198.85236363636363L 331.131914893617 199.76L 333.0978723404255 200.03796363636363L 335.06382978723406 200.76407272727272L 337.02978723404254 201.80785454545455L 338.9957446808511 191.63098181818182L 340.9617021276596 194.41061818181817L 342.9276595744681 199.88479999999998L 344.8936170212766 152.63098181818182L 346.8595744680851 197.04843636363637L 348.82553191489365 194.4730181818182L 350.79148936170213 155.90414545454547L 352.7574468085106 91.60945454545454L 354.7234042553191 104.5376L 356.68936170212766 151.17876363636364L 358.65531914893614 185.1981090909091L 360.6212765957447 142.76610909090908L 362.5872340425532 125.0672L 364.5531914893617 123.74545454545455L 366.5191489361702 157.99738181818182L 368.4851063829787 53.56814545454546L 370.45106382978724 50.78850909090909L 372.41702127659573 100.02210909090908L 374.3829787234043 156.2445090909091L 376.34893617021277 180.31956363636363L 378.3148936170213 192.43650909090908L 380.2808510638298 193.63912727272728L 382.2468085106383 193.3328L 384.21276595744683 192.11316363636365L 386.1787234042553 197.93338181818183L 388.1446808510638 191.5629090909091L 390.1106382978723 198.7672727272727L 392.07659574468084 199.3005090909091L 394.04255319148933 201.64901818181818L 396.0085106382979 200.58821818181818L 397.97446808510637 202.43752727272727L 399.9404255319149 200.73003636363637L 401.9063829787234 189.7703272727273L 403.8723404255319 203.17498181818183L 405.83829787234043 200.48610909090908L 407.8042553191489 185.1810909090909L 409.77021276595747 187.88698181818182L 411.73617021276596 191.01832727272728L 413.7021276595745 192.31738181818181L 415.668085106383 177.09745454545455L 417.63404255319153 167.91330909090908L 419.6 179.30981818181817L 421.5659574468085 186.49716363636364L 423.531914893617 150.34487272727273L 425.4978723404255 184.27345454545454L 427.46382978723403 199.5104L 429.4297872340425 161.24785454545454L 431.39574468085107 155.49003636363636L 433.36170212765956 176.96130909090908L 435.3276595744681 190.30923636363636L 437.2936170212766 193.50865454545453L 439.2595744680851 201.72843636363638L 441.2255319148936 185.22647272727272L 443.1914893617021 192.03374545454545L 445.15744680851066 192.66909090909093L 447.12340425531914 180.18341818181818L 449.0893617021277 194.5013818181818L 451.0553191489362 194.6829090909091L 453.0212765957447 201.85323636363637L 454.9872340425532 196.2032L 456.9531914893617 204.49105454545455L 458.9191489361702 191.55723636363638L 460.8851063829787 180.36494545454545L 462.8510638297872 193.02647272727273L 464.8170212765957 186.20785454545455L 466.78297872340426 191.72741818181817L 468.74893617021274 191.4834909090909L 470.7148936170213 196.63432727272726L 472.6808510638298 200.7810909090909L 474.6468085106383 176.26923636363637L 476.6127659574468 165.78036363636363L 478.5787234042553 181.82850909090908L 480.54468085106384 160.6976L 482.51063829787233 163.93105454545454L 484.4765957446809 182.10647272727272L 486.44255319148937 130.808L 488.4085106382979 190.49643636363635L 490.3744680851064 202.0914909090909L 492.3404255319149 184.09192727272728L 494.3063829787234 197.50225454545455L 496.27234042553187 187.54094545454547L 498.2382978723404 192.95272727272726L 500.2042553191489 201.88727272727272L 502.17021276595744 184.33585454545454L 504.13617021276593 183.04814545454545L 506.1021276595745 182.36741818181818L 508.06808510638297 182.54327272727272L 510.0340425531915 186.38938181818182L 512 174.3858909090909L 513.9659574468085 183.1786181818182L 515.931914893617 183.5133090909091L 517.8978723404255 184.60247272727273L 519.8638297872341 186.968L 521.8297872340424 170.00087272727274L 523.7957446808512 167.8338909090909L 525.7617021276595 203.32247272727273L 527.7276595744681 206L 529.6936170212766 128.43112727272728L 531.6595744680851 183.2637090909091L 533.6255319148936 156.8685090909091L 535.5914893617021 183.15592727272727L 537.5574468085106 183.2013090909091L 539.5234042553192 182.25963636363636L 541.4893617021277 170.18807272727273L 543.4553191489363 186.86589090909092L 545.4212765957448 183.77425454545454L 547.3872340425532 186.29861818181817L 549.3531914893617 184.17134545454545L 551.3191489361702 184.9655272727273L 553.2851063829787 178.1696L 555.2510638297872 180.70530909090908L 557.2170212765957 170.80072727272727L 559.1829787234042 177.99374545454546L 561.1489361702128 175.99127272727273L 563.1148936170213 173.75621818181818L 565.0808510638299 175.45803636363638L 567.0468085106382 196.91796363636365L 569.0127659574468 150.30516363636363L 570.9787234042553 167.34036363636363L 572.9446808510638 174.52203636363637L 574.9106382978723 132.05599999999998L 576.8765957446809 144.8309818181818L 578.8425531914894 173.60872727272726L 580.8085106382979 151.91054545454546L 582.7744680851064 194.03621818181819L 584.7404255319149 160.59549090909093L 586.7063829787234 206L 588.6723404255318 153.43650909090908L 590.6382978723404 181.01163636363637L 592.6042553191489 181.6413090909091L 594.5702127659574 182.49221818181817L 596.5361702127659 183.08785454545455L 598.5021276595745 206L 600.468085106383 151.86516363636363L 602.4340425531915 172.45716363636365L 604.4 169.20669090909092L 606.3659574468086 178.22065454545455L 608.331914893617 175.54312727272728L 610.2978723404256 177.61367272727273L 612.263829787234 181.0173090909091L 614.2297872340426 176.80814545454547L 616.195744680851 167.8962909090909L 618.1617021276596 167.1248L 620.1276595744681 176.62094545454545L 622.0936170212766 158.63272727272727L 624.0595744680851 151.3602909090909L 626.0255319148936 173.35345454545455L 627.9914893617022 206L 629.9574468085106 206L 631.9234042553192 206L 633.8893617021276 206L 635.8553191489362 206L 637.8212765957446 206L 639.7872340425532 206L 641.7531914893617 206L 643.7191489361702 206L 645.6851063829787 206L 647.6510638297873 206L 649.6170212765958 206L 651.5829787234043 206L 653.5489361702128 206L 655.5148936170212 206L 657.4808510638298 206L 659.4468085106382 206L 661.4127659574468 206L 663.3787234042553 206L 665.3446808510638 206L 667.3106382978723 206L 669.2765957446809 206L 671.2425531914894 206L 673.2085106382979 206L 675.1744680851064 206L 677.140425531915 206L 679.1063829787234 206L 681.0723404255319 206L 683.0382978723404 206L 685.004255319149 206L 686.9702127659574 206L 688.936170212766 206L 690.9021276595745 206L 692.868085106383 206L 694.8340425531915 206L 696.8 206L 698.7659574468086 206L 700.7319148936169 206L 702.6978723404255 206L 704.663829787234 206L 706.6297872340426 206L 708.595744680851 206L 710.5617021276596 206L 712.5276595744681 206L 714.4936170212766 206L 716.4595744680851 206L 718.4255319148937 206L 720.3914893617022 206L 722.3574468085106 206L 724.3234042553191 206L 726.2893617021276 206L 728.2553191489362 206L 730.2212765957446 206L 732.1872340425532 206L 734.1531914893617 206L 736.1191489361702 206L 738.0851063829787 206L 740.0510638297873 206L 742.0170212765958 206L 743.9829787234042 206L 745.9489361702127 206L 747.9148936170213 206L 749.8808510638298 206L 751.8468085106383 206L 753.8127659574468 206L 755.7787234042554 206L 757.7446808510638 206L 759.7106382978724 206L 761.6765957446809 206L 763.6425531914894 206L 765.6085106382978 206L 767.5744680851063 206L 769.5404255319149 206L 771.5063829787234 206L 773.4723404255319 206L 775.4382978723404 206L 777.404255319149 206L 779.3702127659574 206L 781.336170212766 206L 783.3021276595745 206L 785.2680851063831 206L 787.2340425531914 206L 789.2 206L 791.1659574468085 206L 793.131914893617 206L 795.0978723404255 206L 797.063829787234 206L 799.0297872340426 206L 800.995744680851 206L 802.9617021276596 206L 804.9276595744681 206L 806.8936170212766 206L 808.859574468085 206L 810.8255319148936 206L 812.7914893617021 206L 814.7574468085106 206L 816.7234042553191 206L 818.6893617021277 206L 820.6553191489362 206L 822.6212765957447 206L 824.5872340425532 206L 826.5531914893618 206L 828.5191489361702 206L 830.4851063829788 206L 832.4510638297872 206L 834.4170212765957 206L 836.3829787234042 206L 838.3489361702127 206L 840.3148936170213 206L 842.2808510638298 206L 844.2468085106383 206L 846.2127659574468 206L 848.1787234042554 206L 850.1446808510638 206L 852.1106382978724 206L 854.0765957446808 206L 856.0425531914894 206L 858.0085106382978 206L 859.9744680851064 206L 861.9404255319149 206L 863.9063829787234 206L 865.8723404255319 206L 867.8382978723404 206L 869.804255319149 206L 871.7702127659574 206L 873.736170212766 206L 875.7021276595744 206L 877.668085106383 206L 879.6340425531914 206L 881.6 206L 883.5659574468085 206L 885.531914893617 206L 887.4978723404255 206L 889.4638297872341 206L 891.4297872340426 206L 893.3957446808511 206L 895.3617021276596 206L 897.3276595744682 206L 899.2936170212766 206L 901.2595744680851 206L 903.2255319148936 206L 905.1914893617021 206L 907.1574468085106 206L 909.1234042553191 206L 911.0893617021277 206L 913.0553191489362 206L 915.0212765957447 206L 916.9872340425532 206L 918.9531914893618 206L 920.9191489361701 206L 922.8851063829787 206L 924.8510638297872 206L 926.8170212765958 206L 928.7829787234042 206L 930.7489361702128 206L 932.7148936170213 206L 934.6808510638298 206L 936.6468085106383 206L 938.6127659574468 206L 940.5787234042554 206L 942.5446808510637 206L 944.5106382978723 206L 946.4765957446808 206L 948.4425531914894 206L 950.4085106382978 206L 952.3744680851064 206L 954.3404255319149 206L 956.3063829787234 206L 958.2723404255319 206L 960.2382978723405 206L 962.204255319149 206L 964.1702127659574 206L 966.1361702127659 206L 968.1021276595745 206L 970.068085106383 206L 972.0340425531915 206L 974 206" stroke-width="2.0" fill="none" />
    
        
        
        <text x="45.0" font-family="-apple-system, system-ui, BlinkMacSystemFont, Roboto" y="50.0" dominant-baseline="middle" text-anchor="end" font-size="12" fill="#24292f">27500.0</text>
        
            
            <path stroke="#74838f" stroke-dasharray="10 6" stroke-width="0.5"  d="M 50.0 50.0 L 974.0 50.0" />
        
    
        
        
        <text x="45.0" font-family="-apple-system, system-ui, BlinkMacSystemFont, Roboto" y="81.2" dominant-baseline="middle" text-anchor="end" font-size="12" fill="#24292f">22000.0</text>
        
            
            
            <path stroke="#74838f" stroke-dasharray="10 6" stroke-width="0.5"  d="M 50.0 81.2 L 974.0 81.2" />
        
    
        
        
        <text x="45.0" font-family="-apple-system, system-ui, BlinkMacSystemFont, Roboto" y="112.4" dominant-baseline="middle" text-anchor="end" font-size="12" fill="#24292f">16500.0</text>
        
            
            
            <path stroke="#74838f" stroke-dasharray="10 6" stroke-width="0.5"  d="M 50.0 112.4 L 974.0 112.4" />
        
    
        
        
        <text x="45.0" font-family="-apple-system, system-ui, BlinkMacSystemFont, Roboto" y="143.6" dominant-baseline="middle" text-anchor="end" font-size="12" fill="#24292f">11000.0</text>
        
            
            
            <path stroke="#74838f" stroke-dasharray="10 6" stroke-width="0.5"  d="M 50.0 143.6 L 974.0 143.6" />
        
    
        
        
        <text x="45.0" font-family="-apple-system, system-ui, BlinkMacSystemFont, Roboto" y="174.8" dominant-baseline="middle" text-anchor="end" font-size="12" fill="#24292f">5500.0</text>
        
            
            
            <path stroke="#74838f" stroke-dasharray="10 6" stroke-width="0.5"  d="M 50.0 174.8 L 974.0 174.8" />
        
    
        
        
        <text x="45.0" font-family="-apple-system, system-ui, BlinkMacSystemFont, Roboto" y="206.0" dominant-baseline="middle" text-anchor="end" font-size="12" fill="#24292f">0.0</text>
        
    
    
        
        <path stroke="#74838f"  stroke-width="2.0"  d="M 81.45531914893617 206.0 L 81.45531914893617 214.0" />
        <text x="81.45531914893617" font-family="-apple-system, system-ui, BlinkMacSystemFont, Roboto" y="216.0" dominant-baseline="hanging" text-anchor="middle" font-size="12" fill="#24292f">Mar 2022</text>
    
        
        <path stroke="#74838f"  stroke-width="2.0"  d="M 142.4 206.0 L 142.4 214.0" />
        <text x="142.4" font-family="-apple-system, system-ui, BlinkMacSystemFont, Roboto" y="216.0" dominant-baseline="hanging" text-anchor="middle" font-size="12" fill="#24292f">Apr 2022</text>
    
        
        <path stroke="#74838f"  stroke-width="2.0"  d="M 201.3787234042553 206.0 L 201.3787234042553 214.0" />
        <text x="201.3787234042553" font-family="-apple-system, system-ui, BlinkMacSystemFont, Roboto" y="216.0" dominant-baseline="hanging" text-anchor="middle" font-size="12" fill="#24292f">May 2022</text>
    
        
        <path stroke="#74838f"  stroke-width="2.0"  d="M 262.32340425531913 206.0 L 262.32340425531913 214.0" />
        <text x="262.32340425531913" font-family="-apple-system, system-ui, BlinkMacSystemFont, Roboto" y="216.0" dominant-baseline="hanging" text-anchor="middle" font-size="12" fill="#24292f">Jun 2022</text>
    
        
        <path stroke="#74838f"  stroke-width="2.0"  d="M 321.30212765957447 206.0 L 321.30212765957447 214.0" />
        <text x="321.30212765957447" font-family="-apple-system, system-ui, BlinkMacSystemFont, Roboto" y="216.0" dominant-baseline="hanging" text-anchor="middle" font-size="12" fill="#24292f">Jul 2022</text>
    
        
        <path stroke="#74838f"  stroke-width="2.0"  d="M 382.2468085106383 206.0 L 382.2468085106383 214.0" />
        <text x="382.2468085106383" font-family="-apple-system, system-ui, BlinkMacSystemFont, Roboto" y="216.0" dominant-baseline="hanging" text-anchor="middle" font-size="12" fill="#24292f">Aug 2022</text>
    
        
        <path stroke="#74838f"  stroke-width="2.0"  d="M 443.1914893617021 206.0 L 443.1914893617021 214.0" />
        <text x="443.1914893617021" font-family="-apple-system, system-ui, BlinkMacSystemFont, Roboto" y="216.0" dominant-baseline="hanging" text-anchor="middle" font-size="12" fill="#24292f">Sep 2022</text>
    
        
        <path stroke="#74838f"  stroke-width="2.0"  d="M 502.17021276595744 206.0 L 502.17021276595744 214.0" />
        <text x="502.17021276595744" font-family="-apple-system, system-ui, BlinkMacSystemFont, Roboto" y="216.0" dominant-baseline="hanging" text-anchor="middle" font-size="12" fill="#24292f">Oct 2022</text>
    
        
        <path stroke="#74838f"  stroke-width="2.0"  d="M 563.1148936170213 206.0 L 563.1148936170213 214.0" />
        <text x="563.1148936170213" font-family="-apple-system, system-ui, BlinkMacSystemFont, Roboto" y="216.0" dominant-baseline="hanging" text-anchor="middle" font-size="12" fill="#24292f">Nov 2022</text>
    
        
        <path stroke="#74838f"  stroke-width="2.0"  d="M 622.0936170212766 206.0 L 622.0936170212766 214.0" />
        <text x="622.0936170212766" font-family="-apple-system, system-ui, BlinkMacSystemFont, Roboto" y="216.0" dominant-baseline="hanging" text-anchor="middle" font-size="12" fill="#24292f">Dec 2022</text>
    
        
        <path stroke="#74838f"  stroke-width="2.0"  d="M 683.0382978723404 206.0 L 683.0382978723404 214.0" />
        <text x="683.0382978723404" font-family="-apple-system, system-ui, BlinkMacSystemFont, Roboto" y="216.0" dominant-baseline="hanging" text-anchor="middle" font-size="12" fill="#24292f">Jan 2023</text>
    
        
        <path stroke="#74838f"  stroke-width="2.0"  d="M 743.9829787234042 206.0 L 743.9829787234042 214.0" />
        <text x="743.9829787234042" font-family="-apple-system, system-ui, BlinkMacSystemFont, Roboto" y="216.0" dominant-baseline="hanging" text-anchor="middle" font-size="12" fill="#24292f">Feb 2023</text>
    
        
        <path stroke="#74838f"  stroke-width="2.0"  d="M 799.0297872340426 206.0 L 799.0297872340426 214.0" />
        <text x="799.0297872340426" font-family="-apple-system, system-ui, BlinkMacSystemFont, Roboto" y="216.0" dominant-baseline="hanging" text-anchor="middle" font-size="12" fill="#24292f">Mar 2023</text>
    
        
        <path stroke="#74838f"  stroke-width="2.0"  d="M 859.9744680851064 206.0 L 859.9744680851064 214.0" />
        <text x="859.9744680851064" font-family="-apple-system, system-ui, BlinkMacSystemFont, Roboto" y="216.0" dominant-baseline="hanging" text-anchor="middle" font-size="12" fill="#24292f">Apr 2023</text>
    
        
        <path stroke="#74838f"  stroke-width="2.0"  d="M 918.9531914893618 206.0 L 918.9531914893618 214.0" />
        <text x="918.9531914893618" font-family="-apple-system, system-ui, BlinkMacSystemFont, Roboto" y="216.0" dominant-baseline="hanging" text-anchor="middle" font-size="12" fill="#24292f">May 2023</text>
    
    <path stroke="#74838f"   stroke-linejoin="round" stroke-width="2.0" d="M 50.0 216.0 L 50.0 206.0 L 974.0 206.0 L 974.0 216.0"  fill="none" />
    <text x="512.0" y="25.0" font-family="-apple-system, system-ui, BlinkMacSystemFont, Roboto" dominant-baseline="middle" text-anchor="middle" font-size="18" fill="#24292f">Total daily screen name changes</text>
</svg>
