<?xml version="1.0" standalone="no"?>
<svg width="1024.0" height="256.0"  viewBox="0 0 1024.0 256.0" preserveAspectRatio="xMidYMid meet" xmlns="http://www.w3.org/2000/svg">
    <path stroke="#3498db" stroke-linejoin="round" d="M 50.0 203.3394909090909 L 50 203.3394909090909L 51.91701244813278 202.32974545454545L 53.83402489626556 196.86690909090908L 55.75103734439834 195.94792727272727L 57.66804979253112 202.14254545454546L 59.5850622406639 197.35476363636363L 61.50207468879668 191.76145454545454L 63.41908713692946 179.96218181818182L 65.33609958506224 204.09396363636364L 67.25311203319502 194.17236363636363L 69.1701244813278 192.61803636363635L 71.08713692946058 195.1253818181818L 73.00414937759336 193.92843636363637L 74.92116182572614 182.2482909090909L 76.83817427385893 200.86618181818181L 78.7551867219917 201.45614545454546L 80.67219917012449 178.89003636363637L 82.58921161825725 197.33774545454546L 84.50622406639005 198.50065454545455L 86.42323651452281 200.41803636363636L 88.34024896265561 201.18385454545455L 90.25726141078837 202.26734545454545L 92.17427385892117 195.09134545454546L 94.09128630705393 198.08087272727272L 96.00829875518673 183.38850909090908L 97.9253112033195 197.47389090909093L 99.84232365145229 202.01774545454546L 101.75933609958506 194.66021818181818L 103.67634854771785 200.75272727272727L 105.59336099585062 200.00392727272728L 107.51037344398341 201.97236363636364L 109.42738589211618 204.2754909090909L 111.34439834024897 201.74545454545455L 113.26141078838174 201.01367272727273L 115.17842323651452 174.7829818181818L 117.09543568464731 195.76072727272728L 119.01244813278008 204.0032L 120.92946058091287 203.7309090909091L 122.84647302904564 197.87665454545453L 124.76348547717842 202.60770909090908L 126.6804979253112 202.6928L 128.59751037344398 197.55898181818182L 130.51452282157675 186.5141818181818L 132.43153526970954 199.26647272727274L 134.34854771784234 199.5728L 136.2655601659751 193.4802909090909L 138.18257261410787 199.10763636363635L 140.09958506224066 201.54690909090908L 142.01659751037346 201.5696L 143.93360995850622 195.06865454545454L 145.850622406639 201.70007272727273L 147.76763485477179 197.2866909090909L 149.68464730290458 172.35505454545455L 151.60165975103735 203.20901818181818L 153.5186721991701 199.6749090909091L 155.4356846473029 193.12858181818183L 157.3526970954357 196.8896L 159.26970954356847 199.78836363636364L 161.18672199170123 198.82967272727274L 163.103734439834 204.1336727272727L 165.02074688796682 202.57934545454546L 166.9377593360996 198.9261090909091L 168.85477178423236 206L 170.77178423236515 204.128L 172.68879668049794 192.1245090909091L 174.6058091286307 206L 176.52282157676348 206L 178.43983402489627 206L 180.35684647302904 206L 182.2738589211618 197.37178181818183L 184.19087136929463 199.57847272727273L 186.1078838174274 188.9024L 188.02489626556016 195.02894545454546L 189.94190871369292 191.20552727272727L 191.85892116182575 166.8128L 193.7759336099585 203.8386909090909L 195.69294605809128 198.09221818181817L 197.60995850622405 201.64334545454545L 199.52697095435684 202.2957090909091L 201.44398340248964 203.22036363636363L 203.3609958506224 200.66763636363635L 205.2780082987552 191.51185454545455L 207.19502074688796 189.18603636363636L 209.11203319502076 203.86705454545455L 211.02904564315352 197.56465454545454L 212.94605809128632 187.32538181818182L 214.86307053941908 201.2349090909091L 216.78008298755188 200.44639999999998L 218.69709543568464 201.4618181818182L 220.61410788381744 201.09876363636363L 222.5311203319502 201.17818181818183L 224.44813278008297 193.02647272727273L 226.36514522821577 198.8069818181818L 228.28215767634856 203.39054545454545L 230.19917012448133 200.30458181818182L 232.1161825726141 198.35883636363636L 234.0331950207469 193.3101090909091L 235.95020746887968 200.56552727272728L 237.86721991701245 203.03883636363636L 239.78423236514521 197.22996363636364L 241.701244813278 201.95534545454547L 243.6182572614108 196.016L 245.53526970954357 202.30705454545455L 247.45228215767634 199.91316363636363L 249.36929460580913 194.62050909090908L 251.28630705394193 201.29163636363637L 253.2033195020747 202.98778181818182L 255.12033195020746 203.5437090909091L 257.0373443983402 200.60523636363638L 258.95435684647305 195.5621818181818L 260.8713692946058 203.24305454545456L 262.7883817427386 200.15709090909093L 264.7053941908714 198.46661818181818L 266.6224066390041 201.70007272727273L 268.53941908713693 200.70734545454545L 270.45643153526976 200.4293818181818L 272.37344398340247 201.76814545454545L 274.2904564315353 204.6442181818182L 276.207468879668 206L 278.1244813278008 196.35636363636365L 280.04149377593365 199.21541818181817L 281.95850622406635 156.87418181818182L 283.8755186721992 165.1506909090909L 285.79253112033194 204.1733818181818L 287.7095435684647 202.17658181818183L 289.62655601659753 199.31185454545454L 291.5435684647303 198.7842909090909L 293.46058091286307 202.6757818181818L 295.3775933609959 202.8573090909091L 297.2946058091286 196.1861818181818L 299.2116182572614 199.64654545454545L 301.12863070539413 198.2056727272727L 303.04564315352695 201.2178909090909L 304.9626556016598 201.79083636363637L 306.87966804979254 201.90429090909092L 308.7966804979253 200.1968L 310.7136929460581 195.17076363636363L 312.63070539419084 206L 314.5477178423236 206L 316.46473029045643 206L 318.38174273858925 191.4834909090909L 320.298755186722 197.79723636363636L 322.2157676348548 198.85236363636363L 324.13278008298755 199.76L 326.0497925311203 200.03796363636363L 327.9668049792531 200.76407272727272L 329.88381742738585 201.80785454545455L 331.8008298755187 191.63098181818182L 333.7178423236515 194.41061818181817L 335.63485477178426 199.88479999999998L 337.551867219917 152.63098181818182L 339.4688796680498 197.04843636363637L 341.38589211618256 194.4730181818182L 343.3029045643153 155.90414545454547L 345.2199170124481 91.60945454545454L 347.1369294605809 104.5376L 349.0539419087137 151.17876363636364L 350.9709543568465 185.1981090909091L 352.88796680497927 142.76610909090908L 354.80497925311204 125.0672L 356.7219917012448 123.74545454545455L 358.63900414937757 157.99738181818182L 360.5560165975104 53.56814545454546L 362.47302904564316 50.78850909090909L 364.3900414937759 100.02210909090908L 366.3070539419087 156.2445090909091L 368.2240663900415 180.31956363636363L 370.1410788381743 192.43650909090908L 372.05809128630705 193.63912727272728L 373.9751037344398 193.3328L 375.89211618257264 192.11316363636365L 377.8091286307054 197.93338181818183L 379.72614107883817 191.5629090909091L 381.64315352697093 198.7672727272727L 383.56016597510376 199.3005090909091L 385.4771784232365 201.64901818181818L 387.3941908713693 200.58821818181818L 389.3112033195021 202.43752727272727L 391.2282157676349 200.73003636363637L 393.14522821576764 189.7703272727273L 395.0622406639004 203.17498181818183L 396.9792531120332 200.48610909090908L 398.89626556016594 185.1810909090909L 400.81327800829877 187.88698181818182L 402.73029045643153 191.01832727272728L 404.64730290456436 192.31738181818181L 406.5643153526971 177.09745454545455L 408.4813278008299 167.91330909090908L 410.39834024896265 179.30981818181817L 412.3153526970954 186.49716363636364L 414.2323651452282 150.34487272727273L 416.14937759336095 184.27345454545454L 418.0663900414938 199.5104L 419.9834024896266 161.24785454545454L 421.90041493775936 155.49003636363636L 423.81742738589213 176.96130909090908L 425.7344398340249 190.30923636363636L 427.65145228215766 193.50865454545453L 429.56846473029043 201.72843636363638L 431.4854771784232 185.22647272727272L 433.402489626556 192.03374545454545L 435.3195020746888 192.66909090909093L 437.2365145228216 180.18341818181818L 439.1535269709544 194.5013818181818L 441.07053941908714 194.6829090909091L 442.9875518672199 201.85323636363637L 444.9045643153527 196.2032L 446.82157676348544 204.49105454545455L 448.73858921161826 191.55723636363638L 450.655601659751 180.36494545454545L 452.57261410788385 193.02647272727273L 454.4896265560166 186.20785454545455L 456.4066390041494 191.72741818181817L 458.32365145228215 191.4834909090909L 460.2406639004149 196.63432727272726L 462.15767634854774 200.7810909090909L 464.0746887966805 176.26923636363637L 465.99170124481327 165.78036363636363L 467.90871369294604 181.82850909090908L 469.82572614107886 160.6976L 471.7427385892116 163.93105454545454L 473.6597510373444 182.10647272727272L 475.57676348547716 130.808L 477.49377593361 190.49643636363635L 479.41078838174275 202.0914909090909L 481.3278008298755 184.09192727272728L 483.2448132780083 197.50225454545455L 485.16182572614105 187.54094545454547L 487.07883817427387 192.95272727272726L 488.99585062240664 201.88727272727272L 490.91286307053946 184.33585454545454L 492.8298755186722 183.04814545454545L 494.746887966805 182.36741818181818L 496.66390041493776 182.54327272727272L 498.5809128630705 186.38938181818182L 500.4979253112033 174.3858909090909L 502.41493775933606 183.1786181818182L 504.3319502074689 183.5133090909091L 506.2489626556017 184.60247272727273L 508.16597510373447 186.968L 510.08298755186723 170.00087272727274L 512 167.8338909090909L 513.9170124481327 203.32247272727273L 515.8340248962655 206L 517.7510373443984 128.43112727272728L 519.6680497925311 183.2637090909091L 521.5850622406639 156.8685090909091L 523.5020746887967 183.15592727272727L 525.4190871369294 183.2013090909091L 527.3360995850624 182.25963636363636L 529.2531120331951 170.18807272727273L 531.1701244813278 186.86589090909092L 533.0871369294606 183.77425454545454L 535.0041493775934 186.29861818181817L 536.9211618257261 184.17134545454545L 538.838174273859 184.9655272727273L 540.7551867219918 178.1696L 542.6721991701245 180.70530909090908L 544.5892116182572 170.80072727272727L 546.50622406639 177.99374545454546L 548.4232365145228 175.99127272727273L 550.3402489626556 173.75621818181818L 552.2572614107883 175.45803636363638L 554.1742738589212 196.91796363636365L 556.0912863070539 150.30516363636363L 558.0082987551868 167.34036363636363L 559.9253112033196 174.52203636363637L 561.8423236514523 132.05599999999998L 563.7593360995851 144.8309818181818L 565.6763485477179 173.60872727272726L 567.5933609958506 151.91054545454546L 569.5103734439834 194.03621818181819L 571.4273858921161 160.59549090909093L 573.344398340249 206L 575.2614107883817 153.43650909090908L 577.1784232365145 181.01163636363637L 579.0954356846472 181.6413090909091L 581.01244813278 182.49221818181817L 582.9294605809129 183.08785454545455L 584.8464730290457 206L 586.7634854771785 151.86516363636363L 588.6804979253112 172.45716363636365L 590.597510373444 169.20669090909092L 592.5145228215767 178.22065454545455L 594.4315352697096 175.54312727272728L 596.3485477178423 177.61367272727273L 598.2655601659751 181.0173090909091L 600.1825726141079 176.80814545454547L 602.0995850622406 167.8962909090909L 604.0165975103735 167.1248L 605.9336099585062 176.62094545454545L 607.850622406639 158.63272727272727L 609.7676348547717 151.3602909090909L 611.6846473029045 173.35345454545455L 613.6016597510373 206L 615.5186721991702 206L 617.435684647303 206L 619.3526970954357 206L 621.2697095435685 206L 623.1867219917012 206L 625.103734439834 206L 627.0207468879668 206L 628.9377593360996 206L 630.8547717842323 206L 632.7717842323651 206L 634.688796680498 206L 636.6058091286307 206L 638.5228215767635 206L 640.4398340248962 206L 642.3568464730291 206L 644.2738589211618 206L 646.1908713692947 206L 648.1078838174274 206L 650.0248962655602 206L 651.941908713693 206L 653.8589211618257 206L 655.7759336099585 206L 657.6929460580913 206L 659.6099585062241 206L 661.5269709543568 206L 663.4439834024896 206L 665.3609958506224 206L 667.2780082987551 206L 669.195020746888 206L 671.1120331950208 206L 673.0290456431536 206L 674.9460580912863 206L 676.8630705394191 206L 678.7800829875519 206L 680.6970954356847 206L 682.6141078838174 206L 684.5311203319502 206L 686.448132780083 206L 688.3651452282157 206L 690.2821576763486 206L 692.1991701244813 206L 694.1161825726141 206L 696.0331950207468 206L 697.9502074688796 206L 699.8672199170124 206L 701.7842323651453 206L 703.7012448132781 206L 705.6182572614108 206L 707.5352697095436 206L 709.4522821576763 206L 711.3692946058092 206L 713.2863070539419 206L 715.2033195020747 206L 717.1203319502075 206L 719.0373443983402 206L 720.954356846473 206L 722.8713692946058 206L 724.7883817427386 206L 726.7053941908713 206L 728.6224066390042 206L 730.5394190871369 206L 732.4564315352698 206L 734.3734439834025 206L 736.2904564315353 206L 738.2074688796681 206L 740.1244813278008 206L 742.0414937759336 206L 743.9585062240664 206L 745.8755186721992 206L 747.7925311203319 206L 749.7095435684647 206L 751.6265560165975 206L 753.5435684647302 206L 755.4605809128631 206L 757.3775933609958 206L 759.2946058091287 206L 761.2116182572614 206L 763.1286307053942 206L 765.045643153527 206L 766.9626556016598 206L 768.8796680497925 206L 770.7966804979253 206L 772.7136929460581 206L 774.6307053941908 206L 776.5477178423237 206L 778.4647302904564 206L 780.3817427385892 206L 782.2987551867219 206L 784.2157676348547 206L 786.1327800829876 206L 788.0497925311204 206L 789.9668049792532 206L 791.8838174273859 206L 793.8008298755187 206L 795.7178423236514 206L 797.6348547717843 206L 799.551867219917 206L 801.4688796680498 206L 803.3858921161826 206L 805.3029045643153 206L 807.2199170124481 206L 809.1369294605809 206L 811.0539419087137 206L 812.9709543568464 206L 814.8879668049792 206L 816.804979253112 206L 818.7219917012449 206L 820.6390041493776 206L 822.5560165975104 206L 824.4730290456432 206L 826.3900414937759 206L 828.3070539419087 206L 830.2240663900415 206L 832.1410788381743 206L 834.058091286307 206L 835.9751037344398 206L 837.8921161825726 206L 839.8091286307053 206L 841.7261410788382 206L 843.6431535269709 206L 845.5601659751038 206L 847.4771784232365 206L 849.3941908713693 206L 851.311203319502 206L 853.2282157676349 206L 855.1452282157677 206L 857.0622406639004 206L 858.9792531120332 206L 860.896265560166 206L 862.8132780082988 206L 864.7302904564315 206L 866.6473029045643 206L 868.564315352697 206L 870.4813278008298 206L 872.3983402489627 206L 874.3153526970955 206L 876.2323651452283 206L 878.149377593361 206L 880.0663900414938 206L 881.9834024896265 206L 883.9004149377594 206L 885.8174273858921 206L 887.7344398340249 206L 889.6514522821577 206L 891.5684647302904 206L 893.4854771784233 206L 895.402489626556 206L 897.3195020746888 206L 899.2365145228215 206L 901.1535269709543 206L 903.0705394190871 206L 904.98755186722 206L 906.9045643153528 206L 908.8215767634855 206L 910.7385892116183 206L 912.655601659751 206L 914.5726141078839 206L 916.4896265560166 206L 918.4066390041494 206L 920.3236514522821 206L 922.2406639004149 206L 924.1576763485477 206L 926.0746887966804 206L 927.9917012448133 206L 929.908713692946 206L 931.8257261410789 206L 933.7427385892116 206L 935.6597510373444 206L 937.5767634854772 206L 939.49377593361 206L 941.4107883817428 206L 943.3278008298755 206L 945.2448132780083 206L 947.161825726141 206L 949.0788381742739 206L 950.9958506224066 206L 952.9128630705394 206L 954.8298755186721 206L 956.7468879668049 206L 958.6639004149378 206L 960.5809128630706 206L 962.4979253112034 206L 964.4149377593361 206L 966.3319502074689 206L 968.2489626556016 206L 970.1659751037345 206L 972.0829875518672 206L 974 206" stroke-width="2.0" fill="none" />
    
        
        
        <text x="45.0" font-family="-apple-system, system-ui, BlinkMacSystemFont, Roboto" y="50.0" dominant-baseline="middle" text-anchor="end" font-size="12" fill="#24292f">27500.0</text>
        
            
            <path stroke="#74838f" stroke-dasharray="10 6" stroke-width="0.5"  d="M 50.0 50.0 L 974.0 50.0" />
        
    
        
        
        <text x="45.0" font-family="-apple-system, system-ui, BlinkMacSystemFont, Roboto" y="81.2" dominant-baseline="middle" text-anchor="end" font-size="12" fill="#24292f">22000.0</text>
        
            
            
            <path stroke="#74838f" stroke-dasharray="10 6" stroke-width="0.5"  d="M 50.0 81.2 L 974.0 81.2" />
        
    
        
        
        <text x="45.0" font-family="-apple-system, system-ui, BlinkMacSystemFont, Roboto" y="112.4" dominant-baseline="middle" text-anchor="end" font-size="12" fill="#24292f">16500.0</text>
        
            
            
            <path stroke="#74838f" stroke-dasharray="10 6" stroke-width="0.5"  d="M 50.0 112.4 L 974.0 112.4" />
        
    
        
        
        <text x="45.0" font-family="-apple-system, system-ui, BlinkMacSystemFont, Roboto" y="143.6" dominant-baseline="middle" text-anchor="end" font-size="12" fill="#24292f">11000.0</text>
        
            
            
            <path stroke="#74838f" stroke-dasharray="10 6" stroke-width="0.5"  d="M 50.0 143.6 L 974.0 143.6" />
        
    
        
        
        <text x="45.0" font-family="-apple-system, system-ui, BlinkMacSystemFont, Roboto" y="174.8" dominant-baseline="middle" text-anchor="end" font-size="12" fill="#24292f">5500.0</text>
        
            
            
            <path stroke="#74838f" stroke-dasharray="10 6" stroke-width="0.5"  d="M 50.0 174.8 L 974.0 174.8" />
        
    
        
        
        <text x="45.0" font-family="-apple-system, system-ui, BlinkMacSystemFont, Roboto" y="206.0" dominant-baseline="middle" text-anchor="end" font-size="12" fill="#24292f">0.0</text>
        
    
    
        
        <path stroke="#74838f"  stroke-width="2.0"  d="M 80.67219917012449 206.0 L 80.67219917012449 214.0" />
        <text x="80.67219917012449" font-family="-apple-system, system-ui, BlinkMacSystemFont, Roboto" y="216.0" dominant-baseline="hanging" text-anchor="middle" font-size="12" fill="#24292f">Mar 2022</text>
    
        
        <path stroke="#74838f"  stroke-width="2.0"  d="M 140.09958506224066 206.0 L 140.09958506224066 214.0" />
        <text x="140.09958506224066" font-family="-apple-system, system-ui, BlinkMacSystemFont, Roboto" y="216.0" dominant-baseline="hanging" text-anchor="middle" font-size="12" fill="#24292f">Apr 2022</text>
    
        
        <path stroke="#74838f"  stroke-width="2.0"  d="M 197.60995850622405 206.0 L 197.60995850622405 214.0" />
        <text x="197.60995850622405" font-family="-apple-system, system-ui, BlinkMacSystemFont, Roboto" y="216.0" dominant-baseline="hanging" text-anchor="middle" font-size="12" fill="#24292f">May 2022</text>
    
        
        <path stroke="#74838f"  stroke-width="2.0"  d="M 257.0373443983402 206.0 L 257.0373443983402 214.0" />
        <text x="257.0373443983402" font-family="-apple-system, system-ui, BlinkMacSystemFont, Roboto" y="216.0" dominant-baseline="hanging" text-anchor="middle" font-size="12" fill="#24292f">Jun 2022</text>
    
        
        <path stroke="#74838f"  stroke-width="2.0"  d="M 314.5477178423236 206.0 L 314.5477178423236 214.0" />
        <text x="314.5477178423236" font-family="-apple-system, system-ui, BlinkMacSystemFont, Roboto" y="216.0" dominant-baseline="hanging" text-anchor="middle" font-size="12" fill="#24292f">Jul 2022</text>
    
        
        <path stroke="#74838f"  stroke-width="2.0"  d="M 373.9751037344398 206.0 L 373.9751037344398 214.0" />
        <text x="373.9751037344398" font-family="-apple-system, system-ui, BlinkMacSystemFont, Roboto" y="216.0" dominant-baseline="hanging" text-anchor="middle" font-size="12" fill="#24292f">Aug 2022</text>
    
        
        <path stroke="#74838f"  stroke-width="2.0"  d="M 433.402489626556 206.0 L 433.402489626556 214.0" />
        <text x="433.402489626556" font-family="-apple-system, system-ui, BlinkMacSystemFont, Roboto" y="216.0" dominant-baseline="hanging" text-anchor="middle" font-size="12" fill="#24292f">Sep 2022</text>
    
        
        <path stroke="#74838f"  stroke-width="2.0"  d="M 490.91286307053946 206.0 L 490.91286307053946 214.0" />
        <text x="490.91286307053946" font-family="-apple-system, system-ui, BlinkMacSystemFont, Roboto" y="216.0" dominant-baseline="hanging" text-anchor="middle" font-size="12" fill="#24292f">Oct 2022</text>
    
        
        <path stroke="#74838f"  stroke-width="2.0"  d="M 550.3402489626556 206.0 L 550.3402489626556 214.0" />
        <text x="550.3402489626556" font-family="-apple-system, system-ui, BlinkMacSystemFont, Roboto" y="216.0" dominant-baseline="hanging" text-anchor="middle" font-size="12" fill="#24292f">Nov 2022</text>
    
        
        <path stroke="#74838f"  stroke-width="2.0"  d="M 607.850622406639 206.0 L 607.850622406639 214.0" />
        <text x="607.850622406639" font-family="-apple-system, system-ui, BlinkMacSystemFont, Roboto" y="216.0" dominant-baseline="hanging" text-anchor="middle" font-size="12" fill="#24292f">Dec 2022</text>
    
        
        <path stroke="#74838f"  stroke-width="2.0"  d="M 667.2780082987551 206.0 L 667.2780082987551 214.0" />
        <text x="667.2780082987551" font-family="-apple-system, system-ui, BlinkMacSystemFont, Roboto" y="216.0" dominant-baseline="hanging" text-anchor="middle" font-size="12" fill="#24292f">Jan 2023</text>
    
        
        <path stroke="#74838f"  stroke-width="2.0"  d="M 726.7053941908713 206.0 L 726.7053941908713 214.0" />
        <text x="726.7053941908713" font-family="-apple-system, system-ui, BlinkMacSystemFont, Roboto" y="216.0" dominant-baseline="hanging" text-anchor="middle" font-size="12" fill="#24292f">Feb 2023</text>
    
        
        <path stroke="#74838f"  stroke-width="2.0"  d="M 780.3817427385892 206.0 L 780.3817427385892 214.0" />
        <text x="780.3817427385892" font-family="-apple-system, system-ui, BlinkMacSystemFont, Roboto" y="216.0" dominant-baseline="hanging" text-anchor="middle" font-size="12" fill="#24292f">Mar 2023</text>
    
        
        <path stroke="#74838f"  stroke-width="2.0"  d="M 839.8091286307053 206.0 L 839.8091286307053 214.0" />
        <text x="839.8091286307053" font-family="-apple-system, system-ui, BlinkMacSystemFont, Roboto" y="216.0" dominant-baseline="hanging" text-anchor="middle" font-size="12" fill="#24292f">Apr 2023</text>
    
        
        <path stroke="#74838f"  stroke-width="2.0"  d="M 897.3195020746888 206.0 L 897.3195020746888 214.0" />
        <text x="897.3195020746888" font-family="-apple-system, system-ui, BlinkMacSystemFont, Roboto" y="216.0" dominant-baseline="hanging" text-anchor="middle" font-size="12" fill="#24292f">May 2023</text>
    
        
        <path stroke="#74838f"  stroke-width="2.0"  d="M 956.7468879668049 206.0 L 956.7468879668049 214.0" />
        <text x="956.7468879668049" font-family="-apple-system, system-ui, BlinkMacSystemFont, Roboto" y="216.0" dominant-baseline="hanging" text-anchor="middle" font-size="12" fill="#24292f">Jun 2023</text>
    
    <path stroke="#74838f"   stroke-linejoin="round" stroke-width="2.0" d="M 50.0 216.0 L 50.0 206.0 L 974.0 206.0 L 974.0 216.0"  fill="none" />
    <text x="512.0" y="25.0" font-family="-apple-system, system-ui, BlinkMacSystemFont, Roboto" dominant-baseline="middle" text-anchor="middle" font-size="18" fill="#24292f">Total daily screen name changes</text>
</svg>
