<?xml version="1.0" standalone="no"?>
<svg width="1024.0" height="256.0"  viewBox="0 0 1024.0 256.0" preserveAspectRatio="xMidYMid meet" xmlns="http://www.w3.org/2000/svg">
    <path stroke="#3498db" stroke-linejoin="round" d="M 50.0 203.3394909090909 L 50 203.3394909090909L 52.25365853658536 202.32974545454545L 54.50731707317073 196.86690909090908L 56.7609756097561 195.94792727272727L 59.014634146341464 202.14254545454546L 61.26829268292683 197.35476363636363L 63.5219512195122 191.76145454545454L 65.77560975609757 179.96218181818182L 68.02926829268293 204.09396363636364L 70.28292682926829 194.17236363636363L 72.53658536585365 192.61803636363635L 74.79024390243902 195.1253818181818L 77.0439024390244 193.92843636363637L 79.29756097560976 182.2482909090909L 81.55121951219513 200.86618181818181L 83.8048780487805 201.45614545454546L 86.05853658536586 178.89003636363637L 88.31219512195122 197.33774545454546L 90.56585365853658 198.50065454545455L 92.81951219512194 200.41803636363636L 95.07317073170732 201.18385454545455L 97.32682926829267 202.26734545454545L 99.58048780487805 195.09134545454546L 101.83414634146342 198.08087272727272L 104.08780487804879 183.38850909090908L 106.34146341463415 197.47389090909093L 108.59512195121951 202.01774545454546L 110.84878048780487 194.66021818181818L 113.10243902439025 200.75272727272727L 115.3560975609756 200.00392727272728L 117.60975609756098 201.97236363636364L 119.86341463414634 204.2754909090909L 122.1170731707317 201.74545454545455L 124.37073170731708 201.01367272727273L 126.62439024390244 174.7829818181818L 128.8780487804878 195.76072727272728L 131.13170731707316 204.0032L 133.38536585365853 203.7309090909091L 135.6390243902439 197.87665454545453L 137.89268292682925 202.60770909090908L 140.14634146341464 202.6928L 142.4 197.55898181818182L 144.65365853658534 186.5141818181818L 146.90731707317073 199.26647272727274L 149.1609756097561 199.5728L 151.41463414634148 193.4802909090909L 153.66829268292685 199.10763636363635L 155.9219512195122 201.54690909090908L 158.17560975609757 201.5696L 160.42926829268293 195.06865454545454L 162.6829268292683 201.70007272727273L 164.93658536585366 197.2866909090909L 167.19024390243902 172.35505454545455L 169.44390243902438 203.20901818181818L 171.69756097560975 199.6749090909091L 173.9512195121951 193.12858181818183L 176.2048780487805 196.8896L 178.45853658536586 199.78836363636364L 180.7121951219512 198.82967272727274L 182.9658536585366 204.1336727272727L 185.21951219512195 202.57934545454546L 187.4731707317073 198.9261090909091L 189.72682926829268 206L 191.98048780487804 204.128L 194.2341463414634 192.1245090909091L 196.4878048780488 206L 198.74146341463415 206L 200.99512195121952 206L 203.24878048780488 206L 205.50243902439024 197.37178181818183L 207.75609756097563 199.57847272727273L 210.00975609756097 188.9024L 212.26341463414633 195.02894545454546L 214.5170731707317 191.20552727272727L 216.77073170731705 166.8128L 219.02439024390245 203.8386909090909L 221.2780487804878 198.09221818181817L 223.53170731707317 201.64334545454545L 225.78536585365853 202.2957090909091L 228.0390243902439 203.22036363636363L 230.2926829268293 200.66763636363635L 232.54634146341465 191.51185454545455L 234.8 189.18603636363636L 237.05365853658537 203.86705454545455L 239.3073170731707 197.56465454545454L 241.5609756097561 187.32538181818182L 243.81463414634146 201.2349090909091L 246.06829268292682 200.44639999999998L 248.3219512195122 201.4618181818182L 250.57560975609755 201.09876363636363L 252.82926829268294 201.17818181818183L 255.0829268292683 193.02647272727273L 257.3365853658537 198.8069818181818L 259.59024390243906 203.39054545454545L 261.8439024390244 200.30458181818182L 264.0975609756098 198.35883636363636L 266.35121951219514 193.3101090909091L 268.6048780487805 200.56552727272728L 270.85853658536587 203.03883636363636L 273.11219512195123 197.22996363636364L 275.3658536585366 201.95534545454547L 277.61951219512196 196.016L 279.8731707317073 202.30705454545455L 282.1268292682927 199.91316363636363L 284.38048780487804 194.62050909090908L 286.6341463414634 201.29163636363637L 288.88780487804877 202.98778181818182L 291.14146341463413 203.5437090909091L 293.3951219512195 200.60523636363638L 295.64878048780486 195.5621818181818L 297.9024390243902 203.24305454545456L 300.15609756097564 200.15709090909093L 302.409756097561 198.46661818181818L 304.66341463414636 201.70007272727273L 306.9170731707317 200.70734545454545L 309.1707317073171 200.4293818181818L 311.4243902439024 201.76814545454545L 313.67804878048776 204.6442181818182L 315.9317073170732 206L 318.18536585365854 196.35636363636365L 320.4390243902439 199.21541818181817L 322.69268292682926 156.87418181818182L 324.9463414634146 165.1506909090909L 327.2 204.1733818181818L 329.45365853658535 202.17658181818183L 331.7073170731707 199.31185454545454L 333.9609756097561 198.7842909090909L 336.21463414634144 202.6757818181818L 338.4682926829268 202.8573090909091L 340.7219512195122 196.1861818181818L 342.9756097560976 199.64654545454545L 345.22926829268295 198.2056727272727L 347.4829268292683 201.2178909090909L 349.73658536585367 201.79083636363637L 351.99024390243903 201.90429090909092L 354.2439024390244 200.1968L 356.49756097560976 195.17076363636363L 358.7512195121951 206L 361.0048780487805 206L 363.2585365853659 206L 365.51219512195127 191.4834909090909L 367.76585365853657 197.79723636363636L 370.01951219512193 198.85236363636363L 372.2731707317073 199.76L 374.52682926829266 200.03796363636363L 376.780487804878 200.76407272727272L 379.0341463414634 201.80785454545455L 381.28780487804875 191.63098181818182L 383.5414634146341 194.41061818181817L 385.7951219512195 199.88479999999998L 388.0487804878049 152.63098181818182L 390.30243902439025 197.04843636363637L 392.5560975609756 194.4730181818182L 394.809756097561 155.90414545454547L 397.06341463414634 91.60945454545454L 399.3170731707317 104.5376L 401.57073170731707 151.17876363636364L 403.8243902439024 185.1981090909091L 406.0780487804878 142.76610909090908L 408.33170731707315 125.0672L 410.5853658536586 123.74545454545455L 412.83902439024394 157.99738181818182L 415.0926829268293 53.56814545454546L 417.34634146341466 50.78850909090909L 419.6 100.02210909090908L 421.8536585365854 156.2445090909091L 424.10731707317075 180.31956363636363L 426.36097560975605 192.43650909090908L 428.6146341463414 193.63912727272728L 430.86829268292684 193.3328L 433.1219512195122 192.11316363636365L 435.37560975609756 197.93338181818183L 437.6292682926829 191.5629090909091L 439.8829268292683 198.7672727272727L 442.13658536585365 199.3005090909091L 444.390243902439 201.64901818181818L 446.6439024390244 200.58821818181818L 448.89756097560974 202.43752727272727L 451.1512195121951 200.73003636363637L 453.40487804878046 189.7703272727273L 455.6585365853659 203.17498181818183L 457.91219512195124 200.48610909090908L 460.1658536585366 185.1810909090909L 462.41951219512197 187.88698181818182L 464.67317073170733 191.01832727272728L 466.9268292682927 192.31738181818181L 469.18048780487806 177.09745454545455L 471.4341463414634 167.91330909090908L 473.6878048780488 179.30981818181817L 475.94146341463414 186.49716363636364L 478.1951219512195 150.34487272727273L 480.4487804878049 184.27345454545454L 482.7024390243903 199.5104L 484.9560975609756 161.24785454545454L 487.20975609756096 155.49003636363636L 489.4634146341463 176.96130909090908L 491.7170731707317 190.30923636363636L 493.97073170731704 193.50865454545453L 496.2243902439024 201.72843636363638L 498.47804878048777 185.22647272727272L 500.7317073170732 192.03374545454545L 502.98536585365855 192.66909090909093L 505.2390243902439 180.18341818181818L 507.4926829268293 194.5013818181818L 509.74634146341464 194.6829090909091L 512 201.85323636363637L 514.2536585365854 196.2032L 516.5073170731707 204.49105454545455L 518.7609756097561 191.55723636363638L 521.0146341463415 180.36494545454545L 523.2682926829268 193.02647272727273L 525.5219512195122 186.20785454545455L 527.7756097560975 191.72741818181817L 530.0292682926829 191.4834909090909L 532.2829268292683 196.63432727272726L 534.5365853658536 200.7810909090909L 536.790243902439 176.26923636363637L 539.0439024390244 165.78036363636363L 541.2975609756097 181.82850909090908L 543.5512195121951 160.6976L 545.8048780487804 163.93105454545454L 548.0585365853659 182.10647272727272L 550.3121951219513 130.808L 552.5658536585366 190.49643636363635L 554.819512195122 202.0914909090909L 557.0731707317074 184.09192727272728L 559.3268292682927 197.50225454545455L 561.5804878048781 187.54094545454547L 563.8341463414635 192.95272727272726L 566.0878048780488 201.88727272727272L 568.3414634146342 184.33585454545454L 570.5951219512194 183.04814545454545L 572.8487804878048 182.36741818181818L 575.1024390243902 182.54327272727272L 577.3560975609755 186.38938181818182L 579.609756097561 174.3858909090909L 581.8634146341464 183.1786181818182L 584.1170731707317 183.5133090909091L 586.3707317073171 184.60247272727273L 588.6243902439024 186.968L 590.8780487804878 170.00087272727274L 593.1317073170732 167.8338909090909L 595.3853658536585 203.32247272727273L 597.6390243902439 206L 599.8926829268293 128.43112727272728L 602.1463414634146 183.2637090909091L 604.4 156.8685090909091L 606.6536585365853 183.15592727272727L 608.9073170731707 183.2013090909091L 611.1609756097561 182.25963636363636L 613.4146341463414 170.18807272727273L 615.6682926829268 186.86589090909092L 617.9219512195122 183.77425454545454L 620.1756097560975 186.29861818181817L 622.4292682926829 184.17134545454545L 624.6829268292682 184.9655272727273L 626.9365853658536 178.1696L 629.1902439024391 180.70530909090908L 631.4439024390244 170.80072727272727L 633.6975609756098 177.99374545454546L 635.9512195121952 175.99127272727273L 638.2048780487805 173.75621818181818L 640.4585365853659 175.45803636363638L 642.7121951219513 196.91796363636365L 644.9658536585366 150.30516363636363L 647.219512195122 167.34036363636363L 649.4731707317073 174.52203636363637L 651.7268292682927 132.05599999999998L 653.9804878048781 144.8309818181818L 656.2341463414634 173.60872727272726L 658.4878048780488 151.91054545454546L 660.7414634146342 194.03621818181819L 662.9951219512195 160.59549090909093L 665.2487804878049 206L 667.5024390243902 153.43650909090908L 669.7560975609756 181.01163636363637L 672.009756097561 181.6413090909091L 674.2634146341463 182.49221818181817L 676.5170731707318 183.08785454545455L 678.7707317073172 206L 681.0243902439025 151.86516363636363L 683.2780487804879 172.45716363636365L 685.5317073170731 169.20669090909092L 687.7853658536585 178.22065454545455L 690.0390243902439 175.54312727272728L 692.2926829268292 177.61367272727273L 694.5463414634146 181.0173090909091L 696.8 176.80814545454547L 699.0536585365853 167.8962909090909L 701.3073170731707 167.1248L 703.560975609756 176.62094545454545L 705.8146341463414 158.63272727272727L 708.0682926829268 151.3602909090909L 710.3219512195121 173.35345454545455L 712.5756097560975 206L 714.8292682926829 206L 717.0829268292682 206L 719.3365853658537 206L 721.590243902439 206L 723.8439024390244 206L 726.0975609756098 206L 728.3512195121951 206L 730.6048780487805 206L 732.8585365853659 206L 735.1121951219512 206L 737.3658536585366 206L 739.619512195122 206L 741.8731707317073 206L 744.1268292682927 206L 746.380487804878 206L 748.6341463414634 206L 750.8878048780488 206L 753.1414634146341 206L 755.3951219512195 206L 757.6487804878049 206L 759.9024390243902 206L 762.1560975609756 206L 764.409756097561 206L 766.6634146341463 206L 768.9170731707318 206L 771.1707317073171 206L 773.4243902439025 206L 775.6780487804879 206L 777.9317073170732 206L 780.1853658536586 206L 782.439024390244 206L 784.6926829268293 206L 786.9463414634147 206L 789.2 206L 791.4536585365854 206L 793.7073170731708 206L 795.9609756097561 206L 798.2146341463415 206L 800.4682926829269 206L 802.7219512195121 206L 804.9756097560975 206L 807.2292682926828 206L 809.4829268292682 206L 811.7365853658537 206L 813.990243902439 206L 816.2439024390244 206L 818.4975609756098 206L 820.7512195121951 206L 823.0048780487805 206L 825.2585365853658 206L 827.5121951219512 206L 829.7658536585366 206L 832.0195121951219 206L 834.2731707317073 206L 836.5268292682927 206L 838.780487804878 206L 841.0341463414634 206L 843.2878048780487 206L 845.5414634146341 206L 847.7951219512195 206L 850.0487804878048 206L 852.3024390243902 206L 854.5560975609756 206L 856.8097560975609 206L 859.0634146341464 206L 861.3170731707318 206L 863.5707317073171 206L 865.8243902439025 206L 868.0780487804878 206L 870.3317073170732 206L 872.5853658536586 206L 874.8390243902439 206L 877.0926829268293 206L 879.3463414634147 206L 881.6 206L 883.8536585365854 206L 886.1073170731707 206L 888.3609756097561 206L 890.6146341463415 206L 892.8682926829268 206L 895.1219512195122 206L 897.3756097560976 206L 899.6292682926829 206L 901.8829268292683 206L 904.1365853658536 206L 906.390243902439 206L 908.6439024390245 206L 910.8975609756098 206L 913.1512195121952 206L 915.4048780487806 206L 917.6585365853658 206L 919.9121951219512 206L 922.1658536585365 206L 924.4195121951219 206L 926.6731707317073 206L 928.9268292682926 206L 931.180487804878 206L 933.4341463414634 206L 935.6878048780487 206L 937.9414634146341 206L 940.1951219512194 206L 942.4487804878048 206L 944.7024390243902 206L 946.9560975609755 206L 949.2097560975609 206L 951.4634146341464 206L 953.7170731707317 206L 955.9707317073171 206L 958.2243902439025 206L 960.4780487804878 206L 962.7317073170732 206L 964.9853658536585 206L 967.2390243902439 206L 969.4926829268293 206L 971.7463414634146 206L 974 206" stroke-width="2.0" fill="none" />
    
        
        
        <text x="45.0" font-family="-apple-system, system-ui, BlinkMacSystemFont, Roboto" y="50.0" dominant-baseline="middle" text-anchor="end" font-size="12" fill="#24292f">27500.0</text>
        
            
            <path stroke="#74838f" stroke-dasharray="10 6" stroke-width="0.5"  d="M 50.0 50.0 L 974.0 50.0" />
        
    
        
        
        <text x="45.0" font-family="-apple-system, system-ui, BlinkMacSystemFont, Roboto" y="81.2" dominant-baseline="middle" text-anchor="end" font-size="12" fill="#24292f">22000.0</text>
        
            
            
            <path stroke="#74838f" stroke-dasharray="10 6" stroke-width="0.5"  d="M 50.0 81.2 L 974.0 81.2" />
        
    
        
        
        <text x="45.0" font-family="-apple-system, system-ui, BlinkMacSystemFont, Roboto" y="112.4" dominant-baseline="middle" text-anchor="end" font-size="12" fill="#24292f">16500.0</text>
        
            
            
            <path stroke="#74838f" stroke-dasharray="10 6" stroke-width="0.5"  d="M 50.0 112.4 L 974.0 112.4" />
        
    
        
        
        <text x="45.0" font-family="-apple-system, system-ui, BlinkMacSystemFont, Roboto" y="143.6" dominant-baseline="middle" text-anchor="end" font-size="12" fill="#24292f">11000.0</text>
        
            
            
            <path stroke="#74838f" stroke-dasharray="10 6" stroke-width="0.5"  d="M 50.0 143.6 L 974.0 143.6" />
        
    
        
        
        <text x="45.0" font-family="-apple-system, system-ui, BlinkMacSystemFont, Roboto" y="174.8" dominant-baseline="middle" text-anchor="end" font-size="12" fill="#24292f">5500.0</text>
        
            
            
            <path stroke="#74838f" stroke-dasharray="10 6" stroke-width="0.5"  d="M 50.0 174.8 L 974.0 174.8" />
        
    
        
        
        <text x="45.0" font-family="-apple-system, system-ui, BlinkMacSystemFont, Roboto" y="206.0" dominant-baseline="middle" text-anchor="end" font-size="12" fill="#24292f">0.0</text>
        
    
    
        
        <path stroke="#74838f"  stroke-width="2.0"  d="M 86.05853658536586 206.0 L 86.05853658536586 214.0" />
        <text x="86.05853658536586" font-family="-apple-system, system-ui, BlinkMacSystemFont, Roboto" y="216.0" dominant-baseline="hanging" text-anchor="middle" font-size="12" fill="#24292f">Mar 2022</text>
    
        
        <path stroke="#74838f"  stroke-width="2.0"  d="M 155.9219512195122 206.0 L 155.9219512195122 214.0" />
        <text x="155.9219512195122" font-family="-apple-system, system-ui, BlinkMacSystemFont, Roboto" y="216.0" dominant-baseline="hanging" text-anchor="middle" font-size="12" fill="#24292f">Apr 2022</text>
    
        
        <path stroke="#74838f"  stroke-width="2.0"  d="M 223.53170731707317 206.0 L 223.53170731707317 214.0" />
        <text x="223.53170731707317" font-family="-apple-system, system-ui, BlinkMacSystemFont, Roboto" y="216.0" dominant-baseline="hanging" text-anchor="middle" font-size="12" fill="#24292f">May 2022</text>
    
        
        <path stroke="#74838f"  stroke-width="2.0"  d="M 293.3951219512195 206.0 L 293.3951219512195 214.0" />
        <text x="293.3951219512195" font-family="-apple-system, system-ui, BlinkMacSystemFont, Roboto" y="216.0" dominant-baseline="hanging" text-anchor="middle" font-size="12" fill="#24292f">Jun 2022</text>
    
        
        <path stroke="#74838f"  stroke-width="2.0"  d="M 361.0048780487805 206.0 L 361.0048780487805 214.0" />
        <text x="361.0048780487805" font-family="-apple-system, system-ui, BlinkMacSystemFont, Roboto" y="216.0" dominant-baseline="hanging" text-anchor="middle" font-size="12" fill="#24292f">Jul 2022</text>
    
        
        <path stroke="#74838f"  stroke-width="2.0"  d="M 430.86829268292684 206.0 L 430.86829268292684 214.0" />
        <text x="430.86829268292684" font-family="-apple-system, system-ui, BlinkMacSystemFont, Roboto" y="216.0" dominant-baseline="hanging" text-anchor="middle" font-size="12" fill="#24292f">Aug 2022</text>
    
        
        <path stroke="#74838f"  stroke-width="2.0"  d="M 500.7317073170732 206.0 L 500.7317073170732 214.0" />
        <text x="500.7317073170732" font-family="-apple-system, system-ui, BlinkMacSystemFont, Roboto" y="216.0" dominant-baseline="hanging" text-anchor="middle" font-size="12" fill="#24292f">Sep 2022</text>
    
        
        <path stroke="#74838f"  stroke-width="2.0"  d="M 568.3414634146342 206.0 L 568.3414634146342 214.0" />
        <text x="568.3414634146342" font-family="-apple-system, system-ui, BlinkMacSystemFont, Roboto" y="216.0" dominant-baseline="hanging" text-anchor="middle" font-size="12" fill="#24292f">Oct 2022</text>
    
        
        <path stroke="#74838f"  stroke-width="2.0"  d="M 638.2048780487805 206.0 L 638.2048780487805 214.0" />
        <text x="638.2048780487805" font-family="-apple-system, system-ui, BlinkMacSystemFont, Roboto" y="216.0" dominant-baseline="hanging" text-anchor="middle" font-size="12" fill="#24292f">Nov 2022</text>
    
        
        <path stroke="#74838f"  stroke-width="2.0"  d="M 705.8146341463414 206.0 L 705.8146341463414 214.0" />
        <text x="705.8146341463414" font-family="-apple-system, system-ui, BlinkMacSystemFont, Roboto" y="216.0" dominant-baseline="hanging" text-anchor="middle" font-size="12" fill="#24292f">Dec 2022</text>
    
        
        <path stroke="#74838f"  stroke-width="2.0"  d="M 775.6780487804879 206.0 L 775.6780487804879 214.0" />
        <text x="775.6780487804879" font-family="-apple-system, system-ui, BlinkMacSystemFont, Roboto" y="216.0" dominant-baseline="hanging" text-anchor="middle" font-size="12" fill="#24292f">Jan 2023</text>
    
        
        <path stroke="#74838f"  stroke-width="2.0"  d="M 845.5414634146341 206.0 L 845.5414634146341 214.0" />
        <text x="845.5414634146341" font-family="-apple-system, system-ui, BlinkMacSystemFont, Roboto" y="216.0" dominant-baseline="hanging" text-anchor="middle" font-size="12" fill="#24292f">Feb 2023</text>
    
        
        <path stroke="#74838f"  stroke-width="2.0"  d="M 908.6439024390245 206.0 L 908.6439024390245 214.0" />
        <text x="908.6439024390245" font-family="-apple-system, system-ui, BlinkMacSystemFont, Roboto" y="216.0" dominant-baseline="hanging" text-anchor="middle" font-size="12" fill="#24292f">Mar 2023</text>
    
    <path stroke="#74838f"   stroke-linejoin="round" stroke-width="2.0" d="M 50.0 216.0 L 50.0 206.0 L 974.0 206.0 L 974.0 216.0"  fill="none" />
    <text x="512.0" y="25.0" font-family="-apple-system, system-ui, BlinkMacSystemFont, Roboto" dominant-baseline="middle" text-anchor="middle" font-size="18" fill="#24292f">Total daily screen name changes</text>
</svg>
