<?xml version="1.0" standalone="no"?>
<svg width="1024.0" height="256.0"  viewBox="0 0 1024.0 256.0" preserveAspectRatio="xMidYMid meet" xmlns="http://www.w3.org/2000/svg">
    <path stroke="#3498db" stroke-linejoin="round" d="M 50.0 203.3394909090909 L 50 203.3394909090909L 51.89733059548254 202.32974545454545L 53.794661190965094 196.86690909090908L 55.69199178644764 195.94792727272727L 57.58932238193019 202.14254545454546L 59.48665297741273 197.35476363636363L 61.383983572895275 191.76145454545454L 63.281314168377826 179.96218181818182L 65.17864476386038 204.09396363636364L 67.07597535934292 194.17236363636363L 68.97330595482546 192.61803636363635L 70.870636550308 195.1253818181818L 72.76796714579055 193.92843636363637L 74.6652977412731 182.2482909090909L 76.56262833675565 200.86618181818181L 78.4599589322382 201.45614545454546L 80.35728952772074 178.89003636363637L 82.25462012320328 197.33774545454546L 84.15195071868584 198.50065454545455L 86.04928131416838 200.41803636363636L 87.94661190965093 201.18385454545455L 89.84394250513347 202.26734545454545L 91.74127310061601 195.09134545454546L 93.63860369609856 198.08087272727272L 95.53593429158111 183.38850909090908L 97.43326488706364 197.47389090909093L 99.3305954825462 202.01774545454546L 101.22792607802876 194.66021818181818L 103.1252566735113 200.75272727272727L 105.02258726899385 200.00392727272728L 106.91991786447639 201.97236363636364L 108.81724845995893 204.2754909090909L 110.71457905544148 201.74545454545455L 112.61190965092402 201.01367272727273L 114.50924024640656 174.7829818181818L 116.40657084188912 195.76072727272728L 118.30390143737166 204.0032L 120.20123203285421 203.7309090909091L 122.09856262833677 197.87665454545453L 123.9958932238193 202.60770909090908L 125.89322381930184 202.6928L 127.7905544147844 197.55898181818182L 129.68788501026694 186.5141818181818L 131.5852156057495 199.26647272727274L 133.48254620123203 199.5728L 135.37987679671457 193.4802909090909L 137.2772073921971 199.10763636363635L 139.17453798767968 201.54690909090908L 141.07186858316223 201.5696L 142.96919917864477 195.06865454545454L 144.8665297741273 201.70007272727273L 146.76386036960986 197.2866909090909L 148.6611909650924 172.35505454545455L 150.55852156057495 203.20901818181818L 152.45585215605752 199.6749090909091L 154.35318275154003 193.12858181818183L 156.2505133470226 196.8896L 158.14784394250512 199.78836363636364L 160.0451745379877 198.82967272727274L 161.94250513347023 204.1336727272727L 163.83983572895278 202.57934545454546L 165.73716632443532 198.9261090909091L 167.63449691991786 206L 169.5318275154004 204.128L 171.42915811088295 192.1245090909091L 173.32648870636552 206L 175.22381930184804 206L 177.1211498973306 206L 179.01848049281313 206L 180.91581108829567 197.37178181818183L 182.81314168377824 199.57847272727273L 184.71047227926078 188.9024L 186.60780287474333 195.02894545454546L 188.50513347022587 191.20552727272727L 190.40246406570841 166.8128L 192.29979466119096 203.8386909090909L 194.19712525667353 198.09221818181817L 196.09445585215607 201.64334545454545L 197.9917864476386 202.2957090909091L 199.88911704312113 203.22036363636363L 201.78644763860368 200.66763636363635L 203.68377823408625 191.51185454545455L 205.5811088295688 189.18603636363636L 207.47843942505133 203.86705454545455L 209.37577002053388 197.56465454545454L 211.27310061601642 187.32538181818182L 213.170431211499 201.2349090909091L 215.06776180698154 200.44639999999998L 216.96509240246408 201.4618181818182L 218.8624229979466 201.09876363636363L 220.75975359342914 201.17818181818183L 222.6570841889117 193.02647272727273L 224.55441478439425 198.8069818181818L 226.4517453798768 203.39054545454545L 228.34907597535934 200.30458181818182L 230.24640657084188 198.35883636363636L 232.14373716632446 193.3101090909091L 234.041067761807 200.56552727272728L 235.93839835728954 203.03883636363636L 237.83572895277206 197.22996363636364L 239.7330595482546 201.95534545454547L 241.63039014373717 196.016L 243.52772073921972 202.30705454545455L 245.42505133470226 199.91316363636363L 247.3223819301848 194.62050909090908L 249.21971252566735 201.29163636363637L 251.1170431211499 202.98778181818182L 253.01437371663246 203.5437090909091L 254.911704312115 200.60523636363638L 256.8090349075975 195.5621818181818L 258.70636550308006 203.24305454545456L 260.60369609856264 200.15709090909093L 262.5010266940452 198.46661818181818L 264.3983572895277 201.70007272727273L 266.29568788501024 200.70734545454545L 268.1930184804928 200.4293818181818L 270.0903490759754 201.76814545454545L 271.98767967145795 204.6442181818182L 273.88501026694047 206L 275.782340862423 196.35636363636365L 277.67967145790556 199.21541818181817L 279.57700205338807 156.87418181818182L 281.47433264887064 165.1506909090909L 283.3716632443532 204.1733818181818L 285.26899383983573 202.17658181818183L 287.16632443531824 199.31185454545454L 289.0636550308008 198.7842909090909L 290.96098562628333 202.6757818181818L 292.8583162217659 202.8573090909091L 294.7556468172485 196.1861818181818L 296.65297741273105 199.64654545454545L 298.5503080082135 198.2056727272727L 300.4476386036961 201.2178909090909L 302.34496919917865 201.79083636363637L 304.2422997946612 201.90429090909092L 306.13963039014374 200.1968L 308.03696098562625 195.17076363636363L 309.9342915811088 206L 311.83162217659134 206L 313.7289527720739 206L 315.6262833675565 191.4834909090909L 317.52361396303905 197.79723636363636L 319.42094455852157 198.85236363636363L 321.31827515400414 199.76L 323.21560574948666 200.03796363636363L 325.1129363449692 200.76407272727272L 327.01026694045174 201.80785454545455L 328.90759753593426 191.63098181818182L 330.80492813141683 194.41061818181817L 332.70225872689934 199.88479999999998L 334.5995893223819 152.63098181818182L 336.4969199178645 197.04843636363637L 338.39425051334706 194.4730181818182L 340.2915811088296 155.90414545454547L 342.18891170431215 91.60945454545454L 344.08624229979466 104.5376L 345.9835728952772 151.17876363636364L 347.88090349075975 185.1981090909091L 349.77823408624226 142.76610909090908L 351.67556468172484 125.0672L 353.57289527720735 123.74545454545455L 355.47022587269 157.99738181818182L 357.3675564681725 53.56814545454546L 359.26488706365507 50.78850909090909L 361.1622176591376 100.02210909090908L 363.05954825462015 156.2445090909091L 364.95687885010267 180.31956363636363L 366.8542094455852 192.43650909090908L 368.75154004106776 193.63912727272728L 370.64887063655027 193.3328L 372.54620123203284 192.11316363636365L 374.4435318275154 197.93338181818183L 376.340862422998 191.5629090909091L 378.2381930184805 198.7672727272727L 380.1355236139631 199.3005090909091L 382.0328542094456 201.64901818181818L 383.93018480492816 200.58821818181818L 385.8275154004107 202.43752727272727L 387.7248459958932 200.73003636363637L 389.62217659137576 189.7703272727273L 391.5195071868583 203.17498181818183L 393.41683778234085 200.48610909090908L 395.3141683778234 185.1810909090909L 397.211498973306 187.88698181818182L 399.1088295687885 191.01832727272728L 401.0061601642711 192.31738181818181L 402.9034907597536 177.09745454545455L 404.8008213552361 167.91330909090908L 406.6981519507187 179.30981818181817L 408.5954825462012 186.49716363636364L 410.49281314168377 150.34487272727273L 412.3901437371663 184.27345454545454L 414.2874743326489 199.5104L 416.1848049281314 161.24785454545454L 418.082135523614 155.49003636363636L 419.9794661190965 176.96130909090908L 421.8767967145791 190.30923636363636L 423.7741273100616 193.50865454545453L 425.6714579055441 201.72843636363638L 427.5687885010267 185.22647272727272L 429.4661190965092 192.03374545454545L 431.3634496919918 192.66909090909093L 433.26078028747435 180.18341818181818L 435.1581108829569 194.5013818181818L 437.05544147843943 194.6829090909091L 438.952772073922 201.85323636363637L 440.8501026694045 196.2032L 442.7474332648871 204.49105454545455L 444.6447638603696 191.55723636363638L 446.5420944558521 180.36494545454545L 448.4394250513347 193.02647272727273L 450.3367556468172 186.20785454545455L 452.2340862422998 191.72741818181817L 454.13141683778235 191.4834909090909L 456.0287474332649 196.63432727272726L 457.92607802874744 200.7810909090909L 459.82340862423 176.26923636363637L 461.7207392197125 165.78036363636363L 463.61806981519504 181.82850909090908L 465.5154004106776 160.6976L 467.41273100616013 163.93105454545454L 469.3100616016427 182.10647272727272L 471.2073921971252 130.808L 473.1047227926078 190.49643636363635L 475.00205338809036 202.0914909090909L 476.89938398357293 184.09192727272728L 478.79671457905545 197.50225454545455L 480.694045174538 187.54094545454547L 482.59137577002053 192.95272727272726L 484.48870636550305 201.88727272727272L 486.3860369609856 184.33585454545454L 488.28336755646814 183.04814545454545L 490.1806981519507 182.36741818181818L 492.0780287474333 182.54327272727272L 493.97535934291585 186.38938181818182L 495.87268993839837 174.3858909090909L 497.77002053388094 183.1786181818182L 499.66735112936345 183.5133090909091L 501.564681724846 184.60247272727273L 503.46201232032854 186.968L 505.35934291581106 170.00087272727274L 507.2566735112936 167.8338909090909L 509.15400410677614 203.32247272727273L 511.0513347022587 206L 512.9486652977413 128.43112727272728L 514.8459958932237 183.2637090909091L 516.7433264887064 156.8685090909091L 518.6406570841889 183.15592727272727L 520.5379876796715 183.2013090909091L 522.435318275154 182.25963636363636L 524.3326488706365 170.18807272727273L 526.2299794661192 186.86589090909092L 528.1273100616016 183.77425454545454L 530.0246406570841 186.29861818181817L 531.9219712525667 184.17134545454545L 533.8193018480493 184.9655272727273L 535.7166324435318 178.1696L 537.6139630390144 180.70530909090908L 539.511293634497 170.80072727272727L 541.4086242299795 177.99374545454546L 543.3059548254621 175.99127272727273L 545.2032854209446 173.75621818181818L 547.100616016427 175.45803636363638L 548.9979466119096 196.91796363636365L 550.8952772073922 150.30516363636363L 552.7926078028747 167.34036363636363L 554.6899383983573 174.52203636363637L 556.5872689938399 132.05599999999998L 558.4845995893224 144.8309818181818L 560.381930184805 173.60872727272726L 562.2792607802875 151.91054545454546L 564.17659137577 194.03621818181819L 566.0739219712525 160.59549090909093L 567.9712525667352 206L 569.8685831622176 153.43650909090908L 571.7659137577002 181.01163636363637L 573.6632443531827 181.6413090909091L 575.5605749486654 182.49221818181817L 577.4579055441478 183.08785454545455L 579.3552361396304 206L 581.252566735113 151.86516363636363L 583.1498973305954 172.45716363636365L 585.0472279260781 169.20669090909092L 586.9445585215606 178.22065454545455L 588.8418891170431 175.54312727272728L 590.7392197125256 177.61367272727273L 592.6365503080083 181.0173090909091L 594.5338809034907 176.80814545454547L 596.4312114989733 167.8962909090909L 598.3285420944558 167.1248L 600.2258726899385 176.62094545454545L 602.123203285421 158.63272727272727L 604.0205338809035 151.3602909090909L 605.9178644763861 173.35345454545455L 607.8151950718685 206L 609.7125256673512 206L 611.6098562628337 206L 613.5071868583162 206L 615.4045174537987 206L 617.3018480492814 206L 619.1991786447638 206L 621.0965092402464 206L 622.993839835729 206L 624.8911704312114 206L 626.7885010266941 206L 628.6858316221766 206L 630.5831622176592 206L 632.4804928131416 206L 634.3778234086243 206L 636.2751540041068 206L 638.1724845995893 206L 640.0698151950719 206L 641.9671457905544 206L 643.864476386037 206L 645.7618069815195 206L 647.6591375770021 206L 649.5564681724845 206L 651.4537987679672 206L 653.3511293634497 206L 655.2484599589322 206L 657.1457905544147 206L 659.0431211498974 206L 660.94045174538 206L 662.8377823408624 206L 664.735112936345 206L 666.6324435318274 206L 668.5297741273101 206L 670.4271047227926 206L 672.3244353182752 206L 674.2217659137576 206L 676.1190965092403 206L 678.0164271047228 206L 679.9137577002053 206L 681.8110882956879 206L 683.7084188911704 206L 685.605749486653 206L 687.5030800821355 206L 689.4004106776181 206L 691.2977412731005 206L 693.1950718685832 206L 695.0924024640657 206L 696.9897330595483 206L 698.8870636550308 206L 700.7843942505133 206L 702.681724845996 206L 704.5790554414784 206L 706.476386036961 206L 708.3737166324435 206L 710.2710472279261 206L 712.1683778234086 206L 714.0657084188912 206L 715.9630390143736 206L 717.8603696098563 206L 719.7577002053389 206L 721.6550308008214 206L 723.5523613963039 206L 725.4496919917864 206L 727.3470225872691 206L 729.2443531827515 206L 731.1416837782341 206L 733.0390143737166 206L 734.9363449691992 206L 736.8336755646817 206L 738.7310061601643 206L 740.6283367556468 206L 742.5256673511293 206L 744.422997946612 206L 746.3203285420944 206L 748.217659137577 206L 750.1149897330595 206L 752.0123203285422 206L 753.9096509240246 206L 755.8069815195072 206L 757.7043121149898 206L 759.6016427104722 206L 761.4989733059549 206L 763.3963039014374 206L 765.2936344969199 206L 767.1909650924024 206L 769.0882956878851 206L 770.9856262833675 206L 772.8829568788501 206L 774.7802874743326 206L 776.6776180698153 206L 778.5749486652978 206L 780.4722792607803 206L 782.3696098562629 206L 784.2669404517453 206L 786.164271047228 206L 788.0616016427105 206L 789.958932238193 206L 791.8562628336755 206L 793.7535934291582 206L 795.6509240246406 206L 797.5482546201232 206L 799.4455852156058 206L 801.3429158110882 206L 803.2402464065709 206L 805.1375770020534 206L 807.034907597536 206L 808.9322381930184 206L 810.8295687885011 206L 812.7268993839836 206L 814.6242299794661 206L 816.5215605749487 206L 818.4188911704312 206L 820.3162217659138 206L 822.2135523613963 206L 824.1108829568789 206L 826.0082135523613 206L 827.905544147844 206L 829.8028747433265 206L 831.700205338809 206L 833.5975359342915 206L 835.4948665297742 206L 837.3921971252566 206L 839.2895277207392 206L 841.1868583162218 206L 843.0841889117042 206L 844.9815195071869 206L 846.8788501026694 206L 848.776180698152 206L 850.6735112936344 206L 852.5708418891171 206L 854.4681724845996 206L 856.3655030800821 206L 858.2628336755647 206L 860.1601642710472 206L 862.0574948665299 206L 863.9548254620123 206L 865.8521560574949 206L 867.7494866529773 206L 869.64681724846 206L 871.5441478439425 206L 873.441478439425 206L 875.3388090349076 206L 877.2361396303901 206L 879.1334702258728 206L 881.0308008213552 206L 882.9281314168378 206L 884.8254620123203 206L 886.722792607803 206L 888.6201232032854 206L 890.517453798768 206L 892.4147843942504 206L 894.3121149897331 206L 896.2094455852156 206L 898.1067761806981 206L 900.0041067761807 206L 901.9014373716632 206L 903.7987679671459 206L 905.6960985626283 206L 907.5934291581109 206L 909.4907597535934 206L 911.388090349076 206L 913.2854209445585 206L 915.1827515400411 206L 917.0800821355236 206L 918.9774127310061 206L 920.8747433264888 206L 922.7720739219712 206L 924.6694045174538 206L 926.5667351129363 206L 928.464065708419 206L 930.3613963039014 206L 932.258726899384 206L 934.1560574948666 206L 936.053388090349 206L 937.9507186858317 206L 939.8480492813142 206L 941.7453798767967 206L 943.6427104722792 206L 945.5400410677619 206L 947.4373716632443 206L 949.3347022587269 206L 951.2320328542094 206L 953.129363449692 206L 955.0266940451745 206L 956.9240246406571 206L 958.8213552361397 206L 960.7186858316221 206L 962.6160164271048 206L 964.5133470225873 206L 966.4106776180698 206L 968.3080082135523 206L 970.205338809035 206L 972.1026694045174 206L 974 206" stroke-width="2.0" fill="none" />
    
        
        
        <text x="45.0" font-family="-apple-system, system-ui, BlinkMacSystemFont, Roboto" y="50.0" dominant-baseline="middle" text-anchor="end" font-size="12" fill="#24292f">27500.0</text>
        
            
            <path stroke="#74838f" stroke-dasharray="10 6" stroke-width="0.5"  d="M 50.0 50.0 L 974.0 50.0" />
        
    
        
        
        <text x="45.0" font-family="-apple-system, system-ui, BlinkMacSystemFont, Roboto" y="81.2" dominant-baseline="middle" text-anchor="end" font-size="12" fill="#24292f">22000.0</text>
        
            
            
            <path stroke="#74838f" stroke-dasharray="10 6" stroke-width="0.5"  d="M 50.0 81.2 L 974.0 81.2" />
        
    
        
        
        <text x="45.0" font-family="-apple-system, system-ui, BlinkMacSystemFont, Roboto" y="112.4" dominant-baseline="middle" text-anchor="end" font-size="12" fill="#24292f">16500.0</text>
        
            
            
            <path stroke="#74838f" stroke-dasharray="10 6" stroke-width="0.5"  d="M 50.0 112.4 L 974.0 112.4" />
        
    
        
        
        <text x="45.0" font-family="-apple-system, system-ui, BlinkMacSystemFont, Roboto" y="143.6" dominant-baseline="middle" text-anchor="end" font-size="12" fill="#24292f">11000.0</text>
        
            
            
            <path stroke="#74838f" stroke-dasharray="10 6" stroke-width="0.5"  d="M 50.0 143.6 L 974.0 143.6" />
        
    
        
        
        <text x="45.0" font-family="-apple-system, system-ui, BlinkMacSystemFont, Roboto" y="174.8" dominant-baseline="middle" text-anchor="end" font-size="12" fill="#24292f">5500.0</text>
        
            
            
            <path stroke="#74838f" stroke-dasharray="10 6" stroke-width="0.5"  d="M 50.0 174.8 L 974.0 174.8" />
        
    
        
        
        <text x="45.0" font-family="-apple-system, system-ui, BlinkMacSystemFont, Roboto" y="206.0" dominant-baseline="middle" text-anchor="end" font-size="12" fill="#24292f">0.0</text>
        
    
    
        
        <path stroke="#74838f"  stroke-width="2.0"  d="M 80.35728952772074 206.0 L 80.35728952772074 214.0" />
        <text x="80.35728952772074" font-family="-apple-system, system-ui, BlinkMacSystemFont, Roboto" y="216.0" dominant-baseline="hanging" text-anchor="middle" font-size="12" fill="#24292f">Mar 2022</text>
    
        
        <path stroke="#74838f"  stroke-width="2.0"  d="M 139.17453798767968 206.0 L 139.17453798767968 214.0" />
        <text x="139.17453798767968" font-family="-apple-system, system-ui, BlinkMacSystemFont, Roboto" y="216.0" dominant-baseline="hanging" text-anchor="middle" font-size="12" fill="#24292f">Apr 2022</text>
    
        
        <path stroke="#74838f"  stroke-width="2.0"  d="M 196.09445585215607 206.0 L 196.09445585215607 214.0" />
        <text x="196.09445585215607" font-family="-apple-system, system-ui, BlinkMacSystemFont, Roboto" y="216.0" dominant-baseline="hanging" text-anchor="middle" font-size="12" fill="#24292f">May 2022</text>
    
        
        <path stroke="#74838f"  stroke-width="2.0"  d="M 254.911704312115 206.0 L 254.911704312115 214.0" />
        <text x="254.911704312115" font-family="-apple-system, system-ui, BlinkMacSystemFont, Roboto" y="216.0" dominant-baseline="hanging" text-anchor="middle" font-size="12" fill="#24292f">Jun 2022</text>
    
        
        <path stroke="#74838f"  stroke-width="2.0"  d="M 311.83162217659134 206.0 L 311.83162217659134 214.0" />
        <text x="311.83162217659134" font-family="-apple-system, system-ui, BlinkMacSystemFont, Roboto" y="216.0" dominant-baseline="hanging" text-anchor="middle" font-size="12" fill="#24292f">Jul 2022</text>
    
        
        <path stroke="#74838f"  stroke-width="2.0"  d="M 370.64887063655027 206.0 L 370.64887063655027 214.0" />
        <text x="370.64887063655027" font-family="-apple-system, system-ui, BlinkMacSystemFont, Roboto" y="216.0" dominant-baseline="hanging" text-anchor="middle" font-size="12" fill="#24292f">Aug 2022</text>
    
        
        <path stroke="#74838f"  stroke-width="2.0"  d="M 429.4661190965092 206.0 L 429.4661190965092 214.0" />
        <text x="429.4661190965092" font-family="-apple-system, system-ui, BlinkMacSystemFont, Roboto" y="216.0" dominant-baseline="hanging" text-anchor="middle" font-size="12" fill="#24292f">Sep 2022</text>
    
        
        <path stroke="#74838f"  stroke-width="2.0"  d="M 486.3860369609856 206.0 L 486.3860369609856 214.0" />
        <text x="486.3860369609856" font-family="-apple-system, system-ui, BlinkMacSystemFont, Roboto" y="216.0" dominant-baseline="hanging" text-anchor="middle" font-size="12" fill="#24292f">Oct 2022</text>
    
        
        <path stroke="#74838f"  stroke-width="2.0"  d="M 545.2032854209446 206.0 L 545.2032854209446 214.0" />
        <text x="545.2032854209446" font-family="-apple-system, system-ui, BlinkMacSystemFont, Roboto" y="216.0" dominant-baseline="hanging" text-anchor="middle" font-size="12" fill="#24292f">Nov 2022</text>
    
        
        <path stroke="#74838f"  stroke-width="2.0"  d="M 602.123203285421 206.0 L 602.123203285421 214.0" />
        <text x="602.123203285421" font-family="-apple-system, system-ui, BlinkMacSystemFont, Roboto" y="216.0" dominant-baseline="hanging" text-anchor="middle" font-size="12" fill="#24292f">Dec 2022</text>
    
        
        <path stroke="#74838f"  stroke-width="2.0"  d="M 660.94045174538 206.0 L 660.94045174538 214.0" />
        <text x="660.94045174538" font-family="-apple-system, system-ui, BlinkMacSystemFont, Roboto" y="216.0" dominant-baseline="hanging" text-anchor="middle" font-size="12" fill="#24292f">Jan 2023</text>
    
        
        <path stroke="#74838f"  stroke-width="2.0"  d="M 719.7577002053389 206.0 L 719.7577002053389 214.0" />
        <text x="719.7577002053389" font-family="-apple-system, system-ui, BlinkMacSystemFont, Roboto" y="216.0" dominant-baseline="hanging" text-anchor="middle" font-size="12" fill="#24292f">Feb 2023</text>
    
        
        <path stroke="#74838f"  stroke-width="2.0"  d="M 772.8829568788501 206.0 L 772.8829568788501 214.0" />
        <text x="772.8829568788501" font-family="-apple-system, system-ui, BlinkMacSystemFont, Roboto" y="216.0" dominant-baseline="hanging" text-anchor="middle" font-size="12" fill="#24292f">Mar 2023</text>
    
        
        <path stroke="#74838f"  stroke-width="2.0"  d="M 831.700205338809 206.0 L 831.700205338809 214.0" />
        <text x="831.700205338809" font-family="-apple-system, system-ui, BlinkMacSystemFont, Roboto" y="216.0" dominant-baseline="hanging" text-anchor="middle" font-size="12" fill="#24292f">Apr 2023</text>
    
        
        <path stroke="#74838f"  stroke-width="2.0"  d="M 888.6201232032854 206.0 L 888.6201232032854 214.0" />
        <text x="888.6201232032854" font-family="-apple-system, system-ui, BlinkMacSystemFont, Roboto" y="216.0" dominant-baseline="hanging" text-anchor="middle" font-size="12" fill="#24292f">May 2023</text>
    
        
        <path stroke="#74838f"  stroke-width="2.0"  d="M 947.4373716632443 206.0 L 947.4373716632443 214.0" />
        <text x="947.4373716632443" font-family="-apple-system, system-ui, BlinkMacSystemFont, Roboto" y="216.0" dominant-baseline="hanging" text-anchor="middle" font-size="12" fill="#24292f">Jun 2023</text>
    
    <path stroke="#74838f"   stroke-linejoin="round" stroke-width="2.0" d="M 50.0 216.0 L 50.0 206.0 L 974.0 206.0 L 974.0 216.0"  fill="none" />
    <text x="512.0" y="25.0" font-family="-apple-system, system-ui, BlinkMacSystemFont, Roboto" dominant-baseline="middle" text-anchor="middle" font-size="18" fill="#24292f">Total daily screen name changes</text>
</svg>
