<?xml version="1.0" standalone="no"?>
<svg width="1024.0" height="256.0"  viewBox="0 0 1024.0 256.0" preserveAspectRatio="xMidYMid meet" xmlns="http://www.w3.org/2000/svg">
    <path stroke="#3498db" stroke-linejoin="round" d="M 50.0 203.3394909090909 L 50 203.3394909090909L 51.949367088607595 202.32974545454545L 53.89873417721519 196.86690909090908L 55.848101265822784 195.94792727272727L 57.79746835443038 202.14254545454546L 59.74683544303797 197.35476363636363L 61.69620253164557 191.76145454545454L 63.64556962025316 179.96218181818182L 65.59493670886076 204.09396363636364L 67.54430379746836 194.17236363636363L 69.49367088607595 192.61803636363635L 71.44303797468355 195.1253818181818L 73.39240506329114 193.92843636363637L 75.34177215189874 182.2482909090909L 77.29113924050633 200.86618181818181L 79.24050632911393 201.45614545454546L 81.18987341772151 178.89003636363637L 83.13924050632912 197.33774545454546L 85.08860759493672 198.50065454545455L 87.0379746835443 200.41803636363636L 88.9873417721519 201.18385454545455L 90.9367088607595 202.26734545454545L 92.8860759493671 195.09134545454546L 94.83544303797468 198.08087272727272L 96.78481012658227 183.38850909090908L 98.73417721518987 197.47389090909093L 100.68354430379748 202.01774545454546L 102.63291139240506 194.66021818181818L 104.58227848101265 200.75272727272727L 106.53164556962025 200.00392727272728L 108.48101265822785 201.97236363636364L 110.43037974683546 204.2754909090909L 112.37974683544303 201.74545454545455L 114.32911392405063 201.01367272727273L 116.27848101265823 174.7829818181818L 118.22784810126582 195.76072727272728L 120.17721518987342 204.0032L 122.12658227848101 203.7309090909091L 124.07594936708861 197.87665454545453L 126.0253164556962 202.60770909090908L 127.9746835443038 202.6928L 129.9240506329114 197.55898181818182L 131.873417721519 186.5141818181818L 133.82278481012656 199.26647272727274L 135.7721518987342 199.5728L 137.72151898734177 193.4802909090909L 139.67088607594937 199.10763636363635L 141.62025316455697 201.54690909090908L 143.56962025316454 201.5696L 145.51898734177215 195.06865454545454L 147.46835443037975 201.70007272727273L 149.41772151898735 197.2866909090909L 151.36708860759495 172.35505454545455L 153.31645569620252 203.20901818181818L 155.26582278481013 199.6749090909091L 157.21518987341773 193.12858181818183L 159.1645569620253 196.8896L 161.11392405063293 199.78836363636364L 163.0632911392405 198.82967272727274L 165.0126582278481 204.1336727272727L 166.9620253164557 202.57934545454546L 168.91139240506328 198.9261090909091L 170.8607594936709 206L 172.81012658227849 204.128L 174.75949367088606 192.1245090909091L 176.70886075949366 206L 178.65822784810126 206L 180.60759493670886 206L 182.55696202531647 206L 184.50632911392404 197.37178181818183L 186.45569620253164 199.57847272727273L 188.40506329113924 188.9024L 190.35443037974684 195.02894545454546L 192.30379746835445 191.20552727272727L 194.25316455696202 166.8128L 196.20253164556962 203.8386909090909L 198.15189873417722 198.09221818181817L 200.1012658227848 201.64334545454545L 202.0506329113924 202.2957090909091L 204 203.22036363636363L 205.9493670886076 200.66763636363635L 207.89873417721518 191.51185454545455L 209.84810126582278 189.18603636363636L 211.79746835443038 203.86705454545455L 213.74683544303798 197.56465454545454L 215.69620253164558 187.32538181818182L 217.64556962025316 201.2349090909091L 219.59493670886076 200.44639999999998L 221.54430379746836 201.4618181818182L 223.49367088607596 201.09876363636363L 225.44303797468356 201.17818181818183L 227.39240506329114 193.02647272727273L 229.34177215189874 198.8069818181818L 231.2911392405063 203.39054545454545L 233.2405063291139 200.30458181818182L 235.18987341772151 198.35883636363636L 237.13924050632912 193.3101090909091L 239.08860759493672 200.56552727272728L 241.0379746835443 203.03883636363636L 242.9873417721519 197.22996363636364L 244.9367088607595 201.95534545454547L 246.8860759493671 196.016L 248.8354430379747 202.30705454545455L 250.7848101265823 199.91316363636363L 252.73417721518987 194.62050909090908L 254.68354430379745 201.29163636363637L 256.63291139240505 202.98778181818182L 258.5822784810126 203.5437090909091L 260.53164556962025 200.60523636363638L 262.4810126582279 195.5621818181818L 264.43037974683546 203.24305454545456L 266.37974683544303 200.15709090909093L 268.3291139240506 198.46661818181818L 270.27848101265823 201.70007272727273L 272.22784810126586 200.70734545454545L 274.17721518987344 200.4293818181818L 276.126582278481 201.76814545454545L 278.0759493670886 204.6442181818182L 280.0253164556962 206L 281.9746835443038 196.35636363636365L 283.9240506329114 199.21541818181817L 285.873417721519 156.87418181818182L 287.82278481012656 165.1506909090909L 289.77215189873414 204.1733818181818L 291.7215189873418 202.17658181818183L 293.6708860759494 199.31185454545454L 295.62025316455697 198.7842909090909L 297.56962025316454 202.6757818181818L 299.5189873417721 202.8573090909091L 301.46835443037975 196.1861818181818L 303.4177215189873 199.64654545454545L 305.36708860759495 198.2056727272727L 307.3164556962025 201.2178909090909L 309.26582278481015 201.79083636363637L 311.2151898734177 201.90429090909092L 313.16455696202536 200.1968L 315.11392405063293 195.17076363636363L 317.0632911392405 206L 319.0126582278481 206L 320.9620253164557 206L 322.9113924050633 191.4834909090909L 324.86075949367086 197.79723636363636L 326.8101265822785 198.85236363636363L 328.75949367088606 199.76L 330.7088607594937 200.03796363636363L 332.65822784810126 200.76407272727272L 334.6075949367089 201.80785454545455L 336.55696202531647 191.63098181818182L 338.50632911392404 194.41061818181817L 340.4556962025316 199.88479999999998L 342.40506329113924 152.63098181818182L 344.3544303797468 197.04843636363637L 346.30379746835445 194.4730181818182L 348.253164556962 155.90414545454547L 350.2025316455696 91.60945454545454L 352.1518987341772 104.5376L 354.1012658227848 151.17876363636364L 356.0506329113924 185.1981090909091L 358 142.76610909090908L 359.94936708860763 125.0672L 361.8987341772152 123.74545454545455L 363.8481012658228 157.99738181818182L 365.79746835443035 53.56814545454546L 367.746835443038 50.78850909090909L 369.69620253164555 100.02210909090908L 371.6455696202532 156.2445090909091L 373.59493670886076 180.31956363636363L 375.5443037974684 192.43650909090908L 377.49367088607596 193.63912727272728L 379.44303797468353 193.3328L 381.39240506329116 192.11316363636365L 383.34177215189874 197.93338181818183L 385.2911392405063 191.5629090909091L 387.2405063291139 198.7672727272727L 389.1898734177215 199.3005090909091L 391.1392405063291 201.64901818181818L 393.0886075949367 200.58821818181818L 395.0379746835443 202.43752727272727L 396.9873417721519 200.73003636363637L 398.9367088607595 189.7703272727273L 400.8860759493671 203.17498181818183L 402.8354430379747 200.48610909090908L 404.7848101265823 185.1810909090909L 406.7341772151899 187.88698181818182L 408.6835443037975 191.01832727272728L 410.63291139240505 192.31738181818181L 412.5822784810126 177.09745454545455L 414.53164556962025 167.91330909090908L 416.4810126582278 179.30981818181817L 418.43037974683546 186.49716363636364L 420.37974683544303 150.34487272727273L 422.32911392405066 184.27345454545454L 424.27848101265823 199.5104L 426.22784810126586 161.24785454545454L 428.17721518987344 155.49003636363636L 430.126582278481 176.96130909090908L 432.0759493670886 190.30923636363636L 434.02531645569616 193.50865454545453L 435.9746835443038 201.72843636363638L 437.92405063291136 185.22647272727272L 439.873417721519 192.03374545454545L 441.82278481012656 192.66909090909093L 443.7721518987342 180.18341818181818L 445.72151898734177 194.5013818181818L 447.6708860759494 194.6829090909091L 449.62025316455697 201.85323636363637L 451.5696202531646 196.2032L 453.5189873417722 204.49105454545455L 455.46835443037975 191.55723636363638L 457.4177215189873 180.36494545454545L 459.3670886075949 193.02647272727273L 461.3164556962025 186.20785454545455L 463.2658227848101 191.72741818181817L 465.2151898734177 191.4834909090909L 467.1645569620253 196.63432727272726L 469.11392405063293 200.7810909090909L 471.0632911392405 176.26923636363637L 473.01265822784814 165.78036363636363L 474.9620253164557 181.82850909090908L 476.9113924050633 160.6976L 478.86075949367086 163.93105454545454L 480.8101265822785 182.10647272727272L 482.75949367088606 130.808L 484.7088607594937 190.49643636363635L 486.65822784810126 202.0914909090909L 488.60759493670884 184.09192727272728L 490.55696202531647 197.50225454545455L 492.50632911392404 187.54094545454547L 494.45569620253167 192.95272727272726L 496.40506329113924 201.88727272727272L 498.3544303797469 184.33585454545454L 500.30379746835445 183.04814545454545L 502.253164556962 182.36741818181818L 504.2025316455696 182.54327272727272L 506.1518987341772 186.38938181818182L 508.1012658227848 174.3858909090909L 510.0506329113924 183.1786181818182L 512 183.5133090909091L 513.9493670886076 184.60247272727273L 515.8987341772151 186.968L 517.8481012658228 170.00087272727274L 519.7974683544304 167.8338909090909L 521.746835443038 203.32247272727273L 523.6962025316456 206L 525.6455696202531 128.43112727272728L 527.5949367088608 183.2637090909091L 529.5443037974683 156.8685090909091L 531.493670886076 183.15592727272727L 533.4430379746836 183.2013090909091L 535.3924050632911 182.25963636363636L 537.3417721518988 170.18807272727273L 539.2911392405063 186.86589090909092L 541.2405063291139 183.77425454545454L 543.1898734177216 186.29861818181817L 545.1392405063291 184.17134545454545L 547.0886075949368 184.9655272727273L 549.0379746835442 178.1696L 550.9873417721519 180.70530909090908L 552.9367088607595 170.80072727272727L 554.8860759493671 177.99374545454546L 556.8354430379746 175.99127272727273L 558.7848101265823 173.75621818181818L 560.7341772151899 175.45803636363638L 562.6835443037975 196.91796363636365L 564.632911392405 150.30516363636363L 566.5822784810126 167.34036363636363L 568.5316455696203 174.52203636363637L 570.4810126582279 132.05599999999998L 572.4303797468355 144.8309818181818L 574.379746835443 173.60872727272726L 576.3291139240507 151.91054545454546L 578.2784810126583 194.03621818181819L 580.2278481012659 160.59549090909093L 582.1772151898734 206L 584.126582278481 153.43650909090908L 586.0759493670886 181.01163636363637L 588.0253164556962 181.6413090909091L 589.9746835443037 182.49221818181817L 591.9240506329114 183.08785454545455L 593.873417721519 206L 595.8227848101266 151.86516363636363L 597.7721518987341 172.45716363636365L 599.7215189873417 169.20669090909092L 601.6708860759494 178.22065454545455L 603.620253164557 175.54312727272728L 605.5696202531645 177.61367272727273L 607.5189873417721 181.0173090909091L 609.4683544303798 176.80814545454547L 611.4177215189874 167.8962909090909L 613.367088607595 167.1248L 615.3164556962025 176.62094545454545L 617.2658227848102 158.63272727272727L 619.2151898734178 151.3602909090909L 621.1645569620254 173.35345454545455L 623.1139240506329 206L 625.0632911392405 206L 627.0126582278481 206L 628.9620253164557 206L 630.9113924050632 206L 632.8607594936708 206L 634.8101265822785 206L 636.7594936708861 206L 638.7088607594936 206L 640.6582278481012 206L 642.6075949367089 206L 644.5569620253165 206L 646.506329113924 206L 648.4556962025316 206L 650.4050632911392 206L 652.3544303797469 206L 654.3037974683544 206L 656.253164556962 206L 658.2025316455696 206L 660.1518987341773 206L 662.1012658227849 206L 664.0506329113924 206L 666 206L 667.9493670886077 206L 669.8987341772153 206L 671.8481012658228 206L 673.7974683544304 206L 675.746835443038 206L 677.6962025316456 206L 679.6455696202531 206L 681.5949367088607 206L 683.5443037974683 206L 685.493670886076 206L 687.4430379746835 206L 689.3924050632911 206L 691.3417721518987 206L 693.2911392405064 206L 695.2405063291139 206L 697.1898734177215 206L 699.1392405063291 206L 701.0886075949368 206L 703.0379746835443 206L 704.9873417721519 206L 706.9367088607595 206L 708.8860759493671 206L 710.8354430379748 206L 712.7848101265823 206L 714.7341772151899 206L 716.6835443037975 206L 718.632911392405 206L 720.5822784810126 206L 722.5316455696202 206L 724.4810126582278 206L 726.4303797468355 206L 728.379746835443 206L 730.3291139240506 206L 732.2784810126582 206L 734.2278481012657 206L 736.1772151898734 206L 738.126582278481 206L 740.0759493670886 206L 742.0253164556962 206L 743.9746835443038 206L 745.9240506329114 206L 747.873417721519 206L 749.8227848101266 206L 751.7721518987343 206L 753.7215189873418 206L 755.6708860759494 206L 757.620253164557 206L 759.5696202531645 206L 761.5189873417722 206L 763.4683544303798 206L 765.4177215189874 206L 767.367088607595 206L 769.3164556962025 206L 771.2658227848101 206L 773.2151898734177 206L 775.1645569620252 206L 777.1139240506329 206L 779.0632911392405 206L 781.0126582278481 206L 782.9620253164557 206L 784.9113924050632 206L 786.8607594936709 206L 788.8101265822785 206L 790.7594936708861 206L 792.7088607594936 206L 794.6582278481013 206L 796.6075949367089 206L 798.5569620253165 206L 800.506329113924 206L 802.4556962025317 206L 804.4050632911393 206L 806.3544303797469 206L 808.3037974683544 206L 810.253164556962 206L 812.2025316455696 206L 814.1518987341772 206L 816.1012658227847 206L 818.0506329113923 206L 820 206L 821.9493670886076 206L 823.8987341772151 206L 825.8481012658227 206L 827.7974683544304 206L 829.746835443038 206L 831.6962025316456 206L 833.6455696202531 206L 835.5949367088608 206L 837.5443037974684 206L 839.493670886076 206L 841.4430379746835 206L 843.3924050632911 206L 845.3417721518988 206L 847.2911392405064 206L 849.2405063291139 206L 851.1898734177215 206L 853.1392405063292 206L 855.0886075949368 206L 857.0379746835443 206L 858.9873417721519 206L 860.9367088607595 206L 862.8860759493671 206L 864.8354430379746 206L 866.7848101265822 206L 868.7341772151898 206L 870.6835443037975 206L 872.632911392405 206L 874.5822784810126 206L 876.5316455696202 206L 878.4810126582279 206L 880.4303797468355 206L 882.379746835443 206L 884.3291139240506 206L 886.2784810126583 206L 888.2278481012659 206L 890.1772151898734 206L 892.126582278481 206L 894.0759493670886 206L 896.0253164556963 206L 897.9746835443038 206L 899.9240506329114 206L 901.873417721519 206L 903.8227848101266 206L 905.7721518987341 206L 907.7215189873417 206L 909.6708860759493 206L 911.620253164557 206L 913.5696202531645 206L 915.5189873417721 206L 917.4683544303797 206L 919.4177215189874 206L 921.367088607595 206L 923.3164556962025 206L 925.2658227848101 206L 927.2151898734177 206L 929.1645569620254 206L 931.1139240506329 206L 933.0632911392405 206L 935.0126582278481 206L 936.9620253164558 206L 938.9113924050633 206L 940.8607594936709 206L 942.8101265822785 206L 944.7594936708862 206L 946.7088607594937 206L 948.6582278481013 206L 950.6075949367089 206L 952.5569620253165 206L 954.506329113924 206L 956.4556962025316 206L 958.4050632911392 206L 960.3544303797468 206L 962.3037974683544 206L 964.253164556962 206L 966.2025316455696 206L 968.1518987341772 206L 970.1012658227849 206L 972.0506329113924 206L 974 206" stroke-width="2.0" fill="none" />
    
        
        
        <text x="45.0" font-family="-apple-system, system-ui, BlinkMacSystemFont, Roboto" y="50.0" dominant-baseline="middle" text-anchor="end" font-size="12" fill="#24292f">27500.0</text>
        
            
            <path stroke="#74838f" stroke-dasharray="10 6" stroke-width="0.5"  d="M 50.0 50.0 L 974.0 50.0" />
        
    
        
        
        <text x="45.0" font-family="-apple-system, system-ui, BlinkMacSystemFont, Roboto" y="81.2" dominant-baseline="middle" text-anchor="end" font-size="12" fill="#24292f">22000.0</text>
        
            
            
            <path stroke="#74838f" stroke-dasharray="10 6" stroke-width="0.5"  d="M 50.0 81.2 L 974.0 81.2" />
        
    
        
        
        <text x="45.0" font-family="-apple-system, system-ui, BlinkMacSystemFont, Roboto" y="112.4" dominant-baseline="middle" text-anchor="end" font-size="12" fill="#24292f">16500.0</text>
        
            
            
            <path stroke="#74838f" stroke-dasharray="10 6" stroke-width="0.5"  d="M 50.0 112.4 L 974.0 112.4" />
        
    
        
        
        <text x="45.0" font-family="-apple-system, system-ui, BlinkMacSystemFont, Roboto" y="143.6" dominant-baseline="middle" text-anchor="end" font-size="12" fill="#24292f">11000.0</text>
        
            
            
            <path stroke="#74838f" stroke-dasharray="10 6" stroke-width="0.5"  d="M 50.0 143.6 L 974.0 143.6" />
        
    
        
        
        <text x="45.0" font-family="-apple-system, system-ui, BlinkMacSystemFont, Roboto" y="174.8" dominant-baseline="middle" text-anchor="end" font-size="12" fill="#24292f">5500.0</text>
        
            
            
            <path stroke="#74838f" stroke-dasharray="10 6" stroke-width="0.5"  d="M 50.0 174.8 L 974.0 174.8" />
        
    
        
        
        <text x="45.0" font-family="-apple-system, system-ui, BlinkMacSystemFont, Roboto" y="206.0" dominant-baseline="middle" text-anchor="end" font-size="12" fill="#24292f">0.0</text>
        
    
    
        
        <path stroke="#74838f"  stroke-width="2.0"  d="M 81.18987341772151 206.0 L 81.18987341772151 214.0" />
        <text x="81.18987341772151" font-family="-apple-system, system-ui, BlinkMacSystemFont, Roboto" y="216.0" dominant-baseline="hanging" text-anchor="middle" font-size="12" fill="#24292f">Mar 2022</text>
    
        
        <path stroke="#74838f"  stroke-width="2.0"  d="M 141.62025316455697 206.0 L 141.62025316455697 214.0" />
        <text x="141.62025316455697" font-family="-apple-system, system-ui, BlinkMacSystemFont, Roboto" y="216.0" dominant-baseline="hanging" text-anchor="middle" font-size="12" fill="#24292f">Apr 2022</text>
    
        
        <path stroke="#74838f"  stroke-width="2.0"  d="M 200.1012658227848 206.0 L 200.1012658227848 214.0" />
        <text x="200.1012658227848" font-family="-apple-system, system-ui, BlinkMacSystemFont, Roboto" y="216.0" dominant-baseline="hanging" text-anchor="middle" font-size="12" fill="#24292f">May 2022</text>
    
        
        <path stroke="#74838f"  stroke-width="2.0"  d="M 260.53164556962025 206.0 L 260.53164556962025 214.0" />
        <text x="260.53164556962025" font-family="-apple-system, system-ui, BlinkMacSystemFont, Roboto" y="216.0" dominant-baseline="hanging" text-anchor="middle" font-size="12" fill="#24292f">Jun 2022</text>
    
        
        <path stroke="#74838f"  stroke-width="2.0"  d="M 319.0126582278481 206.0 L 319.0126582278481 214.0" />
        <text x="319.0126582278481" font-family="-apple-system, system-ui, BlinkMacSystemFont, Roboto" y="216.0" dominant-baseline="hanging" text-anchor="middle" font-size="12" fill="#24292f">Jul 2022</text>
    
        
        <path stroke="#74838f"  stroke-width="2.0"  d="M 379.44303797468353 206.0 L 379.44303797468353 214.0" />
        <text x="379.44303797468353" font-family="-apple-system, system-ui, BlinkMacSystemFont, Roboto" y="216.0" dominant-baseline="hanging" text-anchor="middle" font-size="12" fill="#24292f">Aug 2022</text>
    
        
        <path stroke="#74838f"  stroke-width="2.0"  d="M 439.873417721519 206.0 L 439.873417721519 214.0" />
        <text x="439.873417721519" font-family="-apple-system, system-ui, BlinkMacSystemFont, Roboto" y="216.0" dominant-baseline="hanging" text-anchor="middle" font-size="12" fill="#24292f">Sep 2022</text>
    
        
        <path stroke="#74838f"  stroke-width="2.0"  d="M 498.3544303797469 206.0 L 498.3544303797469 214.0" />
        <text x="498.3544303797469" font-family="-apple-system, system-ui, BlinkMacSystemFont, Roboto" y="216.0" dominant-baseline="hanging" text-anchor="middle" font-size="12" fill="#24292f">Oct 2022</text>
    
        
        <path stroke="#74838f"  stroke-width="2.0"  d="M 558.7848101265823 206.0 L 558.7848101265823 214.0" />
        <text x="558.7848101265823" font-family="-apple-system, system-ui, BlinkMacSystemFont, Roboto" y="216.0" dominant-baseline="hanging" text-anchor="middle" font-size="12" fill="#24292f">Nov 2022</text>
    
        
        <path stroke="#74838f"  stroke-width="2.0"  d="M 617.2658227848102 206.0 L 617.2658227848102 214.0" />
        <text x="617.2658227848102" font-family="-apple-system, system-ui, BlinkMacSystemFont, Roboto" y="216.0" dominant-baseline="hanging" text-anchor="middle" font-size="12" fill="#24292f">Dec 2022</text>
    
        
        <path stroke="#74838f"  stroke-width="2.0"  d="M 677.6962025316456 206.0 L 677.6962025316456 214.0" />
        <text x="677.6962025316456" font-family="-apple-system, system-ui, BlinkMacSystemFont, Roboto" y="216.0" dominant-baseline="hanging" text-anchor="middle" font-size="12" fill="#24292f">Jan 2023</text>
    
        
        <path stroke="#74838f"  stroke-width="2.0"  d="M 738.126582278481 206.0 L 738.126582278481 214.0" />
        <text x="738.126582278481" font-family="-apple-system, system-ui, BlinkMacSystemFont, Roboto" y="216.0" dominant-baseline="hanging" text-anchor="middle" font-size="12" fill="#24292f">Feb 2023</text>
    
        
        <path stroke="#74838f"  stroke-width="2.0"  d="M 792.7088607594936 206.0 L 792.7088607594936 214.0" />
        <text x="792.7088607594936" font-family="-apple-system, system-ui, BlinkMacSystemFont, Roboto" y="216.0" dominant-baseline="hanging" text-anchor="middle" font-size="12" fill="#24292f">Mar 2023</text>
    
        
        <path stroke="#74838f"  stroke-width="2.0"  d="M 853.1392405063292 206.0 L 853.1392405063292 214.0" />
        <text x="853.1392405063292" font-family="-apple-system, system-ui, BlinkMacSystemFont, Roboto" y="216.0" dominant-baseline="hanging" text-anchor="middle" font-size="12" fill="#24292f">Apr 2023</text>
    
        
        <path stroke="#74838f"  stroke-width="2.0"  d="M 911.620253164557 206.0 L 911.620253164557 214.0" />
        <text x="911.620253164557" font-family="-apple-system, system-ui, BlinkMacSystemFont, Roboto" y="216.0" dominant-baseline="hanging" text-anchor="middle" font-size="12" fill="#24292f">May 2023</text>
    
        
        <path stroke="#74838f"  stroke-width="2.0"  d="M 972.0506329113924 206.0 L 972.0506329113924 214.0" />
        <text x="972.0506329113924" font-family="-apple-system, system-ui, BlinkMacSystemFont, Roboto" y="216.0" dominant-baseline="hanging" text-anchor="middle" font-size="12" fill="#24292f">Jun 2023</text>
    
    <path stroke="#74838f"   stroke-linejoin="round" stroke-width="2.0" d="M 50.0 216.0 L 50.0 206.0 L 974.0 206.0 L 974.0 216.0"  fill="none" />
    <text x="512.0" y="25.0" font-family="-apple-system, system-ui, BlinkMacSystemFont, Roboto" dominant-baseline="middle" text-anchor="middle" font-size="18" fill="#24292f">Total daily screen name changes</text>
</svg>
