<?xml version="1.0" standalone="no"?>
<svg width="1024.0" height="256.0"  viewBox="0 0 1024.0 256.0" preserveAspectRatio="xMidYMid meet" xmlns="http://www.w3.org/2000/svg">
    <path stroke="#3498db" stroke-linejoin="round" d="M 50.0 203.3394909090909 L 50 203.3394909090909L 53 202.32974545454545L 56 196.86690909090908L 59 195.94792727272727L 62 202.14254545454546L 65 197.35476363636363L 68 191.76145454545454L 71 179.96218181818182L 74 204.09396363636364L 77 194.17236363636363L 80 192.61803636363635L 83 195.1253818181818L 86 193.92843636363637L 89 182.2482909090909L 92 200.86618181818181L 95 201.45614545454546L 98 178.89003636363637L 101 197.33774545454546L 104 198.50065454545455L 107 200.41803636363636L 110 201.18385454545455L 113 202.26734545454545L 116 195.09134545454546L 119 198.08087272727272L 122 183.38850909090908L 125 197.47389090909093L 128 202.01774545454546L 131 194.66021818181818L 134 200.75272727272727L 137 200.00392727272728L 140 201.97236363636364L 143 204.2754909090909L 146 201.74545454545455L 149 201.01367272727273L 152 174.7829818181818L 155 195.76072727272728L 158 204.0032L 161 203.7309090909091L 164 197.87665454545453L 167 202.60770909090908L 170 202.6928L 173 197.55898181818182L 176 186.5141818181818L 179 199.26647272727274L 182 199.5728L 185 193.4802909090909L 188 199.10763636363635L 191 201.54690909090908L 194 201.5696L 197 195.06865454545454L 200 201.70007272727273L 203 197.2866909090909L 206 172.35505454545455L 209 203.20901818181818L 212 199.6749090909091L 215 193.12858181818183L 218 196.8896L 221 199.78836363636364L 224 198.82967272727274L 227 204.1336727272727L 230 202.57934545454546L 233 198.9261090909091L 236 206L 239 204.128L 242 192.1245090909091L 245 206L 248 206L 251 206L 254 206L 257 197.37178181818183L 260 199.57847272727273L 263 188.9024L 266 195.02894545454546L 269 191.20552727272727L 272 166.8128L 275 203.8386909090909L 278 198.09221818181817L 281 201.64334545454545L 284 202.2957090909091L 287 203.22036363636363L 290 200.66763636363635L 293 191.51185454545455L 296 189.18603636363636L 299 203.86705454545455L 302 197.56465454545454L 305 187.32538181818182L 308 201.2349090909091L 311 200.44639999999998L 314 201.4618181818182L 317 201.09876363636363L 320 201.17818181818183L 323 193.02647272727273L 326 198.8069818181818L 329 203.39054545454545L 332 200.30458181818182L 335 198.35883636363636L 338 193.3101090909091L 341 200.56552727272728L 344 203.03883636363636L 347 197.22996363636364L 350 201.95534545454547L 353 196.016L 356 202.30705454545455L 359 199.91316363636363L 362 194.62050909090908L 365 201.29163636363637L 368 202.98778181818182L 371 203.5437090909091L 374 200.60523636363638L 377 195.5621818181818L 380 203.24305454545456L 383 200.15709090909093L 386 198.46661818181818L 389 201.70007272727273L 392 200.70734545454545L 395 200.4293818181818L 398 201.76814545454545L 401 204.6442181818182L 404 206L 407 196.35636363636365L 410 199.21541818181817L 413 156.87418181818182L 416 165.1506909090909L 419 204.1733818181818L 422 202.17658181818183L 425 199.31185454545454L 428 198.7842909090909L 431 202.6757818181818L 434 202.8573090909091L 437 196.1861818181818L 440 199.64654545454545L 443 198.2056727272727L 446 201.2178909090909L 449 201.79083636363637L 452 201.90429090909092L 455 200.1968L 458 195.17076363636363L 461 206L 464 206L 467 206L 470 191.4834909090909L 473 197.79723636363636L 476 198.85236363636363L 479 199.76L 482 200.03796363636363L 485 200.76407272727272L 488 201.80785454545455L 491 191.63098181818182L 494 194.41061818181817L 497 199.88479999999998L 500 152.63098181818182L 503 197.04843636363637L 506 194.4730181818182L 509 155.90414545454547L 512 91.60945454545454L 515 104.5376L 518 151.17876363636364L 521 185.1981090909091L 524 142.76610909090908L 527 125.0672L 530 123.74545454545455L 533 157.99738181818182L 536 53.56814545454546L 539 50.78850909090909L 542 100.02210909090908L 545 156.2445090909091L 548 180.31956363636363L 551 192.43650909090908L 554 193.63912727272728L 557 193.3328L 560 192.11316363636365L 563 197.93338181818183L 566 191.5629090909091L 569 198.7672727272727L 572 199.3005090909091L 575 201.64901818181818L 578 200.58821818181818L 581 202.43752727272727L 584 200.73003636363637L 587 189.7703272727273L 590 203.17498181818183L 593 200.48610909090908L 596 185.1810909090909L 599 187.88698181818182L 602 191.01832727272728L 605 192.31738181818181L 608 177.09745454545455L 611 167.91330909090908L 614 179.30981818181817L 617 186.49716363636364L 620 150.34487272727273L 623 184.27345454545454L 626 199.5104L 629 161.24785454545454L 632 155.49003636363636L 635 176.96130909090908L 638 190.30923636363636L 641 193.50865454545453L 644 201.72843636363638L 647 185.22647272727272L 650 192.03374545454545L 653 192.66909090909093L 656 180.18341818181818L 659 194.5013818181818L 662 194.6829090909091L 665 201.85323636363637L 668 196.2032L 671 204.49105454545455L 674 191.55723636363638L 677 180.36494545454545L 680 193.02647272727273L 683 186.20785454545455L 686 191.72741818181817L 689 191.4834909090909L 692 196.63432727272726L 695 200.7810909090909L 698 176.26923636363637L 701 165.78036363636363L 704 181.82850909090908L 707 160.6976L 710 163.93105454545454L 713 182.10647272727272L 716 130.808L 719 190.49643636363635L 722 202.0914909090909L 725 184.09192727272728L 728 197.50225454545455L 731 187.54094545454547L 734 192.95272727272726L 737 201.88727272727272L 740 184.33585454545454L 743 183.04814545454545L 746 182.36741818181818L 749 182.54327272727272L 752 186.38938181818182L 755 174.3858909090909L 758 183.1786181818182L 761 183.5133090909091L 764 184.60247272727273L 767 186.968L 770 170.00087272727274L 773 167.8338909090909L 776 203.32247272727273L 779 206L 782 128.43112727272728L 785 183.2637090909091L 788 156.8685090909091L 791 183.15592727272727L 794 183.2013090909091L 797 182.25963636363636L 800 170.18807272727273L 803 186.86589090909092L 806 183.77425454545454L 809 186.29861818181817L 812 184.17134545454545L 815 184.9655272727273L 818 178.1696L 821 180.70530909090908L 824 170.80072727272727L 827 177.99374545454546L 830 175.99127272727273L 833 173.75621818181818L 836 175.45803636363638L 839 196.91796363636365L 842 150.30516363636363L 845 167.34036363636363L 848 174.52203636363637L 851 132.05599999999998L 854 144.8309818181818L 857 173.60872727272726L 860 151.91054545454546L 863 194.03621818181819L 866 160.59549090909093L 869 206L 872 153.43650909090908L 875 181.01163636363637L 878 181.6413090909091L 881 182.49221818181817L 884 183.08785454545455L 887 206L 890 151.86516363636363L 893 172.45716363636365L 896 169.20669090909092L 899 178.22065454545455L 902 175.54312727272728L 905 177.61367272727273L 908 181.0173090909091L 911 176.80814545454547L 914 167.8962909090909L 917 167.1248L 920 176.62094545454545L 923 158.63272727272727L 926 151.3602909090909L 929 173.35345454545455L 932 206L 935 206L 938 206L 941 206L 944 206L 947 206L 950 206L 953 206L 956 206L 959 206L 962 206L 965 206L 968 206L 971 206L 974 206" stroke-width="2.0" fill="none" />
    
        
        
        <text x="45.0" font-family="-apple-system, system-ui, BlinkMacSystemFont, Roboto" y="50.0" dominant-baseline="middle" text-anchor="end" font-size="12" fill="#24292f">27500.0</text>
        
            
            <path stroke="#74838f" stroke-dasharray="10 6" stroke-width="0.5"  d="M 50.0 50.0 L 974.0 50.0" />
        
    
        
        
        <text x="45.0" font-family="-apple-system, system-ui, BlinkMacSystemFont, Roboto" y="81.2" dominant-baseline="middle" text-anchor="end" font-size="12" fill="#24292f">22000.0</text>
        
            
            
            <path stroke="#74838f" stroke-dasharray="10 6" stroke-width="0.5"  d="M 50.0 81.2 L 974.0 81.2" />
        
    
        
        
        <text x="45.0" font-family="-apple-system, system-ui, BlinkMacSystemFont, Roboto" y="112.4" dominant-baseline="middle" text-anchor="end" font-size="12" fill="#24292f">16500.0</text>
        
            
            
            <path stroke="#74838f" stroke-dasharray="10 6" stroke-width="0.5"  d="M 50.0 112.4 L 974.0 112.4" />
        
    
        
        
        <text x="45.0" font-family="-apple-system, system-ui, BlinkMacSystemFont, Roboto" y="143.6" dominant-baseline="middle" text-anchor="end" font-size="12" fill="#24292f">11000.0</text>
        
            
            
            <path stroke="#74838f" stroke-dasharray="10 6" stroke-width="0.5"  d="M 50.0 143.6 L 974.0 143.6" />
        
    
        
        
        <text x="45.0" font-family="-apple-system, system-ui, BlinkMacSystemFont, Roboto" y="174.8" dominant-baseline="middle" text-anchor="end" font-size="12" fill="#24292f">5500.0</text>
        
            
            
            <path stroke="#74838f" stroke-dasharray="10 6" stroke-width="0.5"  d="M 50.0 174.8 L 974.0 174.8" />
        
    
        
        
        <text x="45.0" font-family="-apple-system, system-ui, BlinkMacSystemFont, Roboto" y="206.0" dominant-baseline="middle" text-anchor="end" font-size="12" fill="#24292f">0.0</text>
        
    
    
        
        <path stroke="#74838f"  stroke-width="2.0"  d="M 98.0 206.0 L 98.0 214.0" />
        <text x="98.0" font-family="-apple-system, system-ui, BlinkMacSystemFont, Roboto" y="216.0" dominant-baseline="hanging" text-anchor="middle" font-size="12" fill="#24292f">Mar 2022</text>
    
        
        <path stroke="#74838f"  stroke-width="2.0"  d="M 191.0 206.0 L 191.0 214.0" />
        <text x="191.0" font-family="-apple-system, system-ui, BlinkMacSystemFont, Roboto" y="216.0" dominant-baseline="hanging" text-anchor="middle" font-size="12" fill="#24292f">Apr 2022</text>
    
        
        <path stroke="#74838f"  stroke-width="2.0"  d="M 281.0 206.0 L 281.0 214.0" />
        <text x="281.0" font-family="-apple-system, system-ui, BlinkMacSystemFont, Roboto" y="216.0" dominant-baseline="hanging" text-anchor="middle" font-size="12" fill="#24292f">May 2022</text>
    
        
        <path stroke="#74838f"  stroke-width="2.0"  d="M 374.0 206.0 L 374.0 214.0" />
        <text x="374.0" font-family="-apple-system, system-ui, BlinkMacSystemFont, Roboto" y="216.0" dominant-baseline="hanging" text-anchor="middle" font-size="12" fill="#24292f">Jun 2022</text>
    
        
        <path stroke="#74838f"  stroke-width="2.0"  d="M 464.0 206.0 L 464.0 214.0" />
        <text x="464.0" font-family="-apple-system, system-ui, BlinkMacSystemFont, Roboto" y="216.0" dominant-baseline="hanging" text-anchor="middle" font-size="12" fill="#24292f">Jul 2022</text>
    
        
        <path stroke="#74838f"  stroke-width="2.0"  d="M 557.0 206.0 L 557.0 214.0" />
        <text x="557.0" font-family="-apple-system, system-ui, BlinkMacSystemFont, Roboto" y="216.0" dominant-baseline="hanging" text-anchor="middle" font-size="12" fill="#24292f">Aug 2022</text>
    
        
        <path stroke="#74838f"  stroke-width="2.0"  d="M 650.0 206.0 L 650.0 214.0" />
        <text x="650.0" font-family="-apple-system, system-ui, BlinkMacSystemFont, Roboto" y="216.0" dominant-baseline="hanging" text-anchor="middle" font-size="12" fill="#24292f">Sep 2022</text>
    
        
        <path stroke="#74838f"  stroke-width="2.0"  d="M 740.0 206.0 L 740.0 214.0" />
        <text x="740.0" font-family="-apple-system, system-ui, BlinkMacSystemFont, Roboto" y="216.0" dominant-baseline="hanging" text-anchor="middle" font-size="12" fill="#24292f">Oct 2022</text>
    
        
        <path stroke="#74838f"  stroke-width="2.0"  d="M 833.0 206.0 L 833.0 214.0" />
        <text x="833.0" font-family="-apple-system, system-ui, BlinkMacSystemFont, Roboto" y="216.0" dominant-baseline="hanging" text-anchor="middle" font-size="12" fill="#24292f">Nov 2022</text>
    
        
        <path stroke="#74838f"  stroke-width="2.0"  d="M 923.0 206.0 L 923.0 214.0" />
        <text x="923.0" font-family="-apple-system, system-ui, BlinkMacSystemFont, Roboto" y="216.0" dominant-baseline="hanging" text-anchor="middle" font-size="12" fill="#24292f">Dec 2022</text>
    
    <path stroke="#74838f"   stroke-linejoin="round" stroke-width="2.0" d="M 50.0 216.0 L 50.0 206.0 L 974.0 206.0 L 974.0 216.0"  fill="none" />
    <text x="512.0" y="25.0" font-family="-apple-system, system-ui, BlinkMacSystemFont, Roboto" dominant-baseline="middle" text-anchor="middle" font-size="18" fill="#24292f">Total daily screen name changes</text>
</svg>
