<?xml version="1.0" standalone="no"?>
<svg width="1024.0" height="256.0"  viewBox="0 0 1024.0 256.0" preserveAspectRatio="xMidYMid meet" xmlns="http://www.w3.org/2000/svg">
    <path stroke="#3498db" stroke-linejoin="round" d="M 50.0 203.3394909090909 L 50 203.3394909090909L 52.28148148148148 202.32974545454545L 54.56296296296296 196.86690909090908L 56.84444444444445 195.94792727272727L 59.12592592592593 202.14254545454546L 61.407407407407405 197.35476363636363L 63.68888888888889 191.76145454545454L 65.97037037037038 179.96218181818182L 68.25185185185185 204.09396363636364L 70.53333333333333 194.17236363636363L 72.81481481481481 192.61803636363635L 75.09629629629629 195.1253818181818L 77.37777777777778 193.92843636363637L 79.65925925925926 182.2482909090909L 81.94074074074074 200.86618181818181L 84.22222222222223 201.45614545454546L 86.5037037037037 178.89003636363637L 88.78518518518518 197.33774545454546L 91.06666666666666 198.50065454545455L 93.34814814814814 200.41803636363636L 95.62962962962962 201.18385454545455L 97.91111111111111 202.26734545454545L 100.19259259259259 195.09134545454546L 102.47407407407408 198.08087272727272L 104.75555555555556 183.38850909090908L 107.03703703703704 197.47389090909093L 109.31851851851852 202.01774545454546L 111.6 194.66021818181818L 113.88148148148147 200.75272727272727L 116.16296296296296 200.00392727272728L 118.44444444444444 201.97236363636364L 120.72592592592594 204.2754909090909L 123.0074074074074 201.74545454545455L 125.28888888888889 201.01367272727273L 127.57037037037037 174.7829818181818L 129.85185185185185 195.76072727272728L 132.13333333333333 204.0032L 134.4148148148148 203.7309090909091L 136.69629629629628 197.87665454545453L 138.97777777777776 202.60770909090908L 141.25925925925924 202.6928L 143.54074074074074 197.55898181818182L 145.82222222222222 186.5141818181818L 148.10370370370373 199.26647272727274L 150.38518518518518 199.5728L 152.66666666666666 193.4802909090909L 154.94814814814816 199.10763636363635L 157.22962962962964 201.54690909090908L 159.51111111111112 201.5696L 161.7925925925926 195.06865454545454L 164.07407407407408 201.70007272727273L 166.35555555555555 197.2866909090909L 168.63703703703703 172.35505454545455L 170.9185185185185 203.20901818181818L 173.2 199.6749090909091L 175.48148148148147 193.12858181818183L 177.76296296296294 196.8896L 180.04444444444445 199.78836363636364L 182.32592592592593 198.82967272727274L 184.6074074074074 204.1336727272727L 186.88888888888889 202.57934545454546L 189.1703703703704 198.9261090909091L 191.45185185185187 206L 193.73333333333335 204.128L 196.0148148148148 192.1245090909091L 198.29629629629628 206L 200.57777777777778 206L 202.85925925925926 206L 205.14074074074074 206L 207.42222222222222 197.37178181818183L 209.7037037037037 199.57847272727273L 211.9851851851852 188.9024L 214.26666666666668 195.02894545454546L 216.54814814814816 191.20552727272727L 218.82962962962964 166.8128L 221.11111111111111 203.8386909090909L 223.3925925925926 198.09221818181817L 225.67407407407407 201.64334545454545L 227.95555555555555 202.2957090909091L 230.23703703703703 203.22036363636363L 232.5185185185185 200.66763636363635L 234.8 191.51185454545455L 237.0814814814815 189.18603636363636L 239.36296296296297 203.86705454545455L 241.64444444444445 197.56465454545454L 243.92592592592592 187.32538181818182L 246.20740740740743 201.2349090909091L 248.48888888888888 200.44639999999998L 250.77037037037036 201.4618181818182L 253.05185185185184 201.09876363636363L 255.33333333333331 201.17818181818183L 257.61481481481485 193.02647272727273L 259.8962962962963 198.8069818181818L 262.1777777777778 203.39054545454545L 264.4592592592593 200.30458181818182L 266.74074074074076 198.35883636363636L 269.02222222222224 193.3101090909091L 271.3037037037037 200.56552727272728L 273.5851851851852 203.03883636363636L 275.8666666666667 197.22996363636364L 278.14814814814815 201.95534545454547L 280.42962962962963 196.016L 282.7111111111111 202.30705454545455L 284.9925925925926 199.91316363636363L 287.27407407407406 194.62050909090908L 289.55555555555554 201.29163636363637L 291.837037037037 202.98778181818182L 294.1185185185185 203.5437090909091L 296.4 200.60523636363638L 298.6814814814815 195.5621818181818L 300.96296296296293 203.24305454545456L 303.2444444444444 200.15709090909093L 305.5259259259259 198.46661818181818L 307.8074074074074 201.70007272727273L 310.0888888888889 200.70734545454545L 312.3703703703704 200.4293818181818L 314.65185185185186 201.76814545454545L 316.9333333333333 204.6442181818182L 319.2148148148148 206L 321.4962962962963 196.35636363636365L 323.77777777777777 199.21541818181817L 326.05925925925925 156.87418181818182L 328.3407407407408 165.1506909090909L 330.6222222222222 204.1733818181818L 332.90370370370374 202.17658181818183L 335.18518518518516 199.31185454545454L 337.4666666666667 198.7842909090909L 339.7481481481482 202.6757818181818L 342.0296296296296 202.8573090909091L 344.31111111111113 196.1861818181818L 346.59259259259255 199.64654545454545L 348.8740740740741 198.2056727272727L 351.15555555555557 201.2178909090909L 353.43703703703704 201.79083636363637L 355.7185185185185 201.90429090909092L 358 200.1968L 360.2814814814815 195.17076363636363L 362.562962962963 206L 364.84444444444443 206L 367.1259259259259 206L 369.4074074074074 191.4834909090909L 371.68888888888887 197.79723636363636L 373.9703703703704 198.85236363636363L 376.2518518518518 199.76L 378.53333333333336 200.03796363636363L 380.8148148148148 200.76407272727272L 383.0962962962963 201.80785454545455L 385.3777777777778 191.63098181818182L 387.6592592592593 194.41061818181817L 389.94074074074075 199.88479999999998L 392.22222222222223 152.63098181818182L 394.5037037037037 197.04843636363637L 396.7851851851852 194.4730181818182L 399.06666666666666 155.90414545454547L 401.34814814814814 91.60945454545454L 403.6296296296296 104.5376L 405.9111111111111 151.17876363636364L 408.19259259259263 185.1981090909091L 410.47407407407405 142.76610909090908L 412.7555555555556 125.0672L 415.037037037037 123.74545454545455L 417.31851851851854 157.99738181818182L 419.6 53.56814545454546L 421.88148148148144 50.78850909090909L 424.162962962963 100.02210909090908L 426.4444444444444 156.2445090909091L 428.72592592592594 180.31956363636363L 431.0074074074074 192.43650909090908L 433.2888888888889 193.63912727272728L 435.57037037037037 193.3328L 437.85185185185185 192.11316363636365L 440.1333333333333 197.93338181818183L 442.41481481481486 191.5629090909091L 444.6962962962963 198.7672727272727L 446.97777777777776 199.3005090909091L 449.25925925925924 201.64901818181818L 451.5407407407407 200.58821818181818L 453.82222222222225 202.43752727272727L 456.1037037037037 200.73003636363637L 458.3851851851852 189.7703272727273L 460.66666666666663 203.17498181818183L 462.94814814814816 200.48610909090908L 465.22962962962964 185.1810909090909L 467.5111111111111 187.88698181818182L 469.7925925925926 191.01832727272728L 472.0740740740741 192.31738181818181L 474.35555555555555 177.09745454545455L 476.63703703703703 167.91330909090908L 478.9185185185185 179.30981818181817L 481.2 186.49716363636364L 483.48148148148147 150.34487272727273L 485.76296296296294 184.27345454545454L 488.0444444444445 199.5104L 490.3259259259259 161.24785454545454L 492.60740740740744 155.49003636363636L 494.88888888888886 176.96130909090908L 497.1703703703704 190.30923636363636L 499.45185185185187 193.50865454545453L 501.7333333333333 201.72843636363638L 504.0148148148148 185.22647272727272L 506.29629629629625 192.03374545454545L 508.5777777777778 192.66909090909093L 510.85925925925926 180.18341818181818L 513.1407407407407 194.5013818181818L 515.4222222222222 194.6829090909091L 517.7037037037037 201.85323636363637L 519.9851851851852 196.2032L 522.2666666666667 204.49105454545455L 524.5481481481481 191.55723636363638L 526.8296296296296 180.36494545454545L 529.1111111111111 193.02647272727273L 531.3925925925926 186.20785454545455L 533.674074074074 191.72741818181817L 535.9555555555555 191.4834909090909L 538.237037037037 196.63432727272726L 540.5185185185185 200.7810909090909L 542.8 176.26923636363637L 545.0814814814814 165.78036363636363L 547.362962962963 181.82850909090908L 549.6444444444444 160.6976L 551.9259259259259 163.93105454545454L 554.2074074074075 182.10647272727272L 556.4888888888888 130.808L 558.7703703703703 190.49643636363635L 561.0518518518518 202.0914909090909L 563.3333333333334 184.09192727272728L 565.6148148148148 197.50225454545455L 567.8962962962962 187.54094545454547L 570.1777777777778 192.95272727272726L 572.4592592592593 201.88727272727272L 574.7407407407408 184.33585454545454L 577.0222222222222 183.04814545454545L 579.3037037037037 182.36741818181818L 581.5851851851852 182.54327272727272L 583.8666666666666 186.38938181818182L 586.1481481481482 174.3858909090909L 588.4296296296296 183.1786181818182L 590.7111111111111 183.5133090909091L 592.9925925925926 184.60247272727273L 595.2740740740741 186.968L 597.5555555555555 170.00087272727274L 599.8370370370371 167.8338909090909L 602.1185185185185 203.32247272727273L 604.4 206L 606.6814814814816 128.43112727272728L 608.9629629629629 183.2637090909091L 611.2444444444444 156.8685090909091L 613.5259259259259 183.15592727272727L 615.8074074074075 183.2013090909091L 618.0888888888888 182.25963636363636L 620.3703703703703 170.18807272727273L 622.6518518518519 186.86589090909092L 624.9333333333334 183.77425454545454L 627.2148148148148 186.29861818181817L 629.4962962962964 184.17134545454545L 631.7777777777778 184.9655272727273L 634.0592592592592 178.1696L 636.3407407407407 180.70530909090908L 638.6222222222223 170.80072727272727L 640.9037037037037 177.99374545454546L 643.1851851851851 175.99127272727273L 645.4666666666667 173.75621818181818L 647.7481481481482 175.45803636363638L 650.0296296296297 196.91796363636365L 652.3111111111111 150.30516363636363L 654.5925925925926 167.34036363636363L 656.8740740740741 174.52203636363637L 659.1555555555556 132.05599999999998L 661.437037037037 144.8309818181818L 663.7185185185185 173.60872727272726L 666 151.91054545454546L 668.2814814814815 194.03621818181819L 670.562962962963 160.59549090909093L 672.8444444444444 206L 675.125925925926 153.43650909090908L 677.4074074074074 181.01163636363637L 679.6888888888889 181.6413090909091L 681.9703703703703 182.49221818181817L 684.2518518518518 183.08785454545455L 686.5333333333333 206L 688.8148148148148 151.86516363636363L 691.0962962962964 172.45716363636365L 693.3777777777777 169.20669090909092L 695.6592592592592 178.22065454545455L 697.9407407407408 175.54312727272728L 700.2222222222223 177.61367272727273L 702.5037037037036 181.0173090909091L 704.7851851851851 176.80814545454547L 707.0666666666667 167.8962909090909L 709.3481481481482 167.1248L 711.6296296296296 176.62094545454545L 713.9111111111112 158.63272727272727L 716.1925925925926 151.3602909090909L 718.474074074074 173.35345454545455L 720.7555555555556 206L 723.0370370370371 206L 725.3185185185185 206L 727.5999999999999 206L 729.8814814814815 206L 732.162962962963 206L 734.4444444444445 206L 736.7259259259259 206L 739.0074074074074 206L 741.2888888888889 206L 743.5703703703704 206L 745.8518518518518 206L 748.1333333333333 206L 750.4148148148148 206L 752.6962962962963 206L 754.9777777777778 206L 757.2592592592592 206L 759.5407407407408 206L 761.8222222222222 206L 764.1037037037037 206L 766.3851851851853 206L 768.6666666666666 206L 770.9481481481481 206L 773.2296296296296 206L 775.5111111111112 206L 777.7925925925925 206L 780.074074074074 206L 782.3555555555556 206L 784.6370370370371 206L 786.9185185185185 206L 789.2 206L 791.4814814814815 206L 793.7629629629629 206L 796.0444444444445 206L 798.325925925926 206L 800.6074074074074 206L 802.8888888888888 206L 805.1703703703704 206L 807.4518518518519 206L 809.7333333333333 206L 812.0148148148148 206L 814.2962962962963 206L 816.5777777777778 206L 818.8592592592593 206L 821.1407407407407 206L 823.4222222222222 206L 825.7037037037037 206L 827.9851851851852 206L 830.2666666666667 206L 832.5481481481481 206L 834.8296296296297 206L 837.1111111111111 206L 839.3925925925926 206L 841.6740740740742 206L 843.9555555555555 206L 846.237037037037 206L 848.5185185185185 206L 850.8000000000001 206L 853.0814814814814 206L 855.3629629629629 206L 857.6444444444445 206L 859.925925925926 206L 862.2074074074073 206L 864.4888888888889 206L 866.7703703703704 206L 869.0518518518519 206L 871.3333333333333 206L 873.6148148148148 206L 875.8962962962963 206L 878.1777777777777 206L 880.4592592592593 206L 882.7407407407408 206L 885.0222222222222 206L 887.3037037037037 206L 889.5851851851852 206L 891.8666666666667 206L 894.1481481481482 206L 896.4296296296296 206L 898.7111111111111 206L 900.9925925925926 206L 903.2740740740741 206L 905.5555555555555 206L 907.837037037037 206L 910.1185185185186 206L 912.4 206L 914.6814814814815 206L 916.9629629629629 206L 919.2444444444444 206L 921.5259259259259 206L 923.8074074074074 206L 926.088888888889 206L 928.3703703703703 206L 930.6518518518518 206L 932.9333333333334 206L 935.2148148148149 206L 937.4962962962962 206L 939.7777777777777 206L 942.0592592592593 206L 944.3407407407408 206L 946.6222222222221 206L 948.9037037037037 206L 951.1851851851852 206L 953.4666666666666 206L 955.7481481481482 206L 958.0296296296297 206L 960.3111111111111 206L 962.5925925925925 206L 964.8740740740741 206L 967.1555555555556 206L 969.437037037037 206L 971.7185185185185 206L 974 206" stroke-width="2.0" fill="none" />
    
        
        
        <text x="45.0" font-family="-apple-system, system-ui, BlinkMacSystemFont, Roboto" y="50.0" dominant-baseline="middle" text-anchor="end" font-size="12" fill="#24292f">27500.0</text>
        
            
            <path stroke="#74838f" stroke-dasharray="10 6" stroke-width="0.5"  d="M 50.0 50.0 L 974.0 50.0" />
        
    
        
        
        <text x="45.0" font-family="-apple-system, system-ui, BlinkMacSystemFont, Roboto" y="81.2" dominant-baseline="middle" text-anchor="end" font-size="12" fill="#24292f">22000.0</text>
        
            
            
            <path stroke="#74838f" stroke-dasharray="10 6" stroke-width="0.5"  d="M 50.0 81.2 L 974.0 81.2" />
        
    
        
        
        <text x="45.0" font-family="-apple-system, system-ui, BlinkMacSystemFont, Roboto" y="112.4" dominant-baseline="middle" text-anchor="end" font-size="12" fill="#24292f">16500.0</text>
        
            
            
            <path stroke="#74838f" stroke-dasharray="10 6" stroke-width="0.5"  d="M 50.0 112.4 L 974.0 112.4" />
        
    
        
        
        <text x="45.0" font-family="-apple-system, system-ui, BlinkMacSystemFont, Roboto" y="143.6" dominant-baseline="middle" text-anchor="end" font-size="12" fill="#24292f">11000.0</text>
        
            
            
            <path stroke="#74838f" stroke-dasharray="10 6" stroke-width="0.5"  d="M 50.0 143.6 L 974.0 143.6" />
        
    
        
        
        <text x="45.0" font-family="-apple-system, system-ui, BlinkMacSystemFont, Roboto" y="174.8" dominant-baseline="middle" text-anchor="end" font-size="12" fill="#24292f">5500.0</text>
        
            
            
            <path stroke="#74838f" stroke-dasharray="10 6" stroke-width="0.5"  d="M 50.0 174.8 L 974.0 174.8" />
        
    
        
        
        <text x="45.0" font-family="-apple-system, system-ui, BlinkMacSystemFont, Roboto" y="206.0" dominant-baseline="middle" text-anchor="end" font-size="12" fill="#24292f">0.0</text>
        
    
    
        
        <path stroke="#74838f"  stroke-width="2.0"  d="M 86.5037037037037 206.0 L 86.5037037037037 214.0" />
        <text x="86.5037037037037" font-family="-apple-system, system-ui, BlinkMacSystemFont, Roboto" y="216.0" dominant-baseline="hanging" text-anchor="middle" font-size="12" fill="#24292f">Mar 2022</text>
    
        
        <path stroke="#74838f"  stroke-width="2.0"  d="M 157.22962962962964 206.0 L 157.22962962962964 214.0" />
        <text x="157.22962962962964" font-family="-apple-system, system-ui, BlinkMacSystemFont, Roboto" y="216.0" dominant-baseline="hanging" text-anchor="middle" font-size="12" fill="#24292f">Apr 2022</text>
    
        
        <path stroke="#74838f"  stroke-width="2.0"  d="M 225.67407407407407 206.0 L 225.67407407407407 214.0" />
        <text x="225.67407407407407" font-family="-apple-system, system-ui, BlinkMacSystemFont, Roboto" y="216.0" dominant-baseline="hanging" text-anchor="middle" font-size="12" fill="#24292f">May 2022</text>
    
        
        <path stroke="#74838f"  stroke-width="2.0"  d="M 296.4 206.0 L 296.4 214.0" />
        <text x="296.4" font-family="-apple-system, system-ui, BlinkMacSystemFont, Roboto" y="216.0" dominant-baseline="hanging" text-anchor="middle" font-size="12" fill="#24292f">Jun 2022</text>
    
        
        <path stroke="#74838f"  stroke-width="2.0"  d="M 364.84444444444443 206.0 L 364.84444444444443 214.0" />
        <text x="364.84444444444443" font-family="-apple-system, system-ui, BlinkMacSystemFont, Roboto" y="216.0" dominant-baseline="hanging" text-anchor="middle" font-size="12" fill="#24292f">Jul 2022</text>
    
        
        <path stroke="#74838f"  stroke-width="2.0"  d="M 435.57037037037037 206.0 L 435.57037037037037 214.0" />
        <text x="435.57037037037037" font-family="-apple-system, system-ui, BlinkMacSystemFont, Roboto" y="216.0" dominant-baseline="hanging" text-anchor="middle" font-size="12" fill="#24292f">Aug 2022</text>
    
        
        <path stroke="#74838f"  stroke-width="2.0"  d="M 506.29629629629625 206.0 L 506.29629629629625 214.0" />
        <text x="506.29629629629625" font-family="-apple-system, system-ui, BlinkMacSystemFont, Roboto" y="216.0" dominant-baseline="hanging" text-anchor="middle" font-size="12" fill="#24292f">Sep 2022</text>
    
        
        <path stroke="#74838f"  stroke-width="2.0"  d="M 574.7407407407408 206.0 L 574.7407407407408 214.0" />
        <text x="574.7407407407408" font-family="-apple-system, system-ui, BlinkMacSystemFont, Roboto" y="216.0" dominant-baseline="hanging" text-anchor="middle" font-size="12" fill="#24292f">Oct 2022</text>
    
        
        <path stroke="#74838f"  stroke-width="2.0"  d="M 645.4666666666667 206.0 L 645.4666666666667 214.0" />
        <text x="645.4666666666667" font-family="-apple-system, system-ui, BlinkMacSystemFont, Roboto" y="216.0" dominant-baseline="hanging" text-anchor="middle" font-size="12" fill="#24292f">Nov 2022</text>
    
        
        <path stroke="#74838f"  stroke-width="2.0"  d="M 713.9111111111112 206.0 L 713.9111111111112 214.0" />
        <text x="713.9111111111112" font-family="-apple-system, system-ui, BlinkMacSystemFont, Roboto" y="216.0" dominant-baseline="hanging" text-anchor="middle" font-size="12" fill="#24292f">Dec 2022</text>
    
        
        <path stroke="#74838f"  stroke-width="2.0"  d="M 784.6370370370371 206.0 L 784.6370370370371 214.0" />
        <text x="784.6370370370371" font-family="-apple-system, system-ui, BlinkMacSystemFont, Roboto" y="216.0" dominant-baseline="hanging" text-anchor="middle" font-size="12" fill="#24292f">Jan 2023</text>
    
        
        <path stroke="#74838f"  stroke-width="2.0"  d="M 855.3629629629629 206.0 L 855.3629629629629 214.0" />
        <text x="855.3629629629629" font-family="-apple-system, system-ui, BlinkMacSystemFont, Roboto" y="216.0" dominant-baseline="hanging" text-anchor="middle" font-size="12" fill="#24292f">Feb 2023</text>
    
        
        <path stroke="#74838f"  stroke-width="2.0"  d="M 919.2444444444444 206.0 L 919.2444444444444 214.0" />
        <text x="919.2444444444444" font-family="-apple-system, system-ui, BlinkMacSystemFont, Roboto" y="216.0" dominant-baseline="hanging" text-anchor="middle" font-size="12" fill="#24292f">Mar 2023</text>
    
    <path stroke="#74838f"   stroke-linejoin="round" stroke-width="2.0" d="M 50.0 216.0 L 50.0 206.0 L 974.0 206.0 L 974.0 216.0"  fill="none" />
    <text x="512.0" y="25.0" font-family="-apple-system, system-ui, BlinkMacSystemFont, Roboto" dominant-baseline="middle" text-anchor="middle" font-size="18" fill="#24292f">Total daily screen name changes</text>
</svg>
