<?xml version="1.0" standalone="no"?>
<svg width="1024.0" height="256.0"  viewBox="0 0 1024.0 256.0" preserveAspectRatio="xMidYMid meet" xmlns="http://www.w3.org/2000/svg">
    <path stroke="#3498db" stroke-linejoin="round" d="M 50.0 203.92378181818182 L 50 203.92378181818182L 53.59533073929961 203.10690909090908L 57.190661478599225 197.50225454545455L 60.78599221789884 196.19185454545453L 64.38132295719845 202.32974545454545L 67.97665369649806 197.45687272727272L 71.57198443579767 192.14152727272727L 75.16731517509727 179.9565090909091L 78.76264591439688 204.15636363636364L 82.3579766536965 194.15534545454545L 85.95330739299611 192.68043636363637L 89.54863813229572 195.1424L 93.14396887159533 193.92276363636364L 96.73929961089493 182.3504L 100.33463035019454 200.84916363636364L 103.92996108949416 201.66603636363635L 107.52529182879377 178.856L 111.12062256809338 197.53061818181817L 114.715953307393 198.56305454545455L 118.3112840466926 200.54850909090908L 121.90661478599222 201.2178909090909L 125.50194552529183 202.34676363636362L 129.09727626459144 195.23316363636363L 132.69260700389106 198.0752L 136.28793774319067 183.45090909090908L 139.88326848249028 197.60436363636364L 143.47859922178986 202.08014545454546L 147.0739299610895 194.6658909090909L 150.6692607003891 200.78676363636364L 154.26459143968873 200.10036363636362L 157.8599221789883 201.97803636363636L 161.45525291828795 204.78036363636363L 165.05058365758754 201.89294545454544L 168.64591439688715 201.02501818181818L 172.24124513618676 175.22545454545454L 175.83657587548637 195.78341818181818L 179.431906614786 204.0032L 183.0272373540856 203.76494545454545L 186.6225680933852 197.88232727272728L 190.21789883268482 202.61905454545456L 193.81322957198444 202.9197090909091L 197.40856031128405 197.59869090909092L 201.00389105058366 186.4914909090909L 204.59922178988325 199.28916363636364L 208.1945525291829 199.68625454545455L 211.78988326848247 193.5824L 215.3852140077821 199.18705454545454L 218.9805447470817 201.5696L 222.57587548638134 201.62065454545456L 226.17120622568092 195.1424L 229.76653696498056 201.73978181818183L 233.36186770428014 197.27534545454546L 236.95719844357976 172.36072727272727L 240.55252918287937 203.20334545454546L 244.14785992217898 199.74865454545454L 247.7431906614786 193.1229090909091L 251.3385214007782 196.96334545454545L 254.93385214007782 199.87345454545454L 258.52918287937746 198.824L 262.12451361867704 204.128L 265.7198443579766 202.78356363636362L 269.31517509727627 198.90341818181818L 272.9105058365759 206L 276.5058365758755 204.128L 280.1011673151751 192.10749090909093L 283.69649805447466 206L 287.2918287937743 206L 290.88715953307394 206L 294.4824902723735 206L 298.0778210116731 197.35476363636363L 301.67315175097275 199.55578181818183L 305.2684824902724 188.88538181818183L 308.863813229572 195.42036363636362L 312.45914396887156 191.19418181818182L 316.0544747081712 166.75607272727274L 319.64980544747084 203.93512727272727L 323.2451361867704 198.09221818181817L 326.84046692607 201.6944L 330.43579766536965 202.2957090909091L 334.0311284046693 203.28276363636363L 337.6264591439689 200.68465454545455L 341.22178988326846 191.59127272727272L 344.8171206225681 189.18036363636364L 348.41245136186774 203.88974545454545L 352.0077821011673 197.5362909090909L 355.6031128404669 187.5069090909091L 359.1984435797665 201.2576L 362.7937743190662 200.44072727272726L 366.3891050583658 201.4618181818182L 369.98443579766536 201.09876363636363L 373.57976653696494 201.26327272727272L 377.17509727626464 192.99810909090908L 380.7704280155642 198.79563636363636L 384.3657587548638 203.39054545454545L 387.9610894941634 200.30458181818182L 391.55642023346303 198.70487272727274L 395.15175097276267 193.30443636363637L 398.74708171206225 200.54850909090908L 402.34241245136184 203.02749090909091L 405.9377431906615 197.39447272727273L 409.5330739299611 201.95534545454547L 413.1284046692607 196.14647272727274L 416.7237354085603 202.36378181818182L 420.3190661478599 199.95854545454546L 423.9143968871595 194.73396363636363L 427.50972762645915 201.28029090909092L 431.10505836575874 203.05585454545454L 434.7003891050584 203.53803636363637L 438.29571984435796 200.65061818181817L 441.8910505836576 195.56785454545454L 445.4863813229572 203.3962181818182L 449.0817120622568 200.20247272727272L 452.6770428015564 198.4496L 456.27237354085605 201.70007272727273L 459.86770428015564 200.7981090909091L 463.4630350194553 200.45207272727274L 467.05836575875486 201.74545454545455L 470.65369649805444 204.6442181818182L 474.2490272373541 206L 477.8443579766537 196.46414545454547L 481.4396887159533 199.18705454545454L 485.0350194552529 156.7664L 488.63035019455253 165.0656L 492.2256809338522 204.38327272727273L 495.82101167315176 202.16523636363638L 499.41634241245134 199.3061818181818L 503.0116731517509 198.92043636363636L 506.6070038910506 202.7154909090909L 510.2023346303502 202.84596363636365L 513.7976653696498 196.1861818181818L 517.3929961089493 199.70894545454547L 520.988326848249 198.19432727272726L 524.5836575875486 201.21221818181817L 528.1789883268483 201.9213090909091L 531.7743190661479 201.88727272727272L 535.3696498054475 200.17978181818182L 538.964980544747 195.31825454545455L 542.5603112840467 206L 546.1556420233462 206L 549.7509727626459 206L 553.3463035019455 191.4608L 556.9416342412452 197.91636363636363L 560.5369649805448 198.90341818181818L 564.1322957198444 199.78269090909092L 567.727626459144 200.14574545454545L 571.3229571984435 200.76407272727272L 574.9182879377431 201.80785454545455L 578.5136186770428 191.63665454545455L 582.1089494163424 194.45032727272726L 585.7042801556421 199.87912727272726L 589.2996108949417 152.4834909090909L 592.8949416342413 197.26967272727273L 596.4902723735408 194.4333090909091L 600.0856031128404 155.87578181818182L 603.68093385214 91.34850909090909L 607.2762645914397 104.38443636363637L 610.8715953307393 151.09934545454547L 614.466926070039 185.27185454545454L 618.0622568093386 142.6413090909091L 621.6575875486382 124.93105454545454L 625.2529182879377 123.58661818181817L 628.8482490272373 157.87258181818183L 632.4435797665369 53.23912727272727L 636.0389105058365 50.41410909090908L 639.6342412451362 99.75549090909091L 643.2295719844359 156.09701818181819L 646.8249027237355 180.2912L 650.4202334630351 192.40814545454546L 654.0155642023346 193.76392727272727L 657.6108949416342 193.3101090909091L 661.2062256809338 192.11883636363638L 664.8015564202334 197.94472727272728L 668.396887159533 191.54021818181818L 671.9922178988327 198.7445818181818L 675.5875486381324 199.31752727272726L 679.182879377432 201.64334545454545L 682.7782101167315 200.5712L 686.3735408560311 202.49992727272726L 689.9688715953307 200.72436363636365L 693.5642023346303 190.13905454545454L 697.1595330739299 203.16930909090908L 700.7548638132296 200.4690909090909L 704.3501945525293 185.12436363636363L 707.9455252918289 188.05149090909092L 711.5408560311284 190.96727272727273L 715.136186770428 192.29469090909092L 718.7315175097276 177.01236363636363L 722.3268482490272 167.79985454545454L 725.9221789883268 179.30981818181817L 729.5175097276265 186.3837090909091L 733.1128404669261 150.06123636363637L 736.7081712062258 184.29614545454547L 740.3035019455253 199.58414545454545L 743.8988326848249 161.16843636363637L 747.4941634241245 155.58647272727274L 751.0894941634241 176.91592727272726L 754.6848249027237 190.29221818181819L 758.2801556420234 193.53134545454546L 761.875486381323 201.6944L 765.4708171206225 185.22647272727272L 769.0661478599222 192.03941818181818L 772.6614785992218 192.7314909090909L 776.2568093385214 180.15505454545453L 779.852140077821 194.52974545454546L 783.4474708171206 194.71694545454545L 787.0428015564203 201.86458181818182L 790.6381322957199 196.18050909090908L 794.2334630350194 204.50807272727272L 797.828793774319 191.5856L 801.4241245136187 180.31956363636363L 805.0194552529183 192.97541818181818L 808.6147859922179 186.23621818181817L 812.2101167315175 191.71607272727272L 815.8054474708172 191.45512727272728L 819.4007782101168 196.63432727272726L 822.9961089494163 200.8605090909091L 826.5914396887159 176.24654545454547L 830.1867704280155 165.6442181818182L 833.7821011673152 181.73207272727274L 837.3774319066148 160.41963636363636L 840.9727626459144 163.6928L 844.5680933852141 182.01003636363637L 848.1634241245137 130.55272727272728L 851.7587548638132 190.44538181818183L 855.3540856031128 202.08014545454546L 858.9494163424124 184.04087272727273L 862.5447470817121 197.4909090909091L 866.1400778210117 187.54094545454547L 869.7354085603113 192.96974545454546L 873.330739299611 201.91563636363637L 876.9260700389106 184.38123636363636L 880.5214007782101 187.1949090909091L 884.1167315175097 182.15752727272726L 887.7120622568093 182.32203636363636L 891.3073929961089 186.30429090909092L 894.9027237354086 174.1816727272727L 898.4980544747082 183.0368L 902.0933852140079 183.42821818181818L 905.6887159533075 184.42661818181818L 909.284046692607 186.93963636363637L 912.8793774319066 169.68887272727272L 916.4747081712062 168.67912727272727L 920.0700389105058 203.31112727272728L 923.6653696498054 206L 927.2607003891051 127.78443636363637L 930.8560311284048 183.0992L 934.4513618677043 156.42036363636362L 938.0466926070039 182.8325818181818L 941.6420233463035 183.0368L 945.2373540856031 182.23127272727274L 948.8326848249027 169.82501818181817L 952.4280155642023 186.6786909090909L 956.0233463035019 183.42821818181818L 959.6186770428017 186.0546909090909L 963.2140077821012 183.93876363636363L 966.8093385214008 184.48334545454546L 970.4046692607004 203.504L 974 206" stroke-width="2.0" fill="none" />
    
        
        
        <text x="45.0" font-family="-apple-system, system-ui, BlinkMacSystemFont, Roboto" y="50.0" dominant-baseline="middle" text-anchor="end" font-size="12" fill="#24292f">27500.0</text>
        
            
            <path stroke="#74838f" stroke-dasharray="10 6" stroke-width="0.5"  d="M 50.0 50.0 L 974.0 50.0" />
        
    
        
        
        <text x="45.0" font-family="-apple-system, system-ui, BlinkMacSystemFont, Roboto" y="81.2" dominant-baseline="middle" text-anchor="end" font-size="12" fill="#24292f">22000.0</text>
        
            
            
            <path stroke="#74838f" stroke-dasharray="10 6" stroke-width="0.5"  d="M 50.0 81.2 L 974.0 81.2" />
        
    
        
        
        <text x="45.0" font-family="-apple-system, system-ui, BlinkMacSystemFont, Roboto" y="112.4" dominant-baseline="middle" text-anchor="end" font-size="12" fill="#24292f">16500.0</text>
        
            
            
            <path stroke="#74838f" stroke-dasharray="10 6" stroke-width="0.5"  d="M 50.0 112.4 L 974.0 112.4" />
        
    
        
        
        <text x="45.0" font-family="-apple-system, system-ui, BlinkMacSystemFont, Roboto" y="143.6" dominant-baseline="middle" text-anchor="end" font-size="12" fill="#24292f">11000.0</text>
        
            
            
            <path stroke="#74838f" stroke-dasharray="10 6" stroke-width="0.5"  d="M 50.0 143.6 L 974.0 143.6" />
        
    
        
        
        <text x="45.0" font-family="-apple-system, system-ui, BlinkMacSystemFont, Roboto" y="174.8" dominant-baseline="middle" text-anchor="end" font-size="12" fill="#24292f">5500.0</text>
        
            
            
            <path stroke="#74838f" stroke-dasharray="10 6" stroke-width="0.5"  d="M 50.0 174.8 L 974.0 174.8" />
        
    
        
        
        <text x="45.0" font-family="-apple-system, system-ui, BlinkMacSystemFont, Roboto" y="206.0" dominant-baseline="middle" text-anchor="end" font-size="12" fill="#24292f">0.0</text>
        
    
    
        
        <path stroke="#74838f"  stroke-width="2.0"  d="M 107.52529182879377 206.0 L 107.52529182879377 214.0" />
        <text x="107.52529182879377" font-family="-apple-system, system-ui, BlinkMacSystemFont, Roboto" y="216.0" dominant-baseline="hanging" text-anchor="middle" font-size="12" fill="#24292f">Mar 2022</text>
    
        
        <path stroke="#74838f"  stroke-width="2.0"  d="M 218.9805447470817 206.0 L 218.9805447470817 214.0" />
        <text x="218.9805447470817" font-family="-apple-system, system-ui, BlinkMacSystemFont, Roboto" y="216.0" dominant-baseline="hanging" text-anchor="middle" font-size="12" fill="#24292f">Apr 2022</text>
    
        
        <path stroke="#74838f"  stroke-width="2.0"  d="M 326.84046692607 206.0 L 326.84046692607 214.0" />
        <text x="326.84046692607" font-family="-apple-system, system-ui, BlinkMacSystemFont, Roboto" y="216.0" dominant-baseline="hanging" text-anchor="middle" font-size="12" fill="#24292f">May 2022</text>
    
        
        <path stroke="#74838f"  stroke-width="2.0"  d="M 438.29571984435796 206.0 L 438.29571984435796 214.0" />
        <text x="438.29571984435796" font-family="-apple-system, system-ui, BlinkMacSystemFont, Roboto" y="216.0" dominant-baseline="hanging" text-anchor="middle" font-size="12" fill="#24292f">Jun 2022</text>
    
        
        <path stroke="#74838f"  stroke-width="2.0"  d="M 546.1556420233462 206.0 L 546.1556420233462 214.0" />
        <text x="546.1556420233462" font-family="-apple-system, system-ui, BlinkMacSystemFont, Roboto" y="216.0" dominant-baseline="hanging" text-anchor="middle" font-size="12" fill="#24292f">Jul 2022</text>
    
        
        <path stroke="#74838f"  stroke-width="2.0"  d="M 657.6108949416342 206.0 L 657.6108949416342 214.0" />
        <text x="657.6108949416342" font-family="-apple-system, system-ui, BlinkMacSystemFont, Roboto" y="216.0" dominant-baseline="hanging" text-anchor="middle" font-size="12" fill="#24292f">Aug 2022</text>
    
        
        <path stroke="#74838f"  stroke-width="2.0"  d="M 769.0661478599222 206.0 L 769.0661478599222 214.0" />
        <text x="769.0661478599222" font-family="-apple-system, system-ui, BlinkMacSystemFont, Roboto" y="216.0" dominant-baseline="hanging" text-anchor="middle" font-size="12" fill="#24292f">Sep 2022</text>
    
        
        <path stroke="#74838f"  stroke-width="2.0"  d="M 876.9260700389106 206.0 L 876.9260700389106 214.0" />
        <text x="876.9260700389106" font-family="-apple-system, system-ui, BlinkMacSystemFont, Roboto" y="216.0" dominant-baseline="hanging" text-anchor="middle" font-size="12" fill="#24292f">Oct 2022</text>
    
    <path stroke="#74838f"   stroke-linejoin="round" stroke-width="2.0" d="M 50.0 216.0 L 50.0 206.0 L 974.0 206.0 L 974.0 216.0"  fill="none" />
    <text x="512.0" y="25.0" font-family="-apple-system, system-ui, BlinkMacSystemFont, Roboto" dominant-baseline="middle" text-anchor="middle" font-size="18" fill="#24292f">Total daily screen name changes</text>
</svg>
