<?xml version="1.0" standalone="no"?>
<svg width="1024.0" height="256.0"  viewBox="0 0 1024.0 256.0" preserveAspectRatio="xMidYMid meet" xmlns="http://www.w3.org/2000/svg">
    <path stroke="#3498db" stroke-linejoin="round" d="M 50.0 203.3394909090909 L 50 203.3394909090909L 52.58100558659218 202.32974545454545L 55.16201117318436 196.86690909090908L 57.74301675977654 195.94792727272727L 60.324022346368714 202.14254545454546L 62.90502793296089 197.35476363636363L 65.48603351955308 191.76145454545454L 68.06703910614524 179.96218181818182L 70.64804469273743 204.09396363636364L 73.22905027932961 194.17236363636363L 75.81005586592178 192.61803636363635L 78.39106145251397 195.1253818181818L 80.97206703910615 193.92843636363637L 83.55307262569832 182.2482909090909L 86.1340782122905 200.86618181818181L 88.71508379888269 201.45614545454546L 91.29608938547486 178.89003636363637L 93.87709497206703 197.33774545454546L 96.45810055865923 198.50065454545455L 99.0391061452514 200.41803636363636L 101.62011173184356 201.18385454545455L 104.20111731843576 202.26734545454545L 106.78212290502793 195.09134545454546L 109.36312849162012 198.08087272727272L 111.94413407821229 183.38850909090908L 114.52513966480447 197.47389090909093L 117.10614525139665 202.01774545454546L 119.68715083798882 194.66021818181818L 122.26815642458101 200.75272727272727L 124.84916201117318 200.00392727272728L 127.43016759776536 201.97236363636364L 130.01117318435755 204.2754909090909L 132.59217877094972 201.74545454545455L 135.1731843575419 201.01367272727273L 137.75418994413405 174.7829818181818L 140.33519553072625 195.76072727272728L 142.91620111731845 204.0032L 145.49720670391062 203.7309090909091L 148.0782122905028 197.87665454545453L 150.659217877095 202.60770909090908L 153.24022346368713 202.6928L 155.82122905027933 197.55898181818182L 158.40223463687153 186.5141818181818L 160.98324022346367 199.26647272727274L 163.56424581005587 199.5728L 166.14525139664806 193.4802909090909L 168.72625698324023 199.10763636363635L 171.3072625698324 201.54690909090908L 173.88826815642457 201.5696L 176.46927374301674 195.06865454545454L 179.05027932960894 201.70007272727273L 181.6312849162011 197.2866909090909L 184.2122905027933 172.35505454545455L 186.79329608938548 203.20901818181818L 189.37430167597765 199.6749090909091L 191.95530726256985 193.12858181818183L 194.53631284916202 196.8896L 197.11731843575419 199.78836363636364L 199.69832402234636 198.82967272727274L 202.27932960893855 204.1336727272727L 204.86033519553072 202.57934545454546L 207.4413407821229 198.9261090909091L 210.0223463687151 206L 212.60335195530726 204.128L 215.18435754189946 192.1245090909091L 217.76536312849163 206L 220.3463687150838 206L 222.92737430167597 206L 225.50837988826814 206L 228.08938547486034 197.37178181818183L 230.6703910614525 199.57847272727273L 233.2513966480447 188.9024L 235.83240223463687 195.02894545454546L 238.41340782122904 191.20552727272727L 240.99441340782124 166.8128L 243.5754189944134 203.8386909090909L 246.15642458100558 198.09221818181817L 248.73743016759775 201.64334545454545L 251.31843575418995 202.2957090909091L 253.89944134078212 203.22036363636363L 256.48044692737426 200.66763636363635L 259.0614525139665 191.51185454545455L 261.64245810055866 189.18603636363636L 264.22346368715085 203.86705454545455L 266.80446927374305 197.56465454545454L 269.3854748603352 187.32538181818182L 271.96648044692733 201.2349090909091L 274.54748603351953 200.44639999999998L 277.12849162011173 201.4618181818182L 279.7094972067039 201.09876363636363L 282.2905027932961 201.17818181818183L 284.87150837988827 193.02647272727273L 287.45251396648047 198.8069818181818L 290.0335195530726 203.39054545454545L 292.6145251396648 200.30458181818182L 295.195530726257 198.35883636363636L 297.77653631284915 193.3101090909091L 300.35754189944134 200.56552727272728L 302.9385474860335 203.03883636363636L 305.51955307262574 197.22996363636364L 308.1005586592179 201.95534545454547L 310.6815642458101 196.016L 313.2625698324022 202.30705454545455L 315.8435754189944 199.91316363636363L 318.4245810055866 194.62050909090908L 321.00558659217876 201.29163636363637L 323.58659217877096 202.98778181818182L 326.1675977653631 203.5437090909091L 328.7486033519553 200.60523636363638L 331.3296089385475 195.5621818181818L 333.9106145251397 203.24305454545456L 336.49162011173183 200.15709090909093L 339.07262569832403 198.46661818181818L 341.6536312849162 201.70007272727273L 344.23463687150837 200.70734545454545L 346.81564245810057 200.4293818181818L 349.3966480446927 201.76814545454545L 351.9776536312849 204.6442181818182L 354.5586592178771 206L 357.1396648044693 196.35636363636365L 359.72067039106145 199.21541818181817L 362.30167597765364 156.87418181818182L 364.8826815642458 165.1506909090909L 367.463687150838 204.1733818181818L 370.0446927374302 202.17658181818183L 372.6256983240223 199.31185454545454L 375.2067039106145 198.7842909090909L 377.7877094972067 202.6757818181818L 380.3687150837989 202.8573090909091L 382.94972067039106 196.1861818181818L 385.53072625698326 199.64654545454545L 388.1117318435754 198.2056727272727L 390.6927374301676 201.2178909090909L 393.2737430167598 201.79083636363637L 395.85474860335194 201.90429090909092L 398.43575418994413 200.1968L 401.0167597765363 195.17076363636363L 403.59776536312853 206L 406.1787709497207 206L 408.75977653631287 206L 411.340782122905 191.4834909090909L 413.9217877094972 197.79723636363636L 416.5027932960894 198.85236363636363L 419.08379888268155 199.76L 421.66480446927375 200.03796363636363L 424.2458100558659 200.76407272727272L 426.8268156424581 201.80785454545455L 429.4078212290503 191.63098181818182L 431.9888268156425 194.41061818181817L 434.5698324022346 199.88479999999998L 437.1508379888268 152.63098181818182L 439.731843575419 197.04843636363637L 442.31284916201116 194.4730181818182L 444.89385474860336 155.90414545454547L 447.4748603351955 91.60945454545454L 450.0558659217877 104.5376L 452.6368715083799 151.17876363636364L 455.2178770949721 185.1981090909091L 457.79888268156424 142.76610909090908L 460.37988826815644 125.0672L 462.9608938547486 123.74545454545455L 465.5418994413408 157.99738181818182L 468.122905027933 53.56814545454546L 470.7039106145251 50.78850909090909L 473.2849162011173 100.02210909090908L 475.8659217877095 156.2445090909091L 478.4469273743017 180.31956363636363L 481.02793296089385 192.43650909090908L 483.60893854748605 193.63912727272728L 486.1899441340782 193.3328L 488.7709497206704 192.11316363636365L 491.3519553072626 197.93338181818183L 493.9329608938547 191.5629090909091L 496.5139664804469 198.7672727272727L 499.09497206703907 199.3005090909091L 501.6759776536313 201.64901818181818L 504.25698324022346 200.58821818181818L 506.83798882681566 202.43752727272727L 509.4189944134078 200.73003636363637L 512 189.7703272727273L 514.5810055865923 203.17498181818183L 517.1620111731844 200.48610909090908L 519.7430167597765 185.1810909090909L 522.3240223463687 187.88698181818182L 524.9050279329609 191.01832727272728L 527.4860335195531 192.31738181818181L 530.0670391061452 177.09745454545455L 532.6480446927374 167.91330909090908L 535.2290502793296 179.30981818181817L 537.8100558659219 186.49716363636364L 540.391061452514 150.34487272727273L 542.9720670391062 184.27345454545454L 545.5530726256983 199.5104L 548.1340782122904 161.24785454545454L 550.7150837988827 155.49003636363636L 553.2960893854748 176.96130909090908L 555.877094972067 190.30923636363636L 558.4581005586592 193.50865454545453L 561.0391061452515 201.72843636363638L 563.6201117318436 185.22647272727272L 566.2011173184358 192.03374545454545L 568.7821229050279 192.66909090909093L 571.3631284916202 180.18341818181818L 573.9441340782123 194.5013818181818L 576.5251396648044 194.6829090909091L 579.1061452513966 201.85323636363637L 581.6871508379888 196.2032L 584.268156424581 204.49105454545455L 586.8491620111732 191.55723636363638L 589.4301675977654 180.36494545454545L 592.0111731843575 193.02647272727273L 594.5921787709498 186.20785454545455L 597.1731843575419 191.72741818181817L 599.754189944134 191.4834909090909L 602.3351955307262 196.63432727272726L 604.9162011173185 200.7810909090909L 607.4972067039106 176.26923636363637L 610.0782122905028 165.78036363636363L 612.659217877095 181.82850909090908L 615.2402234636871 160.6976L 617.8212290502794 163.93105454545454L 620.4022346368715 182.10647272727272L 622.9832402234637 130.808L 625.5642458100558 190.49643636363635L 628.1452513966481 202.0914909090909L 630.7262569832402 184.09192727272728L 633.3072625698323 197.50225454545455L 635.8882681564246 187.54094545454547L 638.4692737430167 192.95272727272726L 641.050279329609 201.88727272727272L 643.6312849162011 184.33585454545454L 646.2122905027933 183.04814545454545L 648.7932960893854 182.36741818181818L 651.3743016759777 182.54327272727272L 653.9553072625698 186.38938181818182L 656.536312849162 174.3858909090909L 659.1173184357542 183.1786181818182L 661.6983240223464 183.5133090909091L 664.2793296089386 184.60247272727273L 666.8603351955308 186.968L 669.4413407821229 170.00087272727274L 672.022346368715 167.8338909090909L 674.6033519553073 203.32247272727273L 677.1843575418994 206L 679.7653631284916 128.43112727272728L 682.3463687150838 183.2637090909091L 684.927374301676 156.8685090909091L 687.5083798882682 183.15592727272727L 690.0893854748604 183.2013090909091L 692.6703910614525 182.25963636363636L 695.2513966480446 170.18807272727273L 697.8324022346369 186.86589090909092L 700.413407821229 183.77425454545454L 702.9944134078212 186.29861818181817L 705.5754189944134 184.17134545454545L 708.1564245810056 184.9655272727273L 710.7374301675978 178.1696L 713.31843575419 180.70530909090908L 715.8994413407821 170.80072727272727L 718.4804469273743 177.99374545454546L 721.0614525139665 175.99127272727273L 723.6424581005587 173.75621818181818L 726.2234636871508 175.45803636363638L 728.8044692737429 196.91796363636365L 731.3854748603352 150.30516363636363L 733.9664804469274 167.34036363636363L 736.5474860335196 174.52203636363637L 739.1284916201117 132.05599999999998L 741.7094972067039 144.8309818181818L 744.2905027932961 173.60872727272726L 746.8715083798883 151.91054545454546L 749.4525139664804 194.03621818181819L 752.0335195530726 160.59549090909093L 754.6145251396648 206L 757.1955307262571 153.43650909090908L 759.7765363128492 181.01163636363637L 762.3575418994413 181.6413090909091L 764.9385474860335 182.49221818181817L 767.5195530726257 183.08785454545455L 770.1005586592179 206L 772.68156424581 151.86516363636363L 775.2625698324022 172.45716363636365L 777.8435754189944 169.20669090909092L 780.4245810055866 178.22065454545455L 783.0055865921788 175.54312727272728L 785.586592178771 177.61367272727273L 788.1675977653631 181.0173090909091L 790.7486033519554 176.80814545454547L 793.3296089385475 167.8962909090909L 795.9106145251396 167.1248L 798.4916201117318 176.62094545454545L 801.072625698324 158.63272727272727L 803.6536312849162 151.3602909090909L 806.2346368715084 173.35345454545455L 808.8156424581006 206L 811.3966480446927 206L 813.977653631285 206L 816.5586592178771 206L 819.1396648044692 206L 821.7206703910614 206L 824.3016759776536 206L 826.8826815642458 206L 829.463687150838 206L 832.0446927374302 206L 834.6256983240223 206L 837.2067039106146 206L 839.7877094972067 206L 842.3687150837989 206L 844.949720670391 206L 847.5307262569833 206L 850.1117318435754 206L 852.6927374301677 206L 855.2737430167598 206L 857.8547486033519 206L 860.4357541899442 206L 863.0167597765363 206L 865.5977653631285 206L 868.1787709497206 206L 870.7597765363129 206L 873.340782122905 206L 875.9217877094972 206L 878.5027932960894 206L 881.0837988826815 206L 883.6648044692738 206L 886.245810055866 206L 888.8268156424581 206L 891.4078212290502 206L 893.9888268156425 206L 896.5698324022346 206L 899.1508379888268 206L 901.731843575419 206L 904.3128491620112 206L 906.8938547486034 206L 909.4748603351956 206L 912.0558659217877 206L 914.6368715083798 206L 917.2178770949721 206L 919.7988826815642 206L 922.3798882681564 206L 924.9608938547486 206L 927.5418994413408 206L 930.122905027933 206L 932.7039106145252 206L 935.2849162011173 206L 937.8659217877095 206L 940.4469273743017 206L 943.0279329608938 206L 945.608938547486 206L 948.1899441340781 206L 950.7709497206704 206L 953.3519553072626 206L 955.9329608938548 206L 958.5139664804469 206L 961.0949720670391 206L 963.6759776536313 206L 966.2569832402235 206L 968.8379888268156 206L 971.4189944134077 206L 974 206" stroke-width="2.0" fill="none" />
    
        
        
        <text x="45.0" font-family="-apple-system, system-ui, BlinkMacSystemFont, Roboto" y="50.0" dominant-baseline="middle" text-anchor="end" font-size="12" fill="#24292f">27500.0</text>
        
            
            <path stroke="#74838f" stroke-dasharray="10 6" stroke-width="0.5"  d="M 50.0 50.0 L 974.0 50.0" />
        
    
        
        
        <text x="45.0" font-family="-apple-system, system-ui, BlinkMacSystemFont, Roboto" y="81.2" dominant-baseline="middle" text-anchor="end" font-size="12" fill="#24292f">22000.0</text>
        
            
            
            <path stroke="#74838f" stroke-dasharray="10 6" stroke-width="0.5"  d="M 50.0 81.2 L 974.0 81.2" />
        
    
        
        
        <text x="45.0" font-family="-apple-system, system-ui, BlinkMacSystemFont, Roboto" y="112.4" dominant-baseline="middle" text-anchor="end" font-size="12" fill="#24292f">16500.0</text>
        
            
            
            <path stroke="#74838f" stroke-dasharray="10 6" stroke-width="0.5"  d="M 50.0 112.4 L 974.0 112.4" />
        
    
        
        
        <text x="45.0" font-family="-apple-system, system-ui, BlinkMacSystemFont, Roboto" y="143.6" dominant-baseline="middle" text-anchor="end" font-size="12" fill="#24292f">11000.0</text>
        
            
            
            <path stroke="#74838f" stroke-dasharray="10 6" stroke-width="0.5"  d="M 50.0 143.6 L 974.0 143.6" />
        
    
        
        
        <text x="45.0" font-family="-apple-system, system-ui, BlinkMacSystemFont, Roboto" y="174.8" dominant-baseline="middle" text-anchor="end" font-size="12" fill="#24292f">5500.0</text>
        
            
            
            <path stroke="#74838f" stroke-dasharray="10 6" stroke-width="0.5"  d="M 50.0 174.8 L 974.0 174.8" />
        
    
        
        
        <text x="45.0" font-family="-apple-system, system-ui, BlinkMacSystemFont, Roboto" y="206.0" dominant-baseline="middle" text-anchor="end" font-size="12" fill="#24292f">0.0</text>
        
    
    
        
        <path stroke="#74838f"  stroke-width="2.0"  d="M 91.29608938547486 206.0 L 91.29608938547486 214.0" />
        <text x="91.29608938547486" font-family="-apple-system, system-ui, BlinkMacSystemFont, Roboto" y="216.0" dominant-baseline="hanging" text-anchor="middle" font-size="12" fill="#24292f">Mar 2022</text>
    
        
        <path stroke="#74838f"  stroke-width="2.0"  d="M 171.3072625698324 206.0 L 171.3072625698324 214.0" />
        <text x="171.3072625698324" font-family="-apple-system, system-ui, BlinkMacSystemFont, Roboto" y="216.0" dominant-baseline="hanging" text-anchor="middle" font-size="12" fill="#24292f">Apr 2022</text>
    
        
        <path stroke="#74838f"  stroke-width="2.0"  d="M 248.73743016759775 206.0 L 248.73743016759775 214.0" />
        <text x="248.73743016759775" font-family="-apple-system, system-ui, BlinkMacSystemFont, Roboto" y="216.0" dominant-baseline="hanging" text-anchor="middle" font-size="12" fill="#24292f">May 2022</text>
    
        
        <path stroke="#74838f"  stroke-width="2.0"  d="M 328.7486033519553 206.0 L 328.7486033519553 214.0" />
        <text x="328.7486033519553" font-family="-apple-system, system-ui, BlinkMacSystemFont, Roboto" y="216.0" dominant-baseline="hanging" text-anchor="middle" font-size="12" fill="#24292f">Jun 2022</text>
    
        
        <path stroke="#74838f"  stroke-width="2.0"  d="M 406.1787709497207 206.0 L 406.1787709497207 214.0" />
        <text x="406.1787709497207" font-family="-apple-system, system-ui, BlinkMacSystemFont, Roboto" y="216.0" dominant-baseline="hanging" text-anchor="middle" font-size="12" fill="#24292f">Jul 2022</text>
    
        
        <path stroke="#74838f"  stroke-width="2.0"  d="M 486.1899441340782 206.0 L 486.1899441340782 214.0" />
        <text x="486.1899441340782" font-family="-apple-system, system-ui, BlinkMacSystemFont, Roboto" y="216.0" dominant-baseline="hanging" text-anchor="middle" font-size="12" fill="#24292f">Aug 2022</text>
    
        
        <path stroke="#74838f"  stroke-width="2.0"  d="M 566.2011173184358 206.0 L 566.2011173184358 214.0" />
        <text x="566.2011173184358" font-family="-apple-system, system-ui, BlinkMacSystemFont, Roboto" y="216.0" dominant-baseline="hanging" text-anchor="middle" font-size="12" fill="#24292f">Sep 2022</text>
    
        
        <path stroke="#74838f"  stroke-width="2.0"  d="M 643.6312849162011 206.0 L 643.6312849162011 214.0" />
        <text x="643.6312849162011" font-family="-apple-system, system-ui, BlinkMacSystemFont, Roboto" y="216.0" dominant-baseline="hanging" text-anchor="middle" font-size="12" fill="#24292f">Oct 2022</text>
    
        
        <path stroke="#74838f"  stroke-width="2.0"  d="M 723.6424581005587 206.0 L 723.6424581005587 214.0" />
        <text x="723.6424581005587" font-family="-apple-system, system-ui, BlinkMacSystemFont, Roboto" y="216.0" dominant-baseline="hanging" text-anchor="middle" font-size="12" fill="#24292f">Nov 2022</text>
    
        
        <path stroke="#74838f"  stroke-width="2.0"  d="M 801.072625698324 206.0 L 801.072625698324 214.0" />
        <text x="801.072625698324" font-family="-apple-system, system-ui, BlinkMacSystemFont, Roboto" y="216.0" dominant-baseline="hanging" text-anchor="middle" font-size="12" fill="#24292f">Dec 2022</text>
    
        
        <path stroke="#74838f"  stroke-width="2.0"  d="M 881.0837988826815 206.0 L 881.0837988826815 214.0" />
        <text x="881.0837988826815" font-family="-apple-system, system-ui, BlinkMacSystemFont, Roboto" y="216.0" dominant-baseline="hanging" text-anchor="middle" font-size="12" fill="#24292f">Jan 2023</text>
    
        
        <path stroke="#74838f"  stroke-width="2.0"  d="M 961.0949720670391 206.0 L 961.0949720670391 214.0" />
        <text x="961.0949720670391" font-family="-apple-system, system-ui, BlinkMacSystemFont, Roboto" y="216.0" dominant-baseline="hanging" text-anchor="middle" font-size="12" fill="#24292f">Feb 2023</text>
    
    <path stroke="#74838f"   stroke-linejoin="round" stroke-width="2.0" d="M 50.0 216.0 L 50.0 206.0 L 974.0 206.0 L 974.0 216.0"  fill="none" />
    <text x="512.0" y="25.0" font-family="-apple-system, system-ui, BlinkMacSystemFont, Roboto" dominant-baseline="middle" text-anchor="middle" font-size="18" fill="#24292f">Total daily screen name changes</text>
</svg>
