<?xml version="1.0" standalone="no"?>
<svg width="1024" height="256"  viewBox="0 0 1024 256" preserveAspectRatio="xMidYMid meet" xmlns="http://www.w3.org/2000/svg">
    <path stroke="#3498db" stroke-linejoin="round" d="M 50 204.81287804878048 L 50 204.81287804878048L 55.81132075471698 204.53131707317073L 61.62264150943396 196.82263414634147L 67.43396226415095 193.4819512195122L 73.24528301886792 201.63960975609757L 79.05660377358491 194.74517073170733L 84.86792452830188 188.18556097560975L 90.67924528301887 170.94946341463415L 96.49056603773585 203.68663414634148L 102.30188679245283 190.1108292682927L 108.11320754716982 188.17795121951218L 113.9245283018868 191.5110243902439L 119.73584905660377 189.73034146341462L 125.54716981132076 174.70868292682925L 131.35849056603774 199.0370731707317L 137.16981132075472 201.03082926829268L 142.9811320754717 169.5720975609756L 148.79245283018867 195.23219512195124L 154.60377358490567 196.35082926829267L 160.41509433962264 199.136L 166.22641509433964 199.60019512195123L 172.03773584905662 201.27434146341463L 177.8490566037736 191.7849756097561L 183.66037735849056 195.34634146341463L 189.47169811320754 175.78926829268292L 195.2830188679245 194.9278048780488L 201.0943396226415 200.86341463414635L 206.9056603773585 190.6967804878049L 212.71698113207546 199.0370731707317L 218.52830188679243 198.4130731707317L 224.33962264150944 200.71882926829267L 230.15094339622644 205.22380487804878L 235.9622641509434 200.81014634146342L 241.77358490566039 199.30341463414635L 247.58490566037736 165.67590243902438L 253.39622641509433 192.2948292682927L 259.20754716981133 203.35180487804877L 265.0188679245283 203.16156097560975L 270.8301886792453 195.07239024390245L 276.64150943396226 201.51024390243902L 282.4528301886793 202.36253658536586L 288.2641509433962 194.82126829268293L 294.07547169811323 179.80721951219513L 299.88679245283015 197.0889756097561L 305.6981132075472 197.88039024390244L 311.50943396226415 189.585756097561L 317.3207547169811 196.9748292682927L 323.1320754716981 200.07960975609757L 328.9433962264151 200.193756097561L 334.75471698113205 191.49580487804877L 340.566037735849 200.4600975609756L 346.377358490566 194.23531707317073L 352.188679245283 160.75239024390243L 358 202.23317073170733L 363.811320754717 198.00975609756097L 369.62264150943395 188.83239024390244L 375.4339622641509 194.00702439024388L 381.2452830188679 197.9869268292683L 387.05660377358487 196.39648780487806L 392.86792452830184 203.47356097560976L 398.6792452830189 202.05053658536585L 404.49056603773585 196.4421463414634L 410.3018867924529 206L 416.11320754716985 203.48117073170732L 421.9245283018868 187.23434146341464L 427.7358490566038 206L 433.54716981132077 206L 439.35849056603774 206L 445.1698113207547 206L 450.9811320754717 194.34946341463416L 456.79245283018867 197.30965853658537L 462.6037735849057 182.9728780487805L 468.41509433962267 192.66770731707317L 474.22641509433964 186.05482926829268L 480.0377358490566 152.98282926829268L 485.8490566037736 203.4887804878049L 491.66037735849056 195.38439024390243L 497.47169811320754 200.39160975609755L 503.2830188679245 201.00039024390244L 509.0943396226415 202.52995121951218L 514.9056603773586 198.9990243902439L 520.7169811320755 186.66360975609757L 526.5283018867924 183.4370731707317L 532.3396226415094 203.2300487804878L 538.1509433962265 194.59297560975608L 543.9622641509434 181.4661463414634L 549.7735849056603 199.7067317073171L 555.5849056603773 198.512L 561.3962264150944 199.83609756097562L 567.2075471698113 199.3871219512195L 573.0188679245283 199.95785365853658L 578.8301886792452 188.5127804878049L 584.6415094339623 196.2899512195122L 590.4528301886792 202.47668292682926L 596.2641509433962 198.30653658536585L 602.0754716981132 197.23356097560975L 607.8867924528302 188.9008780487805L 613.6981132075472 198.6489756097561L 619.5094339622641 202.00487804878048L 625.3207547169811 194.76039024390244L 631.132075471698 200.52858536585364L 636.9433962264151 193.0938536585366L 642.754716981132 201.30478048780486L 648.566037735849 197.91843902439024L 654.377358490566 191.1838048780488L 660.188679245283 199.6458536585366L 666 202.22556097560977L 671.8113207547169 202.66692682926828L 677.622641509434 198.8620487804878L 683.4339622641509 191.98282926829268L 689.2452830188679 202.89521951219513L 695.0566037735848 198.25326829268292L 700.8679245283018 195.78770731707317L 706.6792452830189 200.193756097561L 712.4905660377358 199.25014634146342L 718.3018867924528 198.633756097561L 724.1132075471697 200.26224390243902L 729.9245283018868 204.15843902439025L 735.7358490566037 206L 741.5471698113207 193.3069268292683L 747.3584905660377 196.80741463414634L 753.1698113207548 139.55160975609755L 758.9811320754717 150.65424390243902L 764.7924528301887 204.15843902439025L 770.6037735849058 200.81014634146342L 776.4150943396227 196.89873170731707L 782.2264150943397 196.76936585365854L 788.0377358490566 201.66243902439024L 793.8490566037736 201.74614634146343L 799.6603773584906 192.73619512195123L 805.4716981132076 197.68253658536585L 811.2830188679245 195.46048780487806L 817.0943396226415 199.5088780487805L 822.9056603773586 200.74926829268293L 828.7169811320755 200.44487804878048L 834.5283018867925 198.1239024390244L 840.3396226415094 191.76975609756096L 846.1509433962265 206L 851.9622641509434 206L 857.7735849056604 206L 863.5849056603773 186.22224390243903L 869.3962264150944 195.270243902439L 875.2075471698114 196.64L 881.0188679245283 197.68253658536585L 886.8301886792453 198.39785365853658L 892.6415094339623 198.9609756097561L 898.4528301886793 200.3459512195122L 904.2641509433962 186.67121951219514L 910.0754716981132 190.40760975609754L 915.8867924528302 197.69775609756098L 921.6981132075472 133.50185365853656L 927.5094339622642 194.4940487804878L 933.3207547169811 190.32390243902438L 939.1320754716982 138.26556097560976L 944.9433962264151 50.92839024390244L 950.7547169811321 68.75043902439023L 956.566037735849 131.79726829268293L 962.377358490566 178.21678048780487L 968.188679245283 120.26848780487805L 974 137.31434146341462" stroke-width="2.0" fill="none" />
    
        
        
        <text x="45" font-family="-apple-system, system-ui, BlinkMacSystemFont, Roboto" y="50" dominant-baseline="middle" text-anchor="end" font-size="12" fill="#24292f">20500</text>
        
            
            <path stroke="#74838f" stroke-dasharray="10 6" stroke-width="0.5"  d="M 50 50 L 974 50" />
        
    
        
        
        <text x="45" font-family="-apple-system, system-ui, BlinkMacSystemFont, Roboto" y="81.2" dominant-baseline="middle" text-anchor="end" font-size="12" fill="#24292f">16400</text>
        
            
            
            <path stroke="#74838f" stroke-dasharray="10 6" stroke-width="0.5"  d="M 50 81.2 L 974 81.2" />
        
    
        
        
        <text x="45" font-family="-apple-system, system-ui, BlinkMacSystemFont, Roboto" y="112.4" dominant-baseline="middle" text-anchor="end" font-size="12" fill="#24292f">12300</text>
        
            
            
            <path stroke="#74838f" stroke-dasharray="10 6" stroke-width="0.5"  d="M 50 112.4 L 974 112.4" />
        
    
        
        
        <text x="45" font-family="-apple-system, system-ui, BlinkMacSystemFont, Roboto" y="143.6" dominant-baseline="middle" text-anchor="end" font-size="12" fill="#24292f">8200</text>
        
            
            
            <path stroke="#74838f" stroke-dasharray="10 6" stroke-width="0.5"  d="M 50 143.6 L 974 143.6" />
        
    
        
        
        <text x="45" font-family="-apple-system, system-ui, BlinkMacSystemFont, Roboto" y="174.8" dominant-baseline="middle" text-anchor="end" font-size="12" fill="#24292f">4100</text>
        
            
            
            <path stroke="#74838f" stroke-dasharray="10 6" stroke-width="0.5"  d="M 50 174.8 L 974 174.8" />
        
    
        
        
        <text x="45" font-family="-apple-system, system-ui, BlinkMacSystemFont, Roboto" y="206" dominant-baseline="middle" text-anchor="end" font-size="12" fill="#24292f">0</text>
        
    
    
        
        <path stroke="#74838f"  stroke-width="2.0"  d="M 142.9811320754717 206 L 142.9811320754717 214" />
        <text x="142.9811320754717" font-family="-apple-system, system-ui, BlinkMacSystemFont, Roboto" y="216" dominant-baseline="hanging" text-anchor="middle" font-size="12" fill="#24292f">Mar 2022</text>
    
        
        <path stroke="#74838f"  stroke-width="2.0"  d="M 323.1320754716981 206 L 323.1320754716981 214" />
        <text x="323.1320754716981" font-family="-apple-system, system-ui, BlinkMacSystemFont, Roboto" y="216" dominant-baseline="hanging" text-anchor="middle" font-size="12" fill="#24292f">Apr 2022</text>
    
        
        <path stroke="#74838f"  stroke-width="2.0"  d="M 497.47169811320754 206 L 497.47169811320754 214" />
        <text x="497.47169811320754" font-family="-apple-system, system-ui, BlinkMacSystemFont, Roboto" y="216" dominant-baseline="hanging" text-anchor="middle" font-size="12" fill="#24292f">May 2022</text>
    
        
        <path stroke="#74838f"  stroke-width="2.0"  d="M 677.622641509434 206 L 677.622641509434 214" />
        <text x="677.622641509434" font-family="-apple-system, system-ui, BlinkMacSystemFont, Roboto" y="216" dominant-baseline="hanging" text-anchor="middle" font-size="12" fill="#24292f">Jun 2022</text>
    
        
        <path stroke="#74838f"  stroke-width="2.0"  d="M 851.9622641509434 206 L 851.9622641509434 214" />
        <text x="851.9622641509434" font-family="-apple-system, system-ui, BlinkMacSystemFont, Roboto" y="216" dominant-baseline="hanging" text-anchor="middle" font-size="12" fill="#24292f">Jul 2022</text>
    
    <path stroke="#74838f"   stroke-linejoin="round" stroke-width="2.0" d="M 50 216 L 50 206 L 974 206 L 974 216"  fill="none" />
    <text x="512" y="25" font-family="-apple-system, system-ui, BlinkMacSystemFont, Roboto" dominant-baseline="middle" text-anchor="middle" font-size="18" fill="#24292f">Total daily screen name changes</text>
</svg>
