<?xml version="1.0" standalone="no"?>
<svg width="1024.0" height="256.0"  viewBox="0 0 1024.0 256.0" preserveAspectRatio="xMidYMid meet" xmlns="http://www.w3.org/2000/svg">
    <path stroke="#3498db" stroke-linejoin="round" d="M 50.0 203.3394909090909 L 50 203.3394909090909L 52.19477434679335 202.32974545454545L 54.3895486935867 196.86690909090908L 56.58432304038005 195.94792727272727L 58.779097387173394 202.14254545454546L 60.973871733966746 197.35476363636363L 63.1686460807601 191.76145454545454L 65.36342042755345 179.96218181818182L 67.55819477434679 204.09396363636364L 69.75296912114014 194.17236363636363L 71.94774346793349 192.61803636363635L 74.14251781472684 195.1253818181818L 76.3372921615202 193.92843636363637L 78.53206650831353 182.2482909090909L 80.72684085510689 200.86618181818181L 82.92161520190024 201.45614545454546L 85.11638954869359 178.89003636363637L 87.31116389548694 197.33774545454546L 89.50593824228028 198.50065454545455L 91.70071258907363 200.41803636363636L 93.89548693586698 201.18385454545455L 96.09026128266032 202.26734545454545L 98.28503562945369 195.09134545454546L 100.47980997624703 198.08087272727272L 102.67458432304039 183.38850909090908L 104.86935866983373 197.47389090909093L 107.06413301662707 202.01774545454546L 109.25890736342043 194.66021818181818L 111.45368171021377 200.75272727272727L 113.64845605700711 200.00392727272728L 115.84323040380048 201.97236363636364L 118.03800475059381 204.2754909090909L 120.23277909738718 201.74545454545455L 122.42755344418052 201.01367272727273L 124.62232779097387 174.7829818181818L 126.81710213776722 195.76072727272728L 129.01187648456056 204.0032L 131.20665083135393 203.7309090909091L 133.40142517814726 197.87665454545453L 135.59619952494063 202.60770909090908L 137.79097387173397 202.6928L 139.9857482185273 197.55898181818182L 142.18052256532064 186.5141818181818L 144.375296912114 199.26647272727274L 146.57007125890738 199.5728L 148.7648456057007 193.4802909090909L 150.95961995249405 199.10763636363635L 153.1543942992874 201.54690909090908L 155.34916864608078 201.5696L 157.54394299287412 195.06865454545454L 159.73871733966746 201.70007272727273L 161.9334916864608 197.2866909090909L 164.12826603325414 172.35505454545455L 166.3230403800475 203.20901818181818L 168.51781472684087 199.6749090909091L 170.7125890736342 193.12858181818183L 172.90736342042754 196.8896L 175.1021377672209 199.78836363636364L 177.29691211401422 198.82967272727274L 179.49168646080759 204.1336727272727L 181.68646080760095 202.57934545454546L 183.88123515439432 198.9261090909091L 186.07600950118763 206L 188.270783847981 204.128L 190.46555819477436 192.1245090909091L 192.6603325415677 206L 194.85510688836104 206L 197.0498812351544 206L 199.24465558194774 206L 201.43942992874108 197.37178181818183L 203.63420427553444 199.57847272727273L 205.8289786223278 188.9024L 208.02375296912112 195.02894545454546L 210.21852731591449 191.20552727272727L 212.41330166270785 166.8128L 214.6080760095012 203.8386909090909L 216.80285035629453 198.09221818181817L 218.9976247030879 201.64334545454545L 221.19239904988123 202.2957090909091L 223.38717339667457 203.22036363636363L 225.58194774346794 200.66763636363635L 227.77672209026127 191.51185454545455L 229.97149643705464 189.18603636363636L 232.16627078384798 203.86705454545455L 234.36104513064132 197.56465454545454L 236.55581947743468 187.32538181818182L 238.75059382422802 201.2349090909091L 240.94536817102139 200.44639999999998L 243.14014251781472 201.4618181818182L 245.3349168646081 201.09876363636363L 247.52969121140143 201.17818181818183L 249.72446555819477 193.02647272727273L 251.91923990498813 198.8069818181818L 254.11401425178147 203.39054545454545L 256.3087885985748 200.30458181818182L 258.5035629453682 198.35883636363636L 260.69833729216157 193.3101090909091L 262.89311163895485 200.56552727272728L 265.08788598574824 203.03883636363636L 267.2826603325416 197.22996363636364L 269.4774346793349 201.95534545454547L 271.67220902612826 196.016L 273.8669833729216 202.30705454545455L 276.06175771971493 199.91316363636363L 278.25653206650827 194.62050909090908L 280.45130641330167 201.29163636363637L 282.646080760095 202.98778181818182L 284.8408551068884 203.5437090909091L 287.03562945368174 200.60523636363638L 289.2304038004751 195.5621818181818L 291.4251781472684 203.24305454545456L 293.61995249406175 200.15709090909093L 295.8147268408551 198.46661818181818L 298.0095011876484 201.70007272727273L 300.2042755344418 200.70734545454545L 302.3990498812352 200.4293818181818L 304.59382422802844 201.76814545454545L 306.78859857482183 204.6442181818182L 308.98337292161517 206L 311.17814726840857 196.35636363636365L 313.3729216152019 199.21541818181817L 315.56769596199524 156.87418181818182L 317.76247030878864 165.1506909090909L 319.9572446555819 204.1733818181818L 322.15201900237525 202.17658181818183L 324.34679334916865 199.31185454545454L 326.541567695962 198.7842909090909L 328.7363420427553 202.6757818181818L 330.9311163895487 202.8573090909091L 333.12589073634206 196.1861818181818L 335.3206650831354 199.64654545454545L 337.51543942992873 198.2056727272727L 339.71021377672207 201.2178909090909L 341.9049881235154 201.79083636363637L 344.0997624703088 201.90429090909092L 346.29453681710214 200.1968L 348.4893111638955 195.17076363636363L 350.6840855106888 206L 352.87885985748215 206L 355.07363420427555 206L 357.2684085510689 191.4834909090909L 359.4631828978622 197.79723636363636L 361.6579572446556 198.85236363636363L 363.85273159144896 199.76L 366.04750593824224 200.03796363636363L 368.24228028503563 200.76407272727272L 370.43705463182897 201.80785454545455L 372.6318289786223 191.63098181818182L 374.8266033254157 194.41061818181817L 377.02137767220904 199.88479999999998L 379.2161520190024 152.63098181818182L 381.4109263657957 197.04843636363637L 383.60570071258906 194.4730181818182L 385.8004750593824 155.90414545454547L 387.9952494061758 91.60945454545454L 390.1900237529691 104.5376L 392.38479809976246 151.17876363636364L 394.57957244655586 185.1981090909091L 396.77434679334914 142.76610909090908L 398.9691211401425 125.0672L 401.16389548693587 123.74545454545455L 403.3586698337292 157.99738181818182L 405.55344418052255 53.56814545454546L 407.74821852731594 50.78850909090909L 409.9429928741093 100.02210909090908L 412.13776722090256 156.2445090909091L 414.33254156769596 180.31956363636363L 416.5273159144893 192.43650909090908L 418.72209026128263 193.63912727272728L 420.916864608076 193.3328L 423.11163895486936 192.11316363636365L 425.3064133016627 197.93338181818183L 427.50118764845604 191.5629090909091L 429.6959619952494 198.7672727272727L 431.89073634204277 199.3005090909091L 434.0855106888361 201.64901818181818L 436.28028503562945 200.58821818181818L 438.47505938242284 202.43752727272727L 440.6698337292162 200.73003636363637L 442.86460807600946 189.7703272727273L 445.05938242280286 203.17498181818183L 447.2541567695962 200.48610909090908L 449.44893111638953 185.1810909090909L 451.6437054631829 187.88698181818182L 453.83847980997626 191.01832727272728L 456.0332541567696 192.31738181818181L 458.22802850356294 177.09745454545455L 460.4228028503563 167.91330909090908L 462.6175771971496 179.30981818181817L 464.812351543943 186.49716363636364L 467.00712589073635 150.34487272727273L 469.2019002375297 184.27345454545454L 471.3966745843231 199.5104L 473.59144893111636 161.24785454545454L 475.7862232779097 155.49003636363636L 477.9809976247031 176.96130909090908L 480.17577197149643 190.30923636363636L 482.37054631828977 193.50865454545453L 484.56532066508316 201.72843636363638L 486.7600950118765 185.22647272727272L 488.9548693586698 192.03374545454545L 491.1496437054632 192.66909090909093L 493.3444180522565 180.18341818181818L 495.53919239904985 194.5013818181818L 497.73396674584325 194.6829090909091L 499.9287410926366 201.85323636363637L 502.1235154394299 196.2032L 504.31828978622326 204.49105454545455L 506.5130641330166 191.55723636363638L 508.70783847981 180.36494545454545L 510.90261282660333 193.02647272727273L 513.0973871733967 186.20785454545455L 515.29216152019 191.72741818181817L 517.4869358669835 191.4834909090909L 519.6817102137768 196.63432727272726L 521.8764845605701 200.7810909090909L 524.0712589073635 176.26923636363637L 526.2660332541568 165.78036363636363L 528.4608076009501 181.82850909090908L 530.6555819477435 160.6976L 532.8503562945368 163.93105454545454L 535.0451306413302 182.10647272727272L 537.2399049881235 130.808L 539.4346793349168 190.49643636363635L 541.6294536817102 202.0914909090909L 543.8242280285035 184.09192727272728L 546.0190023752969 197.50225454545455L 548.2137767220903 187.54094545454547L 550.4085510688836 192.95272727272726L 552.603325415677 201.88727272727272L 554.7980997624704 184.33585454545454L 556.9928741092638 183.04814545454545L 559.1876484560569 182.36741818181818L 561.3824228028503 182.54327272727272L 563.5771971496437 186.38938181818182L 565.771971496437 174.3858909090909L 567.9667458432303 183.1786181818182L 570.1615201900238 183.5133090909091L 572.3562945368171 184.60247272727273L 574.5510688836105 186.968L 576.7458432304038 170.00087272727274L 578.9406175771971 167.8338909090909L 581.1353919239905 203.32247272727273L 583.3301662707839 206L 585.5249406175773 128.43112727272728L 587.7197149643706 183.2637090909091L 589.9144893111638 156.8685090909091L 592.1092636579572 183.15592727272727L 594.3040380047505 183.2013090909091L 596.498812351544 182.25963636363636L 598.6935866983373 170.18807272727273L 600.8883610451306 186.86589090909092L 603.083135391924 183.77425454545454L 605.2779097387173 186.29861818181817L 607.4726840855107 184.17134545454545L 609.6674584323041 184.9655272727273L 611.8622327790974 178.1696L 614.0570071258908 180.70530909090908L 616.2517814726841 170.80072727272727L 618.4465558194775 177.99374545454546L 620.6413301662708 175.99127272727273L 622.8361045130641 173.75621818181818L 625.0308788598575 175.45803636363638L 627.2256532066508 196.91796363636365L 629.4204275534441 150.30516363636363L 631.6152019002375 167.34036363636363L 633.8099762470308 174.52203636363637L 636.0047505938243 132.05599999999998L 638.1995249406176 144.8309818181818L 640.394299287411 173.60872727272726L 642.5890736342043 151.91054545454546L 644.7838479809976 194.03621818181819L 646.978622327791 160.59549090909093L 649.1733966745844 206L 651.3681710213776 153.43650909090908L 653.562945368171 181.01163636363637L 655.7577197149643 181.6413090909091L 657.9524940617576 182.49221818181817L 660.1472684085511 183.08785454545455L 662.3420427553444 206L 664.5368171021378 151.86516363636363L 666.7315914489311 172.45716363636365L 668.9263657957245 169.20669090909092L 671.1211401425178 178.22065454545455L 673.3159144893112 175.54312727272728L 675.5106888361046 177.61367272727273L 677.7054631828979 181.0173090909091L 679.9002375296913 176.80814545454547L 682.0950118764845 167.8962909090909L 684.2897862232778 167.1248L 686.4845605700713 176.62094545454545L 688.6793349168646 158.63272727272727L 690.8741092636579 151.3602909090909L 693.0688836104513 173.35345454545455L 695.2636579572446 206L 697.458432304038 206L 699.6532066508314 206L 701.8479809976247 206L 704.0427553444181 206L 706.2375296912114 206L 708.4323040380048 206L 710.6270783847981 206L 712.8218527315914 206L 715.0166270783848 206L 717.2114014251781 206L 719.4061757719714 206L 721.6009501187648 206L 723.7957244655582 206L 725.9904988123516 206L 728.1852731591449 206L 730.3800475059383 206L 732.5748218527316 206L 734.7695961995249 206L 736.9643705463184 206L 739.1591448931117 206L 741.353919239905 206L 743.5486935866983 206L 745.7434679334916 206L 747.938242280285 206L 750.1330166270784 206L 752.3277909738717 206L 754.5225653206651 206L 756.7173396674584 206L 758.9121140142518 206L 761.1068883610451 206L 763.3016627078385 206L 765.4964370546319 206L 767.6912114014252 206L 769.8859857482186 206L 772.0807600950119 206L 774.2755344418051 206L 776.4703087885986 206L 778.6650831353919 206L 780.8598574821852 206L 783.0546318289786 206L 785.2494061757719 206L 787.4441805225653 206L 789.6389548693587 206L 791.833729216152 206L 794.0285035629454 206L 796.2232779097387 206L 798.4180522565321 206L 800.6128266033254 206L 802.8076009501189 206L 805.0023752969121 206L 807.1971496437054 206L 809.3919239904988 206L 811.5866983372921 206L 813.7814726840855 206L 815.9762470308789 206L 818.1710213776722 206L 820.3657957244656 206L 822.5605700712589 206L 824.7553444180522 206L 826.9501187648457 206L 829.144893111639 206L 831.3396674584324 206L 833.5344418052257 206L 835.7292161520189 206L 837.9239904988123 206L 840.1187648456057 206L 842.313539192399 206L 844.5083135391924 206L 846.7030878859857 206L 848.8978622327791 206L 851.0926365795724 206L 853.2874109263659 206L 855.4821852731592 206L 857.6769596199525 206L 859.8717339667459 206L 862.0665083135392 206L 864.2612826603325 206L 866.4560570071259 206L 868.6508313539192 206L 870.8456057007126 206L 873.0403800475059 206L 875.2351543942992 206L 877.4299287410926 206L 879.624703087886 206L 881.8194774346794 206L 884.0142517814727 206L 886.209026128266 206L 888.4038004750594 206L 890.5985748218527 206L 892.7933491686462 206L 894.9881235154395 206L 897.1828978622327 206L 899.3776722090261 206L 901.5724465558194 206L 903.7672209026128 206L 905.9619952494062 206L 908.1567695961995 206L 910.3515439429929 206L 912.5463182897862 206L 914.7410926365795 206L 916.935866983373 206L 919.1306413301663 206L 921.3254156769597 206L 923.520190023753 206L 925.7149643705463 206L 927.9097387173396 206L 930.104513064133 206L 932.2992874109264 206L 934.4940617577197 206L 936.688836104513 206L 938.8836104513064 206L 941.0783847980997 206L 943.2731591448932 206L 945.4679334916865 206L 947.6627078384798 206L 949.8574821852732 206L 952.0522565320665 206L 954.2470308788598 206L 956.4418052256533 206L 958.6365795724465 206L 960.8313539192399 206L 963.0261282660332 206L 965.2209026128265 206L 967.41567695962 206L 969.6104513064133 206L 971.8052256532067 206L 974 206" stroke-width="2.0" fill="none" />
    
        
        
        <text x="45.0" font-family="-apple-system, system-ui, BlinkMacSystemFont, Roboto" y="50.0" dominant-baseline="middle" text-anchor="end" font-size="12" fill="#24292f">27500.0</text>
        
            
            <path stroke="#74838f" stroke-dasharray="10 6" stroke-width="0.5"  d="M 50.0 50.0 L 974.0 50.0" />
        
    
        
        
        <text x="45.0" font-family="-apple-system, system-ui, BlinkMacSystemFont, Roboto" y="81.2" dominant-baseline="middle" text-anchor="end" font-size="12" fill="#24292f">22000.0</text>
        
            
            
            <path stroke="#74838f" stroke-dasharray="10 6" stroke-width="0.5"  d="M 50.0 81.2 L 974.0 81.2" />
        
    
        
        
        <text x="45.0" font-family="-apple-system, system-ui, BlinkMacSystemFont, Roboto" y="112.4" dominant-baseline="middle" text-anchor="end" font-size="12" fill="#24292f">16500.0</text>
        
            
            
            <path stroke="#74838f" stroke-dasharray="10 6" stroke-width="0.5"  d="M 50.0 112.4 L 974.0 112.4" />
        
    
        
        
        <text x="45.0" font-family="-apple-system, system-ui, BlinkMacSystemFont, Roboto" y="143.6" dominant-baseline="middle" text-anchor="end" font-size="12" fill="#24292f">11000.0</text>
        
            
            
            <path stroke="#74838f" stroke-dasharray="10 6" stroke-width="0.5"  d="M 50.0 143.6 L 974.0 143.6" />
        
    
        
        
        <text x="45.0" font-family="-apple-system, system-ui, BlinkMacSystemFont, Roboto" y="174.8" dominant-baseline="middle" text-anchor="end" font-size="12" fill="#24292f">5500.0</text>
        
            
            
            <path stroke="#74838f" stroke-dasharray="10 6" stroke-width="0.5"  d="M 50.0 174.8 L 974.0 174.8" />
        
    
        
        
        <text x="45.0" font-family="-apple-system, system-ui, BlinkMacSystemFont, Roboto" y="206.0" dominant-baseline="middle" text-anchor="end" font-size="12" fill="#24292f">0.0</text>
        
    
    
        
        <path stroke="#74838f"  stroke-width="2.0"  d="M 85.11638954869359 206.0 L 85.11638954869359 214.0" />
        <text x="85.11638954869359" font-family="-apple-system, system-ui, BlinkMacSystemFont, Roboto" y="216.0" dominant-baseline="hanging" text-anchor="middle" font-size="12" fill="#24292f">Mar 2022</text>
    
        
        <path stroke="#74838f"  stroke-width="2.0"  d="M 153.1543942992874 206.0 L 153.1543942992874 214.0" />
        <text x="153.1543942992874" font-family="-apple-system, system-ui, BlinkMacSystemFont, Roboto" y="216.0" dominant-baseline="hanging" text-anchor="middle" font-size="12" fill="#24292f">Apr 2022</text>
    
        
        <path stroke="#74838f"  stroke-width="2.0"  d="M 218.9976247030879 206.0 L 218.9976247030879 214.0" />
        <text x="218.9976247030879" font-family="-apple-system, system-ui, BlinkMacSystemFont, Roboto" y="216.0" dominant-baseline="hanging" text-anchor="middle" font-size="12" fill="#24292f">May 2022</text>
    
        
        <path stroke="#74838f"  stroke-width="2.0"  d="M 287.03562945368174 206.0 L 287.03562945368174 214.0" />
        <text x="287.03562945368174" font-family="-apple-system, system-ui, BlinkMacSystemFont, Roboto" y="216.0" dominant-baseline="hanging" text-anchor="middle" font-size="12" fill="#24292f">Jun 2022</text>
    
        
        <path stroke="#74838f"  stroke-width="2.0"  d="M 352.87885985748215 206.0 L 352.87885985748215 214.0" />
        <text x="352.87885985748215" font-family="-apple-system, system-ui, BlinkMacSystemFont, Roboto" y="216.0" dominant-baseline="hanging" text-anchor="middle" font-size="12" fill="#24292f">Jul 2022</text>
    
        
        <path stroke="#74838f"  stroke-width="2.0"  d="M 420.916864608076 206.0 L 420.916864608076 214.0" />
        <text x="420.916864608076" font-family="-apple-system, system-ui, BlinkMacSystemFont, Roboto" y="216.0" dominant-baseline="hanging" text-anchor="middle" font-size="12" fill="#24292f">Aug 2022</text>
    
        
        <path stroke="#74838f"  stroke-width="2.0"  d="M 488.9548693586698 206.0 L 488.9548693586698 214.0" />
        <text x="488.9548693586698" font-family="-apple-system, system-ui, BlinkMacSystemFont, Roboto" y="216.0" dominant-baseline="hanging" text-anchor="middle" font-size="12" fill="#24292f">Sep 2022</text>
    
        
        <path stroke="#74838f"  stroke-width="2.0"  d="M 554.7980997624704 206.0 L 554.7980997624704 214.0" />
        <text x="554.7980997624704" font-family="-apple-system, system-ui, BlinkMacSystemFont, Roboto" y="216.0" dominant-baseline="hanging" text-anchor="middle" font-size="12" fill="#24292f">Oct 2022</text>
    
        
        <path stroke="#74838f"  stroke-width="2.0"  d="M 622.8361045130641 206.0 L 622.8361045130641 214.0" />
        <text x="622.8361045130641" font-family="-apple-system, system-ui, BlinkMacSystemFont, Roboto" y="216.0" dominant-baseline="hanging" text-anchor="middle" font-size="12" fill="#24292f">Nov 2022</text>
    
        
        <path stroke="#74838f"  stroke-width="2.0"  d="M 688.6793349168646 206.0 L 688.6793349168646 214.0" />
        <text x="688.6793349168646" font-family="-apple-system, system-ui, BlinkMacSystemFont, Roboto" y="216.0" dominant-baseline="hanging" text-anchor="middle" font-size="12" fill="#24292f">Dec 2022</text>
    
        
        <path stroke="#74838f"  stroke-width="2.0"  d="M 756.7173396674584 206.0 L 756.7173396674584 214.0" />
        <text x="756.7173396674584" font-family="-apple-system, system-ui, BlinkMacSystemFont, Roboto" y="216.0" dominant-baseline="hanging" text-anchor="middle" font-size="12" fill="#24292f">Jan 2023</text>
    
        
        <path stroke="#74838f"  stroke-width="2.0"  d="M 824.7553444180522 206.0 L 824.7553444180522 214.0" />
        <text x="824.7553444180522" font-family="-apple-system, system-ui, BlinkMacSystemFont, Roboto" y="216.0" dominant-baseline="hanging" text-anchor="middle" font-size="12" fill="#24292f">Feb 2023</text>
    
        
        <path stroke="#74838f"  stroke-width="2.0"  d="M 886.209026128266 206.0 L 886.209026128266 214.0" />
        <text x="886.209026128266" font-family="-apple-system, system-ui, BlinkMacSystemFont, Roboto" y="216.0" dominant-baseline="hanging" text-anchor="middle" font-size="12" fill="#24292f">Mar 2023</text>
    
        
        <path stroke="#74838f"  stroke-width="2.0"  d="M 954.2470308788598 206.0 L 954.2470308788598 214.0" />
        <text x="954.2470308788598" font-family="-apple-system, system-ui, BlinkMacSystemFont, Roboto" y="216.0" dominant-baseline="hanging" text-anchor="middle" font-size="12" fill="#24292f">Apr 2023</text>
    
    <path stroke="#74838f"   stroke-linejoin="round" stroke-width="2.0" d="M 50.0 216.0 L 50.0 206.0 L 974.0 206.0 L 974.0 216.0"  fill="none" />
    <text x="512.0" y="25.0" font-family="-apple-system, system-ui, BlinkMacSystemFont, Roboto" dominant-baseline="middle" text-anchor="middle" font-size="18" fill="#24292f">Total daily screen name changes</text>
</svg>
