<?xml version="1.0" standalone="no"?>
<svg width="1024.0" height="256.0"  viewBox="0 0 1024.0 256.0" preserveAspectRatio="xMidYMid meet" xmlns="http://www.w3.org/2000/svg">
    <path stroke="#3498db" stroke-linejoin="round" d="M 50.0 203.3394909090909 L 50 203.3394909090909L 52.36317135549872 202.32974545454545L 54.72634271099744 196.86690909090908L 57.089514066496164 195.94792727272727L 59.452685421994886 202.14254545454546L 61.81585677749361 197.35476363636363L 64.17902813299233 191.76145454545454L 66.54219948849105 179.96218181818182L 68.90537084398977 204.09396363636364L 71.2685421994885 194.17236363636363L 73.63171355498721 192.61803636363635L 75.99488491048594 195.1253818181818L 78.35805626598466 193.92843636363637L 80.72122762148338 182.2482909090909L 83.0843989769821 200.86618181818181L 85.44757033248082 201.45614545454546L 87.81074168797954 178.89003636363637L 90.17391304347825 197.33774545454546L 92.53708439897699 198.50065454545455L 94.9002557544757 200.41803636363636L 97.26342710997443 201.18385454545455L 99.62659846547314 202.26734545454545L 101.98976982097187 195.09134545454546L 104.35294117647058 198.08087272727272L 106.71611253196932 183.38850909090908L 109.07928388746804 197.47389090909093L 111.44245524296676 202.01774545454546L 113.80562659846547 194.66021818181818L 116.16879795396419 200.75272727272727L 118.53196930946291 200.00392727272728L 120.89514066496164 201.97236363636364L 123.25831202046037 204.2754909090909L 125.62148337595909 201.74545454545455L 127.9846547314578 201.01367272727273L 130.3478260869565 174.7829818181818L 132.71099744245524 195.76072727272728L 135.07416879795397 204.0032L 137.43734015345268 203.7309090909091L 139.8005115089514 197.87665454545453L 142.16368286445012 202.60770909090908L 144.52685421994886 202.6928L 146.89002557544757 197.55898181818182L 149.25319693094627 186.5141818181818L 151.61636828644504 199.26647272727274L 153.97953964194375 199.5728L 156.34271099744245 193.4802909090909L 158.70588235294116 199.10763636363635L 161.0690537084399 201.54690909090908L 163.43222506393863 201.5696L 165.79539641943734 195.06865454545454L 168.15856777493607 201.70007272727273L 170.52173913043478 197.2866909090909L 172.88491048593352 172.35505454545455L 175.24808184143222 203.20901818181818L 177.61125319693093 199.6749090909091L 179.97442455242967 193.12858181818183L 182.33759590792837 196.8896L 184.7007672634271 199.78836363636364L 187.06393861892582 198.82967272727274L 189.42710997442455 204.1336727272727L 191.7902813299233 202.57934545454546L 194.153452685422 198.9261090909091L 196.51662404092073 206L 198.87979539641944 204.128L 201.24296675191817 192.1245090909091L 203.60613810741688 206L 205.9693094629156 206L 208.33248081841433 206L 210.69565217391303 206L 213.05882352941177 197.37178181818183L 215.42199488491048 199.57847272727273L 217.78516624040918 188.9024L 220.14833759590795 195.02894545454546L 222.51150895140665 191.20552727272727L 224.8746803069054 166.8128L 227.2378516624041 203.8386909090909L 229.6010230179028 198.09221818181817L 231.96419437340154 201.64334545454545L 234.32736572890025 202.2957090909091L 236.69053708439898 203.22036363636363L 239.0537084398977 200.66763636363635L 241.41687979539643 191.51185454545455L 243.78005115089513 189.18603636363636L 246.14322250639384 203.86705454545455L 248.50639386189258 197.56465454545454L 250.8695652173913 187.32538181818182L 253.23273657289005 201.2349090909091L 255.59590792838875 200.44639999999998L 257.9590792838875 201.4618181818182L 260.3222506393862 201.09876363636363L 262.6854219948849 201.17818181818183L 265.0485933503836 193.02647272727273L 267.4117647058823 198.8069818181818L 269.7749360613811 203.39054545454545L 272.1381074168798 200.30458181818182L 274.5012787723785 198.35883636363636L 276.86445012787726 193.3101090909091L 279.22762148337597 200.56552727272728L 281.5907928388747 203.03883636363636L 283.95396419437344 197.22996363636364L 286.31713554987215 201.95534545454547L 288.68030690537086 196.016L 291.04347826086956 202.30705454545455L 293.40664961636827 199.91316363636363L 295.76982097186703 194.62050909090908L 298.13299232736574 201.29163636363637L 300.49616368286445 202.98778181818182L 302.85933503836316 203.5437090909091L 305.22250639386186 200.60523636363638L 307.5856777493606 195.5621818181818L 309.94884910485933 203.24305454545456L 312.31202046035804 200.15709090909093L 314.67519181585675 198.46661818181818L 317.03836317135546 201.70007272727273L 319.4015345268542 200.70734545454545L 321.7647058823529 200.4293818181818L 324.12787723785164 201.76814545454545L 326.4910485933504 204.6442181818182L 328.8542199488491 206L 331.21739130434787 196.35636363636365L 333.5805626598466 199.21541818181817L 335.9437340153453 156.87418181818182L 338.306905370844 165.1506909090909L 340.6700767263427 204.1733818181818L 343.03324808184146 202.17658181818183L 345.39641943734017 199.31185454545454L 347.7595907928389 198.7842909090909L 350.1227621483376 202.6757818181818L 352.48593350383635 202.8573090909091L 354.84910485933506 196.1861818181818L 357.21227621483376 199.64654545454545L 359.57544757033247 198.2056727272727L 361.9386189258312 201.2178909090909L 364.30179028132994 201.79083636363637L 366.66496163682865 201.90429090909092L 369.02813299232736 200.1968L 371.39130434782606 195.17076363636363L 373.7544757033248 206L 376.11764705882354 206L 378.48081841432224 206L 380.84398976982095 191.4834909090909L 383.20716112531966 197.79723636363636L 385.57033248081837 198.85236363636363L 387.93350383631713 199.76L 390.2966751918159 200.03796363636363L 392.6598465473146 200.76407272727272L 395.0230179028133 201.80785454545455L 397.386189258312 191.63098181818182L 399.7493606138108 194.41061818181817L 402.1125319693095 199.88479999999998L 404.4757033248082 152.63098181818182L 406.8388746803069 197.04843636363637L 409.2020460358056 194.4730181818182L 411.5652173913044 155.90414545454547L 413.9283887468031 91.60945454545454L 416.2915601023018 104.5376L 418.6547314578005 151.17876363636364L 421.01790281329926 185.1981090909091L 423.38107416879797 142.76610909090908L 425.7442455242967 125.0672L 428.1074168797954 123.74545454545455L 430.4705882352941 157.99738181818182L 432.83375959079285 53.56814545454546L 435.19693094629156 50.78850909090909L 437.56010230179027 100.02210909090908L 439.923273657289 156.2445090909091L 442.2864450127877 180.31956363636363L 444.64961636828644 192.43650909090908L 447.01278772378515 193.63912727272728L 449.37595907928386 193.3328L 451.7391304347826 192.11316363636365L 454.10230179028133 197.93338181818183L 456.4654731457801 191.5629090909091L 458.8286445012788 198.7672727272727L 461.1918158567775 199.3005090909091L 463.5549872122762 201.64901818181818L 465.9181585677749 200.58821818181818L 468.2813299232737 202.43752727272727L 470.6445012787724 200.73003636363637L 473.0076726342711 189.7703272727273L 475.3708439897698 203.17498181818183L 477.7340153452685 200.48610909090908L 480.0971867007673 185.1810909090909L 482.460358056266 187.88698181818182L 484.8235294117647 191.01832727272728L 487.1867007672634 192.31738181818181L 489.54987212276217 177.09745454545455L 491.9130434782609 167.91330909090908L 494.2762148337596 179.30981818181817L 496.6393861892583 186.49716363636364L 499.002557544757 150.34487272727273L 501.36572890025576 184.27345454545454L 503.72890025575447 199.5104L 506.0920716112532 161.24785454545454L 508.4552429667519 155.49003636363636L 510.81841432225065 176.96130909090908L 513.1815856777494 190.30923636363636L 515.5447570332481 193.50865454545453L 517.9079283887469 201.72843636363638L 520.2710997442455 185.22647272727272L 522.6342710997443 192.03374545454545L 524.9974424552429 192.66909090909093L 527.3606138107417 180.18341818181818L 529.7237851662405 194.5013818181818L 532.0869565217391 194.6829090909091L 534.450127877238 201.85323636363637L 536.8132992327365 196.2032L 539.1764705882354 204.49105454545455L 541.5396419437341 191.55723636363638L 543.9028132992328 180.36494545454545L 546.2659846547315 193.02647272727273L 548.6291560102302 186.20785454545455L 550.9923273657289 191.72741818181817L 553.3554987212276 191.4834909090909L 555.7186700767263 196.63432727272726L 558.081841432225 200.7810909090909L 560.4450127877237 176.26923636363637L 562.8081841432225 165.78036363636363L 565.1713554987213 181.82850909090908L 567.53452685422 160.6976L 569.8976982097187 163.93105454545454L 572.2608695652174 182.10647272727272L 574.6240409207161 130.808L 576.9872122762149 190.49643636363635L 579.3503836317135 202.0914909090909L 581.7135549872123 184.09192727272728L 584.0767263427109 197.50225454545455L 586.4398976982097 187.54094545454547L 588.8030690537084 192.95272727272726L 591.1662404092071 201.88727272727272L 593.5294117647059 184.33585454545454L 595.8925831202046 183.04814545454545L 598.2557544757033 182.36741818181818L 600.6189258312021 182.54327272727272L 602.9820971867008 186.38938181818182L 605.3452685421995 174.3858909090909L 607.7084398976982 183.1786181818182L 610.0716112531969 183.5133090909091L 612.4347826086957 184.60247272727273L 614.7979539641943 186.968L 617.1611253196932 170.00087272727274L 619.5242966751917 167.8338909090909L 621.8874680306906 203.32247272727273L 624.2506393861893 206L 626.613810741688 128.43112727272728L 628.9769820971867 183.2637090909091L 631.3401534526854 156.8685090909091L 633.7033248081841 183.15592727272727L 636.0664961636829 183.2013090909091L 638.4296675191815 182.25963636363636L 640.7928388746803 170.18807272727273L 643.1560102301789 186.86589090909092L 645.5191815856778 183.77425454545454L 647.8823529411765 186.29861818181817L 650.2455242966752 184.17134545454545L 652.6086956521739 184.9655272727273L 654.9718670076727 178.1696L 657.3350383631713 180.70530909090908L 659.6982097186701 170.80072727272727L 662.0613810741688 177.99374545454546L 664.4245524296675 175.99127272727273L 666.7877237851662 173.75621818181818L 669.1508951406649 175.45803636363638L 671.5140664961638 196.91796363636365L 673.8772378516624 150.30516363636363L 676.2404092071612 167.34036363636363L 678.6035805626599 174.52203636363637L 680.9667519181586 132.05599999999998L 683.3299232736573 144.8309818181818L 685.693094629156 173.60872727272726L 688.0562659846547 151.91054545454546L 690.4194373401535 194.03621818181819L 692.7826086956521 160.59549090909093L 695.145780051151 206L 697.5089514066495 153.43650909090908L 699.8721227621484 181.01163636363637L 702.2352941176471 181.6413090909091L 704.5984654731458 182.49221818181817L 706.9616368286445 183.08785454545455L 709.3248081841432 206L 711.6879795396419 151.86516363636363L 714.0511508951407 172.45716363636365L 716.4143222506393 169.20669090909092L 718.7774936061381 178.22065454545455L 721.1406649616367 175.54312727272728L 723.5038363171356 177.61367272727273L 725.8670076726343 181.0173090909091L 728.230179028133 176.80814545454547L 730.5933503836318 167.8962909090909L 732.9565217391304 167.1248L 735.3196930946292 176.62094545454545L 737.6828644501279 158.63272727272727L 740.0460358056266 151.3602909090909L 742.4092071611253 173.35345454545455L 744.772378516624 206L 747.1355498721227 206L 749.4987212276216 206L 751.8618925831202 206L 754.225063938619 206L 756.5882352941176 206L 758.9514066496164 206L 761.3145780051151 206L 763.6777493606138 206L 766.0409207161125 206L 768.4040920716112 206L 770.7672634271099 206L 773.1304347826087 206L 775.4936061381073 206L 777.8567774936062 206L 780.2199488491049 206L 782.5831202046036 206L 784.9462915601023 206L 787.309462915601 206L 789.6726342710997 206L 792.0358056265985 206L 794.3989769820972 206L 796.7621483375959 206L 799.1253196930946 206L 801.4884910485933 206L 803.8516624040922 206L 806.2148337595908 206L 808.5780051150896 206L 810.9411764705882 206L 813.304347826087 206L 815.6675191815857 206L 818.0306905370844 206L 820.3938618925831 206L 822.7570332480818 206L 825.1202046035805 206L 827.4833759590794 206L 829.846547314578 206L 832.2097186700768 206L 834.5728900255754 206L 836.9360613810742 206L 839.2992327365729 206L 841.6624040920716 206L 844.0255754475703 206L 846.388746803069 206L 848.7519181585677 206L 851.1150895140665 206L 853.4782608695652 206L 855.841432225064 206L 858.2046035805627 206L 860.5677749360614 206L 862.9309462915602 206L 865.2941176470588 206L 867.6572890025576 206L 870.0204603580562 206L 872.383631713555 206L 874.7468030690537 206L 877.1099744245524 206L 879.4731457800511 206L 881.8363171355498 206L 884.1994884910486 206L 886.5626598465474 206L 888.925831202046 206L 891.2890025575448 206L 893.6521739130434 206L 896.0153452685422 206L 898.3785166240409 206L 900.7416879795396 206L 903.1048593350383 206L 905.468030690537 206L 907.8312020460357 206L 910.1943734015346 206L 912.5575447570333 206L 914.920716112532 206L 917.2838874680307 206L 919.6470588235294 206L 922.0102301790282 206L 924.3734015345268 206L 926.7365728900256 206L 929.0997442455243 206L 931.462915601023 206L 933.8260869565217 206L 936.1892583120205 206L 938.5524296675192 206L 940.915601023018 206L 943.2787723785166 206L 945.6419437340154 206L 948.005115089514 206L 950.3682864450128 206L 952.7314578005115 206L 955.0946291560102 206L 957.4578005115089 206L 959.8209718670076 206L 962.1841432225063 206L 964.5473145780052 206L 966.9104859335038 206L 969.2736572890026 206L 971.6368286445013 206L 974 206" stroke-width="2.0" fill="none" />
    
        
        
        <text x="45.0" font-family="-apple-system, system-ui, BlinkMacSystemFont, Roboto" y="50.0" dominant-baseline="middle" text-anchor="end" font-size="12" fill="#24292f">27500.0</text>
        
            
            <path stroke="#74838f" stroke-dasharray="10 6" stroke-width="0.5"  d="M 50.0 50.0 L 974.0 50.0" />
        
    
        
        
        <text x="45.0" font-family="-apple-system, system-ui, BlinkMacSystemFont, Roboto" y="81.2" dominant-baseline="middle" text-anchor="end" font-size="12" fill="#24292f">22000.0</text>
        
            
            
            <path stroke="#74838f" stroke-dasharray="10 6" stroke-width="0.5"  d="M 50.0 81.2 L 974.0 81.2" />
        
    
        
        
        <text x="45.0" font-family="-apple-system, system-ui, BlinkMacSystemFont, Roboto" y="112.4" dominant-baseline="middle" text-anchor="end" font-size="12" fill="#24292f">16500.0</text>
        
            
            
            <path stroke="#74838f" stroke-dasharray="10 6" stroke-width="0.5"  d="M 50.0 112.4 L 974.0 112.4" />
        
    
        
        
        <text x="45.0" font-family="-apple-system, system-ui, BlinkMacSystemFont, Roboto" y="143.6" dominant-baseline="middle" text-anchor="end" font-size="12" fill="#24292f">11000.0</text>
        
            
            
            <path stroke="#74838f" stroke-dasharray="10 6" stroke-width="0.5"  d="M 50.0 143.6 L 974.0 143.6" />
        
    
        
        
        <text x="45.0" font-family="-apple-system, system-ui, BlinkMacSystemFont, Roboto" y="174.8" dominant-baseline="middle" text-anchor="end" font-size="12" fill="#24292f">5500.0</text>
        
            
            
            <path stroke="#74838f" stroke-dasharray="10 6" stroke-width="0.5"  d="M 50.0 174.8 L 974.0 174.8" />
        
    
        
        
        <text x="45.0" font-family="-apple-system, system-ui, BlinkMacSystemFont, Roboto" y="206.0" dominant-baseline="middle" text-anchor="end" font-size="12" fill="#24292f">0.0</text>
        
    
    
        
        <path stroke="#74838f"  stroke-width="2.0"  d="M 87.81074168797954 206.0 L 87.81074168797954 214.0" />
        <text x="87.81074168797954" font-family="-apple-system, system-ui, BlinkMacSystemFont, Roboto" y="216.0" dominant-baseline="hanging" text-anchor="middle" font-size="12" fill="#24292f">Mar 2022</text>
    
        
        <path stroke="#74838f"  stroke-width="2.0"  d="M 161.0690537084399 206.0 L 161.0690537084399 214.0" />
        <text x="161.0690537084399" font-family="-apple-system, system-ui, BlinkMacSystemFont, Roboto" y="216.0" dominant-baseline="hanging" text-anchor="middle" font-size="12" fill="#24292f">Apr 2022</text>
    
        
        <path stroke="#74838f"  stroke-width="2.0"  d="M 231.96419437340154 206.0 L 231.96419437340154 214.0" />
        <text x="231.96419437340154" font-family="-apple-system, system-ui, BlinkMacSystemFont, Roboto" y="216.0" dominant-baseline="hanging" text-anchor="middle" font-size="12" fill="#24292f">May 2022</text>
    
        
        <path stroke="#74838f"  stroke-width="2.0"  d="M 305.22250639386186 206.0 L 305.22250639386186 214.0" />
        <text x="305.22250639386186" font-family="-apple-system, system-ui, BlinkMacSystemFont, Roboto" y="216.0" dominant-baseline="hanging" text-anchor="middle" font-size="12" fill="#24292f">Jun 2022</text>
    
        
        <path stroke="#74838f"  stroke-width="2.0"  d="M 376.11764705882354 206.0 L 376.11764705882354 214.0" />
        <text x="376.11764705882354" font-family="-apple-system, system-ui, BlinkMacSystemFont, Roboto" y="216.0" dominant-baseline="hanging" text-anchor="middle" font-size="12" fill="#24292f">Jul 2022</text>
    
        
        <path stroke="#74838f"  stroke-width="2.0"  d="M 449.37595907928386 206.0 L 449.37595907928386 214.0" />
        <text x="449.37595907928386" font-family="-apple-system, system-ui, BlinkMacSystemFont, Roboto" y="216.0" dominant-baseline="hanging" text-anchor="middle" font-size="12" fill="#24292f">Aug 2022</text>
    
        
        <path stroke="#74838f"  stroke-width="2.0"  d="M 522.6342710997443 206.0 L 522.6342710997443 214.0" />
        <text x="522.6342710997443" font-family="-apple-system, system-ui, BlinkMacSystemFont, Roboto" y="216.0" dominant-baseline="hanging" text-anchor="middle" font-size="12" fill="#24292f">Sep 2022</text>
    
        
        <path stroke="#74838f"  stroke-width="2.0"  d="M 593.5294117647059 206.0 L 593.5294117647059 214.0" />
        <text x="593.5294117647059" font-family="-apple-system, system-ui, BlinkMacSystemFont, Roboto" y="216.0" dominant-baseline="hanging" text-anchor="middle" font-size="12" fill="#24292f">Oct 2022</text>
    
        
        <path stroke="#74838f"  stroke-width="2.0"  d="M 666.7877237851662 206.0 L 666.7877237851662 214.0" />
        <text x="666.7877237851662" font-family="-apple-system, system-ui, BlinkMacSystemFont, Roboto" y="216.0" dominant-baseline="hanging" text-anchor="middle" font-size="12" fill="#24292f">Nov 2022</text>
    
        
        <path stroke="#74838f"  stroke-width="2.0"  d="M 737.6828644501279 206.0 L 737.6828644501279 214.0" />
        <text x="737.6828644501279" font-family="-apple-system, system-ui, BlinkMacSystemFont, Roboto" y="216.0" dominant-baseline="hanging" text-anchor="middle" font-size="12" fill="#24292f">Dec 2022</text>
    
        
        <path stroke="#74838f"  stroke-width="2.0"  d="M 810.9411764705882 206.0 L 810.9411764705882 214.0" />
        <text x="810.9411764705882" font-family="-apple-system, system-ui, BlinkMacSystemFont, Roboto" y="216.0" dominant-baseline="hanging" text-anchor="middle" font-size="12" fill="#24292f">Jan 2023</text>
    
        
        <path stroke="#74838f"  stroke-width="2.0"  d="M 884.1994884910486 206.0 L 884.1994884910486 214.0" />
        <text x="884.1994884910486" font-family="-apple-system, system-ui, BlinkMacSystemFont, Roboto" y="216.0" dominant-baseline="hanging" text-anchor="middle" font-size="12" fill="#24292f">Feb 2023</text>
    
        
        <path stroke="#74838f"  stroke-width="2.0"  d="M 950.3682864450128 206.0 L 950.3682864450128 214.0" />
        <text x="950.3682864450128" font-family="-apple-system, system-ui, BlinkMacSystemFont, Roboto" y="216.0" dominant-baseline="hanging" text-anchor="middle" font-size="12" fill="#24292f">Mar 2023</text>
    
    <path stroke="#74838f"   stroke-linejoin="round" stroke-width="2.0" d="M 50.0 216.0 L 50.0 206.0 L 974.0 206.0 L 974.0 216.0"  fill="none" />
    <text x="512.0" y="25.0" font-family="-apple-system, system-ui, BlinkMacSystemFont, Roboto" dominant-baseline="middle" text-anchor="middle" font-size="18" fill="#24292f">Total daily screen name changes</text>
</svg>
