<?xml version="1.0" standalone="no"?>
<svg width="1024.0" height="256.0"  viewBox="0 0 1024.0 256.0" preserveAspectRatio="xMidYMid meet" xmlns="http://www.w3.org/2000/svg">
    <path stroke="#3498db" stroke-linejoin="round" d="M 50.0 203.49265454545454 L 50 203.49265454545454L 53.208333333333336 202.4885818181818L 56.416666666666664 196.9917090909091L 59.625 195.98196363636364L 62.83333333333333 202.1538909090909L 66.04166666666667 197.38312727272728L 69.25 191.80683636363636L 72.45833333333333 179.96218181818182L 75.66666666666666 204.1053090909091L 78.875 194.15534545454545L 82.08333333333334 192.61803636363635L 85.29166666666667 195.1253818181818L 88.5 193.92843636363637L 91.70833333333334 182.2709818181818L 94.91666666666666 200.86618181818181L 98.125 201.48450909090909L 101.33333333333333 178.89003636363637L 104.54166666666666 197.34341818181818L 107.75 198.51767272727272L 110.95833333333334 200.44072727272726L 114.16666666666667 201.18952727272728L 117.375 202.27301818181817L 120.58333333333334 195.1253818181818L 123.79166666666666 198.08087272727272L 127 183.39418181818183L 130.20833333333331 197.49658181818182L 133.41666666666669 202.0290909090909L 136.625 194.65454545454546L 139.83333333333331 200.7584L 143.04166666666669 200.02661818181818L 146.25 201.97236363636364L 149.45833333333334 204.34923636363635L 152.66666666666666 201.76247272727272L 155.875 201.01367272727273L 159.08333333333331 174.8226909090909L 162.29166666666669 195.76072727272728L 165.5 204.0032L 168.70833333333331 203.7309090909091L 171.91666666666669 197.88232727272728L 175.125 202.60770909090908L 178.33333333333334 202.7325090909091L 181.54166666666666 197.55898181818182L 184.75 186.51985454545454L 187.95833333333334 199.27214545454547L 191.16666666666669 199.60683636363638L 194.375 193.51432727272726L 197.58333333333331 199.12465454545455L 200.79166666666666 201.55825454545453L 204 201.58661818181818L 207.20833333333334 195.0856727272727L 210.41666666666666 201.71141818181817L 213.625 197.28101818181818L 216.83333333333334 172.37774545454545L 220.04166666666669 203.20901818181818L 223.25 199.70894545454547L 226.45833333333331 193.13425454545455L 229.66666666666666 196.90661818181817L 232.875 199.81105454545454L 236.08333333333334 198.82967272727274L 239.29166666666666 204.1336727272727L 242.5 202.6757818181818L 245.70833333333334 198.9261090909091L 248.91666666666669 206L 252.125 204.128L 255.33333333333331 192.11883636363638L 258.54166666666663 206L 261.75 206L 264.95833333333337 206L 268.16666666666663 206L 271.375 197.35476363636363L 274.58333333333337 199.57847272727273L 277.7916666666667 188.9024L 281 195.18210909090908L 284.2083333333333 191.20552727272727L 287.41666666666663 166.80145454545453L 290.625 203.86138181818183L 293.83333333333337 198.09221818181817L 297.04166666666663 201.66603636363635L 300.25 202.2957090909091L 303.45833333333337 203.22603636363635L 306.6666666666667 200.66763636363635L 309.875 191.51185454545455L 313.0833333333333 189.1917090909091L 316.29166666666663 203.87272727272727L 319.5 197.56465454545454L 322.7083333333333 187.4048L 325.9166666666667 201.24058181818182L 329.125 200.44639999999998L 332.33333333333337 201.4618181818182L 335.5416666666667 201.09876363636363L 338.75 201.18952727272728L 341.9583333333333 193.01512727272728L 345.16666666666663 198.8013090909091L 348.375 203.39054545454545L 351.5833333333333 200.30458181818182L 354.7916666666667 198.45527272727273L 358 193.3101090909091L 361.20833333333337 200.56552727272728L 364.4166666666667 203.03883636363636L 367.625 197.2866909090909L 370.8333333333333 201.95534545454547L 374.04166666666663 196.05003636363637L 377.25 202.3184L 380.4583333333333 199.91883636363636L 383.6666666666667 194.66021818181818L 386.875 201.29163636363637L 390.08333333333337 202.99345454545454L 393.2916666666667 203.5437090909091L 396.5 200.61658181818183L 399.7083333333333 195.56785454545454L 402.91666666666663 203.27141818181818L 406.125 200.16843636363637L 409.3333333333333 198.46094545454545L 412.5416666666667 201.70007272727273L 415.75 200.70734545454545L 418.95833333333337 200.43505454545453L 422.1666666666667 201.76247272727272L 425.375 204.6442181818182L 428.5833333333333 206L 431.79166666666663 196.37905454545455L 435 199.20407272727272L 438.2083333333333 156.86283636363635L 441.4166666666667 165.13367272727274L 444.625 204.24145454545453L 447.83333333333337 202.17658181818183L 451.0416666666667 199.31185454545454L 454.25 198.824L 457.4583333333333 202.68712727272728L 460.66666666666663 202.8573090909091L 463.875 196.1861818181818L 467.0833333333333 199.66923636363637L 470.2916666666667 198.2056727272727L 473.5 201.2178909090909L 476.70833333333337 201.7965090909091L 479.9166666666667 201.90429090909092L 483.125 200.1968L 486.3333333333333 195.19345454545453L 489.54166666666663 206L 492.75 206L 495.9583333333333 206L 499.1666666666667 191.47214545454545L 502.375 197.8256L 505.58333333333337 198.86370909090908L 508.7916666666667 199.76567272727272L 512 200.08334545454545L 515.2083333333333 200.76407272727272L 518.4166666666666 201.80785454545455L 521.625 191.63098181818182L 524.8333333333333 194.42763636363637L 528.0416666666667 199.88479999999998L 531.25 152.59694545454545L 534.4583333333334 197.1165090909091L 537.6666666666667 194.46734545454547L 540.875 155.89847272727272L 544.0833333333333 91.55272727272727L 547.2916666666666 104.49221818181817L 550.5 151.17309090909092L 553.7083333333333 185.2208L 556.9166666666667 142.76043636363636L 560.125 125.04450909090909L 563.3333333333334 123.73410909090909L 566.5416666666666 157.98603636363637L 569.75 53.511418181818186L 572.9583333333334 50.692072727272745L 576.1666666666666 99.93134545454545L 579.375 156.2048L 582.5833333333333 180.32523636363635L 585.7916666666667 192.4194909090909L 589 193.65614545454545L 592.2083333333334 193.32712727272727L 595.4166666666666 192.1245090909091L 598.625 197.93338181818183L 601.8333333333334 191.5629090909091L 605.0416666666666 198.7616L 608.25 199.3005090909091L 611.4583333333333 201.64901818181818L 614.6666666666667 200.58821818181818L 617.875 202.44887272727271L 621.0833333333334 200.73003636363637L 624.2916666666666 189.7703272727273L 627.5 203.16930909090908L 630.7083333333334 200.48043636363636L 633.9166666666666 185.17541818181817L 637.125 187.90967272727272L 640.3333333333333 191.00698181818183L 643.5416666666667 192.30603636363637L 646.75 177.0861090909091L 649.9583333333334 167.88494545454546L 653.1666666666666 179.3325090909091L 656.375 186.45178181818181L 659.5833333333334 150.28247272727273L 662.7916666666666 184.27345454545454L 666 199.5330909090909L 669.2083333333333 161.2365090909091L 672.4166666666667 155.5013818181818L 675.625 176.97832727272728L 678.8333333333334 190.30923636363636L 682.0416666666666 193.51432727272726L 685.25 201.72843636363638L 688.4583333333334 185.23781818181817L 691.6666666666666 192.03374545454545L 694.875 192.68043636363637L 698.0833333333333 180.19476363636363L 701.2916666666667 194.5013818181818L 704.5 194.6829090909091L 707.7083333333334 201.85323636363637L 710.9166666666666 196.19752727272726L 714.125 204.48538181818182L 717.3333333333334 191.5629090909091L 720.5416666666666 180.37061818181817L 723.75 193.02647272727273L 726.9583333333333 186.2192L 730.1666666666667 191.73876363636364L 733.375 191.47781818181818L 736.5833333333334 196.6456727272727L 739.7916666666666 200.7981090909091L 743 176.2749090909091L 746.2083333333334 165.68959999999998L 749.4166666666666 181.80581818181818L 752.625 160.6352L 755.8333333333333 163.85163636363637L 759.0416666666667 182.08945454545454L 762.25 130.79665454545454L 765.4583333333334 190.49076363636362L 768.6666666666666 202.09716363636363L 771.875 184.0976L 775.0833333333334 197.50225454545455L 778.2916666666666 187.5522909090909L 781.5 192.96407272727274L 784.7083333333333 201.89861818181816L 787.9166666666667 184.3642181818182L 791.125 183.56436363636362L 794.3333333333334 182.3504L 797.5416666666666 182.5376L 800.75 186.37803636363637L 803.9583333333334 174.3632L 807.1666666666666 183.15025454545454L 810.375 183.50196363636363L 813.5833333333333 184.58545454545455L 816.7916666666667 186.95665454545454L 820 169.92145454545454L 823.2083333333334 167.94167272727273L 826.4166666666666 203.3168L 829.625 206L 832.8333333333334 128.35170909090908L 836.0416666666666 183.2296727272727L 839.25 156.87418181818182L 842.4583333333333 183.14458181818182L 845.6666666666667 183.1786181818182L 848.875 182.26530909090908L 852.0833333333334 170.1824L 855.2916666666666 186.8432L 858.5 183.75723636363637L 861.7083333333334 186.31563636363637L 864.9166666666666 184.16567272727272L 868.125 184.9541818181818L 871.3333333333333 178.18661818181818L 874.5416666666667 180.6882909090909L 877.75 170.7837090909091L 880.9583333333334 177.98807272727274L 884.1666666666666 175.99694545454545L 887.375 173.92072727272728L 890.5833333333334 175.424L 893.7916666666666 196.91229090909093L 897 150.22574545454546L 900.2083333333333 167.17018181818182L 903.4166666666667 174.47098181818183L 906.625 131.8064L 909.8333333333334 144.54734545454545L 913.0416666666666 173.51796363636362L 916.25 151.87083636363636L 919.4583333333334 194.0418909090909L 922.6666666666666 160.56712727272728L 925.875 206L 929.0833333333333 153.34574545454547L 932.2916666666667 180.96625454545455L 935.5 181.6186181818182L 938.7083333333334 182.48654545454545L 941.9166666666666 183.04814545454545L 945.125 206L 948.3333333333334 151.91621818181818L 951.5416666666666 172.41745454545455L 954.75 169.1613090909091L 957.9583333333333 178.14123636363638L 961.1666666666667 175.37294545454546L 964.375 177.53992727272728L 967.5833333333334 180.90385454545455L 970.7916666666666 176.67767272727272L 974 206" stroke-width="2.0" fill="none" />
    
        
        
        <text x="45.0" font-family="-apple-system, system-ui, BlinkMacSystemFont, Roboto" y="50.0" dominant-baseline="middle" text-anchor="end" font-size="12" fill="#24292f">27500.0</text>
        
            
            <path stroke="#74838f" stroke-dasharray="10 6" stroke-width="0.5"  d="M 50.0 50.0 L 974.0 50.0" />
        
    
        
        
        <text x="45.0" font-family="-apple-system, system-ui, BlinkMacSystemFont, Roboto" y="81.2" dominant-baseline="middle" text-anchor="end" font-size="12" fill="#24292f">22000.0</text>
        
            
            
            <path stroke="#74838f" stroke-dasharray="10 6" stroke-width="0.5"  d="M 50.0 81.2 L 974.0 81.2" />
        
    
        
        
        <text x="45.0" font-family="-apple-system, system-ui, BlinkMacSystemFont, Roboto" y="112.4" dominant-baseline="middle" text-anchor="end" font-size="12" fill="#24292f">16500.0</text>
        
            
            
            <path stroke="#74838f" stroke-dasharray="10 6" stroke-width="0.5"  d="M 50.0 112.4 L 974.0 112.4" />
        
    
        
        
        <text x="45.0" font-family="-apple-system, system-ui, BlinkMacSystemFont, Roboto" y="143.6" dominant-baseline="middle" text-anchor="end" font-size="12" fill="#24292f">11000.0</text>
        
            
            
            <path stroke="#74838f" stroke-dasharray="10 6" stroke-width="0.5"  d="M 50.0 143.6 L 974.0 143.6" />
        
    
        
        
        <text x="45.0" font-family="-apple-system, system-ui, BlinkMacSystemFont, Roboto" y="174.8" dominant-baseline="middle" text-anchor="end" font-size="12" fill="#24292f">5500.0</text>
        
            
            
            <path stroke="#74838f" stroke-dasharray="10 6" stroke-width="0.5"  d="M 50.0 174.8 L 974.0 174.8" />
        
    
        
        
        <text x="45.0" font-family="-apple-system, system-ui, BlinkMacSystemFont, Roboto" y="206.0" dominant-baseline="middle" text-anchor="end" font-size="12" fill="#24292f">0.0</text>
        
    
    
        
        <path stroke="#74838f"  stroke-width="2.0"  d="M 101.33333333333333 206.0 L 101.33333333333333 214.0" />
        <text x="101.33333333333333" font-family="-apple-system, system-ui, BlinkMacSystemFont, Roboto" y="216.0" dominant-baseline="hanging" text-anchor="middle" font-size="12" fill="#24292f">Mar 2022</text>
    
        
        <path stroke="#74838f"  stroke-width="2.0"  d="M 200.79166666666666 206.0 L 200.79166666666666 214.0" />
        <text x="200.79166666666666" font-family="-apple-system, system-ui, BlinkMacSystemFont, Roboto" y="216.0" dominant-baseline="hanging" text-anchor="middle" font-size="12" fill="#24292f">Apr 2022</text>
    
        
        <path stroke="#74838f"  stroke-width="2.0"  d="M 297.04166666666663 206.0 L 297.04166666666663 214.0" />
        <text x="297.04166666666663" font-family="-apple-system, system-ui, BlinkMacSystemFont, Roboto" y="216.0" dominant-baseline="hanging" text-anchor="middle" font-size="12" fill="#24292f">May 2022</text>
    
        
        <path stroke="#74838f"  stroke-width="2.0"  d="M 396.5 206.0 L 396.5 214.0" />
        <text x="396.5" font-family="-apple-system, system-ui, BlinkMacSystemFont, Roboto" y="216.0" dominant-baseline="hanging" text-anchor="middle" font-size="12" fill="#24292f">Jun 2022</text>
    
        
        <path stroke="#74838f"  stroke-width="2.0"  d="M 492.75 206.0 L 492.75 214.0" />
        <text x="492.75" font-family="-apple-system, system-ui, BlinkMacSystemFont, Roboto" y="216.0" dominant-baseline="hanging" text-anchor="middle" font-size="12" fill="#24292f">Jul 2022</text>
    
        
        <path stroke="#74838f"  stroke-width="2.0"  d="M 592.2083333333334 206.0 L 592.2083333333334 214.0" />
        <text x="592.2083333333334" font-family="-apple-system, system-ui, BlinkMacSystemFont, Roboto" y="216.0" dominant-baseline="hanging" text-anchor="middle" font-size="12" fill="#24292f">Aug 2022</text>
    
        
        <path stroke="#74838f"  stroke-width="2.0"  d="M 691.6666666666666 206.0 L 691.6666666666666 214.0" />
        <text x="691.6666666666666" font-family="-apple-system, system-ui, BlinkMacSystemFont, Roboto" y="216.0" dominant-baseline="hanging" text-anchor="middle" font-size="12" fill="#24292f">Sep 2022</text>
    
        
        <path stroke="#74838f"  stroke-width="2.0"  d="M 787.9166666666667 206.0 L 787.9166666666667 214.0" />
        <text x="787.9166666666667" font-family="-apple-system, system-ui, BlinkMacSystemFont, Roboto" y="216.0" dominant-baseline="hanging" text-anchor="middle" font-size="12" fill="#24292f">Oct 2022</text>
    
        
        <path stroke="#74838f"  stroke-width="2.0"  d="M 887.375 206.0 L 887.375 214.0" />
        <text x="887.375" font-family="-apple-system, system-ui, BlinkMacSystemFont, Roboto" y="216.0" dominant-baseline="hanging" text-anchor="middle" font-size="12" fill="#24292f">Nov 2022</text>
    
    <path stroke="#74838f"   stroke-linejoin="round" stroke-width="2.0" d="M 50.0 216.0 L 50.0 206.0 L 974.0 206.0 L 974.0 216.0"  fill="none" />
    <text x="512.0" y="25.0" font-family="-apple-system, system-ui, BlinkMacSystemFont, Roboto" dominant-baseline="middle" text-anchor="middle" font-size="18" fill="#24292f">Total daily screen name changes</text>
</svg>
