<?xml version="1.0" standalone="no"?>
<svg width="1024.0" height="256.0"  viewBox="0 0 1024.0 256.0" preserveAspectRatio="xMidYMid meet" xmlns="http://www.w3.org/2000/svg">
    <path stroke="#3498db" stroke-linejoin="round" d="M 50.0 203.3394909090909 L 50 203.3394909090909L 52.81707317073171 202.32974545454545L 55.63414634146341 196.86690909090908L 58.451219512195124 195.94792727272727L 61.26829268292683 202.14254545454546L 64.08536585365854 197.35476363636363L 66.90243902439025 191.76145454545454L 69.71951219512195 179.96218181818182L 72.53658536585365 204.09396363636364L 75.35365853658537 194.17236363636363L 78.17073170731707 192.61803636363635L 80.98780487804878 195.1253818181818L 83.8048780487805 193.92843636363637L 86.6219512195122 182.2482909090909L 89.4390243902439 200.86618181818181L 92.2560975609756 201.45614545454546L 95.07317073170732 178.89003636363637L 97.89024390243902 197.33774545454546L 100.70731707317074 198.50065454545455L 103.52439024390245 200.41803636363636L 106.34146341463415 201.18385454545455L 109.15853658536585 202.26734545454545L 111.97560975609755 195.09134545454546L 114.79268292682927 198.08087272727272L 117.60975609756098 183.38850909090908L 120.42682926829268 197.47389090909093L 123.2439024390244 202.01774545454546L 126.0609756097561 194.66021818181818L 128.8780487804878 200.75272727272727L 131.6951219512195 200.00392727272728L 134.5121951219512 201.97236363636364L 137.3292682926829 204.2754909090909L 140.14634146341464 201.74545454545455L 142.96341463414635 201.01367272727273L 145.78048780487805 174.7829818181818L 148.59756097560975 195.76072727272728L 151.41463414634148 204.0032L 154.2317073170732 203.7309090909091L 157.0487804878049 197.87665454545453L 159.8658536585366 202.60770909090908L 162.6829268292683 202.6928L 165.5 197.55898181818182L 168.3170731707317 186.5141818181818L 171.1341463414634 199.26647272727274L 173.9512195121951 199.5728L 176.76829268292684 193.4802909090909L 179.58536585365854 199.10763636363635L 182.40243902439025 201.54690909090908L 185.21951219512195 201.5696L 188.03658536585365 195.06865454545454L 190.85365853658536 201.70007272727273L 193.67073170731706 197.2866909090909L 196.4878048780488 172.35505454545455L 199.3048780487805 203.20901818181818L 202.1219512195122 199.6749090909091L 204.9390243902439 193.12858181818183L 207.75609756097563 196.8896L 210.5731707317073 199.78836363636364L 213.390243902439 198.82967272727274L 216.2073170731707 204.1336727272727L 219.02439024390245 202.57934545454546L 221.84146341463415 198.9261090909091L 224.65853658536585 206L 227.47560975609755 204.128L 230.2926829268293 192.1245090909091L 233.109756097561 206L 235.9268292682927 206L 238.74390243902437 206L 241.5609756097561 206L 244.3780487804878 197.37178181818183L 247.1951219512195 199.57847272727273L 250.0121951219512 188.9024L 252.82926829268294 195.02894545454546L 255.64634146341464 191.20552727272727L 258.4634146341464 166.8128L 261.280487804878 203.8386909090909L 264.0975609756098 198.09221818181817L 266.9146341463414 201.64334545454545L 269.7317073170732 202.2957090909091L 272.54878048780483 203.22036363636363L 275.3658536585366 200.66763636363635L 278.1829268292683 191.51185454545455L 281 189.18603636363636L 283.8170731707317 203.86705454545455L 286.6341463414634 197.56465454545454L 289.45121951219517 187.32538181818182L 292.2682926829268 201.2349090909091L 295.0853658536586 200.44639999999998L 297.9024390243902 201.4618181818182L 300.719512195122 201.09876363636363L 303.5365853658537 201.17818181818183L 306.3536585365854 193.02647272727273L 309.1707317073171 198.8069818181818L 311.98780487804873 203.39054545454545L 314.8048780487805 200.30458181818182L 317.6219512195122 198.35883636363636L 320.4390243902439 193.3101090909091L 323.2560975609756 200.56552727272728L 326.0731707317073 203.03883636363636L 328.890243902439 197.22996363636364L 331.7073170731707 201.95534545454547L 334.5243902439024 196.016L 337.3414634146341 202.30705454545455L 340.1585365853659 199.91316363636363L 342.9756097560976 194.62050909090908L 345.7926829268293 201.29163636363637L 348.609756097561 202.98778181818182L 351.4268292682927 203.5437090909091L 354.2439024390244 200.60523636363638L 357.0609756097561 195.5621818181818L 359.8780487804878 203.24305454545456L 362.6951219512195 200.15709090909093L 365.51219512195127 198.46661818181818L 368.3292682926829 201.70007272727273L 371.1463414634146 200.70734545454545L 373.9634146341463 200.4293818181818L 376.780487804878 201.76814545454545L 379.5975609756097 204.6442181818182L 382.4146341463414 206L 385.2317073170732 196.35636363636365L 388.0487804878049 199.21541818181817L 390.8658536585366 156.87418181818182L 393.6829268292683 165.1506909090909L 396.5 204.1733818181818L 399.3170731707317 202.17658181818183L 402.1341463414634 199.31185454545454L 404.9512195121951 198.7842909090909L 407.7682926829268 202.6757818181818L 410.5853658536586 202.8573090909091L 413.4024390243903 196.1861818181818L 416.219512195122 199.64654545454545L 419.0365853658537 198.2056727272727L 421.8536585365854 201.2178909090909L 424.6707317073171 201.79083636363637L 427.48780487804873 201.90429090909092L 430.3048780487805 200.1968L 433.1219512195122 195.17076363636363L 435.9390243902439 206L 438.7560975609756 206L 441.5731707317073 206L 444.390243902439 191.4834909090909L 447.2073170731707 197.79723636363636L 450.0243902439024 198.85236363636363L 452.8414634146341 199.76L 455.6585365853659 200.03796363636363L 458.4756097560976 200.76407272727272L 461.2926829268293 201.80785454545455L 464.109756097561 191.63098181818182L 466.9268292682927 194.41061818181817L 469.7439024390244 199.88479999999998L 472.5609756097561 152.63098181818182L 475.3780487804878 197.04843636363637L 478.1951219512195 194.4730181818182L 481.01219512195127 155.90414545454547L 483.8292682926829 91.60945454545454L 486.6463414634146 104.5376L 489.4634146341463 151.17876363636364L 492.280487804878 185.1981090909091L 495.0975609756097 142.76610909090908L 497.9146341463414 125.0672L 500.7317073170732 123.74545454545455L 503.5487804878049 157.99738181818182L 506.3658536585366 53.56814545454546L 509.1829268292683 50.78850909090909L 512 100.02210909090908L 514.8170731707316 156.2445090909091L 517.6341463414634 180.31956363636363L 520.4512195121952 192.43650909090908L 523.2682926829268 193.63912727272728L 526.0853658536586 193.3328L 528.9024390243903 192.11316363636365L 531.719512195122 197.93338181818183L 534.5365853658536 191.5629090909091L 537.3536585365854 198.7672727272727L 540.1707317073171 199.3005090909091L 542.9878048780488 201.64901818181818L 545.8048780487804 200.58821818181818L 548.6219512195123 202.43752727272727L 551.439024390244 200.73003636363637L 554.2560975609756 189.7703272727273L 557.0731707317074 203.17498181818183L 559.8902439024391 200.48610909090908L 562.7073170731708 185.1810909090909L 565.5243902439025 187.88698181818182L 568.3414634146342 191.01832727272728L 571.1585365853658 192.31738181818181L 573.9756097560975 177.09745454545455L 576.7926829268292 167.91330909090908L 579.609756097561 179.30981818181817L 582.4268292682926 186.49716363636364L 585.2439024390244 150.34487272727273L 588.060975609756 184.27345454545454L 590.8780487804878 199.5104L 593.6951219512194 161.24785454545454L 596.5121951219512 155.49003636363636L 599.3292682926829 176.96130909090908L 602.1463414634146 190.30923636363636L 604.9634146341464 193.50865454545453L 607.780487804878 201.72843636363638L 610.5975609756098 185.22647272727272L 613.4146341463414 192.03374545454545L 616.2317073170732 192.66909090909093L 619.0487804878048 180.18341818181818L 621.8658536585366 194.5013818181818L 624.6829268292682 194.6829090909091L 627.5 201.85323636363637L 630.3170731707318 196.2032L 633.1341463414634 204.49105454545455L 635.9512195121952 191.55723636363638L 638.7682926829268 180.36494545454545L 641.5853658536586 193.02647272727273L 644.4024390243902 186.20785454545455L 647.219512195122 191.72741818181817L 650.0365853658536 191.4834909090909L 652.8536585365854 196.63432727272726L 655.6707317073171 200.7810909090909L 658.4878048780488 176.26923636363637L 661.3048780487806 165.78036363636363L 664.1219512195122 181.82850909090908L 666.939024390244 160.6976L 669.7560975609756 163.93105454545454L 672.5731707317074 182.10647272727272L 675.390243902439 130.808L 678.2073170731708 190.49643636363635L 681.0243902439025 202.0914909090909L 683.8414634146342 184.09192727272728L 686.6585365853658 197.50225454545455L 689.4756097560975 187.54094545454547L 692.2926829268292 192.95272727272726L 695.109756097561 201.88727272727272L 697.9268292682926 184.33585454545454L 700.7439024390244 183.04814545454545L 703.560975609756 182.36741818181818L 706.3780487804878 182.54327272727272L 709.1951219512194 186.38938181818182L 712.0121951219512 174.3858909090909L 714.8292682926829 183.1786181818182L 717.6463414634146 183.5133090909091L 720.4634146341464 184.60247272727273L 723.280487804878 186.968L 726.0975609756098 170.00087272727274L 728.9146341463414 167.8338909090909L 731.7317073170732 203.32247272727273L 734.5487804878048 206L 737.3658536585366 128.43112727272728L 740.1829268292682 183.2637090909091L 743 156.8685090909091L 745.8170731707318 183.15592727272727L 748.6341463414634 183.2013090909091L 751.4512195121952 182.25963636363636L 754.2682926829268 170.18807272727273L 757.0853658536586 186.86589090909092L 759.9024390243902 183.77425454545454L 762.719512195122 186.29861818181817L 765.5365853658536 184.17134545454545L 768.3536585365854 184.9655272727273L 771.1707317073171 178.1696L 773.9878048780488 180.70530909090908L 776.8048780487806 170.80072727272727L 779.6219512195122 177.99374545454546L 782.439024390244 175.99127272727273L 785.2560975609756 173.75621818181818L 788.0731707317074 175.45803636363638L 790.890243902439 196.91796363636365L 793.7073170731708 150.30516363636363L 796.5243902439025 167.34036363636363L 799.3414634146342 174.52203636363637L 802.1585365853658 132.05599999999998L 804.9756097560975 144.8309818181818L 807.7926829268292 173.60872727272726L 810.609756097561 151.91054545454546L 813.4268292682926 194.03621818181819L 816.2439024390244 160.59549090909093L 819.060975609756 206L 821.8780487804878 153.43650909090908L 824.6951219512194 181.01163636363637L 827.5121951219512 181.6413090909091L 830.3292682926829 182.49221818181817L 833.1463414634146 183.08785454545455L 835.9634146341464 206L 838.780487804878 151.86516363636363L 841.5975609756098 172.45716363636365L 844.4146341463414 169.20669090909092L 847.2317073170732 178.22065454545455L 850.0487804878048 175.54312727272728L 852.8658536585366 177.61367272727273L 855.6829268292682 181.0173090909091L 858.5 176.80814545454547L 861.3170731707318 167.8962909090909L 864.1341463414634 167.1248L 866.9512195121952 176.62094545454545L 869.7682926829268 158.63272727272727L 872.5853658536586 151.3602909090909L 875.4024390243902 173.35345454545455L 878.219512195122 206L 881.0365853658536 206L 883.8536585365854 206L 886.6707317073171 206L 889.4878048780488 206L 892.3048780487806 206L 895.1219512195122 206L 897.939024390244 206L 900.7560975609756 206L 903.5731707317074 206L 906.390243902439 206L 909.2073170731708 206L 912.0243902439025 206L 914.8414634146342 206L 917.6585365853658 206L 920.4756097560975 206L 923.2926829268292 206L 926.109756097561 206L 928.9268292682926 206L 931.7439024390244 206L 934.560975609756 206L 937.3780487804878 206L 940.1951219512194 206L 943.0121951219512 206L 945.8292682926829 206L 948.6463414634146 206L 951.4634146341464 206L 954.280487804878 206L 957.0975609756098 206L 959.9146341463414 206L 962.7317073170732 206L 965.5487804878048 206L 968.3658536585366 206L 971.1829268292682 206L 974 206" stroke-width="2.0" fill="none" />
    
        
        
        <text x="45.0" font-family="-apple-system, system-ui, BlinkMacSystemFont, Roboto" y="50.0" dominant-baseline="middle" text-anchor="end" font-size="12" fill="#24292f">27500.0</text>
        
            
            <path stroke="#74838f" stroke-dasharray="10 6" stroke-width="0.5"  d="M 50.0 50.0 L 974.0 50.0" />
        
    
        
        
        <text x="45.0" font-family="-apple-system, system-ui, BlinkMacSystemFont, Roboto" y="81.2" dominant-baseline="middle" text-anchor="end" font-size="12" fill="#24292f">22000.0</text>
        
            
            
            <path stroke="#74838f" stroke-dasharray="10 6" stroke-width="0.5"  d="M 50.0 81.2 L 974.0 81.2" />
        
    
        
        
        <text x="45.0" font-family="-apple-system, system-ui, BlinkMacSystemFont, Roboto" y="112.4" dominant-baseline="middle" text-anchor="end" font-size="12" fill="#24292f">16500.0</text>
        
            
            
            <path stroke="#74838f" stroke-dasharray="10 6" stroke-width="0.5"  d="M 50.0 112.4 L 974.0 112.4" />
        
    
        
        
        <text x="45.0" font-family="-apple-system, system-ui, BlinkMacSystemFont, Roboto" y="143.6" dominant-baseline="middle" text-anchor="end" font-size="12" fill="#24292f">11000.0</text>
        
            
            
            <path stroke="#74838f" stroke-dasharray="10 6" stroke-width="0.5"  d="M 50.0 143.6 L 974.0 143.6" />
        
    
        
        
        <text x="45.0" font-family="-apple-system, system-ui, BlinkMacSystemFont, Roboto" y="174.8" dominant-baseline="middle" text-anchor="end" font-size="12" fill="#24292f">5500.0</text>
        
            
            
            <path stroke="#74838f" stroke-dasharray="10 6" stroke-width="0.5"  d="M 50.0 174.8 L 974.0 174.8" />
        
    
        
        
        <text x="45.0" font-family="-apple-system, system-ui, BlinkMacSystemFont, Roboto" y="206.0" dominant-baseline="middle" text-anchor="end" font-size="12" fill="#24292f">0.0</text>
        
    
    
        
        <path stroke="#74838f"  stroke-width="2.0"  d="M 95.07317073170732 206.0 L 95.07317073170732 214.0" />
        <text x="95.07317073170732" font-family="-apple-system, system-ui, BlinkMacSystemFont, Roboto" y="216.0" dominant-baseline="hanging" text-anchor="middle" font-size="12" fill="#24292f">Mar 2022</text>
    
        
        <path stroke="#74838f"  stroke-width="2.0"  d="M 182.40243902439025 206.0 L 182.40243902439025 214.0" />
        <text x="182.40243902439025" font-family="-apple-system, system-ui, BlinkMacSystemFont, Roboto" y="216.0" dominant-baseline="hanging" text-anchor="middle" font-size="12" fill="#24292f">Apr 2022</text>
    
        
        <path stroke="#74838f"  stroke-width="2.0"  d="M 266.9146341463414 206.0 L 266.9146341463414 214.0" />
        <text x="266.9146341463414" font-family="-apple-system, system-ui, BlinkMacSystemFont, Roboto" y="216.0" dominant-baseline="hanging" text-anchor="middle" font-size="12" fill="#24292f">May 2022</text>
    
        
        <path stroke="#74838f"  stroke-width="2.0"  d="M 354.2439024390244 206.0 L 354.2439024390244 214.0" />
        <text x="354.2439024390244" font-family="-apple-system, system-ui, BlinkMacSystemFont, Roboto" y="216.0" dominant-baseline="hanging" text-anchor="middle" font-size="12" fill="#24292f">Jun 2022</text>
    
        
        <path stroke="#74838f"  stroke-width="2.0"  d="M 438.7560975609756 206.0 L 438.7560975609756 214.0" />
        <text x="438.7560975609756" font-family="-apple-system, system-ui, BlinkMacSystemFont, Roboto" y="216.0" dominant-baseline="hanging" text-anchor="middle" font-size="12" fill="#24292f">Jul 2022</text>
    
        
        <path stroke="#74838f"  stroke-width="2.0"  d="M 526.0853658536586 206.0 L 526.0853658536586 214.0" />
        <text x="526.0853658536586" font-family="-apple-system, system-ui, BlinkMacSystemFont, Roboto" y="216.0" dominant-baseline="hanging" text-anchor="middle" font-size="12" fill="#24292f">Aug 2022</text>
    
        
        <path stroke="#74838f"  stroke-width="2.0"  d="M 613.4146341463414 206.0 L 613.4146341463414 214.0" />
        <text x="613.4146341463414" font-family="-apple-system, system-ui, BlinkMacSystemFont, Roboto" y="216.0" dominant-baseline="hanging" text-anchor="middle" font-size="12" fill="#24292f">Sep 2022</text>
    
        
        <path stroke="#74838f"  stroke-width="2.0"  d="M 697.9268292682926 206.0 L 697.9268292682926 214.0" />
        <text x="697.9268292682926" font-family="-apple-system, system-ui, BlinkMacSystemFont, Roboto" y="216.0" dominant-baseline="hanging" text-anchor="middle" font-size="12" fill="#24292f">Oct 2022</text>
    
        
        <path stroke="#74838f"  stroke-width="2.0"  d="M 785.2560975609756 206.0 L 785.2560975609756 214.0" />
        <text x="785.2560975609756" font-family="-apple-system, system-ui, BlinkMacSystemFont, Roboto" y="216.0" dominant-baseline="hanging" text-anchor="middle" font-size="12" fill="#24292f">Nov 2022</text>
    
        
        <path stroke="#74838f"  stroke-width="2.0"  d="M 869.7682926829268 206.0 L 869.7682926829268 214.0" />
        <text x="869.7682926829268" font-family="-apple-system, system-ui, BlinkMacSystemFont, Roboto" y="216.0" dominant-baseline="hanging" text-anchor="middle" font-size="12" fill="#24292f">Dec 2022</text>
    
        
        <path stroke="#74838f"  stroke-width="2.0"  d="M 957.0975609756098 206.0 L 957.0975609756098 214.0" />
        <text x="957.0975609756098" font-family="-apple-system, system-ui, BlinkMacSystemFont, Roboto" y="216.0" dominant-baseline="hanging" text-anchor="middle" font-size="12" fill="#24292f">Jan 2023</text>
    
    <path stroke="#74838f"   stroke-linejoin="round" stroke-width="2.0" d="M 50.0 216.0 L 50.0 206.0 L 974.0 206.0 L 974.0 216.0"  fill="none" />
    <text x="512.0" y="25.0" font-family="-apple-system, system-ui, BlinkMacSystemFont, Roboto" dominant-baseline="middle" text-anchor="middle" font-size="18" fill="#24292f">Total daily screen name changes</text>
</svg>
