<?xml version="1.0" standalone="no"?>
<svg width="1024.0" height="256.0"  viewBox="0 0 1024.0 256.0" preserveAspectRatio="xMidYMid meet" xmlns="http://www.w3.org/2000/svg">
    <path stroke="#3498db" stroke-linejoin="round" d="M 50.0 203.3394909090909 L 50 203.3394909090909L 52.09049773755656 202.32974545454545L 54.18099547511312 196.86690909090908L 56.27149321266968 195.94792727272727L 58.36199095022624 202.14254545454546L 60.452488687782804 197.35476363636363L 62.542986425339365 191.76145454545454L 64.63348416289593 179.96218181818182L 66.72398190045249 204.09396363636364L 68.81447963800905 194.17236363636363L 70.90497737556561 192.61803636363635L 72.99547511312217 195.1253818181818L 75.08597285067873 193.92843636363637L 77.17647058823529 182.2482909090909L 79.26696832579185 200.86618181818181L 81.35746606334841 201.45614545454546L 83.44796380090497 178.89003636363637L 85.53846153846155 197.33774545454546L 87.6289592760181 198.50065454545455L 89.71945701357467 200.41803636363636L 91.80995475113122 201.18385454545455L 93.90045248868779 202.26734545454545L 95.99095022624434 195.09134545454546L 98.08144796380091 198.08087272727272L 100.17194570135746 183.38850909090908L 102.26244343891403 197.47389090909093L 104.35294117647058 202.01774545454546L 106.44343891402715 194.66021818181818L 108.5339366515837 200.75272727272727L 110.62443438914028 200.00392727272728L 112.71493212669682 201.97236363636364L 114.8054298642534 204.2754909090909L 116.89592760180996 201.74545454545455L 118.98642533936652 201.01367272727273L 121.07692307692308 174.7829818181818L 123.16742081447964 195.76072727272728L 125.2579185520362 204.0032L 127.34841628959275 203.7309090909091L 129.43891402714934 197.87665454545453L 131.52941176470588 202.60770909090908L 133.61990950226243 202.6928L 135.710407239819 197.55898181818182L 137.80090497737558 186.5141818181818L 139.89140271493213 199.26647272727274L 141.98190045248867 199.5728L 144.07239819004525 193.4802909090909L 146.16289592760182 199.10763636363635L 148.25339366515837 201.54690909090908L 150.34389140271492 201.5696L 152.4343891402715 195.06865454545454L 154.52488687782807 201.70007272727273L 156.61538461538464 197.2866909090909L 158.70588235294116 172.35505454545455L 160.79638009049773 203.20901818181818L 162.8868778280543 199.6749090909091L 164.97737556561086 193.12858181818183L 167.0678733031674 196.8896L 169.15837104072398 199.78836363636364L 171.24886877828055 198.82967272727274L 173.3393665158371 204.1336727272727L 175.42986425339365 202.57934545454546L 177.52036199095022 198.9261090909091L 179.6108597285068 206L 181.70135746606334 204.128L 183.79185520361992 192.1245090909091L 185.88235294117646 206L 187.97285067873304 206L 190.06334841628959 206L 192.15384615384616 206L 194.2443438914027 197.37178181818183L 196.33484162895928 199.57847272727273L 198.42533936651586 188.9024L 200.5158371040724 195.02894545454546L 202.60633484162895 191.20552727272727L 204.6968325791855 166.8128L 206.7873303167421 203.8386909090909L 208.87782805429865 198.09221818181817L 210.9683257918552 201.64334545454545L 213.05882352941177 202.2957090909091L 215.14932126696834 203.22036363636363L 217.2398190045249 200.66763636363635L 219.33031674208144 191.51185454545455L 221.420814479638 189.18603636363636L 223.51131221719456 203.86705454545455L 225.60180995475113 197.56465454545454L 227.6923076923077 187.32538181818182L 229.78280542986425 201.2349090909091L 231.8733031674208 200.44639999999998L 233.96380090497738 201.4618181818182L 236.05429864253395 201.09876363636363L 238.1447963800905 201.17818181818183L 240.23529411764704 193.02647272727273L 242.32579185520362 198.8069818181818L 244.4162895927602 203.39054545454545L 246.50678733031674 200.30458181818182L 248.59728506787332 198.35883636363636L 250.68778280542986 193.3101090909091L 252.77828054298644 200.56552727272728L 254.86877828054298 203.03883636363636L 256.95927601809956 197.22996363636364L 259.04977375565613 201.95534545454547L 261.14027149321265 196.016L 263.2307692307693 202.30705454545455L 265.3212669683258 199.91316363636363L 267.4117647058823 194.62050909090908L 269.5022624434389 201.29163636363637L 271.59276018099547 202.98778181818182L 273.68325791855204 203.5437090909091L 275.7737556561086 200.60523636363638L 277.8642533936652 195.5621818181818L 279.9547511312217 203.24305454545456L 282.0452488687783 200.15709090909093L 284.1357466063348 198.46661818181818L 286.2262443438914 201.70007272727273L 288.31674208144796 200.70734545454545L 290.40723981900453 200.4293818181818L 292.4977375565611 201.76814545454545L 294.5882352941177 204.6442181818182L 296.6787330316742 206L 298.7692307692307 196.35636363636365L 300.8597285067873 199.21541818181817L 302.9502262443439 156.87418181818182L 305.04072398190044 165.1506909090909L 307.131221719457 204.1733818181818L 309.2217194570136 202.17658181818183L 311.3122171945701 199.31185454545454L 313.4027149321267 198.7842909090909L 315.49321266968326 202.6757818181818L 317.58371040723983 202.8573090909091L 319.6742081447964 196.1861818181818L 321.7647058823529 199.64654545454545L 323.8552036199095 198.2056727272727L 325.9457013574661 201.2178909090909L 328.0361990950226 201.79083636363637L 330.12669683257917 201.90429090909092L 332.21719457013575 200.1968L 334.3076923076923 195.17076363636363L 336.3981900452489 206L 338.4886877828054 206L 340.579185520362 206L 342.66968325791856 191.4834909090909L 344.7601809954751 197.79723636363636L 346.8506787330317 198.85236363636363L 348.94117647058823 199.76L 351.0316742081448 200.03796363636363L 353.1221719457014 200.76407272727272L 355.2126696832579 201.80785454545455L 357.3031674208145 191.63098181818182L 359.393665158371 194.41061818181817L 361.4841628959276 199.88479999999998L 363.5746606334842 152.63098181818182L 365.6651583710407 197.04843636363637L 367.7556561085973 194.4730181818182L 369.8461538461538 155.90414545454547L 371.9366515837104 91.60945454545454L 374.02714932126696 104.5376L 376.11764705882354 151.17876363636364L 378.2081447963801 185.1981090909091L 380.2986425339367 142.76610909090908L 382.3891402714932 125.0672L 384.4796380090498 123.74545454545455L 386.5701357466063 157.99738181818182L 388.6606334841629 53.56814545454546L 390.7511312217195 50.78850909090909L 392.841628959276 100.02210909090908L 394.9321266968326 156.2445090909091L 397.0226244343891 180.31956363636363L 399.1131221719457 192.43650909090908L 401.20361990950227 193.63912727272728L 403.2941176470588 193.3328L 405.3846153846154 192.11316363636365L 407.47511312217193 197.93338181818183L 409.5656108597285 191.5629090909091L 411.6561085972851 198.7672727272727L 413.7466063348416 199.3005090909091L 415.8371040723982 201.64901818181818L 417.92760180995475 200.58821818181818L 420.0180995475113 202.43752727272727L 422.1085972850679 200.73003636363637L 424.1990950226244 189.7703272727273L 426.289592760181 203.17498181818183L 428.38009049773757 200.48610909090908L 430.4705882352941 185.1810909090909L 432.56108597285066 187.88698181818182L 434.65158371040724 191.01832727272728L 436.7420814479638 192.31738181818181L 438.8325791855204 177.09745454545455L 440.9230769230769 167.91330909090908L 443.0135746606335 179.30981818181817L 445.10407239819 186.49716363636364L 447.19457013574663 150.34487272727273L 449.2850678733032 184.27345454545454L 451.3755656108597 199.5104L 453.4660633484163 161.24785454545454L 455.5565610859729 155.49003636363636L 457.6470588235294 176.96130909090908L 459.73755656108597 190.30923636363636L 461.82805429864254 193.50865454545453L 463.9185520361991 201.72843636363638L 466.0090497737557 185.22647272727272L 468.0995475113122 192.03374545454545L 470.1900452488688 192.66909090909093L 472.2805429864253 180.18341818181818L 474.3710407239819 194.5013818181818L 476.4615384615385 194.6829090909091L 478.552036199095 201.85323636363637L 480.6425339366516 196.2032L 482.7330316742081 204.49105454545455L 484.8235294117647 191.55723636363638L 486.91402714932127 180.36494545454545L 489.0045248868778 193.02647272727273L 491.0950226244344 186.20785454545455L 493.18552036199094 191.72741818181817L 495.2760180995475 191.4834909090909L 497.3665158371041 196.63432727272726L 499.4570135746606 200.7810909090909L 501.5475113122172 176.26923636363637L 503.63800904977376 165.78036363636363L 505.72850678733033 181.82850909090908L 507.8190045248869 160.6976L 509.9095022624434 163.93105454545454L 512 182.10647272727272L 514.0904977375566 130.808L 516.1809954751131 190.49643636363635L 518.2714932126696 202.0914909090909L 520.3619909502262 184.09192727272728L 522.4524886877828 197.50225454545455L 524.5429864253393 187.54094545454547L 526.6334841628959 192.95272727272726L 528.7239819004526 201.88727272727272L 530.8144796380091 184.33585454545454L 532.9049773755656 183.04814545454545L 534.9954751131222 182.36741818181818L 537.0859728506787 182.54327272727272L 539.1764705882354 186.38938181818182L 541.2669683257918 174.3858909090909L 543.3574660633484 183.1786181818182L 545.447963800905 183.5133090909091L 547.5384615384614 184.60247272727273L 549.6289592760181 186.968L 551.7194570135746 170.00087272727274L 553.8099547511312 167.8338909090909L 555.9004524886878 203.32247272727273L 557.9909502262444 206L 560.0814479638009 128.43112727272728L 562.1719457013575 183.2637090909091L 564.262443438914 156.8685090909091L 566.3529411764706 183.15592727272727L 568.4434389140272 183.2013090909091L 570.5339366515838 182.25963636363636L 572.6244343891402 170.18807272727273L 574.7149321266968 186.86589090909092L 576.8054298642534 183.77425454545454L 578.89592760181 186.29861818181817L 580.9864253393665 184.17134545454545L 583.076923076923 184.9655272727273L 585.1674208144797 178.1696L 587.2579185520362 180.70530909090908L 589.3484162895928 170.80072727272727L 591.4389140271494 177.99374545454546L 593.5294117647059 175.99127272727273L 595.6199095022624 173.75621818181818L 597.710407239819 175.45803636363638L 599.8009049773756 196.91796363636365L 601.8914027149322 150.30516363636363L 603.9819004524886 167.34036363636363L 606.0723981900452 174.52203636363637L 608.1628959276018 132.05599999999998L 610.2533936651583 144.8309818181818L 612.3438914027149 173.60872727272726L 614.4343891402715 151.91054545454546L 616.5248868778281 194.03621818181819L 618.6153846153846 160.59549090909093L 620.7058823529412 206L 622.7963800904978 153.43650909090908L 624.8868778280543 181.01163636363637L 626.9773755656108 181.6413090909091L 629.0678733031674 182.49221818181817L 631.158371040724 183.08785454545455L 633.2488687782806 206L 635.3393665158371 151.86516363636363L 637.4298642533936 172.45716363636365L 639.5203619909502 169.20669090909092L 641.6108597285067 178.22065454545455L 643.7013574660634 175.54312727272728L 645.79185520362 177.61367272727273L 647.8823529411765 181.0173090909091L 649.972850678733 176.80814545454547L 652.0633484162896 167.8962909090909L 654.1538461538462 167.1248L 656.2443438914028 176.62094545454545L 658.3348416289592 158.63272727272727L 660.4253393665158 151.3602909090909L 662.5158371040724 173.35345454545455L 664.606334841629 206L 666.6968325791855 206L 668.787330316742 206L 670.8778280542987 206L 672.9683257918552 206L 675.0588235294118 206L 677.1493212669684 206L 679.2398190045249 206L 681.3303167420814 206L 683.420814479638 206L 685.5113122171946 206L 687.6018099547512 206L 689.6923076923076 206L 691.7828054298642 206L 693.8733031674208 206L 695.9638009049773 206L 698.0542986425339 206L 700.1447963800905 206L 702.2352941176471 206L 704.3257918552036 206L 706.4162895927602 206L 708.5067873303168 206L 710.5972850678734 206L 712.6877828054298 206L 714.7782805429864 206L 716.868778280543 206L 718.9592760180996 206L 721.0497737556561 206L 723.1402714932126 206L 725.2307692307692 206L 727.3212669683257 206L 729.4117647058824 206L 731.502262443439 206L 733.5927601809955 206L 735.683257918552 206L 737.7737556561086 206L 739.8642533936652 206L 741.9547511312218 206L 744.0452488687782 206L 746.1357466063348 206L 748.2262443438914 206L 750.316742081448 206L 752.4072398190045 206L 754.497737556561 206L 756.5882352941176 206L 758.6787330316743 206L 760.7692307692308 206L 762.8597285067874 206L 764.9502262443439 206L 767.0407239819004 206L 769.131221719457 206L 771.2217194570136 206L 773.3122171945702 206L 775.4027149321266 206L 777.4932126696832 206L 779.5837104072398 206L 781.6742081447964 206L 783.7647058823529 206L 785.8552036199095 206L 787.9457013574661 206L 790.0361990950227 206L 792.1266968325792 206L 794.2171945701358 206L 796.3076923076924 206L 798.3981900452488 206L 800.4886877828054 206L 802.579185520362 206L 804.6696832579186 206L 806.7601809954751 206L 808.8506787330316 206L 810.9411764705882 206L 813.0316742081448 206L 815.1221719457013 206L 817.212669683258 206L 819.3031674208145 206L 821.393665158371 206L 823.4841628959276 206L 825.5746606334842 206L 827.6651583710408 206L 829.7556561085972 206L 831.8461538461538 206L 833.9366515837104 206L 836.027149321267 206L 838.1176470588235 206L 840.20814479638 206L 842.2986425339366 206L 844.3891402714933 206L 846.4796380090498 206L 848.5701357466064 206L 850.6606334841629 206L 852.7511312217194 206L 854.841628959276 206L 856.9321266968326 206L 859.0226244343892 206L 861.1131221719457 206L 863.2036199095022 206L 865.2941176470588 206L 867.3846153846154 206L 869.4751131221719 206L 871.5656108597285 206L 873.6561085972851 206L 875.7466063348417 206L 877.8371040723982 206L 879.9276018099548 206L 882.0180995475114 206L 884.1085972850678 206L 886.1990950226244 206L 888.289592760181 206L 890.3800904977376 206L 892.4705882352941 206L 894.5610859728506 206L 896.6515837104072 206L 898.7420814479638 206L 900.8325791855203 206L 902.923076923077 206L 905.0135746606335 206L 907.10407239819 206L 909.1945701357466 206L 911.2850678733032 206L 913.3755656108598 206L 915.4660633484162 206L 917.5565610859728 206L 919.6470588235294 206L 921.737556561086 206L 923.8280542986425 206L 925.9185520361991 206L 928.0090497737556 206L 930.0995475113122 206L 932.1900452488688 206L 934.2805429864254 206L 936.3710407239819 206L 938.4615384615385 206L 940.552036199095 206L 942.6425339366516 206L 944.7330316742082 206L 946.8235294117648 206L 948.9140271493212 206L 951.0045248868778 206L 953.0950226244344 206L 955.1855203619909 206L 957.2760180995475 206L 959.366515837104 206L 961.4570135746607 206L 963.5475113122172 206L 965.6380090497738 206L 967.7285067873304 206L 969.8190045248869 206L 971.9095022624434 206L 974 206" stroke-width="2.0" fill="none" />
    
        
        
        <text x="45.0" font-family="-apple-system, system-ui, BlinkMacSystemFont, Roboto" y="50.0" dominant-baseline="middle" text-anchor="end" font-size="12" fill="#24292f">27500.0</text>
        
            
            <path stroke="#74838f" stroke-dasharray="10 6" stroke-width="0.5"  d="M 50.0 50.0 L 974.0 50.0" />
        
    
        
        
        <text x="45.0" font-family="-apple-system, system-ui, BlinkMacSystemFont, Roboto" y="81.2" dominant-baseline="middle" text-anchor="end" font-size="12" fill="#24292f">22000.0</text>
        
            
            
            <path stroke="#74838f" stroke-dasharray="10 6" stroke-width="0.5"  d="M 50.0 81.2 L 974.0 81.2" />
        
    
        
        
        <text x="45.0" font-family="-apple-system, system-ui, BlinkMacSystemFont, Roboto" y="112.4" dominant-baseline="middle" text-anchor="end" font-size="12" fill="#24292f">16500.0</text>
        
            
            
            <path stroke="#74838f" stroke-dasharray="10 6" stroke-width="0.5"  d="M 50.0 112.4 L 974.0 112.4" />
        
    
        
        
        <text x="45.0" font-family="-apple-system, system-ui, BlinkMacSystemFont, Roboto" y="143.6" dominant-baseline="middle" text-anchor="end" font-size="12" fill="#24292f">11000.0</text>
        
            
            
            <path stroke="#74838f" stroke-dasharray="10 6" stroke-width="0.5"  d="M 50.0 143.6 L 974.0 143.6" />
        
    
        
        
        <text x="45.0" font-family="-apple-system, system-ui, BlinkMacSystemFont, Roboto" y="174.8" dominant-baseline="middle" text-anchor="end" font-size="12" fill="#24292f">5500.0</text>
        
            
            
            <path stroke="#74838f" stroke-dasharray="10 6" stroke-width="0.5"  d="M 50.0 174.8 L 974.0 174.8" />
        
    
        
        
        <text x="45.0" font-family="-apple-system, system-ui, BlinkMacSystemFont, Roboto" y="206.0" dominant-baseline="middle" text-anchor="end" font-size="12" fill="#24292f">0.0</text>
        
    
    
        
        <path stroke="#74838f"  stroke-width="2.0"  d="M 83.44796380090497 206.0 L 83.44796380090497 214.0" />
        <text x="83.44796380090497" font-family="-apple-system, system-ui, BlinkMacSystemFont, Roboto" y="216.0" dominant-baseline="hanging" text-anchor="middle" font-size="12" fill="#24292f">Mar 2022</text>
    
        
        <path stroke="#74838f"  stroke-width="2.0"  d="M 148.25339366515837 206.0 L 148.25339366515837 214.0" />
        <text x="148.25339366515837" font-family="-apple-system, system-ui, BlinkMacSystemFont, Roboto" y="216.0" dominant-baseline="hanging" text-anchor="middle" font-size="12" fill="#24292f">Apr 2022</text>
    
        
        <path stroke="#74838f"  stroke-width="2.0"  d="M 210.9683257918552 206.0 L 210.9683257918552 214.0" />
        <text x="210.9683257918552" font-family="-apple-system, system-ui, BlinkMacSystemFont, Roboto" y="216.0" dominant-baseline="hanging" text-anchor="middle" font-size="12" fill="#24292f">May 2022</text>
    
        
        <path stroke="#74838f"  stroke-width="2.0"  d="M 275.7737556561086 206.0 L 275.7737556561086 214.0" />
        <text x="275.7737556561086" font-family="-apple-system, system-ui, BlinkMacSystemFont, Roboto" y="216.0" dominant-baseline="hanging" text-anchor="middle" font-size="12" fill="#24292f">Jun 2022</text>
    
        
        <path stroke="#74838f"  stroke-width="2.0"  d="M 338.4886877828054 206.0 L 338.4886877828054 214.0" />
        <text x="338.4886877828054" font-family="-apple-system, system-ui, BlinkMacSystemFont, Roboto" y="216.0" dominant-baseline="hanging" text-anchor="middle" font-size="12" fill="#24292f">Jul 2022</text>
    
        
        <path stroke="#74838f"  stroke-width="2.0"  d="M 403.2941176470588 206.0 L 403.2941176470588 214.0" />
        <text x="403.2941176470588" font-family="-apple-system, system-ui, BlinkMacSystemFont, Roboto" y="216.0" dominant-baseline="hanging" text-anchor="middle" font-size="12" fill="#24292f">Aug 2022</text>
    
        
        <path stroke="#74838f"  stroke-width="2.0"  d="M 468.0995475113122 206.0 L 468.0995475113122 214.0" />
        <text x="468.0995475113122" font-family="-apple-system, system-ui, BlinkMacSystemFont, Roboto" y="216.0" dominant-baseline="hanging" text-anchor="middle" font-size="12" fill="#24292f">Sep 2022</text>
    
        
        <path stroke="#74838f"  stroke-width="2.0"  d="M 530.8144796380091 206.0 L 530.8144796380091 214.0" />
        <text x="530.8144796380091" font-family="-apple-system, system-ui, BlinkMacSystemFont, Roboto" y="216.0" dominant-baseline="hanging" text-anchor="middle" font-size="12" fill="#24292f">Oct 2022</text>
    
        
        <path stroke="#74838f"  stroke-width="2.0"  d="M 595.6199095022624 206.0 L 595.6199095022624 214.0" />
        <text x="595.6199095022624" font-family="-apple-system, system-ui, BlinkMacSystemFont, Roboto" y="216.0" dominant-baseline="hanging" text-anchor="middle" font-size="12" fill="#24292f">Nov 2022</text>
    
        
        <path stroke="#74838f"  stroke-width="2.0"  d="M 658.3348416289592 206.0 L 658.3348416289592 214.0" />
        <text x="658.3348416289592" font-family="-apple-system, system-ui, BlinkMacSystemFont, Roboto" y="216.0" dominant-baseline="hanging" text-anchor="middle" font-size="12" fill="#24292f">Dec 2022</text>
    
        
        <path stroke="#74838f"  stroke-width="2.0"  d="M 723.1402714932126 206.0 L 723.1402714932126 214.0" />
        <text x="723.1402714932126" font-family="-apple-system, system-ui, BlinkMacSystemFont, Roboto" y="216.0" dominant-baseline="hanging" text-anchor="middle" font-size="12" fill="#24292f">Jan 2023</text>
    
        
        <path stroke="#74838f"  stroke-width="2.0"  d="M 787.9457013574661 206.0 L 787.9457013574661 214.0" />
        <text x="787.9457013574661" font-family="-apple-system, system-ui, BlinkMacSystemFont, Roboto" y="216.0" dominant-baseline="hanging" text-anchor="middle" font-size="12" fill="#24292f">Feb 2023</text>
    
        
        <path stroke="#74838f"  stroke-width="2.0"  d="M 846.4796380090498 206.0 L 846.4796380090498 214.0" />
        <text x="846.4796380090498" font-family="-apple-system, system-ui, BlinkMacSystemFont, Roboto" y="216.0" dominant-baseline="hanging" text-anchor="middle" font-size="12" fill="#24292f">Mar 2023</text>
    
        
        <path stroke="#74838f"  stroke-width="2.0"  d="M 911.2850678733032 206.0 L 911.2850678733032 214.0" />
        <text x="911.2850678733032" font-family="-apple-system, system-ui, BlinkMacSystemFont, Roboto" y="216.0" dominant-baseline="hanging" text-anchor="middle" font-size="12" fill="#24292f">Apr 2023</text>
    
        
        <path stroke="#74838f"  stroke-width="2.0"  d="M 974.0 206.0 L 974.0 214.0" />
        <text x="974.0" font-family="-apple-system, system-ui, BlinkMacSystemFont, Roboto" y="216.0" dominant-baseline="hanging" text-anchor="middle" font-size="12" fill="#24292f">May 2023</text>
    
    <path stroke="#74838f"   stroke-linejoin="round" stroke-width="2.0" d="M 50.0 216.0 L 50.0 206.0 L 974.0 206.0 L 974.0 216.0"  fill="none" />
    <text x="512.0" y="25.0" font-family="-apple-system, system-ui, BlinkMacSystemFont, Roboto" dominant-baseline="middle" text-anchor="middle" font-size="18" fill="#24292f">Total daily screen name changes</text>
</svg>
