<?xml version="1.0" standalone="no"?>
<svg width="1024.0" height="256.0"  viewBox="0 0 1024.0 256.0" preserveAspectRatio="xMidYMid meet" xmlns="http://www.w3.org/2000/svg">
    <path stroke="#3498db" stroke-linejoin="round" d="M 50.0 203.3394909090909 L 50 203.3394909090909L 51.85170340681363 202.32974545454545L 53.703406813627254 196.86690909090908L 55.55511022044088 195.94792727272727L 57.40681362725451 202.14254545454546L 59.258517034068134 197.35476363636363L 61.11022044088176 191.76145454545454L 62.96192384769539 179.96218181818182L 64.81362725450902 204.09396363636364L 66.66533066132264 194.17236363636363L 68.51703406813627 192.61803636363635L 70.3687374749499 195.1253818181818L 72.22044088176352 193.92843636363637L 74.07214428857715 182.2482909090909L 75.92384769539078 200.86618181818181L 77.7755511022044 201.45614545454546L 79.62725450901803 178.89003636363637L 81.47895791583167 197.33774545454546L 83.33066132264528 198.50065454545455L 85.18236472945893 200.41803636363636L 87.03406813627254 201.18385454545455L 88.88577154308618 202.26734545454545L 90.73747494989979 195.09134545454546L 92.58917835671343 198.08087272727272L 94.44088176352705 183.38850909090908L 96.29258517034069 197.47389090909093L 98.1442885771543 202.01774545454546L 99.99599198396794 194.66021818181818L 101.84769539078157 200.75272727272727L 103.6993987975952 200.00392727272728L 105.5511022044088 201.97236363636364L 107.40280561122245 204.2754909090909L 109.25450901803606 201.74545454545455L 111.1062124248497 201.01367272727273L 112.95791583166333 174.7829818181818L 114.80961923847696 195.76072727272728L 116.66132264529058 204.0032L 118.51302605210421 203.7309090909091L 120.36472945891784 197.87665454545453L 122.21643286573146 202.60770909090908L 124.06813627254509 202.6928L 125.91983967935872 197.55898181818182L 127.77154308617234 186.5141818181818L 129.62324649298597 199.26647272727274L 131.47494989979958 199.5728L 133.32665330661325 193.4802909090909L 135.17835671342687 199.10763636363635L 137.03006012024048 201.54690909090908L 138.8817635270541 201.5696L 140.73346693386773 195.06865454545454L 142.58517034068137 201.70007272727273L 144.43687374749499 197.2866909090909L 146.2885771543086 172.35505454545455L 148.14028056112224 203.20901818181818L 149.99198396793588 199.6749090909091L 151.8436873747495 193.12858181818183L 153.69539078156313 196.8896L 155.54709418837678 199.78836363636364L 157.3987975951904 198.82967272727274L 159.250501002004 204.1336727272727L 161.1022044088176 202.57934545454546L 162.95390781563125 198.9261090909091L 164.8056112224449 206L 166.6573146292585 204.128L 168.50901803607212 192.1245090909091L 170.36072144288576 206L 172.2124248496994 206L 174.06412825651302 206L 175.91583166332666 206L 177.7675350701403 197.37178181818183L 179.6192384769539 199.57847272727273L 181.47094188376755 188.9024L 183.32264529058116 195.02894545454546L 185.1743486973948 191.20552727272727L 187.02605210420842 166.8128L 188.87775551102206 203.8386909090909L 190.72945891783567 198.09221818181817L 192.58116232464928 201.64334545454545L 194.43286573146293 202.2957090909091L 196.28456913827654 203.22036363636363L 198.13627254509018 200.66763636363635L 199.9879759519038 191.51185454545455L 201.83967935871743 189.18603636363636L 203.69138276553107 203.86705454545455L 205.5430861723447 197.56465454545454L 207.39478957915833 187.32538181818182L 209.24649298597194 201.2349090909091L 211.09819639278558 200.44639999999998L 212.9498997995992 201.4618181818182L 214.80160320641284 201.09876363636363L 216.65330661322648 201.17818181818183L 218.50501002004006 193.02647272727273L 220.3567134268537 198.8069818181818L 222.20841683366731 203.39054545454545L 224.06012024048096 200.30458181818182L 225.9118236472946 198.35883636363636L 227.7635270541082 193.3101090909091L 229.61523046092185 200.56552727272728L 231.46693386773546 203.03883636363636L 233.3186372745491 197.22996363636364L 235.17034068136272 201.95534545454547L 237.02204408817636 196.016L 238.87374749499 202.30705454545455L 240.7254509018036 199.91316363636363L 242.57715430861722 194.62050909090908L 244.42885771543084 201.29163636363637L 246.28056112224448 202.98778181818182L 248.13226452905812 203.5437090909091L 249.98396793587173 200.60523636363638L 251.83567134268537 195.5621818181818L 253.68737474949899 203.24305454545456L 255.53907815631263 200.15709090909093L 257.39078156312627 198.46661818181818L 259.2424849699399 201.70007272727273L 261.09418837675355 200.70734545454545L 262.94589178356716 200.4293818181818L 264.7975951903808 201.76814545454545L 266.6492985971944 204.6442181818182L 268.501002004008 206L 270.3527054108216 196.35636363636365L 272.2044088176352 199.21541818181817L 274.0561122244489 156.87418181818182L 275.9078156312625 165.1506909090909L 277.7595190380762 204.1733818181818L 279.6112224448898 202.17658181818183L 281.4629258517034 199.31185454545454L 283.314629258517 198.7842909090909L 285.16633266533063 202.6757818181818L 287.01803607214424 202.8573090909091L 288.8697394789579 196.1861818181818L 290.7214428857715 199.64654545454545L 292.5731462925852 198.2056727272727L 294.4248496993988 201.2178909090909L 296.2765531062124 201.79083636363637L 298.12825651302603 201.90429090909092L 299.97995991983964 200.1968L 301.8316633266533 195.17076363636363L 303.6833667334669 206L 305.5350701402806 206L 307.3867735470942 206L 309.2384769539078 191.4834909090909L 311.09018036072143 197.79723636363636L 312.9418837675351 198.85236363636363L 314.7935871743487 199.76L 316.6452905811623 200.03796363636363L 318.49699398797594 200.76407272727272L 320.3486973947896 201.80785454545455L 322.2004008016032 191.63098181818182L 324.05210420841684 194.41061818181817L 325.9038076152305 199.88479999999998L 327.7555110220441 152.63098181818182L 329.60721442885773 197.04843636363637L 331.45891783567134 194.4730181818182L 333.31062124248496 155.90414545454547L 335.16232464929857 91.60945454545454L 337.0140280561122 104.5376L 338.86573146292585 151.17876363636364L 340.71743486973946 185.1981090909091L 342.5691382765531 142.76610909090908L 344.42084168336675 125.0672L 346.27254509018036 123.74545454545455L 348.12424849699397 157.99738181818182L 349.9759519038076 53.56814545454546L 351.82765531062125 50.78850909090909L 353.67935871743487 100.02210909090908L 355.5310621242485 156.2445090909091L 357.38276553106215 180.31956363636363L 359.23446893787576 192.43650909090908L 361.0861723446894 193.63912727272728L 362.937875751503 193.3328L 364.78957915831666 192.11316363636365L 366.64128256513027 197.93338181818183L 368.4929859719439 191.5629090909091L 370.34468937875755 198.7672727272727L 372.19639278557116 199.3005090909091L 374.0480961923848 201.64901818181818L 375.8997995991984 200.58821818181818L 377.75150300601206 202.43752727272727L 379.60320641282567 200.73003636363637L 381.4549098196393 189.7703272727273L 383.30661322645295 203.17498181818183L 385.1583166332665 200.48610909090908L 387.0100200400801 185.1810909090909L 388.8617234468938 187.88698181818182L 390.7134268537074 191.01832727272728L 392.565130260521 192.31738181818181L 394.41683366733463 177.09745454545455L 396.2685370741483 167.91330909090908L 398.1202404809619 179.30981818181817L 399.9719438877755 186.49716363636364L 401.8236472945892 150.34487272727273L 403.6753507014028 184.27345454545454L 405.5270541082164 199.5104L 407.37875751503003 161.24785454545454L 409.2304609218437 155.49003636363636L 411.0821643286573 176.96130909090908L 412.9338677354709 190.30923636363636L 414.7855711422846 193.50865454545453L 416.6372745490982 201.72843636363638L 418.4889779559118 185.22647272727272L 420.34068136272543 192.03374545454545L 422.1923847695391 192.66909090909093L 424.0440881763527 180.18341818181818L 425.89579158316633 194.5013818181818L 427.74749498998 194.6829090909091L 429.5991983967936 201.85323636363637L 431.4509018036072 196.2032L 433.3026052104209 204.49105454545455L 435.15430861723445 191.55723636363638L 437.00601202404806 180.36494545454545L 438.8577154308617 193.02647272727273L 440.70941883767534 186.20785454545455L 442.56112224448896 191.72741818181817L 444.41282565130257 191.4834909090909L 446.26452905811624 196.63432727272726L 448.11623246492985 200.7810909090909L 449.96793587174346 176.26923636363637L 451.81963927855713 165.78036363636363L 453.67134268537075 181.82850909090908L 455.52304609218436 160.6976L 457.37474949899797 163.93105454545454L 459.22645290581164 182.10647272727272L 461.07815631262525 130.808L 462.92985971943887 190.49643636363635L 464.78156312625254 202.0914909090909L 466.63326653306615 184.09192727272728L 468.48496993987976 197.50225454545455L 470.3366733466934 187.54094545454547L 472.18837675350704 192.95272727272726L 474.04008016032066 201.88727272727272L 475.89178356713427 184.33585454545454L 477.74348697394794 183.04814545454545L 479.59519038076155 182.36741818181818L 481.44689378757516 182.54327272727272L 483.2985971943888 186.38938181818182L 485.15030060120245 174.3858909090909L 487.002004008016 183.1786181818182L 488.8537074148296 183.5133090909091L 490.7054108216433 184.60247272727273L 492.5571142284569 186.968L 494.4088176352705 170.00087272727274L 496.2605210420842 167.8338909090909L 498.1122244488978 203.32247272727273L 499.9639278557114 206L 501.815631262525 128.43112727272728L 503.6673346693387 183.2637090909091L 505.5190380761523 156.8685090909091L 507.3707414829659 183.15592727272727L 509.2224448897796 183.2013090909091L 511.0741482965932 182.25963636363636L 512.9258517034068 170.18807272727273L 514.7775551102204 186.86589090909092L 516.629258517034 183.77425454545454L 518.4809619238476 186.29861818181817L 520.3326653306613 184.17134545454545L 522.1843687374749 184.9655272727273L 524.0360721442885 178.1696L 525.8877755511021 180.70530909090908L 527.7394789579158 170.80072727272727L 529.5911823647294 177.99374545454546L 531.442885771543 175.99127272727273L 533.2945891783567 173.75621818181818L 535.1462925851704 175.45803636363638L 536.997995991984 196.91796363636365L 538.8496993987976 150.30516363636363L 540.7014028056112 167.34036363636363L 542.5531062124248 174.52203636363637L 544.4048096192384 132.05599999999998L 546.2565130260521 144.8309818181818L 548.1082164328657 173.60872727272726L 549.9599198396793 151.91054545454546L 551.8116232464929 194.03621818181819L 553.6633266533066 160.59549090909093L 555.5150300601202 206L 557.3667334669339 153.43650909090908L 559.2184368737475 181.01163636363637L 561.0701402805612 181.6413090909091L 562.9218436873748 182.49221818181817L 564.7735470941884 183.08785454545455L 566.625250501002 206L 568.4769539078156 151.86516363636363L 570.3286573146293 172.45716363636365L 572.1803607214429 169.20669090909092L 574.0320641282565 178.22065454545455L 575.8837675350702 175.54312727272728L 577.7354709418838 177.61367272727273L 579.5871743486974 181.0173090909091L 581.438877755511 176.80814545454547L 583.2905811623247 167.8962909090909L 585.1422845691383 167.1248L 586.9939879759519 176.62094545454545L 588.8456913827656 158.63272727272727L 590.6973947895792 151.3602909090909L 592.5490981963928 173.35345454545455L 594.4008016032064 206L 596.2525050100201 206L 598.1042084168337 206L 599.9559118236473 206L 601.807615230461 206L 603.6593186372746 206L 605.5110220440882 206L 607.3627254509018 206L 609.2144288577155 206L 611.0661322645291 206L 612.9178356713427 206L 614.7695390781563 206L 616.6212424849699 206L 618.4729458917835 206L 620.3246492985971 206L 622.1763527054107 206L 624.0280561122244 206L 625.8797595190381 206L 627.7314629258517 206L 629.5831663326653 206L 631.4348697394789 206L 633.2865731462925 206L 635.1382765531062 206L 636.9899799599198 206L 638.8416833667335 206L 640.6933867735471 206L 642.5450901803607 206L 644.3967935871743 206L 646.2484969939879 206L 648.1002004008016 206L 649.9519038076152 206L 651.8036072144289 206L 653.6553106212425 206L 655.5070140280561 206L 657.3587174348697 206L 659.2104208416833 206L 661.062124248497 206L 662.9138276553106 206L 664.7655310621243 206L 666.6172344689379 206L 668.4689378757515 206L 670.3206412825651 206L 672.1723446893787 206L 674.0240480961924 206L 675.875751503006 206L 677.7274549098197 206L 679.5791583166333 206L 681.4308617234469 206L 683.2825651302605 206L 685.1342685370741 206L 686.9859719438878 206L 688.8376753507014 206L 690.6893787575151 206L 692.5410821643287 206L 694.3927855711423 206L 696.2444889779559 206L 698.0961923847696 206L 699.9478957915832 206L 701.7995991983968 206L 703.6513026052105 206L 705.5030060120241 206L 707.3547094188377 206L 709.2064128256513 206L 711.058116232465 206L 712.9098196392786 206L 714.7615230460922 206L 716.6132264529059 206L 718.4649298597194 206L 720.316633266533 206L 722.1683366733466 206L 724.0200400801602 206L 725.8717434869739 206L 727.7234468937876 206L 729.5751503006012 206L 731.4268537074148 206L 733.2785571142284 206L 735.130260521042 206L 736.9819639278556 206L 738.8336673346693 206L 740.685370741483 206L 742.5370741482966 206L 744.3887775551102 206L 746.2404809619238 206L 748.0921843687374 206L 749.943887775551 206L 751.7955911823647 206L 753.6472945891784 206L 755.498997995992 206L 757.3507014028056 206L 759.2024048096192 206L 761.0541082164328 206L 762.9058116232464 206L 764.7575150300601 206L 766.6092184368738 206L 768.4609218436874 206L 770.312625250501 206L 772.1643286573146 206L 774.0160320641282 206L 775.8677354709419 206L 777.7194388777555 206L 779.5711422845692 206L 781.4228456913828 206L 783.2745490981964 206L 785.12625250501 206L 786.9779559118236 206L 788.8296593186373 206L 790.6813627254509 206L 792.5330661322646 206L 794.3847695390782 206L 796.2364729458918 206L 798.0881763527054 206L 799.939879759519 206L 801.7915831663327 206L 803.6432865731464 206L 805.49498997996 206L 807.3466933867736 206L 809.1983967935872 206L 811.0501002004008 206L 812.9018036072144 206L 814.7535070140281 206L 816.6052104208418 206L 818.4569138276554 206L 820.3086172344689 206L 822.1603206412825 206L 824.0120240480961 206L 825.8637274549097 206L 827.7154308617233 206L 829.5671342685371 206L 831.4188376753507 206L 833.2705410821643 206L 835.1222444889779 206L 836.9739478957915 206L 838.8256513026051 206L 840.6773547094188 206L 842.5290581162325 206L 844.3807615230461 206L 846.2324649298597 206L 848.0841683366733 206L 849.9358717434869 206L 851.7875751503005 206L 853.6392785571143 206L 855.4909819639279 206L 857.3426853707415 206L 859.1943887775551 206L 861.0460921843687 206L 862.8977955911823 206L 864.7494989979959 206L 866.6012024048097 206L 868.4529058116233 206L 870.3046092184369 206L 872.1563126252505 206L 874.0080160320641 206L 875.8597194388777 206L 877.7114228456913 206L 879.5631262525051 206L 881.4148296593187 206L 883.2665330661323 206L 885.1182364729459 206L 886.9699398797595 206L 888.8216432865731 206L 890.6733466933867 206L 892.5250501002005 206L 894.3767535070141 206L 896.2284569138277 206L 898.0801603206413 206L 899.9318637274549 206L 901.7835671342685 206L 903.6352705410821 206L 905.4869739478959 206L 907.3386773547095 206L 909.1903807615231 206L 911.0420841683367 206L 912.8937875751503 206L 914.7454909819639 206L 916.5971943887776 206L 918.4488977955913 206L 920.3006012024049 206L 922.1523046092185 206L 924.004008016032 206L 925.8557114228456 206L 927.7074148296592 206L 929.559118236473 206L 931.4108216432866 206L 933.2625250501002 206L 935.1142284569138 206L 936.9659318637274 206L 938.817635270541 206L 940.6693386773546 206L 942.5210420841684 206L 944.372745490982 206L 946.2244488977956 206L 948.0761523046092 206L 949.9278557114228 206L 951.7795591182364 206L 953.63126252505 206L 955.4829659318638 206L 957.3346693386774 206L 959.186372745491 206L 961.0380761523046 206L 962.8897795591182 206L 964.7414829659318 206L 966.5931863727454 206L 968.4448897795592 206L 970.2965931863728 206L 972.1482965931864 206L 974 206" stroke-width="2.0" fill="none" />
    
        
        
        <text x="45.0" font-family="-apple-system, system-ui, BlinkMacSystemFont, Roboto" y="50.0" dominant-baseline="middle" text-anchor="end" font-size="12" fill="#24292f">27500.0</text>
        
            
            <path stroke="#74838f" stroke-dasharray="10 6" stroke-width="0.5"  d="M 50.0 50.0 L 974.0 50.0" />
        
    
        
        
        <text x="45.0" font-family="-apple-system, system-ui, BlinkMacSystemFont, Roboto" y="81.2" dominant-baseline="middle" text-anchor="end" font-size="12" fill="#24292f">22000.0</text>
        
            
            
            <path stroke="#74838f" stroke-dasharray="10 6" stroke-width="0.5"  d="M 50.0 81.2 L 974.0 81.2" />
        
    
        
        
        <text x="45.0" font-family="-apple-system, system-ui, BlinkMacSystemFont, Roboto" y="112.4" dominant-baseline="middle" text-anchor="end" font-size="12" fill="#24292f">16500.0</text>
        
            
            
            <path stroke="#74838f" stroke-dasharray="10 6" stroke-width="0.5"  d="M 50.0 112.4 L 974.0 112.4" />
        
    
        
        
        <text x="45.0" font-family="-apple-system, system-ui, BlinkMacSystemFont, Roboto" y="143.6" dominant-baseline="middle" text-anchor="end" font-size="12" fill="#24292f">11000.0</text>
        
            
            
            <path stroke="#74838f" stroke-dasharray="10 6" stroke-width="0.5"  d="M 50.0 143.6 L 974.0 143.6" />
        
    
        
        
        <text x="45.0" font-family="-apple-system, system-ui, BlinkMacSystemFont, Roboto" y="174.8" dominant-baseline="middle" text-anchor="end" font-size="12" fill="#24292f">5500.0</text>
        
            
            
            <path stroke="#74838f" stroke-dasharray="10 6" stroke-width="0.5"  d="M 50.0 174.8 L 974.0 174.8" />
        
    
        
        
        <text x="45.0" font-family="-apple-system, system-ui, BlinkMacSystemFont, Roboto" y="206.0" dominant-baseline="middle" text-anchor="end" font-size="12" fill="#24292f">0.0</text>
        
    
    
        
        <path stroke="#74838f"  stroke-width="2.0"  d="M 79.62725450901803 206.0 L 79.62725450901803 214.0" />
        <text x="79.62725450901803" font-family="-apple-system, system-ui, BlinkMacSystemFont, Roboto" y="216.0" dominant-baseline="hanging" text-anchor="middle" font-size="12" fill="#24292f">Mar 2022</text>
    
        
        <path stroke="#74838f"  stroke-width="2.0"  d="M 137.03006012024048 206.0 L 137.03006012024048 214.0" />
        <text x="137.03006012024048" font-family="-apple-system, system-ui, BlinkMacSystemFont, Roboto" y="216.0" dominant-baseline="hanging" text-anchor="middle" font-size="12" fill="#24292f">Apr 2022</text>
    
        
        <path stroke="#74838f"  stroke-width="2.0"  d="M 192.58116232464928 206.0 L 192.58116232464928 214.0" />
        <text x="192.58116232464928" font-family="-apple-system, system-ui, BlinkMacSystemFont, Roboto" y="216.0" dominant-baseline="hanging" text-anchor="middle" font-size="12" fill="#24292f">May 2022</text>
    
        
        <path stroke="#74838f"  stroke-width="2.0"  d="M 249.98396793587173 206.0 L 249.98396793587173 214.0" />
        <text x="249.98396793587173" font-family="-apple-system, system-ui, BlinkMacSystemFont, Roboto" y="216.0" dominant-baseline="hanging" text-anchor="middle" font-size="12" fill="#24292f">Jun 2022</text>
    
        
        <path stroke="#74838f"  stroke-width="2.0"  d="M 305.5350701402806 206.0 L 305.5350701402806 214.0" />
        <text x="305.5350701402806" font-family="-apple-system, system-ui, BlinkMacSystemFont, Roboto" y="216.0" dominant-baseline="hanging" text-anchor="middle" font-size="12" fill="#24292f">Jul 2022</text>
    
        
        <path stroke="#74838f"  stroke-width="2.0"  d="M 362.937875751503 206.0 L 362.937875751503 214.0" />
        <text x="362.937875751503" font-family="-apple-system, system-ui, BlinkMacSystemFont, Roboto" y="216.0" dominant-baseline="hanging" text-anchor="middle" font-size="12" fill="#24292f">Aug 2022</text>
    
        
        <path stroke="#74838f"  stroke-width="2.0"  d="M 420.34068136272543 206.0 L 420.34068136272543 214.0" />
        <text x="420.34068136272543" font-family="-apple-system, system-ui, BlinkMacSystemFont, Roboto" y="216.0" dominant-baseline="hanging" text-anchor="middle" font-size="12" fill="#24292f">Sep 2022</text>
    
        
        <path stroke="#74838f"  stroke-width="2.0"  d="M 475.89178356713427 206.0 L 475.89178356713427 214.0" />
        <text x="475.89178356713427" font-family="-apple-system, system-ui, BlinkMacSystemFont, Roboto" y="216.0" dominant-baseline="hanging" text-anchor="middle" font-size="12" fill="#24292f">Oct 2022</text>
    
        
        <path stroke="#74838f"  stroke-width="2.0"  d="M 533.2945891783567 206.0 L 533.2945891783567 214.0" />
        <text x="533.2945891783567" font-family="-apple-system, system-ui, BlinkMacSystemFont, Roboto" y="216.0" dominant-baseline="hanging" text-anchor="middle" font-size="12" fill="#24292f">Nov 2022</text>
    
        
        <path stroke="#74838f"  stroke-width="2.0"  d="M 588.8456913827656 206.0 L 588.8456913827656 214.0" />
        <text x="588.8456913827656" font-family="-apple-system, system-ui, BlinkMacSystemFont, Roboto" y="216.0" dominant-baseline="hanging" text-anchor="middle" font-size="12" fill="#24292f">Dec 2022</text>
    
        
        <path stroke="#74838f"  stroke-width="2.0"  d="M 646.2484969939879 206.0 L 646.2484969939879 214.0" />
        <text x="646.2484969939879" font-family="-apple-system, system-ui, BlinkMacSystemFont, Roboto" y="216.0" dominant-baseline="hanging" text-anchor="middle" font-size="12" fill="#24292f">Jan 2023</text>
    
        
        <path stroke="#74838f"  stroke-width="2.0"  d="M 703.6513026052105 206.0 L 703.6513026052105 214.0" />
        <text x="703.6513026052105" font-family="-apple-system, system-ui, BlinkMacSystemFont, Roboto" y="216.0" dominant-baseline="hanging" text-anchor="middle" font-size="12" fill="#24292f">Feb 2023</text>
    
        
        <path stroke="#74838f"  stroke-width="2.0"  d="M 755.498997995992 206.0 L 755.498997995992 214.0" />
        <text x="755.498997995992" font-family="-apple-system, system-ui, BlinkMacSystemFont, Roboto" y="216.0" dominant-baseline="hanging" text-anchor="middle" font-size="12" fill="#24292f">Mar 2023</text>
    
        
        <path stroke="#74838f"  stroke-width="2.0"  d="M 812.9018036072144 206.0 L 812.9018036072144 214.0" />
        <text x="812.9018036072144" font-family="-apple-system, system-ui, BlinkMacSystemFont, Roboto" y="216.0" dominant-baseline="hanging" text-anchor="middle" font-size="12" fill="#24292f">Apr 2023</text>
    
        
        <path stroke="#74838f"  stroke-width="2.0"  d="M 868.4529058116233 206.0 L 868.4529058116233 214.0" />
        <text x="868.4529058116233" font-family="-apple-system, system-ui, BlinkMacSystemFont, Roboto" y="216.0" dominant-baseline="hanging" text-anchor="middle" font-size="12" fill="#24292f">May 2023</text>
    
        
        <path stroke="#74838f"  stroke-width="2.0"  d="M 925.8557114228456 206.0 L 925.8557114228456 214.0" />
        <text x="925.8557114228456" font-family="-apple-system, system-ui, BlinkMacSystemFont, Roboto" y="216.0" dominant-baseline="hanging" text-anchor="middle" font-size="12" fill="#24292f">Jun 2023</text>
    
    <path stroke="#74838f"   stroke-linejoin="round" stroke-width="2.0" d="M 50.0 216.0 L 50.0 206.0 L 974.0 206.0 L 974.0 216.0"  fill="none" />
    <text x="512.0" y="25.0" font-family="-apple-system, system-ui, BlinkMacSystemFont, Roboto" dominant-baseline="middle" text-anchor="middle" font-size="18" fill="#24292f">Total daily screen name changes</text>
</svg>
