<?xml version="1.0" standalone="no"?>
<svg width="1024.0" height="256.0"  viewBox="0 0 1024.0 256.0" preserveAspectRatio="xMidYMid meet" xmlns="http://www.w3.org/2000/svg">
    <path stroke="#3498db" stroke-linejoin="round" d="M 50.0 203.3394909090909 L 50 203.3394909090909L 51.86666666666667 202.32974545454545L 53.733333333333334 196.86690909090908L 55.6 195.94792727272727L 57.46666666666667 202.14254545454546L 59.333333333333336 197.35476363636363L 61.2 191.76145454545454L 63.06666666666667 179.96218181818182L 64.93333333333334 204.09396363636364L 66.8 194.17236363636363L 68.66666666666667 192.61803636363635L 70.53333333333333 195.1253818181818L 72.4 193.92843636363637L 74.26666666666667 182.2482909090909L 76.13333333333334 200.86618181818181L 78 201.45614545454546L 79.86666666666667 178.89003636363637L 81.73333333333333 197.33774545454546L 83.6 198.50065454545455L 85.46666666666667 200.41803636363636L 87.33333333333334 201.18385454545455L 89.2 202.26734545454545L 91.06666666666666 195.09134545454546L 92.93333333333334 198.08087272727272L 94.8 183.38850909090908L 96.66666666666666 197.47389090909093L 98.53333333333333 202.01774545454546L 100.4 194.66021818181818L 102.26666666666668 200.75272727272727L 104.13333333333333 200.00392727272728L 106 201.97236363636364L 107.86666666666667 204.2754909090909L 109.73333333333333 201.74545454545455L 111.6 201.01367272727273L 113.46666666666667 174.7829818181818L 115.33333333333333 195.76072727272728L 117.2 204.0032L 119.06666666666666 203.7309090909091L 120.93333333333332 197.87665454545453L 122.8 202.60770909090908L 124.66666666666667 202.6928L 126.53333333333335 197.55898181818182L 128.4 186.5141818181818L 130.26666666666665 199.26647272727274L 132.13333333333333 199.5728L 134 193.4802909090909L 135.86666666666667 199.10763636363635L 137.73333333333335 201.54690909090908L 139.6 201.5696L 141.46666666666667 195.06865454545454L 143.33333333333331 201.70007272727273L 145.2 197.2866909090909L 147.06666666666666 172.35505454545455L 148.93333333333334 203.20901818181818L 150.8 199.6749090909091L 152.66666666666666 193.12858181818183L 154.53333333333336 196.8896L 156.4 199.78836363636364L 158.26666666666665 198.82967272727274L 160.13333333333333 204.1336727272727L 162 202.57934545454546L 163.86666666666667 198.9261090909091L 165.73333333333335 206L 167.6 204.128L 169.46666666666667 192.1245090909091L 171.33333333333334 206L 173.2 206L 175.06666666666666 206L 176.93333333333334 206L 178.8 197.37178181818183L 180.66666666666666 199.57847272727273L 182.53333333333333 188.9024L 184.4 195.02894545454546L 186.26666666666668 191.20552727272727L 188.13333333333333 166.8128L 190 203.8386909090909L 191.86666666666665 198.09221818181817L 193.73333333333335 201.64334545454545L 195.6 202.2957090909091L 197.46666666666667 203.22036363636363L 199.33333333333334 200.66763636363635L 201.2 191.51185454545455L 203.0666666666667 189.18603636363636L 204.93333333333334 203.86705454545455L 206.8 197.56465454545454L 208.66666666666666 187.32538181818182L 210.53333333333333 201.2349090909091L 212.4 200.44639999999998L 214.26666666666668 201.4618181818182L 216.13333333333333 201.09876363636363L 218 201.17818181818183L 219.86666666666665 193.02647272727273L 221.73333333333335 198.8069818181818L 223.6 203.39054545454545L 225.46666666666667 200.30458181818182L 227.33333333333331 198.35883636363636L 229.2 193.3101090909091L 231.0666666666667 200.56552727272728L 232.93333333333334 203.03883636363636L 234.8 197.22996363636364L 236.66666666666666 201.95534545454547L 238.53333333333333 196.016L 240.4 202.30705454545455L 242.26666666666668 199.91316363636363L 244.13333333333333 194.62050909090908L 246 201.29163636363637L 247.86666666666665 202.98778181818182L 249.73333333333335 203.5437090909091L 251.6 200.60523636363638L 253.46666666666667 195.5621818181818L 255.33333333333331 203.24305454545456L 257.2 200.15709090909093L 259.0666666666667 198.46661818181818L 260.93333333333334 201.70007272727273L 262.8 200.70734545454545L 264.66666666666663 200.4293818181818L 266.5333333333333 201.76814545454545L 268.4 204.6442181818182L 270.26666666666665 206L 272.1333333333333 196.35636363636365L 274 199.21541818181817L 275.8666666666667 156.87418181818182L 277.73333333333335 165.1506909090909L 279.6 204.1733818181818L 281.4666666666667 202.17658181818183L 283.33333333333337 199.31185454545454L 285.2 198.7842909090909L 287.06666666666666 202.6757818181818L 288.93333333333334 202.8573090909091L 290.8 196.1861818181818L 292.6666666666667 199.64654545454545L 294.5333333333333 198.2056727272727L 296.4 201.2178909090909L 298.26666666666665 201.79083636363637L 300.1333333333333 201.90429090909092L 302 200.1968L 303.8666666666667 195.17076363636363L 305.73333333333335 206L 307.6 206L 309.46666666666664 206L 311.3333333333333 191.4834909090909L 313.2 197.79723636363636L 315.06666666666666 198.85236363636363L 316.9333333333333 199.76L 318.8 200.03796363636363L 320.6666666666667 200.76407272727272L 322.53333333333336 201.80785454545455L 324.40000000000003 191.63098181818182L 326.26666666666665 194.41061818181817L 328.1333333333333 199.88479999999998L 330 152.63098181818182L 331.8666666666667 197.04843636363637L 333.7333333333333 194.4730181818182L 335.59999999999997 155.90414545454547L 337.4666666666667 91.60945454545454L 339.33333333333337 104.5376L 341.2 151.17876363636364L 343.06666666666666 185.1981090909091L 344.93333333333334 142.76610909090908L 346.8 125.0672L 348.6666666666667 123.74545454545455L 350.5333333333333 157.99738181818182L 352.4 53.56814545454546L 354.26666666666665 50.78850909090909L 356.1333333333334 100.02210909090908L 358 156.2445090909091L 359.8666666666667 180.31956363636363L 361.73333333333335 192.43650909090908L 363.6 193.63912727272728L 365.46666666666664 193.3328L 367.3333333333333 192.11316363636365L 369.2 197.93338181818183L 371.06666666666666 191.5629090909091L 372.93333333333334 198.7672727272727L 374.8 199.3005090909091L 376.6666666666667 201.64901818181818L 378.53333333333336 200.58821818181818L 380.40000000000003 202.43752727272727L 382.26666666666665 200.73003636363637L 384.1333333333333 189.7703272727273L 386 203.17498181818183L 387.8666666666667 200.48610909090908L 389.7333333333333 185.1810909090909L 391.59999999999997 187.88698181818182L 393.4666666666667 191.01832727272728L 395.33333333333337 192.31738181818181L 397.2 177.09745454545455L 399.06666666666666 167.91330909090908L 400.93333333333334 179.30981818181817L 402.8 186.49716363636364L 404.66666666666663 150.34487272727273L 406.5333333333333 184.27345454545454L 408.4 199.5104L 410.26666666666665 161.24785454545454L 412.1333333333334 155.49003636363636L 414 176.96130909090908L 415.8666666666667 190.30923636363636L 417.73333333333335 193.50865454545453L 419.6 201.72843636363638L 421.46666666666664 185.22647272727272L 423.3333333333333 192.03374545454545L 425.2 192.66909090909093L 427.06666666666666 180.18341818181818L 428.93333333333334 194.5013818181818L 430.8 194.6829090909091L 432.6666666666667 201.85323636363637L 434.53333333333336 196.2032L 436.4 204.49105454545455L 438.26666666666665 191.55723636363638L 440.1333333333333 180.36494545454545L 442 193.02647272727273L 443.8666666666667 186.20785454545455L 445.7333333333333 191.72741818181817L 447.6 191.4834909090909L 449.4666666666667 196.63432727272726L 451.33333333333337 200.7810909090909L 453.2 176.26923636363637L 455.06666666666666 165.78036363636363L 456.93333333333334 181.82850909090908L 458.8 160.6976L 460.66666666666663 163.93105454545454L 462.5333333333333 182.10647272727272L 464.4 130.808L 466.26666666666665 190.49643636363635L 468.1333333333334 202.0914909090909L 470 184.09192727272728L 471.8666666666667 197.50225454545455L 473.73333333333335 187.54094545454547L 475.6 192.95272727272726L 477.46666666666664 201.88727272727272L 479.3333333333333 184.33585454545454L 481.2 183.04814545454545L 483.06666666666666 182.36741818181818L 484.93333333333334 182.54327272727272L 486.8 186.38938181818182L 488.6666666666667 174.3858909090909L 490.53333333333336 183.1786181818182L 492.4 183.5133090909091L 494.26666666666665 184.60247272727273L 496.1333333333333 186.968L 498 170.00087272727274L 499.8666666666667 167.8338909090909L 501.7333333333333 203.32247272727273L 503.6 206L 505.4666666666667 128.43112727272728L 507.33333333333337 183.2637090909091L 509.2 156.8685090909091L 511.06666666666666 183.15592727272727L 512.9333333333334 183.2013090909091L 514.8 182.25963636363636L 516.6666666666667 170.18807272727273L 518.5333333333333 186.86589090909092L 520.4 183.77425454545454L 522.2666666666667 186.29861818181817L 524.1333333333333 184.17134545454545L 526 184.9655272727273L 527.8666666666667 178.1696L 529.7333333333333 180.70530909090908L 531.6 170.80072727272727L 533.4666666666667 177.99374545454546L 535.3333333333334 175.99127272727273L 537.1999999999999 173.75621818181818L 539.0666666666666 175.45803636363638L 540.9333333333334 196.91796363636365L 542.8 150.30516363636363L 544.6666666666667 167.34036363636363L 546.5333333333333 174.52203636363637L 548.4000000000001 132.05599999999998L 550.2666666666667 144.8309818181818L 552.1333333333332 173.60872727272726L 554 151.91054545454546L 555.8666666666666 194.03621818181819L 557.7333333333333 160.59549090909093L 559.6 206L 561.4666666666667 153.43650909090908L 563.3333333333334 181.01163636363637L 565.2 181.6413090909091L 567.0666666666667 182.49221818181817L 568.9333333333333 183.08785454545455L 570.8 206L 572.6666666666666 151.86516363636363L 574.5333333333333 172.45716363636365L 576.4 169.20669090909092L 578.2666666666667 178.22065454545455L 580.1333333333333 175.54312727272728L 582 177.61367272727273L 583.8666666666666 181.0173090909091L 585.7333333333333 176.80814545454547L 587.6 167.8962909090909L 589.4666666666667 167.1248L 591.3333333333334 176.62094545454545L 593.2 158.63272727272727L 595.0666666666667 151.3602909090909L 596.9333333333334 173.35345454545455L 598.8000000000001 206L 600.6666666666666 206L 602.5333333333333 206L 604.4 206L 606.2666666666667 206L 608.1333333333333 206L 610 206L 611.8666666666667 206L 613.7333333333333 206L 615.5999999999999 206L 617.4666666666666 206L 619.3333333333333 206L 621.1999999999999 206L 623.0666666666667 206L 624.9333333333334 206L 626.8000000000001 206L 628.6666666666667 206L 630.5333333333334 206L 632.4 206L 634.2666666666667 206L 636.1333333333333 206L 638 206L 639.8666666666667 206L 641.7333333333333 206L 643.6 206L 645.4666666666667 206L 647.3333333333334 206L 649.1999999999999 206L 651.0666666666666 206L 652.9333333333333 206L 654.8 206L 656.6666666666666 206L 658.5333333333333 206L 660.4 206L 662.2666666666668 206L 664.1333333333333 206L 666 206L 667.8666666666667 206L 669.7333333333333 206L 671.6 206L 673.4666666666667 206L 675.3333333333334 206L 677.2 206L 679.0666666666667 206L 680.9333333333333 206L 682.8 206L 684.6666666666666 206L 686.5333333333333 206L 688.4 206L 690.2666666666667 206L 692.1333333333333 206L 694 206L 695.8666666666667 206L 697.7333333333333 206L 699.6 206L 701.4666666666667 206L 703.3333333333334 206L 705.2 206L 707.0666666666667 206L 708.9333333333334 206L 710.8000000000001 206L 712.6666666666666 206L 714.5333333333333 206L 716.4 206L 718.2666666666667 206L 720.1333333333333 206L 722 206L 723.8666666666667 206L 725.7333333333333 206L 727.5999999999999 206L 729.4666666666666 206L 731.3333333333333 206L 733.1999999999999 206L 735.0666666666667 206L 736.9333333333334 206L 738.8000000000001 206L 740.6666666666667 206L 742.5333333333334 206L 744.4 206L 746.2666666666667 206L 748.1333333333333 206L 750 206L 751.8666666666667 206L 753.7333333333333 206L 755.6 206L 757.4666666666667 206L 759.3333333333333 206L 761.1999999999999 206L 763.0666666666666 206L 764.9333333333333 206L 766.8 206L 768.6666666666666 206L 770.5333333333333 206L 772.4000000000001 206L 774.2666666666668 206L 776.1333333333333 206L 778 206L 779.8666666666667 206L 781.7333333333333 206L 783.6 206L 785.4666666666667 206L 787.3333333333334 206L 789.2 206L 791.0666666666666 206L 792.9333333333333 206L 794.8 206L 796.6666666666666 206L 798.5333333333333 206L 800.4 206L 802.2666666666667 206L 804.1333333333333 206L 806 206L 807.8666666666667 206L 809.7333333333333 206L 811.6 206L 813.4666666666667 206L 815.3333333333334 206L 817.2 206L 819.0666666666667 206L 820.9333333333334 206L 822.8 206L 824.6666666666666 206L 826.5333333333333 206L 828.4 206L 830.2666666666667 206L 832.1333333333333 206L 834 206L 835.8666666666667 206L 837.7333333333333 206L 839.5999999999999 206L 841.4666666666666 206L 843.3333333333333 206L 845.2 206L 847.0666666666667 206L 848.9333333333334 206L 850.8000000000001 206L 852.6666666666667 206L 854.5333333333333 206L 856.4 206L 858.2666666666667 206L 860.1333333333333 206L 862 206L 863.8666666666667 206L 865.7333333333333 206L 867.6 206L 869.4666666666667 206L 871.3333333333333 206L 873.1999999999999 206L 875.0666666666666 206L 876.9333333333333 206L 878.8 206L 880.6666666666666 206L 882.5333333333333 206L 884.4000000000001 206L 886.2666666666668 206L 888.1333333333333 206L 890 206L 891.8666666666667 206L 893.7333333333333 206L 895.6 206L 897.4666666666667 206L 899.3333333333334 206L 901.2 206L 903.0666666666666 206L 904.9333333333333 206L 906.8 206L 908.6666666666666 206L 910.5333333333333 206L 912.4 206L 914.2666666666667 206L 916.1333333333333 206L 918 206L 919.8666666666667 206L 921.7333333333333 206L 923.6 206L 925.4666666666667 206L 927.3333333333334 206L 929.2 206L 931.0666666666667 206L 932.9333333333334 206L 934.8 206L 936.6666666666666 206L 938.5333333333333 206L 940.4 206L 942.2666666666667 206L 944.1333333333333 206L 946 206L 947.8666666666667 206L 949.7333333333333 206L 951.5999999999999 206L 953.4666666666666 206L 955.3333333333334 206L 957.2 206L 959.0666666666667 206L 960.9333333333334 206L 962.8000000000001 206L 964.6666666666667 206L 966.5333333333333 206L 968.4 206L 970.2666666666667 206L 972.1333333333333 206L 974 206" stroke-width="2.0" fill="none" />
    
        
        
        <text x="45.0" font-family="-apple-system, system-ui, BlinkMacSystemFont, Roboto" y="50.0" dominant-baseline="middle" text-anchor="end" font-size="12" fill="#24292f">27500.0</text>
        
            
            <path stroke="#74838f" stroke-dasharray="10 6" stroke-width="0.5"  d="M 50.0 50.0 L 974.0 50.0" />
        
    
        
        
        <text x="45.0" font-family="-apple-system, system-ui, BlinkMacSystemFont, Roboto" y="81.2" dominant-baseline="middle" text-anchor="end" font-size="12" fill="#24292f">22000.0</text>
        
            
            
            <path stroke="#74838f" stroke-dasharray="10 6" stroke-width="0.5"  d="M 50.0 81.2 L 974.0 81.2" />
        
    
        
        
        <text x="45.0" font-family="-apple-system, system-ui, BlinkMacSystemFont, Roboto" y="112.4" dominant-baseline="middle" text-anchor="end" font-size="12" fill="#24292f">16500.0</text>
        
            
            
            <path stroke="#74838f" stroke-dasharray="10 6" stroke-width="0.5"  d="M 50.0 112.4 L 974.0 112.4" />
        
    
        
        
        <text x="45.0" font-family="-apple-system, system-ui, BlinkMacSystemFont, Roboto" y="143.6" dominant-baseline="middle" text-anchor="end" font-size="12" fill="#24292f">11000.0</text>
        
            
            
            <path stroke="#74838f" stroke-dasharray="10 6" stroke-width="0.5"  d="M 50.0 143.6 L 974.0 143.6" />
        
    
        
        
        <text x="45.0" font-family="-apple-system, system-ui, BlinkMacSystemFont, Roboto" y="174.8" dominant-baseline="middle" text-anchor="end" font-size="12" fill="#24292f">5500.0</text>
        
            
            
            <path stroke="#74838f" stroke-dasharray="10 6" stroke-width="0.5"  d="M 50.0 174.8 L 974.0 174.8" />
        
    
        
        
        <text x="45.0" font-family="-apple-system, system-ui, BlinkMacSystemFont, Roboto" y="206.0" dominant-baseline="middle" text-anchor="end" font-size="12" fill="#24292f">0.0</text>
        
    
    
        
        <path stroke="#74838f"  stroke-width="2.0"  d="M 79.86666666666667 206.0 L 79.86666666666667 214.0" />
        <text x="79.86666666666667" font-family="-apple-system, system-ui, BlinkMacSystemFont, Roboto" y="216.0" dominant-baseline="hanging" text-anchor="middle" font-size="12" fill="#24292f">Mar 2022</text>
    
        
        <path stroke="#74838f"  stroke-width="2.0"  d="M 137.73333333333335 206.0 L 137.73333333333335 214.0" />
        <text x="137.73333333333335" font-family="-apple-system, system-ui, BlinkMacSystemFont, Roboto" y="216.0" dominant-baseline="hanging" text-anchor="middle" font-size="12" fill="#24292f">Apr 2022</text>
    
        
        <path stroke="#74838f"  stroke-width="2.0"  d="M 193.73333333333335 206.0 L 193.73333333333335 214.0" />
        <text x="193.73333333333335" font-family="-apple-system, system-ui, BlinkMacSystemFont, Roboto" y="216.0" dominant-baseline="hanging" text-anchor="middle" font-size="12" fill="#24292f">May 2022</text>
    
        
        <path stroke="#74838f"  stroke-width="2.0"  d="M 251.6 206.0 L 251.6 214.0" />
        <text x="251.6" font-family="-apple-system, system-ui, BlinkMacSystemFont, Roboto" y="216.0" dominant-baseline="hanging" text-anchor="middle" font-size="12" fill="#24292f">Jun 2022</text>
    
        
        <path stroke="#74838f"  stroke-width="2.0"  d="M 307.6 206.0 L 307.6 214.0" />
        <text x="307.6" font-family="-apple-system, system-ui, BlinkMacSystemFont, Roboto" y="216.0" dominant-baseline="hanging" text-anchor="middle" font-size="12" fill="#24292f">Jul 2022</text>
    
        
        <path stroke="#74838f"  stroke-width="2.0"  d="M 365.46666666666664 206.0 L 365.46666666666664 214.0" />
        <text x="365.46666666666664" font-family="-apple-system, system-ui, BlinkMacSystemFont, Roboto" y="216.0" dominant-baseline="hanging" text-anchor="middle" font-size="12" fill="#24292f">Aug 2022</text>
    
        
        <path stroke="#74838f"  stroke-width="2.0"  d="M 423.3333333333333 206.0 L 423.3333333333333 214.0" />
        <text x="423.3333333333333" font-family="-apple-system, system-ui, BlinkMacSystemFont, Roboto" y="216.0" dominant-baseline="hanging" text-anchor="middle" font-size="12" fill="#24292f">Sep 2022</text>
    
        
        <path stroke="#74838f"  stroke-width="2.0"  d="M 479.3333333333333 206.0 L 479.3333333333333 214.0" />
        <text x="479.3333333333333" font-family="-apple-system, system-ui, BlinkMacSystemFont, Roboto" y="216.0" dominant-baseline="hanging" text-anchor="middle" font-size="12" fill="#24292f">Oct 2022</text>
    
        
        <path stroke="#74838f"  stroke-width="2.0"  d="M 537.1999999999999 206.0 L 537.1999999999999 214.0" />
        <text x="537.1999999999999" font-family="-apple-system, system-ui, BlinkMacSystemFont, Roboto" y="216.0" dominant-baseline="hanging" text-anchor="middle" font-size="12" fill="#24292f">Nov 2022</text>
    
        
        <path stroke="#74838f"  stroke-width="2.0"  d="M 593.2 206.0 L 593.2 214.0" />
        <text x="593.2" font-family="-apple-system, system-ui, BlinkMacSystemFont, Roboto" y="216.0" dominant-baseline="hanging" text-anchor="middle" font-size="12" fill="#24292f">Dec 2022</text>
    
        
        <path stroke="#74838f"  stroke-width="2.0"  d="M 651.0666666666666 206.0 L 651.0666666666666 214.0" />
        <text x="651.0666666666666" font-family="-apple-system, system-ui, BlinkMacSystemFont, Roboto" y="216.0" dominant-baseline="hanging" text-anchor="middle" font-size="12" fill="#24292f">Jan 2023</text>
    
        
        <path stroke="#74838f"  stroke-width="2.0"  d="M 708.9333333333334 206.0 L 708.9333333333334 214.0" />
        <text x="708.9333333333334" font-family="-apple-system, system-ui, BlinkMacSystemFont, Roboto" y="216.0" dominant-baseline="hanging" text-anchor="middle" font-size="12" fill="#24292f">Feb 2023</text>
    
        
        <path stroke="#74838f"  stroke-width="2.0"  d="M 761.1999999999999 206.0 L 761.1999999999999 214.0" />
        <text x="761.1999999999999" font-family="-apple-system, system-ui, BlinkMacSystemFont, Roboto" y="216.0" dominant-baseline="hanging" text-anchor="middle" font-size="12" fill="#24292f">Mar 2023</text>
    
        
        <path stroke="#74838f"  stroke-width="2.0"  d="M 819.0666666666667 206.0 L 819.0666666666667 214.0" />
        <text x="819.0666666666667" font-family="-apple-system, system-ui, BlinkMacSystemFont, Roboto" y="216.0" dominant-baseline="hanging" text-anchor="middle" font-size="12" fill="#24292f">Apr 2023</text>
    
        
        <path stroke="#74838f"  stroke-width="2.0"  d="M 875.0666666666666 206.0 L 875.0666666666666 214.0" />
        <text x="875.0666666666666" font-family="-apple-system, system-ui, BlinkMacSystemFont, Roboto" y="216.0" dominant-baseline="hanging" text-anchor="middle" font-size="12" fill="#24292f">May 2023</text>
    
        
        <path stroke="#74838f"  stroke-width="2.0"  d="M 932.9333333333334 206.0 L 932.9333333333334 214.0" />
        <text x="932.9333333333334" font-family="-apple-system, system-ui, BlinkMacSystemFont, Roboto" y="216.0" dominant-baseline="hanging" text-anchor="middle" font-size="12" fill="#24292f">Jun 2023</text>
    
    <path stroke="#74838f"   stroke-linejoin="round" stroke-width="2.0" d="M 50.0 216.0 L 50.0 206.0 L 974.0 206.0 L 974.0 216.0"  fill="none" />
    <text x="512.0" y="25.0" font-family="-apple-system, system-ui, BlinkMacSystemFont, Roboto" dominant-baseline="middle" text-anchor="middle" font-size="18" fill="#24292f">Total daily screen name changes</text>
</svg>
