<?xml version="1.0" standalone="no"?>
<svg width="1024.0" height="256.0"  viewBox="0 0 1024.0 256.0" preserveAspectRatio="xMidYMid meet" xmlns="http://www.w3.org/2000/svg">
    <path stroke="#3498db" stroke-linejoin="round" d="M 50.0 203.3394909090909 L 50 203.3394909090909L 52.6628242074928 202.32974545454545L 55.325648414985594 196.86690909090908L 57.98847262247838 195.94792727272727L 60.65129682997118 202.14254545454546L 63.31412103746398 197.35476363636363L 65.97694524495677 191.76145454545454L 68.63976945244957 179.96218181818182L 71.30259365994236 204.09396363636364L 73.96541786743516 194.17236363636363L 76.62824207492795 192.61803636363635L 79.29106628242076 195.1253818181818L 81.95389048991355 193.92843636363637L 84.61671469740634 182.2482909090909L 87.27953890489914 200.86618181818181L 89.94236311239193 201.45614545454546L 92.60518731988472 178.89003636363637L 95.26801152737752 197.33774545454546L 97.93083573487033 198.50065454545455L 100.59365994236312 200.41803636363636L 103.25648414985591 201.18385454545455L 105.91930835734871 202.26734545454545L 108.5821325648415 195.09134545454546L 111.24495677233429 198.08087272727272L 113.9077809798271 183.38850909090908L 116.57060518731988 197.47389090909093L 119.23342939481267 202.01774545454546L 121.89625360230548 194.66021818181818L 124.55907780979827 200.75272727272727L 127.22190201729106 200.00392727272728L 129.88472622478386 201.97236363636364L 132.54755043227664 204.2754909090909L 135.21037463976944 201.74545454545455L 137.87319884726224 201.01367272727273L 140.53602305475505 174.7829818181818L 143.19884726224785 195.76072727272728L 145.86167146974066 204.0032L 148.52449567723343 203.7309090909091L 151.18731988472624 197.87665454545453L 153.850144092219 202.60770909090908L 156.51296829971182 202.6928L 159.17579250720462 197.55898181818182L 161.83861671469742 186.5141818181818L 164.5014409221902 199.26647272727274L 167.164265129683 199.5728L 169.82708933717578 193.4802909090909L 172.48991354466858 199.10763636363635L 175.15273775216139 201.54690909090908L 177.8155619596542 201.5696L 180.478386167147 195.06865454545454L 183.14121037463977 201.70007272727273L 185.80403458213257 197.2866909090909L 188.46685878962535 172.35505454545455L 191.12968299711815 203.20901818181818L 193.79250720461096 199.6749090909091L 196.45533141210376 193.12858181818183L 199.11815561959654 196.8896L 201.78097982708934 199.78836363636364L 204.44380403458212 198.82967272727274L 207.10662824207495 204.1336727272727L 209.76945244956772 202.57934545454546L 212.43227665706053 198.9261090909091L 215.0951008645533 206L 217.7579250720461 204.128L 220.42074927953888 192.1245090909091L 223.0835734870317 206L 225.7463976945245 206L 228.4092219020173 206L 231.07204610951007 206L 233.73487031700287 197.37178181818183L 236.39769452449568 199.57847272727273L 239.06051873198848 188.9024L 241.72334293948128 195.02894545454546L 244.38616714697406 191.20552727272727L 247.04899135446686 166.8128L 249.71181556195964 203.8386909090909L 252.37463976945247 198.09221818181817L 255.03746397694525 201.64334545454545L 257.700288184438 202.2957090909091L 260.3631123919308 203.22036363636363L 263.02593659942363 200.66763636363635L 265.68876080691643 191.51185454545455L 268.35158501440924 189.18603636363636L 271.01440922190204 203.86705454545455L 273.67723342939485 197.56465454545454L 276.3400576368876 187.32538181818182L 279.0028818443804 201.2349090909091L 281.6657060518732 200.44639999999998L 284.328530259366 201.4618181818182L 286.99135446685875 201.09876363636363L 289.65417867435156 201.17818181818183L 292.31700288184436 193.02647272727273L 294.97982708933716 198.8069818181818L 297.64265129682997 203.39054545454545L 300.30547550432277 200.30458181818182L 302.9682997118156 198.35883636363636L 305.6311239193084 193.3101090909091L 308.2939481268012 200.56552727272728L 310.956772334294 203.03883636363636L 313.61959654178673 197.22996363636364L 316.28242074927954 201.95534545454547L 318.94524495677234 196.016L 321.60806916426515 202.30705454545455L 324.2708933717579 199.91316363636363L 326.9337175792507 194.62050909090908L 329.5965417867435 201.29163636363637L 332.2593659942363 202.98778181818182L 334.9221902017291 203.5437090909091L 337.5850144092219 200.60523636363638L 340.2478386167147 195.5621818181818L 342.9106628242075 203.24305454545456L 345.57348703170027 200.15709090909093L 348.23631123919307 198.46661818181818L 350.8991354466859 201.70007272727273L 353.5619596541787 200.70734545454545L 356.2247838616715 200.4293818181818L 358.88760806916423 201.76814545454545L 361.55043227665703 204.6442181818182L 364.2132564841499 206L 366.87608069164264 196.35636363636365L 369.53890489913545 199.21541818181817L 372.20172910662825 156.87418181818182L 374.86455331412105 165.1506909090909L 377.52737752161386 204.1733818181818L 380.1902017291066 202.17658181818183L 382.8530259365994 199.31185454545454L 385.5158501440922 198.7842909090909L 388.178674351585 202.6757818181818L 390.84149855907776 202.8573090909091L 393.5043227665706 196.1861818181818L 396.1671469740634 199.64654545454545L 398.82997118155623 198.2056727272727L 401.492795389049 201.2178909090909L 404.1556195965418 201.79083636363637L 406.8184438040346 201.90429090909092L 409.4812680115274 200.1968L 412.14409221902014 195.17076363636363L 414.80691642651294 206L 417.46974063400575 206L 420.13256484149855 206L 422.79538904899135 191.4834909090909L 425.45821325648416 197.79723636363636L 428.12103746397696 198.85236363636363L 430.78386167146977 199.76L 433.44668587896257 200.03796363636363L 436.1095100864553 200.76407272727272L 438.7723342939481 201.80785454545455L 441.4351585014409 191.63098181818182L 444.0979827089337 194.41061818181817L 446.7608069164265 199.88479999999998L 449.4236311239193 152.63098181818182L 452.0864553314121 197.04843636363637L 454.74927953890494 194.4730181818182L 457.4121037463977 155.90414545454547L 460.0749279538905 91.60945454545454L 462.7377521613833 104.5376L 465.4005763688761 151.17876363636364L 468.06340057636885 185.1981090909091L 470.72622478386165 142.76610909090908L 473.38904899135446 125.0672L 476.05187319884726 123.74545454545455L 478.71469740634006 157.99738181818182L 481.3775216138328 53.56814545454546L 484.0403458213257 50.78850909090909L 486.7031700288185 100.02210909090908L 489.3659942363113 156.2445090909091L 492.028818443804 180.31956363636363L 494.69164265129683 192.43650909090908L 497.35446685878964 193.63912727272728L 500.01729106628244 193.3328L 502.6801152737752 192.11316363636365L 505.342939481268 197.93338181818183L 508.0057636887608 191.5629090909091L 510.6685878962536 198.7672727272727L 513.3314121037464 199.3005090909091L 515.9942363112391 201.64901818181818L 518.657060518732 200.58821818181818L 521.3198847262247 202.43752727272727L 523.9827089337175 200.73003636363637L 526.6455331412103 189.7703272727273L 529.3083573487031 203.17498181818183L 531.971181556196 200.48610909090908L 534.6340057636887 185.1810909090909L 537.2968299711815 187.88698181818182L 539.9596541786743 191.01832727272728L 542.6224783861671 192.31738181818181L 545.2853025936599 177.09745454545455L 547.9481268011527 167.91330909090908L 550.6109510086455 179.30981818181817L 553.2737752161383 186.49716363636364L 555.9365994236312 150.34487272727273L 558.599423631124 184.27345454545454L 561.2622478386168 199.5104L 563.9250720461094 161.24785454545454L 566.5878962536024 155.49003636363636L 569.250720461095 176.96130909090908L 571.913544668588 190.30923636363636L 574.5763688760807 193.50865454545453L 577.2391930835735 201.72843636363638L 579.9020172910663 185.22647272727272L 582.5648414985591 192.03374545454545L 585.2276657060519 192.66909090909093L 587.8904899135447 180.18341818181818L 590.5533141210375 194.5013818181818L 593.2161383285303 194.6829090909091L 595.8789625360231 201.85323636363637L 598.5417867435158 196.2032L 601.2046109510087 204.49105454545455L 603.8674351585014 191.55723636363638L 606.5302593659942 180.36494545454545L 609.193083573487 193.02647272727273L 611.8559077809798 186.20785454545455L 614.5187319884726 191.72741818181817L 617.1815561959654 191.4834909090909L 619.8443804034582 196.63432727272726L 622.507204610951 200.7810909090909L 625.1700288184438 176.26923636363637L 627.8328530259366 165.78036363636363L 630.4956772334294 181.82850909090908L 633.1585014409221 160.6976L 635.821325648415 163.93105454545454L 638.4841498559077 182.10647272727272L 641.1469740634005 130.808L 643.8097982708933 190.49643636363635L 646.4726224783861 202.0914909090909L 649.1354466858791 184.09192727272728L 651.7982708933718 197.50225454545455L 654.4610951008646 187.54094545454547L 657.1239193083574 192.95272727272726L 659.7867435158502 201.88727272727272L 662.449567723343 184.33585454545454L 665.1123919308358 183.04814545454545L 667.7752161383285 182.36741818181818L 670.4380403458214 182.54327272727272L 673.1008645533141 186.38938181818182L 675.7636887608069 174.3858909090909L 678.4265129682998 183.1786181818182L 681.0893371757925 183.5133090909091L 683.7521613832853 184.60247272727273L 686.4149855907781 186.968L 689.0778097982709 170.00087272727274L 691.7406340057637 167.8338909090909L 694.4034582132565 203.32247272727273L 697.0662824207492 206L 699.7291066282421 128.43112727272728L 702.3919308357348 183.2637090909091L 705.0547550432277 156.8685090909091L 707.7175792507205 183.15592727272727L 710.3804034582132 183.2013090909091L 713.0432276657061 182.25963636363636L 715.7060518731988 170.18807272727273L 718.3688760806916 186.86589090909092L 721.0317002881844 183.77425454545454L 723.6945244956772 186.29861818181817L 726.35734870317 184.17134545454545L 729.0201729106628 184.9655272727273L 731.6829971181555 178.1696L 734.3458213256484 180.70530909090908L 737.0086455331412 170.80072727272727L 739.671469740634 177.99374545454546L 742.3342939481269 175.99127272727273L 744.9971181556195 173.75621818181818L 747.6599423631125 175.45803636363638L 750.3227665706052 196.91796363636365L 752.985590778098 150.30516363636363L 755.6484149855908 167.34036363636363L 758.3112391930836 174.52203636363637L 760.9740634005764 132.05599999999998L 763.6368876080692 144.8309818181818L 766.299711815562 173.60872727272726L 768.9625360230548 151.91054545454546L 771.6253602305476 194.03621818181819L 774.2881844380403 160.59549090909093L 776.9510086455332 206L 779.6138328530259 153.43650909090908L 782.2766570605188 181.01163636363637L 784.9394812680115 181.6413090909091L 787.6023054755043 182.49221818181817L 790.2651296829971 183.08785454545455L 792.9279538904899 206L 795.5907780979827 151.86516363636363L 798.2536023054755 172.45716363636365L 800.9164265129683 169.20669090909092L 803.5792507204611 178.22065454545455L 806.2420749279539 175.54312727272728L 808.9048991354466 177.61367272727273L 811.5677233429395 181.0173090909091L 814.2305475504322 176.80814545454547L 816.8933717579251 167.8962909090909L 819.5561959654178 167.1248L 822.2190201729106 176.62094545454545L 824.8818443804034 158.63272727272727L 827.5446685878962 151.3602909090909L 830.207492795389 173.35345454545455L 832.8703170028818 206L 835.5331412103747 206L 838.1959654178675 206L 840.8587896253603 206L 843.521613832853 206L 846.1844380403459 206L 848.8472622478386 206L 851.5100864553314 206L 854.1729106628242 206L 856.835734870317 206L 859.4985590778099 206L 862.1613832853026 206L 864.8242074927954 206L 867.4870317002882 206L 870.149855907781 206L 872.8126801152738 206L 875.4755043227666 206L 878.1383285302593 206L 880.8011527377522 206L 883.4639769452449 206L 886.1268011527377 206L 888.7896253602306 206L 891.4524495677233 206L 894.1152737752162 206L 896.7780979827089 206L 899.4409221902017 206L 902.1037463976945 206L 904.7665706051873 206L 907.4293948126801 206L 910.0922190201729 206L 912.7550432276656 206L 915.4178674351585 206L 918.0806916426513 206L 920.743515850144 206L 923.406340057637 206L 926.0691642651296 206L 928.7319884726226 206L 931.3948126801153 206L 934.057636887608 206L 936.7204610951009 206L 939.3832853025937 206L 942.0461095100864 206L 944.7089337175793 206L 947.3717579250721 206L 950.0345821325649 206L 952.6974063400577 206L 955.3602305475504 206L 958.0230547550433 206L 960.685878962536 206L 963.3487031700288 206L 966.0115273775216 206L 968.6743515850144 206L 971.3371757925072 206L 974 206" stroke-width="2.0" fill="none" />
    
        
        
        <text x="45.0" font-family="-apple-system, system-ui, BlinkMacSystemFont, Roboto" y="50.0" dominant-baseline="middle" text-anchor="end" font-size="12" fill="#24292f">27500.0</text>
        
            
            <path stroke="#74838f" stroke-dasharray="10 6" stroke-width="0.5"  d="M 50.0 50.0 L 974.0 50.0" />
        
    
        
        
        <text x="45.0" font-family="-apple-system, system-ui, BlinkMacSystemFont, Roboto" y="81.2" dominant-baseline="middle" text-anchor="end" font-size="12" fill="#24292f">22000.0</text>
        
            
            
            <path stroke="#74838f" stroke-dasharray="10 6" stroke-width="0.5"  d="M 50.0 81.2 L 974.0 81.2" />
        
    
        
        
        <text x="45.0" font-family="-apple-system, system-ui, BlinkMacSystemFont, Roboto" y="112.4" dominant-baseline="middle" text-anchor="end" font-size="12" fill="#24292f">16500.0</text>
        
            
            
            <path stroke="#74838f" stroke-dasharray="10 6" stroke-width="0.5"  d="M 50.0 112.4 L 974.0 112.4" />
        
    
        
        
        <text x="45.0" font-family="-apple-system, system-ui, BlinkMacSystemFont, Roboto" y="143.6" dominant-baseline="middle" text-anchor="end" font-size="12" fill="#24292f">11000.0</text>
        
            
            
            <path stroke="#74838f" stroke-dasharray="10 6" stroke-width="0.5"  d="M 50.0 143.6 L 974.0 143.6" />
        
    
        
        
        <text x="45.0" font-family="-apple-system, system-ui, BlinkMacSystemFont, Roboto" y="174.8" dominant-baseline="middle" text-anchor="end" font-size="12" fill="#24292f">5500.0</text>
        
            
            
            <path stroke="#74838f" stroke-dasharray="10 6" stroke-width="0.5"  d="M 50.0 174.8 L 974.0 174.8" />
        
    
        
        
        <text x="45.0" font-family="-apple-system, system-ui, BlinkMacSystemFont, Roboto" y="206.0" dominant-baseline="middle" text-anchor="end" font-size="12" fill="#24292f">0.0</text>
        
    
    
        
        <path stroke="#74838f"  stroke-width="2.0"  d="M 92.60518731988472 206.0 L 92.60518731988472 214.0" />
        <text x="92.60518731988472" font-family="-apple-system, system-ui, BlinkMacSystemFont, Roboto" y="216.0" dominant-baseline="hanging" text-anchor="middle" font-size="12" fill="#24292f">Mar 2022</text>
    
        
        <path stroke="#74838f"  stroke-width="2.0"  d="M 175.15273775216139 206.0 L 175.15273775216139 214.0" />
        <text x="175.15273775216139" font-family="-apple-system, system-ui, BlinkMacSystemFont, Roboto" y="216.0" dominant-baseline="hanging" text-anchor="middle" font-size="12" fill="#24292f">Apr 2022</text>
    
        
        <path stroke="#74838f"  stroke-width="2.0"  d="M 255.03746397694525 206.0 L 255.03746397694525 214.0" />
        <text x="255.03746397694525" font-family="-apple-system, system-ui, BlinkMacSystemFont, Roboto" y="216.0" dominant-baseline="hanging" text-anchor="middle" font-size="12" fill="#24292f">May 2022</text>
    
        
        <path stroke="#74838f"  stroke-width="2.0"  d="M 337.5850144092219 206.0 L 337.5850144092219 214.0" />
        <text x="337.5850144092219" font-family="-apple-system, system-ui, BlinkMacSystemFont, Roboto" y="216.0" dominant-baseline="hanging" text-anchor="middle" font-size="12" fill="#24292f">Jun 2022</text>
    
        
        <path stroke="#74838f"  stroke-width="2.0"  d="M 417.46974063400575 206.0 L 417.46974063400575 214.0" />
        <text x="417.46974063400575" font-family="-apple-system, system-ui, BlinkMacSystemFont, Roboto" y="216.0" dominant-baseline="hanging" text-anchor="middle" font-size="12" fill="#24292f">Jul 2022</text>
    
        
        <path stroke="#74838f"  stroke-width="2.0"  d="M 500.01729106628244 206.0 L 500.01729106628244 214.0" />
        <text x="500.01729106628244" font-family="-apple-system, system-ui, BlinkMacSystemFont, Roboto" y="216.0" dominant-baseline="hanging" text-anchor="middle" font-size="12" fill="#24292f">Aug 2022</text>
    
        
        <path stroke="#74838f"  stroke-width="2.0"  d="M 582.5648414985591 206.0 L 582.5648414985591 214.0" />
        <text x="582.5648414985591" font-family="-apple-system, system-ui, BlinkMacSystemFont, Roboto" y="216.0" dominant-baseline="hanging" text-anchor="middle" font-size="12" fill="#24292f">Sep 2022</text>
    
        
        <path stroke="#74838f"  stroke-width="2.0"  d="M 662.449567723343 206.0 L 662.449567723343 214.0" />
        <text x="662.449567723343" font-family="-apple-system, system-ui, BlinkMacSystemFont, Roboto" y="216.0" dominant-baseline="hanging" text-anchor="middle" font-size="12" fill="#24292f">Oct 2022</text>
    
        
        <path stroke="#74838f"  stroke-width="2.0"  d="M 744.9971181556195 206.0 L 744.9971181556195 214.0" />
        <text x="744.9971181556195" font-family="-apple-system, system-ui, BlinkMacSystemFont, Roboto" y="216.0" dominant-baseline="hanging" text-anchor="middle" font-size="12" fill="#24292f">Nov 2022</text>
    
        
        <path stroke="#74838f"  stroke-width="2.0"  d="M 824.8818443804034 206.0 L 824.8818443804034 214.0" />
        <text x="824.8818443804034" font-family="-apple-system, system-ui, BlinkMacSystemFont, Roboto" y="216.0" dominant-baseline="hanging" text-anchor="middle" font-size="12" fill="#24292f">Dec 2022</text>
    
        
        <path stroke="#74838f"  stroke-width="2.0"  d="M 907.4293948126801 206.0 L 907.4293948126801 214.0" />
        <text x="907.4293948126801" font-family="-apple-system, system-ui, BlinkMacSystemFont, Roboto" y="216.0" dominant-baseline="hanging" text-anchor="middle" font-size="12" fill="#24292f">Jan 2023</text>
    
    <path stroke="#74838f"   stroke-linejoin="round" stroke-width="2.0" d="M 50.0 216.0 L 50.0 206.0 L 974.0 206.0 L 974.0 216.0"  fill="none" />
    <text x="512.0" y="25.0" font-family="-apple-system, system-ui, BlinkMacSystemFont, Roboto" dominant-baseline="middle" text-anchor="middle" font-size="18" fill="#24292f">Total daily screen name changes</text>
</svg>
