<?xml version="1.0" standalone="no"?>
<svg width="1024.0" height="256.0"  viewBox="0 0 1024.0 256.0" preserveAspectRatio="xMidYMid meet" xmlns="http://www.w3.org/2000/svg">
    <path stroke="#3498db" stroke-linejoin="round" d="M 50.0 203.3394909090909 L 50 203.3394909090909L 52.12413793103448 202.32974545454545L 54.248275862068965 196.86690909090908L 56.37241379310345 195.94792727272727L 58.49655172413793 202.14254545454546L 60.62068965517241 197.35476363636363L 62.744827586206895 191.76145454545454L 64.86896551724138 179.96218181818182L 66.99310344827586 204.09396363636364L 69.11724137931034 194.17236363636363L 71.24137931034483 192.61803636363635L 73.36551724137931 195.1253818181818L 75.48965517241379 193.92843636363637L 77.61379310344827 182.2482909090909L 79.73793103448276 200.86618181818181L 81.86206896551724 201.45614545454546L 83.98620689655172 178.89003636363637L 86.1103448275862 197.33774545454546L 88.23448275862069 198.50065454545455L 90.35862068965517 200.41803636363636L 92.48275862068965 201.18385454545455L 94.60689655172413 202.26734545454545L 96.73103448275862 195.09134545454546L 98.8551724137931 198.08087272727272L 100.97931034482758 183.38850909090908L 103.10344827586206 197.47389090909093L 105.22758620689655 202.01774545454546L 107.35172413793103 194.66021818181818L 109.47586206896551 200.75272727272727L 111.6 200.00392727272728L 113.72413793103448 201.97236363636364L 115.84827586206896 204.2754909090909L 117.97241379310344 201.74545454545455L 120.09655172413792 201.01367272727273L 122.22068965517241 174.7829818181818L 124.34482758620689 195.76072727272728L 126.46896551724137 204.0032L 128.59310344827585 203.7309090909091L 130.71724137931034 197.87665454545453L 132.84137931034482 202.60770909090908L 134.9655172413793 202.6928L 137.08965517241379 197.55898181818182L 139.21379310344827 186.5141818181818L 141.33793103448278 199.26647272727274L 143.46206896551723 199.5728L 145.58620689655174 193.4802909090909L 147.7103448275862 199.10763636363635L 149.8344827586207 201.54690909090908L 151.95862068965516 201.5696L 154.08275862068967 195.06865454545454L 156.20689655172413 201.70007272727273L 158.33103448275864 197.2866909090909L 160.4551724137931 172.35505454545455L 162.5793103448276 203.20901818181818L 164.70344827586206 199.6749090909091L 166.82758620689657 193.12858181818183L 168.95172413793102 196.8896L 171.07586206896553 199.78836363636364L 173.2 198.82967272727274L 175.3241379310345 204.1336727272727L 177.44827586206895 202.57934545454546L 179.57241379310346 198.9261090909091L 181.69655172413792 206L 183.82068965517243 204.128L 185.94482758620688 192.1245090909091L 188.0689655172414 206L 190.19310344827585 206L 192.31724137931036 206L 194.44137931034481 206L 196.56551724137933 197.37178181818183L 198.68965517241378 199.57847272727273L 200.8137931034483 188.9024L 202.93793103448274 195.02894545454546L 205.06206896551726 191.20552727272727L 207.1862068965517 166.8128L 209.31034482758622 203.8386909090909L 211.43448275862067 198.09221818181817L 213.55862068965519 201.64334545454545L 215.68275862068964 202.2957090909091L 217.80689655172415 203.22036363636363L 219.9310344827586 200.66763636363635L 222.05517241379312 191.51185454545455L 224.17931034482757 189.18603636363636L 226.30344827586208 203.86705454545455L 228.42758620689654 197.56465454545454L 230.55172413793105 187.32538181818182L 232.67586206896553 201.2349090909091L 234.8 200.44639999999998L 236.9241379310345 201.4618181818182L 239.04827586206898 201.09876363636363L 241.17241379310346 201.17818181818183L 243.29655172413794 193.02647272727273L 245.42068965517242 198.8069818181818L 247.5448275862069 203.39054545454545L 249.6689655172414 200.30458181818182L 251.79310344827587 198.35883636363636L 253.91724137931035 193.3101090909091L 256.04137931034484 200.56552727272728L 258.16551724137935 203.03883636363636L 260.2896551724138 197.22996363636364L 262.41379310344826 201.95534545454547L 264.53793103448277 196.016L 266.6620689655173 202.30705454545455L 268.78620689655173 199.91316363636363L 270.9103448275862 194.62050909090908L 273.0344827586207 201.29163636363637L 275.1586206896552 202.98778181818182L 277.28275862068966 203.5437090909091L 279.4068965517241 200.60523636363638L 281.5310344827586 195.5621818181818L 283.65517241379314 203.24305454545456L 285.7793103448276 200.15709090909093L 287.90344827586205 198.46661818181818L 290.02758620689656 201.70007272727273L 292.15172413793107 200.70734545454545L 294.2758620689655 200.4293818181818L 296.4 201.76814545454545L 298.5241379310345 204.6442181818182L 300.648275862069 206L 302.77241379310345 196.35636363636365L 304.8965517241379 199.21541818181817L 307.0206896551724 156.87418181818182L 309.14482758620693 165.1506909090909L 311.2689655172414 204.1733818181818L 313.39310344827584 202.17658181818183L 315.51724137931035 199.31185454545454L 317.64137931034486 198.7842909090909L 319.7655172413793 202.6757818181818L 321.88965517241377 202.8573090909091L 324.0137931034483 196.1861818181818L 326.1379310344828 199.64654545454545L 328.26206896551724 198.2056727272727L 330.3862068965517 201.2178909090909L 332.5103448275862 201.79083636363637L 334.6344827586207 201.90429090909092L 336.7586206896552 200.1968L 338.88275862068963 195.17076363636363L 341.00689655172414 206L 343.13103448275865 206L 345.2551724137931 206L 347.37931034482756 191.4834909090909L 349.50344827586207 197.79723636363636L 351.6275862068966 198.85236363636363L 353.75172413793103 199.76L 355.8758620689655 200.03796363636363L 358 200.76407272727272L 360.1241379310345 201.80785454545455L 362.24827586206897 191.63098181818182L 364.3724137931034 194.41061818181817L 366.49655172413793 199.88479999999998L 368.62068965517244 152.63098181818182L 370.7448275862069 197.04843636363637L 372.86896551724135 194.4730181818182L 374.99310344827586 155.90414545454547L 377.11724137931037 91.60945454545454L 379.2413793103448 104.5376L 381.3655172413793 151.17876363636364L 383.4896551724138 185.1981090909091L 385.6137931034483 142.76610909090908L 387.73793103448276 125.0672L 389.8620689655172 123.74545454545455L 391.9862068965517 157.99738181818182L 394.11034482758623 53.56814545454546L 396.2344827586207 50.78850909090909L 398.35862068965514 100.02210909090908L 400.48275862068965 156.2445090909091L 402.60689655172416 180.31956363636363L 404.7310344827586 192.43650909090908L 406.85517241379307 193.63912727272728L 408.9793103448276 193.3328L 411.1034482758621 192.11316363636365L 413.22758620689655 197.93338181818183L 415.35172413793106 191.5629090909091L 417.4758620689655 198.7672727272727L 419.6 199.3005090909091L 421.7241379310345 201.64901818181818L 423.848275862069 200.58821818181818L 425.97241379310344 202.43752727272727L 428.09655172413795 200.73003636363637L 430.2206896551724 189.7703272727273L 432.3448275862069 203.17498181818183L 434.4689655172414 200.48610909090908L 436.5931034482759 185.1810909090909L 438.71724137931034 187.88698181818182L 440.84137931034485 191.01832727272728L 442.9655172413793 192.31738181818181L 445.0896551724138 177.09745454545455L 447.21379310344827 167.91330909090908L 449.3379310344828 179.30981818181817L 451.46206896551723 186.49716363636364L 453.58620689655174 150.34487272727273L 455.7103448275862 184.27345454545454L 457.8344827586207 199.5104L 459.95862068965516 161.24785454545454L 462.0827586206897 155.49003636363636L 464.2068965517241 176.96130909090908L 466.33103448275864 190.30923636363636L 468.4551724137931 193.50865454545453L 470.5793103448276 201.72843636363638L 472.70344827586206 185.22647272727272L 474.82758620689657 192.03374545454545L 476.951724137931 192.66909090909093L 479.07586206896553 180.18341818181818L 481.2 194.5013818181818L 483.3241379310345 194.6829090909091L 485.44827586206895 201.85323636363637L 487.57241379310346 196.2032L 489.6965517241379 204.49105454545455L 491.82068965517243 191.55723636363638L 493.9448275862069 180.36494545454545L 496.0689655172414 193.02647272727273L 498.19310344827585 186.20785454545455L 500.31724137931036 191.72741818181817L 502.4413793103448 191.4834909090909L 504.5655172413793 196.63432727272726L 506.6896551724138 200.7810909090909L 508.8137931034483 176.26923636363637L 510.93793103448274 165.78036363636363L 513.0620689655173 181.82850909090908L 515.1862068965518 160.6976L 517.3103448275863 163.93105454545454L 519.4344827586207 182.10647272727272L 521.5586206896552 130.808L 523.6827586206896 190.49643636363635L 525.8068965517241 202.0914909090909L 527.9310344827586 184.09192727272728L 530.0551724137931 197.50225454545455L 532.1793103448276 187.54094545454547L 534.3034482758621 192.95272727272726L 536.4275862068965 201.88727272727272L 538.551724137931 184.33585454545454L 540.6758620689654 183.04814545454545L 542.8 182.36741818181818L 544.9241379310345 182.54327272727272L 547.048275862069 186.38938181818182L 549.1724137931035 174.3858909090909L 551.296551724138 183.1786181818182L 553.4206896551724 183.5133090909091L 555.5448275862069 184.60247272727273L 557.6689655172413 186.968L 559.7931034482758 170.00087272727274L 561.9172413793103 167.8338909090909L 564.0413793103448 203.32247272727273L 566.1655172413793 206L 568.2896551724139 128.43112727272728L 570.4137931034483 183.2637090909091L 572.5379310344828 156.8685090909091L 574.6620689655172 183.15592727272727L 576.7862068965517 183.2013090909091L 578.9103448275862 182.25963636363636L 581.0344827586207 170.18807272727273L 583.1586206896552 186.86589090909092L 585.2827586206897 183.77425454545454L 587.4068965517241 186.29861818181817L 589.5310344827586 184.17134545454545L 591.655172413793 184.9655272727273L 593.7793103448275 178.1696L 595.903448275862 180.70530909090908L 598.0275862068966 170.80072727272727L 600.1517241379311 177.99374545454546L 602.2758620689656 175.99127272727273L 604.4 173.75621818181818L 606.5241379310345 175.45803636363638L 608.6482758620689 196.91796363636365L 610.7724137931034 150.30516363636363L 612.8965517241379 167.34036363636363L 615.0206896551724 174.52203636363637L 617.1448275862069 132.05599999999998L 619.2689655172414 144.8309818181818L 621.3931034482758 173.60872727272726L 623.5172413793103 151.91054545454546L 625.6413793103447 194.03621818181819L 627.7655172413793 160.59549090909093L 629.8896551724138 206L 632.0137931034483 153.43650909090908L 634.1379310344828 181.01163636363637L 636.2620689655173 181.6413090909091L 638.3862068965517 182.49221818181817L 640.5103448275862 183.08785454545455L 642.6344827586206 206L 644.7586206896551 151.86516363636363L 646.8827586206896 172.45716363636365L 649.0068965517241 169.20669090909092L 651.1310344827587 178.22065454545455L 653.2551724137932 175.54312727272728L 655.3793103448276 177.61367272727273L 657.5034482758621 181.0173090909091L 659.6275862068965 176.80814545454547L 661.751724137931 167.8962909090909L 663.8758620689656 167.1248L 666 176.62094545454545L 668.1241379310345 158.63272727272727L 670.248275862069 151.3602909090909L 672.3724137931034 173.35345454545455L 674.4965517241379 206L 676.6206896551723 206L 678.7448275862068 206L 680.8689655172415 206L 682.9931034482759 206L 685.1172413793104 206L 687.2413793103449 206L 689.3655172413793 206L 691.4896551724138 206L 693.6137931034482 206L 695.7379310344827 206L 697.8620689655173 206L 699.9862068965517 206L 702.1103448275862 206L 704.2344827586207 206L 706.3586206896551 206L 708.4827586206897 206L 710.606896551724 206L 712.7310344827586 206L 714.8551724137932 206L 716.9793103448276 206L 719.1034482758621 206L 721.2275862068966 206L 723.351724137931 206L 725.4758620689655 206L 727.5999999999999 206L 729.7241379310344 206L 731.848275862069 206L 733.9724137931034 206L 736.096551724138 206L 738.2206896551725 206L 740.3448275862069 206L 742.4689655172414 206L 744.5931034482758 206L 746.7172413793103 206L 748.8413793103449 206L 750.9655172413793 206L 753.0896551724138 206L 755.2137931034483 206L 757.3379310344827 206L 759.4620689655172 206L 761.5862068965516 206L 763.7103448275861 206L 765.8344827586208 206L 767.9586206896552 206L 770.0827586206897 206L 772.2068965517242 206L 774.3310344827586 206L 776.4551724137931 206L 778.5793103448275 206L 780.7034482758621 206L 782.8275862068966 206L 784.951724137931 206L 787.0758620689655 206L 789.2 206L 791.3241379310344 206L 793.448275862069 206L 795.5724137931034 206L 797.696551724138 206L 799.8206896551725 206L 801.9448275862069 206L 804.0689655172414 206L 806.1931034482759 206L 808.3172413793103 206L 810.4413793103448 206L 812.5655172413792 206L 814.6896551724138 206L 816.8137931034483 206L 818.9379310344827 206L 821.0620689655173 206L 823.1862068965518 206L 825.3103448275862 206L 827.4344827586207 206L 829.5586206896551 206L 831.6827586206897 206L 833.8068965517242 206L 835.9310344827586 206L 838.0551724137931 206L 840.1793103448276 206L 842.303448275862 206L 844.4275862068965 206L 846.5517241379309 206L 848.6758620689656 206L 850.8000000000001 206L 852.9241379310345 206L 855.048275862069 206L 857.1724137931035 206L 859.2965517241379 206L 861.4206896551724 206L 863.5448275862068 206L 865.6689655172414 206L 867.7931034482759 206L 869.9172413793103 206L 872.0413793103448 206L 874.1655172413793 206L 876.2896551724137 206L 878.4137931034483 206L 880.5379310344827 206L 882.6620689655173 206L 884.7862068965518 206L 886.9103448275862 206L 889.0344827586207 206L 891.1586206896552 206L 893.2827586206896 206L 895.4068965517241 206L 897.5310344827585 206L 899.6551724137931 206L 901.7793103448276 206L 903.903448275862 206L 906.0275862068966 206L 908.1517241379311 206L 910.2758620689655 206L 912.4 206L 914.5241379310345 206L 916.648275862069 206L 918.7724137931035 206L 920.8965517241379 206L 923.0206896551724 206L 925.1448275862069 206L 927.2689655172413 206L 929.3931034482758 206L 931.5172413793103 206L 933.6413793103449 206L 935.7655172413794 206L 937.8896551724138 206L 940.0137931034483 206L 942.1379310344828 206L 944.2620689655172 206L 946.3862068965517 206L 948.5103448275862 206L 950.6344827586207 206L 952.7586206896552 206L 954.8827586206896 206L 957.0068965517241 206L 959.1310344827587 206L 961.255172413793 206L 963.3793103448276 206L 965.5034482758621 206L 967.6275862068966 206L 969.7517241379311 206L 971.8758620689655 206L 974 206" stroke-width="2.0" fill="none" />
    
        
        
        <text x="45.0" font-family="-apple-system, system-ui, BlinkMacSystemFont, Roboto" y="50.0" dominant-baseline="middle" text-anchor="end" font-size="12" fill="#24292f">27500.0</text>
        
            
            <path stroke="#74838f" stroke-dasharray="10 6" stroke-width="0.5"  d="M 50.0 50.0 L 974.0 50.0" />
        
    
        
        
        <text x="45.0" font-family="-apple-system, system-ui, BlinkMacSystemFont, Roboto" y="81.2" dominant-baseline="middle" text-anchor="end" font-size="12" fill="#24292f">22000.0</text>
        
            
            
            <path stroke="#74838f" stroke-dasharray="10 6" stroke-width="0.5"  d="M 50.0 81.2 L 974.0 81.2" />
        
    
        
        
        <text x="45.0" font-family="-apple-system, system-ui, BlinkMacSystemFont, Roboto" y="112.4" dominant-baseline="middle" text-anchor="end" font-size="12" fill="#24292f">16500.0</text>
        
            
            
            <path stroke="#74838f" stroke-dasharray="10 6" stroke-width="0.5"  d="M 50.0 112.4 L 974.0 112.4" />
        
    
        
        
        <text x="45.0" font-family="-apple-system, system-ui, BlinkMacSystemFont, Roboto" y="143.6" dominant-baseline="middle" text-anchor="end" font-size="12" fill="#24292f">11000.0</text>
        
            
            
            <path stroke="#74838f" stroke-dasharray="10 6" stroke-width="0.5"  d="M 50.0 143.6 L 974.0 143.6" />
        
    
        
        
        <text x="45.0" font-family="-apple-system, system-ui, BlinkMacSystemFont, Roboto" y="174.8" dominant-baseline="middle" text-anchor="end" font-size="12" fill="#24292f">5500.0</text>
        
            
            
            <path stroke="#74838f" stroke-dasharray="10 6" stroke-width="0.5"  d="M 50.0 174.8 L 974.0 174.8" />
        
    
        
        
        <text x="45.0" font-family="-apple-system, system-ui, BlinkMacSystemFont, Roboto" y="206.0" dominant-baseline="middle" text-anchor="end" font-size="12" fill="#24292f">0.0</text>
        
    
    
        
        <path stroke="#74838f"  stroke-width="2.0"  d="M 83.98620689655172 206.0 L 83.98620689655172 214.0" />
        <text x="83.98620689655172" font-family="-apple-system, system-ui, BlinkMacSystemFont, Roboto" y="216.0" dominant-baseline="hanging" text-anchor="middle" font-size="12" fill="#24292f">Mar 2022</text>
    
        
        <path stroke="#74838f"  stroke-width="2.0"  d="M 149.8344827586207 206.0 L 149.8344827586207 214.0" />
        <text x="149.8344827586207" font-family="-apple-system, system-ui, BlinkMacSystemFont, Roboto" y="216.0" dominant-baseline="hanging" text-anchor="middle" font-size="12" fill="#24292f">Apr 2022</text>
    
        
        <path stroke="#74838f"  stroke-width="2.0"  d="M 213.55862068965519 206.0 L 213.55862068965519 214.0" />
        <text x="213.55862068965519" font-family="-apple-system, system-ui, BlinkMacSystemFont, Roboto" y="216.0" dominant-baseline="hanging" text-anchor="middle" font-size="12" fill="#24292f">May 2022</text>
    
        
        <path stroke="#74838f"  stroke-width="2.0"  d="M 279.4068965517241 206.0 L 279.4068965517241 214.0" />
        <text x="279.4068965517241" font-family="-apple-system, system-ui, BlinkMacSystemFont, Roboto" y="216.0" dominant-baseline="hanging" text-anchor="middle" font-size="12" fill="#24292f">Jun 2022</text>
    
        
        <path stroke="#74838f"  stroke-width="2.0"  d="M 343.13103448275865 206.0 L 343.13103448275865 214.0" />
        <text x="343.13103448275865" font-family="-apple-system, system-ui, BlinkMacSystemFont, Roboto" y="216.0" dominant-baseline="hanging" text-anchor="middle" font-size="12" fill="#24292f">Jul 2022</text>
    
        
        <path stroke="#74838f"  stroke-width="2.0"  d="M 408.9793103448276 206.0 L 408.9793103448276 214.0" />
        <text x="408.9793103448276" font-family="-apple-system, system-ui, BlinkMacSystemFont, Roboto" y="216.0" dominant-baseline="hanging" text-anchor="middle" font-size="12" fill="#24292f">Aug 2022</text>
    
        
        <path stroke="#74838f"  stroke-width="2.0"  d="M 474.82758620689657 206.0 L 474.82758620689657 214.0" />
        <text x="474.82758620689657" font-family="-apple-system, system-ui, BlinkMacSystemFont, Roboto" y="216.0" dominant-baseline="hanging" text-anchor="middle" font-size="12" fill="#24292f">Sep 2022</text>
    
        
        <path stroke="#74838f"  stroke-width="2.0"  d="M 538.551724137931 206.0 L 538.551724137931 214.0" />
        <text x="538.551724137931" font-family="-apple-system, system-ui, BlinkMacSystemFont, Roboto" y="216.0" dominant-baseline="hanging" text-anchor="middle" font-size="12" fill="#24292f">Oct 2022</text>
    
        
        <path stroke="#74838f"  stroke-width="2.0"  d="M 604.4 206.0 L 604.4 214.0" />
        <text x="604.4" font-family="-apple-system, system-ui, BlinkMacSystemFont, Roboto" y="216.0" dominant-baseline="hanging" text-anchor="middle" font-size="12" fill="#24292f">Nov 2022</text>
    
        
        <path stroke="#74838f"  stroke-width="2.0"  d="M 668.1241379310345 206.0 L 668.1241379310345 214.0" />
        <text x="668.1241379310345" font-family="-apple-system, system-ui, BlinkMacSystemFont, Roboto" y="216.0" dominant-baseline="hanging" text-anchor="middle" font-size="12" fill="#24292f">Dec 2022</text>
    
        
        <path stroke="#74838f"  stroke-width="2.0"  d="M 733.9724137931034 206.0 L 733.9724137931034 214.0" />
        <text x="733.9724137931034" font-family="-apple-system, system-ui, BlinkMacSystemFont, Roboto" y="216.0" dominant-baseline="hanging" text-anchor="middle" font-size="12" fill="#24292f">Jan 2023</text>
    
        
        <path stroke="#74838f"  stroke-width="2.0"  d="M 799.8206896551725 206.0 L 799.8206896551725 214.0" />
        <text x="799.8206896551725" font-family="-apple-system, system-ui, BlinkMacSystemFont, Roboto" y="216.0" dominant-baseline="hanging" text-anchor="middle" font-size="12" fill="#24292f">Feb 2023</text>
    
        
        <path stroke="#74838f"  stroke-width="2.0"  d="M 859.2965517241379 206.0 L 859.2965517241379 214.0" />
        <text x="859.2965517241379" font-family="-apple-system, system-ui, BlinkMacSystemFont, Roboto" y="216.0" dominant-baseline="hanging" text-anchor="middle" font-size="12" fill="#24292f">Mar 2023</text>
    
        
        <path stroke="#74838f"  stroke-width="2.0"  d="M 925.1448275862069 206.0 L 925.1448275862069 214.0" />
        <text x="925.1448275862069" font-family="-apple-system, system-ui, BlinkMacSystemFont, Roboto" y="216.0" dominant-baseline="hanging" text-anchor="middle" font-size="12" fill="#24292f">Apr 2023</text>
    
    <path stroke="#74838f"   stroke-linejoin="round" stroke-width="2.0" d="M 50.0 216.0 L 50.0 206.0 L 974.0 206.0 L 974.0 216.0"  fill="none" />
    <text x="512.0" y="25.0" font-family="-apple-system, system-ui, BlinkMacSystemFont, Roboto" dominant-baseline="middle" text-anchor="middle" font-size="18" fill="#24292f">Total daily screen name changes</text>
</svg>
