<?xml version="1.0" standalone="no"?>
<svg width="1024.0" height="256.0"  viewBox="0 0 1024.0 256.0" preserveAspectRatio="xMidYMid meet" xmlns="http://www.w3.org/2000/svg">
    <path stroke="#3498db" stroke-linejoin="round" d="M 50.0 203.3394909090909 L 50 203.3394909090909L 52.24271844660194 202.32974545454545L 54.48543689320388 196.86690909090908L 56.728155339805824 195.94792727272727L 58.970873786407765 202.14254545454546L 61.213592233009706 197.35476363636363L 63.45631067961165 191.76145454545454L 65.69902912621359 179.96218181818182L 67.94174757281553 204.09396363636364L 70.18446601941747 194.17236363636363L 72.42718446601941 192.61803636363635L 74.66990291262135 195.1253818181818L 76.9126213592233 193.92843636363637L 79.15533980582524 182.2482909090909L 81.39805825242718 200.86618181818181L 83.64077669902912 201.45614545454546L 85.88349514563106 178.89003636363637L 88.12621359223301 197.33774545454546L 90.36893203883496 198.50065454545455L 92.6116504854369 200.41803636363636L 94.85436893203882 201.18385454545455L 97.09708737864077 202.26734545454545L 99.3398058252427 195.09134545454546L 101.58252427184466 198.08087272727272L 103.8252427184466 183.38850909090908L 106.06796116504854 197.47389090909093L 108.31067961165049 202.01774545454546L 110.55339805825243 194.66021818181818L 112.79611650485437 200.75272727272727L 115.03883495145631 200.00392727272728L 117.28155339805825 201.97236363636364L 119.52427184466019 204.2754909090909L 121.76699029126213 201.74545454545455L 124.00970873786409 201.01367272727273L 126.25242718446603 174.7829818181818L 128.49514563106797 195.76072727272728L 130.7378640776699 204.0032L 132.98058252427185 203.7309090909091L 135.2233009708738 197.87665454545453L 137.4660194174757 202.60770909090908L 139.70873786407765 202.6928L 141.9514563106796 197.55898181818182L 144.19417475728153 186.5141818181818L 146.43689320388347 199.26647272727274L 148.6796116504854 199.5728L 150.92233009708735 193.4802909090909L 153.16504854368932 199.10763636363635L 155.40776699029126 201.54690909090908L 157.6504854368932 201.5696L 159.89320388349515 195.06865454545454L 162.1359223300971 201.70007272727273L 164.37864077669903 197.2866909090909L 166.62135922330097 172.35505454545455L 168.8640776699029 203.20901818181818L 171.10679611650485 199.6749090909091L 173.3495145631068 193.12858181818183L 175.59223300970874 196.8896L 177.83495145631068 199.78836363636364L 180.07766990291262 198.82967272727274L 182.32038834951456 204.1336727272727L 184.5631067961165 202.57934545454546L 186.80582524271844 198.9261090909091L 189.04854368932038 206L 191.29126213592232 204.128L 193.53398058252426 192.1245090909091L 195.77669902912623 206L 198.01941747572818 206L 200.26213592233012 206L 202.50485436893206 206L 204.747572815534 197.37178181818183L 206.99029126213594 199.57847272727273L 209.23300970873788 188.9024L 211.47572815533982 195.02894545454546L 213.71844660194176 191.20552727272727L 215.9611650485437 166.8128L 218.20388349514565 203.8386909090909L 220.4466019417476 198.09221818181817L 222.68932038834953 201.64334545454545L 224.93203883495144 202.2957090909091L 227.17475728155338 203.22036363636363L 229.41747572815532 200.66763636363635L 231.66019417475727 191.51185454545455L 233.9029126213592 189.18603636363636L 236.14563106796115 203.86705454545455L 238.3883495145631 197.56465454545454L 240.63106796116503 187.32538181818182L 242.87378640776697 201.2349090909091L 245.1165048543689 200.44639999999998L 247.35922330097085 201.4618181818182L 249.6019417475728 201.09876363636363L 251.84466019417474 201.17818181818183L 254.0873786407767 193.02647272727273L 256.33009708737865 198.8069818181818L 258.5728155339806 203.39054545454545L 260.81553398058253 200.30458181818182L 263.05825242718447 198.35883636363636L 265.3009708737864 193.3101090909091L 267.54368932038835 200.56552727272728L 269.7864077669903 203.03883636363636L 272.02912621359224 197.22996363636364L 274.2718446601942 201.95534545454547L 276.5145631067961 196.016L 278.75728155339806 202.30705454545455L 281 199.91316363636363L 283.24271844660194 194.62050909090908L 285.4854368932039 201.29163636363637L 287.7281553398058 202.98778181818182L 289.97087378640776 203.5437090909091L 292.2135922330097 200.60523636363638L 294.45631067961165 195.5621818181818L 296.6990291262136 203.24305454545456L 298.94174757281553 200.15709090909093L 301.18446601941747 198.46661818181818L 303.4271844660194 201.70007272727273L 305.66990291262135 200.70734545454545L 307.9126213592233 200.4293818181818L 310.15533980582524 201.76814545454545L 312.3980582524272 204.6442181818182L 314.6407766990291 206L 316.88349514563106 196.35636363636365L 319.126213592233 199.21541818181817L 321.36893203883494 156.87418181818182L 323.6116504854369 165.1506909090909L 325.8543689320388 204.1733818181818L 328.09708737864077 202.17658181818183L 330.3398058252427 199.31185454545454L 332.58252427184465 198.7842909090909L 334.8252427184466 202.6757818181818L 337.06796116504853 202.8573090909091L 339.3106796116505 196.1861818181818L 341.55339805825247 199.64654545454545L 343.7961165048544 198.2056727272727L 346.03883495145635 201.2178909090909L 348.2815533980583 201.79083636363637L 350.52427184466023 201.90429090909092L 352.7669902912622 200.1968L 355.0097087378641 195.17076363636363L 357.25242718446606 206L 359.495145631068 206L 361.73786407766994 206L 363.9805825242719 191.4834909090909L 366.2233009708738 197.79723636363636L 368.46601941747576 198.85236363636363L 370.7087378640777 199.76L 372.95145631067965 200.03796363636363L 375.1941747572816 200.76407272727272L 377.4368932038835 201.80785454545455L 379.67961165048547 191.63098181818182L 381.9223300970874 194.41061818181817L 384.16504854368935 199.88479999999998L 386.4077669902913 152.63098181818182L 388.65048543689323 197.04843636363637L 390.8932038834952 194.4730181818182L 393.1359223300971 155.90414545454547L 395.37864077669906 91.60945454545454L 397.62135922330094 104.5376L 399.8640776699029 151.17876363636364L 402.1067961165048 185.1981090909091L 404.34951456310677 142.76610909090908L 406.5922330097087 125.0672L 408.83495145631065 123.74545454545455L 411.0776699029126 157.99738181818182L 413.32038834951453 53.56814545454546L 415.5631067961165 50.78850909090909L 417.8058252427184 100.02210909090908L 420.04854368932035 156.2445090909091L 422.2912621359223 180.31956363636363L 424.53398058252424 192.43650909090908L 426.7766990291262 193.63912727272728L 429.0194174757281 193.3328L 431.26213592233006 192.11316363636365L 433.504854368932 197.93338181818183L 435.74757281553394 191.5629090909091L 437.9902912621359 198.7672727272727L 440.2330097087378 199.3005090909091L 442.47572815533977 201.64901818181818L 444.7184466019417 200.58821818181818L 446.96116504854365 202.43752727272727L 449.2038834951456 200.73003636363637L 451.44660194174753 189.7703272727273L 453.6893203883495 203.17498181818183L 455.93203883495147 200.48610909090908L 458.1747572815534 185.1810909090909L 460.41747572815535 187.88698181818182L 462.6601941747573 191.01832727272728L 464.90291262135923 192.31738181818181L 467.1456310679612 177.09745454545455L 469.3883495145631 167.91330909090908L 471.63106796116506 179.30981818181817L 473.873786407767 186.49716363636364L 476.11650485436894 150.34487272727273L 478.3592233009709 184.27345454545454L 480.6019417475728 199.5104L 482.84466019417476 161.24785454545454L 485.0873786407767 155.49003636363636L 487.33009708737865 176.96130909090908L 489.5728155339806 190.30923636363636L 491.81553398058253 193.50865454545453L 494.05825242718447 201.72843636363638L 496.3009708737864 185.22647272727272L 498.54368932038835 192.03374545454545L 500.7864077669903 192.66909090909093L 503.02912621359224 180.18341818181818L 505.2718446601942 194.5013818181818L 507.5145631067961 194.6829090909091L 509.75728155339806 201.85323636363637L 512 196.2032L 514.2427184466019 204.49105454545455L 516.4854368932039 191.55723636363638L 518.7281553398059 180.36494545454545L 520.9708737864078 193.02647272727273L 523.2135922330096 186.20785454545455L 525.4563106796116 191.72741818181817L 527.6990291262136 191.4834909090909L 529.9417475728155 196.63432727272726L 532.1844660194174 200.7810909090909L 534.4271844660194 176.26923636363637L 536.6699029126214 165.78036363636363L 538.9126213592233 181.82850909090908L 541.1553398058252 160.6976L 543.3980582524272 163.93105454545454L 545.6407766990292 182.10647272727272L 547.8834951456311 130.808L 550.126213592233 190.49643636363635L 552.3689320388349 202.0914909090909L 554.6116504854369 184.09192727272728L 556.8543689320388 197.50225454545455L 559.0970873786407 187.54094545454547L 561.3398058252427 192.95272727272726L 563.5825242718446 201.88727272727272L 565.8252427184466 184.33585454545454L 568.0679611650485 183.04814545454545L 570.3106796116505 182.36741818181818L 572.5533980582524 182.54327272727272L 574.7961165048544 186.38938181818182L 577.0388349514562 174.3858909090909L 579.2815533980582 183.1786181818182L 581.5242718446601 183.5133090909091L 583.7669902912621 184.60247272727273L 586.009708737864 186.968L 588.252427184466 170.00087272727274L 590.4951456310679 167.8338909090909L 592.7378640776699 203.32247272727273L 594.9805825242718 206L 597.2233009708738 128.43112727272728L 599.4660194174756 183.2637090909091L 601.7087378640776 156.8685090909091L 603.9514563106795 183.15592727272727L 606.1941747572815 183.2013090909091L 608.4368932038834 182.25963636363636L 610.6796116504854 170.18807272727273L 612.9223300970873 186.86589090909092L 615.1650485436893 183.77425454545454L 617.4077669902912 186.29861818181817L 619.6504854368932 184.17134545454545L 621.8932038834951 184.9655272727273L 624.1359223300971 178.1696L 626.378640776699 180.70530909090908L 628.621359223301 170.80072727272727L 630.8640776699029 177.99374545454546L 633.1067961165049 175.99127272727273L 635.3495145631068 173.75621818181818L 637.5922330097088 175.45803636363638L 639.8349514563107 196.91796363636365L 642.0776699029127 150.30516363636363L 644.3203883495146 167.34036363636363L 646.5631067961166 174.52203636363637L 648.8058252427185 132.05599999999998L 651.0485436893205 144.8309818181818L 653.2912621359224 173.60872727272726L 655.5339805825244 151.91054545454546L 657.7766990291262 194.03621818181819L 660.0194174757282 160.59549090909093L 662.2621359223301 206L 664.5048543689321 153.43650909090908L 666.747572815534 181.01163636363637L 668.990291262136 181.6413090909091L 671.2330097087379 182.49221818181817L 673.4757281553399 183.08785454545455L 675.7184466019418 206L 677.9611650485438 151.86516363636363L 680.2038834951456 172.45716363636365L 682.4466019417476 169.20669090909092L 684.6893203883495 178.22065454545455L 686.9320388349515 175.54312727272728L 689.1747572815534 177.61367272727273L 691.4174757281554 181.0173090909091L 693.6601941747573 176.80814545454547L 695.9029126213593 167.8962909090909L 698.1456310679612 167.1248L 700.3883495145632 176.62094545454545L 702.6310679611651 158.63272727272727L 704.873786407767 151.3602909090909L 707.1165048543689 173.35345454545455L 709.3592233009709 206L 711.6019417475728 206L 713.8446601941748 206L 716.0873786407767 206L 718.3300970873787 206L 720.5728155339806 206L 722.8155339805826 206L 725.0582524271845 206L 727.3009708737865 206L 729.5436893203884 206L 731.7864077669904 206L 734.0291262135922 206L 736.2718446601942 206L 738.5145631067961 206L 740.7572815533981 206L 743 206L 745.2427184466019 206L 747.4854368932039 206L 749.7281553398058 206L 751.9708737864078 206L 754.2135922330096 206L 756.4563106796116 206L 758.6990291262135 206L 760.9417475728155 206L 763.1844660194174 206L 765.4271844660194 206L 767.6699029126213 206L 769.9126213592233 206L 772.1553398058252 206L 774.3980582524272 206L 776.6407766990291 206L 778.8834951456311 206L 781.126213592233 206L 783.3689320388349 206L 785.6116504854368 206L 787.8543689320388 206L 790.0970873786407 206L 792.3398058252427 206L 794.5825242718446 206L 796.8252427184466 206L 799.0679611650485 206L 801.3106796116505 206L 803.5533980582524 206L 805.7961165048544 206L 808.0388349514562 206L 810.2815533980582 206L 812.5242718446601 206L 814.7669902912621 206L 817.009708737864 206L 819.252427184466 206L 821.4951456310679 206L 823.7378640776699 206L 825.9805825242718 206L 828.2233009708738 206L 830.4660194174756 206L 832.7087378640776 206L 834.9514563106795 206L 837.1941747572815 206L 839.4368932038834 206L 841.6796116504854 206L 843.9223300970873 206L 846.1650485436893 206L 848.4077669902912 206L 850.6504854368932 206L 852.8932038834951 206L 855.1359223300971 206L 857.378640776699 206L 859.621359223301 206L 861.8640776699029 206L 864.1067961165049 206L 866.3495145631068 206L 868.5922330097088 206L 870.8349514563107 206L 873.0776699029127 206L 875.3203883495146 206L 877.5631067961166 206L 879.8058252427185 206L 882.0485436893205 206L 884.2912621359224 206L 886.5339805825244 206L 888.7766990291262 206L 891.0194174757282 206L 893.2621359223301 206L 895.5048543689321 206L 897.747572815534 206L 899.990291262136 206L 902.2330097087379 206L 904.4757281553399 206L 906.7184466019418 206L 908.9611650485438 206L 911.2038834951456 206L 913.4466019417476 206L 915.6893203883495 206L 917.9320388349515 206L 920.1747572815534 206L 922.4174757281554 206L 924.6601941747573 206L 926.9029126213593 206L 929.1456310679612 206L 931.3883495145632 206L 933.6310679611651 206L 935.873786407767 206L 938.1165048543689 206L 940.3592233009709 206L 942.6019417475728 206L 944.8446601941748 206L 947.0873786407767 206L 949.3300970873787 206L 951.5728155339806 206L 953.8155339805826 206L 956.0582524271845 206L 958.3009708737865 206L 960.5436893203884 206L 962.7864077669904 206L 965.0291262135922 206L 967.2718446601942 206L 969.5145631067961 206L 971.7572815533981 206L 974 206" stroke-width="2.0" fill="none" />
    
        
        
        <text x="45.0" font-family="-apple-system, system-ui, BlinkMacSystemFont, Roboto" y="50.0" dominant-baseline="middle" text-anchor="end" font-size="12" fill="#24292f">27500.0</text>
        
            
            <path stroke="#74838f" stroke-dasharray="10 6" stroke-width="0.5"  d="M 50.0 50.0 L 974.0 50.0" />
        
    
        
        
        <text x="45.0" font-family="-apple-system, system-ui, BlinkMacSystemFont, Roboto" y="81.2" dominant-baseline="middle" text-anchor="end" font-size="12" fill="#24292f">22000.0</text>
        
            
            
            <path stroke="#74838f" stroke-dasharray="10 6" stroke-width="0.5"  d="M 50.0 81.2 L 974.0 81.2" />
        
    
        
        
        <text x="45.0" font-family="-apple-system, system-ui, BlinkMacSystemFont, Roboto" y="112.4" dominant-baseline="middle" text-anchor="end" font-size="12" fill="#24292f">16500.0</text>
        
            
            
            <path stroke="#74838f" stroke-dasharray="10 6" stroke-width="0.5"  d="M 50.0 112.4 L 974.0 112.4" />
        
    
        
        
        <text x="45.0" font-family="-apple-system, system-ui, BlinkMacSystemFont, Roboto" y="143.6" dominant-baseline="middle" text-anchor="end" font-size="12" fill="#24292f">11000.0</text>
        
            
            
            <path stroke="#74838f" stroke-dasharray="10 6" stroke-width="0.5"  d="M 50.0 143.6 L 974.0 143.6" />
        
    
        
        
        <text x="45.0" font-family="-apple-system, system-ui, BlinkMacSystemFont, Roboto" y="174.8" dominant-baseline="middle" text-anchor="end" font-size="12" fill="#24292f">5500.0</text>
        
            
            
            <path stroke="#74838f" stroke-dasharray="10 6" stroke-width="0.5"  d="M 50.0 174.8 L 974.0 174.8" />
        
    
        
        
        <text x="45.0" font-family="-apple-system, system-ui, BlinkMacSystemFont, Roboto" y="206.0" dominant-baseline="middle" text-anchor="end" font-size="12" fill="#24292f">0.0</text>
        
    
    
        
        <path stroke="#74838f"  stroke-width="2.0"  d="M 85.88349514563106 206.0 L 85.88349514563106 214.0" />
        <text x="85.88349514563106" font-family="-apple-system, system-ui, BlinkMacSystemFont, Roboto" y="216.0" dominant-baseline="hanging" text-anchor="middle" font-size="12" fill="#24292f">Mar 2022</text>
    
        
        <path stroke="#74838f"  stroke-width="2.0"  d="M 155.40776699029126 206.0 L 155.40776699029126 214.0" />
        <text x="155.40776699029126" font-family="-apple-system, system-ui, BlinkMacSystemFont, Roboto" y="216.0" dominant-baseline="hanging" text-anchor="middle" font-size="12" fill="#24292f">Apr 2022</text>
    
        
        <path stroke="#74838f"  stroke-width="2.0"  d="M 222.68932038834953 206.0 L 222.68932038834953 214.0" />
        <text x="222.68932038834953" font-family="-apple-system, system-ui, BlinkMacSystemFont, Roboto" y="216.0" dominant-baseline="hanging" text-anchor="middle" font-size="12" fill="#24292f">May 2022</text>
    
        
        <path stroke="#74838f"  stroke-width="2.0"  d="M 292.2135922330097 206.0 L 292.2135922330097 214.0" />
        <text x="292.2135922330097" font-family="-apple-system, system-ui, BlinkMacSystemFont, Roboto" y="216.0" dominant-baseline="hanging" text-anchor="middle" font-size="12" fill="#24292f">Jun 2022</text>
    
        
        <path stroke="#74838f"  stroke-width="2.0"  d="M 359.495145631068 206.0 L 359.495145631068 214.0" />
        <text x="359.495145631068" font-family="-apple-system, system-ui, BlinkMacSystemFont, Roboto" y="216.0" dominant-baseline="hanging" text-anchor="middle" font-size="12" fill="#24292f">Jul 2022</text>
    
        
        <path stroke="#74838f"  stroke-width="2.0"  d="M 429.0194174757281 206.0 L 429.0194174757281 214.0" />
        <text x="429.0194174757281" font-family="-apple-system, system-ui, BlinkMacSystemFont, Roboto" y="216.0" dominant-baseline="hanging" text-anchor="middle" font-size="12" fill="#24292f">Aug 2022</text>
    
        
        <path stroke="#74838f"  stroke-width="2.0"  d="M 498.54368932038835 206.0 L 498.54368932038835 214.0" />
        <text x="498.54368932038835" font-family="-apple-system, system-ui, BlinkMacSystemFont, Roboto" y="216.0" dominant-baseline="hanging" text-anchor="middle" font-size="12" fill="#24292f">Sep 2022</text>
    
        
        <path stroke="#74838f"  stroke-width="2.0"  d="M 565.8252427184466 206.0 L 565.8252427184466 214.0" />
        <text x="565.8252427184466" font-family="-apple-system, system-ui, BlinkMacSystemFont, Roboto" y="216.0" dominant-baseline="hanging" text-anchor="middle" font-size="12" fill="#24292f">Oct 2022</text>
    
        
        <path stroke="#74838f"  stroke-width="2.0"  d="M 635.3495145631068 206.0 L 635.3495145631068 214.0" />
        <text x="635.3495145631068" font-family="-apple-system, system-ui, BlinkMacSystemFont, Roboto" y="216.0" dominant-baseline="hanging" text-anchor="middle" font-size="12" fill="#24292f">Nov 2022</text>
    
        
        <path stroke="#74838f"  stroke-width="2.0"  d="M 702.6310679611651 206.0 L 702.6310679611651 214.0" />
        <text x="702.6310679611651" font-family="-apple-system, system-ui, BlinkMacSystemFont, Roboto" y="216.0" dominant-baseline="hanging" text-anchor="middle" font-size="12" fill="#24292f">Dec 2022</text>
    
        
        <path stroke="#74838f"  stroke-width="2.0"  d="M 772.1553398058252 206.0 L 772.1553398058252 214.0" />
        <text x="772.1553398058252" font-family="-apple-system, system-ui, BlinkMacSystemFont, Roboto" y="216.0" dominant-baseline="hanging" text-anchor="middle" font-size="12" fill="#24292f">Jan 2023</text>
    
        
        <path stroke="#74838f"  stroke-width="2.0"  d="M 841.6796116504854 206.0 L 841.6796116504854 214.0" />
        <text x="841.6796116504854" font-family="-apple-system, system-ui, BlinkMacSystemFont, Roboto" y="216.0" dominant-baseline="hanging" text-anchor="middle" font-size="12" fill="#24292f">Feb 2023</text>
    
        
        <path stroke="#74838f"  stroke-width="2.0"  d="M 904.4757281553399 206.0 L 904.4757281553399 214.0" />
        <text x="904.4757281553399" font-family="-apple-system, system-ui, BlinkMacSystemFont, Roboto" y="216.0" dominant-baseline="hanging" text-anchor="middle" font-size="12" fill="#24292f">Mar 2023</text>
    
        
        <path stroke="#74838f"  stroke-width="2.0"  d="M 974.0 206.0 L 974.0 214.0" />
        <text x="974.0" font-family="-apple-system, system-ui, BlinkMacSystemFont, Roboto" y="216.0" dominant-baseline="hanging" text-anchor="middle" font-size="12" fill="#24292f">Apr 2023</text>
    
    <path stroke="#74838f"   stroke-linejoin="round" stroke-width="2.0" d="M 50.0 216.0 L 50.0 206.0 L 974.0 206.0 L 974.0 216.0"  fill="none" />
    <text x="512.0" y="25.0" font-family="-apple-system, system-ui, BlinkMacSystemFont, Roboto" dominant-baseline="middle" text-anchor="middle" font-size="18" fill="#24292f">Total daily screen name changes</text>
</svg>
