<?xml version="1.0" standalone="no"?>
<svg width="1024.0" height="256.0"  viewBox="0 0 1024.0 256.0" preserveAspectRatio="xMidYMid meet" xmlns="http://www.w3.org/2000/svg">
    <path stroke="#3498db" stroke-linejoin="round" d="M 50.0 203.3394909090909 L 50 203.3394909090909L 52.357142857142854 202.32974545454545L 54.714285714285715 196.86690909090908L 57.07142857142857 195.94792727272727L 59.42857142857143 202.14254545454546L 61.785714285714285 197.35476363636363L 64.14285714285714 191.76145454545454L 66.5 179.96218181818182L 68.85714285714286 204.09396363636364L 71.21428571428572 194.17236363636363L 73.57142857142857 192.61803636363635L 75.92857142857143 195.1253818181818L 78.28571428571428 193.92843636363637L 80.64285714285714 182.2482909090909L 83 200.86618181818181L 85.35714285714286 201.45614545454546L 87.71428571428571 178.89003636363637L 90.07142857142857 197.33774545454546L 92.42857142857143 198.50065454545455L 94.78571428571428 200.41803636363636L 97.14285714285714 201.18385454545455L 99.5 202.26734545454545L 101.85714285714286 195.09134545454546L 104.21428571428572 198.08087272727272L 106.57142857142857 183.38850909090908L 108.92857142857143 197.47389090909093L 111.28571428571429 202.01774545454546L 113.64285714285714 194.66021818181818L 116 200.75272727272727L 118.35714285714286 200.00392727272728L 120.71428571428572 201.97236363636364L 123.07142857142857 204.2754909090909L 125.42857142857142 201.74545454545455L 127.78571428571428 201.01367272727273L 130.14285714285714 174.7829818181818L 132.5 195.76072727272728L 134.85714285714286 204.0032L 137.21428571428572 203.7309090909091L 139.57142857142856 197.87665454545453L 141.92857142857144 202.60770909090908L 144.28571428571428 202.6928L 146.64285714285717 197.55898181818182L 149 186.5141818181818L 151.35714285714286 199.26647272727274L 153.71428571428572 199.5728L 156.07142857142856 193.4802909090909L 158.42857142857144 199.10763636363635L 160.78571428571428 201.54690909090908L 163.14285714285714 201.5696L 165.5 195.06865454545454L 167.85714285714286 201.70007272727273L 170.21428571428572 197.2866909090909L 172.57142857142858 172.35505454545455L 174.92857142857144 203.20901818181818L 177.28571428571428 199.6749090909091L 179.64285714285714 193.12858181818183L 182 196.8896L 184.35714285714286 199.78836363636364L 186.71428571428572 198.82967272727274L 189.07142857142858 204.1336727272727L 191.42857142857144 202.57934545454546L 193.78571428571428 198.9261090909091L 196.14285714285714 206L 198.5 204.128L 200.85714285714283 192.1245090909091L 203.2142857142857 206L 205.57142857142856 206L 207.92857142857142 206L 210.28571428571428 206L 212.64285714285714 197.37178181818183L 215 199.57847272727273L 217.35714285714286 188.9024L 219.71428571428572 195.02894545454546L 222.07142857142858 191.20552727272727L 224.42857142857142 166.8128L 226.78571428571428 203.8386909090909L 229.14285714285714 198.09221818181817L 231.5 201.64334545454545L 233.85714285714286 202.2957090909091L 236.21428571428572 203.22036363636363L 238.57142857142858 200.66763636363635L 240.92857142857144 191.51185454545455L 243.2857142857143 189.18603636363636L 245.64285714285717 203.86705454545455L 248 197.56465454545454L 250.35714285714286 187.32538181818182L 252.71428571428572 201.2349090909091L 255.07142857142856 200.44639999999998L 257.42857142857144 201.4618181818182L 259.7857142857143 201.09876363636363L 262.1428571428571 201.17818181818183L 264.5 193.02647272727273L 266.8571428571429 198.8069818181818L 269.2142857142857 203.39054545454545L 271.57142857142856 200.30458181818182L 273.92857142857144 198.35883636363636L 276.2857142857143 193.3101090909091L 278.6428571428571 200.56552727272728L 281 203.03883636363636L 283.35714285714283 197.22996363636364L 285.7142857142857 201.95534545454547L 288.07142857142856 196.016L 290.42857142857144 202.30705454545455L 292.7857142857143 199.91316363636363L 295.14285714285717 194.62050909090908L 297.5 201.29163636363637L 299.8571428571429 202.98778181818182L 302.2142857142857 203.5437090909091L 304.57142857142856 200.60523636363638L 306.92857142857144 195.5621818181818L 309.2857142857143 203.24305454545456L 311.64285714285717 200.15709090909093L 314 198.46661818181818L 316.3571428571429 201.70007272727273L 318.7142857142857 200.70734545454545L 321.0714285714286 200.4293818181818L 323.42857142857144 201.76814545454545L 325.78571428571433 204.6442181818182L 328.14285714285717 206L 330.5 196.35636363636365L 332.8571428571429 199.21541818181817L 335.2142857142857 156.87418181818182L 337.57142857142856 165.1506909090909L 339.92857142857144 204.1733818181818L 342.2857142857143 202.17658181818183L 344.6428571428571 199.31185454545454L 347 198.7842909090909L 349.35714285714283 202.6757818181818L 351.71428571428567 202.8573090909091L 354.07142857142856 196.1861818181818L 356.4285714285714 199.64654545454545L 358.7857142857143 198.2056727272727L 361.1428571428571 201.2178909090909L 363.5 201.79083636363637L 365.85714285714283 201.90429090909092L 368.2142857142857 200.1968L 370.57142857142856 195.17076363636363L 372.92857142857144 206L 375.2857142857143 206L 377.6428571428571 206L 380 191.4834909090909L 382.35714285714283 197.79723636363636L 384.7142857142857 198.85236363636363L 387.07142857142856 199.76L 389.42857142857144 200.03796363636363L 391.7857142857143 200.76407272727272L 394.14285714285717 201.80785454545455L 396.5 191.63098181818182L 398.85714285714283 194.41061818181817L 401.2142857142857 199.88479999999998L 403.57142857142856 152.63098181818182L 405.92857142857144 197.04843636363637L 408.2857142857143 194.4730181818182L 410.64285714285717 155.90414545454547L 413 91.60945454545454L 415.3571428571429 104.5376L 417.7142857142857 151.17876363636364L 420.07142857142856 185.1981090909091L 422.42857142857144 142.76610909090908L 424.7857142857143 125.0672L 427.14285714285717 123.74545454545455L 429.5 157.99738181818182L 431.8571428571429 53.56814545454546L 434.2142857142857 50.78850909090909L 436.5714285714286 100.02210909090908L 438.92857142857144 156.2445090909091L 441.28571428571433 180.31956363636363L 443.64285714285717 192.43650909090908L 446 193.63912727272728L 448.3571428571429 193.3328L 450.7142857142857 192.11316363636365L 453.07142857142856 197.93338181818183L 455.42857142857144 191.5629090909091L 457.7857142857143 198.7672727272727L 460.1428571428571 199.3005090909091L 462.5 201.64901818181818L 464.85714285714283 200.58821818181818L 467.21428571428567 202.43752727272727L 469.57142857142856 200.73003636363637L 471.9285714285714 189.7703272727273L 474.2857142857143 203.17498181818183L 476.6428571428571 200.48610909090908L 479 185.1810909090909L 481.35714285714283 187.88698181818182L 483.7142857142857 191.01832727272728L 486.07142857142856 192.31738181818181L 488.42857142857144 177.09745454545455L 490.7857142857143 167.91330909090908L 493.1428571428571 179.30981818181817L 495.5 186.49716363636364L 497.85714285714283 150.34487272727273L 500.2142857142857 184.27345454545454L 502.57142857142856 199.5104L 504.92857142857144 161.24785454545454L 507.2857142857143 155.49003636363636L 509.64285714285717 176.96130909090908L 512 190.30923636363636L 514.3571428571429 193.50865454545453L 516.7142857142857 201.72843636363638L 519.0714285714287 185.22647272727272L 521.4285714285714 192.03374545454545L 523.7857142857142 192.66909090909093L 526.1428571428571 180.18341818181818L 528.5 194.5013818181818L 530.8571428571429 194.6829090909091L 533.2142857142858 201.85323636363637L 535.5714285714286 196.2032L 537.9285714285713 204.49105454545455L 540.2857142857143 191.55723636363638L 542.6428571428571 180.36494545454545L 545 193.02647272727273L 547.3571428571429 186.20785454545455L 549.7142857142858 191.72741818181817L 552.0714285714287 191.4834909090909L 554.4285714285714 196.63432727272726L 556.7857142857142 200.7810909090909L 559.1428571428571 176.26923636363637L 561.5 165.78036363636363L 563.8571428571429 181.82850909090908L 566.2142857142857 160.6976L 568.5714285714286 163.93105454545454L 570.9285714285714 182.10647272727272L 573.2857142857143 130.808L 575.6428571428571 190.49643636363635L 578 202.0914909090909L 580.3571428571429 184.09192727272728L 582.7142857142858 197.50225454545455L 585.0714285714286 187.54094545454547L 587.4285714285714 192.95272727272726L 589.7857142857142 201.88727272727272L 592.1428571428572 184.33585454545454L 594.5 183.04814545454545L 596.8571428571429 182.36741818181818L 599.2142857142857 182.54327272727272L 601.5714285714287 186.38938181818182L 603.9285714285714 174.3858909090909L 606.2857142857143 183.1786181818182L 608.6428571428571 183.5133090909091L 611 184.60247272727273L 613.3571428571429 186.968L 615.7142857142858 170.00087272727274L 618.0714285714286 167.8338909090909L 620.4285714285714 203.32247272727273L 622.7857142857143 206L 625.1428571428571 128.43112727272728L 627.5 183.2637090909091L 629.8571428571429 156.8685090909091L 632.2142857142857 183.15592727272727L 634.5714285714286 183.2013090909091L 636.9285714285714 182.25963636363636L 639.2857142857142 170.18807272727273L 641.6428571428571 186.86589090909092L 644 183.77425454545454L 646.3571428571429 186.29861818181817L 648.7142857142857 184.17134545454545L 651.0714285714286 184.9655272727273L 653.4285714285713 178.1696L 655.7857142857143 180.70530909090908L 658.1428571428571 170.80072727272727L 660.5 177.99374545454546L 662.8571428571428 175.99127272727273L 665.2142857142858 173.75621818181818L 667.5714285714286 175.45803636363638L 669.9285714285714 196.91796363636365L 672.2857142857142 150.30516363636363L 674.6428571428571 167.34036363636363L 677 174.52203636363637L 679.3571428571429 132.05599999999998L 681.7142857142857 144.8309818181818L 684.0714285714286 173.60872727272726L 686.4285714285714 151.91054545454546L 688.7857142857143 194.03621818181819L 691.1428571428571 160.59549090909093L 693.5 206L 695.8571428571429 153.43650909090908L 698.2142857142858 181.01163636363637L 700.5714285714286 181.6413090909091L 702.9285714285714 182.49221818181817L 705.2857142857142 183.08785454545455L 707.6428571428572 206L 710 151.86516363636363L 712.3571428571429 172.45716363636365L 714.7142857142857 169.20669090909092L 717.0714285714287 178.22065454545455L 719.4285714285714 175.54312727272728L 721.7857142857143 177.61367272727273L 724.1428571428571 181.0173090909091L 726.5 176.80814545454547L 728.8571428571429 167.8962909090909L 731.2142857142858 167.1248L 733.5714285714286 176.62094545454545L 735.9285714285714 158.63272727272727L 738.2857142857143 151.3602909090909L 740.6428571428571 173.35345454545455L 743 206L 745.3571428571429 206L 747.7142857142857 206L 750.0714285714286 206L 752.4285714285714 206L 754.7857142857142 206L 757.1428571428571 206L 759.5 206L 761.8571428571429 206L 764.2142857142857 206L 766.5714285714286 206L 768.9285714285713 206L 771.2857142857143 206L 773.6428571428571 206L 776 206L 778.3571428571428 206L 780.7142857142858 206L 783.0714285714286 206L 785.4285714285714 206L 787.7857142857142 206L 790.1428571428571 206L 792.5 206L 794.8571428571429 206L 797.2142857142857 206L 799.5714285714286 206L 801.9285714285714 206L 804.2857142857143 206L 806.6428571428571 206L 809 206L 811.3571428571429 206L 813.7142857142858 206L 816.0714285714286 206L 818.4285714285714 206L 820.7857142857142 206L 823.1428571428572 206L 825.5 206L 827.8571428571429 206L 830.2142857142857 206L 832.5714285714287 206L 834.9285714285714 206L 837.2857142857143 206L 839.6428571428571 206L 842 206L 844.3571428571429 206L 846.7142857142858 206L 849.0714285714286 206L 851.4285714285714 206L 853.7857142857143 206L 856.1428571428571 206L 858.5 206L 860.8571428571429 206L 863.2142857142857 206L 865.5714285714286 206L 867.9285714285714 206L 870.2857142857142 206L 872.6428571428571 206L 875 206L 877.3571428571429 206L 879.7142857142857 206L 882.0714285714286 206L 884.4285714285713 206L 886.7857142857143 206L 889.1428571428571 206L 891.5 206L 893.8571428571428 206L 896.2142857142858 206L 898.5714285714286 206L 900.9285714285714 206L 903.2857142857142 206L 905.6428571428571 206L 908 206L 910.3571428571429 206L 912.7142857142857 206L 915.0714285714286 206L 917.4285714285714 206L 919.7857142857143 206L 922.1428571428571 206L 924.5 206L 926.8571428571429 206L 929.2142857142858 206L 931.5714285714286 206L 933.9285714285714 206L 936.2857142857142 206L 938.6428571428572 206L 941 206L 943.3571428571429 206L 945.7142857142857 206L 948.0714285714287 206L 950.4285714285714 206L 952.7857142857143 206L 955.1428571428571 206L 957.5 206L 959.8571428571429 206L 962.2142857142858 206L 964.5714285714286 206L 966.9285714285714 206L 969.2857142857143 206L 971.6428571428571 206L 974 206" stroke-width="2.0" fill="none" />
    
        
        
        <text x="45.0" font-family="-apple-system, system-ui, BlinkMacSystemFont, Roboto" y="50.0" dominant-baseline="middle" text-anchor="end" font-size="12" fill="#24292f">27500.0</text>
        
            
            <path stroke="#74838f" stroke-dasharray="10 6" stroke-width="0.5"  d="M 50.0 50.0 L 974.0 50.0" />
        
    
        
        
        <text x="45.0" font-family="-apple-system, system-ui, BlinkMacSystemFont, Roboto" y="81.2" dominant-baseline="middle" text-anchor="end" font-size="12" fill="#24292f">22000.0</text>
        
            
            
            <path stroke="#74838f" stroke-dasharray="10 6" stroke-width="0.5"  d="M 50.0 81.2 L 974.0 81.2" />
        
    
        
        
        <text x="45.0" font-family="-apple-system, system-ui, BlinkMacSystemFont, Roboto" y="112.4" dominant-baseline="middle" text-anchor="end" font-size="12" fill="#24292f">16500.0</text>
        
            
            
            <path stroke="#74838f" stroke-dasharray="10 6" stroke-width="0.5"  d="M 50.0 112.4 L 974.0 112.4" />
        
    
        
        
        <text x="45.0" font-family="-apple-system, system-ui, BlinkMacSystemFont, Roboto" y="143.6" dominant-baseline="middle" text-anchor="end" font-size="12" fill="#24292f">11000.0</text>
        
            
            
            <path stroke="#74838f" stroke-dasharray="10 6" stroke-width="0.5"  d="M 50.0 143.6 L 974.0 143.6" />
        
    
        
        
        <text x="45.0" font-family="-apple-system, system-ui, BlinkMacSystemFont, Roboto" y="174.8" dominant-baseline="middle" text-anchor="end" font-size="12" fill="#24292f">5500.0</text>
        
            
            
            <path stroke="#74838f" stroke-dasharray="10 6" stroke-width="0.5"  d="M 50.0 174.8 L 974.0 174.8" />
        
    
        
        
        <text x="45.0" font-family="-apple-system, system-ui, BlinkMacSystemFont, Roboto" y="206.0" dominant-baseline="middle" text-anchor="end" font-size="12" fill="#24292f">0.0</text>
        
    
    
        
        <path stroke="#74838f"  stroke-width="2.0"  d="M 87.71428571428571 206.0 L 87.71428571428571 214.0" />
        <text x="87.71428571428571" font-family="-apple-system, system-ui, BlinkMacSystemFont, Roboto" y="216.0" dominant-baseline="hanging" text-anchor="middle" font-size="12" fill="#24292f">Mar 2022</text>
    
        
        <path stroke="#74838f"  stroke-width="2.0"  d="M 160.78571428571428 206.0 L 160.78571428571428 214.0" />
        <text x="160.78571428571428" font-family="-apple-system, system-ui, BlinkMacSystemFont, Roboto" y="216.0" dominant-baseline="hanging" text-anchor="middle" font-size="12" fill="#24292f">Apr 2022</text>
    
        
        <path stroke="#74838f"  stroke-width="2.0"  d="M 231.5 206.0 L 231.5 214.0" />
        <text x="231.5" font-family="-apple-system, system-ui, BlinkMacSystemFont, Roboto" y="216.0" dominant-baseline="hanging" text-anchor="middle" font-size="12" fill="#24292f">May 2022</text>
    
        
        <path stroke="#74838f"  stroke-width="2.0"  d="M 304.57142857142856 206.0 L 304.57142857142856 214.0" />
        <text x="304.57142857142856" font-family="-apple-system, system-ui, BlinkMacSystemFont, Roboto" y="216.0" dominant-baseline="hanging" text-anchor="middle" font-size="12" fill="#24292f">Jun 2022</text>
    
        
        <path stroke="#74838f"  stroke-width="2.0"  d="M 375.2857142857143 206.0 L 375.2857142857143 214.0" />
        <text x="375.2857142857143" font-family="-apple-system, system-ui, BlinkMacSystemFont, Roboto" y="216.0" dominant-baseline="hanging" text-anchor="middle" font-size="12" fill="#24292f">Jul 2022</text>
    
        
        <path stroke="#74838f"  stroke-width="2.0"  d="M 448.3571428571429 206.0 L 448.3571428571429 214.0" />
        <text x="448.3571428571429" font-family="-apple-system, system-ui, BlinkMacSystemFont, Roboto" y="216.0" dominant-baseline="hanging" text-anchor="middle" font-size="12" fill="#24292f">Aug 2022</text>
    
        
        <path stroke="#74838f"  stroke-width="2.0"  d="M 521.4285714285714 206.0 L 521.4285714285714 214.0" />
        <text x="521.4285714285714" font-family="-apple-system, system-ui, BlinkMacSystemFont, Roboto" y="216.0" dominant-baseline="hanging" text-anchor="middle" font-size="12" fill="#24292f">Sep 2022</text>
    
        
        <path stroke="#74838f"  stroke-width="2.0"  d="M 592.1428571428572 206.0 L 592.1428571428572 214.0" />
        <text x="592.1428571428572" font-family="-apple-system, system-ui, BlinkMacSystemFont, Roboto" y="216.0" dominant-baseline="hanging" text-anchor="middle" font-size="12" fill="#24292f">Oct 2022</text>
    
        
        <path stroke="#74838f"  stroke-width="2.0"  d="M 665.2142857142858 206.0 L 665.2142857142858 214.0" />
        <text x="665.2142857142858" font-family="-apple-system, system-ui, BlinkMacSystemFont, Roboto" y="216.0" dominant-baseline="hanging" text-anchor="middle" font-size="12" fill="#24292f">Nov 2022</text>
    
        
        <path stroke="#74838f"  stroke-width="2.0"  d="M 735.9285714285714 206.0 L 735.9285714285714 214.0" />
        <text x="735.9285714285714" font-family="-apple-system, system-ui, BlinkMacSystemFont, Roboto" y="216.0" dominant-baseline="hanging" text-anchor="middle" font-size="12" fill="#24292f">Dec 2022</text>
    
        
        <path stroke="#74838f"  stroke-width="2.0"  d="M 809.0 206.0 L 809.0 214.0" />
        <text x="809.0" font-family="-apple-system, system-ui, BlinkMacSystemFont, Roboto" y="216.0" dominant-baseline="hanging" text-anchor="middle" font-size="12" fill="#24292f">Jan 2023</text>
    
        
        <path stroke="#74838f"  stroke-width="2.0"  d="M 882.0714285714286 206.0 L 882.0714285714286 214.0" />
        <text x="882.0714285714286" font-family="-apple-system, system-ui, BlinkMacSystemFont, Roboto" y="216.0" dominant-baseline="hanging" text-anchor="middle" font-size="12" fill="#24292f">Feb 2023</text>
    
        
        <path stroke="#74838f"  stroke-width="2.0"  d="M 948.0714285714287 206.0 L 948.0714285714287 214.0" />
        <text x="948.0714285714287" font-family="-apple-system, system-ui, BlinkMacSystemFont, Roboto" y="216.0" dominant-baseline="hanging" text-anchor="middle" font-size="12" fill="#24292f">Mar 2023</text>
    
    <path stroke="#74838f"   stroke-linejoin="round" stroke-width="2.0" d="M 50.0 216.0 L 50.0 206.0 L 974.0 206.0 L 974.0 216.0"  fill="none" />
    <text x="512.0" y="25.0" font-family="-apple-system, system-ui, BlinkMacSystemFont, Roboto" dominant-baseline="middle" text-anchor="middle" font-size="18" fill="#24292f">Total daily screen name changes</text>
</svg>
