<?xml version="1.0" standalone="no"?>
<svg width="1024.0" height="256.0"  viewBox="0 0 1024.0 256.0" preserveAspectRatio="xMidYMid meet" xmlns="http://www.w3.org/2000/svg">
    <path stroke="#3498db" stroke-linejoin="round" d="M 50.0 203.3394909090909 L 50 203.3394909090909L 52.97106109324759 202.32974545454545L 55.942122186495176 196.86690909090908L 58.91318327974277 195.94792727272727L 61.88424437299035 202.14254545454546L 64.85530546623794 197.35476363636363L 67.82636655948554 191.76145454545454L 70.79742765273312 179.96218181818182L 73.7684887459807 204.09396363636364L 76.73954983922829 194.17236363636363L 79.71061093247589 192.61803636363635L 82.68167202572347 195.1253818181818L 85.65273311897107 193.92843636363637L 88.62379421221866 182.2482909090909L 91.59485530546624 200.86618181818181L 94.56591639871382 201.45614545454546L 97.53697749196141 178.89003636363637L 100.50803858520901 197.33774545454546L 103.47909967845659 198.50065454545455L 106.45016077170419 200.41803636363636L 109.42122186495178 201.18385454545455L 112.39228295819936 202.26734545454545L 115.36334405144694 195.09134545454546L 118.33440514469453 198.08087272727272L 121.30546623794213 183.38850909090908L 124.27652733118971 197.47389090909093L 127.2475884244373 202.01774545454546L 130.2186495176849 194.66021818181818L 133.18971061093248 200.75272727272727L 136.16077170418006 200.00392727272728L 139.13183279742765 201.97236363636364L 142.10289389067526 204.2754909090909L 145.07395498392282 201.74545454545455L 148.04501607717043 201.01367272727273L 151.01607717041801 174.7829818181818L 153.9871382636656 195.76072727272728L 156.95819935691318 204.0032L 159.92926045016077 203.7309090909091L 162.90032154340838 197.87665454545453L 165.87138263665594 202.60770909090908L 168.84244372990355 202.6928L 171.8135048231511 197.55898181818182L 174.78456591639872 186.5141818181818L 177.7556270096463 199.26647272727274L 180.7266881028939 199.5728L 183.69774919614147 193.4802909090909L 186.66881028938906 199.10763636363635L 189.63987138263664 201.54690909090908L 192.61093247588425 201.5696L 195.58199356913184 195.06865454545454L 198.55305466237942 201.70007272727273L 201.524115755627 197.2866909090909L 204.4951768488746 172.35505454545455L 207.46623794212218 203.20901818181818L 210.4372990353698 199.6749090909091L 213.40836012861737 193.12858181818183L 216.37942122186496 196.8896L 219.35048231511254 199.78836363636364L 222.32154340836013 198.82967272727274L 225.2926045016077 204.1336727272727L 228.2636655948553 202.57934545454546L 231.2347266881029 198.9261090909091L 234.2057877813505 206L 237.17684887459808 204.128L 240.14790996784566 192.1245090909091L 243.11897106109325 206L 246.09003215434083 206L 249.06109324758845 206L 252.03215434083603 206L 255.00321543408361 197.37178181818183L 257.9742765273312 199.57847272727273L 260.9453376205788 188.9024L 263.91639871382637 195.02894545454546L 266.887459807074 191.20552727272727L 269.85852090032154 166.8128L 272.82958199356915 203.8386909090909L 275.80064308681676 198.09221818181817L 278.7717041800643 201.64334545454545L 281.7427652733119 202.2957090909091L 284.7138263665595 203.22036363636363L 287.6848874598071 200.66763636363635L 290.65594855305466 191.51185454545455L 293.6270096463022 189.18603636363636L 296.5980707395498 203.86705454545455L 299.56913183279744 197.56465454545454L 302.540192926045 187.32538181818182L 305.5112540192926 201.2349090909091L 308.48231511254016 200.44639999999998L 311.4533762057878 201.4618181818182L 314.4244372990354 201.09876363636363L 317.39549839228295 201.17818181818183L 320.36655948553056 193.02647272727273L 323.3376205787781 198.8069818181818L 326.3086816720257 203.39054545454545L 329.2797427652733 200.30458181818182L 332.2508038585209 198.35883636363636L 335.2218649517685 193.3101090909091L 338.19292604501607 200.56552727272728L 341.1639871382637 203.03883636363636L 344.13504823151123 197.22996363636364L 347.10610932475885 201.95534545454547L 350.0771704180064 196.016L 353.048231511254 202.30705454545455L 356.01929260450163 199.91316363636363L 358.9903536977492 194.62050909090908L 361.9614147909968 201.29163636363637L 364.93247588424435 202.98778181818182L 367.90353697749197 203.5437090909091L 370.8745980707396 200.60523636363638L 373.84565916398714 195.5621818181818L 376.81672025723475 203.24305454545456L 379.7877813504823 200.15709090909093L 382.7588424437299 198.46661818181818L 385.7299035369775 201.70007272727273L 388.7009646302251 200.70734545454545L 391.6720257234727 200.4293818181818L 394.64308681672026 201.76814545454545L 397.61414790996787 204.6442181818182L 400.5852090032154 206L 403.55627009646304 196.35636363636365L 406.5273311897106 199.21541818181817L 409.4983922829582 156.87418181818182L 412.4694533762058 165.1506909090909L 415.4405144694534 204.1733818181818L 418.411575562701 202.17658181818183L 421.38263665594855 199.31185454545454L 424.35369774919616 198.7842909090909L 427.32475884244377 202.6757818181818L 430.2958199356913 202.8573090909091L 433.26688102893894 196.1861818181818L 436.2379421221865 199.64654545454545L 439.2090032154341 198.2056727272727L 442.18006430868166 201.2178909090909L 445.1511254019293 201.79083636363637L 448.1221864951769 201.90429090909092L 451.09324758842445 200.1968L 454.06430868167206 195.17076363636363L 457.0353697749196 206L 460.00643086816723 206L 462.9774919614148 206L 465.9485530546624 191.4834909090909L 468.91961414791 197.79723636363636L 471.89067524115757 198.85236363636363L 474.8617363344052 199.76L 477.83279742765274 200.03796363636363L 480.80385852090035 200.76407272727272L 483.77491961414796 201.80785454545455L 486.7459807073955 191.63098181818182L 489.71704180064313 194.41061818181817L 492.6881028938907 199.88479999999998L 495.6591639871383 152.63098181818182L 498.63022508038586 197.04843636363637L 501.60128617363347 194.4730181818182L 504.572347266881 155.90414545454547L 507.54340836012864 91.60945454545454L 510.5144694533762 104.5376L 513.4855305466237 151.17876363636364L 516.4565916398714 185.1981090909091L 519.427652733119 142.76610909090908L 522.3987138263665 125.0672L 525.3697749196142 123.74545454545455L 528.3408360128617 157.99738181818182L 531.3118971061093 53.56814545454546L 534.2829581993569 50.78850909090909L 537.2540192926044 100.02210909090908L 540.2250803858522 156.2445090909091L 543.1961414790997 180.31956363636363L 546.1672025723472 192.43650909090908L 549.1382636655949 193.63912727272728L 552.1093247588424 193.3328L 555.08038585209 192.11316363636365L 558.0514469453376 197.93338181818183L 561.0225080385852 191.5629090909091L 563.9935691318328 198.7672727272727L 566.9646302250803 199.3005090909091L 569.935691318328 201.64901818181818L 572.9067524115756 200.58821818181818L 575.8778135048232 202.43752727272727L 578.8488745980708 200.73003636363637L 581.8199356913184 189.7703272727273L 584.7909967845659 203.17498181818183L 587.7620578778135 200.48610909090908L 590.7331189710611 185.1810909090909L 593.7041800643087 187.88698181818182L 596.6752411575562 191.01832727272728L 599.646302250804 192.31738181818181L 602.6173633440515 177.09745454545455L 605.5884244372991 167.91330909090908L 608.5594855305466 179.30981818181817L 611.5305466237943 186.49716363636364L 614.5016077170418 150.34487272727273L 617.4726688102894 184.27345454545454L 620.443729903537 199.5104L 623.4147909967846 161.24785454545454L 626.3858520900321 155.49003636363636L 629.3569131832797 176.96130909090908L 632.3279742765274 190.30923636363636L 635.299035369775 193.50865454545453L 638.2700964630225 201.72843636363638L 641.2411575562701 185.22647272727272L 644.2122186495177 192.03374545454545L 647.1832797427653 192.66909090909093L 650.1543408360128 180.18341818181818L 653.1254019292604 194.5013818181818L 656.096463022508 194.6829090909091L 659.0675241157556 201.85323636363637L 662.0385852090033 196.2032L 665.0096463022508 204.49105454545455L 667.9807073954984 191.55723636363638L 670.951768488746 180.36494545454545L 673.9228295819936 193.02647272727273L 676.8938906752411 186.20785454545455L 679.8649517684887 191.72741818181817L 682.8360128617363 191.4834909090909L 685.8070739549839 196.63432727272726L 688.7781350482314 200.7810909090909L 691.7491961414792 176.26923636363637L 694.7202572347267 165.78036363636363L 697.6913183279743 181.82850909090908L 700.6623794212218 160.6976L 703.6334405144695 163.93105454545454L 706.604501607717 182.10647272727272L 709.5755627009646 130.808L 712.5466237942122 190.49643636363635L 715.5176848874598 202.0914909090909L 718.4887459807073 184.09192727272728L 721.459807073955 197.50225454545455L 724.4308681672026 187.54094545454547L 727.4019292604502 192.95272727272726L 730.3729903536977 201.88727272727272L 733.3440514469454 184.33585454545454L 736.3151125401929 183.04814545454545L 739.2861736334405 182.36741818181818L 742.257234726688 182.54327272727272L 745.2282958199357 186.38938181818182L 748.1993569131832 174.3858909090909L 751.1704180064309 183.1786181818182L 754.1414790996785 183.5133090909091L 757.1125401929261 184.60247272727273L 760.0836012861736 186.968L 763.0546623794212 170.00087272727274L 766.0257234726688 167.8338909090909L 768.9967845659164 203.32247272727273L 771.9678456591639 206L 774.9389067524116 128.43112727272728L 777.9099678456591 183.2637090909091L 780.8810289389068 156.8685090909091L 783.8520900321543 183.15592727272727L 786.823151125402 183.2013090909091L 789.7942122186495 182.25963636363636L 792.7652733118971 170.18807272727273L 795.7363344051447 186.86589090909092L 798.7073954983923 183.77425454545454L 801.6784565916398 186.29861818181817L 804.6495176848875 184.17134545454545L 807.620578778135 184.9655272727273L 810.5916398713827 178.1696L 813.5627009646302 180.70530909090908L 816.5337620578779 170.80072727272727L 819.5048231511254 177.99374545454546L 822.475884244373 175.99127272727273L 825.4469453376206 173.75621818181818L 828.4180064308682 175.45803636363638L 831.3890675241157 196.91796363636365L 834.3601286173633 150.30516363636363L 837.3311897106109 167.34036363636363L 840.3022508038586 174.52203636363637L 843.273311897106 132.05599999999998L 846.2443729903538 144.8309818181818L 849.2154340836013 173.60872727272726L 852.1864951768489 151.91054545454546L 855.1575562700964 194.03621818181819L 858.1286173633441 160.59549090909093L 861.0996784565916 206L 864.0707395498392 153.43650909090908L 867.0418006430868 181.01163636363637L 870.0128617363345 181.6413090909091L 872.983922829582 182.49221818181817L 875.9549839228296 183.08785454545455L 878.9260450160772 206L 881.8971061093248 151.86516363636363L 884.8681672025723 172.45716363636365L 887.83922829582 169.20669090909092L 890.8102893890675 178.22065454545455L 893.7813504823151 175.54312727272728L 896.7524115755626 177.61367272727273L 899.7234726688104 181.0173090909091L 902.6945337620579 176.80814545454547L 905.6655948553055 167.8962909090909L 908.6366559485531 167.1248L 911.6077170418007 176.62094545454545L 914.5787781350482 158.63272727272727L 917.5498392282959 151.3602909090909L 920.5209003215434 173.35345454545455L 923.491961414791 206L 926.4630225080385 206L 929.4340836012863 206L 932.4051446945338 206L 935.3762057877814 206L 938.347266881029 206L 941.3183279742766 206L 944.2893890675241 206L 947.2604501607717 206L 950.2315112540193 206L 953.2025723472669 206L 956.1736334405144 206L 959.144694533762 206L 962.1157556270097 206L 965.0868167202573 206L 968.0578778135048 206L 971.0289389067524 206L 974 206" stroke-width="2.0" fill="none" />
    
        
        
        <text x="45.0" font-family="-apple-system, system-ui, BlinkMacSystemFont, Roboto" y="50.0" dominant-baseline="middle" text-anchor="end" font-size="12" fill="#24292f">27500.0</text>
        
            
            <path stroke="#74838f" stroke-dasharray="10 6" stroke-width="0.5"  d="M 50.0 50.0 L 974.0 50.0" />
        
    
        
        
        <text x="45.0" font-family="-apple-system, system-ui, BlinkMacSystemFont, Roboto" y="81.2" dominant-baseline="middle" text-anchor="end" font-size="12" fill="#24292f">22000.0</text>
        
            
            
            <path stroke="#74838f" stroke-dasharray="10 6" stroke-width="0.5"  d="M 50.0 81.2 L 974.0 81.2" />
        
    
        
        
        <text x="45.0" font-family="-apple-system, system-ui, BlinkMacSystemFont, Roboto" y="112.4" dominant-baseline="middle" text-anchor="end" font-size="12" fill="#24292f">16500.0</text>
        
            
            
            <path stroke="#74838f" stroke-dasharray="10 6" stroke-width="0.5"  d="M 50.0 112.4 L 974.0 112.4" />
        
    
        
        
        <text x="45.0" font-family="-apple-system, system-ui, BlinkMacSystemFont, Roboto" y="143.6" dominant-baseline="middle" text-anchor="end" font-size="12" fill="#24292f">11000.0</text>
        
            
            
            <path stroke="#74838f" stroke-dasharray="10 6" stroke-width="0.5"  d="M 50.0 143.6 L 974.0 143.6" />
        
    
        
        
        <text x="45.0" font-family="-apple-system, system-ui, BlinkMacSystemFont, Roboto" y="174.8" dominant-baseline="middle" text-anchor="end" font-size="12" fill="#24292f">5500.0</text>
        
            
            
            <path stroke="#74838f" stroke-dasharray="10 6" stroke-width="0.5"  d="M 50.0 174.8 L 974.0 174.8" />
        
    
        
        
        <text x="45.0" font-family="-apple-system, system-ui, BlinkMacSystemFont, Roboto" y="206.0" dominant-baseline="middle" text-anchor="end" font-size="12" fill="#24292f">0.0</text>
        
    
    
        
        <path stroke="#74838f"  stroke-width="2.0"  d="M 97.53697749196141 206.0 L 97.53697749196141 214.0" />
        <text x="97.53697749196141" font-family="-apple-system, system-ui, BlinkMacSystemFont, Roboto" y="216.0" dominant-baseline="hanging" text-anchor="middle" font-size="12" fill="#24292f">Mar 2022</text>
    
        
        <path stroke="#74838f"  stroke-width="2.0"  d="M 189.63987138263664 206.0 L 189.63987138263664 214.0" />
        <text x="189.63987138263664" font-family="-apple-system, system-ui, BlinkMacSystemFont, Roboto" y="216.0" dominant-baseline="hanging" text-anchor="middle" font-size="12" fill="#24292f">Apr 2022</text>
    
        
        <path stroke="#74838f"  stroke-width="2.0"  d="M 278.7717041800643 206.0 L 278.7717041800643 214.0" />
        <text x="278.7717041800643" font-family="-apple-system, system-ui, BlinkMacSystemFont, Roboto" y="216.0" dominant-baseline="hanging" text-anchor="middle" font-size="12" fill="#24292f">May 2022</text>
    
        
        <path stroke="#74838f"  stroke-width="2.0"  d="M 370.8745980707396 206.0 L 370.8745980707396 214.0" />
        <text x="370.8745980707396" font-family="-apple-system, system-ui, BlinkMacSystemFont, Roboto" y="216.0" dominant-baseline="hanging" text-anchor="middle" font-size="12" fill="#24292f">Jun 2022</text>
    
        
        <path stroke="#74838f"  stroke-width="2.0"  d="M 460.00643086816723 206.0 L 460.00643086816723 214.0" />
        <text x="460.00643086816723" font-family="-apple-system, system-ui, BlinkMacSystemFont, Roboto" y="216.0" dominant-baseline="hanging" text-anchor="middle" font-size="12" fill="#24292f">Jul 2022</text>
    
        
        <path stroke="#74838f"  stroke-width="2.0"  d="M 552.1093247588424 206.0 L 552.1093247588424 214.0" />
        <text x="552.1093247588424" font-family="-apple-system, system-ui, BlinkMacSystemFont, Roboto" y="216.0" dominant-baseline="hanging" text-anchor="middle" font-size="12" fill="#24292f">Aug 2022</text>
    
        
        <path stroke="#74838f"  stroke-width="2.0"  d="M 644.2122186495177 206.0 L 644.2122186495177 214.0" />
        <text x="644.2122186495177" font-family="-apple-system, system-ui, BlinkMacSystemFont, Roboto" y="216.0" dominant-baseline="hanging" text-anchor="middle" font-size="12" fill="#24292f">Sep 2022</text>
    
        
        <path stroke="#74838f"  stroke-width="2.0"  d="M 733.3440514469454 206.0 L 733.3440514469454 214.0" />
        <text x="733.3440514469454" font-family="-apple-system, system-ui, BlinkMacSystemFont, Roboto" y="216.0" dominant-baseline="hanging" text-anchor="middle" font-size="12" fill="#24292f">Oct 2022</text>
    
        
        <path stroke="#74838f"  stroke-width="2.0"  d="M 825.4469453376206 206.0 L 825.4469453376206 214.0" />
        <text x="825.4469453376206" font-family="-apple-system, system-ui, BlinkMacSystemFont, Roboto" y="216.0" dominant-baseline="hanging" text-anchor="middle" font-size="12" fill="#24292f">Nov 2022</text>
    
        
        <path stroke="#74838f"  stroke-width="2.0"  d="M 914.5787781350482 206.0 L 914.5787781350482 214.0" />
        <text x="914.5787781350482" font-family="-apple-system, system-ui, BlinkMacSystemFont, Roboto" y="216.0" dominant-baseline="hanging" text-anchor="middle" font-size="12" fill="#24292f">Dec 2022</text>
    
    <path stroke="#74838f"   stroke-linejoin="round" stroke-width="2.0" d="M 50.0 216.0 L 50.0 206.0 L 974.0 206.0 L 974.0 216.0"  fill="none" />
    <text x="512.0" y="25.0" font-family="-apple-system, system-ui, BlinkMacSystemFont, Roboto" dominant-baseline="middle" text-anchor="middle" font-size="18" fill="#24292f">Total daily screen name changes</text>
</svg>
