<?xml version="1.0" standalone="no"?>
<svg width="1024.0" height="256.0"  viewBox="0 0 1024.0 256.0" preserveAspectRatio="xMidYMid meet" xmlns="http://www.w3.org/2000/svg">
    <path stroke="#3498db" stroke-linejoin="round" d="M 50.0 203.3394909090909 L 50 203.3394909090909L 52.43157894736842 202.32974545454545L 54.863157894736844 196.86690909090908L 57.294736842105266 195.94792727272727L 59.72631578947369 202.14254545454546L 62.1578947368421 197.35476363636363L 64.58947368421053 191.76145454545454L 67.02105263157895 179.96218181818182L 69.45263157894738 204.09396363636364L 71.8842105263158 194.17236363636363L 74.3157894736842 192.61803636363635L 76.74736842105263 195.1253818181818L 79.17894736842105 193.92843636363637L 81.61052631578947 182.2482909090909L 84.0421052631579 200.86618181818181L 86.47368421052632 201.45614545454546L 88.90526315789474 178.89003636363637L 91.33684210526316 197.33774545454546L 93.76842105263158 198.50065454545455L 96.2 200.41803636363636L 98.63157894736841 201.18385454545455L 101.06315789473683 202.26734545454545L 103.49473684210525 195.09134545454546L 105.92631578947368 198.08087272727272L 108.3578947368421 183.38850909090908L 110.78947368421052 197.47389090909093L 113.22105263157894 202.01774545454546L 115.65263157894736 194.66021818181818L 118.08421052631579 200.75272727272727L 120.51578947368421 200.00392727272728L 122.94736842105263 201.97236363636364L 125.37894736842105 204.2754909090909L 127.81052631578947 201.74545454545455L 130.2421052631579 201.01367272727273L 132.67368421052632 174.7829818181818L 135.10526315789474 195.76072727272728L 137.53684210526316 204.0032L 139.96842105263158 203.7309090909091L 142.4 197.87665454545453L 144.83157894736843 202.60770909090908L 147.26315789473682 202.6928L 149.69473684210527 197.55898181818182L 152.12631578947367 186.5141818181818L 154.55789473684212 199.26647272727274L 156.9894736842105 199.5728L 159.42105263157896 193.4802909090909L 161.85263157894735 199.10763636363635L 164.2842105263158 201.54690909090908L 166.7157894736842 201.5696L 169.14736842105265 195.06865454545454L 171.57894736842104 201.70007272727273L 174.0105263157895 197.2866909090909L 176.44210526315788 172.35505454545455L 178.8736842105263 203.20901818181818L 181.30526315789473 199.6749090909091L 183.73684210526315 193.12858181818183L 186.16842105263157 196.8896L 188.6 199.78836363636364L 191.03157894736842 198.82967272727274L 193.46315789473684 204.1336727272727L 195.89473684210526 202.57934545454546L 198.32631578947368 198.9261090909091L 200.7578947368421 206L 203.18947368421053 204.128L 205.62105263157895 192.1245090909091L 208.05263157894737 206L 210.4842105263158 206L 212.9157894736842 206L 215.34736842105264 206L 217.77894736842106 197.37178181818183L 220.21052631578945 199.57847272727273L 222.6421052631579 188.9024L 225.07368421052632 195.02894545454546L 227.50526315789472 191.20552727272727L 229.93684210526314 166.8128L 232.3684210526316 203.8386909090909L 234.8 198.09221818181817L 237.2315789473684 201.64334545454545L 239.66315789473686 202.2957090909091L 242.09473684210528 203.22036363636363L 244.52631578947367 200.66763636363635L 246.9578947368421 191.51185454545455L 249.38947368421054 189.18603636363636L 251.82105263157897 203.86705454545455L 254.25263157894736 197.56465454545454L 256.6842105263158 187.32538181818182L 259.11578947368423 201.2349090909091L 261.5473684210526 200.44639999999998L 263.978947368421 201.4618181818182L 266.41052631578947 201.09876363636363L 268.8421052631579 201.17818181818183L 271.2736842105263 193.02647272727273L 273.7052631578947 198.8069818181818L 276.13684210526316 203.39054545454545L 278.5684210526316 200.30458181818182L 281 198.35883636363636L 283.4315789473684 193.3101090909091L 285.86315789473684 200.56552727272728L 288.2947368421053 203.03883636363636L 290.7263157894737 197.22996363636364L 293.1578947368421 201.95534545454547L 295.58947368421053 196.016L 298.021052631579 202.30705454545455L 300.4526315789474 199.91316363636363L 302.88421052631577 194.62050909090908L 305.3157894736843 201.29163636363637L 307.7473684210526 202.98778181818182L 310.17894736842106 203.5437090909091L 312.61052631578946 200.60523636363638L 315.0421052631579 195.5621818181818L 317.4736842105263 203.24305454545456L 319.90526315789475 200.15709090909093L 322.33684210526314 198.46661818181818L 324.76842105263154 201.70007272727273L 327.2 200.70734545454545L 329.63157894736844 200.4293818181818L 332.06315789473683 201.76814545454545L 334.4947368421053 204.6442181818182L 336.9263157894737 206L 339.35789473684207 196.35636363636365L 341.7894736842105 199.21541818181817L 344.2210526315789 156.87418181818182L 346.65263157894736 165.1506909090909L 349.0842105263158 204.1733818181818L 351.5157894736842 202.17658181818183L 353.94736842105266 199.31185454545454L 356.37894736842105 198.7842909090909L 358.81052631578945 202.6757818181818L 361.2421052631579 202.8573090909091L 363.6736842105263 196.1861818181818L 366.10526315789474 199.64654545454545L 368.5368421052632 198.2056727272727L 370.9684210526316 201.2178909090909L 373.4 201.79083636363637L 375.8315789473684 201.90429090909092L 378.2631578947368 200.1968L 380.69473684210527 195.17076363636363L 383.1263157894737 206L 385.5578947368421 206L 387.98947368421057 206L 390.4210526315789 191.4834909090909L 392.85263157894735 197.79723636363636L 395.2842105263158 198.85236363636363L 397.7157894736842 199.76L 400.14736842105265 200.03796363636363L 402.5789473684211 200.76407272727272L 405.01052631578943 201.80785454545455L 407.4421052631579 191.63098181818182L 409.8736842105263 194.41061818181817L 412.30526315789473 199.88479999999998L 414.7368421052632 152.63098181818182L 417.1684210526316 197.04843636363637L 419.6 194.4730181818182L 422.0315789473684 155.90414545454547L 424.4631578947368 91.60945454545454L 426.89473684210526 104.5376L 429.3263157894737 151.17876363636364L 431.7578947368421 185.1981090909091L 434.18947368421055 142.76610909090908L 436.62105263157895 125.0672L 439.05263157894734 123.74545454545455L 441.4842105263158 157.99738181818182L 443.9157894736842 53.56814545454546L 446.34736842105264 50.78850909090909L 448.7789473684211 100.02210909090908L 451.2105263157895 156.2445090909091L 453.64210526315793 180.31956363636363L 456.0736842105263 192.43650909090908L 458.5052631578947 193.63912727272728L 460.93684210526317 193.3328L 463.36842105263156 192.11316363636365L 465.8 197.93338181818183L 468.23157894736846 191.5629090909091L 470.66315789473686 198.7672727272727L 473.09473684210525 199.3005090909091L 475.5263157894737 201.64901818181818L 477.9578947368421 200.58821818181818L 480.38947368421054 202.43752727272727L 482.82105263157894 200.73003636363637L 485.2526315789474 189.7703272727273L 487.6842105263158 203.17498181818183L 490.1157894736842 200.48610909090908L 492.5473684210526 185.1810909090909L 494.9789473684211 187.88698181818182L 497.41052631578947 191.01832727272728L 499.8421052631579 192.31738181818181L 502.2736842105263 177.09745454545455L 504.7052631578947 167.91330909090908L 507.13684210526316 179.30981818181817L 509.56842105263155 186.49716363636364L 512 150.34487272727273L 514.4315789473685 184.27345454545454L 516.8631578947368 199.5104L 519.2947368421053 161.24785454545454L 521.7263157894737 155.49003636363636L 524.1578947368421 176.96130909090908L 526.5894736842106 190.30923636363636L 529.0210526315789 193.50865454545453L 531.4526315789474 201.72843636363638L 533.8842105263158 185.22647272727272L 536.3157894736842 192.03374545454545L 538.7473684210527 192.66909090909093L 541.1789473684211 180.18341818181818L 543.6105263157895 194.5013818181818L 546.042105263158 194.6829090909091L 548.4736842105262 201.85323636363637L 550.9052631578948 196.2032L 553.3368421052633 204.49105454545455L 555.7684210526315 191.55723636363638L 558.2 180.36494545454545L 560.6315789473686 193.02647272727273L 563.0631578947368 186.20785454545455L 565.4947368421052 191.72741818181817L 567.9263157894736 191.4834909090909L 570.3578947368421 196.63432727272726L 572.7894736842105 200.7810909090909L 575.2210526315789 176.26923636363637L 577.6526315789474 165.78036363636363L 580.0842105263158 181.82850909090908L 582.5157894736842 160.6976L 584.9473684210526 163.93105454545454L 587.3789473684211 182.10647272727272L 589.8105263157895 130.808L 592.2421052631579 190.49643636363635L 594.6736842105263 202.0914909090909L 597.1052631578947 184.09192727272728L 599.5368421052631 197.50225454545455L 601.9684210526316 187.54094545454547L 604.4 192.95272727272726L 606.8315789473684 201.88727272727272L 609.2631578947369 184.33585454545454L 611.6947368421053 183.04814545454545L 614.1263157894737 182.36741818181818L 616.5578947368422 182.54327272727272L 618.9894736842106 186.38938181818182L 621.421052631579 174.3858909090909L 623.8526315789474 183.1786181818182L 626.2842105263159 183.5133090909091L 628.7157894736841 184.60247272727273L 631.1473684210526 186.968L 633.578947368421 170.00087272727274L 636.0105263157894 167.8338909090909L 638.4421052631578 203.32247272727273L 640.8736842105263 206L 643.3052631578947 128.43112727272728L 645.7368421052631 183.2637090909091L 648.1684210526316 156.8685090909091L 650.6 183.15592727272727L 653.0315789473684 183.2013090909091L 655.4631578947369 182.25963636363636L 657.8947368421053 170.18807272727273L 660.3263157894737 186.86589090909092L 662.7578947368421 183.77425454545454L 665.1894736842105 186.29861818181817L 667.6210526315789 184.17134545454545L 670.0526315789474 184.9655272727273L 672.4842105263158 178.1696L 674.9157894736842 180.70530909090908L 677.3473684210526 170.80072727272727L 679.7789473684211 177.99374545454546L 682.2105263157895 175.99127272727273L 684.6421052631579 173.75621818181818L 687.0736842105264 175.45803636363638L 689.5052631578948 196.91796363636365L 691.9368421052632 150.30516363636363L 694.3684210526316 167.34036363636363L 696.8 174.52203636363637L 699.2315789473683 132.05599999999998L 701.6631578947369 144.8309818181818L 704.0947368421052 173.60872727272726L 706.5263157894736 151.91054545454546L 708.9578947368421 194.03621818181819L 711.3894736842105 160.59549090909093L 713.8210526315789 206L 716.2526315789474 153.43650909090908L 718.6842105263158 181.01163636363637L 721.1157894736842 181.6413090909091L 723.5473684210526 182.49221818181817L 725.9789473684211 183.08785454545455L 728.4105263157894 206L 730.8421052631578 151.86516363636363L 733.2736842105263 172.45716363636365L 735.7052631578947 169.20669090909092L 738.1368421052631 178.22065454545455L 740.5684210526316 175.54312727272728L 743 177.61367272727273L 745.4315789473684 181.0173090909091L 747.8631578947369 176.80814545454547L 750.2947368421053 167.8962909090909L 752.7263157894737 167.1248L 755.1578947368422 176.62094545454545L 757.5894736842106 158.63272727272727L 760.0210526315789 151.3602909090909L 762.4526315789474 173.35345454545455L 764.8842105263158 206L 767.3157894736842 206L 769.7473684210526 206L 772.1789473684211 206L 774.6105263157895 206L 777.0421052631579 206L 779.4736842105264 206L 781.9052631578948 206L 784.3368421052631 206L 786.7684210526317 206L 789.2 206L 791.6315789473684 206L 794.0631578947368 206L 796.4947368421052 206L 798.9263157894736 206L 801.3578947368421 206L 803.7894736842105 206L 806.2210526315789 206L 808.6526315789474 206L 811.0842105263158 206L 813.5157894736842 206L 815.9473684210526 206L 818.3789473684211 206L 820.8105263157895 206L 823.2421052631579 206L 825.6736842105263 206L 828.1052631578947 206L 830.5368421052631 206L 832.9684210526316 206L 835.4 206L 837.8315789473684 206L 840.2631578947369 206L 842.6947368421053 206L 845.1263157894737 206L 847.5578947368422 206L 849.9894736842106 206L 852.421052631579 206L 854.8526315789474 206L 857.2842105263159 206L 859.7157894736841 206L 862.1473684210526 206L 864.578947368421 206L 867.0105263157894 206L 869.4421052631578 206L 871.8736842105263 206L 874.3052631578947 206L 876.7368421052631 206L 879.1684210526316 206L 881.6 206L 884.0315789473684 206L 886.4631578947369 206L 888.8947368421053 206L 891.3263157894737 206L 893.7578947368421 206L 896.1894736842105 206L 898.6210526315789 206L 901.0526315789474 206L 903.4842105263158 206L 905.9157894736842 206L 908.3473684210526 206L 910.7789473684211 206L 913.2105263157895 206L 915.6421052631579 206L 918.0736842105264 206L 920.5052631578948 206L 922.9368421052632 206L 925.3684210526316 206L 927.8 206L 930.2315789473683 206L 932.6631578947369 206L 935.0947368421052 206L 937.5263157894736 206L 939.9578947368421 206L 942.3894736842105 206L 944.8210526315789 206L 947.2526315789474 206L 949.6842105263158 206L 952.1157894736842 206L 954.5473684210526 206L 956.9789473684211 206L 959.4105263157894 206L 961.8421052631578 206L 964.2736842105263 206L 966.7052631578947 206L 969.1368421052631 206L 971.5684210526316 206L 974 206" stroke-width="2.0" fill="none" />
    
        
        
        <text x="45.0" font-family="-apple-system, system-ui, BlinkMacSystemFont, Roboto" y="50.0" dominant-baseline="middle" text-anchor="end" font-size="12" fill="#24292f">27500.0</text>
        
            
            <path stroke="#74838f" stroke-dasharray="10 6" stroke-width="0.5"  d="M 50.0 50.0 L 974.0 50.0" />
        
    
        
        
        <text x="45.0" font-family="-apple-system, system-ui, BlinkMacSystemFont, Roboto" y="81.2" dominant-baseline="middle" text-anchor="end" font-size="12" fill="#24292f">22000.0</text>
        
            
            
            <path stroke="#74838f" stroke-dasharray="10 6" stroke-width="0.5"  d="M 50.0 81.2 L 974.0 81.2" />
        
    
        
        
        <text x="45.0" font-family="-apple-system, system-ui, BlinkMacSystemFont, Roboto" y="112.4" dominant-baseline="middle" text-anchor="end" font-size="12" fill="#24292f">16500.0</text>
        
            
            
            <path stroke="#74838f" stroke-dasharray="10 6" stroke-width="0.5"  d="M 50.0 112.4 L 974.0 112.4" />
        
    
        
        
        <text x="45.0" font-family="-apple-system, system-ui, BlinkMacSystemFont, Roboto" y="143.6" dominant-baseline="middle" text-anchor="end" font-size="12" fill="#24292f">11000.0</text>
        
            
            
            <path stroke="#74838f" stroke-dasharray="10 6" stroke-width="0.5"  d="M 50.0 143.6 L 974.0 143.6" />
        
    
        
        
        <text x="45.0" font-family="-apple-system, system-ui, BlinkMacSystemFont, Roboto" y="174.8" dominant-baseline="middle" text-anchor="end" font-size="12" fill="#24292f">5500.0</text>
        
            
            
            <path stroke="#74838f" stroke-dasharray="10 6" stroke-width="0.5"  d="M 50.0 174.8 L 974.0 174.8" />
        
    
        
        
        <text x="45.0" font-family="-apple-system, system-ui, BlinkMacSystemFont, Roboto" y="206.0" dominant-baseline="middle" text-anchor="end" font-size="12" fill="#24292f">0.0</text>
        
    
    
        
        <path stroke="#74838f"  stroke-width="2.0"  d="M 88.90526315789474 206.0 L 88.90526315789474 214.0" />
        <text x="88.90526315789474" font-family="-apple-system, system-ui, BlinkMacSystemFont, Roboto" y="216.0" dominant-baseline="hanging" text-anchor="middle" font-size="12" fill="#24292f">Mar 2022</text>
    
        
        <path stroke="#74838f"  stroke-width="2.0"  d="M 164.2842105263158 206.0 L 164.2842105263158 214.0" />
        <text x="164.2842105263158" font-family="-apple-system, system-ui, BlinkMacSystemFont, Roboto" y="216.0" dominant-baseline="hanging" text-anchor="middle" font-size="12" fill="#24292f">Apr 2022</text>
    
        
        <path stroke="#74838f"  stroke-width="2.0"  d="M 237.2315789473684 206.0 L 237.2315789473684 214.0" />
        <text x="237.2315789473684" font-family="-apple-system, system-ui, BlinkMacSystemFont, Roboto" y="216.0" dominant-baseline="hanging" text-anchor="middle" font-size="12" fill="#24292f">May 2022</text>
    
        
        <path stroke="#74838f"  stroke-width="2.0"  d="M 312.61052631578946 206.0 L 312.61052631578946 214.0" />
        <text x="312.61052631578946" font-family="-apple-system, system-ui, BlinkMacSystemFont, Roboto" y="216.0" dominant-baseline="hanging" text-anchor="middle" font-size="12" fill="#24292f">Jun 2022</text>
    
        
        <path stroke="#74838f"  stroke-width="2.0"  d="M 385.5578947368421 206.0 L 385.5578947368421 214.0" />
        <text x="385.5578947368421" font-family="-apple-system, system-ui, BlinkMacSystemFont, Roboto" y="216.0" dominant-baseline="hanging" text-anchor="middle" font-size="12" fill="#24292f">Jul 2022</text>
    
        
        <path stroke="#74838f"  stroke-width="2.0"  d="M 460.93684210526317 206.0 L 460.93684210526317 214.0" />
        <text x="460.93684210526317" font-family="-apple-system, system-ui, BlinkMacSystemFont, Roboto" y="216.0" dominant-baseline="hanging" text-anchor="middle" font-size="12" fill="#24292f">Aug 2022</text>
    
        
        <path stroke="#74838f"  stroke-width="2.0"  d="M 536.3157894736842 206.0 L 536.3157894736842 214.0" />
        <text x="536.3157894736842" font-family="-apple-system, system-ui, BlinkMacSystemFont, Roboto" y="216.0" dominant-baseline="hanging" text-anchor="middle" font-size="12" fill="#24292f">Sep 2022</text>
    
        
        <path stroke="#74838f"  stroke-width="2.0"  d="M 609.2631578947369 206.0 L 609.2631578947369 214.0" />
        <text x="609.2631578947369" font-family="-apple-system, system-ui, BlinkMacSystemFont, Roboto" y="216.0" dominant-baseline="hanging" text-anchor="middle" font-size="12" fill="#24292f">Oct 2022</text>
    
        
        <path stroke="#74838f"  stroke-width="2.0"  d="M 684.6421052631579 206.0 L 684.6421052631579 214.0" />
        <text x="684.6421052631579" font-family="-apple-system, system-ui, BlinkMacSystemFont, Roboto" y="216.0" dominant-baseline="hanging" text-anchor="middle" font-size="12" fill="#24292f">Nov 2022</text>
    
        
        <path stroke="#74838f"  stroke-width="2.0"  d="M 757.5894736842106 206.0 L 757.5894736842106 214.0" />
        <text x="757.5894736842106" font-family="-apple-system, system-ui, BlinkMacSystemFont, Roboto" y="216.0" dominant-baseline="hanging" text-anchor="middle" font-size="12" fill="#24292f">Dec 2022</text>
    
        
        <path stroke="#74838f"  stroke-width="2.0"  d="M 832.9684210526316 206.0 L 832.9684210526316 214.0" />
        <text x="832.9684210526316" font-family="-apple-system, system-ui, BlinkMacSystemFont, Roboto" y="216.0" dominant-baseline="hanging" text-anchor="middle" font-size="12" fill="#24292f">Jan 2023</text>
    
        
        <path stroke="#74838f"  stroke-width="2.0"  d="M 908.3473684210526 206.0 L 908.3473684210526 214.0" />
        <text x="908.3473684210526" font-family="-apple-system, system-ui, BlinkMacSystemFont, Roboto" y="216.0" dominant-baseline="hanging" text-anchor="middle" font-size="12" fill="#24292f">Feb 2023</text>
    
    <path stroke="#74838f"   stroke-linejoin="round" stroke-width="2.0" d="M 50.0 216.0 L 50.0 206.0 L 974.0 206.0 L 974.0 216.0"  fill="none" />
    <text x="512.0" y="25.0" font-family="-apple-system, system-ui, BlinkMacSystemFont, Roboto" dominant-baseline="middle" text-anchor="middle" font-size="18" fill="#24292f">Total daily screen name changes</text>
</svg>
