<?xml version="1.0" standalone="no"?>
<svg width="1024.0" height="256.0"  viewBox="0 0 1024.0 256.0" preserveAspectRatio="xMidYMid meet" xmlns="http://www.w3.org/2000/svg">
    <path stroke="#3498db" stroke-linejoin="round" d="M 50.0 203.3394909090909 L 50 203.3394909090909L 52.45744680851064 202.32974545454545L 54.91489361702128 196.86690909090908L 57.37234042553192 195.94792727272727L 59.829787234042556 202.14254545454546L 62.287234042553195 197.35476363636363L 64.74468085106383 191.76145454545454L 67.20212765957447 179.96218181818182L 69.65957446808511 204.09396363636364L 72.11702127659575 194.17236363636363L 74.57446808510639 192.61803636363635L 77.03191489361703 195.1253818181818L 79.48936170212765 193.92843636363637L 81.9468085106383 182.2482909090909L 84.40425531914894 200.86618181818181L 86.86170212765958 201.45614545454546L 89.31914893617022 178.89003636363637L 91.77659574468086 197.33774545454546L 94.23404255319149 198.50065454545455L 96.69148936170212 200.41803636363636L 99.14893617021276 201.18385454545455L 101.6063829787234 202.26734545454545L 104.06382978723404 195.09134545454546L 106.52127659574468 198.08087272727272L 108.9787234042553 183.38850909090908L 111.43617021276596 197.47389090909093L 113.8936170212766 202.01774545454546L 116.35106382978724 194.66021818181818L 118.80851063829788 200.75272727272727L 121.26595744680851 200.00392727272728L 123.72340425531915 201.97236363636364L 126.18085106382978 204.2754909090909L 128.63829787234044 201.74545454545455L 131.09574468085106 201.01367272727273L 133.55319148936172 174.7829818181818L 136.01063829787233 195.76072727272728L 138.46808510638297 204.0032L 140.9255319148936 203.7309090909091L 143.38297872340425 197.87665454545453L 145.8404255319149 202.60770909090908L 148.29787234042553 202.6928L 150.75531914893617 197.55898181818182L 153.2127659574468 186.5141818181818L 155.67021276595744 199.26647272727274L 158.12765957446808 199.5728L 160.58510638297872 193.4802909090909L 163.04255319148936 199.10763636363635L 165.5 201.54690909090908L 167.9574468085106 201.5696L 170.41489361702128 195.06865454545454L 172.87234042553192 201.70007272727273L 175.32978723404256 197.2866909090909L 177.7872340425532 172.35505454545455L 180.24468085106383 203.20901818181818L 182.70212765957447 199.6749090909091L 185.1595744680851 193.12858181818183L 187.61702127659575 196.8896L 190.0744680851064 199.78836363636364L 192.53191489361703 198.82967272727274L 194.98936170212764 204.1336727272727L 197.4468085106383 202.57934545454546L 199.90425531914894 198.9261090909091L 202.36170212765956 206L 204.81914893617022 204.128L 207.27659574468086 192.1245090909091L 209.7340425531915 206L 212.19148936170214 206L 214.64893617021275 206L 217.10638297872342 206L 219.56382978723406 197.37178181818183L 222.02127659574467 199.57847272727273L 224.47872340425533 188.9024L 226.93617021276594 195.02894545454546L 229.39361702127658 191.20552727272727L 231.85106382978725 166.8128L 234.30851063829786 203.8386909090909L 236.7659574468085 198.09221818181817L 239.22340425531914 201.64334545454545L 241.68085106382978 202.2957090909091L 244.13829787234044 203.22036363636363L 246.59574468085106 200.66763636363635L 249.0531914893617 191.51185454545455L 251.51063829787236 189.18603636363636L 253.96808510638297 203.86705454545455L 256.4255319148936 197.56465454545454L 258.8829787234042 187.32538181818182L 261.3404255319149 201.2349090909091L 263.79787234042556 200.44639999999998L 266.25531914893617 201.4618181818182L 268.7127659574468 201.09876363636363L 271.17021276595744 201.17818181818183L 273.6276595744681 193.02647272727273L 276.0851063829787 198.8069818181818L 278.54255319148933 203.39054545454545L 281 200.30458181818182L 283.45744680851067 198.35883636363636L 285.9148936170212 193.3101090909091L 288.3723404255319 200.56552727272728L 290.82978723404256 203.03883636363636L 293.28723404255317 197.22996363636364L 295.74468085106383 201.95534545454547L 298.20212765957444 196.016L 300.6595744680851 202.30705454545455L 303.1170212765958 199.91316363636363L 305.5744680851064 194.62050909090908L 308.031914893617 201.29163636363637L 310.48936170212767 202.98778181818182L 312.9468085106383 203.5437090909091L 315.40425531914894 200.60523636363638L 317.86170212765956 195.5621818181818L 320.3191489361702 203.24305454545456L 322.7765957446809 200.15709090909093L 325.2340425531915 198.46661818181818L 327.6914893617021 201.70007272727273L 330.1489361702128 200.70734545454545L 332.6063829787234 200.4293818181818L 335.06382978723406 201.76814545454545L 337.5212765957447 204.6442181818182L 339.9787234042553 206L 342.43617021276594 196.35636363636365L 344.8936170212766 199.21541818181817L 347.3510638297872 156.87418181818182L 349.8085106382979 165.1506909090909L 352.2659574468085 204.1733818181818L 354.7234042553191 202.17658181818183L 357.1808510638298 199.31185454545454L 359.63829787234044 198.7842909090909L 362.09574468085106 202.6757818181818L 364.5531914893617 202.8573090909091L 367.01063829787233 196.1861818181818L 369.468085106383 199.64654545454545L 371.9255319148936 198.2056727272727L 374.3829787234043 201.2178909090909L 376.8404255319149 201.79083636363637L 379.2978723404255 201.90429090909092L 381.75531914893617 200.1968L 384.21276595744683 195.17076363636363L 386.67021276595744 206L 389.1276595744681 206L 391.5851063829787 206L 394.04255319148933 191.4834909090909L 396.5 197.79723636363636L 398.95744680851067 198.85236363636363L 401.4148936170213 199.76L 403.8723404255319 200.03796363636363L 406.32978723404256 200.76407272727272L 408.78723404255317 201.80785454545455L 411.24468085106383 191.63098181818182L 413.7021276595745 194.41061818181817L 416.1595744680851 199.88479999999998L 418.6170212765957 152.63098181818182L 421.0744680851064 197.04843636363637L 423.531914893617 194.4730181818182L 425.98936170212767 155.90414545454547L 428.4468085106383 91.60945454545454L 430.90425531914894 104.5376L 433.36170212765956 151.17876363636364L 435.8191489361702 185.1981090909091L 438.2765957446809 142.76610909090908L 440.7340425531915 125.0672L 443.1914893617021 123.74545454545455L 445.6489361702128 157.99738181818182L 448.1063829787234 53.56814545454546L 450.56382978723406 50.78850909090909L 453.0212765957447 100.02210909090908L 455.4787234042553 156.2445090909091L 457.93617021276594 180.31956363636363L 460.3936170212766 192.43650909090908L 462.8510638297872 193.63912727272728L 465.3085106382979 193.3328L 467.7659574468085 192.11316363636365L 470.2234042553191 197.93338181818183L 472.6808510638298 191.5629090909091L 475.13829787234044 198.7672727272727L 477.59574468085106 199.3005090909091L 480.0531914893617 201.64901818181818L 482.51063829787233 200.58821818181818L 484.968085106383 202.43752727272727L 487.4255319148936 200.73003636363637L 489.8829787234043 189.7703272727273L 492.3404255319149 203.17498181818183L 494.7978723404255 200.48610909090908L 497.25531914893617 185.1810909090909L 499.71276595744683 187.88698181818182L 502.17021276595744 191.01832727272728L 504.6276595744681 192.31738181818181L 507.0851063829787 177.09745454545455L 509.54255319148933 167.91330909090908L 512 179.30981818181817L 514.4574468085107 186.49716363636364L 516.9148936170213 150.34487272727273L 519.3723404255319 184.27345454545454L 521.8297872340424 199.5104L 524.2872340425532 161.24785454545454L 526.7446808510638 155.49003636363636L 529.2021276595744 176.96130909090908L 531.6595744680851 190.30923636363636L 534.1170212765958 193.50865454545453L 536.5744680851063 201.72843636363638L 539.0319148936171 185.22647272727272L 541.4893617021277 192.03374545454545L 543.9468085106382 192.66909090909093L 546.4042553191489 180.18341818181818L 548.8617021276596 194.5013818181818L 551.3191489361702 194.6829090909091L 553.7765957446809 201.85323636363637L 556.2340425531916 196.2032L 558.691489361702 204.49105454545455L 561.1489361702128 191.55723636363638L 563.6063829787234 180.36494545454545L 566.063829787234 193.02647272727273L 568.5212765957447 186.20785454545455L 570.9787234042553 191.72741818181817L 573.436170212766 191.4834909090909L 575.8936170212766 196.63432727272726L 578.3510638297872 200.7810909090909L 580.8085106382979 176.26923636363637L 583.2659574468086 165.78036363636363L 585.7234042553191 181.82850909090908L 588.1808510638298 160.6976L 590.6382978723404 163.93105454545454L 593.095744680851 182.10647272727272L 595.5531914893618 130.808L 598.0106382978723 190.49643636363635L 600.468085106383 202.0914909090909L 602.9255319148937 184.09192727272728L 605.3829787234042 197.50225454545455L 607.8404255319149 187.54094545454547L 610.2978723404256 192.95272727272726L 612.7553191489362 201.88727272727272L 615.2127659574468 184.33585454545454L 617.6702127659574 183.04814545454545L 620.1276595744681 182.36741818181818L 622.5851063829787 182.54327272727272L 625.0425531914894 186.38938181818182L 627.5 174.3858909090909L 629.9574468085106 183.1786181818182L 632.4148936170213 183.5133090909091L 634.8723404255319 184.60247272727273L 637.3297872340426 186.968L 639.7872340425532 170.00087272727274L 642.2446808510638 167.8338909090909L 644.7021276595744 203.32247272727273L 647.1595744680851 206L 649.6170212765958 128.43112727272728L 652.0744680851063 183.2637090909091L 654.531914893617 156.8685090909091L 656.9893617021277 183.15592727272727L 659.4468085106382 183.2013090909091L 661.904255319149 182.25963636363636L 664.3617021276596 170.18807272727273L 666.8191489361702 186.86589090909092L 669.2765957446809 183.77425454545454L 671.7340425531914 186.29861818181817L 674.1914893617021 184.17134545454545L 676.6489361702128 184.9655272727273L 679.1063829787234 178.1696L 681.563829787234 180.70530909090908L 684.0212765957447 170.80072727272727L 686.4787234042553 177.99374545454546L 688.936170212766 175.99127272727273L 691.3936170212766 173.75621818181818L 693.8510638297872 175.45803636363638L 696.3085106382979 196.91796363636365L 698.7659574468086 150.30516363636363L 701.2234042553191 167.34036363636363L 703.6808510638298 174.52203636363637L 706.1382978723404 132.05599999999998L 708.595744680851 144.8309818181818L 711.0531914893618 173.60872727272726L 713.5106382978723 151.91054545454546L 715.968085106383 194.03621818181819L 718.4255319148937 160.59549090909093L 720.8829787234042 206L 723.3404255319149 153.43650909090908L 725.7978723404256 181.01163636363637L 728.2553191489362 181.6413090909091L 730.7127659574468 182.49221818181817L 733.1702127659574 183.08785454545455L 735.6276595744681 206L 738.0851063829787 151.86516363636363L 740.5425531914894 172.45716363636365L 743 169.20669090909092L 745.4574468085106 178.22065454545455L 747.9148936170213 175.54312727272728L 750.3723404255319 177.61367272727273L 752.8297872340426 181.0173090909091L 755.2872340425532 176.80814545454547L 757.7446808510638 167.8962909090909L 760.2021276595744 167.1248L 762.6595744680851 176.62094545454545L 765.1170212765958 158.63272727272727L 767.5744680851063 151.3602909090909L 770.031914893617 173.35345454545455L 772.4893617021277 206L 774.9468085106382 206L 777.404255319149 206L 779.8617021276596 206L 782.3191489361702 206L 784.7765957446809 206L 787.2340425531914 206L 789.6914893617021 206L 792.1489361702128 206L 794.6063829787234 206L 797.063829787234 206L 799.5212765957447 206L 801.9787234042553 206L 804.436170212766 206L 806.8936170212766 206L 809.3510638297872 206L 811.8085106382979 206L 814.2659574468086 206L 816.7234042553191 206L 819.1808510638298 206L 821.6382978723404 206L 824.095744680851 206L 826.5531914893618 206L 829.0106382978723 206L 831.468085106383 206L 833.9255319148937 206L 836.3829787234042 206L 838.8404255319149 206L 841.2978723404256 206L 843.7553191489362 206L 846.2127659574468 206L 848.6702127659574 206L 851.1276595744681 206L 853.5851063829787 206L 856.0425531914894 206L 858.5 206L 860.9574468085106 206L 863.4148936170213 206L 865.8723404255319 206L 868.3297872340426 206L 870.7872340425532 206L 873.2446808510638 206L 875.7021276595744 206L 878.1595744680851 206L 880.6170212765958 206L 883.0744680851063 206L 885.531914893617 206L 887.9893617021277 206L 890.4468085106382 206L 892.904255319149 206L 895.3617021276596 206L 897.8191489361702 206L 900.2765957446809 206L 902.7340425531914 206L 905.1914893617021 206L 907.6489361702128 206L 910.1063829787234 206L 912.563829787234 206L 915.0212765957447 206L 917.4787234042553 206L 919.936170212766 206L 922.3936170212766 206L 924.8510638297872 206L 927.3085106382979 206L 929.7659574468086 206L 932.2234042553191 206L 934.6808510638298 206L 937.1382978723404 206L 939.595744680851 206L 942.0531914893618 206L 944.5106382978723 206L 946.968085106383 206L 949.4255319148937 206L 951.8829787234042 206L 954.3404255319149 206L 956.7978723404256 206L 959.2553191489362 206L 961.7127659574468 206L 964.1702127659574 206L 966.6276595744681 206L 969.0851063829787 206L 971.5425531914894 206L 974 206" stroke-width="2.0" fill="none" />
    
        
        
        <text x="45.0" font-family="-apple-system, system-ui, BlinkMacSystemFont, Roboto" y="50.0" dominant-baseline="middle" text-anchor="end" font-size="12" fill="#24292f">27500.0</text>
        
            
            <path stroke="#74838f" stroke-dasharray="10 6" stroke-width="0.5"  d="M 50.0 50.0 L 974.0 50.0" />
        
    
        
        
        <text x="45.0" font-family="-apple-system, system-ui, BlinkMacSystemFont, Roboto" y="81.2" dominant-baseline="middle" text-anchor="end" font-size="12" fill="#24292f">22000.0</text>
        
            
            
            <path stroke="#74838f" stroke-dasharray="10 6" stroke-width="0.5"  d="M 50.0 81.2 L 974.0 81.2" />
        
    
        
        
        <text x="45.0" font-family="-apple-system, system-ui, BlinkMacSystemFont, Roboto" y="112.4" dominant-baseline="middle" text-anchor="end" font-size="12" fill="#24292f">16500.0</text>
        
            
            
            <path stroke="#74838f" stroke-dasharray="10 6" stroke-width="0.5"  d="M 50.0 112.4 L 974.0 112.4" />
        
    
        
        
        <text x="45.0" font-family="-apple-system, system-ui, BlinkMacSystemFont, Roboto" y="143.6" dominant-baseline="middle" text-anchor="end" font-size="12" fill="#24292f">11000.0</text>
        
            
            
            <path stroke="#74838f" stroke-dasharray="10 6" stroke-width="0.5"  d="M 50.0 143.6 L 974.0 143.6" />
        
    
        
        
        <text x="45.0" font-family="-apple-system, system-ui, BlinkMacSystemFont, Roboto" y="174.8" dominant-baseline="middle" text-anchor="end" font-size="12" fill="#24292f">5500.0</text>
        
            
            
            <path stroke="#74838f" stroke-dasharray="10 6" stroke-width="0.5"  d="M 50.0 174.8 L 974.0 174.8" />
        
    
        
        
        <text x="45.0" font-family="-apple-system, system-ui, BlinkMacSystemFont, Roboto" y="206.0" dominant-baseline="middle" text-anchor="end" font-size="12" fill="#24292f">0.0</text>
        
    
    
        
        <path stroke="#74838f"  stroke-width="2.0"  d="M 89.31914893617022 206.0 L 89.31914893617022 214.0" />
        <text x="89.31914893617022" font-family="-apple-system, system-ui, BlinkMacSystemFont, Roboto" y="216.0" dominant-baseline="hanging" text-anchor="middle" font-size="12" fill="#24292f">Mar 2022</text>
    
        
        <path stroke="#74838f"  stroke-width="2.0"  d="M 165.5 206.0 L 165.5 214.0" />
        <text x="165.5" font-family="-apple-system, system-ui, BlinkMacSystemFont, Roboto" y="216.0" dominant-baseline="hanging" text-anchor="middle" font-size="12" fill="#24292f">Apr 2022</text>
    
        
        <path stroke="#74838f"  stroke-width="2.0"  d="M 239.22340425531914 206.0 L 239.22340425531914 214.0" />
        <text x="239.22340425531914" font-family="-apple-system, system-ui, BlinkMacSystemFont, Roboto" y="216.0" dominant-baseline="hanging" text-anchor="middle" font-size="12" fill="#24292f">May 2022</text>
    
        
        <path stroke="#74838f"  stroke-width="2.0"  d="M 315.40425531914894 206.0 L 315.40425531914894 214.0" />
        <text x="315.40425531914894" font-family="-apple-system, system-ui, BlinkMacSystemFont, Roboto" y="216.0" dominant-baseline="hanging" text-anchor="middle" font-size="12" fill="#24292f">Jun 2022</text>
    
        
        <path stroke="#74838f"  stroke-width="2.0"  d="M 389.1276595744681 206.0 L 389.1276595744681 214.0" />
        <text x="389.1276595744681" font-family="-apple-system, system-ui, BlinkMacSystemFont, Roboto" y="216.0" dominant-baseline="hanging" text-anchor="middle" font-size="12" fill="#24292f">Jul 2022</text>
    
        
        <path stroke="#74838f"  stroke-width="2.0"  d="M 465.3085106382979 206.0 L 465.3085106382979 214.0" />
        <text x="465.3085106382979" font-family="-apple-system, system-ui, BlinkMacSystemFont, Roboto" y="216.0" dominant-baseline="hanging" text-anchor="middle" font-size="12" fill="#24292f">Aug 2022</text>
    
        
        <path stroke="#74838f"  stroke-width="2.0"  d="M 541.4893617021277 206.0 L 541.4893617021277 214.0" />
        <text x="541.4893617021277" font-family="-apple-system, system-ui, BlinkMacSystemFont, Roboto" y="216.0" dominant-baseline="hanging" text-anchor="middle" font-size="12" fill="#24292f">Sep 2022</text>
    
        
        <path stroke="#74838f"  stroke-width="2.0"  d="M 615.2127659574468 206.0 L 615.2127659574468 214.0" />
        <text x="615.2127659574468" font-family="-apple-system, system-ui, BlinkMacSystemFont, Roboto" y="216.0" dominant-baseline="hanging" text-anchor="middle" font-size="12" fill="#24292f">Oct 2022</text>
    
        
        <path stroke="#74838f"  stroke-width="2.0"  d="M 691.3936170212766 206.0 L 691.3936170212766 214.0" />
        <text x="691.3936170212766" font-family="-apple-system, system-ui, BlinkMacSystemFont, Roboto" y="216.0" dominant-baseline="hanging" text-anchor="middle" font-size="12" fill="#24292f">Nov 2022</text>
    
        
        <path stroke="#74838f"  stroke-width="2.0"  d="M 765.1170212765958 206.0 L 765.1170212765958 214.0" />
        <text x="765.1170212765958" font-family="-apple-system, system-ui, BlinkMacSystemFont, Roboto" y="216.0" dominant-baseline="hanging" text-anchor="middle" font-size="12" fill="#24292f">Dec 2022</text>
    
        
        <path stroke="#74838f"  stroke-width="2.0"  d="M 841.2978723404256 206.0 L 841.2978723404256 214.0" />
        <text x="841.2978723404256" font-family="-apple-system, system-ui, BlinkMacSystemFont, Roboto" y="216.0" dominant-baseline="hanging" text-anchor="middle" font-size="12" fill="#24292f">Jan 2023</text>
    
        
        <path stroke="#74838f"  stroke-width="2.0"  d="M 917.4787234042553 206.0 L 917.4787234042553 214.0" />
        <text x="917.4787234042553" font-family="-apple-system, system-ui, BlinkMacSystemFont, Roboto" y="216.0" dominant-baseline="hanging" text-anchor="middle" font-size="12" fill="#24292f">Feb 2023</text>
    
    <path stroke="#74838f"   stroke-linejoin="round" stroke-width="2.0" d="M 50.0 216.0 L 50.0 206.0 L 974.0 206.0 L 974.0 216.0"  fill="none" />
    <text x="512.0" y="25.0" font-family="-apple-system, system-ui, BlinkMacSystemFont, Roboto" dominant-baseline="middle" text-anchor="middle" font-size="18" fill="#24292f">Total daily screen name changes</text>
</svg>
