<?xml version="1.0" standalone="no"?>
<svg width="1024.0" height="256.0"  viewBox="0 0 1024.0 256.0" preserveAspectRatio="xMidYMid meet" xmlns="http://www.w3.org/2000/svg">
    <path stroke="#3498db" stroke-linejoin="round" d="M 50.0 203.3394909090909 L 50 203.3394909090909L 52.004338394793926 202.32974545454545L 54.00867678958785 196.86690909090908L 56.01301518438178 195.94792727272727L 58.017353579175705 202.14254545454546L 60.02169197396963 197.35476363636363L 62.02603036876356 191.76145454545454L 64.03036876355748 179.96218181818182L 66.03470715835141 204.09396363636364L 68.03904555314534 194.17236363636363L 70.04338394793926 192.61803636363635L 72.04772234273318 195.1253818181818L 74.05206073752711 193.92843636363637L 76.05639913232105 182.2482909090909L 78.06073752711497 200.86618181818181L 80.06507592190889 201.45614545454546L 82.06941431670282 178.89003636363637L 84.07375271149675 197.33774545454546L 86.07809110629067 198.50065454545455L 88.0824295010846 200.41803636363636L 90.08676789587852 201.18385454545455L 92.09110629067246 202.26734545454545L 94.09544468546638 195.09134545454546L 96.09978308026031 198.08087272727272L 98.10412147505423 183.38850909090908L 100.10845986984816 197.47389090909093L 102.11279826464208 202.01774545454546L 104.117136659436 194.66021818181818L 106.12147505422993 200.75272727272727L 108.12581344902387 200.00392727272728L 110.13015184381779 201.97236363636364L 112.1344902386117 204.2754909090909L 114.13882863340564 201.74545454545455L 116.14316702819957 201.01367272727273L 118.14750542299349 174.7829818181818L 120.15184381778742 195.76072727272728L 122.15618221258134 204.0032L 124.16052060737528 203.7309090909091L 126.16485900216921 197.87665454545453L 128.1691973969631 202.60770909090908L 130.17353579175705 202.6928L 132.17787418655098 197.55898181818182L 134.1822125813449 186.5141818181818L 136.18655097613882 199.26647272727274L 138.19088937093275 199.5728L 140.19522776572668 193.4802909090909L 142.19956616052062 199.10763636363635L 144.20390455531452 201.54690909090908L 146.20824295010846 201.5696L 148.2125813449024 195.06865454545454L 150.21691973969632 201.70007272727273L 152.22125813449026 197.2866909090909L 154.22559652928416 172.35505454545455L 156.2299349240781 203.20901818181818L 158.234273318872 199.6749090909091L 160.23861171366593 193.12858181818183L 162.24295010845987 196.8896L 164.2472885032538 199.78836363636364L 166.25162689804773 198.82967272727274L 168.25596529284167 204.1336727272727L 170.26030368763557 202.57934545454546L 172.2646420824295 198.9261090909091L 174.2689804772234 206L 176.27331887201734 204.128L 178.27765726681127 192.1245090909091L 180.2819956616052 206L 182.28633405639914 206L 184.29067245119305 206L 186.29501084598698 206L 188.2993492407809 197.37178181818183L 190.30368763557485 199.57847272727273L 192.30802603036878 188.9024L 194.31236442516268 195.02894545454546L 196.31670281995662 191.20552727272727L 198.32104121475055 166.8128L 200.32537960954446 203.8386909090909L 202.32971800433842 198.09221818181817L 204.33405639913232 201.64334545454545L 206.33839479392623 202.2957090909091L 208.3427331887202 203.22036363636363L 210.3470715835141 200.66763636363635L 212.35140997830803 191.51185454545455L 214.35574837310196 189.18603636363636L 216.36008676789587 203.86705454545455L 218.36442516268983 197.56465454545454L 220.36876355748373 187.32538181818182L 222.37310195227764 201.2349090909091L 224.3774403470716 200.44639999999998L 226.3817787418655 201.4618181818182L 228.38611713665944 201.09876363636363L 230.39045553145337 201.17818181818183L 232.39479392624727 193.02647272727273L 234.39913232104124 198.8069818181818L 236.40347071583514 203.39054545454545L 238.40780911062905 200.30458181818182L 240.412147505423 198.35883636363636L 242.4164859002169 193.3101090909091L 244.42082429501085 200.56552727272728L 246.42516268980478 203.03883636363636L 248.42950108459868 197.22996363636364L 250.43383947939262 201.95534545454547L 252.43817787418655 196.016L 254.44251626898048 202.30705454545455L 256.4468546637744 199.91316363636363L 258.4511930585683 194.62050909090908L 260.45553145336225 201.29163636363637L 262.4598698481562 202.98778181818182L 264.4642082429501 203.5437090909091L 266.468546637744 200.60523636363638L 268.472885032538 195.5621818181818L 270.47722342733186 203.24305454545456L 272.4815618221258 200.15709090909093L 274.48590021691973 198.46661818181818L 276.49023861171366 201.70007272727273L 278.4945770065076 200.70734545454545L 280.49891540130153 200.4293818181818L 282.50325379609546 201.76814545454545L 284.50759219088934 204.6442181818182L 286.51193058568333 206L 288.5162689804772 196.35636363636365L 290.52060737527114 199.21541818181817L 292.5249457700651 156.87418181818182L 294.529284164859 165.1506909090909L 296.53362255965294 204.1733818181818L 298.5379609544468 202.17658181818183L 300.5422993492408 199.31185454545454L 302.5466377440347 198.7842909090909L 304.5509761388286 202.6757818181818L 306.55531453362255 202.8573090909091L 308.5596529284165 196.1861818181818L 310.5639913232104 199.64654545454545L 312.56832971800435 198.2056727272727L 314.5726681127983 201.2178909090909L 316.57700650759216 201.79083636363637L 318.5813449023861 201.90429090909092L 320.5856832971801 200.1968L 322.59002169197396 195.17076363636363L 324.5943600867679 206L 326.5986984815618 206L 328.6030368763557 206L 330.6073752711497 191.4834909090909L 332.6117136659436 197.79723636363636L 334.61605206073756 198.85236363636363L 336.62039045553144 199.76L 338.62472885032537 200.03796363636363L 340.6290672451193 200.76407272727272L 342.63340563991324 201.80785454545455L 344.63774403470717 191.63098181818182L 346.6420824295011 194.41061818181817L 348.646420824295 199.88479999999998L 350.6507592190889 152.63098181818182L 352.65509761388284 197.04843636363637L 354.65943600867683 194.4730181818182L 356.6637744034707 155.90414545454547L 358.66811279826464 91.60945454545454L 360.6724511930586 104.5376L 362.67678958785245 151.17876363636364L 364.68112798264644 185.1981090909091L 366.6854663774404 142.76610909090908L 368.68980477223425 125.0672L 370.6941431670282 123.74545454545455L 372.6984815618221 157.99738181818182L 374.70281995661605 53.56814545454546L 376.70715835141 50.78850909090909L 378.7114967462039 100.02210909090908L 380.71583514099785 156.2445090909091L 382.72017353579173 180.31956363636363L 384.72451193058566 192.43650909090908L 386.72885032537965 193.63912727272728L 388.73318872017353 193.3328L 390.73752711496746 192.11316363636365L 392.7418655097614 197.93338181818183L 394.7462039045553 191.5629090909091L 396.75054229934926 198.7672727272727L 398.7548806941432 199.3005090909091L 400.7592190889371 201.64901818181818L 402.763557483731 200.58821818181818L 404.76789587852494 202.43752727272727L 406.7722342733189 200.73003636363637L 408.7765726681128 189.7703272727273L 410.78091106290674 203.17498181818183L 412.7852494577007 200.48610909090908L 414.78958785249455 185.1810909090909L 416.7939262472885 187.88698181818182L 418.7982646420825 191.01832727272728L 420.80260303687635 192.31738181818181L 422.8069414316703 177.09745454545455L 424.8112798264642 167.91330909090908L 426.8156182212581 179.30981818181817L 428.819956616052 186.49716363636364L 430.824295010846 150.34487272727273L 432.82863340563995 184.27345454545454L 434.8329718004338 199.5104L 436.83731019522776 161.24785454545454L 438.8416485900217 155.49003636363636L 440.8459869848156 176.96130909090908L 442.85032537960956 190.30923636363636L 444.8546637744035 193.50865454545453L 446.85900216919737 201.72843636363638L 448.8633405639913 185.22647272727272L 450.86767895878523 192.03374545454545L 452.8720173535792 192.66909090909093L 454.8763557483731 180.18341818181818L 456.88069414316703 194.5013818181818L 458.88503253796097 194.6829090909091L 460.88937093275484 201.85323636363637L 462.89370932754883 196.2032L 464.89804772234277 204.49105454545455L 466.90238611713664 191.55723636363638L 468.9067245119306 180.36494545454545L 470.9110629067245 193.02647272727273L 472.9154013015184 186.20785454545455L 474.9197396963124 191.72741818181817L 476.9240780911063 191.4834909090909L 478.92841648590024 196.63432727272726L 480.9327548806941 200.7810909090909L 482.93709327548805 176.26923636363637L 484.94143167028204 165.78036363636363L 486.9457700650759 181.82850909090908L 488.95010845986985 160.6976L 490.9544468546638 163.93105454545454L 492.95878524945766 182.10647272727272L 494.9631236442516 130.808L 496.9674620390456 190.49643636363635L 498.97180043383946 202.0914909090909L 500.9761388286334 184.09192727272728L 502.98047722342733 197.50225454545455L 504.98481561822126 187.54094545454547L 506.9891540130152 192.95272727272726L 508.99349240780913 201.88727272727272L 510.99783080260306 184.33585454545454L 513.0021691973969 183.04814545454545L 515.0065075921909 182.36741818181818L 517.0108459869848 182.54327272727272L 519.0151843817787 186.38938181818182L 521.0195227765728 174.3858909090909L 523.0238611713667 183.1786181818182L 525.0281995661605 183.5133090909091L 527.0325379609544 184.60247272727273L 529.0368763557484 186.968L 531.0412147505423 170.00087272727274L 533.0455531453363 167.8338909090909L 535.0498915401301 203.32247272727273L 537.054229934924 206L 539.058568329718 128.43112727272728L 541.062906724512 183.2637090909091L 543.0672451193059 156.8685090909091L 545.0715835140998 183.15592727272727L 547.0759219088936 183.2013090909091L 549.0802603036875 182.25963636363636L 551.0845986984816 170.18807272727273L 553.0889370932755 186.86589090909092L 555.0932754880694 183.77425454545454L 557.0976138828634 186.29861818181817L 559.1019522776572 184.17134545454545L 561.1062906724512 184.9655272727273L 563.1106290672451 178.1696L 565.114967462039 180.70530909090908L 567.119305856833 170.80072727272727L 569.123644251627 177.99374545454546L 571.1279826464208 175.99127272727273L 573.1323210412148 173.75621818181818L 575.1366594360087 175.45803636363638L 577.1409978308026 196.91796363636365L 579.1453362255966 150.30516363636363L 581.1496746203904 167.34036363636363L 583.1540130151843 174.52203636363637L 585.1583514099783 132.05599999999998L 587.1626898047722 144.8309818181818L 589.1670281995662 173.60872727272726L 591.1713665943602 151.91054545454546L 593.175704989154 194.03621818181819L 595.1800433839479 160.59549090909093L 597.1843817787419 206L 599.1887201735358 153.43650909090908L 601.1930585683297 181.01163636363637L 603.1973969631237 181.6413090909091L 605.2017353579175 182.49221818181817L 607.2060737527114 183.08785454545455L 609.2104121475054 206L 611.2147505422994 151.86516363636363L 613.2190889370934 172.45716363636365L 615.2234273318873 169.20669090909092L 617.2277657266811 178.22065454545455L 619.2321041214751 175.54312727272728L 621.236442516269 177.61367272727273L 623.2407809110629 181.0173090909091L 625.2451193058569 176.80814545454547L 627.2494577006507 167.8962909090909L 629.2537960954446 167.1248L 631.2581344902386 176.62094545454545L 633.2624728850326 158.63272727272727L 635.2668112798265 151.3602909090909L 637.2711496746205 173.35345454545455L 639.2754880694143 206L 641.2798264642082 206L 643.2841648590022 206L 645.2885032537961 206L 647.29284164859 206L 649.297180043384 206L 651.3015184381778 206L 653.3058568329717 206L 655.3101952277657 206L 657.3145336225597 206L 659.3188720173537 206L 661.3232104121475 206L 663.3275488069414 206L 665.3318872017354 206L 667.3362255965293 206L 669.3405639913232 206L 671.3449023861172 206L 673.349240780911 206L 675.3535791757049 206L 677.3579175704989 206L 679.3622559652929 206L 681.3665943600868 206L 683.3709327548808 206L 685.3752711496746 206L 687.3796095444685 206L 689.3839479392625 206L 691.3882863340564 206L 693.3926247288503 206L 695.3969631236442 206L 697.4013015184381 206L 699.4056399132321 206L 701.4099783080261 206L 703.41431670282 206L 705.4186550976139 206L 707.4229934924078 206L 709.4273318872017 206L 711.4316702819957 206L 713.4360086767896 206L 715.4403470715835 206L 717.4446854663775 206L 719.4490238611713 206L 721.4533622559653 206L 723.4577006507593 206L 725.4620390455532 206L 727.4663774403471 206L 729.470715835141 206L 731.4750542299349 206L 733.4793926247288 206L 735.4837310195228 206L 737.4880694143167 206L 739.4924078091105 206L 741.4967462039045 206L 743.5010845986985 206L 745.5054229934924 206L 747.5097613882864 206L 749.5140997830803 206L 751.5184381778741 206L 753.5227765726681 206L 755.527114967462 206L 757.531453362256 206L 759.5357917570499 206L 761.5401301518438 206L 763.5444685466377 206L 765.5488069414317 206L 767.5531453362256 206L 769.5574837310196 206L 771.5618221258135 206L 773.5661605206074 206L 775.5704989154013 206L 777.5748373101952 206L 779.5791757049891 206L 781.5835140997831 206L 783.587852494577 206L 785.5921908893708 206L 787.596529284165 206L 789.6008676789588 206L 791.6052060737527 206L 793.6095444685467 206L 795.6138828633406 206L 797.6182212581344 206L 799.6225596529284 206L 801.6268980477223 206L 803.6312364425162 206L 805.6355748373102 206L 807.639913232104 206L 809.644251626898 206L 811.648590021692 206L 813.6529284164859 206L 815.6572668112799 206L 817.6616052060738 206L 819.6659436008676 206L 821.6702819956616 206L 823.6746203904555 206L 825.6789587852494 206L 827.6832971800434 206L 829.6876355748373 206L 831.6919739696312 206L 833.6963123644252 206L 835.7006507592191 206L 837.704989154013 206L 839.709327548807 206L 841.7136659436009 206L 843.7180043383947 206L 845.7223427331887 206L 847.7266811279826 206L 849.7310195227765 206L 851.7353579175705 206L 853.7396963123645 206L 855.7440347071584 206L 857.7483731019523 206L 859.7527114967462 206L 861.7570498915402 206L 863.7613882863341 206L 865.765726681128 206L 867.7700650759219 206L 869.7744034707158 206L 871.7787418655097 206L 873.7830802603037 206L 875.7874186550977 206L 877.7917570498915 206L 879.7960954446855 206L 881.8004338394794 206L 883.8047722342733 206L 885.8091106290673 206L 887.8134490238612 206L 889.817787418655 206L 891.822125813449 206L 893.8264642082429 206L 895.8308026030368 206L 897.8351409978309 206L 899.8394793926248 206L 901.8438177874187 206L 903.8481561822126 206L 905.8524945770065 206L 907.8568329718005 206L 909.8611713665944 206L 911.8655097613882 206L 913.8698481561822 206L 915.8741865509761 206L 917.87852494577 206L 919.8828633405641 206L 921.887201735358 206L 923.8915401301518 206L 925.8958785249458 206L 927.9002169197397 206L 929.9045553145336 206L 931.9088937093276 206L 933.9132321041214 206L 935.9175704989153 206L 937.9219088937093 206L 939.9262472885032 206L 941.9305856832972 206L 943.9349240780912 206L 945.939262472885 206L 947.9436008676789 206L 949.9479392624729 206L 951.9522776572668 206L 953.9566160520608 206L 955.9609544468547 206L 957.9652928416485 206L 959.9696312364425 206L 961.9739696312364 206L 963.9783080260304 206L 965.9826464208244 206L 967.9869848156183 206L 969.9913232104121 206L 971.9956616052061 206L 974 206" stroke-width="2.0" fill="none" />
    
        
        
        <text x="45.0" font-family="-apple-system, system-ui, BlinkMacSystemFont, Roboto" y="50.0" dominant-baseline="middle" text-anchor="end" font-size="12" fill="#24292f">27500.0</text>
        
            
            <path stroke="#74838f" stroke-dasharray="10 6" stroke-width="0.5"  d="M 50.0 50.0 L 974.0 50.0" />
        
    
        
        
        <text x="45.0" font-family="-apple-system, system-ui, BlinkMacSystemFont, Roboto" y="81.2" dominant-baseline="middle" text-anchor="end" font-size="12" fill="#24292f">22000.0</text>
        
            
            
            <path stroke="#74838f" stroke-dasharray="10 6" stroke-width="0.5"  d="M 50.0 81.2 L 974.0 81.2" />
        
    
        
        
        <text x="45.0" font-family="-apple-system, system-ui, BlinkMacSystemFont, Roboto" y="112.4" dominant-baseline="middle" text-anchor="end" font-size="12" fill="#24292f">16500.0</text>
        
            
            
            <path stroke="#74838f" stroke-dasharray="10 6" stroke-width="0.5"  d="M 50.0 112.4 L 974.0 112.4" />
        
    
        
        
        <text x="45.0" font-family="-apple-system, system-ui, BlinkMacSystemFont, Roboto" y="143.6" dominant-baseline="middle" text-anchor="end" font-size="12" fill="#24292f">11000.0</text>
        
            
            
            <path stroke="#74838f" stroke-dasharray="10 6" stroke-width="0.5"  d="M 50.0 143.6 L 974.0 143.6" />
        
    
        
        
        <text x="45.0" font-family="-apple-system, system-ui, BlinkMacSystemFont, Roboto" y="174.8" dominant-baseline="middle" text-anchor="end" font-size="12" fill="#24292f">5500.0</text>
        
            
            
            <path stroke="#74838f" stroke-dasharray="10 6" stroke-width="0.5"  d="M 50.0 174.8 L 974.0 174.8" />
        
    
        
        
        <text x="45.0" font-family="-apple-system, system-ui, BlinkMacSystemFont, Roboto" y="206.0" dominant-baseline="middle" text-anchor="end" font-size="12" fill="#24292f">0.0</text>
        
    
    
        
        <path stroke="#74838f"  stroke-width="2.0"  d="M 82.06941431670282 206.0 L 82.06941431670282 214.0" />
        <text x="82.06941431670282" font-family="-apple-system, system-ui, BlinkMacSystemFont, Roboto" y="216.0" dominant-baseline="hanging" text-anchor="middle" font-size="12" fill="#24292f">Mar 2022</text>
    
        
        <path stroke="#74838f"  stroke-width="2.0"  d="M 144.20390455531452 206.0 L 144.20390455531452 214.0" />
        <text x="144.20390455531452" font-family="-apple-system, system-ui, BlinkMacSystemFont, Roboto" y="216.0" dominant-baseline="hanging" text-anchor="middle" font-size="12" fill="#24292f">Apr 2022</text>
    
        
        <path stroke="#74838f"  stroke-width="2.0"  d="M 204.33405639913232 206.0 L 204.33405639913232 214.0" />
        <text x="204.33405639913232" font-family="-apple-system, system-ui, BlinkMacSystemFont, Roboto" y="216.0" dominant-baseline="hanging" text-anchor="middle" font-size="12" fill="#24292f">May 2022</text>
    
        
        <path stroke="#74838f"  stroke-width="2.0"  d="M 266.468546637744 206.0 L 266.468546637744 214.0" />
        <text x="266.468546637744" font-family="-apple-system, system-ui, BlinkMacSystemFont, Roboto" y="216.0" dominant-baseline="hanging" text-anchor="middle" font-size="12" fill="#24292f">Jun 2022</text>
    
        
        <path stroke="#74838f"  stroke-width="2.0"  d="M 326.5986984815618 206.0 L 326.5986984815618 214.0" />
        <text x="326.5986984815618" font-family="-apple-system, system-ui, BlinkMacSystemFont, Roboto" y="216.0" dominant-baseline="hanging" text-anchor="middle" font-size="12" fill="#24292f">Jul 2022</text>
    
        
        <path stroke="#74838f"  stroke-width="2.0"  d="M 388.73318872017353 206.0 L 388.73318872017353 214.0" />
        <text x="388.73318872017353" font-family="-apple-system, system-ui, BlinkMacSystemFont, Roboto" y="216.0" dominant-baseline="hanging" text-anchor="middle" font-size="12" fill="#24292f">Aug 2022</text>
    
        
        <path stroke="#74838f"  stroke-width="2.0"  d="M 450.86767895878523 206.0 L 450.86767895878523 214.0" />
        <text x="450.86767895878523" font-family="-apple-system, system-ui, BlinkMacSystemFont, Roboto" y="216.0" dominant-baseline="hanging" text-anchor="middle" font-size="12" fill="#24292f">Sep 2022</text>
    
        
        <path stroke="#74838f"  stroke-width="2.0"  d="M 510.99783080260306 206.0 L 510.99783080260306 214.0" />
        <text x="510.99783080260306" font-family="-apple-system, system-ui, BlinkMacSystemFont, Roboto" y="216.0" dominant-baseline="hanging" text-anchor="middle" font-size="12" fill="#24292f">Oct 2022</text>
    
        
        <path stroke="#74838f"  stroke-width="2.0"  d="M 573.1323210412148 206.0 L 573.1323210412148 214.0" />
        <text x="573.1323210412148" font-family="-apple-system, system-ui, BlinkMacSystemFont, Roboto" y="216.0" dominant-baseline="hanging" text-anchor="middle" font-size="12" fill="#24292f">Nov 2022</text>
    
        
        <path stroke="#74838f"  stroke-width="2.0"  d="M 633.2624728850326 206.0 L 633.2624728850326 214.0" />
        <text x="633.2624728850326" font-family="-apple-system, system-ui, BlinkMacSystemFont, Roboto" y="216.0" dominant-baseline="hanging" text-anchor="middle" font-size="12" fill="#24292f">Dec 2022</text>
    
        
        <path stroke="#74838f"  stroke-width="2.0"  d="M 695.3969631236442 206.0 L 695.3969631236442 214.0" />
        <text x="695.3969631236442" font-family="-apple-system, system-ui, BlinkMacSystemFont, Roboto" y="216.0" dominant-baseline="hanging" text-anchor="middle" font-size="12" fill="#24292f">Jan 2023</text>
    
        
        <path stroke="#74838f"  stroke-width="2.0"  d="M 757.531453362256 206.0 L 757.531453362256 214.0" />
        <text x="757.531453362256" font-family="-apple-system, system-ui, BlinkMacSystemFont, Roboto" y="216.0" dominant-baseline="hanging" text-anchor="middle" font-size="12" fill="#24292f">Feb 2023</text>
    
        
        <path stroke="#74838f"  stroke-width="2.0"  d="M 813.6529284164859 206.0 L 813.6529284164859 214.0" />
        <text x="813.6529284164859" font-family="-apple-system, system-ui, BlinkMacSystemFont, Roboto" y="216.0" dominant-baseline="hanging" text-anchor="middle" font-size="12" fill="#24292f">Mar 2023</text>
    
        
        <path stroke="#74838f"  stroke-width="2.0"  d="M 875.7874186550977 206.0 L 875.7874186550977 214.0" />
        <text x="875.7874186550977" font-family="-apple-system, system-ui, BlinkMacSystemFont, Roboto" y="216.0" dominant-baseline="hanging" text-anchor="middle" font-size="12" fill="#24292f">Apr 2023</text>
    
        
        <path stroke="#74838f"  stroke-width="2.0"  d="M 935.9175704989153 206.0 L 935.9175704989153 214.0" />
        <text x="935.9175704989153" font-family="-apple-system, system-ui, BlinkMacSystemFont, Roboto" y="216.0" dominant-baseline="hanging" text-anchor="middle" font-size="12" fill="#24292f">May 2023</text>
    
    <path stroke="#74838f"   stroke-linejoin="round" stroke-width="2.0" d="M 50.0 216.0 L 50.0 206.0 L 974.0 206.0 L 974.0 216.0"  fill="none" />
    <text x="512.0" y="25.0" font-family="-apple-system, system-ui, BlinkMacSystemFont, Roboto" dominant-baseline="middle" text-anchor="middle" font-size="18" fill="#24292f">Total daily screen name changes</text>
</svg>
