<?xml version="1.0" standalone="no"?>
<svg width="1024.0" height="256.0"  viewBox="0 0 1024.0 256.0" preserveAspectRatio="xMidYMid meet" xmlns="http://www.w3.org/2000/svg">
    <path stroke="#3498db" stroke-linejoin="round" d="M 50.0 203.3394909090909 L 50 203.3394909090909L 52.33924050632911 202.32974545454545L 54.678481012658224 196.86690909090908L 57.017721518987344 195.94792727272727L 59.356962025316456 202.14254545454546L 61.69620253164557 197.35476363636363L 64.03544303797469 191.76145454545454L 66.37468354430379 179.96218181818182L 68.71392405063291 204.09396363636364L 71.05316455696203 194.17236363636363L 73.39240506329114 192.61803636363635L 75.73164556962026 195.1253818181818L 78.07088607594937 193.92843636363637L 80.41012658227848 182.2482909090909L 82.7493670886076 200.86618181818181L 85.08860759493672 201.45614545454546L 87.42784810126582 178.89003636363637L 89.76708860759493 197.33774545454546L 92.10632911392405 198.50065454545455L 94.44556962025317 200.41803636363636L 96.78481012658227 201.18385454545455L 99.12405063291139 202.26734545454545L 101.46329113924051 195.09134545454546L 103.80253164556962 198.08087272727272L 106.14177215189873 183.38850909090908L 108.48101265822785 197.47389090909093L 110.82025316455696 202.01774545454546L 113.15949367088608 194.66021818181818L 115.4987341772152 200.75272727272727L 117.8379746835443 200.00392727272728L 120.17721518987342 201.97236363636364L 122.51645569620253 204.2754909090909L 124.85569620253165 201.74545454545455L 127.19493670886077 201.01367272727273L 129.53417721518986 174.7829818181818L 131.873417721519 195.76072727272728L 134.2126582278481 204.0032L 136.5518987341772 203.7309090909091L 138.89113924050633 197.87665454545453L 141.23037974683544 202.60770909090908L 143.56962025316454 202.6928L 145.90886075949368 197.55898181818182L 148.24810126582278 186.5141818181818L 150.5873417721519 199.26647272727274L 152.92658227848102 199.5728L 155.26582278481013 193.4802909090909L 157.60506329113923 199.10763636363635L 159.94430379746836 201.54690909090908L 162.28354430379747 201.5696L 164.62278481012657 195.06865454545454L 166.9620253164557 201.70007272727273L 169.30126582278479 197.2866909090909L 171.64050632911392 172.35505454545455L 173.97974683544305 203.20901818181818L 176.31898734177216 199.6749090909091L 178.65822784810126 193.12858181818183L 180.9974683544304 196.8896L 183.33670886075947 199.78836363636364L 185.6759493670886 198.82967272727274L 188.0151898734177 204.1336727272727L 190.35443037974684 202.57934545454546L 192.69367088607595 198.9261090909091L 195.03291139240505 206L 197.37215189873416 204.128L 199.7113924050633 192.1245090909091L 202.0506329113924 206L 204.38987341772153 206L 206.7291139240506 206L 209.06835443037974 206L 211.40759493670885 197.37178181818183L 213.74683544303798 199.57847272727273L 216.08607594936709 188.9024L 218.4253164556962 195.02894545454546L 220.76455696202532 191.20552727272727L 223.10379746835443 166.8128L 225.44303797468356 203.8386909090909L 227.78227848101267 198.09221818181817L 230.12151898734177 201.64334545454545L 232.46075949367088 202.2957090909091L 234.8 203.22036363636363L 237.13924050632912 200.66763636363635L 239.47848101265825 191.51185454545455L 241.81772151898733 189.18603636363636L 244.15696202531646 203.86705454545455L 246.49620253164557 197.56465454545454L 248.8354430379747 187.32538181818182L 251.1746835443038 201.2349090909091L 253.5139240506329 200.44639999999998L 255.853164556962 201.4618181818182L 258.1924050632912 201.09876363636363L 260.53164556962025 201.17818181818183L 262.8708860759494 193.02647272727273L 265.21012658227846 198.8069818181818L 267.5493670886076 203.39054545454545L 269.88860759493673 200.30458181818182L 272.22784810126586 198.35883636363636L 274.56708860759494 193.3101090909091L 276.906329113924 200.56552727272728L 279.24556962025315 203.03883636363636L 281.5848101265823 197.22996363636364L 283.9240506329114 201.95534545454547L 286.2632911392405 196.016L 288.60253164556957 202.30705454545455L 290.9417721518987 199.91316363636363L 293.28101265822784 194.62050909090908L 295.62025316455697 201.29163636363637L 297.9594936708861 202.98778181818182L 300.2987341772152 203.5437090909091L 302.6379746835443 200.60523636363638L 304.97721518987345 195.5621818181818L 307.3164556962025 203.24305454545456L 309.65569620253166 200.15709090909093L 311.9949367088608 198.46661818181818L 314.3341772151899 201.70007272727273L 316.67341772151894 200.70734545454545L 319.0126582278481 200.4293818181818L 321.3518987341772 201.76814545454545L 323.69113924050635 204.6442181818182L 326.0303797468354 206L 328.36962025316456 196.35636363636365L 330.7088607594937 199.21541818181817L 333.0481012658228 156.87418181818182L 335.3873417721519 165.1506909090909L 337.72658227848103 204.1733818181818L 340.0658227848101 202.17658181818183L 342.40506329113924 199.31185454545454L 344.7443037974683 198.7842909090909L 347.08354430379745 202.6757818181818L 349.4227848101266 202.8573090909091L 351.7620253164557 196.1861818181818L 354.1012658227848 199.64654545454545L 356.44050632911393 198.2056727272727L 358.77974683544306 201.2178909090909L 361.11898734177214 201.79083636363637L 363.4582278481012 201.90429090909092L 365.79746835443035 200.1968L 368.1367088607595 195.17076363636363L 370.4759493670886 206L 372.8151898734177 206L 375.1544303797468 206L 377.49367088607596 191.4834909090909L 379.8329113924051 197.79723636363636L 382.17215189873417 198.85236363636363L 384.5113924050633 199.76L 386.8506329113924 200.03796363636363L 389.1898734177215 200.76407272727272L 391.52911392405065 201.80785454545455L 393.8683544303797 191.63098181818182L 396.20759493670886 194.41061818181817L 398.546835443038 199.88479999999998L 400.8860759493671 152.63098181818182L 403.2253164556962 197.04843636363637L 405.56455696202534 194.4730181818182L 407.9037974683544 155.90414545454547L 410.24303797468355 91.60945454545454L 412.5822784810126 104.5376L 414.92151898734176 151.17876363636364L 417.2607594936709 185.1981090909091L 419.6 142.76610909090908L 421.9392405063291 125.0672L 424.27848101265823 123.74545454545455L 426.61772151898737 157.99738181818182L 428.9569620253165 53.56814545454546L 431.2962025316456 50.78850909090909L 433.63544303797465 100.02210909090908L 435.9746835443038 156.2445090909091L 438.3139240506329 180.31956363636363L 440.653164556962 192.43650909090908L 442.99240506329113 193.63912727272728L 445.33164556962026 193.3328L 447.6708860759494 192.11316363636365L 450.0101265822785 197.93338181818183L 452.3493670886076 191.5629090909091L 454.6886075949367 198.7672727272727L 457.0278481012658 199.3005090909091L 459.3670886075949 201.64901818181818L 461.706329113924 200.58821818181818L 464.04556962025316 202.43752727272727L 466.3848101265823 200.73003636363637L 468.72405063291137 189.7703272727273L 471.0632911392405 203.17498181818183L 473.40253164556964 200.48610909090908L 475.7417721518988 185.1810909090909L 478.08101265822785 187.88698181818182L 480.4202531645569 191.01832727272728L 482.75949367088606 192.31738181818181L 485.0987341772152 177.09745454545455L 487.4379746835443 167.91330909090908L 489.7772151898734 179.30981818181817L 492.11645569620254 186.49716363636364L 494.45569620253167 150.34487272727273L 496.7949367088608 184.27345454545454L 499.1341772151899 199.5104L 501.47341772151896 161.24785454545454L 503.8126582278481 155.49003636363636L 506.1518987341772 176.96130909090908L 508.4911392405063 190.30923636363636L 510.83037974683543 193.50865454545453L 513.1696202531646 201.72843636363638L 515.5088607594937 185.22647272727272L 517.8481012658228 192.03374545454545L 520.187341772152 192.66909090909093L 522.526582278481 180.18341818181818L 524.8658227848101 194.5013818181818L 527.2050632911391 194.6829090909091L 529.5443037974683 201.85323636363637L 531.8835443037974 196.2032L 534.2227848101265 204.49105454545455L 536.5620253164557 191.55723636363638L 538.9012658227848 180.36494545454545L 541.2405063291139 193.02647272727273L 543.5797468354431 186.20785454545455L 545.9189873417722 191.72741818181817L 548.2582278481012 191.4834909090909L 550.5974683544304 196.63432727272726L 552.9367088607595 200.7810909090909L 555.2759493670886 176.26923636363637L 557.6151898734178 165.78036363636363L 559.9544303797469 181.82850909090908L 562.2936708860759 160.6976L 564.632911392405 163.93105454545454L 566.9721518987342 182.10647272727272L 569.3113924050633 130.808L 571.6506329113924 190.49643636363635L 573.9898734177216 202.0914909090909L 576.3291139240507 184.09192727272728L 578.6683544303798 197.50225454545455L 581.0075949367089 187.54094545454547L 583.3468354430379 192.95272727272726L 585.686075949367 201.88727272727272L 588.0253164556962 184.33585454545454L 590.3645569620253 183.04814545454545L 592.7037974683544 182.36741818181818L 595.0430379746836 182.54327272727272L 597.3822784810127 186.38938181818182L 599.7215189873417 174.3858909090909L 602.0607594936708 183.1786181818182L 604.4 183.5133090909091L 606.7392405063291 184.60247272727273L 609.0784810126582 186.968L 611.4177215189874 170.00087272727274L 613.7569620253165 167.8338909090909L 616.0962025316456 203.32247272727273L 618.4354430379747 206L 620.7746835443038 128.43112727272728L 623.1139240506329 183.2637090909091L 625.4531645569621 156.8685090909091L 627.7924050632911 183.15592727272727L 630.1316455696202 183.2013090909091L 632.4708860759494 182.25963636363636L 634.8101265822785 170.18807272727273L 637.1493670886075 186.86589090909092L 639.4886075949366 183.77425454545454L 641.8278481012658 186.29861818181817L 644.1670886075949 184.17134545454545L 646.506329113924 184.9655272727273L 648.8455696202532 178.1696L 651.1848101265823 180.70530909090908L 653.5240506329114 170.80072727272727L 655.8632911392406 177.99374545454546L 658.2025316455696 175.99127272727273L 660.5417721518987 173.75621818181818L 662.8810126582279 175.45803636363638L 665.220253164557 196.91796363636365L 667.5594936708861 150.30516363636363L 669.8987341772153 167.34036363636363L 672.2379746835443 174.52203636363637L 674.5772151898734 132.05599999999998L 676.9164556962024 144.8309818181818L 679.2556962025316 173.60872727272726L 681.5949367088607 151.91054545454546L 683.9341772151898 194.03621818181819L 686.273417721519 160.59549090909093L 688.6126582278481 206L 690.9518987341772 153.43650909090908L 693.2911392405064 181.01163636363637L 695.6303797468354 181.6413090909091L 697.9696202531645 182.49221818181817L 700.3088607594937 183.08785454545455L 702.6481012658228 206L 704.9873417721519 151.86516363636363L 707.326582278481 172.45716363636365L 709.6658227848102 169.20669090909092L 712.0050632911393 178.22065454545455L 714.3443037974683 175.54312727272728L 716.6835443037975 177.61367272727273L 719.0227848101266 181.0173090909091L 721.3620253164556 176.80814545454547L 723.7012658227848 167.8962909090909L 726.0405063291139 167.1248L 728.379746835443 176.62094545454545L 730.7189873417722 158.63272727272727L 733.0582278481013 151.3602909090909L 735.3974683544303 173.35345454545455L 737.7367088607594 206L 740.0759493670886 206L 742.4151898734177 206L 744.7544303797469 206L 747.093670886076 206L 749.4329113924051 206L 751.7721518987343 206L 754.1113924050633 206L 756.4506329113924 206L 758.7898734177215 206L 761.1291139240507 206L 763.4683544303798 206L 765.8075949367088 206L 768.146835443038 206L 770.4860759493671 206L 772.8253164556961 206L 775.1645569620252 206L 777.5037974683544 206L 779.8430379746835 206L 782.1822784810126 206L 784.5215189873418 206L 786.8607594936709 206L 789.2 206L 791.5392405063291 206L 793.8784810126582 206L 796.2177215189873 206L 798.5569620253165 206L 800.8962025316456 206L 803.2354430379747 206L 805.5746835443039 206L 807.913924050633 206L 810.253164556962 206L 812.5924050632912 206L 814.9316455696202 206L 817.2708860759493 206L 819.6101265822784 206L 821.9493670886076 206L 824.2886075949367 206L 826.6278481012658 206L 828.967088607595 206L 831.306329113924 206L 833.6455696202531 206L 835.9848101265823 206L 838.3240506329114 206L 840.6632911392405 206L 843.0025316455697 206L 845.3417721518988 206L 847.6810126582279 206L 850.020253164557 206L 852.3594936708861 206L 854.6987341772152 206L 857.0379746835443 206L 859.3772151898734 206L 861.7164556962025 206L 864.0556962025316 206L 866.3949367088608 206L 868.7341772151898 206L 871.0734177215189 206L 873.412658227848 206L 875.7518987341772 206L 878.0911392405063 206L 880.4303797468355 206L 882.7696202531646 206L 885.1088607594937 206L 887.4481012658227 206L 889.7873417721519 206L 892.126582278481 206L 894.4658227848101 206L 896.8050632911393 206L 899.1443037974684 206L 901.4835443037975 206L 903.8227848101266 206L 906.1620253164557 206L 908.5012658227847 206L 910.8405063291139 206L 913.179746835443 206L 915.5189873417721 206L 917.8582278481013 206L 920.1974683544304 206L 922.5367088607595 206L 924.8759493670887 206L 927.2151898734177 206L 929.5544303797468 206L 931.8936708860759 206L 934.2329113924051 206L 936.5721518987342 206L 938.9113924050633 206L 941.2506329113925 206L 943.5898734177216 206L 945.9291139240506 206L 948.2683544303798 206L 950.6075949367089 206L 952.9468354430379 206L 955.286075949367 206L 957.6253164556962 206L 959.9645569620253 206L 962.3037974683544 206L 964.6430379746835 206L 966.9822784810126 206L 969.3215189873417 206L 971.6607594936709 206L 974 206" stroke-width="2.0" fill="none" />
    
        
        
        <text x="45.0" font-family="-apple-system, system-ui, BlinkMacSystemFont, Roboto" y="50.0" dominant-baseline="middle" text-anchor="end" font-size="12" fill="#24292f">27500.0</text>
        
            
            <path stroke="#74838f" stroke-dasharray="10 6" stroke-width="0.5"  d="M 50.0 50.0 L 974.0 50.0" />
        
    
        
        
        <text x="45.0" font-family="-apple-system, system-ui, BlinkMacSystemFont, Roboto" y="81.2" dominant-baseline="middle" text-anchor="end" font-size="12" fill="#24292f">22000.0</text>
        
            
            
            <path stroke="#74838f" stroke-dasharray="10 6" stroke-width="0.5"  d="M 50.0 81.2 L 974.0 81.2" />
        
    
        
        
        <text x="45.0" font-family="-apple-system, system-ui, BlinkMacSystemFont, Roboto" y="112.4" dominant-baseline="middle" text-anchor="end" font-size="12" fill="#24292f">16500.0</text>
        
            
            
            <path stroke="#74838f" stroke-dasharray="10 6" stroke-width="0.5"  d="M 50.0 112.4 L 974.0 112.4" />
        
    
        
        
        <text x="45.0" font-family="-apple-system, system-ui, BlinkMacSystemFont, Roboto" y="143.6" dominant-baseline="middle" text-anchor="end" font-size="12" fill="#24292f">11000.0</text>
        
            
            
            <path stroke="#74838f" stroke-dasharray="10 6" stroke-width="0.5"  d="M 50.0 143.6 L 974.0 143.6" />
        
    
        
        
        <text x="45.0" font-family="-apple-system, system-ui, BlinkMacSystemFont, Roboto" y="174.8" dominant-baseline="middle" text-anchor="end" font-size="12" fill="#24292f">5500.0</text>
        
            
            
            <path stroke="#74838f" stroke-dasharray="10 6" stroke-width="0.5"  d="M 50.0 174.8 L 974.0 174.8" />
        
    
        
        
        <text x="45.0" font-family="-apple-system, system-ui, BlinkMacSystemFont, Roboto" y="206.0" dominant-baseline="middle" text-anchor="end" font-size="12" fill="#24292f">0.0</text>
        
    
    
        
        <path stroke="#74838f"  stroke-width="2.0"  d="M 87.42784810126582 206.0 L 87.42784810126582 214.0" />
        <text x="87.42784810126582" font-family="-apple-system, system-ui, BlinkMacSystemFont, Roboto" y="216.0" dominant-baseline="hanging" text-anchor="middle" font-size="12" fill="#24292f">Mar 2022</text>
    
        
        <path stroke="#74838f"  stroke-width="2.0"  d="M 159.94430379746836 206.0 L 159.94430379746836 214.0" />
        <text x="159.94430379746836" font-family="-apple-system, system-ui, BlinkMacSystemFont, Roboto" y="216.0" dominant-baseline="hanging" text-anchor="middle" font-size="12" fill="#24292f">Apr 2022</text>
    
        
        <path stroke="#74838f"  stroke-width="2.0"  d="M 230.12151898734177 206.0 L 230.12151898734177 214.0" />
        <text x="230.12151898734177" font-family="-apple-system, system-ui, BlinkMacSystemFont, Roboto" y="216.0" dominant-baseline="hanging" text-anchor="middle" font-size="12" fill="#24292f">May 2022</text>
    
        
        <path stroke="#74838f"  stroke-width="2.0"  d="M 302.6379746835443 206.0 L 302.6379746835443 214.0" />
        <text x="302.6379746835443" font-family="-apple-system, system-ui, BlinkMacSystemFont, Roboto" y="216.0" dominant-baseline="hanging" text-anchor="middle" font-size="12" fill="#24292f">Jun 2022</text>
    
        
        <path stroke="#74838f"  stroke-width="2.0"  d="M 372.8151898734177 206.0 L 372.8151898734177 214.0" />
        <text x="372.8151898734177" font-family="-apple-system, system-ui, BlinkMacSystemFont, Roboto" y="216.0" dominant-baseline="hanging" text-anchor="middle" font-size="12" fill="#24292f">Jul 2022</text>
    
        
        <path stroke="#74838f"  stroke-width="2.0"  d="M 445.33164556962026 206.0 L 445.33164556962026 214.0" />
        <text x="445.33164556962026" font-family="-apple-system, system-ui, BlinkMacSystemFont, Roboto" y="216.0" dominant-baseline="hanging" text-anchor="middle" font-size="12" fill="#24292f">Aug 2022</text>
    
        
        <path stroke="#74838f"  stroke-width="2.0"  d="M 517.8481012658228 206.0 L 517.8481012658228 214.0" />
        <text x="517.8481012658228" font-family="-apple-system, system-ui, BlinkMacSystemFont, Roboto" y="216.0" dominant-baseline="hanging" text-anchor="middle" font-size="12" fill="#24292f">Sep 2022</text>
    
        
        <path stroke="#74838f"  stroke-width="2.0"  d="M 588.0253164556962 206.0 L 588.0253164556962 214.0" />
        <text x="588.0253164556962" font-family="-apple-system, system-ui, BlinkMacSystemFont, Roboto" y="216.0" dominant-baseline="hanging" text-anchor="middle" font-size="12" fill="#24292f">Oct 2022</text>
    
        
        <path stroke="#74838f"  stroke-width="2.0"  d="M 660.5417721518987 206.0 L 660.5417721518987 214.0" />
        <text x="660.5417721518987" font-family="-apple-system, system-ui, BlinkMacSystemFont, Roboto" y="216.0" dominant-baseline="hanging" text-anchor="middle" font-size="12" fill="#24292f">Nov 2022</text>
    
        
        <path stroke="#74838f"  stroke-width="2.0"  d="M 730.7189873417722 206.0 L 730.7189873417722 214.0" />
        <text x="730.7189873417722" font-family="-apple-system, system-ui, BlinkMacSystemFont, Roboto" y="216.0" dominant-baseline="hanging" text-anchor="middle" font-size="12" fill="#24292f">Dec 2022</text>
    
        
        <path stroke="#74838f"  stroke-width="2.0"  d="M 803.2354430379747 206.0 L 803.2354430379747 214.0" />
        <text x="803.2354430379747" font-family="-apple-system, system-ui, BlinkMacSystemFont, Roboto" y="216.0" dominant-baseline="hanging" text-anchor="middle" font-size="12" fill="#24292f">Jan 2023</text>
    
        
        <path stroke="#74838f"  stroke-width="2.0"  d="M 875.7518987341772 206.0 L 875.7518987341772 214.0" />
        <text x="875.7518987341772" font-family="-apple-system, system-ui, BlinkMacSystemFont, Roboto" y="216.0" dominant-baseline="hanging" text-anchor="middle" font-size="12" fill="#24292f">Feb 2023</text>
    
        
        <path stroke="#74838f"  stroke-width="2.0"  d="M 941.2506329113925 206.0 L 941.2506329113925 214.0" />
        <text x="941.2506329113925" font-family="-apple-system, system-ui, BlinkMacSystemFont, Roboto" y="216.0" dominant-baseline="hanging" text-anchor="middle" font-size="12" fill="#24292f">Mar 2023</text>
    
    <path stroke="#74838f"   stroke-linejoin="round" stroke-width="2.0" d="M 50.0 216.0 L 50.0 206.0 L 974.0 206.0 L 974.0 216.0"  fill="none" />
    <text x="512.0" y="25.0" font-family="-apple-system, system-ui, BlinkMacSystemFont, Roboto" dominant-baseline="middle" text-anchor="middle" font-size="18" fill="#24292f">Total daily screen name changes</text>
</svg>
