<?xml version="1.0" standalone="no"?>
<svg width="1024.0" height="256.0"  viewBox="0 0 1024.0 256.0" preserveAspectRatio="xMidYMid meet" xmlns="http://www.w3.org/2000/svg">
    <path stroke="#3498db" stroke-linejoin="round" d="M 50.0 203.7138909090909 L 50 203.7138909090909L 53.43494423791822 202.8176L 56.86988847583643 197.26967272727273L 60.30483271375465 196.06138181818181L 63.739776951672866 202.24465454545455L 67.17472118959108 197.43418181818183L 70.6096654275093 192.00538181818183L 74.04460966542752 179.96218181818182L 77.47955390334573 204.13934545454546L 80.91449814126393 194.16101818181818L 84.34944237918216 192.65774545454545L 87.78438661710038 195.13672727272728L 91.21933085501858 193.92276363636364L 94.65427509293681 182.3106909090909L 98.08921933085502 200.8605090909091L 101.52416356877323 201.57527272727273L 104.95910780669145 178.86167272727272L 108.39405204460965 197.47389090909093L 111.82899628252787 198.54036363636362L 115.2639405204461 200.51447272727273L 118.69888475836431 201.1952L 122.13382899628253 202.32407272727272L 125.56877323420075 195.17643636363636L 129.00371747211895 198.08087272727272L 132.43866171003717 183.4338909090909L 135.87360594795538 197.56465454545454L 139.30855018587363 202.07447272727273L 142.74349442379184 194.6658909090909L 146.17843866171003 200.76407272727272L 149.61338289962825 200.0493090909091L 153.04832713754647 201.9837090909091L 156.48327137546468 204.53643636363637L 159.9182156133829 201.85323636363637L 163.35315985130111 201.0306909090909L 166.7881040892193 175.05527272727272L 170.22304832713755 195.76072727272728L 173.65799256505574 204.0032L 177.09293680297398 203.7536L 180.5278810408922 197.88232727272728L 183.9628252788104 202.60770909090908L 187.39776951672863 202.80625454545455L 190.83271375464682 197.58734545454547L 194.26765799256506 186.49716363636364L 197.70260223048325 199.2778181818182L 201.1375464684015 199.6352L 204.5724907063197 193.54836363636363L 208.0074349442379 199.15869090909092L 211.44237918215615 201.55825454545453L 214.87732342007433 201.6093090909091L 218.31226765799258 195.11403636363636L 221.74721189591077 201.70574545454545L 225.18215613382898 197.27534545454546L 228.61710037174723 172.36072727272727L 232.05204460966542 203.20901818181818L 235.48698884758366 199.7146181818182L 238.92193308550185 193.13992727272728L 242.35687732342006 196.9293090909091L 245.79182156133828 199.8394181818182L 249.2267657992565 198.83534545454546L 252.66171003717474 204.1336727272727L 256.09665427509293 202.70981818181818L 259.53159851301115 198.9090909090909L 262.96654275092936 206L 266.4014869888476 204.128L 269.8364312267658 192.10749090909093L 273.271375464684 206L 276.70631970260223 206L 280.14126394052045 206L 283.5762081784386 206L 287.0111524163569 197.35476363636363L 290.4460966542751 199.57847272727273L 293.8810408921933 188.89672727272728L 297.31598513011147 195.30690909090907L 300.7509293680297 191.19418181818182L 304.18587360594796 166.78443636363636L 307.6208178438662 203.88974545454545L 311.0557620817844 198.09221818181817L 314.49070631970255 201.68305454545455L 317.9256505576208 202.2957090909091L 321.36059479553904 203.24872727272728L 324.79553903345726 200.68465454545455L 328.2304832713755 191.53454545454545L 331.66542750929364 189.18036363636364L 335.1003717472119 203.88407272727272L 338.5353159851301 197.5533090909091L 341.97026022304834 187.42749090909092L 345.4052044609665 201.25192727272727L 348.8401486988847 200.44072727272726L 352.275092936803 201.4674909090909L 355.7100371747212 201.09876363636363L 359.1449814126394 201.20654545454545L 362.5799256505576 193.01512727272728L 366.0148698884758 198.8013090909091L 369.4498141263941 203.39054545454545L 372.8847583643123 200.30458181818182L 376.3197026022305 198.58007272727272L 379.75464684014867 193.31578181818182L 383.1895910780669 200.55985454545456L 386.62453531598516 203.03883636363636L 390.0594795539034 197.34341818181818L 393.49442379182153 201.95534545454547L 396.92936802973975 196.0784L 400.36431226765797 202.32974545454545L 403.79925650557624 199.91883636363636L 407.23420074349445 194.6829090909091L 410.6691449814126 201.29163636363637L 414.10408921933083 203.0048L 417.53903345724905 203.53803636363637L 420.9739776951673 200.64494545454545L 424.4089219330855 195.5735272727273L 427.8438661710037 203.32814545454545L 431.2788104089219 200.1741090909091L 434.71375464684013 198.45527272727273L 438.1486988847584 201.70007272727273L 441.58364312267656 200.73003636363637L 445.0185873605948 200.45207272727274L 448.453531598513 201.7568L 451.8884758364312 204.6442181818182L 455.3234200743495 206L 458.75836431226764 196.40174545454545L 462.19330855018586 199.20407272727272L 465.6282527881041 156.78341818181818L 469.0631970260223 165.08829090909092L 472.4981412639405 204.29818181818183L 475.9330855018587 202.1709090909091L 479.36802973977694 199.31185454545454L 482.80297397769516 198.87505454545453L 486.2379182156134 202.6928L 489.6728624535316 202.85163636363637L 493.1078066914498 196.19185454545453L 496.542750929368 199.6749090909091L 499.97769516728624 198.2L 503.41263940520446 201.2178909090909L 506.8475836431227 201.8589090909091L 510.2825278810409 201.90429090909092L 513.717472118959 200.18545454545455L 517.1524163568772 195.2274909090909L 520.5873605947955 206L 524.0223048327138 206L 527.457249070632 206L 530.8921933085502 191.46647272727273L 534.3271375464684 197.8482909090909L 537.7620817843866 198.85803636363636L 541.197026022305 199.76567272727272L 544.6319702602229 200.11738181818183L 548.0669144981412 200.76407272727272L 551.5018587360594 201.80785454545455L 554.9368029739777 191.63665454545455L 558.3717472118959 194.44465454545454L 561.8066914498141 199.89047272727274L 565.2416356877324 152.55156363636365L 568.6765799256506 197.1845818181818L 572.1115241635688 194.45600000000002L 575.546468401487 155.85876363636362L 578.9814126394051 91.5130181818182L 582.4163568773234 104.43549090909092L 585.8513011152417 151.13338181818182L 589.2862453531599 185.2605090909091L 592.7211895910781 142.6866909090909L 596.1561338289963 124.97076363636364L 599.5910780669145 123.64334545454545L 603.0260223048327 157.91796363636362L 606.460966542751 53.35825454545454L 609.895910780669 50.55025454545455L 613.3308550185873 99.89163636363635L 616.7657992565056 156.17643636363636L 620.2007434944238 180.30821818181818L 623.635687732342 192.4138181818182L 627.0706319702603 193.72421818181817L 630.5055762081785 193.32145454545454L 633.9405204460967 192.14152727272727L 637.3754646840149 197.94472727272728L 640.810408921933 191.54589090909093L 644.2453531598512 198.75592727272726L 647.6802973977694 199.31185454545454L 651.1152416356878 201.66036363636363L 654.550185873606 200.58254545454545L 657.9851301115242 202.4829090909091L 661.4200743494424 200.73003636363637L 664.8550185873606 190.07098181818182L 668.2899628252788 203.16930909090908L 671.724907063197 200.48610909090908L 675.1598513011152 185.14138181818183L 678.5947955390334 187.99476363636364L 682.0297397769516 190.97861818181818L 685.4646840148699 192.3117090909091L 688.8996282527881 177.08043636363635L 692.3345724907064 167.8679272727273L 695.7695167286246 179.3552L 699.2044609665428 186.43476363636364L 702.639405204461 150.22007272727274L 706.0743494423791 184.29047272727274L 709.5092936802973 199.54443636363635L 712.9442379182155 161.16276363636365L 716.3791821561338 155.52974545454546L 719.8141263940521 176.92727272727274L 723.2490706319703 190.28087272727274L 726.6840148698885 193.51432727272726L 730.1189591078067 201.70574545454545L 733.553903345725 185.20945454545455L 736.9888475836431 192.05076363636363L 740.4237918215613 192.71447272727272L 743.8587360594795 180.13236363636364L 747.2936802973977 194.51839999999999L 750.7286245353159 194.71694545454545L 754.1635687732343 201.86458181818182L 757.5985130111525 196.19752727272726L 761.0334572490707 204.50807272727272L 764.4684014869889 191.5856L 767.903345724907 180.36494545454545L 771.3382899628252 193.01512727272728L 774.7732342007434 186.23621818181817L 778.2081784386617 191.72174545454544L 781.6431226765799 191.46647272727273L 785.0780669144981 196.6456727272727L 788.5130111524164 200.8605090909091L 791.9479553903346 176.28058181818182L 795.3828996282529 165.6725818181818L 798.817843866171 181.8114909090909L 802.2527881040892 160.6749090909091L 805.6877323420074 163.8346181818182L 809.1226765799256 182.06109090909092L 812.5576208178438 130.59243636363635L 815.992565055762 190.47941818181818L 819.4275092936803 202.09716363636363L 822.8624535315986 184.08625454545455L 826.2973977695168 197.50225454545455L 829.732342007435 187.55796363636364L 833.1672862453531 192.95839999999998L 836.6022304832713 201.91563636363637L 840.0371747211896 184.41527272727274L 843.4721189591078 185.408L 846.907063197026 182.2482909090909L 850.3420074349442 182.44116363636363L 853.7769516728624 186.33832727272727L 857.2118959107808 174.31214545454546L 860.646840148699 183.09352727272727L 864.0817843866171 183.48494545454545L 867.5167286245353 184.51738181818183L 870.9516728624535 186.93396363636364L 874.3866171003717 169.84203636363637L 877.8215613382899 168.40683636363636L 881.2565055762082 203.32247272727273L 884.6914498141264 206L 888.1263940520446 128.27796363636364L 891.5613382899629 183.224L 894.996282527881 156.5338181818182L 898.4312267657992 182.98007272727273L 901.8661710037175 183.0765090909091L 905.3011152416357 182.2823272727273L 908.7360594795539 169.97250909090909L 912.1710037174721 186.76378181818183L 915.6059479553903 183.65512727272727L 919.0408921933085 186.22487272727273L 922.4758364312268 184.13163636363637L 925.9107806691451 184.83505454545454L 929.3457249070632 178.02210909090908L 932.7806691449814 180.59752727272726L 936.2156133828996 170.5794909090909L 939.6505576208178 177.88596363636364L 943.085501858736 175.84945454545453L 946.5204460966543 174.39723636363635L 949.9553903345725 175.26516363636364L 953.3903345724907 196.87825454545455L 956.8252788104089 149.95345454545455L 960.2602230483271 166.9773090909091L 963.6951672862454 174.22705454545454L 967.1301115241636 131.5794909090909L 970.5650557620818 144.20698181818182L 974 198.96581818181818" stroke-width="2.0" fill="none" />
    
        
        
        <text x="45.0" font-family="-apple-system, system-ui, BlinkMacSystemFont, Roboto" y="50.0" dominant-baseline="middle" text-anchor="end" font-size="12" fill="#24292f">27500.0</text>
        
            
            <path stroke="#74838f" stroke-dasharray="10 6" stroke-width="0.5"  d="M 50.0 50.0 L 974.0 50.0" />
        
    
        
        
        <text x="45.0" font-family="-apple-system, system-ui, BlinkMacSystemFont, Roboto" y="81.2" dominant-baseline="middle" text-anchor="end" font-size="12" fill="#24292f">22000.0</text>
        
            
            
            <path stroke="#74838f" stroke-dasharray="10 6" stroke-width="0.5"  d="M 50.0 81.2 L 974.0 81.2" />
        
    
        
        
        <text x="45.0" font-family="-apple-system, system-ui, BlinkMacSystemFont, Roboto" y="112.4" dominant-baseline="middle" text-anchor="end" font-size="12" fill="#24292f">16500.0</text>
        
            
            
            <path stroke="#74838f" stroke-dasharray="10 6" stroke-width="0.5"  d="M 50.0 112.4 L 974.0 112.4" />
        
    
        
        
        <text x="45.0" font-family="-apple-system, system-ui, BlinkMacSystemFont, Roboto" y="143.6" dominant-baseline="middle" text-anchor="end" font-size="12" fill="#24292f">11000.0</text>
        
            
            
            <path stroke="#74838f" stroke-dasharray="10 6" stroke-width="0.5"  d="M 50.0 143.6 L 974.0 143.6" />
        
    
        
        
        <text x="45.0" font-family="-apple-system, system-ui, BlinkMacSystemFont, Roboto" y="174.8" dominant-baseline="middle" text-anchor="end" font-size="12" fill="#24292f">5500.0</text>
        
            
            
            <path stroke="#74838f" stroke-dasharray="10 6" stroke-width="0.5"  d="M 50.0 174.8 L 974.0 174.8" />
        
    
        
        
        <text x="45.0" font-family="-apple-system, system-ui, BlinkMacSystemFont, Roboto" y="206.0" dominant-baseline="middle" text-anchor="end" font-size="12" fill="#24292f">0.0</text>
        
    
    
        
        <path stroke="#74838f"  stroke-width="2.0"  d="M 104.95910780669145 206.0 L 104.95910780669145 214.0" />
        <text x="104.95910780669145" font-family="-apple-system, system-ui, BlinkMacSystemFont, Roboto" y="216.0" dominant-baseline="hanging" text-anchor="middle" font-size="12" fill="#24292f">Mar 2022</text>
    
        
        <path stroke="#74838f"  stroke-width="2.0"  d="M 211.44237918215615 206.0 L 211.44237918215615 214.0" />
        <text x="211.44237918215615" font-family="-apple-system, system-ui, BlinkMacSystemFont, Roboto" y="216.0" dominant-baseline="hanging" text-anchor="middle" font-size="12" fill="#24292f">Apr 2022</text>
    
        
        <path stroke="#74838f"  stroke-width="2.0"  d="M 314.49070631970255 206.0 L 314.49070631970255 214.0" />
        <text x="314.49070631970255" font-family="-apple-system, system-ui, BlinkMacSystemFont, Roboto" y="216.0" dominant-baseline="hanging" text-anchor="middle" font-size="12" fill="#24292f">May 2022</text>
    
        
        <path stroke="#74838f"  stroke-width="2.0"  d="M 420.9739776951673 206.0 L 420.9739776951673 214.0" />
        <text x="420.9739776951673" font-family="-apple-system, system-ui, BlinkMacSystemFont, Roboto" y="216.0" dominant-baseline="hanging" text-anchor="middle" font-size="12" fill="#24292f">Jun 2022</text>
    
        
        <path stroke="#74838f"  stroke-width="2.0"  d="M 524.0223048327138 206.0 L 524.0223048327138 214.0" />
        <text x="524.0223048327138" font-family="-apple-system, system-ui, BlinkMacSystemFont, Roboto" y="216.0" dominant-baseline="hanging" text-anchor="middle" font-size="12" fill="#24292f">Jul 2022</text>
    
        
        <path stroke="#74838f"  stroke-width="2.0"  d="M 630.5055762081785 206.0 L 630.5055762081785 214.0" />
        <text x="630.5055762081785" font-family="-apple-system, system-ui, BlinkMacSystemFont, Roboto" y="216.0" dominant-baseline="hanging" text-anchor="middle" font-size="12" fill="#24292f">Aug 2022</text>
    
        
        <path stroke="#74838f"  stroke-width="2.0"  d="M 736.9888475836431 206.0 L 736.9888475836431 214.0" />
        <text x="736.9888475836431" font-family="-apple-system, system-ui, BlinkMacSystemFont, Roboto" y="216.0" dominant-baseline="hanging" text-anchor="middle" font-size="12" fill="#24292f">Sep 2022</text>
    
        
        <path stroke="#74838f"  stroke-width="2.0"  d="M 840.0371747211896 206.0 L 840.0371747211896 214.0" />
        <text x="840.0371747211896" font-family="-apple-system, system-ui, BlinkMacSystemFont, Roboto" y="216.0" dominant-baseline="hanging" text-anchor="middle" font-size="12" fill="#24292f">Oct 2022</text>
    
        
        <path stroke="#74838f"  stroke-width="2.0"  d="M 946.5204460966543 206.0 L 946.5204460966543 214.0" />
        <text x="946.5204460966543" font-family="-apple-system, system-ui, BlinkMacSystemFont, Roboto" y="216.0" dominant-baseline="hanging" text-anchor="middle" font-size="12" fill="#24292f">Nov 2022</text>
    
    <path stroke="#74838f"   stroke-linejoin="round" stroke-width="2.0" d="M 50.0 216.0 L 50.0 206.0 L 974.0 206.0 L 974.0 216.0"  fill="none" />
    <text x="512.0" y="25.0" font-family="-apple-system, system-ui, BlinkMacSystemFont, Roboto" dominant-baseline="middle" text-anchor="middle" font-size="18" fill="#24292f">Total daily screen name changes</text>
</svg>
