<?xml version="1.0" standalone="no"?>
<svg width="1024.0" height="256.0"  viewBox="0 0 1024.0 256.0" preserveAspectRatio="xMidYMid meet" xmlns="http://www.w3.org/2000/svg">
    <path stroke="#3498db" stroke-linejoin="round" d="M 50.0 203.3394909090909 L 50 203.3394909090909L 51.99568034557235 202.32974545454545L 53.991360691144706 196.86690909090908L 55.98704103671706 195.94792727272727L 57.98272138228942 202.14254545454546L 59.97840172786177 197.35476363636363L 61.974082073434126 191.76145454545454L 63.96976241900648 179.96218181818182L 65.96544276457884 204.09396363636364L 67.96112311015119 194.17236363636363L 69.95680345572354 192.61803636363635L 71.9524838012959 195.1253818181818L 73.94816414686825 193.92843636363637L 75.9438444924406 182.2482909090909L 77.93952483801296 200.86618181818181L 79.93520518358531 201.45614545454546L 81.93088552915768 178.89003636363637L 83.92656587473002 197.33774545454546L 85.92224622030238 198.50065454545455L 87.91792656587472 200.41803636363636L 89.91360691144709 201.18385454545455L 91.90928725701944 202.26734545454545L 93.9049676025918 195.09134545454546L 95.90064794816415 198.08087272727272L 97.8963282937365 183.38850909090908L 99.89200863930886 197.47389090909093L 101.88768898488121 202.01774545454546L 103.88336933045358 194.66021818181818L 105.87904967602591 200.75272727272727L 107.87473002159827 200.00392727272728L 109.87041036717063 201.97236363636364L 111.86609071274299 204.2754909090909L 113.86177105831534 201.74545454545455L 115.8574514038877 201.01367272727273L 117.85313174946005 174.7829818181818L 119.8488120950324 195.76072727272728L 121.84449244060475 204.0032L 123.8401727861771 203.7309090909091L 125.83585313174946 197.87665454545453L 127.83153347732181 202.60770909090908L 129.82721382289418 202.6928L 131.82289416846652 197.55898181818182L 133.8185745140389 186.5141818181818L 135.81425485961125 199.26647272727274L 137.8099352051836 199.5728L 139.80561555075593 193.4802909090909L 141.8012958963283 199.10763636363635L 143.79697624190067 201.54690909090908L 145.792656587473 201.5696L 147.78833693304534 195.06865454545454L 149.7840172786177 201.70007272727273L 151.77969762419008 197.2866909090909L 153.77537796976242 172.35505454545455L 155.77105831533476 203.20901818181818L 157.76673866090715 199.6749090909091L 159.7624190064795 193.12858181818183L 161.75809935205183 196.8896L 163.7537796976242 199.78836363636364L 165.74946004319654 198.82967272727274L 167.7451403887689 204.1336727272727L 169.74082073434127 202.57934545454546L 171.7365010799136 198.9261090909091L 173.73218142548598 206L 175.72786177105831 204.128L 177.72354211663068 192.1245090909091L 179.71922246220302 206L 181.7149028077754 206L 183.71058315334773 206L 185.7062634989201 206L 187.70194384449243 197.37178181818183L 189.6976241900648 199.57847272727273L 191.69330453563714 188.9024L 193.6889848812095 195.02894545454546L 195.68466522678187 191.20552727272727L 197.6803455723542 166.8128L 199.67602591792658 203.8386909090909L 201.67170626349892 198.09221818181817L 203.6673866090713 201.64334545454545L 205.66306695464363 202.2957090909091L 207.658747300216 203.22036363636363L 209.65442764578833 200.66763636363635L 211.6501079913607 191.51185454545455L 213.64578833693304 189.18603636363636L 215.6414686825054 203.86705454545455L 217.63714902807777 197.56465454545454L 219.6328293736501 187.32538181818182L 221.62850971922248 201.2349090909091L 223.62419006479482 200.44639999999998L 225.61987041036718 201.4618181818182L 227.61555075593952 201.09876363636363L 229.6112311015119 201.17818181818183L 231.60691144708423 193.02647272727273L 233.6025917926566 198.8069818181818L 235.59827213822894 203.39054545454545L 237.5939524838013 200.30458181818182L 239.58963282937367 198.35883636363636L 241.585313174946 193.3101090909091L 243.58099352051838 200.56552727272728L 245.57667386609072 203.03883636363636L 247.57235421166308 197.22996363636364L 249.56803455723542 201.95534545454547L 251.5637149028078 196.016L 253.55939524838013 202.30705454545455L 255.5550755939525 199.91316363636363L 257.55075593952483 194.62050909090908L 259.54643628509723 201.29163636363637L 261.5421166306695 202.98778181818182L 263.5377969762419 203.5437090909091L 265.5334773218143 200.60523636363638L 267.5291576673866 195.5621818181818L 269.524838012959 203.24305454545456L 271.5205183585313 200.15709090909093L 273.51619870410366 198.46661818181818L 275.51187904967605 201.70007272727273L 277.5075593952484 200.70734545454545L 279.50323974082073 200.4293818181818L 281.49892008639307 201.76814545454545L 283.4946004319654 204.6442181818182L 285.4902807775378 206L 287.4859611231102 196.35636363636365L 289.48164146868254 199.21541818181817L 291.4773218142549 156.87418181818182L 293.4730021598272 165.1506909090909L 295.46868250539956 204.1733818181818L 297.46436285097195 202.17658181818183L 299.46004319654423 199.31185454545454L 301.45572354211663 198.7842909090909L 303.451403887689 202.6757818181818L 305.44708423326136 202.8573090909091L 307.44276457883365 196.1861818181818L 309.43844492440604 199.64654545454545L 311.4341252699784 198.2056727272727L 313.4298056155508 201.2178909090909L 315.4254859611231 201.79083636363637L 317.42116630669545 201.90429090909092L 319.4168466522678 200.1968L 321.4125269978402 195.17076363636363L 323.4082073434125 206L 325.40388768898487 206L 327.3995680345572 206L 329.3952483801296 191.4834909090909L 331.39092872570194 197.79723636363636L 333.3866090712743 198.85236363636363L 335.3822894168466 199.76L 337.377969762419 200.03796363636363L 339.37365010799135 200.76407272727272L 341.36933045356375 201.80785454545455L 343.36501079913603 191.63098181818182L 345.3606911447084 194.41061818181817L 347.35637149028076 199.88479999999998L 349.35205183585316 152.63098181818182L 351.34773218142544 197.04843636363637L 353.34341252699784 194.4730181818182L 355.3390928725702 155.90414545454547L 357.3347732181426 91.60945454545454L 359.3304535637149 104.5376L 361.32613390928725 151.17876363636364L 363.3218142548596 185.1981090909091L 365.317494600432 142.76610909090908L 367.3131749460043 125.0672L 369.30885529157666 123.74545454545455L 371.304535637149 157.99738181818182L 373.3002159827214 53.56814545454546L 375.29589632829374 50.78850909090909L 377.2915766738661 100.02210909090908L 379.2872570194384 156.2445090909091L 381.2829373650108 180.31956363636363L 383.27861771058315 192.43650909090908L 385.27429805615554 193.63912727272728L 387.2699784017278 193.3328L 389.2656587473002 192.11316363636365L 391.26133909287256 197.93338181818183L 393.25701943844496 191.5629090909091L 395.25269978401724 198.7672727272727L 397.24838012958963 199.3005090909091L 399.244060475162 201.64901818181818L 401.23974082073437 200.58821818181818L 403.23542116630665 202.43752727272727L 405.23110151187905 200.73003636363637L 407.2267818574514 189.7703272727273L 409.2224622030238 203.17498181818183L 411.2181425485961 200.48610909090908L 413.21382289416846 185.1810909090909L 415.2095032397408 187.88698181818182L 417.2051835853132 191.01832727272728L 419.20086393088553 192.31738181818181L 421.19654427645787 177.09745454545455L 423.1922246220302 167.91330909090908L 425.1879049676026 179.30981818181817L 427.18358531317494 186.49716363636364L 429.17926565874734 150.34487272727273L 431.1749460043196 184.27345454545454L 433.170626349892 199.5104L 435.16630669546436 161.24785454545454L 437.16198704103675 155.49003636363636L 439.15766738660903 176.96130909090908L 441.15334773218143 190.30923636363636L 443.14902807775377 193.50865454545453L 445.14470842332616 201.72843636363638L 447.14038876889845 185.22647272727272L 449.13606911447084 192.03374545454545L 451.1317494600432 192.66909090909093L 453.1274298056156 180.18341818181818L 455.1231101511879 194.5013818181818L 457.11879049676025 194.6829090909091L 459.1144708423326 201.85323636363637L 461.110151187905 196.2032L 463.1058315334773 204.49105454545455L 465.10151187904967 191.55723636363638L 467.097192224622 180.36494545454545L 469.0928725701944 193.02647272727273L 471.08855291576674 186.20785454545455L 473.0842332613391 191.72741818181817L 475.0799136069114 191.4834909090909L 477.0755939524838 196.63432727272726L 479.07127429805615 200.7810909090909L 481.06695464362855 176.26923636363637L 483.06263498920083 165.78036363636363L 485.0583153347732 181.82850909090908L 487.05399568034557 160.6976L 489.04967602591796 163.93105454545454L 491.04535637149024 182.10647272727272L 493.04103671706264 130.808L 495.036717062635 190.49643636363635L 497.0323974082074 202.0914909090909L 499.02807775377966 184.09192727272728L 501.02375809935205 197.50225454545455L 503.0194384449244 187.54094545454547L 505.0151187904968 192.95272727272726L 507.0107991360691 201.88727272727272L 509.00647948164146 184.33585454545454L 511.0021598272138 183.04814545454545L 512.9978401727861 182.36741818181818L 514.9935205183585 182.54327272727272L 516.9892008639308 186.38938181818182L 518.9848812095032 174.3858909090909L 520.9805615550756 183.1786181818182L 522.9762419006479 183.5133090909091L 524.9719222462204 184.60247272727273L 526.9676025917927 186.968L 528.9632829373651 170.00087272727274L 530.9589632829372 167.8338909090909L 532.9546436285098 203.32247272727273L 534.950323974082 206L 536.9460043196544 128.43112727272728L 538.9416846652268 183.2637090909091L 540.9373650107991 156.8685090909091L 542.9330453563715 183.15592727272727L 544.9287257019439 183.2013090909091L 546.9244060475162 182.25963636363636L 548.9200863930885 170.18807272727273L 550.9157667386609 186.86589090909092L 552.9114470842333 183.77425454545454L 554.9071274298055 186.29861818181817L 556.902807775378 184.17134545454545L 558.8984881209503 184.9655272727273L 560.8941684665227 178.1696L 562.8898488120951 180.70530909090908L 564.8855291576673 170.80072727272727L 566.8812095032397 177.99374545454546L 568.8768898488121 175.99127272727273L 570.8725701943845 173.75621818181818L 572.8682505399568 175.45803636363638L 574.8639308855292 196.91796363636365L 576.8596112311016 150.30516363636363L 578.855291576674 167.34036363636363L 580.8509719222462 174.52203636363637L 582.8466522678185 132.05599999999998L 584.8423326133909 144.8309818181818L 586.8380129589633 173.60872727272726L 588.8336933045356 151.91054545454546L 590.829373650108 194.03621818181819L 592.8250539956804 160.59549090909093L 594.8207343412528 206L 596.816414686825 153.43650909090908L 598.8120950323975 181.01163636363637L 600.8077753779697 181.6413090909091L 602.8034557235421 182.49221818181817L 604.7991360691144 183.08785454545455L 606.7948164146868 206L 608.7904967602592 151.86516363636363L 610.7861771058316 172.45716363636365L 612.7818574514039 169.20669090909092L 614.7775377969763 178.22065454545455L 616.7732181425486 175.54312727272728L 618.768898488121 177.61367272727273L 620.7645788336932 181.0173090909091L 622.7602591792656 176.80814545454547L 624.755939524838 167.8962909090909L 626.7516198704104 167.1248L 628.7473002159827 176.62094545454545L 630.7429805615551 158.63272727272727L 632.7386609071275 151.3602909090909L 634.7343412526998 173.35345454545455L 636.7300215982721 206L 638.7257019438445 206L 640.7213822894169 206L 642.7170626349892 206L 644.7127429805615 206L 646.7084233261339 206L 648.7041036717063 206L 650.6997840172787 206L 652.6954643628509 206L 654.6911447084233 206L 656.6868250539957 206L 658.6825053995681 206L 660.6781857451404 206L 662.6738660907127 206L 664.6695464362851 206L 666.6652267818575 206L 668.6609071274298 206L 670.6565874730021 206L 672.6522678185745 206L 674.6479481641469 206L 676.6436285097192 206L 678.6393088552916 206L 680.634989200864 206L 682.6306695464364 206L 684.6263498920086 206L 686.6220302375809 206L 688.6177105831533 206L 690.6133909287257 206L 692.609071274298 206L 694.6047516198704 206L 696.6004319654428 206L 698.5961123110152 206L 700.5917926565875 206L 702.5874730021599 206L 704.5831533477321 206L 706.5788336933045 206L 708.5745140388768 206L 710.5701943844492 206L 712.5658747300216 206L 714.561555075594 206L 716.5572354211663 206L 718.5529157667387 206L 720.5485961123111 206L 722.5442764578834 206L 724.5399568034557 206L 726.535637149028 206L 728.5313174946004 206L 730.5269978401728 206L 732.5226781857451 206L 734.5183585313175 206L 736.5140388768899 206L 738.5097192224623 206L 740.5053995680345 206L 742.5010799136069 206L 744.4967602591793 206L 746.4924406047517 206L 748.488120950324 206L 750.4838012958963 206L 752.4794816414687 206L 754.4751619870411 206L 756.4708423326133 206L 758.4665226781857 206L 760.4622030237581 206L 762.4578833693305 206L 764.4535637149028 206L 766.4492440604752 206L 768.4449244060476 206L 770.44060475162 206L 772.4362850971922 206L 774.4319654427645 206L 776.4276457883369 206L 778.4233261339093 206L 780.4190064794816 206L 782.414686825054 206L 784.4103671706264 206L 786.4060475161988 206L 788.4017278617711 206L 790.3974082073435 206L 792.3930885529157 206L 794.3887688984881 206L 796.3844492440604 206L 798.3801295896328 206L 800.3758099352052 206L 802.3714902807776 206L 804.3671706263499 206L 806.3628509719223 206L 808.3585313174947 206L 810.354211663067 206L 812.3498920086392 206L 814.3455723542116 206L 816.341252699784 206L 818.3369330453564 206L 820.3326133909287 206L 822.3282937365011 206L 824.3239740820735 206L 826.3196544276458 206L 828.3153347732181 206L 830.3110151187905 206L 832.3066954643629 206L 834.3023758099353 206L 836.2980561555075 206L 838.2937365010799 206L 840.2894168466523 206L 842.2850971922246 206L 844.2807775377969 206L 846.2764578833693 206L 848.2721382289417 206L 850.2678185745141 206L 852.2634989200864 206L 854.2591792656588 206L 856.2548596112312 206L 858.2505399568034 206L 860.2462203023758 206L 862.2419006479481 206L 864.2375809935205 206L 866.2332613390929 206L 868.2289416846652 206L 870.2246220302376 206L 872.22030237581 206L 874.2159827213823 206L 876.2116630669547 206L 878.2073434125269 206L 880.2030237580993 206L 882.1987041036717 206L 884.194384449244 206L 886.1900647948164 206L 888.1857451403888 206L 890.1814254859612 206L 892.1771058315335 206L 894.1727861771059 206L 896.1684665226782 206L 898.1641468682506 206L 900.1598272138228 206L 902.1555075593952 206L 904.1511879049676 206L 906.14686825054 206L 908.1425485961123 206L 910.1382289416847 206L 912.1339092872571 206L 914.1295896328294 206L 916.1252699784017 206L 918.1209503239741 206L 920.1166306695465 206L 922.1123110151188 206L 924.1079913606911 206L 926.1036717062635 206L 928.0993520518359 206L 930.0950323974082 206L 932.0907127429805 206L 934.0863930885529 206L 936.0820734341253 206L 938.0777537796977 206L 940.07343412527 206L 942.0691144708424 206L 944.0647948164147 206L 946.060475161987 206L 948.0561555075593 206L 950.0518358531317 206L 952.0475161987041 206L 954.0431965442765 206L 956.0388768898488 206L 958.0345572354212 206L 960.0302375809936 206L 962.0259179265659 206L 964.0215982721382 206L 966.0172786177105 206L 968.0129589632829 206L 970.0086393088553 206L 972.0043196544276 206L 974 206" stroke-width="2.0" fill="none" />
    
        
        
        <text x="45.0" font-family="-apple-system, system-ui, BlinkMacSystemFont, Roboto" y="50.0" dominant-baseline="middle" text-anchor="end" font-size="12" fill="#24292f">27500.0</text>
        
            
            <path stroke="#74838f" stroke-dasharray="10 6" stroke-width="0.5"  d="M 50.0 50.0 L 974.0 50.0" />
        
    
        
        
        <text x="45.0" font-family="-apple-system, system-ui, BlinkMacSystemFont, Roboto" y="81.2" dominant-baseline="middle" text-anchor="end" font-size="12" fill="#24292f">22000.0</text>
        
            
            
            <path stroke="#74838f" stroke-dasharray="10 6" stroke-width="0.5"  d="M 50.0 81.2 L 974.0 81.2" />
        
    
        
        
        <text x="45.0" font-family="-apple-system, system-ui, BlinkMacSystemFont, Roboto" y="112.4" dominant-baseline="middle" text-anchor="end" font-size="12" fill="#24292f">16500.0</text>
        
            
            
            <path stroke="#74838f" stroke-dasharray="10 6" stroke-width="0.5"  d="M 50.0 112.4 L 974.0 112.4" />
        
    
        
        
        <text x="45.0" font-family="-apple-system, system-ui, BlinkMacSystemFont, Roboto" y="143.6" dominant-baseline="middle" text-anchor="end" font-size="12" fill="#24292f">11000.0</text>
        
            
            
            <path stroke="#74838f" stroke-dasharray="10 6" stroke-width="0.5"  d="M 50.0 143.6 L 974.0 143.6" />
        
    
        
        
        <text x="45.0" font-family="-apple-system, system-ui, BlinkMacSystemFont, Roboto" y="174.8" dominant-baseline="middle" text-anchor="end" font-size="12" fill="#24292f">5500.0</text>
        
            
            
            <path stroke="#74838f" stroke-dasharray="10 6" stroke-width="0.5"  d="M 50.0 174.8 L 974.0 174.8" />
        
    
        
        
        <text x="45.0" font-family="-apple-system, system-ui, BlinkMacSystemFont, Roboto" y="206.0" dominant-baseline="middle" text-anchor="end" font-size="12" fill="#24292f">0.0</text>
        
    
    
        
        <path stroke="#74838f"  stroke-width="2.0"  d="M 81.93088552915768 206.0 L 81.93088552915768 214.0" />
        <text x="81.93088552915768" font-family="-apple-system, system-ui, BlinkMacSystemFont, Roboto" y="216.0" dominant-baseline="hanging" text-anchor="middle" font-size="12" fill="#24292f">Mar 2022</text>
    
        
        <path stroke="#74838f"  stroke-width="2.0"  d="M 143.79697624190067 206.0 L 143.79697624190067 214.0" />
        <text x="143.79697624190067" font-family="-apple-system, system-ui, BlinkMacSystemFont, Roboto" y="216.0" dominant-baseline="hanging" text-anchor="middle" font-size="12" fill="#24292f">Apr 2022</text>
    
        
        <path stroke="#74838f"  stroke-width="2.0"  d="M 203.6673866090713 206.0 L 203.6673866090713 214.0" />
        <text x="203.6673866090713" font-family="-apple-system, system-ui, BlinkMacSystemFont, Roboto" y="216.0" dominant-baseline="hanging" text-anchor="middle" font-size="12" fill="#24292f">May 2022</text>
    
        
        <path stroke="#74838f"  stroke-width="2.0"  d="M 265.5334773218143 206.0 L 265.5334773218143 214.0" />
        <text x="265.5334773218143" font-family="-apple-system, system-ui, BlinkMacSystemFont, Roboto" y="216.0" dominant-baseline="hanging" text-anchor="middle" font-size="12" fill="#24292f">Jun 2022</text>
    
        
        <path stroke="#74838f"  stroke-width="2.0"  d="M 325.40388768898487 206.0 L 325.40388768898487 214.0" />
        <text x="325.40388768898487" font-family="-apple-system, system-ui, BlinkMacSystemFont, Roboto" y="216.0" dominant-baseline="hanging" text-anchor="middle" font-size="12" fill="#24292f">Jul 2022</text>
    
        
        <path stroke="#74838f"  stroke-width="2.0"  d="M 387.2699784017278 206.0 L 387.2699784017278 214.0" />
        <text x="387.2699784017278" font-family="-apple-system, system-ui, BlinkMacSystemFont, Roboto" y="216.0" dominant-baseline="hanging" text-anchor="middle" font-size="12" fill="#24292f">Aug 2022</text>
    
        
        <path stroke="#74838f"  stroke-width="2.0"  d="M 449.13606911447084 206.0 L 449.13606911447084 214.0" />
        <text x="449.13606911447084" font-family="-apple-system, system-ui, BlinkMacSystemFont, Roboto" y="216.0" dominant-baseline="hanging" text-anchor="middle" font-size="12" fill="#24292f">Sep 2022</text>
    
        
        <path stroke="#74838f"  stroke-width="2.0"  d="M 509.00647948164146 206.0 L 509.00647948164146 214.0" />
        <text x="509.00647948164146" font-family="-apple-system, system-ui, BlinkMacSystemFont, Roboto" y="216.0" dominant-baseline="hanging" text-anchor="middle" font-size="12" fill="#24292f">Oct 2022</text>
    
        
        <path stroke="#74838f"  stroke-width="2.0"  d="M 570.8725701943845 206.0 L 570.8725701943845 214.0" />
        <text x="570.8725701943845" font-family="-apple-system, system-ui, BlinkMacSystemFont, Roboto" y="216.0" dominant-baseline="hanging" text-anchor="middle" font-size="12" fill="#24292f">Nov 2022</text>
    
        
        <path stroke="#74838f"  stroke-width="2.0"  d="M 630.7429805615551 206.0 L 630.7429805615551 214.0" />
        <text x="630.7429805615551" font-family="-apple-system, system-ui, BlinkMacSystemFont, Roboto" y="216.0" dominant-baseline="hanging" text-anchor="middle" font-size="12" fill="#24292f">Dec 2022</text>
    
        
        <path stroke="#74838f"  stroke-width="2.0"  d="M 692.609071274298 206.0 L 692.609071274298 214.0" />
        <text x="692.609071274298" font-family="-apple-system, system-ui, BlinkMacSystemFont, Roboto" y="216.0" dominant-baseline="hanging" text-anchor="middle" font-size="12" fill="#24292f">Jan 2023</text>
    
        
        <path stroke="#74838f"  stroke-width="2.0"  d="M 754.4751619870411 206.0 L 754.4751619870411 214.0" />
        <text x="754.4751619870411" font-family="-apple-system, system-ui, BlinkMacSystemFont, Roboto" y="216.0" dominant-baseline="hanging" text-anchor="middle" font-size="12" fill="#24292f">Feb 2023</text>
    
        
        <path stroke="#74838f"  stroke-width="2.0"  d="M 810.354211663067 206.0 L 810.354211663067 214.0" />
        <text x="810.354211663067" font-family="-apple-system, system-ui, BlinkMacSystemFont, Roboto" y="216.0" dominant-baseline="hanging" text-anchor="middle" font-size="12" fill="#24292f">Mar 2023</text>
    
        
        <path stroke="#74838f"  stroke-width="2.0"  d="M 872.22030237581 206.0 L 872.22030237581 214.0" />
        <text x="872.22030237581" font-family="-apple-system, system-ui, BlinkMacSystemFont, Roboto" y="216.0" dominant-baseline="hanging" text-anchor="middle" font-size="12" fill="#24292f">Apr 2023</text>
    
        
        <path stroke="#74838f"  stroke-width="2.0"  d="M 932.0907127429805 206.0 L 932.0907127429805 214.0" />
        <text x="932.0907127429805" font-family="-apple-system, system-ui, BlinkMacSystemFont, Roboto" y="216.0" dominant-baseline="hanging" text-anchor="middle" font-size="12" fill="#24292f">May 2023</text>
    
    <path stroke="#74838f"   stroke-linejoin="round" stroke-width="2.0" d="M 50.0 216.0 L 50.0 206.0 L 974.0 206.0 L 974.0 216.0"  fill="none" />
    <text x="512.0" y="25.0" font-family="-apple-system, system-ui, BlinkMacSystemFont, Roboto" dominant-baseline="middle" text-anchor="middle" font-size="18" fill="#24292f">Total daily screen name changes</text>
</svg>
