<?xml version="1.0" standalone="no"?>
<svg width="1024.0" height="256.0"  viewBox="0 0 1024.0 256.0" preserveAspectRatio="xMidYMid meet" xmlns="http://www.w3.org/2000/svg">
    <path stroke="#3498db" stroke-linejoin="round" d="M 50.0 203.3394909090909 L 50 203.3394909090909L 52.01307189542484 202.32974545454545L 54.02614379084967 196.86690909090908L 56.03921568627451 195.94792727272727L 58.052287581699346 202.14254545454546L 60.06535947712418 197.35476363636363L 62.07843137254902 191.76145454545454L 64.09150326797385 179.96218181818182L 66.10457516339869 204.09396363636364L 68.11764705882354 194.17236363636363L 70.13071895424837 192.61803636363635L 72.1437908496732 195.1253818181818L 74.15686274509804 193.92843636363637L 76.16993464052288 182.2482909090909L 78.18300653594771 200.86618181818181L 80.19607843137256 201.45614545454546L 82.20915032679738 178.89003636363637L 84.22222222222223 197.33774545454546L 86.23529411764706 198.50065454545455L 88.24836601307189 200.41803636363636L 90.26143790849673 201.18385454545455L 92.27450980392157 202.26734545454545L 94.2875816993464 195.09134545454546L 96.30065359477123 198.08087272727272L 98.31372549019608 183.38850909090908L 100.32679738562092 197.47389090909093L 102.33986928104575 202.01774545454546L 104.35294117647058 194.66021818181818L 106.36601307189542 200.75272727272727L 108.37908496732027 200.00392727272728L 110.39215686274511 201.97236363636364L 112.40522875816994 204.2754909090909L 114.41830065359478 201.74545454545455L 116.4313725490196 201.01367272727273L 118.44444444444444 174.7829818181818L 120.45751633986927 195.76072727272728L 122.47058823529412 204.0032L 124.48366013071896 203.7309090909091L 126.49673202614379 197.87665454545453L 128.50980392156862 202.60770909090908L 130.52287581699346 202.6928L 132.5359477124183 197.55898181818182L 134.54901960784315 186.5141818181818L 136.56209150326796 199.26647272727274L 138.5751633986928 199.5728L 140.58823529411765 193.4802909090909L 142.60130718954247 199.10763636363635L 144.6143790849673 201.54690909090908L 146.62745098039215 201.5696L 148.640522875817 195.06865454545454L 150.65359477124184 201.70007272727273L 152.66666666666666 197.2866909090909L 154.6797385620915 172.35505454545455L 156.69281045751632 203.20901818181818L 158.70588235294116 199.6749090909091L 160.718954248366 193.12858181818183L 162.73202614379085 196.8896L 164.7450980392157 199.78836363636364L 166.75816993464053 198.82967272727274L 168.77124183006538 204.1336727272727L 170.78431372549022 202.57934545454546L 172.79738562091504 198.9261090909091L 174.81045751633988 206L 176.8235294117647 204.128L 178.83660130718957 192.1245090909091L 180.84967320261435 206L 182.8627450980392 206L 184.87581699346404 206L 186.88888888888889 206L 188.90196078431373 197.37178181818183L 190.91503267973854 199.57847272727273L 192.9281045751634 188.9024L 194.94117647058823 195.02894545454546L 196.95424836601308 191.20552727272727L 198.96732026143792 166.8128L 200.98039215686273 203.8386909090909L 202.99346405228758 198.09221818181817L 205.00653594771242 201.64334545454545L 207.01960784313727 202.2957090909091L 209.0326797385621 203.22036363636363L 211.04575163398692 200.66763636363635L 213.05882352941177 191.51185454545455L 215.0718954248366 189.18603636363636L 217.08496732026143 203.86705454545455L 219.09803921568627 197.56465454545454L 221.11111111111111 187.32538181818182L 223.12418300653593 201.2349090909091L 225.13725490196077 200.44639999999998L 227.15032679738562 201.4618181818182L 229.16339869281046 201.09876363636363L 231.1764705882353 201.17818181818183L 233.18954248366012 193.02647272727273L 235.20261437908496 198.8069818181818L 237.2156862745098 203.39054545454545L 239.22875816993465 200.30458181818182L 241.2418300653595 198.35883636363636L 243.2549019607843 193.3101090909091L 245.26797385620915 200.56552727272728L 247.281045751634 203.03883636363636L 249.29411764705884 197.22996363636364L 251.30718954248368 201.95534545454547L 253.32026143790847 196.016L 255.33333333333331 202.30705454545455L 257.34640522875816 199.91316363636363L 259.359477124183 194.62050909090908L 261.37254901960785 201.29163636363637L 263.38562091503263 202.98778181818182L 265.39869281045753 203.5437090909091L 267.4117647058823 200.60523636363638L 269.4248366013072 195.5621818181818L 271.437908496732 203.24305454545456L 273.45098039215685 200.15709090909093L 275.4640522875817 198.46661818181818L 277.47712418300654 201.70007272727273L 279.4901960784314 200.70734545454545L 281.50326797385617 200.4293818181818L 283.51633986928107 201.76814545454545L 285.52941176470586 204.6442181818182L 287.54248366013076 206L 289.55555555555554 196.35636363636365L 291.56862745098044 199.21541818181817L 293.58169934640523 156.87418181818182L 295.5947712418301 165.1506909090909L 297.6078431372549 204.1733818181818L 299.62091503267976 202.17658181818183L 301.6339869281046 199.31185454545454L 303.6470588235294 198.7842909090909L 305.66013071895424 202.6757818181818L 307.67320261437914 202.8573090909091L 309.6862745098039 196.1861818181818L 311.6993464052287 199.64654545454545L 313.7124183006536 198.2056727272727L 315.7254901960784 201.2178909090909L 317.7385620915033 201.79083636363637L 319.7516339869281 201.90429090909092L 321.7647058823529 200.1968L 323.77777777777777 195.17076363636363L 325.7908496732026 206L 327.80392156862746 206L 329.8169934640523 206L 331.8300653594771 191.4834909090909L 333.843137254902 197.79723636363636L 335.8562091503268 198.85236363636363L 337.8692810457517 199.76L 339.88235294117646 200.03796363636363L 341.8954248366013 200.76407272727272L 343.90849673202615 201.80785454545455L 345.92156862745094 191.63098181818182L 347.93464052287584 194.41061818181817L 349.9477124183006 199.88479999999998L 351.96078431372547 152.63098181818182L 353.9738562091503 197.04843636363637L 355.98692810457516 194.4730181818182L 358 155.90414545454547L 360.01307189542484 91.60945454545454L 362.0261437908497 104.5376L 364.03921568627453 151.17876363636364L 366.0522875816993 185.1981090909091L 368.0653594771242 142.76610909090908L 370.078431372549 125.0672L 372.09150326797385 123.74545454545455L 374.1045751633987 157.99738181818182L 376.11764705882354 53.56814545454546L 378.1307189542484 50.78850909090909L 380.1437908496732 100.02210909090908L 382.15686274509807 156.2445090909091L 384.16993464052285 180.31956363636363L 386.1830065359477 192.43650909090908L 388.19607843137254 193.63912727272728L 390.2091503267974 193.3328L 392.22222222222223 192.11316363636365L 394.2352941176471 197.93338181818183L 396.24836601307186 191.5629090909091L 398.26143790849676 198.7672727272727L 400.27450980392155 199.3005090909091L 402.28758169934645 201.64901818181818L 404.30065359477123 200.58821818181818L 406.3137254901961 202.43752727272727L 408.3267973856209 200.73003636363637L 410.33986928104576 189.7703272727273L 412.3529411764706 203.17498181818183L 414.36601307189545 200.48610909090908L 416.37908496732024 185.1810909090909L 418.39215686274514 187.88698181818182L 420.4052287581699 191.01832727272728L 422.41830065359477 192.31738181818181L 424.4313725490196 177.09745454545455L 426.4444444444444 167.91330909090908L 428.4575163398693 179.30981818181817L 430.4705882352941 186.49716363636364L 432.483660130719 150.34487272727273L 434.4967320261438 184.27345454545454L 436.5098039215686 199.5104L 438.52287581699346 161.24785454545454L 440.5359477124183 155.49003636363636L 442.54901960784315 176.96130909090908L 444.562091503268 190.30923636363636L 446.5751633986928 193.50865454545453L 448.5882352941177 201.72843636363638L 450.60130718954247 185.22647272727272L 452.61437908496737 192.03374545454545L 454.62745098039215 192.66909090909093L 456.64052287581694 180.18341818181818L 458.65359477124184 194.5013818181818L 460.66666666666663 194.6829090909091L 462.67973856209153 201.85323636363637L 464.6928104575163 196.2032L 466.70588235294116 204.49105454545455L 468.718954248366 191.55723636363638L 470.73202614379085 180.36494545454545L 472.7450980392157 193.02647272727273L 474.75816993464053 186.20785454545455L 476.7712418300653 191.72741818181817L 478.7843137254902 191.4834909090909L 480.797385620915 196.63432727272726L 482.8104575163399 200.7810909090909L 484.8235294117647 176.26923636363637L 486.83660130718954 165.78036363636363L 488.8496732026144 181.82850909090908L 490.8627450980392 160.6976L 492.87581699346407 163.93105454545454L 494.88888888888886 182.10647272727272L 496.9019607843137 130.808L 498.91503267973854 190.49643636363635L 500.9281045751634 202.0914909090909L 502.94117647058823 184.09192727272728L 504.9542483660131 197.50225454545455L 506.9673202614379 187.54094545454547L 508.98039215686276 192.95272727272726L 510.99346405228755 201.88727272727272L 513.0065359477123 184.33585454545454L 515.0196078431372 183.04814545454545L 517.0326797385621 182.36741818181818L 519.045751633987 182.54327272727272L 521.0588235294117 186.38938181818182L 523.0718954248366 174.3858909090909L 525.0849673202615 183.1786181818182L 527.0980392156863 183.5133090909091L 529.1111111111111 184.60247272727273L 531.124183006536 186.968L 533.1372549019609 170.00087272727274L 535.1503267973856 167.8338909090909L 537.1633986928105 203.32247272727273L 539.1764705882354 206L 541.1895424836601 128.43112727272728L 543.2026143790849 183.2637090909091L 545.2156862745098 156.8685090909091L 547.2287581699347 183.15592727272727L 549.2418300653595 183.2013090909091L 551.2549019607843 182.25963636363636L 553.2679738562092 170.18807272727273L 555.281045751634 186.86589090909092L 557.2941176470588 183.77425454545454L 559.3071895424837 186.29861818181817L 561.3202614379085 184.17134545454545L 563.3333333333334 184.9655272727273L 565.3464052287583 178.1696L 567.359477124183 180.70530909090908L 569.3725490196078 170.80072727272727L 571.3856209150327 177.99374545454546L 573.3986928104574 175.99127272727273L 575.4117647058823 173.75621818181818L 577.4248366013072 175.45803636363638L 579.437908496732 196.91796363636365L 581.4509803921568 150.30516363636363L 583.4640522875817 167.34036363636363L 585.4771241830066 174.52203636363637L 587.4901960784314 132.05599999999998L 589.5032679738562 144.8309818181818L 591.5163398692811 173.60872727272726L 593.5294117647059 151.91054545454546L 595.5424836601308 194.03621818181819L 597.5555555555555 160.59549090909093L 599.5686274509804 206L 601.5816993464052 153.43650909090908L 603.5947712418301 181.01163636363637L 605.6078431372549 181.6413090909091L 607.6209150326797 182.49221818181817L 609.6339869281046 183.08785454545455L 611.6470588235294 206L 613.6601307189542 151.86516363636363L 615.6732026143791 172.45716363636365L 617.686274509804 169.20669090909092L 619.6993464052288 178.22065454545455L 621.7124183006536 175.54312727272728L 623.7254901960785 177.61367272727273L 625.7385620915034 181.0173090909091L 627.751633986928 176.80814545454547L 629.7647058823529 167.8962909090909L 631.7777777777778 167.1248L 633.7908496732026 176.62094545454545L 635.8039215686274 158.63272727272727L 637.8169934640523 151.3602909090909L 639.8300653594772 173.35345454545455L 641.8431372549019 206L 643.8562091503268 206L 645.8692810457517 206L 647.8823529411765 206L 649.8954248366013 206L 651.9084967320262 206L 653.9215686274509 206L 655.9346405228758 206L 657.9477124183006 206L 659.9607843137255 206L 661.9738562091503 206L 663.9869281045752 206L 666 206L 668.0130718954248 206L 670.0261437908497 206L 672.0392156862746 206L 674.0522875816994 206L 676.0653594771242 206L 678.0784313725491 206L 680.0915032679738 206L 682.1045751633986 206L 684.1176470588235 206L 686.1307189542484 206L 688.1437908496731 206L 690.156862745098 206L 692.1699346405229 206L 694.1830065359477 206L 696.1960784313725 206L 698.2091503267974 206L 700.2222222222223 206L 702.2352941176471 206L 704.2483660130719 206L 706.2614379084968 206L 708.2745098039215 206L 710.2875816993464 206L 712.3006535947712 206L 714.3137254901961 206L 716.3267973856209 206L 718.3398692810457 206L 720.3529411764706 206L 722.3660130718954 206L 724.3790849673203 206L 726.3921568627451 206L 728.4052287581699 206L 730.4183006535948 206L 732.4313725490197 206L 734.4444444444445 206L 736.4575163398692 206L 738.4705882352941 206L 740.483660130719 206L 742.4967320261437 206L 744.5098039215686 206L 746.5228758169935 206L 748.5359477124183 206L 750.5490196078431 206L 752.562091503268 206L 754.5751633986929 206L 756.5882352941176 206L 758.6013071895425 206L 760.6143790849674 206L 762.6274509803922 206L 764.6405228758169 206L 766.6535947712418 206L 768.6666666666666 206L 770.6797385620915 206L 772.6928104575163 206L 774.7058823529412 206L 776.718954248366 206L 778.7320261437909 206L 780.7450980392157 206L 782.7581699346405 206L 784.7712418300654 206L 786.7843137254903 206L 788.797385620915 206L 790.8104575163399 206L 792.8235294117648 206L 794.8366013071895 206L 796.8496732026143 206L 798.8627450980392 206L 800.8758169934641 206L 802.8888888888888 206L 804.9019607843137 206L 806.9150326797386 206L 808.9281045751634 206L 810.9411764705882 206L 812.9542483660131 206L 814.967320261438 206L 816.9803921568628 206L 818.9934640522875 206L 821.0065359477125 206L 823.0196078431372 206L 825.0326797385621 206L 827.0457516339869 206L 829.0588235294117 206L 831.0718954248366 206L 833.0849673202614 206L 835.0980392156863 206L 837.1111111111111 206L 839.124183006536 206L 841.1372549019608 206L 843.1503267973856 206L 845.1633986928105 206L 847.1764705882354 206L 849.1895424836601 206L 851.2026143790849 206L 853.2156862745098 206L 855.2287581699347 206L 857.2418300653594 206L 859.2549019607843 206L 861.2679738562092 206L 863.2810457516339 206L 865.2941176470588 206L 867.3071895424837 206L 869.3202614379085 206L 871.3333333333333 206L 873.3464052287582 206L 875.3594771241831 206L 877.3725490196078 206L 879.3856209150326 206L 881.3986928104575 206L 883.4117647058823 206L 885.4248366013072 206L 887.437908496732 206L 889.4509803921569 206L 891.4640522875817 206L 893.4771241830066 206L 895.4901960784314 206L 897.5032679738562 206L 899.5163398692811 206L 901.5294117647059 206L 903.5424836601306 206L 905.5555555555555 206L 907.5686274509804 206L 909.5816993464052 206L 911.59477124183 206L 913.6078431372549 206L 915.6209150326798 206L 917.6339869281045 206L 919.6470588235294 206L 921.6601307189543 206L 923.6732026143791 206L 925.6862745098039 206L 927.6993464052288 206L 929.7124183006537 206L 931.7254901960785 206L 933.7385620915032 206L 935.7516339869281 206L 937.7647058823529 206L 939.7777777777777 206L 941.7908496732026 206L 943.8039215686274 206L 945.8169934640523 206L 947.8300653594771 206L 949.843137254902 206L 951.8562091503268 206L 953.8692810457517 206L 955.8823529411765 206L 957.8954248366013 206L 959.9084967320262 206L 961.921568627451 206L 963.9346405228758 206L 965.9477124183006 206L 967.9607843137255 206L 969.9738562091504 206L 971.9869281045751 206L 974 206" stroke-width="2.0" fill="none" />
    
        
        
        <text x="45.0" font-family="-apple-system, system-ui, BlinkMacSystemFont, Roboto" y="50.0" dominant-baseline="middle" text-anchor="end" font-size="12" fill="#24292f">27500.0</text>
        
            
            <path stroke="#74838f" stroke-dasharray="10 6" stroke-width="0.5"  d="M 50.0 50.0 L 974.0 50.0" />
        
    
        
        
        <text x="45.0" font-family="-apple-system, system-ui, BlinkMacSystemFont, Roboto" y="81.2" dominant-baseline="middle" text-anchor="end" font-size="12" fill="#24292f">22000.0</text>
        
            
            
            <path stroke="#74838f" stroke-dasharray="10 6" stroke-width="0.5"  d="M 50.0 81.2 L 974.0 81.2" />
        
    
        
        
        <text x="45.0" font-family="-apple-system, system-ui, BlinkMacSystemFont, Roboto" y="112.4" dominant-baseline="middle" text-anchor="end" font-size="12" fill="#24292f">16500.0</text>
        
            
            
            <path stroke="#74838f" stroke-dasharray="10 6" stroke-width="0.5"  d="M 50.0 112.4 L 974.0 112.4" />
        
    
        
        
        <text x="45.0" font-family="-apple-system, system-ui, BlinkMacSystemFont, Roboto" y="143.6" dominant-baseline="middle" text-anchor="end" font-size="12" fill="#24292f">11000.0</text>
        
            
            
            <path stroke="#74838f" stroke-dasharray="10 6" stroke-width="0.5"  d="M 50.0 143.6 L 974.0 143.6" />
        
    
        
        
        <text x="45.0" font-family="-apple-system, system-ui, BlinkMacSystemFont, Roboto" y="174.8" dominant-baseline="middle" text-anchor="end" font-size="12" fill="#24292f">5500.0</text>
        
            
            
            <path stroke="#74838f" stroke-dasharray="10 6" stroke-width="0.5"  d="M 50.0 174.8 L 974.0 174.8" />
        
    
        
        
        <text x="45.0" font-family="-apple-system, system-ui, BlinkMacSystemFont, Roboto" y="206.0" dominant-baseline="middle" text-anchor="end" font-size="12" fill="#24292f">0.0</text>
        
    
    
        
        <path stroke="#74838f"  stroke-width="2.0"  d="M 82.20915032679738 206.0 L 82.20915032679738 214.0" />
        <text x="82.20915032679738" font-family="-apple-system, system-ui, BlinkMacSystemFont, Roboto" y="216.0" dominant-baseline="hanging" text-anchor="middle" font-size="12" fill="#24292f">Mar 2022</text>
    
        
        <path stroke="#74838f"  stroke-width="2.0"  d="M 144.6143790849673 206.0 L 144.6143790849673 214.0" />
        <text x="144.6143790849673" font-family="-apple-system, system-ui, BlinkMacSystemFont, Roboto" y="216.0" dominant-baseline="hanging" text-anchor="middle" font-size="12" fill="#24292f">Apr 2022</text>
    
        
        <path stroke="#74838f"  stroke-width="2.0"  d="M 205.00653594771242 206.0 L 205.00653594771242 214.0" />
        <text x="205.00653594771242" font-family="-apple-system, system-ui, BlinkMacSystemFont, Roboto" y="216.0" dominant-baseline="hanging" text-anchor="middle" font-size="12" fill="#24292f">May 2022</text>
    
        
        <path stroke="#74838f"  stroke-width="2.0"  d="M 267.4117647058823 206.0 L 267.4117647058823 214.0" />
        <text x="267.4117647058823" font-family="-apple-system, system-ui, BlinkMacSystemFont, Roboto" y="216.0" dominant-baseline="hanging" text-anchor="middle" font-size="12" fill="#24292f">Jun 2022</text>
    
        
        <path stroke="#74838f"  stroke-width="2.0"  d="M 327.80392156862746 206.0 L 327.80392156862746 214.0" />
        <text x="327.80392156862746" font-family="-apple-system, system-ui, BlinkMacSystemFont, Roboto" y="216.0" dominant-baseline="hanging" text-anchor="middle" font-size="12" fill="#24292f">Jul 2022</text>
    
        
        <path stroke="#74838f"  stroke-width="2.0"  d="M 390.2091503267974 206.0 L 390.2091503267974 214.0" />
        <text x="390.2091503267974" font-family="-apple-system, system-ui, BlinkMacSystemFont, Roboto" y="216.0" dominant-baseline="hanging" text-anchor="middle" font-size="12" fill="#24292f">Aug 2022</text>
    
        
        <path stroke="#74838f"  stroke-width="2.0"  d="M 452.61437908496737 206.0 L 452.61437908496737 214.0" />
        <text x="452.61437908496737" font-family="-apple-system, system-ui, BlinkMacSystemFont, Roboto" y="216.0" dominant-baseline="hanging" text-anchor="middle" font-size="12" fill="#24292f">Sep 2022</text>
    
        
        <path stroke="#74838f"  stroke-width="2.0"  d="M 513.0065359477123 206.0 L 513.0065359477123 214.0" />
        <text x="513.0065359477123" font-family="-apple-system, system-ui, BlinkMacSystemFont, Roboto" y="216.0" dominant-baseline="hanging" text-anchor="middle" font-size="12" fill="#24292f">Oct 2022</text>
    
        
        <path stroke="#74838f"  stroke-width="2.0"  d="M 575.4117647058823 206.0 L 575.4117647058823 214.0" />
        <text x="575.4117647058823" font-family="-apple-system, system-ui, BlinkMacSystemFont, Roboto" y="216.0" dominant-baseline="hanging" text-anchor="middle" font-size="12" fill="#24292f">Nov 2022</text>
    
        
        <path stroke="#74838f"  stroke-width="2.0"  d="M 635.8039215686274 206.0 L 635.8039215686274 214.0" />
        <text x="635.8039215686274" font-family="-apple-system, system-ui, BlinkMacSystemFont, Roboto" y="216.0" dominant-baseline="hanging" text-anchor="middle" font-size="12" fill="#24292f">Dec 2022</text>
    
        
        <path stroke="#74838f"  stroke-width="2.0"  d="M 698.2091503267974 206.0 L 698.2091503267974 214.0" />
        <text x="698.2091503267974" font-family="-apple-system, system-ui, BlinkMacSystemFont, Roboto" y="216.0" dominant-baseline="hanging" text-anchor="middle" font-size="12" fill="#24292f">Jan 2023</text>
    
        
        <path stroke="#74838f"  stroke-width="2.0"  d="M 760.6143790849674 206.0 L 760.6143790849674 214.0" />
        <text x="760.6143790849674" font-family="-apple-system, system-ui, BlinkMacSystemFont, Roboto" y="216.0" dominant-baseline="hanging" text-anchor="middle" font-size="12" fill="#24292f">Feb 2023</text>
    
        
        <path stroke="#74838f"  stroke-width="2.0"  d="M 816.9803921568628 206.0 L 816.9803921568628 214.0" />
        <text x="816.9803921568628" font-family="-apple-system, system-ui, BlinkMacSystemFont, Roboto" y="216.0" dominant-baseline="hanging" text-anchor="middle" font-size="12" fill="#24292f">Mar 2023</text>
    
        
        <path stroke="#74838f"  stroke-width="2.0"  d="M 879.3856209150326 206.0 L 879.3856209150326 214.0" />
        <text x="879.3856209150326" font-family="-apple-system, system-ui, BlinkMacSystemFont, Roboto" y="216.0" dominant-baseline="hanging" text-anchor="middle" font-size="12" fill="#24292f">Apr 2023</text>
    
        
        <path stroke="#74838f"  stroke-width="2.0"  d="M 939.7777777777777 206.0 L 939.7777777777777 214.0" />
        <text x="939.7777777777777" font-family="-apple-system, system-ui, BlinkMacSystemFont, Roboto" y="216.0" dominant-baseline="hanging" text-anchor="middle" font-size="12" fill="#24292f">May 2023</text>
    
    <path stroke="#74838f"   stroke-linejoin="round" stroke-width="2.0" d="M 50.0 216.0 L 50.0 206.0 L 974.0 206.0 L 974.0 216.0"  fill="none" />
    <text x="512.0" y="25.0" font-family="-apple-system, system-ui, BlinkMacSystemFont, Roboto" dominant-baseline="middle" text-anchor="middle" font-size="18" fill="#24292f">Total daily screen name changes</text>
</svg>
