<?xml version="1.0" standalone="no"?>
<svg width="1024.0" height="256.0"  viewBox="0 0 1024.0 256.0" preserveAspectRatio="xMidYMid meet" xmlns="http://www.w3.org/2000/svg">
    <path stroke="#3498db" stroke-linejoin="round" d="M 50.0 203.3394909090909 L 50 203.3394909090909L 51.90515463917526 202.32974545454545L 53.810309278350516 196.86690909090908L 55.715463917525774 195.94792727272727L 57.62061855670103 202.14254545454546L 59.52577319587629 197.35476363636363L 61.43092783505155 191.76145454545454L 63.33608247422681 179.96218181818182L 65.24123711340206 204.09396363636364L 67.14639175257732 194.17236363636363L 69.05154639175258 192.61803636363635L 70.95670103092783 195.1253818181818L 72.8618556701031 193.92843636363637L 74.76701030927835 182.2482909090909L 76.67216494845361 200.86618181818181L 78.57731958762886 201.45614545454546L 80.48247422680413 178.89003636363637L 82.38762886597938 197.33774545454546L 84.29278350515463 198.50065454545455L 86.1979381443299 200.41803636363636L 88.10309278350516 201.18385454545455L 90.00824742268041 202.26734545454545L 91.91340206185566 195.09134545454546L 93.81855670103093 198.08087272727272L 95.7237113402062 183.38850909090908L 97.62886597938143 197.47389090909093L 99.5340206185567 202.01774545454546L 101.43917525773196 194.66021818181818L 103.34432989690723 200.75272727272727L 105.24948453608248 200.00392727272728L 107.15463917525773 201.97236363636364L 109.059793814433 204.2754909090909L 110.96494845360826 201.74545454545455L 112.8701030927835 201.01367272727273L 114.77525773195876 174.7829818181818L 116.68041237113401 195.76072727272728L 118.58556701030928 204.0032L 120.49072164948454 203.7309090909091L 122.39587628865979 197.87665454545453L 124.30103092783506 202.60770909090908L 126.20618556701031 202.6928L 128.11134020618556 197.55898181818182L 130.01649484536082 186.5141818181818L 131.9216494845361 199.26647272727274L 133.82680412371133 199.5728L 135.73195876288662 193.4802909090909L 137.63711340206186 199.10763636363635L 139.54226804123712 201.54690909090908L 141.4474226804124 201.5696L 143.35257731958762 195.06865454545454L 145.25773195876286 201.70007272727273L 147.16288659793815 197.2866909090909L 149.0680412371134 172.35505454545455L 150.97319587628866 203.20901818181818L 152.87835051546392 199.6749090909091L 154.78350515463916 193.12858181818183L 156.68865979381445 196.8896L 158.5938144329897 199.78836363636364L 160.49896907216495 198.82967272727274L 162.40412371134022 204.1336727272727L 164.30927835051546 202.57934545454546L 166.21443298969072 198.9261090909091L 168.119587628866 206L 170.02474226804125 204.128L 171.92989690721652 192.1245090909091L 173.83505154639175 206L 175.740206185567 206L 177.64536082474228 206L 179.55051546391752 206L 181.45567010309279 197.37178181818183L 183.36082474226802 199.57847272727273L 185.26597938144332 188.9024L 187.17113402061855 195.02894545454546L 189.07628865979382 191.20552727272727L 190.98144329896908 166.8128L 192.88659793814435 203.8386909090909L 194.79175257731958 198.09221818181817L 196.69690721649485 201.64334545454545L 198.60206185567012 202.2957090909091L 200.50721649484535 203.22036363636363L 202.41237113402062 200.66763636363635L 204.31752577319585 191.51185454545455L 206.22268041237115 189.18603636363636L 208.12783505154638 203.86705454545455L 210.03298969072165 197.56465454545454L 211.9381443298969 187.32538181818182L 213.84329896907218 201.2349090909091L 215.74845360824742 200.44639999999998L 217.65360824742268 201.4618181818182L 219.55876288659792 201.09876363636363L 221.4639175257732 201.17818181818183L 223.36907216494845 193.02647272727273L 225.2742268041237 198.8069818181818L 227.17938144329898 203.39054545454545L 229.08453608247424 200.30458181818182L 230.98969072164948 198.35883636363636L 232.89484536082475 193.3101090909091L 234.8 200.56552727272728L 236.70515463917525 203.03883636363636L 238.6103092783505 197.22996363636364L 240.51546391752575 201.95534545454547L 242.42061855670104 196.016L 244.32577319587628 202.30705454545455L 246.23092783505155 199.91316363636363L 248.13608247422678 194.62050909090908L 250.04123711340208 201.29163636363637L 251.9463917525773 202.98778181818182L 253.85154639175258 203.5437090909091L 255.75670103092784 200.60523636363638L 257.66185567010314 195.5621818181818L 259.5670103092783 203.24305454545456L 261.4721649484536 200.15709090909093L 263.3773195876289 198.46661818181818L 265.28247422680414 201.70007272727273L 267.1876288659794 200.70734545454545L 269.09278350515467 200.4293818181818L 270.9979381443299 201.76814545454545L 272.90309278350514 204.6442181818182L 274.80824742268044 206L 276.7134020618556 196.35636363636365L 278.6185567010309 199.21541818181817L 280.5237113402062 156.87418181818182L 282.42886597938144 165.1506909090909L 284.3340206185567 204.1733818181818L 286.239175257732 202.17658181818183L 288.14432989690715 199.31185454545454L 290.0494845360825 198.7842909090909L 291.95463917525774 202.6757818181818L 293.85979381443303 202.8573090909091L 295.7649484536082 196.1861818181818L 297.6701030927835 199.64654545454545L 299.57525773195874 198.2056727272727L 301.480412371134 201.2178909090909L 303.3855670103093 201.79083636363637L 305.29072164948457 201.90429090909092L 307.1958762886598 200.1968L 309.10103092783504 195.17076363636363L 311.0061855670103 206L 312.91134020618557 206L 314.8164948453608 206L 316.72164948453604 191.4834909090909L 318.62680412371134 197.79723636363636L 320.53195876288663 198.85236363636363L 322.43711340206187 199.76L 324.3422680412371 200.03796363636363L 326.24742268041234 200.76407272727272L 328.15257731958764 201.80785454545455L 330.0577319587629 191.63098181818182L 331.96288659793817 194.41061818181817L 333.8680412371134 199.88479999999998L 335.7731958762887 152.63098181818182L 337.67835051546393 197.04843636363637L 339.58350515463917 194.4730181818182L 341.4886597938144 155.90414545454547L 343.3938144329897 91.60945454545454L 345.29896907216494 104.5376L 347.20412371134023 151.17876363636364L 349.10927835051547 185.1981090909091L 351.0144329896907 142.76610909090908L 352.919587628866 125.0672L 354.82474226804123 123.74545454545455L 356.72989690721647 157.99738181818182L 358.6350515463917 53.56814545454546L 360.54020618556706 50.78850909090909L 362.4453608247423 100.02210909090908L 364.35051546391753 156.2445090909091L 366.25567010309277 180.31956363636363L 368.16082474226806 192.43650909090908L 370.0659793814433 193.63912727272728L 371.97113402061854 193.3328L 373.8762886597938 192.11316363636365L 375.7814432989691 197.93338181818183L 377.68659793814436 191.5629090909091L 379.5917525773196 198.7672727272727L 381.49690721649483 199.3005090909091L 383.4020618556701 201.64901818181818L 385.30721649484536 200.58821818181818L 387.2123711340206 202.43752727272727L 389.11752577319584 200.73003636363637L 391.02268041237113 189.7703272727273L 392.9278350515464 203.17498181818183L 394.83298969072166 200.48610909090908L 396.7381443298969 185.1810909090909L 398.64329896907213 187.88698181818182L 400.5484536082474 191.01832727272728L 402.45360824742266 192.31738181818181L 404.35876288659796 177.09745454545455L 406.2639175257732 167.91330909090908L 408.1690721649485 179.30981818181817L 410.0742268041237 186.49716363636364L 411.97938144329896 150.34487272727273L 413.8845360824742 184.27345454545454L 415.7896907216495 199.5104L 417.69484536082473 161.24785454545454L 419.6 155.49003636363636L 421.50515463917526 176.96130909090908L 423.4103092783505 190.30923636363636L 425.3154639175258 193.50865454545453L 427.220618556701 201.72843636363638L 429.12577319587626 185.22647272727272L 431.0309278350515 192.03374545454545L 432.93608247422685 192.66909090909093L 434.8412371134021 180.18341818181818L 436.7463917525773 194.5013818181818L 438.65154639175256 194.6829090909091L 440.55670103092785 201.85323636363637L 442.4618556701031 196.2032L 444.3670103092783 204.49105454545455L 446.27216494845356 191.55723636363638L 448.1773195876289 180.36494545454545L 450.08247422680415 193.02647272727273L 451.9876288659794 186.20785454545455L 453.8927835051546 191.72741818181817L 455.7979381443299 191.4834909090909L 457.70309278350516 196.63432727272726L 459.6082474226804 200.7810909090909L 461.5134020618557 176.26923636363637L 463.4185567010309 165.78036363636363L 465.3237113402062 181.82850909090908L 467.22886597938145 160.6976L 469.1340206185567 163.93105454545454L 471.0391752577319 182.10647272727272L 472.9443298969072 130.808L 474.84948453608246 190.49643636363635L 476.75463917525775 202.0914909090909L 478.659793814433 184.09192727272728L 480.5649484536083 197.50225454545455L 482.4701030927835 187.54094545454547L 484.37525773195875 192.95272727272726L 486.280412371134 201.88727272727272L 488.1855670103093 184.33585454545454L 490.0907216494845 183.04814545454545L 491.9958762886598 182.36741818181818L 493.90103092783505 182.54327272727272L 495.8061855670103 186.38938181818182L 497.7113402061856 174.3858909090909L 499.6164948453608 183.1786181818182L 501.52164948453606 183.5133090909091L 503.4268041237113 184.60247272727273L 505.33195876288664 186.968L 507.2371134020619 170.00087272727274L 509.1422680412371 167.8338909090909L 511.04742268041235 203.32247272727273L 512.9525773195876 206L 514.8577319587629 128.43112727272728L 516.7628865979382 183.2637090909091L 518.6680412371134 156.8685090909091L 520.5731958762887 183.15592727272727L 522.478350515464 183.2013090909091L 524.3835051546391 182.25963636363636L 526.2886597938143 170.18807272727273L 528.1938144329897 186.86589090909092L 530.098969072165 183.77425454545454L 532.0041237113403 186.29861818181817L 533.9092783505155 184.17134545454545L 535.8144329896907 184.9655272727273L 537.7195876288661 178.1696L 539.6247422680412 180.70530909090908L 541.5298969072164 170.80072727272727L 543.4350515463917 177.99374545454546L 545.340206185567 175.99127272727273L 547.2453608247422 173.75621818181818L 549.1505154639175 175.45803636363638L 551.0556701030928 196.91796363636365L 552.960824742268 150.30516363636363L 554.8659793814433 167.34036363636363L 556.7711340206185 174.52203636363637L 558.6762886597938 132.05599999999998L 560.5814432989691 144.8309818181818L 562.4865979381443 173.60872727272726L 564.3917525773196 151.91054545454546L 566.2969072164949 194.03621818181819L 568.2020618556701 160.59549090909093L 570.1072164948454 206L 572.0123711340206 153.43650909090908L 573.9175257731958 181.01163636363637L 575.8226804123711 181.6413090909091L 577.7278350515463 182.49221818181817L 579.6329896907216 183.08785454545455L 581.5381443298969 206L 583.4432989690721 151.86516363636363L 585.3484536082475 172.45716363636365L 587.2536082474227 169.20669090909092L 589.158762886598 178.22065454545455L 591.0639175257733 175.54312727272728L 592.9690721649484 177.61367272727273L 594.8742268041237 181.0173090909091L 596.779381443299 176.80814545454547L 598.6845360824742 167.8962909090909L 600.5896907216495 167.1248L 602.4948453608247 176.62094545454545L 604.4 158.63272727272727L 606.3051546391753 151.3602909090909L 608.2103092783505 173.35345454545455L 610.1154639175257 206L 612.020618556701 206L 613.9257731958763 206L 615.8309278350516 206L 617.7360824742268 206L 619.6412371134021 206L 621.5463917525774 206L 623.4515463917526 206L 625.3567010309279 206L 627.261855670103 206L 629.1670103092783 206L 631.0721649484536 206L 632.9773195876288 206L 634.8824742268041 206L 636.7876288659794 206L 638.6927835051546 206L 640.5979381443299 206L 642.5030927835052 206L 644.4082474226805 206L 646.3134020618558 206L 648.2185567010309 206L 650.1237113402062 206L 652.0288659793814 206L 653.9340206185567 206L 655.839175257732 206L 657.7443298969072 206L 659.6494845360825 206L 661.5546391752578 206L 663.4597938144329 206L 665.3649484536082 206L 667.2701030927834 206L 669.1752577319587 206L 671.0804123711341 206L 672.9855670103093 206L 674.8907216494846 206L 676.7958762886598 206L 678.7010309278351 206L 680.6061855670104 206L 682.5113402061855 206L 684.4164948453608 206L 686.3216494845361 206L 688.2268041237113 206L 690.1319587628866 206L 692.0371134020618 206L 693.9422680412371 206L 695.8474226804124 206L 697.7525773195875 206L 699.6577319587628 206L 701.5628865979382 206L 703.4680412371134 206L 705.3731958762887 206L 707.2783505154639 206L 709.1835051546392 206L 711.0886597938145 206L 712.9938144329897 206L 714.898969072165 206L 716.8041237113403 206L 718.7092783505154 206L 720.6144329896907 206L 722.5195876288659 206L 724.4247422680412 206L 726.3298969072165 206L 728.2350515463917 206L 730.1402061855671 206L 732.0453608247423 206L 733.9505154639176 206L 735.8556701030928 206L 737.760824742268 206L 739.6659793814433 206L 741.5711340206186 206L 743.4762886597938 206L 745.3814432989691 206L 747.2865979381443 206L 749.1917525773196 206L 751.0969072164949 206L 753.00206185567 206L 754.9072164948453 206L 756.8123711340206 206L 758.7175257731959 206L 760.6226804123712 206L 762.5278350515464 206L 764.4329896907217 206L 766.338144329897 206L 768.2432989690722 206L 770.1484536082475 206L 772.0536082474226 206L 773.9587628865979 206L 775.8639175257732 206L 777.7690721649484 206L 779.6742268041237 206L 781.579381443299 206L 783.4845360824742 206L 785.3896907216495 206L 787.2948453608248 206L 789.2 206L 791.1051546391753 206L 793.0103092783505 206L 794.9154639175258 206L 796.820618556701 206L 798.7257731958763 206L 800.6309278350516 206L 802.5360824742268 206L 804.441237113402 206L 806.3463917525773 206L 808.2515463917525 206L 810.1567010309278 206L 812.061855670103 206L 813.9670103092783 206L 815.8721649484537 206L 817.7773195876289 206L 819.6824742268042 206L 821.5876288659794 206L 823.4927835051546 206L 825.3979381443299 206L 827.3030927835051 206L 829.2082474226804 206L 831.1134020618557 206L 833.0185567010309 206L 834.9237113402062 206L 836.8288659793814 206L 838.7340206185567 206L 840.639175257732 206L 842.5443298969071 206L 844.4494845360825 206L 846.3546391752578 206L 848.259793814433 206L 850.1649484536083 206L 852.0701030927835 206L 853.9752577319588 206L 855.8804123711341 206L 857.7855670103093 206L 859.6907216494845 206L 861.5958762886598 206L 863.501030927835 206L 865.4061855670103 206L 867.3113402061855 206L 869.2164948453608 206L 871.1216494845361 206L 873.0268041237114 206L 874.9319587628867 206L 876.8371134020618 206L 878.7422680412371 206L 880.6474226804124 206L 882.5525773195876 206L 884.4577319587629 206L 886.3628865979382 206L 888.2680412371134 206L 890.1731958762887 206L 892.0783505154639 206L 893.9835051546391 206L 895.8886597938144 206L 897.7938144329896 206L 899.6989690721649 206L 901.6041237113402 206L 903.5092783505155 206L 905.4144329896908 206L 907.319587628866 206L 909.2247422680413 206L 911.1298969072166 206L 913.0350515463917 206L 914.940206185567 206L 916.8453608247422 206L 918.7505154639175 206L 920.6556701030928 206L 922.560824742268 206L 924.4659793814433 206L 926.3711340206186 206L 928.2762886597937 206L 930.181443298969 206L 932.0865979381443 206L 933.9917525773196 206L 935.8969072164949 206L 937.8020618556701 206L 939.7072164948454 206L 941.6123711340206 206L 943.5175257731959 206L 945.4226804123712 206L 947.3278350515463 206L 949.2329896907216 206L 951.1381443298969 206L 953.0432989690721 206L 954.9484536082474 206L 956.8536082474226 206L 958.7587628865979 206L 960.6639175257733 206L 962.5690721649485 206L 964.4742268041238 206L 966.379381443299 206L 968.2845360824742 206L 970.1896907216495 206L 972.0948453608247 206L 974 206" stroke-width="2.0" fill="none" />
    
        
        
        <text x="45.0" font-family="-apple-system, system-ui, BlinkMacSystemFont, Roboto" y="50.0" dominant-baseline="middle" text-anchor="end" font-size="12" fill="#24292f">27500.0</text>
        
            
            <path stroke="#74838f" stroke-dasharray="10 6" stroke-width="0.5"  d="M 50.0 50.0 L 974.0 50.0" />
        
    
        
        
        <text x="45.0" font-family="-apple-system, system-ui, BlinkMacSystemFont, Roboto" y="81.2" dominant-baseline="middle" text-anchor="end" font-size="12" fill="#24292f">22000.0</text>
        
            
            
            <path stroke="#74838f" stroke-dasharray="10 6" stroke-width="0.5"  d="M 50.0 81.2 L 974.0 81.2" />
        
    
        
        
        <text x="45.0" font-family="-apple-system, system-ui, BlinkMacSystemFont, Roboto" y="112.4" dominant-baseline="middle" text-anchor="end" font-size="12" fill="#24292f">16500.0</text>
        
            
            
            <path stroke="#74838f" stroke-dasharray="10 6" stroke-width="0.5"  d="M 50.0 112.4 L 974.0 112.4" />
        
    
        
        
        <text x="45.0" font-family="-apple-system, system-ui, BlinkMacSystemFont, Roboto" y="143.6" dominant-baseline="middle" text-anchor="end" font-size="12" fill="#24292f">11000.0</text>
        
            
            
            <path stroke="#74838f" stroke-dasharray="10 6" stroke-width="0.5"  d="M 50.0 143.6 L 974.0 143.6" />
        
    
        
        
        <text x="45.0" font-family="-apple-system, system-ui, BlinkMacSystemFont, Roboto" y="174.8" dominant-baseline="middle" text-anchor="end" font-size="12" fill="#24292f">5500.0</text>
        
            
            
            <path stroke="#74838f" stroke-dasharray="10 6" stroke-width="0.5"  d="M 50.0 174.8 L 974.0 174.8" />
        
    
        
        
        <text x="45.0" font-family="-apple-system, system-ui, BlinkMacSystemFont, Roboto" y="206.0" dominant-baseline="middle" text-anchor="end" font-size="12" fill="#24292f">0.0</text>
        
    
    
        
        <path stroke="#74838f"  stroke-width="2.0"  d="M 80.48247422680413 206.0 L 80.48247422680413 214.0" />
        <text x="80.48247422680413" font-family="-apple-system, system-ui, BlinkMacSystemFont, Roboto" y="216.0" dominant-baseline="hanging" text-anchor="middle" font-size="12" fill="#24292f">Mar 2022</text>
    
        
        <path stroke="#74838f"  stroke-width="2.0"  d="M 139.54226804123712 206.0 L 139.54226804123712 214.0" />
        <text x="139.54226804123712" font-family="-apple-system, system-ui, BlinkMacSystemFont, Roboto" y="216.0" dominant-baseline="hanging" text-anchor="middle" font-size="12" fill="#24292f">Apr 2022</text>
    
        
        <path stroke="#74838f"  stroke-width="2.0"  d="M 196.69690721649485 206.0 L 196.69690721649485 214.0" />
        <text x="196.69690721649485" font-family="-apple-system, system-ui, BlinkMacSystemFont, Roboto" y="216.0" dominant-baseline="hanging" text-anchor="middle" font-size="12" fill="#24292f">May 2022</text>
    
        
        <path stroke="#74838f"  stroke-width="2.0"  d="M 255.75670103092784 206.0 L 255.75670103092784 214.0" />
        <text x="255.75670103092784" font-family="-apple-system, system-ui, BlinkMacSystemFont, Roboto" y="216.0" dominant-baseline="hanging" text-anchor="middle" font-size="12" fill="#24292f">Jun 2022</text>
    
        
        <path stroke="#74838f"  stroke-width="2.0"  d="M 312.91134020618557 206.0 L 312.91134020618557 214.0" />
        <text x="312.91134020618557" font-family="-apple-system, system-ui, BlinkMacSystemFont, Roboto" y="216.0" dominant-baseline="hanging" text-anchor="middle" font-size="12" fill="#24292f">Jul 2022</text>
    
        
        <path stroke="#74838f"  stroke-width="2.0"  d="M 371.97113402061854 206.0 L 371.97113402061854 214.0" />
        <text x="371.97113402061854" font-family="-apple-system, system-ui, BlinkMacSystemFont, Roboto" y="216.0" dominant-baseline="hanging" text-anchor="middle" font-size="12" fill="#24292f">Aug 2022</text>
    
        
        <path stroke="#74838f"  stroke-width="2.0"  d="M 431.0309278350515 206.0 L 431.0309278350515 214.0" />
        <text x="431.0309278350515" font-family="-apple-system, system-ui, BlinkMacSystemFont, Roboto" y="216.0" dominant-baseline="hanging" text-anchor="middle" font-size="12" fill="#24292f">Sep 2022</text>
    
        
        <path stroke="#74838f"  stroke-width="2.0"  d="M 488.1855670103093 206.0 L 488.1855670103093 214.0" />
        <text x="488.1855670103093" font-family="-apple-system, system-ui, BlinkMacSystemFont, Roboto" y="216.0" dominant-baseline="hanging" text-anchor="middle" font-size="12" fill="#24292f">Oct 2022</text>
    
        
        <path stroke="#74838f"  stroke-width="2.0"  d="M 547.2453608247422 206.0 L 547.2453608247422 214.0" />
        <text x="547.2453608247422" font-family="-apple-system, system-ui, BlinkMacSystemFont, Roboto" y="216.0" dominant-baseline="hanging" text-anchor="middle" font-size="12" fill="#24292f">Nov 2022</text>
    
        
        <path stroke="#74838f"  stroke-width="2.0"  d="M 604.4 206.0 L 604.4 214.0" />
        <text x="604.4" font-family="-apple-system, system-ui, BlinkMacSystemFont, Roboto" y="216.0" dominant-baseline="hanging" text-anchor="middle" font-size="12" fill="#24292f">Dec 2022</text>
    
        
        <path stroke="#74838f"  stroke-width="2.0"  d="M 663.4597938144329 206.0 L 663.4597938144329 214.0" />
        <text x="663.4597938144329" font-family="-apple-system, system-ui, BlinkMacSystemFont, Roboto" y="216.0" dominant-baseline="hanging" text-anchor="middle" font-size="12" fill="#24292f">Jan 2023</text>
    
        
        <path stroke="#74838f"  stroke-width="2.0"  d="M 722.5195876288659 206.0 L 722.5195876288659 214.0" />
        <text x="722.5195876288659" font-family="-apple-system, system-ui, BlinkMacSystemFont, Roboto" y="216.0" dominant-baseline="hanging" text-anchor="middle" font-size="12" fill="#24292f">Feb 2023</text>
    
        
        <path stroke="#74838f"  stroke-width="2.0"  d="M 775.8639175257732 206.0 L 775.8639175257732 214.0" />
        <text x="775.8639175257732" font-family="-apple-system, system-ui, BlinkMacSystemFont, Roboto" y="216.0" dominant-baseline="hanging" text-anchor="middle" font-size="12" fill="#24292f">Mar 2023</text>
    
        
        <path stroke="#74838f"  stroke-width="2.0"  d="M 834.9237113402062 206.0 L 834.9237113402062 214.0" />
        <text x="834.9237113402062" font-family="-apple-system, system-ui, BlinkMacSystemFont, Roboto" y="216.0" dominant-baseline="hanging" text-anchor="middle" font-size="12" fill="#24292f">Apr 2023</text>
    
        
        <path stroke="#74838f"  stroke-width="2.0"  d="M 892.0783505154639 206.0 L 892.0783505154639 214.0" />
        <text x="892.0783505154639" font-family="-apple-system, system-ui, BlinkMacSystemFont, Roboto" y="216.0" dominant-baseline="hanging" text-anchor="middle" font-size="12" fill="#24292f">May 2023</text>
    
        
        <path stroke="#74838f"  stroke-width="2.0"  d="M 951.1381443298969 206.0 L 951.1381443298969 214.0" />
        <text x="951.1381443298969" font-family="-apple-system, system-ui, BlinkMacSystemFont, Roboto" y="216.0" dominant-baseline="hanging" text-anchor="middle" font-size="12" fill="#24292f">Jun 2023</text>
    
    <path stroke="#74838f"   stroke-linejoin="round" stroke-width="2.0" d="M 50.0 216.0 L 50.0 206.0 L 974.0 206.0 L 974.0 216.0"  fill="none" />
    <text x="512.0" y="25.0" font-family="-apple-system, system-ui, BlinkMacSystemFont, Roboto" dominant-baseline="middle" text-anchor="middle" font-size="18" fill="#24292f">Total daily screen name changes</text>
</svg>
