<?xml version="1.0" standalone="no"?>
<svg width="1024.0" height="256.0"  viewBox="0 0 1024.0 256.0" preserveAspectRatio="xMidYMid meet" xmlns="http://www.w3.org/2000/svg">
    <path stroke="#3498db" stroke-linejoin="round" d="M 50.0 203.3394909090909 L 50 203.3394909090909L 52.231884057971016 202.32974545454545L 54.46376811594203 196.86690909090908L 56.69565217391305 195.94792727272727L 58.927536231884055 202.14254545454546L 61.15942028985507 197.35476363636363L 63.391304347826086 191.76145454545454L 65.6231884057971 179.96218181818182L 67.85507246376811 204.09396363636364L 70.08695652173913 194.17236363636363L 72.31884057971014 192.61803636363635L 74.55072463768116 195.1253818181818L 76.78260869565217 193.92843636363637L 79.01449275362319 182.2482909090909L 81.2463768115942 200.86618181818181L 83.47826086956522 201.45614545454546L 85.71014492753622 178.89003636363637L 87.94202898550725 197.33774545454546L 90.17391304347825 198.50065454545455L 92.40579710144928 200.41803636363636L 94.63768115942028 201.18385454545455L 96.86956521739131 202.26734545454545L 99.10144927536231 195.09134545454546L 101.33333333333333 198.08087272727272L 103.56521739130434 183.38850909090908L 105.79710144927536 197.47389090909093L 108.02898550724638 202.01774545454546L 110.26086956521739 194.66021818181818L 112.4927536231884 200.75272727272727L 114.72463768115942 200.00392727272728L 116.95652173913044 201.97236363636364L 119.18840579710145 204.2754909090909L 121.42028985507245 201.74545454545455L 123.65217391304347 201.01367272727273L 125.8840579710145 174.7829818181818L 128.1159420289855 195.76072727272728L 130.3478260869565 204.0032L 132.57971014492753 203.7309090909091L 134.81159420289856 197.87665454545453L 137.04347826086956 202.60770909090908L 139.27536231884056 202.6928L 141.5072463768116 197.55898181818182L 143.73913043478262 186.5141818181818L 145.97101449275362 199.26647272727274L 148.20289855072463 199.5728L 150.43478260869566 193.4802909090909L 152.66666666666666 199.10763636363635L 154.8985507246377 201.54690909090908L 157.1304347826087 201.5696L 159.3623188405797 195.06865454545454L 161.59420289855072 201.70007272727273L 163.82608695652175 197.2866909090909L 166.05797101449275 172.35505454545455L 168.28985507246378 203.20901818181818L 170.52173913043478 199.6749090909091L 172.7536231884058 193.12858181818183L 174.9855072463768 196.8896L 177.2173913043478 199.78836363636364L 179.44927536231884 198.82967272727274L 181.68115942028984 204.1336727272727L 183.91304347826087 202.57934545454546L 186.14492753623188 198.9261090909091L 188.3768115942029 206L 190.60869565217394 204.128L 192.8405797101449 192.1245090909091L 195.07246376811594 206L 197.30434782608694 206L 199.53623188405797 206L 201.768115942029 206L 204 197.37178181818183L 206.23188405797103 199.57847272727273L 208.46376811594203 188.9024L 210.69565217391303 195.02894545454546L 212.92753623188406 191.20552727272727L 215.15942028985506 166.8128L 217.3913043478261 203.8386909090909L 219.62318840579712 198.09221818181817L 221.8550724637681 201.64334545454545L 224.08695652173913 202.2957090909091L 226.31884057971013 203.22036363636363L 228.55072463768116 200.66763636363635L 230.7826086956522 191.51185454545455L 233.0144927536232 189.18603636363636L 235.24637681159422 203.86705454545455L 237.47826086956522 197.56465454545454L 239.71014492753622 187.32538181818182L 241.94202898550725 201.2349090909091L 244.17391304347825 200.44639999999998L 246.40579710144928 201.4618181818182L 248.6376811594203 201.09876363636363L 250.8695652173913 201.17818181818183L 253.1014492753623 193.02647272727273L 255.33333333333331 198.8069818181818L 257.5652173913044 203.39054545454545L 259.7971014492754 200.30458181818182L 262.0289855072464 198.35883636363636L 264.2608695652174 193.3101090909091L 266.4927536231884 200.56552727272728L 268.7246376811594 203.03883636363636L 270.95652173913044 197.22996363636364L 273.18840579710144 201.95534545454547L 275.4202898550725 196.016L 277.6521739130435 202.30705454545455L 279.8840579710145 199.91316363636363L 282.1159420289855 194.62050909090908L 284.3478260869565 201.29163636363637L 286.57971014492756 202.98778181818182L 288.8115942028985 203.5437090909091L 291.04347826086956 200.60523636363638L 293.2753623188406 195.5621818181818L 295.5072463768116 203.24305454545456L 297.7391304347826 200.15709090909093L 299.9710144927536 198.46661818181818L 302.2028985507246 201.70007272727273L 304.4347826086956 200.70734545454545L 306.6666666666667 200.4293818181818L 308.8985507246377 201.76814545454545L 311.1304347826087 204.6442181818182L 313.3623188405797 206L 315.59420289855075 196.35636363636365L 317.82608695652175 199.21541818181817L 320.05797101449275 156.87418181818182L 322.28985507246375 165.1506909090909L 324.52173913043475 204.1733818181818L 326.7536231884058 202.17658181818183L 328.9855072463768 199.31185454545454L 331.21739130434787 198.7842909090909L 333.4492753623188 202.6757818181818L 335.6811594202898 202.8573090909091L 337.9130434782609 196.1861818181818L 340.1449275362319 199.64654545454545L 342.37681159420293 198.2056727272727L 344.6086956521739 201.2178909090909L 346.84057971014494 201.79083636363637L 349.07246376811594 201.90429090909092L 351.30434782608694 200.1968L 353.536231884058 195.17076363636363L 355.768115942029 206L 358 206L 360.231884057971 206L 362.46376811594206 191.4834909090909L 364.69565217391306 197.79723636363636L 366.92753623188406 198.85236363636363L 369.15942028985506 199.76L 371.39130434782606 200.03796363636363L 373.6231884057971 200.76407272727272L 375.8550724637681 201.80785454545455L 378.0869565217391 191.63098181818182L 380.3188405797101 194.41061818181817L 382.5507246376811 199.88479999999998L 384.7826086956522 152.63098181818182L 387.0144927536232 197.04843636363637L 389.24637681159425 194.4730181818182L 391.4782608695652 155.90414545454547L 393.7101449275362 91.60945454545454L 395.94202898550725 104.5376L 398.17391304347825 151.17876363636364L 400.4057971014493 185.1981090909091L 402.63768115942025 142.76610909090908L 404.8695652173913 125.0672L 407.1014492753623 123.74545454545455L 409.3333333333333 157.99738181818182L 411.5652173913044 53.56814545454546L 413.7971014492754 50.78850909090909L 416.0289855072464 100.02210909090908L 418.2608695652174 156.2445090909091L 420.49275362318843 180.31956363636363L 422.72463768115944 192.43650909090908L 424.95652173913044 193.63912727272728L 427.18840579710144 193.3328L 429.42028985507244 192.11316363636365L 431.6521739130435 197.93338181818183L 433.8840579710145 191.5629090909091L 436.11594202898556 198.7672727272727L 438.3478260869565 199.3005090909091L 440.5797101449275 201.64901818181818L 442.81159420289856 200.58821818181818L 445.04347826086956 202.43752727272727L 447.2753623188406 200.73003636363637L 449.50724637681157 189.7703272727273L 451.7391304347826 203.17498181818183L 453.9710144927536 200.48610909090908L 456.2028985507246 185.1810909090909L 458.4347826086957 187.88698181818182L 460.66666666666663 191.01832727272728L 462.8985507246377 192.31738181818181L 465.1304347826087 177.09745454545455L 467.3623188405797 167.91330909090908L 469.59420289855075 179.30981818181817L 471.8260869565217 186.49716363636364L 474.05797101449275 150.34487272727273L 476.28985507246375 184.27345454545454L 478.5217391304348 199.5104L 480.7536231884058 161.24785454545454L 482.9855072463768 155.49003636363636L 485.2173913043478 176.96130909090908L 487.4492753623188 190.30923636363636L 489.6811594202899 193.50865454545453L 491.9130434782609 201.72843636363638L 494.14492753623193 185.22647272727272L 496.3768115942029 192.03374545454545L 498.6086956521739 192.66909090909093L 500.84057971014494 180.18341818181818L 503.07246376811594 194.5013818181818L 505.304347826087 194.6829090909091L 507.53623188405794 201.85323636363637L 509.768115942029 196.2032L 512 204.49105454545455L 514.231884057971 191.55723636363638L 516.463768115942 180.36494545454545L 518.695652173913 193.02647272727273L 520.9275362318841 186.20785454545455L 523.1594202898551 191.72741818181817L 525.391304347826 191.4834909090909L 527.623188405797 196.63432727272726L 529.855072463768 200.7810909090909L 532.0869565217391 176.26923636363637L 534.3188405797101 165.78036363636363L 536.5507246376812 181.82850909090908L 538.7826086956522 160.6976L 541.0144927536232 163.93105454545454L 543.2463768115942 182.10647272727272L 545.4782608695652 130.808L 547.7101449275362 190.49643636363635L 549.9420289855072 202.0914909090909L 552.1739130434783 184.09192727272728L 554.4057971014493 197.50225454545455L 556.6376811594203 187.54094545454547L 558.8695652173913 192.95272727272726L 561.1014492753623 201.88727272727272L 563.3333333333334 184.33585454545454L 565.5652173913044 183.04814545454545L 567.7971014492754 182.36741818181818L 570.0289855072464 182.54327272727272L 572.2608695652174 186.38938181818182L 574.4927536231884 174.3858909090909L 576.7246376811594 183.1786181818182L 578.9565217391304 183.5133090909091L 581.1884057971015 184.60247272727273L 583.4202898550725 186.968L 585.6521739130435 170.00087272727274L 587.8840579710145 167.8338909090909L 590.1159420289855 203.32247272727273L 592.3478260869566 206L 594.5797101449275 128.43112727272728L 596.8115942028985 183.2637090909091L 599.0434782608695 156.8685090909091L 601.2753623188406 183.15592727272727L 603.5072463768116 183.2013090909091L 605.7391304347826 182.25963636363636L 607.9710144927536 170.18807272727273L 610.2028985507246 186.86589090909092L 612.4347826086957 183.77425454545454L 614.6666666666667 186.29861818181817L 616.8985507246376 184.17134545454545L 619.1304347826086 184.9655272727273L 621.3623188405796 178.1696L 623.5942028985507 180.70530909090908L 625.8260869565217 170.80072727272727L 628.0579710144928 177.99374545454546L 630.2898550724638 175.99127272727273L 632.5217391304348 173.75621818181818L 634.7536231884059 175.45803636363638L 636.9855072463769 196.91796363636365L 639.2173913043478 150.30516363636363L 641.4492753623188 167.34036363636363L 643.6811594202899 174.52203636363637L 645.9130434782609 132.05599999999998L 648.1449275362319 144.8309818181818L 650.3768115942029 173.60872727272726L 652.6086956521739 151.91054545454546L 654.840579710145 194.03621818181819L 657.072463768116 160.59549090909093L 659.304347826087 206L 661.536231884058 153.43650909090908L 663.7681159420289 181.01163636363637L 666 181.6413090909091L 668.231884057971 182.49221818181817L 670.463768115942 183.08785454545455L 672.695652173913 206L 674.9275362318841 151.86516363636363L 677.1594202898551 172.45716363636365L 679.3913043478261 169.20669090909092L 681.6231884057971 178.22065454545455L 683.8550724637681 175.54312727272728L 686.0869565217391 177.61367272727273L 688.3188405797101 181.0173090909091L 690.5507246376811 176.80814545454547L 692.7826086956521 167.8962909090909L 695.0144927536231 167.1248L 697.2463768115942 176.62094545454545L 699.4782608695652 158.63272727272727L 701.7101449275362 151.3602909090909L 703.9420289855072 173.35345454545455L 706.1739130434783 206L 708.4057971014493 206L 710.6376811594203 206L 712.8695652173913 206L 715.1014492753623 206L 717.3333333333334 206L 719.5652173913044 206L 721.7971014492754 206L 724.0289855072464 206L 726.2608695652174 206L 728.4927536231885 206L 730.7246376811595 206L 732.9565217391304 206L 735.1884057971014 206L 737.4202898550724 206L 739.6521739130435 206L 741.8840579710145 206L 744.1159420289855 206L 746.3478260869565 206L 748.5797101449276 206L 750.8115942028986 206L 753.0434782608696 206L 755.2753623188405 206L 757.5072463768115 206L 759.7391304347826 206L 761.9710144927536 206L 764.2028985507246 206L 766.4347826086956 206L 768.6666666666666 206L 770.8985507246377 206L 773.1304347826087 206L 775.3623188405797 206L 777.5942028985507 206L 779.8260869565217 206L 782.0579710144928 206L 784.2898550724638 206L 786.5217391304348 206L 788.7536231884058 206L 790.9855072463769 206L 793.2173913043479 206L 795.4492753623189 206L 797.6811594202899 206L 799.9130434782609 206L 802.1449275362319 206L 804.3768115942029 206L 806.6086956521739 206L 808.8405797101449 206L 811.0724637681159 206L 813.304347826087 206L 815.536231884058 206L 817.768115942029 206L 820 206L 822.2318840579711 206L 824.463768115942 206L 826.695652173913 206L 828.927536231884 206L 831.159420289855 206L 833.3913043478261 206L 835.6231884057971 206L 837.8550724637681 206L 840.0869565217391 206L 842.3188405797101 206L 844.5507246376812 206L 846.7826086956522 206L 849.0144927536231 206L 851.2463768115941 206L 853.4782608695652 206L 855.7101449275362 206L 857.9420289855072 206L 860.1739130434783 206L 862.4057971014493 206L 864.6376811594204 206L 866.8695652173914 206L 869.1014492753624 206L 871.3333333333333 206L 873.5652173913043 206L 875.7971014492754 206L 878.0289855072464 206L 880.2608695652174 206L 882.4927536231884 206L 884.7246376811594 206L 886.9565217391305 206L 889.1884057971015 206L 891.4202898550725 206L 893.6521739130434 206L 895.8840579710145 206L 898.1159420289855 206L 900.3478260869565 206L 902.5797101449275 206L 904.8115942028985 206L 907.0434782608696 206L 909.2753623188406 206L 911.5072463768116 206L 913.7391304347826 206L 915.9710144927536 206L 918.2028985507246 206L 920.4347826086956 206L 922.6666666666666 206L 924.8985507246376 206L 927.1304347826087 206L 929.3623188405797 206L 931.5942028985507 206L 933.8260869565217 206L 936.0579710144928 206L 938.2898550724639 206L 940.5217391304348 206L 942.7536231884058 206L 944.9855072463768 206L 947.2173913043478 206L 949.4492753623189 206L 951.6811594202899 206L 953.9130434782609 206L 956.1449275362319 206L 958.3768115942029 206L 960.608695652174 206L 962.8405797101449 206L 965.0724637681159 206L 967.3043478260869 206L 969.536231884058 206L 971.768115942029 206L 974 206" stroke-width="2.0" fill="none" />
    
        
        
        <text x="45.0" font-family="-apple-system, system-ui, BlinkMacSystemFont, Roboto" y="50.0" dominant-baseline="middle" text-anchor="end" font-size="12" fill="#24292f">27500.0</text>
        
            
            <path stroke="#74838f" stroke-dasharray="10 6" stroke-width="0.5"  d="M 50.0 50.0 L 974.0 50.0" />
        
    
        
        
        <text x="45.0" font-family="-apple-system, system-ui, BlinkMacSystemFont, Roboto" y="81.2" dominant-baseline="middle" text-anchor="end" font-size="12" fill="#24292f">22000.0</text>
        
            
            
            <path stroke="#74838f" stroke-dasharray="10 6" stroke-width="0.5"  d="M 50.0 81.2 L 974.0 81.2" />
        
    
        
        
        <text x="45.0" font-family="-apple-system, system-ui, BlinkMacSystemFont, Roboto" y="112.4" dominant-baseline="middle" text-anchor="end" font-size="12" fill="#24292f">16500.0</text>
        
            
            
            <path stroke="#74838f" stroke-dasharray="10 6" stroke-width="0.5"  d="M 50.0 112.4 L 974.0 112.4" />
        
    
        
        
        <text x="45.0" font-family="-apple-system, system-ui, BlinkMacSystemFont, Roboto" y="143.6" dominant-baseline="middle" text-anchor="end" font-size="12" fill="#24292f">11000.0</text>
        
            
            
            <path stroke="#74838f" stroke-dasharray="10 6" stroke-width="0.5"  d="M 50.0 143.6 L 974.0 143.6" />
        
    
        
        
        <text x="45.0" font-family="-apple-system, system-ui, BlinkMacSystemFont, Roboto" y="174.8" dominant-baseline="middle" text-anchor="end" font-size="12" fill="#24292f">5500.0</text>
        
            
            
            <path stroke="#74838f" stroke-dasharray="10 6" stroke-width="0.5"  d="M 50.0 174.8 L 974.0 174.8" />
        
    
        
        
        <text x="45.0" font-family="-apple-system, system-ui, BlinkMacSystemFont, Roboto" y="206.0" dominant-baseline="middle" text-anchor="end" font-size="12" fill="#24292f">0.0</text>
        
    
    
        
        <path stroke="#74838f"  stroke-width="2.0"  d="M 85.71014492753622 206.0 L 85.71014492753622 214.0" />
        <text x="85.71014492753622" font-family="-apple-system, system-ui, BlinkMacSystemFont, Roboto" y="216.0" dominant-baseline="hanging" text-anchor="middle" font-size="12" fill="#24292f">Mar 2022</text>
    
        
        <path stroke="#74838f"  stroke-width="2.0"  d="M 154.8985507246377 206.0 L 154.8985507246377 214.0" />
        <text x="154.8985507246377" font-family="-apple-system, system-ui, BlinkMacSystemFont, Roboto" y="216.0" dominant-baseline="hanging" text-anchor="middle" font-size="12" fill="#24292f">Apr 2022</text>
    
        
        <path stroke="#74838f"  stroke-width="2.0"  d="M 221.8550724637681 206.0 L 221.8550724637681 214.0" />
        <text x="221.8550724637681" font-family="-apple-system, system-ui, BlinkMacSystemFont, Roboto" y="216.0" dominant-baseline="hanging" text-anchor="middle" font-size="12" fill="#24292f">May 2022</text>
    
        
        <path stroke="#74838f"  stroke-width="2.0"  d="M 291.04347826086956 206.0 L 291.04347826086956 214.0" />
        <text x="291.04347826086956" font-family="-apple-system, system-ui, BlinkMacSystemFont, Roboto" y="216.0" dominant-baseline="hanging" text-anchor="middle" font-size="12" fill="#24292f">Jun 2022</text>
    
        
        <path stroke="#74838f"  stroke-width="2.0"  d="M 358.0 206.0 L 358.0 214.0" />
        <text x="358.0" font-family="-apple-system, system-ui, BlinkMacSystemFont, Roboto" y="216.0" dominant-baseline="hanging" text-anchor="middle" font-size="12" fill="#24292f">Jul 2022</text>
    
        
        <path stroke="#74838f"  stroke-width="2.0"  d="M 427.18840579710144 206.0 L 427.18840579710144 214.0" />
        <text x="427.18840579710144" font-family="-apple-system, system-ui, BlinkMacSystemFont, Roboto" y="216.0" dominant-baseline="hanging" text-anchor="middle" font-size="12" fill="#24292f">Aug 2022</text>
    
        
        <path stroke="#74838f"  stroke-width="2.0"  d="M 496.3768115942029 206.0 L 496.3768115942029 214.0" />
        <text x="496.3768115942029" font-family="-apple-system, system-ui, BlinkMacSystemFont, Roboto" y="216.0" dominant-baseline="hanging" text-anchor="middle" font-size="12" fill="#24292f">Sep 2022</text>
    
        
        <path stroke="#74838f"  stroke-width="2.0"  d="M 563.3333333333334 206.0 L 563.3333333333334 214.0" />
        <text x="563.3333333333334" font-family="-apple-system, system-ui, BlinkMacSystemFont, Roboto" y="216.0" dominant-baseline="hanging" text-anchor="middle" font-size="12" fill="#24292f">Oct 2022</text>
    
        
        <path stroke="#74838f"  stroke-width="2.0"  d="M 632.5217391304348 206.0 L 632.5217391304348 214.0" />
        <text x="632.5217391304348" font-family="-apple-system, system-ui, BlinkMacSystemFont, Roboto" y="216.0" dominant-baseline="hanging" text-anchor="middle" font-size="12" fill="#24292f">Nov 2022</text>
    
        
        <path stroke="#74838f"  stroke-width="2.0"  d="M 699.4782608695652 206.0 L 699.4782608695652 214.0" />
        <text x="699.4782608695652" font-family="-apple-system, system-ui, BlinkMacSystemFont, Roboto" y="216.0" dominant-baseline="hanging" text-anchor="middle" font-size="12" fill="#24292f">Dec 2022</text>
    
        
        <path stroke="#74838f"  stroke-width="2.0"  d="M 768.6666666666666 206.0 L 768.6666666666666 214.0" />
        <text x="768.6666666666666" font-family="-apple-system, system-ui, BlinkMacSystemFont, Roboto" y="216.0" dominant-baseline="hanging" text-anchor="middle" font-size="12" fill="#24292f">Jan 2023</text>
    
        
        <path stroke="#74838f"  stroke-width="2.0"  d="M 837.8550724637681 206.0 L 837.8550724637681 214.0" />
        <text x="837.8550724637681" font-family="-apple-system, system-ui, BlinkMacSystemFont, Roboto" y="216.0" dominant-baseline="hanging" text-anchor="middle" font-size="12" fill="#24292f">Feb 2023</text>
    
        
        <path stroke="#74838f"  stroke-width="2.0"  d="M 900.3478260869565 206.0 L 900.3478260869565 214.0" />
        <text x="900.3478260869565" font-family="-apple-system, system-ui, BlinkMacSystemFont, Roboto" y="216.0" dominant-baseline="hanging" text-anchor="middle" font-size="12" fill="#24292f">Mar 2023</text>
    
        
        <path stroke="#74838f"  stroke-width="2.0"  d="M 969.536231884058 206.0 L 969.536231884058 214.0" />
        <text x="969.536231884058" font-family="-apple-system, system-ui, BlinkMacSystemFont, Roboto" y="216.0" dominant-baseline="hanging" text-anchor="middle" font-size="12" fill="#24292f">Apr 2023</text>
    
    <path stroke="#74838f"   stroke-linejoin="round" stroke-width="2.0" d="M 50.0 216.0 L 50.0 206.0 L 974.0 206.0 L 974.0 216.0"  fill="none" />
    <text x="512.0" y="25.0" font-family="-apple-system, system-ui, BlinkMacSystemFont, Roboto" dominant-baseline="middle" text-anchor="middle" font-size="18" fill="#24292f">Total daily screen name changes</text>
</svg>
