<?xml version="1.0" standalone="no"?>
<svg width="1024.0" height="256.0"  viewBox="0 0 1024.0 256.0" preserveAspectRatio="xMidYMid meet" xmlns="http://www.w3.org/2000/svg">
    <path stroke="#3498db" stroke-linejoin="round" d="M 50.0 203.3394909090909 L 50 203.3394909090909L 52.64 202.32974545454545L 55.28 196.86690909090908L 57.92 195.94792727272727L 60.56 202.14254545454546L 63.2 197.35476363636363L 65.84 191.76145454545454L 68.48 179.96218181818182L 71.12 204.09396363636364L 73.75999999999999 194.17236363636363L 76.4 192.61803636363635L 79.04 195.1253818181818L 81.68 193.92843636363637L 84.32 182.2482909090909L 86.96000000000001 200.86618181818181L 89.6 201.45614545454546L 92.24000000000001 178.89003636363637L 94.88 197.33774545454546L 97.52 198.50065454545455L 100.16 200.41803636363636L 102.8 201.18385454545455L 105.44 202.26734545454545L 108.08000000000001 195.09134545454546L 110.72 198.08087272727272L 113.36000000000001 183.38850909090908L 116 197.47389090909093L 118.64 202.01774545454546L 121.28 194.66021818181818L 123.92 200.75272727272727L 126.55999999999999 200.00392727272728L 129.2 201.97236363636364L 131.83999999999997 204.2754909090909L 134.48000000000002 201.74545454545455L 137.12 201.01367272727273L 139.76 174.7829818181818L 142.4 195.76072727272728L 145.04 204.0032L 147.68 203.7309090909091L 150.32 197.87665454545453L 152.96 202.60770909090908L 155.6 202.6928L 158.24 197.55898181818182L 160.88 186.5141818181818L 163.51999999999998 199.26647272727274L 166.16000000000003 199.5728L 168.79999999999998 193.4802909090909L 171.44 199.10763636363635L 174.07999999999998 201.54690909090908L 176.72000000000003 201.5696L 179.36 195.06865454545454L 182 201.70007272727273L 184.64 197.2866909090909L 187.28 172.35505454545455L 189.92000000000002 203.20901818181818L 192.56 199.6749090909091L 195.2 193.12858181818183L 197.84 196.8896L 200.48000000000002 199.78836363636364L 203.11999999999998 198.82967272727274L 205.76 204.1336727272727L 208.4 202.57934545454546L 211.04000000000002 198.9261090909091L 213.67999999999998 206L 216.32 204.128L 218.96 192.1245090909091L 221.6 206L 224.24 206L 226.88 206L 229.52 206L 232.16 197.37178181818183L 234.8 199.57847272727273L 237.44 188.9024L 240.07999999999998 195.02894545454546L 242.72 191.20552727272727L 245.36 166.8128L 248 203.8386909090909L 250.64 198.09221818181817L 253.28 201.64334545454545L 255.92000000000002 202.2957090909091L 258.55999999999995 203.22036363636363L 261.2 200.66763636363635L 263.84000000000003 191.51185454545455L 266.48 189.18603636363636L 269.12 203.86705454545455L 271.76 197.56465454545454L 274.4 187.32538181818182L 277.03999999999996 201.2349090909091L 279.68 200.44639999999998L 282.32000000000005 201.4618181818182L 284.96000000000004 201.09876363636363L 287.59999999999997 201.17818181818183L 290.24 193.02647272727273L 292.88 198.8069818181818L 295.52 203.39054545454545L 298.15999999999997 200.30458181818182L 300.79999999999995 198.35883636363636L 303.44000000000005 193.3101090909091L 306.08 200.56552727272728L 308.72 203.03883636363636L 311.36 197.22996363636364L 314 201.95534545454547L 316.64000000000004 196.016L 319.28 202.30705454545455L 321.91999999999996 199.91316363636363L 324.56 194.62050909090908L 327.2 201.29163636363637L 329.84000000000003 202.98778181818182L 332.48 203.5437090909091L 335.12 200.60523636363638L 337.76 195.5621818181818L 340.4 203.24305454545456L 343.03999999999996 200.15709090909093L 345.68 198.46661818181818L 348.32 201.70007272727273L 350.96000000000004 200.70734545454545L 353.6 200.4293818181818L 356.23999999999995 201.76814545454545L 358.88 204.6442181818182L 361.52 206L 364.16 196.35636363636365L 366.8 199.21541818181817L 369.44 156.87418181818182L 372.08000000000004 165.1506909090909L 374.71999999999997 204.1733818181818L 377.35999999999996 202.17658181818183L 380 199.31185454545454L 382.64 198.7842909090909L 385.28000000000003 202.6757818181818L 387.92 202.8573090909091L 390.56 196.1861818181818L 393.2 199.64654545454545L 395.84 198.2056727272727L 398.48 201.2178909090909L 401.12 201.79083636363637L 403.76 201.90429090909092L 406.40000000000003 200.1968L 409.04 195.17076363636363L 411.67999999999995 206L 414.32 206L 416.96 206L 419.6 191.4834909090909L 422.24 197.79723636363636L 424.88 198.85236363636363L 427.52000000000004 199.76L 430.15999999999997 200.03796363636363L 432.8 200.76407272727272L 435.44 201.80785454545455L 438.08 191.63098181818182L 440.72 194.41061818181817L 443.36 199.88479999999998L 446 152.63098181818182L 448.64 197.04843636363637L 451.28 194.4730181818182L 453.92 155.90414545454547L 456.56 91.60945454545454L 459.2 104.5376L 461.84000000000003 151.17876363636364L 464.48 185.1981090909091L 467.11999999999995 142.76610909090908L 469.76 125.0672L 472.4 123.74545454545455L 475.04 157.99738181818182L 477.68 53.56814545454546L 480.32 50.78850909090909L 482.96000000000004 100.02210909090908L 485.59999999999997 156.2445090909091L 488.24 180.31956363636363L 490.88 192.43650909090908L 493.52 193.63912727272728L 496.16 193.3328L 498.8 192.11316363636365L 501.44 197.93338181818183L 504.08 191.5629090909091L 506.71999999999997 198.7672727272727L 509.36 199.3005090909091L 512 201.64901818181818L 514.6400000000001 200.58821818181818L 517.28 202.43752727272727L 519.9200000000001 200.73003636363637L 522.56 189.7703272727273L 525.1999999999999 203.17498181818183L 527.8399999999999 200.48610909090908L 530.48 185.1810909090909L 533.1200000000001 187.88698181818182L 535.76 191.01832727272728L 538.4000000000001 192.31738181818181L 541.04 177.09745454545455L 543.68 167.91330909090908L 546.3199999999999 179.30981818181817L 548.96 186.49716363636364L 551.5999999999999 150.34487272727273L 554.24 184.27345454545454L 556.8800000000001 199.5104L 559.52 161.24785454545454L 562.16 155.49003636363636L 564.8000000000001 176.96130909090908L 567.44 190.30923636363636L 570.0799999999999 193.50865454545453L 572.72 201.72843636363638L 575.36 185.22647272727272L 578 192.03374545454545L 580.64 192.66909090909093L 583.2800000000001 180.18341818181818L 585.92 194.5013818181818L 588.56 194.6829090909091L 591.2 201.85323636363637L 593.8399999999999 196.2032L 596.48 204.49105454545455L 599.12 191.55723636363638L 601.7600000000001 180.36494545454545L 604.4 193.02647272727273L 607.04 186.20785454545455L 609.6800000000001 191.72741818181817L 612.3199999999999 191.4834909090909L 614.96 196.63432727272726L 617.6 200.7810909090909L 620.24 176.26923636363637L 622.88 165.78036363636363L 625.52 181.82850909090908L 628.16 160.6976L 630.8 163.93105454545454L 633.44 182.10647272727272L 636.0799999999999 130.808L 638.72 190.49643636363635L 641.36 202.0914909090909L 644 184.09192727272728L 646.64 197.50225454545455L 649.28 187.54094545454547L 651.9200000000001 192.95272727272726L 654.56 201.88727272727272L 657.2 184.33585454545454L 659.84 183.04814545454545L 662.4799999999999 182.36741818181818L 665.12 182.54327272727272L 667.76 186.38938181818182L 670.4 174.3858909090909L 673.04 183.1786181818182L 675.6800000000001 183.5133090909091L 678.32 184.60247272727273L 680.9599999999999 186.968L 683.6 170.00087272727274L 686.24 167.8338909090909L 688.88 203.32247272727273L 691.52 206L 694.1600000000001 128.43112727272728L 696.8 183.2637090909091L 699.4399999999999 156.8685090909091L 702.08 183.15592727272727L 704.7199999999999 183.2013090909091L 707.36 182.25963636363636L 710 170.18807272727273L 712.6400000000001 186.86589090909092L 715.28 183.77425454545454L 717.92 186.29861818181817L 720.5600000000001 184.17134545454545L 723.1999999999999 184.9655272727273L 725.84 178.1696L 728.48 180.70530909090908L 731.12 170.80072727272727L 733.76 177.99374545454546L 736.4 175.99127272727273L 739.04 173.75621818181818L 741.68 175.45803636363638L 744.32 196.91796363636365L 746.96 150.30516363636363L 749.6 167.34036363636363L 752.24 174.52203636363637L 754.88 132.05599999999998L 757.52 144.8309818181818L 760.16 173.60872727272726L 762.8000000000001 151.91054545454546L 765.4399999999999 194.03621818181819L 768.08 160.59549090909093L 770.72 206L 773.3599999999999 153.43650909090908L 776 181.01163636363637L 778.64 181.6413090909091L 781.2800000000001 182.49221818181817L 783.92 183.08785454545455L 786.5600000000001 206L 789.2 151.86516363636363L 791.8399999999999 172.45716363636365L 794.48 169.20669090909092L 797.12 178.22065454545455L 799.76 175.54312727272728L 802.4 177.61367272727273L 805.0400000000001 181.0173090909091L 807.68 176.80814545454547L 810.3199999999999 167.8962909090909L 812.96 167.1248L 815.6 176.62094545454545L 818.24 158.63272727272727L 820.88 151.3602909090909L 823.5200000000001 173.35345454545455L 826.16 206L 828.8 206L 831.44 206L 834.0799999999999 206L 836.72 206L 839.36 206L 842 206L 844.64 206L 847.28 206L 849.9200000000001 206L 852.56 206L 855.2 206L 857.84 206L 860.48 206L 863.12 206L 865.76 206L 868.4 206L 871.04 206L 873.6800000000001 206L 876.3199999999999 206L 878.96 206L 881.6 206L 884.2399999999999 206L 886.88 206L 889.52 206L 892.1600000000001 206L 894.8 206L 897.44 206L 900.08 206L 902.7199999999999 206L 905.36 206L 908 206L 910.64 206L 913.28 206L 915.9200000000001 206L 918.56 206L 921.1999999999999 206L 923.84 206L 926.48 206L 929.12 206L 931.76 206L 934.4000000000001 206L 937.04 206L 939.68 206L 942.32 206L 944.9599999999999 206L 947.6 206L 950.24 206L 952.88 206L 955.52 206L 958.16 206L 960.8000000000001 206L 963.4399999999999 206L 966.08 206L 968.72 206L 971.36 206L 974 206" stroke-width="2.0" fill="none" />
    
        
        
        <text x="45.0" font-family="-apple-system, system-ui, BlinkMacSystemFont, Roboto" y="50.0" dominant-baseline="middle" text-anchor="end" font-size="12" fill="#24292f">27500.0</text>
        
            
            <path stroke="#74838f" stroke-dasharray="10 6" stroke-width="0.5"  d="M 50.0 50.0 L 974.0 50.0" />
        
    
        
        
        <text x="45.0" font-family="-apple-system, system-ui, BlinkMacSystemFont, Roboto" y="81.2" dominant-baseline="middle" text-anchor="end" font-size="12" fill="#24292f">22000.0</text>
        
            
            
            <path stroke="#74838f" stroke-dasharray="10 6" stroke-width="0.5"  d="M 50.0 81.2 L 974.0 81.2" />
        
    
        
        
        <text x="45.0" font-family="-apple-system, system-ui, BlinkMacSystemFont, Roboto" y="112.4" dominant-baseline="middle" text-anchor="end" font-size="12" fill="#24292f">16500.0</text>
        
            
            
            <path stroke="#74838f" stroke-dasharray="10 6" stroke-width="0.5"  d="M 50.0 112.4 L 974.0 112.4" />
        
    
        
        
        <text x="45.0" font-family="-apple-system, system-ui, BlinkMacSystemFont, Roboto" y="143.6" dominant-baseline="middle" text-anchor="end" font-size="12" fill="#24292f">11000.0</text>
        
            
            
            <path stroke="#74838f" stroke-dasharray="10 6" stroke-width="0.5"  d="M 50.0 143.6 L 974.0 143.6" />
        
    
        
        
        <text x="45.0" font-family="-apple-system, system-ui, BlinkMacSystemFont, Roboto" y="174.8" dominant-baseline="middle" text-anchor="end" font-size="12" fill="#24292f">5500.0</text>
        
            
            
            <path stroke="#74838f" stroke-dasharray="10 6" stroke-width="0.5"  d="M 50.0 174.8 L 974.0 174.8" />
        
    
        
        
        <text x="45.0" font-family="-apple-system, system-ui, BlinkMacSystemFont, Roboto" y="206.0" dominant-baseline="middle" text-anchor="end" font-size="12" fill="#24292f">0.0</text>
        
    
    
        
        <path stroke="#74838f"  stroke-width="2.0"  d="M 92.24000000000001 206.0 L 92.24000000000001 214.0" />
        <text x="92.24000000000001" font-family="-apple-system, system-ui, BlinkMacSystemFont, Roboto" y="216.0" dominant-baseline="hanging" text-anchor="middle" font-size="12" fill="#24292f">Mar 2022</text>
    
        
        <path stroke="#74838f"  stroke-width="2.0"  d="M 174.07999999999998 206.0 L 174.07999999999998 214.0" />
        <text x="174.07999999999998" font-family="-apple-system, system-ui, BlinkMacSystemFont, Roboto" y="216.0" dominant-baseline="hanging" text-anchor="middle" font-size="12" fill="#24292f">Apr 2022</text>
    
        
        <path stroke="#74838f"  stroke-width="2.0"  d="M 253.28 206.0 L 253.28 214.0" />
        <text x="253.28" font-family="-apple-system, system-ui, BlinkMacSystemFont, Roboto" y="216.0" dominant-baseline="hanging" text-anchor="middle" font-size="12" fill="#24292f">May 2022</text>
    
        
        <path stroke="#74838f"  stroke-width="2.0"  d="M 335.12 206.0 L 335.12 214.0" />
        <text x="335.12" font-family="-apple-system, system-ui, BlinkMacSystemFont, Roboto" y="216.0" dominant-baseline="hanging" text-anchor="middle" font-size="12" fill="#24292f">Jun 2022</text>
    
        
        <path stroke="#74838f"  stroke-width="2.0"  d="M 414.32 206.0 L 414.32 214.0" />
        <text x="414.32" font-family="-apple-system, system-ui, BlinkMacSystemFont, Roboto" y="216.0" dominant-baseline="hanging" text-anchor="middle" font-size="12" fill="#24292f">Jul 2022</text>
    
        
        <path stroke="#74838f"  stroke-width="2.0"  d="M 496.16 206.0 L 496.16 214.0" />
        <text x="496.16" font-family="-apple-system, system-ui, BlinkMacSystemFont, Roboto" y="216.0" dominant-baseline="hanging" text-anchor="middle" font-size="12" fill="#24292f">Aug 2022</text>
    
        
        <path stroke="#74838f"  stroke-width="2.0"  d="M 578.0 206.0 L 578.0 214.0" />
        <text x="578.0" font-family="-apple-system, system-ui, BlinkMacSystemFont, Roboto" y="216.0" dominant-baseline="hanging" text-anchor="middle" font-size="12" fill="#24292f">Sep 2022</text>
    
        
        <path stroke="#74838f"  stroke-width="2.0"  d="M 657.2 206.0 L 657.2 214.0" />
        <text x="657.2" font-family="-apple-system, system-ui, BlinkMacSystemFont, Roboto" y="216.0" dominant-baseline="hanging" text-anchor="middle" font-size="12" fill="#24292f">Oct 2022</text>
    
        
        <path stroke="#74838f"  stroke-width="2.0"  d="M 739.04 206.0 L 739.04 214.0" />
        <text x="739.04" font-family="-apple-system, system-ui, BlinkMacSystemFont, Roboto" y="216.0" dominant-baseline="hanging" text-anchor="middle" font-size="12" fill="#24292f">Nov 2022</text>
    
        
        <path stroke="#74838f"  stroke-width="2.0"  d="M 818.24 206.0 L 818.24 214.0" />
        <text x="818.24" font-family="-apple-system, system-ui, BlinkMacSystemFont, Roboto" y="216.0" dominant-baseline="hanging" text-anchor="middle" font-size="12" fill="#24292f">Dec 2022</text>
    
        
        <path stroke="#74838f"  stroke-width="2.0"  d="M 900.08 206.0 L 900.08 214.0" />
        <text x="900.08" font-family="-apple-system, system-ui, BlinkMacSystemFont, Roboto" y="216.0" dominant-baseline="hanging" text-anchor="middle" font-size="12" fill="#24292f">Jan 2023</text>
    
    <path stroke="#74838f"   stroke-linejoin="round" stroke-width="2.0" d="M 50.0 216.0 L 50.0 206.0 L 974.0 206.0 L 974.0 216.0"  fill="none" />
    <text x="512.0" y="25.0" font-family="-apple-system, system-ui, BlinkMacSystemFont, Roboto" dominant-baseline="middle" text-anchor="middle" font-size="18" fill="#24292f">Total daily screen name changes</text>
</svg>
