<?xml version="1.0" standalone="no"?>
<svg width="1024.0" height="256.0"  viewBox="0 0 1024.0 256.0" preserveAspectRatio="xMidYMid meet" xmlns="http://www.w3.org/2000/svg">
    <path stroke="#3498db" stroke-linejoin="round" d="M 50.0 203.3394909090909 L 50 203.3394909090909L 52.860681114551085 202.32974545454545L 55.72136222910217 196.86690909090908L 58.582043343653254 195.94792727272727L 61.44272445820434 202.14254545454546L 64.30340557275542 197.35476363636363L 67.16408668730651 191.76145454545454L 70.02476780185759 179.96218181818182L 72.88544891640868 204.09396363636364L 75.74613003095975 194.17236363636363L 78.60681114551083 192.61803636363635L 81.46749226006192 195.1253818181818L 84.328173374613 193.92843636363637L 87.18885448916409 182.2482909090909L 90.04953560371517 200.86618181818181L 92.91021671826626 201.45614545454546L 95.77089783281734 178.89003636363637L 98.63157894736841 197.33774545454546L 101.4922600619195 198.50065454545455L 104.35294117647058 200.41803636363636L 107.21362229102166 201.18385454545455L 110.07430340557275 202.26734545454545L 112.93498452012383 195.09134545454546L 115.79566563467493 198.08087272727272L 118.656346749226 183.38850909090908L 121.51702786377709 197.47389090909093L 124.37770897832817 202.01774545454546L 127.23839009287926 194.66021818181818L 130.09907120743034 200.75272727272727L 132.95975232198143 200.00392727272728L 135.8204334365325 201.97236363636364L 138.6811145510836 204.2754909090909L 141.54179566563468 201.74545454545455L 144.40247678018576 201.01367272727273L 147.26315789473682 174.7829818181818L 150.12383900928793 195.76072727272728L 152.984520123839 204.0032L 155.8452012383901 203.7309090909091L 158.70588235294116 197.87665454545453L 161.56656346749227 202.60770909090908L 164.42724458204333 202.6928L 167.2879256965944 197.55898181818182L 170.1486068111455 186.5141818181818L 173.00928792569658 199.26647272727274L 175.86996904024767 199.5728L 178.73065015479875 193.4802909090909L 181.59133126934987 199.10763636363635L 184.45201238390092 201.54690909090908L 187.312693498452 201.5696L 190.1733746130031 195.06865454545454L 193.03405572755418 201.70007272727273L 195.89473684210526 197.2866909090909L 198.75541795665634 172.35505454545455L 201.61609907120743 203.20901818181818L 204.4767801857585 199.6749090909091L 207.3374613003096 193.12858181818183L 210.19814241486068 196.8896L 213.05882352941177 199.78836363636364L 215.91950464396285 198.82967272727274L 218.78018575851394 204.1336727272727L 221.64086687306502 202.57934545454546L 224.50154798761608 198.9261090909091L 227.3622291021672 206L 230.22291021671828 204.128L 233.08359133126936 192.1245090909091L 235.94427244582042 206L 238.80495356037153 206L 241.66563467492261 206L 244.52631578947367 206L 247.38699690402476 197.37178181818183L 250.24767801857587 199.57847272727273L 253.10835913312695 188.9024L 255.969040247678 195.02894545454546L 258.82972136222907 191.20552727272727L 261.6904024767802 166.8128L 264.55108359133123 203.8386909090909L 267.4117647058823 198.09221818181817L 270.2724458204334 201.64334545454545L 273.13312693498455 202.2957090909091L 275.9938080495356 203.22036363636363L 278.85448916408666 200.66763636363635L 281.71517027863774 191.51185454545455L 284.5758513931888 189.18603636363636L 287.43653250773997 203.86705454545455L 290.297213622291 197.56465454545454L 293.1578947368421 187.32538181818182L 296.01857585139317 201.2349090909091L 298.87925696594425 200.44639999999998L 301.73993808049534 201.4618181818182L 304.6006191950464 201.09876363636363L 307.4613003095975 201.17818181818183L 310.3219814241486 193.02647272727273L 313.18266253869973 198.8069818181818L 316.04334365325076 203.39054545454545L 318.90402476780184 200.30458181818182L 321.7647058823529 198.35883636363636L 324.625386996904 193.3101090909091L 327.48606811145515 200.56552727272728L 330.3467492260062 203.03883636363636L 333.20743034055727 197.22996363636364L 336.06811145510835 201.95534545454547L 338.92879256965944 196.016L 341.7894736842105 202.30705454545455L 344.6501547987616 199.91316363636363L 347.5108359133127 194.62050909090908L 350.3715170278638 201.29163636363637L 353.23219814241486 202.98778181818182L 356.09287925696594 203.5437090909091L 358.953560371517 200.60523636363638L 361.8142414860681 195.5621818181818L 364.6749226006192 203.24305454545456L 367.5356037151703 200.15709090909093L 370.39628482972137 198.46661818181818L 373.25696594427245 201.70007272727273L 376.11764705882354 200.70734545454545L 378.9783281733746 200.4293818181818L 381.8390092879257 201.76814545454545L 384.6996904024768 204.6442181818182L 387.5603715170279 206L 390.4210526315789 196.35636363636365L 393.28173374613004 199.21541818181817L 396.14241486068113 156.87418181818182L 399.00309597523216 165.1506909090909L 401.8637770897833 204.1733818181818L 404.7244582043344 202.17658181818183L 407.58513931888547 199.31185454545454L 410.44582043343655 198.7842909090909L 413.3065015479876 202.6757818181818L 416.1671826625387 202.8573090909091L 419.0278637770898 196.1861818181818L 421.88854489164083 199.64654545454545L 424.749226006192 198.2056727272727L 427.60990712074306 201.2178909090909L 430.4705882352941 201.79083636363637L 433.33126934984523 201.90429090909092L 436.19195046439626 200.1968L 439.05263157894734 195.17076363636363L 441.9133126934985 206L 444.7739938080495 206L 447.6346749226006 206L 450.49535603715174 191.4834909090909L 453.35603715170276 197.79723636363636L 456.2167182662539 198.85236363636363L 459.07739938080493 199.76L 461.938080495356 200.03796363636363L 464.79876160990716 200.76407272727272L 467.6594427244582 201.80785454545455L 470.5201238390093 191.63098181818182L 473.3808049535604 194.41061818181817L 476.24148606811144 199.88479999999998L 479.1021671826625 152.63098181818182L 481.9628482972136 197.04843636363637L 484.8235294117647 194.4730181818182L 487.6842105263158 155.90414545454547L 490.54489164086687 91.60945454545454L 493.40557275541795 104.5376L 496.2662538699691 151.17876363636364L 499.1269349845201 185.1981090909091L 501.9876160990712 142.76610909090908L 504.8482972136223 125.0672L 507.7089783281734 123.74545454545455L 510.56965944272446 157.99738181818182L 513.4303405572755 53.56814545454546L 516.2910216718267 50.78850909090909L 519.1517027863777 100.02210909090908L 522.0123839009289 156.2445090909091L 524.8730650154799 180.31956363636363L 527.7337461300309 192.43650909090908L 530.594427244582 193.63912727272728L 533.4551083591332 193.3328L 536.3157894736842 192.11316363636365L 539.1764705882354 197.93338181818183L 542.0371517027863 191.5629090909091L 544.8978328173374 198.7672727272727L 547.7585139318885 199.3005090909091L 550.6191950464397 201.64901818181818L 553.4798761609907 200.58821818181818L 556.3405572755419 202.43752727272727L 559.2012383900928 200.73003636363637L 562.0619195046439 189.7703272727273L 564.922600619195 203.17498181818183L 567.7832817337462 200.48610909090908L 570.6439628482972 185.1810909090909L 573.5046439628483 187.88698181818182L 576.3653250773995 191.01832727272728L 579.2260061919504 192.31738181818181L 582.0866873065015 177.09745454545455L 584.9473684210526 167.91330909090908L 587.8080495356037 179.30981818181817L 590.6687306501548 186.49716363636364L 593.5294117647059 150.34487272727273L 596.390092879257 184.27345454545454L 599.250773993808 199.5104L 602.1114551083591 161.24785454545454L 604.9721362229103 155.49003636363636L 607.8328173374613 176.96130909090908L 610.6934984520124 190.30923636363636L 613.5541795665636 193.50865454545453L 616.4148606811145 201.72843636363638L 619.2755417956656 185.22647272727272L 622.1362229102167 192.03374545454545L 624.9969040247678 192.66909090909093L 627.8575851393189 180.18341818181818L 630.71826625387 194.5013818181818L 633.578947368421 194.6829090909091L 636.4396284829721 201.85323636363637L 639.3003095975232 196.2032L 642.1609907120743 204.49105454545455L 645.0216718266254 191.55723636363638L 647.8823529411765 180.36494545454545L 650.7430340557275 193.02647272727273L 653.6037151702786 186.20785454545455L 656.4643962848297 191.72741818181817L 659.3250773993808 191.4834909090909L 662.1857585139319 196.63432727272726L 665.046439628483 200.7810909090909L 667.907120743034 176.26923636363637L 670.7678018575851 165.78036363636363L 673.6284829721362 181.82850909090908L 676.4891640866873 160.6976L 679.3498452012384 163.93105454545454L 682.2105263157895 182.10647272727272L 685.0712074303406 130.808L 687.9318885448916 190.49643636363635L 690.7925696594427 202.0914909090909L 693.6532507739938 184.09192727272728L 696.5139318885449 197.50225454545455L 699.374613003096 187.54094545454547L 702.2352941176471 192.95272727272726L 705.0959752321982 201.88727272727272L 707.9566563467492 184.33585454545454L 710.8173374613003 183.04814545454545L 713.6780185758514 182.36741818181818L 716.5386996904025 182.54327272727272L 719.3993808049536 186.38938181818182L 722.2600619195047 174.3858909090909L 725.1207430340557 183.1786181818182L 727.9814241486068 183.5133090909091L 730.8421052631578 184.60247272727273L 733.702786377709 186.968L 736.5634674922601 170.00087272727274L 739.4241486068111 167.8338909090909L 742.2848297213623 203.32247272727273L 745.1455108359133 206L 748.0061919504643 128.43112727272728L 750.8668730650155 183.2637090909091L 753.7275541795666 156.8685090909091L 756.5882352941176 183.15592727272727L 759.4489164086688 183.2013090909091L 762.3095975232198 182.25963636363636L 765.1702786377709 170.18807272727273L 768.030959752322 186.86589090909092L 770.8916408668731 183.77425454545454L 773.7523219814242 186.29861818181817L 776.6130030959752 184.17134545454545L 779.4736842105264 184.9655272727273L 782.3343653250774 178.1696L 785.1950464396284 180.70530909090908L 788.0557275541796 170.80072727272727L 790.9164086687307 177.99374545454546L 793.7770897832817 175.99127272727273L 796.6377708978329 173.75621818181818L 799.498452012384 175.45803636363638L 802.3591331269349 196.91796363636365L 805.2198142414861 150.30516363636363L 808.0804953560372 167.34036363636363L 810.9411764705882 174.52203636363637L 813.8018575851393 132.05599999999998L 816.6625386996905 144.8309818181818L 819.5232198142414 173.60872727272726L 822.3839009287925 151.91054545454546L 825.2445820433437 194.03621818181819L 828.1052631578947 160.59549090909093L 830.9659442724458 206L 833.826625386997 153.43650909090908L 836.6873065015479 181.01163636363637L 839.547987616099 181.6413090909091L 842.4086687306502 182.49221818181817L 845.2693498452012 183.08785454545455L 848.1300309597523 206L 850.9907120743035 151.86516363636363L 853.8513931888546 172.45716363636365L 856.7120743034055 169.20669090909092L 859.5727554179566 178.22065454545455L 862.4334365325078 175.54312727272728L 865.2941176470588 177.61367272727273L 868.1547987616099 181.0173090909091L 871.0154798761611 176.80814545454547L 873.876160990712 167.8962909090909L 876.7368421052631 167.1248L 879.5975232198143 176.62094545454545L 882.4582043343653 158.63272727272727L 885.3188854489164 151.3602909090909L 888.1795665634676 173.35345454545455L 891.0402476780185 206L 893.9009287925696 206L 896.7616099071208 206L 899.6222910216718 206L 902.4829721362229 206L 905.343653250774 206L 908.204334365325 206L 911.0650154798761 206L 913.9256965944272 206L 916.7863777089783 206L 919.6470588235294 206L 922.5077399380805 206L 925.3684210526316 206L 928.2291021671826 206L 931.0897832817337 206L 933.9504643962849 206L 936.8111455108359 206L 939.671826625387 206L 942.5325077399382 206L 945.3931888544892 206L 948.2538699690402 206L 951.1145510835913 206L 953.9752321981424 206L 956.8359133126935 206L 959.6965944272446 206L 962.5572755417957 206L 965.4179566563467 206L 968.2786377708978 206L 971.1393188854489 206L 974 206" stroke-width="2.0" fill="none" />
    
        
        
        <text x="45.0" font-family="-apple-system, system-ui, BlinkMacSystemFont, Roboto" y="50.0" dominant-baseline="middle" text-anchor="end" font-size="12" fill="#24292f">27500.0</text>
        
            
            <path stroke="#74838f" stroke-dasharray="10 6" stroke-width="0.5"  d="M 50.0 50.0 L 974.0 50.0" />
        
    
        
        
        <text x="45.0" font-family="-apple-system, system-ui, BlinkMacSystemFont, Roboto" y="81.2" dominant-baseline="middle" text-anchor="end" font-size="12" fill="#24292f">22000.0</text>
        
            
            
            <path stroke="#74838f" stroke-dasharray="10 6" stroke-width="0.5"  d="M 50.0 81.2 L 974.0 81.2" />
        
    
        
        
        <text x="45.0" font-family="-apple-system, system-ui, BlinkMacSystemFont, Roboto" y="112.4" dominant-baseline="middle" text-anchor="end" font-size="12" fill="#24292f">16500.0</text>
        
            
            
            <path stroke="#74838f" stroke-dasharray="10 6" stroke-width="0.5"  d="M 50.0 112.4 L 974.0 112.4" />
        
    
        
        
        <text x="45.0" font-family="-apple-system, system-ui, BlinkMacSystemFont, Roboto" y="143.6" dominant-baseline="middle" text-anchor="end" font-size="12" fill="#24292f">11000.0</text>
        
            
            
            <path stroke="#74838f" stroke-dasharray="10 6" stroke-width="0.5"  d="M 50.0 143.6 L 974.0 143.6" />
        
    
        
        
        <text x="45.0" font-family="-apple-system, system-ui, BlinkMacSystemFont, Roboto" y="174.8" dominant-baseline="middle" text-anchor="end" font-size="12" fill="#24292f">5500.0</text>
        
            
            
            <path stroke="#74838f" stroke-dasharray="10 6" stroke-width="0.5"  d="M 50.0 174.8 L 974.0 174.8" />
        
    
        
        
        <text x="45.0" font-family="-apple-system, system-ui, BlinkMacSystemFont, Roboto" y="206.0" dominant-baseline="middle" text-anchor="end" font-size="12" fill="#24292f">0.0</text>
        
    
    
        
        <path stroke="#74838f"  stroke-width="2.0"  d="M 95.77089783281734 206.0 L 95.77089783281734 214.0" />
        <text x="95.77089783281734" font-family="-apple-system, system-ui, BlinkMacSystemFont, Roboto" y="216.0" dominant-baseline="hanging" text-anchor="middle" font-size="12" fill="#24292f">Mar 2022</text>
    
        
        <path stroke="#74838f"  stroke-width="2.0"  d="M 184.45201238390092 206.0 L 184.45201238390092 214.0" />
        <text x="184.45201238390092" font-family="-apple-system, system-ui, BlinkMacSystemFont, Roboto" y="216.0" dominant-baseline="hanging" text-anchor="middle" font-size="12" fill="#24292f">Apr 2022</text>
    
        
        <path stroke="#74838f"  stroke-width="2.0"  d="M 270.2724458204334 206.0 L 270.2724458204334 214.0" />
        <text x="270.2724458204334" font-family="-apple-system, system-ui, BlinkMacSystemFont, Roboto" y="216.0" dominant-baseline="hanging" text-anchor="middle" font-size="12" fill="#24292f">May 2022</text>
    
        
        <path stroke="#74838f"  stroke-width="2.0"  d="M 358.953560371517 206.0 L 358.953560371517 214.0" />
        <text x="358.953560371517" font-family="-apple-system, system-ui, BlinkMacSystemFont, Roboto" y="216.0" dominant-baseline="hanging" text-anchor="middle" font-size="12" fill="#24292f">Jun 2022</text>
    
        
        <path stroke="#74838f"  stroke-width="2.0"  d="M 444.7739938080495 206.0 L 444.7739938080495 214.0" />
        <text x="444.7739938080495" font-family="-apple-system, system-ui, BlinkMacSystemFont, Roboto" y="216.0" dominant-baseline="hanging" text-anchor="middle" font-size="12" fill="#24292f">Jul 2022</text>
    
        
        <path stroke="#74838f"  stroke-width="2.0"  d="M 533.4551083591332 206.0 L 533.4551083591332 214.0" />
        <text x="533.4551083591332" font-family="-apple-system, system-ui, BlinkMacSystemFont, Roboto" y="216.0" dominant-baseline="hanging" text-anchor="middle" font-size="12" fill="#24292f">Aug 2022</text>
    
        
        <path stroke="#74838f"  stroke-width="2.0"  d="M 622.1362229102167 206.0 L 622.1362229102167 214.0" />
        <text x="622.1362229102167" font-family="-apple-system, system-ui, BlinkMacSystemFont, Roboto" y="216.0" dominant-baseline="hanging" text-anchor="middle" font-size="12" fill="#24292f">Sep 2022</text>
    
        
        <path stroke="#74838f"  stroke-width="2.0"  d="M 707.9566563467492 206.0 L 707.9566563467492 214.0" />
        <text x="707.9566563467492" font-family="-apple-system, system-ui, BlinkMacSystemFont, Roboto" y="216.0" dominant-baseline="hanging" text-anchor="middle" font-size="12" fill="#24292f">Oct 2022</text>
    
        
        <path stroke="#74838f"  stroke-width="2.0"  d="M 796.6377708978329 206.0 L 796.6377708978329 214.0" />
        <text x="796.6377708978329" font-family="-apple-system, system-ui, BlinkMacSystemFont, Roboto" y="216.0" dominant-baseline="hanging" text-anchor="middle" font-size="12" fill="#24292f">Nov 2022</text>
    
        
        <path stroke="#74838f"  stroke-width="2.0"  d="M 882.4582043343653 206.0 L 882.4582043343653 214.0" />
        <text x="882.4582043343653" font-family="-apple-system, system-ui, BlinkMacSystemFont, Roboto" y="216.0" dominant-baseline="hanging" text-anchor="middle" font-size="12" fill="#24292f">Dec 2022</text>
    
        
        <path stroke="#74838f"  stroke-width="2.0"  d="M 971.1393188854489 206.0 L 971.1393188854489 214.0" />
        <text x="971.1393188854489" font-family="-apple-system, system-ui, BlinkMacSystemFont, Roboto" y="216.0" dominant-baseline="hanging" text-anchor="middle" font-size="12" fill="#24292f">Jan 2023</text>
    
    <path stroke="#74838f"   stroke-linejoin="round" stroke-width="2.0" d="M 50.0 216.0 L 50.0 206.0 L 974.0 206.0 L 974.0 216.0"  fill="none" />
    <text x="512.0" y="25.0" font-family="-apple-system, system-ui, BlinkMacSystemFont, Roboto" dominant-baseline="middle" text-anchor="middle" font-size="18" fill="#24292f">Total daily screen name changes</text>
</svg>
