<?xml version="1.0" standalone="no"?>
<svg width="1024.0" height="256.0"  viewBox="0 0 1024.0 256.0" preserveAspectRatio="xMidYMid meet" xmlns="http://www.w3.org/2000/svg">
    <path stroke="#3498db" stroke-linejoin="round" d="M 50.0 203.89541818181817 L 50 203.89541818181817L 53.567567567567565 203.10123636363636L 57.13513513513514 197.48523636363637L 60.7027027027027 196.18050909090908L 64.27027027027027 202.3184L 67.83783783783784 197.4512L 71.4054054054054 192.1245090909091L 74.97297297297297 179.9565090909091L 78.54054054054055 204.15636363636364L 82.1081081081081 194.15534545454545L 85.67567567567568 192.66909090909093L 89.24324324324324 195.1424L 92.8108108108108 193.92276363636364L 96.37837837837839 182.33905454545456L 99.94594594594595 200.85483636363637L 103.51351351351352 201.6546909090909L 107.08108108108108 178.86167272727272L 110.64864864864865 197.52494545454545L 114.21621621621621 198.56305454545455L 117.78378378378379 200.5314909090909L 121.35135135135135 201.2178909090909L 124.91891891891892 202.34676363636362L 128.48648648648648 195.2274909090909L 132.05405405405406 198.0752L 135.6216216216216 183.4565818181818L 139.1891891891892 197.59869090909092L 142.75675675675677 202.08014545454546L 146.32432432432432 194.6658909090909L 149.8918918918919 200.7810909090909L 153.45945945945945 200.10036363636362L 157.02702702702703 201.97803636363636L 160.59459459459458 204.76901818181818L 164.16216216216216 201.89294545454544L 167.72972972972974 201.0306909090909L 171.2972972972973 175.23112727272726L 174.86486486486487 195.77774545454545L 178.43243243243242 204.0032L 182 203.75927272727273L 185.56756756756758 197.88232727272728L 189.13513513513513 202.61905454545456L 192.7027027027027 202.91403636363637L 196.27027027027026 197.59869090909092L 199.83783783783784 186.4914909090909L 203.40540540540542 199.28349090909092L 206.97297297297297 199.68058181818182L 210.54054054054055 193.57672727272728L 214.10810810810813 199.18138181818182L 217.67567567567568 201.5696L 221.24324324324323 201.62065454545456L 224.8108108108108 195.1424L 228.3783783783784 201.7341090909091L 231.94594594594594 197.27534545454546L 235.51351351351352 172.3664L 239.0810810810811 203.20334545454546L 242.64864864864865 199.7373090909091L 246.2162162162162 193.1229090909091L 249.7837837837838 196.96334545454545L 253.35135135135135 199.87345454545454L 256.9189189189189 198.824L 260.48648648648646 204.128L 264.05405405405406 202.7778909090909L 267.6216216216216 198.9090909090909L 271.18918918918916 206L 274.7567567567568 204.128L 278.3243243243243 192.10749090909093L 281.8918918918919 206L 285.4594594594595 206L 289.027027027027 206L 292.5945945945946 206L 296.1621621621622 197.35476363636363L 299.72972972972974 199.55578181818183L 303.2972972972973 188.88538181818183L 306.86486486486484 195.42603636363637L 310.43243243243245 191.19418181818182L 314 166.76174545454546L 317.56756756756755 203.92378181818182L 321.13513513513516 198.09221818181817L 324.7027027027027 201.68872727272728L 328.27027027027026 202.2957090909091L 331.83783783783787 203.2770909090909L 335.4054054054054 200.69032727272727L 338.97297297297297 191.59127272727272L 342.5405405405405 189.18603636363636L 346.1081081081081 203.88974545454545L 349.6756756756757 197.54196363636362L 353.2432432432432 187.50123636363637L 356.81081081081084 201.2576L 360.3783783783784 200.44072727272726L 363.94594594594594 201.4618181818182L 367.5135135135135 201.09876363636363L 371.0810810810811 201.25192727272727L 374.64864864864865 192.99810909090908L 378.21621621621625 198.79563636363636L 381.7837837837838 203.39054545454545L 385.35135135135135 200.30458181818182L 388.9189189189189 198.6992L 392.48648648648646 193.30443636363637L 396.054054054054 200.54850909090908L 399.6216216216216 203.02749090909091L 403.1891891891892 197.38312727272728L 406.7567567567568 201.95534545454547L 410.3243243243243 196.15214545454546L 413.8918918918919 202.36378181818182L 417.4594594594594 199.95287272727273L 421.02702702702703 194.73963636363635L 424.59459459459464 201.28029090909092L 428.1621621621622 203.05585454545454L 431.72972972972974 203.53803636363637L 435.2972972972973 200.65061818181817L 438.86486486486484 195.5621818181818L 442.4324324324324 203.3962181818182L 446 200.1968L 449.5675675675676 198.4496L 453.13513513513516 201.70007272727273L 456.7027027027027 200.7981090909091L 460.27027027027026 200.45774545454546L 463.8378378378378 201.74545454545455L 467.4054054054054 204.6442181818182L 470.97297297297297 206L 474.5405405405406 196.45847272727272L 478.1081081081081 199.18705454545454L 481.6756756756757 156.77207272727273L 485.2432432432432 165.0656L 488.8108108108108 204.3776L 492.3783783783784 202.16523636363638L 495.94594594594594 199.3061818181818L 499.51351351351354 198.92043636363636L 503.0810810810811 202.7154909090909L 506.64864864864865 202.84596363636365L 510.2162162162162 196.1861818181818L 513.7837837837837 199.70894545454547L 517.3513513513514 198.19432727272726L 520.918918918919 201.21221818181817L 524.4864864864865 201.90429090909092L 528.054054054054 201.89294545454544L 531.6216216216216 200.17978181818182L 535.1891891891892 195.30690909090907L 538.7567567567569 206L 542.3243243243244 206L 545.8918918918919 206L 549.4594594594595 191.4608L 553.0270270270271 197.92203636363638L 556.5945945945946 198.89774545454546L 560.1621621621622 199.78269090909092L 563.7297297297297 200.14007272727272L 567.2972972972973 200.76407272727272L 570.8648648648649 201.80785454545455L 574.4324324324324 191.64232727272727L 578 194.45032727272726L 581.5675675675675 199.88479999999998L 585.1351351351351 152.4834909090909L 588.7027027027027 197.25832727272729L 592.2702702702703 194.4333090909091L 595.8378378378379 155.8701090909091L 599.4054054054054 91.35985454545455L 602.972972972973 104.38443636363637L 606.5405405405405 151.09934545454547L 610.1081081081081 185.27185454545454L 613.6756756756757 142.6413090909091L 617.2432432432432 124.94807272727273L 620.8108108108108 123.59229090909092L 624.3783783783783 157.87258181818183L 627.9459459459459 53.2448L 631.5135135135134 50.419781818181804L 635.081081081081 99.76116363636363L 638.6486486486486 156.1026909090909L 642.2162162162163 180.2912L 645.7837837837839 192.40814545454546L 649.3513513513514 193.7469090909091L 652.918918918919 193.3101090909091L 656.4864864864865 192.11883636363638L 660.0540540540541 197.94472727272728L 663.6216216216217 191.54021818181818L 667.1891891891892 198.7445818181818L 670.7567567567568 199.31752727272726L 674.3243243243243 201.64901818181818L 677.8918918918919 200.5712L 681.4594594594595 202.49992727272726L 685.027027027027 200.72436363636365L 688.5945945945946 190.14472727272727L 692.1621621621622 203.16930909090908L 695.7297297297298 200.4690909090909L 699.2972972972973 185.13003636363635L 702.8648648648649 188.00043636363637L 706.4324324324325 190.96727272727273L 710 192.29469090909092L 713.5675675675676 177.01236363636363L 717.1351351351351 167.79985454545454L 720.7027027027027 179.3154909090909L 724.2702702702702 186.3837090909091L 727.8378378378378 150.07258181818182L 731.4054054054054 184.29047272727274L 734.9729729729729 199.58414545454545L 738.5405405405405 161.17978181818182L 742.108108108108 155.58647272727274L 745.6756756756757 176.9216L 749.2432432432432 190.28654545454546L 752.8108108108108 193.53134545454546L 756.3783783783784 201.70574545454545L 759.9459459459459 185.22647272727272L 763.5135135135135 192.0450909090909L 767.081081081081 192.72581818181817L 770.6486486486486 180.1493818181818L 774.2162162162163 194.52974545454546L 777.7837837837837 194.72261818181818L 781.3513513513514 201.86458181818182L 784.9189189189188 196.18050909090908L 788.4864864864865 204.50807272727272L 792.0540540540541 191.57992727272728L 795.6216216216217 180.37061818181817L 799.1891891891893 192.99243636363636L 802.7567567567568 186.2192L 806.3243243243244 191.71607272727272L 809.8918918918919 191.45512727272728L 813.4594594594595 196.6229818181818L 817.0270270270271 200.8605090909091L 820.5945945945946 176.24654545454547L 824.1621621621622 165.63854545454546L 827.7297297297297 181.74341818181819L 831.2972972972973 160.41396363636363L 834.8648648648648 163.68712727272728L 838.4324324324324 182.01003636363637L 842 130.56974545454545L 845.5675675675675 190.45105454545455L 849.1351351351352 202.08581818181818L 852.7027027027027 184.04654545454545L 856.2702702702703 197.4909090909091L 859.8378378378378 187.5466181818182L 863.4054054054054 192.95839999999998L 866.972972972973 201.91563636363637L 870.5405405405405 184.38690909090909L 874.1081081081081 186.9056L 877.6756756756756 182.21992727272726L 881.2432432432432 182.3504L 884.8108108108108 186.30429090909092L 888.3783783783783 174.20436363636364L 891.9459459459459 183.0368L 895.5135135135134 183.40552727272728L 899.0810810810812 184.42094545454546L 902.6486486486486 186.93396363636364L 906.2162162162163 169.68887272727272L 909.7837837837839 168.5997090909091L 913.3513513513514 203.3168L 916.918918918919 206L 920.4864864864865 127.81280000000001L 924.0540540540541 183.1616L 927.6216216216216 156.43738181818182L 931.1891891891892 182.8496L 934.7567567567568 183.0765090909091L 938.3243243243243 182.25963636363636L 941.8918918918919 169.8704L 945.4594594594594 186.71272727272728L 949.0270270270271 183.4962909090909L 952.5945945945946 186.0944L 956.1621621621622 184.01818181818183L 959.7297297297298 184.63083636363638L 963.2972972972973 177.80087272727272L 966.8648648648649 180.32523636363635L 970.4324324324324 199.58981818181817L 974 206" stroke-width="2.0" fill="none" />
    
        
        
        <text x="45.0" font-family="-apple-system, system-ui, BlinkMacSystemFont, Roboto" y="50.0" dominant-baseline="middle" text-anchor="end" font-size="12" fill="#24292f">27500.0</text>
        
            
            <path stroke="#74838f" stroke-dasharray="10 6" stroke-width="0.5"  d="M 50.0 50.0 L 974.0 50.0" />
        
    
        
        
        <text x="45.0" font-family="-apple-system, system-ui, BlinkMacSystemFont, Roboto" y="81.2" dominant-baseline="middle" text-anchor="end" font-size="12" fill="#24292f">22000.0</text>
        
            
            
            <path stroke="#74838f" stroke-dasharray="10 6" stroke-width="0.5"  d="M 50.0 81.2 L 974.0 81.2" />
        
    
        
        
        <text x="45.0" font-family="-apple-system, system-ui, BlinkMacSystemFont, Roboto" y="112.4" dominant-baseline="middle" text-anchor="end" font-size="12" fill="#24292f">16500.0</text>
        
            
            
            <path stroke="#74838f" stroke-dasharray="10 6" stroke-width="0.5"  d="M 50.0 112.4 L 974.0 112.4" />
        
    
        
        
        <text x="45.0" font-family="-apple-system, system-ui, BlinkMacSystemFont, Roboto" y="143.6" dominant-baseline="middle" text-anchor="end" font-size="12" fill="#24292f">11000.0</text>
        
            
            
            <path stroke="#74838f" stroke-dasharray="10 6" stroke-width="0.5"  d="M 50.0 143.6 L 974.0 143.6" />
        
    
        
        
        <text x="45.0" font-family="-apple-system, system-ui, BlinkMacSystemFont, Roboto" y="174.8" dominant-baseline="middle" text-anchor="end" font-size="12" fill="#24292f">5500.0</text>
        
            
            
            <path stroke="#74838f" stroke-dasharray="10 6" stroke-width="0.5"  d="M 50.0 174.8 L 974.0 174.8" />
        
    
        
        
        <text x="45.0" font-family="-apple-system, system-ui, BlinkMacSystemFont, Roboto" y="206.0" dominant-baseline="middle" text-anchor="end" font-size="12" fill="#24292f">0.0</text>
        
    
    
        
        <path stroke="#74838f"  stroke-width="2.0"  d="M 107.08108108108108 206.0 L 107.08108108108108 214.0" />
        <text x="107.08108108108108" font-family="-apple-system, system-ui, BlinkMacSystemFont, Roboto" y="216.0" dominant-baseline="hanging" text-anchor="middle" font-size="12" fill="#24292f">Mar 2022</text>
    
        
        <path stroke="#74838f"  stroke-width="2.0"  d="M 217.67567567567568 206.0 L 217.67567567567568 214.0" />
        <text x="217.67567567567568" font-family="-apple-system, system-ui, BlinkMacSystemFont, Roboto" y="216.0" dominant-baseline="hanging" text-anchor="middle" font-size="12" fill="#24292f">Apr 2022</text>
    
        
        <path stroke="#74838f"  stroke-width="2.0"  d="M 324.7027027027027 206.0 L 324.7027027027027 214.0" />
        <text x="324.7027027027027" font-family="-apple-system, system-ui, BlinkMacSystemFont, Roboto" y="216.0" dominant-baseline="hanging" text-anchor="middle" font-size="12" fill="#24292f">May 2022</text>
    
        
        <path stroke="#74838f"  stroke-width="2.0"  d="M 435.2972972972973 206.0 L 435.2972972972973 214.0" />
        <text x="435.2972972972973" font-family="-apple-system, system-ui, BlinkMacSystemFont, Roboto" y="216.0" dominant-baseline="hanging" text-anchor="middle" font-size="12" fill="#24292f">Jun 2022</text>
    
        
        <path stroke="#74838f"  stroke-width="2.0"  d="M 542.3243243243244 206.0 L 542.3243243243244 214.0" />
        <text x="542.3243243243244" font-family="-apple-system, system-ui, BlinkMacSystemFont, Roboto" y="216.0" dominant-baseline="hanging" text-anchor="middle" font-size="12" fill="#24292f">Jul 2022</text>
    
        
        <path stroke="#74838f"  stroke-width="2.0"  d="M 652.918918918919 206.0 L 652.918918918919 214.0" />
        <text x="652.918918918919" font-family="-apple-system, system-ui, BlinkMacSystemFont, Roboto" y="216.0" dominant-baseline="hanging" text-anchor="middle" font-size="12" fill="#24292f">Aug 2022</text>
    
        
        <path stroke="#74838f"  stroke-width="2.0"  d="M 763.5135135135135 206.0 L 763.5135135135135 214.0" />
        <text x="763.5135135135135" font-family="-apple-system, system-ui, BlinkMacSystemFont, Roboto" y="216.0" dominant-baseline="hanging" text-anchor="middle" font-size="12" fill="#24292f">Sep 2022</text>
    
        
        <path stroke="#74838f"  stroke-width="2.0"  d="M 870.5405405405405 206.0 L 870.5405405405405 214.0" />
        <text x="870.5405405405405" font-family="-apple-system, system-ui, BlinkMacSystemFont, Roboto" y="216.0" dominant-baseline="hanging" text-anchor="middle" font-size="12" fill="#24292f">Oct 2022</text>
    
    <path stroke="#74838f"   stroke-linejoin="round" stroke-width="2.0" d="M 50.0 216.0 L 50.0 206.0 L 974.0 206.0 L 974.0 216.0"  fill="none" />
    <text x="512.0" y="25.0" font-family="-apple-system, system-ui, BlinkMacSystemFont, Roboto" dominant-baseline="middle" text-anchor="middle" font-size="18" fill="#24292f">Total daily screen name changes</text>
</svg>
