<?xml version="1.0" standalone="no"?>
<svg width="1024.0" height="256.0"  viewBox="0 0 1024.0 256.0" preserveAspectRatio="xMidYMid meet" xmlns="http://www.w3.org/2000/svg">
    <path stroke="#3498db" stroke-linejoin="round" d="M 50.0 203.3394909090909 L 50 203.3394909090909L 52.41253263707572 202.32974545454545L 54.825065274151434 196.86690909090908L 57.237597911227155 195.94792727272727L 59.65013054830287 202.14254545454546L 62.06266318537859 197.35476363636363L 64.47519582245431 191.76145454545454L 66.88772845953002 179.96218181818182L 69.30026109660574 204.09396363636364L 71.71279373368147 194.17236363636363L 74.12532637075718 192.61803636363635L 76.5378590078329 195.1253818181818L 78.95039164490862 193.92843636363637L 81.36292428198433 182.2482909090909L 83.77545691906005 200.86618181818181L 86.18798955613576 201.45614545454546L 88.60052219321149 178.89003636363637L 91.0130548302872 197.33774545454546L 93.42558746736293 198.50065454545455L 95.83812010443864 200.41803636363636L 98.25065274151436 201.18385454545455L 100.66318537859007 202.26734545454545L 103.0757180156658 195.09134545454546L 105.48825065274151 198.08087272727272L 107.90078328981723 183.38850909090908L 110.31331592689295 197.47389090909093L 112.72584856396867 202.01774545454546L 115.1383812010444 194.66021818181818L 117.55091383812011 200.75272727272727L 119.96344647519582 200.00392727272728L 122.37597911227154 201.97236363636364L 124.78851174934726 204.2754909090909L 127.20104438642298 201.74545454545455L 129.6135770234987 201.01367272727273L 132.0261096605744 174.7829818181818L 134.43864229765012 195.76072727272728L 136.85117493472586 204.0032L 139.26370757180155 203.7309090909091L 141.6762402088773 197.87665454545453L 144.088772845953 202.60770909090908L 146.50130548302872 202.6928L 148.91383812010443 197.55898181818182L 151.32637075718014 186.5141818181818L 153.73890339425589 199.26647272727274L 156.1514360313316 199.5728L 158.5639686684073 193.4802909090909L 160.97650130548303 199.10763636363635L 163.38903394255874 201.54690909090908L 165.80156657963445 201.5696L 168.21409921671017 195.06865454545454L 170.6266318537859 201.70007272727273L 173.03916449086162 197.2866909090909L 175.45169712793734 172.35505454545455L 177.86422976501305 203.20901818181818L 180.2767624020888 199.6749090909091L 182.68929503916448 193.12858181818183L 185.10182767624022 196.8896L 187.51436031331593 199.78836363636364L 189.92689295039165 198.82967272727274L 192.33942558746736 204.1336727272727L 194.75195822454307 202.57934545454546L 197.1644908616188 198.9261090909091L 199.57702349869453 206L 201.98955613577021 204.128L 204.40208877284596 192.1245090909091L 206.81462140992167 206L 209.22715404699738 206L 211.63968668407313 206L 214.0522193211488 206L 216.46475195822455 197.37178181818183L 218.87728459530027 199.57847272727273L 221.28981723237598 188.9024L 223.7023498694517 195.02894545454546L 226.11488250652744 191.20552727272727L 228.52741514360312 166.8128L 230.93994778067886 203.8386909090909L 233.35248041775455 198.09221818181817L 235.7650130548303 201.64334545454545L 238.177545691906 202.2957090909091L 240.59007832898172 203.22036363636363L 243.00261096605743 200.66763636363635L 245.41514360313317 191.51185454545455L 247.82767624020886 189.18603636363636L 250.2402088772846 203.86705454545455L 252.65274151436032 197.56465454545454L 255.06527415143603 187.32538181818182L 257.47780678851177 201.2349090909091L 259.89033942558746 200.44639999999998L 262.3028720626632 201.4618181818182L 264.7154046997389 201.09876363636363L 267.1279373368146 201.17818181818183L 269.54046997389037 193.02647272727273L 271.95300261096605 198.8069818181818L 274.36553524804174 203.39054545454545L 276.7780678851175 200.30458181818182L 279.1906005221932 198.35883636363636L 281.6031331592689 193.3101090909091L 284.01566579634465 200.56552727272728L 286.42819843342033 203.03883636363636L 288.8407310704961 197.22996363636364L 291.2532637075718 201.95534545454547L 293.6657963446475 196.016L 296.07832898172325 202.30705454545455L 298.49086161879893 199.91316363636363L 300.9033942558747 194.62050909090908L 303.3159268929504 201.29163636363637L 305.7284595300261 202.98778181818182L 308.14099216710184 203.5437090909091L 310.5535248041776 200.60523636363638L 312.96605744125327 195.5621818181818L 315.37859007832895 203.24305454545456L 317.7911227154047 200.15709090909093L 320.20365535248044 198.46661818181818L 322.6161879895561 201.70007272727273L 325.02872062663187 200.70734545454545L 327.44125326370755 200.4293818181818L 329.8537859007833 201.76814545454545L 332.26631853785904 204.6442181818182L 334.6788511749347 206L 337.09138381201046 196.35636363636365L 339.50391644908615 199.21541818181817L 341.9164490861619 156.87418181818182L 344.3289817232376 165.1506909090909L 346.7415143603133 204.1733818181818L 349.15404699738906 202.17658181818183L 351.56657963446474 199.31185454545454L 353.97911227154043 198.7842909090909L 356.3916449086162 202.6757818181818L 358.8041775456919 202.8573090909091L 361.21671018276766 196.1861818181818L 363.62924281984334 199.64654545454545L 366.041775456919 198.2056727272727L 368.45430809399477 201.2178909090909L 370.8668407310705 201.79083636363637L 373.27937336814625 201.90429090909092L 375.69190600522194 200.1968L 378.1044386422976 195.17076363636363L 380.51697127937337 206L 382.9295039164491 206L 385.3420365535248 206L 387.75456919060053 191.4834909090909L 390.1671018276762 197.79723636363636L 392.57963446475196 198.85236363636363L 394.99216710182765 199.76L 397.4046997389034 200.03796363636363L 399.81723237597913 200.76407272727272L 402.2297650130549 201.80785454545455L 404.6422976501305 191.63098181818182L 407.05483028720624 194.41061818181817L 409.467362924282 199.88479999999998L 411.8798955613577 152.63098181818182L 414.29242819843347 197.04843636363637L 416.7049608355091 194.4730181818182L 419.11749347258484 155.90414545454547L 421.5300261096606 91.60945454545454L 423.9425587467363 104.5376L 426.355091383812 151.17876363636364L 428.7676240208877 185.1981090909091L 431.18015665796344 142.76610909090908L 433.5926892950392 125.0672L 436.00522193211486 123.74545454545455L 438.4177545691906 157.99738181818182L 440.83028720626635 53.56814545454546L 443.24281984334203 50.78850909090909L 445.6553524804177 100.02210909090908L 448.06788511749346 156.2445090909091L 450.4804177545692 180.31956363636363L 452.89295039164494 192.43650909090908L 455.30548302872063 193.63912727272728L 457.7180156657963 193.3328L 460.13054830287206 192.11316363636365L 462.5430809399478 197.93338181818183L 464.95561357702354 191.5629090909091L 467.3681462140992 198.7672727272727L 469.7806788511749 199.3005090909091L 472.19321148825065 201.64901818181818L 474.6057441253264 200.58821818181818L 477.0182767624021 202.43752727272727L 479.4308093994778 200.73003636363637L 481.8433420365535 189.7703272727273L 484.25587467362925 203.17498181818183L 486.66840731070494 200.48610909090908L 489.0809399477807 185.1810909090909L 491.4934725848564 187.88698181818182L 493.9060052219321 191.01832727272728L 496.31853785900785 192.31738181818181L 498.73107049608353 177.09745454545455L 501.1436031331593 167.91330909090908L 503.556135770235 179.30981818181817L 505.9686684073107 186.49716363636364L 508.3812010443864 150.34487272727273L 510.79373368146213 184.27345454545454L 513.2062663185378 199.5104L 515.6187989556136 161.24785454545454L 518.0313315926893 155.49003636363636L 520.443864229765 176.96130909090908L 522.8563968668407 190.30923636363636L 525.2689295039165 193.50865454545453L 527.6814621409922 201.72843636363638L 530.093994778068 185.22647272727272L 532.5065274151436 192.03374545454545L 534.9190600522193 192.66909090909093L 537.331592689295 180.18341818181818L 539.7441253263707 194.5013818181818L 542.1566579634465 194.6829090909091L 544.5691906005222 201.85323636363637L 546.9817232375979 196.2032L 549.3942558746737 204.49105454545455L 551.8067885117493 191.55723636363638L 554.219321148825 180.36494545454545L 556.6318537859008 193.02647272727273L 559.0443864229765 186.20785454545455L 561.4569190600522 191.72741818181817L 563.8694516971279 191.4834909090909L 566.2819843342037 196.63432727272726L 568.6945169712794 200.7810909090909L 571.1070496083552 176.26923636363637L 573.5195822454309 165.78036363636363L 575.9321148825065 181.82850909090908L 578.3446475195822 160.6976L 580.7571801566579 163.93105454545454L 583.1697127937337 182.10647272727272L 585.5822454308094 130.808L 587.9947780678851 190.49643636363635L 590.4073107049609 202.0914909090909L 592.8198433420366 184.09192727272728L 595.2323759791122 197.50225454545455L 597.644908616188 187.54094545454547L 600.0574412532637 192.95272727272726L 602.4699738903394 201.88727272727272L 604.8825065274151 184.33585454545454L 607.2950391644908 183.04814545454545L 609.7075718015666 182.36741818181818L 612.1201044386423 182.54327272727272L 614.5326370757181 186.38938181818182L 616.9451697127937 174.3858909090909L 619.3577023498694 183.1786181818182L 621.7702349869452 183.5133090909091L 624.1827676240209 184.60247272727273L 626.5953002610967 186.968L 629.0078328981723 170.00087272727274L 631.420365535248 167.8338909090909L 633.8328981723238 203.32247272727273L 636.2454308093994 206L 638.6579634464752 128.43112727272728L 641.0704960835509 183.2637090909091L 643.4830287206266 156.8685090909091L 645.8955613577024 183.15592727272727L 648.3080939947781 183.2013090909091L 650.7206266318539 182.25963636363636L 653.1331592689295 170.18807272727273L 655.5456919060052 186.86589090909092L 657.9582245430809 183.77425454545454L 660.3707571801566 186.29861818181817L 662.7832898172323 184.17134545454545L 665.1958224543081 184.9655272727273L 667.6083550913838 178.1696L 670.0208877284596 180.70530909090908L 672.4334203655353 170.80072727272727L 674.845953002611 177.99374545454546L 677.2584856396867 175.99127272727273L 679.6710182767624 173.75621818181818L 682.083550913838 175.45803636363638L 684.4960835509138 196.91796363636365L 686.9086161879895 150.30516363636363L 689.3211488250653 167.34036363636363L 691.733681462141 174.52203636363637L 694.1462140992168 132.05599999999998L 696.5587467362925 144.8309818181818L 698.9712793733681 173.60872727272726L 701.3838120104439 151.91054545454546L 703.7963446475196 194.03621818181819L 706.2088772845952 160.59549090909093L 708.621409921671 206L 711.0339425587467 153.43650909090908L 713.4464751958225 181.01163636363637L 715.8590078328982 181.6413090909091L 718.2715404699738 182.49221818181817L 720.6840731070496 183.08785454545455L 723.0966057441253 206L 725.5091383812011 151.86516363636363L 727.9216710182768 172.45716363636365L 730.3342036553524 169.20669090909092L 732.7467362924282 178.22065454545455L 735.1592689295039 175.54312727272728L 737.5718015665797 177.61367272727273L 739.9843342036553 181.0173090909091L 742.396866840731 176.80814545454547L 744.8093994778068 167.8962909090909L 747.2219321148825 167.1248L 749.6344647519583 176.62094545454545L 752.046997389034 158.63272727272727L 754.4595300261097 151.3602909090909L 756.8720626631854 173.35345454545455L 759.284595300261 206L 761.6971279373367 206L 764.1096605744125 206L 766.5221932114882 206L 768.934725848564 206L 771.3472584856397 206L 773.7597911227155 206L 776.1723237597912 206L 778.5848563968669 206L 780.9973890339426 206L 783.4099216710182 206L 785.8224543080939 206L 788.2349869451697 206L 790.6475195822454 206L 793.0600522193212 206L 795.4725848563969 206L 797.8851174934726 206L 800.2976501305483 206L 802.710182767624 206L 805.1227154046998 206L 807.5352480417754 206L 809.9477806788511 206L 812.3603133159269 206L 814.7728459530026 206L 817.1853785900784 206L 819.5979112271541 206L 822.0104438642297 206L 824.4229765013055 206L 826.8355091383812 206L 829.248041775457 206L 831.6605744125327 206L 834.0731070496083 206L 836.4856396866841 206L 838.8981723237598 206L 841.3107049608354 206L 843.7232375979112 206L 846.1357702349869 206L 848.5483028720627 206L 850.9608355091384 206L 853.3733681462141 206L 855.7859007832899 206L 858.1984334203655 206L 860.6109660574413 206L 863.0234986945169 206L 865.4360313315926 206L 867.8485639686684 206L 870.2610966057441 206L 872.6736292428199 206L 875.0861618798956 206L 877.4986945169713 206L 879.9112271540471 206L 882.3237597911227 206L 884.7362924281985 206L 887.1488250652741 206L 889.5613577023498 206L 891.9738903394256 206L 894.3864229765013 206L 896.798955613577 206L 899.2114882506528 206L 901.6240208877285 206L 904.0365535248042 206L 906.4490861618799 206L 908.8616187989556 206L 911.2741514360313 206L 913.686684073107 206L 916.0992167101828 206L 918.5117493472585 206L 920.9242819843342 206L 923.3368146214099 206L 925.7493472584856 206L 928.1618798955614 206L 930.5744125326371 206L 932.9869451697128 206L 935.3994778067885 206L 937.8120104438642 206L 940.22454308094 206L 942.6370757180157 206L 945.0496083550913 206L 947.4621409921671 206L 949.8746736292428 206L 952.2872062663185 206L 954.6997389033943 206L 957.11227154047 206L 959.5248041775458 206L 961.9373368146214 206L 964.349869451697 206L 966.7624020887728 206L 969.1749347258485 206L 971.5874673629243 206L 974 206" stroke-width="2.0" fill="none" />
    
        
        
        <text x="45.0" font-family="-apple-system, system-ui, BlinkMacSystemFont, Roboto" y="50.0" dominant-baseline="middle" text-anchor="end" font-size="12" fill="#24292f">27500.0</text>
        
            
            <path stroke="#74838f" stroke-dasharray="10 6" stroke-width="0.5"  d="M 50.0 50.0 L 974.0 50.0" />
        
    
        
        
        <text x="45.0" font-family="-apple-system, system-ui, BlinkMacSystemFont, Roboto" y="81.2" dominant-baseline="middle" text-anchor="end" font-size="12" fill="#24292f">22000.0</text>
        
            
            
            <path stroke="#74838f" stroke-dasharray="10 6" stroke-width="0.5"  d="M 50.0 81.2 L 974.0 81.2" />
        
    
        
        
        <text x="45.0" font-family="-apple-system, system-ui, BlinkMacSystemFont, Roboto" y="112.4" dominant-baseline="middle" text-anchor="end" font-size="12" fill="#24292f">16500.0</text>
        
            
            
            <path stroke="#74838f" stroke-dasharray="10 6" stroke-width="0.5"  d="M 50.0 112.4 L 974.0 112.4" />
        
    
        
        
        <text x="45.0" font-family="-apple-system, system-ui, BlinkMacSystemFont, Roboto" y="143.6" dominant-baseline="middle" text-anchor="end" font-size="12" fill="#24292f">11000.0</text>
        
            
            
            <path stroke="#74838f" stroke-dasharray="10 6" stroke-width="0.5"  d="M 50.0 143.6 L 974.0 143.6" />
        
    
        
        
        <text x="45.0" font-family="-apple-system, system-ui, BlinkMacSystemFont, Roboto" y="174.8" dominant-baseline="middle" text-anchor="end" font-size="12" fill="#24292f">5500.0</text>
        
            
            
            <path stroke="#74838f" stroke-dasharray="10 6" stroke-width="0.5"  d="M 50.0 174.8 L 974.0 174.8" />
        
    
        
        
        <text x="45.0" font-family="-apple-system, system-ui, BlinkMacSystemFont, Roboto" y="206.0" dominant-baseline="middle" text-anchor="end" font-size="12" fill="#24292f">0.0</text>
        
    
    
        
        <path stroke="#74838f"  stroke-width="2.0"  d="M 88.60052219321149 206.0 L 88.60052219321149 214.0" />
        <text x="88.60052219321149" font-family="-apple-system, system-ui, BlinkMacSystemFont, Roboto" y="216.0" dominant-baseline="hanging" text-anchor="middle" font-size="12" fill="#24292f">Mar 2022</text>
    
        
        <path stroke="#74838f"  stroke-width="2.0"  d="M 163.38903394255874 206.0 L 163.38903394255874 214.0" />
        <text x="163.38903394255874" font-family="-apple-system, system-ui, BlinkMacSystemFont, Roboto" y="216.0" dominant-baseline="hanging" text-anchor="middle" font-size="12" fill="#24292f">Apr 2022</text>
    
        
        <path stroke="#74838f"  stroke-width="2.0"  d="M 235.7650130548303 206.0 L 235.7650130548303 214.0" />
        <text x="235.7650130548303" font-family="-apple-system, system-ui, BlinkMacSystemFont, Roboto" y="216.0" dominant-baseline="hanging" text-anchor="middle" font-size="12" fill="#24292f">May 2022</text>
    
        
        <path stroke="#74838f"  stroke-width="2.0"  d="M 310.5535248041776 206.0 L 310.5535248041776 214.0" />
        <text x="310.5535248041776" font-family="-apple-system, system-ui, BlinkMacSystemFont, Roboto" y="216.0" dominant-baseline="hanging" text-anchor="middle" font-size="12" fill="#24292f">Jun 2022</text>
    
        
        <path stroke="#74838f"  stroke-width="2.0"  d="M 382.9295039164491 206.0 L 382.9295039164491 214.0" />
        <text x="382.9295039164491" font-family="-apple-system, system-ui, BlinkMacSystemFont, Roboto" y="216.0" dominant-baseline="hanging" text-anchor="middle" font-size="12" fill="#24292f">Jul 2022</text>
    
        
        <path stroke="#74838f"  stroke-width="2.0"  d="M 457.7180156657963 206.0 L 457.7180156657963 214.0" />
        <text x="457.7180156657963" font-family="-apple-system, system-ui, BlinkMacSystemFont, Roboto" y="216.0" dominant-baseline="hanging" text-anchor="middle" font-size="12" fill="#24292f">Aug 2022</text>
    
        
        <path stroke="#74838f"  stroke-width="2.0"  d="M 532.5065274151436 206.0 L 532.5065274151436 214.0" />
        <text x="532.5065274151436" font-family="-apple-system, system-ui, BlinkMacSystemFont, Roboto" y="216.0" dominant-baseline="hanging" text-anchor="middle" font-size="12" fill="#24292f">Sep 2022</text>
    
        
        <path stroke="#74838f"  stroke-width="2.0"  d="M 604.8825065274151 206.0 L 604.8825065274151 214.0" />
        <text x="604.8825065274151" font-family="-apple-system, system-ui, BlinkMacSystemFont, Roboto" y="216.0" dominant-baseline="hanging" text-anchor="middle" font-size="12" fill="#24292f">Oct 2022</text>
    
        
        <path stroke="#74838f"  stroke-width="2.0"  d="M 679.6710182767624 206.0 L 679.6710182767624 214.0" />
        <text x="679.6710182767624" font-family="-apple-system, system-ui, BlinkMacSystemFont, Roboto" y="216.0" dominant-baseline="hanging" text-anchor="middle" font-size="12" fill="#24292f">Nov 2022</text>
    
        
        <path stroke="#74838f"  stroke-width="2.0"  d="M 752.046997389034 206.0 L 752.046997389034 214.0" />
        <text x="752.046997389034" font-family="-apple-system, system-ui, BlinkMacSystemFont, Roboto" y="216.0" dominant-baseline="hanging" text-anchor="middle" font-size="12" fill="#24292f">Dec 2022</text>
    
        
        <path stroke="#74838f"  stroke-width="2.0"  d="M 826.8355091383812 206.0 L 826.8355091383812 214.0" />
        <text x="826.8355091383812" font-family="-apple-system, system-ui, BlinkMacSystemFont, Roboto" y="216.0" dominant-baseline="hanging" text-anchor="middle" font-size="12" fill="#24292f">Jan 2023</text>
    
        
        <path stroke="#74838f"  stroke-width="2.0"  d="M 901.6240208877285 206.0 L 901.6240208877285 214.0" />
        <text x="901.6240208877285" font-family="-apple-system, system-ui, BlinkMacSystemFont, Roboto" y="216.0" dominant-baseline="hanging" text-anchor="middle" font-size="12" fill="#24292f">Feb 2023</text>
    
        
        <path stroke="#74838f"  stroke-width="2.0"  d="M 969.1749347258485 206.0 L 969.1749347258485 214.0" />
        <text x="969.1749347258485" font-family="-apple-system, system-ui, BlinkMacSystemFont, Roboto" y="216.0" dominant-baseline="hanging" text-anchor="middle" font-size="12" fill="#24292f">Mar 2023</text>
    
    <path stroke="#74838f"   stroke-linejoin="round" stroke-width="2.0" d="M 50.0 216.0 L 50.0 206.0 L 974.0 206.0 L 974.0 216.0"  fill="none" />
    <text x="512.0" y="25.0" font-family="-apple-system, system-ui, BlinkMacSystemFont, Roboto" dominant-baseline="middle" text-anchor="middle" font-size="18" fill="#24292f">Total daily screen name changes</text>
</svg>
