<?xml version="1.0" standalone="no"?>
<svg width="1024.0" height="256.0"  viewBox="0 0 1024.0 256.0" preserveAspectRatio="xMidYMid meet" xmlns="http://www.w3.org/2000/svg">
    <path stroke="#3498db" stroke-linejoin="round" d="M 50.0 203.3394909090909 L 50 203.3394909090909L 53.12162162162162 202.32974545454545L 56.24324324324324 196.86690909090908L 59.36486486486486 195.94792727272727L 62.486486486486484 202.14254545454546L 65.60810810810811 197.35476363636363L 68.72972972972973 191.76145454545454L 71.85135135135135 179.96218181818182L 74.97297297297297 204.09396363636364L 78.0945945945946 194.17236363636363L 81.21621621621622 192.61803636363635L 84.33783783783784 195.1253818181818L 87.45945945945945 193.92843636363637L 90.58108108108108 182.2482909090909L 93.70270270270271 200.86618181818181L 96.82432432432432 201.45614545454546L 99.94594594594595 178.89003636363637L 103.06756756756758 197.33774545454546L 106.1891891891892 198.50065454545455L 109.3108108108108 200.41803636363636L 112.43243243243244 201.18385454545455L 115.55405405405405 202.26734545454545L 118.67567567567568 195.09134545454546L 121.79729729729729 198.08087272727272L 124.91891891891892 183.38850909090908L 128.04054054054052 197.47389090909093L 131.16216216216216 202.01774545454546L 134.28378378378378 194.66021818181818L 137.40540540540542 200.75272727272727L 140.52702702702703 200.00392727272728L 143.64864864864865 201.97236363636364L 146.77027027027026 204.2754909090909L 149.8918918918919 201.74545454545455L 153.01351351351352 201.01367272727273L 156.13513513513516 174.7829818181818L 159.25675675675677 195.76072727272728L 162.3783783783784 204.0032L 165.5 203.7309090909091L 168.6216216216216 197.87665454545453L 171.74324324324323 202.60770909090908L 174.86486486486487 202.6928L 177.98648648648648 197.55898181818182L 181.1081081081081 186.5141818181818L 184.2297297297297 199.26647272727274L 187.35135135135135 199.5728L 190.47297297297297 193.4802909090909L 193.59459459459458 199.10763636363635L 196.7162162162162 201.54690909090908L 199.83783783783784 201.5696L 202.95945945945945 195.06865454545454L 206.08108108108107 201.70007272727273L 209.20270270270268 197.2866909090909L 212.32432432432432 172.35505454545455L 215.44594594594594 203.20901818181818L 218.56756756756755 199.6749090909091L 221.6891891891892 193.12858181818183L 224.8108108108108 196.8896L 227.93243243243245 199.78836363636364L 231.05405405405406 198.82967272727274L 234.17567567567568 204.1336727272727L 237.29729729729732 202.57934545454546L 240.41891891891893 198.9261090909091L 243.54054054054055 206L 246.66216216216216 204.128L 249.7837837837838 192.1245090909091L 252.90540540540542 206L 256.02702702702703 206L 259.14864864864865 206L 262.2702702702703 206L 265.3918918918919 197.37178181818183L 268.51351351351354 199.57847272727273L 271.6351351351351 188.9024L 274.7567567567568 195.02894545454546L 277.8783783783784 191.20552727272727L 281 166.8128L 284.12162162162167 203.8386909090909L 287.2432432432432 198.09221818181817L 290.3648648648649 201.64334545454545L 293.48648648648646 202.2957090909091L 296.6081081081081 203.22036363636363L 299.72972972972974 200.66763636363635L 302.85135135135135 191.51185454545455L 305.97297297297297 189.18603636363636L 309.09459459459464 203.86705454545455L 312.2162162162162 197.56465454545454L 315.33783783783787 187.32538181818182L 318.4594594594594 201.2349090909091L 321.5810810810811 200.44639999999998L 324.7027027027027 201.4618181818182L 327.8243243243243 201.09876363636363L 330.94594594594594 201.17818181818183L 334.0675675675676 193.02647272727273L 337.18918918918916 198.8069818181818L 340.31081081081084 203.39054545454545L 343.4324324324324 200.30458181818182L 346.55405405405406 198.35883636363636L 349.6756756756757 193.3101090909091L 352.7972972972973 200.56552727272728L 355.9189189189189 203.03883636363636L 359.0405405405406 197.22996363636364L 362.16216216216213 201.95534545454547L 365.2837837837838 196.016L 368.40540540540536 202.30705454545455L 371.52702702702703 199.91316363636363L 374.64864864864865 194.62050909090908L 377.77027027027026 201.29163636363637L 380.8918918918919 202.98778181818182L 384.01351351351354 203.5437090909091L 387.1351351351351 200.60523636363638L 390.2567567567568 195.5621818181818L 393.3783783783784 203.24305454545456L 396.5 200.15709090909093L 399.6216216216216 198.46661818181818L 402.7432432432432 201.70007272727273L 405.8648648648649 200.70734545454545L 408.98648648648646 200.4293818181818L 412.1081081081081 201.76814545454545L 415.22972972972974 204.6442181818182L 418.35135135135135 206L 421.47297297297297 196.35636363636365L 424.59459459459464 199.21541818181817L 427.7162162162162 156.87418181818182L 430.83783783783787 165.1506909090909L 433.9594594594594 204.1733818181818L 437.0810810810811 202.17658181818183L 440.2027027027027 199.31185454545454L 443.3243243243243 198.7842909090909L 446.44594594594594 202.6757818181818L 449.5675675675676 202.8573090909091L 452.68918918918916 196.1861818181818L 455.81081081081084 199.64654545454545L 458.9324324324324 198.2056727272727L 462.05405405405406 201.2178909090909L 465.1756756756757 201.79083636363637L 468.2972972972973 201.90429090909092L 471.4189189189189 200.1968L 474.5405405405406 195.17076363636363L 477.66216216216213 206L 480.7837837837838 206L 483.90540540540536 206L 487.02702702702703 191.4834909090909L 490.14864864864865 197.79723636363636L 493.27027027027026 198.85236363636363L 496.3918918918919 199.76L 499.51351351351354 200.03796363636363L 502.6351351351351 200.76407272727272L 505.7567567567568 201.80785454545455L 508.8783783783784 191.63098181818182L 512 194.41061818181817L 515.1216216216217 199.88479999999998L 518.2432432432433 152.63098181818182L 521.3648648648648 197.04843636363637L 524.4864864864865 194.4730181818182L 527.6081081081081 155.90414545454547L 530.7297297297298 91.60945454545454L 533.8513513513515 104.5376L 536.9729729729729 151.17876363636364L 540.0945945945946 185.1981090909091L 543.2162162162163 142.76610909090908L 546.3378378378379 125.0672L 549.4594594594595 123.74545454545455L 552.5810810810812 157.99738181818182L 555.7027027027027 53.56814545454546L 558.8243243243244 50.78850909090909L 561.9459459459459 100.02210909090908L 565.0675675675676 156.2445090909091L 568.1891891891893 180.31956363636363L 571.3108108108107 192.43650909090908L 574.4324324324324 193.63912727272728L 577.5540540540541 193.3328L 580.6756756756757 192.11316363636365L 583.7972972972973 197.93338181818183L 586.9189189189188 191.5629090909091L 590.0405405405405 198.7672727272727L 593.1621621621622 199.3005090909091L 596.2837837837837 201.64901818181818L 599.4054054054054 200.58821818181818L 602.5270270270271 202.43752727272727L 605.6486486486486 200.73003636363637L 608.7702702702702 189.7703272727273L 611.8918918918919 203.17498181818183L 615.0135135135135 200.48610909090908L 618.1351351351352 185.1810909090909L 621.2567567567568 187.88698181818182L 624.3783783783783 191.01832727272728L 627.5 192.31738181818181L 630.6216216216217 177.09745454545455L 633.7432432432432 167.91330909090908L 636.8648648648648 179.30981818181817L 639.9864864864865 186.49716363636364L 643.1081081081081 150.34487272727273L 646.2297297297298 184.27345454545454L 649.3513513513514 199.5104L 652.4729729729729 161.24785454545454L 655.5945945945946 155.49003636363636L 658.7162162162163 176.96130909090908L 661.8378378378378 190.30923636363636L 664.9594594594595 193.50865454545453L 668.0810810810812 201.72843636363638L 671.2027027027027 185.22647272727272L 674.3243243243243 192.03374545454545L 677.4459459459459 192.66909090909093L 680.5675675675676 180.18341818181818L 683.6891891891893 194.5013818181818L 686.8108108108107 194.6829090909091L 689.9324324324324 201.85323636363637L 693.0540540540541 196.2032L 696.1756756756757 204.49105454545455L 699.2972972972973 191.55723636363638L 702.4189189189188 180.36494545454545L 705.5405405405405 193.02647272727273L 708.6621621621622 186.20785454545455L 711.7837837837837 191.72741818181817L 714.9054054054054 191.4834909090909L 718.0270270270271 196.63432727272726L 721.1486486486486 200.7810909090909L 724.2702702702702 176.26923636363637L 727.3918918918919 165.78036363636363L 730.5135135135135 181.82850909090908L 733.6351351351352 160.6976L 736.7567567567568 163.93105454545454L 739.8783783783783 182.10647272727272L 743 130.808L 746.1216216216217 190.49643636363635L 749.2432432432432 202.0914909090909L 752.3648648648648 184.09192727272728L 755.4864864864865 197.50225454545455L 758.6081081081081 187.54094545454547L 761.7297297297298 192.95272727272726L 764.8513513513514 201.88727272727272L 767.9729729729729 184.33585454545454L 771.0945945945946 183.04814545454545L 774.2162162162163 182.36741818181818L 777.3378378378378 182.54327272727272L 780.4594594594595 186.38938181818182L 783.5810810810812 174.3858909090909L 786.7027027027027 183.1786181818182L 789.8243243243243 183.5133090909091L 792.9459459459459 184.60247272727273L 796.0675675675676 186.968L 799.1891891891893 170.00087272727274L 802.3108108108107 167.8338909090909L 805.4324324324324 203.32247272727273L 808.5540540540541 206L 811.6756756756757 128.43112727272728L 814.7972972972973 183.2637090909091L 817.9189189189188 156.8685090909091L 821.0405405405405 183.15592727272727L 824.1621621621622 183.2013090909091L 827.2837837837837 182.25963636363636L 830.4054054054054 170.18807272727273L 833.5270270270271 186.86589090909092L 836.6486486486486 183.77425454545454L 839.7702702702702 186.29861818181817L 842.8918918918919 184.17134545454545L 846.0135135135135 184.9655272727273L 849.1351351351352 178.1696L 852.2567567567568 180.70530909090908L 855.3783783783783 170.80072727272727L 858.5 177.99374545454546L 861.6216216216217 175.99127272727273L 864.7432432432432 173.75621818181818L 867.8648648648648 175.45803636363638L 870.9864864864865 196.91796363636365L 874.1081081081081 150.30516363636363L 877.2297297297298 167.34036363636363L 880.3513513513514 174.52203636363637L 883.4729729729729 132.05599999999998L 886.5945945945946 144.8309818181818L 889.7162162162163 173.60872727272726L 892.8378378378378 151.91054545454546L 895.9594594594595 194.03621818181819L 899.0810810810812 160.59549090909093L 902.2027027027027 206L 905.3243243243243 153.43650909090908L 908.4459459459459 181.01163636363637L 911.5675675675676 181.6413090909091L 914.6891891891893 182.49221818181817L 917.8108108108107 183.08785454545455L 920.9324324324324 206L 924.0540540540541 151.86516363636363L 927.1756756756757 172.45716363636365L 930.2972972972973 169.20669090909092L 933.4189189189188 178.22065454545455L 936.5405405405405 175.54312727272728L 939.6621621621622 177.61367272727273L 942.7837837837837 181.0173090909091L 945.9054054054054 176.80814545454547L 949.0270270270271 167.8962909090909L 952.1486486486486 167.1248L 955.2702702702702 176.62094545454545L 958.3918918918919 158.63272727272727L 961.5135135135135 151.3602909090909L 964.6351351351352 173.35345454545455L 967.7567567567568 206L 970.8783783783783 206L 974 206" stroke-width="2.0" fill="none" />
    
        
        
        <text x="45.0" font-family="-apple-system, system-ui, BlinkMacSystemFont, Roboto" y="50.0" dominant-baseline="middle" text-anchor="end" font-size="12" fill="#24292f">27500.0</text>
        
            
            <path stroke="#74838f" stroke-dasharray="10 6" stroke-width="0.5"  d="M 50.0 50.0 L 974.0 50.0" />
        
    
        
        
        <text x="45.0" font-family="-apple-system, system-ui, BlinkMacSystemFont, Roboto" y="81.2" dominant-baseline="middle" text-anchor="end" font-size="12" fill="#24292f">22000.0</text>
        
            
            
            <path stroke="#74838f" stroke-dasharray="10 6" stroke-width="0.5"  d="M 50.0 81.2 L 974.0 81.2" />
        
    
        
        
        <text x="45.0" font-family="-apple-system, system-ui, BlinkMacSystemFont, Roboto" y="112.4" dominant-baseline="middle" text-anchor="end" font-size="12" fill="#24292f">16500.0</text>
        
            
            
            <path stroke="#74838f" stroke-dasharray="10 6" stroke-width="0.5"  d="M 50.0 112.4 L 974.0 112.4" />
        
    
        
        
        <text x="45.0" font-family="-apple-system, system-ui, BlinkMacSystemFont, Roboto" y="143.6" dominant-baseline="middle" text-anchor="end" font-size="12" fill="#24292f">11000.0</text>
        
            
            
            <path stroke="#74838f" stroke-dasharray="10 6" stroke-width="0.5"  d="M 50.0 143.6 L 974.0 143.6" />
        
    
        
        
        <text x="45.0" font-family="-apple-system, system-ui, BlinkMacSystemFont, Roboto" y="174.8" dominant-baseline="middle" text-anchor="end" font-size="12" fill="#24292f">5500.0</text>
        
            
            
            <path stroke="#74838f" stroke-dasharray="10 6" stroke-width="0.5"  d="M 50.0 174.8 L 974.0 174.8" />
        
    
        
        
        <text x="45.0" font-family="-apple-system, system-ui, BlinkMacSystemFont, Roboto" y="206.0" dominant-baseline="middle" text-anchor="end" font-size="12" fill="#24292f">0.0</text>
        
    
    
        
        <path stroke="#74838f"  stroke-width="2.0"  d="M 99.94594594594595 206.0 L 99.94594594594595 214.0" />
        <text x="99.94594594594595" font-family="-apple-system, system-ui, BlinkMacSystemFont, Roboto" y="216.0" dominant-baseline="hanging" text-anchor="middle" font-size="12" fill="#24292f">Mar 2022</text>
    
        
        <path stroke="#74838f"  stroke-width="2.0"  d="M 196.7162162162162 206.0 L 196.7162162162162 214.0" />
        <text x="196.7162162162162" font-family="-apple-system, system-ui, BlinkMacSystemFont, Roboto" y="216.0" dominant-baseline="hanging" text-anchor="middle" font-size="12" fill="#24292f">Apr 2022</text>
    
        
        <path stroke="#74838f"  stroke-width="2.0"  d="M 290.3648648648649 206.0 L 290.3648648648649 214.0" />
        <text x="290.3648648648649" font-family="-apple-system, system-ui, BlinkMacSystemFont, Roboto" y="216.0" dominant-baseline="hanging" text-anchor="middle" font-size="12" fill="#24292f">May 2022</text>
    
        
        <path stroke="#74838f"  stroke-width="2.0"  d="M 387.1351351351351 206.0 L 387.1351351351351 214.0" />
        <text x="387.1351351351351" font-family="-apple-system, system-ui, BlinkMacSystemFont, Roboto" y="216.0" dominant-baseline="hanging" text-anchor="middle" font-size="12" fill="#24292f">Jun 2022</text>
    
        
        <path stroke="#74838f"  stroke-width="2.0"  d="M 480.7837837837838 206.0 L 480.7837837837838 214.0" />
        <text x="480.7837837837838" font-family="-apple-system, system-ui, BlinkMacSystemFont, Roboto" y="216.0" dominant-baseline="hanging" text-anchor="middle" font-size="12" fill="#24292f">Jul 2022</text>
    
        
        <path stroke="#74838f"  stroke-width="2.0"  d="M 577.5540540540541 206.0 L 577.5540540540541 214.0" />
        <text x="577.5540540540541" font-family="-apple-system, system-ui, BlinkMacSystemFont, Roboto" y="216.0" dominant-baseline="hanging" text-anchor="middle" font-size="12" fill="#24292f">Aug 2022</text>
    
        
        <path stroke="#74838f"  stroke-width="2.0"  d="M 674.3243243243243 206.0 L 674.3243243243243 214.0" />
        <text x="674.3243243243243" font-family="-apple-system, system-ui, BlinkMacSystemFont, Roboto" y="216.0" dominant-baseline="hanging" text-anchor="middle" font-size="12" fill="#24292f">Sep 2022</text>
    
        
        <path stroke="#74838f"  stroke-width="2.0"  d="M 767.9729729729729 206.0 L 767.9729729729729 214.0" />
        <text x="767.9729729729729" font-family="-apple-system, system-ui, BlinkMacSystemFont, Roboto" y="216.0" dominant-baseline="hanging" text-anchor="middle" font-size="12" fill="#24292f">Oct 2022</text>
    
        
        <path stroke="#74838f"  stroke-width="2.0"  d="M 864.7432432432432 206.0 L 864.7432432432432 214.0" />
        <text x="864.7432432432432" font-family="-apple-system, system-ui, BlinkMacSystemFont, Roboto" y="216.0" dominant-baseline="hanging" text-anchor="middle" font-size="12" fill="#24292f">Nov 2022</text>
    
        
        <path stroke="#74838f"  stroke-width="2.0"  d="M 958.3918918918919 206.0 L 958.3918918918919 214.0" />
        <text x="958.3918918918919" font-family="-apple-system, system-ui, BlinkMacSystemFont, Roboto" y="216.0" dominant-baseline="hanging" text-anchor="middle" font-size="12" fill="#24292f">Dec 2022</text>
    
    <path stroke="#74838f"   stroke-linejoin="round" stroke-width="2.0" d="M 50.0 216.0 L 50.0 206.0 L 974.0 206.0 L 974.0 216.0"  fill="none" />
    <text x="512.0" y="25.0" font-family="-apple-system, system-ui, BlinkMacSystemFont, Roboto" dominant-baseline="middle" text-anchor="middle" font-size="18" fill="#24292f">Total daily screen name changes</text>
</svg>
