<?xml version="1.0" standalone="no"?>
<svg width="1024" height="256"  viewBox="0 0 1024 256" preserveAspectRatio="xMidYMid meet" xmlns="http://www.w3.org/2000/svg">
    <path stroke="#3498db" stroke-linejoin="round" d="M 50 204.87375609756097 L 50 204.87375609756097L 55.88535031847134 204.66068292682928L 61.77070063694268 196.92156097560976L 67.65605095541402 193.54282926829268L 73.54140127388536 201.66243902439024L 79.42675159235668 194.76039024390244L 85.31210191082803 188.23882926829268L 91.19745222929936 170.91902439024392L 97.08280254777071 203.68663414634148L 102.96815286624204 190.09560975609756L 108.85350318471338 188.14751219512195L 114.73885350318471 191.49580487804877L 120.62420382165605 189.71512195121952L 126.50955414012738 174.6858536585366L 132.39490445859872 199.04468292682927L 138.28025477707007 201.05365853658537L 144.16560509554142 169.51882926829268L 150.05095541401275 195.1941463414634L 155.93630573248407 196.3432195121951L 161.82165605095543 199.15121951219513L 167.70700636942675 199.5469268292683L 173.59235668789808 201.25912195121953L 179.47770700636943 191.7317073170732L 185.36305732484075 195.30068292682927L 191.2484076433121 175.5838048780488L 197.13375796178343 194.9278048780488L 203.01910828025476 200.8558048780488L 208.9044585987261 190.68917073170732L 214.78980891719743 199.0370731707317L 220.6751592356688 198.42068292682927L 226.56050955414014 200.71882926829267L 232.44585987261146 205.22380487804878L 238.33121019108282 200.81014634146342L 244.21656050955414 199.30341463414635L 250.1019108280255 165.66829268292682L 255.98726114649682 192.28721951219512L 261.87261146496814 203.35180487804877L 267.7579617834395 203.1691707317073L 273.64331210191085 195.07239024390245L 279.52866242038215 201.51024390243902L 285.4140127388535 202.37014634146342L 291.29936305732485 194.82126829268293L 297.18471337579615 179.80721951219513L 303.0700636942675 197.09658536585366L 308.95541401273886 197.888L 314.8407643312102 189.585756097561L 320.7261146496815 196.98243902439026L 326.61146496815286 200.07960975609757L 332.4968152866242 200.18614634146343L 338.3821656050955 191.4881951219512L 344.26751592356686 200.46770731707318L 350.1528662420382 194.2429268292683L 356.0382165605095 160.75239024390243L 361.92356687898086 202.23317073170733L 367.8089171974522 198.00975609756097L 373.69426751592357 188.84L 379.57961783439487 194.00702439024388L 385.4649681528662 198.0021463414634L 391.3503184713376 196.3888780487805L 397.2356687898089 203.47356097560976L 403.1210191082803 202.05053658536585L 409.00636942675163 196.4269268292683L 414.89171974522293 206L 420.7770700636943 203.48117073170732L 426.66242038216564 187.2191219512195L 432.547770700637 206L 438.4331210191083 206L 444.31847133757964 206L 450.203821656051 206L 456.0891719745223 194.34946341463416L 461.97452229299364 197.30965853658537L 467.859872611465 182.96526829268294L 473.7452229299363 192.67531707317073L 479.63057324840764 186.05482926829268L 485.515923566879 152.9752195121951L 491.40127388535035 203.48117073170732L 497.28662420382165 195.392L 503.171974522293 200.41443902439025L 509.05732484076435 201.00039024390244L 514.9426751592357 202.53756097560975L 520.828025477707 198.9990243902439L 526.7133757961783 186.67121951219514L 532.5987261146497 183.42946341463414L 538.484076433121 203.2300487804878L 544.3694267515923 194.59297560975608L 550.2547770700637 181.4661463414634L 556.140127388535 199.71434146341463L 562.0254777070063 198.512L 567.9108280254777 199.83609756097562L 573.796178343949 199.3871219512195L 579.6815286624204 199.96546341463414L 585.5668789808917 188.49756097560976L 591.452229299363 196.2899512195122L 597.3375796178344 202.47668292682926L 603.2229299363057 198.30653658536585L 609.108280254777 197.23356097560975L 614.9936305732484 188.9008780487805L 620.8789808917197 198.64136585365853L 626.764331210191 202.00487804878048L 632.6496815286624 194.75278048780487L 638.5350318471337 200.52858536585364L 644.420382165605 193.0710243902439L 650.3057324840764 201.30478048780486L 656.1910828025477 197.91843902439024L 662.076433121019 191.17619512195122L 667.9617834394904 199.6458536585366L 673.8471337579617 202.23317073170733L 679.7324840764331 202.66692682926828L 685.6178343949044 198.84682926829268L 691.5031847133757 191.98282926829268L 697.3885350318471 202.89521951219513L 703.2738853503184 198.25326829268292L 709.1592356687897 195.76487804878047L 715.0445859872611 200.193756097561L 720.9299363057324 199.24253658536585L 726.8152866242037 198.64136585365853L 732.7006369426751 200.26224390243902L 738.5859872611464 204.14321951219512L 744.4713375796179 206L 750.3566878980893 193.28409756097562L 756.2420382165606 196.79980487804877L 762.1273885350319 139.52878048780488L 768.0127388535033 150.63141463414635L 773.8980891719746 204.1660487804878L 779.7834394904459 200.80253658536586L 785.6687898089173 196.89873170731707L 791.5541401273886 196.76175609756098L 797.4394904458599 201.66243902439024L 803.3248407643313 201.74614634146343L 809.2101910828026 192.7209756097561L 815.095541401274 197.68253658536585L 820.9808917197453 195.46048780487806L 826.8662420382166 199.5088780487805L 832.751592356688 200.7568780487805L 838.6369426751593 200.43726829268292L 844.5222929936306 198.1239024390244L 850.407643312102 191.76975609756096L 856.2929936305733 206L 862.1783439490446 206L 868.063694267516 206L 873.9490445859873 186.21463414634147L 879.8343949044586 195.270243902439L 885.71974522293 196.64L 891.6050955414013 197.6749268292683L 897.4904458598726 198.39785365853658L 903.375796178344 198.9381463414634L 909.2611464968153 200.33834146341462L 915.1464968152866 186.64839024390244L 921.031847133758 190.38478048780487L 926.9171974522293 197.66731707317075L 932.8025477707007 133.4790243902439L 938.687898089172 194.47121951219512L 944.5732484076433 190.28585365853658L 950.4585987261147 138.2579512195122L 956.343949044586 50.87512195121951L 962.2292993630573 68.70478048780487L 968.1146496815287 145.16760975609756L 974 206" stroke-width="2.0" fill="none" />
    
        
        
        <text x="45" font-family="-apple-system, system-ui, BlinkMacSystemFont, Roboto" y="50" dominant-baseline="middle" text-anchor="end" font-size="12" fill="#24292f">20500</text>
        
            
            <path stroke="#74838f" stroke-dasharray="10 6" stroke-width="0.5"  d="M 50 50 L 974 50" />
        
    
        
        
        <text x="45" font-family="-apple-system, system-ui, BlinkMacSystemFont, Roboto" y="81.2" dominant-baseline="middle" text-anchor="end" font-size="12" fill="#24292f">16400</text>
        
            
            
            <path stroke="#74838f" stroke-dasharray="10 6" stroke-width="0.5"  d="M 50 81.2 L 974 81.2" />
        
    
        
        
        <text x="45" font-family="-apple-system, system-ui, BlinkMacSystemFont, Roboto" y="112.4" dominant-baseline="middle" text-anchor="end" font-size="12" fill="#24292f">12300</text>
        
            
            
            <path stroke="#74838f" stroke-dasharray="10 6" stroke-width="0.5"  d="M 50 112.4 L 974 112.4" />
        
    
        
        
        <text x="45" font-family="-apple-system, system-ui, BlinkMacSystemFont, Roboto" y="143.6" dominant-baseline="middle" text-anchor="end" font-size="12" fill="#24292f">8200</text>
        
            
            
            <path stroke="#74838f" stroke-dasharray="10 6" stroke-width="0.5"  d="M 50 143.6 L 974 143.6" />
        
    
        
        
        <text x="45" font-family="-apple-system, system-ui, BlinkMacSystemFont, Roboto" y="174.8" dominant-baseline="middle" text-anchor="end" font-size="12" fill="#24292f">4100</text>
        
            
            
            <path stroke="#74838f" stroke-dasharray="10 6" stroke-width="0.5"  d="M 50 174.8 L 974 174.8" />
        
    
        
        
        <text x="45" font-family="-apple-system, system-ui, BlinkMacSystemFont, Roboto" y="206" dominant-baseline="middle" text-anchor="end" font-size="12" fill="#24292f">0</text>
        
    
    
        
        <path stroke="#74838f"  stroke-width="2.0"  d="M 144.16560509554142 206 L 144.16560509554142 214" />
        <text x="144.16560509554142" font-family="-apple-system, system-ui, BlinkMacSystemFont, Roboto" y="216" dominant-baseline="hanging" text-anchor="middle" font-size="12" fill="#24292f">Mar 2022</text>
    
        
        <path stroke="#74838f"  stroke-width="2.0"  d="M 326.61146496815286 206 L 326.61146496815286 214" />
        <text x="326.61146496815286" font-family="-apple-system, system-ui, BlinkMacSystemFont, Roboto" y="216" dominant-baseline="hanging" text-anchor="middle" font-size="12" fill="#24292f">Apr 2022</text>
    
        
        <path stroke="#74838f"  stroke-width="2.0"  d="M 503.171974522293 206 L 503.171974522293 214" />
        <text x="503.171974522293" font-family="-apple-system, system-ui, BlinkMacSystemFont, Roboto" y="216" dominant-baseline="hanging" text-anchor="middle" font-size="12" fill="#24292f">May 2022</text>
    
        
        <path stroke="#74838f"  stroke-width="2.0"  d="M 685.6178343949044 206 L 685.6178343949044 214" />
        <text x="685.6178343949044" font-family="-apple-system, system-ui, BlinkMacSystemFont, Roboto" y="216" dominant-baseline="hanging" text-anchor="middle" font-size="12" fill="#24292f">Jun 2022</text>
    
        
        <path stroke="#74838f"  stroke-width="2.0"  d="M 862.1783439490446 206 L 862.1783439490446 214" />
        <text x="862.1783439490446" font-family="-apple-system, system-ui, BlinkMacSystemFont, Roboto" y="216" dominant-baseline="hanging" text-anchor="middle" font-size="12" fill="#24292f">Jul 2022</text>
    
    <path stroke="#74838f"   stroke-linejoin="round" stroke-width="2.0" d="M 50 216 L 50 206 L 974 206 L 974 216"  fill="none" />
    <text x="512" y="25" font-family="-apple-system, system-ui, BlinkMacSystemFont, Roboto" dominant-baseline="middle" text-anchor="middle" font-size="18" fill="#24292f">Total daily screen name changes</text>
</svg>
