<?xml version="1.0" standalone="no"?>
<svg width="1024.0" height="256.0"  viewBox="0 0 1024.0 256.0" preserveAspectRatio="xMidYMid meet" xmlns="http://www.w3.org/2000/svg">
    <path stroke="#3498db" stroke-linejoin="round" d="M 50.0 203.3394909090909 L 50 203.3394909090909L 53.02950819672131 202.32974545454545L 56.059016393442626 196.86690909090908L 59.088524590163935 195.94792727272727L 62.118032786885244 202.14254545454546L 65.14754098360656 197.35476363636363L 68.17704918032787 191.76145454545454L 71.20655737704918 179.96218181818182L 74.23606557377049 204.09396363636364L 77.26557377049181 194.17236363636363L 80.29508196721312 192.61803636363635L 83.32459016393443 195.1253818181818L 86.35409836065574 193.92843636363637L 89.38360655737705 182.2482909090909L 92.41311475409836 200.86618181818181L 95.44262295081967 201.45614545454546L 98.47213114754098 178.89003636363637L 101.50163934426229 197.33774545454546L 104.53114754098361 198.50065454545455L 107.56065573770492 200.41803636363636L 110.59016393442623 201.18385454545455L 113.61967213114755 202.26734545454545L 116.64918032786886 195.09134545454546L 119.67868852459017 198.08087272727272L 122.70819672131148 183.38850909090908L 125.73770491803278 197.47389090909093L 128.7672131147541 202.01774545454546L 131.7967213114754 194.66021818181818L 134.82622950819672 200.75272727272727L 137.85573770491803 200.00392727272728L 140.88524590163934 201.97236363636364L 143.91475409836067 204.2754909090909L 146.94426229508196 201.74545454545455L 149.9737704918033 201.01367272727273L 153.00327868852457 174.7829818181818L 156.0327868852459 195.76072727272728L 159.06229508196722 204.0032L 162.09180327868853 203.7309090909091L 165.12131147540984 197.87665454545453L 168.15081967213115 202.60770909090908L 171.18032786885246 202.6928L 174.20983606557377 197.55898181818182L 177.2393442622951 186.5141818181818L 180.2688524590164 199.26647272727274L 183.29836065573772 199.5728L 186.327868852459 193.4802909090909L 189.35737704918034 199.10763636363635L 192.38688524590165 201.54690909090908L 195.41639344262296 201.5696L 198.44590163934427 195.06865454545454L 201.47540983606555 201.70007272727273L 204.5049180327869 197.2866909090909L 207.5344262295082 172.35505454545455L 210.5639344262295 203.20901818181818L 213.59344262295082 199.6749090909091L 216.62295081967213 193.12858181818183L 219.65245901639344 196.8896L 222.68196721311477 199.78836363636364L 225.71147540983605 198.82967272727274L 228.7409836065574 204.1336727272727L 231.77049180327867 202.57934545454546L 234.8 198.9261090909091L 237.82950819672132 206L 240.85901639344263 204.128L 243.88852459016394 192.1245090909091L 246.91803278688522 206L 249.94754098360656 206L 252.97704918032787 206L 256.00655737704915 206L 259.0360655737705 197.37178181818183L 262.0655737704918 199.57847272727273L 265.0950819672131 188.9024L 268.12459016393444 195.02894545454546L 271.1540983606557 191.20552727272727L 274.18360655737706 166.8128L 277.21311475409834 203.8386909090909L 280.2426229508197 198.09221818181817L 283.272131147541 201.64334545454545L 286.3016393442623 202.2957090909091L 289.3311475409836 203.22036363636363L 292.3606557377049 200.66763636363635L 295.3901639344262 191.51185454545455L 298.41967213114754 189.18603636363636L 301.4491803278688 203.86705454545455L 304.4786885245902 197.56465454545454L 307.50819672131144 187.32538181818182L 310.5377049180328 201.2349090909091L 313.5672131147541 200.44639999999998L 316.59672131147545 201.4618181818182L 319.62622950819673 201.09876363636363L 322.655737704918 201.17818181818183L 325.68524590163935 193.02647272727273L 328.7147540983607 198.8069818181818L 331.74426229508197 203.39054545454545L 334.7737704918033 200.30458181818182L 337.8032786885246 198.35883636363636L 340.8327868852459 193.3101090909091L 343.8622950819672 200.56552727272728L 346.89180327868854 203.03883636363636L 349.9213114754098 197.22996363636364L 352.9508196721311 201.95534545454547L 355.98032786885244 196.016L 359.0098360655738 202.30705454545455L 362.0393442622951 199.91316363636363L 365.0688524590164 194.62050909090908L 368.0983606557377 201.29163636363637L 371.127868852459 202.98778181818182L 374.15737704918035 203.5437090909091L 377.18688524590164 200.60523636363638L 380.216393442623 195.5621818181818L 383.24590163934425 203.24305454545456L 386.2754098360656 200.15709090909093L 389.3049180327869 198.46661818181818L 392.3344262295082 201.70007272727273L 395.36393442622955 200.70734545454545L 398.3934426229508 200.4293818181818L 401.4229508196721 201.76814545454545L 404.45245901639345 204.6442181818182L 407.4819672131148 206L 410.51147540983607 196.35636363636365L 413.54098360655735 199.21541818181817L 416.5704918032787 156.87418181818182L 419.6 165.1506909090909L 422.6295081967213 204.1733818181818L 425.65901639344264 202.17658181818183L 428.6885245901639 199.31185454545454L 431.71803278688526 198.7842909090909L 434.74754098360654 202.6757818181818L 437.7770491803279 202.8573090909091L 440.8065573770492 196.1861818181818L 443.83606557377044 199.64654545454545L 446.8655737704918 198.2056727272727L 449.8950819672131 201.2178909090909L 452.92459016393445 201.79083636363637L 455.95409836065573 201.90429090909092L 458.983606557377 200.1968L 462.01311475409835 195.17076363636363L 465.0426229508197 206L 468.072131147541 206L 471.1016393442623 206L 474.1311475409836 191.4834909090909L 477.16065573770493 197.79723636363636L 480.1901639344262 198.85236363636363L 483.21967213114755 199.76L 486.2491803278689 200.03796363636363L 489.27868852459017 200.76407272727272L 492.30819672131145 201.80785454545455L 495.3377049180328 191.63098181818182L 498.3672131147541 194.41061818181817L 501.3967213114754 199.88479999999998L 504.42622950819674 152.63098181818182L 507.455737704918 197.04843636363637L 510.48524590163936 194.4730181818182L 513.5147540983606 155.90414545454547L 516.544262295082 91.60945454545454L 519.5737704918033 104.5376L 522.6032786885246 151.17876363636364L 525.6327868852459 185.1981090909091L 528.6622950819672 142.76610909090908L 531.6918032786884 125.0672L 534.7213114754098 123.74545454545455L 537.7508196721311 157.99738181818182L 540.7803278688524 53.56814545454546L 543.8098360655738 50.78850909090909L 546.8393442622951 100.02210909090908L 549.8688524590164 156.2445090909091L 552.8983606557376 180.31956363636363L 555.9278688524589 192.43650909090908L 558.9573770491804 193.63912727272728L 561.9868852459017 193.3328L 565.0163934426229 192.11316363636365L 568.0459016393443 197.93338181818183L 571.0754098360655 191.5629090909091L 574.1049180327869 198.7672727272727L 577.1344262295082 199.3005090909091L 580.1639344262295 201.64901818181818L 583.1934426229509 200.58821818181818L 586.2229508196722 202.43752727272727L 589.2524590163935 200.73003636363637L 592.2819672131147 189.7703272727273L 595.311475409836 203.17498181818183L 598.3409836065573 200.48610909090908L 601.3704918032787 185.1810909090909L 604.4 187.88698181818182L 607.4295081967214 191.01832727272728L 610.4590163934427 192.31738181818181L 613.4885245901639 177.09745454545455L 616.5180327868853 167.91330909090908L 619.5475409836066 179.30981818181817L 622.5770491803278 186.49716363636364L 625.6065573770492 150.34487272727273L 628.6360655737705 184.27345454545454L 631.6655737704918 199.5104L 634.6950819672131 161.24785454545454L 637.7245901639344 155.49003636363636L 640.7540983606558 176.96130909090908L 643.7836065573771 190.30923636363636L 646.8131147540984 193.50865454545453L 649.8426229508196 201.72843636363638L 652.8721311475409 185.22647272727272L 655.9016393442622 192.03374545454545L 658.9311475409836 192.66909090909093L 661.9606557377049 180.18341818181818L 664.9901639344263 194.5013818181818L 668.0196721311476 194.6829090909091L 671.0491803278688 201.85323636363637L 674.0786885245902 196.2032L 677.1081967213115 204.49105454545455L 680.1377049180328 191.55723636363638L 683.1672131147541 180.36494545454545L 686.1967213114754 193.02647272727273L 689.2262295081966 186.20785454545455L 692.255737704918 191.72741818181817L 695.2852459016393 191.4834909090909L 698.3147540983607 196.63432727272726L 701.344262295082 200.7810909090909L 704.3737704918033 176.26923636363637L 707.4032786885247 165.78036363636363L 710.432786885246 181.82850909090908L 713.4622950819671 160.6976L 716.4918032786885 163.93105454545454L 719.5213114754098 182.10647272727272L 722.5508196721312 130.808L 725.5803278688525 190.49643636363635L 728.6098360655737 202.0914909090909L 731.6393442622951 184.09192727272728L 734.6688524590164 197.50225454545455L 737.6983606557377 187.54094545454547L 740.7278688524591 192.95272727272726L 743.7573770491803 201.88727272727272L 746.7868852459015 184.33585454545454L 749.8163934426229 183.04814545454545L 752.8459016393442 182.36741818181818L 755.8754098360656 182.54327272727272L 758.9049180327869 186.38938181818182L 761.9344262295082 174.3858909090909L 764.9639344262296 183.1786181818182L 767.9934426229509 183.5133090909091L 771.0229508196721 184.60247272727273L 774.0524590163934 186.968L 777.0819672131147 170.00087272727274L 780.111475409836 167.8338909090909L 783.1409836065574 203.32247272727273L 786.1704918032787 206L 789.2 128.43112727272728L 792.2295081967213 183.2637090909091L 795.2590163934426 156.8685090909091L 798.288524590164 183.15592727272727L 801.3180327868853 183.2013090909091L 804.3475409836066 182.25963636363636L 807.3770491803278 170.18807272727273L 810.4065573770491 186.86589090909092L 813.4360655737705 183.77425454545454L 816.4655737704918 186.29861818181817L 819.4950819672131 184.17134545454545L 822.5245901639345 184.9655272727273L 825.5540983606558 178.1696L 828.583606557377 180.70530909090908L 831.6131147540984 170.80072727272727L 834.6426229508197 177.99374545454546L 837.6721311475409 175.99127272727273L 840.7016393442623 173.75621818181818L 843.7311475409836 175.45803636363638L 846.760655737705 196.91796363636365L 849.7901639344262 150.30516363636363L 852.8196721311475 167.34036363636363L 855.8491803278689 174.52203636363637L 858.8786885245902 132.05599999999998L 861.9081967213115 144.8309818181818L 864.9377049180329 173.60872727272726L 867.967213114754 151.91054545454546L 870.9967213114754 194.03621818181819L 874.0262295081967 160.59549090909093L 877.055737704918 206L 880.0852459016394 153.43650909090908L 883.1147540983607 181.01163636363637L 886.144262295082 181.6413090909091L 889.1737704918033 182.49221818181817L 892.2032786885246 183.08785454545455L 895.2327868852459 206L 898.2622950819672 151.86516363636363L 901.2918032786885 172.45716363636365L 904.3213114754099 169.20669090909092L 907.3508196721311 178.22065454545455L 910.3803278688524 175.54312727272728L 913.4098360655738 177.61367272727273L 916.4393442622951 181.0173090909091L 919.4688524590164 176.80814545454547L 922.4983606557378 167.8962909090909L 925.527868852459 167.1248L 928.5573770491803 176.62094545454545L 931.5868852459016 158.63272727272727L 934.6163934426229 151.3602909090909L 937.6459016393443 173.35345454545455L 940.6754098360656 206L 943.7049180327868 206L 946.7344262295082 206L 949.7639344262295 206L 952.7934426229508 206L 955.8229508196722 206L 958.8524590163935 206L 961.8819672131148 206L 964.911475409836 206L 967.9409836065573 206L 970.9704918032787 206L 974 206" stroke-width="2.0" fill="none" />
    
        
        
        <text x="45.0" font-family="-apple-system, system-ui, BlinkMacSystemFont, Roboto" y="50.0" dominant-baseline="middle" text-anchor="end" font-size="12" fill="#24292f">27500.0</text>
        
            
            <path stroke="#74838f" stroke-dasharray="10 6" stroke-width="0.5"  d="M 50.0 50.0 L 974.0 50.0" />
        
    
        
        
        <text x="45.0" font-family="-apple-system, system-ui, BlinkMacSystemFont, Roboto" y="81.2" dominant-baseline="middle" text-anchor="end" font-size="12" fill="#24292f">22000.0</text>
        
            
            
            <path stroke="#74838f" stroke-dasharray="10 6" stroke-width="0.5"  d="M 50.0 81.2 L 974.0 81.2" />
        
    
        
        
        <text x="45.0" font-family="-apple-system, system-ui, BlinkMacSystemFont, Roboto" y="112.4" dominant-baseline="middle" text-anchor="end" font-size="12" fill="#24292f">16500.0</text>
        
            
            
            <path stroke="#74838f" stroke-dasharray="10 6" stroke-width="0.5"  d="M 50.0 112.4 L 974.0 112.4" />
        
    
        
        
        <text x="45.0" font-family="-apple-system, system-ui, BlinkMacSystemFont, Roboto" y="143.6" dominant-baseline="middle" text-anchor="end" font-size="12" fill="#24292f">11000.0</text>
        
            
            
            <path stroke="#74838f" stroke-dasharray="10 6" stroke-width="0.5"  d="M 50.0 143.6 L 974.0 143.6" />
        
    
        
        
        <text x="45.0" font-family="-apple-system, system-ui, BlinkMacSystemFont, Roboto" y="174.8" dominant-baseline="middle" text-anchor="end" font-size="12" fill="#24292f">5500.0</text>
        
            
            
            <path stroke="#74838f" stroke-dasharray="10 6" stroke-width="0.5"  d="M 50.0 174.8 L 974.0 174.8" />
        
    
        
        
        <text x="45.0" font-family="-apple-system, system-ui, BlinkMacSystemFont, Roboto" y="206.0" dominant-baseline="middle" text-anchor="end" font-size="12" fill="#24292f">0.0</text>
        
    
    
        
        <path stroke="#74838f"  stroke-width="2.0"  d="M 98.47213114754098 206.0 L 98.47213114754098 214.0" />
        <text x="98.47213114754098" font-family="-apple-system, system-ui, BlinkMacSystemFont, Roboto" y="216.0" dominant-baseline="hanging" text-anchor="middle" font-size="12" fill="#24292f">Mar 2022</text>
    
        
        <path stroke="#74838f"  stroke-width="2.0"  d="M 192.38688524590165 206.0 L 192.38688524590165 214.0" />
        <text x="192.38688524590165" font-family="-apple-system, system-ui, BlinkMacSystemFont, Roboto" y="216.0" dominant-baseline="hanging" text-anchor="middle" font-size="12" fill="#24292f">Apr 2022</text>
    
        
        <path stroke="#74838f"  stroke-width="2.0"  d="M 283.272131147541 206.0 L 283.272131147541 214.0" />
        <text x="283.272131147541" font-family="-apple-system, system-ui, BlinkMacSystemFont, Roboto" y="216.0" dominant-baseline="hanging" text-anchor="middle" font-size="12" fill="#24292f">May 2022</text>
    
        
        <path stroke="#74838f"  stroke-width="2.0"  d="M 377.18688524590164 206.0 L 377.18688524590164 214.0" />
        <text x="377.18688524590164" font-family="-apple-system, system-ui, BlinkMacSystemFont, Roboto" y="216.0" dominant-baseline="hanging" text-anchor="middle" font-size="12" fill="#24292f">Jun 2022</text>
    
        
        <path stroke="#74838f"  stroke-width="2.0"  d="M 468.072131147541 206.0 L 468.072131147541 214.0" />
        <text x="468.072131147541" font-family="-apple-system, system-ui, BlinkMacSystemFont, Roboto" y="216.0" dominant-baseline="hanging" text-anchor="middle" font-size="12" fill="#24292f">Jul 2022</text>
    
        
        <path stroke="#74838f"  stroke-width="2.0"  d="M 561.9868852459017 206.0 L 561.9868852459017 214.0" />
        <text x="561.9868852459017" font-family="-apple-system, system-ui, BlinkMacSystemFont, Roboto" y="216.0" dominant-baseline="hanging" text-anchor="middle" font-size="12" fill="#24292f">Aug 2022</text>
    
        
        <path stroke="#74838f"  stroke-width="2.0"  d="M 655.9016393442622 206.0 L 655.9016393442622 214.0" />
        <text x="655.9016393442622" font-family="-apple-system, system-ui, BlinkMacSystemFont, Roboto" y="216.0" dominant-baseline="hanging" text-anchor="middle" font-size="12" fill="#24292f">Sep 2022</text>
    
        
        <path stroke="#74838f"  stroke-width="2.0"  d="M 746.7868852459015 206.0 L 746.7868852459015 214.0" />
        <text x="746.7868852459015" font-family="-apple-system, system-ui, BlinkMacSystemFont, Roboto" y="216.0" dominant-baseline="hanging" text-anchor="middle" font-size="12" fill="#24292f">Oct 2022</text>
    
        
        <path stroke="#74838f"  stroke-width="2.0"  d="M 840.7016393442623 206.0 L 840.7016393442623 214.0" />
        <text x="840.7016393442623" font-family="-apple-system, system-ui, BlinkMacSystemFont, Roboto" y="216.0" dominant-baseline="hanging" text-anchor="middle" font-size="12" fill="#24292f">Nov 2022</text>
    
        
        <path stroke="#74838f"  stroke-width="2.0"  d="M 931.5868852459016 206.0 L 931.5868852459016 214.0" />
        <text x="931.5868852459016" font-family="-apple-system, system-ui, BlinkMacSystemFont, Roboto" y="216.0" dominant-baseline="hanging" text-anchor="middle" font-size="12" fill="#24292f">Dec 2022</text>
    
    <path stroke="#74838f"   stroke-linejoin="round" stroke-width="2.0" d="M 50.0 216.0 L 50.0 206.0 L 974.0 206.0 L 974.0 216.0"  fill="none" />
    <text x="512.0" y="25.0" font-family="-apple-system, system-ui, BlinkMacSystemFont, Roboto" dominant-baseline="middle" text-anchor="middle" font-size="18" fill="#24292f">Total daily screen name changes</text>
</svg>
