<?xml version="1.0" standalone="no"?>
<svg width="1024.0" height="256.0"  viewBox="0 0 1024.0 256.0" preserveAspectRatio="xMidYMid meet" xmlns="http://www.w3.org/2000/svg">
    <path stroke="#3498db" stroke-linejoin="round" d="M 50.0 203.3394909090909 L 50 203.3394909090909L 52.292803970223325 202.32974545454545L 54.58560794044665 196.86690909090908L 56.878411910669975 195.94792727272727L 59.1712158808933 202.14254545454546L 61.464019851116625 197.35476363636363L 63.75682382133995 191.76145454545454L 66.04962779156327 179.96218181818182L 68.3424317617866 204.09396363636364L 70.63523573200993 194.17236363636363L 72.92803970223325 192.61803636363635L 75.22084367245658 195.1253818181818L 77.5136476426799 193.92843636363637L 79.80645161290323 182.2482909090909L 82.09925558312655 200.86618181818181L 84.39205955334987 201.45614545454546L 86.6848635235732 178.89003636363637L 88.97766749379653 197.33774545454546L 91.27047146401985 198.50065454545455L 93.56327543424317 200.41803636363636L 95.8560794044665 201.18385454545455L 98.14888337468983 202.26734545454545L 100.44168734491316 195.09134545454546L 102.73449131513647 198.08087272727272L 105.0272952853598 183.38850909090908L 107.32009925558313 197.47389090909093L 109.61290322580645 202.01774545454546L 111.90570719602977 194.66021818181818L 114.1985111662531 200.75272727272727L 116.49131513647643 200.00392727272728L 118.78411910669975 201.97236363636364L 121.07692307692308 204.2754909090909L 123.3697270471464 201.74545454545455L 125.66253101736973 201.01367272727273L 127.95533498759306 174.7829818181818L 130.24813895781637 195.76072727272728L 132.5409429280397 204.0032L 134.83374689826303 203.7309090909091L 137.12655086848633 197.87665454545453L 139.4193548387097 202.60770909090908L 141.712158808933 202.6928L 144.00496277915633 197.55898181818182L 146.29776674937966 186.5141818181818L 148.59057071960297 199.26647272727274L 150.88337468982633 199.5728L 153.17617866004963 193.4802909090909L 155.46898263027293 199.10763636363635L 157.7617866004963 201.54690909090908L 160.0545905707196 201.5696L 162.34739454094293 195.06865454545454L 164.64019851116626 201.70007272727273L 166.93300248138956 197.2866909090909L 169.2258064516129 172.35505454545455L 171.51861042183623 203.20901818181818L 173.81141439205953 199.6749090909091L 176.1042183622829 193.12858181818183L 178.3970223325062 196.8896L 180.68982630272953 199.78836363636364L 182.98263027295286 198.82967272727274L 185.27543424317616 204.1336727272727L 187.5682382133995 202.57934545454546L 189.86104218362283 198.9261090909091L 192.15384615384616 206L 194.4466501240695 204.128L 196.7394540942928 192.1245090909091L 199.03225806451613 206L 201.32506203473946 206L 203.61786600496276 206L 205.91066997518612 206L 208.20347394540943 197.37178181818183L 210.49627791563276 199.57847272727273L 212.78908188585606 188.9024L 215.0818858560794 195.02894545454546L 217.37468982630273 191.20552727272727L 219.66749379652606 166.8128L 221.9602977667494 203.8386909090909L 224.2531017369727 198.09221818181817L 226.54590570719603 201.64334545454545L 228.83870967741936 202.2957090909091L 231.13151364764266 203.22036363636363L 233.42431761786602 200.66763636363635L 235.71712158808933 191.51185454545455L 238.00992555831266 189.18603636363636L 240.302729528536 203.86705454545455L 242.5955334987593 197.56465454545454L 244.88833746898263 187.32538181818182L 247.18114143920593 201.2349090909091L 249.4739454094293 200.44639999999998L 251.76674937965262 201.4618181818182L 254.05955334987593 201.09876363636363L 256.35235732009926 201.17818181818183L 258.64516129032256 193.02647272727273L 260.93796526054587 198.8069818181818L 263.2307692307693 203.39054545454545L 265.5235732009926 200.30458181818182L 267.8163771712159 198.35883636363636L 270.1091811414392 193.3101090909091L 272.4019851116625 200.56552727272728L 274.69478908188586 203.03883636363636L 276.98759305210916 197.22996363636364L 279.2803970223325 201.95534545454547L 281.5732009925558 196.016L 283.86600496277913 202.30705454545455L 286.15880893300255 199.91316363636363L 288.4516129032258 194.62050909090908L 290.74441687344915 201.29163636363637L 293.03722084367246 202.98778181818182L 295.33002481389576 203.5437090909091L 297.62282878411906 200.60523636363638L 299.9156327543424 195.5621818181818L 302.2084367245658 203.24305454545456L 304.5012406947891 200.15709090909093L 306.7940446650124 198.46661818181818L 309.0868486352357 201.70007272727273L 311.37965260545906 200.70734545454545L 313.67245657568236 200.4293818181818L 315.9652605459057 201.76814545454545L 318.258064516129 204.6442181818182L 320.55086848635233 206L 322.8436724565757 196.35636363636365L 325.136476426799 199.21541818181817L 327.42928039702235 156.87418181818182L 329.72208436724566 165.1506909090909L 332.01488833746896 204.1733818181818L 334.3076923076923 202.17658181818183L 336.6004962779156 199.31185454545454L 338.893300248139 198.7842909090909L 341.1861042183623 202.6757818181818L 343.4789081885856 202.8573090909091L 345.77171215880895 196.1861818181818L 348.06451612903226 199.64654545454545L 350.3573200992556 198.2056727272727L 352.6501240694789 201.2178909090909L 354.9429280397022 201.79083636363637L 357.2357320099255 201.90429090909092L 359.5285359801489 200.1968L 361.82133995037225 195.17076363636363L 364.1141439205955 206L 366.40694789081886 206L 368.69975186104216 206L 370.9925558312655 191.4834909090909L 373.2853598014889 197.79723636363636L 375.5781637717121 198.85236363636363L 377.8709677419355 199.76L 380.1637717121588 200.03796363636363L 382.45657568238215 200.76407272727272L 384.74937965260546 201.80785454545455L 387.04218362282876 191.63098181818182L 389.3349875930521 194.41061818181817L 391.6277915632754 199.88479999999998L 393.9205955334988 152.63098181818182L 396.2133995037221 197.04843636363637L 398.5062034739454 194.4730181818182L 400.7990074441687 155.90414545454547L 403.09181141439205 91.60945454545454L 405.3846153846154 104.5376L 407.6774193548387 151.17876363636364L 409.970223325062 185.1981090909091L 412.2630272952853 142.76610909090908L 414.5558312655087 125.0672L 416.84863523573205 123.74545454545455L 419.14143920595535 157.99738181818182L 421.43424317617865 53.56814545454546L 423.72704714640196 50.78850909090909L 426.0198511166253 100.02210909090908L 428.3126550868486 156.2445090909091L 430.605459057072 180.31956363636363L 432.8982630272953 192.43650909090908L 435.1910669975186 193.63912727272728L 437.48387096774195 193.3328L 439.77667493796525 192.11316363636365L 442.0694789081886 197.93338181818183L 444.36228287841186 191.5629090909091L 446.6550868486352 198.7672727272727L 448.9478908188586 199.3005090909091L 451.2406947890819 201.64901818181818L 453.53349875930525 200.58821818181818L 455.8263027295285 202.43752727272727L 458.11910669975185 200.73003636363637L 460.41191066997516 189.7703272727273L 462.7047146401985 203.17498181818183L 464.9975186104219 200.48610909090908L 467.2903225806451 185.1810909090909L 469.5831265508685 187.88698181818182L 471.8759305210918 191.01832727272728L 474.16873449131515 192.31738181818181L 476.4615384615385 177.09745454545455L 478.75434243176176 167.91330909090908L 481.0471464019851 179.30981818181817L 483.3399503722084 186.49716363636364L 485.6327543424318 150.34487272727273L 487.9255583126551 184.27345454545454L 490.2183622828784 199.5104L 492.51116625310175 161.24785454545454L 494.80397022332505 155.49003636363636L 497.0967741935484 176.96130909090908L 499.3895781637717 190.30923636363636L 501.682382133995 193.50865454545453L 503.9751861042183 201.72843636363638L 506.2679900744417 185.22647272727272L 508.56079404466504 192.03374545454545L 510.85359801488835 192.66909090909093L 513.1464019851117 180.18341818181818L 515.439205955335 194.5013818181818L 517.7320099255583 194.6829090909091L 520.0248138957817 201.85323636363637L 522.3176178660051 196.2032L 524.6104218362282 204.49105454545455L 526.9032258064516 191.55723636363638L 529.196029776675 180.36494545454545L 531.4888337468983 193.02647272727273L 533.7816377171216 186.20785454545455L 536.0744416873449 191.72741818181817L 538.3672456575682 191.4834909090909L 540.6600496277915 196.63432727272726L 542.9528535980149 200.7810909090909L 545.2456575682381 176.26923636363637L 547.5384615384614 165.78036363636363L 549.8312655086849 181.82850909090908L 552.1240694789083 160.6976L 554.4168734491316 163.93105454545454L 556.7096774193549 182.10647272727272L 559.0024813895782 130.808L 561.2952853598015 190.49643636363635L 563.5880893300248 202.0914909090909L 565.8808933002482 184.09192727272728L 568.1736972704714 197.50225454545455L 570.4665012406948 187.54094545454547L 572.7593052109181 192.95272727272726L 575.0521091811414 201.88727272727272L 577.3449131513647 184.33585454545454L 579.637717121588 183.04814545454545L 581.9305210918114 182.36741818181818L 584.2233250620347 182.54327272727272L 586.516129032258 186.38938181818182L 588.8089330024814 174.3858909090909L 591.1017369727047 183.1786181818182L 593.3945409429281 183.5133090909091L 595.6873449131514 184.60247272727273L 597.9801488833747 186.968L 600.272952853598 170.00087272727274L 602.5657568238213 167.8338909090909L 604.8585607940447 203.32247272727273L 607.151364764268 206L 609.4441687344913 128.43112727272728L 611.7369727047146 183.2637090909091L 614.0297766749379 156.8685090909091L 616.3225806451613 183.15592727272727L 618.6153846153846 183.2013090909091L 620.908188585608 182.25963636363636L 623.2009925558312 170.18807272727273L 625.4937965260546 186.86589090909092L 627.786600496278 183.77425454545454L 630.0794044665013 186.29861818181817L 632.3722084367246 184.17134545454545L 634.6650124069479 184.9655272727273L 636.9578163771712 178.1696L 639.2506203473946 180.70530909090908L 641.5434243176179 170.80072727272727L 643.8362282878412 177.99374545454546L 646.1290322580645 175.99127272727273L 648.4218362282878 173.75621818181818L 650.7146401985112 175.45803636363638L 653.0074441687345 196.91796363636365L 655.3002481389578 150.30516363636363L 657.5930521091811 167.34036363636363L 659.8858560794044 174.52203636363637L 662.1786600496279 132.05599999999998L 664.471464019851 144.8309818181818L 666.7642679900744 173.60872727272726L 669.0570719602978 151.91054545454546L 671.3498759305211 194.03621818181819L 673.6426799007445 160.59549090909093L 675.9354838709677 206L 678.228287841191 153.43650909090908L 680.5210918114144 181.01163636363637L 682.8138957816377 181.6413090909091L 685.1066997518611 182.49221818181817L 687.3995037220843 183.08785454545455L 689.6923076923076 206L 691.985111662531 151.86516363636363L 694.2779156327543 172.45716363636365L 696.5707196029778 169.20669090909092L 698.863523573201 178.22065454545455L 701.1563275434243 175.54312727272728L 703.4491315136477 177.61367272727273L 705.741935483871 181.0173090909091L 708.0347394540943 176.80814545454547L 710.3275434243176 167.8962909090909L 712.6203473945409 167.1248L 714.9131513647643 176.62094545454545L 717.2059553349876 158.63272727272727L 719.4987593052109 151.3602909090909L 721.7915632754342 173.35345454545455L 724.0843672456575 206L 726.3771712158809 206L 728.6699751861042 206L 730.9627791563275 206L 733.2555831265508 206L 735.5483870967741 206L 737.8411910669976 206L 740.1339950372209 206L 742.4267990074442 206L 744.7196029776675 206L 747.0124069478908 206L 749.3052109181142 206L 751.5980148883374 206L 753.8908188585608 206L 756.1836228287841 206L 758.4764267990074 206L 760.7692307692308 206L 763.062034739454 206L 765.3548387096774 206L 767.6476426799007 206L 769.940446650124 206L 772.2332506203475 206L 774.5260545905707 206L 776.8188585607941 206L 779.1116625310174 206L 781.4044665012407 206L 783.6972704714641 206L 785.9900744416873 206L 788.2828784119107 206L 790.575682382134 206L 792.8684863523573 206L 795.1612903225806 206L 797.4540942928039 206L 799.7468982630273 206L 802.0397022332506 206L 804.3325062034739 206L 806.6253101736972 206L 808.9181141439205 206L 811.210918114144 206L 813.5037220843673 206L 815.7965260545906 206L 818.0893300248139 206L 820.3821339950372 206L 822.6749379652606 206L 824.9677419354839 206L 827.2605459057071 206L 829.5533498759305 206L 831.8461538461538 206L 834.1389578163772 206L 836.4317617866005 206L 838.7245657568237 206L 841.0173697270471 206L 843.3101736972704 206L 845.6029776674939 206L 847.8957816377172 206L 850.1885856079404 206L 852.4813895781638 206L 854.7741935483871 206L 857.0669975186105 206L 859.3598014888338 206L 861.652605459057 206L 863.9454094292804 206L 866.2382133995037 206L 868.5310173697271 206L 870.8238213399503 206L 873.1166253101736 206L 875.409429280397 206L 877.7022332506203 206L 879.9950372208438 206L 882.287841191067 206L 884.5806451612902 206L 886.8734491315137 206L 889.166253101737 206L 891.4590570719604 206L 893.7518610421836 206L 896.0446650124069 206L 898.3374689826303 206L 900.6302729528536 206L 902.923076923077 206L 905.2158808933002 206L 907.5086848635235 206L 909.8014888337469 206L 912.0942928039702 206L 914.3870967741935 206L 916.6799007444168 206L 918.9727047146401 206L 921.2655086848636 206L 923.5583126550869 206L 925.8511166253102 206L 928.1439205955335 206L 930.4367245657568 206L 932.7295285359802 206L 935.0223325062035 206L 937.3151364764268 206L 939.6079404466501 206L 941.9007444168734 206L 944.1935483870968 206L 946.4863523573201 206L 948.7791563275434 206L 951.0719602977667 206L 953.36476426799 206L 955.6575682382135 206L 957.9503722084366 206L 960.2431761786601 206L 962.5359801488834 206L 964.8287841191067 206L 967.1215880893301 206L 969.4143920595533 206L 971.7071960297767 206L 974 206" stroke-width="2.0" fill="none" />
    
        
        
        <text x="45.0" font-family="-apple-system, system-ui, BlinkMacSystemFont, Roboto" y="50.0" dominant-baseline="middle" text-anchor="end" font-size="12" fill="#24292f">27500.0</text>
        
            
            <path stroke="#74838f" stroke-dasharray="10 6" stroke-width="0.5"  d="M 50.0 50.0 L 974.0 50.0" />
        
    
        
        
        <text x="45.0" font-family="-apple-system, system-ui, BlinkMacSystemFont, Roboto" y="81.2" dominant-baseline="middle" text-anchor="end" font-size="12" fill="#24292f">22000.0</text>
        
            
            
            <path stroke="#74838f" stroke-dasharray="10 6" stroke-width="0.5"  d="M 50.0 81.2 L 974.0 81.2" />
        
    
        
        
        <text x="45.0" font-family="-apple-system, system-ui, BlinkMacSystemFont, Roboto" y="112.4" dominant-baseline="middle" text-anchor="end" font-size="12" fill="#24292f">16500.0</text>
        
            
            
            <path stroke="#74838f" stroke-dasharray="10 6" stroke-width="0.5"  d="M 50.0 112.4 L 974.0 112.4" />
        
    
        
        
        <text x="45.0" font-family="-apple-system, system-ui, BlinkMacSystemFont, Roboto" y="143.6" dominant-baseline="middle" text-anchor="end" font-size="12" fill="#24292f">11000.0</text>
        
            
            
            <path stroke="#74838f" stroke-dasharray="10 6" stroke-width="0.5"  d="M 50.0 143.6 L 974.0 143.6" />
        
    
        
        
        <text x="45.0" font-family="-apple-system, system-ui, BlinkMacSystemFont, Roboto" y="174.8" dominant-baseline="middle" text-anchor="end" font-size="12" fill="#24292f">5500.0</text>
        
            
            
            <path stroke="#74838f" stroke-dasharray="10 6" stroke-width="0.5"  d="M 50.0 174.8 L 974.0 174.8" />
        
    
        
        
        <text x="45.0" font-family="-apple-system, system-ui, BlinkMacSystemFont, Roboto" y="206.0" dominant-baseline="middle" text-anchor="end" font-size="12" fill="#24292f">0.0</text>
        
    
    
        
        <path stroke="#74838f"  stroke-width="2.0"  d="M 86.6848635235732 206.0 L 86.6848635235732 214.0" />
        <text x="86.6848635235732" font-family="-apple-system, system-ui, BlinkMacSystemFont, Roboto" y="216.0" dominant-baseline="hanging" text-anchor="middle" font-size="12" fill="#24292f">Mar 2022</text>
    
        
        <path stroke="#74838f"  stroke-width="2.0"  d="M 157.7617866004963 206.0 L 157.7617866004963 214.0" />
        <text x="157.7617866004963" font-family="-apple-system, system-ui, BlinkMacSystemFont, Roboto" y="216.0" dominant-baseline="hanging" text-anchor="middle" font-size="12" fill="#24292f">Apr 2022</text>
    
        
        <path stroke="#74838f"  stroke-width="2.0"  d="M 226.54590570719603 206.0 L 226.54590570719603 214.0" />
        <text x="226.54590570719603" font-family="-apple-system, system-ui, BlinkMacSystemFont, Roboto" y="216.0" dominant-baseline="hanging" text-anchor="middle" font-size="12" fill="#24292f">May 2022</text>
    
        
        <path stroke="#74838f"  stroke-width="2.0"  d="M 297.62282878411906 206.0 L 297.62282878411906 214.0" />
        <text x="297.62282878411906" font-family="-apple-system, system-ui, BlinkMacSystemFont, Roboto" y="216.0" dominant-baseline="hanging" text-anchor="middle" font-size="12" fill="#24292f">Jun 2022</text>
    
        
        <path stroke="#74838f"  stroke-width="2.0"  d="M 366.40694789081886 206.0 L 366.40694789081886 214.0" />
        <text x="366.40694789081886" font-family="-apple-system, system-ui, BlinkMacSystemFont, Roboto" y="216.0" dominant-baseline="hanging" text-anchor="middle" font-size="12" fill="#24292f">Jul 2022</text>
    
        
        <path stroke="#74838f"  stroke-width="2.0"  d="M 437.48387096774195 206.0 L 437.48387096774195 214.0" />
        <text x="437.48387096774195" font-family="-apple-system, system-ui, BlinkMacSystemFont, Roboto" y="216.0" dominant-baseline="hanging" text-anchor="middle" font-size="12" fill="#24292f">Aug 2022</text>
    
        
        <path stroke="#74838f"  stroke-width="2.0"  d="M 508.56079404466504 206.0 L 508.56079404466504 214.0" />
        <text x="508.56079404466504" font-family="-apple-system, system-ui, BlinkMacSystemFont, Roboto" y="216.0" dominant-baseline="hanging" text-anchor="middle" font-size="12" fill="#24292f">Sep 2022</text>
    
        
        <path stroke="#74838f"  stroke-width="2.0"  d="M 577.3449131513647 206.0 L 577.3449131513647 214.0" />
        <text x="577.3449131513647" font-family="-apple-system, system-ui, BlinkMacSystemFont, Roboto" y="216.0" dominant-baseline="hanging" text-anchor="middle" font-size="12" fill="#24292f">Oct 2022</text>
    
        
        <path stroke="#74838f"  stroke-width="2.0"  d="M 648.4218362282878 206.0 L 648.4218362282878 214.0" />
        <text x="648.4218362282878" font-family="-apple-system, system-ui, BlinkMacSystemFont, Roboto" y="216.0" dominant-baseline="hanging" text-anchor="middle" font-size="12" fill="#24292f">Nov 2022</text>
    
        
        <path stroke="#74838f"  stroke-width="2.0"  d="M 717.2059553349876 206.0 L 717.2059553349876 214.0" />
        <text x="717.2059553349876" font-family="-apple-system, system-ui, BlinkMacSystemFont, Roboto" y="216.0" dominant-baseline="hanging" text-anchor="middle" font-size="12" fill="#24292f">Dec 2022</text>
    
        
        <path stroke="#74838f"  stroke-width="2.0"  d="M 788.2828784119107 206.0 L 788.2828784119107 214.0" />
        <text x="788.2828784119107" font-family="-apple-system, system-ui, BlinkMacSystemFont, Roboto" y="216.0" dominant-baseline="hanging" text-anchor="middle" font-size="12" fill="#24292f">Jan 2023</text>
    
        
        <path stroke="#74838f"  stroke-width="2.0"  d="M 859.3598014888338 206.0 L 859.3598014888338 214.0" />
        <text x="859.3598014888338" font-family="-apple-system, system-ui, BlinkMacSystemFont, Roboto" y="216.0" dominant-baseline="hanging" text-anchor="middle" font-size="12" fill="#24292f">Feb 2023</text>
    
        
        <path stroke="#74838f"  stroke-width="2.0"  d="M 923.5583126550869 206.0 L 923.5583126550869 214.0" />
        <text x="923.5583126550869" font-family="-apple-system, system-ui, BlinkMacSystemFont, Roboto" y="216.0" dominant-baseline="hanging" text-anchor="middle" font-size="12" fill="#24292f">Mar 2023</text>
    
    <path stroke="#74838f"   stroke-linejoin="round" stroke-width="2.0" d="M 50.0 216.0 L 50.0 206.0 L 974.0 206.0 L 974.0 216.0"  fill="none" />
    <text x="512.0" y="25.0" font-family="-apple-system, system-ui, BlinkMacSystemFont, Roboto" dominant-baseline="middle" text-anchor="middle" font-size="18" fill="#24292f">Total daily screen name changes</text>
</svg>
