<?xml version="1.0" standalone="no"?>
<svg width="1024.0" height="256.0"  viewBox="0 0 1024.0 256.0" preserveAspectRatio="xMidYMid meet" xmlns="http://www.w3.org/2000/svg">
    <path stroke="#3498db" stroke-linejoin="round" d="M 50.0 203.3394909090909 L 50 203.3394909090909L 51.97435897435898 202.32974545454545L 53.94871794871795 196.86690909090908L 55.92307692307692 195.94792727272727L 57.8974358974359 202.14254545454546L 59.871794871794876 197.35476363636363L 61.84615384615385 191.76145454545454L 63.82051282051282 179.96218181818182L 65.7948717948718 204.09396363636364L 67.76923076923077 194.17236363636363L 69.74358974358975 192.61803636363635L 71.71794871794872 195.1253818181818L 73.6923076923077 193.92843636363637L 75.66666666666666 182.2482909090909L 77.64102564102564 200.86618181818181L 79.61538461538461 201.45614545454546L 81.58974358974359 178.89003636363637L 83.56410256410257 197.33774545454546L 85.53846153846155 198.50065454545455L 87.51282051282051 200.41803636363636L 89.48717948717949 201.18385454545455L 91.46153846153845 202.26734545454545L 93.43589743589743 195.09134545454546L 95.41025641025641 198.08087272727272L 97.38461538461539 183.38850909090908L 99.35897435897436 197.47389090909093L 101.33333333333333 202.01774545454546L 103.30769230769232 194.66021818181818L 105.28205128205128 200.75272727272727L 107.25641025641025 200.00392727272728L 109.23076923076923 201.97236363636364L 111.2051282051282 204.2754909090909L 113.17948717948718 201.74545454545455L 115.15384615384615 201.01367272727273L 117.12820512820514 174.7829818181818L 119.1025641025641 195.76072727272728L 121.07692307692308 204.0032L 123.05128205128204 203.7309090909091L 125.02564102564102 197.87665454545453L 127 202.60770909090908L 128.97435897435898 202.6928L 130.94871794871796 197.55898181818182L 132.9230769230769 186.5141818181818L 134.8974358974359 199.26647272727274L 136.87179487179486 199.5728L 138.84615384615387 193.4802909090909L 140.82051282051282 199.10763636363635L 142.7948717948718 201.54690909090908L 144.76923076923077 201.5696L 146.74358974358975 195.06865454545454L 148.71794871794873 201.70007272727273L 150.69230769230768 197.2866909090909L 152.66666666666666 172.35505454545455L 154.64102564102564 203.20901818181818L 156.61538461538464 199.6749090909091L 158.5897435897436 193.12858181818183L 160.56410256410257 196.8896L 162.53846153846155 199.78836363636364L 164.5128205128205 198.82967272727274L 166.4871794871795 204.1336727272727L 168.46153846153845 202.57934545454546L 170.43589743589746 198.9261090909091L 172.4102564102564 206L 174.38461538461536 204.128L 176.35897435897436 192.1245090909091L 178.33333333333334 206L 180.3076923076923 206L 182.28205128205127 206L 184.25641025641028 206L 186.23076923076923 197.37178181818183L 188.2051282051282 199.57847272727273L 190.17948717948718 188.9024L 192.15384615384616 195.02894545454546L 194.12820512820514 191.20552727272727L 196.1025641025641 166.8128L 198.0769230769231 203.8386909090909L 200.05128205128204 198.09221818181817L 202.02564102564102 201.64334545454545L 204 202.2957090909091L 205.97435897435898 203.22036363636363L 207.94871794871796 200.66763636363635L 209.9230769230769 191.51185454545455L 211.89743589743588 189.18603636363636L 213.8717948717949 203.86705454545455L 215.84615384615384 197.56465454545454L 217.82051282051282 187.32538181818182L 219.7948717948718 201.2349090909091L 221.76923076923077 200.44639999999998L 223.74358974358975 201.4618181818182L 225.7179487179487 201.09876363636363L 227.6923076923077 201.17818181818183L 229.66666666666666 193.02647272727273L 231.64102564102564 198.8069818181818L 233.6153846153846 203.39054545454545L 235.5897435897436 200.30458181818182L 237.56410256410257 198.35883636363636L 239.53846153846152 193.3101090909091L 241.51282051282053 200.56552727272728L 243.4871794871795 203.03883636363636L 245.46153846153845 197.22996363636364L 247.43589743589743 201.95534545454547L 249.4102564102564 196.016L 251.3846153846154 202.30705454545455L 253.35897435897436 199.91316363636363L 255.33333333333331 194.62050909090908L 257.3076923076923 201.29163636363637L 259.28205128205127 202.98778181818182L 261.2564102564103 203.5437090909091L 263.2307692307693 200.60523636363638L 265.2051282051282 195.5621818181818L 267.1794871794872 203.24305454545456L 269.15384615384613 200.15709090909093L 271.12820512820514 198.46661818181818L 273.1025641025641 201.70007272727273L 275.0769230769231 200.70734545454545L 277.05128205128204 200.4293818181818L 279.025641025641 201.76814545454545L 281 204.6442181818182L 282.974358974359 206L 284.9487179487179 196.35636363636365L 286.9230769230769 199.21541818181817L 288.8974358974359 156.87418181818182L 290.8717948717949 165.1506909090909L 292.84615384615387 204.1733818181818L 294.8205128205128 202.17658181818183L 296.7948717948718 199.31185454545454L 298.7692307692307 198.7842909090909L 300.7435897435897 202.6757818181818L 302.71794871794873 202.8573090909091L 304.69230769230774 196.1861818181818L 306.6666666666667 199.64654545454545L 308.64102564102564 198.2056727272727L 310.6153846153846 201.2178909090909L 312.5897435897436 201.79083636363637L 314.56410256410254 201.90429090909092L 316.5384615384615 200.1968L 318.51282051282055 195.17076363636363L 320.4871794871795 206L 322.46153846153845 206L 324.43589743589746 206L 326.4102564102564 191.4834909090909L 328.38461538461536 197.79723636363636L 330.35897435897436 198.85236363636363L 332.33333333333337 199.76L 334.3076923076923 200.03796363636363L 336.28205128205127 200.76407272727272L 338.2564102564103 201.80785454545455L 340.2307692307692 191.63098181818182L 342.2051282051282 194.41061818181817L 344.1794871794872 199.88479999999998L 346.1538461538462 152.63098181818182L 348.12820512820514 197.04843636363637L 350.1025641025641 194.4730181818182L 352.0769230769231 155.90414545454547L 354.05128205128204 91.60945454545454L 356.025641025641 104.5376L 358 151.17876363636364L 359.97435897435895 185.1981090909091L 361.94871794871796 142.76610909090908L 363.92307692307696 125.0672L 365.8974358974359 123.74545454545455L 367.87179487179486 157.99738181818182L 369.8461538461538 53.56814545454546L 371.8205128205128 50.78850909090909L 373.79487179487177 100.02210909090908L 375.7692307692308 156.2445090909091L 377.7435897435898 180.31956363636363L 379.71794871794873 192.43650909090908L 381.6923076923077 193.63912727272728L 383.6666666666667 193.3328L 385.64102564102564 192.11316363636365L 387.6153846153846 197.93338181818183L 389.5897435897436 191.5629090909091L 391.5641025641026 198.7672727272727L 393.53846153846155 199.3005090909091L 395.5128205128205 201.64901818181818L 397.4871794871795 200.58821818181818L 399.46153846153845 202.43752727272727L 401.4358974358974 200.73003636363637L 403.4102564102564 189.7703272727273L 405.3846153846154 203.17498181818183L 407.35897435897436 200.48610909090908L 409.3333333333333 185.1810909090909L 411.3076923076923 187.88698181818182L 413.28205128205127 191.01832727272728L 415.2564102564102 192.31738181818181L 417.2307692307692 177.09745454545455L 419.20512820512823 167.91330909090908L 421.1794871794872 179.30981818181817L 423.1538461538462 186.49716363636364L 425.12820512820514 150.34487272727273L 427.1025641025641 184.27345454545454L 429.07692307692304 199.5104L 431.05128205128204 161.24785454545454L 433.02564102564105 155.49003636363636L 435 176.96130909090908L 436.974358974359 190.30923636363636L 438.94871794871796 193.50865454545453L 440.9230769230769 201.72843636363638L 442.8974358974359 185.22647272727272L 444.87179487179486 192.03374545454545L 446.8461538461538 192.66909090909093L 448.8205128205128 180.18341818181818L 450.7948717948718 194.5013818181818L 452.7692307692308 194.6829090909091L 454.7435897435897 201.85323636363637L 456.71794871794873 196.2032L 458.6923076923077 204.49105454545455L 460.66666666666663 191.55723636363638L 462.64102564102564 180.36494545454545L 464.61538461538464 193.02647272727273L 466.5897435897436 186.20785454545455L 468.56410256410254 191.72741818181817L 470.53846153846155 191.4834909090909L 472.5128205128205 196.63432727272726L 474.48717948717945 200.7810909090909L 476.4615384615385 176.26923636363637L 478.43589743589746 165.78036363636363L 480.4102564102564 181.82850909090908L 482.3846153846154 160.6976L 484.35897435897436 163.93105454545454L 486.3333333333333 182.10647272727272L 488.30769230769226 130.808L 490.28205128205127 190.49643636363635L 492.2564102564103 202.0914909090909L 494.2307692307692 184.09192727272728L 496.20512820512823 197.50225454545455L 498.1794871794872 187.54094545454547L 500.15384615384613 192.95272727272726L 502.12820512820514 201.88727272727272L 504.1025641025641 184.33585454545454L 506.0769230769231 183.04814545454545L 508.05128205128204 182.36741818181818L 510.02564102564105 182.54327272727272L 512 186.38938181818182L 513.9743589743589 174.3858909090909L 515.948717948718 183.1786181818182L 517.9230769230769 183.5133090909091L 519.8974358974358 184.60247272727273L 521.8717948717949 186.968L 523.8461538461538 170.00087272727274L 525.8205128205127 167.8338909090909L 527.7948717948718 203.32247272727273L 529.7692307692308 206L 531.7435897435898 128.43112727272728L 533.7179487179487 183.2637090909091L 535.6923076923077 156.8685090909091L 537.6666666666667 183.15592727272727L 539.6410256410256 183.2013090909091L 541.6153846153845 182.25963636363636L 543.5897435897436 170.18807272727273L 545.5641025641025 186.86589090909092L 547.5384615384614 183.77425454545454L 549.5128205128206 186.29861818181817L 551.4871794871794 184.17134545454545L 553.4615384615383 184.9655272727273L 555.4358974358975 178.1696L 557.4102564102565 180.70530909090908L 559.3846153846155 170.80072727272727L 561.3589743589744 177.99374545454546L 563.3333333333334 175.99127272727273L 565.3076923076924 173.75621818181818L 567.2820512820513 175.45803636363638L 569.2564102564103 196.91796363636365L 571.2307692307692 150.30516363636363L 573.2051282051282 167.34036363636363L 575.1794871794872 174.52203636363637L 577.1538461538461 132.05599999999998L 579.1282051282051 144.8309818181818L 581.1025641025641 173.60872727272726L 583.076923076923 151.91054545454546L 585.0512820512821 194.03621818181819L 587.0256410256411 160.59549090909093L 589 206L 590.974358974359 153.43650909090908L 592.948717948718 181.01163636363637L 594.9230769230769 181.6413090909091L 596.8974358974359 182.49221818181817L 598.8717948717949 183.08785454545455L 600.8461538461538 206L 602.8205128205128 151.86516363636363L 604.7948717948718 172.45716363636365L 606.7692307692307 169.20669090909092L 608.7435897435897 178.22065454545455L 610.7179487179487 175.54312727272728L 612.6923076923076 177.61367272727273L 614.6666666666667 181.0173090909091L 616.6410256410256 176.80814545454547L 618.6153846153846 167.8962909090909L 620.5897435897436 167.1248L 622.5641025641025 176.62094545454545L 624.5384615384615 158.63272727272727L 626.5128205128206 151.3602909090909L 628.4871794871794 173.35345454545455L 630.4615384615385 206L 632.4358974358975 206L 634.4102564102564 206L 636.3846153846154 206L 638.3589743589744 206L 640.3333333333333 206L 642.3076923076924 206L 644.2820512820513 206L 646.2564102564103 206L 648.2307692307693 206L 650.2051282051282 206L 652.1794871794872 206L 654.1538461538462 206L 656.1282051282051 206L 658.1025641025641 206L 660.0769230769231 206L 662.051282051282 206L 664.025641025641 206L 666 206L 667.9743589743589 206L 669.9487179487179 206L 671.923076923077 206L 673.8974358974359 206L 675.8717948717949 206L 677.8461538461539 206L 679.8205128205128 206L 681.7948717948718 206L 683.7692307692308 206L 685.7435897435897 206L 687.7179487179487 206L 689.6923076923076 206L 691.6666666666666 206L 693.6410256410256 206L 695.6153846153845 206L 697.5897435897435 206L 699.5641025641025 206L 701.5384615384615 206L 703.5128205128206 206L 705.4871794871796 206L 707.4615384615385 206L 709.4358974358975 206L 711.4102564102565 206L 713.3846153846154 206L 715.3589743589744 206L 717.3333333333334 206L 719.3076923076923 206L 721.2820512820513 206L 723.2564102564103 206L 725.2307692307692 206L 727.2051282051282 206L 729.1794871794872 206L 731.1538461538462 206L 733.1282051282052 206L 735.1025641025641 206L 737.0769230769231 206L 739.0512820512821 206L 741.025641025641 206L 743 206L 744.974358974359 206L 746.9487179487179 206L 748.9230769230769 206L 750.8974358974359 206L 752.8717948717948 206L 754.8461538461538 206L 756.8205128205128 206L 758.7948717948718 206L 760.7692307692308 206L 762.7435897435897 206L 764.7179487179487 206L 766.6923076923077 206L 768.6666666666666 206L 770.6410256410256 206L 772.6153846153846 206L 774.5897435897435 206L 776.5641025641025 206L 778.5384615384615 206L 780.5128205128204 206L 782.4871794871794 206L 784.4615384615385 206L 786.4358974358975 206L 788.4102564102565 206L 790.3846153846155 206L 792.3589743589744 206L 794.3333333333334 206L 796.3076923076924 206L 798.2820512820513 206L 800.2564102564103 206L 802.2307692307692 206L 804.2051282051282 206L 806.1794871794872 206L 808.1538461538461 206L 810.1282051282051 206L 812.1025641025641 206L 814.076923076923 206L 816.0512820512821 206L 818.0256410256411 206L 820 206L 821.974358974359 206L 823.948717948718 206L 825.9230769230769 206L 827.8974358974359 206L 829.8717948717949 206L 831.8461538461538 206L 833.8205128205128 206L 835.7948717948718 206L 837.7692307692307 206L 839.7435897435897 206L 841.7179487179487 206L 843.6923076923076 206L 845.6666666666667 206L 847.6410256410256 206L 849.6153846153846 206L 851.5897435897436 206L 853.5641025641025 206L 855.5384615384615 206L 857.5128205128206 206L 859.4871794871794 206L 861.4615384615385 206L 863.4358974358975 206L 865.4102564102564 206L 867.3846153846154 206L 869.3589743589744 206L 871.3333333333333 206L 873.3076923076924 206L 875.2820512820513 206L 877.2564102564103 206L 879.2307692307693 206L 881.2051282051282 206L 883.1794871794872 206L 885.1538461538462 206L 887.1282051282051 206L 889.1025641025641 206L 891.0769230769231 206L 893.051282051282 206L 895.025641025641 206L 897 206L 898.9743589743589 206L 900.9487179487179 206L 902.923076923077 206L 904.8974358974359 206L 906.8717948717949 206L 908.8461538461539 206L 910.8205128205128 206L 912.7948717948718 206L 914.7692307692308 206L 916.7435897435897 206L 918.7179487179487 206L 920.6923076923076 206L 922.6666666666666 206L 924.6410256410256 206L 926.6153846153845 206L 928.5897435897435 206L 930.5641025641025 206L 932.5384615384615 206L 934.5128205128206 206L 936.4871794871796 206L 938.4615384615385 206L 940.4358974358975 206L 942.4102564102565 206L 944.3846153846154 206L 946.3589743589744 206L 948.3333333333334 206L 950.3076923076923 206L 952.2820512820513 206L 954.2564102564103 206L 956.2307692307692 206L 958.2051282051282 206L 960.1794871794872 206L 962.1538461538462 206L 964.1282051282052 206L 966.1025641025641 206L 968.0769230769231 206L 970.0512820512821 206L 972.025641025641 206L 974 206" stroke-width="2.0" fill="none" />
    
        
        
        <text x="45.0" font-family="-apple-system, system-ui, BlinkMacSystemFont, Roboto" y="50.0" dominant-baseline="middle" text-anchor="end" font-size="12" fill="#24292f">27500.0</text>
        
            
            <path stroke="#74838f" stroke-dasharray="10 6" stroke-width="0.5"  d="M 50.0 50.0 L 974.0 50.0" />
        
    
        
        
        <text x="45.0" font-family="-apple-system, system-ui, BlinkMacSystemFont, Roboto" y="81.2" dominant-baseline="middle" text-anchor="end" font-size="12" fill="#24292f">22000.0</text>
        
            
            
            <path stroke="#74838f" stroke-dasharray="10 6" stroke-width="0.5"  d="M 50.0 81.2 L 974.0 81.2" />
        
    
        
        
        <text x="45.0" font-family="-apple-system, system-ui, BlinkMacSystemFont, Roboto" y="112.4" dominant-baseline="middle" text-anchor="end" font-size="12" fill="#24292f">16500.0</text>
        
            
            
            <path stroke="#74838f" stroke-dasharray="10 6" stroke-width="0.5"  d="M 50.0 112.4 L 974.0 112.4" />
        
    
        
        
        <text x="45.0" font-family="-apple-system, system-ui, BlinkMacSystemFont, Roboto" y="143.6" dominant-baseline="middle" text-anchor="end" font-size="12" fill="#24292f">11000.0</text>
        
            
            
            <path stroke="#74838f" stroke-dasharray="10 6" stroke-width="0.5"  d="M 50.0 143.6 L 974.0 143.6" />
        
    
        
        
        <text x="45.0" font-family="-apple-system, system-ui, BlinkMacSystemFont, Roboto" y="174.8" dominant-baseline="middle" text-anchor="end" font-size="12" fill="#24292f">5500.0</text>
        
            
            
            <path stroke="#74838f" stroke-dasharray="10 6" stroke-width="0.5"  d="M 50.0 174.8 L 974.0 174.8" />
        
    
        
        
        <text x="45.0" font-family="-apple-system, system-ui, BlinkMacSystemFont, Roboto" y="206.0" dominant-baseline="middle" text-anchor="end" font-size="12" fill="#24292f">0.0</text>
        
    
    
        
        <path stroke="#74838f"  stroke-width="2.0"  d="M 81.58974358974359 206.0 L 81.58974358974359 214.0" />
        <text x="81.58974358974359" font-family="-apple-system, system-ui, BlinkMacSystemFont, Roboto" y="216.0" dominant-baseline="hanging" text-anchor="middle" font-size="12" fill="#24292f">Mar 2022</text>
    
        
        <path stroke="#74838f"  stroke-width="2.0"  d="M 142.7948717948718 206.0 L 142.7948717948718 214.0" />
        <text x="142.7948717948718" font-family="-apple-system, system-ui, BlinkMacSystemFont, Roboto" y="216.0" dominant-baseline="hanging" text-anchor="middle" font-size="12" fill="#24292f">Apr 2022</text>
    
        
        <path stroke="#74838f"  stroke-width="2.0"  d="M 202.02564102564102 206.0 L 202.02564102564102 214.0" />
        <text x="202.02564102564102" font-family="-apple-system, system-ui, BlinkMacSystemFont, Roboto" y="216.0" dominant-baseline="hanging" text-anchor="middle" font-size="12" fill="#24292f">May 2022</text>
    
        
        <path stroke="#74838f"  stroke-width="2.0"  d="M 263.2307692307693 206.0 L 263.2307692307693 214.0" />
        <text x="263.2307692307693" font-family="-apple-system, system-ui, BlinkMacSystemFont, Roboto" y="216.0" dominant-baseline="hanging" text-anchor="middle" font-size="12" fill="#24292f">Jun 2022</text>
    
        
        <path stroke="#74838f"  stroke-width="2.0"  d="M 322.46153846153845 206.0 L 322.46153846153845 214.0" />
        <text x="322.46153846153845" font-family="-apple-system, system-ui, BlinkMacSystemFont, Roboto" y="216.0" dominant-baseline="hanging" text-anchor="middle" font-size="12" fill="#24292f">Jul 2022</text>
    
        
        <path stroke="#74838f"  stroke-width="2.0"  d="M 383.6666666666667 206.0 L 383.6666666666667 214.0" />
        <text x="383.6666666666667" font-family="-apple-system, system-ui, BlinkMacSystemFont, Roboto" y="216.0" dominant-baseline="hanging" text-anchor="middle" font-size="12" fill="#24292f">Aug 2022</text>
    
        
        <path stroke="#74838f"  stroke-width="2.0"  d="M 444.87179487179486 206.0 L 444.87179487179486 214.0" />
        <text x="444.87179487179486" font-family="-apple-system, system-ui, BlinkMacSystemFont, Roboto" y="216.0" dominant-baseline="hanging" text-anchor="middle" font-size="12" fill="#24292f">Sep 2022</text>
    
        
        <path stroke="#74838f"  stroke-width="2.0"  d="M 504.1025641025641 206.0 L 504.1025641025641 214.0" />
        <text x="504.1025641025641" font-family="-apple-system, system-ui, BlinkMacSystemFont, Roboto" y="216.0" dominant-baseline="hanging" text-anchor="middle" font-size="12" fill="#24292f">Oct 2022</text>
    
        
        <path stroke="#74838f"  stroke-width="2.0"  d="M 565.3076923076924 206.0 L 565.3076923076924 214.0" />
        <text x="565.3076923076924" font-family="-apple-system, system-ui, BlinkMacSystemFont, Roboto" y="216.0" dominant-baseline="hanging" text-anchor="middle" font-size="12" fill="#24292f">Nov 2022</text>
    
        
        <path stroke="#74838f"  stroke-width="2.0"  d="M 624.5384615384615 206.0 L 624.5384615384615 214.0" />
        <text x="624.5384615384615" font-family="-apple-system, system-ui, BlinkMacSystemFont, Roboto" y="216.0" dominant-baseline="hanging" text-anchor="middle" font-size="12" fill="#24292f">Dec 2022</text>
    
        
        <path stroke="#74838f"  stroke-width="2.0"  d="M 685.7435897435897 206.0 L 685.7435897435897 214.0" />
        <text x="685.7435897435897" font-family="-apple-system, system-ui, BlinkMacSystemFont, Roboto" y="216.0" dominant-baseline="hanging" text-anchor="middle" font-size="12" fill="#24292f">Jan 2023</text>
    
        
        <path stroke="#74838f"  stroke-width="2.0"  d="M 746.9487179487179 206.0 L 746.9487179487179 214.0" />
        <text x="746.9487179487179" font-family="-apple-system, system-ui, BlinkMacSystemFont, Roboto" y="216.0" dominant-baseline="hanging" text-anchor="middle" font-size="12" fill="#24292f">Feb 2023</text>
    
        
        <path stroke="#74838f"  stroke-width="2.0"  d="M 802.2307692307692 206.0 L 802.2307692307692 214.0" />
        <text x="802.2307692307692" font-family="-apple-system, system-ui, BlinkMacSystemFont, Roboto" y="216.0" dominant-baseline="hanging" text-anchor="middle" font-size="12" fill="#24292f">Mar 2023</text>
    
        
        <path stroke="#74838f"  stroke-width="2.0"  d="M 863.4358974358975 206.0 L 863.4358974358975 214.0" />
        <text x="863.4358974358975" font-family="-apple-system, system-ui, BlinkMacSystemFont, Roboto" y="216.0" dominant-baseline="hanging" text-anchor="middle" font-size="12" fill="#24292f">Apr 2023</text>
    
        
        <path stroke="#74838f"  stroke-width="2.0"  d="M 922.6666666666666 206.0 L 922.6666666666666 214.0" />
        <text x="922.6666666666666" font-family="-apple-system, system-ui, BlinkMacSystemFont, Roboto" y="216.0" dominant-baseline="hanging" text-anchor="middle" font-size="12" fill="#24292f">May 2023</text>
    
    <path stroke="#74838f"   stroke-linejoin="round" stroke-width="2.0" d="M 50.0 216.0 L 50.0 206.0 L 974.0 206.0 L 974.0 216.0"  fill="none" />
    <text x="512.0" y="25.0" font-family="-apple-system, system-ui, BlinkMacSystemFont, Roboto" dominant-baseline="middle" text-anchor="middle" font-size="18" fill="#24292f">Total daily screen name changes</text>
</svg>
