<?xml version="1.0" standalone="no"?>
<svg width="1024.0" height="256.0"  viewBox="0 0 1024.0 256.0" preserveAspectRatio="xMidYMid meet" xmlns="http://www.w3.org/2000/svg">
    <path stroke="#3498db" stroke-linejoin="round" d="M 50.0 203.3394909090909 L 50 203.3394909090909L 52.6551724137931 202.32974545454545L 55.310344827586206 196.86690909090908L 57.96551724137931 195.94792727272727L 60.62068965517241 202.14254545454546L 63.275862068965516 197.35476363636363L 65.93103448275862 191.76145454545454L 68.58620689655172 179.96218181818182L 71.24137931034483 204.09396363636364L 73.89655172413794 194.17236363636363L 76.55172413793103 192.61803636363635L 79.20689655172414 195.1253818181818L 81.86206896551724 193.92843636363637L 84.51724137931035 182.2482909090909L 87.17241379310344 200.86618181818181L 89.82758620689656 201.45614545454546L 92.48275862068965 178.89003636363637L 95.13793103448276 197.33774545454546L 97.79310344827587 198.50065454545455L 100.44827586206897 200.41803636363636L 103.10344827586206 201.18385454545455L 105.75862068965517 202.26734545454545L 108.41379310344828 195.09134545454546L 111.06896551724138 198.08087272727272L 113.72413793103448 183.38850909090908L 116.37931034482759 197.47389090909093L 119.0344827586207 202.01774545454546L 121.6896551724138 194.66021818181818L 124.34482758620689 200.75272727272727L 127 200.00392727272728L 129.6551724137931 201.97236363636364L 132.31034482758622 204.2754909090909L 134.9655172413793 201.74545454545455L 137.6206896551724 201.01367272727273L 140.27586206896552 174.7829818181818L 142.9310344827586 195.76072727272728L 145.58620689655174 204.0032L 148.24137931034483 203.7309090909091L 150.89655172413794 197.87665454545453L 153.55172413793105 202.60770909090908L 156.20689655172413 202.6928L 158.86206896551724 197.55898181818182L 161.51724137931035 186.5141818181818L 164.17241379310343 199.26647272727274L 166.82758620689657 199.5728L 169.48275862068965 193.4802909090909L 172.13793103448276 199.10763636363635L 174.79310344827587 201.54690909090908L 177.44827586206895 201.5696L 180.10344827586206 195.06865454545454L 182.75862068965517 201.70007272727273L 185.41379310344826 197.2866909090909L 188.0689655172414 172.35505454545455L 190.72413793103448 203.20901818181818L 193.3793103448276 199.6749090909091L 196.0344827586207 193.12858181818183L 198.68965517241378 196.8896L 201.3448275862069 199.78836363636364L 204 198.82967272727274L 206.65517241379308 204.1336727272727L 209.31034482758622 202.57934545454546L 211.96551724137933 198.9261090909091L 214.6206896551724 206L 217.27586206896552 204.128L 219.9310344827586 192.1245090909091L 222.58620689655172 206L 225.24137931034483 206L 227.8965517241379 206L 230.55172413793105 206L 233.20689655172416 197.37178181818183L 235.86206896551724 199.57847272727273L 238.51724137931035 188.9024L 241.17241379310346 195.02894545454546L 243.82758620689654 191.20552727272727L 246.48275862068965 166.8128L 249.13793103448273 203.8386909090909L 251.79310344827587 198.09221818181817L 254.44827586206898 201.64334545454545L 257.1034482758621 202.2957090909091L 259.7586206896552 203.22036363636363L 262.41379310344826 200.66763636363635L 265.0689655172414 191.51185454545455L 267.7241379310345 189.18603636363636L 270.37931034482756 203.86705454545455L 273.0344827586207 197.56465454545454L 275.68965517241384 187.32538181818182L 278.34482758620686 201.2349090909091L 281 200.44639999999998L 283.65517241379314 201.4618181818182L 286.31034482758616 201.09876363636363L 288.9655172413793 201.17818181818183L 291.62068965517244 193.02647272727273L 294.2758620689655 198.8069818181818L 296.9310344827586 203.39054545454545L 299.58620689655174 200.30458181818182L 302.2413793103449 198.35883636363636L 304.8965517241379 193.3101090909091L 307.55172413793105 200.56552727272728L 310.2068965517241 203.03883636363636L 312.86206896551727 197.22996363636364L 315.51724137931035 201.95534545454547L 318.17241379310343 196.016L 320.8275862068965 202.30705454545455L 323.48275862068965 199.91316363636363L 326.1379310344828 194.62050909090908L 328.7931034482759 201.29163636363637L 331.44827586206895 202.98778181818182L 334.10344827586204 203.5437090909091L 336.7586206896552 200.60523636363638L 339.41379310344826 195.5621818181818L 342.0689655172414 203.24305454545456L 344.72413793103453 200.15709090909093L 347.37931034482756 198.46661818181818L 350.0344827586207 201.70007272727273L 352.6896551724138 200.70734545454545L 355.3448275862069 200.4293818181818L 358 201.76814545454545L 360.6551724137931 204.6442181818182L 363.31034482758616 206L 365.9655172413793 196.35636363636365L 368.62068965517244 199.21541818181817L 371.2758620689655 156.87418181818182L 373.93103448275866 165.1506909090909L 376.5862068965517 204.1733818181818L 379.2413793103448 202.17658181818183L 381.8965517241379 199.31185454545454L 384.55172413793105 198.7842909090909L 387.2068965517242 202.6757818181818L 389.8620689655172 202.8573090909091L 392.51724137931035 196.1861818181818L 395.17241379310343 199.64654545454545L 397.82758620689657 198.2056727272727L 400.48275862068965 201.2178909090909L 403.1379310344828 201.79083636363637L 405.7931034482758 201.90429090909092L 408.44827586206895 200.1968L 411.1034482758621 195.17076363636363L 413.7586206896552 206L 416.4137931034483 206L 419.06896551724134 206L 421.7241379310345 191.4834909090909L 424.37931034482756 197.79723636363636L 427.0344827586207 198.85236363636363L 429.68965517241384 199.76L 432.3448275862069 200.03796363636363L 435 200.76407272727272L 437.6551724137931 201.80785454545455L 440.3103448275862 191.63098181818182L 442.9655172413793 194.41061818181817L 445.62068965517244 199.88479999999998L 448.27586206896547 152.63098181818182L 450.9310344827586 197.04843636363637L 453.58620689655174 194.4730181818182L 456.2413793103448 155.90414545454547L 458.89655172413796 91.60945454545454L 461.55172413793105 104.5376L 464.2068965517241 151.17876363636364L 466.8620689655172 185.1981090909091L 469.51724137931035 142.76610909090908L 472.1724137931035 125.0672L 474.82758620689657 123.74545454545455L 477.48275862068965 157.99738181818182L 480.13793103448273 53.56814545454546L 482.7931034482759 50.78850909090909L 485.44827586206895 100.02210909090908L 488.1034482758621 156.2445090909091L 490.7586206896552 180.31956363636363L 493.41379310344826 192.43650909090908L 496.0689655172414 193.63912727272728L 498.7241379310345 193.3328L 501.3793103448276 192.11316363636365L 504.0344827586207 197.93338181818183L 506.6896551724138 191.5629090909091L 509.34482758620686 198.7672727272727L 512 199.3005090909091L 514.6551724137931 201.64901818181818L 517.3103448275863 200.58821818181818L 519.9655172413793 202.43752727272727L 522.6206896551723 200.73003636363637L 525.2758620689656 189.7703272727273L 527.9310344827586 203.17498181818183L 530.5862068965516 200.48610909090908L 533.2413793103449 185.1810909090909L 535.8965517241379 187.88698181818182L 538.551724137931 191.01832727272728L 541.2068965517242 192.31738181818181L 543.8620689655172 177.09745454545455L 546.5172413793103 167.91330909090908L 549.1724137931035 179.30981818181817L 551.8275862068965 186.49716363636364L 554.4827586206898 150.34487272727273L 557.1379310344828 184.27345454545454L 559.7931034482758 199.5104L 562.448275862069 161.24785454545454L 565.1034482758621 155.49003636363636L 567.7586206896551 176.96130909090908L 570.4137931034483 190.30923636363636L 573.0689655172414 193.50865454545453L 575.7241379310345 201.72843636363638L 578.3793103448277 185.22647272727272L 581.0344827586207 192.03374545454545L 583.6896551724138 192.66909090909093L 586.3448275862069 180.18341818181818L 589 194.5013818181818L 591.655172413793 194.6829090909091L 594.3103448275862 201.85323636363637L 596.9655172413793 196.2032L 599.6206896551724 204.49105454545455L 602.2758620689656 191.55723636363638L 604.9310344827586 180.36494545454545L 607.5862068965517 193.02647272727273L 610.2413793103449 186.20785454545455L 612.8965517241379 191.72741818181817L 615.5517241379309 191.4834909090909L 618.2068965517241 196.63432727272726L 620.8620689655172 200.7810909090909L 623.5172413793103 176.26923636363637L 626.1724137931035 165.78036363636363L 628.8275862068965 181.82850909090908L 631.4827586206897 160.6976L 634.1379310344828 163.93105454545454L 636.7931034482759 182.10647272727272L 639.4482758620691 130.808L 642.1034482758621 190.49643636363635L 644.7586206896551 202.0914909090909L 647.4137931034483 184.09192727272728L 650.0689655172414 197.50225454545455L 652.7241379310344 187.54094545454547L 655.3793103448276 192.95272727272726L 658.0344827586207 201.88727272727272L 660.6896551724138 184.33585454545454L 663.344827586207 183.04814545454545L 666 182.36741818181818L 668.6551724137931 182.54327272727272L 671.3103448275862 186.38938181818182L 673.9655172413793 174.3858909090909L 676.6206896551723 183.1786181818182L 679.2758620689655 183.5133090909091L 681.9310344827586 184.60247272727273L 684.5862068965517 186.968L 687.2413793103449 170.00087272727274L 689.8965517241379 167.8338909090909L 692.551724137931 203.32247272727273L 695.2068965517242 206L 697.8620689655173 128.43112727272728L 700.5172413793103 183.2637090909091L 703.1724137931034 156.8685090909091L 705.8275862068965 183.15592727272727L 708.4827586206897 183.2013090909091L 711.1379310344828 182.25963636363636L 713.7931034482758 170.18807272727273L 716.448275862069 186.86589090909092L 719.1034482758621 183.77425454545454L 721.7586206896552 186.29861818181817L 724.4137931034484 184.17134545454545L 727.0689655172414 184.9655272727273L 729.7241379310344 178.1696L 732.3793103448276 180.70530909090908L 735.0344827586207 170.80072727272727L 737.6896551724137 177.99374545454546L 740.3448275862069 175.99127272727273L 743 173.75621818181818L 745.6551724137931 175.45803636363638L 748.3103448275863 196.91796363636365L 750.9655172413793 150.30516363636363L 753.6206896551724 167.34036363636363L 756.2758620689656 174.52203636363637L 758.9310344827586 132.05599999999998L 761.5862068965516 144.8309818181818L 764.2413793103448 173.60872727272726L 766.8965517241379 151.91054545454546L 769.551724137931 194.03621818181819L 772.2068965517242 160.59549090909093L 774.8620689655172 206L 777.5172413793103 153.43650909090908L 780.1724137931035 181.01163636363637L 782.8275862068966 181.6413090909091L 785.4827586206897 182.49221818181817L 788.1379310344827 183.08785454545455L 790.7931034482758 206L 793.448275862069 151.86516363636363L 796.1034482758621 172.45716363636365L 798.7586206896551 169.20669090909092L 801.4137931034483 178.22065454545455L 804.0689655172414 175.54312727272728L 806.7241379310345 177.61367272727273L 809.3793103448277 181.0173090909091L 812.0344827586207 176.80814545454547L 814.6896551724138 167.8962909090909L 817.3448275862069 167.1248L 820 176.62094545454545L 822.655172413793 158.63272727272727L 825.3103448275862 151.3602909090909L 827.9655172413793 173.35345454545455L 830.6206896551724 206L 833.2758620689656 206L 835.9310344827586 206L 838.5862068965517 206L 841.2413793103449 206L 843.8965517241379 206L 846.5517241379309 206L 849.2068965517241 206L 851.8620689655172 206L 854.5172413793103 206L 857.1724137931035 206L 859.8275862068965 206L 862.4827586206897 206L 865.1379310344828 206L 867.7931034482759 206L 870.4482758620691 206L 873.1034482758621 206L 875.7586206896551 206L 878.4137931034483 206L 881.0689655172414 206L 883.7241379310344 206L 886.3793103448276 206L 889.0344827586207 206L 891.6896551724138 206L 894.344827586207 206L 897 206L 899.6551724137931 206L 902.3103448275862 206L 904.9655172413793 206L 907.6206896551723 206L 910.2758620689655 206L 912.9310344827586 206L 915.5862068965517 206L 918.2413793103449 206L 920.8965517241379 206L 923.551724137931 206L 926.2068965517242 206L 928.8620689655173 206L 931.5172413793103 206L 934.1724137931034 206L 936.8275862068965 206L 939.4827586206897 206L 942.1379310344828 206L 944.7931034482758 206L 947.448275862069 206L 950.1034482758621 206L 952.7586206896552 206L 955.4137931034484 206L 958.0689655172414 206L 960.7241379310344 206L 963.3793103448276 206L 966.0344827586207 206L 968.6896551724137 206L 971.3448275862069 206L 974 206" stroke-width="2.0" fill="none" />
    
        
        
        <text x="45.0" font-family="-apple-system, system-ui, BlinkMacSystemFont, Roboto" y="50.0" dominant-baseline="middle" text-anchor="end" font-size="12" fill="#24292f">27500.0</text>
        
            
            <path stroke="#74838f" stroke-dasharray="10 6" stroke-width="0.5"  d="M 50.0 50.0 L 974.0 50.0" />
        
    
        
        
        <text x="45.0" font-family="-apple-system, system-ui, BlinkMacSystemFont, Roboto" y="81.2" dominant-baseline="middle" text-anchor="end" font-size="12" fill="#24292f">22000.0</text>
        
            
            
            <path stroke="#74838f" stroke-dasharray="10 6" stroke-width="0.5"  d="M 50.0 81.2 L 974.0 81.2" />
        
    
        
        
        <text x="45.0" font-family="-apple-system, system-ui, BlinkMacSystemFont, Roboto" y="112.4" dominant-baseline="middle" text-anchor="end" font-size="12" fill="#24292f">16500.0</text>
        
            
            
            <path stroke="#74838f" stroke-dasharray="10 6" stroke-width="0.5"  d="M 50.0 112.4 L 974.0 112.4" />
        
    
        
        
        <text x="45.0" font-family="-apple-system, system-ui, BlinkMacSystemFont, Roboto" y="143.6" dominant-baseline="middle" text-anchor="end" font-size="12" fill="#24292f">11000.0</text>
        
            
            
            <path stroke="#74838f" stroke-dasharray="10 6" stroke-width="0.5"  d="M 50.0 143.6 L 974.0 143.6" />
        
    
        
        
        <text x="45.0" font-family="-apple-system, system-ui, BlinkMacSystemFont, Roboto" y="174.8" dominant-baseline="middle" text-anchor="end" font-size="12" fill="#24292f">5500.0</text>
        
            
            
            <path stroke="#74838f" stroke-dasharray="10 6" stroke-width="0.5"  d="M 50.0 174.8 L 974.0 174.8" />
        
    
        
        
        <text x="45.0" font-family="-apple-system, system-ui, BlinkMacSystemFont, Roboto" y="206.0" dominant-baseline="middle" text-anchor="end" font-size="12" fill="#24292f">0.0</text>
        
    
    
        
        <path stroke="#74838f"  stroke-width="2.0"  d="M 92.48275862068965 206.0 L 92.48275862068965 214.0" />
        <text x="92.48275862068965" font-family="-apple-system, system-ui, BlinkMacSystemFont, Roboto" y="216.0" dominant-baseline="hanging" text-anchor="middle" font-size="12" fill="#24292f">Mar 2022</text>
    
        
        <path stroke="#74838f"  stroke-width="2.0"  d="M 174.79310344827587 206.0 L 174.79310344827587 214.0" />
        <text x="174.79310344827587" font-family="-apple-system, system-ui, BlinkMacSystemFont, Roboto" y="216.0" dominant-baseline="hanging" text-anchor="middle" font-size="12" fill="#24292f">Apr 2022</text>
    
        
        <path stroke="#74838f"  stroke-width="2.0"  d="M 254.44827586206898 206.0 L 254.44827586206898 214.0" />
        <text x="254.44827586206898" font-family="-apple-system, system-ui, BlinkMacSystemFont, Roboto" y="216.0" dominant-baseline="hanging" text-anchor="middle" font-size="12" fill="#24292f">May 2022</text>
    
        
        <path stroke="#74838f"  stroke-width="2.0"  d="M 336.7586206896552 206.0 L 336.7586206896552 214.0" />
        <text x="336.7586206896552" font-family="-apple-system, system-ui, BlinkMacSystemFont, Roboto" y="216.0" dominant-baseline="hanging" text-anchor="middle" font-size="12" fill="#24292f">Jun 2022</text>
    
        
        <path stroke="#74838f"  stroke-width="2.0"  d="M 416.4137931034483 206.0 L 416.4137931034483 214.0" />
        <text x="416.4137931034483" font-family="-apple-system, system-ui, BlinkMacSystemFont, Roboto" y="216.0" dominant-baseline="hanging" text-anchor="middle" font-size="12" fill="#24292f">Jul 2022</text>
    
        
        <path stroke="#74838f"  stroke-width="2.0"  d="M 498.7241379310345 206.0 L 498.7241379310345 214.0" />
        <text x="498.7241379310345" font-family="-apple-system, system-ui, BlinkMacSystemFont, Roboto" y="216.0" dominant-baseline="hanging" text-anchor="middle" font-size="12" fill="#24292f">Aug 2022</text>
    
        
        <path stroke="#74838f"  stroke-width="2.0"  d="M 581.0344827586207 206.0 L 581.0344827586207 214.0" />
        <text x="581.0344827586207" font-family="-apple-system, system-ui, BlinkMacSystemFont, Roboto" y="216.0" dominant-baseline="hanging" text-anchor="middle" font-size="12" fill="#24292f">Sep 2022</text>
    
        
        <path stroke="#74838f"  stroke-width="2.0"  d="M 660.6896551724138 206.0 L 660.6896551724138 214.0" />
        <text x="660.6896551724138" font-family="-apple-system, system-ui, BlinkMacSystemFont, Roboto" y="216.0" dominant-baseline="hanging" text-anchor="middle" font-size="12" fill="#24292f">Oct 2022</text>
    
        
        <path stroke="#74838f"  stroke-width="2.0"  d="M 743.0 206.0 L 743.0 214.0" />
        <text x="743.0" font-family="-apple-system, system-ui, BlinkMacSystemFont, Roboto" y="216.0" dominant-baseline="hanging" text-anchor="middle" font-size="12" fill="#24292f">Nov 2022</text>
    
        
        <path stroke="#74838f"  stroke-width="2.0"  d="M 822.655172413793 206.0 L 822.655172413793 214.0" />
        <text x="822.655172413793" font-family="-apple-system, system-ui, BlinkMacSystemFont, Roboto" y="216.0" dominant-baseline="hanging" text-anchor="middle" font-size="12" fill="#24292f">Dec 2022</text>
    
        
        <path stroke="#74838f"  stroke-width="2.0"  d="M 904.9655172413793 206.0 L 904.9655172413793 214.0" />
        <text x="904.9655172413793" font-family="-apple-system, system-ui, BlinkMacSystemFont, Roboto" y="216.0" dominant-baseline="hanging" text-anchor="middle" font-size="12" fill="#24292f">Jan 2023</text>
    
    <path stroke="#74838f"   stroke-linejoin="round" stroke-width="2.0" d="M 50.0 216.0 L 50.0 206.0 L 974.0 206.0 L 974.0 216.0"  fill="none" />
    <text x="512.0" y="25.0" font-family="-apple-system, system-ui, BlinkMacSystemFont, Roboto" dominant-baseline="middle" text-anchor="middle" font-size="18" fill="#24292f">Total daily screen name changes</text>
</svg>
