<?xml version="1.0" standalone="no"?>
<svg width="1024.0" height="256.0"  viewBox="0 0 1024.0 256.0" preserveAspectRatio="xMidYMid meet" xmlns="http://www.w3.org/2000/svg">
    <path stroke="#3498db" stroke-linejoin="round" d="M 50.0 203.3394909090909 L 50 203.3394909090909L 52.22115384615385 202.32974545454545L 54.44230769230769 196.86690909090908L 56.66346153846154 195.94792727272727L 58.88461538461539 202.14254545454546L 61.10576923076923 197.35476363636363L 63.32692307692308 191.76145454545454L 65.54807692307692 179.96218181818182L 67.76923076923077 204.09396363636364L 69.99038461538461 194.17236363636363L 72.21153846153847 192.61803636363635L 74.4326923076923 195.1253818181818L 76.65384615384616 193.92843636363637L 78.875 182.2482909090909L 81.09615384615384 200.86618181818181L 83.31730769230768 201.45614545454546L 85.53846153846155 178.89003636363637L 87.75961538461539 197.33774545454546L 89.98076923076923 198.50065454545455L 92.20192307692307 200.41803636363636L 94.42307692307693 201.18385454545455L 96.64423076923077 202.26734545454545L 98.86538461538461 195.09134545454546L 101.08653846153845 198.08087272727272L 103.30769230769232 183.38850909090908L 105.52884615384616 197.47389090909093L 107.75 202.01774545454546L 109.97115384615385 194.66021818181818L 112.19230769230768 200.75272727272727L 114.41346153846155 200.00392727272728L 116.63461538461537 201.97236363636364L 118.85576923076923 204.2754909090909L 121.07692307692308 201.74545454545455L 123.29807692307692 201.01367272727273L 125.51923076923077 174.7829818181818L 127.74038461538463 195.76072727272728L 129.96153846153845 204.0032L 132.18269230769232 203.7309090909091L 134.40384615384613 197.87665454545453L 136.625 202.60770909090908L 138.84615384615387 202.6928L 141.06730769230768 197.55898181818182L 143.28846153846155 186.5141818181818L 145.50961538461536 199.26647272727274L 147.73076923076923 199.5728L 149.9519230769231 193.4802909090909L 152.1730769230769 199.10763636363635L 154.39423076923077 201.54690909090908L 156.61538461538464 201.5696L 158.83653846153845 195.06865454545454L 161.05769230769232 201.70007272727273L 163.27884615384613 197.2866909090909L 165.5 172.35505454545455L 167.72115384615384 203.20901818181818L 169.9423076923077 199.6749090909091L 172.16346153846155 193.12858181818183L 174.38461538461536 196.8896L 176.60576923076923 199.78836363636364L 178.8269230769231 198.82967272727274L 181.0480769230769 204.1336727272727L 183.26923076923075 202.57934545454546L 185.4903846153846 198.9261090909091L 187.71153846153845 206L 189.9326923076923 204.128L 192.15384615384616 192.1245090909091L 194.375 206L 196.59615384615384 206L 198.8173076923077 206L 201.03846153846155 206L 203.2596153846154 197.37178181818183L 205.48076923076925 199.57847272727273L 207.7019230769231 188.9024L 209.9230769230769 195.02894545454546L 212.14423076923075 191.20552727272727L 214.3653846153846 166.8128L 216.58653846153845 203.8386909090909L 218.8076923076923 198.09221818181817L 221.02884615384616 201.64334545454545L 223.25 202.2957090909091L 225.47115384615384 203.22036363636363L 227.6923076923077 200.66763636363635L 229.91346153846155 191.51185454545455L 232.1346153846154 189.18603636363636L 234.35576923076925 203.86705454545455L 236.5769230769231 197.56465454545454L 238.7980769230769 187.32538181818182L 241.01923076923075 201.2349090909091L 243.2403846153846 200.44639999999998L 245.46153846153845 201.4618181818182L 247.6826923076923 201.09876363636363L 249.90384615384616 201.17818181818183L 252.125 193.02647272727273L 254.34615384615384 198.8069818181818L 256.56730769230774 203.39054545454545L 258.78846153846155 200.30458181818182L 261.00961538461536 198.35883636363636L 263.2307692307693 193.3101090909091L 265.4519230769231 200.56552727272728L 267.6730769230769 203.03883636363636L 269.8942307692307 197.22996363636364L 272.11538461538464 201.95534545454547L 274.33653846153845 196.016L 276.55769230769226 202.30705454545455L 278.7788461538462 199.91316363636363L 281 194.62050909090908L 283.2211538461538 201.29163636363637L 285.4423076923077 202.98778181818182L 287.66346153846155 203.5437090909091L 289.8846153846154 200.60523636363638L 292.1057692307693 195.5621818181818L 294.3269230769231 203.24305454545456L 296.5480769230769 200.15709090909093L 298.7692307692307 198.46661818181818L 300.9903846153846 201.70007272727273L 303.21153846153845 200.70734545454545L 305.4326923076923 200.4293818181818L 307.6538461538462 201.76814545454545L 309.875 204.6442181818182L 312.0961538461538 206L 314.3173076923077 196.35636363636365L 316.5384615384615 199.21541818181817L 318.7596153846154 156.87418181818182L 320.9807692307692 165.1506909090909L 323.2019230769231 204.1733818181818L 325.4230769230769 202.17658181818183L 327.6442307692308 199.31185454545454L 329.8653846153846 198.7842909090909L 332.0865384615385 202.6757818181818L 334.3076923076923 202.8573090909091L 336.5288461538462 196.1861818181818L 338.75 199.64654545454545L 340.9711538461538 198.2056727272727L 343.1923076923077 201.2178909090909L 345.4134615384615 201.79083636363637L 347.6346153846154 201.90429090909092L 349.8557692307692 200.1968L 352.0769230769231 195.17076363636363L 354.2980769230769 206L 356.5192307692308 206L 358.7403846153846 206L 360.9615384615385 191.4834909090909L 363.1826923076923 197.79723636363636L 365.4038461538462 198.85236363636363L 367.625 199.76L 369.8461538461538 200.03796363636363L 372.0673076923077 200.76407272727272L 374.2884615384615 201.80785454545455L 376.5096153846154 191.63098181818182L 378.7307692307692 194.41061818181817L 380.9519230769231 199.88479999999998L 383.1730769230769 152.63098181818182L 385.3942307692308 197.04843636363637L 387.6153846153846 194.4730181818182L 389.8365384615385 155.90414545454547L 392.0576923076923 91.60945454545454L 394.2788461538462 104.5376L 396.5 151.17876363636364L 398.7211538461538 185.1981090909091L 400.9423076923077 142.76610909090908L 403.1634615384615 125.0672L 405.3846153846154 123.74545454545455L 407.6057692307692 157.99738181818182L 409.8269230769231 53.56814545454546L 412.0480769230769 50.78850909090909L 414.2692307692308 100.02210909090908L 416.4903846153846 156.2445090909091L 418.7115384615385 180.31956363636363L 420.9326923076923 192.43650909090908L 423.1538461538462 193.63912727272728L 425.375 193.3328L 427.5961538461538 192.11316363636365L 429.8173076923077 197.93338181818183L 432.0384615384615 191.5629090909091L 434.2596153846154 198.7672727272727L 436.4807692307692 199.3005090909091L 438.7019230769231 201.64901818181818L 440.9230769230769 200.58821818181818L 443.1442307692308 202.43752727272727L 445.3653846153846 200.73003636363637L 447.5865384615385 189.7703272727273L 449.8076923076923 203.17498181818183L 452.0288461538462 200.48610909090908L 454.25 185.1810909090909L 456.4711538461538 187.88698181818182L 458.6923076923077 191.01832727272728L 460.9134615384615 192.31738181818181L 463.1346153846154 177.09745454545455L 465.3557692307692 167.91330909090908L 467.5769230769231 179.30981818181817L 469.7980769230769 186.49716363636364L 472.0192307692308 150.34487272727273L 474.2403846153846 184.27345454545454L 476.4615384615385 199.5104L 478.6826923076923 161.24785454545454L 480.9038461538462 155.49003636363636L 483.125 176.96130909090908L 485.3461538461538 190.30923636363636L 487.5673076923077 193.50865454545453L 489.7884615384615 201.72843636363638L 492.0096153846154 185.22647272727272L 494.2307692307692 192.03374545454545L 496.4519230769231 192.66909090909093L 498.6730769230769 180.18341818181818L 500.8942307692308 194.5013818181818L 503.1153846153846 194.6829090909091L 505.3365384615385 201.85323636363637L 507.5576923076923 196.2032L 509.7788461538462 204.49105454545455L 512 191.55723636363638L 514.2211538461538 180.36494545454545L 516.4423076923076 193.02647272727273L 518.6634615384614 186.20785454545455L 520.8846153846154 191.72741818181817L 523.1057692307692 191.4834909090909L 525.3269230769231 196.63432727272726L 527.5480769230769 200.7810909090909L 529.7692307692308 176.26923636363637L 531.9903846153846 165.78036363636363L 534.2115384615386 181.82850909090908L 536.4326923076924 160.6976L 538.6538461538462 163.93105454545454L 540.875 182.10647272727272L 543.0961538461538 130.808L 545.3173076923076 190.49643636363635L 547.5384615384614 202.0914909090909L 549.7596153846154 184.09192727272728L 551.9807692307692 197.50225454545455L 554.2019230769231 187.54094545454547L 556.4230769230769 192.95272727272726L 558.6442307692308 201.88727272727272L 560.8653846153846 184.33585454545454L 563.0865384615385 183.04814545454545L 565.3076923076924 182.36741818181818L 567.5288461538462 182.54327272727272L 569.75 186.38938181818182L 571.9711538461538 174.3858909090909L 574.1923076923076 183.1786181818182L 576.4134615384615 183.5133090909091L 578.6346153846154 184.60247272727273L 580.8557692307692 186.968L 583.076923076923 170.00087272727274L 585.298076923077 167.8338909090909L 587.5192307692308 203.32247272727273L 589.7403846153846 206L 591.9615384615385 128.43112727272728L 594.1826923076924 183.2637090909091L 596.4038461538462 156.8685090909091L 598.625 183.15592727272727L 600.8461538461538 183.2013090909091L 603.0673076923076 182.25963636363636L 605.2884615384615 170.18807272727273L 607.5096153846154 186.86589090909092L 609.7307692307692 183.77425454545454L 611.951923076923 186.29861818181817L 614.173076923077 184.17134545454545L 616.3942307692308 184.9655272727273L 618.6153846153846 178.1696L 620.8365384615385 180.70530909090908L 623.0576923076924 170.80072727272727L 625.2788461538462 177.99374545454546L 627.5 175.99127272727273L 629.7211538461538 173.75621818181818L 631.9423076923076 175.45803636363638L 634.1634615384615 196.91796363636365L 636.3846153846154 150.30516363636363L 638.6057692307692 167.34036363636363L 640.826923076923 174.52203636363637L 643.048076923077 132.05599999999998L 645.2692307692308 144.8309818181818L 647.4903846153846 173.60872727272726L 649.7115384615385 151.91054545454546L 651.9326923076924 194.03621818181819L 654.1538461538462 160.59549090909093L 656.375 206L 658.5961538461538 153.43650909090908L 660.8173076923076 181.01163636363637L 663.0384615384615 181.6413090909091L 665.2596153846154 182.49221818181817L 667.4807692307692 183.08785454545455L 669.701923076923 206L 671.923076923077 151.86516363636363L 674.1442307692308 172.45716363636365L 676.3653846153846 169.20669090909092L 678.5865384615385 178.22065454545455L 680.8076923076924 175.54312727272728L 683.0288461538462 177.61367272727273L 685.25 181.0173090909091L 687.4711538461538 176.80814545454547L 689.6923076923076 167.8962909090909L 691.9134615384615 167.1248L 694.1346153846154 176.62094545454545L 696.3557692307692 158.63272727272727L 698.576923076923 151.3602909090909L 700.798076923077 173.35345454545455L 703.0192307692308 206L 705.2403846153846 206L 707.4615384615385 206L 709.6826923076924 206L 711.9038461538462 206L 714.125 206L 716.3461538461538 206L 718.5673076923076 206L 720.7884615384615 206L 723.0096153846154 206L 725.2307692307692 206L 727.451923076923 206L 729.673076923077 206L 731.8942307692308 206L 734.1153846153846 206L 736.3365384615385 206L 738.5576923076924 206L 740.7788461538462 206L 743 206L 745.2211538461538 206L 747.4423076923076 206L 749.6634615384615 206L 751.8846153846154 206L 754.1057692307692 206L 756.326923076923 206L 758.548076923077 206L 760.7692307692308 206L 762.9903846153846 206L 765.2115384615385 206L 767.4326923076924 206L 769.6538461538462 206L 771.875 206L 774.0961538461538 206L 776.3173076923076 206L 778.5384615384615 206L 780.7596153846154 206L 782.9807692307692 206L 785.201923076923 206L 787.423076923077 206L 789.6442307692308 206L 791.8653846153846 206L 794.0865384615385 206L 796.3076923076924 206L 798.5288461538462 206L 800.75 206L 802.9711538461538 206L 805.1923076923076 206L 807.4134615384615 206L 809.6346153846154 206L 811.8557692307692 206L 814.076923076923 206L 816.298076923077 206L 818.5192307692308 206L 820.7403846153846 206L 822.9615384615385 206L 825.1826923076924 206L 827.4038461538462 206L 829.625 206L 831.8461538461538 206L 834.0673076923076 206L 836.2884615384615 206L 838.5096153846154 206L 840.7307692307692 206L 842.951923076923 206L 845.173076923077 206L 847.3942307692308 206L 849.6153846153846 206L 851.8365384615385 206L 854.0576923076924 206L 856.2788461538462 206L 858.5 206L 860.7211538461538 206L 862.9423076923076 206L 865.1634615384615 206L 867.3846153846154 206L 869.6057692307692 206L 871.826923076923 206L 874.048076923077 206L 876.2692307692308 206L 878.4903846153846 206L 880.7115384615385 206L 882.9326923076924 206L 885.1538461538462 206L 887.375 206L 889.5961538461538 206L 891.8173076923076 206L 894.0384615384615 206L 896.2596153846154 206L 898.4807692307692 206L 900.701923076923 206L 902.923076923077 206L 905.1442307692308 206L 907.3653846153846 206L 909.5865384615385 206L 911.8076923076924 206L 914.0288461538462 206L 916.25 206L 918.4711538461538 206L 920.6923076923076 206L 922.9134615384615 206L 925.1346153846154 206L 927.3557692307692 206L 929.576923076923 206L 931.798076923077 206L 934.0192307692308 206L 936.2403846153846 206L 938.4615384615385 206L 940.6826923076924 206L 942.9038461538462 206L 945.125 206L 947.3461538461538 206L 949.5673076923076 206L 951.7884615384615 206L 954.0096153846154 206L 956.2307692307692 206L 958.451923076923 206L 960.673076923077 206L 962.8942307692308 206L 965.1153846153846 206L 967.3365384615385 206L 969.5576923076924 206L 971.7788461538462 206L 974 206" stroke-width="2.0" fill="none" />
    
        
        
        <text x="45.0" font-family="-apple-system, system-ui, BlinkMacSystemFont, Roboto" y="50.0" dominant-baseline="middle" text-anchor="end" font-size="12" fill="#24292f">27500.0</text>
        
            
            <path stroke="#74838f" stroke-dasharray="10 6" stroke-width="0.5"  d="M 50.0 50.0 L 974.0 50.0" />
        
    
        
        
        <text x="45.0" font-family="-apple-system, system-ui, BlinkMacSystemFont, Roboto" y="81.2" dominant-baseline="middle" text-anchor="end" font-size="12" fill="#24292f">22000.0</text>
        
            
            
            <path stroke="#74838f" stroke-dasharray="10 6" stroke-width="0.5"  d="M 50.0 81.2 L 974.0 81.2" />
        
    
        
        
        <text x="45.0" font-family="-apple-system, system-ui, BlinkMacSystemFont, Roboto" y="112.4" dominant-baseline="middle" text-anchor="end" font-size="12" fill="#24292f">16500.0</text>
        
            
            
            <path stroke="#74838f" stroke-dasharray="10 6" stroke-width="0.5"  d="M 50.0 112.4 L 974.0 112.4" />
        
    
        
        
        <text x="45.0" font-family="-apple-system, system-ui, BlinkMacSystemFont, Roboto" y="143.6" dominant-baseline="middle" text-anchor="end" font-size="12" fill="#24292f">11000.0</text>
        
            
            
            <path stroke="#74838f" stroke-dasharray="10 6" stroke-width="0.5"  d="M 50.0 143.6 L 974.0 143.6" />
        
    
        
        
        <text x="45.0" font-family="-apple-system, system-ui, BlinkMacSystemFont, Roboto" y="174.8" dominant-baseline="middle" text-anchor="end" font-size="12" fill="#24292f">5500.0</text>
        
            
            
            <path stroke="#74838f" stroke-dasharray="10 6" stroke-width="0.5"  d="M 50.0 174.8 L 974.0 174.8" />
        
    
        
        
        <text x="45.0" font-family="-apple-system, system-ui, BlinkMacSystemFont, Roboto" y="206.0" dominant-baseline="middle" text-anchor="end" font-size="12" fill="#24292f">0.0</text>
        
    
    
        
        <path stroke="#74838f"  stroke-width="2.0"  d="M 85.53846153846155 206.0 L 85.53846153846155 214.0" />
        <text x="85.53846153846155" font-family="-apple-system, system-ui, BlinkMacSystemFont, Roboto" y="216.0" dominant-baseline="hanging" text-anchor="middle" font-size="12" fill="#24292f">Mar 2022</text>
    
        
        <path stroke="#74838f"  stroke-width="2.0"  d="M 154.39423076923077 206.0 L 154.39423076923077 214.0" />
        <text x="154.39423076923077" font-family="-apple-system, system-ui, BlinkMacSystemFont, Roboto" y="216.0" dominant-baseline="hanging" text-anchor="middle" font-size="12" fill="#24292f">Apr 2022</text>
    
        
        <path stroke="#74838f"  stroke-width="2.0"  d="M 221.02884615384616 206.0 L 221.02884615384616 214.0" />
        <text x="221.02884615384616" font-family="-apple-system, system-ui, BlinkMacSystemFont, Roboto" y="216.0" dominant-baseline="hanging" text-anchor="middle" font-size="12" fill="#24292f">May 2022</text>
    
        
        <path stroke="#74838f"  stroke-width="2.0"  d="M 289.8846153846154 206.0 L 289.8846153846154 214.0" />
        <text x="289.8846153846154" font-family="-apple-system, system-ui, BlinkMacSystemFont, Roboto" y="216.0" dominant-baseline="hanging" text-anchor="middle" font-size="12" fill="#24292f">Jun 2022</text>
    
        
        <path stroke="#74838f"  stroke-width="2.0"  d="M 356.5192307692308 206.0 L 356.5192307692308 214.0" />
        <text x="356.5192307692308" font-family="-apple-system, system-ui, BlinkMacSystemFont, Roboto" y="216.0" dominant-baseline="hanging" text-anchor="middle" font-size="12" fill="#24292f">Jul 2022</text>
    
        
        <path stroke="#74838f"  stroke-width="2.0"  d="M 425.375 206.0 L 425.375 214.0" />
        <text x="425.375" font-family="-apple-system, system-ui, BlinkMacSystemFont, Roboto" y="216.0" dominant-baseline="hanging" text-anchor="middle" font-size="12" fill="#24292f">Aug 2022</text>
    
        
        <path stroke="#74838f"  stroke-width="2.0"  d="M 494.2307692307692 206.0 L 494.2307692307692 214.0" />
        <text x="494.2307692307692" font-family="-apple-system, system-ui, BlinkMacSystemFont, Roboto" y="216.0" dominant-baseline="hanging" text-anchor="middle" font-size="12" fill="#24292f">Sep 2022</text>
    
        
        <path stroke="#74838f"  stroke-width="2.0"  d="M 560.8653846153846 206.0 L 560.8653846153846 214.0" />
        <text x="560.8653846153846" font-family="-apple-system, system-ui, BlinkMacSystemFont, Roboto" y="216.0" dominant-baseline="hanging" text-anchor="middle" font-size="12" fill="#24292f">Oct 2022</text>
    
        
        <path stroke="#74838f"  stroke-width="2.0"  d="M 629.7211538461538 206.0 L 629.7211538461538 214.0" />
        <text x="629.7211538461538" font-family="-apple-system, system-ui, BlinkMacSystemFont, Roboto" y="216.0" dominant-baseline="hanging" text-anchor="middle" font-size="12" fill="#24292f">Nov 2022</text>
    
        
        <path stroke="#74838f"  stroke-width="2.0"  d="M 696.3557692307692 206.0 L 696.3557692307692 214.0" />
        <text x="696.3557692307692" font-family="-apple-system, system-ui, BlinkMacSystemFont, Roboto" y="216.0" dominant-baseline="hanging" text-anchor="middle" font-size="12" fill="#24292f">Dec 2022</text>
    
        
        <path stroke="#74838f"  stroke-width="2.0"  d="M 765.2115384615385 206.0 L 765.2115384615385 214.0" />
        <text x="765.2115384615385" font-family="-apple-system, system-ui, BlinkMacSystemFont, Roboto" y="216.0" dominant-baseline="hanging" text-anchor="middle" font-size="12" fill="#24292f">Jan 2023</text>
    
        
        <path stroke="#74838f"  stroke-width="2.0"  d="M 834.0673076923076 206.0 L 834.0673076923076 214.0" />
        <text x="834.0673076923076" font-family="-apple-system, system-ui, BlinkMacSystemFont, Roboto" y="216.0" dominant-baseline="hanging" text-anchor="middle" font-size="12" fill="#24292f">Feb 2023</text>
    
        
        <path stroke="#74838f"  stroke-width="2.0"  d="M 896.2596153846154 206.0 L 896.2596153846154 214.0" />
        <text x="896.2596153846154" font-family="-apple-system, system-ui, BlinkMacSystemFont, Roboto" y="216.0" dominant-baseline="hanging" text-anchor="middle" font-size="12" fill="#24292f">Mar 2023</text>
    
        
        <path stroke="#74838f"  stroke-width="2.0"  d="M 965.1153846153846 206.0 L 965.1153846153846 214.0" />
        <text x="965.1153846153846" font-family="-apple-system, system-ui, BlinkMacSystemFont, Roboto" y="216.0" dominant-baseline="hanging" text-anchor="middle" font-size="12" fill="#24292f">Apr 2023</text>
    
    <path stroke="#74838f"   stroke-linejoin="round" stroke-width="2.0" d="M 50.0 216.0 L 50.0 206.0 L 974.0 206.0 L 974.0 216.0"  fill="none" />
    <text x="512.0" y="25.0" font-family="-apple-system, system-ui, BlinkMacSystemFont, Roboto" dominant-baseline="middle" text-anchor="middle" font-size="18" fill="#24292f">Total daily screen name changes</text>
</svg>
