<?xml version="1.0" standalone="no"?>
<svg width="1024.0" height="256.0"  viewBox="0 0 1024.0 256.0" preserveAspectRatio="xMidYMid meet" xmlns="http://www.w3.org/2000/svg">
    <path stroke="#3498db" stroke-linejoin="round" d="M 50.0 203.3394909090909 L 50 203.3394909090909L 52.437994722955146 202.32974545454545L 54.87598944591029 196.86690909090908L 57.31398416886544 195.94792727272727L 59.75197889182058 202.14254545454546L 62.189973614775724 197.35476363636363L 64.62796833773088 191.76145454545454L 67.06596306068602 179.96218181818182L 69.50395778364116 204.09396363636364L 71.94195250659631 194.17236363636363L 74.37994722955145 192.61803636363635L 76.8179419525066 195.1253818181818L 79.25593667546174 193.92843636363637L 81.69393139841688 182.2482909090909L 84.13192612137203 200.86618181818181L 86.56992084432719 201.45614545454546L 89.00791556728231 178.89003636363637L 91.44591029023746 197.33774545454546L 93.88390501319262 198.50065454545455L 96.32189973614776 200.41803636363636L 98.7598944591029 201.18385454545455L 101.19788918205805 202.26734545454545L 103.6358839050132 195.09134545454546L 106.07387862796834 198.08087272727272L 108.51187335092348 183.38850909090908L 110.94986807387863 197.47389090909093L 113.38786279683377 202.01774545454546L 115.82585751978893 194.66021818181818L 118.26385224274406 200.75272727272727L 120.7018469656992 200.00392727272728L 123.13984168865436 201.97236363636364L 125.5778364116095 204.2754909090909L 128.01583113456462 201.74545454545455L 130.4538258575198 201.01367272727273L 132.89182058047493 174.7829818181818L 135.32981530343008 195.76072727272728L 137.76781002638523 204.0032L 140.20580474934036 203.7309090909091L 142.6437994722955 197.87665454545453L 145.08179419525067 202.60770909090908L 147.5197889182058 202.6928L 149.95778364116094 197.55898181818182L 152.3957783641161 186.5141818181818L 154.83377308707125 199.26647272727274L 157.2717678100264 199.5728L 159.70976253298153 193.4802909090909L 162.14775725593668 199.10763636363635L 164.58575197889184 201.54690909090908L 167.02374670184696 201.5696L 169.46174142480209 195.06865454545454L 171.89973614775727 201.70007272727273L 174.3377308707124 197.2866909090909L 176.77572559366754 172.35505454545455L 179.2137203166227 203.20901818181818L 181.65171503957785 199.6749090909091L 184.08970976253298 193.12858181818183L 186.52770448548813 196.8896L 188.96569920844328 199.78836363636364L 191.4036939313984 198.82967272727274L 193.84168865435356 204.1336727272727L 196.27968337730871 202.57934545454546L 198.71767810026384 198.9261090909091L 201.155672823219 206L 203.59366754617415 204.128L 206.03166226912927 192.1245090909091L 208.46965699208442 206L 210.90765171503958 206L 213.34564643799473 206L 215.78364116094988 206L 218.22163588390504 197.37178181818183L 220.65963060686016 199.57847272727273L 223.09762532981532 188.9024L 225.53562005277044 195.02894545454546L 227.9736147757256 191.20552727272727L 230.41160949868075 166.8128L 232.84960422163587 203.8386909090909L 235.28759894459102 198.09221818181817L 237.72559366754618 201.64334545454545L 240.1635883905013 202.2957090909091L 242.60158311345646 203.22036363636363L 245.0395778364116 200.66763636363635L 247.47757255936673 191.51185454545455L 249.9155672823219 189.18603636363636L 252.35356200527704 203.86705454545455L 254.79155672823217 197.56465454545454L 257.2295514511873 187.32538181818182L 259.6675461741425 201.2349090909091L 262.1055408970976 200.44639999999998L 264.5435356200528 201.4618181818182L 266.98153034300793 201.09876363636363L 269.41952506596306 201.17818181818183L 271.85751978891824 193.02647272727273L 274.29551451187336 198.8069818181818L 276.7335092348285 203.39054545454545L 279.17150395778367 200.30458181818182L 281.60949868073874 198.35883636363636L 284.0474934036939 193.3101090909091L 286.4854881266491 200.56552727272728L 288.92348284960417 203.03883636363636L 291.36147757255935 197.22996363636364L 293.79947229551453 201.95534545454547L 296.2374670184696 196.016L 298.6754617414248 202.30705454545455L 301.11345646437996 199.91316363636363L 303.5514511873351 194.62050909090908L 305.9894459102902 201.29163636363637L 308.4274406332454 202.98778181818182L 310.8654353562005 203.5437090909091L 313.3034300791557 200.60523636363638L 315.7414248021108 195.5621818181818L 318.17941952506595 203.24305454545456L 320.61741424802113 200.15709090909093L 323.05540897097626 198.46661818181818L 325.4934036939314 201.70007272727273L 327.93139841688657 200.70734545454545L 330.3693931398417 200.4293818181818L 332.8073878627968 201.76814545454545L 335.245382585752 204.6442181818182L 337.6833773087071 206L 340.12137203166225 196.35636363636365L 342.55936675461743 199.21541818181817L 344.99736147757255 156.87418181818182L 347.4353562005277 165.1506909090909L 349.87335092348286 204.1733818181818L 352.311345646438 202.17658181818183L 354.7493403693931 199.31185454545454L 357.1873350923483 198.7842909090909L 359.6253298153034 202.6757818181818L 362.06332453825854 202.8573090909091L 364.5013192612137 196.1861818181818L 366.93931398416885 199.64654545454545L 369.377308707124 198.2056727272727L 371.81530343007915 201.2178909090909L 374.2532981530343 201.79083636363637L 376.69129287598946 201.90429090909092L 379.12928759894464 200.1968L 381.56728232189977 195.17076363636363L 384.0052770448549 206L 386.4432717678101 206L 388.8812664907652 206L 391.3192612137203 191.4834909090909L 393.7572559366755 197.79723636363636L 396.19525065963063 198.85236363636363L 398.63324538258576 199.76L 401.0712401055409 200.03796363636363L 403.50923482849606 200.76407272727272L 405.9472295514512 201.80785454545455L 408.3852242744063 191.63098181818182L 410.8232189973615 194.41061818181817L 413.2612137203166 199.88479999999998L 415.69920844327174 152.63098181818182L 418.1372031662269 197.04843636363637L 420.57519788918205 194.4730181818182L 423.0131926121372 155.90414545454547L 425.45118733509236 91.60945454545454L 427.8891820580475 104.5376L 430.3271767810026 151.17876363636364L 432.7651715039578 185.1981090909091L 435.2031662269129 142.76610909090908L 437.64116094986804 125.0672L 440.0791556728232 123.74545454545455L 442.51715039577834 157.99738181818182L 444.95514511873347 53.56814545454546L 447.39313984168865 50.78850909090909L 449.8311345646438 100.02210909090908L 452.2691292875989 156.2445090909091L 454.7071240105541 180.31956363636363L 457.1451187335092 192.43650909090908L 459.58311345646433 193.63912727272728L 462.0211081794195 193.3328L 464.45910290237464 192.11316363636365L 466.8970976253298 197.93338181818183L 469.335092348285 191.5629090909091L 471.7730870712401 198.7672727272727L 474.21108179419525 199.3005090909091L 476.64907651715043 201.64901818181818L 479.08707124010556 200.58821818181818L 481.5250659630607 202.43752727272727L 483.96306068601587 200.73003636363637L 486.401055408971 189.7703272727273L 488.8390501319261 203.17498181818183L 491.2770448548813 200.48610909090908L 493.7150395778364 185.1810909090909L 496.15303430079155 187.88698181818182L 498.5910290237467 191.01832727272728L 501.02902374670185 192.31738181818181L 503.467018469657 177.09745454545455L 505.90501319261216 167.91330909090908L 508.3430079155673 179.30981818181817L 510.7810026385224 186.49716363636364L 513.2189973614775 150.34487272727273L 515.6569920844327 184.27345454545454L 518.0949868073878 199.5104L 520.532981530343 161.24785454545454L 522.9709762532982 155.49003636363636L 525.4089709762534 176.96130909090908L 527.8469656992083 190.30923636363636L 530.2849604221635 193.50865454545453L 532.7229551451187 201.72843636363638L 535.1609498680739 185.22647272727272L 537.5989445910291 192.03374545454545L 540.0369393139842 192.66909090909093L 542.4749340369392 180.18341818181818L 544.9129287598944 194.5013818181818L 547.3509234828496 194.6829090909091L 549.7889182058047 201.85323636363637L 552.2269129287599 196.2032L 554.6649076517151 204.49105454545455L 557.1029023746702 191.55723636363638L 559.5408970976254 180.36494545454545L 561.9788918205804 193.02647272727273L 564.4168865435356 186.20785454545455L 566.8548812664908 191.72741818181817L 569.292875989446 191.4834909090909L 571.730870712401 196.63432727272726L 574.1688654353562 200.7810909090909L 576.6068601583114 176.26923636363637L 579.0448548812665 165.78036363636363L 581.4828496042217 181.82850909090908L 583.9208443271768 160.6976L 586.3588390501319 163.93105454545454L 588.7968337730871 182.10647272727272L 591.2348284960423 130.808L 593.6728232189973 190.49643636363635L 596.1108179419525 202.0914909090909L 598.5488126649077 184.09192727272728L 600.9868073878628 197.50225454545455L 603.424802110818 187.54094545454547L 605.8627968337731 192.95272727272726L 608.3007915567282 201.88727272727272L 610.7387862796834 184.33585454545454L 613.1767810026386 183.04814545454545L 615.6147757255936 182.36741818181818L 618.0527704485488 182.54327272727272L 620.490765171504 186.38938181818182L 622.9287598944591 174.3858909090909L 625.3667546174142 183.1786181818182L 627.8047493403694 183.5133090909091L 630.2427440633245 184.60247272727273L 632.6807387862797 186.968L 635.1187335092349 170.00087272727274L 637.5567282321899 167.8338909090909L 639.9947229551451 203.32247272727273L 642.4327176781003 206L 644.8707124010554 128.43112727272728L 647.3087071240105 183.2637090909091L 649.7467018469657 156.8685090909091L 652.1846965699208 183.15592727272727L 654.622691292876 183.2013090909091L 657.0606860158312 182.25963636363636L 659.4986807387862 170.18807272727273L 661.9366754617414 186.86589090909092L 664.3746701846966 183.77425454545454L 666.8126649076517 186.29861818181817L 669.2506596306068 184.17134545454545L 671.688654353562 184.9655272727273L 674.1266490765171 178.1696L 676.5646437994723 180.70530909090908L 679.0026385224274 170.80072727272727L 681.4406332453825 177.99374545454546L 683.8786279683377 175.99127272727273L 686.3166226912929 173.75621818181818L 688.754617414248 175.45803636363638L 691.1926121372031 196.91796363636365L 693.6306068601583 150.30516363636363L 696.0686015831135 167.34036363636363L 698.5065963060686 174.52203636363637L 700.9445910290237 132.05599999999998L 703.3825857519789 144.8309818181818L 705.8205804749341 173.60872727272726L 708.2585751978893 151.91054545454546L 710.6965699208444 194.03621818181819L 713.1345646437995 160.59549090909093L 715.5725593667547 206L 718.0105540897098 153.43650909090908L 720.448548812665 181.01163636363637L 722.8865435356201 181.6413090909091L 725.3245382585752 182.49221818181817L 727.7625329815304 183.08785454545455L 730.2005277044856 206L 732.6385224274406 151.86516363636363L 735.0765171503958 172.45716363636365L 737.514511873351 169.20669090909092L 739.9525065963061 178.22065454545455L 742.3905013192613 175.54312727272728L 744.8284960422163 177.61367272727273L 747.2664907651715 181.0173090909091L 749.7044854881267 176.80814545454547L 752.1424802110818 167.8962909090909L 754.5804749340369 167.1248L 757.0184696569921 176.62094545454545L 759.4564643799472 158.63272727272727L 761.8944591029024 151.3602909090909L 764.3324538258576 173.35345454545455L 766.7704485488126 206L 769.2084432717678 206L 771.646437994723 206L 774.084432717678 206L 776.5224274406332 206L 778.9604221635884 206L 781.3984168865435 206L 783.8364116094987 206L 786.2744063324539 206L 788.7124010554089 206L 791.1503957783641 206L 793.5883905013193 206L 796.0263852242743 206L 798.4643799472295 206L 800.9023746701847 206L 803.3403693931398 206L 805.778364116095 206L 808.2163588390501 206L 810.6543535620052 206L 813.0923482849604 206L 815.5303430079156 206L 817.9683377308706 206L 820.4063324538258 206L 822.844327176781 206L 825.2823218997361 206L 827.7203166226913 206L 830.1583113456464 206L 832.5963060686015 206L 835.0343007915567 206L 837.4722955145119 206L 839.9102902374669 206L 842.3482849604221 206L 844.7862796833773 206L 847.2242744063324 206L 849.6622691292876 206L 852.1002638522427 206L 854.5382585751978 206L 856.976253298153 206L 859.4142480211082 206L 861.8522427440632 206L 864.2902374670184 206L 866.7282321899736 206L 869.1662269129287 206L 871.6042216358838 206L 874.042216358839 206L 876.4802110817942 206L 878.9182058047493 206L 881.3562005277045 206L 883.7941952506596 206L 886.2321899736148 206L 888.67018469657 206L 891.1081794195251 206L 893.5461741424803 206L 895.9841688654354 206L 898.4221635883905 206L 900.8601583113457 206L 903.2981530343009 206L 905.7361477572559 206L 908.1741424802111 206L 910.6121372031663 206L 913.0501319261214 206L 915.4881266490765 206L 917.9261213720317 206L 920.3641160949868 206L 922.802110817942 206L 925.2401055408972 206L 927.6781002638522 206L 930.1160949868074 206L 932.5540897097626 206L 934.9920844327177 206L 937.4300791556728 206L 939.868073878628 206L 942.3060686015831 206L 944.7440633245383 206L 947.1820580474935 206L 949.6200527704485 206L 952.0580474934037 206L 954.4960422163589 206L 956.934036939314 206L 959.3720316622691 206L 961.8100263852243 206L 964.2480211081794 206L 966.6860158311346 206L 969.1240105540898 206L 971.5620052770448 206L 974 206" stroke-width="2.0" fill="none" />
    
        
        
        <text x="45.0" font-family="-apple-system, system-ui, BlinkMacSystemFont, Roboto" y="50.0" dominant-baseline="middle" text-anchor="end" font-size="12" fill="#24292f">27500.0</text>
        
            
            <path stroke="#74838f" stroke-dasharray="10 6" stroke-width="0.5"  d="M 50.0 50.0 L 974.0 50.0" />
        
    
        
        
        <text x="45.0" font-family="-apple-system, system-ui, BlinkMacSystemFont, Roboto" y="81.2" dominant-baseline="middle" text-anchor="end" font-size="12" fill="#24292f">22000.0</text>
        
            
            
            <path stroke="#74838f" stroke-dasharray="10 6" stroke-width="0.5"  d="M 50.0 81.2 L 974.0 81.2" />
        
    
        
        
        <text x="45.0" font-family="-apple-system, system-ui, BlinkMacSystemFont, Roboto" y="112.4" dominant-baseline="middle" text-anchor="end" font-size="12" fill="#24292f">16500.0</text>
        
            
            
            <path stroke="#74838f" stroke-dasharray="10 6" stroke-width="0.5"  d="M 50.0 112.4 L 974.0 112.4" />
        
    
        
        
        <text x="45.0" font-family="-apple-system, system-ui, BlinkMacSystemFont, Roboto" y="143.6" dominant-baseline="middle" text-anchor="end" font-size="12" fill="#24292f">11000.0</text>
        
            
            
            <path stroke="#74838f" stroke-dasharray="10 6" stroke-width="0.5"  d="M 50.0 143.6 L 974.0 143.6" />
        
    
        
        
        <text x="45.0" font-family="-apple-system, system-ui, BlinkMacSystemFont, Roboto" y="174.8" dominant-baseline="middle" text-anchor="end" font-size="12" fill="#24292f">5500.0</text>
        
            
            
            <path stroke="#74838f" stroke-dasharray="10 6" stroke-width="0.5"  d="M 50.0 174.8 L 974.0 174.8" />
        
    
        
        
        <text x="45.0" font-family="-apple-system, system-ui, BlinkMacSystemFont, Roboto" y="206.0" dominant-baseline="middle" text-anchor="end" font-size="12" fill="#24292f">0.0</text>
        
    
    
        
        <path stroke="#74838f"  stroke-width="2.0"  d="M 89.00791556728231 206.0 L 89.00791556728231 214.0" />
        <text x="89.00791556728231" font-family="-apple-system, system-ui, BlinkMacSystemFont, Roboto" y="216.0" dominant-baseline="hanging" text-anchor="middle" font-size="12" fill="#24292f">Mar 2022</text>
    
        
        <path stroke="#74838f"  stroke-width="2.0"  d="M 164.58575197889184 206.0 L 164.58575197889184 214.0" />
        <text x="164.58575197889184" font-family="-apple-system, system-ui, BlinkMacSystemFont, Roboto" y="216.0" dominant-baseline="hanging" text-anchor="middle" font-size="12" fill="#24292f">Apr 2022</text>
    
        
        <path stroke="#74838f"  stroke-width="2.0"  d="M 237.72559366754618 206.0 L 237.72559366754618 214.0" />
        <text x="237.72559366754618" font-family="-apple-system, system-ui, BlinkMacSystemFont, Roboto" y="216.0" dominant-baseline="hanging" text-anchor="middle" font-size="12" fill="#24292f">May 2022</text>
    
        
        <path stroke="#74838f"  stroke-width="2.0"  d="M 313.3034300791557 206.0 L 313.3034300791557 214.0" />
        <text x="313.3034300791557" font-family="-apple-system, system-ui, BlinkMacSystemFont, Roboto" y="216.0" dominant-baseline="hanging" text-anchor="middle" font-size="12" fill="#24292f">Jun 2022</text>
    
        
        <path stroke="#74838f"  stroke-width="2.0"  d="M 386.4432717678101 206.0 L 386.4432717678101 214.0" />
        <text x="386.4432717678101" font-family="-apple-system, system-ui, BlinkMacSystemFont, Roboto" y="216.0" dominant-baseline="hanging" text-anchor="middle" font-size="12" fill="#24292f">Jul 2022</text>
    
        
        <path stroke="#74838f"  stroke-width="2.0"  d="M 462.0211081794195 206.0 L 462.0211081794195 214.0" />
        <text x="462.0211081794195" font-family="-apple-system, system-ui, BlinkMacSystemFont, Roboto" y="216.0" dominant-baseline="hanging" text-anchor="middle" font-size="12" fill="#24292f">Aug 2022</text>
    
        
        <path stroke="#74838f"  stroke-width="2.0"  d="M 537.5989445910291 206.0 L 537.5989445910291 214.0" />
        <text x="537.5989445910291" font-family="-apple-system, system-ui, BlinkMacSystemFont, Roboto" y="216.0" dominant-baseline="hanging" text-anchor="middle" font-size="12" fill="#24292f">Sep 2022</text>
    
        
        <path stroke="#74838f"  stroke-width="2.0"  d="M 610.7387862796834 206.0 L 610.7387862796834 214.0" />
        <text x="610.7387862796834" font-family="-apple-system, system-ui, BlinkMacSystemFont, Roboto" y="216.0" dominant-baseline="hanging" text-anchor="middle" font-size="12" fill="#24292f">Oct 2022</text>
    
        
        <path stroke="#74838f"  stroke-width="2.0"  d="M 686.3166226912929 206.0 L 686.3166226912929 214.0" />
        <text x="686.3166226912929" font-family="-apple-system, system-ui, BlinkMacSystemFont, Roboto" y="216.0" dominant-baseline="hanging" text-anchor="middle" font-size="12" fill="#24292f">Nov 2022</text>
    
        
        <path stroke="#74838f"  stroke-width="2.0"  d="M 759.4564643799472 206.0 L 759.4564643799472 214.0" />
        <text x="759.4564643799472" font-family="-apple-system, system-ui, BlinkMacSystemFont, Roboto" y="216.0" dominant-baseline="hanging" text-anchor="middle" font-size="12" fill="#24292f">Dec 2022</text>
    
        
        <path stroke="#74838f"  stroke-width="2.0"  d="M 835.0343007915567 206.0 L 835.0343007915567 214.0" />
        <text x="835.0343007915567" font-family="-apple-system, system-ui, BlinkMacSystemFont, Roboto" y="216.0" dominant-baseline="hanging" text-anchor="middle" font-size="12" fill="#24292f">Jan 2023</text>
    
        
        <path stroke="#74838f"  stroke-width="2.0"  d="M 910.6121372031663 206.0 L 910.6121372031663 214.0" />
        <text x="910.6121372031663" font-family="-apple-system, system-ui, BlinkMacSystemFont, Roboto" y="216.0" dominant-baseline="hanging" text-anchor="middle" font-size="12" fill="#24292f">Feb 2023</text>
    
    <path stroke="#74838f"   stroke-linejoin="round" stroke-width="2.0" d="M 50.0 216.0 L 50.0 206.0 L 974.0 206.0 L 974.0 216.0"  fill="none" />
    <text x="512.0" y="25.0" font-family="-apple-system, system-ui, BlinkMacSystemFont, Roboto" dominant-baseline="middle" text-anchor="middle" font-size="18" fill="#24292f">Total daily screen name changes</text>
</svg>
