<?xml version="1.0" standalone="no"?>
<svg width="1024.0" height="256.0"  viewBox="0 0 1024.0 256.0" preserveAspectRatio="xMidYMid meet" xmlns="http://www.w3.org/2000/svg">
    <path stroke="#3498db" stroke-linejoin="round" d="M 50.0 203.3394909090909 L 50 203.3394909090909L 52.8875 202.32974545454545L 55.775 196.86690909090908L 58.6625 195.94792727272727L 61.55 202.14254545454546L 64.4375 197.35476363636363L 67.325 191.76145454545454L 70.2125 179.96218181818182L 73.1 204.09396363636364L 75.9875 194.17236363636363L 78.875 192.61803636363635L 81.7625 195.1253818181818L 84.65 193.92843636363637L 87.5375 182.2482909090909L 90.425 200.86618181818181L 93.3125 201.45614545454546L 96.2 178.89003636363637L 99.0875 197.33774545454546L 101.975 198.50065454545455L 104.8625 200.41803636363636L 107.75 201.18385454545455L 110.6375 202.26734545454545L 113.525 195.09134545454546L 116.4125 198.08087272727272L 119.3 183.38850909090908L 122.1875 197.47389090909093L 125.075 202.01774545454546L 127.9625 194.66021818181818L 130.85 200.75272727272727L 133.7375 200.00392727272728L 136.625 201.97236363636364L 139.5125 204.2754909090909L 142.4 201.74545454545455L 145.2875 201.01367272727273L 148.175 174.7829818181818L 151.0625 195.76072727272728L 153.95 204.0032L 156.8375 203.7309090909091L 159.725 197.87665454545453L 162.6125 202.60770909090908L 165.5 202.6928L 168.3875 197.55898181818182L 171.275 186.5141818181818L 174.1625 199.26647272727274L 177.05 199.5728L 179.9375 193.4802909090909L 182.825 199.10763636363635L 185.7125 201.54690909090908L 188.6 201.5696L 191.4875 195.06865454545454L 194.375 201.70007272727273L 197.2625 197.2866909090909L 200.15 172.35505454545455L 203.0375 203.20901818181818L 205.925 199.6749090909091L 208.8125 193.12858181818183L 211.7 196.8896L 214.5875 199.78836363636364L 217.475 198.82967272727274L 220.3625 204.1336727272727L 223.25 202.57934545454546L 226.1375 198.9261090909091L 229.025 206L 231.9125 204.128L 234.8 192.1245090909091L 237.6875 206L 240.575 206L 243.4625 206L 246.35 206L 249.2375 197.37178181818183L 252.125 199.57847272727273L 255.0125 188.9024L 257.9 195.02894545454546L 260.7875 191.20552727272727L 263.675 166.8128L 266.5625 203.8386909090909L 269.45 198.09221818181817L 272.3375 201.64334545454545L 275.225 202.2957090909091L 278.1125 203.22036363636363L 281 200.66763636363635L 283.8875 191.51185454545455L 286.775 189.18603636363636L 289.6625 203.86705454545455L 292.55 197.56465454545454L 295.4375 187.32538181818182L 298.325 201.2349090909091L 301.2125 200.44639999999998L 304.1 201.4618181818182L 306.9875 201.09876363636363L 309.875 201.17818181818183L 312.7625 193.02647272727273L 315.65 198.8069818181818L 318.5375 203.39054545454545L 321.425 200.30458181818182L 324.3125 198.35883636363636L 327.2 193.3101090909091L 330.0875 200.56552727272728L 332.975 203.03883636363636L 335.8625 197.22996363636364L 338.75 201.95534545454547L 341.6375 196.016L 344.525 202.30705454545455L 347.4125 199.91316363636363L 350.3 194.62050909090908L 353.1875 201.29163636363637L 356.075 202.98778181818182L 358.9625 203.5437090909091L 361.85 200.60523636363638L 364.7375 195.5621818181818L 367.625 203.24305454545456L 370.5125 200.15709090909093L 373.4 198.46661818181818L 376.2875 201.70007272727273L 379.175 200.70734545454545L 382.0625 200.4293818181818L 384.95 201.76814545454545L 387.8375 204.6442181818182L 390.725 206L 393.6125 196.35636363636365L 396.5 199.21541818181817L 399.3875 156.87418181818182L 402.275 165.1506909090909L 405.1625 204.1733818181818L 408.05 202.17658181818183L 410.9375 199.31185454545454L 413.825 198.7842909090909L 416.7125 202.6757818181818L 419.6 202.8573090909091L 422.4875 196.1861818181818L 425.375 199.64654545454545L 428.2625 198.2056727272727L 431.15 201.2178909090909L 434.0375 201.79083636363637L 436.925 201.90429090909092L 439.8125 200.1968L 442.7 195.17076363636363L 445.5875 206L 448.475 206L 451.3625 206L 454.25 191.4834909090909L 457.1375 197.79723636363636L 460.025 198.85236363636363L 462.9125 199.76L 465.8 200.03796363636363L 468.6875 200.76407272727272L 471.575 201.80785454545455L 474.4625 191.63098181818182L 477.35 194.41061818181817L 480.2375 199.88479999999998L 483.125 152.63098181818182L 486.0125 197.04843636363637L 488.9 194.4730181818182L 491.7875 155.90414545454547L 494.675 91.60945454545454L 497.5625 104.5376L 500.45 151.17876363636364L 503.3375 185.1981090909091L 506.225 142.76610909090908L 509.1125 125.0672L 512 123.74545454545455L 514.8875 157.99738181818182L 517.775 53.56814545454546L 520.6625 50.78850909090909L 523.55 100.02210909090908L 526.4375 156.2445090909091L 529.325 180.31956363636363L 532.2125 192.43650909090908L 535.1 193.63912727272728L 537.9875 193.3328L 540.875 192.11316363636365L 543.7625 197.93338181818183L 546.65 191.5629090909091L 549.5375 198.7672727272727L 552.425 199.3005090909091L 555.3125 201.64901818181818L 558.2 200.58821818181818L 561.0875 202.43752727272727L 563.975 200.73003636363637L 566.8625 189.7703272727273L 569.75 203.17498181818183L 572.6375 200.48610909090908L 575.525 185.1810909090909L 578.4125 187.88698181818182L 581.3 191.01832727272728L 584.1875 192.31738181818181L 587.075 177.09745454545455L 589.9625 167.91330909090908L 592.85 179.30981818181817L 595.7375 186.49716363636364L 598.625 150.34487272727273L 601.5125 184.27345454545454L 604.4 199.5104L 607.2875 161.24785454545454L 610.175 155.49003636363636L 613.0625 176.96130909090908L 615.95 190.30923636363636L 618.8375 193.50865454545453L 621.725 201.72843636363638L 624.6125 185.22647272727272L 627.5 192.03374545454545L 630.3875 192.66909090909093L 633.275 180.18341818181818L 636.1625 194.5013818181818L 639.05 194.6829090909091L 641.9375 201.85323636363637L 644.825 196.2032L 647.7125 204.49105454545455L 650.6 191.55723636363638L 653.4875 180.36494545454545L 656.375 193.02647272727273L 659.2625 186.20785454545455L 662.15 191.72741818181817L 665.0375 191.4834909090909L 667.925 196.63432727272726L 670.8125 200.7810909090909L 673.7 176.26923636363637L 676.5875 165.78036363636363L 679.475 181.82850909090908L 682.3625 160.6976L 685.25 163.93105454545454L 688.1375 182.10647272727272L 691.025 130.808L 693.9125 190.49643636363635L 696.8 202.0914909090909L 699.6875 184.09192727272728L 702.575 197.50225454545455L 705.4625 187.54094545454547L 708.35 192.95272727272726L 711.2375 201.88727272727272L 714.125 184.33585454545454L 717.0125 183.04814545454545L 719.9 182.36741818181818L 722.7875 182.54327272727272L 725.675 186.38938181818182L 728.5625 174.3858909090909L 731.45 183.1786181818182L 734.3375 183.5133090909091L 737.225 184.60247272727273L 740.1125 186.968L 743 170.00087272727274L 745.8875 167.8338909090909L 748.775 203.32247272727273L 751.6625 206L 754.55 128.43112727272728L 757.4375 183.2637090909091L 760.325 156.8685090909091L 763.2125 183.15592727272727L 766.1 183.2013090909091L 768.9875 182.25963636363636L 771.875 170.18807272727273L 774.7625 186.86589090909092L 777.65 183.77425454545454L 780.5375 186.29861818181817L 783.425 184.17134545454545L 786.3125 184.9655272727273L 789.2 178.1696L 792.0875 180.70530909090908L 794.975 170.80072727272727L 797.8625 177.99374545454546L 800.75 175.99127272727273L 803.6375 173.75621818181818L 806.525 175.45803636363638L 809.4125 196.91796363636365L 812.3 150.30516363636363L 815.1875 167.34036363636363L 818.075 174.52203636363637L 820.9625 132.05599999999998L 823.85 144.8309818181818L 826.7375 173.60872727272726L 829.625 151.91054545454546L 832.5125 194.03621818181819L 835.4 160.59549090909093L 838.2875 206L 841.175 153.43650909090908L 844.0625 181.01163636363637L 846.95 181.6413090909091L 849.8375 182.49221818181817L 852.725 183.08785454545455L 855.6125 206L 858.5 151.86516363636363L 861.3875 172.45716363636365L 864.275 169.20669090909092L 867.1625 178.22065454545455L 870.05 175.54312727272728L 872.9375 177.61367272727273L 875.825 181.0173090909091L 878.7125 176.80814545454547L 881.6 167.8962909090909L 884.4875 167.1248L 887.375 176.62094545454545L 890.2625 158.63272727272727L 893.15 151.3602909090909L 896.0375 173.35345454545455L 898.925 206L 901.8125 206L 904.7 206L 907.5875 206L 910.475 206L 913.3625 206L 916.25 206L 919.1375 206L 922.025 206L 924.9125 206L 927.8 206L 930.6875 206L 933.575 206L 936.4625 206L 939.35 206L 942.2375 206L 945.125 206L 948.0125 206L 950.9 206L 953.7875 206L 956.675 206L 959.5625 206L 962.45 206L 965.3375 206L 968.225 206L 971.1125 206L 974 206" stroke-width="2.0" fill="none" />
    
        
        
        <text x="45.0" font-family="-apple-system, system-ui, BlinkMacSystemFont, Roboto" y="50.0" dominant-baseline="middle" text-anchor="end" font-size="12" fill="#24292f">27500.0</text>
        
            
            <path stroke="#74838f" stroke-dasharray="10 6" stroke-width="0.5"  d="M 50.0 50.0 L 974.0 50.0" />
        
    
        
        
        <text x="45.0" font-family="-apple-system, system-ui, BlinkMacSystemFont, Roboto" y="81.2" dominant-baseline="middle" text-anchor="end" font-size="12" fill="#24292f">22000.0</text>
        
            
            
            <path stroke="#74838f" stroke-dasharray="10 6" stroke-width="0.5"  d="M 50.0 81.2 L 974.0 81.2" />
        
    
        
        
        <text x="45.0" font-family="-apple-system, system-ui, BlinkMacSystemFont, Roboto" y="112.4" dominant-baseline="middle" text-anchor="end" font-size="12" fill="#24292f">16500.0</text>
        
            
            
            <path stroke="#74838f" stroke-dasharray="10 6" stroke-width="0.5"  d="M 50.0 112.4 L 974.0 112.4" />
        
    
        
        
        <text x="45.0" font-family="-apple-system, system-ui, BlinkMacSystemFont, Roboto" y="143.6" dominant-baseline="middle" text-anchor="end" font-size="12" fill="#24292f">11000.0</text>
        
            
            
            <path stroke="#74838f" stroke-dasharray="10 6" stroke-width="0.5"  d="M 50.0 143.6 L 974.0 143.6" />
        
    
        
        
        <text x="45.0" font-family="-apple-system, system-ui, BlinkMacSystemFont, Roboto" y="174.8" dominant-baseline="middle" text-anchor="end" font-size="12" fill="#24292f">5500.0</text>
        
            
            
            <path stroke="#74838f" stroke-dasharray="10 6" stroke-width="0.5"  d="M 50.0 174.8 L 974.0 174.8" />
        
    
        
        
        <text x="45.0" font-family="-apple-system, system-ui, BlinkMacSystemFont, Roboto" y="206.0" dominant-baseline="middle" text-anchor="end" font-size="12" fill="#24292f">0.0</text>
        
    
    
        
        <path stroke="#74838f"  stroke-width="2.0"  d="M 96.2 206.0 L 96.2 214.0" />
        <text x="96.2" font-family="-apple-system, system-ui, BlinkMacSystemFont, Roboto" y="216.0" dominant-baseline="hanging" text-anchor="middle" font-size="12" fill="#24292f">Mar 2022</text>
    
        
        <path stroke="#74838f"  stroke-width="2.0"  d="M 185.7125 206.0 L 185.7125 214.0" />
        <text x="185.7125" font-family="-apple-system, system-ui, BlinkMacSystemFont, Roboto" y="216.0" dominant-baseline="hanging" text-anchor="middle" font-size="12" fill="#24292f">Apr 2022</text>
    
        
        <path stroke="#74838f"  stroke-width="2.0"  d="M 272.3375 206.0 L 272.3375 214.0" />
        <text x="272.3375" font-family="-apple-system, system-ui, BlinkMacSystemFont, Roboto" y="216.0" dominant-baseline="hanging" text-anchor="middle" font-size="12" fill="#24292f">May 2022</text>
    
        
        <path stroke="#74838f"  stroke-width="2.0"  d="M 361.85 206.0 L 361.85 214.0" />
        <text x="361.85" font-family="-apple-system, system-ui, BlinkMacSystemFont, Roboto" y="216.0" dominant-baseline="hanging" text-anchor="middle" font-size="12" fill="#24292f">Jun 2022</text>
    
        
        <path stroke="#74838f"  stroke-width="2.0"  d="M 448.475 206.0 L 448.475 214.0" />
        <text x="448.475" font-family="-apple-system, system-ui, BlinkMacSystemFont, Roboto" y="216.0" dominant-baseline="hanging" text-anchor="middle" font-size="12" fill="#24292f">Jul 2022</text>
    
        
        <path stroke="#74838f"  stroke-width="2.0"  d="M 537.9875 206.0 L 537.9875 214.0" />
        <text x="537.9875" font-family="-apple-system, system-ui, BlinkMacSystemFont, Roboto" y="216.0" dominant-baseline="hanging" text-anchor="middle" font-size="12" fill="#24292f">Aug 2022</text>
    
        
        <path stroke="#74838f"  stroke-width="2.0"  d="M 627.5 206.0 L 627.5 214.0" />
        <text x="627.5" font-family="-apple-system, system-ui, BlinkMacSystemFont, Roboto" y="216.0" dominant-baseline="hanging" text-anchor="middle" font-size="12" fill="#24292f">Sep 2022</text>
    
        
        <path stroke="#74838f"  stroke-width="2.0"  d="M 714.125 206.0 L 714.125 214.0" />
        <text x="714.125" font-family="-apple-system, system-ui, BlinkMacSystemFont, Roboto" y="216.0" dominant-baseline="hanging" text-anchor="middle" font-size="12" fill="#24292f">Oct 2022</text>
    
        
        <path stroke="#74838f"  stroke-width="2.0"  d="M 803.6375 206.0 L 803.6375 214.0" />
        <text x="803.6375" font-family="-apple-system, system-ui, BlinkMacSystemFont, Roboto" y="216.0" dominant-baseline="hanging" text-anchor="middle" font-size="12" fill="#24292f">Nov 2022</text>
    
        
        <path stroke="#74838f"  stroke-width="2.0"  d="M 890.2625 206.0 L 890.2625 214.0" />
        <text x="890.2625" font-family="-apple-system, system-ui, BlinkMacSystemFont, Roboto" y="216.0" dominant-baseline="hanging" text-anchor="middle" font-size="12" fill="#24292f">Dec 2022</text>
    
    <path stroke="#74838f"   stroke-linejoin="round" stroke-width="2.0" d="M 50.0 216.0 L 50.0 206.0 L 974.0 206.0 L 974.0 216.0"  fill="none" />
    <text x="512.0" y="25.0" font-family="-apple-system, system-ui, BlinkMacSystemFont, Roboto" dominant-baseline="middle" text-anchor="middle" font-size="18" fill="#24292f">Total daily screen name changes</text>
</svg>
