<?xml version="1.0" standalone="no"?>
<svg width="1024" height="256"  viewBox="0 0 1024 256" preserveAspectRatio="xMidYMid meet" xmlns="http://www.w3.org/2000/svg">
    <path stroke="#3498db" stroke-linejoin="round" d="M 50 204.78243902439024 L 50 204.78243902439024L 55.775 204.4628292682927L 61.55 196.79219512195124L 67.325 193.47434146341465L 73.1 201.62439024390244L 78.875 194.72234146341464L 84.65 188.17795121951218L 90.425 170.9570731707317L 96.2 203.6790243902439L 101.975 190.1108292682927L 107.75 188.18556097560975L 113.525 191.52624390243903L 119.3 189.73795121951218L 125.075 174.70107317073172L 130.85 199.0370731707317L 136.625 201.0232195121951L 142.4 169.57970731707317L 148.175 195.23219512195124L 153.95 196.33560975609757L 159.725 199.11317073170733L 165.5 199.60019512195123L 171.275 201.2819512195122L 177.05 191.77736585365852L 182.825 195.36156097560976L 188.6 175.83492682926828L 194.375 194.99629268292682L 200.15 200.87863414634145L 205.925 190.74243902439025L 211.7 199.06751219512194L 217.475 198.40546341463414L 223.25 200.71882926829267L 229.025 205.22380487804878L 234.8 200.81014634146342L 240.575 199.30341463414635L 246.35 165.66829268292682L 252.125 192.2948292682927L 257.9 203.35180487804877L 263.675 203.16156097560975L 269.45 195.06478048780488L 275.225 201.51024390243902L 281 202.36253658536586L 286.775 194.82126829268293L 292.55 179.80721951219513L 298.325 197.08136585365855L 304.1 197.88039024390244L 309.875 189.585756097561L 315.65 196.9748292682927L 321.425 200.07960975609757L 327.2 200.193756097561L 332.975 191.49580487804877L 338.75 200.4600975609756L 344.525 194.23531707317073L 350.3 160.7447804878049L 356.075 202.23317073170733L 361.85 198.01736585365853L 367.625 188.83239024390244L 373.4 194.00702439024388L 379.175 197.9869268292683L 384.95 196.39648780487806L 390.725 203.47356097560976L 396.5 202.05053658536585L 402.275 196.43453658536586L 408.05 206L 413.825 203.48117073170732L 419.6 187.23434146341464L 425.375 206L 431.15 206L 436.925 206L 442.7 206L 448.475 194.34946341463416L 454.25 197.30965853658537L 460.025 182.9728780487805L 465.8 192.6600975609756L 471.575 186.05482926829268L 477.35 152.98282926829268L 483.125 203.4887804878049L 488.9 195.38439024390243L 494.675 200.39921951219512L 500.45 201.00039024390244L 506.225 202.53756097560975L 512 198.99141463414634L 517.775 186.66360975609757L 523.55 183.4370731707317L 529.325 203.22243902439024L 535.1 194.59297560975608L 540.875 181.4661463414634L 546.65 199.7067317073171L 552.425 198.512L 558.2 199.83609756097562L 563.975 199.3871219512195L 569.75 199.950243902439L 575.525 188.5127804878049L 581.3 196.29756097560977L 587.075 202.47668292682926L 592.85 198.30653658536585L 598.625 197.22595121951218L 604.4 188.9008780487805L 610.175 198.6489756097561L 615.95 202.00487804878048L 621.725 194.76039024390244L 627.5 200.52858536585364L 633.275 193.10146341463414L 639.05 201.30478048780486L 644.825 197.91843902439024L 650.6 191.1838048780488L 656.375 199.6458536585366L 662.15 202.22556097560977L 667.925 202.66692682926828L 673.7 198.8620487804878L 679.475 191.9980487804878L 685.25 202.88760975609756L 691.025 198.25326829268292L 696.8 195.78770731707317L 702.575 200.193756097561L 708.35 199.25014634146342L 714.125 198.633756097561L 719.9 200.26224390243902L 725.675 204.1660487804878L 731.45 206L 737.225 193.3069268292683L 743 196.80741463414634L 748.775 139.5592195121951L 754.55 150.65424390243902L 760.325 204.15843902439025L 766.1 200.81014634146342L 771.875 196.90634146341463L 777.65 196.76936585365854L 783.425 201.66243902439024L 789.2 201.74614634146343L 794.975 192.73619512195123L 800.75 197.68253658536585L 806.525 195.46048780487806L 812.3 199.5088780487805L 818.075 200.74926829268293L 823.85 200.44487804878048L 829.625 198.1239024390244L 835.4 191.76975609756096L 841.175 206L 846.95 206L 852.725 206L 858.5 186.23746341463414L 864.275 195.28546341463414L 870.05 196.64L 875.825 197.68253658536585L 881.6 198.390243902439L 887.375 198.96858536585364L 893.15 200.3459512195122L 898.925 186.67882926829267L 904.7 190.40760975609754L 910.475 197.69775609756098L 916.25 133.5170731707317L 922.025 194.4940487804878L 927.8 190.34673170731708L 933.575 138.27317073170732L 939.35 50.94360975609757L 945.125 68.75043902439023L 950.9 131.8277073170732L 956.675 178.23960975609756L 962.45 120.26848780487805L 968.225 96.38146341463415L 974 151.0727804878049" stroke-width="2.0" fill="none" />
    
        
        
        <text x="45" font-family="-apple-system, system-ui, BlinkMacSystemFont, Roboto" y="50" dominant-baseline="middle" text-anchor="end" font-size="12" fill="#24292f">20500</text>
        
            
            <path stroke="#74838f" stroke-dasharray="10 6" stroke-width="0.5"  d="M 50 50 L 974 50" />
        
    
        
        
        <text x="45" font-family="-apple-system, system-ui, BlinkMacSystemFont, Roboto" y="81.2" dominant-baseline="middle" text-anchor="end" font-size="12" fill="#24292f">16400</text>
        
            
            
            <path stroke="#74838f" stroke-dasharray="10 6" stroke-width="0.5"  d="M 50 81.2 L 974 81.2" />
        
    
        
        
        <text x="45" font-family="-apple-system, system-ui, BlinkMacSystemFont, Roboto" y="112.4" dominant-baseline="middle" text-anchor="end" font-size="12" fill="#24292f">12300</text>
        
            
            
            <path stroke="#74838f" stroke-dasharray="10 6" stroke-width="0.5"  d="M 50 112.4 L 974 112.4" />
        
    
        
        
        <text x="45" font-family="-apple-system, system-ui, BlinkMacSystemFont, Roboto" y="143.6" dominant-baseline="middle" text-anchor="end" font-size="12" fill="#24292f">8200</text>
        
            
            
            <path stroke="#74838f" stroke-dasharray="10 6" stroke-width="0.5"  d="M 50 143.6 L 974 143.6" />
        
    
        
        
        <text x="45" font-family="-apple-system, system-ui, BlinkMacSystemFont, Roboto" y="174.8" dominant-baseline="middle" text-anchor="end" font-size="12" fill="#24292f">4100</text>
        
            
            
            <path stroke="#74838f" stroke-dasharray="10 6" stroke-width="0.5"  d="M 50 174.8 L 974 174.8" />
        
    
        
        
        <text x="45" font-family="-apple-system, system-ui, BlinkMacSystemFont, Roboto" y="206" dominant-baseline="middle" text-anchor="end" font-size="12" fill="#24292f">0</text>
        
    
    
        
        <path stroke="#74838f"  stroke-width="2.0"  d="M 142.4 206 L 142.4 214" />
        <text x="142.4" font-family="-apple-system, system-ui, BlinkMacSystemFont, Roboto" y="216" dominant-baseline="hanging" text-anchor="middle" font-size="12" fill="#24292f">Mar 2022</text>
    
        
        <path stroke="#74838f"  stroke-width="2.0"  d="M 321.425 206 L 321.425 214" />
        <text x="321.425" font-family="-apple-system, system-ui, BlinkMacSystemFont, Roboto" y="216" dominant-baseline="hanging" text-anchor="middle" font-size="12" fill="#24292f">Apr 2022</text>
    
        
        <path stroke="#74838f"  stroke-width="2.0"  d="M 494.675 206 L 494.675 214" />
        <text x="494.675" font-family="-apple-system, system-ui, BlinkMacSystemFont, Roboto" y="216" dominant-baseline="hanging" text-anchor="middle" font-size="12" fill="#24292f">May 2022</text>
    
        
        <path stroke="#74838f"  stroke-width="2.0"  d="M 673.7 206 L 673.7 214" />
        <text x="673.7" font-family="-apple-system, system-ui, BlinkMacSystemFont, Roboto" y="216" dominant-baseline="hanging" text-anchor="middle" font-size="12" fill="#24292f">Jun 2022</text>
    
        
        <path stroke="#74838f"  stroke-width="2.0"  d="M 846.95 206 L 846.95 214" />
        <text x="846.95" font-family="-apple-system, system-ui, BlinkMacSystemFont, Roboto" y="216" dominant-baseline="hanging" text-anchor="middle" font-size="12" fill="#24292f">Jul 2022</text>
    
    <path stroke="#74838f"   stroke-linejoin="round" stroke-width="2.0" d="M 50 216 L 50 206 L 974 206 L 974 216"  fill="none" />
    <text x="512" y="25" font-family="-apple-system, system-ui, BlinkMacSystemFont, Roboto" dominant-baseline="middle" text-anchor="middle" font-size="18" fill="#24292f">Total daily screen name changes</text>
</svg>
