<?xml version="1.0" standalone="no"?>
<svg width="1024.0" height="256.0"  viewBox="0 0 1024.0 256.0" preserveAspectRatio="xMidYMid meet" xmlns="http://www.w3.org/2000/svg">
    <path stroke="#3498db" stroke-linejoin="round" d="M 50.0 203.3394909090909 L 50 203.3394909090909L 53.13220338983051 202.32974545454545L 56.264406779661016 196.86690909090908L 59.396610169491524 195.94792727272727L 62.52881355932203 202.14254545454546L 65.66101694915254 197.35476363636363L 68.79322033898305 191.76145454545454L 71.92542372881356 179.96218181818182L 75.05762711864406 204.09396363636364L 78.18983050847459 194.17236363636363L 81.32203389830508 192.61803636363635L 84.4542372881356 195.1253818181818L 87.5864406779661 193.92843636363637L 90.71864406779662 182.2482909090909L 93.85084745762711 200.86618181818181L 96.98305084745763 201.45614545454546L 100.11525423728813 178.89003636363637L 103.24745762711865 197.33774545454546L 106.37966101694916 198.50065454545455L 109.51186440677967 200.41803636363636L 112.64406779661016 201.18385454545455L 115.77627118644068 202.26734545454545L 118.90847457627119 195.09134545454546L 122.0406779661017 198.08087272727272L 125.1728813559322 183.38850909090908L 128.3050847457627 197.47389090909093L 131.43728813559323 202.01774545454546L 134.56949152542373 194.66021818181818L 137.70169491525422 200.75272727272727L 140.83389830508474 200.00392727272728L 143.96610169491527 201.97236363636364L 147.09830508474576 204.2754909090909L 150.23050847457625 201.74545454545455L 153.36271186440678 201.01367272727273L 156.4949152542373 174.7829818181818L 159.62711864406782 195.76072727272728L 162.75932203389831 204.0032L 165.8915254237288 203.7309090909091L 169.02372881355933 197.87665454545453L 172.15593220338982 202.60770909090908L 175.28813559322032 202.6928L 178.42033898305084 197.55898181818182L 181.55254237288136 186.5141818181818L 184.68474576271186 199.26647272727274L 187.81694915254238 199.5728L 190.9491525423729 193.4802909090909L 194.0813559322034 199.10763636363635L 197.2135593220339 201.54690909090908L 200.3457627118644 201.5696L 203.4779661016949 195.06865454545454L 206.61016949152543 201.70007272727273L 209.74237288135592 197.2866909090909L 212.87457627118644 172.35505454545455L 216.00677966101694 203.20901818181818L 219.13898305084746 199.6749090909091L 222.27118644067798 193.12858181818183L 225.40338983050847 196.8896L 228.535593220339 199.78836363636364L 231.6677966101695 198.82967272727274L 234.8 204.1336727272727L 237.93220338983053 202.57934545454546L 241.064406779661 198.9261090909091L 244.19661016949152 206L 247.32881355932201 204.128L 250.46101694915254 192.1245090909091L 253.59322033898306 206L 256.72542372881355 206L 259.8576271186441 206L 262.9898305084746 206L 266.12203389830506 197.37178181818183L 269.25423728813564 199.57847272727273L 272.3864406779661 188.9024L 275.51864406779663 195.02894545454546L 278.65084745762715 191.20552727272727L 281.7830508474576 166.8128L 284.91525423728814 203.8386909090909L 288.04745762711866 198.09221818181817L 291.1796610169491 201.64334545454545L 294.31186440677965 202.2957090909091L 297.44406779661017 203.22036363636363L 300.57627118644064 200.66763636363635L 303.7084745762712 191.51185454545455L 306.8406779661017 189.18603636363636L 309.9728813559322 203.86705454545455L 313.1050847457627 197.56465454545454L 316.23728813559325 187.32538181818182L 319.3694915254237 201.2349090909091L 322.50169491525423 200.44639999999998L 325.63389830508476 201.4618181818182L 328.7661016949153 201.09876363636363L 331.8983050847458 201.17818181818183L 335.03050847457627 193.02647272727273L 338.1627118644068 198.8069818181818L 341.2949152542373 203.39054545454545L 344.4271186440678 200.30458181818182L 347.5593220338983 198.35883636363636L 350.6915254237288 193.3101090909091L 353.8237288135593 200.56552727272728L 356.9559322033898 203.03883636363636L 360.08813559322033 197.22996363636364L 363.22033898305085 201.95534545454547L 366.3525423728813 196.016L 369.48474576271184 202.30705454545455L 372.61694915254236 199.91316363636363L 375.7491525423729 194.62050909090908L 378.8813559322034 201.29163636363637L 382.01355932203387 202.98778181818182L 385.1457627118644 203.5437090909091L 388.2779661016949 200.60523636363638L 391.41016949152544 195.5621818181818L 394.54237288135596 203.24305454545456L 397.6745762711864 200.15709090909093L 400.80677966101695 198.46661818181818L 403.93898305084747 201.70007272727273L 407.071186440678 200.70734545454545L 410.2033898305085 200.4293818181818L 413.335593220339 201.76814545454545L 416.4677966101695 204.6442181818182L 419.6 206L 422.73220338983054 196.35636363636365L 425.86440677966107 199.21541818181817L 428.9966101694915 156.87418181818182L 432.128813559322 165.1506909090909L 435.2610169491525 204.1733818181818L 438.39322033898304 202.17658181818183L 441.52542372881356 199.31185454545454L 444.65762711864403 198.7842909090909L 447.78983050847455 202.6757818181818L 450.9220338983051 202.8573090909091L 454.0542372881356 196.1861818181818L 457.1864406779661 199.64654545454545L 460.3186440677966 198.2056727272727L 463.4508474576271 201.2178909090909L 466.5830508474576 201.79083636363637L 469.71525423728815 201.90429090909092L 472.8474576271187 200.1968L 475.97966101694914 195.17076363636363L 479.11186440677966 206L 482.2440677966102 206L 485.3762711864407 206L 488.5084745762712 191.4834909090909L 491.6406779661017 197.79723636363636L 494.7728813559322 198.85236363636363L 497.90508474576274 199.76L 501.03728813559326 200.03796363636363L 504.1694915254237 200.76407272727272L 507.30169491525425 201.80785454545455L 510.43389830508477 191.63098181818182L 513.5661016949152 194.41061818181817L 516.6983050847458 199.88479999999998L 519.8305084745763 152.63098181818182L 522.9627118644069 197.04843636363637L 526.0949152542373 194.4730181818182L 529.2271186440678 155.90414545454547L 532.3593220338983 91.60945454545454L 535.4915254237288 104.5376L 538.6237288135593 151.17876363636364L 541.7559322033899 185.1981090909091L 544.8881355932203 142.76610909090908L 548.0203389830509 125.0672L 551.1525423728813 123.74545454545455L 554.2847457627117 157.99738181818182L 557.4169491525424 53.56814545454546L 560.5491525423729 50.78850909090909L 563.6813559322034 100.02210909090908L 566.8135593220338 156.2445090909091L 569.9457627118644 180.31956363636363L 573.0779661016949 192.43650909090908L 576.2101694915254 193.63912727272728L 579.3423728813559 193.3328L 582.4745762711865 192.11316363636365L 585.606779661017 197.93338181818183L 588.7389830508474 191.5629090909091L 591.8711864406779 198.7672727272727L 595.0033898305085 199.3005090909091L 598.1355932203389 201.64901818181818L 601.2677966101695 200.58821818181818L 604.4 202.43752727272727L 607.5322033898306 200.73003636363637L 610.664406779661 189.7703272727273L 613.7966101694916 203.17498181818183L 616.9288135593221 200.48610909090908L 620.0610169491525 185.1810909090909L 623.193220338983 187.88698181818182L 626.3254237288136 191.01832727272728L 629.457627118644 192.31738181818181L 632.5898305084746 177.09745454545455L 635.7220338983051 167.91330909090908L 638.8542372881356 179.30981818181817L 641.9864406779661 186.49716363636364L 645.1186440677966 150.34487272727273L 648.2508474576272 184.27345454545454L 651.3830508474576 199.5104L 654.5152542372881 161.24785454545454L 657.6474576271186 155.49003636363636L 660.7796610169491 176.96130909090908L 663.9118644067796 190.30923636363636L 667.0440677966102 193.50865454545453L 670.1762711864407 201.72843636363638L 673.3084745762712 185.22647272727272L 676.4406779661017 192.03374545454545L 679.5728813559323 192.66909090909093L 682.7050847457626 180.18341818181818L 685.8372881355932 194.5013818181818L 688.9694915254237 194.6829090909091L 692.1016949152543 201.85323636363637L 695.2338983050847 196.2032L 698.3661016949153 204.49105454545455L 701.4983050847458 191.55723636363638L 704.6305084745763 180.36494545454545L 707.7627118644068 193.02647272727273L 710.8949152542373 186.20785454545455L 714.0271186440677 191.72741818181817L 717.1593220338983 191.4834909090909L 720.2915254237288 196.63432727272726L 723.4237288135593 200.7810909090909L 726.5559322033898 176.26923636363637L 729.6881355932203 165.78036363636363L 732.8203389830509 181.82850909090908L 735.9525423728813 160.6976L 739.0847457627119 163.93105454545454L 742.2169491525424 182.10647272727272L 745.3491525423728 130.808L 748.4813559322033 190.49643636363635L 751.6135593220339 202.0914909090909L 754.7457627118644 184.09192727272728L 757.8779661016949 197.50225454545455L 761.0101694915254 187.54094545454547L 764.142372881356 192.95272727272726L 767.2745762711864 201.88727272727272L 770.406779661017 184.33585454545454L 773.5389830508475 183.04814545454545L 776.671186440678 182.36741818181818L 779.8033898305084 182.54327272727272L 782.935593220339 186.38938181818182L 786.0677966101695 174.3858909090909L 789.2 183.1786181818182L 792.3322033898305 183.5133090909091L 795.4644067796611 184.60247272727273L 798.5966101694916 186.968L 801.7288135593221 170.00087272727274L 804.8610169491525 167.8338909090909L 807.993220338983 203.32247272727273L 811.1254237288135 206L 814.257627118644 128.43112727272728L 817.3898305084746 183.2637090909091L 820.522033898305 156.8685090909091L 823.6542372881356 183.15592727272727L 826.7864406779661 183.2013090909091L 829.9186440677967 182.25963636363636L 833.0508474576271 170.18807272727273L 836.1830508474576 186.86589090909092L 839.3152542372881 183.77425454545454L 842.4474576271186 186.29861818181817L 845.5796610169491 184.17134545454545L 848.7118644067797 184.9655272727273L 851.8440677966101 178.1696L 854.9762711864407 180.70530909090908L 858.1084745762712 170.80072727272727L 861.2406779661018 177.99374545454546L 864.3728813559322 175.99127272727273L 867.5050847457627 173.75621818181818L 870.6372881355932 175.45803636363638L 873.7694915254237 196.91796363636365L 876.9016949152542 150.30516363636363L 880.0338983050848 167.34036363636363L 883.1661016949153 174.52203636363637L 886.2983050847458 132.05599999999998L 889.4305084745763 144.8309818181818L 892.5627118644068 173.60872727272726L 895.6949152542373 151.91054545454546L 898.8271186440677 194.03621818181819L 901.9593220338983 160.59549090909093L 905.0915254237287 206L 908.2237288135593 153.43650909090908L 911.3559322033898 181.01163636363637L 914.4881355932204 181.6413090909091L 917.6203389830508 182.49221818181817L 920.7525423728814 183.08785454545455L 923.8847457627119 206L 927.0169491525425 151.86516363636363L 930.1491525423728 172.45716363636365L 933.2813559322034 169.20669090909092L 936.4135593220338 178.22065454545455L 939.5457627118644 175.54312727272728L 942.6779661016949 177.61367272727273L 945.8101694915255 181.0173090909091L 948.9423728813559 176.80814545454547L 952.0745762711865 167.8962909090909L 955.206779661017 167.1248L 958.3389830508474 176.62094545454545L 961.4711864406779 158.63272727272727L 964.6033898305085 151.3602909090909L 967.735593220339 173.35345454545455L 970.8677966101695 206L 974 206" stroke-width="2.0" fill="none" />
    
        
        
        <text x="45.0" font-family="-apple-system, system-ui, BlinkMacSystemFont, Roboto" y="50.0" dominant-baseline="middle" text-anchor="end" font-size="12" fill="#24292f">27500.0</text>
        
            
            <path stroke="#74838f" stroke-dasharray="10 6" stroke-width="0.5"  d="M 50.0 50.0 L 974.0 50.0" />
        
    
        
        
        <text x="45.0" font-family="-apple-system, system-ui, BlinkMacSystemFont, Roboto" y="81.2" dominant-baseline="middle" text-anchor="end" font-size="12" fill="#24292f">22000.0</text>
        
            
            
            <path stroke="#74838f" stroke-dasharray="10 6" stroke-width="0.5"  d="M 50.0 81.2 L 974.0 81.2" />
        
    
        
        
        <text x="45.0" font-family="-apple-system, system-ui, BlinkMacSystemFont, Roboto" y="112.4" dominant-baseline="middle" text-anchor="end" font-size="12" fill="#24292f">16500.0</text>
        
            
            
            <path stroke="#74838f" stroke-dasharray="10 6" stroke-width="0.5"  d="M 50.0 112.4 L 974.0 112.4" />
        
    
        
        
        <text x="45.0" font-family="-apple-system, system-ui, BlinkMacSystemFont, Roboto" y="143.6" dominant-baseline="middle" text-anchor="end" font-size="12" fill="#24292f">11000.0</text>
        
            
            
            <path stroke="#74838f" stroke-dasharray="10 6" stroke-width="0.5"  d="M 50.0 143.6 L 974.0 143.6" />
        
    
        
        
        <text x="45.0" font-family="-apple-system, system-ui, BlinkMacSystemFont, Roboto" y="174.8" dominant-baseline="middle" text-anchor="end" font-size="12" fill="#24292f">5500.0</text>
        
            
            
            <path stroke="#74838f" stroke-dasharray="10 6" stroke-width="0.5"  d="M 50.0 174.8 L 974.0 174.8" />
        
    
        
        
        <text x="45.0" font-family="-apple-system, system-ui, BlinkMacSystemFont, Roboto" y="206.0" dominant-baseline="middle" text-anchor="end" font-size="12" fill="#24292f">0.0</text>
        
    
    
        
        <path stroke="#74838f"  stroke-width="2.0"  d="M 100.11525423728813 206.0 L 100.11525423728813 214.0" />
        <text x="100.11525423728813" font-family="-apple-system, system-ui, BlinkMacSystemFont, Roboto" y="216.0" dominant-baseline="hanging" text-anchor="middle" font-size="12" fill="#24292f">Mar 2022</text>
    
        
        <path stroke="#74838f"  stroke-width="2.0"  d="M 197.2135593220339 206.0 L 197.2135593220339 214.0" />
        <text x="197.2135593220339" font-family="-apple-system, system-ui, BlinkMacSystemFont, Roboto" y="216.0" dominant-baseline="hanging" text-anchor="middle" font-size="12" fill="#24292f">Apr 2022</text>
    
        
        <path stroke="#74838f"  stroke-width="2.0"  d="M 291.1796610169491 206.0 L 291.1796610169491 214.0" />
        <text x="291.1796610169491" font-family="-apple-system, system-ui, BlinkMacSystemFont, Roboto" y="216.0" dominant-baseline="hanging" text-anchor="middle" font-size="12" fill="#24292f">May 2022</text>
    
        
        <path stroke="#74838f"  stroke-width="2.0"  d="M 388.2779661016949 206.0 L 388.2779661016949 214.0" />
        <text x="388.2779661016949" font-family="-apple-system, system-ui, BlinkMacSystemFont, Roboto" y="216.0" dominant-baseline="hanging" text-anchor="middle" font-size="12" fill="#24292f">Jun 2022</text>
    
        
        <path stroke="#74838f"  stroke-width="2.0"  d="M 482.2440677966102 206.0 L 482.2440677966102 214.0" />
        <text x="482.2440677966102" font-family="-apple-system, system-ui, BlinkMacSystemFont, Roboto" y="216.0" dominant-baseline="hanging" text-anchor="middle" font-size="12" fill="#24292f">Jul 2022</text>
    
        
        <path stroke="#74838f"  stroke-width="2.0"  d="M 579.3423728813559 206.0 L 579.3423728813559 214.0" />
        <text x="579.3423728813559" font-family="-apple-system, system-ui, BlinkMacSystemFont, Roboto" y="216.0" dominant-baseline="hanging" text-anchor="middle" font-size="12" fill="#24292f">Aug 2022</text>
    
        
        <path stroke="#74838f"  stroke-width="2.0"  d="M 676.4406779661017 206.0 L 676.4406779661017 214.0" />
        <text x="676.4406779661017" font-family="-apple-system, system-ui, BlinkMacSystemFont, Roboto" y="216.0" dominant-baseline="hanging" text-anchor="middle" font-size="12" fill="#24292f">Sep 2022</text>
    
        
        <path stroke="#74838f"  stroke-width="2.0"  d="M 770.406779661017 206.0 L 770.406779661017 214.0" />
        <text x="770.406779661017" font-family="-apple-system, system-ui, BlinkMacSystemFont, Roboto" y="216.0" dominant-baseline="hanging" text-anchor="middle" font-size="12" fill="#24292f">Oct 2022</text>
    
        
        <path stroke="#74838f"  stroke-width="2.0"  d="M 867.5050847457627 206.0 L 867.5050847457627 214.0" />
        <text x="867.5050847457627" font-family="-apple-system, system-ui, BlinkMacSystemFont, Roboto" y="216.0" dominant-baseline="hanging" text-anchor="middle" font-size="12" fill="#24292f">Nov 2022</text>
    
        
        <path stroke="#74838f"  stroke-width="2.0"  d="M 961.4711864406779 206.0 L 961.4711864406779 214.0" />
        <text x="961.4711864406779" font-family="-apple-system, system-ui, BlinkMacSystemFont, Roboto" y="216.0" dominant-baseline="hanging" text-anchor="middle" font-size="12" fill="#24292f">Dec 2022</text>
    
    <path stroke="#74838f"   stroke-linejoin="round" stroke-width="2.0" d="M 50.0 216.0 L 50.0 206.0 L 974.0 206.0 L 974.0 216.0"  fill="none" />
    <text x="512.0" y="25.0" font-family="-apple-system, system-ui, BlinkMacSystemFont, Roboto" dominant-baseline="middle" text-anchor="middle" font-size="18" fill="#24292f">Total daily screen name changes</text>
</svg>
