<?xml version="1.0" standalone="no"?>
<svg width="1024.0" height="256.0"  viewBox="0 0 1024.0 256.0" preserveAspectRatio="xMidYMid meet" xmlns="http://www.w3.org/2000/svg">
    <path stroke="#3498db" stroke-linejoin="round" d="M 50.0 203.3394909090909 L 50 203.3394909090909L 51.937106918238996 202.32974545454545L 53.874213836477985 196.86690909090908L 55.81132075471698 195.94792727272727L 57.74842767295598 202.14254545454546L 59.685534591194966 197.35476363636363L 61.62264150943396 191.76145454545454L 63.55974842767296 179.96218181818182L 65.49685534591195 204.09396363636364L 67.43396226415095 194.17236363636363L 69.37106918238993 192.61803636363635L 71.30817610062893 195.1253818181818L 73.24528301886792 193.92843636363637L 75.18238993710692 182.2482909090909L 77.11949685534591 200.86618181818181L 79.05660377358491 201.45614545454546L 80.9937106918239 178.89003636363637L 82.93081761006289 197.33774545454546L 84.86792452830188 198.50065454545455L 86.80503144654088 200.41803636363636L 88.74213836477988 201.18385454545455L 90.67924528301887 202.26734545454545L 92.61635220125785 195.09134545454546L 94.55345911949686 198.08087272727272L 96.49056603773585 183.38850909090908L 98.42767295597484 197.47389090909093L 100.36477987421384 202.01774545454546L 102.30188679245283 194.66021818181818L 104.23899371069183 200.75272727272727L 106.17610062893081 200.00392727272728L 108.11320754716982 201.97236363636364L 110.0503144654088 204.2754909090909L 111.9874213836478 201.74545454545455L 113.9245283018868 201.01367272727273L 115.86163522012578 174.7829818181818L 117.79874213836479 195.76072727272728L 119.73584905660377 204.0032L 121.67295597484278 203.7309090909091L 123.61006289308176 197.87665454545453L 125.54716981132076 202.60770909090908L 127.48427672955975 202.6928L 129.42138364779873 197.55898181818182L 131.35849056603774 186.5141818181818L 133.29559748427673 199.26647272727274L 135.2327044025157 199.5728L 137.16981132075472 193.4802909090909L 139.10691823899373 199.10763636363635L 141.04402515723268 201.54690909090908L 142.9811320754717 201.5696L 144.9182389937107 195.06865454545454L 146.85534591194968 201.70007272727273L 148.79245283018867 197.2866909090909L 150.72955974842768 172.35505454545455L 152.66666666666666 203.20901818181818L 154.60377358490567 199.6749090909091L 156.54088050314465 193.12858181818183L 158.47798742138366 196.8896L 160.41509433962264 199.78836363636364L 162.35220125786162 198.82967272727274L 164.28930817610063 204.1336727272727L 166.22641509433964 202.57934545454546L 168.16352201257862 198.9261090909091L 170.1006289308176 206L 172.03773584905662 204.128L 173.9748427672956 192.1245090909091L 175.91194968553458 206L 177.8490566037736 206L 179.78616352201257 206L 181.72327044025155 206L 183.66037735849056 197.37178181818183L 185.59748427672957 199.57847272727273L 187.53459119496856 188.9024L 189.47169811320754 195.02894545454546L 191.40880503144655 191.20552727272727L 193.34591194968556 166.8128L 195.2830188679245 203.8386909090909L 197.22012578616352 198.09221818181817L 199.15723270440253 201.64334545454545L 201.0943396226415 202.2957090909091L 203.0314465408805 203.22036363636363L 204.9685534591195 200.66763636363635L 206.9056603773585 191.51185454545455L 208.8427672955975 189.18603636363636L 210.77987421383648 203.86705454545455L 212.71698113207546 197.56465454545454L 214.65408805031447 187.32538181818182L 216.59119496855345 201.2349090909091L 218.52830188679243 200.44639999999998L 220.46540880503144 201.4618181818182L 222.40251572327045 201.09876363636363L 224.33962264150944 201.17818181818183L 226.27672955974842 193.02647272727273L 228.21383647798743 198.8069818181818L 230.15094339622644 203.39054545454545L 232.0880503144654 200.30458181818182L 234.0251572327044 198.35883636363636L 235.9622641509434 193.3101090909091L 237.8993710691824 200.56552727272728L 239.83647798742138 203.03883636363636L 241.77358490566039 197.22996363636364L 243.71069182389937 201.95534545454547L 245.64779874213838 196.016L 247.58490566037736 202.30705454545455L 249.52201257861634 199.91316363636363L 251.45911949685535 194.62050909090908L 253.39622641509433 201.29163636363637L 255.33333333333331 202.98778181818182L 257.2704402515723 203.5437090909091L 259.20754716981133 200.60523636363638L 261.1446540880503 195.5621818181818L 263.0817610062893 203.24305454545456L 265.0188679245283 200.15709090909093L 266.9559748427673 198.46661818181818L 268.8930817610063 201.70007272727273L 270.8301886792453 200.70734545454545L 272.7672955974843 200.4293818181818L 274.70440251572325 201.76814545454545L 276.64150943396226 204.6442181818182L 278.57861635220127 206L 280.5157232704403 196.35636363636365L 282.4528301886793 199.21541818181817L 284.3899371069182 156.87418181818182L 286.32704402515725 165.1506909090909L 288.2641509433962 204.1733818181818L 290.2012578616352 202.17658181818183L 292.1383647798742 199.31185454545454L 294.07547169811323 198.7842909090909L 296.0125786163522 202.6757818181818L 297.9496855345912 202.8573090909091L 299.88679245283015 196.1861818181818L 301.82389937106916 199.64654545454545L 303.76100628930817 198.2056727272727L 305.6981132075472 201.2178909090909L 307.63522012578613 201.79083636363637L 309.57232704402514 201.90429090909092L 311.50943396226415 200.1968L 313.4465408805031 195.17076363636363L 315.3836477987422 206L 317.3207547169811 206L 319.2578616352201 206L 321.19496855345915 191.4834909090909L 323.1320754716981 197.79723636363636L 325.0691823899371 198.85236363636363L 327.0062893081761 199.76L 328.9433962264151 200.03796363636363L 330.8805031446541 200.76407272727272L 332.8176100628931 201.80785454545455L 334.75471698113205 191.63098181818182L 336.6918238993711 194.41061818181817L 338.62893081761007 199.88479999999998L 340.566037735849 152.63098181818182L 342.5031446540881 197.04843636363637L 344.44025157232704 194.4730181818182L 346.377358490566 155.90414545454547L 348.31446540880506 91.60945454545454L 350.251572327044 104.5376L 352.188679245283 151.17876363636364L 354.12578616352204 185.1981090909091L 356.062893081761 142.76610909090908L 358 125.0672L 359.937106918239 123.74545454545455L 361.87421383647796 157.99738181818182L 363.811320754717 53.56814545454546L 365.748427672956 50.78850909090909L 367.685534591195 100.02210909090908L 369.62264150943395 156.2445090909091L 371.55974842767296 180.31956363636363L 373.49685534591197 192.43650909090908L 375.4339622641509 193.63912727272728L 377.37106918238993 193.3328L 379.30817610062894 192.11316363636365L 381.2452830188679 197.93338181818183L 383.1823899371069 191.5629090909091L 385.1194968553459 198.7672727272727L 387.05660377358487 199.3005090909091L 388.99371069182394 201.64901818181818L 390.9308176100629 200.58821818181818L 392.86792452830184 202.43752727272727L 394.8050314465409 200.73003636363637L 396.74213836477986 189.7703272727273L 398.6792452830189 203.17498181818183L 400.6163522012579 200.48610909090908L 402.55345911949684 185.1810909090909L 404.49056603773585 187.88698181818182L 406.42767295597486 191.01832727272728L 408.3647798742138 192.31738181818181L 410.3018867924529 177.09745454545455L 412.23899371069183 167.91330909090908L 414.1761006289308 179.30981818181817L 416.11320754716985 186.49716363636364L 418.0503144654088 150.34487272727273L 419.98742138364776 184.27345454545454L 421.9245283018868 199.5104L 423.8616352201258 161.24785454545454L 425.7987421383648 155.49003636363636L 427.7358490566038 176.96130909090908L 429.67295597484275 190.30923636363636L 431.61006289308176 193.50865454545453L 433.54716981132077 201.72843636363638L 435.4842767295597 185.22647272727272L 437.42138364779873 192.03374545454545L 439.35849056603774 192.66909090909093L 441.29559748427675 180.18341818181818L 443.2327044025157 194.5013818181818L 445.1698113207547 194.6829090909091L 447.1069182389937 201.85323636363637L 449.0440251572327 196.2032L 450.9811320754717 204.49105454545455L 452.9182389937107 191.55723636363638L 454.85534591194966 180.36494545454545L 456.79245283018867 193.02647272727273L 458.7295597484277 186.20785454545455L 460.66666666666663 191.72741818181817L 462.6037735849057 191.4834909090909L 464.54088050314465 196.63432727272726L 466.4779874213836 200.7810909090909L 468.41509433962267 176.26923636363637L 470.3522012578616 165.78036363636363L 472.2893081761006 181.82850909090908L 474.22641509433964 160.6976L 476.1635220125786 163.93105454545454L 478.1006289308176 182.10647272727272L 480.0377358490566 130.808L 481.97484276729557 190.49643636363635L 483.91194968553464 202.0914909090909L 485.8490566037736 184.09192727272728L 487.78616352201254 197.50225454545455L 489.7232704402516 187.54094545454547L 491.66037735849056 192.95272727272726L 493.5974842767296 201.88727272727272L 495.5345911949686 184.33585454545454L 497.47169811320754 183.04814545454545L 499.40880503144655 182.36741818181818L 501.34591194968556 182.54327272727272L 503.2830188679245 186.38938181818182L 505.2201257861635 174.3858909090909L 507.15723270440253 183.1786181818182L 509.0943396226415 183.5133090909091L 511.0314465408805 184.60247272727273L 512.9685534591194 186.968L 514.9056603773586 170.00087272727274L 516.8427672955975 167.8338909090909L 518.7798742138364 203.32247272727273L 520.7169811320755 206L 522.6540880503145 128.43112727272728L 524.5911949685534 183.2637090909091L 526.5283018867924 156.8685090909091L 528.4654088050315 183.15592727272727L 530.4025157232704 183.2013090909091L 532.3396226415094 182.25963636363636L 534.2767295597484 170.18807272727273L 536.2138364779873 186.86589090909092L 538.1509433962265 183.77425454545454L 540.0880503144654 186.29861818181817L 542.0251572327044 184.17134545454545L 543.9622641509434 184.9655272727273L 545.8993710691824 178.1696L 547.8364779874214 180.70530909090908L 549.7735849056603 170.80072727272727L 551.7106918238994 177.99374545454546L 553.6477987421383 175.99127272727273L 555.5849056603773 173.75621818181818L 557.5220125786163 175.45803636363638L 559.4591194968552 196.91796363636365L 561.3962264150944 150.30516363636363L 563.3333333333334 167.34036363636363L 565.2704402515723 174.52203636363637L 567.2075471698113 132.05599999999998L 569.1446540880503 144.8309818181818L 571.0817610062893 173.60872727272726L 573.0188679245283 151.91054545454546L 574.9559748427673 194.03621818181819L 576.8930817610062 160.59549090909093L 578.8301886792452 206L 580.7672955974843 153.43650909090908L 582.7044025157232 181.01163636363637L 584.6415094339623 181.6413090909091L 586.5786163522013 182.49221818181817L 588.5157232704402 183.08785454545455L 590.4528301886792 206L 592.3899371069183 151.86516363636363L 594.3270440251573 172.45716363636365L 596.2641509433962 169.20669090909092L 598.2012578616352 178.22065454545455L 600.1383647798742 175.54312727272728L 602.0754716981132 177.61367272727273L 604.0125786163522 181.0173090909091L 605.9496855345913 176.80814545454547L 607.8867924528302 167.8962909090909L 609.8238993710692 167.1248L 611.7610062893082 176.62094545454545L 613.6981132075472 158.63272727272727L 615.6352201257862 151.3602909090909L 617.5723270440252 173.35345454545455L 619.5094339622641 206L 621.4465408805031 206L 623.3836477987422 206L 625.3207547169811 206L 627.2578616352201 206L 629.1949685534591 206L 631.132075471698 206L 633.0691823899372 206L 635.0062893081762 206L 636.9433962264151 206L 638.8805031446541 206L 640.8176100628931 206L 642.754716981132 206L 644.6918238993711 206L 646.6289308176101 206L 648.566037735849 206L 650.503144654088 206L 652.440251572327 206L 654.377358490566 206L 656.3144654088051 206L 658.2515723270441 206L 660.188679245283 206L 662.125786163522 206L 664.062893081761 206L 666 206L 667.937106918239 206L 669.874213836478 206L 671.8113207547169 206L 673.7484276729559 206L 675.685534591195 206L 677.622641509434 206L 679.559748427673 206L 681.496855345912 206L 683.4339622641509 206L 685.37106918239 206L 687.308176100629 206L 689.2452830188679 206L 691.1823899371069 206L 693.1194968553459 206L 695.0566037735848 206L 696.9937106918239 206L 698.930817610063 206L 700.8679245283018 206L 702.8050314465409 206L 704.7421383647799 206L 706.6792452830189 206L 708.6163522012579 206L 710.5534591194969 206L 712.4905660377358 206L 714.4276729559748 206L 716.3647798742138 206L 718.3018867924528 206L 720.2389937106918 206L 722.1761006289308 206L 724.1132075471697 206L 726.0503144654087 206L 727.9874213836479 206L 729.9245283018868 206L 731.8616352201258 206L 733.7987421383648 206L 735.7358490566037 206L 737.6729559748428 206L 739.6100628930818 206L 741.5471698113207 206L 743.4842767295597 206L 745.4213836477987 206L 747.3584905660377 206L 749.2955974842768 206L 751.2327044025158 206L 753.1698113207548 206L 755.1069182389937 206L 757.0440251572327 206L 758.9811320754717 206L 760.9182389937107 206L 762.8553459119497 206L 764.7924528301887 206L 766.7295597484276 206L 768.6666666666666 206L 770.6037735849058 206L 772.5408805031446 206L 774.4779874213837 206L 776.4150943396227 206L 778.3522012578616 206L 780.2893081761007 206L 782.2264150943397 206L 784.1635220125786 206L 786.1006289308176 206L 788.0377358490566 206L 789.9748427672955 206L 791.9119496855346 206L 793.8490566037736 206L 795.7861635220125 206L 797.7232704402516 206L 799.6603773584906 206L 801.5974842767296 206L 803.5345911949686 206L 805.4716981132076 206L 807.4088050314465 206L 809.3459119496855 206L 811.2830188679245 206L 813.2201257861635 206L 815.1572327044025 206L 817.0943396226415 206L 819.0314465408804 206L 820.9685534591194 206L 822.9056603773586 206L 824.8427672955975 206L 826.7798742138365 206L 828.7169811320755 206L 830.6540880503144 206L 832.5911949685535 206L 834.5283018867925 206L 836.4654088050314 206L 838.4025157232704 206L 840.3396226415094 206L 842.2767295597483 206L 844.2138364779875 206L 846.1509433962265 206L 848.0880503144654 206L 850.0251572327044 206L 851.9622641509434 206L 853.8993710691824 206L 855.8364779874214 206L 857.7735849056604 206L 859.7106918238993 206L 861.6477987421383 206L 863.5849056603773 206L 865.5220125786163 206L 867.4591194968554 206L 869.3962264150944 206L 871.3333333333333 206L 873.2704402515723 206L 875.2075471698114 206L 877.1446540880503 206L 879.0817610062893 206L 881.0188679245283 206L 882.9559748427672 206L 884.8930817610063 206L 886.8301886792453 206L 888.7672955974842 206L 890.7044025157232 206L 892.6415094339623 206L 894.5786163522012 206L 896.5157232704403 206L 898.4528301886793 206L 900.3899371069183 206L 902.3270440251572 206L 904.2641509433962 206L 906.2012578616352 206L 908.1383647798742 206L 910.0754716981132 206L 912.0125786163522 206L 913.9496855345911 206L 915.8867924528302 206L 917.8238993710693 206L 919.7610062893082 206L 921.6981132075472 206L 923.6352201257862 206L 925.5723270440251 206L 927.5094339622642 206L 929.4465408805032 206L 931.3836477987421 206L 933.3207547169811 206L 935.2578616352201 206L 937.1949685534591 206L 939.1320754716982 206L 941.0691823899372 206L 943.0062893081761 206L 944.9433962264151 206L 946.8805031446541 206L 948.8176100628931 206L 950.7547169811321 206L 952.6918238993711 206L 954.62893081761 206L 956.566037735849 206L 958.503144654088 206L 960.440251572327 206L 962.377358490566 206L 964.3144654088051 206L 966.251572327044 206L 968.188679245283 206L 970.1257861635221 206L 972.062893081761 206L 974 206" stroke-width="2.0" fill="none" />
    
        
        
        <text x="45.0" font-family="-apple-system, system-ui, BlinkMacSystemFont, Roboto" y="50.0" dominant-baseline="middle" text-anchor="end" font-size="12" fill="#24292f">27500.0</text>
        
            
            <path stroke="#74838f" stroke-dasharray="10 6" stroke-width="0.5"  d="M 50.0 50.0 L 974.0 50.0" />
        
    
        
        
        <text x="45.0" font-family="-apple-system, system-ui, BlinkMacSystemFont, Roboto" y="81.2" dominant-baseline="middle" text-anchor="end" font-size="12" fill="#24292f">22000.0</text>
        
            
            
            <path stroke="#74838f" stroke-dasharray="10 6" stroke-width="0.5"  d="M 50.0 81.2 L 974.0 81.2" />
        
    
        
        
        <text x="45.0" font-family="-apple-system, system-ui, BlinkMacSystemFont, Roboto" y="112.4" dominant-baseline="middle" text-anchor="end" font-size="12" fill="#24292f">16500.0</text>
        
            
            
            <path stroke="#74838f" stroke-dasharray="10 6" stroke-width="0.5"  d="M 50.0 112.4 L 974.0 112.4" />
        
    
        
        
        <text x="45.0" font-family="-apple-system, system-ui, BlinkMacSystemFont, Roboto" y="143.6" dominant-baseline="middle" text-anchor="end" font-size="12" fill="#24292f">11000.0</text>
        
            
            
            <path stroke="#74838f" stroke-dasharray="10 6" stroke-width="0.5"  d="M 50.0 143.6 L 974.0 143.6" />
        
    
        
        
        <text x="45.0" font-family="-apple-system, system-ui, BlinkMacSystemFont, Roboto" y="174.8" dominant-baseline="middle" text-anchor="end" font-size="12" fill="#24292f">5500.0</text>
        
            
            
            <path stroke="#74838f" stroke-dasharray="10 6" stroke-width="0.5"  d="M 50.0 174.8 L 974.0 174.8" />
        
    
        
        
        <text x="45.0" font-family="-apple-system, system-ui, BlinkMacSystemFont, Roboto" y="206.0" dominant-baseline="middle" text-anchor="end" font-size="12" fill="#24292f">0.0</text>
        
    
    
        
        <path stroke="#74838f"  stroke-width="2.0"  d="M 80.9937106918239 206.0 L 80.9937106918239 214.0" />
        <text x="80.9937106918239" font-family="-apple-system, system-ui, BlinkMacSystemFont, Roboto" y="216.0" dominant-baseline="hanging" text-anchor="middle" font-size="12" fill="#24292f">Mar 2022</text>
    
        
        <path stroke="#74838f"  stroke-width="2.0"  d="M 141.04402515723268 206.0 L 141.04402515723268 214.0" />
        <text x="141.04402515723268" font-family="-apple-system, system-ui, BlinkMacSystemFont, Roboto" y="216.0" dominant-baseline="hanging" text-anchor="middle" font-size="12" fill="#24292f">Apr 2022</text>
    
        
        <path stroke="#74838f"  stroke-width="2.0"  d="M 199.15723270440253 206.0 L 199.15723270440253 214.0" />
        <text x="199.15723270440253" font-family="-apple-system, system-ui, BlinkMacSystemFont, Roboto" y="216.0" dominant-baseline="hanging" text-anchor="middle" font-size="12" fill="#24292f">May 2022</text>
    
        
        <path stroke="#74838f"  stroke-width="2.0"  d="M 259.20754716981133 206.0 L 259.20754716981133 214.0" />
        <text x="259.20754716981133" font-family="-apple-system, system-ui, BlinkMacSystemFont, Roboto" y="216.0" dominant-baseline="hanging" text-anchor="middle" font-size="12" fill="#24292f">Jun 2022</text>
    
        
        <path stroke="#74838f"  stroke-width="2.0"  d="M 317.3207547169811 206.0 L 317.3207547169811 214.0" />
        <text x="317.3207547169811" font-family="-apple-system, system-ui, BlinkMacSystemFont, Roboto" y="216.0" dominant-baseline="hanging" text-anchor="middle" font-size="12" fill="#24292f">Jul 2022</text>
    
        
        <path stroke="#74838f"  stroke-width="2.0"  d="M 377.37106918238993 206.0 L 377.37106918238993 214.0" />
        <text x="377.37106918238993" font-family="-apple-system, system-ui, BlinkMacSystemFont, Roboto" y="216.0" dominant-baseline="hanging" text-anchor="middle" font-size="12" fill="#24292f">Aug 2022</text>
    
        
        <path stroke="#74838f"  stroke-width="2.0"  d="M 437.42138364779873 206.0 L 437.42138364779873 214.0" />
        <text x="437.42138364779873" font-family="-apple-system, system-ui, BlinkMacSystemFont, Roboto" y="216.0" dominant-baseline="hanging" text-anchor="middle" font-size="12" fill="#24292f">Sep 2022</text>
    
        
        <path stroke="#74838f"  stroke-width="2.0"  d="M 495.5345911949686 206.0 L 495.5345911949686 214.0" />
        <text x="495.5345911949686" font-family="-apple-system, system-ui, BlinkMacSystemFont, Roboto" y="216.0" dominant-baseline="hanging" text-anchor="middle" font-size="12" fill="#24292f">Oct 2022</text>
    
        
        <path stroke="#74838f"  stroke-width="2.0"  d="M 555.5849056603773 206.0 L 555.5849056603773 214.0" />
        <text x="555.5849056603773" font-family="-apple-system, system-ui, BlinkMacSystemFont, Roboto" y="216.0" dominant-baseline="hanging" text-anchor="middle" font-size="12" fill="#24292f">Nov 2022</text>
    
        
        <path stroke="#74838f"  stroke-width="2.0"  d="M 613.6981132075472 206.0 L 613.6981132075472 214.0" />
        <text x="613.6981132075472" font-family="-apple-system, system-ui, BlinkMacSystemFont, Roboto" y="216.0" dominant-baseline="hanging" text-anchor="middle" font-size="12" fill="#24292f">Dec 2022</text>
    
        
        <path stroke="#74838f"  stroke-width="2.0"  d="M 673.7484276729559 206.0 L 673.7484276729559 214.0" />
        <text x="673.7484276729559" font-family="-apple-system, system-ui, BlinkMacSystemFont, Roboto" y="216.0" dominant-baseline="hanging" text-anchor="middle" font-size="12" fill="#24292f">Jan 2023</text>
    
        
        <path stroke="#74838f"  stroke-width="2.0"  d="M 733.7987421383648 206.0 L 733.7987421383648 214.0" />
        <text x="733.7987421383648" font-family="-apple-system, system-ui, BlinkMacSystemFont, Roboto" y="216.0" dominant-baseline="hanging" text-anchor="middle" font-size="12" fill="#24292f">Feb 2023</text>
    
        
        <path stroke="#74838f"  stroke-width="2.0"  d="M 788.0377358490566 206.0 L 788.0377358490566 214.0" />
        <text x="788.0377358490566" font-family="-apple-system, system-ui, BlinkMacSystemFont, Roboto" y="216.0" dominant-baseline="hanging" text-anchor="middle" font-size="12" fill="#24292f">Mar 2023</text>
    
        
        <path stroke="#74838f"  stroke-width="2.0"  d="M 848.0880503144654 206.0 L 848.0880503144654 214.0" />
        <text x="848.0880503144654" font-family="-apple-system, system-ui, BlinkMacSystemFont, Roboto" y="216.0" dominant-baseline="hanging" text-anchor="middle" font-size="12" fill="#24292f">Apr 2023</text>
    
        
        <path stroke="#74838f"  stroke-width="2.0"  d="M 906.2012578616352 206.0 L 906.2012578616352 214.0" />
        <text x="906.2012578616352" font-family="-apple-system, system-ui, BlinkMacSystemFont, Roboto" y="216.0" dominant-baseline="hanging" text-anchor="middle" font-size="12" fill="#24292f">May 2023</text>
    
        
        <path stroke="#74838f"  stroke-width="2.0"  d="M 966.251572327044 206.0 L 966.251572327044 214.0" />
        <text x="966.251572327044" font-family="-apple-system, system-ui, BlinkMacSystemFont, Roboto" y="216.0" dominant-baseline="hanging" text-anchor="middle" font-size="12" fill="#24292f">Jun 2023</text>
    
    <path stroke="#74838f"   stroke-linejoin="round" stroke-width="2.0" d="M 50.0 216.0 L 50.0 206.0 L 974.0 206.0 L 974.0 216.0"  fill="none" />
    <text x="512.0" y="25.0" font-family="-apple-system, system-ui, BlinkMacSystemFont, Roboto" dominant-baseline="middle" text-anchor="middle" font-size="18" fill="#24292f">Total daily screen name changes</text>
</svg>
