<?xml version="1.0" standalone="no"?>
<svg width="1024.0" height="256.0"  viewBox="0 0 1024.0 256.0" preserveAspectRatio="xMidYMid meet" xmlns="http://www.w3.org/2000/svg">
    <path stroke="#3498db" stroke-linejoin="round" d="M 50.0 203.3394909090909 L 50 203.3394909090909L 51.95348837209303 202.32974545454545L 53.906976744186046 196.86690909090908L 55.86046511627907 195.94792727272727L 57.81395348837209 202.14254545454546L 59.76744186046511 197.35476363636363L 61.72093023255814 191.76145454545454L 63.674418604651166 179.96218181818182L 65.62790697674419 204.09396363636364L 67.5813953488372 194.17236363636363L 69.53488372093022 192.61803636363635L 71.48837209302326 195.1253818181818L 73.44186046511628 193.92843636363637L 75.3953488372093 182.2482909090909L 77.34883720930233 200.86618181818181L 79.30232558139535 201.45614545454546L 81.25581395348837 178.89003636363637L 83.20930232558139 197.33774545454546L 85.16279069767441 198.50065454545455L 87.11627906976744 200.41803636363636L 89.06976744186046 201.18385454545455L 91.02325581395348 202.26734545454545L 92.97674418604652 195.09134545454546L 94.93023255813954 198.08087272727272L 96.88372093023256 183.38850909090908L 98.83720930232559 197.47389090909093L 100.7906976744186 202.01774545454546L 102.74418604651163 194.66021818181818L 104.69767441860465 200.75272727272727L 106.65116279069767 200.00392727272728L 108.6046511627907 201.97236363636364L 110.55813953488374 204.2754909090909L 112.51162790697674 201.74545454545455L 114.46511627906976 201.01367272727273L 116.41860465116278 174.7829818181818L 118.37209302325581 195.76072727272728L 120.32558139534883 204.0032L 122.27906976744185 203.7309090909091L 124.23255813953487 197.87665454545453L 126.18604651162791 202.60770909090908L 128.13953488372093 202.6928L 130.09302325581393 197.55898181818182L 132.04651162790697 186.5141818181818L 134 199.26647272727274L 135.95348837209303 199.5728L 137.90697674418604 193.4802909090909L 139.86046511627907 199.10763636363635L 141.81395348837208 201.54690909090908L 143.7674418604651 201.5696L 145.72093023255815 195.06865454545454L 147.67441860465118 201.70007272727273L 149.62790697674419 197.2866909090909L 151.5813953488372 172.35505454545455L 153.53488372093022 203.20901818181818L 155.48837209302326 199.6749090909091L 157.4418604651163 193.12858181818183L 159.3953488372093 196.8896L 161.34883720930233 199.78836363636364L 163.30232558139534 198.82967272727274L 165.25581395348837 204.1336727272727L 167.2093023255814 202.57934545454546L 169.1627906976744 198.9261090909091L 171.11627906976747 206L 173.06976744186048 204.128L 175.02325581395348 192.1245090909091L 176.97674418604652 206L 178.93023255813952 206L 180.88372093023256 206L 182.83720930232556 206L 184.7906976744186 197.37178181818183L 186.74418604651163 199.57847272727273L 188.69767441860466 188.9024L 190.65116279069767 195.02894545454546L 192.6046511627907 191.20552727272727L 194.5581395348837 166.8128L 196.51162790697674 203.8386909090909L 198.46511627906975 198.09221818181817L 200.4186046511628 201.64334545454545L 202.37209302325581 202.2957090909091L 204.32558139534885 203.22036363636363L 206.27906976744185 200.66763636363635L 208.2325581395349 191.51185454545455L 210.1860465116279 189.18603636363636L 212.13953488372093 203.86705454545455L 214.09302325581396 197.56465454545454L 216.046511627907 187.32538181818182L 218 201.2349090909091L 219.95348837209303 200.44639999999998L 221.90697674418604 201.4618181818182L 223.86046511627907 201.09876363636363L 225.81395348837208 201.17818181818183L 227.76744186046514 193.02647272727273L 229.72093023255815 198.8069818181818L 231.67441860465118 203.39054545454545L 233.62790697674419 200.30458181818182L 235.58139534883722 198.35883636363636L 237.53488372093022 193.3101090909091L 239.48837209302326 200.56552727272728L 241.44186046511626 203.03883636363636L 243.39534883720933 197.22996363636364L 245.34883720930233 201.95534545454547L 247.30232558139537 196.016L 249.25581395348837 202.30705454545455L 251.2093023255814 199.91316363636363L 253.1627906976744 194.62050909090908L 255.11627906976744 201.29163636363637L 257.06976744186045 202.98778181818182L 259.0232558139535 203.5437090909091L 260.9767441860465 200.60523636363638L 262.93023255813955 195.5621818181818L 264.8837209302326 203.24305454545456L 266.83720930232556 200.15709090909093L 268.7906976744186 198.46661818181818L 270.74418604651163 201.70007272727273L 272.69767441860466 200.70734545454545L 274.65116279069764 200.4293818181818L 276.6046511627907 201.76814545454545L 278.5581395348837 204.6442181818182L 280.51162790697674 206L 282.4651162790698 196.35636363636365L 284.4186046511628 199.21541818181817L 286.37209302325584 156.87418181818182L 288.3255813953488 165.1506909090909L 290.27906976744185 204.1733818181818L 292.23255813953494 202.17658181818183L 294.18604651162786 199.31185454545454L 296.13953488372096 198.7842909090909L 298.09302325581393 202.6757818181818L 300.04651162790697 202.8573090909091L 302 196.1861818181818L 303.95348837209303 199.64654545454545L 305.90697674418607 198.2056727272727L 307.86046511627904 201.2178909090909L 309.81395348837214 201.79083636363637L 311.7674418604651 201.90429090909092L 313.72093023255815 200.1968L 315.6744186046511 195.17076363636363L 317.6279069767442 206L 319.5813953488372 206L 321.5348837209302 206L 323.48837209302326 191.4834909090909L 325.4418604651163 197.79723636363636L 327.3953488372093 198.85236363636363L 329.3488372093023 199.76L 331.30232558139534 200.03796363636363L 333.25581395348837 200.76407272727272L 335.2093023255814 201.80785454545455L 337.16279069767444 191.63098181818182L 339.1162790697674 194.41061818181817L 341.0697674418605 199.88479999999998L 343.0232558139535 152.63098181818182L 344.9767441860465 197.04843636363637L 346.9302325581395 194.4730181818182L 348.8837209302326 155.90414545454547L 350.8372093023256 91.60945454545454L 352.7906976744186 104.5376L 354.74418604651163 151.17876363636364L 356.69767441860466 185.1981090909091L 358.6511627906977 142.76610909090908L 360.6046511627907 125.0672L 362.5581395348837 123.74545454545455L 364.51162790697674 157.99738181818182L 366.4651162790698 53.56814545454546L 368.4186046511628 50.78850909090909L 370.3720930232558 100.02210909090908L 372.3255813953488 156.2445090909091L 374.27906976744185 180.31956363636363L 376.2325581395349 192.43650909090908L 378.1860465116279 193.63912727272728L 380.1395348837209 193.3328L 382.093023255814 192.11316363636365L 384.04651162790697 197.93338181818183L 386 191.5629090909091L 387.953488372093 198.7672727272727L 389.90697674418607 199.3005090909091L 391.8604651162791 201.64901818181818L 393.8139534883721 200.58821818181818L 395.7674418604651 202.43752727272727L 397.72093023255815 200.73003636363637L 399.6744186046512 189.7703272727273L 401.62790697674416 203.17498181818183L 403.5813953488372 200.48610909090908L 405.5348837209303 185.1810909090909L 407.48837209302326 187.88698181818182L 409.4418604651163 191.01832727272728L 411.39534883720927 192.31738181818181L 413.34883720930236 177.09745454545455L 415.30232558139534 167.91330909090908L 417.25581395348837 179.30981818181817L 419.20930232558135 186.49716363636364L 421.16279069767444 150.34487272727273L 423.1162790697675 184.27345454545454L 425.06976744186045 199.5104L 427.0232558139535 161.24785454545454L 428.9767441860465 155.49003636363636L 430.93023255813955 176.96130909090908L 432.8837209302325 190.30923636363636L 434.83720930232556 193.50865454545453L 436.79069767441865 201.72843636363638L 438.74418604651163 185.22647272727272L 440.69767441860466 192.03374545454545L 442.65116279069764 192.66909090909093L 444.60465116279073 180.18341818181818L 446.5581395348837 194.5013818181818L 448.51162790697674 194.6829090909091L 450.4651162790698 201.85323636363637L 452.4186046511628 196.2032L 454.37209302325584 204.49105454545455L 456.3255813953488 191.55723636363638L 458.27906976744185 180.36494545454545L 460.2325581395349 193.02647272727273L 462.1860465116279 186.20785454545455L 464.13953488372096 191.72741818181817L 466.09302325581393 191.4834909090909L 468.04651162790697 196.63432727272726L 470 200.7810909090909L 471.95348837209303 176.26923636363637L 473.906976744186 165.78036363636363L 475.86046511627904 181.82850909090908L 477.81395348837214 160.6976L 479.7674418604651 163.93105454545454L 481.72093023255815 182.10647272727272L 483.6744186046511 130.808L 485.6279069767442 190.49643636363635L 487.5813953488372 202.0914909090909L 489.5348837209302 184.09192727272728L 491.48837209302326 197.50225454545455L 493.4418604651163 187.54094545454547L 495.3953488372093 192.95272727272726L 497.3488372093023 201.88727272727272L 499.30232558139534 184.33585454545454L 501.25581395348837 183.04814545454545L 503.2093023255814 182.36741818181818L 505.16279069767444 182.54327272727272L 507.1162790697674 186.38938181818182L 509.0697674418605 174.3858909090909L 511.0232558139535 183.1786181818182L 512.9767441860465 183.5133090909091L 514.9302325581396 184.60247272727273L 516.8837209302326 186.968L 518.8372093023256 170.00087272727274L 520.7906976744187 167.8338909090909L 522.7441860465117 203.32247272727273L 524.6976744186047 206L 526.6511627906976 128.43112727272728L 528.6046511627907 183.2637090909091L 530.5581395348837 156.8685090909091L 532.5116279069769 183.15592727272727L 534.4651162790699 183.2013090909091L 536.4186046511627 182.25963636363636L 538.3720930232557 170.18807272727273L 540.3255813953489 186.86589090909092L 542.2790697674419 183.77425454545454L 544.2325581395348 186.29861818181817L 546.1860465116279 184.17134545454545L 548.1395348837209 184.9655272727273L 550.0930232558139 178.1696L 552.046511627907 180.70530909090908L 554 170.80072727272727L 555.953488372093 177.99374545454546L 557.9069767441861 175.99127272727273L 559.8604651162791 173.75621818181818L 561.8139534883721 175.45803636363638L 563.767441860465 196.91796363636365L 565.7209302325581 150.30516363636363L 567.6744186046511 167.34036363636363L 569.6279069767443 174.52203636363637L 571.5813953488372 132.05599999999998L 573.5348837209302 144.8309818181818L 575.4883720930233 173.60872727272726L 577.4418604651163 151.91054545454546L 579.3953488372093 194.03621818181819L 581.3488372093022 160.59549090909093L 583.3023255813953 206L 585.2558139534884 153.43650909090908L 587.2093023255815 181.01163636363637L 589.1627906976744 181.6413090909091L 591.1162790697674 182.49221818181817L 593.0697674418604 183.08785454545455L 595.0232558139535 206L 596.9767441860465 151.86516363636363L 598.9302325581394 172.45716363636365L 600.8837209302326 169.20669090909092L 602.8372093023256 178.22065454545455L 604.7906976744187 175.54312727272728L 606.7441860465117 177.61367272727273L 608.6976744186046 181.0173090909091L 610.6511627906976 176.80814545454547L 612.6046511627907 167.8962909090909L 614.5581395348837 167.1248L 616.5116279069767 176.62094545454545L 618.4651162790698 158.63272727272727L 620.4186046511628 151.3602909090909L 622.3720930232558 173.35345454545455L 624.3255813953489 206L 626.2790697674418 206L 628.2325581395348 206L 630.1860465116279 206L 632.139534883721 206L 634.093023255814 206L 636.046511627907 206L 638 206L 639.953488372093 206L 641.9069767441861 206L 643.860465116279 206L 645.813953488372 206L 647.7674418604652 206L 649.7209302325582 206L 651.6744186046512 206L 653.6279069767442 206L 655.5813953488372 206L 657.5348837209302 206L 659.4883720930233 206L 661.4418604651163 206L 663.3953488372093 206L 665.3488372093024 206L 667.3023255813954 206L 669.2558139534884 206L 671.2093023255813 206L 673.1627906976744 206L 675.1162790697674 206L 677.0697674418604 206L 679.0232558139535 206L 680.9767441860465 206L 682.9302325581396 206L 684.8837209302326 206L 686.8372093023256 206L 688.7906976744185 206L 690.7441860465116 206L 692.6976744186046 206L 694.6511627906976 206L 696.6046511627908 206L 698.5581395348837 206L 700.5116279069767 206L 702.4651162790698 206L 704.4186046511628 206L 706.3720930232558 206L 708.3255813953488 206L 710.2790697674418 206L 712.232558139535 206L 714.186046511628 206L 716.1395348837209 206L 718.0930232558139 206L 720.046511627907 206L 722 206L 723.953488372093 206L 725.906976744186 206L 727.8604651162791 206L 729.8139534883721 206L 731.7674418604652 206L 733.7209302325582 206L 735.6744186046511 206L 737.6279069767442 206L 739.5813953488372 206L 741.5348837209302 206L 743.4883720930233 206L 745.4418604651163 206L 747.3953488372093 206L 749.3488372093024 206L 751.3023255813954 206L 753.2558139534883 206L 755.2093023255813 206L 757.1627906976744 206L 759.1162790697674 206L 761.0697674418606 206L 763.0232558139535 206L 764.9767441860465 206L 766.9302325581396 206L 768.8837209302326 206L 770.8372093023255 206L 772.7906976744185 206L 774.7441860465116 206L 776.6976744186047 206L 778.6511627906978 206L 780.6046511627907 206L 782.5581395348837 206L 784.5116279069767 206L 786.4651162790698 206L 788.4186046511627 206L 790.3720930232557 206L 792.3255813953489 206L 794.2790697674419 206L 796.232558139535 206L 798.1860465116279 206L 800.1395348837209 206L 802.0930232558139 206L 804.046511627907 206L 806 206L 807.953488372093 206L 809.9069767441861 206L 811.8604651162791 206L 813.8139534883721 206L 815.767441860465 206L 817.7209302325581 206L 819.6744186046511 206L 821.6279069767442 206L 823.5813953488373 206L 825.5348837209302 206L 827.4883720930233 206L 829.4418604651163 206L 831.3953488372093 206L 833.3488372093024 206L 835.3023255813953 206L 837.2558139534883 206L 839.2093023255815 206L 841.1627906976745 206L 843.1162790697674 206L 845.0697674418604 206L 847.0232558139535 206L 848.9767441860465 206L 850.9302325581396 206L 852.8837209302325 206L 854.8372093023256 206L 856.7906976744187 206L 858.7441860465117 206L 860.6976744186047 206L 862.6511627906976 206L 864.6046511627907 206L 866.5581395348837 206L 868.5116279069767 206L 870.4651162790698 206L 872.4186046511628 206L 874.3720930232558 206L 876.3255813953489 206L 878.2790697674419 206L 880.2325581395348 206L 882.1860465116279 206L 884.1395348837209 206L 886.0930232558139 206L 888.046511627907 206L 890 206L 891.953488372093 206L 893.9069767441861 206L 895.8604651162791 206L 897.813953488372 206L 899.767441860465 206L 901.7209302325581 206L 903.6744186046512 206L 905.6279069767443 206L 907.5813953488372 206L 909.5348837209302 206L 911.4883720930233 206L 913.4418604651163 206L 915.3953488372092 206L 917.3488372093022 206L 919.3023255813954 206L 921.2558139534884 206L 923.2093023255815 206L 925.1627906976744 206L 927.1162790697674 206L 929.0697674418604 206L 931.0232558139535 206L 932.9767441860465 206L 934.9302325581396 206L 936.8837209302326 206L 938.8372093023256 206L 940.7906976744187 206L 942.7441860465116 206L 944.6976744186046 206L 946.6511627906976 206L 948.6046511627907 206L 950.5581395348837 206L 952.5116279069767 206L 954.4651162790698 206L 956.4186046511628 206L 958.3720930232558 206L 960.3255813953489 206L 962.2790697674418 206L 964.2325581395348 206L 966.1860465116279 206L 968.139534883721 206L 970.0930232558139 206L 972.046511627907 206L 974 206" stroke-width="2.0" fill="none" />
    
        
        
        <text x="45.0" font-family="-apple-system, system-ui, BlinkMacSystemFont, Roboto" y="50.0" dominant-baseline="middle" text-anchor="end" font-size="12" fill="#24292f">27500.0</text>
        
            
            <path stroke="#74838f" stroke-dasharray="10 6" stroke-width="0.5"  d="M 50.0 50.0 L 974.0 50.0" />
        
    
        
        
        <text x="45.0" font-family="-apple-system, system-ui, BlinkMacSystemFont, Roboto" y="81.2" dominant-baseline="middle" text-anchor="end" font-size="12" fill="#24292f">22000.0</text>
        
            
            
            <path stroke="#74838f" stroke-dasharray="10 6" stroke-width="0.5"  d="M 50.0 81.2 L 974.0 81.2" />
        
    
        
        
        <text x="45.0" font-family="-apple-system, system-ui, BlinkMacSystemFont, Roboto" y="112.4" dominant-baseline="middle" text-anchor="end" font-size="12" fill="#24292f">16500.0</text>
        
            
            
            <path stroke="#74838f" stroke-dasharray="10 6" stroke-width="0.5"  d="M 50.0 112.4 L 974.0 112.4" />
        
    
        
        
        <text x="45.0" font-family="-apple-system, system-ui, BlinkMacSystemFont, Roboto" y="143.6" dominant-baseline="middle" text-anchor="end" font-size="12" fill="#24292f">11000.0</text>
        
            
            
            <path stroke="#74838f" stroke-dasharray="10 6" stroke-width="0.5"  d="M 50.0 143.6 L 974.0 143.6" />
        
    
        
        
        <text x="45.0" font-family="-apple-system, system-ui, BlinkMacSystemFont, Roboto" y="174.8" dominant-baseline="middle" text-anchor="end" font-size="12" fill="#24292f">5500.0</text>
        
            
            
            <path stroke="#74838f" stroke-dasharray="10 6" stroke-width="0.5"  d="M 50.0 174.8 L 974.0 174.8" />
        
    
        
        
        <text x="45.0" font-family="-apple-system, system-ui, BlinkMacSystemFont, Roboto" y="206.0" dominant-baseline="middle" text-anchor="end" font-size="12" fill="#24292f">0.0</text>
        
    
    
        
        <path stroke="#74838f"  stroke-width="2.0"  d="M 81.25581395348837 206.0 L 81.25581395348837 214.0" />
        <text x="81.25581395348837" font-family="-apple-system, system-ui, BlinkMacSystemFont, Roboto" y="216.0" dominant-baseline="hanging" text-anchor="middle" font-size="12" fill="#24292f">Mar 2022</text>
    
        
        <path stroke="#74838f"  stroke-width="2.0"  d="M 141.81395348837208 206.0 L 141.81395348837208 214.0" />
        <text x="141.81395348837208" font-family="-apple-system, system-ui, BlinkMacSystemFont, Roboto" y="216.0" dominant-baseline="hanging" text-anchor="middle" font-size="12" fill="#24292f">Apr 2022</text>
    
        
        <path stroke="#74838f"  stroke-width="2.0"  d="M 200.4186046511628 206.0 L 200.4186046511628 214.0" />
        <text x="200.4186046511628" font-family="-apple-system, system-ui, BlinkMacSystemFont, Roboto" y="216.0" dominant-baseline="hanging" text-anchor="middle" font-size="12" fill="#24292f">May 2022</text>
    
        
        <path stroke="#74838f"  stroke-width="2.0"  d="M 260.9767441860465 206.0 L 260.9767441860465 214.0" />
        <text x="260.9767441860465" font-family="-apple-system, system-ui, BlinkMacSystemFont, Roboto" y="216.0" dominant-baseline="hanging" text-anchor="middle" font-size="12" fill="#24292f">Jun 2022</text>
    
        
        <path stroke="#74838f"  stroke-width="2.0"  d="M 319.5813953488372 206.0 L 319.5813953488372 214.0" />
        <text x="319.5813953488372" font-family="-apple-system, system-ui, BlinkMacSystemFont, Roboto" y="216.0" dominant-baseline="hanging" text-anchor="middle" font-size="12" fill="#24292f">Jul 2022</text>
    
        
        <path stroke="#74838f"  stroke-width="2.0"  d="M 380.1395348837209 206.0 L 380.1395348837209 214.0" />
        <text x="380.1395348837209" font-family="-apple-system, system-ui, BlinkMacSystemFont, Roboto" y="216.0" dominant-baseline="hanging" text-anchor="middle" font-size="12" fill="#24292f">Aug 2022</text>
    
        
        <path stroke="#74838f"  stroke-width="2.0"  d="M 440.69767441860466 206.0 L 440.69767441860466 214.0" />
        <text x="440.69767441860466" font-family="-apple-system, system-ui, BlinkMacSystemFont, Roboto" y="216.0" dominant-baseline="hanging" text-anchor="middle" font-size="12" fill="#24292f">Sep 2022</text>
    
        
        <path stroke="#74838f"  stroke-width="2.0"  d="M 499.30232558139534 206.0 L 499.30232558139534 214.0" />
        <text x="499.30232558139534" font-family="-apple-system, system-ui, BlinkMacSystemFont, Roboto" y="216.0" dominant-baseline="hanging" text-anchor="middle" font-size="12" fill="#24292f">Oct 2022</text>
    
        
        <path stroke="#74838f"  stroke-width="2.0"  d="M 559.8604651162791 206.0 L 559.8604651162791 214.0" />
        <text x="559.8604651162791" font-family="-apple-system, system-ui, BlinkMacSystemFont, Roboto" y="216.0" dominant-baseline="hanging" text-anchor="middle" font-size="12" fill="#24292f">Nov 2022</text>
    
        
        <path stroke="#74838f"  stroke-width="2.0"  d="M 618.4651162790698 206.0 L 618.4651162790698 214.0" />
        <text x="618.4651162790698" font-family="-apple-system, system-ui, BlinkMacSystemFont, Roboto" y="216.0" dominant-baseline="hanging" text-anchor="middle" font-size="12" fill="#24292f">Dec 2022</text>
    
        
        <path stroke="#74838f"  stroke-width="2.0"  d="M 679.0232558139535 206.0 L 679.0232558139535 214.0" />
        <text x="679.0232558139535" font-family="-apple-system, system-ui, BlinkMacSystemFont, Roboto" y="216.0" dominant-baseline="hanging" text-anchor="middle" font-size="12" fill="#24292f">Jan 2023</text>
    
        
        <path stroke="#74838f"  stroke-width="2.0"  d="M 739.5813953488372 206.0 L 739.5813953488372 214.0" />
        <text x="739.5813953488372" font-family="-apple-system, system-ui, BlinkMacSystemFont, Roboto" y="216.0" dominant-baseline="hanging" text-anchor="middle" font-size="12" fill="#24292f">Feb 2023</text>
    
        
        <path stroke="#74838f"  stroke-width="2.0"  d="M 794.2790697674419 206.0 L 794.2790697674419 214.0" />
        <text x="794.2790697674419" font-family="-apple-system, system-ui, BlinkMacSystemFont, Roboto" y="216.0" dominant-baseline="hanging" text-anchor="middle" font-size="12" fill="#24292f">Mar 2023</text>
    
        
        <path stroke="#74838f"  stroke-width="2.0"  d="M 854.8372093023256 206.0 L 854.8372093023256 214.0" />
        <text x="854.8372093023256" font-family="-apple-system, system-ui, BlinkMacSystemFont, Roboto" y="216.0" dominant-baseline="hanging" text-anchor="middle" font-size="12" fill="#24292f">Apr 2023</text>
    
        
        <path stroke="#74838f"  stroke-width="2.0"  d="M 913.4418604651163 206.0 L 913.4418604651163 214.0" />
        <text x="913.4418604651163" font-family="-apple-system, system-ui, BlinkMacSystemFont, Roboto" y="216.0" dominant-baseline="hanging" text-anchor="middle" font-size="12" fill="#24292f">May 2023</text>
    
        
        <path stroke="#74838f"  stroke-width="2.0"  d="M 974.0 206.0 L 974.0 214.0" />
        <text x="974.0" font-family="-apple-system, system-ui, BlinkMacSystemFont, Roboto" y="216.0" dominant-baseline="hanging" text-anchor="middle" font-size="12" fill="#24292f">Jun 2023</text>
    
    <path stroke="#74838f"   stroke-linejoin="round" stroke-width="2.0" d="M 50.0 216.0 L 50.0 206.0 L 974.0 206.0 L 974.0 216.0"  fill="none" />
    <text x="512.0" y="25.0" font-family="-apple-system, system-ui, BlinkMacSystemFont, Roboto" dominant-baseline="middle" text-anchor="middle" font-size="18" fill="#24292f">Total daily screen name changes</text>
</svg>
