<?xml version="1.0" standalone="no"?>
<svg width="1024.0" height="256.0"  viewBox="0 0 1024.0 256.0" preserveAspectRatio="xMidYMid meet" xmlns="http://www.w3.org/2000/svg">
    <path stroke="#3498db" stroke-linejoin="round" d="M 50.0 203.3394909090909 L 50 203.3394909090909L 51.848 202.32974545454545L 53.696 196.86690909090908L 55.544 195.94792727272727L 57.392 202.14254545454546L 59.24 197.35476363636363L 61.088 191.76145454545454L 62.936 179.96218181818182L 64.784 204.09396363636364L 66.632 194.17236363636363L 68.48 192.61803636363635L 70.328 195.1253818181818L 72.176 193.92843636363637L 74.024 182.2482909090909L 75.872 200.86618181818181L 77.72 201.45614545454546L 79.568 178.89003636363637L 81.416 197.33774545454546L 83.264 198.50065454545455L 85.112 200.41803636363636L 86.96000000000001 201.18385454545455L 88.80799999999999 202.26734545454545L 90.656 195.09134545454546L 92.50399999999999 198.08087272727272L 94.352 183.38850909090908L 96.2 197.47389090909093L 98.048 202.01774545454546L 99.896 194.66021818181818L 101.744 200.75272727272727L 103.59200000000001 200.00392727272728L 105.44 201.97236363636364L 107.288 204.2754909090909L 109.136 201.74545454545455L 110.98400000000001 201.01367272727273L 112.83200000000001 174.7829818181818L 114.68 195.76072727272728L 116.52799999999999 204.0032L 118.37599999999999 203.7309090909091L 120.224 197.87665454545453L 122.072 202.60770909090908L 123.92 202.6928L 125.768 197.55898181818182L 127.616 186.5141818181818L 129.464 199.26647272727274L 131.312 199.5728L 133.16 193.4802909090909L 135.00799999999998 199.10763636363635L 136.856 201.54690909090908L 138.704 201.5696L 140.55200000000002 195.06865454545454L 142.4 201.70007272727273L 144.248 197.2866909090909L 146.096 172.35505454545455L 147.94400000000002 203.20901818181818L 149.792 199.6749090909091L 151.64 193.12858181818183L 153.488 196.8896L 155.336 199.78836363636364L 157.18400000000003 198.82967272727274L 159.03199999999998 204.1336727272727L 160.88 202.57934545454546L 162.728 198.9261090909091L 164.576 206L 166.424 204.128L 168.272 192.1245090909091L 170.12 206L 171.96800000000002 206L 173.816 206L 175.66400000000002 206L 177.512 197.37178181818183L 179.36 199.57847272727273L 181.208 188.9024L 183.05599999999998 195.02894545454546L 184.904 191.20552727272727L 186.75199999999998 166.8128L 188.6 203.8386909090909L 190.448 198.09221818181817L 192.296 201.64334545454545L 194.144 202.2957090909091L 195.992 203.22036363636363L 197.84 200.66763636363635L 199.68800000000002 191.51185454545455L 201.536 189.18603636363636L 203.38400000000001 203.86705454545455L 205.232 197.56465454545454L 207.08 187.32538181818182L 208.928 201.2349090909091L 210.77599999999998 200.44639999999998L 212.624 201.4618181818182L 214.47199999999998 201.09876363636363L 216.32 201.17818181818183L 218.168 193.02647272727273L 220.016 198.8069818181818L 221.864 203.39054545454545L 223.712 200.30458181818182L 225.56 198.35883636363636L 227.40800000000002 193.3101090909091L 229.256 200.56552727272728L 231.104 203.03883636363636L 232.952 197.22996363636364L 234.8 201.95534545454547L 236.64800000000002 196.016L 238.49599999999998 202.30705454545455L 240.344 199.91316363636363L 242.19199999999998 194.62050909090908L 244.04 201.29163636363637L 245.888 202.98778181818182L 247.736 203.5437090909091L 249.584 200.60523636363638L 251.432 195.5621818181818L 253.28 203.24305454545456L 255.12800000000001 200.15709090909093L 256.976 198.46661818181818L 258.824 201.70007272727273L 260.672 200.70734545454545L 262.52 200.4293818181818L 264.36800000000005 201.76814545454545L 266.216 204.6442181818182L 268.06399999999996 206L 269.912 196.35636363636365L 271.76 199.21541818181817L 273.608 156.87418181818182L 275.456 165.1506909090909L 277.304 204.1733818181818L 279.152 202.17658181818183L 281 199.31185454545454L 282.848 198.7842909090909L 284.696 202.6757818181818L 286.544 202.8573090909091L 288.392 196.1861818181818L 290.24 199.64654545454545L 292.088 198.2056727272727L 293.93600000000004 201.2178909090909L 295.784 201.79083636363637L 297.632 201.90429090909092L 299.48 200.1968L 301.32800000000003 195.17076363636363L 303.17600000000004 206L 305.024 206L 306.872 206L 308.72 191.4834909090909L 310.568 197.79723636363636L 312.416 198.85236363636363L 314.26399999999995 199.76L 316.11199999999997 200.03796363636363L 317.96 200.76407272727272L 319.808 201.80785454545455L 321.656 191.63098181818182L 323.50399999999996 194.41061818181817L 325.352 199.88479999999998L 327.2 152.63098181818182L 329.048 197.04843636363637L 330.896 194.4730181818182L 332.74399999999997 155.90414545454547L 334.592 91.60945454545454L 336.44 104.5376L 338.288 151.17876363636364L 340.136 185.1981090909091L 341.984 142.76610909090908L 343.832 125.0672L 345.68 123.74545454545455L 347.528 157.99738181818182L 349.37600000000003 53.56814545454546L 351.224 50.78850909090909L 353.072 100.02210909090908L 354.92 156.2445090909091L 356.76800000000003 180.31956363636363L 358.61600000000004 192.43650909090908L 360.464 193.63912727272728L 362.312 193.3328L 364.16 192.11316363636365L 366.00800000000004 197.93338181818183L 367.856 191.5629090909091L 369.70399999999995 198.7672727272727L 371.55199999999996 199.3005090909091L 373.4 201.64901818181818L 375.248 200.58821818181818L 377.096 202.43752727272727L 378.94399999999996 200.73003636363637L 380.792 189.7703272727273L 382.64 203.17498181818183L 384.488 200.48610909090908L 386.336 185.1810909090909L 388.18399999999997 187.88698181818182L 390.032 191.01832727272728L 391.88 192.31738181818181L 393.728 177.09745454545455L 395.576 167.91330909090908L 397.424 179.30981818181817L 399.272 186.49716363636364L 401.12 150.34487272727273L 402.968 184.27345454545454L 404.81600000000003 199.5104L 406.664 161.24785454545454L 408.512 155.49003636363636L 410.36 176.96130909090908L 412.208 190.30923636363636L 414.05600000000004 193.50865454545453L 415.904 201.72843636363638L 417.752 185.22647272727272L 419.6 192.03374545454545L 421.44800000000004 192.66909090909093L 423.29600000000005 180.18341818181818L 425.144 194.5013818181818L 426.99199999999996 194.6829090909091L 428.84 201.85323636363637L 430.688 196.2032L 432.536 204.49105454545455L 434.38399999999996 191.55723636363638L 436.23199999999997 180.36494545454545L 438.08 193.02647272727273L 439.928 186.20785454545455L 441.776 191.72741818181817L 443.62399999999997 191.4834909090909L 445.472 196.63432727272726L 447.32 200.7810909090909L 449.168 176.26923636363637L 451.016 165.78036363636363L 452.864 181.82850909090908L 454.712 160.6976L 456.56 163.93105454545454L 458.408 182.10647272727272L 460.25600000000003 130.808L 462.104 190.49643636363635L 463.952 202.0914909090909L 465.8 184.09192727272728L 467.648 197.50225454545455L 469.49600000000004 187.54094545454547L 471.344 192.95272727272726L 473.192 201.88727272727272L 475.04 184.33585454545454L 476.88800000000003 183.04814545454545L 478.73600000000005 182.36741818181818L 480.584 182.54327272727272L 482.432 186.38938181818182L 484.28 174.3858909090909L 486.128 183.1786181818182L 487.976 183.5133090909091L 489.82399999999996 184.60247272727273L 491.67199999999997 186.968L 493.52 170.00087272727274L 495.368 167.8338909090909L 497.216 203.32247272727273L 499.06399999999996 206L 500.912 128.43112727272728L 502.76 183.2637090909091L 504.608 156.8685090909091L 506.456 183.15592727272727L 508.304 183.2013090909091L 510.152 182.25963636363636L 512 170.18807272727273L 513.848 186.86589090909092L 515.696 183.77425454545454L 517.544 186.29861818181817L 519.392 184.17134545454545L 521.24 184.9655272727273L 523.088 178.1696L 524.936 180.70530909090908L 526.784 170.80072727272727L 528.6320000000001 177.99374545454546L 530.48 175.99127272727273L 532.328 173.75621818181818L 534.176 175.45803636363638L 536.024 196.91796363636365L 537.8720000000001 150.30516363636363L 539.72 167.34036363636363L 541.568 174.52203636363637L 543.416 132.05599999999998L 545.264 144.8309818181818L 547.1120000000001 173.60872727272726L 548.96 151.91054545454546L 550.808 194.03621818181819L 552.6560000000001 160.59549090909093L 554.504 206L 556.3520000000001 153.43650909090908L 558.2 181.01163636363637L 560.048 181.6413090909091L 561.8960000000001 182.49221818181817L 563.744 183.08785454545455L 565.5920000000001 206L 567.44 151.86516363636363L 569.288 172.45716363636365L 571.136 169.20669090909092L 572.9839999999999 178.22065454545455L 574.832 175.54312727272728L 576.68 177.61367272727273L 578.5279999999999 181.0173090909091L 580.376 176.80814545454547L 582.2239999999999 167.8962909090909L 584.072 167.1248L 585.92 176.62094545454545L 587.7679999999999 158.63272727272727L 589.616 151.3602909090909L 591.4639999999999 173.35345454545455L 593.312 206L 595.16 206L 597.0079999999999 206L 598.856 206L 600.704 206L 602.552 206L 604.4 206L 606.2479999999999 206L 608.096 206L 609.944 206L 611.792 206L 613.64 206L 615.4879999999999 206L 617.336 206L 619.184 206L 621.032 206L 622.88 206L 624.728 206L 626.576 206L 628.424 206L 630.272 206L 632.12 206L 633.968 206L 635.816 206L 637.664 206L 639.5120000000001 206L 641.36 206L 643.208 206L 645.056 206L 646.904 206L 648.7520000000001 206L 650.6 206L 652.448 206L 654.296 206L 656.144 206L 657.9920000000001 206L 659.84 206L 661.688 206L 663.5360000000001 206L 665.384 206L 667.2320000000001 206L 669.08 206L 670.928 206L 672.7760000000001 206L 674.624 206L 676.4720000000001 206L 678.32 206L 680.168 206L 682.0160000000001 206L 683.864 206L 685.712 206L 687.56 206L 689.4079999999999 206L 691.256 206L 693.1039999999999 206L 694.952 206L 696.8 206L 698.6479999999999 206L 700.496 206L 702.3439999999999 206L 704.192 206L 706.04 206L 707.8879999999999 206L 709.736 206L 711.584 206L 713.432 206L 715.28 206L 717.1279999999999 206L 718.976 206L 720.824 206L 722.672 206L 724.52 206L 726.3679999999999 206L 728.216 206L 730.064 206L 731.912 206L 733.76 206L 735.608 206L 737.456 206L 739.304 206L 741.152 206L 743 206L 744.848 206L 746.696 206L 748.544 206L 750.392 206L 752.24 206L 754.088 206L 755.936 206L 757.784 206L 759.6320000000001 206L 761.48 206L 763.328 206L 765.176 206L 767.024 206L 768.8720000000001 206L 770.72 206L 772.568 206L 774.416 206L 776.264 206L 778.1120000000001 206L 779.96 206L 781.808 206L 783.6560000000001 206L 785.504 206L 787.3520000000001 206L 789.2 206L 791.048 206L 792.8960000000001 206L 794.744 206L 796.5920000000001 206L 798.44 206L 800.288 206L 802.136 206L 803.9839999999999 206L 805.832 206L 807.68 206L 809.5279999999999 206L 811.376 206L 813.2239999999999 206L 815.072 206L 816.92 206L 818.7679999999999 206L 820.616 206L 822.4639999999999 206L 824.312 206L 826.16 206L 828.0079999999999 206L 829.856 206L 831.704 206L 833.552 206L 835.4 206L 837.2479999999999 206L 839.096 206L 840.944 206L 842.792 206L 844.64 206L 846.4879999999999 206L 848.336 206L 850.184 206L 852.032 206L 853.88 206L 855.728 206L 857.576 206L 859.424 206L 861.272 206L 863.12 206L 864.968 206L 866.816 206L 868.664 206L 870.5120000000001 206L 872.36 206L 874.208 206L 876.056 206L 877.904 206L 879.7520000000001 206L 881.6 206L 883.448 206L 885.296 206L 887.144 206L 888.9920000000001 206L 890.84 206L 892.688 206L 894.5360000000001 206L 896.384 206L 898.2320000000001 206L 900.08 206L 901.928 206L 903.7760000000001 206L 905.624 206L 907.4720000000001 206L 909.32 206L 911.168 206L 913.0160000000001 206L 914.864 206L 916.712 206L 918.56 206L 920.4079999999999 206L 922.256 206L 924.1039999999999 206L 925.952 206L 927.8 206L 929.6479999999999 206L 931.496 206L 933.3439999999999 206L 935.192 206L 937.04 206L 938.8879999999999 206L 940.736 206L 942.584 206L 944.432 206L 946.28 206L 948.1279999999999 206L 949.976 206L 951.824 206L 953.672 206L 955.52 206L 957.3679999999999 206L 959.216 206L 961.064 206L 962.912 206L 964.76 206L 966.608 206L 968.456 206L 970.304 206L 972.152 206L 974 206" stroke-width="2.0" fill="none" />
    
        
        
        <text x="45.0" font-family="-apple-system, system-ui, BlinkMacSystemFont, Roboto" y="50.0" dominant-baseline="middle" text-anchor="end" font-size="12" fill="#24292f">27500.0</text>
        
            
            <path stroke="#74838f" stroke-dasharray="10 6" stroke-width="0.5"  d="M 50.0 50.0 L 974.0 50.0" />
        
    
        
        
        <text x="45.0" font-family="-apple-system, system-ui, BlinkMacSystemFont, Roboto" y="81.2" dominant-baseline="middle" text-anchor="end" font-size="12" fill="#24292f">22000.0</text>
        
            
            
            <path stroke="#74838f" stroke-dasharray="10 6" stroke-width="0.5"  d="M 50.0 81.2 L 974.0 81.2" />
        
    
        
        
        <text x="45.0" font-family="-apple-system, system-ui, BlinkMacSystemFont, Roboto" y="112.4" dominant-baseline="middle" text-anchor="end" font-size="12" fill="#24292f">16500.0</text>
        
            
            
            <path stroke="#74838f" stroke-dasharray="10 6" stroke-width="0.5"  d="M 50.0 112.4 L 974.0 112.4" />
        
    
        
        
        <text x="45.0" font-family="-apple-system, system-ui, BlinkMacSystemFont, Roboto" y="143.6" dominant-baseline="middle" text-anchor="end" font-size="12" fill="#24292f">11000.0</text>
        
            
            
            <path stroke="#74838f" stroke-dasharray="10 6" stroke-width="0.5"  d="M 50.0 143.6 L 974.0 143.6" />
        
    
        
        
        <text x="45.0" font-family="-apple-system, system-ui, BlinkMacSystemFont, Roboto" y="174.8" dominant-baseline="middle" text-anchor="end" font-size="12" fill="#24292f">5500.0</text>
        
            
            
            <path stroke="#74838f" stroke-dasharray="10 6" stroke-width="0.5"  d="M 50.0 174.8 L 974.0 174.8" />
        
    
        
        
        <text x="45.0" font-family="-apple-system, system-ui, BlinkMacSystemFont, Roboto" y="206.0" dominant-baseline="middle" text-anchor="end" font-size="12" fill="#24292f">0.0</text>
        
    
    
        
        <path stroke="#74838f"  stroke-width="2.0"  d="M 79.568 206.0 L 79.568 214.0" />
        <text x="79.568" font-family="-apple-system, system-ui, BlinkMacSystemFont, Roboto" y="216.0" dominant-baseline="hanging" text-anchor="middle" font-size="12" fill="#24292f">Mar 2022</text>
    
        
        <path stroke="#74838f"  stroke-width="2.0"  d="M 136.856 206.0 L 136.856 214.0" />
        <text x="136.856" font-family="-apple-system, system-ui, BlinkMacSystemFont, Roboto" y="216.0" dominant-baseline="hanging" text-anchor="middle" font-size="12" fill="#24292f">Apr 2022</text>
    
        
        <path stroke="#74838f"  stroke-width="2.0"  d="M 192.296 206.0 L 192.296 214.0" />
        <text x="192.296" font-family="-apple-system, system-ui, BlinkMacSystemFont, Roboto" y="216.0" dominant-baseline="hanging" text-anchor="middle" font-size="12" fill="#24292f">May 2022</text>
    
        
        <path stroke="#74838f"  stroke-width="2.0"  d="M 249.584 206.0 L 249.584 214.0" />
        <text x="249.584" font-family="-apple-system, system-ui, BlinkMacSystemFont, Roboto" y="216.0" dominant-baseline="hanging" text-anchor="middle" font-size="12" fill="#24292f">Jun 2022</text>
    
        
        <path stroke="#74838f"  stroke-width="2.0"  d="M 305.024 206.0 L 305.024 214.0" />
        <text x="305.024" font-family="-apple-system, system-ui, BlinkMacSystemFont, Roboto" y="216.0" dominant-baseline="hanging" text-anchor="middle" font-size="12" fill="#24292f">Jul 2022</text>
    
        
        <path stroke="#74838f"  stroke-width="2.0"  d="M 362.312 206.0 L 362.312 214.0" />
        <text x="362.312" font-family="-apple-system, system-ui, BlinkMacSystemFont, Roboto" y="216.0" dominant-baseline="hanging" text-anchor="middle" font-size="12" fill="#24292f">Aug 2022</text>
    
        
        <path stroke="#74838f"  stroke-width="2.0"  d="M 419.6 206.0 L 419.6 214.0" />
        <text x="419.6" font-family="-apple-system, system-ui, BlinkMacSystemFont, Roboto" y="216.0" dominant-baseline="hanging" text-anchor="middle" font-size="12" fill="#24292f">Sep 2022</text>
    
        
        <path stroke="#74838f"  stroke-width="2.0"  d="M 475.04 206.0 L 475.04 214.0" />
        <text x="475.04" font-family="-apple-system, system-ui, BlinkMacSystemFont, Roboto" y="216.0" dominant-baseline="hanging" text-anchor="middle" font-size="12" fill="#24292f">Oct 2022</text>
    
        
        <path stroke="#74838f"  stroke-width="2.0"  d="M 532.328 206.0 L 532.328 214.0" />
        <text x="532.328" font-family="-apple-system, system-ui, BlinkMacSystemFont, Roboto" y="216.0" dominant-baseline="hanging" text-anchor="middle" font-size="12" fill="#24292f">Nov 2022</text>
    
        
        <path stroke="#74838f"  stroke-width="2.0"  d="M 587.7679999999999 206.0 L 587.7679999999999 214.0" />
        <text x="587.7679999999999" font-family="-apple-system, system-ui, BlinkMacSystemFont, Roboto" y="216.0" dominant-baseline="hanging" text-anchor="middle" font-size="12" fill="#24292f">Dec 2022</text>
    
        
        <path stroke="#74838f"  stroke-width="2.0"  d="M 645.056 206.0 L 645.056 214.0" />
        <text x="645.056" font-family="-apple-system, system-ui, BlinkMacSystemFont, Roboto" y="216.0" dominant-baseline="hanging" text-anchor="middle" font-size="12" fill="#24292f">Jan 2023</text>
    
        
        <path stroke="#74838f"  stroke-width="2.0"  d="M 702.3439999999999 206.0 L 702.3439999999999 214.0" />
        <text x="702.3439999999999" font-family="-apple-system, system-ui, BlinkMacSystemFont, Roboto" y="216.0" dominant-baseline="hanging" text-anchor="middle" font-size="12" fill="#24292f">Feb 2023</text>
    
        
        <path stroke="#74838f"  stroke-width="2.0"  d="M 754.088 206.0 L 754.088 214.0" />
        <text x="754.088" font-family="-apple-system, system-ui, BlinkMacSystemFont, Roboto" y="216.0" dominant-baseline="hanging" text-anchor="middle" font-size="12" fill="#24292f">Mar 2023</text>
    
        
        <path stroke="#74838f"  stroke-width="2.0"  d="M 811.376 206.0 L 811.376 214.0" />
        <text x="811.376" font-family="-apple-system, system-ui, BlinkMacSystemFont, Roboto" y="216.0" dominant-baseline="hanging" text-anchor="middle" font-size="12" fill="#24292f">Apr 2023</text>
    
        
        <path stroke="#74838f"  stroke-width="2.0"  d="M 866.816 206.0 L 866.816 214.0" />
        <text x="866.816" font-family="-apple-system, system-ui, BlinkMacSystemFont, Roboto" y="216.0" dominant-baseline="hanging" text-anchor="middle" font-size="12" fill="#24292f">May 2023</text>
    
        
        <path stroke="#74838f"  stroke-width="2.0"  d="M 924.1039999999999 206.0 L 924.1039999999999 214.0" />
        <text x="924.1039999999999" font-family="-apple-system, system-ui, BlinkMacSystemFont, Roboto" y="216.0" dominant-baseline="hanging" text-anchor="middle" font-size="12" fill="#24292f">Jun 2023</text>
    
    <path stroke="#74838f"   stroke-linejoin="round" stroke-width="2.0" d="M 50.0 216.0 L 50.0 206.0 L 974.0 206.0 L 974.0 216.0"  fill="none" />
    <text x="512.0" y="25.0" font-family="-apple-system, system-ui, BlinkMacSystemFont, Roboto" dominant-baseline="middle" text-anchor="middle" font-size="18" fill="#24292f">Total daily screen name changes</text>
</svg>
