<?xml version="1.0" standalone="no"?>
<svg width="1024.0" height="256.0"  viewBox="0 0 1024.0 256.0" preserveAspectRatio="xMidYMid meet" xmlns="http://www.w3.org/2000/svg">
    <path stroke="#3498db" stroke-linejoin="round" d="M 50.0 203.42458181818182 L 50 203.42458181818182L 53.16438356164384 202.3978181818182L 56.32876712328767 196.90661818181817L 59.49315068493151 195.9536L 62.65753424657534 202.14254545454546L 65.82191780821918 197.36043636363638L 68.98630136986301 191.79549090909092L 72.15068493150685 179.9565090909091L 75.31506849315068 204.1053090909091L 78.47945205479452 194.1666909090909L 81.64383561643835 192.61803636363635L 84.8082191780822 195.1253818181818L 87.97260273972603 193.92843636363637L 91.13698630136986 182.26530909090908L 94.30136986301369 200.86618181818181L 97.46575342465752 201.4674909090909L 100.63013698630137 178.89003636363637L 103.79452054794521 197.33774545454546L 106.95890410958904 198.50632727272728L 110.12328767123287 200.41803636363636L 113.2876712328767 201.18385454545455L 116.45205479452055 202.27301818181817L 119.61643835616438 195.10836363636363L 122.78082191780821 198.08087272727272L 125.94520547945206 183.39418181818183L 129.1095890410959 197.47956363636365L 132.27397260273972 202.01774545454546L 135.43835616438355 194.66021818181818L 138.60273972602738 200.75272727272727L 141.7671232876712 200.01527272727273L 144.93150684931504 201.97236363636364L 148.0958904109589 204.29818181818183L 151.26027397260273 201.74545454545455L 154.42465753424656 201.01367272727273L 157.58904109589042 174.8L 160.75342465753425 195.76072727272728L 163.91780821917808 204.0032L 167.08219178082192 203.7309090909091L 170.24657534246575 197.88232727272728L 173.41095890410958 202.60770909090908L 176.5753424657534 202.6928L 179.73972602739727 197.55898181818182L 182.9041095890411 186.5141818181818L 186.06849315068493 199.26647272727274L 189.23287671232876 199.57847272727273L 192.39726027397262 193.4802909090909L 195.56164383561642 199.1133090909091L 198.72602739726028 201.54690909090908L 201.8904109589041 201.5696L 205.05479452054794 195.07432727272726L 208.21917808219177 201.71141818181817L 211.38356164383563 197.2866909090909L 214.54794520547944 172.37774545454545L 217.7123287671233 203.20901818181818L 220.87671232876713 199.6749090909091L 224.04109589041096 193.12858181818183L 227.2054794520548 196.90094545454545L 230.36986301369862 199.78269090909092L 233.53424657534245 198.82967272727274L 236.6986301369863 204.1336727272727L 239.8630136986301 202.60203636363636L 243.02739726027397 198.9261090909091L 246.1917808219178 206L 249.35616438356163 204.128L 252.52054794520546 192.1245090909091L 255.68493150684932 206L 258.8493150684931 206L 262.013698630137 206L 265.17808219178085 206L 268.3424657534247 197.3661090909091L 271.5068493150685 199.57847272727273L 274.67123287671234 188.9024L 277.83561643835617 195.0346181818182L 281 191.20552727272727L 284.16438356164383 166.80712727272726L 287.32876712328766 203.85003636363638L 290.4931506849315 198.09221818181817L 293.6575342465753 201.64334545454545L 296.82191780821915 202.2957090909091L 299.98630136986304 203.22036363636363L 303.1506849315068 200.66763636363635L 306.3150684931507 191.51185454545455L 309.47945205479454 189.18603636363636L 312.64383561643837 203.86705454545455L 315.8082191780822 197.56465454545454L 318.972602739726 187.33672727272727L 322.13698630136986 201.24625454545455L 325.30136986301375 200.44639999999998L 328.4657534246575 201.4618181818182L 331.63013698630135 201.09876363636363L 334.79452054794524 201.17818181818183L 337.95890410958907 193.02647272727273L 341.12328767123284 198.8069818181818L 344.28767123287673 203.39054545454545L 347.45205479452056 200.30458181818182L 350.6164383561644 198.37018181818183L 353.7808219178082 193.30443636363637L 356.94520547945206 200.56552727272728L 360.1095890410959 203.03883636363636L 363.2739726027398 197.24698181818184L 366.43835616438355 201.95534545454547L 369.6027397260274 196.02167272727274L 372.76712328767127 202.30705454545455L 375.9315068493151 199.91316363636363L 379.0958904109589 194.6261818181818L 382.26027397260276 201.29163636363637L 385.4246575342466 202.98778181818182L 388.5890410958904 203.5437090909091L 391.75342465753425 200.60523636363638L 394.9178082191781 195.5621818181818L 398.0821917808219 203.24305454545456L 401.24657534246575 200.16276363636365L 404.4109589041096 198.46661818181818L 407.5753424657534 201.70007272727273L 410.73972602739724 200.70734545454545L 413.9041095890411 200.4293818181818L 417.0684931506849 201.76814545454545L 420.23287671232873 204.6442181818182L 423.3972602739726 206L 426.56164383561645 196.3506909090909L 429.7260273972602 199.20974545454544L 432.8904109589041 156.8685090909091L 436.05479452054794 165.13934545454546L 439.2191780821918 204.1733818181818L 442.3835616438356 202.17658181818183L 445.54794520547944 199.31185454545454L 448.71232876712327 198.79563636363636L 451.87671232876716 202.68145454545453L 455.04109589041093 202.8573090909091L 458.20547945205476 196.1861818181818L 461.36986301369865 199.64654545454545L 464.5342465753425 198.2056727272727L 467.69863013698625 201.2178909090909L 470.86301369863014 201.79083636363637L 474.027397260274 201.90429090909092L 477.1917808219178 200.1968L 480.35616438356163 195.17076363636363L 483.52054794520546 206L 486.6849315068493 206L 489.8493150684932 206L 493.01369863013696 191.47781818181818L 496.1780821917808 197.80290909090908L 499.3424657534247 198.85236363636363L 502.5068493150685 199.76L 505.6712328767123 200.03796363636363L 508.83561643835617 200.76407272727272L 512 201.80785454545455L 515.1643835616438 191.63098181818182L 518.3287671232877 194.41629090909092L 521.4931506849316 199.88479999999998L 524.6575342465753 152.63098181818182L 527.8219178082192 197.05978181818182L 530.986301369863 194.4730181818182L 534.1506849315068 155.89847272727272L 537.3150684931506 91.55839999999999L 540.4794520547946 104.50923636363638L 543.6438356164383 151.17876363636364L 546.8082191780823 185.20945454545455L 549.9726027397261 142.76610909090908L 553.1369863013698 125.0672L 556.3013698630136 123.74545454545455L 559.4657534246576 157.98603636363637L 562.6301369863014 53.57381818181818L 565.7945205479452 50.771490909090915L 568.9589041095891 100.02210909090908L 572.1232876712329 156.23883636363635L 575.2876712328767 180.32523636363635L 578.4520547945204 192.42516363636364L 581.6164383561644 193.6448L 584.7808219178082 193.3328L 587.945205479452 192.11883636363638L 591.1095890410959 197.93338181818183L 594.2739726027397 191.5629090909091L 597.4383561643835 198.7616L 600.6027397260275 199.3005090909091L 603.7671232876712 201.64901818181818L 606.931506849315 200.58821818181818L 610.0958904109589 202.43752727272727L 613.2602739726027 200.73003636363637L 616.4246575342465 189.78167272727273L 619.5890410958905 203.16930909090908L 622.7534246575343 200.49178181818183L 625.9178082191781 185.1810909090909L 629.0821917808219 187.89832727272727L 632.2465753424657 191.01265454545455L 635.4109589041095 192.30603636363637L 638.5753424657535 177.09745454545455L 641.7397260273973 167.90763636363636L 644.9041095890411 179.30981818181817L 648.068493150685 186.49716363636364L 651.2328767123288 150.34487272727273L 654.3972602739725 184.26778181818182L 657.5616438356165 199.5330909090909L 660.7260273972603 161.24785454545454L 663.8904109589041 155.48436363636364L 667.054794520548 176.96130909090908L 670.2191780821918 190.30923636363636L 673.3835616438356 193.50865454545453L 676.5479452054796 201.72843636363638L 679.7123287671233 185.23214545454545L 682.8767123287671 192.03374545454545L 686.0410958904109 192.66909090909093L 689.2054794520548 180.18341818181818L 692.3698630136986 194.5013818181818L 695.5342465753425 194.6829090909091L 698.6986301369864 201.85323636363637L 701.8630136986302 196.19752727272726L 705.0273972602739 204.49105454545455L 708.1917808219177 191.5629090909091L 711.3561643835616 180.36494545454545L 714.5205479452055 193.02647272727273L 717.6849315068494 186.20785454545455L 720.8493150684932 191.72174545454544L 724.013698630137 191.47781818181818L 727.1780821917808 196.64L 730.3424657534246 200.78676363636364L 733.5068493150685 176.26923636363637L 736.6712328767123 165.78603636363636L 739.8356164383562 181.82850909090908L 743 160.70327272727272L 746.1643835616438 163.88567272727272L 749.3287671232877 182.09512727272727L 752.4931506849315 130.79098181818182L 755.6575342465754 190.49643636363635L 758.8219178082192 202.0914909090909L 761.986301369863 184.08625454545455L 765.1506849315068 197.50225454545455L 768.3150684931506 187.5466181818182L 771.4794520547945 192.95839999999998L 774.6438356164384 201.89294545454544L 777.8082191780823 184.3472L 780.9726027397261 183.18429090909092L 784.1369863013698 182.3504L 787.3013698630136 182.54327272727272L 790.4657534246575 186.37803636363637L 793.6301369863014 174.39723636363635L 796.7945205479452 183.16727272727272L 799.9589041095891 183.50196363636363L 803.1232876712329 184.60247272727273L 806.2876712328767 186.96232727272726L 809.4520547945204 169.98385454545453L 812.6164383561644 167.87927272727273L 815.7808219178082 203.32247272727273L 818.945205479452 206L 822.1095890410959 128.3573818181818L 825.2739726027397 183.24669090909092L 828.4383561643835 156.8685090909091L 831.6027397260275 183.15025454545454L 834.7671232876712 183.19563636363637L 837.931506849315 182.2709818181818L 841.0958904109589 170.17672727272728L 844.2602739726027 186.8602181818182L 847.4246575342465 183.77992727272726L 850.5890410958905 186.29861818181817L 853.7534246575343 184.16567272727272L 856.9178082191781 184.9655272727273L 860.0821917808219 178.1696L 863.2465753424657 180.70530909090908L 866.4109589041095 170.78938181818182L 869.5753424657535 177.97672727272726L 872.7397260273973 175.99127272727273L 875.9041095890411 173.85265454545456L 879.068493150685 175.45236363636363L 882.2328767123288 196.91796363636365L 885.3972602739725 150.30516363636363L 888.5616438356165 167.3346909090909L 891.7260273972603 174.5106909090909L 894.8904109589041 132.05599999999998L 898.054794520548 144.70618181818182L 901.2191780821918 173.56334545454547L 904.3835616438356 151.91054545454546L 907.5479452054796 194.04756363636363L 910.7123287671233 160.58414545454545L 913.8767123287671 206L 917.0410958904109 153.40814545454546L 920.2054794520548 181.01163636363637L 923.3698630136986 181.6413090909091L 926.5342465753425 182.48654545454545L 929.6986301369864 183.07083636363637L 932.8630136986302 206L 936.0273972602739 151.89352727272728L 939.1917808219177 172.45149090909092L 942.3561643835616 169.18967272727272L 945.5205479452055 178.18661818181818L 948.6849315068494 175.49207272727273L 951.8493150684932 177.60232727272728L 955.013698630137 181.00029090909092L 958.1780821917808 176.77978181818182L 961.3424657534246 167.86225454545453L 964.5068493150685 167.08509090909092L 967.6712328767123 176.54152727272728L 970.8356164383562 158.56465454545454L 974 188.12523636363636" stroke-width="2.0" fill="none" />
    
        
        
        <text x="45.0" font-family="-apple-system, system-ui, BlinkMacSystemFont, Roboto" y="50.0" dominant-baseline="middle" text-anchor="end" font-size="12" fill="#24292f">27500.0</text>
        
            
            <path stroke="#74838f" stroke-dasharray="10 6" stroke-width="0.5"  d="M 50.0 50.0 L 974.0 50.0" />
        
    
        
        
        <text x="45.0" font-family="-apple-system, system-ui, BlinkMacSystemFont, Roboto" y="81.2" dominant-baseline="middle" text-anchor="end" font-size="12" fill="#24292f">22000.0</text>
        
            
            
            <path stroke="#74838f" stroke-dasharray="10 6" stroke-width="0.5"  d="M 50.0 81.2 L 974.0 81.2" />
        
    
        
        
        <text x="45.0" font-family="-apple-system, system-ui, BlinkMacSystemFont, Roboto" y="112.4" dominant-baseline="middle" text-anchor="end" font-size="12" fill="#24292f">16500.0</text>
        
            
            
            <path stroke="#74838f" stroke-dasharray="10 6" stroke-width="0.5"  d="M 50.0 112.4 L 974.0 112.4" />
        
    
        
        
        <text x="45.0" font-family="-apple-system, system-ui, BlinkMacSystemFont, Roboto" y="143.6" dominant-baseline="middle" text-anchor="end" font-size="12" fill="#24292f">11000.0</text>
        
            
            
            <path stroke="#74838f" stroke-dasharray="10 6" stroke-width="0.5"  d="M 50.0 143.6 L 974.0 143.6" />
        
    
        
        
        <text x="45.0" font-family="-apple-system, system-ui, BlinkMacSystemFont, Roboto" y="174.8" dominant-baseline="middle" text-anchor="end" font-size="12" fill="#24292f">5500.0</text>
        
            
            
            <path stroke="#74838f" stroke-dasharray="10 6" stroke-width="0.5"  d="M 50.0 174.8 L 974.0 174.8" />
        
    
        
        
        <text x="45.0" font-family="-apple-system, system-ui, BlinkMacSystemFont, Roboto" y="206.0" dominant-baseline="middle" text-anchor="end" font-size="12" fill="#24292f">0.0</text>
        
    
    
        
        <path stroke="#74838f"  stroke-width="2.0"  d="M 100.63013698630137 206.0 L 100.63013698630137 214.0" />
        <text x="100.63013698630137" font-family="-apple-system, system-ui, BlinkMacSystemFont, Roboto" y="216.0" dominant-baseline="hanging" text-anchor="middle" font-size="12" fill="#24292f">Mar 2022</text>
    
        
        <path stroke="#74838f"  stroke-width="2.0"  d="M 198.72602739726028 206.0 L 198.72602739726028 214.0" />
        <text x="198.72602739726028" font-family="-apple-system, system-ui, BlinkMacSystemFont, Roboto" y="216.0" dominant-baseline="hanging" text-anchor="middle" font-size="12" fill="#24292f">Apr 2022</text>
    
        
        <path stroke="#74838f"  stroke-width="2.0"  d="M 293.6575342465753 206.0 L 293.6575342465753 214.0" />
        <text x="293.6575342465753" font-family="-apple-system, system-ui, BlinkMacSystemFont, Roboto" y="216.0" dominant-baseline="hanging" text-anchor="middle" font-size="12" fill="#24292f">May 2022</text>
    
        
        <path stroke="#74838f"  stroke-width="2.0"  d="M 391.75342465753425 206.0 L 391.75342465753425 214.0" />
        <text x="391.75342465753425" font-family="-apple-system, system-ui, BlinkMacSystemFont, Roboto" y="216.0" dominant-baseline="hanging" text-anchor="middle" font-size="12" fill="#24292f">Jun 2022</text>
    
        
        <path stroke="#74838f"  stroke-width="2.0"  d="M 486.6849315068493 206.0 L 486.6849315068493 214.0" />
        <text x="486.6849315068493" font-family="-apple-system, system-ui, BlinkMacSystemFont, Roboto" y="216.0" dominant-baseline="hanging" text-anchor="middle" font-size="12" fill="#24292f">Jul 2022</text>
    
        
        <path stroke="#74838f"  stroke-width="2.0"  d="M 584.7808219178082 206.0 L 584.7808219178082 214.0" />
        <text x="584.7808219178082" font-family="-apple-system, system-ui, BlinkMacSystemFont, Roboto" y="216.0" dominant-baseline="hanging" text-anchor="middle" font-size="12" fill="#24292f">Aug 2022</text>
    
        
        <path stroke="#74838f"  stroke-width="2.0"  d="M 682.8767123287671 206.0 L 682.8767123287671 214.0" />
        <text x="682.8767123287671" font-family="-apple-system, system-ui, BlinkMacSystemFont, Roboto" y="216.0" dominant-baseline="hanging" text-anchor="middle" font-size="12" fill="#24292f">Sep 2022</text>
    
        
        <path stroke="#74838f"  stroke-width="2.0"  d="M 777.8082191780823 206.0 L 777.8082191780823 214.0" />
        <text x="777.8082191780823" font-family="-apple-system, system-ui, BlinkMacSystemFont, Roboto" y="216.0" dominant-baseline="hanging" text-anchor="middle" font-size="12" fill="#24292f">Oct 2022</text>
    
        
        <path stroke="#74838f"  stroke-width="2.0"  d="M 875.9041095890411 206.0 L 875.9041095890411 214.0" />
        <text x="875.9041095890411" font-family="-apple-system, system-ui, BlinkMacSystemFont, Roboto" y="216.0" dominant-baseline="hanging" text-anchor="middle" font-size="12" fill="#24292f">Nov 2022</text>
    
        
        <path stroke="#74838f"  stroke-width="2.0"  d="M 970.8356164383562 206.0 L 970.8356164383562 214.0" />
        <text x="970.8356164383562" font-family="-apple-system, system-ui, BlinkMacSystemFont, Roboto" y="216.0" dominant-baseline="hanging" text-anchor="middle" font-size="12" fill="#24292f">Dec 2022</text>
    
    <path stroke="#74838f"   stroke-linejoin="round" stroke-width="2.0" d="M 50.0 216.0 L 50.0 206.0 L 974.0 206.0 L 974.0 216.0"  fill="none" />
    <text x="512.0" y="25.0" font-family="-apple-system, system-ui, BlinkMacSystemFont, Roboto" dominant-baseline="middle" text-anchor="middle" font-size="18" fill="#24292f">Total daily screen name changes</text>
</svg>
