<?xml version="1.0" standalone="no"?>
<svg width="1024.0" height="256.0"  viewBox="0 0 1024.0 256.0" preserveAspectRatio="xMidYMid meet" xmlns="http://www.w3.org/2000/svg">
    <path stroke="#3498db" stroke-linejoin="round" d="M 50.0 203.3394909090909 L 50 203.3394909090909L 52.1 202.32974545454545L 54.2 196.86690909090908L 56.3 195.94792727272727L 58.4 202.14254545454546L 60.5 197.35476363636363L 62.6 191.76145454545454L 64.7 179.96218181818182L 66.8 204.09396363636364L 68.9 194.17236363636363L 71 192.61803636363635L 73.1 195.1253818181818L 75.2 193.92843636363637L 77.3 182.2482909090909L 79.4 200.86618181818181L 81.5 201.45614545454546L 83.6 178.89003636363637L 85.69999999999999 197.33774545454546L 87.8 198.50065454545455L 89.9 200.41803636363636L 92 201.18385454545455L 94.1 202.26734545454545L 96.2 195.09134545454546L 98.3 198.08087272727272L 100.4 183.38850909090908L 102.5 197.47389090909093L 104.6 202.01774545454546L 106.7 194.66021818181818L 108.8 200.75272727272727L 110.89999999999999 200.00392727272728L 113 201.97236363636364L 115.1 204.2754909090909L 117.2 201.74545454545455L 119.3 201.01367272727273L 121.39999999999999 174.7829818181818L 123.5 195.76072727272728L 125.6 204.0032L 127.7 203.7309090909091L 129.8 197.87665454545453L 131.9 202.60770909090908L 134 202.6928L 136.10000000000002 197.55898181818182L 138.2 186.5141818181818L 140.3 199.26647272727274L 142.4 199.5728L 144.5 193.4802909090909L 146.6 199.10763636363635L 148.7 201.54690909090908L 150.8 201.5696L 152.89999999999998 195.06865454545454L 155 201.70007272727273L 157.1 197.2866909090909L 159.2 172.35505454545455L 161.3 203.20901818181818L 163.4 199.6749090909091L 165.5 193.12858181818183L 167.6 196.8896L 169.7 199.78836363636364L 171.79999999999998 198.82967272727274L 173.9 204.1336727272727L 176 202.57934545454546L 178.1 198.9261090909091L 180.2 206L 182.3 204.128L 184.4 192.1245090909091L 186.5 206L 188.6 206L 190.70000000000002 206L 192.79999999999998 206L 194.9 197.37178181818183L 197 199.57847272727273L 199.10000000000002 188.9024L 201.2 195.02894545454546L 203.3 191.20552727272727L 205.4 166.8128L 207.5 203.8386909090909L 209.6 198.09221818181817L 211.7 201.64334545454545L 213.8 202.2957090909091L 215.89999999999998 203.22036363636363L 218 200.66763636363635L 220.1 191.51185454545455L 222.20000000000002 189.18603636363636L 224.29999999999998 203.86705454545455L 226.4 197.56465454545454L 228.5 187.32538181818182L 230.60000000000002 201.2349090909091L 232.7 200.44639999999998L 234.8 201.4618181818182L 236.9 201.09876363636363L 239 201.17818181818183L 241.1 193.02647272727273L 243.2 198.8069818181818L 245.3 203.39054545454545L 247.39999999999998 200.30458181818182L 249.5 198.35883636363636L 251.6 193.3101090909091L 253.70000000000002 200.56552727272728L 255.79999999999998 203.03883636363636L 257.9 197.22996363636364L 260 201.95534545454547L 262.1 196.016L 264.2 202.30705454545455L 266.3 199.91316363636363L 268.4 194.62050909090908L 270.5 201.29163636363637L 272.6 202.98778181818182L 274.70000000000005 203.5437090909091L 276.8 200.60523636363638L 278.9 195.5621818181818L 281 203.24305454545456L 283.1 200.15709090909093L 285.2 198.46661818181818L 287.3 201.70007272727273L 289.4 200.70734545454545L 291.5 200.4293818181818L 293.59999999999997 201.76814545454545L 295.70000000000005 204.6442181818182L 297.8 206L 299.9 196.35636363636365L 302 199.21541818181817L 304.1 156.87418181818182L 306.2 165.1506909090909L 308.3 204.1733818181818L 310.4 202.17658181818183L 312.5 199.31185454545454L 314.6 198.7842909090909L 316.7 202.6757818181818L 318.8 202.8573090909091L 320.9 196.1861818181818L 323 199.64654545454545L 325.1 198.2056727272727L 327.2 201.2178909090909L 329.29999999999995 201.79083636363637L 331.40000000000003 201.90429090909092L 333.5 200.1968L 335.59999999999997 195.17076363636363L 337.7 206L 339.8 206L 341.90000000000003 206L 344 191.4834909090909L 346.09999999999997 197.79723636363636L 348.20000000000005 198.85236363636363L 350.3 199.76L 352.4 200.03796363636363L 354.5 200.76407272727272L 356.6 201.80785454545455L 358.7 191.63098181818182L 360.8 194.41061818181817L 362.9 199.88479999999998L 365 152.63098181818182L 367.1 197.04843636363637L 369.2 194.4730181818182L 371.3 155.90414545454547L 373.4 91.60945454545454L 375.5 104.5376L 377.6 151.17876363636364L 379.7 185.1981090909091L 381.79999999999995 142.76610909090908L 383.90000000000003 125.0672L 386 123.74545454545455L 388.1 157.99738181818182L 390.2 53.56814545454546L 392.3 50.78850909090909L 394.40000000000003 100.02210909090908L 396.5 156.2445090909091L 398.59999999999997 180.31956363636363L 400.7 192.43650909090908L 402.8 193.63912727272728L 404.9 193.3328L 407 192.11316363636365L 409.09999999999997 197.93338181818183L 411.20000000000005 191.5629090909091L 413.3 198.7672727272727L 415.4 199.3005090909091L 417.5 201.64901818181818L 419.6 200.58821818181818L 421.7 202.43752727272727L 423.8 200.73003636363637L 425.9 189.7703272727273L 428 203.17498181818183L 430.1 200.48610909090908L 432.2 185.1810909090909L 434.3 187.88698181818182L 436.4 191.01832727272728L 438.5 192.31738181818181L 440.6 177.09745454545455L 442.7 167.91330909090908L 444.79999999999995 179.30981818181817L 446.90000000000003 186.49716363636364L 449 150.34487272727273L 451.09999999999997 184.27345454545454L 453.2 199.5104L 455.3 161.24785454545454L 457.40000000000003 155.49003636363636L 459.5 176.96130909090908L 461.59999999999997 190.30923636363636L 463.70000000000005 193.50865454545453L 465.8 201.72843636363638L 467.9 185.22647272727272L 470 192.03374545454545L 472.1 192.66909090909093L 474.2 180.18341818181818L 476.3 194.5013818181818L 478.4 194.6829090909091L 480.5 201.85323636363637L 482.6 196.2032L 484.7 204.49105454545455L 486.8 191.55723636363638L 488.9 180.36494545454545L 491 193.02647272727273L 493.1 186.20785454545455L 495.2 191.72741818181817L 497.29999999999995 191.4834909090909L 499.40000000000003 196.63432727272726L 501.5 200.7810909090909L 503.6 176.26923636363637L 505.7 165.78036363636363L 507.8 181.82850909090908L 509.90000000000003 160.6976L 512 163.93105454545454L 514.1 182.10647272727272L 516.2 130.808L 518.3 190.49643636363635L 520.4 202.0914909090909L 522.5 184.09192727272728L 524.6 197.50225454545455L 526.7 187.54094545454547L 528.8 192.95272727272726L 530.9000000000001 201.88727272727272L 533 184.33585454545454L 535.1 183.04814545454545L 537.1999999999999 182.36741818181818L 539.3 182.54327272727272L 541.4000000000001 186.38938181818182L 543.5 174.3858909090909L 545.6 183.1786181818182L 547.7 183.5133090909091L 549.8 184.60247272727273L 551.9000000000001 186.968L 554 170.00087272727274L 556.1 167.8338909090909L 558.2 203.32247272727273L 560.3 206L 562.4 128.43112727272728L 564.5 183.2637090909091L 566.6 156.8685090909091L 568.7 183.15592727272727L 570.8 183.2013090909091L 572.9 182.25963636363636L 575 170.18807272727273L 577.1 186.86589090909092L 579.2 183.77425454545454L 581.3 186.29861818181817L 583.4 184.17134545454545L 585.5 184.9655272727273L 587.6 178.1696L 589.7 180.70530909090908L 591.8 170.80072727272727L 593.9 177.99374545454546L 596 175.99127272727273L 598.0999999999999 173.75621818181818L 600.2 175.45803636363638L 602.3000000000001 196.91796363636365L 604.4 150.30516363636363L 606.5 167.34036363636363L 608.5999999999999 174.52203636363637L 610.7 132.05599999999998L 612.8000000000001 144.8309818181818L 614.9 173.60872727272726L 617 151.91054545454546L 619.1 194.03621818181819L 621.1999999999999 160.59549090909093L 623.3000000000001 206L 625.4 153.43650909090908L 627.5 181.01163636363637L 629.6 181.6413090909091L 631.6999999999999 182.49221818181817L 633.8000000000001 183.08785454545455L 635.9 206L 638 151.86516363636363L 640.1 172.45716363636365L 642.1999999999999 169.20669090909092L 644.3 178.22065454545455L 646.4000000000001 175.54312727272728L 648.5 177.61367272727273L 650.6 181.0173090909091L 652.6999999999999 176.80814545454547L 654.8 167.8962909090909L 656.9000000000001 167.1248L 659 176.62094545454545L 661.1 158.63272727272727L 663.2 151.3602909090909L 665.3 173.35345454545455L 667.4 206L 669.5 206L 671.6 206L 673.7 206L 675.8 206L 677.9 206L 680 206L 682.1 206L 684.2 206L 686.3 206L 688.4 206L 690.5 206L 692.6 206L 694.7 206L 696.8 206L 698.9 206L 701 206L 703.1 206L 705.2 206L 707.3 206L 709.4 206L 711.5 206L 713.5999999999999 206L 715.7 206L 717.8000000000001 206L 719.9 206L 722 206L 724.0999999999999 206L 726.2 206L 728.3000000000001 206L 730.4 206L 732.5 206L 734.6 206L 736.6999999999999 206L 738.8000000000001 206L 740.9 206L 743 206L 745.1 206L 747.1999999999999 206L 749.3000000000001 206L 751.4 206L 753.5 206L 755.6 206L 757.6999999999999 206L 759.8 206L 761.9000000000001 206L 764 206L 766.1 206L 768.1999999999999 206L 770.3 206L 772.4000000000001 206L 774.5 206L 776.6 206L 778.7 206L 780.8 206L 782.9 206L 785 206L 787.1 206L 789.2 206L 791.3 206L 793.4 206L 795.5 206L 797.6 206L 799.7 206L 801.8 206L 803.9 206L 806 206L 808.1 206L 810.2 206L 812.3 206L 814.4 206L 816.5 206L 818.6 206L 820.7 206L 822.8 206L 824.9 206L 827 206L 829.0999999999999 206L 831.2 206L 833.3000000000001 206L 835.4 206L 837.5 206L 839.5999999999999 206L 841.7 206L 843.8000000000001 206L 845.9 206L 848 206L 850.1 206L 852.1999999999999 206L 854.3000000000001 206L 856.4 206L 858.5 206L 860.6 206L 862.6999999999999 206L 864.8000000000001 206L 866.9 206L 869 206L 871.1 206L 873.1999999999999 206L 875.3 206L 877.4000000000001 206L 879.5 206L 881.6 206L 883.6999999999999 206L 885.8 206L 887.9000000000001 206L 890 206L 892.1 206L 894.2 206L 896.3 206L 898.4 206L 900.5 206L 902.6 206L 904.7 206L 906.8 206L 908.9 206L 911 206L 913.1 206L 915.2 206L 917.3 206L 919.4 206L 921.5 206L 923.6 206L 925.7 206L 927.8 206L 929.9 206L 932 206L 934.1 206L 936.2 206L 938.3 206L 940.4 206L 942.5 206L 944.5999999999999 206L 946.7 206L 948.8000000000001 206L 950.9 206L 953 206L 955.0999999999999 206L 957.2 206L 959.3000000000001 206L 961.4 206L 963.5 206L 965.6 206L 967.6999999999999 206L 969.8000000000001 206L 971.9 206L 974 206" stroke-width="2.0" fill="none" />
    
        
        
        <text x="45.0" font-family="-apple-system, system-ui, BlinkMacSystemFont, Roboto" y="50.0" dominant-baseline="middle" text-anchor="end" font-size="12" fill="#24292f">27500.0</text>
        
            
            <path stroke="#74838f" stroke-dasharray="10 6" stroke-width="0.5"  d="M 50.0 50.0 L 974.0 50.0" />
        
    
        
        
        <text x="45.0" font-family="-apple-system, system-ui, BlinkMacSystemFont, Roboto" y="81.2" dominant-baseline="middle" text-anchor="end" font-size="12" fill="#24292f">22000.0</text>
        
            
            
            <path stroke="#74838f" stroke-dasharray="10 6" stroke-width="0.5"  d="M 50.0 81.2 L 974.0 81.2" />
        
    
        
        
        <text x="45.0" font-family="-apple-system, system-ui, BlinkMacSystemFont, Roboto" y="112.4" dominant-baseline="middle" text-anchor="end" font-size="12" fill="#24292f">16500.0</text>
        
            
            
            <path stroke="#74838f" stroke-dasharray="10 6" stroke-width="0.5"  d="M 50.0 112.4 L 974.0 112.4" />
        
    
        
        
        <text x="45.0" font-family="-apple-system, system-ui, BlinkMacSystemFont, Roboto" y="143.6" dominant-baseline="middle" text-anchor="end" font-size="12" fill="#24292f">11000.0</text>
        
            
            
            <path stroke="#74838f" stroke-dasharray="10 6" stroke-width="0.5"  d="M 50.0 143.6 L 974.0 143.6" />
        
    
        
        
        <text x="45.0" font-family="-apple-system, system-ui, BlinkMacSystemFont, Roboto" y="174.8" dominant-baseline="middle" text-anchor="end" font-size="12" fill="#24292f">5500.0</text>
        
            
            
            <path stroke="#74838f" stroke-dasharray="10 6" stroke-width="0.5"  d="M 50.0 174.8 L 974.0 174.8" />
        
    
        
        
        <text x="45.0" font-family="-apple-system, system-ui, BlinkMacSystemFont, Roboto" y="206.0" dominant-baseline="middle" text-anchor="end" font-size="12" fill="#24292f">0.0</text>
        
    
    
        
        <path stroke="#74838f"  stroke-width="2.0"  d="M 83.6 206.0 L 83.6 214.0" />
        <text x="83.6" font-family="-apple-system, system-ui, BlinkMacSystemFont, Roboto" y="216.0" dominant-baseline="hanging" text-anchor="middle" font-size="12" fill="#24292f">Mar 2022</text>
    
        
        <path stroke="#74838f"  stroke-width="2.0"  d="M 148.7 206.0 L 148.7 214.0" />
        <text x="148.7" font-family="-apple-system, system-ui, BlinkMacSystemFont, Roboto" y="216.0" dominant-baseline="hanging" text-anchor="middle" font-size="12" fill="#24292f">Apr 2022</text>
    
        
        <path stroke="#74838f"  stroke-width="2.0"  d="M 211.7 206.0 L 211.7 214.0" />
        <text x="211.7" font-family="-apple-system, system-ui, BlinkMacSystemFont, Roboto" y="216.0" dominant-baseline="hanging" text-anchor="middle" font-size="12" fill="#24292f">May 2022</text>
    
        
        <path stroke="#74838f"  stroke-width="2.0"  d="M 276.8 206.0 L 276.8 214.0" />
        <text x="276.8" font-family="-apple-system, system-ui, BlinkMacSystemFont, Roboto" y="216.0" dominant-baseline="hanging" text-anchor="middle" font-size="12" fill="#24292f">Jun 2022</text>
    
        
        <path stroke="#74838f"  stroke-width="2.0"  d="M 339.8 206.0 L 339.8 214.0" />
        <text x="339.8" font-family="-apple-system, system-ui, BlinkMacSystemFont, Roboto" y="216.0" dominant-baseline="hanging" text-anchor="middle" font-size="12" fill="#24292f">Jul 2022</text>
    
        
        <path stroke="#74838f"  stroke-width="2.0"  d="M 404.9 206.0 L 404.9 214.0" />
        <text x="404.9" font-family="-apple-system, system-ui, BlinkMacSystemFont, Roboto" y="216.0" dominant-baseline="hanging" text-anchor="middle" font-size="12" fill="#24292f">Aug 2022</text>
    
        
        <path stroke="#74838f"  stroke-width="2.0"  d="M 470.0 206.0 L 470.0 214.0" />
        <text x="470.0" font-family="-apple-system, system-ui, BlinkMacSystemFont, Roboto" y="216.0" dominant-baseline="hanging" text-anchor="middle" font-size="12" fill="#24292f">Sep 2022</text>
    
        
        <path stroke="#74838f"  stroke-width="2.0"  d="M 533.0 206.0 L 533.0 214.0" />
        <text x="533.0" font-family="-apple-system, system-ui, BlinkMacSystemFont, Roboto" y="216.0" dominant-baseline="hanging" text-anchor="middle" font-size="12" fill="#24292f">Oct 2022</text>
    
        
        <path stroke="#74838f"  stroke-width="2.0"  d="M 598.0999999999999 206.0 L 598.0999999999999 214.0" />
        <text x="598.0999999999999" font-family="-apple-system, system-ui, BlinkMacSystemFont, Roboto" y="216.0" dominant-baseline="hanging" text-anchor="middle" font-size="12" fill="#24292f">Nov 2022</text>
    
        
        <path stroke="#74838f"  stroke-width="2.0"  d="M 661.1 206.0 L 661.1 214.0" />
        <text x="661.1" font-family="-apple-system, system-ui, BlinkMacSystemFont, Roboto" y="216.0" dominant-baseline="hanging" text-anchor="middle" font-size="12" fill="#24292f">Dec 2022</text>
    
        
        <path stroke="#74838f"  stroke-width="2.0"  d="M 726.2 206.0 L 726.2 214.0" />
        <text x="726.2" font-family="-apple-system, system-ui, BlinkMacSystemFont, Roboto" y="216.0" dominant-baseline="hanging" text-anchor="middle" font-size="12" fill="#24292f">Jan 2023</text>
    
        
        <path stroke="#74838f"  stroke-width="2.0"  d="M 791.3 206.0 L 791.3 214.0" />
        <text x="791.3" font-family="-apple-system, system-ui, BlinkMacSystemFont, Roboto" y="216.0" dominant-baseline="hanging" text-anchor="middle" font-size="12" fill="#24292f">Feb 2023</text>
    
        
        <path stroke="#74838f"  stroke-width="2.0"  d="M 850.1 206.0 L 850.1 214.0" />
        <text x="850.1" font-family="-apple-system, system-ui, BlinkMacSystemFont, Roboto" y="216.0" dominant-baseline="hanging" text-anchor="middle" font-size="12" fill="#24292f">Mar 2023</text>
    
        
        <path stroke="#74838f"  stroke-width="2.0"  d="M 915.2 206.0 L 915.2 214.0" />
        <text x="915.2" font-family="-apple-system, system-ui, BlinkMacSystemFont, Roboto" y="216.0" dominant-baseline="hanging" text-anchor="middle" font-size="12" fill="#24292f">Apr 2023</text>
    
    <path stroke="#74838f"   stroke-linejoin="round" stroke-width="2.0" d="M 50.0 216.0 L 50.0 206.0 L 974.0 206.0 L 974.0 216.0"  fill="none" />
    <text x="512.0" y="25.0" font-family="-apple-system, system-ui, BlinkMacSystemFont, Roboto" dominant-baseline="middle" text-anchor="middle" font-size="18" fill="#24292f">Total daily screen name changes</text>
</svg>
