<?xml version="1.0" standalone="no"?>
<svg width="1024.0" height="256.0"  viewBox="0 0 1024.0 256.0" preserveAspectRatio="xMidYMid meet" xmlns="http://www.w3.org/2000/svg">
    <path stroke="#3498db" stroke-linejoin="round" d="M 50.0 203.3394909090909 L 50 203.3394909090909L 52.275862068965516 202.32974545454545L 54.55172413793103 196.86690909090908L 56.827586206896555 195.94792727272727L 59.10344827586207 202.14254545454546L 61.37931034482759 197.35476363636363L 63.6551724137931 191.76145454545454L 65.93103448275862 179.96218181818182L 68.20689655172414 204.09396363636364L 70.48275862068965 194.17236363636363L 72.75862068965517 192.61803636363635L 75.0344827586207 195.1253818181818L 77.3103448275862 193.92843636363637L 79.58620689655173 182.2482909090909L 81.86206896551724 200.86618181818181L 84.13793103448276 201.45614545454546L 86.41379310344828 178.89003636363637L 88.6896551724138 197.33774545454546L 90.9655172413793 198.50065454545455L 93.24137931034483 200.41803636363636L 95.51724137931035 201.18385454545455L 97.79310344827587 202.26734545454545L 100.06896551724138 195.09134545454546L 102.34482758620689 198.08087272727272L 104.62068965517241 183.38850909090908L 106.89655172413794 197.47389090909093L 109.17241379310346 202.01774545454546L 111.44827586206897 194.66021818181818L 113.72413793103448 200.75272727272727L 116 200.00392727272728L 118.27586206896552 201.97236363636364L 120.55172413793103 204.2754909090909L 122.82758620689656 201.74545454545455L 125.10344827586206 201.01367272727273L 127.37931034482759 174.7829818181818L 129.6551724137931 195.76072727272728L 131.9310344827586 204.0032L 134.20689655172413 203.7309090909091L 136.48275862068965 197.87665454545453L 138.75862068965517 202.60770909090908L 141.0344827586207 202.6928L 143.31034482758622 197.55898181818182L 145.58620689655174 186.5141818181818L 147.86206896551724 199.26647272727274L 150.13793103448276 199.5728L 152.41379310344828 193.4802909090909L 154.68965517241378 199.10763636363635L 156.9655172413793 201.54690909090908L 159.24137931034483 201.5696L 161.51724137931035 195.06865454545454L 163.79310344827587 201.70007272727273L 166.0689655172414 197.2866909090909L 168.34482758620692 172.35505454545455L 170.62068965517244 203.20901818181818L 172.89655172413794 199.6749090909091L 175.17241379310343 193.12858181818183L 177.44827586206895 196.8896L 179.72413793103448 199.78836363636364L 182 198.82967272727274L 184.2758620689655 204.1336727272727L 186.55172413793105 202.57934545454546L 188.82758620689657 198.9261090909091L 191.10344827586206 206L 193.3793103448276 204.128L 195.6551724137931 192.1245090909091L 197.93103448275863 206L 200.20689655172413 206L 202.48275862068965 206L 204.75862068965517 206L 207.03448275862067 197.37178181818183L 209.31034482758622 199.57847272727273L 211.58620689655174 188.9024L 213.86206896551724 195.02894545454546L 216.13793103448276 191.20552727272727L 218.41379310344828 166.8128L 220.68965517241378 203.8386909090909L 222.9655172413793 198.09221818181817L 225.24137931034483 201.64334545454545L 227.51724137931032 202.2957090909091L 229.79310344827587 203.22036363636363L 232.0689655172414 200.66763636363635L 234.3448275862069 191.51185454545455L 236.6206896551724 189.18603636363636L 238.89655172413794 203.86705454545455L 241.17241379310346 197.56465454545454L 243.44827586206895 187.32538181818182L 245.72413793103448 201.2349090909091L 248 200.44639999999998L 250.27586206896552 201.4618181818182L 252.55172413793105 201.09876363636363L 254.82758620689657 201.17818181818183L 257.1034482758621 193.02647272727273L 259.37931034482756 198.8069818181818L 261.65517241379314 203.39054545454545L 263.9310344827586 200.30458181818182L 266.2068965517241 198.35883636363636L 268.48275862068965 193.3101090909091L 270.7586206896552 200.56552727272728L 273.0344827586207 203.03883636363636L 275.3103448275862 197.22996363636364L 277.58620689655174 201.95534545454547L 279.8620689655172 196.016L 282.1379310344828 202.30705454545455L 284.41379310344826 199.91316363636363L 286.68965517241384 194.62050909090908L 288.9655172413793 201.29163636363637L 291.2413793103449 202.98778181818182L 293.51724137931035 203.5437090909091L 295.7931034482759 200.60523636363638L 298.0689655172414 195.5621818181818L 300.34482758620686 203.24305454545456L 302.62068965517244 200.15709090909093L 304.8965517241379 198.46661818181818L 307.17241379310343 201.70007272727273L 309.44827586206895 200.70734545454545L 311.7241379310345 200.4293818181818L 314 201.76814545454545L 316.2758620689655 204.6442181818182L 318.551724137931 206L 320.8275862068965 196.35636363636365L 323.1034482758621 199.21541818181817L 325.3793103448276 156.87418181818182L 327.65517241379314 165.1506909090909L 329.93103448275866 204.1733818181818L 332.2068965517241 202.17658181818183L 334.48275862068965 199.31185454545454L 336.7586206896552 198.7842909090909L 339.0344827586207 202.6757818181818L 341.3103448275862 202.8573090909091L 343.58620689655174 196.1861818181818L 345.86206896551727 199.64654545454545L 348.13793103448273 198.2056727272727L 350.41379310344826 201.2178909090909L 352.6896551724138 201.79083636363637L 354.9655172413793 201.90429090909092L 357.2413793103448 200.1968L 359.51724137931035 195.17076363636363L 361.7931034482758 206L 364.06896551724134 206L 366.3448275862069 206L 368.62068965517244 191.4834909090909L 370.89655172413796 197.79723636363636L 373.1724137931035 198.85236363636363L 375.44827586206895 199.76L 377.7241379310345 200.03796363636363L 380 200.76407272727272L 382.2758620689655 201.80785454545455L 384.55172413793105 191.63098181818182L 386.82758620689657 194.41061818181817L 389.1034482758621 199.88479999999998L 391.37931034482756 152.63098181818182L 393.6551724137931 197.04843636363637L 395.9310344827586 194.4730181818182L 398.2068965517241 155.90414545454547L 400.48275862068965 91.60945454545454L 402.7586206896552 104.5376L 405.03448275862064 151.17876363636364L 407.3103448275862 185.1981090909091L 409.58620689655174 142.76610909090908L 411.86206896551727 125.0672L 414.1379310344828 123.74545454545455L 416.4137931034483 157.99738181818182L 418.6896551724138 53.56814545454546L 420.9655172413793 50.78850909090909L 423.2413793103448 100.02210909090908L 425.51724137931035 156.2445090909091L 427.7931034482759 180.31956363636363L 430.0689655172414 192.43650909090908L 432.3448275862069 193.63912727272728L 434.6206896551724 193.3328L 436.8965517241379 192.11316363636365L 439.17241379310343 197.93338181818183L 441.44827586206895 191.5629090909091L 443.7241379310345 198.7672727272727L 446 199.3005090909091L 448.27586206896547 201.64901818181818L 450.55172413793105 200.58821818181818L 452.82758620689657 202.43752727272727L 455.1034482758621 200.73003636363637L 457.3793103448276 189.7703272727273L 459.65517241379314 203.17498181818183L 461.9310344827586 200.48610909090908L 464.2068965517241 185.1810909090909L 466.48275862068965 187.88698181818182L 468.7586206896552 191.01832727272728L 471.0344827586207 192.31738181818181L 473.3103448275862 177.09745454545455L 475.58620689655174 167.91330909090908L 477.8620689655172 179.30981818181817L 480.13793103448273 186.49716363636364L 482.41379310344826 150.34487272727273L 484.6896551724138 184.27345454545454L 486.9655172413793 199.5104L 489.2413793103448 161.24785454545454L 491.51724137931035 155.49003636363636L 493.7931034482759 176.96130909090908L 496.0689655172414 190.30923636363636L 498.3448275862069 193.50865454545453L 500.62068965517244 201.72843636363638L 502.89655172413796 185.22647272727272L 505.17241379310343 192.03374545454545L 507.44827586206895 192.66909090909093L 509.7241379310345 180.18341818181818L 512 194.5013818181818L 514.2758620689656 194.6829090909091L 516.551724137931 201.85323636363637L 518.8275862068965 196.2032L 521.1034482758621 204.49105454545455L 523.3793103448277 191.55723636363638L 525.655172413793 180.36494545454545L 527.9310344827586 193.02647272727273L 530.2068965517242 186.20785454545455L 532.4827586206898 191.72741818181817L 534.7586206896551 191.4834909090909L 537.0344827586207 196.63432727272726L 539.3103448275862 200.7810909090909L 541.5862068965517 176.26923636363637L 543.8620689655172 165.78036363636363L 546.1379310344828 181.82850909090908L 548.4137931034483 160.6976L 550.6896551724137 163.93105454545454L 552.9655172413793 182.10647272727272L 555.2413793103449 130.808L 557.5172413793105 190.49643636363635L 559.7931034482758 202.0914909090909L 562.0689655172414 184.09192727272728L 564.3448275862069 197.50225454545455L 566.6206896551724 187.54094545454547L 568.8965517241379 192.95272727272726L 571.1724137931035 201.88727272727272L 573.448275862069 184.33585454545454L 575.7241379310345 183.04814545454545L 578 182.36741818181818L 580.2758620689656 182.54327272727272L 582.551724137931 186.38938181818182L 584.8275862068965 174.3858909090909L 587.103448275862 183.1786181818182L 589.3793103448276 183.5133090909091L 591.655172413793 184.60247272727273L 593.9310344827586 186.968L 596.2068965517242 170.00087272727274L 598.4827586206897 167.8338909090909L 600.7586206896552 203.32247272727273L 603.0344827586207 206L 605.3103448275863 128.43112727272728L 607.5862068965517 183.2637090909091L 609.8620689655173 156.8685090909091L 612.1379310344828 183.15592727272727L 614.4137931034483 183.2013090909091L 616.6896551724137 182.25963636363636L 618.9655172413793 170.18807272727273L 621.2413793103448 186.86589090909092L 623.5172413793103 183.77425454545454L 625.7931034482758 186.29861818181817L 628.0689655172414 184.17134545454545L 630.3448275862069 184.9655272727273L 632.6206896551724 178.1696L 634.8965517241379 180.70530909090908L 637.1724137931035 170.80072727272727L 639.4482758620691 177.99374545454546L 641.7241379310345 175.99127272727273L 644 173.75621818181818L 646.2758620689655 175.45803636363638L 648.551724137931 196.91796363636365L 650.8275862068965 150.30516363636363L 653.1034482758621 167.34036363636363L 655.3793103448276 174.52203636363637L 657.6551724137931 132.05599999999998L 659.9310344827586 144.8309818181818L 662.2068965517242 173.60872727272726L 664.4827586206897 151.91054545454546L 666.7586206896552 194.03621818181819L 669.0344827586207 160.59549090909093L 671.3103448275862 206L 673.5862068965516 153.43650909090908L 675.8620689655172 181.01163636363637L 678.1379310344827 181.6413090909091L 680.4137931034483 182.49221818181817L 682.6896551724138 183.08785454545455L 684.9655172413793 206L 687.2413793103449 151.86516363636363L 689.5172413793103 172.45716363636365L 691.7931034482759 169.20669090909092L 694.0689655172414 178.22065454545455L 696.344827586207 175.54312727272728L 698.6206896551724 177.61367272727273L 700.8965517241379 181.0173090909091L 703.1724137931034 176.80814545454547L 705.448275862069 167.8962909090909L 707.7241379310344 167.1248L 710 176.62094545454545L 712.2758620689655 158.63272727272727L 714.551724137931 151.3602909090909L 716.8275862068965 173.35345454545455L 719.1034482758621 206L 721.3793103448276 206L 723.6551724137931 206L 725.9310344827587 206L 728.2068965517242 206L 730.4827586206897 206L 732.7586206896551 206L 735.0344827586207 206L 737.3103448275862 206L 739.5862068965517 206L 741.8620689655172 206L 744.1379310344828 206L 746.4137931034483 206L 748.6896551724138 206L 750.9655172413793 206L 753.2413793103449 206L 755.5172413793103 206L 757.7931034482758 206L 760.0689655172413 206L 762.3448275862069 206L 764.6206896551724 206L 766.8965517241379 206L 769.1724137931035 206L 771.448275862069 206L 773.7241379310345 206L 776 206L 778.2758620689656 206L 780.551724137931 206L 782.8275862068966 206L 785.1034482758621 206L 787.3793103448276 206L 789.655172413793 206L 791.9310344827586 206L 794.2068965517241 206L 796.4827586206897 206L 798.7586206896551 206L 801.0344827586207 206L 803.3103448275862 206L 805.5862068965517 206L 807.8620689655173 206L 810.1379310344828 206L 812.4137931034484 206L 814.6896551724138 206L 816.9655172413793 206L 819.2413793103448 206L 821.5172413793103 206L 823.7931034482758 206L 826.0689655172414 206L 828.3448275862069 206L 830.6206896551724 206L 832.8965517241379 206L 835.1724137931035 206L 837.448275862069 206L 839.7241379310345 206L 842 206L 844.2758620689655 206L 846.5517241379309 206L 848.8275862068965 206L 851.1034482758621 206L 853.3793103448276 206L 855.6551724137931 206L 857.9310344827586 206L 860.2068965517242 206L 862.4827586206897 206L 864.7586206896552 206L 867.0344827586207 206L 869.3103448275863 206L 871.5862068965517 206L 873.8620689655172 206L 876.1379310344827 206L 878.4137931034483 206L 880.6896551724137 206L 882.9655172413793 206L 885.2413793103448 206L 887.5172413793103 206L 889.7931034482758 206L 892.0689655172414 206L 894.344827586207 206L 896.6206896551724 206L 898.896551724138 206L 901.1724137931035 206L 903.448275862069 206L 905.7241379310344 206L 908 206L 910.2758620689655 206L 912.551724137931 206L 914.8275862068965 206L 917.1034482758621 206L 919.3793103448276 206L 921.6551724137931 206L 923.9310344827586 206L 926.2068965517242 206L 928.4827586206897 206L 930.7586206896551 206L 933.0344827586207 206L 935.3103448275862 206L 937.5862068965517 206L 939.8620689655172 206L 942.1379310344828 206L 944.4137931034483 206L 946.6896551724138 206L 948.9655172413793 206L 951.2413793103449 206L 953.5172413793103 206L 955.7931034482759 206L 958.0689655172414 206L 960.3448275862069 206L 962.6206896551723 206L 964.8965517241379 206L 967.1724137931034 206L 969.448275862069 206L 971.7241379310344 206L 974 206" stroke-width="2.0" fill="none" />
    
        
        
        <text x="45.0" font-family="-apple-system, system-ui, BlinkMacSystemFont, Roboto" y="50.0" dominant-baseline="middle" text-anchor="end" font-size="12" fill="#24292f">27500.0</text>
        
            
            <path stroke="#74838f" stroke-dasharray="10 6" stroke-width="0.5"  d="M 50.0 50.0 L 974.0 50.0" />
        
    
        
        
        <text x="45.0" font-family="-apple-system, system-ui, BlinkMacSystemFont, Roboto" y="81.2" dominant-baseline="middle" text-anchor="end" font-size="12" fill="#24292f">22000.0</text>
        
            
            
            <path stroke="#74838f" stroke-dasharray="10 6" stroke-width="0.5"  d="M 50.0 81.2 L 974.0 81.2" />
        
    
        
        
        <text x="45.0" font-family="-apple-system, system-ui, BlinkMacSystemFont, Roboto" y="112.4" dominant-baseline="middle" text-anchor="end" font-size="12" fill="#24292f">16500.0</text>
        
            
            
            <path stroke="#74838f" stroke-dasharray="10 6" stroke-width="0.5"  d="M 50.0 112.4 L 974.0 112.4" />
        
    
        
        
        <text x="45.0" font-family="-apple-system, system-ui, BlinkMacSystemFont, Roboto" y="143.6" dominant-baseline="middle" text-anchor="end" font-size="12" fill="#24292f">11000.0</text>
        
            
            
            <path stroke="#74838f" stroke-dasharray="10 6" stroke-width="0.5"  d="M 50.0 143.6 L 974.0 143.6" />
        
    
        
        
        <text x="45.0" font-family="-apple-system, system-ui, BlinkMacSystemFont, Roboto" y="174.8" dominant-baseline="middle" text-anchor="end" font-size="12" fill="#24292f">5500.0</text>
        
            
            
            <path stroke="#74838f" stroke-dasharray="10 6" stroke-width="0.5"  d="M 50.0 174.8 L 974.0 174.8" />
        
    
        
        
        <text x="45.0" font-family="-apple-system, system-ui, BlinkMacSystemFont, Roboto" y="206.0" dominant-baseline="middle" text-anchor="end" font-size="12" fill="#24292f">0.0</text>
        
    
    
        
        <path stroke="#74838f"  stroke-width="2.0"  d="M 86.41379310344828 206.0 L 86.41379310344828 214.0" />
        <text x="86.41379310344828" font-family="-apple-system, system-ui, BlinkMacSystemFont, Roboto" y="216.0" dominant-baseline="hanging" text-anchor="middle" font-size="12" fill="#24292f">Mar 2022</text>
    
        
        <path stroke="#74838f"  stroke-width="2.0"  d="M 156.9655172413793 206.0 L 156.9655172413793 214.0" />
        <text x="156.9655172413793" font-family="-apple-system, system-ui, BlinkMacSystemFont, Roboto" y="216.0" dominant-baseline="hanging" text-anchor="middle" font-size="12" fill="#24292f">Apr 2022</text>
    
        
        <path stroke="#74838f"  stroke-width="2.0"  d="M 225.24137931034483 206.0 L 225.24137931034483 214.0" />
        <text x="225.24137931034483" font-family="-apple-system, system-ui, BlinkMacSystemFont, Roboto" y="216.0" dominant-baseline="hanging" text-anchor="middle" font-size="12" fill="#24292f">May 2022</text>
    
        
        <path stroke="#74838f"  stroke-width="2.0"  d="M 295.7931034482759 206.0 L 295.7931034482759 214.0" />
        <text x="295.7931034482759" font-family="-apple-system, system-ui, BlinkMacSystemFont, Roboto" y="216.0" dominant-baseline="hanging" text-anchor="middle" font-size="12" fill="#24292f">Jun 2022</text>
    
        
        <path stroke="#74838f"  stroke-width="2.0"  d="M 364.06896551724134 206.0 L 364.06896551724134 214.0" />
        <text x="364.06896551724134" font-family="-apple-system, system-ui, BlinkMacSystemFont, Roboto" y="216.0" dominant-baseline="hanging" text-anchor="middle" font-size="12" fill="#24292f">Jul 2022</text>
    
        
        <path stroke="#74838f"  stroke-width="2.0"  d="M 434.6206896551724 206.0 L 434.6206896551724 214.0" />
        <text x="434.6206896551724" font-family="-apple-system, system-ui, BlinkMacSystemFont, Roboto" y="216.0" dominant-baseline="hanging" text-anchor="middle" font-size="12" fill="#24292f">Aug 2022</text>
    
        
        <path stroke="#74838f"  stroke-width="2.0"  d="M 505.17241379310343 206.0 L 505.17241379310343 214.0" />
        <text x="505.17241379310343" font-family="-apple-system, system-ui, BlinkMacSystemFont, Roboto" y="216.0" dominant-baseline="hanging" text-anchor="middle" font-size="12" fill="#24292f">Sep 2022</text>
    
        
        <path stroke="#74838f"  stroke-width="2.0"  d="M 573.448275862069 206.0 L 573.448275862069 214.0" />
        <text x="573.448275862069" font-family="-apple-system, system-ui, BlinkMacSystemFont, Roboto" y="216.0" dominant-baseline="hanging" text-anchor="middle" font-size="12" fill="#24292f">Oct 2022</text>
    
        
        <path stroke="#74838f"  stroke-width="2.0"  d="M 644.0 206.0 L 644.0 214.0" />
        <text x="644.0" font-family="-apple-system, system-ui, BlinkMacSystemFont, Roboto" y="216.0" dominant-baseline="hanging" text-anchor="middle" font-size="12" fill="#24292f">Nov 2022</text>
    
        
        <path stroke="#74838f"  stroke-width="2.0"  d="M 712.2758620689655 206.0 L 712.2758620689655 214.0" />
        <text x="712.2758620689655" font-family="-apple-system, system-ui, BlinkMacSystemFont, Roboto" y="216.0" dominant-baseline="hanging" text-anchor="middle" font-size="12" fill="#24292f">Dec 2022</text>
    
        
        <path stroke="#74838f"  stroke-width="2.0"  d="M 782.8275862068966 206.0 L 782.8275862068966 214.0" />
        <text x="782.8275862068966" font-family="-apple-system, system-ui, BlinkMacSystemFont, Roboto" y="216.0" dominant-baseline="hanging" text-anchor="middle" font-size="12" fill="#24292f">Jan 2023</text>
    
        
        <path stroke="#74838f"  stroke-width="2.0"  d="M 853.3793103448276 206.0 L 853.3793103448276 214.0" />
        <text x="853.3793103448276" font-family="-apple-system, system-ui, BlinkMacSystemFont, Roboto" y="216.0" dominant-baseline="hanging" text-anchor="middle" font-size="12" fill="#24292f">Feb 2023</text>
    
        
        <path stroke="#74838f"  stroke-width="2.0"  d="M 917.1034482758621 206.0 L 917.1034482758621 214.0" />
        <text x="917.1034482758621" font-family="-apple-system, system-ui, BlinkMacSystemFont, Roboto" y="216.0" dominant-baseline="hanging" text-anchor="middle" font-size="12" fill="#24292f">Mar 2023</text>
    
    <path stroke="#74838f"   stroke-linejoin="round" stroke-width="2.0" d="M 50.0 216.0 L 50.0 206.0 L 974.0 206.0 L 974.0 216.0"  fill="none" />
    <text x="512.0" y="25.0" font-family="-apple-system, system-ui, BlinkMacSystemFont, Roboto" dominant-baseline="middle" text-anchor="middle" font-size="18" fill="#24292f">Total daily screen name changes</text>
</svg>
