<?xml version="1.0" standalone="no"?>
<svg width="1024.0" height="256.0"  viewBox="0 0 1024.0 256.0" preserveAspectRatio="xMidYMid meet" xmlns="http://www.w3.org/2000/svg">
    <path stroke="#3498db" stroke-linejoin="round" d="M 50.0 203.3394909090909 L 50 203.3394909090909L 52.490566037735846 202.32974545454545L 54.9811320754717 196.86690909090908L 57.471698113207545 195.94792727272727L 59.9622641509434 202.14254545454546L 62.45283018867924 197.35476363636363L 64.94339622641509 191.76145454545454L 67.43396226415095 179.96218181818182L 69.9245283018868 204.09396363636364L 72.41509433962264 194.17236363636363L 74.90566037735849 192.61803636363635L 77.39622641509433 195.1253818181818L 79.88679245283019 193.92843636363637L 82.37735849056604 182.2482909090909L 84.86792452830188 200.86618181818181L 87.35849056603773 201.45614545454546L 89.84905660377359 178.89003636363637L 92.33962264150944 197.33774545454546L 94.83018867924528 198.50065454545455L 97.32075471698113 200.41803636363636L 99.81132075471697 201.18385454545455L 102.30188679245283 202.26734545454545L 104.79245283018868 195.09134545454546L 107.28301886792453 198.08087272727272L 109.77358490566039 183.38850909090908L 112.26415094339623 197.47389090909093L 114.75471698113208 202.01774545454546L 117.24528301886792 194.66021818181818L 119.73584905660377 200.75272727272727L 122.22641509433963 200.00392727272728L 124.71698113207546 201.97236363636364L 127.20754716981132 204.2754909090909L 129.69811320754718 201.74545454545455L 132.18867924528303 201.01367272727273L 134.67924528301887 174.7829818181818L 137.16981132075472 195.76072727272728L 139.66037735849056 204.0032L 142.1509433962264 203.7309090909091L 144.64150943396226 197.87665454545453L 147.1320754716981 202.60770909090908L 149.62264150943395 202.6928L 152.1132075471698 197.55898181818182L 154.60377358490567 186.5141818181818L 157.09433962264148 199.26647272727274L 159.58490566037736 199.5728L 162.0754716981132 193.4802909090909L 164.56603773584905 199.10763636363635L 167.0566037735849 201.54690909090908L 169.54716981132077 201.5696L 172.03773584905662 195.06865454545454L 174.52830188679246 201.70007272727273L 177.0188679245283 197.2866909090909L 179.50943396226415 172.35505454545455L 182 203.20901818181818L 184.49056603773585 199.6749090909091L 186.9811320754717 193.12858181818183L 189.47169811320754 196.8896L 191.9622641509434 199.78836363636364L 194.45283018867926 198.82967272727274L 196.9433962264151 204.1336727272727L 199.43396226415092 202.57934545454546L 201.9245283018868 198.9261090909091L 204.41509433962264 206L 206.9056603773585 204.128L 209.39622641509436 192.1245090909091L 211.88679245283018 206L 214.37735849056602 206L 216.8679245283019 206L 219.35849056603774 206L 221.8490566037736 197.37178181818183L 224.33962264150944 199.57847272727273L 226.83018867924528 188.9024L 229.32075471698113 195.02894545454546L 231.81132075471697 191.20552727272727L 234.30188679245285 166.8128L 236.79245283018867 203.8386909090909L 239.2830188679245 198.09221818181817L 241.77358490566039 201.64334545454545L 244.26415094339623 202.2957090909091L 246.75471698113208 203.22036363636363L 249.24528301886792 200.66763636363635L 251.73584905660377 191.51185454545455L 254.22641509433961 189.18603636363636L 256.7169811320755 203.86705454545455L 259.20754716981133 197.56465454545454L 261.6981132075472 187.32538181818182L 264.18867924528297 201.2349090909091L 266.6792452830189 200.44639999999998L 269.1698113207547 201.4618181818182L 271.66037735849056 201.09876363636363L 274.1509433962264 201.17818181818183L 276.64150943396226 193.02647272727273L 279.1320754716981 198.8069818181818L 281.62264150943395 203.39054545454545L 284.1132075471698 200.30458181818182L 286.60377358490564 198.35883636363636L 289.09433962264154 193.3101090909091L 291.58490566037733 200.56552727272728L 294.07547169811323 203.03883636363636L 296.566037735849 197.22996363636364L 299.0566037735849 201.95534545454547L 301.54716981132077 196.016L 304.0377358490566 202.30705454545455L 306.52830188679246 199.91316363636363L 309.0188679245283 194.62050909090908L 311.50943396226415 201.29163636363637L 314 202.98778181818182L 316.49056603773585 203.5437090909091L 318.9811320754717 200.60523636363638L 321.47169811320754 195.5621818181818L 323.9622641509434 203.24305454545456L 326.45283018867923 200.15709090909093L 328.9433962264151 198.46661818181818L 331.4339622641509 201.70007272727273L 333.9245283018868 200.70734545454545L 336.41509433962267 200.4293818181818L 338.9056603773585 201.76814545454545L 341.39622641509436 204.6442181818182L 343.8867924528302 206L 346.377358490566 196.35636363636365L 348.86792452830184 199.21541818181817L 351.35849056603774 156.87418181818182L 353.8490566037736 165.1506909090909L 356.33962264150944 204.1733818181818L 358.8301886792453 202.17658181818183L 361.3207547169811 199.31185454545454L 363.811320754717 198.7842909090909L 366.3018867924529 202.6757818181818L 368.7924528301887 202.8573090909091L 371.2830188679245 196.1861818181818L 373.77358490566036 199.64654545454545L 376.2641509433962 198.2056727272727L 378.75471698113205 201.2178909090909L 381.2452830188679 201.79083636363637L 383.7358490566038 201.90429090909092L 386.22641509433964 200.1968L 388.7169811320755 195.17076363636363L 391.20754716981133 206L 393.6981132075472 206L 396.188679245283 206L 398.6792452830189 191.4834909090909L 401.1698113207547 197.79723636363636L 403.66037735849056 198.85236363636363L 406.1509433962264 199.76L 408.64150943396226 200.03796363636363L 411.1320754716981 200.76407272727272L 413.62264150943395 201.80785454545455L 416.11320754716985 191.63098181818182L 418.6037735849057 194.41061818181817L 421.09433962264154 199.88479999999998L 423.58490566037733 152.63098181818182L 426.0754716981132 197.04843636363637L 428.566037735849 194.4730181818182L 431.0566037735849 155.90414545454547L 433.54716981132077 91.60945454545454L 436.0377358490566 104.5376L 438.52830188679246 151.17876363636364L 441.0188679245283 185.1981090909091L 443.50943396226415 142.76610909090908L 446 125.0672L 448.49056603773585 123.74545454545455L 450.9811320754717 157.99738181818182L 453.47169811320754 53.56814545454546L 455.9622641509434 50.78850909090909L 458.45283018867923 100.02210909090908L 460.9433962264151 156.2445090909091L 463.433962264151 180.31956363636363L 465.9245283018868 192.43650909090908L 468.41509433962267 193.63912727272728L 470.9056603773585 193.3328L 473.39622641509436 192.11316363636365L 475.88679245283015 197.93338181818183L 478.377358490566 191.5629090909091L 480.8679245283019 198.7672727272727L 483.35849056603774 199.3005090909091L 485.8490566037736 201.64901818181818L 488.33962264150944 200.58821818181818L 490.8301886792453 202.43752727272727L 493.3207547169811 200.73003636363637L 495.81132075471703 189.7703272727273L 498.3018867924528 203.17498181818183L 500.79245283018867 200.48610909090908L 503.2830188679245 185.1810909090909L 505.77358490566036 187.88698181818182L 508.2641509433962 191.01832727272728L 510.75471698113205 192.31738181818181L 513.2452830188679 177.09745454545455L 515.7358490566038 167.91330909090908L 518.2264150943396 179.30981818181817L 520.7169811320755 186.49716363636364L 523.2075471698113 150.34487272727273L 525.6981132075472 184.27345454545454L 528.1886792452831 199.5104L 530.6792452830189 161.24785454545454L 533.1698113207547 155.49003636363636L 535.6603773584905 176.96130909090908L 538.1509433962265 190.30923636363636L 540.6415094339623 193.50865454545453L 543.132075471698 201.72843636363638L 545.6226415094341 185.22647272727272L 548.1132075471698 192.03374545454545L 550.6037735849056 192.66909090909093L 553.0943396226415 180.18341818181818L 555.5849056603773 194.5013818181818L 558.0754716981132 194.6829090909091L 560.566037735849 201.85323636363637L 563.0566037735849 196.2032L 565.5471698113207 204.49105454545455L 568.0377358490566 191.55723636363638L 570.5283018867925 180.36494545454545L 573.0188679245283 193.02647272727273L 575.5094339622642 186.20785454545455L 578 191.72741818181817L 580.4905660377359 191.4834909090909L 582.9811320754717 196.63432727272726L 585.4716981132076 200.7810909090909L 587.9622641509434 176.26923636363637L 590.4528301886792 165.78036363636363L 592.9433962264151 181.82850909090908L 595.4339622641509 160.6976L 597.9245283018868 163.93105454545454L 600.4150943396226 182.10647272727272L 602.9056603773585 130.808L 605.3962264150944 190.49643636363635L 607.8867924528302 202.0914909090909L 610.377358490566 184.09192727272728L 612.8679245283018 197.50225454545455L 615.3584905660377 187.54094545454547L 617.8490566037736 192.95272727272726L 620.3396226415094 201.88727272727272L 622.8301886792453 184.33585454545454L 625.3207547169811 183.04814545454545L 627.811320754717 182.36741818181818L 630.3018867924528 182.54327272727272L 632.7924528301887 186.38938181818182L 635.2830188679246 174.3858909090909L 637.7735849056604 183.1786181818182L 640.2641509433962 183.5133090909091L 642.754716981132 184.60247272727273L 645.2452830188679 186.968L 647.7358490566037 170.00087272727274L 650.2264150943396 167.8338909090909L 652.7169811320755 203.32247272727273L 655.2075471698113 206L 657.6981132075472 128.43112727272728L 660.188679245283 183.2637090909091L 662.6792452830189 156.8685090909091L 665.1698113207547 183.15592727272727L 667.6603773584906 183.2013090909091L 670.1509433962265 182.25963636363636L 672.6415094339623 170.18807272727273L 675.1320754716982 186.86589090909092L 677.622641509434 183.77425454545454L 680.1132075471698 186.29861818181817L 682.6037735849058 184.17134545454545L 685.0943396226415 184.9655272727273L 687.5849056603774 178.1696L 690.0754716981132 180.70530909090908L 692.566037735849 170.80072727272727L 695.0566037735848 177.99374545454546L 697.5471698113207 175.99127272727273L 700.0377358490566 173.75621818181818L 702.5283018867924 175.45803636363638L 705.0188679245283 196.91796363636365L 707.5094339622641 150.30516363636363L 710 167.34036363636363L 712.4905660377358 174.52203636363637L 714.9811320754717 132.05599999999998L 717.4716981132076 144.8309818181818L 719.9622641509434 173.60872727272726L 722.4528301886793 151.91054545454546L 724.9433962264151 194.03621818181819L 727.433962264151 160.59549090909093L 729.9245283018868 206L 732.4150943396227 153.43650909090908L 734.9056603773586 181.01163636363637L 737.3962264150944 181.6413090909091L 739.8867924528303 182.49221818181817L 742.377358490566 183.08785454545455L 744.8679245283018 206L 747.3584905660377 151.86516363636363L 749.8490566037735 172.45716363636365L 752.3396226415094 169.20669090909092L 754.8301886792452 178.22065454545455L 757.3207547169811 175.54312727272728L 759.8113207547169 177.61367272727273L 762.3018867924528 181.0173090909091L 764.7924528301887 176.80814545454547L 767.2830188679245 167.8962909090909L 769.7735849056604 167.1248L 772.2641509433962 176.62094545454545L 774.7547169811321 158.63272727272727L 777.2452830188679 151.3602909090909L 779.7358490566038 173.35345454545455L 782.2264150943397 206L 784.7169811320755 206L 787.2075471698114 206L 789.6981132075472 206L 792.1886792452831 206L 794.6792452830189 206L 797.1698113207547 206L 799.6603773584906 206L 802.1509433962264 206L 804.6415094339623 206L 807.132075471698 206L 809.622641509434 206L 812.1132075471698 206L 814.6037735849056 206L 817.0943396226415 206L 819.5849056603773 206L 822.0754716981132 206L 824.566037735849 206L 827.0566037735849 206L 829.5471698113208 206L 832.0377358490566 206L 834.5283018867925 206L 837.0188679245283 206L 839.5094339622642 206L 842 206L 844.4905660377359 206L 846.9811320754717 206L 849.4716981132075 206L 851.9622641509434 206L 854.4528301886792 206L 856.9433962264151 206L 859.4339622641509 206L 861.9245283018868 206L 864.4150943396227 206L 866.9056603773585 206L 869.3962264150944 206L 871.8867924528302 206L 874.377358490566 206L 876.867924528302 206L 879.3584905660377 206L 881.8490566037736 206L 884.3396226415094 206L 886.8301886792453 206L 889.3207547169811 206L 891.811320754717 206L 894.3018867924529 206L 896.7924528301887 206L 899.2830188679245 206L 901.7735849056603 206L 904.2641509433962 206L 906.754716981132 206L 909.2452830188679 206L 911.7358490566038 206L 914.2264150943396 206L 916.7169811320755 206L 919.2075471698113 206L 921.6981132075472 206L 924.188679245283 206L 926.6792452830189 206L 929.1698113207548 206L 931.6603773584906 206L 934.1509433962265 206L 936.6415094339623 206L 939.1320754716982 206L 941.6226415094341 206L 944.1132075471698 206L 946.6037735849056 206L 949.0943396226415 206L 951.5849056603773 206L 954.0754716981131 206L 956.566037735849 206L 959.0566037735849 206L 961.5471698113207 206L 964.0377358490566 206L 966.5283018867924 206L 969.0188679245283 206L 971.5094339622641 206L 974 206" stroke-width="2.0" fill="none" />
    
        
        
        <text x="45.0" font-family="-apple-system, system-ui, BlinkMacSystemFont, Roboto" y="50.0" dominant-baseline="middle" text-anchor="end" font-size="12" fill="#24292f">27500.0</text>
        
            
            <path stroke="#74838f" stroke-dasharray="10 6" stroke-width="0.5"  d="M 50.0 50.0 L 974.0 50.0" />
        
    
        
        
        <text x="45.0" font-family="-apple-system, system-ui, BlinkMacSystemFont, Roboto" y="81.2" dominant-baseline="middle" text-anchor="end" font-size="12" fill="#24292f">22000.0</text>
        
            
            
            <path stroke="#74838f" stroke-dasharray="10 6" stroke-width="0.5"  d="M 50.0 81.2 L 974.0 81.2" />
        
    
        
        
        <text x="45.0" font-family="-apple-system, system-ui, BlinkMacSystemFont, Roboto" y="112.4" dominant-baseline="middle" text-anchor="end" font-size="12" fill="#24292f">16500.0</text>
        
            
            
            <path stroke="#74838f" stroke-dasharray="10 6" stroke-width="0.5"  d="M 50.0 112.4 L 974.0 112.4" />
        
    
        
        
        <text x="45.0" font-family="-apple-system, system-ui, BlinkMacSystemFont, Roboto" y="143.6" dominant-baseline="middle" text-anchor="end" font-size="12" fill="#24292f">11000.0</text>
        
            
            
            <path stroke="#74838f" stroke-dasharray="10 6" stroke-width="0.5"  d="M 50.0 143.6 L 974.0 143.6" />
        
    
        
        
        <text x="45.0" font-family="-apple-system, system-ui, BlinkMacSystemFont, Roboto" y="174.8" dominant-baseline="middle" text-anchor="end" font-size="12" fill="#24292f">5500.0</text>
        
            
            
            <path stroke="#74838f" stroke-dasharray="10 6" stroke-width="0.5"  d="M 50.0 174.8 L 974.0 174.8" />
        
    
        
        
        <text x="45.0" font-family="-apple-system, system-ui, BlinkMacSystemFont, Roboto" y="206.0" dominant-baseline="middle" text-anchor="end" font-size="12" fill="#24292f">0.0</text>
        
    
    
        
        <path stroke="#74838f"  stroke-width="2.0"  d="M 89.84905660377359 206.0 L 89.84905660377359 214.0" />
        <text x="89.84905660377359" font-family="-apple-system, system-ui, BlinkMacSystemFont, Roboto" y="216.0" dominant-baseline="hanging" text-anchor="middle" font-size="12" fill="#24292f">Mar 2022</text>
    
        
        <path stroke="#74838f"  stroke-width="2.0"  d="M 167.0566037735849 206.0 L 167.0566037735849 214.0" />
        <text x="167.0566037735849" font-family="-apple-system, system-ui, BlinkMacSystemFont, Roboto" y="216.0" dominant-baseline="hanging" text-anchor="middle" font-size="12" fill="#24292f">Apr 2022</text>
    
        
        <path stroke="#74838f"  stroke-width="2.0"  d="M 241.77358490566039 206.0 L 241.77358490566039 214.0" />
        <text x="241.77358490566039" font-family="-apple-system, system-ui, BlinkMacSystemFont, Roboto" y="216.0" dominant-baseline="hanging" text-anchor="middle" font-size="12" fill="#24292f">May 2022</text>
    
        
        <path stroke="#74838f"  stroke-width="2.0"  d="M 318.9811320754717 206.0 L 318.9811320754717 214.0" />
        <text x="318.9811320754717" font-family="-apple-system, system-ui, BlinkMacSystemFont, Roboto" y="216.0" dominant-baseline="hanging" text-anchor="middle" font-size="12" fill="#24292f">Jun 2022</text>
    
        
        <path stroke="#74838f"  stroke-width="2.0"  d="M 393.6981132075472 206.0 L 393.6981132075472 214.0" />
        <text x="393.6981132075472" font-family="-apple-system, system-ui, BlinkMacSystemFont, Roboto" y="216.0" dominant-baseline="hanging" text-anchor="middle" font-size="12" fill="#24292f">Jul 2022</text>
    
        
        <path stroke="#74838f"  stroke-width="2.0"  d="M 470.9056603773585 206.0 L 470.9056603773585 214.0" />
        <text x="470.9056603773585" font-family="-apple-system, system-ui, BlinkMacSystemFont, Roboto" y="216.0" dominant-baseline="hanging" text-anchor="middle" font-size="12" fill="#24292f">Aug 2022</text>
    
        
        <path stroke="#74838f"  stroke-width="2.0"  d="M 548.1132075471698 206.0 L 548.1132075471698 214.0" />
        <text x="548.1132075471698" font-family="-apple-system, system-ui, BlinkMacSystemFont, Roboto" y="216.0" dominant-baseline="hanging" text-anchor="middle" font-size="12" fill="#24292f">Sep 2022</text>
    
        
        <path stroke="#74838f"  stroke-width="2.0"  d="M 622.8301886792453 206.0 L 622.8301886792453 214.0" />
        <text x="622.8301886792453" font-family="-apple-system, system-ui, BlinkMacSystemFont, Roboto" y="216.0" dominant-baseline="hanging" text-anchor="middle" font-size="12" fill="#24292f">Oct 2022</text>
    
        
        <path stroke="#74838f"  stroke-width="2.0"  d="M 700.0377358490566 206.0 L 700.0377358490566 214.0" />
        <text x="700.0377358490566" font-family="-apple-system, system-ui, BlinkMacSystemFont, Roboto" y="216.0" dominant-baseline="hanging" text-anchor="middle" font-size="12" fill="#24292f">Nov 2022</text>
    
        
        <path stroke="#74838f"  stroke-width="2.0"  d="M 774.7547169811321 206.0 L 774.7547169811321 214.0" />
        <text x="774.7547169811321" font-family="-apple-system, system-ui, BlinkMacSystemFont, Roboto" y="216.0" dominant-baseline="hanging" text-anchor="middle" font-size="12" fill="#24292f">Dec 2022</text>
    
        
        <path stroke="#74838f"  stroke-width="2.0"  d="M 851.9622641509434 206.0 L 851.9622641509434 214.0" />
        <text x="851.9622641509434" font-family="-apple-system, system-ui, BlinkMacSystemFont, Roboto" y="216.0" dominant-baseline="hanging" text-anchor="middle" font-size="12" fill="#24292f">Jan 2023</text>
    
        
        <path stroke="#74838f"  stroke-width="2.0"  d="M 929.1698113207548 206.0 L 929.1698113207548 214.0" />
        <text x="929.1698113207548" font-family="-apple-system, system-ui, BlinkMacSystemFont, Roboto" y="216.0" dominant-baseline="hanging" text-anchor="middle" font-size="12" fill="#24292f">Feb 2023</text>
    
    <path stroke="#74838f"   stroke-linejoin="round" stroke-width="2.0" d="M 50.0 216.0 L 50.0 206.0 L 974.0 206.0 L 974.0 216.0"  fill="none" />
    <text x="512.0" y="25.0" font-family="-apple-system, system-ui, BlinkMacSystemFont, Roboto" dominant-baseline="middle" text-anchor="middle" font-size="18" fill="#24292f">Total daily screen name changes</text>
</svg>
