<?xml version="1.0" standalone="no"?>
<svg width="1024.0" height="256.0"  viewBox="0 0 1024.0 256.0" preserveAspectRatio="xMidYMid meet" xmlns="http://www.w3.org/2000/svg">
    <path stroke="#3498db" stroke-linejoin="round" d="M 50.0 203.3394909090909 L 50 203.3394909090909L 52.77477477477478 202.32974545454545L 55.54954954954955 196.86690909090908L 58.32432432432432 195.94792727272727L 61.0990990990991 202.14254545454546L 63.873873873873876 197.35476363636363L 66.64864864864865 191.76145454545454L 69.42342342342343 179.96218181818182L 72.1981981981982 204.09396363636364L 74.97297297297297 194.17236363636363L 77.74774774774775 192.61803636363635L 80.52252252252252 195.1253818181818L 83.29729729729729 193.92843636363637L 86.07207207207207 182.2482909090909L 88.84684684684686 200.86618181818181L 91.62162162162161 201.45614545454546L 94.3963963963964 178.89003636363637L 97.17117117117118 197.33774545454546L 99.94594594594595 198.50065454545455L 102.72072072072072 200.41803636363636L 105.4954954954955 201.18385454545455L 108.27027027027026 202.26734545454545L 111.04504504504504 195.09134545454546L 113.81981981981983 198.08087272727272L 116.5945945945946 183.38850909090908L 119.36936936936937 197.47389090909093L 122.14414414414415 202.01774545454546L 124.91891891891892 194.66021818181818L 127.6936936936937 200.75272727272727L 130.46846846846847 200.00392727272728L 133.24324324324323 201.97236363636364L 136.018018018018 204.2754909090909L 138.7927927927928 201.74545454545455L 141.56756756756755 201.01367272727273L 144.34234234234236 174.7829818181818L 147.11711711711712 195.76072727272728L 149.8918918918919 204.0032L 152.66666666666666 203.7309090909091L 155.44144144144144 197.87665454545453L 158.2162162162162 202.60770909090908L 160.990990990991 202.6928L 163.76576576576576 197.55898181818182L 166.54054054054052 186.5141818181818L 169.31531531531533 199.26647272727274L 172.0900900900901 199.5728L 174.86486486486487 193.4802909090909L 177.63963963963965 199.10763636363635L 180.41441441441444 201.54690909090908L 183.1891891891892 201.5696L 185.96396396396395 195.06865454545454L 188.73873873873873 201.70007272727273L 191.51351351351352 197.2866909090909L 194.2882882882883 172.35505454545455L 197.06306306306305 203.20901818181818L 199.83783783783784 199.6749090909091L 202.61261261261262 193.12858181818183L 205.3873873873874 196.8896L 208.16216216216216 199.78836363636364L 210.93693693693692 198.82967272727274L 213.71171171171173 204.1336727272727L 216.48648648648648 202.57934545454546L 219.26126126126127 198.9261090909091L 222.03603603603602 206L 224.8108108108108 204.128L 227.5855855855856 192.1245090909091L 230.36036036036035 206L 233.13513513513513 206L 235.9099099099099 206L 238.6846846846847 206L 241.45945945945945 197.37178181818183L 244.23423423423424 199.57847272727273L 247.009009009009 188.9024L 249.7837837837838 195.02894545454546L 252.55855855855856 191.20552727272727L 255.33333333333331 166.8128L 258.1081081081081 203.8386909090909L 260.8828828828829 198.09221818181817L 263.65765765765764 201.64334545454545L 266.4324324324324 202.2957090909091L 269.2072072072072 203.22036363636363L 271.981981981982 200.66763636363635L 274.7567567567568 191.51185454545455L 277.5315315315315 189.18603636363636L 280.3063063063063 203.86705454545455L 283.08108108108104 197.56465454545454L 285.8558558558559 187.32538181818182L 288.63063063063066 201.2349090909091L 291.4054054054054 200.44639999999998L 294.1801801801802 201.4618181818182L 296.954954954955 201.09876363636363L 299.72972972972974 201.17818181818183L 302.5045045045045 193.02647272727273L 305.2792792792793 198.8069818181818L 308.054054054054 203.39054545454545L 310.8288288288289 200.30458181818182L 313.60360360360363 198.35883636363636L 316.3783783783784 193.3101090909091L 319.15315315315314 200.56552727272728L 321.9279279279279 203.03883636363636L 324.7027027027027 197.22996363636364L 327.47747747747746 201.95534545454547L 330.2522522522522 196.016L 333.02702702702703 202.30705454545455L 335.80180180180184 199.91316363636363L 338.5765765765766 194.62050909090908L 341.35135135135135 201.29163636363637L 344.1261261261261 202.98778181818182L 346.90090090090087 203.5437090909091L 349.6756756756757 200.60523636363638L 352.45045045045043 195.5621818181818L 355.22522522522524 203.24305454545456L 358 200.15709090909093L 360.7747747747748 198.46661818181818L 363.54954954954957 201.70007272727273L 366.3243243243243 200.70734545454545L 369.0990990990991 200.4293818181818L 371.87387387387383 201.76814545454545L 374.64864864864865 204.6442181818182L 377.42342342342346 206L 380.1981981981982 196.35636363636365L 382.97297297297297 199.21541818181817L 385.7477477477478 156.87418181818182L 388.52252252252254 165.1506909090909L 391.2972972972973 204.1733818181818L 394.07207207207205 202.17658181818183L 396.8468468468468 199.31185454545454L 399.6216216216216 198.7842909090909L 402.3963963963964 202.6757818181818L 405.1711711711712 202.8573090909091L 407.94594594594594 196.1861818181818L 410.7207207207207 199.64654545454545L 413.4954954954955 198.2056727272727L 416.27027027027026 201.2178909090909L 419.045045045045 201.79083636363637L 421.8198198198198 201.90429090909092L 424.59459459459464 200.1968L 427.3693693693694 195.17076363636363L 430.14414414414415 206L 432.9189189189189 206L 435.69369369369366 206L 438.4684684684685 191.4834909090909L 441.2432432432432 197.79723636363636L 444.018018018018 198.85236363636363L 446.7927927927928 199.76L 449.5675675675676 200.03796363636363L 452.34234234234236 200.76407272727272L 455.1171171171171 201.80785454545455L 457.8918918918919 191.63098181818182L 460.66666666666663 194.41061818181817L 463.44144144144144 199.88479999999998L 466.2162162162162 152.63098181818182L 468.990990990991 197.04843636363637L 471.76576576576576 194.4730181818182L 474.5405405405406 155.90414545454547L 477.31531531531533 91.60945454545454L 480.0900900900901 104.5376L 482.86486486486484 151.17876363636364L 485.6396396396396 185.1981090909091L 488.4144144144144 142.76610909090908L 491.1891891891892 125.0672L 493.963963963964 123.74545454545455L 496.73873873873873 157.99738181818182L 499.51351351351354 53.56814545454546L 502.2882882882883 50.78850909090909L 505.06306306306305 100.02210909090908L 507.8378378378378 156.2445090909091L 510.61261261261257 180.31956363636363L 513.3873873873874 192.43650909090908L 516.1621621621621 193.63912727272728L 518.936936936937 193.3328L 521.7117117117118 192.11316363636365L 524.4864864864865 197.93338181818183L 527.2612612612613 191.5629090909091L 530.036036036036 198.7672727272727L 532.8108108108108 199.3005090909091L 535.5855855855856 201.64901818181818L 538.3603603603603 200.58821818181818L 541.1351351351352 202.43752727272727L 543.90990990991 200.73003636363637L 546.6846846846847 189.7703272727273L 549.4594594594595 203.17498181818183L 552.2342342342342 200.48610909090908L 555.009009009009 185.1810909090909L 557.7837837837837 187.88698181818182L 560.5585585585586 191.01832727272728L 563.3333333333334 192.31738181818181L 566.108108108108 177.09745454545455L 568.8828828828829 167.91330909090908L 571.6576576576578 179.30981818181817L 574.4324324324324 186.49716363636364L 577.2072072072073 150.34487272727273L 579.9819819819819 184.27345454545454L 582.7567567567568 199.5104L 585.5315315315315 161.24785454545454L 588.3063063063063 155.49003636363636L 591.081081081081 176.96130909090908L 593.8558558558558 190.30923636363636L 596.6306306306307 193.50865454545453L 599.4054054054054 201.72843636363638L 602.1801801801802 185.22647272727272L 604.9549549549549 192.03374545454545L 607.7297297297298 192.66909090909093L 610.5045045045044 180.18341818181818L 613.2792792792793 194.5013818181818L 616.0540540540541 194.6829090909091L 618.8288288288288 201.85323636363637L 621.6036036036037 196.2032L 624.3783783783783 204.49105454545455L 627.1531531531532 191.55723636363638L 629.9279279279278 180.36494545454545L 632.7027027027027 193.02647272727273L 635.4774774774775 186.20785454545455L 638.2522522522522 191.72741818181817L 641.0270270270271 191.4834909090909L 643.8018018018017 196.63432727272726L 646.5765765765766 200.7810909090909L 649.3513513513514 176.26923636363637L 652.1261261261261 165.78036363636363L 654.9009009009009 181.82850909090908L 657.6756756756757 160.6976L 660.4504504504505 163.93105454545454L 663.2252252252252 182.10647272727272L 666 130.808L 668.7747747747748 190.49643636363635L 671.5495495495496 202.0914909090909L 674.3243243243243 184.09192727272728L 677.0990990990991 197.50225454545455L 679.8738738738739 187.54094545454547L 682.6486486486486 192.95272727272726L 685.4234234234235 201.88727272727272L 688.1981981981982 184.33585454545454L 690.972972972973 183.04814545454545L 693.7477477477477 182.36741818181818L 696.5225225225225 182.54327272727272L 699.2972972972973 186.38938181818182L 702.072072072072 174.3858909090909L 704.8468468468469 183.1786181818182L 707.6216216216216 183.5133090909091L 710.3963963963964 184.60247272727273L 713.1711711711712 186.968L 715.9459459459459 170.00087272727274L 718.7207207207207 167.8338909090909L 721.4954954954956 203.32247272727273L 724.2702702702702 206L 727.0450450450451 128.43112727272728L 729.8198198198198 183.2637090909091L 732.5945945945946 156.8685090909091L 735.3693693693695 183.15592727272727L 738.1441441441441 183.2013090909091L 740.918918918919 182.25963636363636L 743.6936936936936 170.18807272727273L 746.4684684684685 186.86589090909092L 749.2432432432432 183.77425454545454L 752.018018018018 186.29861818181817L 754.7927927927929 184.17134545454545L 757.5675675675675 184.9655272727273L 760.3423423423424 178.1696L 763.1171171171171 180.70530909090908L 765.8918918918919 170.80072727272727L 768.6666666666666 177.99374545454546L 771.4414414414414 175.99127272727273L 774.2162162162163 173.75621818181818L 776.990990990991 175.45803636363638L 779.7657657657658 196.91796363636365L 782.5405405405405 150.30516363636363L 785.3153153153154 167.34036363636363L 788.09009009009 174.52203636363637L 790.8648648648649 132.05599999999998L 793.6396396396397 144.8309818181818L 796.4144144144144 173.60872727272726L 799.1891891891893 151.91054545454546L 801.9639639639639 194.03621818181819L 804.7387387387388 160.59549090909093L 807.5135135135134 206L 810.2882882882883 153.43650909090908L 813.063063063063 181.01163636363637L 815.8378378378378 181.6413090909091L 818.6126126126127 182.49221818181817L 821.3873873873873 183.08785454545455L 824.1621621621622 206L 826.936936936937 151.86516363636363L 829.7117117117117 172.45716363636365L 832.4864864864865 169.20669090909092L 835.2612612612613 178.22065454545455L 838.036036036036 175.54312727272728L 840.8108108108108 177.61367272727273L 843.5855855855856 181.0173090909091L 846.3603603603603 176.80814545454547L 849.1351351351352 167.8962909090909L 851.9099099099099 167.1248L 854.6846846846847 176.62094545454545L 857.4594594594594 158.63272727272727L 860.2342342342342 151.3602909090909L 863.0090090090091 173.35345454545455L 865.7837837837837 206L 868.5585585585586 206L 871.3333333333333 206L 874.1081081081081 206L 876.8828828828829 206L 879.6576576576576 206L 882.4324324324324 206L 885.2072072072071 206L 887.981981981982 206L 890.7567567567568 206L 893.5315315315315 206L 896.3063063063063 206L 899.0810810810812 206L 901.8558558558558 206L 904.6306306306307 206L 907.4054054054054 206L 910.1801801801802 206L 912.954954954955 206L 915.7297297297297 206L 918.5045045045046 206L 921.2792792792792 206L 924.0540540540541 206L 926.8288288288288 206L 929.6036036036036 206L 932.3783783783784 206L 935.1531531531531 206L 937.927927927928 206L 940.7027027027027 206L 943.4774774774775 206L 946.2522522522522 206L 949.0270270270271 206L 951.8018018018018 206L 954.5765765765766 206L 957.3513513513514 206L 960.1261261261261 206L 962.900900900901 206L 965.6756756756756 206L 968.4504504504505 206L 971.2252252252251 206L 974 206" stroke-width="2.0" fill="none" />
    
        
        
        <text x="45.0" font-family="-apple-system, system-ui, BlinkMacSystemFont, Roboto" y="50.0" dominant-baseline="middle" text-anchor="end" font-size="12" fill="#24292f">27500.0</text>
        
            
            <path stroke="#74838f" stroke-dasharray="10 6" stroke-width="0.5"  d="M 50.0 50.0 L 974.0 50.0" />
        
    
        
        
        <text x="45.0" font-family="-apple-system, system-ui, BlinkMacSystemFont, Roboto" y="81.2" dominant-baseline="middle" text-anchor="end" font-size="12" fill="#24292f">22000.0</text>
        
            
            
            <path stroke="#74838f" stroke-dasharray="10 6" stroke-width="0.5"  d="M 50.0 81.2 L 974.0 81.2" />
        
    
        
        
        <text x="45.0" font-family="-apple-system, system-ui, BlinkMacSystemFont, Roboto" y="112.4" dominant-baseline="middle" text-anchor="end" font-size="12" fill="#24292f">16500.0</text>
        
            
            
            <path stroke="#74838f" stroke-dasharray="10 6" stroke-width="0.5"  d="M 50.0 112.4 L 974.0 112.4" />
        
    
        
        
        <text x="45.0" font-family="-apple-system, system-ui, BlinkMacSystemFont, Roboto" y="143.6" dominant-baseline="middle" text-anchor="end" font-size="12" fill="#24292f">11000.0</text>
        
            
            
            <path stroke="#74838f" stroke-dasharray="10 6" stroke-width="0.5"  d="M 50.0 143.6 L 974.0 143.6" />
        
    
        
        
        <text x="45.0" font-family="-apple-system, system-ui, BlinkMacSystemFont, Roboto" y="174.8" dominant-baseline="middle" text-anchor="end" font-size="12" fill="#24292f">5500.0</text>
        
            
            
            <path stroke="#74838f" stroke-dasharray="10 6" stroke-width="0.5"  d="M 50.0 174.8 L 974.0 174.8" />
        
    
        
        
        <text x="45.0" font-family="-apple-system, system-ui, BlinkMacSystemFont, Roboto" y="206.0" dominant-baseline="middle" text-anchor="end" font-size="12" fill="#24292f">0.0</text>
        
    
    
        
        <path stroke="#74838f"  stroke-width="2.0"  d="M 94.3963963963964 206.0 L 94.3963963963964 214.0" />
        <text x="94.3963963963964" font-family="-apple-system, system-ui, BlinkMacSystemFont, Roboto" y="216.0" dominant-baseline="hanging" text-anchor="middle" font-size="12" fill="#24292f">Mar 2022</text>
    
        
        <path stroke="#74838f"  stroke-width="2.0"  d="M 180.41441441441444 206.0 L 180.41441441441444 214.0" />
        <text x="180.41441441441444" font-family="-apple-system, system-ui, BlinkMacSystemFont, Roboto" y="216.0" dominant-baseline="hanging" text-anchor="middle" font-size="12" fill="#24292f">Apr 2022</text>
    
        
        <path stroke="#74838f"  stroke-width="2.0"  d="M 263.65765765765764 206.0 L 263.65765765765764 214.0" />
        <text x="263.65765765765764" font-family="-apple-system, system-ui, BlinkMacSystemFont, Roboto" y="216.0" dominant-baseline="hanging" text-anchor="middle" font-size="12" fill="#24292f">May 2022</text>
    
        
        <path stroke="#74838f"  stroke-width="2.0"  d="M 349.6756756756757 206.0 L 349.6756756756757 214.0" />
        <text x="349.6756756756757" font-family="-apple-system, system-ui, BlinkMacSystemFont, Roboto" y="216.0" dominant-baseline="hanging" text-anchor="middle" font-size="12" fill="#24292f">Jun 2022</text>
    
        
        <path stroke="#74838f"  stroke-width="2.0"  d="M 432.9189189189189 206.0 L 432.9189189189189 214.0" />
        <text x="432.9189189189189" font-family="-apple-system, system-ui, BlinkMacSystemFont, Roboto" y="216.0" dominant-baseline="hanging" text-anchor="middle" font-size="12" fill="#24292f">Jul 2022</text>
    
        
        <path stroke="#74838f"  stroke-width="2.0"  d="M 518.936936936937 206.0 L 518.936936936937 214.0" />
        <text x="518.936936936937" font-family="-apple-system, system-ui, BlinkMacSystemFont, Roboto" y="216.0" dominant-baseline="hanging" text-anchor="middle" font-size="12" fill="#24292f">Aug 2022</text>
    
        
        <path stroke="#74838f"  stroke-width="2.0"  d="M 604.9549549549549 206.0 L 604.9549549549549 214.0" />
        <text x="604.9549549549549" font-family="-apple-system, system-ui, BlinkMacSystemFont, Roboto" y="216.0" dominant-baseline="hanging" text-anchor="middle" font-size="12" fill="#24292f">Sep 2022</text>
    
        
        <path stroke="#74838f"  stroke-width="2.0"  d="M 688.1981981981982 206.0 L 688.1981981981982 214.0" />
        <text x="688.1981981981982" font-family="-apple-system, system-ui, BlinkMacSystemFont, Roboto" y="216.0" dominant-baseline="hanging" text-anchor="middle" font-size="12" fill="#24292f">Oct 2022</text>
    
        
        <path stroke="#74838f"  stroke-width="2.0"  d="M 774.2162162162163 206.0 L 774.2162162162163 214.0" />
        <text x="774.2162162162163" font-family="-apple-system, system-ui, BlinkMacSystemFont, Roboto" y="216.0" dominant-baseline="hanging" text-anchor="middle" font-size="12" fill="#24292f">Nov 2022</text>
    
        
        <path stroke="#74838f"  stroke-width="2.0"  d="M 857.4594594594594 206.0 L 857.4594594594594 214.0" />
        <text x="857.4594594594594" font-family="-apple-system, system-ui, BlinkMacSystemFont, Roboto" y="216.0" dominant-baseline="hanging" text-anchor="middle" font-size="12" fill="#24292f">Dec 2022</text>
    
        
        <path stroke="#74838f"  stroke-width="2.0"  d="M 943.4774774774775 206.0 L 943.4774774774775 214.0" />
        <text x="943.4774774774775" font-family="-apple-system, system-ui, BlinkMacSystemFont, Roboto" y="216.0" dominant-baseline="hanging" text-anchor="middle" font-size="12" fill="#24292f">Jan 2023</text>
    
    <path stroke="#74838f"   stroke-linejoin="round" stroke-width="2.0" d="M 50.0 216.0 L 50.0 206.0 L 974.0 206.0 L 974.0 216.0"  fill="none" />
    <text x="512.0" y="25.0" font-family="-apple-system, system-ui, BlinkMacSystemFont, Roboto" dominant-baseline="middle" text-anchor="middle" font-size="18" fill="#24292f">Total daily screen name changes</text>
</svg>
