<?xml version="1.0" standalone="no"?>
<svg width="1024.0" height="256.0"  viewBox="0 0 1024.0 256.0" preserveAspectRatio="xMidYMid meet" xmlns="http://www.w3.org/2000/svg">
    <path stroke="#3498db" stroke-linejoin="round" d="M 50.0 203.70254545454546 L 50 203.70254545454546L 53.39705882352941 202.7949090909091L 56.794117647058826 197.24698181818184L 60.19117647058823 196.05003636363637L 63.588235294117645 202.24465454545455L 66.98529411764706 197.41716363636363L 70.38235294117646 191.99403636363635L 73.77941176470588 179.96218181818182L 77.17647058823529 204.128L 80.57352941176471 194.15534545454545L 83.97058823529412 192.65207272727272L 87.36764705882354 195.13105454545456L 90.76470588235294 193.92276363636364L 94.16176470588235 182.29934545454546L 97.55882352941177 200.8605090909091L 100.95588235294117 201.56392727272726L 104.35294117647058 178.86734545454544L 107.75 197.47389090909093L 111.14705882352942 198.54603636363635L 114.54411764705883 200.5088L 117.94117647058823 201.1952L 121.33823529411765 202.32407272727272L 124.73529411764706 195.17076363636363L 128.13235294117646 198.08087272727272L 131.52941176470588 183.4338909090909L 134.9264705882353 197.56465454545454L 138.3235294117647 202.07447272727273L 141.72058823529412 194.6658909090909L 145.11764705882354 200.76407272727272L 148.51470588235293 200.04363636363638L 151.91176470588235 201.9837090909091L 155.30882352941177 204.53643636363637L 158.70588235294116 201.85323636363637L 162.1029411764706 201.02501818181818L 165.5 175.05527272727272L 168.8970588235294 195.76072727272728L 172.29411764705884 204.0032L 175.69117647058823 203.7536L 179.08823529411765 197.88232727272728L 182.48529411764704 202.60770909090908L 185.88235294117646 202.80058181818183L 189.27941176470588 197.58734545454547L 192.6764705882353 186.49716363636364L 196.0735294117647 199.2778181818182L 199.47058823529412 199.6352L 202.86764705882354 193.5426909090909L 206.26470588235296 199.15869090909092L 209.66176470588235 201.55825454545453L 213.05882352941177 201.6093090909091L 216.4558823529412 195.11403636363636L 219.8529411764706 201.70574545454545L 223.25 197.27534545454546L 226.6470588235294 172.3664L 230.0441176470588 203.20901818181818L 233.44117647058823 199.7146181818182L 236.83823529411765 193.13992727272728L 240.23529411764704 196.9293090909091L 243.63235294117646 199.8394181818182L 247.02941176470588 198.83534545454546L 250.4264705882353 204.1336727272727L 253.8235294117647 202.70981818181818L 257.22058823529414 198.9090909090909L 260.61764705882354 206L 264.0147058823529 204.128L 267.4117647058823 192.10749090909093L 270.80882352941177 206L 274.2058823529412 206L 277.6029411764706 206L 281 206L 284.3970588235294 197.35476363636363L 287.7941176470588 199.57847272727273L 291.1911764705883 188.89672727272728L 294.5882352941177 195.30123636363635L 297.9852941176471 191.19985454545454L 301.38235294117646 166.79010909090908L 304.7794117647059 203.88407272727272L 308.1764705882353 198.09221818181817L 311.5735294117647 201.68305454545455L 314.9705882352941 202.2957090909091L 318.36764705882354 203.24872727272728L 321.7647058823529 200.68465454545455L 325.1617647058824 191.53454545454545L 328.55882352941177 189.1746909090909L 331.9558823529412 203.88407272727272L 335.3529411764706 197.5533090909091L 338.75 187.42749090909092L 342.1470588235294 201.25192727272727L 345.5441176470588 200.44072727272726L 348.94117647058823 201.4674909090909L 352.3382352941176 201.09876363636363L 355.7352941176471 201.20654545454545L 359.13235294117646 193.01512727272728L 362.5294117647059 198.8013090909091L 365.9264705882353 203.39054545454545L 369.3235294117647 200.30458181818182L 372.7205882352941 198.5744L 376.11764705882354 193.31578181818182L 379.5147058823529 200.55985454545456L 382.9117647058824 203.03883636363636L 386.30882352941177 197.34341818181818L 389.7058823529412 201.95534545454547L 393.1029411764706 196.0840727272727L 396.5 202.32974545454545L 399.8970588235294 199.91316363636363L 403.2941176470588 194.67723636363638L 406.69117647058823 201.29163636363637L 410.0882352941176 203.0048L 413.4852941176471 203.53803636363637L 416.88235294117646 200.64494545454545L 420.2794117647059 195.5735272727273L 423.6764705882353 203.32814545454545L 427.0735294117647 200.1741090909091L 430.4705882352941 198.45527272727273L 433.86764705882354 201.70007272727273L 437.2647058823529 200.73003636363637L 440.6617647058824 200.45207272727274L 444.05882352941177 201.76247272727272L 447.4558823529412 204.6442181818182L 450.8529411764706 206L 454.25 196.40174545454545L 457.6470588235294 199.20407272727272L 461.0441176470588 156.78909090909093L 464.44117647058823 165.09396363636364L 467.8382352941176 204.29818181818183L 471.2352941176471 202.17658181818183L 474.63235294117646 199.31185454545454L 478.0294117647059 198.86370909090908L 481.4264705882353 202.6928L 484.8235294117647 202.85163636363637L 488.2205882352941 196.19185454545453L 491.61764705882354 199.6749090909091L 495.0147058823529 198.2L 498.4117647058824 201.2178909090909L 501.80882352941177 201.85323636363637L 505.2058823529412 201.90429090909092L 508.6029411764706 200.18545454545455L 512 195.22181818181818L 515.3970588235294 206L 518.7941176470588 206L 522.1911764705882 206L 525.5882352941176 191.46647272727273L 528.9852941176471 197.8482909090909L 532.3823529411766 198.85803636363636L 535.7794117647059 199.76567272727272L 539.1764705882354 200.11738181818183L 542.5735294117646 200.76407272727272L 545.9705882352941 201.80785454545455L 549.3676470588234 191.63665454545455L 552.7647058823529 194.44465454545454L 556.1617647058824 199.89047272727274L 559.5588235294118 152.55723636363635L 562.9558823529412 197.1845818181818L 566.3529411764706 194.45600000000002L 569.75 155.86443636363637L 573.1470588235294 91.50734545454544L 576.5441176470588 104.47519999999999L 579.9411764705882 151.13338181818182L 583.3382352941176 185.26618181818182L 586.7352941176471 142.69803636363636L 590.1323529411765 124.97076363636364L 593.5294117647059 123.64334545454545L 596.9264705882352 157.92363636363638L 600.3235294117648 53.35825454545454L 603.7205882352941 50.55025454545455L 607.1176470588235 99.88596363636364L 610.5147058823529 156.18210909090908L 613.9117647058824 180.3138909090909L 617.3088235294118 192.4138181818182L 620.7058823529412 193.69018181818183L 624.1029411764706 193.32712727272727L 627.5 192.13585454545455L 630.8970588235294 197.94472727272728L 634.2941176470588 191.54589090909093L 637.6911764705882 198.75592727272726L 641.0882352941176 199.31185454545454L 644.4852941176471 201.66036363636363L 647.8823529411765 200.58254545454545L 651.2794117647059 202.4829090909091L 654.6764705882352 200.73003636363637L 658.0735294117648 190.07098181818182L 661.4705882352941 203.16930909090908L 664.8676470588235 200.48043636363636L 668.2647058823529 185.14138181818183L 671.6617647058824 187.98909090909092L 675.0588235294118 190.9842909090909L 678.4558823529412 192.3117090909091L 681.8529411764706 177.08043636363635L 685.25 167.86225454545453L 688.6470588235294 179.3552L 692.0441176470588 186.43476363636364L 695.4411764705882 150.23141818181819L 698.8382352941176 184.2848L 702.2352941176471 199.53876363636363L 705.6323529411765 161.16276363636365L 709.0294117647059 155.55810909090908L 712.4264705882352 176.92727272727274L 715.8235294117648 190.28087272727274L 719.2205882352941 193.51432727272726L 722.6176470588235 201.70574545454545L 726.0147058823529 185.21512727272727L 729.4117647058824 192.05076363636363L 732.8088235294118 192.71447272727272L 736.2058823529412 180.13236363636364L 739.6029411764706 194.51839999999999L 743 194.7056L 746.3970588235294 201.86458181818182L 749.7941176470588 196.2032L 753.1911764705882 204.51374545454547L 756.5882352941176 191.5856L 759.9852941176471 180.37061818181817L 763.3823529411765 193.01512727272728L 766.7794117647059 186.23054545454545L 770.1764705882352 191.72174545454544L 773.5735294117648 191.46647272727273L 776.9705882352941 196.64L 780.3676470588235 200.85483636363637L 783.7647058823529 176.26923636363637L 787.1617647058824 165.67825454545454L 790.5588235294118 181.8114909090909L 793.9558823529412 160.6749090909091L 797.3529411764706 163.8346181818182L 800.75 182.05541818181817L 804.1470588235294 130.67185454545455L 807.5441176470588 190.47941818181818L 810.9411764705882 202.09716363636363L 814.3382352941176 184.08058181818183L 817.7352941176471 197.50792727272727L 821.1323529411765 187.5693090909091L 824.5294117647059 192.95839999999998L 827.9264705882352 201.91563636363637L 831.3235294117648 184.4039272727273L 834.7205882352941 185.29454545454547L 838.1176470588235 182.2482909090909L 841.5147058823529 182.44683636363635L 844.9117647058824 186.33832727272727L 848.3088235294118 174.3234909090909L 851.7058823529412 183.09352727272727L 855.1029411764706 183.49061818181818L 858.5 184.52305454545456L 861.8970588235294 186.93396363636364L 865.2941176470588 169.84203636363637L 868.6911764705882 168.40683636363636L 872.0882352941176 203.32247272727273L 875.4852941176471 206L 878.8823529411765 128.2893090909091L 882.2794117647059 183.25803636363636L 885.6764705882352 156.59054545454546L 889.0735294117648 182.98574545454545L 892.4705882352941 183.0765090909091L 895.8676470588235 182.288L 899.2647058823529 169.97250909090909L 902.6617647058824 186.76945454545455L 906.0588235294118 183.6608L 909.4558823529412 186.22487272727273L 912.8529411764706 184.1373090909091L 916.25 184.85207272727274L 919.6470588235294 178.0277818181818L 923.0441176470588 180.6202181818182L 926.4411764705882 170.58516363636363L 929.8382352941176 177.91432727272726L 933.2352941176471 175.86079999999998L 936.6323529411765 174.36887272727273L 940.0294117647059 175.28785454545454L 943.4264705882352 196.87825454545455L 946.8235294117648 149.97047272727272L 950.2205882352941 167L 953.6176470588235 174.2384L 957.0147058823529 131.59083636363636L 960.4117647058824 144.2807272727273L 963.8088235294118 173.18894545454546L 967.2058823529412 195.53949090909092L 970.6029411764706 206L 974 206" stroke-width="2.0" fill="none" />
    
        
        
        <text x="45.0" font-family="-apple-system, system-ui, BlinkMacSystemFont, Roboto" y="50.0" dominant-baseline="middle" text-anchor="end" font-size="12" fill="#24292f">27500.0</text>
        
            
            <path stroke="#74838f" stroke-dasharray="10 6" stroke-width="0.5"  d="M 50.0 50.0 L 974.0 50.0" />
        
    
        
        
        <text x="45.0" font-family="-apple-system, system-ui, BlinkMacSystemFont, Roboto" y="81.2" dominant-baseline="middle" text-anchor="end" font-size="12" fill="#24292f">22000.0</text>
        
            
            
            <path stroke="#74838f" stroke-dasharray="10 6" stroke-width="0.5"  d="M 50.0 81.2 L 974.0 81.2" />
        
    
        
        
        <text x="45.0" font-family="-apple-system, system-ui, BlinkMacSystemFont, Roboto" y="112.4" dominant-baseline="middle" text-anchor="end" font-size="12" fill="#24292f">16500.0</text>
        
            
            
            <path stroke="#74838f" stroke-dasharray="10 6" stroke-width="0.5"  d="M 50.0 112.4 L 974.0 112.4" />
        
    
        
        
        <text x="45.0" font-family="-apple-system, system-ui, BlinkMacSystemFont, Roboto" y="143.6" dominant-baseline="middle" text-anchor="end" font-size="12" fill="#24292f">11000.0</text>
        
            
            
            <path stroke="#74838f" stroke-dasharray="10 6" stroke-width="0.5"  d="M 50.0 143.6 L 974.0 143.6" />
        
    
        
        
        <text x="45.0" font-family="-apple-system, system-ui, BlinkMacSystemFont, Roboto" y="174.8" dominant-baseline="middle" text-anchor="end" font-size="12" fill="#24292f">5500.0</text>
        
            
            
            <path stroke="#74838f" stroke-dasharray="10 6" stroke-width="0.5"  d="M 50.0 174.8 L 974.0 174.8" />
        
    
        
        
        <text x="45.0" font-family="-apple-system, system-ui, BlinkMacSystemFont, Roboto" y="206.0" dominant-baseline="middle" text-anchor="end" font-size="12" fill="#24292f">0.0</text>
        
    
    
        
        <path stroke="#74838f"  stroke-width="2.0"  d="M 104.35294117647058 206.0 L 104.35294117647058 214.0" />
        <text x="104.35294117647058" font-family="-apple-system, system-ui, BlinkMacSystemFont, Roboto" y="216.0" dominant-baseline="hanging" text-anchor="middle" font-size="12" fill="#24292f">Mar 2022</text>
    
        
        <path stroke="#74838f"  stroke-width="2.0"  d="M 209.66176470588235 206.0 L 209.66176470588235 214.0" />
        <text x="209.66176470588235" font-family="-apple-system, system-ui, BlinkMacSystemFont, Roboto" y="216.0" dominant-baseline="hanging" text-anchor="middle" font-size="12" fill="#24292f">Apr 2022</text>
    
        
        <path stroke="#74838f"  stroke-width="2.0"  d="M 311.5735294117647 206.0 L 311.5735294117647 214.0" />
        <text x="311.5735294117647" font-family="-apple-system, system-ui, BlinkMacSystemFont, Roboto" y="216.0" dominant-baseline="hanging" text-anchor="middle" font-size="12" fill="#24292f">May 2022</text>
    
        
        <path stroke="#74838f"  stroke-width="2.0"  d="M 416.88235294117646 206.0 L 416.88235294117646 214.0" />
        <text x="416.88235294117646" font-family="-apple-system, system-ui, BlinkMacSystemFont, Roboto" y="216.0" dominant-baseline="hanging" text-anchor="middle" font-size="12" fill="#24292f">Jun 2022</text>
    
        
        <path stroke="#74838f"  stroke-width="2.0"  d="M 518.7941176470588 206.0 L 518.7941176470588 214.0" />
        <text x="518.7941176470588" font-family="-apple-system, system-ui, BlinkMacSystemFont, Roboto" y="216.0" dominant-baseline="hanging" text-anchor="middle" font-size="12" fill="#24292f">Jul 2022</text>
    
        
        <path stroke="#74838f"  stroke-width="2.0"  d="M 624.1029411764706 206.0 L 624.1029411764706 214.0" />
        <text x="624.1029411764706" font-family="-apple-system, system-ui, BlinkMacSystemFont, Roboto" y="216.0" dominant-baseline="hanging" text-anchor="middle" font-size="12" fill="#24292f">Aug 2022</text>
    
        
        <path stroke="#74838f"  stroke-width="2.0"  d="M 729.4117647058824 206.0 L 729.4117647058824 214.0" />
        <text x="729.4117647058824" font-family="-apple-system, system-ui, BlinkMacSystemFont, Roboto" y="216.0" dominant-baseline="hanging" text-anchor="middle" font-size="12" fill="#24292f">Sep 2022</text>
    
        
        <path stroke="#74838f"  stroke-width="2.0"  d="M 831.3235294117648 206.0 L 831.3235294117648 214.0" />
        <text x="831.3235294117648" font-family="-apple-system, system-ui, BlinkMacSystemFont, Roboto" y="216.0" dominant-baseline="hanging" text-anchor="middle" font-size="12" fill="#24292f">Oct 2022</text>
    
        
        <path stroke="#74838f"  stroke-width="2.0"  d="M 936.6323529411765 206.0 L 936.6323529411765 214.0" />
        <text x="936.6323529411765" font-family="-apple-system, system-ui, BlinkMacSystemFont, Roboto" y="216.0" dominant-baseline="hanging" text-anchor="middle" font-size="12" fill="#24292f">Nov 2022</text>
    
    <path stroke="#74838f"   stroke-linejoin="round" stroke-width="2.0" d="M 50.0 216.0 L 50.0 206.0 L 974.0 206.0 L 974.0 216.0"  fill="none" />
    <text x="512.0" y="25.0" font-family="-apple-system, system-ui, BlinkMacSystemFont, Roboto" dominant-baseline="middle" text-anchor="middle" font-size="18" fill="#24292f">Total daily screen name changes</text>
</svg>
