<?xml version="1.0" standalone="no"?>
<svg width="1024.0" height="256.0"  viewBox="0 0 1024.0 256.0" preserveAspectRatio="xMidYMid meet" xmlns="http://www.w3.org/2000/svg">
    <path stroke="#3498db" stroke-linejoin="round" d="M 50.0 203.84436363636365 L 50 203.84436363636365L 53.5 203.02749090909091L 57 197.41716363636363L 60.5 196.1578181818182L 64 202.30705454545455L 67.5 197.4512L 71 192.10181818181817L 74.5 179.9565090909091L 78 204.1450181818182L 81.5 194.1666909090909L 85 192.66341818181817L 88.5 195.1424L 92 193.92276363636364L 95.5 182.3333818181818L 99 200.8605090909091L 102.5 201.61498181818183L 106 178.856L 109.5 197.4909090909091L 113 198.55738181818182L 116.5 200.52014545454546L 120 201.21221818181817L 123.5 202.34676363636362L 127 195.19912727272728L 130.5 198.08087272727272L 134 183.44523636363635L 137.5 197.576L 141 202.07447272727273L 144.5 194.6658909090909L 148 200.77541818181817L 151.5 200.08901818181818L 155 201.9837090909091L 158.5 204.68959999999998L 162 201.8816L 165.5 201.0306909090909L 169 175.13469090909092L 172.5 195.7664L 176 204.0032L 179.5 203.75927272727273L 183 197.87665454545453L 186.5 202.61338181818184L 190 202.84029090909092L 193.5 197.5930181818182L 197 186.49716363636364L 200.5 199.2778181818182L 204 199.66923636363637L 207.5 193.57105454545456L 211 199.16436363636365L 214.5 201.56392727272726L 218 201.61498181818183L 221.5 195.1253818181818L 225 201.7341090909091L 228.5 197.27534545454546L 232 172.35505454545455L 235.5 203.20334545454546L 239 199.72596363636364L 242.5 193.12858181818183L 246 196.95767272727272L 249.5 199.8621090909091L 253 198.824L 256.5 204.128L 260 202.7778909090909L 263.5 198.9090909090909L 267 206L 270.5 204.128L 274 192.10749090909093L 277.5 206L 281 206L 284.5 206L 288 206L 291.5 197.35476363636363L 295 199.56145454545455L 298.5 188.88538181818183L 302 195.42603636363637L 305.5 191.1885090909091L 309 166.7674181818182L 312.5 203.9181090909091L 316 198.09221818181817L 319.5 201.68305454545455L 323 202.2957090909091L 326.5 203.26574545454545L 330 200.68465454545455L 333.5 191.5856L 337 189.18603636363636L 340.5 203.88407272727272L 344 197.54196363636362L 347.5 187.49556363636364L 351 201.2576L 354.5 200.44072727272726L 358 201.4618181818182L 361.5 201.09876363636363L 365 201.24058181818182L 368.5 193.00378181818184L 372 198.79563636363636L 375.5 203.39054545454545L 379 200.30458181818182L 382.5 198.68218181818182L 386 193.3101090909091L 389.5 200.54850909090908L 393 203.02749090909091L 396.5 197.37745454545455L 400 201.95534545454547L 403.5 196.1408L 407 202.3581090909091L 410.5 199.9472L 414 194.7282909090909L 417.5 201.28029090909092L 421 203.0501818181818L 424.5 203.53803636363637L 428 200.64494545454545L 431.5 195.5565090909091L 435 203.38487272727272L 438.5 200.19112727272727L 442 198.4496L 445.5 201.70007272727273L 449 200.79243636363637L 452.5 200.45774545454546L 456 201.75112727272727L 459.5 204.6442181818182L 463 206L 466.5 196.44145454545455L 470 199.18705454545454L 473.5 156.77774545454545L 477 165.07694545454547L 480.5 204.3776L 484 202.16523636363638L 487.5 199.3061818181818L 491 198.9090909090909L 494.5 202.7154909090909L 498 202.85163636363637L 501.5 196.1861818181818L 505 199.70327272727272L 508.5 198.19432727272726L 512 201.21221818181817L 515.5 201.88727272727272L 519 201.88727272727272L 522.5 200.17978181818182L 526 195.29556363636362L 529.5 206L 533 206L 536.5 206L 540 191.4608L 543.5 197.90501818181818L 547 198.89207272727273L 550.5 199.77701818181816L 554 200.14007272727272L 557.5 200.76407272727272L 561 201.80785454545455L 564.5 191.648L 568 194.45032727272726L 571.5 199.88479999999998L 575 152.49483636363635L 578.5 197.24698181818184L 582 194.44465454545454L 585.5 155.86443636363637L 589 91.36552727272728L 592.5 104.39010909090909L 596 151.1050181818182L 599.5 185.26618181818182L 603 142.6696727272727L 606.5 124.94807272727273L 610 123.62632727272727L 613.5 157.90661818181817L 617 53.32989090909092L 620.5 50.45381818181818L 624 99.7725090909091L 627.5 156.09701818181819L 631 180.29687272727273L 634.5 192.40247272727274L 638 193.74123636363635L 641.5 193.31578181818182L 645 192.11883636363638L 648.5 197.94472727272728L 652 191.54021818181818L 655.5 198.75592727272726L 659 199.31752727272726L 662.5 201.64901818181818L 666 200.5712L 669.5 202.49992727272726L 673 200.72436363636365L 676.5 190.13338181818182L 680 203.16930909090908L 683.5 200.47476363636363L 687 185.13570909090907L 690.5 187.99476363636364L 694 190.9616L 697.5 192.30036363636364L 701 177.02370909090908L 704.5 167.81119999999999L 708 179.3154909090909L 711.5 186.3837090909091L 715 150.0896L 718.5 184.29614545454547L 722 199.57847272727273L 725.5 161.16843636363637L 729 155.55243636363636L 732.5 176.93294545454546L 736 190.30356363636363L 739.5 193.52567272727273L 743 201.70574545454545L 746.5 185.22647272727272L 750 192.05076363636363L 753.5 192.7088L 757 180.1493818181818L 760.5 194.51839999999999L 764 194.72261818181818L 767.5 201.86458181818182L 771 196.19185454545453L 774.5 204.5024L 778 191.57425454545455L 781.5 180.36494545454545L 785 193.00945454545456L 788.5 186.2589090909091L 792 191.71607272727272L 795.5 191.45512727272728L 799 196.6456727272727L 802.5 200.84916363636364L 806 176.24087272727272L 809.5 165.63854545454546L 813 181.74341818181819L 816.5 160.41963636363636L 820 163.70414545454545L 823.5 182.03272727272727L 827 130.56407272727273L 830.5 190.46807272727273L 834 202.08581818181818L 837.5 184.04087272727273L 841 197.49658181818182L 844.5 187.5693090909091L 848 192.96407272727274L 851.5 201.9213090909091L 855 184.39825454545453L 858.5 186.3610181818182L 862 182.23127272727274L 865.5 182.39578181818183L 869 186.31563636363637L 872.5 174.30647272727273L 876 183.06516363636365L 879.5 183.46792727272728L 883 184.472L 886.5 186.93396363636364L 890 169.72858181818182L 893.5 168.44087272727273L 897 203.3168L 900.5 206L 904 127.92058181818182L 907.5 183.18429090909092L 911 156.49978181818182L 914.5 182.91767272727273L 918 183.0594909090909L 921.5 182.26530909090908L 925 169.94414545454546L 928.5 186.7581090909091L 932 183.55301818181817L 935.5 186.16814545454545L 939 184.08058181818183L 942.5 184.73861818181817L 946 177.92000000000002L 949.5 180.50109090909092L 953 170.41498181818181L 956.5 177.80654545454544L 960 175.68494545454544L 963.5 174.37454545454545L 967 198.66516363636364L 970.5 206L 974 206" stroke-width="2.0" fill="none" />
    
        
        
        <text x="45.0" font-family="-apple-system, system-ui, BlinkMacSystemFont, Roboto" y="50.0" dominant-baseline="middle" text-anchor="end" font-size="12" fill="#24292f">27500.0</text>
        
            
            <path stroke="#74838f" stroke-dasharray="10 6" stroke-width="0.5"  d="M 50.0 50.0 L 974.0 50.0" />
        
    
        
        
        <text x="45.0" font-family="-apple-system, system-ui, BlinkMacSystemFont, Roboto" y="81.2" dominant-baseline="middle" text-anchor="end" font-size="12" fill="#24292f">22000.0</text>
        
            
            
            <path stroke="#74838f" stroke-dasharray="10 6" stroke-width="0.5"  d="M 50.0 81.2 L 974.0 81.2" />
        
    
        
        
        <text x="45.0" font-family="-apple-system, system-ui, BlinkMacSystemFont, Roboto" y="112.4" dominant-baseline="middle" text-anchor="end" font-size="12" fill="#24292f">16500.0</text>
        
            
            
            <path stroke="#74838f" stroke-dasharray="10 6" stroke-width="0.5"  d="M 50.0 112.4 L 974.0 112.4" />
        
    
        
        
        <text x="45.0" font-family="-apple-system, system-ui, BlinkMacSystemFont, Roboto" y="143.6" dominant-baseline="middle" text-anchor="end" font-size="12" fill="#24292f">11000.0</text>
        
            
            
            <path stroke="#74838f" stroke-dasharray="10 6" stroke-width="0.5"  d="M 50.0 143.6 L 974.0 143.6" />
        
    
        
        
        <text x="45.0" font-family="-apple-system, system-ui, BlinkMacSystemFont, Roboto" y="174.8" dominant-baseline="middle" text-anchor="end" font-size="12" fill="#24292f">5500.0</text>
        
            
            
            <path stroke="#74838f" stroke-dasharray="10 6" stroke-width="0.5"  d="M 50.0 174.8 L 974.0 174.8" />
        
    
        
        
        <text x="45.0" font-family="-apple-system, system-ui, BlinkMacSystemFont, Roboto" y="206.0" dominant-baseline="middle" text-anchor="end" font-size="12" fill="#24292f">0.0</text>
        
    
    
        
        <path stroke="#74838f"  stroke-width="2.0"  d="M 106.0 206.0 L 106.0 214.0" />
        <text x="106.0" font-family="-apple-system, system-ui, BlinkMacSystemFont, Roboto" y="216.0" dominant-baseline="hanging" text-anchor="middle" font-size="12" fill="#24292f">Mar 2022</text>
    
        
        <path stroke="#74838f"  stroke-width="2.0"  d="M 214.5 206.0 L 214.5 214.0" />
        <text x="214.5" font-family="-apple-system, system-ui, BlinkMacSystemFont, Roboto" y="216.0" dominant-baseline="hanging" text-anchor="middle" font-size="12" fill="#24292f">Apr 2022</text>
    
        
        <path stroke="#74838f"  stroke-width="2.0"  d="M 319.5 206.0 L 319.5 214.0" />
        <text x="319.5" font-family="-apple-system, system-ui, BlinkMacSystemFont, Roboto" y="216.0" dominant-baseline="hanging" text-anchor="middle" font-size="12" fill="#24292f">May 2022</text>
    
        
        <path stroke="#74838f"  stroke-width="2.0"  d="M 428.0 206.0 L 428.0 214.0" />
        <text x="428.0" font-family="-apple-system, system-ui, BlinkMacSystemFont, Roboto" y="216.0" dominant-baseline="hanging" text-anchor="middle" font-size="12" fill="#24292f">Jun 2022</text>
    
        
        <path stroke="#74838f"  stroke-width="2.0"  d="M 533.0 206.0 L 533.0 214.0" />
        <text x="533.0" font-family="-apple-system, system-ui, BlinkMacSystemFont, Roboto" y="216.0" dominant-baseline="hanging" text-anchor="middle" font-size="12" fill="#24292f">Jul 2022</text>
    
        
        <path stroke="#74838f"  stroke-width="2.0"  d="M 641.5 206.0 L 641.5 214.0" />
        <text x="641.5" font-family="-apple-system, system-ui, BlinkMacSystemFont, Roboto" y="216.0" dominant-baseline="hanging" text-anchor="middle" font-size="12" fill="#24292f">Aug 2022</text>
    
        
        <path stroke="#74838f"  stroke-width="2.0"  d="M 750.0 206.0 L 750.0 214.0" />
        <text x="750.0" font-family="-apple-system, system-ui, BlinkMacSystemFont, Roboto" y="216.0" dominant-baseline="hanging" text-anchor="middle" font-size="12" fill="#24292f">Sep 2022</text>
    
        
        <path stroke="#74838f"  stroke-width="2.0"  d="M 855.0 206.0 L 855.0 214.0" />
        <text x="855.0" font-family="-apple-system, system-ui, BlinkMacSystemFont, Roboto" y="216.0" dominant-baseline="hanging" text-anchor="middle" font-size="12" fill="#24292f">Oct 2022</text>
    
        
        <path stroke="#74838f"  stroke-width="2.0"  d="M 963.5 206.0 L 963.5 214.0" />
        <text x="963.5" font-family="-apple-system, system-ui, BlinkMacSystemFont, Roboto" y="216.0" dominant-baseline="hanging" text-anchor="middle" font-size="12" fill="#24292f">Nov 2022</text>
    
    <path stroke="#74838f"   stroke-linejoin="round" stroke-width="2.0" d="M 50.0 216.0 L 50.0 206.0 L 974.0 206.0 L 974.0 216.0"  fill="none" />
    <text x="512.0" y="25.0" font-family="-apple-system, system-ui, BlinkMacSystemFont, Roboto" dominant-baseline="middle" text-anchor="middle" font-size="18" fill="#24292f">Total daily screen name changes</text>
</svg>
