<?xml version="1.0" standalone="no"?>
<svg width="1024.0" height="256.0"  viewBox="0 0 1024.0 256.0" preserveAspectRatio="xMidYMid meet" xmlns="http://www.w3.org/2000/svg">
    <path stroke="#3498db" stroke-linejoin="round" d="M 50.0 203.3394909090909 L 50 203.3394909090909L 52.76646706586826 202.32974545454545L 55.532934131736525 196.86690909090908L 58.299401197604794 195.94792727272727L 61.06586826347306 202.14254545454546L 63.83233532934132 197.35476363636363L 66.59880239520959 191.76145454545454L 69.36526946107784 179.96218181818182L 72.13173652694611 204.09396363636364L 74.89820359281437 194.17236363636363L 77.66467065868264 192.61803636363635L 80.4311377245509 195.1253818181818L 83.19760479041916 193.92843636363637L 85.96407185628743 182.2482909090909L 88.73053892215569 200.86618181818181L 91.49700598802394 201.45614545454546L 94.26347305389223 178.89003636363637L 97.02994011976048 197.33774545454546L 99.79640718562874 198.50065454545455L 102.562874251497 200.41803636363636L 105.32934131736528 201.18385454545455L 108.09580838323353 202.26734545454545L 110.8622754491018 195.09134545454546L 113.62874251497007 198.08087272727272L 116.39520958083833 183.38850909090908L 119.16167664670658 197.47389090909093L 121.92814371257485 202.01774545454546L 124.6946107784431 194.66021818181818L 127.46107784431138 200.75272727272727L 130.22754491017963 200.00392727272728L 132.9940119760479 201.97236363636364L 135.76047904191617 204.2754909090909L 138.52694610778445 201.74545454545455L 141.2934131736527 201.01367272727273L 144.05988023952096 174.7829818181818L 146.82634730538922 195.76072727272728L 149.59281437125748 204.0032L 152.35928143712573 203.7309090909091L 155.125748502994 197.87665454545453L 157.8922155688623 202.60770909090908L 160.65868263473055 202.6928L 163.4251497005988 197.55898181818182L 166.19161676646706 186.5141818181818L 168.95808383233532 199.26647272727274L 171.7245508982036 199.5728L 174.49101796407186 193.4802909090909L 177.25748502994014 199.10763636363635L 180.02395209580837 201.54690909090908L 182.79041916167665 201.5696L 185.5568862275449 195.06865454545454L 188.32335329341316 201.70007272727273L 191.08982035928145 197.2866909090909L 193.8562874251497 172.35505454545455L 196.62275449101796 203.20901818181818L 199.3892215568862 199.6749090909091L 202.1556886227545 193.12858181818183L 204.92215568862275 196.8896L 207.68862275449104 199.78836363636364L 210.4550898203593 198.82967272727274L 213.22155688622755 204.1336727272727L 215.9880239520958 202.57934545454546L 218.75449101796406 198.9261090909091L 221.52095808383234 206L 224.2874251497006 204.128L 227.05389221556888 192.1245090909091L 229.82035928143713 206L 232.5868263473054 206L 235.35329341317365 206L 238.1197604790419 206L 240.88622754491018 197.37178181818183L 243.65269461077844 199.57847272727273L 246.41916167664672 188.9024L 249.18562874251498 195.02894545454546L 251.95209580838323 191.20552727272727L 254.7185628742515 166.8128L 257.4850299401197 203.8386909090909L 260.251497005988 198.09221818181817L 263.01796407185634 201.64334545454545L 265.7844311377246 202.2957090909091L 268.55089820359285 203.22036363636363L 271.3173652694611 200.66763636363635L 274.08383233532936 191.51185454545455L 276.8502994011976 189.18603636363636L 279.6167664670659 203.86705454545455L 282.3832335329341 197.56465454545454L 285.1497005988024 187.32538181818182L 287.91616766467064 201.2349090909091L 290.6826347305389 200.44639999999998L 293.4491017964072 201.4618181818182L 296.2155688622754 201.09876363636363L 298.9820359281437 201.17818181818183L 301.748502994012 193.02647272727273L 304.5149700598803 198.8069818181818L 307.2814371257485 203.39054545454545L 310.04790419161674 200.30458181818182L 312.81437125748505 198.35883636363636L 315.5808383233533 193.3101090909091L 318.34730538922156 200.56552727272728L 321.1137724550898 203.03883636363636L 323.88023952095807 197.22996363636364L 326.6467065868263 201.95534545454547L 329.4131736526946 196.016L 332.1796407185629 202.30705454545455L 334.94610778443115 199.91316363636363L 337.7125748502994 194.62050909090908L 340.47904191616766 201.29163636363637L 343.2455089820359 202.98778181818182L 346.0119760479042 203.5437090909091L 348.7784431137724 200.60523636363638L 351.54491017964074 195.5621818181818L 354.311377245509 203.24305454545456L 357.07784431137725 200.15709090909093L 359.8443113772455 198.46661818181818L 362.61077844311376 201.70007272727273L 365.37724550898207 200.70734545454545L 368.14371257485027 200.4293818181818L 370.9101796407186 201.76814545454545L 373.67664670658684 204.6442181818182L 376.4431137724551 206L 379.20958083832335 196.35636363636365L 381.9760479041916 199.21541818181817L 384.7425149700599 156.87418181818182L 387.5089820359281 165.1506909090909L 390.2754491017964 204.1733818181818L 393.0419161676647 202.17658181818183L 395.80838323353294 199.31185454545454L 398.5748502994012 198.7842909090909L 401.34131736526945 202.6757818181818L 404.10778443113776 202.8573090909091L 406.87425149700596 196.1861818181818L 409.64071856287427 199.64654545454545L 412.4071856287425 198.2056727272727L 415.1736526946108 201.2178909090909L 417.94011976047904 201.79083636363637L 420.7065868263473 201.90429090909092L 423.4730538922156 200.1968L 426.2395209580838 195.17076363636363L 429.0059880239521 206L 431.77245508982037 206L 434.5389221556886 206L 437.3053892215569 191.4834909090909L 440.07185628742513 197.79723636363636L 442.83832335329345 198.85236363636363L 445.60479041916165 199.76L 448.37125748502996 200.03796363636363L 451.1377245508982 200.76407272727272L 453.90419161676647 201.80785454545455L 456.6706586826348 191.63098181818182L 459.437125748503 194.41061818181817L 462.2035928143713 199.88479999999998L 464.9700598802395 152.63098181818182L 467.7365269461078 197.04843636363637L 470.50299401197606 194.4730181818182L 473.2694610778443 155.90414545454547L 476.0359281437126 91.60945454545454L 478.8023952095808 104.5376L 481.56886227544913 151.17876363636364L 484.33532934131733 185.1981090909091L 487.10179640718565 142.76610909090908L 489.86826347305384 125.0672L 492.63473053892216 123.74545454545455L 495.40119760479047 157.99738181818182L 498.16766467065867 53.56814545454546L 500.934131736527 50.78850909090909L 503.7005988023952 100.02210909090908L 506.4670658682635 156.2445090909091L 509.2335329341317 180.31956363636363L 512 192.43650909090908L 514.7664670658683 193.63912727272728L 517.5329341317365 193.3328L 520.2994011976048 192.11316363636365L 523.065868263473 197.93338181818183L 525.8323353293413 191.5629090909091L 528.5988023952095 198.7672727272727L 531.3652694610778 199.3005090909091L 534.131736526946 201.64901818181818L 536.8982035928144 200.58821818181818L 539.6646706586827 202.43752727272727L 542.4311377245508 200.73003636363637L 545.1976047904191 189.7703272727273L 547.9640718562874 203.17498181818183L 550.7305389221557 200.48610909090908L 553.497005988024 185.1810909090909L 556.2634730538923 187.88698181818182L 559.0299401197606 191.01832727272728L 561.7964071856287 192.31738181818181L 564.562874251497 177.09745454545455L 567.3293413173653 167.91330909090908L 570.0958083832335 179.30981818181817L 572.8622754491017 186.49716363636364L 575.6287425149701 150.34487272727273L 578.3952095808384 184.27345454545454L 581.1616766467066 199.5104L 583.9281437125748 161.24785454545454L 586.6946107784431 155.49003636363636L 589.4610778443114 176.96130909090908L 592.2275449101796 190.30923636363636L 594.9940119760479 193.50865454545453L 597.7604790419161 201.72843636363638L 600.5269461077844 185.22647272727272L 603.2934131736527 192.03374545454545L 606.059880239521 192.66909090909093L 608.8263473053892 180.18341818181818L 611.5928143712574 194.5013818181818L 614.3592814371258 194.6829090909091L 617.125748502994 201.85323636363637L 619.8922155688623 196.2032L 622.6586826347304 204.49105454545455L 625.4251497005988 191.55723636363638L 628.1916167664671 180.36494545454545L 630.9580838323353 193.02647272727273L 633.7245508982036 186.20785454545455L 636.4910179640718 191.72741818181817L 639.2574850299401 191.4834909090909L 642.0239520958085 196.63432727272726L 644.7904191616767 200.7810909090909L 647.5568862275449 176.26923636363637L 650.3233532934131 165.78036363636363L 653.0898203592815 181.82850909090908L 655.8562874251497 160.6976L 658.622754491018 163.93105454545454L 661.3892215568862 182.10647272727272L 664.1556886227545 130.808L 666.9221556886228 190.49643636363635L 669.688622754491 202.0914909090909L 672.4550898203593 184.09192727272728L 675.2215568862275 197.50225454545455L 677.9880239520958 187.54094545454547L 680.7544910179641 192.95272727272726L 683.5209580838324 201.88727272727272L 686.2874251497005 184.33585454545454L 689.0538922155688 183.04814545454545L 691.8203592814372 182.36741818181818L 694.5868263473054 182.54327272727272L 697.3532934131737 186.38938181818182L 700.1197604790419 174.3858909090909L 702.8862275449102 183.1786181818182L 705.6526946107784 183.5133090909091L 708.4191616766467 184.60247272727273L 711.185628742515 186.968L 713.9520958083832 170.00087272727274L 716.7185628742515 167.8338909090909L 719.4850299401198 203.32247272727273L 722.2514970059881 206L 725.0179640718562 128.43112727272728L 727.7844311377245 183.2637090909091L 730.5508982035929 156.8685090909091L 733.3173652694611 183.15592727272727L 736.0838323353294 183.2013090909091L 738.8502994011976 182.25963636363636L 741.6167664670659 170.18807272727273L 744.3832335329341 186.86589090909092L 747.1497005988024 183.77425454545454L 749.9161676646706 186.29861818181817L 752.6826347305389 184.17134545454545L 755.4491017964071 184.9655272727273L 758.2155688622755 178.1696L 760.9820359281438 180.70530909090908L 763.7485029940119 170.80072727272727L 766.5149700598802 177.99374545454546L 769.2814371257485 175.99127272727273L 772.0479041916168 173.75621818181818L 774.814371257485 175.45803636363638L 777.5808383233533 196.91796363636365L 780.3473053892216 150.30516363636363L 783.1137724550898 167.34036363636363L 785.8802395209581 174.52203636363637L 788.6467065868263 132.05599999999998L 791.4131736526946 144.8309818181818L 794.1796407185628 173.60872727272726L 796.9461077844312 151.91054545454546L 799.7125748502995 194.03621818181819L 802.4790419161676 160.59549090909093L 805.2455089820359 206L 808.0119760479042 153.43650909090908L 810.7784431137725 181.01163636363637L 813.5449101796407 181.6413090909091L 816.311377245509 182.49221818181817L 819.0778443113772 183.08785454545455L 821.8443113772455 206L 824.6107784431138 151.86516363636363L 827.377245508982 172.45716363636365L 830.1437125748503 169.20669090909092L 832.9101796407185 178.22065454545455L 835.6766467065869 175.54312727272728L 838.4431137724551 177.61367272727273L 841.2095808383233 181.0173090909091L 843.9760479041915 176.80814545454547L 846.7425149700599 167.8962909090909L 849.5089820359282 167.1248L 852.2754491017964 176.62094545454545L 855.0419161676647 158.63272727272727L 857.8083832335329 151.3602909090909L 860.5748502994012 173.35345454545455L 863.3413173652696 206L 866.1077844311377 206L 868.874251497006 206L 871.6407185628742 206L 874.4071856287426 206L 877.1736526946108 206L 879.940119760479 206L 882.7065868263473 206L 885.4730538922156 206L 888.2395209580839 206L 891.0059880239521 206L 893.7724550898204 206L 896.5389221556886 206L 899.3053892215569 206L 902.0718562874252 206L 904.8383233532934 206L 907.6047904191616 206L 910.3712574850299 206L 913.1377245508983 206L 915.9041916167665 206L 918.6706586826347 206L 921.437125748503 206L 924.2035928143713 206L 926.9700598802395 206L 929.7365269461077 206L 932.502994011976 206L 935.2694610778443 206L 938.0359281437126 206L 940.8023952095809 206L 943.5688622754491 206L 946.3353293413173 206L 949.1017964071856 206L 951.868263473054 206L 954.6347305389222 206L 957.4011976047904 206L 960.1676646706587 206L 962.934131736527 206L 965.7005988023952 206L 968.4670658682634 206L 971.2335329341317 206L 974 206" stroke-width="2.0" fill="none" />
    
        
        
        <text x="45.0" font-family="-apple-system, system-ui, BlinkMacSystemFont, Roboto" y="50.0" dominant-baseline="middle" text-anchor="end" font-size="12" fill="#24292f">27500.0</text>
        
            
            <path stroke="#74838f" stroke-dasharray="10 6" stroke-width="0.5"  d="M 50.0 50.0 L 974.0 50.0" />
        
    
        
        
        <text x="45.0" font-family="-apple-system, system-ui, BlinkMacSystemFont, Roboto" y="81.2" dominant-baseline="middle" text-anchor="end" font-size="12" fill="#24292f">22000.0</text>
        
            
            
            <path stroke="#74838f" stroke-dasharray="10 6" stroke-width="0.5"  d="M 50.0 81.2 L 974.0 81.2" />
        
    
        
        
        <text x="45.0" font-family="-apple-system, system-ui, BlinkMacSystemFont, Roboto" y="112.4" dominant-baseline="middle" text-anchor="end" font-size="12" fill="#24292f">16500.0</text>
        
            
            
            <path stroke="#74838f" stroke-dasharray="10 6" stroke-width="0.5"  d="M 50.0 112.4 L 974.0 112.4" />
        
    
        
        
        <text x="45.0" font-family="-apple-system, system-ui, BlinkMacSystemFont, Roboto" y="143.6" dominant-baseline="middle" text-anchor="end" font-size="12" fill="#24292f">11000.0</text>
        
            
            
            <path stroke="#74838f" stroke-dasharray="10 6" stroke-width="0.5"  d="M 50.0 143.6 L 974.0 143.6" />
        
    
        
        
        <text x="45.0" font-family="-apple-system, system-ui, BlinkMacSystemFont, Roboto" y="174.8" dominant-baseline="middle" text-anchor="end" font-size="12" fill="#24292f">5500.0</text>
        
            
            
            <path stroke="#74838f" stroke-dasharray="10 6" stroke-width="0.5"  d="M 50.0 174.8 L 974.0 174.8" />
        
    
        
        
        <text x="45.0" font-family="-apple-system, system-ui, BlinkMacSystemFont, Roboto" y="206.0" dominant-baseline="middle" text-anchor="end" font-size="12" fill="#24292f">0.0</text>
        
    
    
        
        <path stroke="#74838f"  stroke-width="2.0"  d="M 94.26347305389223 206.0 L 94.26347305389223 214.0" />
        <text x="94.26347305389223" font-family="-apple-system, system-ui, BlinkMacSystemFont, Roboto" y="216.0" dominant-baseline="hanging" text-anchor="middle" font-size="12" fill="#24292f">Mar 2022</text>
    
        
        <path stroke="#74838f"  stroke-width="2.0"  d="M 180.02395209580837 206.0 L 180.02395209580837 214.0" />
        <text x="180.02395209580837" font-family="-apple-system, system-ui, BlinkMacSystemFont, Roboto" y="216.0" dominant-baseline="hanging" text-anchor="middle" font-size="12" fill="#24292f">Apr 2022</text>
    
        
        <path stroke="#74838f"  stroke-width="2.0"  d="M 263.01796407185634 206.0 L 263.01796407185634 214.0" />
        <text x="263.01796407185634" font-family="-apple-system, system-ui, BlinkMacSystemFont, Roboto" y="216.0" dominant-baseline="hanging" text-anchor="middle" font-size="12" fill="#24292f">May 2022</text>
    
        
        <path stroke="#74838f"  stroke-width="2.0"  d="M 348.7784431137724 206.0 L 348.7784431137724 214.0" />
        <text x="348.7784431137724" font-family="-apple-system, system-ui, BlinkMacSystemFont, Roboto" y="216.0" dominant-baseline="hanging" text-anchor="middle" font-size="12" fill="#24292f">Jun 2022</text>
    
        
        <path stroke="#74838f"  stroke-width="2.0"  d="M 431.77245508982037 206.0 L 431.77245508982037 214.0" />
        <text x="431.77245508982037" font-family="-apple-system, system-ui, BlinkMacSystemFont, Roboto" y="216.0" dominant-baseline="hanging" text-anchor="middle" font-size="12" fill="#24292f">Jul 2022</text>
    
        
        <path stroke="#74838f"  stroke-width="2.0"  d="M 517.5329341317365 206.0 L 517.5329341317365 214.0" />
        <text x="517.5329341317365" font-family="-apple-system, system-ui, BlinkMacSystemFont, Roboto" y="216.0" dominant-baseline="hanging" text-anchor="middle" font-size="12" fill="#24292f">Aug 2022</text>
    
        
        <path stroke="#74838f"  stroke-width="2.0"  d="M 603.2934131736527 206.0 L 603.2934131736527 214.0" />
        <text x="603.2934131736527" font-family="-apple-system, system-ui, BlinkMacSystemFont, Roboto" y="216.0" dominant-baseline="hanging" text-anchor="middle" font-size="12" fill="#24292f">Sep 2022</text>
    
        
        <path stroke="#74838f"  stroke-width="2.0"  d="M 686.2874251497005 206.0 L 686.2874251497005 214.0" />
        <text x="686.2874251497005" font-family="-apple-system, system-ui, BlinkMacSystemFont, Roboto" y="216.0" dominant-baseline="hanging" text-anchor="middle" font-size="12" fill="#24292f">Oct 2022</text>
    
        
        <path stroke="#74838f"  stroke-width="2.0"  d="M 772.0479041916168 206.0 L 772.0479041916168 214.0" />
        <text x="772.0479041916168" font-family="-apple-system, system-ui, BlinkMacSystemFont, Roboto" y="216.0" dominant-baseline="hanging" text-anchor="middle" font-size="12" fill="#24292f">Nov 2022</text>
    
        
        <path stroke="#74838f"  stroke-width="2.0"  d="M 855.0419161676647 206.0 L 855.0419161676647 214.0" />
        <text x="855.0419161676647" font-family="-apple-system, system-ui, BlinkMacSystemFont, Roboto" y="216.0" dominant-baseline="hanging" text-anchor="middle" font-size="12" fill="#24292f">Dec 2022</text>
    
        
        <path stroke="#74838f"  stroke-width="2.0"  d="M 940.8023952095809 206.0 L 940.8023952095809 214.0" />
        <text x="940.8023952095809" font-family="-apple-system, system-ui, BlinkMacSystemFont, Roboto" y="216.0" dominant-baseline="hanging" text-anchor="middle" font-size="12" fill="#24292f">Jan 2023</text>
    
    <path stroke="#74838f"   stroke-linejoin="round" stroke-width="2.0" d="M 50.0 216.0 L 50.0 206.0 L 974.0 206.0 L 974.0 216.0"  fill="none" />
    <text x="512.0" y="25.0" font-family="-apple-system, system-ui, BlinkMacSystemFont, Roboto" dominant-baseline="middle" text-anchor="middle" font-size="18" fill="#24292f">Total daily screen name changes</text>
</svg>
