<?xml version="1.0" standalone="no"?>
<svg width="1024.0" height="256.0"  viewBox="0 0 1024.0 256.0" preserveAspectRatio="xMidYMid meet" xmlns="http://www.w3.org/2000/svg">
    <path stroke="#3498db" stroke-linejoin="round" d="M 50.0 203.3394909090909 L 50 203.3394909090909L 51.90909090909091 202.32974545454545L 53.81818181818182 196.86690909090908L 55.72727272727273 195.94792727272727L 57.63636363636364 202.14254545454546L 59.54545454545455 197.35476363636363L 61.45454545454545 191.76145454545454L 63.36363636363636 179.96218181818182L 65.27272727272728 204.09396363636364L 67.18181818181819 194.17236363636363L 69.0909090909091 192.61803636363635L 71 195.1253818181818L 72.9090909090909 193.92843636363637L 74.81818181818181 182.2482909090909L 76.72727272727272 200.86618181818181L 78.63636363636364 201.45614545454546L 80.54545454545455 178.89003636363637L 82.45454545454545 197.33774545454546L 84.36363636363637 198.50065454545455L 86.27272727272728 200.41803636363636L 88.18181818181819 201.18385454545455L 90.0909090909091 202.26734545454545L 92 195.09134545454546L 93.9090909090909 198.08087272727272L 95.81818181818181 183.38850909090908L 97.72727272727272 197.47389090909093L 99.63636363636364 202.01774545454546L 101.54545454545455 194.66021818181818L 103.45454545454545 200.75272727272727L 105.36363636363637 200.00392727272728L 107.27272727272728 201.97236363636364L 109.18181818181819 204.2754909090909L 111.0909090909091 201.74545454545455L 113 201.01367272727273L 114.9090909090909 174.7829818181818L 116.81818181818181 195.76072727272728L 118.72727272727273 204.0032L 120.63636363636363 203.7309090909091L 122.54545454545455 197.87665454545453L 124.45454545454545 202.60770909090908L 126.36363636363636 202.6928L 128.27272727272725 197.55898181818182L 130.1818181818182 186.5141818181818L 132.0909090909091 199.26647272727274L 134 199.5728L 135.9090909090909 193.4802909090909L 137.8181818181818 199.10763636363635L 139.72727272727272 201.54690909090908L 141.63636363636363 201.5696L 143.54545454545456 195.06865454545454L 145.45454545454544 201.70007272727273L 147.36363636363637 197.2866909090909L 149.27272727272728 172.35505454545455L 151.1818181818182 203.20901818181818L 153.0909090909091 199.6749090909091L 155 193.12858181818183L 156.9090909090909 196.8896L 158.8181818181818 199.78836363636364L 160.72727272727275 198.82967272727274L 162.63636363636363 204.1336727272727L 164.54545454545456 202.57934545454546L 166.45454545454544 198.9261090909091L 168.36363636363637 206L 170.27272727272728 204.128L 172.1818181818182 192.1245090909091L 174.0909090909091 206L 176 206L 177.90909090909093 206L 179.8181818181818 206L 181.72727272727272 197.37178181818183L 183.63636363636363 199.57847272727273L 185.54545454545456 188.9024L 187.45454545454547 195.02894545454546L 189.36363636363637 191.20552727272727L 191.27272727272725 166.8128L 193.1818181818182 203.8386909090909L 195.0909090909091 198.09221818181817L 197 201.64334545454545L 198.9090909090909 202.2957090909091L 200.81818181818184 203.22036363636363L 202.72727272727272 200.66763636363635L 204.63636363636363 191.51185454545455L 206.54545454545453 189.18603636363636L 208.45454545454547 203.86705454545455L 210.36363636363637 197.56465454545454L 212.27272727272728 187.32538181818182L 214.1818181818182 201.2349090909091L 216.0909090909091 200.44639999999998L 218 201.4618181818182L 219.9090909090909 201.09876363636363L 221.8181818181818 201.17818181818183L 223.72727272727275 193.02647272727273L 225.63636363636365 198.8069818181818L 227.54545454545453 203.39054545454545L 229.45454545454544 200.30458181818182L 231.36363636363637 198.35883636363636L 233.27272727272728 193.3101090909091L 235.1818181818182 200.56552727272728L 237.0909090909091 203.03883636363636L 239 197.22996363636364L 240.9090909090909 201.95534545454547L 242.8181818181818 196.016L 244.72727272727272 202.30705454545455L 246.63636363636365 199.91316363636363L 248.54545454545456 194.62050909090908L 250.45454545454547 201.29163636363637L 252.36363636363635 202.98778181818182L 254.27272727272728 203.5437090909091L 256.1818181818182 200.60523636363638L 258.0909090909091 195.5621818181818L 260 203.24305454545456L 261.90909090909093 200.15709090909093L 263.8181818181818 198.46661818181818L 265.72727272727275 201.70007272727273L 267.6363636363636 200.70734545454545L 269.54545454545456 200.4293818181818L 271.4545454545455 201.76814545454545L 273.3636363636364 204.6442181818182L 275.27272727272725 206L 277.1818181818182 196.35636363636365L 279.0909090909091 199.21541818181817L 281 156.87418181818182L 282.9090909090909 165.1506909090909L 284.8181818181818 204.1733818181818L 286.72727272727275 202.17658181818183L 288.6363636363636 199.31185454545454L 290.54545454545456 198.7842909090909L 292.4545454545455 202.6757818181818L 294.3636363636364 202.8573090909091L 296.27272727272725 196.1861818181818L 298.1818181818182 199.64654545454545L 300.09090909090907 198.2056727272727L 302 201.2178909090909L 303.9090909090909 201.79083636363637L 305.81818181818187 201.90429090909092L 307.72727272727275 200.1968L 309.6363636363636 195.17076363636363L 311.54545454545456 206L 313.45454545454544 206L 315.3636363636364 206L 317.27272727272725 191.4834909090909L 319.18181818181813 197.79723636363636L 321.0909090909091 198.85236363636363L 323 199.76L 324.90909090909093 200.03796363636363L 326.8181818181818 200.76407272727272L 328.72727272727275 201.80785454545455L 330.6363636363636 191.63098181818182L 332.5454545454545 194.41061818181817L 334.45454545454544 199.88479999999998L 336.3636363636364 152.63098181818182L 338.2727272727273 197.04843636363637L 340.1818181818182 194.4730181818182L 342.09090909090907 155.90414545454547L 344 91.60945454545454L 345.9090909090909 104.5376L 347.8181818181818 151.17876363636364L 349.7272727272727 185.1981090909091L 351.6363636363637 142.76610909090908L 353.54545454545456 125.0672L 355.45454545454544 123.74545454545455L 357.3636363636364 157.99738181818182L 359.27272727272725 53.56814545454546L 361.1818181818182 50.78850909090909L 363.09090909090907 100.02210909090908L 365 156.2445090909091L 366.90909090909093 180.31956363636363L 368.8181818181818 192.43650909090908L 370.72727272727275 193.63912727272728L 372.6363636363636 193.3328L 374.54545454545456 192.11316363636365L 376.45454545454544 197.93338181818183L 378.3636363636364 191.5629090909091L 380.27272727272725 198.7672727272727L 382.1818181818182 199.3005090909091L 384.0909090909091 201.64901818181818L 386 200.58821818181818L 387.90909090909093 202.43752727272727L 389.8181818181818 200.73003636363637L 391.7272727272727 189.7703272727273L 393.6363636363636 203.17498181818183L 395.5454545454545 200.48610909090908L 397.4545454545455 185.1810909090909L 399.3636363636364 187.88698181818182L 401.2727272727273 191.01832727272728L 403.1818181818182 192.31738181818181L 405.09090909090907 177.09745454545455L 407 167.91330909090908L 408.9090909090909 179.30981818181817L 410.8181818181818 186.49716363636364L 412.72727272727275 150.34487272727273L 414.6363636363636 184.27345454545454L 416.54545454545456 199.5104L 418.45454545454544 161.24785454545454L 420.3636363636364 155.49003636363636L 422.27272727272725 176.96130909090908L 424.1818181818182 190.30923636363636L 426.09090909090907 193.50865454545453L 428 201.72843636363638L 429.90909090909093 185.22647272727272L 431.8181818181818 192.03374545454545L 433.72727272727275 192.66909090909093L 435.6363636363636 180.18341818181818L 437.54545454545456 194.5013818181818L 439.45454545454544 194.6829090909091L 441.3636363636363 201.85323636363637L 443.2727272727273 196.2032L 445.1818181818182 204.49105454545455L 447.0909090909091 191.55723636363638L 449 180.36494545454545L 450.90909090909093 193.02647272727273L 452.8181818181818 186.20785454545455L 454.7272727272727 191.72741818181817L 456.6363636363636 191.4834909090909L 458.54545454545456 196.63432727272726L 460.4545454545455 200.7810909090909L 462.3636363636364 176.26923636363637L 464.27272727272725 165.78036363636363L 466.1818181818182 181.82850909090908L 468.09090909090907 160.6976L 470 163.93105454545454L 471.9090909090909 182.10647272727272L 473.81818181818187 130.808L 475.72727272727275 190.49643636363635L 477.6363636363636 202.0914909090909L 479.54545454545456 184.09192727272728L 481.45454545454544 197.50225454545455L 483.3636363636364 187.54094545454547L 485.27272727272725 192.95272727272726L 487.1818181818182 201.88727272727272L 489.0909090909091 184.33585454545454L 491 183.04814545454545L 492.90909090909093 182.36741818181818L 494.8181818181818 182.54327272727272L 496.72727272727275 186.38938181818182L 498.6363636363636 174.3858909090909L 500.5454545454545 183.1786181818182L 502.45454545454544 183.5133090909091L 504.3636363636364 184.60247272727273L 506.2727272727273 186.968L 508.1818181818182 170.00087272727274L 510.0909090909091 167.8338909090909L 512 203.32247272727273L 513.909090909091 206L 515.8181818181818 128.43112727272728L 517.7272727272727 183.2637090909091L 519.6363636363636 156.8685090909091L 521.5454545454545 183.15592727272727L 523.4545454545455 183.2013090909091L 525.3636363636364 182.25963636363636L 527.2727272727273 170.18807272727273L 529.1818181818182 186.86589090909092L 531.0909090909091 183.77425454545454L 533 186.29861818181817L 534.909090909091 184.17134545454545L 536.8181818181818 184.9655272727273L 538.7272727272727 178.1696L 540.6363636363635 180.70530909090908L 542.5454545454545 170.80072727272727L 544.4545454545455 177.99374545454546L 546.3636363636364 175.99127272727273L 548.2727272727273 173.75621818181818L 550.1818181818181 175.45803636363638L 552.0909090909091 196.91796363636365L 554 150.30516363636363L 555.909090909091 167.34036363636363L 557.8181818181818 174.52203636363637L 559.7272727272727 132.05599999999998L 561.6363636363637 144.8309818181818L 563.5454545454545 173.60872727272726L 565.4545454545455 151.91054545454546L 567.3636363636364 194.03621818181819L 569.2727272727273 160.59549090909093L 571.1818181818181 206L 573.0909090909091 153.43650909090908L 575 181.01163636363637L 576.9090909090909 181.6413090909091L 578.8181818181819 182.49221818181817L 580.7272727272727 183.08785454545455L 582.6363636363636 206L 584.5454545454545 151.86516363636363L 586.4545454545455 172.45716363636365L 588.3636363636363 169.20669090909092L 590.2727272727273 178.22065454545455L 592.1818181818182 175.54312727272728L 594.0909090909091 177.61367272727273L 596 181.0173090909091L 597.9090909090909 176.80814545454547L 599.8181818181819 167.8962909090909L 601.7272727272726 167.1248L 603.6363636363636 176.62094545454545L 605.5454545454546 158.63272727272727L 607.4545454545455 151.3602909090909L 609.3636363636364 173.35345454545455L 611.2727272727273 206L 613.1818181818182 206L 615.090909090909 206L 617 206L 618.9090909090909 206L 620.8181818181819 206L 622.7272727272727 206L 624.6363636363636 206L 626.5454545454546 206L 628.4545454545454 206L 630.3636363636364 206L 632.2727272727273 206L 634.1818181818181 206L 636.0909090909091 206L 638 206L 639.909090909091 206L 641.8181818181818 206L 643.7272727272727 206L 645.6363636363636 206L 647.5454545454545 206L 649.4545454545454 206L 651.3636363636364 206L 653.2727272727274 206L 655.1818181818181 206L 657.0909090909091 206L 659 206L 660.9090909090909 206L 662.8181818181818 206L 664.7272727272727 206L 666.6363636363637 206L 668.5454545454545 206L 670.4545454545455 206L 672.3636363636364 206L 674.2727272727273 206L 676.1818181818181 206L 678.0909090909091 206L 680 206L 681.9090909090909 206L 683.8181818181819 206L 685.7272727272727 206L 687.6363636363636 206L 689.5454545454545 206L 691.4545454545455 206L 693.3636363636364 206L 695.2727272727273 206L 697.1818181818182 206L 699.0909090909091 206L 701 206L 702.9090909090909 206L 704.8181818181819 206L 706.7272727272727 206L 708.6363636363636 206L 710.5454545454545 206L 712.4545454545455 206L 714.3636363636364 206L 716.2727272727273 206L 718.1818181818182 206L 720.090909090909 206L 722 206L 723.9090909090909 206L 725.8181818181819 206L 727.7272727272727 206L 729.6363636363636 206L 731.5454545454546 206L 733.4545454545454 206L 735.3636363636364 206L 737.2727272727273 206L 739.1818181818182 206L 741.090909090909 206L 743 206L 744.909090909091 206L 746.8181818181818 206L 748.7272727272727 206L 750.6363636363636 206L 752.5454545454546 206L 754.4545454545454 206L 756.3636363636364 206L 758.2727272727273 206L 760.1818181818181 206L 762.0909090909091 206L 764 206L 765.909090909091 206L 767.8181818181818 206L 769.7272727272727 206L 771.6363636363636 206L 773.5454545454545 206L 775.4545454545455 206L 777.3636363636364 206L 779.2727272727273 206L 781.1818181818181 206L 783.0909090909091 206L 785 206L 786.9090909090909 206L 788.8181818181818 206L 790.7272727272727 206L 792.6363636363636 206L 794.5454545454545 206L 796.4545454545455 206L 798.3636363636364 206L 800.2727272727273 206L 802.1818181818181 206L 804.0909090909091 206L 806 206L 807.9090909090909 206L 809.8181818181819 206L 811.7272727272727 206L 813.6363636363636 206L 815.5454545454545 206L 817.4545454545455 206L 819.3636363636363 206L 821.2727272727273 206L 823.1818181818182 206L 825.0909090909091 206L 827 206L 828.9090909090909 206L 830.8181818181819 206L 832.7272727272726 206L 834.6363636363636 206L 836.5454545454546 206L 838.4545454545455 206L 840.3636363636364 206L 842.2727272727273 206L 844.1818181818182 206L 846.090909090909 206L 848 206L 849.9090909090909 206L 851.8181818181819 206L 853.7272727272727 206L 855.6363636363636 206L 857.5454545454546 206L 859.4545454545454 206L 861.3636363636364 206L 863.2727272727273 206L 865.1818181818181 206L 867.0909090909091 206L 869 206L 870.909090909091 206L 872.8181818181818 206L 874.7272727272727 206L 876.6363636363636 206L 878.5454545454545 206L 880.4545454545454 206L 882.3636363636364 206L 884.2727272727274 206L 886.1818181818181 206L 888.0909090909091 206L 890 206L 891.9090909090909 206L 893.8181818181818 206L 895.7272727272727 206L 897.6363636363637 206L 899.5454545454545 206L 901.4545454545455 206L 903.3636363636364 206L 905.2727272727273 206L 907.1818181818181 206L 909.0909090909091 206L 911 206L 912.9090909090909 206L 914.8181818181819 206L 916.7272727272727 206L 918.6363636363636 206L 920.5454545454545 206L 922.4545454545455 206L 924.3636363636364 206L 926.2727272727273 206L 928.1818181818182 206L 930.0909090909091 206L 932 206L 933.9090909090909 206L 935.8181818181819 206L 937.7272727272727 206L 939.6363636363636 206L 941.5454545454545 206L 943.4545454545455 206L 945.3636363636364 206L 947.2727272727273 206L 949.1818181818182 206L 951.090909090909 206L 953 206L 954.9090909090909 206L 956.8181818181819 206L 958.7272727272727 206L 960.6363636363636 206L 962.5454545454546 206L 964.4545454545454 206L 966.3636363636364 206L 968.2727272727273 206L 970.1818181818182 206L 972.090909090909 206L 974 206" stroke-width="2.0" fill="none" />
    
        
        
        <text x="45.0" font-family="-apple-system, system-ui, BlinkMacSystemFont, Roboto" y="50.0" dominant-baseline="middle" text-anchor="end" font-size="12" fill="#24292f">27500.0</text>
        
            
            <path stroke="#74838f" stroke-dasharray="10 6" stroke-width="0.5"  d="M 50.0 50.0 L 974.0 50.0" />
        
    
        
        
        <text x="45.0" font-family="-apple-system, system-ui, BlinkMacSystemFont, Roboto" y="81.2" dominant-baseline="middle" text-anchor="end" font-size="12" fill="#24292f">22000.0</text>
        
            
            
            <path stroke="#74838f" stroke-dasharray="10 6" stroke-width="0.5"  d="M 50.0 81.2 L 974.0 81.2" />
        
    
        
        
        <text x="45.0" font-family="-apple-system, system-ui, BlinkMacSystemFont, Roboto" y="112.4" dominant-baseline="middle" text-anchor="end" font-size="12" fill="#24292f">16500.0</text>
        
            
            
            <path stroke="#74838f" stroke-dasharray="10 6" stroke-width="0.5"  d="M 50.0 112.4 L 974.0 112.4" />
        
    
        
        
        <text x="45.0" font-family="-apple-system, system-ui, BlinkMacSystemFont, Roboto" y="143.6" dominant-baseline="middle" text-anchor="end" font-size="12" fill="#24292f">11000.0</text>
        
            
            
            <path stroke="#74838f" stroke-dasharray="10 6" stroke-width="0.5"  d="M 50.0 143.6 L 974.0 143.6" />
        
    
        
        
        <text x="45.0" font-family="-apple-system, system-ui, BlinkMacSystemFont, Roboto" y="174.8" dominant-baseline="middle" text-anchor="end" font-size="12" fill="#24292f">5500.0</text>
        
            
            
            <path stroke="#74838f" stroke-dasharray="10 6" stroke-width="0.5"  d="M 50.0 174.8 L 974.0 174.8" />
        
    
        
        
        <text x="45.0" font-family="-apple-system, system-ui, BlinkMacSystemFont, Roboto" y="206.0" dominant-baseline="middle" text-anchor="end" font-size="12" fill="#24292f">0.0</text>
        
    
    
        
        <path stroke="#74838f"  stroke-width="2.0"  d="M 80.54545454545455 206.0 L 80.54545454545455 214.0" />
        <text x="80.54545454545455" font-family="-apple-system, system-ui, BlinkMacSystemFont, Roboto" y="216.0" dominant-baseline="hanging" text-anchor="middle" font-size="12" fill="#24292f">Mar 2022</text>
    
        
        <path stroke="#74838f"  stroke-width="2.0"  d="M 139.72727272727272 206.0 L 139.72727272727272 214.0" />
        <text x="139.72727272727272" font-family="-apple-system, system-ui, BlinkMacSystemFont, Roboto" y="216.0" dominant-baseline="hanging" text-anchor="middle" font-size="12" fill="#24292f">Apr 2022</text>
    
        
        <path stroke="#74838f"  stroke-width="2.0"  d="M 197.0 206.0 L 197.0 214.0" />
        <text x="197.0" font-family="-apple-system, system-ui, BlinkMacSystemFont, Roboto" y="216.0" dominant-baseline="hanging" text-anchor="middle" font-size="12" fill="#24292f">May 2022</text>
    
        
        <path stroke="#74838f"  stroke-width="2.0"  d="M 256.1818181818182 206.0 L 256.1818181818182 214.0" />
        <text x="256.1818181818182" font-family="-apple-system, system-ui, BlinkMacSystemFont, Roboto" y="216.0" dominant-baseline="hanging" text-anchor="middle" font-size="12" fill="#24292f">Jun 2022</text>
    
        
        <path stroke="#74838f"  stroke-width="2.0"  d="M 313.45454545454544 206.0 L 313.45454545454544 214.0" />
        <text x="313.45454545454544" font-family="-apple-system, system-ui, BlinkMacSystemFont, Roboto" y="216.0" dominant-baseline="hanging" text-anchor="middle" font-size="12" fill="#24292f">Jul 2022</text>
    
        
        <path stroke="#74838f"  stroke-width="2.0"  d="M 372.6363636363636 206.0 L 372.6363636363636 214.0" />
        <text x="372.6363636363636" font-family="-apple-system, system-ui, BlinkMacSystemFont, Roboto" y="216.0" dominant-baseline="hanging" text-anchor="middle" font-size="12" fill="#24292f">Aug 2022</text>
    
        
        <path stroke="#74838f"  stroke-width="2.0"  d="M 431.8181818181818 206.0 L 431.8181818181818 214.0" />
        <text x="431.8181818181818" font-family="-apple-system, system-ui, BlinkMacSystemFont, Roboto" y="216.0" dominant-baseline="hanging" text-anchor="middle" font-size="12" fill="#24292f">Sep 2022</text>
    
        
        <path stroke="#74838f"  stroke-width="2.0"  d="M 489.0909090909091 206.0 L 489.0909090909091 214.0" />
        <text x="489.0909090909091" font-family="-apple-system, system-ui, BlinkMacSystemFont, Roboto" y="216.0" dominant-baseline="hanging" text-anchor="middle" font-size="12" fill="#24292f">Oct 2022</text>
    
        
        <path stroke="#74838f"  stroke-width="2.0"  d="M 548.2727272727273 206.0 L 548.2727272727273 214.0" />
        <text x="548.2727272727273" font-family="-apple-system, system-ui, BlinkMacSystemFont, Roboto" y="216.0" dominant-baseline="hanging" text-anchor="middle" font-size="12" fill="#24292f">Nov 2022</text>
    
        
        <path stroke="#74838f"  stroke-width="2.0"  d="M 605.5454545454546 206.0 L 605.5454545454546 214.0" />
        <text x="605.5454545454546" font-family="-apple-system, system-ui, BlinkMacSystemFont, Roboto" y="216.0" dominant-baseline="hanging" text-anchor="middle" font-size="12" fill="#24292f">Dec 2022</text>
    
        
        <path stroke="#74838f"  stroke-width="2.0"  d="M 664.7272727272727 206.0 L 664.7272727272727 214.0" />
        <text x="664.7272727272727" font-family="-apple-system, system-ui, BlinkMacSystemFont, Roboto" y="216.0" dominant-baseline="hanging" text-anchor="middle" font-size="12" fill="#24292f">Jan 2023</text>
    
        
        <path stroke="#74838f"  stroke-width="2.0"  d="M 723.9090909090909 206.0 L 723.9090909090909 214.0" />
        <text x="723.9090909090909" font-family="-apple-system, system-ui, BlinkMacSystemFont, Roboto" y="216.0" dominant-baseline="hanging" text-anchor="middle" font-size="12" fill="#24292f">Feb 2023</text>
    
        
        <path stroke="#74838f"  stroke-width="2.0"  d="M 777.3636363636364 206.0 L 777.3636363636364 214.0" />
        <text x="777.3636363636364" font-family="-apple-system, system-ui, BlinkMacSystemFont, Roboto" y="216.0" dominant-baseline="hanging" text-anchor="middle" font-size="12" fill="#24292f">Mar 2023</text>
    
        
        <path stroke="#74838f"  stroke-width="2.0"  d="M 836.5454545454546 206.0 L 836.5454545454546 214.0" />
        <text x="836.5454545454546" font-family="-apple-system, system-ui, BlinkMacSystemFont, Roboto" y="216.0" dominant-baseline="hanging" text-anchor="middle" font-size="12" fill="#24292f">Apr 2023</text>
    
        
        <path stroke="#74838f"  stroke-width="2.0"  d="M 893.8181818181818 206.0 L 893.8181818181818 214.0" />
        <text x="893.8181818181818" font-family="-apple-system, system-ui, BlinkMacSystemFont, Roboto" y="216.0" dominant-baseline="hanging" text-anchor="middle" font-size="12" fill="#24292f">May 2023</text>
    
        
        <path stroke="#74838f"  stroke-width="2.0"  d="M 953.0 206.0 L 953.0 214.0" />
        <text x="953.0" font-family="-apple-system, system-ui, BlinkMacSystemFont, Roboto" y="216.0" dominant-baseline="hanging" text-anchor="middle" font-size="12" fill="#24292f">Jun 2023</text>
    
    <path stroke="#74838f"   stroke-linejoin="round" stroke-width="2.0" d="M 50.0 216.0 L 50.0 206.0 L 974.0 206.0 L 974.0 216.0"  fill="none" />
    <text x="512.0" y="25.0" font-family="-apple-system, system-ui, BlinkMacSystemFont, Roboto" dominant-baseline="middle" text-anchor="middle" font-size="18" fill="#24292f">Total daily screen name changes</text>
</svg>
