<?xml version="1.0" standalone="no"?>
<svg width="1024.0" height="256.0"  viewBox="0 0 1024.0 256.0" preserveAspectRatio="xMidYMid meet" xmlns="http://www.w3.org/2000/svg">
    <path stroke="#3498db" stroke-linejoin="round" d="M 50.0 203.3394909090909 L 50 203.3394909090909L 52.56666666666667 202.32974545454545L 55.13333333333333 196.86690909090908L 57.7 195.94792727272727L 60.266666666666666 202.14254545454546L 62.83333333333333 197.35476363636363L 65.4 191.76145454545454L 67.96666666666667 179.96218181818182L 70.53333333333333 204.09396363636364L 73.1 194.17236363636363L 75.66666666666666 192.61803636363635L 78.23333333333333 195.1253818181818L 80.8 193.92843636363637L 83.36666666666666 182.2482909090909L 85.93333333333334 200.86618181818181L 88.5 201.45614545454546L 91.06666666666666 178.89003636363637L 93.63333333333333 197.33774545454546L 96.2 198.50065454545455L 98.76666666666667 200.41803636363636L 101.33333333333333 201.18385454545455L 103.9 202.26734545454545L 106.46666666666667 195.09134545454546L 109.03333333333333 198.08087272727272L 111.6 183.38850909090908L 114.16666666666667 197.47389090909093L 116.73333333333332 202.01774545454546L 119.3 194.66021818181818L 121.86666666666667 200.75272727272727L 124.43333333333334 200.00392727272728L 127 201.97236363636364L 129.56666666666666 204.2754909090909L 132.13333333333333 201.74545454545455L 134.7 201.01367272727273L 137.26666666666665 174.7829818181818L 139.83333333333331 195.76072727272728L 142.4 204.0032L 144.96666666666667 203.7309090909091L 147.53333333333333 197.87665454545453L 150.10000000000002 202.60770909090908L 152.66666666666666 202.6928L 155.23333333333335 197.55898181818182L 157.8 186.5141818181818L 160.36666666666667 199.26647272727274L 162.93333333333334 199.5728L 165.5 193.4802909090909L 168.06666666666666 199.10763636363635L 170.63333333333333 201.54690909090908L 173.2 201.5696L 175.76666666666665 195.06865454545454L 178.33333333333334 201.70007272727273L 180.9 197.2866909090909L 183.46666666666664 172.35505454545455L 186.03333333333333 203.20901818181818L 188.6 199.6749090909091L 191.16666666666669 193.12858181818183L 193.73333333333335 196.8896L 196.29999999999998 199.78836363636364L 198.86666666666667 198.82967272727274L 201.43333333333334 204.1336727272727L 204 202.57934545454546L 206.56666666666666 198.9261090909091L 209.13333333333333 206L 211.7 204.128L 214.26666666666668 192.1245090909091L 216.83333333333334 206L 219.39999999999998 206L 221.96666666666667 206L 224.53333333333333 206L 227.10000000000002 197.37178181818183L 229.66666666666666 199.57847272727273L 232.23333333333332 188.9024L 234.8 195.02894545454546L 237.36666666666667 191.20552727272727L 239.93333333333334 166.8128L 242.5 203.8386909090909L 245.06666666666666 198.09221818181817L 247.63333333333333 201.64334545454545L 250.20000000000002 202.2957090909091L 252.76666666666665 203.22036363636363L 255.33333333333331 200.66763636363635L 257.9 191.51185454545455L 260.4666666666667 189.18603636363636L 263.03333333333336 203.86705454545455L 265.6 197.56465454545454L 268.16666666666663 187.32538181818182L 270.73333333333335 201.2349090909091L 273.3 200.44639999999998L 275.8666666666667 201.4618181818182L 278.43333333333334 201.09876363636363L 281 201.17818181818183L 283.56666666666666 193.02647272727273L 286.1333333333333 198.8069818181818L 288.70000000000005 203.39054545454545L 291.26666666666665 200.30458181818182L 293.83333333333337 198.35883636363636L 296.4 193.3101090909091L 298.96666666666664 200.56552727272728L 301.5333333333333 203.03883636363636L 304.1 197.22996363636364L 306.6666666666667 201.95534545454547L 309.23333333333335 196.016L 311.8 202.30705454545455L 314.3666666666667 199.91316363636363L 316.9333333333333 194.62050909090908L 319.5 201.29163636363637L 322.06666666666666 202.98778181818182L 324.6333333333333 203.5437090909091L 327.2 200.60523636363638L 329.76666666666665 195.5621818181818L 332.33333333333337 203.24305454545456L 334.90000000000003 200.15709090909093L 337.4666666666667 198.46661818181818L 340.0333333333333 201.70007272727273L 342.59999999999997 200.70734545454545L 345.16666666666663 200.4293818181818L 347.73333333333335 201.76814545454545L 350.3 204.6442181818182L 352.8666666666667 206L 355.43333333333334 196.35636363636365L 358 199.21541818181817L 360.5666666666667 156.87418181818182L 363.1333333333333 165.1506909090909L 365.7 204.1733818181818L 368.26666666666665 202.17658181818183L 370.8333333333333 199.31185454545454L 373.4 198.7842909090909L 375.9666666666667 202.6757818181818L 378.53333333333336 202.8573090909091L 381.1 196.1861818181818L 383.6666666666667 199.64654545454545L 386.2333333333333 198.2056727272727L 388.79999999999995 201.2178909090909L 391.3666666666667 201.79083636363637L 393.93333333333334 201.90429090909092L 396.5 200.1968L 399.06666666666666 195.17076363636363L 401.6333333333333 206L 404.20000000000005 206L 406.7666666666667 206L 409.3333333333333 191.4834909090909L 411.9 197.79723636363636L 414.46666666666664 198.85236363636363L 417.0333333333333 199.76L 419.6 200.03796363636363L 422.1666666666667 200.76407272727272L 424.73333333333335 201.80785454545455L 427.3 191.63098181818182L 429.8666666666667 194.41061818181817L 432.4333333333333 199.88479999999998L 435 152.63098181818182L 437.56666666666666 197.04843636363637L 440.1333333333333 194.4730181818182L 442.7 155.90414545454547L 445.26666666666665 91.60945454545454L 447.83333333333337 104.5376L 450.40000000000003 151.17876363636364L 452.9666666666667 185.1981090909091L 455.5333333333333 142.76610909090908L 458.09999999999997 125.0672L 460.66666666666663 123.74545454545455L 463.23333333333335 157.99738181818182L 465.8 53.56814545454546L 468.3666666666667 50.78850909090909L 470.93333333333334 100.02210909090908L 473.5 156.2445090909091L 476.0666666666667 180.31956363636363L 478.6333333333333 192.43650909090908L 481.2 193.63912727272728L 483.76666666666665 193.3328L 486.3333333333333 192.11316363636365L 488.9 197.93338181818183L 491.4666666666667 191.5629090909091L 494.03333333333336 198.7672727272727L 496.6 199.3005090909091L 499.1666666666667 201.64901818181818L 501.7333333333333 200.58821818181818L 504.29999999999995 202.43752727272727L 506.8666666666667 200.73003636363637L 509.43333333333334 189.7703272727273L 512 203.17498181818183L 514.5666666666666 200.48610909090908L 517.1333333333333 185.1810909090909L 519.7 187.88698181818182L 522.2666666666667 191.01832727272728L 524.8333333333333 192.31738181818181L 527.4000000000001 177.09745454545455L 529.9666666666667 167.91330909090908L 532.5333333333333 179.30981818181817L 535.1 186.49716363636364L 537.6666666666667 150.34487272727273L 540.2333333333333 184.27345454545454L 542.8 199.5104L 545.3666666666667 161.24785454545454L 547.9333333333333 155.49003636363636L 550.5 176.96130909090908L 553.0666666666666 190.30923636363636L 555.6333333333334 193.50865454545453L 558.2 201.72843636363638L 560.7666666666667 185.22647272727272L 563.3333333333334 192.03374545454545L 565.9 192.66909090909093L 568.4666666666667 180.18341818181818L 571.0333333333333 194.5013818181818L 573.6 194.6829090909091L 576.1666666666666 201.85323636363637L 578.7333333333333 196.2032L 581.3 204.49105454545455L 583.8666666666666 191.55723636363638L 586.4333333333334 180.36494545454545L 589 193.02647272727273L 591.5666666666667 186.20785454545455L 594.1333333333333 191.72741818181817L 596.7 191.4834909090909L 599.2666666666667 196.63432727272726L 601.8333333333334 200.7810909090909L 604.4 176.26923636363637L 606.9666666666666 165.78036363636363L 609.5333333333333 181.82850909090908L 612.0999999999999 160.6976L 614.6666666666667 163.93105454545454L 617.2333333333333 182.10647272727272L 619.8000000000001 130.808L 622.3666666666667 190.49643636363635L 624.9333333333334 202.0914909090909L 627.5 184.09192727272728L 630.0666666666666 197.50225454545455L 632.6333333333333 187.54094545454547L 635.1999999999999 192.95272727272726L 637.7666666666667 201.88727272727272L 640.3333333333333 184.33585454545454L 642.9000000000001 183.04814545454545L 645.4666666666667 182.36741818181818L 648.0333333333334 182.54327272727272L 650.6 186.38938181818182L 653.1666666666666 174.3858909090909L 655.7333333333333 183.1786181818182L 658.3 183.5133090909091L 660.8666666666667 184.60247272727273L 663.4333333333333 186.968L 666 170.00087272727274L 668.5666666666666 167.8338909090909L 671.1333333333334 203.32247272727273L 673.7 206L 676.2666666666667 128.43112727272728L 678.8333333333334 183.2637090909091L 681.4 156.8685090909091L 683.9666666666667 183.15592727272727L 686.5333333333333 183.2013090909091L 689.1 182.25963636363636L 691.6666666666666 170.18807272727273L 694.2333333333333 186.86589090909092L 696.8 183.77425454545454L 699.3666666666666 186.29861818181817L 701.9333333333334 184.17134545454545L 704.5 184.9655272727273L 707.0666666666667 178.1696L 709.6333333333333 180.70530909090908L 712.2 170.80072727272727L 714.7666666666667 177.99374545454546L 717.3333333333334 175.99127272727273L 719.9 173.75621818181818L 722.4666666666666 175.45803636363638L 725.0333333333333 196.91796363636365L 727.5999999999999 150.30516363636363L 730.1666666666667 167.34036363636363L 732.7333333333333 174.52203636363637L 735.3000000000001 132.05599999999998L 737.8666666666667 144.8309818181818L 740.4333333333334 173.60872727272726L 743 151.91054545454546L 745.5666666666666 194.03621818181819L 748.1333333333333 160.59549090909093L 750.6999999999999 206L 753.2666666666667 153.43650909090908L 755.8333333333333 181.01163636363637L 758.4000000000001 181.6413090909091L 760.9666666666667 182.49221818181817L 763.5333333333334 183.08785454545455L 766.1 206L 768.6666666666666 151.86516363636363L 771.2333333333333 172.45716363636365L 773.8 169.20669090909092L 776.3666666666667 178.22065454545455L 778.9333333333333 175.54312727272728L 781.5 177.61367272727273L 784.0666666666666 181.0173090909091L 786.6333333333334 176.80814545454547L 789.2 167.8962909090909L 791.7666666666667 167.1248L 794.3333333333334 176.62094545454545L 796.9 158.63272727272727L 799.4666666666667 151.3602909090909L 802.0333333333333 173.35345454545455L 804.6 206L 807.1666666666666 206L 809.7333333333333 206L 812.3 206L 814.8666666666666 206L 817.4333333333334 206L 820 206L 822.5666666666667 206L 825.1333333333333 206L 827.7 206L 830.2666666666667 206L 832.8333333333334 206L 835.4 206L 837.9666666666666 206L 840.5333333333333 206L 843.0999999999999 206L 845.6666666666667 206L 848.2333333333333 206L 850.8000000000001 206L 853.3666666666667 206L 855.9333333333334 206L 858.5 206L 861.0666666666666 206L 863.6333333333333 206L 866.1999999999999 206L 868.7666666666667 206L 871.3333333333333 206L 873.9000000000001 206L 876.4666666666667 206L 879.0333333333334 206L 881.6 206L 884.1666666666666 206L 886.7333333333333 206L 889.3 206L 891.8666666666667 206L 894.4333333333333 206L 897 206L 899.5666666666666 206L 902.1333333333334 206L 904.7 206L 907.2666666666667 206L 909.8333333333334 206L 912.4 206L 914.9666666666667 206L 917.5333333333333 206L 920.1 206L 922.6666666666666 206L 925.2333333333333 206L 927.8 206L 930.3666666666666 206L 932.9333333333334 206L 935.5 206L 938.0666666666667 206L 940.6333333333333 206L 943.2 206L 945.7666666666667 206L 948.3333333333334 206L 950.9 206L 953.4666666666666 206L 956.0333333333333 206L 958.5999999999999 206L 961.1666666666667 206L 963.7333333333333 206L 966.3000000000001 206L 968.8666666666667 206L 971.4333333333334 206L 974 206" stroke-width="2.0" fill="none" />
    
        
        
        <text x="45.0" font-family="-apple-system, system-ui, BlinkMacSystemFont, Roboto" y="50.0" dominant-baseline="middle" text-anchor="end" font-size="12" fill="#24292f">27500.0</text>
        
            
            <path stroke="#74838f" stroke-dasharray="10 6" stroke-width="0.5"  d="M 50.0 50.0 L 974.0 50.0" />
        
    
        
        
        <text x="45.0" font-family="-apple-system, system-ui, BlinkMacSystemFont, Roboto" y="81.2" dominant-baseline="middle" text-anchor="end" font-size="12" fill="#24292f">22000.0</text>
        
            
            
            <path stroke="#74838f" stroke-dasharray="10 6" stroke-width="0.5"  d="M 50.0 81.2 L 974.0 81.2" />
        
    
        
        
        <text x="45.0" font-family="-apple-system, system-ui, BlinkMacSystemFont, Roboto" y="112.4" dominant-baseline="middle" text-anchor="end" font-size="12" fill="#24292f">16500.0</text>
        
            
            
            <path stroke="#74838f" stroke-dasharray="10 6" stroke-width="0.5"  d="M 50.0 112.4 L 974.0 112.4" />
        
    
        
        
        <text x="45.0" font-family="-apple-system, system-ui, BlinkMacSystemFont, Roboto" y="143.6" dominant-baseline="middle" text-anchor="end" font-size="12" fill="#24292f">11000.0</text>
        
            
            
            <path stroke="#74838f" stroke-dasharray="10 6" stroke-width="0.5"  d="M 50.0 143.6 L 974.0 143.6" />
        
    
        
        
        <text x="45.0" font-family="-apple-system, system-ui, BlinkMacSystemFont, Roboto" y="174.8" dominant-baseline="middle" text-anchor="end" font-size="12" fill="#24292f">5500.0</text>
        
            
            
            <path stroke="#74838f" stroke-dasharray="10 6" stroke-width="0.5"  d="M 50.0 174.8 L 974.0 174.8" />
        
    
        
        
        <text x="45.0" font-family="-apple-system, system-ui, BlinkMacSystemFont, Roboto" y="206.0" dominant-baseline="middle" text-anchor="end" font-size="12" fill="#24292f">0.0</text>
        
    
    
        
        <path stroke="#74838f"  stroke-width="2.0"  d="M 91.06666666666666 206.0 L 91.06666666666666 214.0" />
        <text x="91.06666666666666" font-family="-apple-system, system-ui, BlinkMacSystemFont, Roboto" y="216.0" dominant-baseline="hanging" text-anchor="middle" font-size="12" fill="#24292f">Mar 2022</text>
    
        
        <path stroke="#74838f"  stroke-width="2.0"  d="M 170.63333333333333 206.0 L 170.63333333333333 214.0" />
        <text x="170.63333333333333" font-family="-apple-system, system-ui, BlinkMacSystemFont, Roboto" y="216.0" dominant-baseline="hanging" text-anchor="middle" font-size="12" fill="#24292f">Apr 2022</text>
    
        
        <path stroke="#74838f"  stroke-width="2.0"  d="M 247.63333333333333 206.0 L 247.63333333333333 214.0" />
        <text x="247.63333333333333" font-family="-apple-system, system-ui, BlinkMacSystemFont, Roboto" y="216.0" dominant-baseline="hanging" text-anchor="middle" font-size="12" fill="#24292f">May 2022</text>
    
        
        <path stroke="#74838f"  stroke-width="2.0"  d="M 327.2 206.0 L 327.2 214.0" />
        <text x="327.2" font-family="-apple-system, system-ui, BlinkMacSystemFont, Roboto" y="216.0" dominant-baseline="hanging" text-anchor="middle" font-size="12" fill="#24292f">Jun 2022</text>
    
        
        <path stroke="#74838f"  stroke-width="2.0"  d="M 404.20000000000005 206.0 L 404.20000000000005 214.0" />
        <text x="404.20000000000005" font-family="-apple-system, system-ui, BlinkMacSystemFont, Roboto" y="216.0" dominant-baseline="hanging" text-anchor="middle" font-size="12" fill="#24292f">Jul 2022</text>
    
        
        <path stroke="#74838f"  stroke-width="2.0"  d="M 483.76666666666665 206.0 L 483.76666666666665 214.0" />
        <text x="483.76666666666665" font-family="-apple-system, system-ui, BlinkMacSystemFont, Roboto" y="216.0" dominant-baseline="hanging" text-anchor="middle" font-size="12" fill="#24292f">Aug 2022</text>
    
        
        <path stroke="#74838f"  stroke-width="2.0"  d="M 563.3333333333334 206.0 L 563.3333333333334 214.0" />
        <text x="563.3333333333334" font-family="-apple-system, system-ui, BlinkMacSystemFont, Roboto" y="216.0" dominant-baseline="hanging" text-anchor="middle" font-size="12" fill="#24292f">Sep 2022</text>
    
        
        <path stroke="#74838f"  stroke-width="2.0"  d="M 640.3333333333333 206.0 L 640.3333333333333 214.0" />
        <text x="640.3333333333333" font-family="-apple-system, system-ui, BlinkMacSystemFont, Roboto" y="216.0" dominant-baseline="hanging" text-anchor="middle" font-size="12" fill="#24292f">Oct 2022</text>
    
        
        <path stroke="#74838f"  stroke-width="2.0"  d="M 719.9 206.0 L 719.9 214.0" />
        <text x="719.9" font-family="-apple-system, system-ui, BlinkMacSystemFont, Roboto" y="216.0" dominant-baseline="hanging" text-anchor="middle" font-size="12" fill="#24292f">Nov 2022</text>
    
        
        <path stroke="#74838f"  stroke-width="2.0"  d="M 796.9 206.0 L 796.9 214.0" />
        <text x="796.9" font-family="-apple-system, system-ui, BlinkMacSystemFont, Roboto" y="216.0" dominant-baseline="hanging" text-anchor="middle" font-size="12" fill="#24292f">Dec 2022</text>
    
        
        <path stroke="#74838f"  stroke-width="2.0"  d="M 876.4666666666667 206.0 L 876.4666666666667 214.0" />
        <text x="876.4666666666667" font-family="-apple-system, system-ui, BlinkMacSystemFont, Roboto" y="216.0" dominant-baseline="hanging" text-anchor="middle" font-size="12" fill="#24292f">Jan 2023</text>
    
        
        <path stroke="#74838f"  stroke-width="2.0"  d="M 956.0333333333333 206.0 L 956.0333333333333 214.0" />
        <text x="956.0333333333333" font-family="-apple-system, system-ui, BlinkMacSystemFont, Roboto" y="216.0" dominant-baseline="hanging" text-anchor="middle" font-size="12" fill="#24292f">Feb 2023</text>
    
    <path stroke="#74838f"   stroke-linejoin="round" stroke-width="2.0" d="M 50.0 216.0 L 50.0 206.0 L 974.0 206.0 L 974.0 216.0"  fill="none" />
    <text x="512.0" y="25.0" font-family="-apple-system, system-ui, BlinkMacSystemFont, Roboto" dominant-baseline="middle" text-anchor="middle" font-size="18" fill="#24292f">Total daily screen name changes</text>
</svg>
