<?xml version="1.0" standalone="no"?>
<svg width="1024.0" height="256.0"  viewBox="0 0 1024.0 256.0" preserveAspectRatio="xMidYMid meet" xmlns="http://www.w3.org/2000/svg">
    <path stroke="#3498db" stroke-linejoin="round" d="M 50.0 203.3394909090909 L 50 203.3394909090909L 51.8046875 202.32974545454545L 53.609375 196.86690909090908L 55.4140625 195.94792727272727L 57.21875 202.14254545454546L 59.0234375 197.35476363636363L 60.828125 191.76145454545454L 62.6328125 179.96218181818182L 64.4375 204.09396363636364L 66.2421875 194.17236363636363L 68.046875 192.61803636363635L 69.8515625 195.1253818181818L 71.65625 193.92843636363637L 73.4609375 182.2482909090909L 75.265625 200.86618181818181L 77.0703125 201.45614545454546L 78.875 178.89003636363637L 80.6796875 197.33774545454546L 82.484375 198.50065454545455L 84.2890625 200.41803636363636L 86.09375 201.18385454545455L 87.8984375 202.26734545454545L 89.703125 195.09134545454546L 91.5078125 198.08087272727272L 93.3125 183.38850909090908L 95.1171875 197.47389090909093L 96.921875 202.01774545454546L 98.7265625 194.66021818181818L 100.53125 200.75272727272727L 102.3359375 200.00392727272728L 104.140625 201.97236363636364L 105.9453125 204.2754909090909L 107.75 201.74545454545455L 109.5546875 201.01367272727273L 111.359375 174.7829818181818L 113.1640625 195.76072727272728L 114.96875 204.0032L 116.7734375 203.7309090909091L 118.578125 197.87665454545453L 120.3828125 202.60770909090908L 122.1875 202.6928L 123.9921875 197.55898181818182L 125.796875 186.5141818181818L 127.6015625 199.26647272727274L 129.40625 199.5728L 131.2109375 193.4802909090909L 133.015625 199.10763636363635L 134.8203125 201.54690909090908L 136.625 201.5696L 138.4296875 195.06865454545454L 140.234375 201.70007272727273L 142.0390625 197.2866909090909L 143.84375 172.35505454545455L 145.6484375 203.20901818181818L 147.453125 199.6749090909091L 149.2578125 193.12858181818183L 151.0625 196.8896L 152.8671875 199.78836363636364L 154.671875 198.82967272727274L 156.4765625 204.1336727272727L 158.28125 202.57934545454546L 160.0859375 198.9261090909091L 161.890625 206L 163.6953125 204.128L 165.5 192.1245090909091L 167.3046875 206L 169.109375 206L 170.9140625 206L 172.71875 206L 174.5234375 197.37178181818183L 176.328125 199.57847272727273L 178.1328125 188.9024L 179.9375 195.02894545454546L 181.7421875 191.20552727272727L 183.546875 166.8128L 185.3515625 203.8386909090909L 187.15625 198.09221818181817L 188.9609375 201.64334545454545L 190.765625 202.2957090909091L 192.5703125 203.22036363636363L 194.375 200.66763636363635L 196.1796875 191.51185454545455L 197.984375 189.18603636363636L 199.7890625 203.86705454545455L 201.59375 197.56465454545454L 203.3984375 187.32538181818182L 205.203125 201.2349090909091L 207.0078125 200.44639999999998L 208.8125 201.4618181818182L 210.6171875 201.09876363636363L 212.421875 201.17818181818183L 214.2265625 193.02647272727273L 216.03125 198.8069818181818L 217.8359375 203.39054545454545L 219.640625 200.30458181818182L 221.4453125 198.35883636363636L 223.25 193.3101090909091L 225.0546875 200.56552727272728L 226.859375 203.03883636363636L 228.6640625 197.22996363636364L 230.46875 201.95534545454547L 232.2734375 196.016L 234.078125 202.30705454545455L 235.8828125 199.91316363636363L 237.6875 194.62050909090908L 239.4921875 201.29163636363637L 241.296875 202.98778181818182L 243.1015625 203.5437090909091L 244.90625 200.60523636363638L 246.7109375 195.5621818181818L 248.515625 203.24305454545456L 250.3203125 200.15709090909093L 252.125 198.46661818181818L 253.9296875 201.70007272727273L 255.734375 200.70734545454545L 257.5390625 200.4293818181818L 259.34375 201.76814545454545L 261.1484375 204.6442181818182L 262.953125 206L 264.7578125 196.35636363636365L 266.5625 199.21541818181817L 268.3671875 156.87418181818182L 270.171875 165.1506909090909L 271.9765625 204.1733818181818L 273.78125 202.17658181818183L 275.5859375 199.31185454545454L 277.390625 198.7842909090909L 279.1953125 202.6757818181818L 281 202.8573090909091L 282.8046875 196.1861818181818L 284.609375 199.64654545454545L 286.4140625 198.2056727272727L 288.21875 201.2178909090909L 290.0234375 201.79083636363637L 291.828125 201.90429090909092L 293.6328125 200.1968L 295.4375 195.17076363636363L 297.2421875 206L 299.046875 206L 300.8515625 206L 302.65625 191.4834909090909L 304.4609375 197.79723636363636L 306.265625 198.85236363636363L 308.0703125 199.76L 309.875 200.03796363636363L 311.6796875 200.76407272727272L 313.484375 201.80785454545455L 315.2890625 191.63098181818182L 317.09375 194.41061818181817L 318.8984375 199.88479999999998L 320.703125 152.63098181818182L 322.5078125 197.04843636363637L 324.3125 194.4730181818182L 326.1171875 155.90414545454547L 327.921875 91.60945454545454L 329.7265625 104.5376L 331.53125 151.17876363636364L 333.3359375 185.1981090909091L 335.140625 142.76610909090908L 336.9453125 125.0672L 338.75 123.74545454545455L 340.5546875 157.99738181818182L 342.359375 53.56814545454546L 344.1640625 50.78850909090909L 345.96875 100.02210909090908L 347.7734375 156.2445090909091L 349.578125 180.31956363636363L 351.3828125 192.43650909090908L 353.1875 193.63912727272728L 354.9921875 193.3328L 356.796875 192.11316363636365L 358.6015625 197.93338181818183L 360.40625 191.5629090909091L 362.2109375 198.7672727272727L 364.015625 199.3005090909091L 365.8203125 201.64901818181818L 367.625 200.58821818181818L 369.4296875 202.43752727272727L 371.234375 200.73003636363637L 373.0390625 189.7703272727273L 374.84375 203.17498181818183L 376.6484375 200.48610909090908L 378.453125 185.1810909090909L 380.2578125 187.88698181818182L 382.0625 191.01832727272728L 383.8671875 192.31738181818181L 385.671875 177.09745454545455L 387.4765625 167.91330909090908L 389.28125 179.30981818181817L 391.0859375 186.49716363636364L 392.890625 150.34487272727273L 394.6953125 184.27345454545454L 396.5 199.5104L 398.3046875 161.24785454545454L 400.109375 155.49003636363636L 401.9140625 176.96130909090908L 403.71875 190.30923636363636L 405.5234375 193.50865454545453L 407.328125 201.72843636363638L 409.1328125 185.22647272727272L 410.9375 192.03374545454545L 412.7421875 192.66909090909093L 414.546875 180.18341818181818L 416.3515625 194.5013818181818L 418.15625 194.6829090909091L 419.9609375 201.85323636363637L 421.765625 196.2032L 423.5703125 204.49105454545455L 425.375 191.55723636363638L 427.1796875 180.36494545454545L 428.984375 193.02647272727273L 430.7890625 186.20785454545455L 432.59375 191.72741818181817L 434.3984375 191.4834909090909L 436.203125 196.63432727272726L 438.0078125 200.7810909090909L 439.8125 176.26923636363637L 441.6171875 165.78036363636363L 443.421875 181.82850909090908L 445.2265625 160.6976L 447.03125 163.93105454545454L 448.8359375 182.10647272727272L 450.640625 130.808L 452.4453125 190.49643636363635L 454.25 202.0914909090909L 456.0546875 184.09192727272728L 457.859375 197.50225454545455L 459.6640625 187.54094545454547L 461.46875 192.95272727272726L 463.2734375 201.88727272727272L 465.078125 184.33585454545454L 466.8828125 183.04814545454545L 468.6875 182.36741818181818L 470.4921875 182.54327272727272L 472.296875 186.38938181818182L 474.1015625 174.3858909090909L 475.90625 183.1786181818182L 477.7109375 183.5133090909091L 479.515625 184.60247272727273L 481.3203125 186.968L 483.125 170.00087272727274L 484.9296875 167.8338909090909L 486.734375 203.32247272727273L 488.5390625 206L 490.34375 128.43112727272728L 492.1484375 183.2637090909091L 493.953125 156.8685090909091L 495.7578125 183.15592727272727L 497.5625 183.2013090909091L 499.3671875 182.25963636363636L 501.171875 170.18807272727273L 502.9765625 186.86589090909092L 504.78125 183.77425454545454L 506.5859375 186.29861818181817L 508.390625 184.17134545454545L 510.1953125 184.9655272727273L 512 178.1696L 513.8046875 180.70530909090908L 515.609375 170.80072727272727L 517.4140625 177.99374545454546L 519.21875 175.99127272727273L 521.0234375 173.75621818181818L 522.828125 175.45803636363638L 524.6328125 196.91796363636365L 526.4375 150.30516363636363L 528.2421875 167.34036363636363L 530.046875 174.52203636363637L 531.8515625 132.05599999999998L 533.65625 144.8309818181818L 535.4609375 173.60872727272726L 537.265625 151.91054545454546L 539.0703125 194.03621818181819L 540.875 160.59549090909093L 542.6796875 206L 544.484375 153.43650909090908L 546.2890625 181.01163636363637L 548.09375 181.6413090909091L 549.8984375 182.49221818181817L 551.703125 183.08785454545455L 553.5078125 206L 555.3125 151.86516363636363L 557.1171875 172.45716363636365L 558.921875 169.20669090909092L 560.7265625 178.22065454545455L 562.53125 175.54312727272728L 564.3359375 177.61367272727273L 566.140625 181.0173090909091L 567.9453125 176.80814545454547L 569.75 167.8962909090909L 571.5546875 167.1248L 573.359375 176.62094545454545L 575.1640625 158.63272727272727L 576.96875 151.3602909090909L 578.7734375 173.35345454545455L 580.578125 206L 582.3828125 206L 584.1875 206L 585.9921875 206L 587.796875 206L 589.6015625 206L 591.40625 206L 593.2109375 206L 595.015625 206L 596.8203125 206L 598.625 206L 600.4296875 206L 602.234375 206L 604.0390625 206L 605.84375 206L 607.6484375 206L 609.453125 206L 611.2578125 206L 613.0625 206L 614.8671875 206L 616.671875 206L 618.4765625 206L 620.28125 206L 622.0859375 206L 623.890625 206L 625.6953125 206L 627.5 206L 629.3046875 206L 631.109375 206L 632.9140625 206L 634.71875 206L 636.5234375 206L 638.328125 206L 640.1328125 206L 641.9375 206L 643.7421875 206L 645.546875 206L 647.3515625 206L 649.15625 206L 650.9609375 206L 652.765625 206L 654.5703125 206L 656.375 206L 658.1796875 206L 659.984375 206L 661.7890625 206L 663.59375 206L 665.3984375 206L 667.203125 206L 669.0078125 206L 670.8125 206L 672.6171875 206L 674.421875 206L 676.2265625 206L 678.03125 206L 679.8359375 206L 681.640625 206L 683.4453125 206L 685.25 206L 687.0546875 206L 688.859375 206L 690.6640625 206L 692.46875 206L 694.2734375 206L 696.078125 206L 697.8828125 206L 699.6875 206L 701.4921875 206L 703.296875 206L 705.1015625 206L 706.90625 206L 708.7109375 206L 710.515625 206L 712.3203125 206L 714.125 206L 715.9296875 206L 717.734375 206L 719.5390625 206L 721.34375 206L 723.1484375 206L 724.953125 206L 726.7578125 206L 728.5625 206L 730.3671875 206L 732.171875 206L 733.9765625 206L 735.78125 206L 737.5859375 206L 739.390625 206L 741.1953125 206L 743 206L 744.8046875 206L 746.609375 206L 748.4140625 206L 750.21875 206L 752.0234375 206L 753.828125 206L 755.6328125 206L 757.4375 206L 759.2421875 206L 761.046875 206L 762.8515625 206L 764.65625 206L 766.4609375 206L 768.265625 206L 770.0703125 206L 771.875 206L 773.6796875 206L 775.484375 206L 777.2890625 206L 779.09375 206L 780.8984375 206L 782.703125 206L 784.5078125 206L 786.3125 206L 788.1171875 206L 789.921875 206L 791.7265625 206L 793.53125 206L 795.3359375 206L 797.140625 206L 798.9453125 206L 800.75 206L 802.5546875 206L 804.359375 206L 806.1640625 206L 807.96875 206L 809.7734375 206L 811.578125 206L 813.3828125 206L 815.1875 206L 816.9921875 206L 818.796875 206L 820.6015625 206L 822.40625 206L 824.2109375 206L 826.015625 206L 827.8203125 206L 829.625 206L 831.4296875 206L 833.234375 206L 835.0390625 206L 836.84375 206L 838.6484375 206L 840.453125 206L 842.2578125 206L 844.0625 206L 845.8671875 206L 847.671875 206L 849.4765625 206L 851.28125 206L 853.0859375 206L 854.890625 206L 856.6953125 206L 858.5 206L 860.3046875 206L 862.109375 206L 863.9140625 206L 865.71875 206L 867.5234375 206L 869.328125 206L 871.1328125 206L 872.9375 206L 874.7421875 206L 876.546875 206L 878.3515625 206L 880.15625 206L 881.9609375 206L 883.765625 206L 885.5703125 206L 887.375 206L 889.1796875 206L 890.984375 206L 892.7890625 206L 894.59375 206L 896.3984375 206L 898.203125 206L 900.0078125 206L 901.8125 206L 903.6171875 206L 905.421875 206L 907.2265625 206L 909.03125 206L 910.8359375 206L 912.640625 206L 914.4453125 206L 916.25 206L 918.0546875 206L 919.859375 206L 921.6640625 206L 923.46875 206L 925.2734375 206L 927.078125 206L 928.8828125 206L 930.6875 206L 932.4921875 206L 934.296875 206L 936.1015625 206L 937.90625 206L 939.7109375 206L 941.515625 206L 943.3203125 206L 945.125 206L 946.9296875 206L 948.734375 206L 950.5390625 206L 952.34375 206L 954.1484375 206L 955.953125 206L 957.7578125 206L 959.5625 206L 961.3671875 206L 963.171875 206L 964.9765625 206L 966.78125 206L 968.5859375 206L 970.390625 206L 972.1953125 206L 974 206" stroke-width="2.0" fill="none" />
    
        
        
        <text x="45.0" font-family="-apple-system, system-ui, BlinkMacSystemFont, Roboto" y="50.0" dominant-baseline="middle" text-anchor="end" font-size="12" fill="#24292f">27500.0</text>
        
            
            <path stroke="#74838f" stroke-dasharray="10 6" stroke-width="0.5"  d="M 50.0 50.0 L 974.0 50.0" />
        
    
        
        
        <text x="45.0" font-family="-apple-system, system-ui, BlinkMacSystemFont, Roboto" y="81.2" dominant-baseline="middle" text-anchor="end" font-size="12" fill="#24292f">22000.0</text>
        
            
            
            <path stroke="#74838f" stroke-dasharray="10 6" stroke-width="0.5"  d="M 50.0 81.2 L 974.0 81.2" />
        
    
        
        
        <text x="45.0" font-family="-apple-system, system-ui, BlinkMacSystemFont, Roboto" y="112.4" dominant-baseline="middle" text-anchor="end" font-size="12" fill="#24292f">16500.0</text>
        
            
            
            <path stroke="#74838f" stroke-dasharray="10 6" stroke-width="0.5"  d="M 50.0 112.4 L 974.0 112.4" />
        
    
        
        
        <text x="45.0" font-family="-apple-system, system-ui, BlinkMacSystemFont, Roboto" y="143.6" dominant-baseline="middle" text-anchor="end" font-size="12" fill="#24292f">11000.0</text>
        
            
            
            <path stroke="#74838f" stroke-dasharray="10 6" stroke-width="0.5"  d="M 50.0 143.6 L 974.0 143.6" />
        
    
        
        
        <text x="45.0" font-family="-apple-system, system-ui, BlinkMacSystemFont, Roboto" y="174.8" dominant-baseline="middle" text-anchor="end" font-size="12" fill="#24292f">5500.0</text>
        
            
            
            <path stroke="#74838f" stroke-dasharray="10 6" stroke-width="0.5"  d="M 50.0 174.8 L 974.0 174.8" />
        
    
        
        
        <text x="45.0" font-family="-apple-system, system-ui, BlinkMacSystemFont, Roboto" y="206.0" dominant-baseline="middle" text-anchor="end" font-size="12" fill="#24292f">0.0</text>
        
    
    
        
        <path stroke="#74838f"  stroke-width="2.0"  d="M 78.875 206.0 L 78.875 214.0" />
        <text x="78.875" font-family="-apple-system, system-ui, BlinkMacSystemFont, Roboto" y="216.0" dominant-baseline="hanging" text-anchor="middle" font-size="12" fill="#24292f">Mar 2022</text>
    
        
        <path stroke="#74838f"  stroke-width="2.0"  d="M 134.8203125 206.0 L 134.8203125 214.0" />
        <text x="134.8203125" font-family="-apple-system, system-ui, BlinkMacSystemFont, Roboto" y="216.0" dominant-baseline="hanging" text-anchor="middle" font-size="12" fill="#24292f">Apr 2022</text>
    
        
        <path stroke="#74838f"  stroke-width="2.0"  d="M 188.9609375 206.0 L 188.9609375 214.0" />
        <text x="188.9609375" font-family="-apple-system, system-ui, BlinkMacSystemFont, Roboto" y="216.0" dominant-baseline="hanging" text-anchor="middle" font-size="12" fill="#24292f">May 2022</text>
    
        
        <path stroke="#74838f"  stroke-width="2.0"  d="M 244.90625 206.0 L 244.90625 214.0" />
        <text x="244.90625" font-family="-apple-system, system-ui, BlinkMacSystemFont, Roboto" y="216.0" dominant-baseline="hanging" text-anchor="middle" font-size="12" fill="#24292f">Jun 2022</text>
    
        
        <path stroke="#74838f"  stroke-width="2.0"  d="M 299.046875 206.0 L 299.046875 214.0" />
        <text x="299.046875" font-family="-apple-system, system-ui, BlinkMacSystemFont, Roboto" y="216.0" dominant-baseline="hanging" text-anchor="middle" font-size="12" fill="#24292f">Jul 2022</text>
    
        
        <path stroke="#74838f"  stroke-width="2.0"  d="M 354.9921875 206.0 L 354.9921875 214.0" />
        <text x="354.9921875" font-family="-apple-system, system-ui, BlinkMacSystemFont, Roboto" y="216.0" dominant-baseline="hanging" text-anchor="middle" font-size="12" fill="#24292f">Aug 2022</text>
    
        
        <path stroke="#74838f"  stroke-width="2.0"  d="M 410.9375 206.0 L 410.9375 214.0" />
        <text x="410.9375" font-family="-apple-system, system-ui, BlinkMacSystemFont, Roboto" y="216.0" dominant-baseline="hanging" text-anchor="middle" font-size="12" fill="#24292f">Sep 2022</text>
    
        
        <path stroke="#74838f"  stroke-width="2.0"  d="M 465.078125 206.0 L 465.078125 214.0" />
        <text x="465.078125" font-family="-apple-system, system-ui, BlinkMacSystemFont, Roboto" y="216.0" dominant-baseline="hanging" text-anchor="middle" font-size="12" fill="#24292f">Oct 2022</text>
    
        
        <path stroke="#74838f"  stroke-width="2.0"  d="M 521.0234375 206.0 L 521.0234375 214.0" />
        <text x="521.0234375" font-family="-apple-system, system-ui, BlinkMacSystemFont, Roboto" y="216.0" dominant-baseline="hanging" text-anchor="middle" font-size="12" fill="#24292f">Nov 2022</text>
    
        
        <path stroke="#74838f"  stroke-width="2.0"  d="M 575.1640625 206.0 L 575.1640625 214.0" />
        <text x="575.1640625" font-family="-apple-system, system-ui, BlinkMacSystemFont, Roboto" y="216.0" dominant-baseline="hanging" text-anchor="middle" font-size="12" fill="#24292f">Dec 2022</text>
    
        
        <path stroke="#74838f"  stroke-width="2.0"  d="M 631.109375 206.0 L 631.109375 214.0" />
        <text x="631.109375" font-family="-apple-system, system-ui, BlinkMacSystemFont, Roboto" y="216.0" dominant-baseline="hanging" text-anchor="middle" font-size="12" fill="#24292f">Jan 2023</text>
    
        
        <path stroke="#74838f"  stroke-width="2.0"  d="M 687.0546875 206.0 L 687.0546875 214.0" />
        <text x="687.0546875" font-family="-apple-system, system-ui, BlinkMacSystemFont, Roboto" y="216.0" dominant-baseline="hanging" text-anchor="middle" font-size="12" fill="#24292f">Feb 2023</text>
    
        
        <path stroke="#74838f"  stroke-width="2.0"  d="M 737.5859375 206.0 L 737.5859375 214.0" />
        <text x="737.5859375" font-family="-apple-system, system-ui, BlinkMacSystemFont, Roboto" y="216.0" dominant-baseline="hanging" text-anchor="middle" font-size="12" fill="#24292f">Mar 2023</text>
    
        
        <path stroke="#74838f"  stroke-width="2.0"  d="M 793.53125 206.0 L 793.53125 214.0" />
        <text x="793.53125" font-family="-apple-system, system-ui, BlinkMacSystemFont, Roboto" y="216.0" dominant-baseline="hanging" text-anchor="middle" font-size="12" fill="#24292f">Apr 2023</text>
    
        
        <path stroke="#74838f"  stroke-width="2.0"  d="M 847.671875 206.0 L 847.671875 214.0" />
        <text x="847.671875" font-family="-apple-system, system-ui, BlinkMacSystemFont, Roboto" y="216.0" dominant-baseline="hanging" text-anchor="middle" font-size="12" fill="#24292f">May 2023</text>
    
        
        <path stroke="#74838f"  stroke-width="2.0"  d="M 903.6171875 206.0 L 903.6171875 214.0" />
        <text x="903.6171875" font-family="-apple-system, system-ui, BlinkMacSystemFont, Roboto" y="216.0" dominant-baseline="hanging" text-anchor="middle" font-size="12" fill="#24292f">Jun 2023</text>
    
        
        <path stroke="#74838f"  stroke-width="2.0"  d="M 957.7578125 206.0 L 957.7578125 214.0" />
        <text x="957.7578125" font-family="-apple-system, system-ui, BlinkMacSystemFont, Roboto" y="216.0" dominant-baseline="hanging" text-anchor="middle" font-size="12" fill="#24292f">Jul 2023</text>
    
    <path stroke="#74838f"   stroke-linejoin="round" stroke-width="2.0" d="M 50.0 216.0 L 50.0 206.0 L 974.0 206.0 L 974.0 216.0"  fill="none" />
    <text x="512.0" y="25.0" font-family="-apple-system, system-ui, BlinkMacSystemFont, Roboto" dominant-baseline="middle" text-anchor="middle" font-size="18" fill="#24292f">Total daily screen name changes</text>
</svg>
