<?xml version="1.0" standalone="no"?>
<svg width="1024.0" height="256.0"  viewBox="0 0 1024.0 256.0" preserveAspectRatio="xMidYMid meet" xmlns="http://www.w3.org/2000/svg">
    <path stroke="#3498db" stroke-linejoin="round" d="M 50.0 203.3394909090909 L 50 203.3394909090909L 52.35114503816794 202.32974545454545L 54.70229007633588 196.86690909090908L 57.05343511450381 195.94792727272727L 59.404580152671755 202.14254545454546L 61.7557251908397 197.35476363636363L 64.10687022900763 191.76145454545454L 66.45801526717557 179.96218181818182L 68.80916030534351 204.09396363636364L 71.16030534351145 194.17236363636363L 73.5114503816794 192.61803636363635L 75.86259541984732 195.1253818181818L 78.21374045801527 193.92843636363637L 80.56488549618321 182.2482909090909L 82.91603053435114 200.86618181818181L 85.26717557251908 201.45614545454546L 87.61832061068702 178.89003636363637L 89.96946564885496 197.33774545454546L 92.3206106870229 198.50065454545455L 94.67175572519085 200.41803636363636L 97.02290076335878 201.18385454545455L 99.37404580152672 202.26734545454545L 101.72519083969465 195.09134545454546L 104.07633587786259 198.08087272727272L 106.42748091603053 183.38850909090908L 108.77862595419847 197.47389090909093L 111.12977099236642 202.01774545454546L 113.48091603053436 194.66021818181818L 115.83206106870229 200.75272727272727L 118.18320610687022 200.00392727272728L 120.53435114503817 201.97236363636364L 122.8854961832061 204.2754909090909L 125.23664122137406 201.74545454545455L 127.58778625954199 201.01367272727273L 129.93893129770993 174.7829818181818L 132.29007633587787 195.76072727272728L 134.6412213740458 204.0032L 136.99236641221376 203.7309090909091L 139.3435114503817 197.87665454545453L 141.6946564885496 202.60770909090908L 144.04580152671755 202.6928L 146.3969465648855 197.55898181818182L 148.74809160305344 186.5141818181818L 151.09923664122138 199.26647272727274L 153.4503816793893 199.5728L 155.80152671755724 193.4802909090909L 158.15267175572518 199.10763636363635L 160.50381679389312 201.54690909090908L 162.85496183206106 201.5696L 165.206106870229 195.06865454545454L 167.55725190839695 201.70007272727273L 169.9083969465649 197.2866909090909L 172.25954198473283 172.35505454545455L 174.61068702290078 203.20901818181818L 176.96183206106872 199.6749090909091L 179.31297709923663 193.12858181818183L 181.66412213740458 196.8896L 184.01526717557252 199.78836363636364L 186.36641221374043 198.82967272727274L 188.7175572519084 204.1336727272727L 191.06870229007635 202.57934545454546L 193.4198473282443 198.9261090909091L 195.7709923664122 206L 198.12213740458014 204.128L 200.47328244274811 192.1245090909091L 202.82442748091603 206L 205.17557251908397 206L 207.5267175572519 206L 209.87786259541983 206L 212.22900763358777 197.37178181818183L 214.58015267175574 199.57847272727273L 216.93129770992365 188.9024L 219.2824427480916 195.02894545454546L 221.63358778625954 191.20552727272727L 223.98473282442748 166.8128L 226.33587786259542 203.8386909090909L 228.68702290076337 198.09221818181817L 231.0381679389313 201.64334545454545L 233.38931297709922 202.2957090909091L 235.74045801526717 203.22036363636363L 238.0916030534351 200.66763636363635L 240.44274809160305 191.51185454545455L 242.793893129771 189.18603636363636L 245.14503816793894 203.86705454545455L 247.49618320610688 197.56465454545454L 249.8473282442748 187.32538181818182L 252.19847328244276 201.2349090909091L 254.5496183206107 200.44639999999998L 256.9007633587786 201.4618181818182L 259.25190839694653 201.09876363636363L 261.6030534351145 201.17818181818183L 263.9541984732824 193.02647272727273L 266.30534351145036 198.8069818181818L 268.6564885496183 203.39054545454545L 271.00763358778624 200.30458181818182L 273.3587786259542 198.35883636363636L 275.70992366412213 193.3101090909091L 278.0610687022901 200.56552727272728L 280.412213740458 203.03883636363636L 282.76335877862596 197.22996363636364L 285.1145038167939 201.95534545454547L 287.46564885496184 196.016L 289.8167938931298 202.30705454545455L 292.1679389312977 199.91316363636363L 294.51908396946567 194.62050909090908L 296.8702290076336 201.29163636363637L 299.22137404580155 202.98778181818182L 301.5725190839695 203.5437090909091L 303.92366412213744 200.60523636363638L 306.2748091603053 195.5621818181818L 308.62595419847327 203.24305454545456L 310.97709923664127 200.15709090909093L 313.32824427480915 198.46661818181818L 315.6793893129771 201.70007272727273L 318.03053435114504 200.70734545454545L 320.381679389313 200.4293818181818L 322.73282442748086 201.76814545454545L 325.08396946564886 204.6442181818182L 327.4351145038168 206L 329.78625954198475 196.35636363636365L 332.1374045801527 199.21541818181817L 334.4885496183206 156.87418181818182L 336.8396946564886 165.1506909090909L 339.1908396946565 204.1733818181818L 341.5419847328244 202.17658181818183L 343.8931297709924 199.31185454545454L 346.2442748091603 198.7842909090909L 348.59541984732823 202.6757818181818L 350.94656488549623 202.8573090909091L 353.2977099236641 196.1861818181818L 355.64885496183206 199.64654545454545L 358 198.2056727272727L 360.35114503816794 201.2178909090909L 362.7022900763359 201.79083636363637L 365.0534351145038 201.90429090909092L 367.40458015267177 200.1968L 369.75572519083966 195.17076363636363L 372.10687022900765 206L 374.45801526717554 206L 376.8091603053435 206L 379.1603053435115 191.4834909090909L 381.51145038167937 197.79723636363636L 383.8625954198473 198.85236363636363L 386.21374045801525 199.76L 388.5648854961832 200.03796363636363L 390.9160305343512 200.76407272727272L 393.2671755725191 201.80785454545455L 395.618320610687 191.63098181818182L 397.96946564885496 194.41061818181817L 400.3206106870229 199.88479999999998L 402.67175572519085 152.63098181818182L 405.0229007633588 197.04843636363637L 407.37404580152673 194.4730181818182L 409.7251908396946 155.90414545454547L 412.0763358778626 91.60945454545454L 414.42748091603056 104.5376L 416.77862595419845 151.17876363636364L 419.12977099236645 185.1981090909091L 421.48091603053433 142.76610909090908L 423.8320610687023 125.0672L 426.1832061068702 123.74545454545455L 428.53435114503816 157.99738181818182L 430.8854961832061 53.56814545454546L 433.23664122137404 50.78850909090909L 435.587786259542 100.02210909090908L 437.9389312977099 156.2445090909091L 440.29007633587787 180.31956363636363L 442.6412213740458 192.43650909090908L 444.99236641221376 193.63912727272728L 447.3435114503817 193.3328L 449.6946564885496 192.11316363636365L 452.0458015267176 197.93338181818183L 454.3969465648855 191.5629090909091L 456.7480916030534 198.7672727272727L 459.0992366412214 199.3005090909091L 461.4503816793893 201.64901818181818L 463.80152671755724 200.58821818181818L 466.1526717557252 202.43752727272727L 468.5038167938931 200.73003636363637L 470.85496183206106 189.7703272727273L 473.206106870229 203.17498181818183L 475.55725190839695 200.48610909090908L 477.90839694656484 185.1810909090909L 480.25954198473283 187.88698181818182L 482.6106870229008 191.01832727272728L 484.9618320610687 192.31738181818181L 487.31297709923666 177.09745454545455L 489.66412213740455 167.91330909090908L 492.01526717557255 179.30981818181817L 494.3664122137405 186.49716363636364L 496.7175572519084 150.34487272727273L 499.0687022900764 184.27345454545454L 501.41984732824426 199.5104L 503.7709923664122 161.24785454545454L 506.1221374045802 155.49003636363636L 508.4732824427481 176.96130909090908L 510.82442748091603 190.30923636363636L 513.175572519084 193.50865454545453L 515.5267175572519 201.72843636363638L 517.8778625954199 185.22647272727272L 520.2290076335878 192.03374545454545L 522.5801526717557 192.66909090909093L 524.9312977099237 180.18341818181818L 527.2824427480916 194.5013818181818L 529.6335877862596 194.6829090909091L 531.9847328244275 201.85323636363637L 534.3358778625955 196.2032L 536.6870229007634 204.49105454545455L 539.0381679389313 191.55723636363638L 541.3893129770993 180.36494545454545L 543.7404580152672 193.02647272727273L 546.0916030534352 186.20785454545455L 548.4427480916031 191.72741818181817L 550.793893129771 191.4834909090909L 553.145038167939 196.63432727272726L 555.4961832061068 200.7810909090909L 557.8473282442749 176.26923636363637L 560.1984732824428 165.78036363636363L 562.5496183206106 181.82850909090908L 564.9007633587787 160.6976L 567.2519083969465 163.93105454545454L 569.6030534351145 182.10647272727272L 571.9541984732825 130.808L 574.3053435114504 190.49643636363635L 576.6564885496183 202.0914909090909L 579.0076335877862 184.09192727272728L 581.3587786259542 197.50225454545455L 583.7099236641221 187.54094545454547L 586.0610687022901 192.95272727272726L 588.412213740458 201.88727272727272L 590.763358778626 184.33585454545454L 593.1145038167939 183.04814545454545L 595.4656488549617 182.36741818181818L 597.8167938931298 182.54327272727272L 600.1679389312977 186.38938181818182L 602.5190839694656 174.3858909090909L 604.8702290076336 183.1786181818182L 607.2213740458016 183.5133090909091L 609.5725190839695 184.60247272727273L 611.9236641221374 186.968L 614.2748091603054 170.00087272727274L 616.6259541984733 167.8338909090909L 618.9770992366412 203.32247272727273L 621.3282442748092 206L 623.6793893129772 128.43112727272728L 626.030534351145 183.2637090909091L 628.381679389313 156.8685090909091L 630.732824427481 183.15592727272727L 633.0839694656488 183.2013090909091L 635.4351145038167 182.25963636363636L 637.7862595419848 170.18807272727273L 640.1374045801526 186.86589090909092L 642.4885496183206 183.77425454545454L 644.8396946564886 186.29861818181817L 647.1908396946565 184.17134545454545L 649.5419847328244 184.9655272727273L 651.8931297709925 178.1696L 654.2442748091603 180.70530909090908L 656.5954198473282 170.80072727272727L 658.9465648854962 177.99374545454546L 661.2977099236641 175.99127272727273L 663.6488549618321 173.75621818181818L 666 175.45803636363638L 668.3511450381679 196.91796363636365L 670.7022900763359 150.30516363636363L 673.0534351145038 167.34036363636363L 675.4045801526718 174.52203636363637L 677.7557251908397 132.05599999999998L 680.1068702290077 144.8309818181818L 682.4580152671755 173.60872727272726L 684.8091603053435 151.91054545454546L 687.1603053435115 194.03621818181819L 689.5114503816793 160.59549090909093L 691.8625954198474 206L 694.2137404580153 153.43650909090908L 696.5648854961831 181.01163636363637L 698.9160305343511 181.6413090909091L 701.2671755725191 182.49221818181817L 703.618320610687 183.08785454545455L 705.9694656488549 206L 708.320610687023 151.86516363636363L 710.6717557251908 172.45716363636365L 713.0229007633587 169.20669090909092L 715.3740458015268 178.22065454545455L 717.7251908396946 175.54312727272728L 720.0763358778626 177.61367272727273L 722.4274809160305 181.0173090909091L 724.7786259541984 176.80814545454547L 727.1297709923664 167.8962909090909L 729.4809160305343 167.1248L 731.8320610687024 176.62094545454545L 734.1832061068702 158.63272727272727L 736.5343511450382 151.3602909090909L 738.8854961832061 173.35345454545455L 741.236641221374 206L 743.587786259542 206L 745.9389312977099 206L 748.2900763358779 206L 750.6412213740458 206L 752.9923664122138 206L 755.3435114503817 206L 757.6946564885496 206L 760.0458015267176 206L 762.3969465648854 206L 764.7480916030535 206L 767.0992366412214 206L 769.4503816793892 206L 771.8015267175573 206L 774.1526717557252 206L 776.5038167938931 206L 778.8549618320611 206L 781.2061068702291 206L 783.5572519083969 206L 785.9083969465648 206L 788.2595419847329 206L 790.6106870229007 206L 792.9618320610687 206L 795.3129770992367 206L 797.6641221374045 206L 800.0152671755725 206L 802.3664122137404 206L 804.7175572519084 206L 807.0687022900763 206L 809.4198473282443 206L 811.7709923664122 206L 814.1221374045801 206L 816.4732824427481 206L 818.824427480916 206L 821.175572519084 206L 823.5267175572519 206L 825.8778625954199 206L 828.2290076335878 206L 830.5801526717557 206L 832.9312977099237 206L 835.2824427480916 206L 837.6335877862596 206L 839.9847328244275 206L 842.3358778625953 206L 844.6870229007634 206L 847.0381679389313 206L 849.3893129770992 206L 851.7404580152672 206L 854.0916030534352 206L 856.442748091603 206L 858.793893129771 206L 861.145038167939 206L 863.4961832061068 206L 865.8473282442748 206L 868.1984732824428 206L 870.5496183206106 206L 872.9007633587786 206L 875.2519083969466 206L 877.6030534351145 206L 879.9541984732824 206L 882.3053435114504 206L 884.6564885496183 206L 887.0076335877862 206L 889.3587786259542 206L 891.7099236641221 206L 894.0610687022901 206L 896.412213740458 206L 898.763358778626 206L 901.1145038167939 206L 903.4656488549618 206L 905.8167938931297 206L 908.1679389312977 206L 910.5190839694657 206L 912.8702290076335 206L 915.2213740458016 206L 917.5725190839695 206L 919.9236641221374 206L 922.2748091603054 206L 924.6259541984733 206L 926.9770992366413 206L 929.3282442748091 206L 931.6793893129772 206L 934.0305343511451 206L 936.3816793893129 206L 938.732824427481 206L 941.0839694656489 206L 943.4351145038167 206L 945.7862595419847 206L 948.1374045801527 206L 950.4885496183206 206L 952.8396946564885 206L 955.1908396946566 206L 957.5419847328244 206L 959.8931297709923 206L 962.2442748091604 206L 964.5954198473282 206L 966.9465648854962 206L 969.2977099236641 206L 971.6488549618321 206L 974 206" stroke-width="2.0" fill="none" />
    
        
        
        <text x="45.0" font-family="-apple-system, system-ui, BlinkMacSystemFont, Roboto" y="50.0" dominant-baseline="middle" text-anchor="end" font-size="12" fill="#24292f">27500.0</text>
        
            
            <path stroke="#74838f" stroke-dasharray="10 6" stroke-width="0.5"  d="M 50.0 50.0 L 974.0 50.0" />
        
    
        
        
        <text x="45.0" font-family="-apple-system, system-ui, BlinkMacSystemFont, Roboto" y="81.2" dominant-baseline="middle" text-anchor="end" font-size="12" fill="#24292f">22000.0</text>
        
            
            
            <path stroke="#74838f" stroke-dasharray="10 6" stroke-width="0.5"  d="M 50.0 81.2 L 974.0 81.2" />
        
    
        
        
        <text x="45.0" font-family="-apple-system, system-ui, BlinkMacSystemFont, Roboto" y="112.4" dominant-baseline="middle" text-anchor="end" font-size="12" fill="#24292f">16500.0</text>
        
            
            
            <path stroke="#74838f" stroke-dasharray="10 6" stroke-width="0.5"  d="M 50.0 112.4 L 974.0 112.4" />
        
    
        
        
        <text x="45.0" font-family="-apple-system, system-ui, BlinkMacSystemFont, Roboto" y="143.6" dominant-baseline="middle" text-anchor="end" font-size="12" fill="#24292f">11000.0</text>
        
            
            
            <path stroke="#74838f" stroke-dasharray="10 6" stroke-width="0.5"  d="M 50.0 143.6 L 974.0 143.6" />
        
    
        
        
        <text x="45.0" font-family="-apple-system, system-ui, BlinkMacSystemFont, Roboto" y="174.8" dominant-baseline="middle" text-anchor="end" font-size="12" fill="#24292f">5500.0</text>
        
            
            
            <path stroke="#74838f" stroke-dasharray="10 6" stroke-width="0.5"  d="M 50.0 174.8 L 974.0 174.8" />
        
    
        
        
        <text x="45.0" font-family="-apple-system, system-ui, BlinkMacSystemFont, Roboto" y="206.0" dominant-baseline="middle" text-anchor="end" font-size="12" fill="#24292f">0.0</text>
        
    
    
        
        <path stroke="#74838f"  stroke-width="2.0"  d="M 87.61832061068702 206.0 L 87.61832061068702 214.0" />
        <text x="87.61832061068702" font-family="-apple-system, system-ui, BlinkMacSystemFont, Roboto" y="216.0" dominant-baseline="hanging" text-anchor="middle" font-size="12" fill="#24292f">Mar 2022</text>
    
        
        <path stroke="#74838f"  stroke-width="2.0"  d="M 160.50381679389312 206.0 L 160.50381679389312 214.0" />
        <text x="160.50381679389312" font-family="-apple-system, system-ui, BlinkMacSystemFont, Roboto" y="216.0" dominant-baseline="hanging" text-anchor="middle" font-size="12" fill="#24292f">Apr 2022</text>
    
        
        <path stroke="#74838f"  stroke-width="2.0"  d="M 231.0381679389313 206.0 L 231.0381679389313 214.0" />
        <text x="231.0381679389313" font-family="-apple-system, system-ui, BlinkMacSystemFont, Roboto" y="216.0" dominant-baseline="hanging" text-anchor="middle" font-size="12" fill="#24292f">May 2022</text>
    
        
        <path stroke="#74838f"  stroke-width="2.0"  d="M 303.92366412213744 206.0 L 303.92366412213744 214.0" />
        <text x="303.92366412213744" font-family="-apple-system, system-ui, BlinkMacSystemFont, Roboto" y="216.0" dominant-baseline="hanging" text-anchor="middle" font-size="12" fill="#24292f">Jun 2022</text>
    
        
        <path stroke="#74838f"  stroke-width="2.0"  d="M 374.45801526717554 206.0 L 374.45801526717554 214.0" />
        <text x="374.45801526717554" font-family="-apple-system, system-ui, BlinkMacSystemFont, Roboto" y="216.0" dominant-baseline="hanging" text-anchor="middle" font-size="12" fill="#24292f">Jul 2022</text>
    
        
        <path stroke="#74838f"  stroke-width="2.0"  d="M 447.3435114503817 206.0 L 447.3435114503817 214.0" />
        <text x="447.3435114503817" font-family="-apple-system, system-ui, BlinkMacSystemFont, Roboto" y="216.0" dominant-baseline="hanging" text-anchor="middle" font-size="12" fill="#24292f">Aug 2022</text>
    
        
        <path stroke="#74838f"  stroke-width="2.0"  d="M 520.2290076335878 206.0 L 520.2290076335878 214.0" />
        <text x="520.2290076335878" font-family="-apple-system, system-ui, BlinkMacSystemFont, Roboto" y="216.0" dominant-baseline="hanging" text-anchor="middle" font-size="12" fill="#24292f">Sep 2022</text>
    
        
        <path stroke="#74838f"  stroke-width="2.0"  d="M 590.763358778626 206.0 L 590.763358778626 214.0" />
        <text x="590.763358778626" font-family="-apple-system, system-ui, BlinkMacSystemFont, Roboto" y="216.0" dominant-baseline="hanging" text-anchor="middle" font-size="12" fill="#24292f">Oct 2022</text>
    
        
        <path stroke="#74838f"  stroke-width="2.0"  d="M 663.6488549618321 206.0 L 663.6488549618321 214.0" />
        <text x="663.6488549618321" font-family="-apple-system, system-ui, BlinkMacSystemFont, Roboto" y="216.0" dominant-baseline="hanging" text-anchor="middle" font-size="12" fill="#24292f">Nov 2022</text>
    
        
        <path stroke="#74838f"  stroke-width="2.0"  d="M 734.1832061068702 206.0 L 734.1832061068702 214.0" />
        <text x="734.1832061068702" font-family="-apple-system, system-ui, BlinkMacSystemFont, Roboto" y="216.0" dominant-baseline="hanging" text-anchor="middle" font-size="12" fill="#24292f">Dec 2022</text>
    
        
        <path stroke="#74838f"  stroke-width="2.0"  d="M 807.0687022900763 206.0 L 807.0687022900763 214.0" />
        <text x="807.0687022900763" font-family="-apple-system, system-ui, BlinkMacSystemFont, Roboto" y="216.0" dominant-baseline="hanging" text-anchor="middle" font-size="12" fill="#24292f">Jan 2023</text>
    
        
        <path stroke="#74838f"  stroke-width="2.0"  d="M 879.9541984732824 206.0 L 879.9541984732824 214.0" />
        <text x="879.9541984732824" font-family="-apple-system, system-ui, BlinkMacSystemFont, Roboto" y="216.0" dominant-baseline="hanging" text-anchor="middle" font-size="12" fill="#24292f">Feb 2023</text>
    
        
        <path stroke="#74838f"  stroke-width="2.0"  d="M 945.7862595419847 206.0 L 945.7862595419847 214.0" />
        <text x="945.7862595419847" font-family="-apple-system, system-ui, BlinkMacSystemFont, Roboto" y="216.0" dominant-baseline="hanging" text-anchor="middle" font-size="12" fill="#24292f">Mar 2023</text>
    
    <path stroke="#74838f"   stroke-linejoin="round" stroke-width="2.0" d="M 50.0 216.0 L 50.0 206.0 L 974.0 206.0 L 974.0 216.0"  fill="none" />
    <text x="512.0" y="25.0" font-family="-apple-system, system-ui, BlinkMacSystemFont, Roboto" dominant-baseline="middle" text-anchor="middle" font-size="18" fill="#24292f">Total daily screen name changes</text>
</svg>
