<?xml version="1.0" standalone="no"?>
<svg width="1024.0" height="256.0"  viewBox="0 0 1024.0 256.0" preserveAspectRatio="xMidYMid meet" xmlns="http://www.w3.org/2000/svg">
    <path stroke="#3498db" stroke-linejoin="round" d="M 50.0 203.3394909090909 L 50 203.3394909090909L 53.01960784313725 202.32974545454545L 56.03921568627451 196.86690909090908L 59.05882352941177 195.94792727272727L 62.07843137254902 202.14254545454546L 65.09803921568627 197.35476363636363L 68.11764705882354 191.76145454545454L 71.13725490196079 179.96218181818182L 74.15686274509804 204.09396363636364L 77.17647058823529 194.17236363636363L 80.19607843137256 192.61803636363635L 83.2156862745098 195.1253818181818L 86.23529411764706 193.92843636363637L 89.25490196078431 182.2482909090909L 92.27450980392157 200.86618181818181L 95.29411764705883 201.45614545454546L 98.31372549019608 178.89003636363637L 101.33333333333333 197.33774545454546L 104.35294117647058 198.50065454545455L 107.37254901960785 200.41803636363636L 110.39215686274511 201.18385454545455L 113.41176470588235 202.26734545454545L 116.4313725490196 195.09134545454546L 119.45098039215686 198.08087272727272L 122.47058823529412 183.38850909090908L 125.49019607843137 197.47389090909093L 128.50980392156862 202.01774545454546L 131.52941176470588 194.66021818181818L 134.54901960784315 200.75272727272727L 137.5686274509804 200.00392727272728L 140.58823529411765 201.97236363636364L 143.60784313725492 204.2754909090909L 146.62745098039215 201.74545454545455L 149.64705882352942 201.01367272727273L 152.66666666666666 174.7829818181818L 155.68627450980392 195.76072727272728L 158.70588235294116 204.0032L 161.72549019607843 203.7309090909091L 164.7450980392157 197.87665454545453L 167.76470588235293 202.60770909090908L 170.78431372549022 202.6928L 173.80392156862746 197.55898181818182L 176.8235294117647 186.5141818181818L 179.84313725490196 199.26647272727274L 182.8627450980392 199.5728L 185.88235294117646 193.4802909090909L 188.90196078431373 199.10763636363635L 191.921568627451 201.54690909090908L 194.94117647058823 201.5696L 197.96078431372547 195.06865454545454L 200.98039215686273 201.70007272727273L 204 197.2866909090909L 207.01960784313727 172.35505454545455L 210.0392156862745 203.20901818181818L 213.05882352941177 199.6749090909091L 216.07843137254903 193.12858181818183L 219.09803921568627 196.8896L 222.11764705882354 199.78836363636364L 225.13725490196077 198.82967272727274L 228.15686274509804 204.1336727272727L 231.1764705882353 202.57934545454546L 234.19607843137257 198.9261090909091L 237.2156862745098 206L 240.23529411764704 204.128L 243.2549019607843 192.1245090909091L 246.27450980392157 206L 249.29411764705884 206L 252.31372549019608 206L 255.33333333333331 206L 258.3529411764706 197.37178181818183L 261.37254901960785 199.57847272727273L 264.3921568627451 188.9024L 267.4117647058823 195.02894545454546L 270.4313725490196 191.20552727272727L 273.45098039215685 166.8128L 276.47058823529414 203.8386909090909L 279.4901960784314 198.09221818181817L 282.5098039215686 201.64334545454545L 285.52941176470586 202.2957090909091L 288.54901960784315 203.22036363636363L 291.56862745098044 200.66763636363635L 294.5882352941177 191.51185454545455L 297.6078431372549 189.18603636363636L 300.62745098039215 203.86705454545455L 303.6470588235294 197.56465454545454L 306.6666666666667 187.32538181818182L 309.6862745098039 201.2349090909091L 312.70588235294116 200.44639999999998L 315.7254901960784 201.4618181818182L 318.7450980392157 201.09876363636363L 321.7647058823529 201.17818181818183L 324.7843137254902 193.02647272727273L 327.80392156862746 198.8069818181818L 330.8235294117647 203.39054545454545L 333.843137254902 200.30458181818182L 336.8627450980392 198.35883636363636L 339.88235294117646 193.3101090909091L 342.9019607843137 200.56552727272728L 345.92156862745094 203.03883636363636L 348.94117647058823 197.22996363636364L 351.96078431372547 201.95534545454547L 354.98039215686276 196.016L 358 202.30705454545455L 361.0196078431373 199.91316363636363L 364.03921568627453 194.62050909090908L 367.05882352941177 201.29163636363637L 370.078431372549 202.98778181818182L 373.09803921568624 203.5437090909091L 376.11764705882354 200.60523636363638L 379.1372549019608 195.5621818181818L 382.15686274509807 203.24305454545456L 385.1764705882353 200.15709090909093L 388.19607843137254 198.46661818181818L 391.21568627450984 201.70007272727273L 394.2352941176471 200.70734545454545L 397.2549019607843 200.4293818181818L 400.27450980392155 201.76814545454545L 403.2941176470588 204.6442181818182L 406.3137254901961 206L 409.3333333333333 196.35636363636365L 412.3529411764706 199.21541818181817L 415.37254901960785 156.87418181818182L 418.39215686274514 165.1506909090909L 421.4117647058824 204.1733818181818L 424.4313725490196 202.17658181818183L 427.45098039215685 199.31185454545454L 430.4705882352941 198.7842909090909L 433.4901960784314 202.6757818181818L 436.5098039215686 202.8573090909091L 439.52941176470586 196.1861818181818L 442.54901960784315 199.64654545454545L 445.5686274509804 198.2056727272727L 448.5882352941177 201.2178909090909L 451.6078431372549 201.79083636363637L 454.62745098039215 201.90429090909092L 457.6470588235294 200.1968L 460.66666666666663 195.17076363636363L 463.6862745098039 206L 466.70588235294116 206L 469.72549019607845 206L 472.7450980392157 191.4834909090909L 475.7647058823529 197.79723636363636L 478.7843137254902 198.85236363636363L 481.80392156862746 199.76L 484.8235294117647 200.03796363636363L 487.84313725490193 200.76407272727272L 490.8627450980392 201.80785454545455L 493.88235294117646 191.63098181818182L 496.9019607843137 194.41061818181817L 499.921568627451 199.88479999999998L 502.94117647058823 152.63098181818182L 505.9607843137255 197.04843636363637L 508.98039215686276 194.4730181818182L 512 155.90414545454547L 515.0196078431372 91.60945454545454L 518.0392156862745 104.5376L 521.0588235294117 151.17876363636364L 524.078431372549 185.1981090909091L 527.0980392156863 142.76610909090908L 530.1176470588236 125.0672L 533.1372549019609 123.74545454545455L 536.1568627450981 157.99738181818182L 539.1764705882354 53.56814545454546L 542.1960784313726 50.78850909090909L 545.2156862745098 100.02210909090908L 548.2352941176471 156.2445090909091L 551.2549019607843 180.31956363636363L 554.2745098039215 192.43650909090908L 557.2941176470588 193.63912727272728L 560.3137254901961 193.3328L 563.3333333333334 192.11316363636365L 566.3529411764706 197.93338181818183L 569.3725490196078 191.5629090909091L 572.3921568627451 198.7672727272727L 575.4117647058823 199.3005090909091L 578.4313725490196 201.64901818181818L 581.4509803921568 200.58821818181818L 584.4705882352941 202.43752727272727L 587.4901960784314 200.73003636363637L 590.5098039215686 189.7703272727273L 593.5294117647059 203.17498181818183L 596.5490196078431 200.48610909090908L 599.5686274509804 185.1810909090909L 602.5882352941177 187.88698181818182L 605.6078431372549 191.01832727272728L 608.6274509803922 192.31738181818181L 611.6470588235294 177.09745454545455L 614.6666666666667 167.91330909090908L 617.686274509804 179.30981818181817L 620.7058823529412 186.49716363636364L 623.7254901960785 150.34487272727273L 626.7450980392157 184.27345454545454L 629.7647058823529 199.5104L 632.7843137254902 161.24785454545454L 635.8039215686274 155.49003636363636L 638.8235294117646 176.96130909090908L 641.8431372549019 190.30923636363636L 644.8627450980392 193.50865454545453L 647.8823529411765 201.72843636363638L 650.9019607843137 185.22647272727272L 653.9215686274509 192.03374545454545L 656.9411764705883 192.66909090909093L 659.9607843137255 180.18341818181818L 662.9803921568628 194.5013818181818L 666 194.6829090909091L 669.0196078431372 201.85323636363637L 672.0392156862746 196.2032L 675.0588235294118 204.49105454545455L 678.0784313725491 191.55723636363638L 681.0980392156863 180.36494545454545L 684.1176470588235 193.02647272727273L 687.1372549019608 186.20785454545455L 690.156862745098 191.72741818181817L 693.1764705882352 191.4834909090909L 696.1960784313725 196.63432727272726L 699.2156862745097 200.7810909090909L 702.2352941176471 176.26923636363637L 705.2549019607843 165.78036363636363L 708.2745098039215 181.82850909090908L 711.2941176470588 160.6976L 714.3137254901961 163.93105454545454L 717.3333333333334 182.10647272727272L 720.3529411764706 130.808L 723.3725490196078 190.49643636363635L 726.3921568627451 202.0914909090909L 729.4117647058824 184.09192727272728L 732.4313725490197 197.50225454545455L 735.4509803921569 187.54094545454547L 738.4705882352941 192.95272727272726L 741.4901960784314 201.88727272727272L 744.5098039215686 184.33585454545454L 747.5294117647059 183.04814545454545L 750.5490196078431 182.36741818181818L 753.5686274509803 182.54327272727272L 756.5882352941176 186.38938181818182L 759.6078431372549 174.3858909090909L 762.6274509803922 183.1786181818182L 765.6470588235294 183.5133090909091L 768.6666666666666 184.60247272727273L 771.6862745098039 186.968L 774.7058823529412 170.00087272727274L 777.7254901960785 167.8338909090909L 780.7450980392157 203.32247272727273L 783.7647058823529 206L 786.7843137254903 128.43112727272728L 789.8039215686275 183.2637090909091L 792.8235294117648 156.8685090909091L 795.843137254902 183.15592727272727L 798.8627450980392 183.2013090909091L 801.8823529411765 182.25963636363636L 804.9019607843137 170.18807272727273L 807.9215686274509 186.86589090909092L 810.9411764705882 183.77425454545454L 813.9607843137254 186.29861818181817L 816.9803921568628 184.17134545454545L 820 184.9655272727273L 823.0196078431372 178.1696L 826.0392156862745 180.70530909090908L 829.0588235294117 170.80072727272727L 832.0784313725491 177.99374545454546L 835.0980392156863 175.99127272727273L 838.1176470588235 173.75621818181818L 841.1372549019608 175.45803636363638L 844.1568627450981 196.91796363636365L 847.1764705882354 150.30516363636363L 850.1960784313726 167.34036363636363L 853.2156862745098 174.52203636363637L 856.2352941176471 132.05599999999998L 859.2549019607843 144.8309818181818L 862.2745098039215 173.60872727272726L 865.2941176470588 151.91054545454546L 868.313725490196 194.03621818181819L 871.3333333333333 160.59549090909093L 874.3529411764706 206L 877.3725490196078 153.43650909090908L 880.3921568627451 181.01163636363637L 883.4117647058823 181.6413090909091L 886.4313725490196 182.49221818181817L 889.4509803921569 183.08785454545455L 892.4705882352941 206L 895.4901960784314 151.86516363636363L 898.5098039215686 172.45716363636365L 901.5294117647059 169.20669090909092L 904.5490196078432 178.22065454545455L 907.5686274509804 175.54312727272728L 910.5882352941177 177.61367272727273L 913.6078431372549 181.0173090909091L 916.6274509803922 176.80814545454547L 919.6470588235294 167.8962909090909L 922.6666666666666 167.1248L 925.6862745098039 176.62094545454545L 928.7058823529411 158.63272727272727L 931.7254901960785 151.3602909090909L 934.7450980392157 173.35345454545455L 937.7647058823529 206L 940.7843137254902 206L 943.8039215686274 206L 946.8235294117648 206L 949.843137254902 206L 952.8627450980392 206L 955.8823529411765 206L 958.9019607843137 206L 961.921568627451 206L 964.9411764705883 206L 967.9607843137255 206L 970.9803921568628 206L 974 206" stroke-width="2.0" fill="none" />
    
        
        
        <text x="45.0" font-family="-apple-system, system-ui, BlinkMacSystemFont, Roboto" y="50.0" dominant-baseline="middle" text-anchor="end" font-size="12" fill="#24292f">27500.0</text>
        
            
            <path stroke="#74838f" stroke-dasharray="10 6" stroke-width="0.5"  d="M 50.0 50.0 L 974.0 50.0" />
        
    
        
        
        <text x="45.0" font-family="-apple-system, system-ui, BlinkMacSystemFont, Roboto" y="81.2" dominant-baseline="middle" text-anchor="end" font-size="12" fill="#24292f">22000.0</text>
        
            
            
            <path stroke="#74838f" stroke-dasharray="10 6" stroke-width="0.5"  d="M 50.0 81.2 L 974.0 81.2" />
        
    
        
        
        <text x="45.0" font-family="-apple-system, system-ui, BlinkMacSystemFont, Roboto" y="112.4" dominant-baseline="middle" text-anchor="end" font-size="12" fill="#24292f">16500.0</text>
        
            
            
            <path stroke="#74838f" stroke-dasharray="10 6" stroke-width="0.5"  d="M 50.0 112.4 L 974.0 112.4" />
        
    
        
        
        <text x="45.0" font-family="-apple-system, system-ui, BlinkMacSystemFont, Roboto" y="143.6" dominant-baseline="middle" text-anchor="end" font-size="12" fill="#24292f">11000.0</text>
        
            
            
            <path stroke="#74838f" stroke-dasharray="10 6" stroke-width="0.5"  d="M 50.0 143.6 L 974.0 143.6" />
        
    
        
        
        <text x="45.0" font-family="-apple-system, system-ui, BlinkMacSystemFont, Roboto" y="174.8" dominant-baseline="middle" text-anchor="end" font-size="12" fill="#24292f">5500.0</text>
        
            
            
            <path stroke="#74838f" stroke-dasharray="10 6" stroke-width="0.5"  d="M 50.0 174.8 L 974.0 174.8" />
        
    
        
        
        <text x="45.0" font-family="-apple-system, system-ui, BlinkMacSystemFont, Roboto" y="206.0" dominant-baseline="middle" text-anchor="end" font-size="12" fill="#24292f">0.0</text>
        
    
    
        
        <path stroke="#74838f"  stroke-width="2.0"  d="M 98.31372549019608 206.0 L 98.31372549019608 214.0" />
        <text x="98.31372549019608" font-family="-apple-system, system-ui, BlinkMacSystemFont, Roboto" y="216.0" dominant-baseline="hanging" text-anchor="middle" font-size="12" fill="#24292f">Mar 2022</text>
    
        
        <path stroke="#74838f"  stroke-width="2.0"  d="M 191.921568627451 206.0 L 191.921568627451 214.0" />
        <text x="191.921568627451" font-family="-apple-system, system-ui, BlinkMacSystemFont, Roboto" y="216.0" dominant-baseline="hanging" text-anchor="middle" font-size="12" fill="#24292f">Apr 2022</text>
    
        
        <path stroke="#74838f"  stroke-width="2.0"  d="M 282.5098039215686 206.0 L 282.5098039215686 214.0" />
        <text x="282.5098039215686" font-family="-apple-system, system-ui, BlinkMacSystemFont, Roboto" y="216.0" dominant-baseline="hanging" text-anchor="middle" font-size="12" fill="#24292f">May 2022</text>
    
        
        <path stroke="#74838f"  stroke-width="2.0"  d="M 376.11764705882354 206.0 L 376.11764705882354 214.0" />
        <text x="376.11764705882354" font-family="-apple-system, system-ui, BlinkMacSystemFont, Roboto" y="216.0" dominant-baseline="hanging" text-anchor="middle" font-size="12" fill="#24292f">Jun 2022</text>
    
        
        <path stroke="#74838f"  stroke-width="2.0"  d="M 466.70588235294116 206.0 L 466.70588235294116 214.0" />
        <text x="466.70588235294116" font-family="-apple-system, system-ui, BlinkMacSystemFont, Roboto" y="216.0" dominant-baseline="hanging" text-anchor="middle" font-size="12" fill="#24292f">Jul 2022</text>
    
        
        <path stroke="#74838f"  stroke-width="2.0"  d="M 560.3137254901961 206.0 L 560.3137254901961 214.0" />
        <text x="560.3137254901961" font-family="-apple-system, system-ui, BlinkMacSystemFont, Roboto" y="216.0" dominant-baseline="hanging" text-anchor="middle" font-size="12" fill="#24292f">Aug 2022</text>
    
        
        <path stroke="#74838f"  stroke-width="2.0"  d="M 653.9215686274509 206.0 L 653.9215686274509 214.0" />
        <text x="653.9215686274509" font-family="-apple-system, system-ui, BlinkMacSystemFont, Roboto" y="216.0" dominant-baseline="hanging" text-anchor="middle" font-size="12" fill="#24292f">Sep 2022</text>
    
        
        <path stroke="#74838f"  stroke-width="2.0"  d="M 744.5098039215686 206.0 L 744.5098039215686 214.0" />
        <text x="744.5098039215686" font-family="-apple-system, system-ui, BlinkMacSystemFont, Roboto" y="216.0" dominant-baseline="hanging" text-anchor="middle" font-size="12" fill="#24292f">Oct 2022</text>
    
        
        <path stroke="#74838f"  stroke-width="2.0"  d="M 838.1176470588235 206.0 L 838.1176470588235 214.0" />
        <text x="838.1176470588235" font-family="-apple-system, system-ui, BlinkMacSystemFont, Roboto" y="216.0" dominant-baseline="hanging" text-anchor="middle" font-size="12" fill="#24292f">Nov 2022</text>
    
        
        <path stroke="#74838f"  stroke-width="2.0"  d="M 928.7058823529411 206.0 L 928.7058823529411 214.0" />
        <text x="928.7058823529411" font-family="-apple-system, system-ui, BlinkMacSystemFont, Roboto" y="216.0" dominant-baseline="hanging" text-anchor="middle" font-size="12" fill="#24292f">Dec 2022</text>
    
    <path stroke="#74838f"   stroke-linejoin="round" stroke-width="2.0" d="M 50.0 216.0 L 50.0 206.0 L 974.0 206.0 L 974.0 216.0"  fill="none" />
    <text x="512.0" y="25.0" font-family="-apple-system, system-ui, BlinkMacSystemFont, Roboto" dominant-baseline="middle" text-anchor="middle" font-size="18" fill="#24292f">Total daily screen name changes</text>
</svg>
