<?xml version="1.0" standalone="no"?>
<svg width="1024.0" height="256.0"  viewBox="0 0 1024.0 256.0" preserveAspectRatio="xMidYMid meet" xmlns="http://www.w3.org/2000/svg">
    <path stroke="#3498db" stroke-linejoin="round" d="M 50.0 203.3394909090909 L 50 203.3394909090909L 52.588235294117645 202.32974545454545L 55.1764705882353 196.86690909090908L 57.76470588235294 195.94792727272727L 60.35294117647059 202.14254545454546L 62.94117647058823 197.35476363636363L 65.52941176470588 191.76145454545454L 68.11764705882354 179.96218181818182L 70.70588235294117 204.09396363636364L 73.29411764705883 194.17236363636363L 75.88235294117646 192.61803636363635L 78.47058823529412 195.1253818181818L 81.05882352941177 193.92843636363637L 83.64705882352942 182.2482909090909L 86.23529411764706 200.86618181818181L 88.82352941176471 201.45614545454546L 91.41176470588235 178.89003636363637L 94 197.33774545454546L 96.58823529411765 198.50065454545455L 99.17647058823529 200.41803636363636L 101.76470588235294 201.18385454545455L 104.35294117647058 202.26734545454545L 106.94117647058823 195.09134545454546L 109.52941176470588 198.08087272727272L 112.11764705882354 183.38850909090908L 114.70588235294117 197.47389090909093L 117.29411764705883 202.01774545454546L 119.88235294117646 194.66021818181818L 122.47058823529412 200.75272727272727L 125.05882352941177 200.00392727272728L 127.64705882352942 201.97236363636364L 130.23529411764707 204.2754909090909L 132.8235294117647 201.74545454545455L 135.41176470588238 201.01367272727273L 138 174.7829818181818L 140.58823529411765 195.76072727272728L 143.1764705882353 204.0032L 145.76470588235293 203.7309090909091L 148.35294117647058 197.87665454545453L 150.94117647058823 202.60770909090908L 153.52941176470588 202.6928L 156.11764705882354 197.55898181818182L 158.70588235294116 186.5141818181818L 161.29411764705884 199.26647272727274L 163.88235294117646 199.5728L 166.47058823529412 193.4802909090909L 169.05882352941177 199.10763636363635L 171.64705882352942 201.54690909090908L 174.23529411764707 201.5696L 176.8235294117647 195.06865454545454L 179.41176470588235 201.70007272727273L 182 197.2866909090909L 184.58823529411765 172.35505454545455L 187.1764705882353 203.20901818181818L 189.76470588235293 199.6749090909091L 192.3529411764706 193.12858181818183L 194.94117647058823 196.8896L 197.52941176470588 199.78836363636364L 200.11764705882354 198.82967272727274L 202.70588235294116 204.1336727272727L 205.29411764705884 202.57934545454546L 207.88235294117646 198.9261090909091L 210.47058823529412 206L 213.05882352941177 204.128L 215.64705882352942 192.1245090909091L 218.23529411764704 206L 220.82352941176472 206L 223.41176470588235 206L 226 206L 228.58823529411765 197.37178181818183L 231.1764705882353 199.57847272727273L 233.76470588235293 188.9024L 236.35294117647058 195.02894545454546L 238.94117647058823 191.20552727272727L 241.52941176470588 166.8128L 244.11764705882354 203.8386909090909L 246.70588235294116 198.09221818181817L 249.29411764705884 201.64334545454545L 251.88235294117646 202.2957090909091L 254.47058823529412 203.22036363636363L 257.05882352941177 200.66763636363635L 259.6470588235294 191.51185454545455L 262.2352941176471 189.18603636363636L 264.82352941176475 203.86705454545455L 267.4117647058823 197.56465454545454L 270 187.32538181818182L 272.5882352941177 201.2349090909091L 275.17647058823525 200.44639999999998L 277.7647058823529 201.4618181818182L 280.3529411764706 201.09876363636363L 282.94117647058823 201.17818181818183L 285.52941176470586 193.02647272727273L 288.11764705882354 198.8069818181818L 290.7058823529412 203.39054545454545L 293.29411764705884 200.30458181818182L 295.88235294117646 198.35883636363636L 298.47058823529414 193.3101090909091L 301.0588235294117 200.56552727272728L 303.6470588235294 203.03883636363636L 306.2352941176471 197.22996363636364L 308.8235294117647 201.95534545454547L 311.4117647058823 196.016L 314 202.30705454545455L 316.5882352941176 199.91316363636363L 319.1764705882353 194.62050909090908L 321.7647058823529 201.29163636363637L 324.3529411764706 202.98778181818182L 326.94117647058823 203.5437090909091L 329.52941176470586 200.60523636363638L 332.11764705882354 195.5621818181818L 334.7058823529412 203.24305454545456L 337.29411764705884 200.15709090909093L 339.88235294117646 198.46661818181818L 342.4705882352941 201.70007272727273L 345.05882352941177 200.70734545454545L 347.64705882352945 200.4293818181818L 350.2352941176471 201.76814545454545L 352.8235294117647 204.6442181818182L 355.4117647058823 206L 358 196.35636363636365L 360.5882352941177 199.21541818181817L 363.1764705882353 156.87418181818182L 365.7647058823529 165.1506909090909L 368.3529411764706 204.1733818181818L 370.94117647058823 202.17658181818183L 373.52941176470586 199.31185454545454L 376.11764705882354 198.7842909090909L 378.7058823529412 202.6757818181818L 381.29411764705884 202.8573090909091L 383.88235294117646 196.1861818181818L 386.4705882352941 199.64654545454545L 389.05882352941177 198.2056727272727L 391.64705882352945 201.2178909090909L 394.2352941176471 201.79083636363637L 396.8235294117647 201.90429090909092L 399.4117647058823 200.1968L 402 195.17076363636363L 404.5882352941177 206L 407.1764705882353 206L 409.7647058823529 206L 412.3529411764706 191.4834909090909L 414.94117647058823 197.79723636363636L 417.52941176470586 198.85236363636363L 420.11764705882354 199.76L 422.70588235294116 200.03796363636363L 425.29411764705884 200.76407272727272L 427.88235294117646 201.80785454545455L 430.4705882352941 191.63098181818182L 433.05882352941177 194.41061818181817L 435.64705882352945 199.88479999999998L 438.2352941176471 152.63098181818182L 440.8235294117647 197.04843636363637L 443.4117647058823 194.4730181818182L 446 155.90414545454547L 448.5882352941177 91.60945454545454L 451.1764705882353 104.5376L 453.7647058823529 151.17876363636364L 456.3529411764706 185.1981090909091L 458.94117647058823 142.76610909090908L 461.5294117647059 125.0672L 464.11764705882354 123.74545454545455L 466.70588235294116 157.99738181818182L 469.29411764705884 53.56814545454546L 471.88235294117646 50.78850909090909L 474.4705882352941 100.02210909090908L 477.05882352941177 156.2445090909091L 479.64705882352945 180.31956363636363L 482.2352941176471 192.43650909090908L 484.8235294117647 193.63912727272728L 487.4117647058823 193.3328L 490 192.11316363636365L 492.5882352941177 197.93338181818183L 495.1764705882353 191.5629090909091L 497.7647058823529 198.7672727272727L 500.35294117647055 199.3005090909091L 502.94117647058823 201.64901818181818L 505.5294117647059 200.58821818181818L 508.11764705882354 202.43752727272727L 510.70588235294116 200.73003636363637L 513.2941176470588 189.7703272727273L 515.8823529411765 203.17498181818183L 518.4705882352941 200.48610909090908L 521.0588235294117 185.1810909090909L 523.6470588235294 187.88698181818182L 526.2352941176471 191.01832727272728L 528.8235294117648 192.31738181818181L 531.4117647058824 177.09745454545455L 534 167.91330909090908L 536.5882352941177 179.30981818181817L 539.1764705882354 186.49716363636364L 541.7647058823529 150.34487272727273L 544.3529411764705 184.27345454545454L 546.9411764705883 199.5104L 549.5294117647059 161.24785454545454L 552.1176470588234 155.49003636363636L 554.7058823529411 176.96130909090908L 557.2941176470588 190.30923636363636L 559.8823529411766 193.50865454545453L 562.4705882352941 201.72843636363638L 565.0588235294118 185.22647272727272L 567.6470588235294 192.03374545454545L 570.2352941176471 192.66909090909093L 572.8235294117646 180.18341818181818L 575.4117647058823 194.5013818181818L 578 194.6829090909091L 580.5882352941176 201.85323636363637L 583.1764705882352 196.2032L 585.764705882353 204.49105454545455L 588.3529411764706 191.55723636363638L 590.9411764705883 180.36494545454545L 593.5294117647059 193.02647272727273L 596.1176470588235 186.20785454545455L 598.7058823529412 191.72741818181817L 601.2941176470588 191.4834909090909L 603.8823529411765 196.63432727272726L 606.4705882352941 200.7810909090909L 609.0588235294117 176.26923636363637L 611.6470588235294 165.78036363636363L 614.2352941176471 181.82850909090908L 616.8235294117648 160.6976L 619.4117647058824 163.93105454545454L 622 182.10647272727272L 624.5882352941177 130.808L 627.1764705882352 190.49643636363635L 629.7647058823529 202.0914909090909L 632.3529411764706 184.09192727272728L 634.9411764705882 197.50225454545455L 637.5294117647059 187.54094545454547L 640.1176470588235 192.95272727272726L 642.7058823529412 201.88727272727272L 645.2941176470589 184.33585454545454L 647.8823529411765 183.04814545454545L 650.4705882352941 182.36741818181818L 653.0588235294118 182.54327272727272L 655.6470588235294 186.38938181818182L 658.2352941176471 174.3858909090909L 660.8235294117646 183.1786181818182L 663.4117647058823 183.5133090909091L 666 184.60247272727273L 668.5882352941176 186.968L 671.1764705882354 170.00087272727274L 673.7647058823529 167.8338909090909L 676.3529411764706 203.32247272727273L 678.9411764705883 206L 681.5294117647059 128.43112727272728L 684.1176470588235 183.2637090909091L 686.7058823529412 156.8685090909091L 689.2941176470588 183.15592727272727L 691.8823529411765 183.2013090909091L 694.470588235294 182.25963636363636L 697.0588235294117 170.18807272727273L 699.6470588235294 186.86589090909092L 702.2352941176471 183.77425454545454L 704.8235294117648 186.29861818181817L 707.4117647058824 184.17134545454545L 710 184.9655272727273L 712.5882352941177 178.1696L 715.1764705882352 180.70530909090908L 717.7647058823529 170.80072727272727L 720.3529411764706 177.99374545454546L 722.9411764705882 175.99127272727273L 725.5294117647059 173.75621818181818L 728.1176470588235 175.45803636363638L 730.7058823529412 196.91796363636365L 733.2941176470589 150.30516363636363L 735.8823529411765 167.34036363636363L 738.4705882352941 174.52203636363637L 741.0588235294118 132.05599999999998L 743.6470588235294 144.8309818181818L 746.2352941176471 173.60872727272726L 748.8235294117646 151.91054545454546L 751.4117647058823 194.03621818181819L 754 160.59549090909093L 756.5882352941176 206L 759.1764705882354 153.43650909090908L 761.7647058823529 181.01163636363637L 764.3529411764706 181.6413090909091L 766.9411764705883 182.49221818181817L 769.5294117647059 183.08785454545455L 772.1176470588235 206L 774.7058823529412 151.86516363636363L 777.2941176470588 172.45716363636365L 779.8823529411765 169.20669090909092L 782.470588235294 178.22065454545455L 785.0588235294117 175.54312727272728L 787.6470588235295 177.61367272727273L 790.2352941176471 181.0173090909091L 792.8235294117648 176.80814545454547L 795.4117647058823 167.8962909090909L 798 167.1248L 800.5882352941177 176.62094545454545L 803.1764705882352 158.63272727272727L 805.7647058823529 151.3602909090909L 808.3529411764706 173.35345454545455L 810.9411764705882 206L 813.5294117647059 206L 816.1176470588235 206L 818.7058823529412 206L 821.2941176470589 206L 823.8823529411765 206L 826.4705882352941 206L 829.0588235294117 206L 831.6470588235294 206L 834.2352941176471 206L 836.8235294117646 206L 839.4117647058823 206L 842 206L 844.5882352941177 206L 847.1764705882354 206L 849.7647058823529 206L 852.3529411764706 206L 854.9411764705883 206L 857.5294117647059 206L 860.1176470588235 206L 862.7058823529412 206L 865.2941176470588 206L 867.8823529411765 206L 870.470588235294 206L 873.0588235294118 206L 875.6470588235295 206L 878.2352941176471 206L 880.8235294117648 206L 883.4117647058823 206L 886 206L 888.5882352941177 206L 891.1764705882352 206L 893.7647058823529 206L 896.3529411764706 206L 898.9411764705882 206L 901.5294117647059 206L 904.1176470588235 206L 906.7058823529412 206L 909.2941176470589 206L 911.8823529411765 206L 914.4705882352941 206L 917.0588235294117 206L 919.6470588235294 206L 922.2352941176471 206L 924.8235294117646 206L 927.4117647058823 206L 930 206L 932.5882352941177 206L 935.1764705882354 206L 937.7647058823529 206L 940.3529411764706 206L 942.9411764705883 206L 945.5294117647059 206L 948.1176470588235 206L 950.7058823529411 206L 953.2941176470588 206L 955.8823529411765 206L 958.470588235294 206L 961.0588235294118 206L 963.6470588235295 206L 966.2352941176471 206L 968.8235294117648 206L 971.4117647058823 206L 974 206" stroke-width="2.0" fill="none" />
    
        
        
        <text x="45.0" font-family="-apple-system, system-ui, BlinkMacSystemFont, Roboto" y="50.0" dominant-baseline="middle" text-anchor="end" font-size="12" fill="#24292f">27500.0</text>
        
            
            <path stroke="#74838f" stroke-dasharray="10 6" stroke-width="0.5"  d="M 50.0 50.0 L 974.0 50.0" />
        
    
        
        
        <text x="45.0" font-family="-apple-system, system-ui, BlinkMacSystemFont, Roboto" y="81.2" dominant-baseline="middle" text-anchor="end" font-size="12" fill="#24292f">22000.0</text>
        
            
            
            <path stroke="#74838f" stroke-dasharray="10 6" stroke-width="0.5"  d="M 50.0 81.2 L 974.0 81.2" />
        
    
        
        
        <text x="45.0" font-family="-apple-system, system-ui, BlinkMacSystemFont, Roboto" y="112.4" dominant-baseline="middle" text-anchor="end" font-size="12" fill="#24292f">16500.0</text>
        
            
            
            <path stroke="#74838f" stroke-dasharray="10 6" stroke-width="0.5"  d="M 50.0 112.4 L 974.0 112.4" />
        
    
        
        
        <text x="45.0" font-family="-apple-system, system-ui, BlinkMacSystemFont, Roboto" y="143.6" dominant-baseline="middle" text-anchor="end" font-size="12" fill="#24292f">11000.0</text>
        
            
            
            <path stroke="#74838f" stroke-dasharray="10 6" stroke-width="0.5"  d="M 50.0 143.6 L 974.0 143.6" />
        
    
        
        
        <text x="45.0" font-family="-apple-system, system-ui, BlinkMacSystemFont, Roboto" y="174.8" dominant-baseline="middle" text-anchor="end" font-size="12" fill="#24292f">5500.0</text>
        
            
            
            <path stroke="#74838f" stroke-dasharray="10 6" stroke-width="0.5"  d="M 50.0 174.8 L 974.0 174.8" />
        
    
        
        
        <text x="45.0" font-family="-apple-system, system-ui, BlinkMacSystemFont, Roboto" y="206.0" dominant-baseline="middle" text-anchor="end" font-size="12" fill="#24292f">0.0</text>
        
    
    
        
        <path stroke="#74838f"  stroke-width="2.0"  d="M 91.41176470588235 206.0 L 91.41176470588235 214.0" />
        <text x="91.41176470588235" font-family="-apple-system, system-ui, BlinkMacSystemFont, Roboto" y="216.0" dominant-baseline="hanging" text-anchor="middle" font-size="12" fill="#24292f">Mar 2022</text>
    
        
        <path stroke="#74838f"  stroke-width="2.0"  d="M 171.64705882352942 206.0 L 171.64705882352942 214.0" />
        <text x="171.64705882352942" font-family="-apple-system, system-ui, BlinkMacSystemFont, Roboto" y="216.0" dominant-baseline="hanging" text-anchor="middle" font-size="12" fill="#24292f">Apr 2022</text>
    
        
        <path stroke="#74838f"  stroke-width="2.0"  d="M 249.29411764705884 206.0 L 249.29411764705884 214.0" />
        <text x="249.29411764705884" font-family="-apple-system, system-ui, BlinkMacSystemFont, Roboto" y="216.0" dominant-baseline="hanging" text-anchor="middle" font-size="12" fill="#24292f">May 2022</text>
    
        
        <path stroke="#74838f"  stroke-width="2.0"  d="M 329.52941176470586 206.0 L 329.52941176470586 214.0" />
        <text x="329.52941176470586" font-family="-apple-system, system-ui, BlinkMacSystemFont, Roboto" y="216.0" dominant-baseline="hanging" text-anchor="middle" font-size="12" fill="#24292f">Jun 2022</text>
    
        
        <path stroke="#74838f"  stroke-width="2.0"  d="M 407.1764705882353 206.0 L 407.1764705882353 214.0" />
        <text x="407.1764705882353" font-family="-apple-system, system-ui, BlinkMacSystemFont, Roboto" y="216.0" dominant-baseline="hanging" text-anchor="middle" font-size="12" fill="#24292f">Jul 2022</text>
    
        
        <path stroke="#74838f"  stroke-width="2.0"  d="M 487.4117647058823 206.0 L 487.4117647058823 214.0" />
        <text x="487.4117647058823" font-family="-apple-system, system-ui, BlinkMacSystemFont, Roboto" y="216.0" dominant-baseline="hanging" text-anchor="middle" font-size="12" fill="#24292f">Aug 2022</text>
    
        
        <path stroke="#74838f"  stroke-width="2.0"  d="M 567.6470588235294 206.0 L 567.6470588235294 214.0" />
        <text x="567.6470588235294" font-family="-apple-system, system-ui, BlinkMacSystemFont, Roboto" y="216.0" dominant-baseline="hanging" text-anchor="middle" font-size="12" fill="#24292f">Sep 2022</text>
    
        
        <path stroke="#74838f"  stroke-width="2.0"  d="M 645.2941176470589 206.0 L 645.2941176470589 214.0" />
        <text x="645.2941176470589" font-family="-apple-system, system-ui, BlinkMacSystemFont, Roboto" y="216.0" dominant-baseline="hanging" text-anchor="middle" font-size="12" fill="#24292f">Oct 2022</text>
    
        
        <path stroke="#74838f"  stroke-width="2.0"  d="M 725.5294117647059 206.0 L 725.5294117647059 214.0" />
        <text x="725.5294117647059" font-family="-apple-system, system-ui, BlinkMacSystemFont, Roboto" y="216.0" dominant-baseline="hanging" text-anchor="middle" font-size="12" fill="#24292f">Nov 2022</text>
    
        
        <path stroke="#74838f"  stroke-width="2.0"  d="M 803.1764705882352 206.0 L 803.1764705882352 214.0" />
        <text x="803.1764705882352" font-family="-apple-system, system-ui, BlinkMacSystemFont, Roboto" y="216.0" dominant-baseline="hanging" text-anchor="middle" font-size="12" fill="#24292f">Dec 2022</text>
    
        
        <path stroke="#74838f"  stroke-width="2.0"  d="M 883.4117647058823 206.0 L 883.4117647058823 214.0" />
        <text x="883.4117647058823" font-family="-apple-system, system-ui, BlinkMacSystemFont, Roboto" y="216.0" dominant-baseline="hanging" text-anchor="middle" font-size="12" fill="#24292f">Jan 2023</text>
    
        
        <path stroke="#74838f"  stroke-width="2.0"  d="M 963.6470588235295 206.0 L 963.6470588235295 214.0" />
        <text x="963.6470588235295" font-family="-apple-system, system-ui, BlinkMacSystemFont, Roboto" y="216.0" dominant-baseline="hanging" text-anchor="middle" font-size="12" fill="#24292f">Feb 2023</text>
    
    <path stroke="#74838f"   stroke-linejoin="round" stroke-width="2.0" d="M 50.0 216.0 L 50.0 206.0 L 974.0 206.0 L 974.0 216.0"  fill="none" />
    <text x="512.0" y="25.0" font-family="-apple-system, system-ui, BlinkMacSystemFont, Roboto" dominant-baseline="middle" text-anchor="middle" font-size="18" fill="#24292f">Total daily screen name changes</text>
</svg>
