<?xml version="1.0" standalone="no"?>
<svg width="1024.0" height="256.0"  viewBox="0 0 1024.0 256.0" preserveAspectRatio="xMidYMid meet" xmlns="http://www.w3.org/2000/svg">
    <path stroke="#3498db" stroke-linejoin="round" d="M 50.0 203.3394909090909 L 50 203.3394909090909L 52.70967741935484 202.32974545454545L 55.41935483870968 196.86690909090908L 58.12903225806452 195.94792727272727L 60.83870967741935 202.14254545454546L 63.54838709677419 197.35476363636363L 66.25806451612904 191.76145454545454L 68.96774193548387 179.96218181818182L 71.6774193548387 204.09396363636364L 74.38709677419355 194.17236363636363L 77.09677419354838 192.61803636363635L 79.80645161290323 195.1253818181818L 82.51612903225808 193.92843636363637L 85.2258064516129 182.2482909090909L 87.93548387096774 200.86618181818181L 90.64516129032259 201.45614545454546L 93.35483870967741 178.89003636363637L 96.06451612903226 197.33774545454546L 98.7741935483871 198.50065454545455L 101.48387096774194 200.41803636363636L 104.19354838709677 201.18385454545455L 106.90322580645162 202.26734545454545L 109.61290322580645 195.09134545454546L 112.32258064516128 198.08087272727272L 115.03225806451614 183.38850909090908L 117.74193548387098 197.47389090909093L 120.45161290322581 202.01774545454546L 123.16129032258064 194.66021818181818L 125.87096774193549 200.75272727272727L 128.5806451612903 200.00392727272728L 131.29032258064518 201.97236363636364L 134 204.2754909090909L 136.70967741935482 201.74545454545455L 139.4193548387097 201.01367272727273L 142.1290322580645 174.7829818181818L 144.83870967741936 195.76072727272728L 147.5483870967742 204.0032L 150.25806451612902 203.7309090909091L 152.96774193548387 197.87665454545453L 155.67741935483872 202.60770909090908L 158.38709677419354 202.6928L 161.09677419354838 197.55898181818182L 163.80645161290323 186.5141818181818L 166.51612903225805 199.26647272727274L 169.2258064516129 199.5728L 171.93548387096774 193.4802909090909L 174.64516129032256 199.10763636363635L 177.3548387096774 201.54690909090908L 180.06451612903228 201.5696L 182.7741935483871 195.06865454545454L 185.48387096774195 201.70007272727273L 188.19354838709677 197.2866909090909L 190.90322580645162 172.35505454545455L 193.61290322580646 203.20901818181818L 196.32258064516128 199.6749090909091L 199.03225806451613 193.12858181818183L 201.74193548387098 196.8896L 204.4516129032258 199.78836363636364L 207.16129032258064 198.82967272727274L 209.8709677419355 204.1336727272727L 212.58064516129033 202.57934545454546L 215.29032258064518 198.9261090909091L 218 206L 220.70967741935485 204.128L 223.41935483870967 192.1245090909091L 226.1290322580645 206L 228.83870967741936 206L 231.54838709677418 206L 234.25806451612902 206L 236.96774193548387 197.37178181818183L 239.67741935483872 199.57847272727273L 242.38709677419357 188.9024L 245.09677419354838 195.02894545454546L 247.80645161290323 191.20552727272727L 250.51612903225808 166.8128L 253.2258064516129 203.8386909090909L 255.93548387096774 198.09221818181817L 258.64516129032256 201.64334545454545L 261.35483870967744 202.2957090909091L 264.06451612903226 203.22036363636363L 266.7741935483871 200.66763636363635L 269.48387096774195 191.51185454545455L 272.19354838709677 189.18603636363636L 274.9032258064516 203.86705454545455L 277.61290322580646 197.56465454545454L 280.3225806451613 187.32538181818182L 283.0322580645161 201.2349090909091L 285.741935483871 200.44639999999998L 288.4516129032258 201.4618181818182L 291.1612903225806 201.09876363636363L 293.8709677419355 201.17818181818183L 296.5806451612903 193.02647272727273L 299.2903225806451 198.8069818181818L 302 203.39054545454545L 304.7096774193548 200.30458181818182L 307.41935483870964 198.35883636363636L 310.12903225806457 193.3101090909091L 312.8387096774194 200.56552727272728L 315.5483870967742 203.03883636363636L 318.258064516129 197.22996363636364L 320.9677419354839 201.95534545454547L 323.6774193548387 196.016L 326.38709677419354 202.30705454545455L 329.0967741935484 199.91316363636363L 331.80645161290323 194.62050909090908L 334.51612903225805 201.29163636363637L 337.2258064516129 202.98778181818182L 339.93548387096774 203.5437090909091L 342.64516129032256 200.60523636363638L 345.35483870967744 195.5621818181818L 348.06451612903226 203.24305454545456L 350.7741935483871 200.15709090909093L 353.48387096774195 198.46661818181818L 356.19354838709677 201.70007272727273L 358.9032258064516 200.70734545454545L 361.6129032258064 200.4293818181818L 364.3225806451613 201.76814545454545L 367.0322580645161 204.6442181818182L 369.741935483871 206L 372.45161290322585 196.35636363636365L 375.16129032258067 199.21541818181817L 377.8709677419355 156.87418181818182L 380.58064516129036 165.1506909090909L 383.2903225806452 204.1733818181818L 386 202.17658181818183L 388.7096774193548 199.31185454545454L 391.4193548387097 198.7842909090909L 394.1290322580645 202.6757818181818L 396.83870967741933 202.8573090909091L 399.5483870967742 196.1861818181818L 402.258064516129 199.64654545454545L 404.96774193548384 198.2056727272727L 407.6774193548387 201.2178909090909L 410.38709677419354 201.79083636363637L 413.09677419354836 201.90429090909092L 415.80645161290323 200.1968L 418.51612903225805 195.17076363636363L 421.22580645161287 206L 423.93548387096774 206L 426.6451612903226 206L 429.35483870967744 191.4834909090909L 432.06451612903226 197.79723636363636L 434.77419354838713 198.85236363636363L 437.48387096774195 199.76L 440.19354838709677 200.03796363636363L 442.90322580645164 200.76407272727272L 445.61290322580646 201.80785454545455L 448.3225806451613 191.63098181818182L 451.03225806451616 194.41061818181817L 453.741935483871 199.88479999999998L 456.4516129032258 152.63098181818182L 459.16129032258067 197.04843636363637L 461.8709677419355 194.4730181818182L 464.5806451612903 155.90414545454547L 467.2903225806451 91.60945454545454L 470 104.5376L 472.7096774193548 151.17876363636364L 475.41935483870964 185.1981090909091L 478.1290322580645 142.76610909090908L 480.83870967741933 125.0672L 483.5483870967742 123.74545454545455L 486.2580645161291 157.99738181818182L 488.9677419354839 53.56814545454546L 491.6774193548387 50.78850909090909L 494.38709677419354 100.02210909090908L 497.0967741935484 156.2445090909091L 499.80645161290323 180.31956363636363L 502.51612903225805 192.43650909090908L 505.2258064516129 193.63912727272728L 507.93548387096774 193.3328L 510.64516129032256 192.11316363636365L 513.3548387096774 197.93338181818183L 516.0645161290322 191.5629090909091L 518.7741935483871 198.7672727272727L 521.483870967742 199.3005090909091L 524.1935483870968 201.64901818181818L 526.9032258064516 200.58821818181818L 529.6129032258065 202.43752727272727L 532.3225806451612 200.73003636363637L 535.0322580645161 189.7703272727273L 537.741935483871 203.17498181818183L 540.4516129032259 200.48610909090908L 543.1612903225806 185.1810909090909L 545.8709677419354 187.88698181818182L 548.5806451612902 191.01832727272728L 551.2903225806451 192.31738181818181L 554 177.09745454545455L 556.7096774193549 167.91330909090908L 559.4193548387096 179.30981818181817L 562.1290322580645 186.49716363636364L 564.8387096774193 150.34487272727273L 567.5483870967741 184.27345454545454L 570.2580645161291 199.5104L 572.9677419354839 161.24785454545454L 575.6774193548388 155.49003636363636L 578.3870967741935 176.96130909090908L 581.0967741935484 190.30923636363636L 583.8064516129033 193.50865454545453L 586.516129032258 201.72843636363638L 589.2258064516129 185.22647272727272L 591.9354838709678 192.03374545454545L 594.6451612903226 192.66909090909093L 597.3548387096774 180.18341818181818L 600.0645161290323 194.5013818181818L 602.7741935483871 194.6829090909091L 605.483870967742 201.85323636363637L 608.1935483870968 196.2032L 610.9032258064516 204.49105454545455L 613.6129032258065 191.55723636363638L 616.3225806451613 180.36494545454545L 619.0322580645161 193.02647272727273L 621.741935483871 186.20785454545455L 624.4516129032259 191.72741818181817L 627.1612903225806 191.4834909090909L 629.8709677419355 196.63432727272726L 632.5806451612904 200.7810909090909L 635.2903225806451 176.26923636363637L 638 165.78036363636363L 640.7096774193549 181.82850909090908L 643.4193548387096 160.6976L 646.1290322580645 163.93105454545454L 648.8387096774194 182.10647272727272L 651.5483870967741 130.808L 654.258064516129 190.49643636363635L 656.9677419354839 202.0914909090909L 659.6774193548387 184.09192727272728L 662.3870967741935 197.50225454545455L 665.0967741935483 187.54094545454547L 667.8064516129032 192.95272727272726L 670.516129032258 201.88727272727272L 673.2258064516128 184.33585454545454L 675.9354838709677 183.04814545454545L 678.6451612903226 182.36741818181818L 681.3548387096773 182.54327272727272L 684.0645161290322 186.38938181818182L 686.7741935483872 174.3858909090909L 689.483870967742 183.1786181818182L 692.1935483870968 183.5133090909091L 694.9032258064517 184.60247272727273L 697.6129032258065 186.968L 700.3225806451613 170.00087272727274L 703.0322580645162 167.8338909090909L 705.741935483871 203.32247272727273L 708.4516129032259 206L 711.1612903225807 128.43112727272728L 713.8709677419355 183.2637090909091L 716.5806451612904 156.8685090909091L 719.2903225806452 183.15592727272727L 722 183.2013090909091L 724.7096774193549 182.25963636363636L 727.4193548387096 170.18807272727273L 730.1290322580645 186.86589090909092L 732.8387096774194 183.77425454545454L 735.5483870967741 186.29861818181817L 738.258064516129 184.17134545454545L 740.9677419354839 184.9655272727273L 743.6774193548387 178.1696L 746.3870967741935 180.70530909090908L 749.0967741935484 170.80072727272727L 751.8064516129032 177.99374545454546L 754.516129032258 175.99127272727273L 757.2258064516129 173.75621818181818L 759.9354838709677 175.45803636363638L 762.6451612903226 196.91796363636365L 765.3548387096774 150.30516363636363L 768.0645161290322 167.34036363636363L 770.7741935483871 174.52203636363637L 773.483870967742 132.05599999999998L 776.1935483870967 144.8309818181818L 778.9032258064516 173.60872727272726L 781.6129032258065 151.91054545454546L 784.3225806451612 194.03621818181819L 787.0322580645161 160.59549090909093L 789.741935483871 206L 792.4516129032257 153.43650909090908L 795.1612903225806 181.01163636363637L 797.8709677419355 181.6413090909091L 800.5806451612902 182.49221818181817L 803.2903225806452 183.08785454545455L 806 206L 808.7096774193549 151.86516363636363L 811.4193548387098 172.45716363636365L 814.1290322580645 169.20669090909092L 816.8387096774194 178.22065454545455L 819.5483870967743 175.54312727272728L 822.258064516129 177.61367272727273L 824.9677419354839 181.0173090909091L 827.6774193548388 176.80814545454547L 830.3870967741935 167.8962909090909L 833.0967741935484 167.1248L 835.8064516129033 176.62094545454545L 838.516129032258 158.63272727272727L 841.2258064516129 151.3602909090909L 843.9354838709678 173.35345454545455L 846.6451612903226 206L 849.3548387096774 206L 852.0645161290323 206L 854.7741935483871 206L 857.483870967742 206L 860.1935483870968 206L 862.9032258064516 206L 865.6129032258065 206L 868.3225806451613 206L 871.0322580645161 206L 873.741935483871 206L 876.4516129032257 206L 879.1612903225806 206L 881.8709677419355 206L 884.5806451612902 206L 887.2903225806451 206L 890 206L 892.7096774193548 206L 895.4193548387096 206L 898.1290322580645 206L 900.8387096774193 206L 903.5483870967741 206L 906.258064516129 206L 908.9677419354838 206L 911.6774193548387 206L 914.3870967741935 206L 917.0967741935484 206L 919.8064516129033 206L 922.5161290322582 206L 925.2258064516129 206L 927.9354838709678 206L 930.6451612903227 206L 933.3548387096774 206L 936.0645161290323 206L 938.7741935483871 206L 941.483870967742 206L 944.1935483870968 206L 946.9032258064516 206L 949.6129032258065 206L 952.3225806451613 206L 955.0322580645161 206L 957.741935483871 206L 960.4516129032259 206L 963.1612903225806 206L 965.8709677419355 206L 968.5806451612904 206L 971.2903225806451 206L 974 206" stroke-width="2.0" fill="none" />
    
        
        
        <text x="45.0" font-family="-apple-system, system-ui, BlinkMacSystemFont, Roboto" y="50.0" dominant-baseline="middle" text-anchor="end" font-size="12" fill="#24292f">27500.0</text>
        
            
            <path stroke="#74838f" stroke-dasharray="10 6" stroke-width="0.5"  d="M 50.0 50.0 L 974.0 50.0" />
        
    
        
        
        <text x="45.0" font-family="-apple-system, system-ui, BlinkMacSystemFont, Roboto" y="81.2" dominant-baseline="middle" text-anchor="end" font-size="12" fill="#24292f">22000.0</text>
        
            
            
            <path stroke="#74838f" stroke-dasharray="10 6" stroke-width="0.5"  d="M 50.0 81.2 L 974.0 81.2" />
        
    
        
        
        <text x="45.0" font-family="-apple-system, system-ui, BlinkMacSystemFont, Roboto" y="112.4" dominant-baseline="middle" text-anchor="end" font-size="12" fill="#24292f">16500.0</text>
        
            
            
            <path stroke="#74838f" stroke-dasharray="10 6" stroke-width="0.5"  d="M 50.0 112.4 L 974.0 112.4" />
        
    
        
        
        <text x="45.0" font-family="-apple-system, system-ui, BlinkMacSystemFont, Roboto" y="143.6" dominant-baseline="middle" text-anchor="end" font-size="12" fill="#24292f">11000.0</text>
        
            
            
            <path stroke="#74838f" stroke-dasharray="10 6" stroke-width="0.5"  d="M 50.0 143.6 L 974.0 143.6" />
        
    
        
        
        <text x="45.0" font-family="-apple-system, system-ui, BlinkMacSystemFont, Roboto" y="174.8" dominant-baseline="middle" text-anchor="end" font-size="12" fill="#24292f">5500.0</text>
        
            
            
            <path stroke="#74838f" stroke-dasharray="10 6" stroke-width="0.5"  d="M 50.0 174.8 L 974.0 174.8" />
        
    
        
        
        <text x="45.0" font-family="-apple-system, system-ui, BlinkMacSystemFont, Roboto" y="206.0" dominant-baseline="middle" text-anchor="end" font-size="12" fill="#24292f">0.0</text>
        
    
    
        
        <path stroke="#74838f"  stroke-width="2.0"  d="M 93.35483870967741 206.0 L 93.35483870967741 214.0" />
        <text x="93.35483870967741" font-family="-apple-system, system-ui, BlinkMacSystemFont, Roboto" y="216.0" dominant-baseline="hanging" text-anchor="middle" font-size="12" fill="#24292f">Mar 2022</text>
    
        
        <path stroke="#74838f"  stroke-width="2.0"  d="M 177.3548387096774 206.0 L 177.3548387096774 214.0" />
        <text x="177.3548387096774" font-family="-apple-system, system-ui, BlinkMacSystemFont, Roboto" y="216.0" dominant-baseline="hanging" text-anchor="middle" font-size="12" fill="#24292f">Apr 2022</text>
    
        
        <path stroke="#74838f"  stroke-width="2.0"  d="M 258.64516129032256 206.0 L 258.64516129032256 214.0" />
        <text x="258.64516129032256" font-family="-apple-system, system-ui, BlinkMacSystemFont, Roboto" y="216.0" dominant-baseline="hanging" text-anchor="middle" font-size="12" fill="#24292f">May 2022</text>
    
        
        <path stroke="#74838f"  stroke-width="2.0"  d="M 342.64516129032256 206.0 L 342.64516129032256 214.0" />
        <text x="342.64516129032256" font-family="-apple-system, system-ui, BlinkMacSystemFont, Roboto" y="216.0" dominant-baseline="hanging" text-anchor="middle" font-size="12" fill="#24292f">Jun 2022</text>
    
        
        <path stroke="#74838f"  stroke-width="2.0"  d="M 423.93548387096774 206.0 L 423.93548387096774 214.0" />
        <text x="423.93548387096774" font-family="-apple-system, system-ui, BlinkMacSystemFont, Roboto" y="216.0" dominant-baseline="hanging" text-anchor="middle" font-size="12" fill="#24292f">Jul 2022</text>
    
        
        <path stroke="#74838f"  stroke-width="2.0"  d="M 507.93548387096774 206.0 L 507.93548387096774 214.0" />
        <text x="507.93548387096774" font-family="-apple-system, system-ui, BlinkMacSystemFont, Roboto" y="216.0" dominant-baseline="hanging" text-anchor="middle" font-size="12" fill="#24292f">Aug 2022</text>
    
        
        <path stroke="#74838f"  stroke-width="2.0"  d="M 591.9354838709678 206.0 L 591.9354838709678 214.0" />
        <text x="591.9354838709678" font-family="-apple-system, system-ui, BlinkMacSystemFont, Roboto" y="216.0" dominant-baseline="hanging" text-anchor="middle" font-size="12" fill="#24292f">Sep 2022</text>
    
        
        <path stroke="#74838f"  stroke-width="2.0"  d="M 673.2258064516128 206.0 L 673.2258064516128 214.0" />
        <text x="673.2258064516128" font-family="-apple-system, system-ui, BlinkMacSystemFont, Roboto" y="216.0" dominant-baseline="hanging" text-anchor="middle" font-size="12" fill="#24292f">Oct 2022</text>
    
        
        <path stroke="#74838f"  stroke-width="2.0"  d="M 757.2258064516129 206.0 L 757.2258064516129 214.0" />
        <text x="757.2258064516129" font-family="-apple-system, system-ui, BlinkMacSystemFont, Roboto" y="216.0" dominant-baseline="hanging" text-anchor="middle" font-size="12" fill="#24292f">Nov 2022</text>
    
        
        <path stroke="#74838f"  stroke-width="2.0"  d="M 838.516129032258 206.0 L 838.516129032258 214.0" />
        <text x="838.516129032258" font-family="-apple-system, system-ui, BlinkMacSystemFont, Roboto" y="216.0" dominant-baseline="hanging" text-anchor="middle" font-size="12" fill="#24292f">Dec 2022</text>
    
        
        <path stroke="#74838f"  stroke-width="2.0"  d="M 922.5161290322582 206.0 L 922.5161290322582 214.0" />
        <text x="922.5161290322582" font-family="-apple-system, system-ui, BlinkMacSystemFont, Roboto" y="216.0" dominant-baseline="hanging" text-anchor="middle" font-size="12" fill="#24292f">Jan 2023</text>
    
    <path stroke="#74838f"   stroke-linejoin="round" stroke-width="2.0" d="M 50.0 216.0 L 50.0 206.0 L 974.0 206.0 L 974.0 216.0"  fill="none" />
    <text x="512.0" y="25.0" font-family="-apple-system, system-ui, BlinkMacSystemFont, Roboto" dominant-baseline="middle" text-anchor="middle" font-size="18" fill="#24292f">Total daily screen name changes</text>
</svg>
