<?xml version="1.0" standalone="no"?>
<svg width="1024.0" height="256.0"  viewBox="0 0 1024.0 256.0" preserveAspectRatio="xMidYMid meet" xmlns="http://www.w3.org/2000/svg">
    <path stroke="#3498db" stroke-linejoin="round" d="M 50.0 203.3394909090909 L 50 203.3394909090909L 52.483870967741936 202.32974545454545L 54.96774193548387 196.86690909090908L 57.45161290322581 195.94792727272727L 59.935483870967744 202.14254545454546L 62.41935483870968 197.35476363636363L 64.90322580645162 191.76145454545454L 67.38709677419355 179.96218181818182L 69.87096774193549 204.09396363636364L 72.35483870967742 194.17236363636363L 74.83870967741936 192.61803636363635L 77.3225806451613 195.1253818181818L 79.80645161290323 193.92843636363637L 82.29032258064515 182.2482909090909L 84.7741935483871 200.86618181818181L 87.25806451612902 201.45614545454546L 89.74193548387098 178.89003636363637L 92.2258064516129 197.33774545454546L 94.70967741935485 198.50065454545455L 97.19354838709677 200.41803636363636L 99.67741935483872 201.18385454545455L 102.16129032258064 202.26734545454545L 104.64516129032259 195.09134545454546L 107.12903225806451 198.08087272727272L 109.61290322580645 183.38850909090908L 112.09677419354838 197.47389090909093L 114.58064516129032 202.01774545454546L 117.06451612903226 194.66021818181818L 119.54838709677419 200.75272727272727L 122.03225806451613 200.00392727272728L 124.51612903225806 201.97236363636364L 127 204.2754909090909L 129.48387096774195 201.74545454545455L 131.96774193548387 201.01367272727273L 134.4516129032258 174.7829818181818L 136.93548387096774 195.76072727272728L 139.4193548387097 204.0032L 141.9032258064516 203.7309090909091L 144.38709677419354 197.87665454545453L 146.8709677419355 202.60770909090908L 149.35483870967744 202.6928L 151.83870967741936 197.55898181818182L 154.32258064516128 186.5141818181818L 156.80645161290323 199.26647272727274L 159.29032258064518 199.5728L 161.7741935483871 193.4802909090909L 164.25806451612902 199.10763636363635L 166.74193548387098 201.54690909090908L 169.2258064516129 201.5696L 171.70967741935482 195.06865454545454L 174.19354838709677 201.70007272727273L 176.67741935483872 197.2866909090909L 179.16129032258064 172.35505454545455L 181.6451612903226 203.20901818181818L 184.1290322580645 199.6749090909091L 186.61290322580646 193.12858181818183L 189.09677419354838 196.8896L 191.58064516129033 199.78836363636364L 194.06451612903226 198.82967272727274L 196.54838709677418 204.1336727272727L 199.03225806451613 202.57934545454546L 201.51612903225805 198.9261090909091L 204 206L 206.48387096774192 204.128L 208.96774193548387 192.1245090909091L 211.45161290322582 206L 213.93548387096774 206L 216.4193548387097 206L 218.90322580645162 206L 221.38709677419354 197.37178181818183L 223.8709677419355 199.57847272727273L 226.3548387096774 188.9024L 228.83870967741936 195.02894545454546L 231.32258064516128 191.20552727272727L 233.8064516129032 166.8128L 236.29032258064515 203.8386909090909L 238.7741935483871 198.09221818181817L 241.25806451612905 201.64334545454545L 243.74193548387098 202.2957090909091L 246.2258064516129 203.22036363636363L 248.70967741935485 200.66763636363635L 251.19354838709677 191.51185454545455L 253.67741935483872 189.18603636363636L 256.1612903225806 203.86705454545455L 258.64516129032256 197.56465454545454L 261.1290322580645 187.32538181818182L 263.61290322580646 201.2349090909091L 266.0967741935484 200.44639999999998L 268.58064516129036 201.4618181818182L 271.06451612903226 201.09876363636363L 273.5483870967742 201.17818181818183L 276.0322580645161 193.02647272727273L 278.51612903225805 198.8069818181818L 281 203.39054545454545L 283.48387096774195 200.30458181818182L 285.9677419354839 198.35883636363636L 288.4516129032258 193.3101090909091L 290.93548387096774 200.56552727272728L 293.41935483870964 203.03883636363636L 295.9032258064516 197.22996363636364L 298.38709677419354 201.95534545454547L 300.8709677419355 196.016L 303.35483870967744 202.30705454545455L 305.83870967741933 199.91316363636363L 308.3225806451613 194.62050909090908L 310.80645161290323 201.29163636363637L 313.2903225806452 202.98778181818182L 315.77419354838713 203.5437090909091L 318.258064516129 200.60523636363638L 320.741935483871 195.5621818181818L 323.2258064516129 203.24305454545456L 325.7096774193549 200.15709090909093L 328.19354838709677 198.46661818181818L 330.6774193548387 201.70007272727273L 333.16129032258067 200.70734545454545L 335.64516129032256 200.4293818181818L 338.1290322580645 201.76814545454545L 340.61290322580646 204.6442181818182L 343.09677419354836 206L 345.5806451612903 196.35636363636365L 348.06451612903226 199.21541818181817L 350.5483870967742 156.87418181818182L 353.0322580645161 165.1506909090909L 355.51612903225805 204.1733818181818L 358 202.17658181818183L 360.4838709677419 199.31185454545454L 362.96774193548384 198.7842909090909L 365.4516129032258 202.6757818181818L 367.93548387096774 202.8573090909091L 370.4193548387097 196.1861818181818L 372.90322580645164 199.64654545454545L 375.3870967741936 198.2056727272727L 377.8709677419355 201.2178909090909L 380.35483870967744 201.79083636363637L 382.8387096774194 201.90429090909092L 385.3225806451613 200.1968L 387.80645161290323 195.17076363636363L 390.2903225806452 206L 392.7741935483871 206L 395.258064516129 206L 397.741935483871 191.4834909090909L 400.2258064516129 197.79723636363636L 402.7096774193548 198.85236363636363L 405.19354838709677 199.76L 407.6774193548387 200.03796363636363L 410.1612903225806 200.76407272727272L 412.64516129032256 201.80785454545455L 415.1290322580645 191.63098181818182L 417.6129032258064 194.41061818181817L 420.09677419354836 199.88479999999998L 422.5806451612903 152.63098181818182L 425.06451612903226 197.04843636363637L 427.5483870967742 194.4730181818182L 430.03225806451616 155.90414545454547L 432.5161290322581 91.60945454545454L 435 104.5376L 437.48387096774195 151.17876363636364L 439.9677419354839 185.1981090909091L 442.4516129032258 142.76610909090908L 444.93548387096774 125.0672L 447.4193548387097 123.74545454545455L 449.90322580645164 157.99738181818182L 452.38709677419354 53.56814545454546L 454.8709677419355 50.78850909090909L 457.35483870967744 100.02210909090908L 459.83870967741933 156.2445090909091L 462.3225806451613 180.31956363636363L 464.80645161290323 192.43650909090908L 467.2903225806451 193.63912727272728L 469.7741935483871 193.3328L 472.258064516129 192.11316363636365L 474.741935483871 197.93338181818183L 477.22580645161287 191.5629090909091L 479.7096774193548 198.7672727272727L 482.19354838709677 199.3005090909091L 484.6774193548387 201.64901818181818L 487.16129032258067 200.58821818181818L 489.6451612903226 202.43752727272727L 492.1290322580645 200.73003636363637L 494.61290322580646 189.7703272727273L 497.0967741935484 203.17498181818183L 499.5806451612903 200.48610909090908L 502.06451612903226 185.1810909090909L 504.5483870967742 187.88698181818182L 507.03225806451616 191.01832727272728L 509.51612903225805 192.31738181818181L 512 177.09745454545455L 514.483870967742 167.91330909090908L 516.9677419354839 179.30981818181817L 519.4516129032259 186.49716363636364L 521.9354838709678 150.34487272727273L 524.4193548387098 184.27345454545454L 526.9032258064516 199.5104L 529.3870967741935 161.24785454545454L 531.8709677419355 155.49003636363636L 534.3548387096773 176.96130909090908L 536.8387096774193 190.30923636363636L 539.3225806451612 193.50865454545453L 541.8064516129032 201.72843636363638L 544.2903225806451 185.22647272727272L 546.7741935483871 192.03374545454545L 549.258064516129 192.66909090909093L 551.741935483871 180.18341818181818L 554.2258064516129 194.5013818181818L 556.7096774193549 194.6829090909091L 559.1935483870967 201.85323636363637L 561.6774193548387 196.2032L 564.1612903225806 204.49105454545455L 566.6451612903226 191.55723636363638L 569.1290322580645 180.36494545454545L 571.6129032258065 193.02647272727273L 574.0967741935484 186.20785454545455L 576.5806451612904 191.72741818181817L 579.0645161290323 191.4834909090909L 581.5483870967743 196.63432727272726L 584.0322580645162 200.7810909090909L 586.516129032258 176.26923636363637L 589 165.78036363636363L 591.483870967742 181.82850909090908L 593.9677419354839 160.6976L 596.4516129032259 163.93105454545454L 598.9354838709678 182.10647272727272L 601.4193548387098 130.808L 603.9032258064516 190.49643636363635L 606.3870967741935 202.0914909090909L 608.8709677419355 184.09192727272728L 611.3548387096774 197.50225454545455L 613.8387096774194 187.54094545454547L 616.3225806451613 192.95272727272726L 618.8064516129033 201.88727272727272L 621.2903225806451 184.33585454545454L 623.7741935483871 183.04814545454545L 626.258064516129 182.36741818181818L 628.741935483871 182.54327272727272L 631.2258064516129 186.38938181818182L 633.7096774193549 174.3858909090909L 636.1935483870967 183.1786181818182L 638.6774193548387 183.5133090909091L 641.1612903225806 184.60247272727273L 643.6451612903226 186.968L 646.1290322580645 170.00087272727274L 648.6129032258065 167.8338909090909L 651.0967741935484 203.32247272727273L 653.5806451612902 206L 656.0645161290322 128.43112727272728L 658.5483870967741 183.2637090909091L 661.0322580645161 156.8685090909091L 663.516129032258 183.15592727272727L 666 183.2013090909091L 668.483870967742 182.25963636363636L 670.9677419354838 170.18807272727273L 673.4516129032257 186.86589090909092L 675.9354838709677 183.77425454545454L 678.4193548387096 186.29861818181817L 680.9032258064516 184.17134545454545L 683.3870967741935 184.9655272727273L 685.8709677419355 178.1696L 688.3548387096774 180.70530909090908L 690.8387096774194 170.80072727272727L 693.3225806451613 177.99374545454546L 695.8064516129033 175.99127272727273L 698.2903225806452 173.75621818181818L 700.7741935483872 175.45803636363638L 703.258064516129 196.91796363636365L 705.741935483871 150.30516363636363L 708.2258064516129 167.34036363636363L 710.7096774193549 174.52203636363637L 713.1935483870968 132.05599999999998L 715.6774193548388 144.8309818181818L 718.1612903225806 173.60872727272726L 720.6451612903226 151.91054545454546L 723.1290322580645 194.03621818181819L 725.6129032258065 160.59549090909093L 728.0967741935484 206L 730.5806451612904 153.43650909090908L 733.0645161290323 181.01163636363637L 735.5483870967741 181.6413090909091L 738.0322580645161 182.49221818181817L 740.516129032258 183.08785454545455L 743 206L 745.483870967742 151.86516363636363L 747.9677419354839 172.45716363636365L 750.4516129032259 169.20669090909092L 752.9354838709677 178.22065454545455L 755.4193548387096 175.54312727272728L 757.9032258064516 177.61367272727273L 760.3870967741935 181.0173090909091L 762.8709677419355 176.80814545454547L 765.3548387096774 167.8962909090909L 767.8387096774194 167.1248L 770.3225806451612 176.62094545454545L 772.8064516129032 158.63272727272727L 775.2903225806451 151.3602909090909L 777.7741935483871 173.35345454545455L 780.258064516129 206L 782.741935483871 206L 785.2258064516128 206L 787.7096774193548 206L 790.1935483870967 206L 792.6774193548387 206L 795.1612903225806 206L 797.6451612903226 206L 800.1290322580645 206L 802.6129032258065 206L 805.0967741935484 206L 807.5806451612904 206L 810.0645161290323 206L 812.5483870967743 206L 815.0322580645162 206L 817.516129032258 206L 820 206L 822.483870967742 206L 824.9677419354839 206L 827.4516129032259 206L 829.9354838709678 206L 832.4193548387098 206L 834.9032258064516 206L 837.3870967741935 206L 839.8709677419355 206L 842.3548387096774 206L 844.8387096774194 206L 847.3225806451613 206L 849.8064516129033 206L 852.2903225806451 206L 854.7741935483871 206L 857.258064516129 206L 859.741935483871 206L 862.2258064516129 206L 864.7096774193549 206L 867.1935483870967 206L 869.6774193548387 206L 872.1612903225806 206L 874.6451612903226 206L 877.1290322580645 206L 879.6129032258065 206L 882.0967741935484 206L 884.5806451612902 206L 887.0645161290322 206L 889.5483870967741 206L 892.0322580645161 206L 894.516129032258 206L 897 206L 899.483870967742 206L 901.9677419354838 206L 904.4516129032257 206L 906.9354838709677 206L 909.4193548387096 206L 911.9032258064516 206L 914.3870967741935 206L 916.8709677419355 206L 919.3548387096774 206L 921.8387096774194 206L 924.3225806451613 206L 926.8064516129033 206L 929.2903225806452 206L 931.7741935483872 206L 934.258064516129 206L 936.741935483871 206L 939.2258064516129 206L 941.7096774193549 206L 944.1935483870968 206L 946.6774193548388 206L 949.1612903225806 206L 951.6451612903226 206L 954.1290322580645 206L 956.6129032258065 206L 959.0967741935484 206L 961.5806451612904 206L 964.0645161290323 206L 966.5483870967741 206L 969.0322580645161 206L 971.516129032258 206L 974 206" stroke-width="2.0" fill="none" />
    
        
        
        <text x="45.0" font-family="-apple-system, system-ui, BlinkMacSystemFont, Roboto" y="50.0" dominant-baseline="middle" text-anchor="end" font-size="12" fill="#24292f">27500.0</text>
        
            
            <path stroke="#74838f" stroke-dasharray="10 6" stroke-width="0.5"  d="M 50.0 50.0 L 974.0 50.0" />
        
    
        
        
        <text x="45.0" font-family="-apple-system, system-ui, BlinkMacSystemFont, Roboto" y="81.2" dominant-baseline="middle" text-anchor="end" font-size="12" fill="#24292f">22000.0</text>
        
            
            
            <path stroke="#74838f" stroke-dasharray="10 6" stroke-width="0.5"  d="M 50.0 81.2 L 974.0 81.2" />
        
    
        
        
        <text x="45.0" font-family="-apple-system, system-ui, BlinkMacSystemFont, Roboto" y="112.4" dominant-baseline="middle" text-anchor="end" font-size="12" fill="#24292f">16500.0</text>
        
            
            
            <path stroke="#74838f" stroke-dasharray="10 6" stroke-width="0.5"  d="M 50.0 112.4 L 974.0 112.4" />
        
    
        
        
        <text x="45.0" font-family="-apple-system, system-ui, BlinkMacSystemFont, Roboto" y="143.6" dominant-baseline="middle" text-anchor="end" font-size="12" fill="#24292f">11000.0</text>
        
            
            
            <path stroke="#74838f" stroke-dasharray="10 6" stroke-width="0.5"  d="M 50.0 143.6 L 974.0 143.6" />
        
    
        
        
        <text x="45.0" font-family="-apple-system, system-ui, BlinkMacSystemFont, Roboto" y="174.8" dominant-baseline="middle" text-anchor="end" font-size="12" fill="#24292f">5500.0</text>
        
            
            
            <path stroke="#74838f" stroke-dasharray="10 6" stroke-width="0.5"  d="M 50.0 174.8 L 974.0 174.8" />
        
    
        
        
        <text x="45.0" font-family="-apple-system, system-ui, BlinkMacSystemFont, Roboto" y="206.0" dominant-baseline="middle" text-anchor="end" font-size="12" fill="#24292f">0.0</text>
        
    
    
        
        <path stroke="#74838f"  stroke-width="2.0"  d="M 89.74193548387098 206.0 L 89.74193548387098 214.0" />
        <text x="89.74193548387098" font-family="-apple-system, system-ui, BlinkMacSystemFont, Roboto" y="216.0" dominant-baseline="hanging" text-anchor="middle" font-size="12" fill="#24292f">Mar 2022</text>
    
        
        <path stroke="#74838f"  stroke-width="2.0"  d="M 166.74193548387098 206.0 L 166.74193548387098 214.0" />
        <text x="166.74193548387098" font-family="-apple-system, system-ui, BlinkMacSystemFont, Roboto" y="216.0" dominant-baseline="hanging" text-anchor="middle" font-size="12" fill="#24292f">Apr 2022</text>
    
        
        <path stroke="#74838f"  stroke-width="2.0"  d="M 241.25806451612905 206.0 L 241.25806451612905 214.0" />
        <text x="241.25806451612905" font-family="-apple-system, system-ui, BlinkMacSystemFont, Roboto" y="216.0" dominant-baseline="hanging" text-anchor="middle" font-size="12" fill="#24292f">May 2022</text>
    
        
        <path stroke="#74838f"  stroke-width="2.0"  d="M 318.258064516129 206.0 L 318.258064516129 214.0" />
        <text x="318.258064516129" font-family="-apple-system, system-ui, BlinkMacSystemFont, Roboto" y="216.0" dominant-baseline="hanging" text-anchor="middle" font-size="12" fill="#24292f">Jun 2022</text>
    
        
        <path stroke="#74838f"  stroke-width="2.0"  d="M 392.7741935483871 206.0 L 392.7741935483871 214.0" />
        <text x="392.7741935483871" font-family="-apple-system, system-ui, BlinkMacSystemFont, Roboto" y="216.0" dominant-baseline="hanging" text-anchor="middle" font-size="12" fill="#24292f">Jul 2022</text>
    
        
        <path stroke="#74838f"  stroke-width="2.0"  d="M 469.7741935483871 206.0 L 469.7741935483871 214.0" />
        <text x="469.7741935483871" font-family="-apple-system, system-ui, BlinkMacSystemFont, Roboto" y="216.0" dominant-baseline="hanging" text-anchor="middle" font-size="12" fill="#24292f">Aug 2022</text>
    
        
        <path stroke="#74838f"  stroke-width="2.0"  d="M 546.7741935483871 206.0 L 546.7741935483871 214.0" />
        <text x="546.7741935483871" font-family="-apple-system, system-ui, BlinkMacSystemFont, Roboto" y="216.0" dominant-baseline="hanging" text-anchor="middle" font-size="12" fill="#24292f">Sep 2022</text>
    
        
        <path stroke="#74838f"  stroke-width="2.0"  d="M 621.2903225806451 206.0 L 621.2903225806451 214.0" />
        <text x="621.2903225806451" font-family="-apple-system, system-ui, BlinkMacSystemFont, Roboto" y="216.0" dominant-baseline="hanging" text-anchor="middle" font-size="12" fill="#24292f">Oct 2022</text>
    
        
        <path stroke="#74838f"  stroke-width="2.0"  d="M 698.2903225806452 206.0 L 698.2903225806452 214.0" />
        <text x="698.2903225806452" font-family="-apple-system, system-ui, BlinkMacSystemFont, Roboto" y="216.0" dominant-baseline="hanging" text-anchor="middle" font-size="12" fill="#24292f">Nov 2022</text>
    
        
        <path stroke="#74838f"  stroke-width="2.0"  d="M 772.8064516129032 206.0 L 772.8064516129032 214.0" />
        <text x="772.8064516129032" font-family="-apple-system, system-ui, BlinkMacSystemFont, Roboto" y="216.0" dominant-baseline="hanging" text-anchor="middle" font-size="12" fill="#24292f">Dec 2022</text>
    
        
        <path stroke="#74838f"  stroke-width="2.0"  d="M 849.8064516129033 206.0 L 849.8064516129033 214.0" />
        <text x="849.8064516129033" font-family="-apple-system, system-ui, BlinkMacSystemFont, Roboto" y="216.0" dominant-baseline="hanging" text-anchor="middle" font-size="12" fill="#24292f">Jan 2023</text>
    
        
        <path stroke="#74838f"  stroke-width="2.0"  d="M 926.8064516129033 206.0 L 926.8064516129033 214.0" />
        <text x="926.8064516129033" font-family="-apple-system, system-ui, BlinkMacSystemFont, Roboto" y="216.0" dominant-baseline="hanging" text-anchor="middle" font-size="12" fill="#24292f">Feb 2023</text>
    
    <path stroke="#74838f"   stroke-linejoin="round" stroke-width="2.0" d="M 50.0 216.0 L 50.0 206.0 L 974.0 206.0 L 974.0 216.0"  fill="none" />
    <text x="512.0" y="25.0" font-family="-apple-system, system-ui, BlinkMacSystemFont, Roboto" dominant-baseline="middle" text-anchor="middle" font-size="18" fill="#24292f">Total daily screen name changes</text>
</svg>
