<?xml version="1.0" standalone="no"?>
<svg width="1024.0" height="256.0"  viewBox="0 0 1024.0 256.0" preserveAspectRatio="xMidYMid meet" xmlns="http://www.w3.org/2000/svg">
    <path stroke="#3498db" stroke-linejoin="round" d="M 50.0 203.6288 L 50 203.6288L 53.32374100719424 202.69847272727273L 56.64748201438849 197.1845818181818L 59.97122302158273 196.04436363636364L 63.29496402877698 202.23330909090907L 66.61870503597122 197.41716363636363L 69.94244604316546 191.9202909090909L 73.26618705035972 179.96785454545454L 76.58992805755396 204.12232727272726L 79.9136690647482 194.15534545454545L 83.23741007194243 192.63505454545455L 86.56115107913669 195.1253818181818L 89.88489208633094 193.92843636363637L 93.20863309352518 182.30501818181818L 96.53237410071942 200.8605090909091L 99.85611510791367 201.54123636363636L 103.17985611510792 178.88436363636364L 106.50359712230215 197.42283636363635L 109.82733812949641 198.54603636363635L 113.15107913669065 200.49178181818183L 116.47482014388488 201.1952L 119.79856115107914 202.3184L 123.12230215827337 195.17076363636363L 126.44604316546763 198.08087272727272L 129.76978417266187 183.42254545454546L 133.0935251798561 197.55898181818182L 136.41726618705036 202.0631272727273L 139.74100719424462 194.67156363636363L 143.06474820143885 200.7584L 146.3884892086331 200.04363636363638L 149.71223021582733 201.97803636363636L 153.0359712230216 204.52509090909092L 156.35971223021585 201.85323636363637L 159.68345323741005 201.02501818181818L 163.0071942446043 175.0269090909091L 166.33093525179856 195.76072727272728L 169.65467625899282 204.0032L 172.97841726618705 203.75927272727273L 176.3021582733813 197.88232727272728L 179.62589928057554 202.60770909090908L 182.94964028776977 202.7949090909091L 186.27338129496403 197.58167272727272L 189.59712230215828 186.49716363636364L 192.92086330935254 199.2778181818182L 196.24460431654674 199.62952727272727L 199.568345323741 193.53134545454546L 202.89208633093526 199.1530181818182L 206.2158273381295 201.55825454545453L 209.53956834532374 201.60363636363635L 212.86330935251797 195.1026909090909L 216.18705035971223 201.70007272727273L 219.51079136690646 197.27534545454546L 222.83453237410072 172.3664L 226.15827338129498 203.20901818181818L 229.48201438848923 199.7146181818182L 232.80575539568343 193.1456L 236.1294964028777 196.9293090909091L 239.45323741007195 199.8394181818182L 242.7769784172662 198.83534545454546L 246.10071942446044 204.1336727272727L 249.42446043165467 202.70981818181818L 252.74820143884892 198.92043636363636L 256.0719424460432 206L 259.39568345323744 204.128L 262.7194244604317 192.10749090909093L 266.0431654676259 206L 269.3669064748201 206L 272.69064748201436 206L 276.0143884892086 206L 279.33812949640287 197.35476363636363L 282.66187050359713 199.57847272727273L 285.9856115107914 188.89672727272728L 289.30935251798564 195.27287272727273L 292.63309352517985 191.20552727272727L 295.9568345323741 166.7957818181818L 299.2805755395683 203.88407272727272L 302.6043165467626 198.09221818181817L 305.9280575539568 201.68305454545455L 309.2517985611511 202.2957090909091L 312.57553956834533 203.24872727272728L 315.89928057553954 200.68465454545455L 319.22302158273385 191.51752727272728L 322.54676258992805 189.18036363636364L 325.87050359712225 203.88407272727272L 329.19424460431657 197.5533090909091L 332.51798561151077 187.42749090909092L 335.8417266187051 201.25192727272727L 339.1654676258993 200.44072727272726L 342.4892086330935 201.4674909090909L 345.8129496402878 201.09876363636363L 349.136690647482 201.20087272727272L 352.46043165467626 193.01512727272728L 355.7841726618705 198.8013090909091L 359.1079136690647 203.39054545454545L 362.431654676259 200.30458181818182L 365.75539568345323 198.5517090909091L 369.0791366906475 193.31578181818182L 372.40287769784175 200.55985454545456L 375.72661870503595 203.03883636363636L 379.0503597122302 197.33207272727273L 382.37410071942446 201.95534545454547L 385.6978417266187 196.0784L 389.0215827338129 202.32974545454545L 392.3453237410072 199.91316363636363L 395.66906474820144 194.67156363636363L 398.9928057553957 201.29163636363637L 402.31654676258995 202.99912727272726L 405.64028776978415 203.53803636363637L 408.96402877697847 200.64494545454545L 412.28776978417267 195.5735272727273L 415.61151079136687 203.29978181818183L 418.9352517985612 200.16843636363637L 422.2589928057554 198.45527272727273L 425.58273381294964 201.70007272727273L 428.9064748201439 200.73003636363637L 432.2302158273381 200.44639999999998L 435.5539568345324 201.76247272727272L 438.8776978417266 204.6442181818182L 442.2014388489209 206L 445.52517985611513 196.3904L 448.84892086330933 199.20407272727272L 452.1726618705036 156.8061090909091L 455.49640287769785 165.09963636363636L 458.8201438848921 204.2925090909091L 462.1438848920863 202.17658181818183L 465.46762589928056 199.31185454545454L 468.7913669064748 198.85236363636363L 472.1151079136691 202.69847272727273L 475.43884892086334 202.85163636363637L 478.76258992805754 196.19185454545453L 482.0863309352518 199.68058181818182L 485.41007194244605 198.2L 488.73381294964025 201.2178909090909L 492.05755395683457 201.84189090909092L 495.38129496402877 201.90429090909092L 498.705035971223 200.18545454545455L 502.0287769784173 195.21614545454545L 505.3525179856115 206L 508.6762589928058 206L 512 206L 515.3237410071943 191.46647272727273L 518.6474820143885 197.83694545454546L 521.9712230215828 198.85803636363636L 525.294964028777 199.77701818181816L 528.6187050359713 200.11170909090907L 531.9424460431654 200.76974545454544L 535.2661870503597 201.80785454545455L 538.5899280575541 191.63665454545455L 541.9136690647482 194.44465454545454L 545.2374100719425 199.89047272727274L 548.5611510791366 152.5629090909091L 551.8848920863309 197.1789090909091L 555.2086330935252 194.46167272727274L 558.5323741007194 155.8701090909091L 561.8561151079136 91.5130181818182L 565.1798561151079 104.48087272727274L 568.5035971223022 151.15607272727271L 571.8273381294964 185.23214545454545L 575.1510791366907 142.71505454545454L 578.4748201438849 124.99345454545455L 581.7985611510791 123.6546909090909L 585.1223021582733 157.9293090909091L 588.4460431654677 53.36392727272727L 591.7697841726618 50.584290909090896L 595.0935251798561 99.88596363636364L 598.4172661870504 156.18210909090908L 601.7410071942445 180.3138909090909L 605.0647482014389 192.4194909090909L 608.3884892086331 193.69018181818183L 611.7122302158274 193.32712727272727L 615.0359712230215 192.1245090909091L 618.3597122302158 197.93338181818183L 621.6834532374102 191.55723636363638L 625.0071942446043 198.75592727272726L 628.3309352517986 199.31185454545454L 631.6546762589928 201.64901818181818L 634.978417266187 200.58254545454545L 638.3021582733813 202.47723636363637L 641.6258992805756 200.73003636363637L 644.9496402877697 190.03127272727272L 648.273381294964 203.16930909090908L 651.5971223021583 200.48610909090908L 654.9208633093525 185.14705454545455L 658.2446043165468 187.9834181818182L 661.568345323741 190.99563636363638L 664.8920863309352 192.3117090909091L 668.2158273381294 177.0861090909091L 671.5395683453238 167.8736L 674.863309352518 179.36087272727272L 678.1870503597122 186.44043636363637L 681.5107913669065 150.2370909090909L 684.8345323741007 184.27912727272727L 688.158273381295 199.54443636363635L 691.4820143884892 161.16843636363637L 694.8057553956835 155.5410909090909L 698.1294964028776 176.99534545454546L 701.4532374100719 190.28654545454546L 704.7769784172663 193.50865454545453L 708.1007194244604 201.71141818181817L 711.4244604316547 185.21512727272727L 714.7482014388489 192.05643636363635L 718.0719424460431 192.7088L 721.3956834532374 180.1493818181818L 724.7194244604317 194.51839999999999L 728.0431654676258 194.69992727272728L 731.3669064748201 201.86458181818182L 734.6906474820144 196.2032L 738.0143884892086 204.5024L 741.3381294964029 191.57425454545455L 744.6618705035971 180.37061818181817L 747.9856115107914 193.02647272727273L 751.3093525179856 186.22487272727273L 754.6330935251799 191.7330909090909L 757.9568345323742 191.4608L 761.2805755395683 196.62865454545454L 764.6043165467626 200.84349090909092L 767.9280575539569 176.26923636363637L 771.2517985611511 165.67825454545454L 774.5755395683453 181.80581818181818L 777.8992805755396 160.68058181818182L 781.2230215827337 163.8402909090909L 784.5467625899281 182.06109090909092L 787.8705035971224 130.81367272727272L 791.1942446043165 190.47374545454545L 794.5179856115108 202.09716363636363L 797.841726618705 184.08058181818183L 801.1654676258993 197.49658181818182L 804.4892086330935 187.55796363636364L 807.8129496402878 192.95272727272726L 811.136690647482 201.91563636363637L 814.4604316546762 184.39825454545453L 817.7841726618706 184.9088L 821.1079136690648 182.26530909090908L 824.431654676259 182.46385454545455L 827.7553956834532 186.32698181818182L 831.0791366906475 174.32916363636363L 834.4028776978417 183.09352727272727L 837.726618705036 183.4962909090909L 841.0503597122303 184.5344L 844.3741007194244 186.95098181818182L 847.6978417266187 169.85338181818182L 851.021582733813 168.34443636363636L 854.3453237410072 203.32247272727273L 857.6690647482014 206L 860.9928057553957 128.312L 864.3165467625898 183.24669090909092L 867.6402877697842 156.78341818181818L 870.9640287769785 183.05381818181817L 874.2877697841726 183.1389090909091L 877.6115107913669 182.29934545454546L 880.9352517985611 169.98385454545453L 884.2589928057555 186.7808L 887.5827338129496 183.6608L 890.9064748201439 186.2589090909091L 894.2302158273382 184.14865454545455L 897.5539568345323 184.89745454545454L 900.8776978417267 178.07316363636363L 904.2014388489209 180.65425454545453L 907.5251798561151 170.63054545454546L 910.8489208633093 177.93134545454546L 914.1726618705036 175.87214545454546L 917.4964028776978 174.29512727272729L 920.8201438848921 175.29919999999998L 924.1438848920864 196.89527272727273L 927.4676258992805 150.05556363636364L 930.7913669064748 167.05672727272727L 934.1151079136691 174.29512727272729L 937.4388489208633 131.6589090909091L 940.7625899280575 144.42254545454546L 944.0863309352518 173.35345454545455L 947.410071942446 151.68363636363637L 950.7338129496403 194.1042909090909L 954.0575539568346 160.01687272727273L 957.3812949640288 206L 960.705035971223 206L 964.0287769784172 206L 967.3525179856116 206L 970.6762589928057 206L 974 206" stroke-width="2.0" fill="none" />
    
        
        
        <text x="45.0" font-family="-apple-system, system-ui, BlinkMacSystemFont, Roboto" y="50.0" dominant-baseline="middle" text-anchor="end" font-size="12" fill="#24292f">27500.0</text>
        
            
            <path stroke="#74838f" stroke-dasharray="10 6" stroke-width="0.5"  d="M 50.0 50.0 L 974.0 50.0" />
        
    
        
        
        <text x="45.0" font-family="-apple-system, system-ui, BlinkMacSystemFont, Roboto" y="81.2" dominant-baseline="middle" text-anchor="end" font-size="12" fill="#24292f">22000.0</text>
        
            
            
            <path stroke="#74838f" stroke-dasharray="10 6" stroke-width="0.5"  d="M 50.0 81.2 L 974.0 81.2" />
        
    
        
        
        <text x="45.0" font-family="-apple-system, system-ui, BlinkMacSystemFont, Roboto" y="112.4" dominant-baseline="middle" text-anchor="end" font-size="12" fill="#24292f">16500.0</text>
        
            
            
            <path stroke="#74838f" stroke-dasharray="10 6" stroke-width="0.5"  d="M 50.0 112.4 L 974.0 112.4" />
        
    
        
        
        <text x="45.0" font-family="-apple-system, system-ui, BlinkMacSystemFont, Roboto" y="143.6" dominant-baseline="middle" text-anchor="end" font-size="12" fill="#24292f">11000.0</text>
        
            
            
            <path stroke="#74838f" stroke-dasharray="10 6" stroke-width="0.5"  d="M 50.0 143.6 L 974.0 143.6" />
        
    
        
        
        <text x="45.0" font-family="-apple-system, system-ui, BlinkMacSystemFont, Roboto" y="174.8" dominant-baseline="middle" text-anchor="end" font-size="12" fill="#24292f">5500.0</text>
        
            
            
            <path stroke="#74838f" stroke-dasharray="10 6" stroke-width="0.5"  d="M 50.0 174.8 L 974.0 174.8" />
        
    
        
        
        <text x="45.0" font-family="-apple-system, system-ui, BlinkMacSystemFont, Roboto" y="206.0" dominant-baseline="middle" text-anchor="end" font-size="12" fill="#24292f">0.0</text>
        
    
    
        
        <path stroke="#74838f"  stroke-width="2.0"  d="M 103.17985611510792 206.0 L 103.17985611510792 214.0" />
        <text x="103.17985611510792" font-family="-apple-system, system-ui, BlinkMacSystemFont, Roboto" y="216.0" dominant-baseline="hanging" text-anchor="middle" font-size="12" fill="#24292f">Mar 2022</text>
    
        
        <path stroke="#74838f"  stroke-width="2.0"  d="M 206.2158273381295 206.0 L 206.2158273381295 214.0" />
        <text x="206.2158273381295" font-family="-apple-system, system-ui, BlinkMacSystemFont, Roboto" y="216.0" dominant-baseline="hanging" text-anchor="middle" font-size="12" fill="#24292f">Apr 2022</text>
    
        
        <path stroke="#74838f"  stroke-width="2.0"  d="M 305.9280575539568 206.0 L 305.9280575539568 214.0" />
        <text x="305.9280575539568" font-family="-apple-system, system-ui, BlinkMacSystemFont, Roboto" y="216.0" dominant-baseline="hanging" text-anchor="middle" font-size="12" fill="#24292f">May 2022</text>
    
        
        <path stroke="#74838f"  stroke-width="2.0"  d="M 408.96402877697847 206.0 L 408.96402877697847 214.0" />
        <text x="408.96402877697847" font-family="-apple-system, system-ui, BlinkMacSystemFont, Roboto" y="216.0" dominant-baseline="hanging" text-anchor="middle" font-size="12" fill="#24292f">Jun 2022</text>
    
        
        <path stroke="#74838f"  stroke-width="2.0"  d="M 508.6762589928058 206.0 L 508.6762589928058 214.0" />
        <text x="508.6762589928058" font-family="-apple-system, system-ui, BlinkMacSystemFont, Roboto" y="216.0" dominant-baseline="hanging" text-anchor="middle" font-size="12" fill="#24292f">Jul 2022</text>
    
        
        <path stroke="#74838f"  stroke-width="2.0"  d="M 611.7122302158274 206.0 L 611.7122302158274 214.0" />
        <text x="611.7122302158274" font-family="-apple-system, system-ui, BlinkMacSystemFont, Roboto" y="216.0" dominant-baseline="hanging" text-anchor="middle" font-size="12" fill="#24292f">Aug 2022</text>
    
        
        <path stroke="#74838f"  stroke-width="2.0"  d="M 714.7482014388489 206.0 L 714.7482014388489 214.0" />
        <text x="714.7482014388489" font-family="-apple-system, system-ui, BlinkMacSystemFont, Roboto" y="216.0" dominant-baseline="hanging" text-anchor="middle" font-size="12" fill="#24292f">Sep 2022</text>
    
        
        <path stroke="#74838f"  stroke-width="2.0"  d="M 814.4604316546762 206.0 L 814.4604316546762 214.0" />
        <text x="814.4604316546762" font-family="-apple-system, system-ui, BlinkMacSystemFont, Roboto" y="216.0" dominant-baseline="hanging" text-anchor="middle" font-size="12" fill="#24292f">Oct 2022</text>
    
        
        <path stroke="#74838f"  stroke-width="2.0"  d="M 917.4964028776978 206.0 L 917.4964028776978 214.0" />
        <text x="917.4964028776978" font-family="-apple-system, system-ui, BlinkMacSystemFont, Roboto" y="216.0" dominant-baseline="hanging" text-anchor="middle" font-size="12" fill="#24292f">Nov 2022</text>
    
    <path stroke="#74838f"   stroke-linejoin="round" stroke-width="2.0" d="M 50.0 216.0 L 50.0 206.0 L 974.0 206.0 L 974.0 216.0"  fill="none" />
    <text x="512.0" y="25.0" font-family="-apple-system, system-ui, BlinkMacSystemFont, Roboto" dominant-baseline="middle" text-anchor="middle" font-size="18" fill="#24292f">Total daily screen name changes</text>
</svg>
