<?xml version="1.0" standalone="no"?>
<svg width="1024.0" height="256.0"  viewBox="0 0 1024.0 256.0" preserveAspectRatio="xMidYMid meet" xmlns="http://www.w3.org/2000/svg">
    <path stroke="#3498db" stroke-linejoin="round" d="M 50.0 203.3394909090909 L 50 203.3394909090909L 52.10478359908884 202.32974545454545L 54.20956719817768 196.86690909090908L 56.31435079726651 195.94792727272727L 58.41913439635535 202.14254545454546L 60.523917995444194 197.35476363636363L 62.62870159453303 191.76145454545454L 64.73348519362187 179.96218181818182L 66.8382687927107 204.09396363636364L 68.94305239179954 194.17236363636363L 71.04783599088839 192.61803636363635L 73.15261958997722 195.1253818181818L 75.25740318906605 193.92843636363637L 77.3621867881549 182.2482909090909L 79.46697038724373 200.86618181818181L 81.57175398633257 201.45614545454546L 83.67653758542141 178.89003636363637L 85.78132118451026 197.33774545454546L 87.88610478359908 198.50065454545455L 89.99088838268793 200.41803636363636L 92.09567198177677 201.18385454545455L 94.20045558086561 202.26734545454545L 96.30523917995444 195.09134545454546L 98.41002277904329 198.08087272727272L 100.51480637813212 183.38850909090908L 102.61958997722095 197.47389090909093L 104.7243735763098 202.01774545454546L 106.82915717539863 194.66021818181818L 108.93394077448747 200.75272727272727L 111.03872437357631 200.00392727272728L 113.14350797266515 201.97236363636364L 115.24829157175398 204.2754909090909L 117.35307517084283 201.74545454545455L 119.45785876993166 201.01367272727273L 121.56264236902051 174.7829818181818L 123.66742596810934 195.76072727272728L 125.77220956719817 204.0032L 127.87699316628702 203.7309090909091L 129.98177676537586 197.87665454545453L 132.08656036446467 202.60770909090908L 134.19134396355355 202.6928L 136.29612756264237 197.55898181818182L 138.40091116173122 186.5141818181818L 140.50569476082006 199.26647272727274L 142.61047835990888 199.5728L 144.7152619589977 193.4802909090909L 146.82004555808658 199.10763636363635L 148.9248291571754 201.54690909090908L 151.02961275626424 201.5696L 153.1343963553531 195.06865454545454L 155.2391799544419 201.70007272727273L 157.34396355353073 197.2866909090909L 159.4487471526196 172.35505454545455L 161.55353075170842 203.20901818181818L 163.65831435079727 199.6749090909091L 165.76309794988612 193.12858181818183L 167.86788154897494 196.8896L 169.97266514806378 199.78836363636364L 172.07744874715263 198.82967272727274L 174.18223234624145 204.1336727272727L 176.2870159453303 202.57934545454546L 178.39179954441914 198.9261090909091L 180.49658314350796 206L 182.6013667425968 204.128L 184.70615034168566 192.1245090909091L 186.81093394077448 206L 188.91571753986332 206L 191.02050113895214 206L 193.12528473804102 206L 195.23006833712984 197.37178181818183L 197.33485193621868 199.57847272727273L 199.43963553530753 188.9024L 201.54441913439635 195.02894545454546L 203.6492027334852 191.20552727272727L 205.75398633257404 166.8128L 207.85876993166286 203.8386909090909L 209.9635535307517 198.09221818181817L 212.06833712984053 201.64334545454545L 214.17312072892938 202.2957090909091L 216.27790432801822 203.22036363636363L 218.38268792710707 200.66763636363635L 220.48747152619592 191.51185454545455L 222.59225512528474 189.18603636363636L 224.69703872437358 203.86705454545455L 226.80182232346243 197.56465454545454L 228.90660592255125 187.32538181818182L 231.0113895216401 201.2349090909091L 233.11617312072892 200.44639999999998L 235.22095671981776 201.4618181818182L 237.3257403189066 201.09876363636363L 239.43052391799543 201.17818181818183L 241.53530751708428 193.02647272727273L 243.64009111617312 198.8069818181818L 245.74487471526197 203.39054545454545L 247.8496583143508 200.30458181818182L 249.95444191343964 198.35883636363636L 252.05922551252849 193.3101090909091L 254.1640091116173 200.56552727272728L 256.2687927107062 203.03883636363636L 258.373576309795 197.22996363636364L 260.4783599088838 201.95534545454547L 262.58314350797264 196.016L 264.68792710706145 202.30705454545455L 266.79271070615033 199.91316363636363L 268.8974943052392 194.62050909090908L 271.002277904328 201.29163636363637L 273.10706150341684 202.98778181818182L 275.21184510250566 203.5437090909091L 277.31662870159454 200.60523636363638L 279.4214123006834 195.5621818181818L 281.52619589977223 203.24305454545456L 283.63097949886105 200.15709090909093L 285.73576309794987 198.46661818181818L 287.84054669703875 201.70007272727273L 289.94533029612757 200.70734545454545L 292.05011389521644 200.4293818181818L 294.15489749430526 201.76814545454545L 296.2596810933941 204.6442181818182L 298.3644646924829 206L 300.4692482915718 196.35636363636365L 302.5740318906606 199.21541818181817L 304.67881548974947 156.87418181818182L 306.7835990888383 165.1506909090909L 308.8883826879271 204.1733818181818L 310.9931662870159 202.17658181818183L 313.0979498861048 199.31185454545454L 315.2027334851936 198.7842909090909L 317.30751708428244 202.6757818181818L 319.4123006833713 202.8573090909091L 321.51708428246013 196.1861818181818L 323.62186788154895 199.64654545454545L 325.72665148063777 198.2056727272727L 327.83143507972665 201.2178909090909L 329.93621867881546 201.79083636363637L 332.0410022779043 201.90429090909092L 334.1457858769932 200.1968L 336.25056947608203 195.17076363636363L 338.35535307517085 206L 340.4601366742597 206L 342.56492027334855 206L 344.66970387243737 191.4834909090909L 346.7744874715262 197.79723636363636L 348.87927107061506 198.85236363636363L 350.9840546697039 199.76L 353.0888382687927 200.03796363636363L 355.1936218678816 200.76407272727272L 357.2984054669704 201.80785454545455L 359.4031890660592 191.63098181818182L 361.5079726651481 194.41061818181817L 363.6127562642369 199.88479999999998L 365.7175398633257 152.63098181818182L 367.82232346241454 197.04843636363637L 369.9271070615034 194.4730181818182L 372.03189066059224 155.90414545454547L 374.13667425968106 91.60945454545454L 376.24145785876993 104.5376L 378.34624145785875 151.17876363636364L 380.45102505694757 185.1981090909091L 382.55580865603645 142.76610909090908L 384.6605922551253 125.0672L 386.76537585421414 123.74545454545455L 388.87015945330296 157.99738181818182L 390.97494305239184 53.56814545454546L 393.07972665148066 50.78850909090909L 395.1845102505695 100.02210909090908L 397.28929384965835 156.2445090909091L 399.39407744874717 180.31956363636363L 401.498861047836 192.43650909090908L 403.60364464692486 193.63912727272728L 405.7084282460137 193.3328L 407.8132118451025 192.11316363636365L 409.9179954441913 197.93338181818183L 412.0227790432802 191.5629090909091L 414.127562642369 198.7672727272727L 416.23234624145783 199.3005090909091L 418.3371298405467 201.64901818181818L 420.4419134396355 200.58821818181818L 422.54669703872435 202.43752727272727L 424.6514806378132 200.73003636363637L 426.75626423690204 189.7703272727273L 428.86104783599086 203.17498181818183L 430.9658314350797 200.48610909090908L 433.07061503416855 185.1810909090909L 435.17539863325743 187.88698181818182L 437.28018223234625 191.01832727272728L 439.3849658314351 192.31738181818181L 441.48974943052394 177.09745454545455L 443.59453302961276 167.91330909090908L 445.6993166287016 179.30981818181817L 447.80410022779046 186.49716363636364L 449.9088838268793 150.34487272727273L 452.0136674259681 184.27345454545454L 454.11845102505697 199.5104L 456.2232346241458 161.24785454545454L 458.3280182232346 155.49003636363636L 460.4328018223235 176.96130909090908L 462.5375854214123 190.30923636363636L 464.6423690205011 193.50865454545453L 466.74715261959 201.72843636363638L 468.8519362186788 185.22647272727272L 470.95671981776763 192.03374545454545L 473.06150341685645 192.66909090909093L 475.16628701594533 180.18341818181818L 477.27107061503415 194.5013818181818L 479.37585421412297 194.6829090909091L 481.48063781321184 201.85323636363637L 483.58542141230066 196.2032L 485.6902050113895 204.49105454545455L 487.79498861047836 191.55723636363638L 489.89977220956723 180.36494545454545L 492.00455580865605 193.02647272727273L 494.10933940774487 186.20785454545455L 496.21412300683374 191.72741818181817L 498.31890660592256 191.4834909090909L 500.4236902050114 196.63432727272726L 502.52847380410026 200.7810909090909L 504.6332574031891 176.26923636363637L 506.7380410022779 165.78036363636363L 508.8428246013668 181.82850909090908L 510.9476082004556 160.6976L 513.0523917995445 163.93105454545454L 515.1571753986333 182.10647272727272L 517.2619589977221 130.808L 519.366742596811 190.49643636363635L 521.4715261958997 202.0914909090909L 523.5763097949887 184.09192727272728L 525.6810933940775 197.50225454545455L 527.7858769931663 187.54094545454547L 529.8906605922551 192.95272727272726L 531.995444191344 201.88727272727272L 534.1002277904329 184.33585454545454L 536.2050113895216 183.04814545454545L 538.3097949886105 182.36741818181818L 540.4145785876993 182.54327272727272L 542.5193621867882 186.38938181818182L 544.6241457858771 174.3858909090909L 546.7289293849658 183.1786181818182L 548.8337129840547 183.5133090909091L 550.9384965831435 184.60247272727273L 553.0432801822324 186.968L 555.1480637813212 170.00087272727274L 557.25284738041 167.8338909090909L 559.3576309794989 203.32247272727273L 561.4624145785876 206L 563.5671981776766 128.43112727272728L 565.6719817767654 183.2637090909091L 567.7767653758542 156.8685090909091L 569.881548974943 183.15592727272727L 571.9863325740318 183.2013090909091L 574.0911161731207 182.25963636363636L 576.1958997722096 170.18807272727273L 578.3006833712984 186.86589090909092L 580.4054669703872 183.77425454545454L 582.510250569476 186.29861818181817L 584.6150341685649 184.17134545454545L 586.7198177676537 184.9655272727273L 588.8246013667426 178.1696L 590.9293849658314 180.70530909090908L 593.0341685649203 170.80072727272727L 595.1389521640091 177.99374545454546L 597.2437357630979 175.99127272727273L 599.3485193621867 173.75621818181818L 601.4533029612755 175.45803636363638L 603.5580865603645 196.91796363636365L 605.6628701594533 150.30516363636363L 607.7676537585421 167.34036363636363L 609.8724373576309 174.52203636363637L 611.9772209567197 132.05599999999998L 614.0820045558086 144.8309818181818L 616.1867881548975 173.60872727272726L 618.2915717539864 151.91054545454546L 620.3963553530753 194.03621818181819L 622.5011389521641 160.59549090909093L 624.6059225512529 206L 626.7107061503417 153.43650909090908L 628.8154897494305 181.01163636363637L 630.9202733485193 181.6413090909091L 633.0250569476083 182.49221818181817L 635.1298405466971 183.08785454545455L 637.2346241457859 206L 639.3394077448747 151.86516363636363L 641.4441913439636 172.45716363636365L 643.5489749430524 169.20669090909092L 645.6537585421413 178.22065454545455L 647.7585421412301 175.54312727272728L 649.8633257403189 177.61367272727273L 651.9681093394078 181.0173090909091L 654.0728929384966 176.80814545454547L 656.1776765375854 167.8962909090909L 658.2824601366742 167.1248L 660.3872437357631 176.62094545454545L 662.492027334852 158.63272727272727L 664.5968109339408 151.3602909090909L 666.7015945330296 173.35345454545455L 668.8063781321184 206L 670.9111617312072 206L 673.0159453302962 206L 675.120728929385 206L 677.2255125284738 206L 679.3302961275626 206L 681.4350797266515 206L 683.5398633257403 206L 685.6446469248291 206L 687.749430523918 206L 689.8542141230068 206L 691.9589977220957 206L 694.0637813211845 206L 696.1685649202733 206L 698.2733485193621 206L 700.3781321184509 206L 702.4829157175399 206L 704.5876993166287 206L 706.6924829157175 206L 708.7972665148063 206L 710.9020501138951 206L 713.006833712984 206L 715.1116173120729 206L 717.2164009111617 206L 719.3211845102506 206L 721.4259681093395 206L 723.5307517084283 206L 725.6355353075171 206L 727.7403189066059 206L 729.8451025056949 206L 731.9498861047837 206L 734.0546697038725 206L 736.1594533029613 206L 738.2642369020501 206L 740.369020501139 206L 742.4738041002278 206L 744.5785876993167 206L 746.6833712984055 206L 748.7881548974943 206L 750.8929384965832 206L 752.997722095672 206L 755.1025056947608 206L 757.2072892938497 206L 759.3120728929385 206L 761.4168564920274 206L 763.5216400911162 206L 765.626423690205 206L 767.7312072892938 206L 769.8359908883826 206L 771.9407744874716 206L 774.0455580865604 206L 776.1503416856492 206L 778.255125284738 206L 780.3599088838268 206L 782.4646924829157 206L 784.5694760820045 206L 786.6742596810934 206L 788.7790432801822 206L 790.883826879271 206L 792.9886104783599 206L 795.0933940774487 206L 797.1981776765375 206L 799.3029612756264 206L 801.4077448747153 206L 803.5125284738041 206L 805.6173120728929 206L 807.7220956719817 206L 809.8268792710705 206L 811.9316628701594 206L 814.0364464692483 206L 816.1412300683371 206L 818.2460136674259 206L 820.3507972665149 206L 822.4555808656037 206L 824.5603644646925 206L 826.6651480637813 206L 828.7699316628702 206L 830.8747152619591 206L 832.9794988610479 206L 835.0842824601367 206L 837.1890660592255 206L 839.2938496583143 206L 841.3986332574032 206L 843.5034168564921 206L 845.6082004555809 206L 847.7129840546697 206L 849.8177676537586 206L 851.9225512528474 206L 854.0273348519362 206L 856.1321184510251 206L 858.2369020501139 206L 860.3416856492028 206L 862.4464692482916 206L 864.5512528473804 206L 866.6560364464692 206L 868.760820045558 206L 870.865603644647 206L 872.9703872437358 206L 875.0751708428246 206L 877.1799544419134 206L 879.2847380410022 206L 881.3895216400911 206L 883.49430523918 206L 885.5990888382688 206L 887.7038724373576 206L 889.8086560364465 206L 891.9134396355353 206L 894.0182232346241 206L 896.1230068337129 206L 898.2277904328018 206L 900.3325740318907 206L 902.4373576309795 206L 904.5421412300683 206L 906.6469248291571 206L 908.7517084282459 206L 910.8564920273349 206L 912.9612756264237 206L 915.0660592255125 206L 917.1708428246013 206L 919.2756264236901 206L 921.380410022779 206L 923.4851936218679 206L 925.5899772209567 206L 927.6947608200456 206L 929.7995444191345 206L 931.9043280182233 206L 934.0091116173121 206L 936.1138952164009 206L 938.2186788154897 206L 940.3234624145787 206L 942.4282460136675 206L 944.5330296127563 206L 946.6378132118451 206L 948.742596810934 206L 950.8473804100228 206L 952.9521640091116 206L 955.0569476082005 206L 957.1617312072893 206L 959.2665148063782 206L 961.371298405467 206L 963.4760820045558 206L 965.5808656036446 206L 967.6856492027335 206L 969.7904328018224 206L 971.8952164009112 206L 974 206" stroke-width="2.0" fill="none" />
    
        
        
        <text x="45.0" font-family="-apple-system, system-ui, BlinkMacSystemFont, Roboto" y="50.0" dominant-baseline="middle" text-anchor="end" font-size="12" fill="#24292f">27500.0</text>
        
            
            <path stroke="#74838f" stroke-dasharray="10 6" stroke-width="0.5"  d="M 50.0 50.0 L 974.0 50.0" />
        
    
        
        
        <text x="45.0" font-family="-apple-system, system-ui, BlinkMacSystemFont, Roboto" y="81.2" dominant-baseline="middle" text-anchor="end" font-size="12" fill="#24292f">22000.0</text>
        
            
            
            <path stroke="#74838f" stroke-dasharray="10 6" stroke-width="0.5"  d="M 50.0 81.2 L 974.0 81.2" />
        
    
        
        
        <text x="45.0" font-family="-apple-system, system-ui, BlinkMacSystemFont, Roboto" y="112.4" dominant-baseline="middle" text-anchor="end" font-size="12" fill="#24292f">16500.0</text>
        
            
            
            <path stroke="#74838f" stroke-dasharray="10 6" stroke-width="0.5"  d="M 50.0 112.4 L 974.0 112.4" />
        
    
        
        
        <text x="45.0" font-family="-apple-system, system-ui, BlinkMacSystemFont, Roboto" y="143.6" dominant-baseline="middle" text-anchor="end" font-size="12" fill="#24292f">11000.0</text>
        
            
            
            <path stroke="#74838f" stroke-dasharray="10 6" stroke-width="0.5"  d="M 50.0 143.6 L 974.0 143.6" />
        
    
        
        
        <text x="45.0" font-family="-apple-system, system-ui, BlinkMacSystemFont, Roboto" y="174.8" dominant-baseline="middle" text-anchor="end" font-size="12" fill="#24292f">5500.0</text>
        
            
            
            <path stroke="#74838f" stroke-dasharray="10 6" stroke-width="0.5"  d="M 50.0 174.8 L 974.0 174.8" />
        
    
        
        
        <text x="45.0" font-family="-apple-system, system-ui, BlinkMacSystemFont, Roboto" y="206.0" dominant-baseline="middle" text-anchor="end" font-size="12" fill="#24292f">0.0</text>
        
    
    
        
        <path stroke="#74838f"  stroke-width="2.0"  d="M 83.67653758542141 206.0 L 83.67653758542141 214.0" />
        <text x="83.67653758542141" font-family="-apple-system, system-ui, BlinkMacSystemFont, Roboto" y="216.0" dominant-baseline="hanging" text-anchor="middle" font-size="12" fill="#24292f">Mar 2022</text>
    
        
        <path stroke="#74838f"  stroke-width="2.0"  d="M 148.9248291571754 206.0 L 148.9248291571754 214.0" />
        <text x="148.9248291571754" font-family="-apple-system, system-ui, BlinkMacSystemFont, Roboto" y="216.0" dominant-baseline="hanging" text-anchor="middle" font-size="12" fill="#24292f">Apr 2022</text>
    
        
        <path stroke="#74838f"  stroke-width="2.0"  d="M 212.06833712984053 206.0 L 212.06833712984053 214.0" />
        <text x="212.06833712984053" font-family="-apple-system, system-ui, BlinkMacSystemFont, Roboto" y="216.0" dominant-baseline="hanging" text-anchor="middle" font-size="12" fill="#24292f">May 2022</text>
    
        
        <path stroke="#74838f"  stroke-width="2.0"  d="M 277.31662870159454 206.0 L 277.31662870159454 214.0" />
        <text x="277.31662870159454" font-family="-apple-system, system-ui, BlinkMacSystemFont, Roboto" y="216.0" dominant-baseline="hanging" text-anchor="middle" font-size="12" fill="#24292f">Jun 2022</text>
    
        
        <path stroke="#74838f"  stroke-width="2.0"  d="M 340.4601366742597 206.0 L 340.4601366742597 214.0" />
        <text x="340.4601366742597" font-family="-apple-system, system-ui, BlinkMacSystemFont, Roboto" y="216.0" dominant-baseline="hanging" text-anchor="middle" font-size="12" fill="#24292f">Jul 2022</text>
    
        
        <path stroke="#74838f"  stroke-width="2.0"  d="M 405.7084282460137 206.0 L 405.7084282460137 214.0" />
        <text x="405.7084282460137" font-family="-apple-system, system-ui, BlinkMacSystemFont, Roboto" y="216.0" dominant-baseline="hanging" text-anchor="middle" font-size="12" fill="#24292f">Aug 2022</text>
    
        
        <path stroke="#74838f"  stroke-width="2.0"  d="M 470.95671981776763 206.0 L 470.95671981776763 214.0" />
        <text x="470.95671981776763" font-family="-apple-system, system-ui, BlinkMacSystemFont, Roboto" y="216.0" dominant-baseline="hanging" text-anchor="middle" font-size="12" fill="#24292f">Sep 2022</text>
    
        
        <path stroke="#74838f"  stroke-width="2.0"  d="M 534.1002277904329 206.0 L 534.1002277904329 214.0" />
        <text x="534.1002277904329" font-family="-apple-system, system-ui, BlinkMacSystemFont, Roboto" y="216.0" dominant-baseline="hanging" text-anchor="middle" font-size="12" fill="#24292f">Oct 2022</text>
    
        
        <path stroke="#74838f"  stroke-width="2.0"  d="M 599.3485193621867 206.0 L 599.3485193621867 214.0" />
        <text x="599.3485193621867" font-family="-apple-system, system-ui, BlinkMacSystemFont, Roboto" y="216.0" dominant-baseline="hanging" text-anchor="middle" font-size="12" fill="#24292f">Nov 2022</text>
    
        
        <path stroke="#74838f"  stroke-width="2.0"  d="M 662.492027334852 206.0 L 662.492027334852 214.0" />
        <text x="662.492027334852" font-family="-apple-system, system-ui, BlinkMacSystemFont, Roboto" y="216.0" dominant-baseline="hanging" text-anchor="middle" font-size="12" fill="#24292f">Dec 2022</text>
    
        
        <path stroke="#74838f"  stroke-width="2.0"  d="M 727.7403189066059 206.0 L 727.7403189066059 214.0" />
        <text x="727.7403189066059" font-family="-apple-system, system-ui, BlinkMacSystemFont, Roboto" y="216.0" dominant-baseline="hanging" text-anchor="middle" font-size="12" fill="#24292f">Jan 2023</text>
    
        
        <path stroke="#74838f"  stroke-width="2.0"  d="M 792.9886104783599 206.0 L 792.9886104783599 214.0" />
        <text x="792.9886104783599" font-family="-apple-system, system-ui, BlinkMacSystemFont, Roboto" y="216.0" dominant-baseline="hanging" text-anchor="middle" font-size="12" fill="#24292f">Feb 2023</text>
    
        
        <path stroke="#74838f"  stroke-width="2.0"  d="M 851.9225512528474 206.0 L 851.9225512528474 214.0" />
        <text x="851.9225512528474" font-family="-apple-system, system-ui, BlinkMacSystemFont, Roboto" y="216.0" dominant-baseline="hanging" text-anchor="middle" font-size="12" fill="#24292f">Mar 2023</text>
    
        
        <path stroke="#74838f"  stroke-width="2.0"  d="M 917.1708428246013 206.0 L 917.1708428246013 214.0" />
        <text x="917.1708428246013" font-family="-apple-system, system-ui, BlinkMacSystemFont, Roboto" y="216.0" dominant-baseline="hanging" text-anchor="middle" font-size="12" fill="#24292f">Apr 2023</text>
    
    <path stroke="#74838f"   stroke-linejoin="round" stroke-width="2.0" d="M 50.0 216.0 L 50.0 206.0 L 974.0 206.0 L 974.0 216.0"  fill="none" />
    <text x="512.0" y="25.0" font-family="-apple-system, system-ui, BlinkMacSystemFont, Roboto" dominant-baseline="middle" text-anchor="middle" font-size="18" fill="#24292f">Total daily screen name changes</text>
</svg>
