<?xml version="1.0" standalone="no"?>
<svg width="1024.0" height="256.0"  viewBox="0 0 1024.0 256.0" preserveAspectRatio="xMidYMid meet" xmlns="http://www.w3.org/2000/svg">
    <path stroke="#3498db" stroke-linejoin="round" d="M 50.0 203.3394909090909 L 50 203.3394909090909L 51.87423935091278 202.32974545454545L 53.748478701825555 196.86690909090908L 55.622718052738335 195.94792727272727L 57.496957403651116 202.14254545454546L 59.3711967545639 197.35476363636363L 61.24543610547667 191.76145454545454L 63.11967545638945 179.96218181818182L 64.99391480730223 204.09396363636364L 66.868154158215 194.17236363636363L 68.7423935091278 192.61803636363635L 70.61663286004057 195.1253818181818L 72.49087221095334 193.92843636363637L 74.36511156186613 182.2482909090909L 76.2393509127789 200.86618181818181L 78.11359026369169 201.45614545454546L 79.98782961460446 178.89003636363637L 81.86206896551724 197.33774545454546L 83.73630831643001 198.50065454545455L 85.6105476673428 200.41803636363636L 87.48478701825559 201.18385454545455L 89.35902636916836 202.26734545454545L 91.23326572008114 195.09134545454546L 93.10750507099391 198.08087272727272L 94.98174442190668 183.38850909090908L 96.85598377281947 197.47389090909093L 98.73022312373226 202.01774545454546L 100.60446247464503 194.66021818181818L 102.4787018255578 200.75272727272727L 104.35294117647058 200.00392727272728L 106.22718052738337 201.97236363636364L 108.10141987829616 204.2754909090909L 109.97565922920893 201.74545454545455L 111.8498985801217 201.01367272727273L 113.72413793103448 174.7829818181818L 115.59837728194726 195.76072727272728L 117.47261663286004 204.0032L 119.34685598377281 203.7309090909091L 121.2210953346856 197.87665454545453L 123.09533468559837 202.60770909090908L 124.96957403651116 202.6928L 126.84381338742394 197.55898181818182L 128.71805273833672 186.5141818181818L 130.5922920892495 199.26647272727274L 132.46653144016227 199.5728L 134.34077079107504 193.4802909090909L 136.21501014198782 199.10763636363635L 138.0892494929006 201.54690909090908L 139.96348884381337 201.5696L 141.83772819472617 195.06865454545454L 143.71196754563894 201.70007272727273L 145.58620689655174 197.2866909090909L 147.46044624746452 172.35505454545455L 149.3346855983773 203.20901818181818L 151.20892494929006 199.6749090909091L 153.08316430020284 193.12858181818183L 154.9574036511156 196.8896L 156.8316430020284 199.78836363636364L 158.70588235294116 198.82967272727274L 160.58012170385393 204.1336727272727L 162.45436105476674 202.57934545454546L 164.3286004056795 198.9261090909091L 166.2028397565923 206L 168.07707910750509 204.128L 169.95131845841786 192.1245090909091L 171.82555780933063 206L 173.6997971602434 206L 175.57403651115618 206L 177.44827586206895 206L 179.32251521298176 197.37178181818183L 181.19675456389453 199.57847272727273L 183.0709939148073 188.9024L 184.94523326572008 195.02894545454546L 186.81947261663288 191.20552727272727L 188.69371196754562 166.8128L 190.56795131845843 203.8386909090909L 192.4421906693712 198.09221818181817L 194.31643002028397 201.64334545454545L 196.19066937119675 202.2957090909091L 198.06490872210955 203.22036363636363L 199.93914807302232 200.66763636363635L 201.8133874239351 191.51185454545455L 203.68762677484787 189.18603636363636L 205.56186612576067 203.86705454545455L 207.43610547667342 197.56465454545454L 209.31034482758622 187.32538181818182L 211.184584178499 201.2349090909091L 213.05882352941177 200.44639999999998L 214.93306288032454 201.4618181818182L 216.80730223123734 201.09876363636363L 218.6815415821501 201.17818181818183L 220.5557809330629 193.02647272727273L 222.43002028397567 198.8069818181818L 224.30425963488844 203.39054545454545L 226.1784989858012 200.30458181818182L 228.05273833671401 198.35883636363636L 229.92697768762676 193.3101090909091L 231.80121703853956 200.56552727272728L 233.67545638945234 203.03883636363636L 235.5496957403651 197.22996363636364L 237.42393509127788 201.95534545454547L 239.29817444219069 196.016L 241.17241379310346 202.30705454545455L 243.04665314401623 199.91316363636363L 244.920892494929 194.62050909090908L 246.7951318458418 201.29163636363637L 248.66937119675455 202.98778181818182L 250.54361054766736 203.5437090909091L 252.41784989858013 200.60523636363638L 254.2920892494929 195.5621818181818L 256.1663286004057 203.24305454545456L 258.0405679513185 200.15709090909093L 259.9148073022312 198.46661818181818L 261.78904665314406 201.70007272727273L 263.6632860040568 200.70734545454545L 265.5375253549696 200.4293818181818L 267.4117647058823 201.76814545454545L 269.28600405679515 204.6442181818182L 271.16024340770787 206L 273.0344827586207 196.35636363636365L 274.90872210953347 199.21541818181817L 276.78296146044624 156.87418181818182L 278.657200811359 165.1506909090909L 280.5314401622718 204.1733818181818L 282.4056795131846 202.17658181818183L 284.27991886409734 199.31185454545454L 286.15415821501017 198.7842909090909L 288.0283975659229 202.6757818181818L 289.9026369168357 202.8573090909091L 291.7768762677485 196.1861818181818L 293.65111561866127 199.64654545454545L 295.525354969574 198.2056727272727L 297.3995943204868 201.2178909090909L 299.27383367139964 201.79083636363637L 301.14807302231236 201.90429090909092L 303.02231237322513 200.1968L 304.8965517241379 195.17076363636363L 306.77079107505074 206L 308.6450304259635 206L 310.51926977687623 206L 312.39350912778906 191.4834909090909L 314.26774847870183 197.79723636363636L 316.1419878296146 198.85236363636363L 318.0162271805274 199.76L 319.89046653144015 200.03796363636363L 321.7647058823529 200.76407272727272L 323.63894523326576 201.80785454545455L 325.5131845841785 191.63098181818182L 327.38742393509125 194.41061818181817L 329.2616632860041 199.88479999999998L 331.13590263691685 152.63098181818182L 333.01014198782957 197.04843636363637L 334.8843813387424 194.4730181818182L 336.7586206896552 155.90414545454547L 338.63286004056795 91.60945454545454L 340.5070993914807 104.5376L 342.3813387423935 151.17876363636364L 344.25557809330627 185.1981090909091L 346.1298174442191 142.76610909090908L 348.0040567951318 125.0672L 349.87829614604465 123.74545454545455L 351.7525354969574 157.99738181818182L 353.6267748478702 53.56814545454546L 355.50101419878297 50.78850909090909L 357.37525354969574 100.02210909090908L 359.2494929006085 156.2445090909091L 361.12373225152135 180.31956363636363L 362.99797160243406 192.43650909090908L 364.87221095334684 193.63912727272728L 366.74645030425967 193.3328L 368.62068965517244 192.11316363636365L 370.49492900608516 197.93338181818183L 372.369168356998 191.5629090909091L 374.24340770791076 198.7672727272727L 376.11764705882354 199.3005090909091L 377.9918864097363 201.64901818181818L 379.8661257606491 200.58821818181818L 381.74036511156186 202.43752727272727L 383.6146044624747 200.73003636363637L 385.4888438133874 189.7703272727273L 387.3630831643002 203.17498181818183L 389.237322515213 200.48610909090908L 391.1115618661258 185.1810909090909L 392.9858012170385 187.88698181818182L 394.86004056795133 191.01832727272728L 396.7342799188641 192.31738181818181L 398.6085192697769 177.09745454545455L 400.48275862068965 167.91330909090908L 402.3569979716024 179.30981818181817L 404.2312373225152 186.49716363636364L 406.10547667342803 150.34487272727273L 407.97971602434075 184.27345454545454L 409.8539553752535 199.5104L 411.72819472616635 161.24785454545454L 413.6024340770791 155.49003636363636L 415.47667342799184 176.96130909090908L 417.35091277890467 190.30923636363636L 419.22515212981745 193.50865454545453L 421.0993914807302 201.72843636363638L 422.973630831643 185.22647272727272L 424.84787018255577 192.03374545454545L 426.72210953346854 192.66909090909093L 428.59634888438137 180.18341818181818L 430.4705882352941 194.5013818181818L 432.3448275862069 194.6829090909091L 434.2190669371197 201.85323636363637L 436.09330628803247 196.2032L 437.96754563894524 204.49105454545455L 439.841784989858 191.55723636363638L 441.7160243407708 180.36494545454545L 443.5902636916836 193.02647272727273L 445.46450304259633 186.20785454545455L 447.3387423935091 191.72741818181817L 449.21298174442194 191.4834909090909L 451.0872210953347 196.63432727272726L 452.96146044624743 200.7810909090909L 454.83569979716026 176.26923636363637L 456.70993914807303 165.78036363636363L 458.5841784989858 181.82850909090908L 460.4584178498986 160.6976L 462.33265720081135 163.93105454545454L 464.2068965517241 182.10647272727272L 466.08113590263696 130.808L 467.9553752535497 190.49643636363635L 469.82961460446245 202.0914909090909L 471.7038539553753 184.09192727272728L 473.57809330628805 197.50225454545455L 475.45233265720077 187.54094545454547L 477.3265720081136 192.95272727272726L 479.2008113590264 201.88727272727272L 481.07505070993915 184.33585454545454L 482.9492900608519 183.04814545454545L 484.8235294117647 182.36741818181818L 486.69776876267747 182.54327272727272L 488.5720081135903 186.38938181818182L 490.446247464503 174.3858909090909L 492.3204868154158 183.1786181818182L 494.1947261663286 183.5133090909091L 496.0689655172414 184.60247272727273L 497.9432048681541 186.968L 499.81744421906694 170.00087272727274L 501.6916835699797 167.8338909090909L 503.5659229208925 203.32247272727273L 505.44016227180526 206L 507.31440162271804 128.43112727272728L 509.1886409736308 183.2637090909091L 511.06288032454364 156.8685090909091L 512.9371196754564 183.15592727272727L 514.8113590263692 183.2013090909091L 516.6855983772818 182.25963636363636L 518.5598377281947 170.18807272727273L 520.4340770791075 186.86589090909092L 522.3083164300203 183.77425454545454L 524.1825557809331 186.29861818181817L 526.0567951318458 184.17134545454545L 527.9310344827586 184.9655272727273L 529.8052738336714 178.1696L 531.6795131845842 180.70530909090908L 533.553752535497 170.80072727272727L 535.4279918864097 177.99374545454546L 537.3022312373225 175.99127272727273L 539.1764705882354 173.75621818181818L 541.050709939148 175.45803636363638L 542.9249492900609 196.91796363636365L 544.7991886409736 150.30516363636363L 546.6734279918863 167.34036363636363L 548.5476673427993 174.52203636363637L 550.4219066937119 132.05599999999998L 552.2961460446247 144.8309818181818L 554.1703853955376 173.60872727272726L 556.0446247464503 151.91054545454546L 557.9188640973631 194.03621818181819L 559.7931034482758 160.59549090909093L 561.6673427991886 206L 563.5415821501015 153.43650909090908L 565.4158215010142 181.01163636363637L 567.290060851927 181.6413090909091L 569.1643002028397 182.49221818181817L 571.0385395537525 183.08785454545455L 572.9127789046654 206L 574.7870182555781 151.86516363636363L 576.6612576064908 172.45716363636365L 578.5354969574037 169.20669090909092L 580.4097363083164 178.22065454545455L 582.2839756592292 175.54312727272728L 584.158215010142 177.61367272727273L 586.0324543610548 181.0173090909091L 587.9066937119676 176.80814545454547L 589.7809330628803 167.8962909090909L 591.655172413793 167.1248L 593.5294117647059 176.62094545454545L 595.4036511156187 158.63272727272727L 597.2778904665315 151.3602909090909L 599.1521298174442 173.35345454545455L 601.026369168357 206L 602.9006085192698 206L 604.7748478701825 206L 606.6490872210953 206L 608.5233265720082 206L 610.3975659229209 206L 612.2718052738337 206L 614.1460446247464 206L 616.0202839756591 206L 617.8945233265721 206L 619.7687626774848 206L 621.6430020283975 206L 623.5172413793103 206L 625.3914807302231 206L 627.2657200811359 206L 629.1399594320487 206L 631.0141987829614 206L 632.8884381338743 206L 634.762677484787 206L 636.6369168356997 206L 638.5111561866125 206L 640.3853955375254 206L 642.2596348884382 206L 644.1338742393509 206L 646.0081135902636 206L 647.8823529411765 206L 649.7565922920893 206L 651.630831643002 206L 653.5050709939148 206L 655.3793103448276 206L 657.2535496957404 206L 659.1277890466531 206L 661.0020283975659 206L 662.8762677484788 206L 664.7505070993915 206L 666.6247464503042 206L 668.498985801217 206L 670.3732251521297 206L 672.2474645030427 206L 674.1217038539554 206L 675.9959432048681 206L 677.870182555781 206L 679.7444219066937 206L 681.6186612576064 206L 683.4929006085193 206L 685.367139959432 206L 687.2413793103449 206L 689.1156186612576 206L 690.9898580121703 206L 692.8640973630831 206L 694.738336713996 206L 696.6125760649087 206L 698.4868154158215 206L 700.3610547667342 206L 702.2352941176471 206L 704.1095334685598 206L 705.9837728194726 206L 707.8580121703855 206L 709.7322515212982 206L 711.6064908722109 206L 713.4807302231237 206L 715.3549695740365 206L 717.2292089249494 206L 719.1034482758621 206L 720.9776876267748 206L 722.8519269776876 206L 724.7261663286004 206L 726.6004056795132 206L 728.474645030426 206L 730.3488843813387 206L 732.2231237322516 206L 734.0973630831643 206L 735.971602434077 206L 737.84584178499 206L 739.7200811359027 206L 741.5943204868154 206L 743.4685598377282 206L 745.3427991886409 206L 747.2170385395538 206L 749.0912778904666 206L 750.9655172413793 206L 752.8397565922921 206L 754.7139959432048 206L 756.5882352941176 206L 758.4624746450304 206L 760.3367139959432 206L 762.2109533468561 206L 764.0851926977688 206L 765.9594320486815 206L 767.8336713995943 206L 769.707910750507 206L 771.5821501014199 206L 773.4563894523327 206L 775.3306288032454 206L 777.2048681541582 206L 779.079107505071 206L 780.9533468559837 206L 782.8275862068966 206L 784.7018255578093 206L 786.5760649087221 206L 788.4503042596349 206L 790.3245436105476 206L 792.1987829614604 206L 794.0730223123733 206L 795.947261663286 206L 797.8215010141988 206L 799.6957403651115 206L 801.5699797160242 206L 803.4442190669371 206L 805.3184584178499 206L 807.1926977687627 206L 809.0669371196755 206L 810.9411764705882 206L 812.815415821501 206L 814.6896551724138 206L 816.5638945233266 206L 818.4381338742394 206L 820.3123732251521 206L 822.1866125760649 206L 824.0608519269776 206L 825.9350912778905 206L 827.8093306288033 206L 829.683569979716 206L 831.5578093306287 206L 833.4320486815416 206L 835.3062880324543 206L 837.1805273833672 206L 839.05476673428 206L 840.9290060851927 206L 842.8032454361055 206L 844.6774847870182 206L 846.5517241379309 206L 848.4259634888439 206L 850.3002028397566 206L 852.1744421906694 206L 854.0486815415821 206L 855.9229208924949 206L 857.7971602434077 206L 859.6713995943205 206L 861.5456389452332 206L 863.4198782961461 206L 865.2941176470588 206L 867.1683569979716 206L 869.0425963488843 206L 870.9168356997972 206L 872.79107505071 206L 874.6653144016227 206L 876.5395537525354 206L 878.4137931034483 206L 880.2880324543611 206L 882.1622718052739 206L 884.0365111561866 206L 885.9107505070994 206L 887.7849898580122 206L 889.6592292089249 206L 891.5334685598377 206L 893.4077079107506 206L 895.2819472616633 206L 897.1561866125761 206L 899.0304259634888 206L 900.9046653144015 206L 902.7789046653145 206L 904.6531440162272 206L 906.5273833671399 206L 908.4016227180527 206L 910.2758620689655 206L 912.1501014198783 206L 914.0243407707911 206L 915.8985801217038 206L 917.7728194726167 206L 919.6470588235294 206L 921.5212981744421 206L 923.3955375253549 206L 925.2697768762678 206L 927.1440162271806 206L 929.0182555780933 206L 930.892494929006 206L 932.7667342799189 206L 934.6409736308316 206L 936.5152129817444 206L 938.3894523326572 206L 940.26369168357 206L 942.1379310344828 206L 944.0121703853955 206L 945.8864097363082 206L 947.7606490872212 206L 949.6348884381339 206L 951.5091277890466 206L 953.3833671399594 206L 955.2576064908721 206L 957.131845841785 206L 959.0060851926978 206L 960.8803245436105 206L 962.7545638945234 206L 964.6288032454361 206L 966.5030425963488 206L 968.3772819472616 206L 970.2515212981745 206L 972.1257606490873 206L 974 206" stroke-width="2.0" fill="none" />
    
        
        
        <text x="45.0" font-family="-apple-system, system-ui, BlinkMacSystemFont, Roboto" y="50.0" dominant-baseline="middle" text-anchor="end" font-size="12" fill="#24292f">27500.0</text>
        
            
            <path stroke="#74838f" stroke-dasharray="10 6" stroke-width="0.5"  d="M 50.0 50.0 L 974.0 50.0" />
        
    
        
        
        <text x="45.0" font-family="-apple-system, system-ui, BlinkMacSystemFont, Roboto" y="81.2" dominant-baseline="middle" text-anchor="end" font-size="12" fill="#24292f">22000.0</text>
        
            
            
            <path stroke="#74838f" stroke-dasharray="10 6" stroke-width="0.5"  d="M 50.0 81.2 L 974.0 81.2" />
        
    
        
        
        <text x="45.0" font-family="-apple-system, system-ui, BlinkMacSystemFont, Roboto" y="112.4" dominant-baseline="middle" text-anchor="end" font-size="12" fill="#24292f">16500.0</text>
        
            
            
            <path stroke="#74838f" stroke-dasharray="10 6" stroke-width="0.5"  d="M 50.0 112.4 L 974.0 112.4" />
        
    
        
        
        <text x="45.0" font-family="-apple-system, system-ui, BlinkMacSystemFont, Roboto" y="143.6" dominant-baseline="middle" text-anchor="end" font-size="12" fill="#24292f">11000.0</text>
        
            
            
            <path stroke="#74838f" stroke-dasharray="10 6" stroke-width="0.5"  d="M 50.0 143.6 L 974.0 143.6" />
        
    
        
        
        <text x="45.0" font-family="-apple-system, system-ui, BlinkMacSystemFont, Roboto" y="174.8" dominant-baseline="middle" text-anchor="end" font-size="12" fill="#24292f">5500.0</text>
        
            
            
            <path stroke="#74838f" stroke-dasharray="10 6" stroke-width="0.5"  d="M 50.0 174.8 L 974.0 174.8" />
        
    
        
        
        <text x="45.0" font-family="-apple-system, system-ui, BlinkMacSystemFont, Roboto" y="206.0" dominant-baseline="middle" text-anchor="end" font-size="12" fill="#24292f">0.0</text>
        
    
    
        
        <path stroke="#74838f"  stroke-width="2.0"  d="M 79.98782961460446 206.0 L 79.98782961460446 214.0" />
        <text x="79.98782961460446" font-family="-apple-system, system-ui, BlinkMacSystemFont, Roboto" y="216.0" dominant-baseline="hanging" text-anchor="middle" font-size="12" fill="#24292f">Mar 2022</text>
    
        
        <path stroke="#74838f"  stroke-width="2.0"  d="M 138.0892494929006 206.0 L 138.0892494929006 214.0" />
        <text x="138.0892494929006" font-family="-apple-system, system-ui, BlinkMacSystemFont, Roboto" y="216.0" dominant-baseline="hanging" text-anchor="middle" font-size="12" fill="#24292f">Apr 2022</text>
    
        
        <path stroke="#74838f"  stroke-width="2.0"  d="M 194.31643002028397 206.0 L 194.31643002028397 214.0" />
        <text x="194.31643002028397" font-family="-apple-system, system-ui, BlinkMacSystemFont, Roboto" y="216.0" dominant-baseline="hanging" text-anchor="middle" font-size="12" fill="#24292f">May 2022</text>
    
        
        <path stroke="#74838f"  stroke-width="2.0"  d="M 252.41784989858013 206.0 L 252.41784989858013 214.0" />
        <text x="252.41784989858013" font-family="-apple-system, system-ui, BlinkMacSystemFont, Roboto" y="216.0" dominant-baseline="hanging" text-anchor="middle" font-size="12" fill="#24292f">Jun 2022</text>
    
        
        <path stroke="#74838f"  stroke-width="2.0"  d="M 308.6450304259635 206.0 L 308.6450304259635 214.0" />
        <text x="308.6450304259635" font-family="-apple-system, system-ui, BlinkMacSystemFont, Roboto" y="216.0" dominant-baseline="hanging" text-anchor="middle" font-size="12" fill="#24292f">Jul 2022</text>
    
        
        <path stroke="#74838f"  stroke-width="2.0"  d="M 366.74645030425967 206.0 L 366.74645030425967 214.0" />
        <text x="366.74645030425967" font-family="-apple-system, system-ui, BlinkMacSystemFont, Roboto" y="216.0" dominant-baseline="hanging" text-anchor="middle" font-size="12" fill="#24292f">Aug 2022</text>
    
        
        <path stroke="#74838f"  stroke-width="2.0"  d="M 424.84787018255577 206.0 L 424.84787018255577 214.0" />
        <text x="424.84787018255577" font-family="-apple-system, system-ui, BlinkMacSystemFont, Roboto" y="216.0" dominant-baseline="hanging" text-anchor="middle" font-size="12" fill="#24292f">Sep 2022</text>
    
        
        <path stroke="#74838f"  stroke-width="2.0"  d="M 481.07505070993915 206.0 L 481.07505070993915 214.0" />
        <text x="481.07505070993915" font-family="-apple-system, system-ui, BlinkMacSystemFont, Roboto" y="216.0" dominant-baseline="hanging" text-anchor="middle" font-size="12" fill="#24292f">Oct 2022</text>
    
        
        <path stroke="#74838f"  stroke-width="2.0"  d="M 539.1764705882354 206.0 L 539.1764705882354 214.0" />
        <text x="539.1764705882354" font-family="-apple-system, system-ui, BlinkMacSystemFont, Roboto" y="216.0" dominant-baseline="hanging" text-anchor="middle" font-size="12" fill="#24292f">Nov 2022</text>
    
        
        <path stroke="#74838f"  stroke-width="2.0"  d="M 595.4036511156187 206.0 L 595.4036511156187 214.0" />
        <text x="595.4036511156187" font-family="-apple-system, system-ui, BlinkMacSystemFont, Roboto" y="216.0" dominant-baseline="hanging" text-anchor="middle" font-size="12" fill="#24292f">Dec 2022</text>
    
        
        <path stroke="#74838f"  stroke-width="2.0"  d="M 653.5050709939148 206.0 L 653.5050709939148 214.0" />
        <text x="653.5050709939148" font-family="-apple-system, system-ui, BlinkMacSystemFont, Roboto" y="216.0" dominant-baseline="hanging" text-anchor="middle" font-size="12" fill="#24292f">Jan 2023</text>
    
        
        <path stroke="#74838f"  stroke-width="2.0"  d="M 711.6064908722109 206.0 L 711.6064908722109 214.0" />
        <text x="711.6064908722109" font-family="-apple-system, system-ui, BlinkMacSystemFont, Roboto" y="216.0" dominant-baseline="hanging" text-anchor="middle" font-size="12" fill="#24292f">Feb 2023</text>
    
        
        <path stroke="#74838f"  stroke-width="2.0"  d="M 764.0851926977688 206.0 L 764.0851926977688 214.0" />
        <text x="764.0851926977688" font-family="-apple-system, system-ui, BlinkMacSystemFont, Roboto" y="216.0" dominant-baseline="hanging" text-anchor="middle" font-size="12" fill="#24292f">Mar 2023</text>
    
        
        <path stroke="#74838f"  stroke-width="2.0"  d="M 822.1866125760649 206.0 L 822.1866125760649 214.0" />
        <text x="822.1866125760649" font-family="-apple-system, system-ui, BlinkMacSystemFont, Roboto" y="216.0" dominant-baseline="hanging" text-anchor="middle" font-size="12" fill="#24292f">Apr 2023</text>
    
        
        <path stroke="#74838f"  stroke-width="2.0"  d="M 878.4137931034483 206.0 L 878.4137931034483 214.0" />
        <text x="878.4137931034483" font-family="-apple-system, system-ui, BlinkMacSystemFont, Roboto" y="216.0" dominant-baseline="hanging" text-anchor="middle" font-size="12" fill="#24292f">May 2023</text>
    
        
        <path stroke="#74838f"  stroke-width="2.0"  d="M 936.5152129817444 206.0 L 936.5152129817444 214.0" />
        <text x="936.5152129817444" font-family="-apple-system, system-ui, BlinkMacSystemFont, Roboto" y="216.0" dominant-baseline="hanging" text-anchor="middle" font-size="12" fill="#24292f">Jun 2023</text>
    
    <path stroke="#74838f"   stroke-linejoin="round" stroke-width="2.0" d="M 50.0 216.0 L 50.0 206.0 L 974.0 206.0 L 974.0 216.0"  fill="none" />
    <text x="512.0" y="25.0" font-family="-apple-system, system-ui, BlinkMacSystemFont, Roboto" dominant-baseline="middle" text-anchor="middle" font-size="18" fill="#24292f">Total daily screen name changes</text>
</svg>
