<?xml version="1.0" standalone="no"?>
<svg width="1024.0" height="256.0"  viewBox="0 0 1024.0 256.0" preserveAspectRatio="xMidYMid meet" xmlns="http://www.w3.org/2000/svg">
    <path stroke="#3498db" stroke-linejoin="round" d="M 50.0 203.3394909090909 L 50 203.3394909090909L 52.44444444444444 202.32974545454545L 54.888888888888886 196.86690909090908L 57.333333333333336 195.94792727272727L 59.77777777777778 202.14254545454546L 62.22222222222222 197.35476363636363L 64.66666666666667 191.76145454545454L 67.11111111111111 179.96218181818182L 69.55555555555556 204.09396363636364L 72 194.17236363636363L 74.44444444444444 192.61803636363635L 76.88888888888889 195.1253818181818L 79.33333333333333 193.92843636363637L 81.77777777777777 182.2482909090909L 84.22222222222223 200.86618181818181L 86.66666666666666 201.45614545454546L 89.11111111111111 178.89003636363637L 91.55555555555554 197.33774545454546L 94 198.50065454545455L 96.44444444444444 200.41803636363636L 98.88888888888889 201.18385454545455L 101.33333333333333 202.26734545454545L 103.77777777777777 195.09134545454546L 106.22222222222223 198.08087272727272L 108.66666666666666 183.38850909090908L 111.11111111111111 197.47389090909093L 113.55555555555554 202.01774545454546L 116 194.66021818181818L 118.44444444444444 200.75272727272727L 120.88888888888889 200.00392727272728L 123.33333333333333 201.97236363636364L 125.77777777777777 204.2754909090909L 128.22222222222223 201.74545454545455L 130.66666666666666 201.01367272727273L 133.1111111111111 174.7829818181818L 135.55555555555554 195.76072727272728L 138 204.0032L 140.44444444444446 203.7309090909091L 142.88888888888889 197.87665454545453L 145.33333333333331 202.60770909090908L 147.77777777777777 202.6928L 150.22222222222223 197.55898181818182L 152.66666666666666 186.5141818181818L 155.1111111111111 199.26647272727274L 157.55555555555554 199.5728L 160 193.4802909090909L 162.44444444444446 199.10763636363635L 164.88888888888889 201.54690909090908L 167.33333333333331 201.5696L 169.77777777777777 195.06865454545454L 172.22222222222223 201.70007272727273L 174.66666666666666 197.2866909090909L 177.1111111111111 172.35505454545455L 179.55555555555554 203.20901818181818L 182 199.6749090909091L 184.44444444444443 193.12858181818183L 186.88888888888889 196.8896L 189.33333333333331 199.78836363636364L 191.77777777777777 198.82967272727274L 194.2222222222222 204.1336727272727L 196.66666666666666 202.57934545454546L 199.11111111111111 198.9261090909091L 201.55555555555554 206L 204 204.128L 206.44444444444443 192.1245090909091L 208.88888888888889 206L 211.33333333333331 206L 213.77777777777777 206L 216.2222222222222 206L 218.66666666666666 197.37178181818183L 221.11111111111111 199.57847272727273L 223.55555555555554 188.9024L 226 195.02894545454546L 228.44444444444443 191.20552727272727L 230.88888888888889 166.8128L 233.33333333333331 203.8386909090909L 235.77777777777777 198.09221818181817L 238.2222222222222 201.64334545454545L 240.66666666666666 202.2957090909091L 243.11111111111111 203.22036363636363L 245.55555555555554 200.66763636363635L 248 191.51185454545455L 250.44444444444443 189.18603636363636L 252.88888888888889 203.86705454545455L 255.33333333333331 197.56465454545454L 257.77777777777777 187.32538181818182L 260.2222222222222 201.2349090909091L 262.66666666666663 200.44639999999998L 265.1111111111111 201.4618181818182L 267.55555555555554 201.09876363636363L 270 201.17818181818183L 272.44444444444446 193.02647272727273L 274.8888888888889 198.8069818181818L 277.3333333333333 203.39054545454545L 279.77777777777777 200.30458181818182L 282.22222222222223 198.35883636363636L 284.66666666666663 193.3101090909091L 287.1111111111111 200.56552727272728L 289.55555555555554 203.03883636363636L 292 197.22996363636364L 294.44444444444446 201.95534545454547L 296.8888888888889 196.016L 299.3333333333333 202.30705454545455L 301.7777777777778 199.91316363636363L 304.2222222222222 194.62050909090908L 306.6666666666667 201.29163636363637L 309.1111111111111 202.98778181818182L 311.55555555555554 203.5437090909091L 314 200.60523636363638L 316.44444444444446 195.5621818181818L 318.88888888888886 203.24305454545456L 321.33333333333337 200.15709090909093L 323.77777777777777 198.46661818181818L 326.22222222222223 201.70007272727273L 328.66666666666663 200.70734545454545L 331.11111111111114 200.4293818181818L 333.55555555555554 201.76814545454545L 336 204.6442181818182L 338.4444444444444 206L 340.8888888888889 196.35636363636365L 343.3333333333333 199.21541818181817L 345.77777777777777 156.87418181818182L 348.22222222222223 165.1506909090909L 350.6666666666667 204.1733818181818L 353.1111111111111 202.17658181818183L 355.55555555555554 199.31185454545454L 358 198.7842909090909L 360.44444444444446 202.6757818181818L 362.88888888888886 202.8573090909091L 365.3333333333333 196.1861818181818L 367.77777777777777 199.64654545454545L 370.22222222222223 198.2056727272727L 372.66666666666663 201.2178909090909L 375.11111111111114 201.79083636363637L 377.55555555555554 201.90429090909092L 380 200.1968L 382.4444444444444 195.17076363636363L 384.8888888888889 206L 387.3333333333333 206L 389.77777777777777 206L 392.22222222222223 191.4834909090909L 394.6666666666667 197.79723636363636L 397.1111111111111 198.85236363636363L 399.55555555555554 199.76L 402 200.03796363636363L 404.44444444444446 200.76407272727272L 406.88888888888886 201.80785454545455L 409.3333333333333 191.63098181818182L 411.77777777777777 194.41061818181817L 414.22222222222223 199.88479999999998L 416.66666666666663 152.63098181818182L 419.11111111111114 197.04843636363637L 421.55555555555554 194.4730181818182L 424 155.90414545454547L 426.4444444444444 91.60945454545454L 428.8888888888889 104.5376L 431.3333333333333 151.17876363636364L 433.77777777777777 185.1981090909091L 436.22222222222223 142.76610909090908L 438.6666666666667 125.0672L 441.1111111111111 123.74545454545455L 443.55555555555554 157.99738181818182L 446 53.56814545454546L 448.44444444444446 50.78850909090909L 450.88888888888886 100.02210909090908L 453.3333333333333 156.2445090909091L 455.77777777777777 180.31956363636363L 458.22222222222223 192.43650909090908L 460.66666666666663 193.63912727272728L 463.1111111111111 193.3328L 465.55555555555554 192.11316363636365L 468 197.93338181818183L 470.4444444444444 191.5629090909091L 472.8888888888889 198.7672727272727L 475.3333333333333 199.3005090909091L 477.77777777777777 201.64901818181818L 480.2222222222222 200.58821818181818L 482.6666666666667 202.43752727272727L 485.1111111111111 200.73003636363637L 487.55555555555554 189.7703272727273L 490 203.17498181818183L 492.44444444444446 200.48610909090908L 494.88888888888886 185.1810909090909L 497.3333333333333 187.88698181818182L 499.77777777777777 191.01832727272728L 502.22222222222223 192.31738181818181L 504.66666666666663 177.09745454545455L 507.1111111111111 167.91330909090908L 509.55555555555554 179.30981818181817L 512 186.49716363636364L 514.4444444444445 150.34487272727273L 516.8888888888889 184.27345454545454L 519.3333333333333 199.5104L 521.7777777777778 161.24785454545454L 524.2222222222222 155.49003636363636L 526.6666666666667 176.96130909090908L 529.1111111111111 190.30923636363636L 531.5555555555555 193.50865454545453L 534 201.72843636363638L 536.4444444444446 185.22647272727272L 538.8888888888889 192.03374545454545L 541.3333333333333 192.66909090909093L 543.7777777777778 180.18341818181818L 546.2222222222223 194.5013818181818L 548.6666666666666 194.6829090909091L 551.1111111111111 201.85323636363637L 553.5555555555557 196.2032L 556 204.49105454545455L 558.4444444444443 191.55723636363638L 560.8888888888889 180.36494545454545L 563.3333333333334 193.02647272727273L 565.7777777777778 186.20785454545455L 568.2222222222222 191.72741818181817L 570.6666666666666 191.4834909090909L 573.1111111111111 196.63432727272726L 575.5555555555557 200.7810909090909L 578 176.26923636363637L 580.4444444444445 165.78036363636363L 582.8888888888889 181.82850909090908L 585.3333333333334 160.6976L 587.7777777777777 163.93105454545454L 590.2222222222222 182.10647272727272L 592.6666666666667 130.808L 595.1111111111112 190.49643636363635L 597.5555555555555 202.0914909090909L 600 184.09192727272728L 602.4444444444445 197.50225454545455L 604.8888888888889 187.54094545454547L 607.3333333333333 192.95272727272726L 609.7777777777778 201.88727272727272L 612.2222222222223 184.33585454545454L 614.6666666666667 183.04814545454545L 617.1111111111111 182.36741818181818L 619.5555555555555 182.54327272727272L 622 186.38938181818182L 624.4444444444445 174.3858909090909L 626.8888888888888 183.1786181818182L 629.3333333333334 183.5133090909091L 631.7777777777778 184.60247272727273L 634.2222222222223 186.968L 636.6666666666666 170.00087272727274L 639.1111111111111 167.8338909090909L 641.5555555555555 203.32247272727273L 644 206L 646.4444444444445 128.43112727272728L 648.8888888888889 183.2637090909091L 651.3333333333334 156.8685090909091L 653.7777777777778 183.15592727272727L 656.2222222222222 183.2013090909091L 658.6666666666666 182.25963636363636L 661.1111111111111 170.18807272727273L 663.5555555555555 186.86589090909092L 666 183.77425454545454L 668.4444444444445 186.29861818181817L 670.8888888888889 184.17134545454545L 673.3333333333334 184.9655272727273L 675.7777777777777 178.1696L 678.2222222222222 180.70530909090908L 680.6666666666666 170.80072727272727L 683.1111111111112 177.99374545454546L 685.5555555555555 175.99127272727273L 688 173.75621818181818L 690.4444444444445 175.45803636363638L 692.8888888888889 196.91796363636365L 695.3333333333333 150.30516363636363L 697.7777777777777 167.34036363636363L 700.2222222222223 174.52203636363637L 702.6666666666667 132.05599999999998L 705.1111111111111 144.8309818181818L 707.5555555555555 173.60872727272726L 710 151.91054545454546L 712.4444444444445 194.03621818181819L 714.8888888888888 160.59549090909093L 717.3333333333334 206L 719.7777777777778 153.43650909090908L 722.2222222222223 181.01163636363637L 724.6666666666666 181.6413090909091L 727.1111111111111 182.49221818181817L 729.5555555555555 183.08785454545455L 732 206L 734.4444444444445 151.86516363636363L 736.8888888888889 172.45716363636365L 739.3333333333334 169.20669090909092L 741.7777777777778 178.22065454545455L 744.2222222222222 175.54312727272728L 746.6666666666666 177.61367272727273L 749.1111111111111 181.0173090909091L 751.5555555555555 176.80814545454547L 754 167.8962909090909L 756.4444444444445 167.1248L 758.8888888888889 176.62094545454545L 761.3333333333334 158.63272727272727L 763.7777777777777 151.3602909090909L 766.2222222222222 173.35345454545455L 768.6666666666666 206L 771.1111111111112 206L 773.5555555555555 206L 776 206L 778.4444444444445 206L 780.8888888888889 206L 783.3333333333333 206L 785.7777777777777 206L 788.2222222222223 206L 790.6666666666667 206L 793.1111111111111 206L 795.5555555555555 206L 798 206L 800.4444444444445 206L 802.8888888888888 206L 805.3333333333334 206L 807.7777777777778 206L 810.2222222222223 206L 812.6666666666666 206L 815.1111111111111 206L 817.5555555555555 206L 820 206L 822.4444444444445 206L 824.8888888888889 206L 827.3333333333334 206L 829.7777777777778 206L 832.2222222222222 206L 834.6666666666666 206L 837.1111111111111 206L 839.5555555555555 206L 842 206L 844.4444444444445 206L 846.8888888888889 206L 849.3333333333334 206L 851.7777777777777 206L 854.2222222222222 206L 856.6666666666666 206L 859.1111111111112 206L 861.5555555555555 206L 864 206L 866.4444444444445 206L 868.8888888888889 206L 871.3333333333333 206L 873.7777777777777 206L 876.2222222222222 206L 878.6666666666667 206L 881.1111111111111 206L 883.5555555555555 206L 886 206L 888.4444444444445 206L 890.8888888888888 206L 893.3333333333333 206L 895.7777777777778 206L 898.2222222222223 206L 900.6666666666666 206L 903.1111111111111 206L 905.5555555555555 206L 908 206L 910.4444444444443 206L 912.8888888888889 206L 915.3333333333334 206L 917.7777777777778 206L 920.2222222222222 206L 922.6666666666666 206L 925.1111111111111 206L 927.5555555555555 206L 930 206L 932.4444444444445 206L 934.8888888888889 206L 937.3333333333334 206L 939.7777777777777 206L 942.2222222222222 206L 944.6666666666666 206L 947.1111111111111 206L 949.5555555555555 206L 952 206L 954.4444444444445 206L 956.8888888888889 206L 959.3333333333333 206L 961.7777777777777 206L 964.2222222222222 206L 966.6666666666667 206L 969.1111111111111 206L 971.5555555555555 206L 974 206" stroke-width="2.0" fill="none" />
    
        
        
        <text x="45.0" font-family="-apple-system, system-ui, BlinkMacSystemFont, Roboto" y="50.0" dominant-baseline="middle" text-anchor="end" font-size="12" fill="#24292f">27500.0</text>
        
            
            <path stroke="#74838f" stroke-dasharray="10 6" stroke-width="0.5"  d="M 50.0 50.0 L 974.0 50.0" />
        
    
        
        
        <text x="45.0" font-family="-apple-system, system-ui, BlinkMacSystemFont, Roboto" y="81.2" dominant-baseline="middle" text-anchor="end" font-size="12" fill="#24292f">22000.0</text>
        
            
            
            <path stroke="#74838f" stroke-dasharray="10 6" stroke-width="0.5"  d="M 50.0 81.2 L 974.0 81.2" />
        
    
        
        
        <text x="45.0" font-family="-apple-system, system-ui, BlinkMacSystemFont, Roboto" y="112.4" dominant-baseline="middle" text-anchor="end" font-size="12" fill="#24292f">16500.0</text>
        
            
            
            <path stroke="#74838f" stroke-dasharray="10 6" stroke-width="0.5"  d="M 50.0 112.4 L 974.0 112.4" />
        
    
        
        
        <text x="45.0" font-family="-apple-system, system-ui, BlinkMacSystemFont, Roboto" y="143.6" dominant-baseline="middle" text-anchor="end" font-size="12" fill="#24292f">11000.0</text>
        
            
            
            <path stroke="#74838f" stroke-dasharray="10 6" stroke-width="0.5"  d="M 50.0 143.6 L 974.0 143.6" />
        
    
        
        
        <text x="45.0" font-family="-apple-system, system-ui, BlinkMacSystemFont, Roboto" y="174.8" dominant-baseline="middle" text-anchor="end" font-size="12" fill="#24292f">5500.0</text>
        
            
            
            <path stroke="#74838f" stroke-dasharray="10 6" stroke-width="0.5"  d="M 50.0 174.8 L 974.0 174.8" />
        
    
        
        
        <text x="45.0" font-family="-apple-system, system-ui, BlinkMacSystemFont, Roboto" y="206.0" dominant-baseline="middle" text-anchor="end" font-size="12" fill="#24292f">0.0</text>
        
    
    
        
        <path stroke="#74838f"  stroke-width="2.0"  d="M 89.11111111111111 206.0 L 89.11111111111111 214.0" />
        <text x="89.11111111111111" font-family="-apple-system, system-ui, BlinkMacSystemFont, Roboto" y="216.0" dominant-baseline="hanging" text-anchor="middle" font-size="12" fill="#24292f">Mar 2022</text>
    
        
        <path stroke="#74838f"  stroke-width="2.0"  d="M 164.88888888888889 206.0 L 164.88888888888889 214.0" />
        <text x="164.88888888888889" font-family="-apple-system, system-ui, BlinkMacSystemFont, Roboto" y="216.0" dominant-baseline="hanging" text-anchor="middle" font-size="12" fill="#24292f">Apr 2022</text>
    
        
        <path stroke="#74838f"  stroke-width="2.0"  d="M 238.2222222222222 206.0 L 238.2222222222222 214.0" />
        <text x="238.2222222222222" font-family="-apple-system, system-ui, BlinkMacSystemFont, Roboto" y="216.0" dominant-baseline="hanging" text-anchor="middle" font-size="12" fill="#24292f">May 2022</text>
    
        
        <path stroke="#74838f"  stroke-width="2.0"  d="M 314.0 206.0 L 314.0 214.0" />
        <text x="314.0" font-family="-apple-system, system-ui, BlinkMacSystemFont, Roboto" y="216.0" dominant-baseline="hanging" text-anchor="middle" font-size="12" fill="#24292f">Jun 2022</text>
    
        
        <path stroke="#74838f"  stroke-width="2.0"  d="M 387.3333333333333 206.0 L 387.3333333333333 214.0" />
        <text x="387.3333333333333" font-family="-apple-system, system-ui, BlinkMacSystemFont, Roboto" y="216.0" dominant-baseline="hanging" text-anchor="middle" font-size="12" fill="#24292f">Jul 2022</text>
    
        
        <path stroke="#74838f"  stroke-width="2.0"  d="M 463.1111111111111 206.0 L 463.1111111111111 214.0" />
        <text x="463.1111111111111" font-family="-apple-system, system-ui, BlinkMacSystemFont, Roboto" y="216.0" dominant-baseline="hanging" text-anchor="middle" font-size="12" fill="#24292f">Aug 2022</text>
    
        
        <path stroke="#74838f"  stroke-width="2.0"  d="M 538.8888888888889 206.0 L 538.8888888888889 214.0" />
        <text x="538.8888888888889" font-family="-apple-system, system-ui, BlinkMacSystemFont, Roboto" y="216.0" dominant-baseline="hanging" text-anchor="middle" font-size="12" fill="#24292f">Sep 2022</text>
    
        
        <path stroke="#74838f"  stroke-width="2.0"  d="M 612.2222222222223 206.0 L 612.2222222222223 214.0" />
        <text x="612.2222222222223" font-family="-apple-system, system-ui, BlinkMacSystemFont, Roboto" y="216.0" dominant-baseline="hanging" text-anchor="middle" font-size="12" fill="#24292f">Oct 2022</text>
    
        
        <path stroke="#74838f"  stroke-width="2.0"  d="M 688.0 206.0 L 688.0 214.0" />
        <text x="688.0" font-family="-apple-system, system-ui, BlinkMacSystemFont, Roboto" y="216.0" dominant-baseline="hanging" text-anchor="middle" font-size="12" fill="#24292f">Nov 2022</text>
    
        
        <path stroke="#74838f"  stroke-width="2.0"  d="M 761.3333333333334 206.0 L 761.3333333333334 214.0" />
        <text x="761.3333333333334" font-family="-apple-system, system-ui, BlinkMacSystemFont, Roboto" y="216.0" dominant-baseline="hanging" text-anchor="middle" font-size="12" fill="#24292f">Dec 2022</text>
    
        
        <path stroke="#74838f"  stroke-width="2.0"  d="M 837.1111111111111 206.0 L 837.1111111111111 214.0" />
        <text x="837.1111111111111" font-family="-apple-system, system-ui, BlinkMacSystemFont, Roboto" y="216.0" dominant-baseline="hanging" text-anchor="middle" font-size="12" fill="#24292f">Jan 2023</text>
    
        
        <path stroke="#74838f"  stroke-width="2.0"  d="M 912.8888888888889 206.0 L 912.8888888888889 214.0" />
        <text x="912.8888888888889" font-family="-apple-system, system-ui, BlinkMacSystemFont, Roboto" y="216.0" dominant-baseline="hanging" text-anchor="middle" font-size="12" fill="#24292f">Feb 2023</text>
    
    <path stroke="#74838f"   stroke-linejoin="round" stroke-width="2.0" d="M 50.0 216.0 L 50.0 206.0 L 974.0 206.0 L 974.0 216.0"  fill="none" />
    <text x="512.0" y="25.0" font-family="-apple-system, system-ui, BlinkMacSystemFont, Roboto" dominant-baseline="middle" text-anchor="middle" font-size="18" fill="#24292f">Total daily screen name changes</text>
</svg>
