<?xml version="1.0" standalone="no"?>
<svg width="1024.0" height="256.0"  viewBox="0 0 1024.0 256.0" preserveAspectRatio="xMidYMid meet" xmlns="http://www.w3.org/2000/svg">
    <path stroke="#3498db" stroke-linejoin="round" d="M 50.0 203.3394909090909 L 50 203.3394909090909L 52.0174672489083 202.32974545454545L 54.03493449781659 196.86690909090908L 56.05240174672489 195.94792727272727L 58.069868995633186 202.14254545454546L 60.08733624454148 197.35476363636363L 62.10480349344978 191.76145454545454L 64.12227074235808 179.96218181818182L 66.13973799126637 204.09396363636364L 68.15720524017468 194.17236363636363L 70.17467248908297 192.61803636363635L 72.19213973799127 195.1253818181818L 74.20960698689956 193.92843636363637L 76.22707423580786 182.2482909090909L 78.24454148471615 200.86618181818181L 80.26200873362446 201.45614545454546L 82.27947598253274 178.89003636363637L 84.29694323144105 197.33774545454546L 86.31441048034935 198.50065454545455L 88.33187772925764 200.41803636363636L 90.34934497816593 201.18385454545455L 92.36681222707423 202.26734545454545L 94.38427947598254 195.09134545454546L 96.40174672489083 198.08087272727272L 98.41921397379912 183.38850909090908L 100.43668122270742 197.47389090909093L 102.45414847161572 202.01774545454546L 104.47161572052401 194.66021818181818L 106.4890829694323 200.75272727272727L 108.5065502183406 200.00392727272728L 110.52401746724891 201.97236363636364L 112.54148471615721 204.2754909090909L 114.5589519650655 201.74545454545455L 116.57641921397381 201.01367272727273L 118.5938864628821 174.7829818181818L 120.61135371179039 195.76072727272728L 122.62882096069869 204.0032L 124.64628820960698 203.7309090909091L 126.66375545851528 197.87665454545453L 128.6812227074236 202.60770909090908L 130.69868995633186 202.6928L 132.71615720524017 197.55898181818182L 134.73362445414847 186.5141818181818L 136.75109170305677 199.26647272727274L 138.76855895196508 199.5728L 140.78602620087335 193.4802909090909L 142.80349344978166 199.10763636363635L 144.82096069868996 201.54690909090908L 146.83842794759823 201.5696L 148.85589519650654 195.06865454545454L 150.87336244541484 201.70007272727273L 152.89082969432314 197.2866909090909L 154.90829694323145 172.35505454545455L 156.92576419213975 203.20901818181818L 158.94323144104803 199.6749090909091L 160.96069868995633 193.12858181818183L 162.9781659388646 196.8896L 164.9956331877729 199.78836363636364L 167.0131004366812 198.82967272727274L 169.03056768558952 204.1336727272727L 171.04803493449782 202.57934545454546L 173.06550218340612 198.9261090909091L 175.08296943231443 206L 177.10043668122267 204.128L 179.117903930131 192.1245090909091L 181.1353711790393 206L 183.15283842794761 206L 185.1703056768559 206L 187.1877729257642 206L 189.20524017467247 197.37178181818183L 191.22270742358077 199.57847272727273L 193.24017467248908 188.9024L 195.25764192139738 195.02894545454546L 197.27510917030568 191.20552727272727L 199.29257641921396 166.8128L 201.31004366812226 203.8386909090909L 203.32751091703057 198.09221818181817L 205.34497816593887 201.64334545454545L 207.36244541484717 202.2957090909091L 209.37991266375548 203.22036363636363L 211.39737991266375 200.66763636363635L 213.41484716157206 191.51185454545455L 215.43231441048036 189.18603636363636L 217.44978165938866 203.86705454545455L 219.46724890829697 197.56465454545454L 221.48471615720524 187.32538181818182L 223.50218340611355 201.2349090909091L 225.51965065502182 200.44639999999998L 227.53711790393012 201.4618181818182L 229.55458515283843 201.09876363636363L 231.5720524017467 201.17818181818183L 233.589519650655 193.02647272727273L 235.6069868995633 198.8069818181818L 237.6244541484716 203.39054545454545L 239.64192139737992 200.30458181818182L 241.65938864628822 198.35883636363636L 243.6768558951965 193.3101090909091L 245.6943231441048 200.56552727272728L 247.7117903930131 203.03883636363636L 249.7292576419214 197.22996363636364L 251.7467248908297 201.95534545454547L 253.764192139738 196.016L 255.7816593886463 202.30705454545455L 257.7991266375546 199.91316363636363L 259.8165938864629 194.62050909090908L 261.83406113537114 201.29163636363637L 263.8515283842795 202.98778181818182L 265.86899563318775 203.5437090909091L 267.88646288209605 200.60523636363638L 269.90393013100436 195.5621818181818L 271.92139737991266 203.24305454545456L 273.93886462882097 200.15709090909093L 275.9563318777292 198.46661818181818L 277.9737991266376 201.70007272727273L 279.9912663755458 200.70734545454545L 282.0087336244541 200.4293818181818L 284.0262008733624 201.76814545454545L 286.04366812227073 204.6442181818182L 288.06113537117903 206L 290.07860262008734 196.35636363636365L 292.09606986899564 199.21541818181817L 294.11353711790395 156.87418181818182L 296.13100436681225 165.1506909090909L 298.14847161572055 204.1733818181818L 300.16593886462886 202.17658181818183L 302.1834061135371 199.31185454545454L 304.20087336244535 198.7842909090909L 306.2183406113537 202.6757818181818L 308.235807860262 202.8573090909091L 310.2532751091703 196.1861818181818L 312.2707423580786 199.64654545454545L 314.2882096069869 198.2056727272727L 316.30567685589523 201.2178909090909L 318.3231441048035 201.79083636363637L 320.3406113537118 201.90429090909092L 322.3580786026201 200.1968L 324.3755458515284 195.17076363636363L 326.39301310043663 206L 328.41048034934494 206L 330.42794759825324 206L 332.44541484716154 191.4834909090909L 334.46288209606985 197.79723636363636L 336.48034934497815 198.85236363636363L 338.49781659388645 199.76L 340.51528384279476 200.03796363636363L 342.53275109170306 200.76407272727272L 344.55021834061137 201.80785454545455L 346.56768558951967 191.63098181818182L 348.5851528384279 194.41061818181817L 350.6026200873362 199.88479999999998L 352.6200873362445 152.63098181818182L 354.6375545851528 197.04843636363637L 356.65502183406113 194.4730181818182L 358.67248908296943 155.90414545454547L 360.68995633187774 91.60945454545454L 362.70742358078604 104.5376L 364.72489082969435 151.17876363636364L 366.74235807860265 185.1981090909091L 368.75982532751095 142.76610909090908L 370.7772925764192 125.0672L 372.7947598253275 123.74545454545455L 374.8122270742358 157.99738181818182L 376.8296943231441 53.56814545454546L 378.8471615720524 50.78850909090909L 380.8646288209607 100.02210909090908L 382.882096069869 156.2445090909091L 384.8995633187773 180.31956363636363L 386.91703056768563 192.43650909090908L 388.93449781659393 193.63912727272728L 390.95196506550224 193.3328L 392.9694323144105 192.11316363636365L 394.9868995633188 197.93338181818183L 397.0043668122271 191.5629090909091L 399.02183406113534 198.7672727272727L 401.03930131004364 199.3005090909091L 403.05676855895194 201.64901818181818L 405.07423580786025 200.58821818181818L 407.09170305676855 202.43752727272727L 409.10917030567686 200.73003636363637L 411.12663755458516 189.7703272727273L 413.1441048034934 203.17498181818183L 415.1615720524017 200.48610909090908L 417.17903930131 185.1810909090909L 419.1965065502183 187.88698181818182L 421.2139737991266 191.01832727272728L 423.2314410480349 192.31738181818181L 425.2489082969432 177.09745454545455L 427.26637554585153 167.91330909090908L 429.28384279475983 179.30981818181817L 431.30131004366814 186.49716363636364L 433.31877729257644 150.34487272727273L 435.3362445414847 184.27345454545454L 437.353711790393 199.5104L 439.3711790393013 161.24785454545454L 441.3886462882096 155.49003636363636L 443.4061135371179 176.96130909090908L 445.4235807860262 190.30923636363636L 447.4410480349345 193.50865454545453L 449.4585152838428 201.72843636363638L 451.4759825327511 185.22647272727272L 453.4934497816594 192.03374545454545L 455.5109170305677 192.66909090909093L 457.528384279476 180.18341818181818L 459.5458515283843 194.5013818181818L 461.5633187772926 194.6829090909091L 463.5807860262009 201.85323636363637L 465.5982532751092 196.2032L 467.6157205240175 204.49105454545455L 469.6331877729258 191.55723636363638L 471.6506550218341 180.36494545454545L 473.66812227074234 193.02647272727273L 475.68558951965065 186.20785454545455L 477.70305676855895 191.72741818181817L 479.7205240174672 191.4834909090909L 481.7379912663755 196.63432727272726L 483.7554585152838 200.7810909090909L 485.7729257641921 176.26923636363637L 487.7903930131004 165.78036363636363L 489.8078602620087 181.82850909090908L 491.825327510917 160.6976L 493.8427947598253 163.93105454545454L 495.8602620087336 182.10647272727272L 497.87772925764193 130.808L 499.89519650655023 190.49643636363635L 501.9126637554585 202.0914909090909L 503.9301310043668 184.09192727272728L 505.9475982532751 197.50225454545455L 507.9650655021834 187.54094545454547L 509.9825327510917 192.95272727272726L 512 201.88727272727272L 514.0174672489082 184.33585454545454L 516.0349344978166 183.04814545454545L 518.0524017467249 182.36741818181818L 520.0698689956332 182.54327272727272L 522.0873362445415 186.38938181818182L 524.1048034934498 174.3858909090909L 526.1222707423581 183.1786181818182L 528.1397379912664 183.5133090909091L 530.1572052401747 184.60247272727273L 532.174672489083 186.968L 534.1921397379913 170.00087272727274L 536.2096069868995 167.8338909090909L 538.2270742358079 203.32247272727273L 540.2445414847161 206L 542.2620087336245 128.43112727272728L 544.2794759825327 183.2637090909091L 546.2969432314411 156.8685090909091L 548.3144104803494 183.15592727272727L 550.3318777292577 183.2013090909091L 552.3493449781658 182.25963636363636L 554.3668122270742 170.18807272727273L 556.3842794759826 186.86589090909092L 558.4017467248907 183.77425454545454L 560.4192139737991 186.29861818181817L 562.4366812227074 184.17134545454545L 564.4541484716158 184.9655272727273L 566.471615720524 178.1696L 568.4890829694324 180.70530909090908L 570.5065502183406 170.80072727272727L 572.524017467249 177.99374545454546L 574.5414847161572 175.99127272727273L 576.5589519650656 173.75621818181818L 578.5764192139738 175.45803636363638L 580.5938864628821 196.91796363636365L 582.6113537117905 150.30516363636363L 584.6288209606987 167.34036363636363L 586.646288209607 174.52203636363637L 588.6637554585153 132.05599999999998L 590.6812227074236 144.8309818181818L 592.6986899563318 173.60872727272726L 594.7161572052402 151.91054545454546L 596.7336244541484 194.03621818181819L 598.7510917030568 160.59549090909093L 600.768558951965 206L 602.7860262008733 153.43650909090908L 604.8034934497816 181.01163636363637L 606.8209606986899 181.6413090909091L 608.8384279475982 182.49221818181817L 610.8558951965065 183.08785454545455L 612.8733624454148 206L 614.8908296943231 151.86516363636363L 616.9082969432314 172.45716363636365L 618.9257641921397 169.20669090909092L 620.943231441048 178.22065454545455L 622.9606986899563 175.54312727272728L 624.9781659388645 177.61367272727273L 626.9956331877729 181.0173090909091L 629.0131004366812 176.80814545454547L 631.0305676855895 167.8962909090909L 633.0480349344978 167.1248L 635.0655021834061 176.62094545454545L 637.0829694323144 158.63272727272727L 639.1004366812227 151.3602909090909L 641.117903930131 173.35345454545455L 643.1353711790393 206L 645.1528384279476 206L 647.1703056768558 206L 649.1877729257642 206L 651.2052401746724 206L 653.2227074235808 206L 655.240174672489 206L 657.2576419213974 206L 659.2751091703057 206L 661.292576419214 206L 663.3100436681223 206L 665.3275109170306 206L 667.3449781659389 206L 669.3624454148471 206L 671.3799126637555 206L 673.3973799126637 206L 675.4148471615721 206L 677.4323144104803 206L 679.4497816593887 206L 681.4672489082969 206L 683.4847161572053 206L 685.5021834061135 206L 687.5196506550219 206L 689.5371179039302 206L 691.5545851528384 206L 693.5720524017468 206L 695.589519650655 206L 697.6069868995634 206L 699.6244541484716 206L 701.64192139738 206L 703.6593886462882 206L 705.6768558951966 206L 707.6943231441048 206L 709.7117903930132 206L 711.7292576419214 206L 713.7467248908297 206L 715.764192139738 206L 717.7816593886463 206L 719.7991266375547 206L 721.8165938864629 206L 723.8340611353713 206L 725.8515283842795 206L 727.8689956331879 206L 729.8864628820961 206L 731.9039301310045 206L 733.9213973799127 206L 735.938864628821 206L 737.9563318777293 206L 739.9737991266376 206L 741.9912663755458 206L 744.0087336244542 206L 746.0262008733624 206L 748.0436681222707 206L 750.061135371179 206L 752.0786026200873 206L 754.0960698689955 206L 756.1135371179039 206L 758.1310043668121 206L 760.1484716157205 206L 762.1659388646287 206L 764.1834061135371 206L 766.2008733624453 206L 768.2183406113537 206L 770.235807860262 206L 772.2532751091703 206L 774.2707423580786 206L 776.2882096069868 206L 778.3056768558952 206L 780.3231441048034 206L 782.3406113537118 206L 784.35807860262 206L 786.3755458515284 206L 788.3930131004366 206L 790.410480349345 206L 792.4279475982532 206L 794.4454148471616 206L 796.4628820960698 206L 798.4803493449781 206L 800.4978165938865 206L 802.5152838427947 206L 804.5327510917031 206L 806.5502183406113 206L 808.5676855895197 206L 810.5851528384279 206L 812.6026200873363 206L 814.6200873362445 206L 816.6375545851529 206L 818.6550218340611 206L 820.6724890829694 206L 822.6899563318777 206L 824.707423580786 206L 826.7248908296943 206L 828.7423580786026 206L 830.759825327511 206L 832.7772925764192 206L 834.7947598253276 206L 836.8122270742358 206L 838.8296943231442 206L 840.8471615720524 206L 842.8646288209607 206L 844.882096069869 206L 846.8995633187773 206L 848.9170305676856 206L 850.9344978165939 206L 852.9519650655022 206L 854.9694323144105 206L 856.9868995633188 206L 859.0043668122271 206L 861.0218340611355 206L 863.0393013100437 206L 865.056768558952 206L 867.0742358078603 206L 869.0917030567686 206L 871.1091703056769 206L 873.1266375545852 206L 875.1441048034935 206L 877.1615720524018 206L 879.1790393013101 206L 881.1965065502184 206L 883.2139737991267 206L 885.231441048035 206L 887.2489082969432 206L 889.2663755458516 206L 891.2838427947598 206L 893.3013100436682 206L 895.3187772925764 206L 897.3362445414847 206L 899.353711790393 206L 901.3711790393013 206L 903.3886462882095 206L 905.4061135371179 206L 907.4235807860262 206L 909.4410480349344 206L 911.4585152838428 206L 913.475982532751 206L 915.4934497816594 206L 917.5109170305676 206L 919.528384279476 206L 921.5458515283842 206L 923.5633187772926 206L 925.5807860262008 206L 927.5982532751092 206L 929.6157205240174 206L 931.6331877729257 206L 933.650655021834 206L 935.6681222707423 206L 937.6855895196506 206L 939.7030567685589 206L 941.7205240174673 206L 943.7379912663755 206L 945.7554585152839 206L 947.7729257641921 206L 949.7903930131005 206L 951.8078602620087 206L 953.825327510917 206L 955.8427947598253 206L 957.8602620087336 206L 959.8777292576419 206L 961.8951965065502 206L 963.9126637554585 206L 965.9301310043668 206L 967.9475982532751 206L 969.9650655021834 206L 971.9825327510918 206L 974 206" stroke-width="2.0" fill="none" />
    
        
        
        <text x="45.0" font-family="-apple-system, system-ui, BlinkMacSystemFont, Roboto" y="50.0" dominant-baseline="middle" text-anchor="end" font-size="12" fill="#24292f">27500.0</text>
        
            
            <path stroke="#74838f" stroke-dasharray="10 6" stroke-width="0.5"  d="M 50.0 50.0 L 974.0 50.0" />
        
    
        
        
        <text x="45.0" font-family="-apple-system, system-ui, BlinkMacSystemFont, Roboto" y="81.2" dominant-baseline="middle" text-anchor="end" font-size="12" fill="#24292f">22000.0</text>
        
            
            
            <path stroke="#74838f" stroke-dasharray="10 6" stroke-width="0.5"  d="M 50.0 81.2 L 974.0 81.2" />
        
    
        
        
        <text x="45.0" font-family="-apple-system, system-ui, BlinkMacSystemFont, Roboto" y="112.4" dominant-baseline="middle" text-anchor="end" font-size="12" fill="#24292f">16500.0</text>
        
            
            
            <path stroke="#74838f" stroke-dasharray="10 6" stroke-width="0.5"  d="M 50.0 112.4 L 974.0 112.4" />
        
    
        
        
        <text x="45.0" font-family="-apple-system, system-ui, BlinkMacSystemFont, Roboto" y="143.6" dominant-baseline="middle" text-anchor="end" font-size="12" fill="#24292f">11000.0</text>
        
            
            
            <path stroke="#74838f" stroke-dasharray="10 6" stroke-width="0.5"  d="M 50.0 143.6 L 974.0 143.6" />
        
    
        
        
        <text x="45.0" font-family="-apple-system, system-ui, BlinkMacSystemFont, Roboto" y="174.8" dominant-baseline="middle" text-anchor="end" font-size="12" fill="#24292f">5500.0</text>
        
            
            
            <path stroke="#74838f" stroke-dasharray="10 6" stroke-width="0.5"  d="M 50.0 174.8 L 974.0 174.8" />
        
    
        
        
        <text x="45.0" font-family="-apple-system, system-ui, BlinkMacSystemFont, Roboto" y="206.0" dominant-baseline="middle" text-anchor="end" font-size="12" fill="#24292f">0.0</text>
        
    
    
        
        <path stroke="#74838f"  stroke-width="2.0"  d="M 82.27947598253274 206.0 L 82.27947598253274 214.0" />
        <text x="82.27947598253274" font-family="-apple-system, system-ui, BlinkMacSystemFont, Roboto" y="216.0" dominant-baseline="hanging" text-anchor="middle" font-size="12" fill="#24292f">Mar 2022</text>
    
        
        <path stroke="#74838f"  stroke-width="2.0"  d="M 144.82096069868996 206.0 L 144.82096069868996 214.0" />
        <text x="144.82096069868996" font-family="-apple-system, system-ui, BlinkMacSystemFont, Roboto" y="216.0" dominant-baseline="hanging" text-anchor="middle" font-size="12" fill="#24292f">Apr 2022</text>
    
        
        <path stroke="#74838f"  stroke-width="2.0"  d="M 205.34497816593887 206.0 L 205.34497816593887 214.0" />
        <text x="205.34497816593887" font-family="-apple-system, system-ui, BlinkMacSystemFont, Roboto" y="216.0" dominant-baseline="hanging" text-anchor="middle" font-size="12" fill="#24292f">May 2022</text>
    
        
        <path stroke="#74838f"  stroke-width="2.0"  d="M 267.88646288209605 206.0 L 267.88646288209605 214.0" />
        <text x="267.88646288209605" font-family="-apple-system, system-ui, BlinkMacSystemFont, Roboto" y="216.0" dominant-baseline="hanging" text-anchor="middle" font-size="12" fill="#24292f">Jun 2022</text>
    
        
        <path stroke="#74838f"  stroke-width="2.0"  d="M 328.41048034934494 206.0 L 328.41048034934494 214.0" />
        <text x="328.41048034934494" font-family="-apple-system, system-ui, BlinkMacSystemFont, Roboto" y="216.0" dominant-baseline="hanging" text-anchor="middle" font-size="12" fill="#24292f">Jul 2022</text>
    
        
        <path stroke="#74838f"  stroke-width="2.0"  d="M 390.95196506550224 206.0 L 390.95196506550224 214.0" />
        <text x="390.95196506550224" font-family="-apple-system, system-ui, BlinkMacSystemFont, Roboto" y="216.0" dominant-baseline="hanging" text-anchor="middle" font-size="12" fill="#24292f">Aug 2022</text>
    
        
        <path stroke="#74838f"  stroke-width="2.0"  d="M 453.4934497816594 206.0 L 453.4934497816594 214.0" />
        <text x="453.4934497816594" font-family="-apple-system, system-ui, BlinkMacSystemFont, Roboto" y="216.0" dominant-baseline="hanging" text-anchor="middle" font-size="12" fill="#24292f">Sep 2022</text>
    
        
        <path stroke="#74838f"  stroke-width="2.0"  d="M 514.0174672489082 206.0 L 514.0174672489082 214.0" />
        <text x="514.0174672489082" font-family="-apple-system, system-ui, BlinkMacSystemFont, Roboto" y="216.0" dominant-baseline="hanging" text-anchor="middle" font-size="12" fill="#24292f">Oct 2022</text>
    
        
        <path stroke="#74838f"  stroke-width="2.0"  d="M 576.5589519650656 206.0 L 576.5589519650656 214.0" />
        <text x="576.5589519650656" font-family="-apple-system, system-ui, BlinkMacSystemFont, Roboto" y="216.0" dominant-baseline="hanging" text-anchor="middle" font-size="12" fill="#24292f">Nov 2022</text>
    
        
        <path stroke="#74838f"  stroke-width="2.0"  d="M 637.0829694323144 206.0 L 637.0829694323144 214.0" />
        <text x="637.0829694323144" font-family="-apple-system, system-ui, BlinkMacSystemFont, Roboto" y="216.0" dominant-baseline="hanging" text-anchor="middle" font-size="12" fill="#24292f">Dec 2022</text>
    
        
        <path stroke="#74838f"  stroke-width="2.0"  d="M 699.6244541484716 206.0 L 699.6244541484716 214.0" />
        <text x="699.6244541484716" font-family="-apple-system, system-ui, BlinkMacSystemFont, Roboto" y="216.0" dominant-baseline="hanging" text-anchor="middle" font-size="12" fill="#24292f">Jan 2023</text>
    
        
        <path stroke="#74838f"  stroke-width="2.0"  d="M 762.1659388646287 206.0 L 762.1659388646287 214.0" />
        <text x="762.1659388646287" font-family="-apple-system, system-ui, BlinkMacSystemFont, Roboto" y="216.0" dominant-baseline="hanging" text-anchor="middle" font-size="12" fill="#24292f">Feb 2023</text>
    
        
        <path stroke="#74838f"  stroke-width="2.0"  d="M 818.6550218340611 206.0 L 818.6550218340611 214.0" />
        <text x="818.6550218340611" font-family="-apple-system, system-ui, BlinkMacSystemFont, Roboto" y="216.0" dominant-baseline="hanging" text-anchor="middle" font-size="12" fill="#24292f">Mar 2023</text>
    
        
        <path stroke="#74838f"  stroke-width="2.0"  d="M 881.1965065502184 206.0 L 881.1965065502184 214.0" />
        <text x="881.1965065502184" font-family="-apple-system, system-ui, BlinkMacSystemFont, Roboto" y="216.0" dominant-baseline="hanging" text-anchor="middle" font-size="12" fill="#24292f">Apr 2023</text>
    
        
        <path stroke="#74838f"  stroke-width="2.0"  d="M 941.7205240174673 206.0 L 941.7205240174673 214.0" />
        <text x="941.7205240174673" font-family="-apple-system, system-ui, BlinkMacSystemFont, Roboto" y="216.0" dominant-baseline="hanging" text-anchor="middle" font-size="12" fill="#24292f">May 2023</text>
    
    <path stroke="#74838f"   stroke-linejoin="round" stroke-width="2.0" d="M 50.0 216.0 L 50.0 206.0 L 974.0 206.0 L 974.0 216.0"  fill="none" />
    <text x="512.0" y="25.0" font-family="-apple-system, system-ui, BlinkMacSystemFont, Roboto" dominant-baseline="middle" text-anchor="middle" font-size="18" fill="#24292f">Total daily screen name changes</text>
</svg>
