<?xml version="1.0" standalone="no"?>
<svg width="1024.0" height="256.0"  viewBox="0 0 1024.0 256.0" preserveAspectRatio="xMidYMid meet" xmlns="http://www.w3.org/2000/svg">
    <path stroke="#3498db" stroke-linejoin="round" d="M 50.0 203.3394909090909 L 50 203.3394909090909L 52.076404494382025 202.32974545454545L 54.15280898876404 196.86690909090908L 56.22921348314607 195.94792727272727L 58.30561797752809 202.14254545454546L 60.38202247191011 197.35476363636363L 62.45842696629214 191.76145454545454L 64.53483146067416 179.96218181818182L 66.61123595505617 204.09396363636364L 68.6876404494382 194.17236363636363L 70.76404494382022 192.61803636363635L 72.84044943820224 195.1253818181818L 74.91685393258427 193.92843636363637L 76.99325842696629 182.2482909090909L 79.06966292134831 200.86618181818181L 81.14606741573033 201.45614545454546L 83.22247191011236 178.89003636363637L 85.29887640449438 197.33774545454546L 87.37528089887641 198.50065454545455L 89.45168539325843 200.41803636363636L 91.52808988764045 201.18385454545455L 93.60449438202247 202.26734545454545L 95.68089887640448 195.09134545454546L 97.75730337078652 198.08087272727272L 99.83370786516855 183.38850909090908L 101.91011235955057 197.47389090909093L 103.98651685393259 202.01774545454546L 106.0629213483146 194.66021818181818L 108.13932584269664 200.75272727272727L 110.21573033707865 200.00392727272728L 112.29213483146067 201.97236363636364L 114.36853932584269 204.2754909090909L 116.44494382022472 201.74545454545455L 118.52134831460674 201.01367272727273L 120.59775280898876 174.7829818181818L 122.67415730337079 195.76072727272728L 124.75056179775281 204.0032L 126.82696629213484 203.7309090909091L 128.90337078651686 197.87665454545453L 130.97977528089888 202.60770909090908L 133.0561797752809 202.6928L 135.1325842696629 197.55898181818182L 137.20898876404493 186.5141818181818L 139.28539325842695 199.26647272727274L 141.36179775280897 199.5728L 143.43820224719101 193.4802909090909L 145.51460674157303 199.10763636363635L 147.59101123595508 201.54690909090908L 149.6674157303371 201.5696L 151.74382022471912 195.06865454545454L 153.82022471910113 201.70007272727273L 155.89662921348315 197.2866909090909L 157.97303370786517 172.35505454545455L 160.0494382022472 203.20901818181818L 162.1258426966292 199.6749090909091L 164.20224719101122 193.12858181818183L 166.27865168539327 196.8896L 168.35505617977526 199.78836363636364L 170.4314606741573 198.82967272727274L 172.50786516853935 204.1336727272727L 174.58426966292134 202.57934545454546L 176.6606741573034 198.9261090909091L 178.73707865168538 206L 180.81348314606743 204.128L 182.88988764044944 192.1245090909091L 184.96629213483146 206L 187.04269662921348 206L 189.1191011235955 206L 191.19550561797752 206L 193.27191011235956 197.37178181818183L 195.34831460674158 199.57847272727273L 197.4247191011236 188.9024L 199.50112359550562 195.02894545454546L 201.57752808988764 191.20552727272727L 203.65393258426968 166.8128L 205.73033707865167 203.8386909090909L 207.80674157303372 198.09221818181817L 209.8831460674157 201.64334545454545L 211.95955056179776 202.2957090909091L 214.03595505617977 203.22036363636363L 216.1123595505618 200.66763636363635L 218.18876404494384 191.51185454545455L 220.26516853932583 189.18603636363636L 222.34157303370787 203.86705454545455L 224.4179775280899 197.56465454545454L 226.4943820224719 187.32538181818182L 228.57078651685393 201.2349090909091L 230.64719101123595 200.44639999999998L 232.72359550561796 201.4618181818182L 234.8 201.09876363636363L 236.87640449438203 201.17818181818183L 238.95280898876405 193.02647272727273L 241.02921348314607 198.8069818181818L 243.10561797752808 203.39054545454545L 245.18202247191013 200.30458181818182L 247.25842696629212 198.35883636363636L 249.33483146067417 193.3101090909091L 251.41123595505616 200.56552727272728L 253.4876404494382 203.03883636363636L 255.56404494382022 197.22996363636364L 257.64044943820227 201.95534545454547L 259.7168539325843 196.016L 261.7932584269663 202.30705454545455L 263.8696629213483 199.91316363636363L 265.94606741573034 194.62050909090908L 268.02247191011236 201.29163636363637L 270.0988764044944 202.98778181818182L 272.1752808988764 203.5437090909091L 274.2516853932584 200.60523636363638L 276.32808988764043 195.5621818181818L 278.40449438202245 203.24305454545456L 280.48089887640447 200.15709090909093L 282.55730337078654 198.46661818181818L 284.6337078651685 201.70007272727273L 286.7101123595505 200.70734545454545L 288.7865168539326 200.4293818181818L 290.8629213483146 201.76814545454545L 292.9393258426966 204.6442181818182L 295.0157303370787 206L 297.09213483146067 196.35636363636365L 299.1685393258427 199.21541818181817L 301.2449438202247 156.87418181818182L 303.3213483146068 165.1506909090909L 305.3977528089888 204.1733818181818L 307.47415730337076 202.17658181818183L 309.55056179775283 199.31185454545454L 311.62696629213485 198.7842909090909L 313.7033707865168 202.6757818181818L 315.7797752808989 202.8573090909091L 317.8561797752809 196.1861818181818L 319.9325842696629 199.64654545454545L 322.00898876404494 198.2056727272727L 324.08539325842696 201.2178909090909L 326.161797752809 201.79083636363637L 328.238202247191 201.90429090909092L 330.3146067415731 200.1968L 332.39101123595503 195.17076363636363L 334.46741573033705 206L 336.5438202247191 206L 338.62022471910115 206L 340.69662921348316 191.4834909090909L 342.7730337078651 197.79723636363636L 344.8494382022472 198.85236363636363L 346.9258426966292 199.76L 349.00224719101124 200.03796363636363L 351.07865168539325 200.76407272727272L 353.1550561797753 201.80785454545455L 355.2314606741573 191.63098181818182L 357.30786516853937 194.41061818181817L 359.3842696629214 199.88479999999998L 361.46067415730334 152.63098181818182L 363.53707865168536 197.04843636363637L 365.61348314606744 194.4730181818182L 367.68988764044946 155.90414545454547L 369.7662921348314 91.60945454545454L 371.8426966292135 104.5376L 373.9191011235955 151.17876363636364L 375.9955056179775 185.1981090909091L 378.07191011235955 142.76610909090908L 380.14831460674156 125.0672L 382.2247191011236 123.74545454545455L 384.3011235955056 157.99738181818182L 386.3775280898877 53.56814545454546L 388.45393258426964 50.78850909090909L 390.53033707865166 100.02210909090908L 392.60674157303373 156.2445090909091L 394.68314606741575 180.31956363636363L 396.7595505617977 192.43650909090908L 398.8359550561798 193.63912727272728L 400.9123595505618 193.3328L 402.9887640449438 192.11316363636365L 405.06516853932584 197.93338181818183L 407.14157303370786 191.5629090909091L 409.2179775280899 198.7672727272727L 411.2943820224719 199.3005090909091L 413.37078651685397 201.64901818181818L 415.44719101123593 200.58821818181818L 417.52359550561795 202.43752727272727L 419.6 200.73003636363637L 421.67640449438204 189.7703272727273L 423.75280898876406 203.17498181818183L 425.8292134831461 200.48610909090908L 427.9056179775281 185.1810909090909L 429.9820224719101 187.88698181818182L 432.05842696629213 191.01832727272728L 434.13483146067415 192.31738181818181L 436.21123595505617 177.09745454545455L 438.2876404494382 167.91330909090908L 440.36404494382026 179.30981818181817L 442.4404494382023 186.49716363636364L 444.51685393258424 150.34487272727273L 446.5932584269663 184.27345454545454L 448.66966292134833 199.5104L 450.74606741573035 161.24785454545454L 452.8224719101123 155.49003636363636L 454.8988764044944 176.96130909090908L 456.9752808988764 190.30923636363636L 459.0516853932584 193.50865454545453L 461.12808988764044 201.72843636363638L 463.20449438202246 185.22647272727272L 465.2808988764045 192.03374545454545L 467.35730337078655 192.66909090909093L 469.43370786516857 180.18341818181818L 471.51011235955053 194.5013818181818L 473.58651685393255 194.6829090909091L 475.6629213483146 201.85323636363637L 477.73932584269664 196.2032L 479.81573033707866 204.49105454545455L 481.8921348314607 191.55723636363638L 483.9685393258427 180.36494545454545L 486.0449438202247 193.02647272727273L 488.1213483146068 186.20785454545455L 490.19775280898875 191.72741818181817L 492.27415730337077 191.4834909090909L 494.3505617977528 196.63432727272726L 496.42696629213486 200.7810909090909L 498.5033707865168 176.26923636363637L 500.57977528089884 165.78036363636363L 502.6561797752809 181.82850909090908L 504.73258426966294 160.6976L 506.80898876404495 163.93105454545454L 508.885393258427 182.10647272727272L 510.961797752809 130.808L 513.0382022471911 190.49643636363635L 515.1146067415731 202.0914909090909L 517.1910112359551 184.09192727272728L 519.267415730337 197.50225454545455L 521.3438202247191 187.54094545454547L 523.420224719101 192.95272727272726L 525.4966292134832 201.88727272727272L 527.5730337078652 184.33585454545454L 529.6494382022472 183.04814545454545L 531.7258426966292 182.36741818181818L 533.8022471910112 182.54327272727272L 535.8786516853932 186.38938181818182L 537.9550561797753 174.3858909090909L 540.0314606741574 183.1786181818182L 542.1078651685393 183.5133090909091L 544.1842696629213 184.60247272727273L 546.2606741573034 186.968L 548.3370786516854 170.00087272727274L 550.4134831460674 167.8338909090909L 552.4898876404494 203.32247272727273L 554.5662921348314 206L 556.6426966292136 128.43112727272728L 558.7191011235955 183.2637090909091L 560.7955056179776 156.8685090909091L 562.8719101123595 183.15592727272727L 564.9483146067415 183.2013090909091L 567.0247191011235 182.25963636363636L 569.1011235955057 170.18807272727273L 571.1775280898877 186.86589090909092L 573.2539325842697 183.77425454545454L 575.3303370786517 186.29861818181817L 577.4067415730336 184.17134545454545L 579.4831460674156 184.9655272727273L 581.5595505617978 178.1696L 583.6359550561798 180.70530909090908L 585.7123595505618 170.80072727272727L 587.7887640449438 177.99374545454546L 589.8651685393259 175.99127272727273L 591.9415730337079 173.75621818181818L 594.0179775280899 175.45803636363638L 596.0943820224719 196.91796363636365L 598.1707865168539 150.30516363636363L 600.2471910112359 167.34036363636363L 602.323595505618 174.52203636363637L 604.4 132.05599999999998L 606.476404494382 144.8309818181818L 608.5528089887641 173.60872727272726L 610.6292134831461 151.91054545454546L 612.7056179775282 194.03621818181819L 614.7820224719101 160.59549090909093L 616.8584269662921 206L 618.9348314606741 153.43650909090908L 621.0112359550561 181.01163636363637L 623.0876404494383 181.6413090909091L 625.1640449438203 182.49221818181817L 627.2404494382023 183.08785454545455L 629.3168539325843 206L 631.3932584269663 151.86516363636363L 633.4696629213482 172.45716363636365L 635.5460674157302 169.20669090909092L 637.6224719101124 178.22065454545455L 639.6988764044944 175.54312727272728L 641.7752808988764 177.61367272727273L 643.8516853932584 181.0173090909091L 645.9280898876405 176.80814545454547L 648.0044943820225 167.8962909090909L 650.0808988764045 167.1248L 652.1573033707865 176.62094545454545L 654.2337078651685 158.63272727272727L 656.3101123595505 151.3602909090909L 658.3865168539326 173.35345454545455L 660.4629213483146 206L 662.5393258426966 206L 664.6157303370787 206L 666.6921348314607 206L 668.7685393258428 206L 670.8449438202247 206L 672.9213483146067 206L 674.9977528089887 206L 677.0741573033707 206L 679.1505617977529 206L 681.2269662921349 206L 683.3033707865169 206L 685.3797752808989 206L 687.4561797752809 206L 689.5325842696628 206L 691.608988764045 206L 693.685393258427 206L 695.761797752809 206L 697.838202247191 206L 699.914606741573 206L 701.991011235955 206L 704.0674157303371 206L 706.1438202247191 206L 708.2202247191011 206L 710.2966292134831 206L 712.3730337078651 206L 714.4494382022472 206L 716.5258426966292 206L 718.6022471910112 206L 720.6786516853933 206L 722.7550561797754 206L 724.8314606741573 206L 726.9078651685393 206L 728.9842696629213 206L 731.0606741573033 206L 733.1370786516854 206L 735.2134831460675 206L 737.2898876404495 206L 739.3662921348315 206L 741.4426966292135 206L 743.5191011235954 206L 745.5955056179774 206L 747.6719101123596 206L 749.7483146067416 206L 751.8247191011236 206L 753.9011235955056 206L 755.9775280898876 206L 758.0539325842697 206L 760.1303370786517 206L 762.2067415730337 206L 764.2831460674157 206L 766.3595505617977 206L 768.4359550561798 206L 770.5123595505618 206L 772.5887640449438 206L 774.6651685393259 206L 776.7415730337079 206L 778.81797752809 206L 780.8943820224719 206L 782.9707865168539 206L 785.0471910112359 206L 787.1235955056179 206L 789.2 206L 791.2764044943821 206L 793.3528089887641 206L 795.4292134831461 206L 797.5056179775281 206L 799.58202247191 206L 801.6584269662922 206L 803.7348314606742 206L 805.8112359550562 206L 807.8876404494382 206L 809.9640449438202 206L 812.0404494382022 206L 814.1168539325843 206L 816.1932584269663 206L 818.2696629213483 206L 820.3460674157303 206L 822.4224719101123 206L 824.4988764044944 206L 826.5752808988764 206L 828.6516853932584 206L 830.7280898876405 206L 832.8044943820225 206L 834.8808988764046 206L 836.9573033707865 206L 839.0337078651685 206L 841.1101123595505 206L 843.1865168539326 206L 845.2629213483146 206L 847.3393258426967 206L 849.4157303370787 206L 851.4921348314607 206L 853.5685393258427 206L 855.6449438202246 206L 857.7213483146068 206L 859.7977528089888 206L 861.8741573033708 206L 863.9505617977528 206L 866.0269662921348 206L 868.1033707865168 206L 870.1797752808989 206L 872.2561797752809 206L 874.3325842696629 206L 876.4089887640449 206L 878.4853932584269 206L 880.561797752809 206L 882.638202247191 206L 884.7146067415731 206L 886.7910112359551 206L 888.8674157303371 206L 890.943820224719 206L 893.0202247191011 206L 895.0966292134831 206L 897.1730337078651 206L 899.2494382022472 206L 901.3258426966293 206L 903.4022471910113 206L 905.4786516853933 206L 907.5550561797753 206L 909.6314606741573 206L 911.7078651685392 206L 913.7842696629214 206L 915.8606741573034 206L 917.9370786516854 206L 920.0134831460674 206L 922.0898876404494 206L 924.1662921348315 206L 926.2426966292136 206L 928.3191011235955 206L 930.3955056179775 206L 932.4719101123595 206L 934.5483146067415 206L 936.6247191011236 206L 938.7011235955056 206L 940.7775280898877 206L 942.8539325842697 206L 944.9303370786517 206L 947.0067415730337 206L 949.0831460674157 206L 951.1595505617977 206L 953.2359550561797 206L 955.3123595505618 206L 957.3887640449439 206L 959.4651685393259 206L 961.5415730337079 206L 963.6179775280899 206L 965.6943820224718 206L 967.770786516854 206L 969.847191011236 206L 971.923595505618 206L 974 206" stroke-width="2.0" fill="none" />
    
        
        
        <text x="45.0" font-family="-apple-system, system-ui, BlinkMacSystemFont, Roboto" y="50.0" dominant-baseline="middle" text-anchor="end" font-size="12" fill="#24292f">27500.0</text>
        
            
            <path stroke="#74838f" stroke-dasharray="10 6" stroke-width="0.5"  d="M 50.0 50.0 L 974.0 50.0" />
        
    
        
        
        <text x="45.0" font-family="-apple-system, system-ui, BlinkMacSystemFont, Roboto" y="81.2" dominant-baseline="middle" text-anchor="end" font-size="12" fill="#24292f">22000.0</text>
        
            
            
            <path stroke="#74838f" stroke-dasharray="10 6" stroke-width="0.5"  d="M 50.0 81.2 L 974.0 81.2" />
        
    
        
        
        <text x="45.0" font-family="-apple-system, system-ui, BlinkMacSystemFont, Roboto" y="112.4" dominant-baseline="middle" text-anchor="end" font-size="12" fill="#24292f">16500.0</text>
        
            
            
            <path stroke="#74838f" stroke-dasharray="10 6" stroke-width="0.5"  d="M 50.0 112.4 L 974.0 112.4" />
        
    
        
        
        <text x="45.0" font-family="-apple-system, system-ui, BlinkMacSystemFont, Roboto" y="143.6" dominant-baseline="middle" text-anchor="end" font-size="12" fill="#24292f">11000.0</text>
        
            
            
            <path stroke="#74838f" stroke-dasharray="10 6" stroke-width="0.5"  d="M 50.0 143.6 L 974.0 143.6" />
        
    
        
        
        <text x="45.0" font-family="-apple-system, system-ui, BlinkMacSystemFont, Roboto" y="174.8" dominant-baseline="middle" text-anchor="end" font-size="12" fill="#24292f">5500.0</text>
        
            
            
            <path stroke="#74838f" stroke-dasharray="10 6" stroke-width="0.5"  d="M 50.0 174.8 L 974.0 174.8" />
        
    
        
        
        <text x="45.0" font-family="-apple-system, system-ui, BlinkMacSystemFont, Roboto" y="206.0" dominant-baseline="middle" text-anchor="end" font-size="12" fill="#24292f">0.0</text>
        
    
    
        
        <path stroke="#74838f"  stroke-width="2.0"  d="M 83.22247191011236 206.0 L 83.22247191011236 214.0" />
        <text x="83.22247191011236" font-family="-apple-system, system-ui, BlinkMacSystemFont, Roboto" y="216.0" dominant-baseline="hanging" text-anchor="middle" font-size="12" fill="#24292f">Mar 2022</text>
    
        
        <path stroke="#74838f"  stroke-width="2.0"  d="M 147.59101123595508 206.0 L 147.59101123595508 214.0" />
        <text x="147.59101123595508" font-family="-apple-system, system-ui, BlinkMacSystemFont, Roboto" y="216.0" dominant-baseline="hanging" text-anchor="middle" font-size="12" fill="#24292f">Apr 2022</text>
    
        
        <path stroke="#74838f"  stroke-width="2.0"  d="M 209.8831460674157 206.0 L 209.8831460674157 214.0" />
        <text x="209.8831460674157" font-family="-apple-system, system-ui, BlinkMacSystemFont, Roboto" y="216.0" dominant-baseline="hanging" text-anchor="middle" font-size="12" fill="#24292f">May 2022</text>
    
        
        <path stroke="#74838f"  stroke-width="2.0"  d="M 274.2516853932584 206.0 L 274.2516853932584 214.0" />
        <text x="274.2516853932584" font-family="-apple-system, system-ui, BlinkMacSystemFont, Roboto" y="216.0" dominant-baseline="hanging" text-anchor="middle" font-size="12" fill="#24292f">Jun 2022</text>
    
        
        <path stroke="#74838f"  stroke-width="2.0"  d="M 336.5438202247191 206.0 L 336.5438202247191 214.0" />
        <text x="336.5438202247191" font-family="-apple-system, system-ui, BlinkMacSystemFont, Roboto" y="216.0" dominant-baseline="hanging" text-anchor="middle" font-size="12" fill="#24292f">Jul 2022</text>
    
        
        <path stroke="#74838f"  stroke-width="2.0"  d="M 400.9123595505618 206.0 L 400.9123595505618 214.0" />
        <text x="400.9123595505618" font-family="-apple-system, system-ui, BlinkMacSystemFont, Roboto" y="216.0" dominant-baseline="hanging" text-anchor="middle" font-size="12" fill="#24292f">Aug 2022</text>
    
        
        <path stroke="#74838f"  stroke-width="2.0"  d="M 465.2808988764045 206.0 L 465.2808988764045 214.0" />
        <text x="465.2808988764045" font-family="-apple-system, system-ui, BlinkMacSystemFont, Roboto" y="216.0" dominant-baseline="hanging" text-anchor="middle" font-size="12" fill="#24292f">Sep 2022</text>
    
        
        <path stroke="#74838f"  stroke-width="2.0"  d="M 527.5730337078652 206.0 L 527.5730337078652 214.0" />
        <text x="527.5730337078652" font-family="-apple-system, system-ui, BlinkMacSystemFont, Roboto" y="216.0" dominant-baseline="hanging" text-anchor="middle" font-size="12" fill="#24292f">Oct 2022</text>
    
        
        <path stroke="#74838f"  stroke-width="2.0"  d="M 591.9415730337079 206.0 L 591.9415730337079 214.0" />
        <text x="591.9415730337079" font-family="-apple-system, system-ui, BlinkMacSystemFont, Roboto" y="216.0" dominant-baseline="hanging" text-anchor="middle" font-size="12" fill="#24292f">Nov 2022</text>
    
        
        <path stroke="#74838f"  stroke-width="2.0"  d="M 654.2337078651685 206.0 L 654.2337078651685 214.0" />
        <text x="654.2337078651685" font-family="-apple-system, system-ui, BlinkMacSystemFont, Roboto" y="216.0" dominant-baseline="hanging" text-anchor="middle" font-size="12" fill="#24292f">Dec 2022</text>
    
        
        <path stroke="#74838f"  stroke-width="2.0"  d="M 718.6022471910112 206.0 L 718.6022471910112 214.0" />
        <text x="718.6022471910112" font-family="-apple-system, system-ui, BlinkMacSystemFont, Roboto" y="216.0" dominant-baseline="hanging" text-anchor="middle" font-size="12" fill="#24292f">Jan 2023</text>
    
        
        <path stroke="#74838f"  stroke-width="2.0"  d="M 782.9707865168539 206.0 L 782.9707865168539 214.0" />
        <text x="782.9707865168539" font-family="-apple-system, system-ui, BlinkMacSystemFont, Roboto" y="216.0" dominant-baseline="hanging" text-anchor="middle" font-size="12" fill="#24292f">Feb 2023</text>
    
        
        <path stroke="#74838f"  stroke-width="2.0"  d="M 841.1101123595505 206.0 L 841.1101123595505 214.0" />
        <text x="841.1101123595505" font-family="-apple-system, system-ui, BlinkMacSystemFont, Roboto" y="216.0" dominant-baseline="hanging" text-anchor="middle" font-size="12" fill="#24292f">Mar 2023</text>
    
        
        <path stroke="#74838f"  stroke-width="2.0"  d="M 905.4786516853933 206.0 L 905.4786516853933 214.0" />
        <text x="905.4786516853933" font-family="-apple-system, system-ui, BlinkMacSystemFont, Roboto" y="216.0" dominant-baseline="hanging" text-anchor="middle" font-size="12" fill="#24292f">Apr 2023</text>
    
        
        <path stroke="#74838f"  stroke-width="2.0"  d="M 967.770786516854 206.0 L 967.770786516854 214.0" />
        <text x="967.770786516854" font-family="-apple-system, system-ui, BlinkMacSystemFont, Roboto" y="216.0" dominant-baseline="hanging" text-anchor="middle" font-size="12" fill="#24292f">May 2023</text>
    
    <path stroke="#74838f"   stroke-linejoin="round" stroke-width="2.0" d="M 50.0 216.0 L 50.0 206.0 L 974.0 206.0 L 974.0 216.0"  fill="none" />
    <text x="512.0" y="25.0" font-family="-apple-system, system-ui, BlinkMacSystemFont, Roboto" dominant-baseline="middle" text-anchor="middle" font-size="18" fill="#24292f">Total daily screen name changes</text>
</svg>
