<?xml version="1.0" standalone="no"?>
<svg width="1024.0" height="256.0"  viewBox="0 0 1024.0 256.0" preserveAspectRatio="xMidYMid meet" xmlns="http://www.w3.org/2000/svg">
    <path stroke="#3498db" stroke-linejoin="round" d="M 50.0 203.3394909090909 L 50 203.3394909090909L 52.625 202.32974545454545L 55.25 196.86690909090908L 57.875 195.94792727272727L 60.5 202.14254545454546L 63.125 197.35476363636363L 65.75 191.76145454545454L 68.375 179.96218181818182L 71 204.09396363636364L 73.625 194.17236363636363L 76.25 192.61803636363635L 78.875 195.1253818181818L 81.5 193.92843636363637L 84.125 182.2482909090909L 86.75 200.86618181818181L 89.375 201.45614545454546L 92 178.89003636363637L 94.625 197.33774545454546L 97.25 198.50065454545455L 99.875 200.41803636363636L 102.5 201.18385454545455L 105.125 202.26734545454545L 107.75 195.09134545454546L 110.375 198.08087272727272L 113 183.38850909090908L 115.625 197.47389090909093L 118.25 202.01774545454546L 120.875 194.66021818181818L 123.5 200.75272727272727L 126.125 200.00392727272728L 128.75 201.97236363636364L 131.375 204.2754909090909L 134 201.74545454545455L 136.625 201.01367272727273L 139.25 174.7829818181818L 141.875 195.76072727272728L 144.5 204.0032L 147.125 203.7309090909091L 149.75 197.87665454545453L 152.375 202.60770909090908L 155 202.6928L 157.625 197.55898181818182L 160.25 186.5141818181818L 162.875 199.26647272727274L 165.5 199.5728L 168.125 193.4802909090909L 170.75 199.10763636363635L 173.375 201.54690909090908L 176 201.5696L 178.625 195.06865454545454L 181.25 201.70007272727273L 183.875 197.2866909090909L 186.5 172.35505454545455L 189.125 203.20901818181818L 191.75 199.6749090909091L 194.375 193.12858181818183L 197 196.8896L 199.625 199.78836363636364L 202.25 198.82967272727274L 204.875 204.1336727272727L 207.5 202.57934545454546L 210.125 198.9261090909091L 212.75 206L 215.375 204.128L 218 192.1245090909091L 220.625 206L 223.25 206L 225.875 206L 228.5 206L 231.125 197.37178181818183L 233.75 199.57847272727273L 236.375 188.9024L 239 195.02894545454546L 241.625 191.20552727272727L 244.25 166.8128L 246.875 203.8386909090909L 249.5 198.09221818181817L 252.125 201.64334545454545L 254.75 202.2957090909091L 257.375 203.22036363636363L 260 200.66763636363635L 262.625 191.51185454545455L 265.25 189.18603636363636L 267.875 203.86705454545455L 270.5 197.56465454545454L 273.125 187.32538181818182L 275.75 201.2349090909091L 278.375 200.44639999999998L 281 201.4618181818182L 283.625 201.09876363636363L 286.25 201.17818181818183L 288.875 193.02647272727273L 291.5 198.8069818181818L 294.125 203.39054545454545L 296.75 200.30458181818182L 299.375 198.35883636363636L 302 193.3101090909091L 304.625 200.56552727272728L 307.25 203.03883636363636L 309.875 197.22996363636364L 312.5 201.95534545454547L 315.125 196.016L 317.75 202.30705454545455L 320.375 199.91316363636363L 323 194.62050909090908L 325.625 201.29163636363637L 328.25 202.98778181818182L 330.875 203.5437090909091L 333.5 200.60523636363638L 336.125 195.5621818181818L 338.75 203.24305454545456L 341.375 200.15709090909093L 344 198.46661818181818L 346.625 201.70007272727273L 349.25 200.70734545454545L 351.875 200.4293818181818L 354.5 201.76814545454545L 357.125 204.6442181818182L 359.75 206L 362.375 196.35636363636365L 365 199.21541818181817L 367.625 156.87418181818182L 370.25 165.1506909090909L 372.875 204.1733818181818L 375.5 202.17658181818183L 378.125 199.31185454545454L 380.75 198.7842909090909L 383.375 202.6757818181818L 386 202.8573090909091L 388.625 196.1861818181818L 391.25 199.64654545454545L 393.875 198.2056727272727L 396.5 201.2178909090909L 399.125 201.79083636363637L 401.75 201.90429090909092L 404.375 200.1968L 407 195.17076363636363L 409.625 206L 412.25 206L 414.875 206L 417.5 191.4834909090909L 420.125 197.79723636363636L 422.75 198.85236363636363L 425.375 199.76L 428 200.03796363636363L 430.625 200.76407272727272L 433.25 201.80785454545455L 435.875 191.63098181818182L 438.5 194.41061818181817L 441.125 199.88479999999998L 443.75 152.63098181818182L 446.375 197.04843636363637L 449 194.4730181818182L 451.625 155.90414545454547L 454.25 91.60945454545454L 456.875 104.5376L 459.5 151.17876363636364L 462.125 185.1981090909091L 464.75 142.76610909090908L 467.375 125.0672L 470 123.74545454545455L 472.625 157.99738181818182L 475.25 53.56814545454546L 477.875 50.78850909090909L 480.5 100.02210909090908L 483.125 156.2445090909091L 485.75 180.31956363636363L 488.375 192.43650909090908L 491 193.63912727272728L 493.625 193.3328L 496.25 192.11316363636365L 498.875 197.93338181818183L 501.5 191.5629090909091L 504.125 198.7672727272727L 506.75 199.3005090909091L 509.375 201.64901818181818L 512 200.58821818181818L 514.625 202.43752727272727L 517.25 200.73003636363637L 519.875 189.7703272727273L 522.5 203.17498181818183L 525.125 200.48610909090908L 527.75 185.1810909090909L 530.375 187.88698181818182L 533 191.01832727272728L 535.625 192.31738181818181L 538.25 177.09745454545455L 540.875 167.91330909090908L 543.5 179.30981818181817L 546.125 186.49716363636364L 548.75 150.34487272727273L 551.375 184.27345454545454L 554 199.5104L 556.625 161.24785454545454L 559.25 155.49003636363636L 561.875 176.96130909090908L 564.5 190.30923636363636L 567.125 193.50865454545453L 569.75 201.72843636363638L 572.375 185.22647272727272L 575 192.03374545454545L 577.625 192.66909090909093L 580.25 180.18341818181818L 582.875 194.5013818181818L 585.5 194.6829090909091L 588.125 201.85323636363637L 590.75 196.2032L 593.375 204.49105454545455L 596 191.55723636363638L 598.625 180.36494545454545L 601.25 193.02647272727273L 603.875 186.20785454545455L 606.5 191.72741818181817L 609.125 191.4834909090909L 611.75 196.63432727272726L 614.375 200.7810909090909L 617 176.26923636363637L 619.625 165.78036363636363L 622.25 181.82850909090908L 624.875 160.6976L 627.5 163.93105454545454L 630.125 182.10647272727272L 632.75 130.808L 635.375 190.49643636363635L 638 202.0914909090909L 640.625 184.09192727272728L 643.25 197.50225454545455L 645.875 187.54094545454547L 648.5 192.95272727272726L 651.125 201.88727272727272L 653.75 184.33585454545454L 656.375 183.04814545454545L 659 182.36741818181818L 661.625 182.54327272727272L 664.25 186.38938181818182L 666.875 174.3858909090909L 669.5 183.1786181818182L 672.125 183.5133090909091L 674.75 184.60247272727273L 677.375 186.968L 680 170.00087272727274L 682.625 167.8338909090909L 685.25 203.32247272727273L 687.875 206L 690.5 128.43112727272728L 693.125 183.2637090909091L 695.75 156.8685090909091L 698.375 183.15592727272727L 701 183.2013090909091L 703.625 182.25963636363636L 706.25 170.18807272727273L 708.875 186.86589090909092L 711.5 183.77425454545454L 714.125 186.29861818181817L 716.75 184.17134545454545L 719.375 184.9655272727273L 722 178.1696L 724.625 180.70530909090908L 727.25 170.80072727272727L 729.875 177.99374545454546L 732.5 175.99127272727273L 735.125 173.75621818181818L 737.75 175.45803636363638L 740.375 196.91796363636365L 743 150.30516363636363L 745.625 167.34036363636363L 748.25 174.52203636363637L 750.875 132.05599999999998L 753.5 144.8309818181818L 756.125 173.60872727272726L 758.75 151.91054545454546L 761.375 194.03621818181819L 764 160.59549090909093L 766.625 206L 769.25 153.43650909090908L 771.875 181.01163636363637L 774.5 181.6413090909091L 777.125 182.49221818181817L 779.75 183.08785454545455L 782.375 206L 785 151.86516363636363L 787.625 172.45716363636365L 790.25 169.20669090909092L 792.875 178.22065454545455L 795.5 175.54312727272728L 798.125 177.61367272727273L 800.75 181.0173090909091L 803.375 176.80814545454547L 806 167.8962909090909L 808.625 167.1248L 811.25 176.62094545454545L 813.875 158.63272727272727L 816.5 151.3602909090909L 819.125 173.35345454545455L 821.75 206L 824.375 206L 827 206L 829.625 206L 832.25 206L 834.875 206L 837.5 206L 840.125 206L 842.75 206L 845.375 206L 848 206L 850.625 206L 853.25 206L 855.875 206L 858.5 206L 861.125 206L 863.75 206L 866.375 206L 869 206L 871.625 206L 874.25 206L 876.875 206L 879.5 206L 882.125 206L 884.75 206L 887.375 206L 890 206L 892.625 206L 895.25 206L 897.875 206L 900.5 206L 903.125 206L 905.75 206L 908.375 206L 911 206L 913.625 206L 916.25 206L 918.875 206L 921.5 206L 924.125 206L 926.75 206L 929.375 206L 932 206L 934.625 206L 937.25 206L 939.875 206L 942.5 206L 945.125 206L 947.75 206L 950.375 206L 953 206L 955.625 206L 958.25 206L 960.875 206L 963.5 206L 966.125 206L 968.75 206L 971.375 206L 974 206" stroke-width="2.0" fill="none" />
    
        
        
        <text x="45.0" font-family="-apple-system, system-ui, BlinkMacSystemFont, Roboto" y="50.0" dominant-baseline="middle" text-anchor="end" font-size="12" fill="#24292f">27500.0</text>
        
            
            <path stroke="#74838f" stroke-dasharray="10 6" stroke-width="0.5"  d="M 50.0 50.0 L 974.0 50.0" />
        
    
        
        
        <text x="45.0" font-family="-apple-system, system-ui, BlinkMacSystemFont, Roboto" y="81.2" dominant-baseline="middle" text-anchor="end" font-size="12" fill="#24292f">22000.0</text>
        
            
            
            <path stroke="#74838f" stroke-dasharray="10 6" stroke-width="0.5"  d="M 50.0 81.2 L 974.0 81.2" />
        
    
        
        
        <text x="45.0" font-family="-apple-system, system-ui, BlinkMacSystemFont, Roboto" y="112.4" dominant-baseline="middle" text-anchor="end" font-size="12" fill="#24292f">16500.0</text>
        
            
            
            <path stroke="#74838f" stroke-dasharray="10 6" stroke-width="0.5"  d="M 50.0 112.4 L 974.0 112.4" />
        
    
        
        
        <text x="45.0" font-family="-apple-system, system-ui, BlinkMacSystemFont, Roboto" y="143.6" dominant-baseline="middle" text-anchor="end" font-size="12" fill="#24292f">11000.0</text>
        
            
            
            <path stroke="#74838f" stroke-dasharray="10 6" stroke-width="0.5"  d="M 50.0 143.6 L 974.0 143.6" />
        
    
        
        
        <text x="45.0" font-family="-apple-system, system-ui, BlinkMacSystemFont, Roboto" y="174.8" dominant-baseline="middle" text-anchor="end" font-size="12" fill="#24292f">5500.0</text>
        
            
            
            <path stroke="#74838f" stroke-dasharray="10 6" stroke-width="0.5"  d="M 50.0 174.8 L 974.0 174.8" />
        
    
        
        
        <text x="45.0" font-family="-apple-system, system-ui, BlinkMacSystemFont, Roboto" y="206.0" dominant-baseline="middle" text-anchor="end" font-size="12" fill="#24292f">0.0</text>
        
    
    
        
        <path stroke="#74838f"  stroke-width="2.0"  d="M 92.0 206.0 L 92.0 214.0" />
        <text x="92.0" font-family="-apple-system, system-ui, BlinkMacSystemFont, Roboto" y="216.0" dominant-baseline="hanging" text-anchor="middle" font-size="12" fill="#24292f">Mar 2022</text>
    
        
        <path stroke="#74838f"  stroke-width="2.0"  d="M 173.375 206.0 L 173.375 214.0" />
        <text x="173.375" font-family="-apple-system, system-ui, BlinkMacSystemFont, Roboto" y="216.0" dominant-baseline="hanging" text-anchor="middle" font-size="12" fill="#24292f">Apr 2022</text>
    
        
        <path stroke="#74838f"  stroke-width="2.0"  d="M 252.125 206.0 L 252.125 214.0" />
        <text x="252.125" font-family="-apple-system, system-ui, BlinkMacSystemFont, Roboto" y="216.0" dominant-baseline="hanging" text-anchor="middle" font-size="12" fill="#24292f">May 2022</text>
    
        
        <path stroke="#74838f"  stroke-width="2.0"  d="M 333.5 206.0 L 333.5 214.0" />
        <text x="333.5" font-family="-apple-system, system-ui, BlinkMacSystemFont, Roboto" y="216.0" dominant-baseline="hanging" text-anchor="middle" font-size="12" fill="#24292f">Jun 2022</text>
    
        
        <path stroke="#74838f"  stroke-width="2.0"  d="M 412.25 206.0 L 412.25 214.0" />
        <text x="412.25" font-family="-apple-system, system-ui, BlinkMacSystemFont, Roboto" y="216.0" dominant-baseline="hanging" text-anchor="middle" font-size="12" fill="#24292f">Jul 2022</text>
    
        
        <path stroke="#74838f"  stroke-width="2.0"  d="M 493.625 206.0 L 493.625 214.0" />
        <text x="493.625" font-family="-apple-system, system-ui, BlinkMacSystemFont, Roboto" y="216.0" dominant-baseline="hanging" text-anchor="middle" font-size="12" fill="#24292f">Aug 2022</text>
    
        
        <path stroke="#74838f"  stroke-width="2.0"  d="M 575.0 206.0 L 575.0 214.0" />
        <text x="575.0" font-family="-apple-system, system-ui, BlinkMacSystemFont, Roboto" y="216.0" dominant-baseline="hanging" text-anchor="middle" font-size="12" fill="#24292f">Sep 2022</text>
    
        
        <path stroke="#74838f"  stroke-width="2.0"  d="M 653.75 206.0 L 653.75 214.0" />
        <text x="653.75" font-family="-apple-system, system-ui, BlinkMacSystemFont, Roboto" y="216.0" dominant-baseline="hanging" text-anchor="middle" font-size="12" fill="#24292f">Oct 2022</text>
    
        
        <path stroke="#74838f"  stroke-width="2.0"  d="M 735.125 206.0 L 735.125 214.0" />
        <text x="735.125" font-family="-apple-system, system-ui, BlinkMacSystemFont, Roboto" y="216.0" dominant-baseline="hanging" text-anchor="middle" font-size="12" fill="#24292f">Nov 2022</text>
    
        
        <path stroke="#74838f"  stroke-width="2.0"  d="M 813.875 206.0 L 813.875 214.0" />
        <text x="813.875" font-family="-apple-system, system-ui, BlinkMacSystemFont, Roboto" y="216.0" dominant-baseline="hanging" text-anchor="middle" font-size="12" fill="#24292f">Dec 2022</text>
    
        
        <path stroke="#74838f"  stroke-width="2.0"  d="M 895.25 206.0 L 895.25 214.0" />
        <text x="895.25" font-family="-apple-system, system-ui, BlinkMacSystemFont, Roboto" y="216.0" dominant-baseline="hanging" text-anchor="middle" font-size="12" fill="#24292f">Jan 2023</text>
    
    <path stroke="#74838f"   stroke-linejoin="round" stroke-width="2.0" d="M 50.0 216.0 L 50.0 206.0 L 974.0 206.0 L 974.0 216.0"  fill="none" />
    <text x="512.0" y="25.0" font-family="-apple-system, system-ui, BlinkMacSystemFont, Roboto" dominant-baseline="middle" text-anchor="middle" font-size="18" fill="#24292f">Total daily screen name changes</text>
</svg>
