<?xml version="1.0" standalone="no"?>
<svg width="1024.0" height="256.0"  viewBox="0 0 1024.0 256.0" preserveAspectRatio="xMidYMid meet" xmlns="http://www.w3.org/2000/svg">
    <path stroke="#3498db" stroke-linejoin="round" d="M 50.0 203.3394909090909 L 50 203.3394909090909L 51.98283261802575 202.32974545454545L 53.9656652360515 196.86690909090908L 55.94849785407725 195.94792727272727L 57.93133047210301 202.14254545454546L 59.91416309012875 197.35476363636363L 61.896995708154506 191.76145454545454L 63.87982832618026 179.96218181818182L 65.86266094420601 204.09396363636364L 67.84549356223177 194.17236363636363L 69.8283261802575 192.61803636363635L 71.81115879828326 195.1253818181818L 73.79399141630901 193.92843636363637L 75.77682403433477 182.2482909090909L 77.75965665236052 200.86618181818181L 79.74248927038627 201.45614545454546L 81.72532188841203 178.89003636363637L 83.70815450643778 197.33774545454546L 85.69098712446353 198.50065454545455L 87.67381974248927 200.41803636363636L 89.65665236051501 201.18385454545455L 91.63948497854076 202.26734545454545L 93.62231759656652 195.09134545454546L 95.60515021459227 198.08087272727272L 97.58798283261802 183.38850909090908L 99.57081545064378 197.47389090909093L 101.55364806866953 202.01774545454546L 103.53648068669528 194.66021818181818L 105.51931330472104 200.75272727272727L 107.50214592274679 200.00392727272728L 109.48497854077253 201.97236363636364L 111.46781115879828 204.2754909090909L 113.45064377682404 201.74545454545455L 115.43347639484979 201.01367272727273L 117.41630901287554 174.7829818181818L 119.3991416309013 195.76072727272728L 121.38197424892705 204.0032L 123.36480686695279 203.7309090909091L 125.34763948497854 197.87665454545453L 127.3304721030043 202.60770909090908L 129.31330472103002 202.6928L 131.2961373390558 197.55898181818182L 133.27896995708153 186.5141818181818L 135.2618025751073 199.26647272727274L 137.24463519313304 199.5728L 139.2274678111588 193.4802909090909L 141.21030042918454 199.10763636363635L 143.1931330472103 201.54690909090908L 145.17596566523605 201.5696L 147.1587982832618 195.06865454545454L 149.14163090128756 201.70007272727273L 151.1244635193133 197.2866909090909L 153.10729613733906 172.35505454545455L 155.0901287553648 203.20901818181818L 157.07296137339057 199.6749090909091L 159.0557939914163 193.12858181818183L 161.03862660944208 196.8896L 163.0214592274678 199.78836363636364L 165.00429184549358 198.82967272727274L 166.9871244635193 204.1336727272727L 168.96995708154506 202.57934545454546L 170.95278969957081 198.9261090909091L 172.93562231759657 206L 174.91845493562232 204.128L 176.90128755364807 192.1245090909091L 178.8841201716738 206L 180.86695278969958 206L 182.8497854077253 206L 184.8326180257511 206L 186.8154506437768 197.37178181818183L 188.7982832618026 199.57847272727273L 190.78111587982832 188.9024L 192.7639484978541 195.02894545454546L 194.74678111587983 191.20552727272727L 196.72961373390558 166.8128L 198.71244635193133 203.8386909090909L 200.6952789699571 198.09221818181817L 202.67811158798284 201.64334545454545L 204.6609442060086 202.2957090909091L 206.64377682403435 203.22036363636363L 208.62660944206007 200.66763636363635L 210.60944206008583 191.51185454545455L 212.59227467811158 189.18603636363636L 214.57510729613733 203.86705454545455L 216.5579399141631 197.56465454545454L 218.54077253218884 187.32538181818182L 220.5236051502146 201.2349090909091L 222.50643776824035 200.44639999999998L 224.4892703862661 201.4618181818182L 226.47210300429185 201.09876363636363L 228.45493562231758 201.17818181818183L 230.43776824034336 193.02647272727273L 232.42060085836908 198.8069818181818L 234.40343347639487 203.39054545454545L 236.3862660944206 200.30458181818182L 238.36909871244637 198.35883636363636L 240.3519313304721 193.3101090909091L 242.33476394849785 200.56552727272728L 244.3175965665236 203.03883636363636L 246.30042918454936 197.22996363636364L 248.2832618025751 201.95534545454547L 250.26609442060087 196.016L 252.24892703862662 202.30705454545455L 254.23175965665237 199.91316363636363L 256.2145922746781 194.62050909090908L 258.19742489270385 201.29163636363637L 260.1802575107296 202.98778181818182L 262.16309012875536 203.5437090909091L 264.14592274678114 200.60523636363638L 266.12875536480686 195.5621818181818L 268.1115879828326 203.24305454545456L 270.09442060085837 200.15709090909093L 272.07725321888415 198.46661818181818L 274.0600858369098 201.70007272727273L 276.0429184549356 200.70734545454545L 278.0257510729614 200.4293818181818L 280.00858369098717 201.76814545454545L 281.9914163090129 204.6442181818182L 283.9742489270386 206L 285.9570815450644 196.35636363636365L 287.9399141630901 199.21541818181817L 289.92274678111585 156.87418181818182L 291.90557939914163 165.1506909090909L 293.8884120171674 204.1733818181818L 295.87124463519314 202.17658181818183L 297.85407725321886 199.31185454545454L 299.83690987124464 198.7842909090909L 301.8197424892704 202.6757818181818L 303.80257510729615 202.8573090909091L 305.7854077253219 196.1861818181818L 307.7682403433476 199.64654545454545L 309.7510729613734 198.2056727272727L 311.73390557939916 201.2178909090909L 313.7167381974249 201.79083636363637L 315.6995708154506 201.90429090909092L 317.6824034334764 200.1968L 319.6652360515022 195.17076363636363L 321.6480686695279 206L 323.6309012875536 206L 325.61373390557935 206L 327.5965665236052 191.4834909090909L 329.5793991416309 197.79723636363636L 331.56223175965664 198.85236363636363L 333.54506437768237 199.76L 335.5278969957082 200.03796363636363L 337.51072961373393 200.76407272727272L 339.49356223175965 201.80785454545455L 341.4763948497854 191.63098181818182L 343.45922746781116 194.41061818181817L 345.44206008583694 199.88479999999998L 347.42489270386267 152.63098181818182L 349.4077253218884 197.04843636363637L 351.3905579399142 194.4730181818182L 353.3733905579399 155.90414545454547L 355.3562231759657 91.60945454545454L 357.3390557939914 104.5376L 359.3218884120172 151.17876363636364L 361.3047210300429 185.1981090909091L 363.2875536480687 142.76610909090908L 365.2703862660944 125.0672L 367.25321888412014 123.74545454545455L 369.2360515021459 157.99738181818182L 371.21888412017165 53.56814545454546L 373.20171673819743 50.78850909090909L 375.18454935622316 100.02210909090908L 377.16738197424894 156.2445090909091L 379.15021459227466 180.31956363636363L 381.13304721030045 192.43650909090908L 383.1158798283262 193.63912727272728L 385.09871244635195 193.3328L 387.0815450643777 192.11316363636365L 389.0643776824034 197.93338181818183L 391.0472103004292 191.5629090909091L 393.03004291845497 198.7672727272727L 395.0128755364807 199.3005090909091L 396.9957081545064 201.64901818181818L 398.9785407725322 200.58821818181818L 400.961373390558 202.43752727272727L 402.9442060085837 200.73003636363637L 404.92703862660943 189.7703272727273L 406.90987124463516 203.17498181818183L 408.89270386266094 200.48610909090908L 410.8755364806867 185.1810909090909L 412.85836909871244 187.88698181818182L 414.84120171673817 191.01832727272728L 416.82403433476395 192.31738181818181L 418.80686695278973 177.09745454545455L 420.78969957081546 167.91330909090908L 422.7725321888412 179.30981818181817L 424.7553648068669 186.49716363636364L 426.73819742489275 150.34487272727273L 428.72103004291847 184.27345454545454L 430.7038626609442 199.5104L 432.6866952789699 161.24785454545454L 434.6695278969957 155.49003636363636L 436.6523605150215 176.96130909090908L 438.6351931330472 190.30923636363636L 440.61802575107293 193.50865454545453L 442.6008583690987 201.72843636363638L 444.5836909871245 185.22647272727272L 446.5665236051502 192.03374545454545L 448.54935622317595 192.66909090909093L 450.53218884120173 180.18341818181818L 452.51502145922746 194.5013818181818L 454.49785407725324 194.6829090909091L 456.48068669527896 201.85323636363637L 458.46351931330474 196.2032L 460.44635193133047 204.49105454545455L 462.42918454935625 191.55723636363638L 464.412017167382 180.36494545454545L 466.3948497854077 193.02647272727273L 468.3776824034335 186.20785454545455L 470.3605150214592 191.72741818181817L 472.343347639485 191.4834909090909L 474.3261802575107 196.63432727272726L 476.3090128755365 200.7810909090909L 478.2918454935622 176.26923636363637L 480.27467811158795 165.78036363636363L 482.2575107296137 181.82850909090908L 484.2403433476395 160.6976L 486.22317596566523 163.93105454545454L 488.20600858369096 182.10647272727272L 490.18884120171674 130.808L 492.1716738197425 190.49643636363635L 494.15450643776825 202.0914909090909L 496.137339055794 184.09192727272728L 498.1201716738197 197.50225454545455L 500.10300429184554 187.54094545454547L 502.08583690987126 192.95272727272726L 504.068669527897 201.88727272727272L 506.0515021459227 184.33585454545454L 508.0343347639485 183.04814545454545L 510.0171673819743 182.36741818181818L 512 182.54327272727272L 513.9828326180258 186.38938181818182L 515.9656652360516 174.3858909090909L 517.9484978540772 183.1786181818182L 519.9313304721029 183.5133090909091L 521.9141630901288 184.60247272727273L 523.8969957081545 186.968L 525.8798283261802 170.00087272727274L 527.862660944206 167.8338909090909L 529.8454935622317 203.32247272727273L 531.8283261802575 206L 533.8111587982833 128.43112727272728L 535.7939914163089 183.2637090909091L 537.7768240343348 156.8685090909091L 539.7596566523605 183.15592727272727L 541.7424892703863 183.2013090909091L 543.725321888412 182.25963636363636L 545.7081545064377 170.18807272727273L 547.6909871244635 186.86589090909092L 549.6738197424893 183.77425454545454L 551.656652360515 186.29861818181817L 553.6394849785408 184.17134545454545L 555.6223175965665 184.9655272727273L 557.6051502145923 178.1696L 559.5879828326181 180.70530909090908L 561.5708154506437 170.80072727272727L 563.5536480686695 177.99374545454546L 565.5364806866952 175.99127272727273L 567.519313304721 173.75621818181818L 569.5021459227468 175.45803636363638L 571.4849785407725 196.91796363636365L 573.4678111587983 150.30516363636363L 575.4506437768241 167.34036363636363L 577.4334763948498 174.52203636363637L 579.4163090128756 132.05599999999998L 581.3991416309012 144.8309818181818L 583.381974248927 173.60872727272726L 585.3648068669528 151.91054545454546L 587.3476394849786 194.03621818181819L 589.3304721030044 160.59549090909093L 591.31330472103 206L 593.2961373390558 153.43650909090908L 595.2789699570816 181.01163636363637L 597.2618025751073 181.6413090909091L 599.244635193133 182.49221818181817L 601.2274678111587 183.08785454545455L 603.2103004291846 206L 605.1931330472104 151.86516363636363L 607.175965665236 172.45716363636365L 609.1587982832618 169.20669090909092L 611.1416309012875 178.22065454545455L 613.1244635193133 175.54312727272728L 615.1072961373391 177.61367272727273L 617.0901287553647 181.0173090909091L 619.0729613733905 176.80814545454547L 621.0557939914164 167.8962909090909L 623.0386266094421 167.1248L 625.0214592274679 176.62094545454545L 627.0042918454935 158.63272727272727L 628.9871244635193 151.3602909090909L 630.9699570815451 173.35345454545455L 632.9527896995708 206L 634.9356223175965 206L 636.9184549356223 206L 638.9012875536481 206L 640.8841201716739 206L 642.8669527896996 206L 644.8497854077253 206L 646.832618025751 206L 648.8154506437768 206L 650.7982832618026 206L 652.7811158798283 206L 654.7639484978541 206L 656.7467811158798 206L 658.7296137339056 206L 660.7124463519314 206L 662.695278969957 206L 664.6781115879828 206L 666.6609442060086 206L 668.6437768240344 206L 670.6266094420602 206L 672.6094420600858 206L 674.5922746781116 206L 676.5751072961374 206L 678.5579399141631 206L 680.5407725321888 206L 682.5236051502145 206L 684.5064377682403 206L 686.4892703862662 206L 688.4721030042919 206L 690.4549356223176 206L 692.4377682403433 206L 694.4206008583691 206L 696.4034334763949 206L 698.3862660944205 206L 700.3690987124463 206L 702.3519313304721 206L 704.3347639484979 206L 706.3175965665237 206L 708.3004291845493 206L 710.2832618025751 206L 712.2660944206009 206L 714.2489270386266 206L 716.2317596566523 206L 718.2145922746781 206L 720.1974248927039 206L 722.1802575107297 206L 724.1630901287554 206L 726.1459227467811 206L 728.1287553648068 206L 730.1115879828326 206L 732.0944206008584 206L 734.077253218884 206L 736.0600858369099 206L 738.0429184549356 206L 740.0257510729614 206L 742.0085836909872 206L 743.9914163090128 206L 745.9742489270386 206L 747.9570815450644 206L 749.9399141630901 206L 751.922746781116 206L 753.9055793991416 206L 755.8884120171674 206L 757.8712446351932 206L 759.8540772532189 206L 761.8369098712446 206L 763.8197424892703 206L 765.8025751072961 206L 767.7854077253219 206L 769.7682403433477 206L 771.7510729613734 206L 773.7339055793991 206L 775.7167381974249 206L 777.6995708154507 206L 779.6824034334763 206L 781.6652360515021 206L 783.6480686695279 206L 785.6309012875537 206L 787.6137339055795 206L 789.5965665236051 206L 791.5793991416309 206L 793.5622317596567 206L 795.5450643776824 206L 797.5278969957081 206L 799.5107296137338 206L 801.4935622317597 206L 803.4763948497855 206L 805.4592274678112 206L 807.4420600858369 206L 809.4248927038626 206L 811.4077253218884 206L 813.3905579399142 206L 815.3733905579398 206L 817.3562231759656 206L 819.3390557939914 206L 821.3218884120172 206L 823.304721030043 206L 825.2875536480686 206L 827.2703862660944 206L 829.2532188841202 206L 831.2360515021459 206L 833.2188841201717 206L 835.2017167381974 206L 837.1845493562232 206L 839.167381974249 206L 841.1502145922747 206L 843.1330472103004 206L 845.1158798283261 206L 847.0987124463519 206L 849.0815450643777 206L 851.0643776824035 206L 853.0472103004292 206L 855.0300429184549 206L 857.0128755364807 206L 858.9957081545065 206L 860.9785407725321 206L 862.9613733905579 206L 864.9442060085836 206L 866.9270386266095 206L 868.9098712446353 206L 870.8927038626609 206L 872.8755364806867 206L 874.8583690987125 206L 876.8412017167382 206L 878.824034334764 206L 880.8068669527896 206L 882.7896995708154 206L 884.7725321888413 206L 886.755364806867 206L 888.7381974248927 206L 890.7210300429184 206L 892.7038626609442 206L 894.68669527897 206L 896.6695278969956 206L 898.6523605150214 206L 900.6351931330472 206L 902.618025751073 206L 904.6008583690988 206L 906.5836909871244 206L 908.5665236051502 206L 910.5493562231759 206L 912.5321888412017 206L 914.5150214592275 206L 916.4978540772532 206L 918.480686695279 206L 920.4635193133048 206L 922.4463519313305 206L 924.4291845493563 206L 926.4120171673819 206L 928.3948497854077 206L 930.3776824034335 206L 932.3605150214592 206L 934.343347639485 206L 936.3261802575107 206L 938.3090128755365 206L 940.2918454935623 206L 942.274678111588 206L 944.2575107296137 206L 946.2403433476394 206L 948.2231759656652 206L 950.2060085836911 206L 952.1888412017167 206L 954.1716738197425 206L 956.1545064377683 206L 958.137339055794 206L 960.1201716738198 206L 962.1030042918454 206L 964.0858369098712 206L 966.068669527897 206L 968.0515021459228 206L 970.0343347639486 206L 972.0171673819742 206L 974 206" stroke-width="2.0" fill="none" />
    
        
        
        <text x="45.0" font-family="-apple-system, system-ui, BlinkMacSystemFont, Roboto" y="50.0" dominant-baseline="middle" text-anchor="end" font-size="12" fill="#24292f">27500.0</text>
        
            
            <path stroke="#74838f" stroke-dasharray="10 6" stroke-width="0.5"  d="M 50.0 50.0 L 974.0 50.0" />
        
    
        
        
        <text x="45.0" font-family="-apple-system, system-ui, BlinkMacSystemFont, Roboto" y="81.2" dominant-baseline="middle" text-anchor="end" font-size="12" fill="#24292f">22000.0</text>
        
            
            
            <path stroke="#74838f" stroke-dasharray="10 6" stroke-width="0.5"  d="M 50.0 81.2 L 974.0 81.2" />
        
    
        
        
        <text x="45.0" font-family="-apple-system, system-ui, BlinkMacSystemFont, Roboto" y="112.4" dominant-baseline="middle" text-anchor="end" font-size="12" fill="#24292f">16500.0</text>
        
            
            
            <path stroke="#74838f" stroke-dasharray="10 6" stroke-width="0.5"  d="M 50.0 112.4 L 974.0 112.4" />
        
    
        
        
        <text x="45.0" font-family="-apple-system, system-ui, BlinkMacSystemFont, Roboto" y="143.6" dominant-baseline="middle" text-anchor="end" font-size="12" fill="#24292f">11000.0</text>
        
            
            
            <path stroke="#74838f" stroke-dasharray="10 6" stroke-width="0.5"  d="M 50.0 143.6 L 974.0 143.6" />
        
    
        
        
        <text x="45.0" font-family="-apple-system, system-ui, BlinkMacSystemFont, Roboto" y="174.8" dominant-baseline="middle" text-anchor="end" font-size="12" fill="#24292f">5500.0</text>
        
            
            
            <path stroke="#74838f" stroke-dasharray="10 6" stroke-width="0.5"  d="M 50.0 174.8 L 974.0 174.8" />
        
    
        
        
        <text x="45.0" font-family="-apple-system, system-ui, BlinkMacSystemFont, Roboto" y="206.0" dominant-baseline="middle" text-anchor="end" font-size="12" fill="#24292f">0.0</text>
        
    
    
        
        <path stroke="#74838f"  stroke-width="2.0"  d="M 81.72532188841203 206.0 L 81.72532188841203 214.0" />
        <text x="81.72532188841203" font-family="-apple-system, system-ui, BlinkMacSystemFont, Roboto" y="216.0" dominant-baseline="hanging" text-anchor="middle" font-size="12" fill="#24292f">Mar 2022</text>
    
        
        <path stroke="#74838f"  stroke-width="2.0"  d="M 143.1931330472103 206.0 L 143.1931330472103 214.0" />
        <text x="143.1931330472103" font-family="-apple-system, system-ui, BlinkMacSystemFont, Roboto" y="216.0" dominant-baseline="hanging" text-anchor="middle" font-size="12" fill="#24292f">Apr 2022</text>
    
        
        <path stroke="#74838f"  stroke-width="2.0"  d="M 202.67811158798284 206.0 L 202.67811158798284 214.0" />
        <text x="202.67811158798284" font-family="-apple-system, system-ui, BlinkMacSystemFont, Roboto" y="216.0" dominant-baseline="hanging" text-anchor="middle" font-size="12" fill="#24292f">May 2022</text>
    
        
        <path stroke="#74838f"  stroke-width="2.0"  d="M 264.14592274678114 206.0 L 264.14592274678114 214.0" />
        <text x="264.14592274678114" font-family="-apple-system, system-ui, BlinkMacSystemFont, Roboto" y="216.0" dominant-baseline="hanging" text-anchor="middle" font-size="12" fill="#24292f">Jun 2022</text>
    
        
        <path stroke="#74838f"  stroke-width="2.0"  d="M 323.6309012875536 206.0 L 323.6309012875536 214.0" />
        <text x="323.6309012875536" font-family="-apple-system, system-ui, BlinkMacSystemFont, Roboto" y="216.0" dominant-baseline="hanging" text-anchor="middle" font-size="12" fill="#24292f">Jul 2022</text>
    
        
        <path stroke="#74838f"  stroke-width="2.0"  d="M 385.09871244635195 206.0 L 385.09871244635195 214.0" />
        <text x="385.09871244635195" font-family="-apple-system, system-ui, BlinkMacSystemFont, Roboto" y="216.0" dominant-baseline="hanging" text-anchor="middle" font-size="12" fill="#24292f">Aug 2022</text>
    
        
        <path stroke="#74838f"  stroke-width="2.0"  d="M 446.5665236051502 206.0 L 446.5665236051502 214.0" />
        <text x="446.5665236051502" font-family="-apple-system, system-ui, BlinkMacSystemFont, Roboto" y="216.0" dominant-baseline="hanging" text-anchor="middle" font-size="12" fill="#24292f">Sep 2022</text>
    
        
        <path stroke="#74838f"  stroke-width="2.0"  d="M 506.0515021459227 206.0 L 506.0515021459227 214.0" />
        <text x="506.0515021459227" font-family="-apple-system, system-ui, BlinkMacSystemFont, Roboto" y="216.0" dominant-baseline="hanging" text-anchor="middle" font-size="12" fill="#24292f">Oct 2022</text>
    
        
        <path stroke="#74838f"  stroke-width="2.0"  d="M 567.519313304721 206.0 L 567.519313304721 214.0" />
        <text x="567.519313304721" font-family="-apple-system, system-ui, BlinkMacSystemFont, Roboto" y="216.0" dominant-baseline="hanging" text-anchor="middle" font-size="12" fill="#24292f">Nov 2022</text>
    
        
        <path stroke="#74838f"  stroke-width="2.0"  d="M 627.0042918454935 206.0 L 627.0042918454935 214.0" />
        <text x="627.0042918454935" font-family="-apple-system, system-ui, BlinkMacSystemFont, Roboto" y="216.0" dominant-baseline="hanging" text-anchor="middle" font-size="12" fill="#24292f">Dec 2022</text>
    
        
        <path stroke="#74838f"  stroke-width="2.0"  d="M 688.4721030042919 206.0 L 688.4721030042919 214.0" />
        <text x="688.4721030042919" font-family="-apple-system, system-ui, BlinkMacSystemFont, Roboto" y="216.0" dominant-baseline="hanging" text-anchor="middle" font-size="12" fill="#24292f">Jan 2023</text>
    
        
        <path stroke="#74838f"  stroke-width="2.0"  d="M 749.9399141630901 206.0 L 749.9399141630901 214.0" />
        <text x="749.9399141630901" font-family="-apple-system, system-ui, BlinkMacSystemFont, Roboto" y="216.0" dominant-baseline="hanging" text-anchor="middle" font-size="12" fill="#24292f">Feb 2023</text>
    
        
        <path stroke="#74838f"  stroke-width="2.0"  d="M 805.4592274678112 206.0 L 805.4592274678112 214.0" />
        <text x="805.4592274678112" font-family="-apple-system, system-ui, BlinkMacSystemFont, Roboto" y="216.0" dominant-baseline="hanging" text-anchor="middle" font-size="12" fill="#24292f">Mar 2023</text>
    
        
        <path stroke="#74838f"  stroke-width="2.0"  d="M 866.9270386266095 206.0 L 866.9270386266095 214.0" />
        <text x="866.9270386266095" font-family="-apple-system, system-ui, BlinkMacSystemFont, Roboto" y="216.0" dominant-baseline="hanging" text-anchor="middle" font-size="12" fill="#24292f">Apr 2023</text>
    
        
        <path stroke="#74838f"  stroke-width="2.0"  d="M 926.4120171673819 206.0 L 926.4120171673819 214.0" />
        <text x="926.4120171673819" font-family="-apple-system, system-ui, BlinkMacSystemFont, Roboto" y="216.0" dominant-baseline="hanging" text-anchor="middle" font-size="12" fill="#24292f">May 2023</text>
    
    <path stroke="#74838f"   stroke-linejoin="round" stroke-width="2.0" d="M 50.0 216.0 L 50.0 206.0 L 974.0 206.0 L 974.0 216.0"  fill="none" />
    <text x="512.0" y="25.0" font-family="-apple-system, system-ui, BlinkMacSystemFont, Roboto" dominant-baseline="middle" text-anchor="middle" font-size="18" fill="#24292f">Total daily screen name changes</text>
</svg>
