<?xml version="1.0" standalone="no"?>
<svg width="1024.0" height="256.0"  viewBox="0 0 1024.0 256.0" preserveAspectRatio="xMidYMid meet" xmlns="http://www.w3.org/2000/svg">
    <path stroke="#3498db" stroke-linejoin="round" d="M 50.0 203.3394909090909 L 50 203.3394909090909L 52.5595567867036 202.32974545454545L 55.119113573407205 196.86690909090908L 57.6786703601108 195.94792727272727L 60.2382271468144 202.14254545454546L 62.797783933518005 197.35476363636363L 65.3573407202216 191.76145454545454L 67.91689750692521 179.96218181818182L 70.4764542936288 204.09396363636364L 73.03601108033241 194.17236363636363L 75.59556786703601 192.61803636363635L 78.15512465373962 195.1253818181818L 80.71468144044321 193.92843636363637L 83.27423822714681 182.2482909090909L 85.83379501385042 200.86618181818181L 88.39335180055402 201.45614545454546L 90.95290858725761 178.89003636363637L 93.51246537396122 197.33774545454546L 96.07202216066483 198.50065454545455L 98.63157894736841 200.41803636363636L 101.19113573407202 201.18385454545455L 103.75069252077563 202.26734545454545L 106.31024930747922 195.09134545454546L 108.86980609418282 198.08087272727272L 111.42936288088643 183.38850909090908L 113.98891966759004 197.47389090909093L 116.54847645429363 202.01774545454546L 119.10803324099723 194.66021818181818L 121.66759002770083 200.75272727272727L 124.22714681440443 200.00392727272728L 126.78670360110803 201.97236363636364L 129.34626038781164 204.2754909090909L 131.90581717451522 201.74545454545455L 134.46537396121886 201.01367272727273L 137.02493074792244 174.7829818181818L 139.58448753462605 195.76072727272728L 142.14404432132966 204.0032L 144.70360110803324 203.7309090909091L 147.26315789473682 197.87665454545453L 149.82271468144046 202.60770909090908L 152.38227146814404 202.6928L 154.94182825484765 197.55898181818182L 157.50138504155126 186.5141818181818L 160.06094182825484 199.26647272727274L 162.62049861495845 199.5728L 165.18005540166206 193.4802909090909L 167.73961218836564 199.10763636363635L 170.29916897506928 201.54690909090908L 172.85872576177286 201.5696L 175.41828254847647 195.06865454545454L 177.97783933518008 201.70007272727273L 180.53739612188366 197.2866909090909L 183.09695290858727 172.35505454545455L 185.65650969529088 203.20901818181818L 188.21606648199446 199.6749090909091L 190.77562326869804 193.12858181818183L 193.33518005540165 196.8896L 195.89473684210526 199.78836363636364L 198.45429362880887 198.82967272727274L 201.01385041551245 204.1336727272727L 203.57340720221606 202.57934545454546L 206.13296398891967 198.9261090909091L 208.69252077562328 206L 211.25207756232686 204.128L 213.81163434903047 192.1245090909091L 216.37119113573408 206L 218.9307479224377 206L 221.49030470914127 206L 224.04986149584488 206L 226.6094182825485 197.37178181818183L 229.1689750692521 199.57847272727273L 231.72853185595568 188.9024L 234.2880886426593 195.02894545454546L 236.8476454293629 191.20552727272727L 239.4072022160665 166.8128L 241.96675900277006 203.8386909090909L 244.52631578947367 198.09221818181817L 247.08587257617728 201.64334545454545L 249.6454293628809 202.2957090909091L 252.20498614958447 203.22036363636363L 254.76454293628808 200.66763636363635L 257.3240997229917 191.51185454545455L 259.8836565096953 189.18603636363636L 262.4432132963989 203.86705454545455L 265.0027700831025 197.56465454545454L 267.5623268698061 187.32538181818182L 270.1218836565097 201.2349090909091L 272.6814404432133 200.44639999999998L 275.2409972299169 201.4618181818182L 277.8005540166205 201.09876363636363L 280.3601108033241 201.17818181818183L 282.91966759002764 193.02647272727273L 285.4792243767313 198.8069818181818L 288.0387811634349 203.39054545454545L 290.59833795013856 200.30458181818182L 293.1578947368421 198.35883636363636L 295.7174515235457 193.3101090909091L 298.2770083102493 200.56552727272728L 300.83656509695294 203.03883636363636L 303.3961218836565 197.22996363636364L 305.95567867036016 201.95534545454547L 308.5152354570637 196.016L 311.0747922437673 202.30705454545455L 313.6343490304709 199.91316363636363L 316.19390581717454 194.62050909090908L 318.7534626038781 201.29163636363637L 321.31301939058176 202.98778181818182L 323.87257617728534 203.5437090909091L 326.4321329639889 200.60523636363638L 328.9916897506925 195.5621818181818L 331.5512465373961 203.24305454545456L 334.1108033240997 200.15709090909093L 336.6703601108033 198.46661818181818L 339.22991689750694 201.70007272727273L 341.7894736842105 200.70734545454545L 344.34903047091416 200.4293818181818L 346.90858725761774 201.76814545454545L 349.4681440443213 204.6442181818182L 352.0277008310249 206L 354.58725761772854 196.35636363636365L 357.1468144044321 199.21541818181817L 359.70637119113576 156.87418181818182L 362.26592797783934 165.1506909090909L 364.825484764543 204.1733818181818L 367.38504155124656 202.17658181818183L 369.94459833795014 199.31185454545454L 372.5041551246537 198.7842909090909L 375.06371191135736 202.6757818181818L 377.62326869806094 202.8573090909091L 380.1828254847645 196.1861818181818L 382.74238227146816 199.64654545454545L 385.30193905817174 198.2056727272727L 387.8614958448754 201.2178909090909L 390.4210526315789 201.79083636363637L 392.98060941828254 201.90429090909092L 395.5401662049861 200.1968L 398.09972299168976 195.17076363636363L 400.65927977839334 206L 403.218836565097 206L 405.77839335180056 206L 408.3379501385042 191.4834909090909L 410.8975069252077 197.79723636363636L 413.45706371191136 198.85236363636363L 416.01662049861494 199.76L 418.5761772853186 200.03796363636363L 421.13573407202216 200.76407272727272L 423.6952908587258 201.80785454545455L 426.2548476454294 191.63098181818182L 428.814404432133 194.41061818181817L 431.37396121883654 199.88479999999998L 433.9335180055401 152.63098181818182L 436.49307479224376 197.04843636363637L 439.05263157894734 194.4730181818182L 441.612188365651 155.90414545454547L 444.17174515235456 91.60945454545454L 446.7313019390582 104.5376L 449.2908587257618 151.17876363636364L 451.85041551246536 185.1981090909091L 454.40997229916894 142.76610909090908L 456.9695290858726 125.0672L 459.52908587257616 123.74545454545455L 462.0886426592798 157.99738181818182L 464.6481994459834 53.56814545454546L 467.207756232687 50.78850909090909L 469.7673130193906 100.02210909090908L 472.3268698060942 156.2445090909091L 474.88642659279776 180.31956363636363L 477.4459833795014 192.43650909090908L 480.005540166205 193.63912727272728L 482.5650969529086 193.3328L 485.1246537396122 192.11316363636365L 487.6842105263158 197.93338181818183L 490.2437673130194 191.5629090909091L 492.80332409972294 198.7672727272727L 495.3628808864266 199.3005090909091L 497.92243767313016 201.64901818181818L 500.4819944598338 200.58821818181818L 503.0415512465374 202.43752727272727L 505.601108033241 200.73003636363637L 508.1606648199446 189.7703272727273L 510.72022160664824 203.17498181818183L 513.2797783933518 200.48610909090908L 515.8393351800553 185.1810909090909L 518.398891966759 187.88698181818182L 520.9584487534626 191.01832727272728L 523.5180055401662 192.31738181818181L 526.0775623268698 177.09745454545455L 528.6371191135735 167.91330909090908L 531.1966759002771 179.30981818181817L 533.7562326869806 186.49716363636364L 536.3157894736842 150.34487272727273L 538.8753462603879 184.27345454545454L 541.4349030470914 199.5104L 543.994459833795 161.24785454545454L 546.5540166204986 155.49003636363636L 549.1135734072022 176.96130909090908L 551.6731301939059 190.30923636363636L 554.2326869806094 193.50865454545453L 556.792243767313 201.72843636363638L 559.3518005540166 185.22647272727272L 561.9113573407203 192.03374545454545L 564.4709141274238 192.66909090909093L 567.0304709141274 180.18341818181818L 569.590027700831 194.5013818181818L 572.1495844875346 194.6829090909091L 574.7091412742383 201.85323636363637L 577.2686980609418 196.2032L 579.8282548476454 204.49105454545455L 582.3878116343491 191.55723636363638L 584.9473684210526 180.36494545454545L 587.5069252077562 193.02647272727273L 590.0664819944598 186.20785454545455L 592.6260387811635 191.72741818181817L 595.185595567867 191.4834909090909L 597.7451523545707 196.63432727272726L 600.3047091412742 200.7810909090909L 602.8642659279778 176.26923636363637L 605.4238227146815 165.78036363636363L 607.983379501385 181.82850909090908L 610.5429362880886 160.6976L 613.1024930747922 163.93105454545454L 615.6620498614959 182.10647272727272L 618.2216066481994 130.808L 620.7811634349031 190.49643636363635L 623.3407202216066 202.0914909090909L 625.9002770083102 184.09192727272728L 628.4598337950139 197.50225454545455L 631.0193905817174 187.54094545454547L 633.578947368421 192.95272727272726L 636.1385041551247 201.88727272727272L 638.6980609418283 184.33585454545454L 641.2576177285318 183.04814545454545L 643.8171745152355 182.36741818181818L 646.3767313019391 182.54327272727272L 648.9362880886426 186.38938181818182L 651.4958448753463 174.3858909090909L 654.0554016620498 183.1786181818182L 656.6149584487534 183.5133090909091L 659.1745152354571 184.60247272727273L 661.7340720221607 186.968L 664.2936288088642 170.00087272727274L 666.8531855955679 167.8338909090909L 669.4127423822715 203.32247272727273L 671.972299168975 206L 674.5318559556787 128.43112727272728L 677.0914127423822 183.2637090909091L 679.650969529086 156.8685090909091L 682.2105263157895 183.15592727272727L 684.7700831024931 183.2013090909091L 687.3296398891966 182.25963636363636L 689.8891966759003 170.18807272727273L 692.4487534626039 186.86589090909092L 695.0083102493074 183.77425454545454L 697.5678670360111 186.29861818181817L 700.1274238227147 184.17134545454545L 702.6869806094184 184.9655272727273L 705.2465373961219 178.1696L 707.8060941828255 180.70530909090908L 710.365650969529 170.80072727272727L 712.9252077562327 177.99374545454546L 715.4847645429363 175.99127272727273L 718.0443213296398 173.75621818181818L 720.6038781163435 175.45803636363638L 723.1634349030471 196.91796363636365L 725.7229916897508 150.30516363636363L 728.2825484764543 167.34036363636363L 730.8421052631578 174.52203636363637L 733.4016620498616 132.05599999999998L 735.9612188365651 144.8309818181818L 738.5207756232687 173.60872727272726L 741.0803324099722 151.91054545454546L 743.639889196676 194.03621818181819L 746.1994459833795 160.59549090909093L 748.759002770083 206L 751.3185595567867 153.43650909090908L 753.8781163434903 181.01163636363637L 756.437673130194 181.6413090909091L 758.9972299168975 182.49221818181817L 761.5567867036011 183.08785454545455L 764.1163434903046 206L 766.6759002770084 151.86516363636363L 769.2354570637119 172.45716363636365L 771.7950138504154 169.20669090909092L 774.3545706371191 178.22065454545455L 776.9141274238227 175.54312727272728L 779.4736842105264 177.61367272727273L 782.0332409972299 181.0173090909091L 784.5927977839335 176.80814545454547L 787.1523545706372 167.8962909090909L 789.7119113573407 167.1248L 792.2714681440443 176.62094545454545L 794.8310249307478 158.63272727272727L 797.3905817174516 151.3602909090909L 799.9501385041551 173.35345454545455L 802.5096952908588 206L 805.0692520775623 206L 807.628808864266 206L 810.1883656509696 206L 812.7479224376731 206L 815.3074792243767 206L 817.8670360110802 206L 820.426592797784 206L 822.9861495844875 206L 825.5457063711912 206L 828.1052631578947 206L 830.6648199445983 206L 833.224376731302 206L 835.7839335180055 206L 838.3434903047091 206L 840.9030470914128 206L 843.4626038781164 206L 846.0221606648199 206L 848.5817174515236 206L 851.1412742382272 206L 853.7008310249307 206L 856.2603878116344 206L 858.8199445983379 206L 861.3795013850416 206L 863.9390581717452 206L 866.4986149584488 206L 869.0581717451523 206L 871.617728531856 206L 874.1772853185596 206L 876.7368421052631 206L 879.2963988919668 206L 881.8559556786703 206L 884.415512465374 206L 886.9750692520776 206L 889.5346260387812 206L 892.0941828254847 206L 894.6537396121884 206L 897.213296398892 206L 899.7728531855955 206L 902.3324099722992 206L 904.8919667590028 206L 907.4515235457064 206L 910.01108033241 206L 912.5706371191136 206L 915.1301939058172 206L 917.6897506925208 206L 920.2493074792244 206L 922.8088642659279 206L 925.3684210526316 206L 927.9279778393352 206L 930.4875346260388 206L 933.0470914127424 206L 935.6066481994459 206L 938.1662049861496 206L 940.7257617728532 206L 943.2853185595568 206L 945.8448753462603 206L 948.4044321329641 206L 950.9639889196676 206L 953.5235457063712 206L 956.0831024930748 206L 958.6426592797784 206L 961.202216066482 206L 963.7617728531856 206L 966.3213296398892 206L 968.8808864265928 206L 971.4404432132965 206L 974 206" stroke-width="2.0" fill="none" />
    
        
        
        <text x="45.0" font-family="-apple-system, system-ui, BlinkMacSystemFont, Roboto" y="50.0" dominant-baseline="middle" text-anchor="end" font-size="12" fill="#24292f">27500.0</text>
        
            
            <path stroke="#74838f" stroke-dasharray="10 6" stroke-width="0.5"  d="M 50.0 50.0 L 974.0 50.0" />
        
    
        
        
        <text x="45.0" font-family="-apple-system, system-ui, BlinkMacSystemFont, Roboto" y="81.2" dominant-baseline="middle" text-anchor="end" font-size="12" fill="#24292f">22000.0</text>
        
            
            
            <path stroke="#74838f" stroke-dasharray="10 6" stroke-width="0.5"  d="M 50.0 81.2 L 974.0 81.2" />
        
    
        
        
        <text x="45.0" font-family="-apple-system, system-ui, BlinkMacSystemFont, Roboto" y="112.4" dominant-baseline="middle" text-anchor="end" font-size="12" fill="#24292f">16500.0</text>
        
            
            
            <path stroke="#74838f" stroke-dasharray="10 6" stroke-width="0.5"  d="M 50.0 112.4 L 974.0 112.4" />
        
    
        
        
        <text x="45.0" font-family="-apple-system, system-ui, BlinkMacSystemFont, Roboto" y="143.6" dominant-baseline="middle" text-anchor="end" font-size="12" fill="#24292f">11000.0</text>
        
            
            
            <path stroke="#74838f" stroke-dasharray="10 6" stroke-width="0.5"  d="M 50.0 143.6 L 974.0 143.6" />
        
    
        
        
        <text x="45.0" font-family="-apple-system, system-ui, BlinkMacSystemFont, Roboto" y="174.8" dominant-baseline="middle" text-anchor="end" font-size="12" fill="#24292f">5500.0</text>
        
            
            
            <path stroke="#74838f" stroke-dasharray="10 6" stroke-width="0.5"  d="M 50.0 174.8 L 974.0 174.8" />
        
    
        
        
        <text x="45.0" font-family="-apple-system, system-ui, BlinkMacSystemFont, Roboto" y="206.0" dominant-baseline="middle" text-anchor="end" font-size="12" fill="#24292f">0.0</text>
        
    
    
        
        <path stroke="#74838f"  stroke-width="2.0"  d="M 90.95290858725761 206.0 L 90.95290858725761 214.0" />
        <text x="90.95290858725761" font-family="-apple-system, system-ui, BlinkMacSystemFont, Roboto" y="216.0" dominant-baseline="hanging" text-anchor="middle" font-size="12" fill="#24292f">Mar 2022</text>
    
        
        <path stroke="#74838f"  stroke-width="2.0"  d="M 170.29916897506928 206.0 L 170.29916897506928 214.0" />
        <text x="170.29916897506928" font-family="-apple-system, system-ui, BlinkMacSystemFont, Roboto" y="216.0" dominant-baseline="hanging" text-anchor="middle" font-size="12" fill="#24292f">Apr 2022</text>
    
        
        <path stroke="#74838f"  stroke-width="2.0"  d="M 247.08587257617728 206.0 L 247.08587257617728 214.0" />
        <text x="247.08587257617728" font-family="-apple-system, system-ui, BlinkMacSystemFont, Roboto" y="216.0" dominant-baseline="hanging" text-anchor="middle" font-size="12" fill="#24292f">May 2022</text>
    
        
        <path stroke="#74838f"  stroke-width="2.0"  d="M 326.4321329639889 206.0 L 326.4321329639889 214.0" />
        <text x="326.4321329639889" font-family="-apple-system, system-ui, BlinkMacSystemFont, Roboto" y="216.0" dominant-baseline="hanging" text-anchor="middle" font-size="12" fill="#24292f">Jun 2022</text>
    
        
        <path stroke="#74838f"  stroke-width="2.0"  d="M 403.218836565097 206.0 L 403.218836565097 214.0" />
        <text x="403.218836565097" font-family="-apple-system, system-ui, BlinkMacSystemFont, Roboto" y="216.0" dominant-baseline="hanging" text-anchor="middle" font-size="12" fill="#24292f">Jul 2022</text>
    
        
        <path stroke="#74838f"  stroke-width="2.0"  d="M 482.5650969529086 206.0 L 482.5650969529086 214.0" />
        <text x="482.5650969529086" font-family="-apple-system, system-ui, BlinkMacSystemFont, Roboto" y="216.0" dominant-baseline="hanging" text-anchor="middle" font-size="12" fill="#24292f">Aug 2022</text>
    
        
        <path stroke="#74838f"  stroke-width="2.0"  d="M 561.9113573407203 206.0 L 561.9113573407203 214.0" />
        <text x="561.9113573407203" font-family="-apple-system, system-ui, BlinkMacSystemFont, Roboto" y="216.0" dominant-baseline="hanging" text-anchor="middle" font-size="12" fill="#24292f">Sep 2022</text>
    
        
        <path stroke="#74838f"  stroke-width="2.0"  d="M 638.6980609418283 206.0 L 638.6980609418283 214.0" />
        <text x="638.6980609418283" font-family="-apple-system, system-ui, BlinkMacSystemFont, Roboto" y="216.0" dominant-baseline="hanging" text-anchor="middle" font-size="12" fill="#24292f">Oct 2022</text>
    
        
        <path stroke="#74838f"  stroke-width="2.0"  d="M 718.0443213296398 206.0 L 718.0443213296398 214.0" />
        <text x="718.0443213296398" font-family="-apple-system, system-ui, BlinkMacSystemFont, Roboto" y="216.0" dominant-baseline="hanging" text-anchor="middle" font-size="12" fill="#24292f">Nov 2022</text>
    
        
        <path stroke="#74838f"  stroke-width="2.0"  d="M 794.8310249307478 206.0 L 794.8310249307478 214.0" />
        <text x="794.8310249307478" font-family="-apple-system, system-ui, BlinkMacSystemFont, Roboto" y="216.0" dominant-baseline="hanging" text-anchor="middle" font-size="12" fill="#24292f">Dec 2022</text>
    
        
        <path stroke="#74838f"  stroke-width="2.0"  d="M 874.1772853185596 206.0 L 874.1772853185596 214.0" />
        <text x="874.1772853185596" font-family="-apple-system, system-ui, BlinkMacSystemFont, Roboto" y="216.0" dominant-baseline="hanging" text-anchor="middle" font-size="12" fill="#24292f">Jan 2023</text>
    
        
        <path stroke="#74838f"  stroke-width="2.0"  d="M 953.5235457063712 206.0 L 953.5235457063712 214.0" />
        <text x="953.5235457063712" font-family="-apple-system, system-ui, BlinkMacSystemFont, Roboto" y="216.0" dominant-baseline="hanging" text-anchor="middle" font-size="12" fill="#24292f">Feb 2023</text>
    
    <path stroke="#74838f"   stroke-linejoin="round" stroke-width="2.0" d="M 50.0 216.0 L 50.0 206.0 L 974.0 206.0 L 974.0 216.0"  fill="none" />
    <text x="512.0" y="25.0" font-family="-apple-system, system-ui, BlinkMacSystemFont, Roboto" dominant-baseline="middle" text-anchor="middle" font-size="18" fill="#24292f">Total daily screen name changes</text>
</svg>
