<?xml version="1.0" standalone="no"?>
<svg width="1024.0" height="256.0"  viewBox="0 0 1024.0 256.0" preserveAspectRatio="xMidYMid meet" xmlns="http://www.w3.org/2000/svg">
    <path stroke="#3498db" stroke-linejoin="round" d="M 50.0 203.3394909090909 L 50 203.3394909090909L 51.87044534412956 202.32974545454545L 53.74089068825911 196.86690909090908L 55.611336032388664 195.94792727272727L 57.48178137651822 202.14254545454546L 59.35222672064777 197.35476363636363L 61.22267206477733 191.76145454545454L 63.093117408906885 179.96218181818182L 64.96356275303644 204.09396363636364L 66.83400809716599 194.17236363636363L 68.70445344129554 192.61803636363635L 70.57489878542509 195.1253818181818L 72.44534412955466 193.92843636363637L 74.3157894736842 182.2482909090909L 76.18623481781377 200.86618181818181L 78.05668016194332 201.45614545454546L 79.92712550607288 178.89003636363637L 81.79757085020242 197.33774545454546L 83.66801619433198 198.50065454545455L 85.53846153846155 200.41803636363636L 87.40890688259108 201.18385454545455L 89.27935222672065 202.26734545454545L 91.1497975708502 195.09134545454546L 93.02024291497976 198.08087272727272L 94.89068825910931 183.38850909090908L 96.76113360323887 197.47389090909093L 98.63157894736841 202.01774545454546L 100.50202429149797 194.66021818181818L 102.37246963562754 200.75272727272727L 104.24291497975707 200.00392727272728L 106.11336032388664 201.97236363636364L 107.98380566801619 204.2754909090909L 109.85425101214575 201.74545454545455L 111.7246963562753 201.01367272727273L 113.59514170040485 174.7829818181818L 115.46558704453442 195.76072727272728L 117.33603238866397 204.0032L 119.20647773279352 203.7309090909091L 121.07692307692308 197.87665454545453L 122.94736842105263 202.60770909090908L 124.81781376518218 202.6928L 126.68825910931174 197.55898181818182L 128.5587044534413 186.5141818181818L 130.42914979757086 199.26647272727274L 132.2995951417004 199.5728L 134.17004048582996 193.4802909090909L 136.04048582995952 199.10763636363635L 137.91093117408906 201.54690909090908L 139.78137651821862 201.5696L 141.65182186234819 195.06865454545454L 143.52226720647775 201.70007272727273L 145.39271255060729 197.2866909090909L 147.26315789473682 172.35505454545455L 149.13360323886639 203.20901818181818L 151.00404858299595 199.6749090909091L 152.8744939271255 193.12858181818183L 154.74493927125508 196.8896L 156.61538461538464 199.78836363636364L 158.48582995951415 198.82967272727274L 160.3562753036437 204.1336727272727L 162.22672064777328 202.57934545454546L 164.09716599190284 198.9261090909091L 165.96761133603238 206L 167.83805668016197 204.128L 169.7085020242915 192.1245090909091L 171.57894736842104 206L 173.4493927125506 206L 175.31983805668017 206L 177.1902834008097 206L 179.0607287449393 197.37178181818183L 180.93117408906883 199.57847272727273L 182.80161943319837 188.9024L 184.67206477732793 195.02894545454546L 186.5425101214575 191.20552727272727L 188.41295546558703 166.8128L 190.2834008097166 203.8386909090909L 192.15384615384616 198.09221818181817L 194.0242914979757 201.64334545454545L 195.89473684210526 202.2957090909091L 197.76518218623482 203.22036363636363L 199.63562753036436 200.66763636363635L 201.50607287449392 191.51185454545455L 203.3765182186235 189.18603636363636L 205.24696356275305 203.86705454545455L 207.1174089068826 197.56465454545454L 208.98785425101212 187.32538181818182L 210.85829959514172 201.2349090909091L 212.72874493927125 200.44639999999998L 214.5991902834008 201.4618181818182L 216.46963562753038 201.09876363636363L 218.34008097165992 201.17818181818183L 220.21052631578945 193.02647272727273L 222.08097165991904 198.8069818181818L 223.95141700404858 203.39054545454545L 225.82186234817814 200.30458181818182L 227.6923076923077 198.35883636363636L 229.56275303643724 193.3101090909091L 231.4331983805668 200.56552727272728L 233.30364372469637 203.03883636363636L 235.1740890688259 197.22996363636364L 237.04453441295547 201.95534545454547L 238.914979757085 196.016L 240.78542510121457 202.30705454545455L 242.65587044534414 199.91316363636363L 244.52631578947367 194.62050909090908L 246.39676113360323 201.29163636363637L 248.2672064777328 202.98778181818182L 250.13765182186233 203.5437090909091L 252.0080971659919 200.60523636363638L 253.87854251012146 195.5621818181818L 255.748987854251 203.24305454545456L 257.6194331983806 200.15709090909093L 259.48987854251016 198.46661818181818L 261.36032388663966 201.70007272727273L 263.2307692307693 200.70734545454545L 265.1012145748988 200.4293818181818L 266.9716599190283 201.76814545454545L 268.8421052631579 204.6442181818182L 270.7125506072874 206L 272.582995951417 196.35636363636365L 274.45344129554655 199.21541818181817L 276.3238866396761 156.87418181818182L 278.1943319838057 165.1506909090909L 280.0647773279352 204.1733818181818L 281.93522267206475 202.17658181818183L 283.8056680161943 199.31185454545454L 285.67611336032394 198.7842909090909L 287.54655870445345 202.6757818181818L 289.417004048583 202.8573090909091L 291.2874493927126 196.1861818181818L 293.1578947368421 199.64654545454545L 295.0283400809717 198.2056727272727L 296.8987854251012 201.2178909090909L 298.7692307692307 201.79083636363637L 300.63967611336034 201.90429090909092L 302.5101214574899 200.1968L 304.3805668016194 195.17076363636363L 306.251012145749 206L 308.1214574898786 206L 309.9919028340081 206L 311.86234817813767 191.4834909090909L 313.7327935222672 197.79723636363636L 315.60323886639674 198.85236363636363L 317.4736842105263 199.76L 319.34412955465586 200.03796363636363L 321.21457489878543 200.76407272727272L 323.085020242915 201.80785454545455L 324.9554655870445 191.63098181818182L 326.82591093117406 194.41061818181817L 328.6963562753037 199.88479999999998L 330.5668016194332 152.63098181818182L 332.43724696356276 197.04843636363637L 334.3076923076923 194.4730181818182L 336.1781376518218 155.90414545454547L 338.0485829959514 91.60945454545454L 339.919028340081 104.5376L 341.7894736842105 151.17876363636364L 343.6599190283401 185.1981090909091L 345.53036437246965 142.76610909090908L 347.40080971659916 125.0672L 349.2712550607287 123.74545454545455L 351.14170040485834 157.99738181818182L 353.01214574898785 53.56814545454546L 354.8825910931174 50.78850909090909L 356.753036437247 100.02210909090908L 358.6234817813765 156.2445090909091L 360.4939271255061 180.31956363636363L 362.36437246963567 192.43650909090908L 364.2348178137652 193.63912727272728L 366.10526315789474 193.3328L 367.97570850202425 192.11316363636365L 369.8461538461538 197.93338181818183L 371.71659919028343 191.5629090909091L 373.58704453441294 198.7672727272727L 375.4574898785425 199.3005090909091L 377.32793522267207 201.64901818181818L 379.1983805668016 200.58821818181818L 381.0688259109312 202.43752727272727L 382.93927125506076 200.73003636363637L 384.80971659919027 189.7703272727273L 386.68016194331983 203.17498181818183L 388.5506072874494 200.48610909090908L 390.4210526315789 185.1810909090909L 392.2914979757085 187.88698181818182L 394.1619433198381 191.01832727272728L 396.0323886639676 192.31738181818181L 397.90283400809716 177.09745454545455L 399.7732793522267 167.91330909090908L 401.6437246963563 179.30981818181817L 403.51417004048585 186.49716363636364L 405.3846153846154 150.34487272727273L 407.2550607287449 184.27345454545454L 409.1255060728745 199.5104L 410.99595141700405 161.24785454545454L 412.8663967611336 155.49003636363636L 414.7368421052632 176.96130909090908L 416.60728744939274 190.30923636363636L 418.47773279352225 193.50865454545453L 420.3481781376518 201.72843636363638L 422.2186234817814 185.22647272727272L 424.08906882591094 192.03374545454545L 425.9595141700405 192.66909090909093L 427.82995951417 180.18341818181818L 429.7004048582996 194.5013818181818L 431.57085020242914 194.6829090909091L 433.4412955465587 201.85323636363637L 435.31174089068827 196.2032L 437.18218623481783 204.49105454545455L 439.05263157894734 191.55723636363638L 440.9230769230769 180.36494545454545L 442.79352226720647 193.02647272727273L 444.66396761133603 186.20785454545455L 446.5344129554656 191.72741818181817L 448.40485829959516 191.4834909090909L 450.27530364372467 196.63432727272726L 452.14574898785423 200.7810909090909L 454.0161943319838 176.26923636363637L 455.88663967611336 165.78036363636363L 457.7570850202429 181.82850909090908L 459.6275303643725 160.6976L 461.497975708502 163.93105454545454L 463.36842105263156 182.10647272727272L 465.2388663967612 130.808L 467.1093117408907 190.49643636363635L 468.97975708502025 202.0914909090909L 470.8502024291498 184.09192727272728L 472.7206477732793 197.50225454545455L 474.5910931174089 187.54094545454547L 476.4615384615385 192.95272727272726L 478.331983805668 201.88727272727272L 480.2024291497976 184.33585454545454L 482.07287449392715 183.04814545454545L 483.94331983805665 182.36741818181818L 485.8137651821862 182.54327272727272L 487.6842105263158 186.38938181818182L 489.55465587044534 174.3858909090909L 491.4251012145749 183.1786181818182L 493.2955465587044 183.5133090909091L 495.165991902834 184.60247272727273L 497.0364372469636 186.968L 498.9068825910931 170.00087272727274L 500.7773279352227 167.8338909090909L 502.64777327935224 203.32247272727273L 504.51821862348174 206L 506.3886639676113 128.43112727272728L 508.25910931174093 183.2637090909091L 510.12955465587044 156.8685090909091L 512 183.15592727272727L 513.8704453441295 183.2013090909091L 515.7408906882591 182.25963636363636L 517.6113360323886 170.18807272727273L 519.4817813765183 186.86589090909092L 521.3522267206479 183.77425454545454L 523.2226720647773 186.29861818181817L 525.0931174089069 184.17134545454545L 526.9635627530365 184.9655272727273L 528.834008097166 178.1696L 530.7044534412955 180.70530909090908L 532.5748987854251 170.80072727272727L 534.4453441295547 177.99374545454546L 536.3157894736842 175.99127272727273L 538.1862348178138 173.75621818181818L 540.0566801619434 175.45803636363638L 541.9271255060728 196.91796363636365L 543.7975708502024 150.30516363636363L 545.668016194332 167.34036363636363L 547.5384615384614 174.52203636363637L 549.408906882591 132.05599999999998L 551.2793522267207 144.8309818181818L 553.1497975708502 173.60872727272726L 555.0202429149798 151.91054545454546L 556.8906882591093 194.03621818181819L 558.7611336032388 160.59549090909093L 560.6315789473686 206L 562.502024291498 153.43650909090908L 564.3724696356276 181.01163636363637L 566.2429149797572 181.6413090909091L 568.1133603238867 182.49221818181817L 569.9838056680162 183.08785454545455L 571.8542510121457 206L 573.7246963562753 151.86516363636363L 575.5951417004048 172.45716363636365L 577.4655870445343 169.20669090909092L 579.336032388664 178.22065454545455L 581.2064777327935 175.54312727272728L 583.076923076923 177.61367272727273L 584.9473684210526 181.0173090909091L 586.8178137651822 176.80814545454547L 588.6882591093117 167.8962909090909L 590.5587044534414 167.1248L 592.4291497975709 176.62094545454545L 594.2995951417004 158.63272727272727L 596.17004048583 151.3602909090909L 598.0404858299595 173.35345454545455L 599.910931174089 206L 601.7813765182186 206L 603.6518218623481 206L 605.5222672064776 206L 607.3927125506074 206L 609.2631578947369 206L 611.1336032388664 206L 613.004048582996 206L 614.8744939271255 206L 616.744939271255 206L 618.6153846153846 206L 620.4858299595141 206L 622.3562753036437 206L 624.2267206477733 206L 626.0971659919028 206L 627.9676113360324 206L 629.838056680162 206L 631.7085020242915 206L 633.578947368421 206L 635.4493927125507 206L 637.3198380566802 206L 639.1902834008097 206L 641.0607287449393 206L 642.9311740890688 206L 644.8016194331983 206L 646.6720647773279 206L 648.5425101214574 206L 650.4129554655871 206L 652.2834008097167 206L 654.1538461538462 206L 656.0242914979757 206L 657.8947368421053 206L 659.7651821862348 206L 661.6356275303643 206L 663.506072874494 206L 665.3765182186235 206L 667.246963562753 206L 669.1174089068826 206L 670.9878542510122 206L 672.8582995951417 206L 674.7287449392713 206L 676.5991902834008 206L 678.4696356275304 206L 680.34008097166 206L 682.2105263157895 206L 684.080971659919 206L 685.9514170040485 206L 687.8218623481781 206L 689.6923076923076 206L 691.5627530364372 206L 693.4331983805669 206L 695.3036437246964 206L 697.1740890688259 206L 699.0445344129555 206L 700.914979757085 206L 702.7854251012145 206L 704.6558704453441 206L 706.5263157894736 206L 708.3967611336031 206L 710.2672064777328 206L 712.1376518218624 206L 714.0080971659919 206L 715.8785425101215 206L 717.748987854251 206L 719.6194331983805 206L 721.4898785425102 206L 723.3603238866397 206L 725.2307692307692 206L 727.1012145748988 206L 728.9716599190283 206L 730.8421052631578 206L 732.7125506072874 206L 734.582995951417 206L 736.4534412955466 206L 738.3238866396762 206L 740.1943319838057 206L 742.0647773279352 206L 743.9352226720648 206L 745.8056680161943 206L 747.6761133603238 206L 749.5465587044534 206L 751.417004048583 206L 753.2874493927126 206L 755.1578947368422 206L 757.0283400809717 206L 758.8987854251012 206L 760.7692307692308 206L 762.6396761133603 206L 764.5101214574898 206L 766.3805668016195 206L 768.251012145749 206L 770.1214574898785 206L 771.9919028340081 206L 773.8623481781376 206L 775.7327935222672 206L 777.6032388663969 206L 779.4736842105264 206L 781.3441295546559 206L 783.2145748987855 206L 785.085020242915 206L 786.9554655870445 206L 788.8259109311741 206L 790.6963562753036 206L 792.5668016194331 206L 794.4372469635628 206L 796.3076923076924 206L 798.1781376518219 206L 800.0485829959515 206L 801.919028340081 206L 803.7894736842105 206L 805.65991902834 206L 807.5303643724696 206L 809.4008097165992 206L 811.2712550607287 206L 813.1417004048583 206L 815.0121457489878 206L 816.8825910931174 206L 818.753036437247 206L 820.6234817813765 206L 822.493927125506 206L 824.3643724696357 206L 826.2348178137652 206L 828.1052631578947 206L 829.9757085020243 206L 831.8461538461538 206L 833.7165991902833 206L 835.5870445344129 206L 837.4574898785426 206L 839.3279352226721 206L 841.1983805668017 206L 843.0688259109312 206L 844.9392712550607 206L 846.8097165991903 206L 848.6801619433198 206L 850.5506072874493 206L 852.421052631579 206L 854.2914979757085 206L 856.161943319838 206L 858.0323886639676 206L 859.9028340080972 206L 861.7732793522267 206L 863.6437246963563 206L 865.5141700404859 206L 867.3846153846154 206L 869.255060728745 206L 871.1255060728745 206L 872.995951417004 206L 874.8663967611336 206L 876.7368421052631 206L 878.6072874493926 206L 880.4777327935224 206L 882.3481781376519 206L 884.2186234817814 206L 886.089068825911 206L 887.9595141700405 206L 889.82995951417 206L 891.7004048582996 206L 893.5708502024291 206L 895.4412955465586 206L 897.3117408906883 206L 899.1821862348178 206L 901.0526315789474 206L 902.923076923077 206L 904.7935222672065 206L 906.663967611336 206L 908.5344129554657 206L 910.4048582995952 206L 912.2753036437247 206L 914.1457489878543 206L 916.0161943319838 206L 917.8866396761133 206L 919.7570850202428 206L 921.6275303643724 206L 923.497975708502 206L 925.3684210526316 206L 927.2388663967612 206L 929.1093117408907 206L 930.9797570850202 206L 932.8502024291498 206L 934.7206477732793 206L 936.5910931174088 206L 938.4615384615385 206L 940.331983805668 206L 942.2024291497976 206L 944.0728744939272 206L 945.9433198380567 206L 947.8137651821862 206L 949.6842105263158 206L 951.5546558704453 206L 953.4251012145749 206L 955.2955465587045 206L 957.165991902834 206L 959.0364372469635 206L 960.9068825910931 206L 962.7773279352226 206L 964.6477732793522 206L 966.5182186234819 206L 968.3886639676114 206L 970.2591093117409 206L 972.1295546558705 206L 974 206" stroke-width="2.0" fill="none" />
    
        
        
        <text x="45.0" font-family="-apple-system, system-ui, BlinkMacSystemFont, Roboto" y="50.0" dominant-baseline="middle" text-anchor="end" font-size="12" fill="#24292f">27500.0</text>
        
            
            <path stroke="#74838f" stroke-dasharray="10 6" stroke-width="0.5"  d="M 50.0 50.0 L 974.0 50.0" />
        
    
        
        
        <text x="45.0" font-family="-apple-system, system-ui, BlinkMacSystemFont, Roboto" y="81.2" dominant-baseline="middle" text-anchor="end" font-size="12" fill="#24292f">22000.0</text>
        
            
            
            <path stroke="#74838f" stroke-dasharray="10 6" stroke-width="0.5"  d="M 50.0 81.2 L 974.0 81.2" />
        
    
        
        
        <text x="45.0" font-family="-apple-system, system-ui, BlinkMacSystemFont, Roboto" y="112.4" dominant-baseline="middle" text-anchor="end" font-size="12" fill="#24292f">16500.0</text>
        
            
            
            <path stroke="#74838f" stroke-dasharray="10 6" stroke-width="0.5"  d="M 50.0 112.4 L 974.0 112.4" />
        
    
        
        
        <text x="45.0" font-family="-apple-system, system-ui, BlinkMacSystemFont, Roboto" y="143.6" dominant-baseline="middle" text-anchor="end" font-size="12" fill="#24292f">11000.0</text>
        
            
            
            <path stroke="#74838f" stroke-dasharray="10 6" stroke-width="0.5"  d="M 50.0 143.6 L 974.0 143.6" />
        
    
        
        
        <text x="45.0" font-family="-apple-system, system-ui, BlinkMacSystemFont, Roboto" y="174.8" dominant-baseline="middle" text-anchor="end" font-size="12" fill="#24292f">5500.0</text>
        
            
            
            <path stroke="#74838f" stroke-dasharray="10 6" stroke-width="0.5"  d="M 50.0 174.8 L 974.0 174.8" />
        
    
        
        
        <text x="45.0" font-family="-apple-system, system-ui, BlinkMacSystemFont, Roboto" y="206.0" dominant-baseline="middle" text-anchor="end" font-size="12" fill="#24292f">0.0</text>
        
    
    
        
        <path stroke="#74838f"  stroke-width="2.0"  d="M 79.92712550607288 206.0 L 79.92712550607288 214.0" />
        <text x="79.92712550607288" font-family="-apple-system, system-ui, BlinkMacSystemFont, Roboto" y="216.0" dominant-baseline="hanging" text-anchor="middle" font-size="12" fill="#24292f">Mar 2022</text>
    
        
        <path stroke="#74838f"  stroke-width="2.0"  d="M 137.91093117408906 206.0 L 137.91093117408906 214.0" />
        <text x="137.91093117408906" font-family="-apple-system, system-ui, BlinkMacSystemFont, Roboto" y="216.0" dominant-baseline="hanging" text-anchor="middle" font-size="12" fill="#24292f">Apr 2022</text>
    
        
        <path stroke="#74838f"  stroke-width="2.0"  d="M 194.0242914979757 206.0 L 194.0242914979757 214.0" />
        <text x="194.0242914979757" font-family="-apple-system, system-ui, BlinkMacSystemFont, Roboto" y="216.0" dominant-baseline="hanging" text-anchor="middle" font-size="12" fill="#24292f">May 2022</text>
    
        
        <path stroke="#74838f"  stroke-width="2.0"  d="M 252.0080971659919 206.0 L 252.0080971659919 214.0" />
        <text x="252.0080971659919" font-family="-apple-system, system-ui, BlinkMacSystemFont, Roboto" y="216.0" dominant-baseline="hanging" text-anchor="middle" font-size="12" fill="#24292f">Jun 2022</text>
    
        
        <path stroke="#74838f"  stroke-width="2.0"  d="M 308.1214574898786 206.0 L 308.1214574898786 214.0" />
        <text x="308.1214574898786" font-family="-apple-system, system-ui, BlinkMacSystemFont, Roboto" y="216.0" dominant-baseline="hanging" text-anchor="middle" font-size="12" fill="#24292f">Jul 2022</text>
    
        
        <path stroke="#74838f"  stroke-width="2.0"  d="M 366.10526315789474 206.0 L 366.10526315789474 214.0" />
        <text x="366.10526315789474" font-family="-apple-system, system-ui, BlinkMacSystemFont, Roboto" y="216.0" dominant-baseline="hanging" text-anchor="middle" font-size="12" fill="#24292f">Aug 2022</text>
    
        
        <path stroke="#74838f"  stroke-width="2.0"  d="M 424.08906882591094 206.0 L 424.08906882591094 214.0" />
        <text x="424.08906882591094" font-family="-apple-system, system-ui, BlinkMacSystemFont, Roboto" y="216.0" dominant-baseline="hanging" text-anchor="middle" font-size="12" fill="#24292f">Sep 2022</text>
    
        
        <path stroke="#74838f"  stroke-width="2.0"  d="M 480.2024291497976 206.0 L 480.2024291497976 214.0" />
        <text x="480.2024291497976" font-family="-apple-system, system-ui, BlinkMacSystemFont, Roboto" y="216.0" dominant-baseline="hanging" text-anchor="middle" font-size="12" fill="#24292f">Oct 2022</text>
    
        
        <path stroke="#74838f"  stroke-width="2.0"  d="M 538.1862348178138 206.0 L 538.1862348178138 214.0" />
        <text x="538.1862348178138" font-family="-apple-system, system-ui, BlinkMacSystemFont, Roboto" y="216.0" dominant-baseline="hanging" text-anchor="middle" font-size="12" fill="#24292f">Nov 2022</text>
    
        
        <path stroke="#74838f"  stroke-width="2.0"  d="M 594.2995951417004 206.0 L 594.2995951417004 214.0" />
        <text x="594.2995951417004" font-family="-apple-system, system-ui, BlinkMacSystemFont, Roboto" y="216.0" dominant-baseline="hanging" text-anchor="middle" font-size="12" fill="#24292f">Dec 2022</text>
    
        
        <path stroke="#74838f"  stroke-width="2.0"  d="M 652.2834008097167 206.0 L 652.2834008097167 214.0" />
        <text x="652.2834008097167" font-family="-apple-system, system-ui, BlinkMacSystemFont, Roboto" y="216.0" dominant-baseline="hanging" text-anchor="middle" font-size="12" fill="#24292f">Jan 2023</text>
    
        
        <path stroke="#74838f"  stroke-width="2.0"  d="M 710.2672064777328 206.0 L 710.2672064777328 214.0" />
        <text x="710.2672064777328" font-family="-apple-system, system-ui, BlinkMacSystemFont, Roboto" y="216.0" dominant-baseline="hanging" text-anchor="middle" font-size="12" fill="#24292f">Feb 2023</text>
    
        
        <path stroke="#74838f"  stroke-width="2.0"  d="M 762.6396761133603 206.0 L 762.6396761133603 214.0" />
        <text x="762.6396761133603" font-family="-apple-system, system-ui, BlinkMacSystemFont, Roboto" y="216.0" dominant-baseline="hanging" text-anchor="middle" font-size="12" fill="#24292f">Mar 2023</text>
    
        
        <path stroke="#74838f"  stroke-width="2.0"  d="M 820.6234817813765 206.0 L 820.6234817813765 214.0" />
        <text x="820.6234817813765" font-family="-apple-system, system-ui, BlinkMacSystemFont, Roboto" y="216.0" dominant-baseline="hanging" text-anchor="middle" font-size="12" fill="#24292f">Apr 2023</text>
    
        
        <path stroke="#74838f"  stroke-width="2.0"  d="M 876.7368421052631 206.0 L 876.7368421052631 214.0" />
        <text x="876.7368421052631" font-family="-apple-system, system-ui, BlinkMacSystemFont, Roboto" y="216.0" dominant-baseline="hanging" text-anchor="middle" font-size="12" fill="#24292f">May 2023</text>
    
        
        <path stroke="#74838f"  stroke-width="2.0"  d="M 934.7206477732793 206.0 L 934.7206477732793 214.0" />
        <text x="934.7206477732793" font-family="-apple-system, system-ui, BlinkMacSystemFont, Roboto" y="216.0" dominant-baseline="hanging" text-anchor="middle" font-size="12" fill="#24292f">Jun 2023</text>
    
    <path stroke="#74838f"   stroke-linejoin="round" stroke-width="2.0" d="M 50.0 216.0 L 50.0 206.0 L 974.0 206.0 L 974.0 216.0"  fill="none" />
    <text x="512.0" y="25.0" font-family="-apple-system, system-ui, BlinkMacSystemFont, Roboto" dominant-baseline="middle" text-anchor="middle" font-size="18" fill="#24292f">Total daily screen name changes</text>
</svg>
