<?xml version="1.0" standalone="no"?>
<svg width="1024.0" height="256.0"  viewBox="0 0 1024.0 256.0" preserveAspectRatio="xMidYMid meet" xmlns="http://www.w3.org/2000/svg">
    <path stroke="#3498db" stroke-linejoin="round" d="M 50.0 203.3394909090909 L 50 203.3394909090909L 52.464 202.32974545454545L 54.928 196.86690909090908L 57.392 195.94792727272727L 59.856 202.14254545454546L 62.32 197.35476363636363L 64.784 191.76145454545454L 67.248 179.96218181818182L 69.712 204.09396363636364L 72.176 194.17236363636363L 74.64 192.61803636363635L 77.104 195.1253818181818L 79.568 193.92843636363637L 82.032 182.2482909090909L 84.49600000000001 200.86618181818181L 86.96000000000001 201.45614545454546L 89.424 178.89003636363637L 91.888 197.33774545454546L 94.352 198.50065454545455L 96.816 200.41803636363636L 99.28 201.18385454545455L 101.744 202.26734545454545L 104.208 195.09134545454546L 106.672 198.08087272727272L 109.136 183.38850909090908L 111.6 197.47389090909093L 114.064 202.01774545454546L 116.52799999999999 194.66021818181818L 118.992 200.75272727272727L 121.456 200.00392727272728L 123.92 201.97236363636364L 126.384 204.2754909090909L 128.848 201.74545454545455L 131.312 201.01367272727273L 133.776 174.7829818181818L 136.24 195.76072727272728L 138.704 204.0032L 141.168 203.7309090909091L 143.632 197.87665454545453L 146.096 202.60770909090908L 148.56 202.6928L 151.024 197.55898181818182L 153.488 186.5141818181818L 155.952 199.26647272727274L 158.416 199.5728L 160.88 193.4802909090909L 163.344 199.10763636363635L 165.808 201.54690909090908L 168.272 201.5696L 170.736 195.06865454545454L 173.2 201.70007272727273L 175.66400000000002 197.2866909090909L 178.128 172.35505454545455L 180.592 203.20901818181818L 183.05599999999998 199.6749090909091L 185.52 193.12858181818183L 187.984 196.8896L 190.448 199.78836363636364L 192.912 198.82967272727274L 195.376 204.1336727272727L 197.84 202.57934545454546L 200.304 198.9261090909091L 202.768 206L 205.232 204.128L 207.696 192.1245090909091L 210.16 206L 212.624 206L 215.088 206L 217.55200000000002 206L 220.016 197.37178181818183L 222.48000000000002 199.57847272727273L 224.944 188.9024L 227.40800000000002 195.02894545454546L 229.87199999999999 191.20552727272727L 232.336 166.8128L 234.8 203.8386909090909L 237.26399999999998 198.09221818181817L 239.728 201.64334545454545L 242.19199999999998 202.2957090909091L 244.656 203.22036363636363L 247.12 200.66763636363635L 249.584 191.51185454545455L 252.048 189.18603636363636L 254.512 203.86705454545455L 256.976 197.56465454545454L 259.44 187.32538181818182L 261.904 201.2349090909091L 264.36800000000005 200.44639999999998L 266.832 201.4618181818182L 269.29600000000005 201.09876363636363L 271.76 201.17818181818183L 274.224 193.02647272727273L 276.688 198.8069818181818L 279.152 203.39054545454545L 281.616 200.30458181818182L 284.08000000000004 198.35883636363636L 286.544 193.3101090909091L 289.008 200.56552727272728L 291.472 203.03883636363636L 293.93600000000004 197.22996363636364L 296.4 201.95534545454547L 298.864 196.016L 301.32800000000003 202.30705454545455L 303.79200000000003 199.91316363636363L 306.256 194.62050909090908L 308.72 201.29163636363637L 311.184 202.98778181818182L 313.64799999999997 203.5437090909091L 316.11199999999997 200.60523636363638L 318.576 195.5621818181818L 321.04 203.24305454545456L 323.50399999999996 200.15709090909093L 325.968 198.46661818181818L 328.432 201.70007272727273L 330.896 200.70734545454545L 333.35999999999996 200.4293818181818L 335.824 201.76814545454545L 338.288 204.6442181818182L 340.752 206L 343.216 196.35636363636365L 345.68 199.21541818181817L 348.144 156.87418181818182L 350.608 165.1506909090909L 353.072 204.1733818181818L 355.536 202.17658181818183L 358 199.31185454545454L 360.464 198.7842909090909L 362.928 202.6757818181818L 365.392 202.8573090909091L 367.856 196.1861818181818L 370.32 199.64654545454545L 372.784 198.2056727272727L 375.248 201.2178909090909L 377.712 201.79083636363637L 380.176 201.90429090909092L 382.64 200.1968L 385.10400000000004 195.17076363636363L 387.568 206L 390.032 206L 392.496 206L 394.96000000000004 191.4834909090909L 397.424 197.79723636363636L 399.888 198.85236363636363L 402.35200000000003 199.76L 404.81600000000003 200.03796363636363L 407.28 200.76407272727272L 409.74399999999997 201.80785454545455L 412.208 191.63098181818182L 414.672 194.41061818181817L 417.13599999999997 199.88479999999998L 419.6 152.63098181818182L 422.064 197.04843636363637L 424.52799999999996 194.4730181818182L 426.99199999999996 155.90414545454547L 429.456 91.60945454545454L 431.92 104.5376L 434.38399999999996 151.17876363636364L 436.848 185.1981090909091L 439.312 142.76610909090908L 441.776 125.0672L 444.24 123.74545454545455L 446.704 157.99738181818182L 449.168 53.56814545454546L 451.632 50.78850909090909L 454.096 100.02210909090908L 456.56 156.2445090909091L 459.024 180.31956363636363L 461.488 192.43650909090908L 463.952 193.63912727272728L 466.416 193.3328L 468.88 192.11316363636365L 471.344 197.93338181818183L 473.808 191.5629090909091L 476.272 198.7672727272727L 478.73600000000005 199.3005090909091L 481.2 201.64901818181818L 483.664 200.58821818181818L 486.128 202.43752727272727L 488.59200000000004 200.73003636363637L 491.056 189.7703272727273L 493.52 203.17498181818183L 495.98400000000004 200.48610909090908L 498.448 185.1810909090909L 500.912 187.88698181818182L 503.376 191.01832727272728L 505.84000000000003 192.31738181818181L 508.304 177.09745454545455L 510.768 167.91330909090908L 513.232 179.30981818181817L 515.696 186.49716363636364L 518.1600000000001 150.34487272727273L 520.624 184.27345454545454L 523.088 199.5104L 525.552 161.24785454545454L 528.016 155.49003636363636L 530.48 176.96130909090908L 532.944 190.30923636363636L 535.4079999999999 193.50865454545453L 537.8720000000001 201.72843636363638L 540.336 185.22647272727272L 542.8 192.03374545454545L 545.264 192.66909090909093L 547.728 180.18341818181818L 550.192 194.5013818181818L 552.6560000000001 194.6829090909091L 555.1199999999999 201.85323636363637L 557.5840000000001 196.2032L 560.048 204.49105454545455L 562.512 191.55723636363638L 564.976 180.36494545454545L 567.44 193.02647272727273L 569.904 186.20785454545455L 572.368 191.72741818181817L 574.832 191.4834909090909L 577.2959999999999 196.63432727272726L 579.76 200.7810909090909L 582.2239999999999 176.26923636363637L 584.688 165.78036363636363L 587.152 181.82850909090908L 589.616 160.6976L 592.08 163.93105454545454L 594.544 182.10647272727272L 597.0079999999999 130.808L 599.472 190.49643636363635L 601.936 202.0914909090909L 604.4 184.09192727272728L 606.864 197.50225454545455L 609.328 187.54094545454547L 611.792 192.95272727272726L 614.256 201.88727272727272L 616.7199999999999 184.33585454545454L 619.184 183.04814545454545L 621.648 182.36741818181818L 624.112 182.54327272727272L 626.576 186.38938181818182L 629.0400000000001 174.3858909090909L 631.504 183.1786181818182L 633.968 183.5133090909091L 636.432 184.60247272727273L 638.896 186.968L 641.36 170.00087272727274L 643.8240000000001 167.8338909090909L 646.288 203.32247272727273L 648.7520000000001 206L 651.216 128.43112727272728L 653.68 183.2637090909091L 656.144 156.8685090909091L 658.608 183.15592727272727L 661.072 183.2013090909091L 663.5360000000001 182.25963636363636L 666 170.18807272727273L 668.464 186.86589090909092L 670.928 183.77425454545454L 673.3919999999999 186.29861818181817L 675.856 184.17134545454545L 678.32 184.9655272727273L 680.784 178.1696L 683.248 180.70530909090908L 685.712 170.80072727272727L 688.1759999999999 177.99374545454546L 690.64 175.99127272727273L 693.1039999999999 173.75621818181818L 695.568 175.45803636363638L 698.032 196.91796363636365L 700.496 150.30516363636363L 702.96 167.34036363636363L 705.424 174.52203636363637L 707.8879999999999 132.05599999999998L 710.352 144.8309818181818L 712.816 173.60872727272726L 715.28 151.91054545454546L 717.744 194.03621818181819L 720.2080000000001 160.59549090909093L 722.672 206L 725.136 153.43650909090908L 727.5999999999999 181.01163636363637L 730.064 181.6413090909091L 732.528 182.49221818181817L 734.992 183.08785454545455L 737.456 206L 739.9200000000001 151.86516363636363L 742.384 172.45716363636365L 744.848 169.20669090909092L 747.312 178.22065454545455L 749.776 175.54312727272728L 752.24 177.61367272727273L 754.7040000000001 181.0173090909091L 757.168 176.80814545454547L 759.6320000000001 167.8962909090909L 762.096 167.1248L 764.56 176.62094545454545L 767.024 158.63272727272727L 769.4879999999999 151.3602909090909L 771.952 173.35345454545455L 774.416 206L 776.88 206L 779.344 206L 781.808 206L 784.2719999999999 206L 786.736 206L 789.2 206L 791.664 206L 794.128 206L 796.5920000000001 206L 799.0559999999999 206L 801.52 206L 803.9839999999999 206L 806.448 206L 808.912 206L 811.376 206L 813.84 206L 816.3040000000001 206L 818.7679999999999 206L 821.232 206L 823.696 206L 826.16 206L 828.624 206L 831.0880000000001 206L 833.552 206L 836.016 206L 838.48 206L 840.944 206L 843.408 206L 845.872 206L 848.336 206L 850.8000000000001 206L 853.264 206L 855.728 206L 858.192 206L 860.656 206L 863.12 206L 865.5840000000001 206L 868.048 206L 870.5120000000001 206L 872.976 206L 875.4399999999999 206L 877.904 206L 880.3679999999999 206L 882.832 206L 885.296 206L 887.76 206L 890.224 206L 892.688 206L 895.1519999999999 206L 897.616 206L 900.08 206L 902.544 206L 905.008 206L 907.4720000000001 206L 909.9359999999999 206L 912.4 206L 914.864 206L 917.328 206L 919.792 206L 922.256 206L 924.72 206L 927.1840000000001 206L 929.6479999999999 206L 932.112 206L 934.576 206L 937.04 206L 939.504 206L 941.9680000000001 206L 944.432 206L 946.896 206L 949.36 206L 951.824 206L 954.288 206L 956.752 206L 959.216 206L 961.6800000000001 206L 964.144 206L 966.608 206L 969.072 206L 971.536 206L 974 206" stroke-width="2.0" fill="none" />
    
        
        
        <text x="45.0" font-family="-apple-system, system-ui, BlinkMacSystemFont, Roboto" y="50.0" dominant-baseline="middle" text-anchor="end" font-size="12" fill="#24292f">27500.0</text>
        
            
            <path stroke="#74838f" stroke-dasharray="10 6" stroke-width="0.5"  d="M 50.0 50.0 L 974.0 50.0" />
        
    
        
        
        <text x="45.0" font-family="-apple-system, system-ui, BlinkMacSystemFont, Roboto" y="81.2" dominant-baseline="middle" text-anchor="end" font-size="12" fill="#24292f">22000.0</text>
        
            
            
            <path stroke="#74838f" stroke-dasharray="10 6" stroke-width="0.5"  d="M 50.0 81.2 L 974.0 81.2" />
        
    
        
        
        <text x="45.0" font-family="-apple-system, system-ui, BlinkMacSystemFont, Roboto" y="112.4" dominant-baseline="middle" text-anchor="end" font-size="12" fill="#24292f">16500.0</text>
        
            
            
            <path stroke="#74838f" stroke-dasharray="10 6" stroke-width="0.5"  d="M 50.0 112.4 L 974.0 112.4" />
        
    
        
        
        <text x="45.0" font-family="-apple-system, system-ui, BlinkMacSystemFont, Roboto" y="143.6" dominant-baseline="middle" text-anchor="end" font-size="12" fill="#24292f">11000.0</text>
        
            
            
            <path stroke="#74838f" stroke-dasharray="10 6" stroke-width="0.5"  d="M 50.0 143.6 L 974.0 143.6" />
        
    
        
        
        <text x="45.0" font-family="-apple-system, system-ui, BlinkMacSystemFont, Roboto" y="174.8" dominant-baseline="middle" text-anchor="end" font-size="12" fill="#24292f">5500.0</text>
        
            
            
            <path stroke="#74838f" stroke-dasharray="10 6" stroke-width="0.5"  d="M 50.0 174.8 L 974.0 174.8" />
        
    
        
        
        <text x="45.0" font-family="-apple-system, system-ui, BlinkMacSystemFont, Roboto" y="206.0" dominant-baseline="middle" text-anchor="end" font-size="12" fill="#24292f">0.0</text>
        
    
    
        
        <path stroke="#74838f"  stroke-width="2.0"  d="M 89.424 206.0 L 89.424 214.0" />
        <text x="89.424" font-family="-apple-system, system-ui, BlinkMacSystemFont, Roboto" y="216.0" dominant-baseline="hanging" text-anchor="middle" font-size="12" fill="#24292f">Mar 2022</text>
    
        
        <path stroke="#74838f"  stroke-width="2.0"  d="M 165.808 206.0 L 165.808 214.0" />
        <text x="165.808" font-family="-apple-system, system-ui, BlinkMacSystemFont, Roboto" y="216.0" dominant-baseline="hanging" text-anchor="middle" font-size="12" fill="#24292f">Apr 2022</text>
    
        
        <path stroke="#74838f"  stroke-width="2.0"  d="M 239.728 206.0 L 239.728 214.0" />
        <text x="239.728" font-family="-apple-system, system-ui, BlinkMacSystemFont, Roboto" y="216.0" dominant-baseline="hanging" text-anchor="middle" font-size="12" fill="#24292f">May 2022</text>
    
        
        <path stroke="#74838f"  stroke-width="2.0"  d="M 316.11199999999997 206.0 L 316.11199999999997 214.0" />
        <text x="316.11199999999997" font-family="-apple-system, system-ui, BlinkMacSystemFont, Roboto" y="216.0" dominant-baseline="hanging" text-anchor="middle" font-size="12" fill="#24292f">Jun 2022</text>
    
        
        <path stroke="#74838f"  stroke-width="2.0"  d="M 390.032 206.0 L 390.032 214.0" />
        <text x="390.032" font-family="-apple-system, system-ui, BlinkMacSystemFont, Roboto" y="216.0" dominant-baseline="hanging" text-anchor="middle" font-size="12" fill="#24292f">Jul 2022</text>
    
        
        <path stroke="#74838f"  stroke-width="2.0"  d="M 466.416 206.0 L 466.416 214.0" />
        <text x="466.416" font-family="-apple-system, system-ui, BlinkMacSystemFont, Roboto" y="216.0" dominant-baseline="hanging" text-anchor="middle" font-size="12" fill="#24292f">Aug 2022</text>
    
        
        <path stroke="#74838f"  stroke-width="2.0"  d="M 542.8 206.0 L 542.8 214.0" />
        <text x="542.8" font-family="-apple-system, system-ui, BlinkMacSystemFont, Roboto" y="216.0" dominant-baseline="hanging" text-anchor="middle" font-size="12" fill="#24292f">Sep 2022</text>
    
        
        <path stroke="#74838f"  stroke-width="2.0"  d="M 616.7199999999999 206.0 L 616.7199999999999 214.0" />
        <text x="616.7199999999999" font-family="-apple-system, system-ui, BlinkMacSystemFont, Roboto" y="216.0" dominant-baseline="hanging" text-anchor="middle" font-size="12" fill="#24292f">Oct 2022</text>
    
        
        <path stroke="#74838f"  stroke-width="2.0"  d="M 693.1039999999999 206.0 L 693.1039999999999 214.0" />
        <text x="693.1039999999999" font-family="-apple-system, system-ui, BlinkMacSystemFont, Roboto" y="216.0" dominant-baseline="hanging" text-anchor="middle" font-size="12" fill="#24292f">Nov 2022</text>
    
        
        <path stroke="#74838f"  stroke-width="2.0"  d="M 767.024 206.0 L 767.024 214.0" />
        <text x="767.024" font-family="-apple-system, system-ui, BlinkMacSystemFont, Roboto" y="216.0" dominant-baseline="hanging" text-anchor="middle" font-size="12" fill="#24292f">Dec 2022</text>
    
        
        <path stroke="#74838f"  stroke-width="2.0"  d="M 843.408 206.0 L 843.408 214.0" />
        <text x="843.408" font-family="-apple-system, system-ui, BlinkMacSystemFont, Roboto" y="216.0" dominant-baseline="hanging" text-anchor="middle" font-size="12" fill="#24292f">Jan 2023</text>
    
        
        <path stroke="#74838f"  stroke-width="2.0"  d="M 919.792 206.0 L 919.792 214.0" />
        <text x="919.792" font-family="-apple-system, system-ui, BlinkMacSystemFont, Roboto" y="216.0" dominant-baseline="hanging" text-anchor="middle" font-size="12" fill="#24292f">Feb 2023</text>
    
    <path stroke="#74838f"   stroke-linejoin="round" stroke-width="2.0" d="M 50.0 216.0 L 50.0 206.0 L 974.0 206.0 L 974.0 216.0"  fill="none" />
    <text x="512.0" y="25.0" font-family="-apple-system, system-ui, BlinkMacSystemFont, Roboto" dominant-baseline="middle" text-anchor="middle" font-size="18" fill="#24292f">Total daily screen name changes</text>
</svg>
