<?xml version="1.0" standalone="no"?>
<svg width="1024.0" height="256.0"  viewBox="0 0 1024.0 256.0" preserveAspectRatio="xMidYMid meet" xmlns="http://www.w3.org/2000/svg">
    <path stroke="#3498db" stroke-linejoin="round" d="M 50.0 203.3394909090909 L 50 203.3394909090909L 52 202.32974545454545L 54 196.86690909090908L 56 195.94792727272727L 58 202.14254545454546L 60 197.35476363636363L 62 191.76145454545454L 64 179.96218181818182L 66 204.09396363636364L 68 194.17236363636363L 70 192.61803636363635L 72 195.1253818181818L 74 193.92843636363637L 76 182.2482909090909L 78 200.86618181818181L 80 201.45614545454546L 82 178.89003636363637L 84 197.33774545454546L 86 198.50065454545455L 88 200.41803636363636L 90 201.18385454545455L 92 202.26734545454545L 94 195.09134545454546L 96 198.08087272727272L 98 183.38850909090908L 100 197.47389090909093L 102 202.01774545454546L 104 194.66021818181818L 106 200.75272727272727L 108 200.00392727272728L 110 201.97236363636364L 112 204.2754909090909L 114 201.74545454545455L 116 201.01367272727273L 118 174.7829818181818L 120 195.76072727272728L 122 204.0032L 124 203.7309090909091L 126 197.87665454545453L 128 202.60770909090908L 130 202.6928L 132 197.55898181818182L 134 186.5141818181818L 136 199.26647272727274L 138 199.5728L 140 193.4802909090909L 142 199.10763636363635L 144 201.54690909090908L 146 201.5696L 148 195.06865454545454L 150 201.70007272727273L 152 197.2866909090909L 154 172.35505454545455L 156 203.20901818181818L 158 199.6749090909091L 160 193.12858181818183L 162 196.8896L 164 199.78836363636364L 166 198.82967272727274L 168 204.1336727272727L 170 202.57934545454546L 172 198.9261090909091L 174 206L 176 204.128L 178 192.1245090909091L 180 206L 182 206L 184 206L 186 206L 188 197.37178181818183L 190 199.57847272727273L 192 188.9024L 194 195.02894545454546L 196 191.20552727272727L 198 166.8128L 200 203.8386909090909L 202 198.09221818181817L 204 201.64334545454545L 206 202.2957090909091L 208 203.22036363636363L 210 200.66763636363635L 212 191.51185454545455L 214 189.18603636363636L 216 203.86705454545455L 218 197.56465454545454L 220 187.32538181818182L 222 201.2349090909091L 224 200.44639999999998L 226 201.4618181818182L 228 201.09876363636363L 230 201.17818181818183L 232 193.02647272727273L 234 198.8069818181818L 236 203.39054545454545L 238 200.30458181818182L 240 198.35883636363636L 242 193.3101090909091L 244 200.56552727272728L 246 203.03883636363636L 248 197.22996363636364L 250 201.95534545454547L 252 196.016L 254 202.30705454545455L 256 199.91316363636363L 258 194.62050909090908L 260 201.29163636363637L 262 202.98778181818182L 264 203.5437090909091L 266 200.60523636363638L 268 195.5621818181818L 270 203.24305454545456L 272 200.15709090909093L 274 198.46661818181818L 276 201.70007272727273L 278 200.70734545454545L 280 200.4293818181818L 282 201.76814545454545L 284 204.6442181818182L 286 206L 288 196.35636363636365L 290 199.21541818181817L 292 156.87418181818182L 294 165.1506909090909L 296 204.1733818181818L 298 202.17658181818183L 300 199.31185454545454L 302 198.7842909090909L 304 202.6757818181818L 306 202.8573090909091L 308 196.1861818181818L 310 199.64654545454545L 312 198.2056727272727L 314 201.2178909090909L 316 201.79083636363637L 318 201.90429090909092L 320 200.1968L 322 195.17076363636363L 324 206L 326 206L 328 206L 330 191.4834909090909L 332 197.79723636363636L 334 198.85236363636363L 336 199.76L 338 200.03796363636363L 340 200.76407272727272L 342 201.80785454545455L 344 191.63098181818182L 346 194.41061818181817L 348 199.88479999999998L 350 152.63098181818182L 352 197.04843636363637L 354 194.4730181818182L 356 155.90414545454547L 358 91.60945454545454L 360 104.5376L 362 151.17876363636364L 364 185.1981090909091L 366 142.76610909090908L 368 125.0672L 370 123.74545454545455L 372 157.99738181818182L 374 53.56814545454546L 376 50.78850909090909L 378 100.02210909090908L 380 156.2445090909091L 382 180.31956363636363L 384 192.43650909090908L 386 193.63912727272728L 388 193.3328L 390 192.11316363636365L 392 197.93338181818183L 394 191.5629090909091L 396 198.7672727272727L 398 199.3005090909091L 400 201.64901818181818L 402 200.58821818181818L 404 202.43752727272727L 406 200.73003636363637L 408 189.7703272727273L 410 203.17498181818183L 412 200.48610909090908L 414 185.1810909090909L 416 187.88698181818182L 418 191.01832727272728L 420 192.31738181818181L 422 177.09745454545455L 424 167.91330909090908L 426 179.30981818181817L 428 186.49716363636364L 430 150.34487272727273L 432 184.27345454545454L 434 199.5104L 436 161.24785454545454L 438 155.49003636363636L 440 176.96130909090908L 442 190.30923636363636L 444 193.50865454545453L 446 201.72843636363638L 448 185.22647272727272L 450 192.03374545454545L 452 192.66909090909093L 454 180.18341818181818L 456 194.5013818181818L 458 194.6829090909091L 460 201.85323636363637L 462 196.2032L 464 204.49105454545455L 466 191.55723636363638L 468 180.36494545454545L 470 193.02647272727273L 472 186.20785454545455L 474 191.72741818181817L 476 191.4834909090909L 478 196.63432727272726L 480 200.7810909090909L 482 176.26923636363637L 484 165.78036363636363L 486 181.82850909090908L 488 160.6976L 490 163.93105454545454L 492 182.10647272727272L 494 130.808L 496 190.49643636363635L 498 202.0914909090909L 500 184.09192727272728L 502 197.50225454545455L 504 187.54094545454547L 506 192.95272727272726L 508 201.88727272727272L 510 184.33585454545454L 512 183.04814545454545L 514 182.36741818181818L 516 182.54327272727272L 518 186.38938181818182L 520 174.3858909090909L 522 183.1786181818182L 524 183.5133090909091L 526 184.60247272727273L 528 186.968L 530 170.00087272727274L 532 167.8338909090909L 534 203.32247272727273L 536 206L 538 128.43112727272728L 540 183.2637090909091L 542 156.8685090909091L 544 183.15592727272727L 546 183.2013090909091L 548 182.25963636363636L 550 170.18807272727273L 552 186.86589090909092L 554 183.77425454545454L 556 186.29861818181817L 558 184.17134545454545L 560 184.9655272727273L 562 178.1696L 564 180.70530909090908L 566 170.80072727272727L 568 177.99374545454546L 570 175.99127272727273L 572 173.75621818181818L 574 175.45803636363638L 576 196.91796363636365L 578 150.30516363636363L 580 167.34036363636363L 582 174.52203636363637L 584 132.05599999999998L 586 144.8309818181818L 588 173.60872727272726L 590 151.91054545454546L 592 194.03621818181819L 594 160.59549090909093L 596 206L 598 153.43650909090908L 600 181.01163636363637L 602 181.6413090909091L 604 182.49221818181817L 606 183.08785454545455L 608 206L 610 151.86516363636363L 612 172.45716363636365L 614 169.20669090909092L 616 178.22065454545455L 618 175.54312727272728L 620 177.61367272727273L 622 181.0173090909091L 624 176.80814545454547L 626 167.8962909090909L 628 167.1248L 630 176.62094545454545L 632 158.63272727272727L 634 151.3602909090909L 636 173.35345454545455L 638 206L 640 206L 642 206L 644 206L 646 206L 648 206L 650 206L 652 206L 654 206L 656 206L 658 206L 660 206L 662 206L 664 206L 666 206L 668 206L 670 206L 672 206L 674 206L 676 206L 678 206L 680 206L 682 206L 684 206L 686 206L 688 206L 690 206L 692 206L 694 206L 696 206L 698 206L 700 206L 702 206L 704 206L 706 206L 708 206L 710 206L 712 206L 714 206L 716 206L 718 206L 720 206L 722 206L 724 206L 726 206L 728 206L 730 206L 732 206L 734 206L 736 206L 738 206L 740 206L 742 206L 744 206L 746 206L 748 206L 750 206L 752 206L 754 206L 756 206L 758 206L 760 206L 762 206L 764 206L 766 206L 768 206L 770 206L 772 206L 774 206L 776 206L 778 206L 780 206L 782 206L 784 206L 786 206L 788 206L 790 206L 792 206L 794 206L 796 206L 798 206L 800 206L 802 206L 804 206L 806 206L 808 206L 810 206L 812 206L 814 206L 816 206L 818 206L 820 206L 822 206L 824 206L 826 206L 828 206L 830 206L 832 206L 834 206L 836 206L 838 206L 840 206L 842 206L 844 206L 846 206L 848 206L 850 206L 852 206L 854 206L 856 206L 858 206L 860 206L 862 206L 864 206L 866 206L 868 206L 870 206L 872 206L 874 206L 876 206L 878 206L 880 206L 882 206L 884 206L 886 206L 888 206L 890 206L 892 206L 894 206L 896 206L 898 206L 900 206L 902 206L 904 206L 906 206L 908 206L 910 206L 912 206L 914 206L 916 206L 918 206L 920 206L 922 206L 924 206L 926 206L 928 206L 930 206L 932 206L 934 206L 936 206L 938 206L 940 206L 942 206L 944 206L 946 206L 948 206L 950 206L 952 206L 954 206L 956 206L 958 206L 960 206L 962 206L 964 206L 966 206L 968 206L 970 206L 972 206L 974 206" stroke-width="2.0" fill="none" />
    
        
        
        <text x="45.0" font-family="-apple-system, system-ui, BlinkMacSystemFont, Roboto" y="50.0" dominant-baseline="middle" text-anchor="end" font-size="12" fill="#24292f">27500.0</text>
        
            
            <path stroke="#74838f" stroke-dasharray="10 6" stroke-width="0.5"  d="M 50.0 50.0 L 974.0 50.0" />
        
    
        
        
        <text x="45.0" font-family="-apple-system, system-ui, BlinkMacSystemFont, Roboto" y="81.2" dominant-baseline="middle" text-anchor="end" font-size="12" fill="#24292f">22000.0</text>
        
            
            
            <path stroke="#74838f" stroke-dasharray="10 6" stroke-width="0.5"  d="M 50.0 81.2 L 974.0 81.2" />
        
    
        
        
        <text x="45.0" font-family="-apple-system, system-ui, BlinkMacSystemFont, Roboto" y="112.4" dominant-baseline="middle" text-anchor="end" font-size="12" fill="#24292f">16500.0</text>
        
            
            
            <path stroke="#74838f" stroke-dasharray="10 6" stroke-width="0.5"  d="M 50.0 112.4 L 974.0 112.4" />
        
    
        
        
        <text x="45.0" font-family="-apple-system, system-ui, BlinkMacSystemFont, Roboto" y="143.6" dominant-baseline="middle" text-anchor="end" font-size="12" fill="#24292f">11000.0</text>
        
            
            
            <path stroke="#74838f" stroke-dasharray="10 6" stroke-width="0.5"  d="M 50.0 143.6 L 974.0 143.6" />
        
    
        
        
        <text x="45.0" font-family="-apple-system, system-ui, BlinkMacSystemFont, Roboto" y="174.8" dominant-baseline="middle" text-anchor="end" font-size="12" fill="#24292f">5500.0</text>
        
            
            
            <path stroke="#74838f" stroke-dasharray="10 6" stroke-width="0.5"  d="M 50.0 174.8 L 974.0 174.8" />
        
    
        
        
        <text x="45.0" font-family="-apple-system, system-ui, BlinkMacSystemFont, Roboto" y="206.0" dominant-baseline="middle" text-anchor="end" font-size="12" fill="#24292f">0.0</text>
        
    
    
        
        <path stroke="#74838f"  stroke-width="2.0"  d="M 82.0 206.0 L 82.0 214.0" />
        <text x="82.0" font-family="-apple-system, system-ui, BlinkMacSystemFont, Roboto" y="216.0" dominant-baseline="hanging" text-anchor="middle" font-size="12" fill="#24292f">Mar 2022</text>
    
        
        <path stroke="#74838f"  stroke-width="2.0"  d="M 144.0 206.0 L 144.0 214.0" />
        <text x="144.0" font-family="-apple-system, system-ui, BlinkMacSystemFont, Roboto" y="216.0" dominant-baseline="hanging" text-anchor="middle" font-size="12" fill="#24292f">Apr 2022</text>
    
        
        <path stroke="#74838f"  stroke-width="2.0"  d="M 204.0 206.0 L 204.0 214.0" />
        <text x="204.0" font-family="-apple-system, system-ui, BlinkMacSystemFont, Roboto" y="216.0" dominant-baseline="hanging" text-anchor="middle" font-size="12" fill="#24292f">May 2022</text>
    
        
        <path stroke="#74838f"  stroke-width="2.0"  d="M 266.0 206.0 L 266.0 214.0" />
        <text x="266.0" font-family="-apple-system, system-ui, BlinkMacSystemFont, Roboto" y="216.0" dominant-baseline="hanging" text-anchor="middle" font-size="12" fill="#24292f">Jun 2022</text>
    
        
        <path stroke="#74838f"  stroke-width="2.0"  d="M 326.0 206.0 L 326.0 214.0" />
        <text x="326.0" font-family="-apple-system, system-ui, BlinkMacSystemFont, Roboto" y="216.0" dominant-baseline="hanging" text-anchor="middle" font-size="12" fill="#24292f">Jul 2022</text>
    
        
        <path stroke="#74838f"  stroke-width="2.0"  d="M 388.0 206.0 L 388.0 214.0" />
        <text x="388.0" font-family="-apple-system, system-ui, BlinkMacSystemFont, Roboto" y="216.0" dominant-baseline="hanging" text-anchor="middle" font-size="12" fill="#24292f">Aug 2022</text>
    
        
        <path stroke="#74838f"  stroke-width="2.0"  d="M 450.0 206.0 L 450.0 214.0" />
        <text x="450.0" font-family="-apple-system, system-ui, BlinkMacSystemFont, Roboto" y="216.0" dominant-baseline="hanging" text-anchor="middle" font-size="12" fill="#24292f">Sep 2022</text>
    
        
        <path stroke="#74838f"  stroke-width="2.0"  d="M 510.0 206.0 L 510.0 214.0" />
        <text x="510.0" font-family="-apple-system, system-ui, BlinkMacSystemFont, Roboto" y="216.0" dominant-baseline="hanging" text-anchor="middle" font-size="12" fill="#24292f">Oct 2022</text>
    
        
        <path stroke="#74838f"  stroke-width="2.0"  d="M 572.0 206.0 L 572.0 214.0" />
        <text x="572.0" font-family="-apple-system, system-ui, BlinkMacSystemFont, Roboto" y="216.0" dominant-baseline="hanging" text-anchor="middle" font-size="12" fill="#24292f">Nov 2022</text>
    
        
        <path stroke="#74838f"  stroke-width="2.0"  d="M 632.0 206.0 L 632.0 214.0" />
        <text x="632.0" font-family="-apple-system, system-ui, BlinkMacSystemFont, Roboto" y="216.0" dominant-baseline="hanging" text-anchor="middle" font-size="12" fill="#24292f">Dec 2022</text>
    
        
        <path stroke="#74838f"  stroke-width="2.0"  d="M 694.0 206.0 L 694.0 214.0" />
        <text x="694.0" font-family="-apple-system, system-ui, BlinkMacSystemFont, Roboto" y="216.0" dominant-baseline="hanging" text-anchor="middle" font-size="12" fill="#24292f">Jan 2023</text>
    
        
        <path stroke="#74838f"  stroke-width="2.0"  d="M 756.0 206.0 L 756.0 214.0" />
        <text x="756.0" font-family="-apple-system, system-ui, BlinkMacSystemFont, Roboto" y="216.0" dominant-baseline="hanging" text-anchor="middle" font-size="12" fill="#24292f">Feb 2023</text>
    
        
        <path stroke="#74838f"  stroke-width="2.0"  d="M 812.0 206.0 L 812.0 214.0" />
        <text x="812.0" font-family="-apple-system, system-ui, BlinkMacSystemFont, Roboto" y="216.0" dominant-baseline="hanging" text-anchor="middle" font-size="12" fill="#24292f">Mar 2023</text>
    
        
        <path stroke="#74838f"  stroke-width="2.0"  d="M 874.0 206.0 L 874.0 214.0" />
        <text x="874.0" font-family="-apple-system, system-ui, BlinkMacSystemFont, Roboto" y="216.0" dominant-baseline="hanging" text-anchor="middle" font-size="12" fill="#24292f">Apr 2023</text>
    
        
        <path stroke="#74838f"  stroke-width="2.0"  d="M 934.0 206.0 L 934.0 214.0" />
        <text x="934.0" font-family="-apple-system, system-ui, BlinkMacSystemFont, Roboto" y="216.0" dominant-baseline="hanging" text-anchor="middle" font-size="12" fill="#24292f">May 2023</text>
    
    <path stroke="#74838f"   stroke-linejoin="round" stroke-width="2.0" d="M 50.0 216.0 L 50.0 206.0 L 974.0 206.0 L 974.0 216.0"  fill="none" />
    <text x="512.0" y="25.0" font-family="-apple-system, system-ui, BlinkMacSystemFont, Roboto" dominant-baseline="middle" text-anchor="middle" font-size="18" fill="#24292f">Total daily screen name changes</text>
</svg>
