<?xml version="1.0" standalone="no"?>
<svg width="1024.0" height="256.0"  viewBox="0 0 1024.0 256.0" preserveAspectRatio="xMidYMid meet" xmlns="http://www.w3.org/2000/svg">
    <path stroke="#3498db" stroke-linejoin="round" d="M 50.0 203.3394909090909 L 50 203.3394909090909L 51.987096774193546 202.32974545454545L 53.9741935483871 196.86690909090908L 55.961290322580645 195.94792727272727L 57.94838709677419 202.14254545454546L 59.935483870967744 197.35476363636363L 61.92258064516129 191.76145454545454L 63.909677419354836 179.96218181818182L 65.89677419354838 204.09396363636364L 67.88387096774193 194.17236363636363L 69.87096774193549 192.61803636363635L 71.85806451612903 195.1253818181818L 73.84516129032258 193.92843636363637L 75.83225806451613 182.2482909090909L 77.81935483870967 200.86618181818181L 79.80645161290323 201.45614545454546L 81.79354838709678 178.89003636363637L 83.78064516129032 197.33774545454546L 85.76774193548387 198.50065454545455L 87.75483870967741 200.41803636363636L 89.74193548387098 201.18385454545455L 91.7290322580645 202.26734545454545L 93.71612903225807 195.09134545454546L 95.70322580645161 198.08087272727272L 97.69032258064516 183.38850909090908L 99.67741935483872 197.47389090909093L 101.66451612903225 202.01774545454546L 103.65161290322581 194.66021818181818L 105.63870967741936 200.75272727272727L 107.6258064516129 200.00392727272728L 109.61290322580645 201.97236363636364L 111.6 204.2754909090909L 113.58709677419355 201.74545454545455L 115.5741935483871 201.01367272727273L 117.56129032258065 174.7829818181818L 119.54838709677419 195.76072727272728L 121.53548387096774 204.0032L 123.5225806451613 203.7309090909091L 125.50967741935484 197.87665454545453L 127.49677419354839 202.60770909090908L 129.48387096774195 202.6928L 131.47096774193548 197.55898181818182L 133.458064516129 186.5141818181818L 135.44516129032257 199.26647272727274L 137.43225806451613 199.5728L 139.4193548387097 193.4802909090909L 141.40645161290323 199.10763636363635L 143.39354838709676 201.54690909090908L 145.38064516129032 201.5696L 147.36774193548388 195.06865454545454L 149.35483870967744 201.70007272727273L 151.34193548387097 197.2866909090909L 153.3290322580645 172.35505454545455L 155.31612903225806 203.20901818181818L 157.30322580645162 199.6749090909091L 159.29032258064518 193.12858181818183L 161.2774193548387 196.8896L 163.26451612903224 199.78836363636364L 165.2516129032258 198.82967272727274L 167.23870967741937 204.1336727272727L 169.2258064516129 202.57934545454546L 171.21290322580646 198.9261090909091L 173.2 206L 175.18709677419355 204.128L 177.1741935483871 192.1245090909091L 179.16129032258064 206L 181.1483870967742 206L 183.13548387096773 206L 185.1225806451613 206L 187.10967741935482 197.37178181818183L 189.09677419354838 199.57847272727273L 191.08387096774192 188.9024L 193.07096774193548 195.02894545454546L 195.05806451612904 191.20552727272727L 197.0451612903226 166.8128L 199.03225806451613 203.8386909090909L 201.0193548387097 198.09221818181817L 203.00645161290322 201.64334545454545L 204.99354838709678 202.2957090909091L 206.9806451612903 203.22036363636363L 208.96774193548387 200.66763636363635L 210.95483870967743 191.51185454545455L 212.94193548387096 189.18603636363636L 214.92903225806452 203.86705454545455L 216.91612903225806 197.56465454545454L 218.90322580645162 187.32538181818182L 220.89032258064515 201.2349090909091L 222.8774193548387 200.44639999999998L 224.86451612903224 201.4618181818182L 226.85161290322583 201.09876363636363L 228.83870967741936 201.17818181818183L 230.82580645161292 193.02647272727273L 232.81290322580645 198.8069818181818L 234.8 203.39054545454545L 236.78709677419354 200.30458181818182L 238.7741935483871 198.35883636363636L 240.76129032258063 193.3101090909091L 242.7483870967742 200.56552727272728L 244.73548387096776 203.03883636363636L 246.7225806451613 197.22996363636364L 248.70967741935485 201.95534545454547L 250.69677419354838 196.016L 252.68387096774194 202.30705454545455L 254.67096774193547 199.91316363636363L 256.658064516129 194.62050909090908L 258.64516129032256 201.29163636363637L 260.6322580645161 202.98778181818182L 262.6193548387097 203.5437090909091L 264.60645161290324 200.60523636363638L 266.5935483870968 195.5621818181818L 268.58064516129036 203.24305454545456L 270.56774193548387 200.15709090909093L 272.5548387096774 198.46661818181818L 274.54193548387093 201.70007272727273L 276.5290322580645 200.70734545454545L 278.51612903225805 200.4293818181818L 280.5032258064516 201.76814545454545L 282.49032258064517 204.6442181818182L 284.47741935483873 206L 286.4645161290323 196.35636363636365L 288.4516129032258 199.21541818181817L 290.4387096774193 156.87418181818182L 292.4258064516129 165.1506909090909L 294.4129032258065 204.1733818181818L 296.4 202.17658181818183L 298.38709677419354 199.31185454545454L 300.3741935483871 198.7842909090909L 302.36129032258066 202.6757818181818L 304.3483870967742 202.8573090909091L 306.3354838709677 196.1861818181818L 308.3225806451613 199.64654545454545L 310.30967741935484 198.2056727272727L 312.2967741935484 201.2178909090909L 314.2838709677419 201.79083636363637L 316.27096774193546 201.90429090909092L 318.258064516129 200.1968L 320.2451612903226 195.17076363636363L 322.23225806451615 206L 324.21935483870965 206L 326.20645161290327 206L 328.19354838709677 191.4834909090909L 330.18064516129033 197.79723636363636L 332.16774193548383 198.85236363636363L 334.15483870967745 199.76L 336.14193548387095 200.03796363636363L 338.1290322580645 200.76407272727272L 340.1161290322581 201.80785454545455L 342.1032258064516 191.63098181818182L 344.0903225806452 194.41061818181817L 346.0774193548387 199.88479999999998L 348.06451612903226 152.63098181818182L 350.05161290322576 197.04843636363637L 352.0387096774194 194.4730181818182L 354.02580645161294 155.90414545454547L 356.01290322580644 91.60945454545454L 358 104.5376L 359.98709677419356 151.17876363636364L 361.9741935483871 185.1981090909091L 363.9612903225806 142.76610909090908L 365.9483870967742 125.0672L 367.93548387096774 123.74545454545455L 369.9225806451613 157.99738181818182L 371.90967741935486 53.56814545454546L 373.89677419354837 50.78850909090909L 375.8838709677419 100.02210909090908L 377.8709677419355 156.2445090909091L 379.85806451612905 180.31956363636363L 381.84516129032255 192.43650909090908L 383.8322580645161 193.63912727272728L 385.81935483870967 193.3328L 387.80645161290323 192.11316363636365L 389.7935483870968 197.93338181818183L 391.7806451612903 191.5629090909091L 393.7677419354839 198.7672727272727L 395.7548387096774 199.3005090909091L 397.741935483871 201.64901818181818L 399.7290322580645 200.58821818181818L 401.71612903225804 202.43752727272727L 403.70322580645166 200.73003636363637L 405.69032258064516 189.7703272727273L 407.6774193548387 203.17498181818183L 409.6645161290322 200.48610909090908L 411.65161290322584 185.1810909090909L 413.63870967741934 187.88698181818182L 415.6258064516129 191.01832727272728L 417.6129032258064 192.31738181818181L 419.6 177.09745454545455L 421.5870967741936 167.91330909090908L 423.5741935483871 179.30981818181817L 425.56129032258065 186.49716363636364L 427.5483870967742 150.34487272727273L 429.53548387096777 184.27345454545454L 431.52258064516127 199.5104L 433.50967741935483 161.24785454545454L 435.4967741935484 155.49003636363636L 437.48387096774195 176.96130909090908L 439.4709677419355 190.30923636363636L 441.458064516129 193.50865454545453L 443.4451612903226 201.72843636363638L 445.43225806451613 185.22647272727272L 447.4193548387097 192.03374545454545L 449.4064516129032 192.66909090909093L 451.39354838709676 180.18341818181818L 453.3806451612903 194.5013818181818L 455.3677419354839 194.6829090909091L 457.35483870967744 201.85323636363637L 459.34193548387094 196.2032L 461.32903225806456 204.49105454545455L 463.31612903225806 191.55723636363638L 465.3032258064516 180.36494545454545L 467.2903225806451 193.02647272727273L 469.2774193548387 186.20785454545455L 471.2645161290323 191.72741818181817L 473.2516129032258 191.4834909090909L 475.23870967741937 196.63432727272726L 477.22580645161287 200.7810909090909L 479.2129032258065 176.26923636363637L 481.2 165.78036363636363L 483.18709677419355 181.82850909090908L 485.17419354838705 160.6976L 487.16129032258067 163.93105454545454L 489.14838709677423 182.10647272727272L 491.13548387096773 130.808L 493.1225806451613 190.49643636363635L 495.10967741935485 202.0914909090909L 497.0967741935484 184.09192727272728L 499.0838709677419 197.50225454545455L 501.0709677419355 187.54094545454547L 503.05806451612904 192.95272727272726L 505.0451612903226 201.88727272727272L 507.03225806451616 184.33585454545454L 509.01935483870966 183.04814545454545L 511.0064516129032 182.36741818181818L 512.9935483870968 182.54327272727272L 514.9806451612903 186.38938181818182L 516.9677419354839 174.3858909090909L 518.9548387096775 183.1786181818182L 520.941935483871 183.5133090909091L 522.9290322580646 184.60247272727273L 524.9161290322581 186.968L 526.9032258064516 170.00087272727274L 528.8903225806453 167.8338909090909L 530.8774193548386 203.32247272727273L 532.8645161290323 206L 534.8516129032258 128.43112727272728L 536.8387096774193 183.2637090909091L 538.825806451613 156.8685090909091L 540.8129032258064 183.15592727272727L 542.8 183.2013090909091L 544.7870967741935 182.25963636363636L 546.7741935483871 170.18807272727273L 548.7612903225806 186.86589090909092L 550.7483870967742 183.77425454545454L 552.7354838709678 186.29861818181817L 554.7225806451613 184.17134545454545L 556.7096774193549 184.9655272727273L 558.6967741935484 178.1696L 560.683870967742 180.70530909090908L 562.6709677419354 170.80072727272727L 564.658064516129 177.99374545454546L 566.6451612903226 175.99127272727273L 568.6322580645161 173.75621818181818L 570.6193548387097 175.45803636363638L 572.6064516129032 196.91796363636365L 574.5935483870968 150.30516363636363L 576.5806451612904 167.34036363636363L 578.5677419354838 174.52203636363637L 580.5548387096775 132.05599999999998L 582.5419354838709 144.8309818181818L 584.5290322580645 173.60872727272726L 586.516129032258 151.91054545454546L 588.5032258064516 194.03621818181819L 590.4903225806452 160.59549090909093L 592.4774193548386 206L 594.4645161290323 153.43650909090908L 596.4516129032259 181.01163636363637L 598.4387096774193 181.6413090909091L 600.4258064516129 182.49221818181817L 602.4129032258065 183.08785454545455L 604.4 206L 606.3870967741935 151.86516363636363L 608.3741935483871 172.45716363636365L 610.3612903225807 169.20669090909092L 612.3483870967742 178.22065454545455L 614.3354838709677 175.54312727272728L 616.3225806451613 177.61367272727273L 618.3096774193549 181.0173090909091L 620.2967741935483 176.80814545454547L 622.2838709677419 167.8962909090909L 624.2709677419355 167.1248L 626.258064516129 176.62094545454545L 628.2451612903226 158.63272727272727L 630.2322580645161 151.3602909090909L 632.2193548387097 173.35345454545455L 634.2064516129032 206L 636.1935483870967 206L 638.1806451612904 206L 640.1677419354838 206L 642.1548387096774 206L 644.1419354838711 206L 646.1290322580645 206L 648.1161290322581 206L 650.1032258064515 206L 652.0903225806452 206L 654.0774193548388 206L 656.0645161290322 206L 658.0516129032259 206L 660.0387096774193 206L 662.0258064516129 206L 664.0129032258064 206L 666 206L 667.9870967741936 206L 669.9741935483871 206L 671.9612903225807 206L 673.9483870967742 206L 675.9354838709677 206L 677.9225806451612 206L 679.9096774193549 206L 681.8967741935484 206L 683.8838709677419 206L 685.8709677419355 206L 687.858064516129 206L 689.8451612903226 206L 691.832258064516 206L 693.8193548387097 206L 695.8064516129033 206L 697.7935483870967 206L 699.7806451612903 206L 701.7677419354839 206L 703.7548387096774 206L 705.741935483871 206L 707.7290322580645 206L 709.7161290322581 206L 711.7032258064517 206L 713.6903225806451 206L 715.6774193548388 206L 717.6645161290322 206L 719.6516129032258 206L 721.6387096774193 206L 723.6258064516129 206L 725.6129032258065 206L 727.5999999999999 206L 729.5870967741936 206L 731.5741935483871 206L 733.5612903225806 206L 735.5483870967741 206L 737.5354838709678 206L 739.5225806451613 206L 741.5096774193548 206L 743.4967741935484 206L 745.483870967742 206L 747.4709677419355 206L 749.458064516129 206L 751.4451612903226 206L 753.4322580645161 206L 755.4193548387096 206L 757.4064516129033 206L 759.3935483870968 206L 761.3806451612903 206L 763.3677419354839 206L 765.3548387096774 206L 767.341935483871 206L 769.3290322580644 206L 771.316129032258 206L 773.3032258064517 206L 775.2903225806451 206L 777.2774193548387 206L 779.2645161290324 206L 781.2516129032258 206L 783.2387096774194 206L 785.2258064516128 206L 787.2129032258065 206L 789.2 206L 791.1870967741935 206L 793.1741935483872 206L 795.1612903225806 206L 797.1483870967742 206L 799.1354838709677 206L 801.1225806451613 206L 803.1096774193549 206L 805.0967741935484 206L 807.083870967742 206L 809.0709677419355 206L 811.058064516129 206L 813.0451612903225 206L 815.0322580645162 206L 817.0193548387097 206L 819.0064516129032 206L 820.9935483870968 206L 822.9806451612903 206L 824.9677419354839 206L 826.9548387096773 206L 828.941935483871 206L 830.9290322580646 206L 832.916129032258 206L 834.9032258064516 206L 836.8903225806451 206L 838.8774193548387 206L 840.8645161290323 206L 842.8516129032258 206L 844.8387096774194 206L 846.8258064516128 206L 848.8129032258064 206L 850.8000000000001 206L 852.7870967741935 206L 854.7741935483871 206L 856.7612903225806 206L 858.7483870967742 206L 860.7354838709678 206L 862.7225806451612 206L 864.7096774193549 206L 866.6967741935484 206L 868.6838709677419 206L 870.6709677419354 206L 872.6580645161291 206L 874.6451612903226 206L 876.6322580645161 206L 878.6193548387097 206L 880.6064516129032 206L 882.5935483870968 206L 884.5806451612902 206L 886.5677419354839 206L 888.5548387096774 206L 890.5419354838709 206L 892.5290322580646 206L 894.516129032258 206L 896.5032258064516 206L 898.4903225806452 206L 900.4774193548387 206L 902.4645161290323 206L 904.4516129032257 206L 906.4387096774193 206L 908.425806451613 206L 910.4129032258064 206L 912.4 206L 914.3870967741935 206L 916.3741935483871 206L 918.3612903225807 206L 920.3483870967741 206L 922.3354838709678 206L 924.3225806451613 206L 926.3096774193548 206L 928.2967741935485 206L 930.2838709677419 206L 932.2709677419355 206L 934.258064516129 206L 936.2451612903226 206L 938.2322580645161 206L 940.2193548387097 206L 942.2064516129033 206L 944.1935483870968 206L 946.1806451612903 206L 948.1677419354838 206L 950.1548387096775 206L 952.141935483871 206L 954.1290322580645 206L 956.1161290322581 206L 958.1032258064516 206L 960.0903225806452 206L 962.0774193548386 206L 964.0645161290323 206L 966.0516129032259 206L 968.0387096774193 206L 970.0258064516129 206L 972.0129032258064 206L 974 206" stroke-width="2.0" fill="none" />
    
        
        
        <text x="45.0" font-family="-apple-system, system-ui, BlinkMacSystemFont, Roboto" y="50.0" dominant-baseline="middle" text-anchor="end" font-size="12" fill="#24292f">27500.0</text>
        
            
            <path stroke="#74838f" stroke-dasharray="10 6" stroke-width="0.5"  d="M 50.0 50.0 L 974.0 50.0" />
        
    
        
        
        <text x="45.0" font-family="-apple-system, system-ui, BlinkMacSystemFont, Roboto" y="81.2" dominant-baseline="middle" text-anchor="end" font-size="12" fill="#24292f">22000.0</text>
        
            
            
            <path stroke="#74838f" stroke-dasharray="10 6" stroke-width="0.5"  d="M 50.0 81.2 L 974.0 81.2" />
        
    
        
        
        <text x="45.0" font-family="-apple-system, system-ui, BlinkMacSystemFont, Roboto" y="112.4" dominant-baseline="middle" text-anchor="end" font-size="12" fill="#24292f">16500.0</text>
        
            
            
            <path stroke="#74838f" stroke-dasharray="10 6" stroke-width="0.5"  d="M 50.0 112.4 L 974.0 112.4" />
        
    
        
        
        <text x="45.0" font-family="-apple-system, system-ui, BlinkMacSystemFont, Roboto" y="143.6" dominant-baseline="middle" text-anchor="end" font-size="12" fill="#24292f">11000.0</text>
        
            
            
            <path stroke="#74838f" stroke-dasharray="10 6" stroke-width="0.5"  d="M 50.0 143.6 L 974.0 143.6" />
        
    
        
        
        <text x="45.0" font-family="-apple-system, system-ui, BlinkMacSystemFont, Roboto" y="174.8" dominant-baseline="middle" text-anchor="end" font-size="12" fill="#24292f">5500.0</text>
        
            
            
            <path stroke="#74838f" stroke-dasharray="10 6" stroke-width="0.5"  d="M 50.0 174.8 L 974.0 174.8" />
        
    
        
        
        <text x="45.0" font-family="-apple-system, system-ui, BlinkMacSystemFont, Roboto" y="206.0" dominant-baseline="middle" text-anchor="end" font-size="12" fill="#24292f">0.0</text>
        
    
    
        
        <path stroke="#74838f"  stroke-width="2.0"  d="M 81.79354838709678 206.0 L 81.79354838709678 214.0" />
        <text x="81.79354838709678" font-family="-apple-system, system-ui, BlinkMacSystemFont, Roboto" y="216.0" dominant-baseline="hanging" text-anchor="middle" font-size="12" fill="#24292f">Mar 2022</text>
    
        
        <path stroke="#74838f"  stroke-width="2.0"  d="M 143.39354838709676 206.0 L 143.39354838709676 214.0" />
        <text x="143.39354838709676" font-family="-apple-system, system-ui, BlinkMacSystemFont, Roboto" y="216.0" dominant-baseline="hanging" text-anchor="middle" font-size="12" fill="#24292f">Apr 2022</text>
    
        
        <path stroke="#74838f"  stroke-width="2.0"  d="M 203.00645161290322 206.0 L 203.00645161290322 214.0" />
        <text x="203.00645161290322" font-family="-apple-system, system-ui, BlinkMacSystemFont, Roboto" y="216.0" dominant-baseline="hanging" text-anchor="middle" font-size="12" fill="#24292f">May 2022</text>
    
        
        <path stroke="#74838f"  stroke-width="2.0"  d="M 264.60645161290324 206.0 L 264.60645161290324 214.0" />
        <text x="264.60645161290324" font-family="-apple-system, system-ui, BlinkMacSystemFont, Roboto" y="216.0" dominant-baseline="hanging" text-anchor="middle" font-size="12" fill="#24292f">Jun 2022</text>
    
        
        <path stroke="#74838f"  stroke-width="2.0"  d="M 324.21935483870965 206.0 L 324.21935483870965 214.0" />
        <text x="324.21935483870965" font-family="-apple-system, system-ui, BlinkMacSystemFont, Roboto" y="216.0" dominant-baseline="hanging" text-anchor="middle" font-size="12" fill="#24292f">Jul 2022</text>
    
        
        <path stroke="#74838f"  stroke-width="2.0"  d="M 385.81935483870967 206.0 L 385.81935483870967 214.0" />
        <text x="385.81935483870967" font-family="-apple-system, system-ui, BlinkMacSystemFont, Roboto" y="216.0" dominant-baseline="hanging" text-anchor="middle" font-size="12" fill="#24292f">Aug 2022</text>
    
        
        <path stroke="#74838f"  stroke-width="2.0"  d="M 447.4193548387097 206.0 L 447.4193548387097 214.0" />
        <text x="447.4193548387097" font-family="-apple-system, system-ui, BlinkMacSystemFont, Roboto" y="216.0" dominant-baseline="hanging" text-anchor="middle" font-size="12" fill="#24292f">Sep 2022</text>
    
        
        <path stroke="#74838f"  stroke-width="2.0"  d="M 507.03225806451616 206.0 L 507.03225806451616 214.0" />
        <text x="507.03225806451616" font-family="-apple-system, system-ui, BlinkMacSystemFont, Roboto" y="216.0" dominant-baseline="hanging" text-anchor="middle" font-size="12" fill="#24292f">Oct 2022</text>
    
        
        <path stroke="#74838f"  stroke-width="2.0"  d="M 568.6322580645161 206.0 L 568.6322580645161 214.0" />
        <text x="568.6322580645161" font-family="-apple-system, system-ui, BlinkMacSystemFont, Roboto" y="216.0" dominant-baseline="hanging" text-anchor="middle" font-size="12" fill="#24292f">Nov 2022</text>
    
        
        <path stroke="#74838f"  stroke-width="2.0"  d="M 628.2451612903226 206.0 L 628.2451612903226 214.0" />
        <text x="628.2451612903226" font-family="-apple-system, system-ui, BlinkMacSystemFont, Roboto" y="216.0" dominant-baseline="hanging" text-anchor="middle" font-size="12" fill="#24292f">Dec 2022</text>
    
        
        <path stroke="#74838f"  stroke-width="2.0"  d="M 689.8451612903226 206.0 L 689.8451612903226 214.0" />
        <text x="689.8451612903226" font-family="-apple-system, system-ui, BlinkMacSystemFont, Roboto" y="216.0" dominant-baseline="hanging" text-anchor="middle" font-size="12" fill="#24292f">Jan 2023</text>
    
        
        <path stroke="#74838f"  stroke-width="2.0"  d="M 751.4451612903226 206.0 L 751.4451612903226 214.0" />
        <text x="751.4451612903226" font-family="-apple-system, system-ui, BlinkMacSystemFont, Roboto" y="216.0" dominant-baseline="hanging" text-anchor="middle" font-size="12" fill="#24292f">Feb 2023</text>
    
        
        <path stroke="#74838f"  stroke-width="2.0"  d="M 807.083870967742 206.0 L 807.083870967742 214.0" />
        <text x="807.083870967742" font-family="-apple-system, system-ui, BlinkMacSystemFont, Roboto" y="216.0" dominant-baseline="hanging" text-anchor="middle" font-size="12" fill="#24292f">Mar 2023</text>
    
        
        <path stroke="#74838f"  stroke-width="2.0"  d="M 868.6838709677419 206.0 L 868.6838709677419 214.0" />
        <text x="868.6838709677419" font-family="-apple-system, system-ui, BlinkMacSystemFont, Roboto" y="216.0" dominant-baseline="hanging" text-anchor="middle" font-size="12" fill="#24292f">Apr 2023</text>
    
        
        <path stroke="#74838f"  stroke-width="2.0"  d="M 928.2967741935485 206.0 L 928.2967741935485 214.0" />
        <text x="928.2967741935485" font-family="-apple-system, system-ui, BlinkMacSystemFont, Roboto" y="216.0" dominant-baseline="hanging" text-anchor="middle" font-size="12" fill="#24292f">May 2023</text>
    
    <path stroke="#74838f"   stroke-linejoin="round" stroke-width="2.0" d="M 50.0 216.0 L 50.0 206.0 L 974.0 206.0 L 974.0 216.0"  fill="none" />
    <text x="512.0" y="25.0" font-family="-apple-system, system-ui, BlinkMacSystemFont, Roboto" dominant-baseline="middle" text-anchor="middle" font-size="18" fill="#24292f">Total daily screen name changes</text>
</svg>
