<?xml version="1.0" standalone="no"?>
<svg width="1024.0" height="256.0"  viewBox="0 0 1024.0 256.0" preserveAspectRatio="xMidYMid meet" xmlns="http://www.w3.org/2000/svg">
    <path stroke="#3498db" stroke-linejoin="round" d="M 50.0 203.3394909090909 L 50 203.3394909090909L 52.31 202.32974545454545L 54.62 196.86690909090908L 56.93 195.94792727272727L 59.24 202.14254545454546L 61.55 197.35476363636363L 63.86 191.76145454545454L 66.17 179.96218181818182L 68.48 204.09396363636364L 70.78999999999999 194.17236363636363L 73.1 192.61803636363635L 75.41 195.1253818181818L 77.72 193.92843636363637L 80.03 182.2482909090909L 82.34 200.86618181818181L 84.65 201.45614545454546L 86.96000000000001 178.89003636363637L 89.27000000000001 197.33774545454546L 91.58 198.50065454545455L 93.89 200.41803636363636L 96.2 201.18385454545455L 98.50999999999999 202.26734545454545L 100.82 195.09134545454546L 103.13 198.08087272727272L 105.44 183.38850909090908L 107.75 197.47389090909093L 110.06 202.01774545454546L 112.37 194.66021818181818L 114.68 200.75272727272727L 116.99 200.00392727272728L 119.3 201.97236363636364L 121.61 204.2754909090909L 123.92 201.74545454545455L 126.23 201.01367272727273L 128.54000000000002 174.7829818181818L 130.85 195.76072727272728L 133.16 204.0032L 135.47 203.7309090909091L 137.78 197.87665454545453L 140.09 202.60770909090908L 142.4 202.6928L 144.70999999999998 197.55898181818182L 147.01999999999998 186.5141818181818L 149.32999999999998 199.26647272727274L 151.64 199.5728L 153.95 193.4802909090909L 156.26 199.10763636363635L 158.57 201.54690909090908L 160.88 201.5696L 163.19 195.06865454545454L 165.5 201.70007272727273L 167.81 197.2866909090909L 170.12 172.35505454545455L 172.43 203.20901818181818L 174.74 199.6749090909091L 177.05 193.12858181818183L 179.36 196.8896L 181.67 199.78836363636364L 183.98 198.82967272727274L 186.29 204.1336727272727L 188.6 202.57934545454546L 190.91 198.9261090909091L 193.22 206L 195.53 204.128L 197.84 192.1245090909091L 200.15 206L 202.46 206L 204.77 206L 207.08 206L 209.39 197.37178181818183L 211.7 199.57847272727273L 214.01 188.9024L 216.32 195.02894545454546L 218.63 191.20552727272727L 220.94 166.8128L 223.25 203.8386909090909L 225.56 198.09221818181817L 227.87 201.64334545454545L 230.18 202.2957090909091L 232.49 203.22036363636363L 234.8 200.66763636363635L 237.11 191.51185454545455L 239.42 189.18603636363636L 241.73 203.86705454545455L 244.04 197.56465454545454L 246.35 187.32538181818182L 248.66 201.2349090909091L 250.97 200.44639999999998L 253.28 201.4618181818182L 255.59 201.09876363636363L 257.9 201.17818181818183L 260.21000000000004 193.02647272727273L 262.52 198.8069818181818L 264.83000000000004 203.39054545454545L 267.14 200.30458181818182L 269.45 198.35883636363636L 271.76 193.3101090909091L 274.07 200.56552727272728L 276.38 203.03883636363636L 278.69 197.22996363636364L 281 201.95534545454547L 283.31 196.016L 285.62 202.30705454545455L 287.93 199.91316363636363L 290.24 194.62050909090908L 292.55 201.29163636363637L 294.86 202.98778181818182L 297.17 203.5437090909091L 299.48 200.60523636363638L 301.79 195.5621818181818L 304.1 203.24305454545456L 306.41 200.15709090909093L 308.72 198.46661818181818L 311.03 201.70007272727273L 313.34 200.70734545454545L 315.65 200.4293818181818L 317.96 201.76814545454545L 320.27 204.6442181818182L 322.58 206L 324.89 196.35636363636365L 327.2 199.21541818181817L 329.51 156.87418181818182L 331.82 165.1506909090909L 334.13 204.1733818181818L 336.44 202.17658181818183L 338.75 199.31185454545454L 341.06 198.7842909090909L 343.37 202.6757818181818L 345.68 202.8573090909091L 347.99 196.1861818181818L 350.3 199.64654545454545L 352.61 198.2056727272727L 354.92 201.2178909090909L 357.23 201.79083636363637L 359.54 201.90429090909092L 361.85 200.1968L 364.16 195.17076363636363L 366.47 206L 368.78 206L 371.09 206L 373.4 191.4834909090909L 375.71 197.79723636363636L 378.02 198.85236363636363L 380.33 199.76L 382.64 200.03796363636363L 384.95 200.76407272727272L 387.26 201.80785454545455L 389.57 191.63098181818182L 391.88 194.41061818181817L 394.19 199.88479999999998L 396.5 152.63098181818182L 398.81 197.04843636363637L 401.12 194.4730181818182L 403.43 155.90414545454547L 405.74 91.60945454545454L 408.05 104.5376L 410.36 151.17876363636364L 412.67 185.1981090909091L 414.98 142.76610909090908L 417.29 125.0672L 419.6 123.74545454545455L 421.91 157.99738181818182L 424.22 53.56814545454546L 426.53 50.78850909090909L 428.84 100.02210909090908L 431.15 156.2445090909091L 433.46 180.31956363636363L 435.77 192.43650909090908L 438.08 193.63912727272728L 440.39 193.3328L 442.7 192.11316363636365L 445.01 197.93338181818183L 447.32 191.5629090909091L 449.63 198.7672727272727L 451.94 199.3005090909091L 454.25 201.64901818181818L 456.56 200.58821818181818L 458.87 202.43752727272727L 461.18 200.73003636363637L 463.49 189.7703272727273L 465.8 203.17498181818183L 468.11 200.48610909090908L 470.42 185.1810909090909L 472.73 187.88698181818182L 475.04 191.01832727272728L 477.35 192.31738181818181L 479.66 177.09745454545455L 481.97 167.91330909090908L 484.28 179.30981818181817L 486.59 186.49716363636364L 488.9 150.34487272727273L 491.21 184.27345454545454L 493.52 199.5104L 495.83 161.24785454545454L 498.14 155.49003636363636L 500.45 176.96130909090908L 502.76 190.30923636363636L 505.07 193.50865454545453L 507.38 201.72843636363638L 509.69 185.22647272727272L 512 192.03374545454545L 514.31 192.66909090909093L 516.62 180.18341818181818L 518.93 194.5013818181818L 521.24 194.6829090909091L 523.55 201.85323636363637L 525.86 196.2032L 528.17 204.49105454545455L 530.48 191.55723636363638L 532.79 180.36494545454545L 535.1 193.02647272727273L 537.41 186.20785454545455L 539.72 191.72741818181817L 542.03 191.4834909090909L 544.34 196.63432727272726L 546.65 200.7810909090909L 548.96 176.26923636363637L 551.27 165.78036363636363L 553.58 181.82850909090908L 555.89 160.6976L 558.2 163.93105454545454L 560.51 182.10647272727272L 562.82 130.808L 565.13 190.49643636363635L 567.44 202.0914909090909L 569.75 184.09192727272728L 572.06 197.50225454545455L 574.37 187.54094545454547L 576.68 192.95272727272726L 578.99 201.88727272727272L 581.3 184.33585454545454L 583.61 183.04814545454545L 585.92 182.36741818181818L 588.23 182.54327272727272L 590.54 186.38938181818182L 592.85 174.3858909090909L 595.16 183.1786181818182L 597.47 183.5133090909091L 599.78 184.60247272727273L 602.09 186.968L 604.4 170.00087272727274L 606.71 167.8338909090909L 609.02 203.32247272727273L 611.33 206L 613.64 128.43112727272728L 615.95 183.2637090909091L 618.26 156.8685090909091L 620.57 183.15592727272727L 622.88 183.2013090909091L 625.19 182.25963636363636L 627.5 170.18807272727273L 629.81 186.86589090909092L 632.12 183.77425454545454L 634.43 186.29861818181817L 636.74 184.17134545454545L 639.05 184.9655272727273L 641.36 178.1696L 643.67 180.70530909090908L 645.98 170.80072727272727L 648.29 177.99374545454546L 650.6 175.99127272727273L 652.91 173.75621818181818L 655.22 175.45803636363638L 657.53 196.91796363636365L 659.84 150.30516363636363L 662.15 167.34036363636363L 664.46 174.52203636363637L 666.77 132.05599999999998L 669.08 144.8309818181818L 671.39 173.60872727272726L 673.7 151.91054545454546L 676.01 194.03621818181819L 678.32 160.59549090909093L 680.63 206L 682.94 153.43650909090908L 685.25 181.01163636363637L 687.56 181.6413090909091L 689.87 182.49221818181817L 692.18 183.08785454545455L 694.49 206L 696.8 151.86516363636363L 699.11 172.45716363636365L 701.42 169.20669090909092L 703.73 178.22065454545455L 706.04 175.54312727272728L 708.35 177.61367272727273L 710.66 181.0173090909091L 712.97 176.80814545454547L 715.28 167.8962909090909L 717.59 167.1248L 719.9 176.62094545454545L 722.21 158.63272727272727L 724.52 151.3602909090909L 726.83 173.35345454545455L 729.14 206L 731.45 206L 733.76 206L 736.07 206L 738.38 206L 740.69 206L 743 206L 745.31 206L 747.62 206L 749.93 206L 752.24 206L 754.55 206L 756.86 206L 759.17 206L 761.48 206L 763.79 206L 766.1 206L 768.41 206L 770.72 206L 773.03 206L 775.34 206L 777.65 206L 779.96 206L 782.27 206L 784.58 206L 786.89 206L 789.2 206L 791.51 206L 793.82 206L 796.13 206L 798.44 206L 800.75 206L 803.06 206L 805.37 206L 807.68 206L 809.99 206L 812.3 206L 814.61 206L 816.92 206L 819.23 206L 821.54 206L 823.85 206L 826.16 206L 828.47 206L 830.78 206L 833.09 206L 835.4 206L 837.71 206L 840.02 206L 842.33 206L 844.64 206L 846.95 206L 849.26 206L 851.57 206L 853.88 206L 856.19 206L 858.5 206L 860.81 206L 863.12 206L 865.43 206L 867.74 206L 870.05 206L 872.36 206L 874.67 206L 876.98 206L 879.29 206L 881.6 206L 883.91 206L 886.22 206L 888.53 206L 890.84 206L 893.15 206L 895.46 206L 897.77 206L 900.08 206L 902.39 206L 904.7 206L 907.01 206L 909.32 206L 911.63 206L 913.94 206L 916.25 206L 918.56 206L 920.87 206L 923.18 206L 925.49 206L 927.8 206L 930.11 206L 932.42 206L 934.73 206L 937.04 206L 939.35 206L 941.66 206L 943.97 206L 946.28 206L 948.59 206L 950.9 206L 953.21 206L 955.52 206L 957.83 206L 960.14 206L 962.45 206L 964.76 206L 967.07 206L 969.38 206L 971.69 206L 974 206" stroke-width="2.0" fill="none" />
    
        
        
        <text x="45.0" font-family="-apple-system, system-ui, BlinkMacSystemFont, Roboto" y="50.0" dominant-baseline="middle" text-anchor="end" font-size="12" fill="#24292f">27500.0</text>
        
            
            <path stroke="#74838f" stroke-dasharray="10 6" stroke-width="0.5"  d="M 50.0 50.0 L 974.0 50.0" />
        
    
        
        
        <text x="45.0" font-family="-apple-system, system-ui, BlinkMacSystemFont, Roboto" y="81.2" dominant-baseline="middle" text-anchor="end" font-size="12" fill="#24292f">22000.0</text>
        
            
            
            <path stroke="#74838f" stroke-dasharray="10 6" stroke-width="0.5"  d="M 50.0 81.2 L 974.0 81.2" />
        
    
        
        
        <text x="45.0" font-family="-apple-system, system-ui, BlinkMacSystemFont, Roboto" y="112.4" dominant-baseline="middle" text-anchor="end" font-size="12" fill="#24292f">16500.0</text>
        
            
            
            <path stroke="#74838f" stroke-dasharray="10 6" stroke-width="0.5"  d="M 50.0 112.4 L 974.0 112.4" />
        
    
        
        
        <text x="45.0" font-family="-apple-system, system-ui, BlinkMacSystemFont, Roboto" y="143.6" dominant-baseline="middle" text-anchor="end" font-size="12" fill="#24292f">11000.0</text>
        
            
            
            <path stroke="#74838f" stroke-dasharray="10 6" stroke-width="0.5"  d="M 50.0 143.6 L 974.0 143.6" />
        
    
        
        
        <text x="45.0" font-family="-apple-system, system-ui, BlinkMacSystemFont, Roboto" y="174.8" dominant-baseline="middle" text-anchor="end" font-size="12" fill="#24292f">5500.0</text>
        
            
            
            <path stroke="#74838f" stroke-dasharray="10 6" stroke-width="0.5"  d="M 50.0 174.8 L 974.0 174.8" />
        
    
        
        
        <text x="45.0" font-family="-apple-system, system-ui, BlinkMacSystemFont, Roboto" y="206.0" dominant-baseline="middle" text-anchor="end" font-size="12" fill="#24292f">0.0</text>
        
    
    
        
        <path stroke="#74838f"  stroke-width="2.0"  d="M 86.96000000000001 206.0 L 86.96000000000001 214.0" />
        <text x="86.96000000000001" font-family="-apple-system, system-ui, BlinkMacSystemFont, Roboto" y="216.0" dominant-baseline="hanging" text-anchor="middle" font-size="12" fill="#24292f">Mar 2022</text>
    
        
        <path stroke="#74838f"  stroke-width="2.0"  d="M 158.57 206.0 L 158.57 214.0" />
        <text x="158.57" font-family="-apple-system, system-ui, BlinkMacSystemFont, Roboto" y="216.0" dominant-baseline="hanging" text-anchor="middle" font-size="12" fill="#24292f">Apr 2022</text>
    
        
        <path stroke="#74838f"  stroke-width="2.0"  d="M 227.87 206.0 L 227.87 214.0" />
        <text x="227.87" font-family="-apple-system, system-ui, BlinkMacSystemFont, Roboto" y="216.0" dominant-baseline="hanging" text-anchor="middle" font-size="12" fill="#24292f">May 2022</text>
    
        
        <path stroke="#74838f"  stroke-width="2.0"  d="M 299.48 206.0 L 299.48 214.0" />
        <text x="299.48" font-family="-apple-system, system-ui, BlinkMacSystemFont, Roboto" y="216.0" dominant-baseline="hanging" text-anchor="middle" font-size="12" fill="#24292f">Jun 2022</text>
    
        
        <path stroke="#74838f"  stroke-width="2.0"  d="M 368.78 206.0 L 368.78 214.0" />
        <text x="368.78" font-family="-apple-system, system-ui, BlinkMacSystemFont, Roboto" y="216.0" dominant-baseline="hanging" text-anchor="middle" font-size="12" fill="#24292f">Jul 2022</text>
    
        
        <path stroke="#74838f"  stroke-width="2.0"  d="M 440.39 206.0 L 440.39 214.0" />
        <text x="440.39" font-family="-apple-system, system-ui, BlinkMacSystemFont, Roboto" y="216.0" dominant-baseline="hanging" text-anchor="middle" font-size="12" fill="#24292f">Aug 2022</text>
    
        
        <path stroke="#74838f"  stroke-width="2.0"  d="M 512.0 206.0 L 512.0 214.0" />
        <text x="512.0" font-family="-apple-system, system-ui, BlinkMacSystemFont, Roboto" y="216.0" dominant-baseline="hanging" text-anchor="middle" font-size="12" fill="#24292f">Sep 2022</text>
    
        
        <path stroke="#74838f"  stroke-width="2.0"  d="M 581.3 206.0 L 581.3 214.0" />
        <text x="581.3" font-family="-apple-system, system-ui, BlinkMacSystemFont, Roboto" y="216.0" dominant-baseline="hanging" text-anchor="middle" font-size="12" fill="#24292f">Oct 2022</text>
    
        
        <path stroke="#74838f"  stroke-width="2.0"  d="M 652.91 206.0 L 652.91 214.0" />
        <text x="652.91" font-family="-apple-system, system-ui, BlinkMacSystemFont, Roboto" y="216.0" dominant-baseline="hanging" text-anchor="middle" font-size="12" fill="#24292f">Nov 2022</text>
    
        
        <path stroke="#74838f"  stroke-width="2.0"  d="M 722.21 206.0 L 722.21 214.0" />
        <text x="722.21" font-family="-apple-system, system-ui, BlinkMacSystemFont, Roboto" y="216.0" dominant-baseline="hanging" text-anchor="middle" font-size="12" fill="#24292f">Dec 2022</text>
    
        
        <path stroke="#74838f"  stroke-width="2.0"  d="M 793.82 206.0 L 793.82 214.0" />
        <text x="793.82" font-family="-apple-system, system-ui, BlinkMacSystemFont, Roboto" y="216.0" dominant-baseline="hanging" text-anchor="middle" font-size="12" fill="#24292f">Jan 2023</text>
    
        
        <path stroke="#74838f"  stroke-width="2.0"  d="M 865.43 206.0 L 865.43 214.0" />
        <text x="865.43" font-family="-apple-system, system-ui, BlinkMacSystemFont, Roboto" y="216.0" dominant-baseline="hanging" text-anchor="middle" font-size="12" fill="#24292f">Feb 2023</text>
    
        
        <path stroke="#74838f"  stroke-width="2.0"  d="M 930.11 206.0 L 930.11 214.0" />
        <text x="930.11" font-family="-apple-system, system-ui, BlinkMacSystemFont, Roboto" y="216.0" dominant-baseline="hanging" text-anchor="middle" font-size="12" fill="#24292f">Mar 2023</text>
    
    <path stroke="#74838f"   stroke-linejoin="round" stroke-width="2.0" d="M 50.0 216.0 L 50.0 206.0 L 974.0 206.0 L 974.0 216.0"  fill="none" />
    <text x="512.0" y="25.0" font-family="-apple-system, system-ui, BlinkMacSystemFont, Roboto" dominant-baseline="middle" text-anchor="middle" font-size="18" fill="#24292f">Total daily screen name changes</text>
</svg>
