<?xml version="1.0" standalone="no"?>
<svg width="1024.0" height="256.0"  viewBox="0 0 1024.0 256.0" preserveAspectRatio="xMidYMid meet" xmlns="http://www.w3.org/2000/svg">
    <path stroke="#3498db" stroke-linejoin="round" d="M 50.0 203.47563636363637 L 50 203.47563636363637L 53.175257731958766 202.46589090909092L 56.350515463917525 196.952L 59.52577319587629 195.96494545454544L 62.70103092783505 202.14821818181818L 65.87628865979381 197.38312727272728L 69.05154639175258 191.8125090909091L 72.22680412371135 179.96218181818182L 75.4020618556701 204.1053090909091L 78.57731958762886 194.15534545454545L 81.75257731958763 192.61803636363635L 84.9278350515464 195.1253818181818L 88.10309278350516 193.92843636363637L 91.27835051546393 182.27665454545453L 94.4536082474227 200.86618181818181L 97.62886597938143 201.47883636363636L 100.8041237113402 178.89003636363637L 103.97938144329896 197.33774545454546L 107.15463917525773 198.51767272727272L 110.3298969072165 200.43505454545453L 113.50515463917526 201.18952727272728L 116.68041237113401 202.27301818181817L 119.85567010309278 195.11970909090908L 123.03092783505154 198.08087272727272L 126.20618556701031 183.39418181818183L 129.3814432989691 197.49658181818182L 132.55670103092785 202.0290909090909L 135.73195876288662 194.66021818181818L 138.9072164948454 200.7584L 142.08247422680412 200.02094545454545L 145.25773195876286 201.97236363636364L 148.43298969072163 204.33221818181818L 151.6082474226804 201.74545454545455L 154.78350515463916 201.01367272727273L 157.95876288659792 174.8L 161.1340206185567 195.76072727272728L 164.30927835051546 204.0032L 167.48453608247422 203.7309090909091L 170.659793814433 197.88232727272728L 173.83505154639175 202.60770909090908L 177.01030927835052 202.7325090909091L 180.18556701030928 197.55898181818182L 183.36082474226802 186.51985454545454L 186.53608247422682 199.27214545454547L 189.71134020618555 199.57847272727273L 192.88659793814435 193.49163636363636L 196.06185567010309 199.12465454545455L 199.23711340206185 201.54690909090908L 202.41237113402062 201.57527272727273L 205.58762886597938 195.07432727272726L 208.76288659793815 201.71141818181817L 211.9381443298969 197.28101818181818L 215.11340206185568 172.37774545454545L 218.28865979381442 203.20901818181818L 221.4639175257732 199.6976L 224.63917525773195 193.13425454545455L 227.81443298969074 196.90094545454545L 230.98969072164948 199.79403636363637L 234.16494845360825 198.824L 237.340206185567 204.1336727272727L 240.51546391752575 202.61338181818184L 243.69072164948454 198.9261090909091L 246.86597938144328 206L 250.04123711340208 204.128L 253.2164948453608 192.11883636363638L 256.3917525773196 206L 259.5670103092783 206L 262.74226804123714 206L 265.91752577319585 206L 269.09278350515467 197.35476363636363L 272.2680412371134 199.57847272727273L 275.44329896907215 188.9024L 278.6185567010309 195.0573090909091L 281.7938144329897 191.20552727272727L 284.96907216494844 166.80145454545453L 288.14432989690715 203.86138181818183L 291.319587628866 198.09221818181817L 294.49484536082474 201.6546909090909L 297.6701030927835 202.2957090909091L 300.8453608247422 203.22603636363635L 304.02061855670104 200.66763636363635L 307.1958762886598 191.51185454545455L 310.37113402061857 189.18603636363636L 313.5463917525773 203.87272727272727L 316.72164948453604 197.56465454545454L 319.89690721649487 187.3424L 323.07216494845363 201.24625454545455L 326.24742268041234 200.44639999999998L 329.4226804123711 201.4618181818182L 332.59793814432993 201.09876363636363L 335.7731958762887 201.18385454545455L 338.9484536082474 193.0208L 342.12371134020617 198.8013090909091L 345.29896907216494 203.39054545454545L 348.4742268041237 200.30458181818182L 351.64948453608247 198.44392727272728L 354.82474226804123 193.3101090909091L 358 200.56552727272728L 361.17525773195877 203.03883636363636L 364.35051546391753 197.2866909090909L 367.5257731958763 201.95534545454547L 370.70103092783506 196.0557090909091L 373.8762886597938 202.3184L 377.0515463917526 199.91883636363636L 380.22680412371136 194.66021818181818L 383.4020618556701 201.29163636363637L 386.57731958762884 202.99345454545454L 389.75257731958766 203.5437090909091L 392.9278350515464 200.61658181818183L 396.10309278350513 195.56785454545454L 399.2783505154639 203.27141818181818L 402.45360824742266 200.16843636363637L 405.6288659793815 198.46094545454545L 408.8041237113402 201.70007272727273L 411.97938144329896 200.70167272727272L 415.1546391752577 200.43505454545453L 418.3298969072165 201.76247272727272L 421.50515463917526 204.6442181818182L 424.680412371134 206L 427.8556701030928 196.37338181818183L 431.0309278350515 199.20407272727272L 434.2061855670103 156.8685090909091L 437.3814432989691 165.13934545454546L 440.55670103092785 204.23010909090908L 443.73195876288656 202.17658181818183L 446.90721649484533 199.31185454545454L 450.08247422680415 198.824L 453.2577319587629 202.68712727272728L 456.4329896907216 202.8573090909091L 459.6082474226804 196.1861818181818L 462.7835051546392 199.66923636363637L 465.9587628865979 198.2056727272727L 469.1340206185567 201.2178909090909L 472.30927835051546 201.7965090909091L 475.4845360824742 201.90429090909092L 478.659793814433 200.1968L 481.83505154639175 195.19912727272728L 485.0103092783505 206L 488.1855670103093 206L 491.36082474226805 206L 494.5360824742268 191.47214545454545L 497.7113402061856 197.8256L 500.8865979381443 198.86370909090908L 504.06185567010306 199.76567272727272L 507.2371134020619 200.08334545454545L 510.41237113402065 200.76407272727272L 513.5876288659794 201.80785454545455L 516.7628865979382 191.63098181818182L 519.9381443298969 194.42763636363637L 523.1134020618556 199.88479999999998L 526.2886597938143 152.61396363636362L 529.4639175257732 197.1165090909091L 532.639175257732 194.46734545454547L 535.8144329896907 155.90414545454547L 538.9896907216495 91.55839999999999L 542.1649484536083 104.48654545454546L 545.340206185567 151.17309090909092L 548.5154639175257 185.20945454545455L 551.6907216494844 142.76610909090908L 554.8659793814433 125.05018181818183L 558.0412371134021 123.73978181818181L 561.2164948453608 157.98603636363637L 564.3917525773196 53.53978181818181L 567.5670103092783 50.74880000000002L 570.7422680412371 99.95970909090909L 573.9175257731958 156.2048L 577.0927835051546 180.31956363636363L 580.2680412371134 192.4194909090909L 583.4432989690721 193.65614545454545L 586.618556701031 193.32712727272727L 589.7938144329897 192.1245090909091L 592.9690721649484 197.93338181818183L 596.1443298969073 191.5629090909091L 599.319587628866 198.7616L 602.4948453608247 199.3005090909091L 605.6701030927835 201.64901818181818L 608.8453608247422 200.58821818181818L 612.020618556701 202.44887272727271L 615.1958762886599 200.73003636363637L 618.3711340206186 189.7703272727273L 621.5463917525774 203.16930909090908L 624.7216494845361 200.48043636363636L 627.8969072164948 185.1810909090909L 631.0721649484536 187.904L 634.2474226804123 191.00698181818183L 637.422680412371 192.30603636363637L 640.5979381443299 177.09745454545455L 643.7731958762887 167.90196363636363L 646.9484536082474 179.34952727272727L 650.1237113402062 186.46312727272726L 653.2989690721649 150.28814545454546L 656.4742268041238 184.27345454545454L 659.6494845360825 199.5330909090909L 662.8247422680412 161.2365090909091L 666 155.49003636363636L 669.1752577319587 176.97832727272728L 672.3505154639175 190.30923636363636L 675.5257731958764 193.51432727272726L 678.7010309278351 201.72843636363638L 681.8762886597938 185.2434909090909L 685.0515463917526 192.03374545454545L 688.2268041237113 192.67476363636365L 691.4020618556701 180.18341818181818L 694.5773195876288 194.5013818181818L 697.7525773195875 194.6829090909091L 700.9278350515465 201.85323636363637L 704.1030927835052 196.19752727272726L 707.2783505154639 204.48538181818182L 710.4536082474227 191.5629090909091L 713.6288659793814 180.37061818181817L 716.8041237113403 193.02647272727273L 719.979381443299 186.21352727272728L 723.1546391752577 191.7330909090909L 726.3298969072165 191.47781818181818L 729.5051546391753 196.64L 732.680412371134 200.80378181818182L 735.8556701030928 176.28058181818182L 739.0309278350516 165.76901818181818L 742.2061855670103 181.80581818181818L 745.3814432989691 160.6352L 748.5567010309278 163.8402909090909L 751.7319587628866 182.08945454545454L 754.9072164948453 130.7853090909091L 758.0824742268042 190.49076363636362L 761.257731958763 202.09716363636363L 764.4329896907217 184.09192727272728L 767.6082474226804 197.50225454545455L 770.7835051546392 187.55796363636364L 773.9587628865979 192.95839999999998L 777.1340206185566 201.89861818181816L 780.3092783505155 184.3642181818182L 783.4845360824742 183.4338909090909L 786.659793814433 182.35607272727273L 789.8350515463918 182.54327272727272L 793.0103092783505 186.37803636363637L 796.1855670103093 174.38021818181818L 799.360824742268 183.1616L 802.5360824742268 183.49061818181818L 805.7113402061856 184.5968L 808.8865979381443 186.96232727272726L 812.061855670103 169.9781818181818L 815.2371134020619 167.9189818181818L 818.4123711340206 203.3168L 821.5876288659794 206L 824.7628865979382 128.34036363636363L 827.9381443298969 183.2410181818182L 831.1134020618557 156.85716363636362L 834.2886597938144 183.15025454545454L 837.4639175257731 183.18996363636364L 840.639175257732 182.25396363636364L 843.8144329896907 170.19374545454545L 846.9896907216495 186.8432L 850.1649484536083 183.76858181818181L 853.340206185567 186.30996363636365L 856.5154639175258 184.16567272727272L 859.6907216494845 184.9541818181818L 862.8659793814433 178.17527272727273L 866.0412371134021 180.6882909090909L 869.2164948453608 170.78938181818182L 872.3917525773195 177.9653818181818L 875.5670103092784 176.00261818181818L 878.7422680412371 173.88101818181818L 881.9175257731958 175.42967272727273L 885.0927835051547 196.91229090909093L 888.2680412371134 150.32785454545456L 891.4432989690722 167.24392727272726L 894.6185567010309 174.4653090909091L 897.7938144329896 131.8064L 900.9690721649484 144.54734545454545L 904.1443298969073 173.5293090909091L 907.319587628866 151.89352727272728L 910.4948453608248 194.0418909090909L 913.6701030927835 160.57847272727273L 916.8453608247422 206L 920.020618556701 153.3741090909091L 923.1958762886597 180.97192727272727L 926.3711340206186 181.62996363636364L 929.5463917525773 182.48654545454545L 932.7216494845361 183.05381818181817L 935.8969072164949 206L 939.0721649484536 151.89352727272728L 942.2474226804123 172.44014545454547L 945.4226804123712 169.17832727272727L 948.5979381443299 178.15825454545455L 951.7731958762886 175.43534545454546L 954.9484536082474 177.57396363636363L 958.1237113402061 180.9549090909091L 961.2989690721649 176.75141818181817L 964.4742268041238 167.76014545454547L 967.6494845360825 189.39592727272728L 970.8247422680413 206L 974 206" stroke-width="2.0" fill="none" />
    
        
        
        <text x="45.0" font-family="-apple-system, system-ui, BlinkMacSystemFont, Roboto" y="50.0" dominant-baseline="middle" text-anchor="end" font-size="12" fill="#24292f">27500.0</text>
        
            
            <path stroke="#74838f" stroke-dasharray="10 6" stroke-width="0.5"  d="M 50.0 50.0 L 974.0 50.0" />
        
    
        
        
        <text x="45.0" font-family="-apple-system, system-ui, BlinkMacSystemFont, Roboto" y="81.2" dominant-baseline="middle" text-anchor="end" font-size="12" fill="#24292f">22000.0</text>
        
            
            
            <path stroke="#74838f" stroke-dasharray="10 6" stroke-width="0.5"  d="M 50.0 81.2 L 974.0 81.2" />
        
    
        
        
        <text x="45.0" font-family="-apple-system, system-ui, BlinkMacSystemFont, Roboto" y="112.4" dominant-baseline="middle" text-anchor="end" font-size="12" fill="#24292f">16500.0</text>
        
            
            
            <path stroke="#74838f" stroke-dasharray="10 6" stroke-width="0.5"  d="M 50.0 112.4 L 974.0 112.4" />
        
    
        
        
        <text x="45.0" font-family="-apple-system, system-ui, BlinkMacSystemFont, Roboto" y="143.6" dominant-baseline="middle" text-anchor="end" font-size="12" fill="#24292f">11000.0</text>
        
            
            
            <path stroke="#74838f" stroke-dasharray="10 6" stroke-width="0.5"  d="M 50.0 143.6 L 974.0 143.6" />
        
    
        
        
        <text x="45.0" font-family="-apple-system, system-ui, BlinkMacSystemFont, Roboto" y="174.8" dominant-baseline="middle" text-anchor="end" font-size="12" fill="#24292f">5500.0</text>
        
            
            
            <path stroke="#74838f" stroke-dasharray="10 6" stroke-width="0.5"  d="M 50.0 174.8 L 974.0 174.8" />
        
    
        
        
        <text x="45.0" font-family="-apple-system, system-ui, BlinkMacSystemFont, Roboto" y="206.0" dominant-baseline="middle" text-anchor="end" font-size="12" fill="#24292f">0.0</text>
        
    
    
        
        <path stroke="#74838f"  stroke-width="2.0"  d="M 100.8041237113402 206.0 L 100.8041237113402 214.0" />
        <text x="100.8041237113402" font-family="-apple-system, system-ui, BlinkMacSystemFont, Roboto" y="216.0" dominant-baseline="hanging" text-anchor="middle" font-size="12" fill="#24292f">Mar 2022</text>
    
        
        <path stroke="#74838f"  stroke-width="2.0"  d="M 199.23711340206185 206.0 L 199.23711340206185 214.0" />
        <text x="199.23711340206185" font-family="-apple-system, system-ui, BlinkMacSystemFont, Roboto" y="216.0" dominant-baseline="hanging" text-anchor="middle" font-size="12" fill="#24292f">Apr 2022</text>
    
        
        <path stroke="#74838f"  stroke-width="2.0"  d="M 294.49484536082474 206.0 L 294.49484536082474 214.0" />
        <text x="294.49484536082474" font-family="-apple-system, system-ui, BlinkMacSystemFont, Roboto" y="216.0" dominant-baseline="hanging" text-anchor="middle" font-size="12" fill="#24292f">May 2022</text>
    
        
        <path stroke="#74838f"  stroke-width="2.0"  d="M 392.9278350515464 206.0 L 392.9278350515464 214.0" />
        <text x="392.9278350515464" font-family="-apple-system, system-ui, BlinkMacSystemFont, Roboto" y="216.0" dominant-baseline="hanging" text-anchor="middle" font-size="12" fill="#24292f">Jun 2022</text>
    
        
        <path stroke="#74838f"  stroke-width="2.0"  d="M 488.1855670103093 206.0 L 488.1855670103093 214.0" />
        <text x="488.1855670103093" font-family="-apple-system, system-ui, BlinkMacSystemFont, Roboto" y="216.0" dominant-baseline="hanging" text-anchor="middle" font-size="12" fill="#24292f">Jul 2022</text>
    
        
        <path stroke="#74838f"  stroke-width="2.0"  d="M 586.618556701031 206.0 L 586.618556701031 214.0" />
        <text x="586.618556701031" font-family="-apple-system, system-ui, BlinkMacSystemFont, Roboto" y="216.0" dominant-baseline="hanging" text-anchor="middle" font-size="12" fill="#24292f">Aug 2022</text>
    
        
        <path stroke="#74838f"  stroke-width="2.0"  d="M 685.0515463917526 206.0 L 685.0515463917526 214.0" />
        <text x="685.0515463917526" font-family="-apple-system, system-ui, BlinkMacSystemFont, Roboto" y="216.0" dominant-baseline="hanging" text-anchor="middle" font-size="12" fill="#24292f">Sep 2022</text>
    
        
        <path stroke="#74838f"  stroke-width="2.0"  d="M 780.3092783505155 206.0 L 780.3092783505155 214.0" />
        <text x="780.3092783505155" font-family="-apple-system, system-ui, BlinkMacSystemFont, Roboto" y="216.0" dominant-baseline="hanging" text-anchor="middle" font-size="12" fill="#24292f">Oct 2022</text>
    
        
        <path stroke="#74838f"  stroke-width="2.0"  d="M 878.7422680412371 206.0 L 878.7422680412371 214.0" />
        <text x="878.7422680412371" font-family="-apple-system, system-ui, BlinkMacSystemFont, Roboto" y="216.0" dominant-baseline="hanging" text-anchor="middle" font-size="12" fill="#24292f">Nov 2022</text>
    
        
        <path stroke="#74838f"  stroke-width="2.0"  d="M 974.0 206.0 L 974.0 214.0" />
        <text x="974.0" font-family="-apple-system, system-ui, BlinkMacSystemFont, Roboto" y="216.0" dominant-baseline="hanging" text-anchor="middle" font-size="12" fill="#24292f">Dec 2022</text>
    
    <path stroke="#74838f"   stroke-linejoin="round" stroke-width="2.0" d="M 50.0 216.0 L 50.0 206.0 L 974.0 206.0 L 974.0 216.0"  fill="none" />
    <text x="512.0" y="25.0" font-family="-apple-system, system-ui, BlinkMacSystemFont, Roboto" dominant-baseline="middle" text-anchor="middle" font-size="18" fill="#24292f">Total daily screen name changes</text>
</svg>
