<?xml version="1.0" standalone="no"?>
<svg width="1024.0" height="256.0"  viewBox="0 0 1024.0 256.0" preserveAspectRatio="xMidYMid meet" xmlns="http://www.w3.org/2000/svg">
    <path stroke="#3498db" stroke-linejoin="round" d="M 50.0 203.3394909090909 L 50 203.3394909090909L 52.54545454545455 202.32974545454545L 55.09090909090909 196.86690909090908L 57.63636363636364 195.94792727272727L 60.18181818181818 202.14254545454546L 62.72727272727273 197.35476363636363L 65.27272727272728 191.76145454545454L 67.81818181818181 179.96218181818182L 70.36363636363636 204.09396363636364L 72.9090909090909 194.17236363636363L 75.45454545454545 192.61803636363635L 78 195.1253818181818L 80.54545454545455 193.92843636363637L 83.0909090909091 182.2482909090909L 85.63636363636364 200.86618181818181L 88.18181818181819 201.45614545454546L 90.72727272727272 178.89003636363637L 93.27272727272728 197.33774545454546L 95.81818181818181 198.50065454545455L 98.36363636363637 200.41803636363636L 100.9090909090909 201.18385454545455L 103.45454545454545 202.26734545454545L 106 195.09134545454546L 108.54545454545455 198.08087272727272L 111.0909090909091 183.38850909090908L 113.63636363636364 197.47389090909093L 116.18181818181819 202.01774545454546L 118.72727272727273 194.66021818181818L 121.27272727272728 200.75272727272727L 123.81818181818183 200.00392727272728L 126.36363636363636 201.97236363636364L 128.9090909090909 204.2754909090909L 131.45454545454544 201.74545454545455L 134 201.01367272727273L 136.54545454545456 174.7829818181818L 139.0909090909091 195.76072727272728L 141.63636363636363 204.0032L 144.1818181818182 203.7309090909091L 146.72727272727275 197.87665454545453L 149.27272727272728 202.60770909090908L 151.8181818181818 202.6928L 154.36363636363637 197.55898181818182L 156.9090909090909 186.5141818181818L 159.45454545454544 199.26647272727274L 162 199.5728L 164.54545454545456 193.4802909090909L 167.0909090909091 199.10763636363635L 169.63636363636363 201.54690909090908L 172.1818181818182 201.5696L 174.72727272727275 195.06865454545454L 177.27272727272728 201.70007272727273L 179.8181818181818 197.2866909090909L 182.36363636363637 172.35505454545455L 184.9090909090909 203.20901818181818L 187.45454545454547 199.6749090909091L 190 193.12858181818183L 192.54545454545456 196.8896L 195.0909090909091 199.78836363636364L 197.63636363636365 198.82967272727274L 200.1818181818182 204.1336727272727L 202.72727272727272 202.57934545454546L 205.27272727272728 198.9261090909091L 207.8181818181818 206L 210.36363636363637 204.128L 212.9090909090909 192.1245090909091L 215.45454545454547 206L 218 206L 220.54545454545456 206L 223.0909090909091 206L 225.63636363636365 197.37178181818183L 228.1818181818182 199.57847272727273L 230.72727272727272 188.9024L 233.27272727272728 195.02894545454546L 235.8181818181818 191.20552727272727L 238.36363636363637 166.8128L 240.9090909090909 203.8386909090909L 243.45454545454547 198.09221818181817L 246 201.64334545454545L 248.54545454545456 202.2957090909091L 251.0909090909091 203.22036363636363L 253.63636363636365 200.66763636363635L 256.1818181818182 191.51185454545455L 258.72727272727275 189.18603636363636L 261.27272727272725 203.86705454545455L 263.8181818181818 197.56465454545454L 266.3636363636364 187.32538181818182L 268.9090909090909 201.2349090909091L 271.4545454545455 200.44639999999998L 274 201.4618181818182L 276.54545454545456 201.09876363636363L 279.0909090909091 201.17818181818183L 281.6363636363636 193.02647272727273L 284.1818181818182 198.8069818181818L 286.72727272727275 203.39054545454545L 289.27272727272725 200.30458181818182L 291.8181818181818 198.35883636363636L 294.3636363636364 193.3101090909091L 296.9090909090909 200.56552727272728L 299.4545454545455 203.03883636363636L 302 197.22996363636364L 304.54545454545456 201.95534545454547L 307.09090909090907 196.016L 309.6363636363636 202.30705454545455L 312.1818181818182 199.91316363636363L 314.72727272727275 194.62050909090908L 317.27272727272725 201.29163636363637L 319.8181818181818 202.98778181818182L 322.3636363636364 203.5437090909091L 324.90909090909093 200.60523636363638L 327.45454545454544 195.5621818181818L 330 203.24305454545456L 332.5454545454545 200.15709090909093L 335.0909090909091 198.46661818181818L 337.6363636363636 201.70007272727273L 340.1818181818182 200.70734545454545L 342.7272727272727 200.4293818181818L 345.2727272727273 201.76814545454545L 347.8181818181818 204.6442181818182L 350.3636363636364 206L 352.9090909090909 196.35636363636365L 355.45454545454544 199.21541818181817L 358 156.87418181818182L 360.54545454545456 165.1506909090909L 363.09090909090907 204.1733818181818L 365.6363636363636 202.17658181818183L 368.1818181818182 199.31185454545454L 370.72727272727275 198.7842909090909L 373.27272727272725 202.6757818181818L 375.8181818181818 202.8573090909091L 378.3636363636364 196.1861818181818L 380.90909090909093 199.64654545454545L 383.45454545454544 198.2056727272727L 386 201.2178909090909L 388.5454545454545 201.79083636363637L 391.0909090909091 201.90429090909092L 393.6363636363636 200.1968L 396.1818181818182 195.17076363636363L 398.7272727272727 206L 401.2727272727273 206L 403.8181818181818 206L 406.3636363636364 191.4834909090909L 408.9090909090909 197.79723636363636L 411.45454545454544 198.85236363636363L 414 199.76L 416.54545454545456 200.03796363636363L 419.09090909090907 200.76407272727272L 421.6363636363636 201.80785454545455L 424.1818181818182 191.63098181818182L 426.72727272727275 194.41061818181817L 429.27272727272725 199.88479999999998L 431.8181818181818 152.63098181818182L 434.3636363636364 197.04843636363637L 436.90909090909093 194.4730181818182L 439.45454545454544 155.90414545454547L 442 91.60945454545454L 444.5454545454545 104.5376L 447.0909090909091 151.17876363636364L 449.6363636363636 185.1981090909091L 452.1818181818182 142.76610909090908L 454.7272727272727 125.0672L 457.2727272727273 123.74545454545455L 459.8181818181818 157.99738181818182L 462.3636363636364 53.56814545454546L 464.9090909090909 50.78850909090909L 467.45454545454544 100.02210909090908L 470 156.2445090909091L 472.54545454545456 180.31956363636363L 475.09090909090907 192.43650909090908L 477.6363636363636 193.63912727272728L 480.1818181818182 193.3328L 482.72727272727275 192.11316363636365L 485.27272727272725 197.93338181818183L 487.8181818181818 191.5629090909091L 490.3636363636364 198.7672727272727L 492.90909090909093 199.3005090909091L 495.45454545454544 201.64901818181818L 498 200.58821818181818L 500.5454545454545 202.43752727272727L 503.0909090909091 200.73003636363637L 505.6363636363636 189.7703272727273L 508.1818181818182 203.17498181818183L 510.7272727272727 200.48610909090908L 513.2727272727273 185.1810909090909L 515.8181818181818 187.88698181818182L 518.3636363636364 191.01832727272728L 520.909090909091 192.31738181818181L 523.4545454545455 177.09745454545455L 526 167.91330909090908L 528.5454545454545 179.30981818181817L 531.0909090909091 186.49716363636364L 533.6363636363636 150.34487272727273L 536.1818181818182 184.27345454545454L 538.7272727272727 199.5104L 541.2727272727273 161.24785454545454L 543.8181818181818 155.49003636363636L 546.3636363636364 176.96130909090908L 548.909090909091 190.30923636363636L 551.4545454545455 193.50865454545453L 554 201.72843636363638L 556.5454545454545 185.22647272727272L 559.0909090909091 192.03374545454545L 561.6363636363637 192.66909090909093L 564.1818181818181 180.18341818181818L 566.7272727272727 194.5013818181818L 569.2727272727273 194.6829090909091L 571.8181818181819 201.85323636363637L 574.3636363636364 196.2032L 576.9090909090909 204.49105454545455L 579.4545454545455 191.55723636363638L 582 180.36494545454545L 584.5454545454545 193.02647272727273L 587.0909090909091 186.20785454545455L 589.6363636363636 191.72741818181817L 592.1818181818182 191.4834909090909L 594.7272727272727 196.63432727272726L 597.2727272727273 200.7810909090909L 599.8181818181819 176.26923636363637L 602.3636363636364 165.78036363636363L 604.9090909090909 181.82850909090908L 607.4545454545455 160.6976L 610 163.93105454545454L 612.5454545454546 182.10647272727272L 615.090909090909 130.808L 617.6363636363636 190.49643636363635L 620.1818181818182 202.0914909090909L 622.7272727272727 184.09192727272728L 625.2727272727273 197.50225454545455L 627.8181818181818 187.54094545454547L 630.3636363636364 192.95272727272726L 632.909090909091 201.88727272727272L 635.4545454545454 184.33585454545454L 638 183.04814545454545L 640.5454545454546 182.36741818181818L 643.0909090909091 182.54327272727272L 645.6363636363636 186.38938181818182L 648.1818181818181 174.3858909090909L 650.7272727272727 183.1786181818182L 653.2727272727274 183.5133090909091L 655.8181818181818 184.60247272727273L 658.3636363636364 186.968L 660.9090909090909 170.00087272727274L 663.4545454545455 167.8338909090909L 666 203.32247272727273L 668.5454545454545 206L 671.0909090909091 128.43112727272728L 673.6363636363636 183.2637090909091L 676.1818181818181 156.8685090909091L 678.7272727272727 183.15592727272727L 681.2727272727273 183.2013090909091L 683.8181818181819 182.25963636363636L 686.3636363636364 170.18807272727273L 688.9090909090909 186.86589090909092L 691.4545454545455 183.77425454545454L 694 186.29861818181817L 696.5454545454545 184.17134545454545L 699.0909090909091 184.9655272727273L 701.6363636363636 178.1696L 704.1818181818182 180.70530909090908L 706.7272727272727 170.80072727272727L 709.2727272727273 177.99374545454546L 711.8181818181819 175.99127272727273L 714.3636363636364 173.75621818181818L 716.9090909090909 175.45803636363638L 719.4545454545455 196.91796363636365L 722 150.30516363636363L 724.5454545454546 167.34036363636363L 727.090909090909 174.52203636363637L 729.6363636363636 132.05599999999998L 732.1818181818182 144.8309818181818L 734.7272727272727 173.60872727272726L 737.2727272727273 151.91054545454546L 739.8181818181818 194.03621818181819L 742.3636363636364 160.59549090909093L 744.909090909091 206L 747.4545454545454 153.43650909090908L 750 181.01163636363637L 752.5454545454546 181.6413090909091L 755.0909090909091 182.49221818181817L 757.6363636363636 183.08785454545455L 760.1818181818181 206L 762.7272727272727 151.86516363636363L 765.2727272727274 172.45716363636365L 767.8181818181818 169.20669090909092L 770.3636363636364 178.22065454545455L 772.9090909090909 175.54312727272728L 775.4545454545455 177.61367272727273L 778 181.0173090909091L 780.5454545454545 176.80814545454547L 783.0909090909091 167.8962909090909L 785.6363636363636 167.1248L 788.1818181818181 176.62094545454545L 790.7272727272727 158.63272727272727L 793.2727272727273 151.3602909090909L 795.8181818181819 173.35345454545455L 798.3636363636364 206L 800.9090909090909 206L 803.4545454545455 206L 806 206L 808.5454545454545 206L 811.0909090909091 206L 813.6363636363636 206L 816.1818181818182 206L 818.7272727272727 206L 821.2727272727273 206L 823.8181818181819 206L 826.3636363636364 206L 828.9090909090909 206L 831.4545454545455 206L 834 206L 836.5454545454546 206L 839.090909090909 206L 841.6363636363636 206L 844.1818181818182 206L 846.7272727272727 206L 849.2727272727273 206L 851.8181818181819 206L 854.3636363636364 206L 856.909090909091 206L 859.4545454545454 206L 862 206L 864.5454545454546 206L 867.0909090909091 206L 869.6363636363636 206L 872.1818181818181 206L 874.7272727272727 206L 877.2727272727274 206L 879.8181818181818 206L 882.3636363636364 206L 884.9090909090909 206L 887.4545454545455 206L 890 206L 892.5454545454545 206L 895.0909090909091 206L 897.6363636363637 206L 900.1818181818181 206L 902.7272727272727 206L 905.2727272727273 206L 907.8181818181819 206L 910.3636363636364 206L 912.9090909090909 206L 915.4545454545455 206L 918 206L 920.5454545454545 206L 923.0909090909091 206L 925.6363636363636 206L 928.1818181818182 206L 930.7272727272727 206L 933.2727272727273 206L 935.8181818181819 206L 938.3636363636364 206L 940.9090909090909 206L 943.4545454545455 206L 946 206L 948.5454545454546 206L 951.090909090909 206L 953.6363636363636 206L 956.1818181818182 206L 958.7272727272727 206L 961.2727272727273 206L 963.8181818181819 206L 966.3636363636364 206L 968.909090909091 206L 971.4545454545454 206L 974 206" stroke-width="2.0" fill="none" />
    
        
        
        <text x="45.0" font-family="-apple-system, system-ui, BlinkMacSystemFont, Roboto" y="50.0" dominant-baseline="middle" text-anchor="end" font-size="12" fill="#24292f">27500.0</text>
        
            
            <path stroke="#74838f" stroke-dasharray="10 6" stroke-width="0.5"  d="M 50.0 50.0 L 974.0 50.0" />
        
    
        
        
        <text x="45.0" font-family="-apple-system, system-ui, BlinkMacSystemFont, Roboto" y="81.2" dominant-baseline="middle" text-anchor="end" font-size="12" fill="#24292f">22000.0</text>
        
            
            
            <path stroke="#74838f" stroke-dasharray="10 6" stroke-width="0.5"  d="M 50.0 81.2 L 974.0 81.2" />
        
    
        
        
        <text x="45.0" font-family="-apple-system, system-ui, BlinkMacSystemFont, Roboto" y="112.4" dominant-baseline="middle" text-anchor="end" font-size="12" fill="#24292f">16500.0</text>
        
            
            
            <path stroke="#74838f" stroke-dasharray="10 6" stroke-width="0.5"  d="M 50.0 112.4 L 974.0 112.4" />
        
    
        
        
        <text x="45.0" font-family="-apple-system, system-ui, BlinkMacSystemFont, Roboto" y="143.6" dominant-baseline="middle" text-anchor="end" font-size="12" fill="#24292f">11000.0</text>
        
            
            
            <path stroke="#74838f" stroke-dasharray="10 6" stroke-width="0.5"  d="M 50.0 143.6 L 974.0 143.6" />
        
    
        
        
        <text x="45.0" font-family="-apple-system, system-ui, BlinkMacSystemFont, Roboto" y="174.8" dominant-baseline="middle" text-anchor="end" font-size="12" fill="#24292f">5500.0</text>
        
            
            
            <path stroke="#74838f" stroke-dasharray="10 6" stroke-width="0.5"  d="M 50.0 174.8 L 974.0 174.8" />
        
    
        
        
        <text x="45.0" font-family="-apple-system, system-ui, BlinkMacSystemFont, Roboto" y="206.0" dominant-baseline="middle" text-anchor="end" font-size="12" fill="#24292f">0.0</text>
        
    
    
        
        <path stroke="#74838f"  stroke-width="2.0"  d="M 90.72727272727272 206.0 L 90.72727272727272 214.0" />
        <text x="90.72727272727272" font-family="-apple-system, system-ui, BlinkMacSystemFont, Roboto" y="216.0" dominant-baseline="hanging" text-anchor="middle" font-size="12" fill="#24292f">Mar 2022</text>
    
        
        <path stroke="#74838f"  stroke-width="2.0"  d="M 169.63636363636363 206.0 L 169.63636363636363 214.0" />
        <text x="169.63636363636363" font-family="-apple-system, system-ui, BlinkMacSystemFont, Roboto" y="216.0" dominant-baseline="hanging" text-anchor="middle" font-size="12" fill="#24292f">Apr 2022</text>
    
        
        <path stroke="#74838f"  stroke-width="2.0"  d="M 246.0 206.0 L 246.0 214.0" />
        <text x="246.0" font-family="-apple-system, system-ui, BlinkMacSystemFont, Roboto" y="216.0" dominant-baseline="hanging" text-anchor="middle" font-size="12" fill="#24292f">May 2022</text>
    
        
        <path stroke="#74838f"  stroke-width="2.0"  d="M 324.90909090909093 206.0 L 324.90909090909093 214.0" />
        <text x="324.90909090909093" font-family="-apple-system, system-ui, BlinkMacSystemFont, Roboto" y="216.0" dominant-baseline="hanging" text-anchor="middle" font-size="12" fill="#24292f">Jun 2022</text>
    
        
        <path stroke="#74838f"  stroke-width="2.0"  d="M 401.2727272727273 206.0 L 401.2727272727273 214.0" />
        <text x="401.2727272727273" font-family="-apple-system, system-ui, BlinkMacSystemFont, Roboto" y="216.0" dominant-baseline="hanging" text-anchor="middle" font-size="12" fill="#24292f">Jul 2022</text>
    
        
        <path stroke="#74838f"  stroke-width="2.0"  d="M 480.1818181818182 206.0 L 480.1818181818182 214.0" />
        <text x="480.1818181818182" font-family="-apple-system, system-ui, BlinkMacSystemFont, Roboto" y="216.0" dominant-baseline="hanging" text-anchor="middle" font-size="12" fill="#24292f">Aug 2022</text>
    
        
        <path stroke="#74838f"  stroke-width="2.0"  d="M 559.0909090909091 206.0 L 559.0909090909091 214.0" />
        <text x="559.0909090909091" font-family="-apple-system, system-ui, BlinkMacSystemFont, Roboto" y="216.0" dominant-baseline="hanging" text-anchor="middle" font-size="12" fill="#24292f">Sep 2022</text>
    
        
        <path stroke="#74838f"  stroke-width="2.0"  d="M 635.4545454545454 206.0 L 635.4545454545454 214.0" />
        <text x="635.4545454545454" font-family="-apple-system, system-ui, BlinkMacSystemFont, Roboto" y="216.0" dominant-baseline="hanging" text-anchor="middle" font-size="12" fill="#24292f">Oct 2022</text>
    
        
        <path stroke="#74838f"  stroke-width="2.0"  d="M 714.3636363636364 206.0 L 714.3636363636364 214.0" />
        <text x="714.3636363636364" font-family="-apple-system, system-ui, BlinkMacSystemFont, Roboto" y="216.0" dominant-baseline="hanging" text-anchor="middle" font-size="12" fill="#24292f">Nov 2022</text>
    
        
        <path stroke="#74838f"  stroke-width="2.0"  d="M 790.7272727272727 206.0 L 790.7272727272727 214.0" />
        <text x="790.7272727272727" font-family="-apple-system, system-ui, BlinkMacSystemFont, Roboto" y="216.0" dominant-baseline="hanging" text-anchor="middle" font-size="12" fill="#24292f">Dec 2022</text>
    
        
        <path stroke="#74838f"  stroke-width="2.0"  d="M 869.6363636363636 206.0 L 869.6363636363636 214.0" />
        <text x="869.6363636363636" font-family="-apple-system, system-ui, BlinkMacSystemFont, Roboto" y="216.0" dominant-baseline="hanging" text-anchor="middle" font-size="12" fill="#24292f">Jan 2023</text>
    
        
        <path stroke="#74838f"  stroke-width="2.0"  d="M 948.5454545454546 206.0 L 948.5454545454546 214.0" />
        <text x="948.5454545454546" font-family="-apple-system, system-ui, BlinkMacSystemFont, Roboto" y="216.0" dominant-baseline="hanging" text-anchor="middle" font-size="12" fill="#24292f">Feb 2023</text>
    
    <path stroke="#74838f"   stroke-linejoin="round" stroke-width="2.0" d="M 50.0 216.0 L 50.0 206.0 L 974.0 206.0 L 974.0 216.0"  fill="none" />
    <text x="512.0" y="25.0" font-family="-apple-system, system-ui, BlinkMacSystemFont, Roboto" dominant-baseline="middle" text-anchor="middle" font-size="18" fill="#24292f">Total daily screen name changes</text>
</svg>
