<?xml version="1.0" standalone="no"?>
<svg width="1024.0" height="256.0"  viewBox="0 0 1024.0 256.0" preserveAspectRatio="xMidYMid meet" xmlns="http://www.w3.org/2000/svg">
    <path stroke="#3498db" stroke-linejoin="round" d="M 50.0 203.3394909090909 L 50 203.3394909090909L 52.30423940149626 202.32974545454545L 54.60847880299252 196.86690909090908L 56.912718204488776 195.94792727272727L 59.21695760598504 202.14254545454546L 61.5211970074813 197.35476363636363L 63.82543640897755 191.76145454545454L 66.12967581047381 179.96218181818182L 68.43391521197007 204.09396363636364L 70.73815461346634 194.17236363636363L 73.0423940149626 192.61803636363635L 75.34663341645884 195.1253818181818L 77.6508728179551 193.92843636363637L 79.95511221945137 182.2482909090909L 82.25935162094763 200.86618181818181L 84.56359102244389 201.45614545454546L 86.86783042394015 178.89003636363637L 89.17206982543641 197.33774545454546L 91.47630922693267 198.50065454545455L 93.78054862842893 200.41803636363636L 96.08478802992519 201.18385454545455L 98.38902743142145 202.26734545454545L 100.6932668329177 195.09134545454546L 102.99750623441398 198.08087272727272L 105.30174563591022 183.38850909090908L 107.60598503740648 197.47389090909093L 109.91022443890274 202.01774545454546L 112.21446384039899 194.66021818181818L 114.51870324189525 200.75272727272727L 116.82294264339153 200.00392727272728L 119.12718204488779 201.97236363636364L 121.43142144638404 204.2754909090909L 123.7356608478803 201.74545454545455L 126.03990024937656 201.01367272727273L 128.34413965087282 174.7829818181818L 130.64837905236908 195.76072727272728L 132.95261845386534 204.0032L 135.2568578553616 203.7309090909091L 137.56109725685786 197.87665454545453L 139.86533665835412 202.60770909090908L 142.16957605985039 202.6928L 144.47381546134665 197.55898181818182L 146.7780548628429 186.5141818181818L 149.08229426433917 199.26647272727274L 151.3865336658354 199.5728L 153.6907730673317 193.4802909090909L 155.99501246882795 199.10763636363635L 158.29925187032418 201.54690909090908L 160.60349127182045 201.5696L 162.9077306733167 195.06865454545454L 165.21197007481297 201.70007272727273L 167.5162094763092 197.2866909090909L 169.8204488778055 172.35505454545455L 172.12468827930175 203.20901818181818L 174.42892768079798 199.6749090909091L 176.73316708229427 193.12858181818183L 179.0374064837905 196.8896L 181.3416458852868 199.78836363636364L 183.64588528678306 198.82967272727274L 185.9501246882793 204.1336727272727L 188.25436408977558 202.57934545454546L 190.5586034912718 198.9261090909091L 192.86284289276807 206L 195.16708229426436 204.128L 197.4713216957606 192.1245090909091L 199.77556109725685 206L 202.07980049875312 206L 204.38403990024938 206L 206.68827930174564 206L 208.9925187032419 197.37178181818183L 211.29675810473816 199.57847272727273L 213.6009975062344 188.9024L 215.90523690773068 195.02894545454546L 218.20947630922694 191.20552727272727L 220.51371571072318 166.8128L 222.81795511221947 203.8386909090909L 225.1221945137157 198.09221818181817L 227.42643391521196 201.64334545454545L 229.73067331670822 202.2957090909091L 232.03491271820448 203.22036363636363L 234.33915211970077 200.66763636363635L 236.643391521197 191.51185454545455L 238.94763092269326 189.18603636363636L 241.25187032418953 203.86705454545455L 243.5561097256858 197.56465454545454L 245.86034912718205 187.32538181818182L 248.1645885286783 201.2349090909091L 250.46882793017457 200.44639999999998L 252.7730673316708 201.4618181818182L 255.0773067331671 201.09876363636363L 257.3815461346634 201.17818181818183L 259.6857855361596 193.02647272727273L 261.9900249376559 198.8069818181818L 264.2942643391521 203.39054545454545L 266.59850374064837 200.30458181818182L 268.9027431421447 198.35883636363636L 271.2069825436409 193.3101090909091L 273.51122194513715 200.56552727272728L 275.8154613466334 203.03883636363636L 278.1197007481297 197.22996363636364L 280.42394014962593 201.95534545454547L 282.72817955112225 196.016L 285.0324189526184 202.30705454545455L 287.33665835411466 199.91316363636363L 289.640897755611 194.62050909090908L 291.94513715710724 201.29163636363637L 294.2493765586035 202.98778181818182L 296.5536159600997 203.5437090909091L 298.85785536159597 200.60523636363638L 301.1620947630923 195.5621818181818L 303.46633416458855 203.24305454545456L 305.7705735660848 200.15709090909093L 308.074812967581 198.46661818181818L 310.37905236907727 201.70007272727273L 312.6832917705736 200.70734545454545L 314.98753117206985 200.4293818181818L 317.2917705735661 201.76814545454545L 319.5960099750623 204.6442181818182L 321.9002493765586 206L 324.20448877805484 196.35636363636365L 326.50872817955116 199.21541818181817L 328.8129675810474 156.87418181818182L 331.1172069825436 165.1506909090909L 333.4214463840399 204.1733818181818L 335.72568578553614 202.17658181818183L 338.0299251870324 199.31185454545454L 340.3341645885287 198.7842909090909L 342.6384039900249 202.6757818181818L 344.9426433915212 202.8573090909091L 347.24688279301745 196.1861818181818L 349.5511221945137 199.64654545454545L 351.85536159600997 198.2056727272727L 354.15960099750623 201.2178909090909L 356.4638403990025 201.79083636363637L 358.76807980049875 201.90429090909092L 361.072319201995 200.1968L 363.3765586034913 195.17076363636363L 365.68079800498754 206L 367.9850374064838 206L 370.28927680798006 206L 372.5935162094763 191.4834909090909L 374.8977556109726 197.79723636363636L 377.2019950124688 198.85236363636363L 379.5062344139651 199.76L 381.81047381546136 200.03796363636363L 384.1147132169576 200.76407272727272L 386.4189526184539 201.80785454545455L 388.7231920199501 191.63098181818182L 391.02743142144635 194.41061818181817L 393.33167082294267 199.88479999999998L 395.63591022443893 152.63098181818182L 397.94014962593513 197.04843636363637L 400.2443890274314 194.4730181818182L 402.54862842892766 155.90414545454547L 404.8528678304239 91.60945454545454L 407.15710723192024 104.5376L 409.46134663341644 151.17876363636364L 411.7655860349127 185.1981090909091L 414.06982543640896 142.76610909090908L 416.3740648379052 125.0672L 418.67830423940154 123.74545454545455L 420.98254364089775 157.99738181818182L 423.286783042394 53.56814545454546L 425.59102244389027 50.78850909090909L 427.8952618453865 100.02210909090908L 430.1995012468828 156.2445090909091L 432.50374064837905 180.31956363636363L 434.8079800498753 192.43650909090908L 437.1122194513716 193.63912727272728L 439.41645885286783 193.3328L 441.7206982543641 192.11316363636365L 444.0249376558603 197.93338181818183L 446.3291770573566 191.5629090909091L 448.6334164588529 198.7672727272727L 450.93765586034914 199.3005090909091L 453.2418952618454 201.64901818181818L 455.5461346633416 200.58821818181818L 457.85037406483787 202.43752727272727L 460.1546134663342 200.73003636363637L 462.45885286783044 189.7703272727273L 464.7630922693267 203.17498181818183L 467.0673316708229 200.48610909090908L 469.37157107231917 185.1810909090909L 471.67581047381543 187.88698181818182L 473.98004987531175 191.01832727272728L 476.284289276808 192.31738181818181L 478.5885286783042 177.09745454545455L 480.8927680798005 167.91330909090908L 483.19700748129674 179.30981818181817L 485.50124688279305 186.49716363636364L 487.8054862842893 150.34487272727273L 490.1097256857855 184.27345454545454L 492.4139650872818 199.5104L 494.71820448877804 161.24785454545454L 497.0224438902743 155.49003636363636L 499.3266832917706 176.96130909090908L 501.6309226932668 190.30923636363636L 503.9351620947631 193.50865454545453L 506.23940149625935 201.72843636363638L 508.5436408977556 185.22647272727272L 510.84788029925187 192.03374545454545L 513.1521197007481 192.66909090909093L 515.4563591022445 180.18341818181818L 517.7605985037407 194.5013818181818L 520.0648379052368 194.6829090909091L 522.3690773067332 201.85323636363637L 524.6733167082293 196.2032L 526.9775561097258 204.49105454545455L 529.281795511222 191.55723636363638L 531.5860349127181 180.36494545454545L 533.8902743142145 193.02647272727273L 536.1945137157106 186.20785454545455L 538.498753117207 191.72741818181817L 540.8029925187033 191.4834909090909L 543.1072319201994 196.63432727272726L 545.4114713216958 200.7810909090909L 547.7157107231919 176.26923636363637L 550.0199501246883 165.78036363636363L 552.3241895261846 181.82850909090908L 554.6284289276807 160.6976L 556.9326683291771 163.93105454545454L 559.2369077306732 182.10647272727272L 561.5411471321696 130.808L 563.8453865336659 190.49643636363635L 566.149625935162 202.0914909090909L 568.4538653366584 184.09192727272728L 570.7581047381545 197.50225454545455L 573.0623441396509 187.54094545454547L 575.3665835411472 192.95272727272726L 577.6708229426433 201.88727272727272L 579.9750623441397 184.33585454545454L 582.2793017456358 183.04814545454545L 584.5835411471322 182.36741818181818L 586.8877805486285 182.54327272727272L 589.1920199501246 186.38938181818182L 591.496259351621 174.3858909090909L 593.8004987531172 183.1786181818182L 596.1047381546135 183.5133090909091L 598.4089775561097 184.60247272727273L 600.7132169576059 186.968L 603.0174563591023 170.00087272727274L 605.3216957605985 167.8338909090909L 607.6259351620948 203.32247272727273L 609.930174563591 206L 612.2344139650872 128.43112727272728L 614.5386533665836 183.2637090909091L 616.8428927680798 156.8685090909091L 619.1471321695761 183.15592727272727L 621.4513715710723 183.2013090909091L 623.7556109725685 182.25963636363636L 626.0598503740648 170.18807272727273L 628.3640897755611 186.86589090909092L 630.6683291770574 183.77425454545454L 632.9725685785536 186.29861818181817L 635.2768079800499 184.17134545454545L 637.5810473815461 184.9655272727273L 639.8852867830424 178.1696L 642.1895261845387 180.70530909090908L 644.4937655860349 170.80072727272727L 646.7980049875312 177.99374545454546L 649.1022443890274 175.99127272727273L 651.4064837905237 173.75621818181818L 653.7107231920199 175.45803636363638L 656.0149625935162 196.91796363636365L 658.3192019950125 150.30516363636363L 660.6234413965087 167.34036363636363L 662.927680798005 174.52203636363637L 665.2319201995012 132.05599999999998L 667.5361596009975 144.8309818181818L 669.8403990024938 173.60872727272726L 672.14463840399 151.91054545454546L 674.4488778054863 194.03621818181819L 676.7531172069826 160.59549090909093L 679.0573566084788 206L 681.3615960099751 153.43650909090908L 683.6658354114713 181.01163636363637L 685.9700748129676 181.6413090909091L 688.2743142144639 182.49221818181817L 690.5785536159601 183.08785454545455L 692.8827930174564 206L 695.1870324189526 151.86516363636363L 697.4912718204489 172.45716363636365L 699.7955112219452 169.20669090909092L 702.0997506234414 178.22065454545455L 704.4039900249376 175.54312727272728L 706.708229426434 177.61367272727273L 709.0124688279302 181.0173090909091L 711.3167082294265 176.80814545454547L 713.6209476309227 167.8962909090909L 715.9251870324189 167.1248L 718.2294264339153 176.62094545454545L 720.5336658354115 158.63272727272727L 722.8379052369078 151.3602909090909L 725.142144638404 173.35345454545455L 727.4463840399002 206L 729.7506234413966 206L 732.0548628428927 206L 734.3591022443891 206L 736.6633416458853 206L 738.9675810473815 206L 741.2718204488779 206L 743.576059850374 206L 745.8802992518703 206L 748.1845386533666 206L 750.4887780548628 206L 752.7930174563592 206L 755.0972568578553 206L 757.4014962593516 206L 759.7057356608478 206L 762.0099750623441 206L 764.3142144638405 206L 766.6184538653366 206L 768.9226932668329 206L 771.2269326683291 206L 773.5311720698254 206L 775.8354114713218 206L 778.1396508728179 206L 780.4438902743142 206L 782.7481296758104 206L 785.0523690773067 206L 787.3566084788031 206L 789.6608478802992 206L 791.9650872817955 206L 794.2693266832918 206L 796.573566084788 206L 798.8778054862843 206L 801.1820448877805 206L 803.4862842892768 206L 805.790523690773 206L 808.0947630922693 206L 810.3990024937656 206L 812.7032418952618 206L 815.0074812967581 206L 817.3117206982544 206L 819.6159600997506 206L 821.9201995012469 206L 824.2244389027431 206L 826.5286783042394 206L 828.8329177057357 206L 831.1371571072319 206L 833.4413965087282 206L 835.7456359102245 206L 838.0498753117206 206L 840.354114713217 206L 842.6583541147132 206L 844.9625935162095 206L 847.2668329177058 206L 849.5710723192019 206L 851.8753117206983 206L 854.1795511221945 206L 856.4837905236908 206L 858.7880299251871 206L 861.0922693266832 206L 863.3965087281796 206L 865.7007481296757 206L 868.0049875311721 206L 870.3092269326684 206L 872.6134663341645 206L 874.9177057356609 206L 877.221945137157 206L 879.5261845386534 206L 881.8304239401497 206L 884.1346633416458 206L 886.4389027431422 206L 888.7431421446383 206L 891.0473815461347 206L 893.3516209476309 206L 895.6558603491271 206L 897.9600997506235 206L 900.2643391521196 206L 902.568578553616 206L 904.8728179551122 206L 907.1770573566084 206L 909.4812967581048 206L 911.785536159601 206L 914.0897755610973 206L 916.3940149625935 206L 918.6982543640897 206L 921.0024937655861 206L 923.3067331670823 206L 925.6109725685786 206L 927.9152119700748 206L 930.219451371571 206L 932.5236907730673 206L 934.8279301745636 206L 937.1321695760599 206L 939.4364089775561 206L 941.7406483790523 206L 944.0448877805486 206L 946.3491271820449 206L 948.6533665835412 206L 950.9576059850374 206L 953.2618453865337 206L 955.5660847880299 206L 957.8703241895262 206L 960.1745635910224 206L 962.4788029925187 206L 964.783042394015 206L 967.0872817955112 206L 969.3915211970075 206L 971.6957605985037 206L 974 206" stroke-width="2.0" fill="none" />
    
        
        
        <text x="45.0" font-family="-apple-system, system-ui, BlinkMacSystemFont, Roboto" y="50.0" dominant-baseline="middle" text-anchor="end" font-size="12" fill="#24292f">27500.0</text>
        
            
            <path stroke="#74838f" stroke-dasharray="10 6" stroke-width="0.5"  d="M 50.0 50.0 L 974.0 50.0" />
        
    
        
        
        <text x="45.0" font-family="-apple-system, system-ui, BlinkMacSystemFont, Roboto" y="81.2" dominant-baseline="middle" text-anchor="end" font-size="12" fill="#24292f">22000.0</text>
        
            
            
            <path stroke="#74838f" stroke-dasharray="10 6" stroke-width="0.5"  d="M 50.0 81.2 L 974.0 81.2" />
        
    
        
        
        <text x="45.0" font-family="-apple-system, system-ui, BlinkMacSystemFont, Roboto" y="112.4" dominant-baseline="middle" text-anchor="end" font-size="12" fill="#24292f">16500.0</text>
        
            
            
            <path stroke="#74838f" stroke-dasharray="10 6" stroke-width="0.5"  d="M 50.0 112.4 L 974.0 112.4" />
        
    
        
        
        <text x="45.0" font-family="-apple-system, system-ui, BlinkMacSystemFont, Roboto" y="143.6" dominant-baseline="middle" text-anchor="end" font-size="12" fill="#24292f">11000.0</text>
        
            
            
            <path stroke="#74838f" stroke-dasharray="10 6" stroke-width="0.5"  d="M 50.0 143.6 L 974.0 143.6" />
        
    
        
        
        <text x="45.0" font-family="-apple-system, system-ui, BlinkMacSystemFont, Roboto" y="174.8" dominant-baseline="middle" text-anchor="end" font-size="12" fill="#24292f">5500.0</text>
        
            
            
            <path stroke="#74838f" stroke-dasharray="10 6" stroke-width="0.5"  d="M 50.0 174.8 L 974.0 174.8" />
        
    
        
        
        <text x="45.0" font-family="-apple-system, system-ui, BlinkMacSystemFont, Roboto" y="206.0" dominant-baseline="middle" text-anchor="end" font-size="12" fill="#24292f">0.0</text>
        
    
    
        
        <path stroke="#74838f"  stroke-width="2.0"  d="M 86.86783042394015 206.0 L 86.86783042394015 214.0" />
        <text x="86.86783042394015" font-family="-apple-system, system-ui, BlinkMacSystemFont, Roboto" y="216.0" dominant-baseline="hanging" text-anchor="middle" font-size="12" fill="#24292f">Mar 2022</text>
    
        
        <path stroke="#74838f"  stroke-width="2.0"  d="M 158.29925187032418 206.0 L 158.29925187032418 214.0" />
        <text x="158.29925187032418" font-family="-apple-system, system-ui, BlinkMacSystemFont, Roboto" y="216.0" dominant-baseline="hanging" text-anchor="middle" font-size="12" fill="#24292f">Apr 2022</text>
    
        
        <path stroke="#74838f"  stroke-width="2.0"  d="M 227.42643391521196 206.0 L 227.42643391521196 214.0" />
        <text x="227.42643391521196" font-family="-apple-system, system-ui, BlinkMacSystemFont, Roboto" y="216.0" dominant-baseline="hanging" text-anchor="middle" font-size="12" fill="#24292f">May 2022</text>
    
        
        <path stroke="#74838f"  stroke-width="2.0"  d="M 298.85785536159597 206.0 L 298.85785536159597 214.0" />
        <text x="298.85785536159597" font-family="-apple-system, system-ui, BlinkMacSystemFont, Roboto" y="216.0" dominant-baseline="hanging" text-anchor="middle" font-size="12" fill="#24292f">Jun 2022</text>
    
        
        <path stroke="#74838f"  stroke-width="2.0"  d="M 367.9850374064838 206.0 L 367.9850374064838 214.0" />
        <text x="367.9850374064838" font-family="-apple-system, system-ui, BlinkMacSystemFont, Roboto" y="216.0" dominant-baseline="hanging" text-anchor="middle" font-size="12" fill="#24292f">Jul 2022</text>
    
        
        <path stroke="#74838f"  stroke-width="2.0"  d="M 439.41645885286783 206.0 L 439.41645885286783 214.0" />
        <text x="439.41645885286783" font-family="-apple-system, system-ui, BlinkMacSystemFont, Roboto" y="216.0" dominant-baseline="hanging" text-anchor="middle" font-size="12" fill="#24292f">Aug 2022</text>
    
        
        <path stroke="#74838f"  stroke-width="2.0"  d="M 510.84788029925187 206.0 L 510.84788029925187 214.0" />
        <text x="510.84788029925187" font-family="-apple-system, system-ui, BlinkMacSystemFont, Roboto" y="216.0" dominant-baseline="hanging" text-anchor="middle" font-size="12" fill="#24292f">Sep 2022</text>
    
        
        <path stroke="#74838f"  stroke-width="2.0"  d="M 579.9750623441397 206.0 L 579.9750623441397 214.0" />
        <text x="579.9750623441397" font-family="-apple-system, system-ui, BlinkMacSystemFont, Roboto" y="216.0" dominant-baseline="hanging" text-anchor="middle" font-size="12" fill="#24292f">Oct 2022</text>
    
        
        <path stroke="#74838f"  stroke-width="2.0"  d="M 651.4064837905237 206.0 L 651.4064837905237 214.0" />
        <text x="651.4064837905237" font-family="-apple-system, system-ui, BlinkMacSystemFont, Roboto" y="216.0" dominant-baseline="hanging" text-anchor="middle" font-size="12" fill="#24292f">Nov 2022</text>
    
        
        <path stroke="#74838f"  stroke-width="2.0"  d="M 720.5336658354115 206.0 L 720.5336658354115 214.0" />
        <text x="720.5336658354115" font-family="-apple-system, system-ui, BlinkMacSystemFont, Roboto" y="216.0" dominant-baseline="hanging" text-anchor="middle" font-size="12" fill="#24292f">Dec 2022</text>
    
        
        <path stroke="#74838f"  stroke-width="2.0"  d="M 791.9650872817955 206.0 L 791.9650872817955 214.0" />
        <text x="791.9650872817955" font-family="-apple-system, system-ui, BlinkMacSystemFont, Roboto" y="216.0" dominant-baseline="hanging" text-anchor="middle" font-size="12" fill="#24292f">Jan 2023</text>
    
        
        <path stroke="#74838f"  stroke-width="2.0"  d="M 863.3965087281796 206.0 L 863.3965087281796 214.0" />
        <text x="863.3965087281796" font-family="-apple-system, system-ui, BlinkMacSystemFont, Roboto" y="216.0" dominant-baseline="hanging" text-anchor="middle" font-size="12" fill="#24292f">Feb 2023</text>
    
        
        <path stroke="#74838f"  stroke-width="2.0"  d="M 927.9152119700748 206.0 L 927.9152119700748 214.0" />
        <text x="927.9152119700748" font-family="-apple-system, system-ui, BlinkMacSystemFont, Roboto" y="216.0" dominant-baseline="hanging" text-anchor="middle" font-size="12" fill="#24292f">Mar 2023</text>
    
    <path stroke="#74838f"   stroke-linejoin="round" stroke-width="2.0" d="M 50.0 216.0 L 50.0 206.0 L 974.0 206.0 L 974.0 216.0"  fill="none" />
    <text x="512.0" y="25.0" font-family="-apple-system, system-ui, BlinkMacSystemFont, Roboto" dominant-baseline="middle" text-anchor="middle" font-size="18" fill="#24292f">Total daily screen name changes</text>
</svg>
