<?xml version="1.0" standalone="no"?>
<svg width="1024.0" height="256.0"  viewBox="0 0 1024.0 256.0" preserveAspectRatio="xMidYMid meet" xmlns="http://www.w3.org/2000/svg">
    <path stroke="#3498db" stroke-linejoin="round" d="M 50.0 203.70254545454546 L 50 203.70254545454546L 53.40959409594096 202.7949090909091L 56.81918819188192 197.24698181818184L 60.22878228782288 196.05003636363637L 63.63837638376384 202.24465454545455L 67.0479704797048 197.41716363636363L 70.45756457564576 191.99403636363635L 73.86715867158671 179.96218181818182L 77.27675276752768 204.128L 80.68634686346863 194.15534545454545L 84.0959409594096 192.65207272727272L 87.50553505535055 195.13105454545456L 90.91512915129151 193.92276363636364L 94.32472324723247 182.29934545454546L 97.73431734317343 200.8605090909091L 101.14391143911439 201.56392727272726L 104.55350553505535 178.86734545454544L 107.96309963099631 197.47389090909093L 111.37269372693727 198.54603636363635L 114.78228782287822 200.5088L 118.19188191881919 201.1952L 121.60147601476015 202.32407272727272L 125.0110701107011 195.17076363636363L 128.42066420664207 198.08087272727272L 131.83025830258302 183.4338909090909L 135.23985239852396 197.56465454545454L 138.64944649446494 202.07447272727273L 142.0590405904059 194.6658909090909L 145.46863468634686 200.76407272727272L 148.8782287822878 200.04363636363638L 152.28782287822878 201.9837090909091L 155.69741697416976 204.53643636363637L 159.1070110701107 201.85323636363637L 162.51660516605165 201.02501818181818L 165.92619926199262 175.05527272727272L 169.3357933579336 195.76072727272728L 172.74538745387454 204.0032L 176.1549815498155 203.7536L 179.56457564575643 197.88232727272728L 182.9741697416974 202.60770909090908L 186.38376383763838 202.80058181818183L 189.79335793357933 197.58734545454547L 193.2029520295203 186.49716363636364L 196.61254612546125 199.2778181818182L 200.0221402214022 199.6352L 203.43173431734317 193.5426909090909L 206.84132841328415 199.15869090909092L 210.2509225092251 201.55825454545453L 213.66051660516604 201.6093090909091L 217.070110701107 195.11403636363636L 220.47970479704796 201.70574545454545L 223.88929889298893 197.27534545454546L 227.2988929889299 172.3664L 230.70848708487082 203.20901818181818L 234.1180811808118 199.7146181818182L 237.52767527675277 193.13992727272728L 240.93726937269372 196.9293090909091L 244.3468634686347 199.8394181818182L 247.75645756457564 198.83534545454546L 251.1660516605166 204.1336727272727L 254.57564575645756 202.70981818181818L 257.98523985239854 198.9090909090909L 261.3948339483395 206L 264.8044280442804 204.128L 268.2140221402214 192.10749090909093L 271.6236162361623 206L 275.0332103321033 206L 278.44280442804427 206L 281.85239852398524 206L 285.2619926199262 197.35476363636363L 288.6715867158672 199.57847272727273L 292.0811808118081 188.89672727272728L 295.4907749077491 195.30123636363635L 298.90036900369006 191.19985454545454L 302.309963099631 166.79010909090908L 305.71955719557195 203.88407272727272L 309.12915129151287 198.09221818181817L 312.53874538745384 201.68305454545455L 315.9483394833948 202.2957090909091L 319.3579335793358 203.24872727272728L 322.76752767527677 200.68465454545455L 326.17712177121774 191.53454545454545L 329.58671586715866 189.1746909090909L 332.99630996309963 203.88407272727272L 336.4059040590406 197.5533090909091L 339.8154981549816 187.42749090909092L 343.2250922509225 201.25192727272727L 346.6346863468635 200.44072727272726L 350.0442804428044 201.4674909090909L 353.45387453874537 201.09876363636363L 356.86346863468634 201.20654545454545L 360.2730627306273 193.01512727272728L 363.6826568265683 198.8013090909091L 367.09225092250927 203.39054545454545L 370.5018450184502 200.30458181818182L 373.91143911439116 198.5744L 377.3210332103321 193.31578181818182L 380.73062730627305 200.55985454545456L 384.140221402214 203.03883636363636L 387.549815498155 197.34341818181818L 390.9594095940959 201.95534545454547L 394.3690036900369 196.0840727272727L 397.77859778597787 202.32974545454545L 401.18819188191884 199.91316363636363L 404.5977859778598 194.67723636363638L 408.0073800738008 201.29163636363637L 411.41697416974165 203.0048L 414.8265682656826 203.53803636363637L 418.2361623616236 200.64494545454545L 421.6457564575646 195.5735272727273L 425.05535055350555 203.32814545454545L 428.4649446494465 200.1741090909091L 431.87453874538744 198.45527272727273L 435.2841328413284 201.70007272727273L 438.6937269372694 200.73003636363637L 442.10332103321036 200.45207272727274L 445.5129151291513 201.76247272727272L 448.92250922509226 204.6442181818182L 452.3321033210332 206L 455.74169741697415 196.40174545454545L 459.1512915129151 199.20407272727272L 462.5608856088561 156.78909090909093L 465.97047970479707 165.09396363636364L 469.38007380073805 204.29818181818183L 472.78966789667896 202.17658181818183L 476.19926199261994 199.31185454545454L 479.60885608856086 198.86370909090908L 483.01845018450183 202.6928L 486.4280442804428 202.85163636363637L 489.8376383763838 196.19185454545453L 493.2472324723247 199.6749090909091L 496.65682656826567 198.2L 500.06642066420665 201.2178909090909L 503.4760147601476 201.85323636363637L 506.8856088560886 201.90429090909092L 510.29520295202957 200.18545454545455L 513.7047970479705 195.22181818181818L 517.1143911439115 206L 520.5239852398524 206L 523.9335793357934 206L 527.3431734317344 191.46647272727273L 530.7527675276752 197.8482909090909L 534.1623616236162 198.85803636363636L 537.5719557195571 199.76567272727272L 540.9815498154982 200.11738181818183L 544.391143911439 200.76407272727272L 547.8007380073801 201.80785454545455L 551.210332103321 191.63665454545455L 554.619926199262 194.44465454545454L 558.0295202952029 199.89047272727274L 561.4391143911439 152.55723636363635L 564.8487084870849 197.1845818181818L 568.2583025830257 194.45600000000002L 571.6678966789668 155.86443636363637L 575.0774907749077 91.50734545454544L 578.4870848708488 104.47519999999999L 581.8966789667896 151.13338181818182L 585.3062730627306 185.26618181818182L 588.7158671586716 142.69803636363636L 592.1254612546126 124.97076363636364L 595.5350553505535 123.64334545454545L 598.9446494464944 157.92363636363638L 602.3542435424355 53.35825454545454L 605.7638376383763 50.55025454545455L 609.1734317343173 99.88596363636364L 612.5830258302583 156.18210909090908L 615.9926199261993 180.3138909090909L 619.4022140221402 192.4138181818182L 622.8118081180812 193.69018181818183L 626.2214022140221 193.32712727272727L 629.6309963099632 192.13585454545455L 633.040590405904 197.94472727272728L 636.450184501845 191.54589090909093L 639.859778597786 198.75592727272726L 643.269372693727 199.31185454545454L 646.6789667896679 201.66036363636363L 650.0885608856088 200.58254545454545L 653.4981549815499 202.4829090909091L 656.9077490774907 200.73003636363637L 660.3173431734318 190.07098181818182L 663.7269372693727 203.16930909090908L 667.1365313653137 200.48043636363636L 670.5461254612546 185.14138181818183L 673.9557195571955 187.98909090909092L 677.3653136531366 190.9842909090909L 680.7749077490774 192.3117090909091L 684.1845018450185 177.08043636363635L 687.5940959409594 167.86225454545453L 691.0036900369004 179.3552L 694.4132841328413 186.43476363636364L 697.8228782287823 150.23141818181819L 701.2324723247233 184.2848L 704.6420664206642 199.53876363636363L 708.0516605166051 161.16276363636365L 711.4612546125461 155.55810909090908L 714.8708487084871 176.92727272727274L 718.280442804428 190.28087272727274L 721.690036900369 193.51432727272726L 725.09963099631 201.70574545454545L 728.509225092251 185.21512727272727L 731.9188191881918 192.05076363636363L 735.3284132841328 192.71447272727272L 738.7380073800738 180.13236363636364L 742.1476014760148 194.51839999999999L 745.5571955719557 194.7056L 748.9667896678967 201.86458181818182L 752.3763837638377 196.2032L 755.7859778597785 204.51374545454547L 759.1955719557196 191.5856L 762.6051660516605 180.37061818181817L 766.0147601476016 193.01512727272728L 769.4243542435424 186.23054545454545L 772.8339483394833 191.72174545454544L 776.2435424354244 191.46647272727273L 779.6531365313652 196.64L 783.0627306273063 200.85483636363637L 786.4723247232472 176.26923636363637L 789.8819188191882 165.67825454545454L 793.2915129151291 181.8114909090909L 796.7011070110701 160.6749090909091L 800.1107011070111 163.8346181818182L 803.520295202952 182.05541818181817L 806.929889298893 130.67185454545455L 810.3394833948339 190.47941818181818L 813.7490774907749 202.09716363636363L 817.1586715867159 184.08058181818183L 820.5682656826568 197.50792727272727L 823.9778597785978 187.5693090909091L 827.3874538745388 192.95839999999998L 830.7970479704796 201.91563636363637L 834.2066420664207 184.4039272727273L 837.6162361623616 185.29454545454547L 841.0258302583026 182.2482909090909L 844.4354243542435 182.44683636363635L 847.8450184501845 186.33832727272727L 851.2546125461255 174.3234909090909L 854.6642066420663 183.09352727272727L 858.0738007380074 183.49061818181818L 861.4833948339483 184.52305454545456L 864.8929889298894 186.93396363636364L 868.3025830258302 169.84203636363637L 871.7121771217712 168.40683636363636L 875.1217712177122 203.32247272727273L 878.531365313653 206L 881.9409594095941 128.2893090909091L 885.350553505535 183.25803636363636L 888.7601476014761 156.59054545454546L 892.169741697417 182.98574545454545L 895.5793357933579 183.0765090909091L 898.9889298892989 182.288L 902.3985239852399 169.97250909090909L 905.8081180811809 186.76945454545455L 909.2177121771217 183.6608L 912.6273062730627 186.22487272727273L 916.0369003690037 184.1373090909091L 919.4464944649446 184.85207272727274L 922.8560885608856 178.0277818181818L 926.2656826568266 180.6202181818182L 929.6752767527676 170.58516363636363L 933.0848708487085 177.91432727272726L 936.4944649446494 175.86079999999998L 939.9040590405904 174.36887272727273L 943.3136531365313 175.28785454545454L 946.7232472324723 196.87825454545455L 950.1328413284133 149.97047272727272L 953.5424354243543 167L 956.9520295202952 174.2384L 960.3616236162361 131.59083636363636L 963.7712177121772 144.2807272727273L 967.180811808118 173.18894545454546L 970.5904059040591 195.53949090909092L 974 206" stroke-width="2.0" fill="none" />
    
        
        
        <text x="45.0" font-family="-apple-system, system-ui, BlinkMacSystemFont, Roboto" y="50.0" dominant-baseline="middle" text-anchor="end" font-size="12" fill="#24292f">27500.0</text>
        
            
            <path stroke="#74838f" stroke-dasharray="10 6" stroke-width="0.5"  d="M 50.0 50.0 L 974.0 50.0" />
        
    
        
        
        <text x="45.0" font-family="-apple-system, system-ui, BlinkMacSystemFont, Roboto" y="81.2" dominant-baseline="middle" text-anchor="end" font-size="12" fill="#24292f">22000.0</text>
        
            
            
            <path stroke="#74838f" stroke-dasharray="10 6" stroke-width="0.5"  d="M 50.0 81.2 L 974.0 81.2" />
        
    
        
        
        <text x="45.0" font-family="-apple-system, system-ui, BlinkMacSystemFont, Roboto" y="112.4" dominant-baseline="middle" text-anchor="end" font-size="12" fill="#24292f">16500.0</text>
        
            
            
            <path stroke="#74838f" stroke-dasharray="10 6" stroke-width="0.5"  d="M 50.0 112.4 L 974.0 112.4" />
        
    
        
        
        <text x="45.0" font-family="-apple-system, system-ui, BlinkMacSystemFont, Roboto" y="143.6" dominant-baseline="middle" text-anchor="end" font-size="12" fill="#24292f">11000.0</text>
        
            
            
            <path stroke="#74838f" stroke-dasharray="10 6" stroke-width="0.5"  d="M 50.0 143.6 L 974.0 143.6" />
        
    
        
        
        <text x="45.0" font-family="-apple-system, system-ui, BlinkMacSystemFont, Roboto" y="174.8" dominant-baseline="middle" text-anchor="end" font-size="12" fill="#24292f">5500.0</text>
        
            
            
            <path stroke="#74838f" stroke-dasharray="10 6" stroke-width="0.5"  d="M 50.0 174.8 L 974.0 174.8" />
        
    
        
        
        <text x="45.0" font-family="-apple-system, system-ui, BlinkMacSystemFont, Roboto" y="206.0" dominant-baseline="middle" text-anchor="end" font-size="12" fill="#24292f">0.0</text>
        
    
    
        
        <path stroke="#74838f"  stroke-width="2.0"  d="M 104.55350553505535 206.0 L 104.55350553505535 214.0" />
        <text x="104.55350553505535" font-family="-apple-system, system-ui, BlinkMacSystemFont, Roboto" y="216.0" dominant-baseline="hanging" text-anchor="middle" font-size="12" fill="#24292f">Mar 2022</text>
    
        
        <path stroke="#74838f"  stroke-width="2.0"  d="M 210.2509225092251 206.0 L 210.2509225092251 214.0" />
        <text x="210.2509225092251" font-family="-apple-system, system-ui, BlinkMacSystemFont, Roboto" y="216.0" dominant-baseline="hanging" text-anchor="middle" font-size="12" fill="#24292f">Apr 2022</text>
    
        
        <path stroke="#74838f"  stroke-width="2.0"  d="M 312.53874538745384 206.0 L 312.53874538745384 214.0" />
        <text x="312.53874538745384" font-family="-apple-system, system-ui, BlinkMacSystemFont, Roboto" y="216.0" dominant-baseline="hanging" text-anchor="middle" font-size="12" fill="#24292f">May 2022</text>
    
        
        <path stroke="#74838f"  stroke-width="2.0"  d="M 418.2361623616236 206.0 L 418.2361623616236 214.0" />
        <text x="418.2361623616236" font-family="-apple-system, system-ui, BlinkMacSystemFont, Roboto" y="216.0" dominant-baseline="hanging" text-anchor="middle" font-size="12" fill="#24292f">Jun 2022</text>
    
        
        <path stroke="#74838f"  stroke-width="2.0"  d="M 520.5239852398524 206.0 L 520.5239852398524 214.0" />
        <text x="520.5239852398524" font-family="-apple-system, system-ui, BlinkMacSystemFont, Roboto" y="216.0" dominant-baseline="hanging" text-anchor="middle" font-size="12" fill="#24292f">Jul 2022</text>
    
        
        <path stroke="#74838f"  stroke-width="2.0"  d="M 626.2214022140221 206.0 L 626.2214022140221 214.0" />
        <text x="626.2214022140221" font-family="-apple-system, system-ui, BlinkMacSystemFont, Roboto" y="216.0" dominant-baseline="hanging" text-anchor="middle" font-size="12" fill="#24292f">Aug 2022</text>
    
        
        <path stroke="#74838f"  stroke-width="2.0"  d="M 731.9188191881918 206.0 L 731.9188191881918 214.0" />
        <text x="731.9188191881918" font-family="-apple-system, system-ui, BlinkMacSystemFont, Roboto" y="216.0" dominant-baseline="hanging" text-anchor="middle" font-size="12" fill="#24292f">Sep 2022</text>
    
        
        <path stroke="#74838f"  stroke-width="2.0"  d="M 834.2066420664207 206.0 L 834.2066420664207 214.0" />
        <text x="834.2066420664207" font-family="-apple-system, system-ui, BlinkMacSystemFont, Roboto" y="216.0" dominant-baseline="hanging" text-anchor="middle" font-size="12" fill="#24292f">Oct 2022</text>
    
        
        <path stroke="#74838f"  stroke-width="2.0"  d="M 939.9040590405904 206.0 L 939.9040590405904 214.0" />
        <text x="939.9040590405904" font-family="-apple-system, system-ui, BlinkMacSystemFont, Roboto" y="216.0" dominant-baseline="hanging" text-anchor="middle" font-size="12" fill="#24292f">Nov 2022</text>
    
    <path stroke="#74838f"   stroke-linejoin="round" stroke-width="2.0" d="M 50.0 216.0 L 50.0 206.0 L 974.0 206.0 L 974.0 216.0"  fill="none" />
    <text x="512.0" y="25.0" font-family="-apple-system, system-ui, BlinkMacSystemFont, Roboto" dominant-baseline="middle" text-anchor="middle" font-size="18" fill="#24292f">Total daily screen name changes</text>
</svg>
