<?xml version="1.0" standalone="no"?>
<svg width="1024.0" height="256.0"  viewBox="0 0 1024.0 256.0" preserveAspectRatio="xMidYMid meet" xmlns="http://www.w3.org/2000/svg">
    <path stroke="#3498db" stroke-linejoin="round" d="M 50.0 203.3394909090909 L 50 203.3394909090909L 52.52459016393443 202.32974545454545L 55.049180327868854 196.86690909090908L 57.57377049180328 195.94792727272727L 60.09836065573771 202.14254545454546L 62.62295081967213 197.35476363636363L 65.14754098360656 191.76145454545454L 67.67213114754098 179.96218181818182L 70.19672131147541 204.09396363636364L 72.72131147540983 194.17236363636363L 75.24590163934425 192.61803636363635L 77.77049180327869 195.1253818181818L 80.29508196721312 193.92843636363637L 82.81967213114754 182.2482909090909L 85.34426229508196 200.86618181818181L 87.86885245901638 201.45614545454546L 90.39344262295083 178.89003636363637L 92.91803278688525 197.33774545454546L 95.44262295081967 198.50065454545455L 97.9672131147541 200.41803636363636L 100.49180327868852 201.18385454545455L 103.01639344262296 202.26734545454545L 105.54098360655738 195.09134545454546L 108.0655737704918 198.08087272727272L 110.59016393442623 183.38850909090908L 113.11475409836066 197.47389090909093L 115.63934426229508 202.01774545454546L 118.1639344262295 194.66021818181818L 120.68852459016394 200.75272727272727L 123.21311475409837 200.00392727272728L 125.73770491803278 201.97236363636364L 128.2622950819672 204.2754909090909L 130.78688524590166 201.74545454545455L 133.31147540983608 201.01367272727273L 135.8360655737705 174.7829818181818L 138.36065573770492 195.76072727272728L 140.88524590163934 204.0032L 143.40983606557376 203.7309090909091L 145.9344262295082 197.87665454545453L 148.4590163934426 202.60770909090908L 150.98360655737704 202.6928L 153.5081967213115 197.55898181818182L 156.0327868852459 186.5141818181818L 158.55737704918033 199.26647272727274L 161.08196721311475 199.5728L 163.60655737704917 193.4802909090909L 166.1311475409836 199.10763636363635L 168.65573770491804 201.54690909090908L 171.18032786885246 201.5696L 173.7049180327869 195.06865454545454L 176.22950819672133 201.70007272727273L 178.75409836065572 197.2866909090909L 181.27868852459017 172.35505454545455L 183.80327868852459 203.20901818181818L 186.327868852459 199.6749090909091L 188.85245901639345 193.12858181818183L 191.37704918032787 196.8896L 193.9016393442623 199.78836363636364L 196.42622950819674 198.82967272727274L 198.95081967213116 204.1336727272727L 201.47540983606555 202.57934545454546L 204 198.9261090909091L 206.52459016393442 206L 209.04918032786884 204.128L 211.5737704918033 192.1245090909091L 214.0983606557377 206L 216.62295081967213 206L 219.14754098360658 206L 221.672131147541 206L 224.1967213114754 197.37178181818183L 226.72131147540983 199.57847272727273L 229.24590163934425 188.9024L 231.77049180327867 195.02894545454546L 234.29508196721312 191.20552727272727L 236.81967213114754 166.8128L 239.34426229508196 203.8386909090909L 241.8688524590164 198.09221818181817L 244.39344262295083 201.64334545454545L 246.91803278688522 202.2957090909091L 249.44262295081967 203.22036363636363L 251.9672131147541 200.66763636363635L 254.4918032786885 191.51185454545455L 257.016393442623 189.18603636363636L 259.54098360655735 203.86705454545455L 262.0655737704918 197.56465454545454L 264.59016393442624 187.32538181818182L 267.11475409836066 201.2349090909091L 269.6393442622951 200.44639999999998L 272.1639344262295 201.4618181818182L 274.6885245901639 201.09876363636363L 277.21311475409834 201.17818181818183L 279.7377049180328 193.02647272727273L 282.2622950819672 198.8069818181818L 284.78688524590166 203.39054545454545L 287.3114754098361 200.30458181818182L 289.8360655737705 198.35883636363636L 292.3606557377049 193.3101090909091L 294.88524590163934 200.56552727272728L 297.4098360655738 203.03883636363636L 299.9344262295082 197.22996363636364L 302.45901639344265 201.95534545454547L 304.983606557377 196.016L 307.50819672131144 202.30705454545455L 310.03278688524586 199.91316363636363L 312.55737704918033 194.62050909090908L 315.08196721311475 201.29163636363637L 317.60655737704917 202.98778181818182L 320.1311475409836 203.5437090909091L 322.655737704918 200.60523636363638L 325.18032786885243 195.5621818181818L 327.7049180327869 203.24305454545456L 330.2295081967213 200.15709090909093L 332.75409836065575 198.46661818181818L 335.27868852459017 201.70007272727273L 337.8032786885246 200.70734545454545L 340.327868852459 200.4293818181818L 342.8524590163935 201.76814545454545L 345.3770491803279 204.6442181818182L 347.9016393442623 206L 350.4262295081967 196.35636363636365L 352.9508196721311 199.21541818181817L 355.4754098360656 156.87418181818182L 358 165.1506909090909L 360.5245901639344 204.1733818181818L 363.04918032786884 202.17658181818183L 365.57377049180326 199.31185454545454L 368.0983606557377 198.7842909090909L 370.62295081967216 202.6757818181818L 373.1475409836066 202.8573090909091L 375.672131147541 196.1861818181818L 378.1967213114754 199.64654545454545L 380.72131147540983 198.2056727272727L 383.24590163934425 201.2178909090909L 385.77049180327873 201.79083636363637L 388.29508196721315 201.90429090909092L 390.81967213114757 200.1968L 393.344262295082 195.17076363636363L 395.8688524590164 206L 398.3934426229508 206L 400.91803278688525 206L 403.44262295081967 191.4834909090909L 405.9672131147541 197.79723636363636L 408.4918032786885 198.85236363636363L 411.0163934426229 199.76L 413.54098360655735 200.03796363636363L 416.0655737704918 200.76407272727272L 418.59016393442624 201.80785454545455L 421.11475409836066 191.63098181818182L 423.6393442622951 194.41061818181817L 426.1639344262295 199.88479999999998L 428.6885245901639 152.63098181818182L 431.2131147540984 197.04843636363637L 433.7377049180328 194.4730181818182L 436.26229508196724 155.90414545454547L 438.78688524590166 91.60945454545454L 441.3114754098361 104.5376L 443.83606557377044 151.17876363636364L 446.3606557377049 185.1981090909091L 448.88524590163934 142.76610909090908L 451.40983606557376 125.0672L 453.9344262295082 123.74545454545455L 456.4590163934426 157.99738181818182L 458.983606557377 53.56814545454546L 461.5081967213115 50.78850909090909L 464.0327868852459 100.02210909090908L 466.55737704918033 156.2445090909091L 469.08196721311475 180.31956363636363L 471.60655737704917 192.43650909090908L 474.1311475409836 193.63912727272728L 476.65573770491807 193.3328L 479.1803278688525 192.11316363636365L 481.7049180327869 197.93338181818183L 484.2295081967213 191.5629090909091L 486.75409836065575 198.7672727272727L 489.27868852459017 199.3005090909091L 491.8032786885246 201.64901818181818L 494.327868852459 200.58821818181818L 496.8524590163934 202.43752727272727L 499.37704918032784 200.73003636363637L 501.90163934426226 189.7703272727273L 504.42622950819674 203.17498181818183L 506.95081967213116 200.48610909090908L 509.4754098360656 185.1810909090909L 512 187.88698181818182L 514.5245901639344 191.01832727272728L 517.0491803278688 192.31738181818181L 519.5737704918033 177.09745454545455L 522.0983606557377 167.91330909090908L 524.6229508196722 179.30981818181817L 527.1475409836066 186.49716363636364L 529.672131147541 150.34487272727273L 532.1967213114754 184.27345454545454L 534.7213114754098 199.5104L 537.2459016393443 161.24785454545454L 539.7704918032787 155.49003636363636L 542.2950819672132 176.96130909090908L 544.8196721311476 190.30923636363636L 547.344262295082 193.50865454545453L 549.8688524590164 201.72843636363638L 552.3934426229509 185.22647272727272L 554.9180327868853 192.03374545454545L 557.4426229508197 192.66909090909093L 559.967213114754 180.18341818181818L 562.4918032786885 194.5013818181818L 565.0163934426229 194.6829090909091L 567.5409836065573 201.85323636363637L 570.0655737704917 196.2032L 572.5901639344262 204.49105454545455L 575.1147540983607 191.55723636363638L 577.639344262295 180.36494545454545L 580.1639344262295 193.02647272727273L 582.6885245901639 186.20785454545455L 585.2131147540983 191.72741818181817L 587.7377049180328 191.4834909090909L 590.2622950819672 196.63432727272726L 592.7868852459017 200.7810909090909L 595.311475409836 176.26923636363637L 597.8360655737705 165.78036363636363L 600.3606557377049 181.82850909090908L 602.8852459016393 160.6976L 605.4098360655738 163.93105454545454L 607.9344262295082 182.10647272727272L 610.4590163934427 130.808L 612.983606557377 190.49643636363635L 615.5081967213115 202.0914909090909L 618.032786885246 184.09192727272728L 620.5573770491803 197.50225454545455L 623.0819672131148 187.54094545454547L 625.6065573770492 192.95272727272726L 628.1311475409836 201.88727272727272L 630.655737704918 184.33585454545454L 633.1803278688525 183.04814545454545L 635.704918032787 182.36741818181818L 638.2295081967213 182.54327272727272L 640.7540983606558 186.38938181818182L 643.2786885245902 174.3858909090909L 645.8032786885246 183.1786181818182L 648.3278688524591 183.5133090909091L 650.8524590163934 184.60247272727273L 653.3770491803278 186.968L 655.9016393442622 170.00087272727274L 658.4262295081967 167.8338909090909L 660.9508196721312 203.32247272727273L 663.4754098360655 206L 666 128.43112727272728L 668.5245901639344 183.2637090909091L 671.0491803278688 156.8685090909091L 673.5737704918032 183.15592727272727L 676.0983606557377 183.2013090909091L 678.6229508196722 182.25963636363636L 681.1475409836065 170.18807272727273L 683.672131147541 186.86589090909092L 686.1967213114754 183.77425454545454L 688.7213114754098 186.29861818181817L 691.2459016393443 184.17134545454545L 693.7704918032787 184.9655272727273L 696.2950819672132 178.1696L 698.8196721311475 180.70530909090908L 701.344262295082 170.80072727272727L 703.8688524590164 177.99374545454546L 706.3934426229508 175.99127272727273L 708.9180327868853 173.75621818181818L 711.4426229508197 175.45803636363638L 713.9672131147541 196.91796363636365L 716.4918032786885 150.30516363636363L 719.016393442623 167.34036363636363L 721.5409836065575 174.52203636363637L 724.0655737704918 132.05599999999998L 726.5901639344263 144.8309818181818L 729.1147540983607 173.60872727272726L 731.6393442622951 151.91054545454546L 734.1639344262295 194.03621818181819L 736.688524590164 160.59549090909093L 739.2131147540985 206L 741.7377049180328 153.43650909090908L 744.2622950819672 181.01163636363637L 746.7868852459015 181.6413090909091L 749.311475409836 182.49221818181817L 751.8360655737705 183.08785454545455L 754.3606557377049 206L 756.8852459016393 151.86516363636363L 759.4098360655737 172.45716363636365L 761.9344262295082 169.20669090909092L 764.4590163934425 178.22065454545455L 766.983606557377 175.54312727272728L 769.5081967213115 177.61367272727273L 772.0327868852459 181.0173090909091L 774.5573770491803 176.80814545454547L 777.0819672131147 167.8962909090909L 779.6065573770492 167.1248L 782.1311475409836 176.62094545454545L 784.655737704918 158.63272727272727L 787.1803278688525 151.3602909090909L 789.7049180327868 173.35345454545455L 792.2295081967213 206L 794.7540983606557 206L 797.2786885245902 206L 799.8032786885246 206L 802.327868852459 206L 804.8524590163935 206L 807.3770491803278 206L 809.9016393442623 206L 812.4262295081968 206L 814.9508196721312 206L 817.4754098360656 206L 820 206L 822.5245901639345 206L 825.0491803278688 206L 827.5737704918033 206L 830.0983606557378 206L 832.6229508196722 206L 835.1475409836066 206L 837.6721311475409 206L 840.1967213114754 206L 842.7213114754098 206L 845.2459016393442 206L 847.7704918032787 206L 850.295081967213 206L 852.8196721311475 206L 855.344262295082 206L 857.8688524590164 206L 860.3934426229508 206L 862.9180327868852 206L 865.4426229508197 206L 867.967213114754 206L 870.4918032786885 206L 873.016393442623 206L 875.5409836065573 206L 878.0655737704918 206L 880.5901639344262 206L 883.1147540983607 206L 885.6393442622951 206L 888.1639344262295 206L 890.688524590164 206L 893.2131147540983 206L 895.7377049180328 206L 898.2622950819672 206L 900.7868852459017 206L 903.3114754098361 206L 905.8360655737705 206L 908.360655737705 206L 910.8852459016393 206L 913.4098360655738 206L 915.9344262295083 206L 918.4590163934427 206L 920.9836065573771 206L 923.5081967213115 206L 926.032786885246 206L 928.5573770491803 206L 931.0819672131147 206L 933.6065573770492 206L 936.1311475409835 206L 938.655737704918 206L 941.1803278688524 206L 943.7049180327868 206L 946.2295081967213 206L 948.7540983606557 206L 951.2786885245902 206L 953.8032786885245 206L 956.327868852459 206L 958.8524590163935 206L 961.3770491803278 206L 963.9016393442623 206L 966.4262295081967 206L 968.9508196721312 206L 971.4754098360655 206L 974 206" stroke-width="2.0" fill="none" />
    
        
        
        <text x="45.0" font-family="-apple-system, system-ui, BlinkMacSystemFont, Roboto" y="50.0" dominant-baseline="middle" text-anchor="end" font-size="12" fill="#24292f">27500.0</text>
        
            
            <path stroke="#74838f" stroke-dasharray="10 6" stroke-width="0.5"  d="M 50.0 50.0 L 974.0 50.0" />
        
    
        
        
        <text x="45.0" font-family="-apple-system, system-ui, BlinkMacSystemFont, Roboto" y="81.2" dominant-baseline="middle" text-anchor="end" font-size="12" fill="#24292f">22000.0</text>
        
            
            
            <path stroke="#74838f" stroke-dasharray="10 6" stroke-width="0.5"  d="M 50.0 81.2 L 974.0 81.2" />
        
    
        
        
        <text x="45.0" font-family="-apple-system, system-ui, BlinkMacSystemFont, Roboto" y="112.4" dominant-baseline="middle" text-anchor="end" font-size="12" fill="#24292f">16500.0</text>
        
            
            
            <path stroke="#74838f" stroke-dasharray="10 6" stroke-width="0.5"  d="M 50.0 112.4 L 974.0 112.4" />
        
    
        
        
        <text x="45.0" font-family="-apple-system, system-ui, BlinkMacSystemFont, Roboto" y="143.6" dominant-baseline="middle" text-anchor="end" font-size="12" fill="#24292f">11000.0</text>
        
            
            
            <path stroke="#74838f" stroke-dasharray="10 6" stroke-width="0.5"  d="M 50.0 143.6 L 974.0 143.6" />
        
    
        
        
        <text x="45.0" font-family="-apple-system, system-ui, BlinkMacSystemFont, Roboto" y="174.8" dominant-baseline="middle" text-anchor="end" font-size="12" fill="#24292f">5500.0</text>
        
            
            
            <path stroke="#74838f" stroke-dasharray="10 6" stroke-width="0.5"  d="M 50.0 174.8 L 974.0 174.8" />
        
    
        
        
        <text x="45.0" font-family="-apple-system, system-ui, BlinkMacSystemFont, Roboto" y="206.0" dominant-baseline="middle" text-anchor="end" font-size="12" fill="#24292f">0.0</text>
        
    
    
        
        <path stroke="#74838f"  stroke-width="2.0"  d="M 90.39344262295083 206.0 L 90.39344262295083 214.0" />
        <text x="90.39344262295083" font-family="-apple-system, system-ui, BlinkMacSystemFont, Roboto" y="216.0" dominant-baseline="hanging" text-anchor="middle" font-size="12" fill="#24292f">Mar 2022</text>
    
        
        <path stroke="#74838f"  stroke-width="2.0"  d="M 168.65573770491804 206.0 L 168.65573770491804 214.0" />
        <text x="168.65573770491804" font-family="-apple-system, system-ui, BlinkMacSystemFont, Roboto" y="216.0" dominant-baseline="hanging" text-anchor="middle" font-size="12" fill="#24292f">Apr 2022</text>
    
        
        <path stroke="#74838f"  stroke-width="2.0"  d="M 244.39344262295083 206.0 L 244.39344262295083 214.0" />
        <text x="244.39344262295083" font-family="-apple-system, system-ui, BlinkMacSystemFont, Roboto" y="216.0" dominant-baseline="hanging" text-anchor="middle" font-size="12" fill="#24292f">May 2022</text>
    
        
        <path stroke="#74838f"  stroke-width="2.0"  d="M 322.655737704918 206.0 L 322.655737704918 214.0" />
        <text x="322.655737704918" font-family="-apple-system, system-ui, BlinkMacSystemFont, Roboto" y="216.0" dominant-baseline="hanging" text-anchor="middle" font-size="12" fill="#24292f">Jun 2022</text>
    
        
        <path stroke="#74838f"  stroke-width="2.0"  d="M 398.3934426229508 206.0 L 398.3934426229508 214.0" />
        <text x="398.3934426229508" font-family="-apple-system, system-ui, BlinkMacSystemFont, Roboto" y="216.0" dominant-baseline="hanging" text-anchor="middle" font-size="12" fill="#24292f">Jul 2022</text>
    
        
        <path stroke="#74838f"  stroke-width="2.0"  d="M 476.65573770491807 206.0 L 476.65573770491807 214.0" />
        <text x="476.65573770491807" font-family="-apple-system, system-ui, BlinkMacSystemFont, Roboto" y="216.0" dominant-baseline="hanging" text-anchor="middle" font-size="12" fill="#24292f">Aug 2022</text>
    
        
        <path stroke="#74838f"  stroke-width="2.0"  d="M 554.9180327868853 206.0 L 554.9180327868853 214.0" />
        <text x="554.9180327868853" font-family="-apple-system, system-ui, BlinkMacSystemFont, Roboto" y="216.0" dominant-baseline="hanging" text-anchor="middle" font-size="12" fill="#24292f">Sep 2022</text>
    
        
        <path stroke="#74838f"  stroke-width="2.0"  d="M 630.655737704918 206.0 L 630.655737704918 214.0" />
        <text x="630.655737704918" font-family="-apple-system, system-ui, BlinkMacSystemFont, Roboto" y="216.0" dominant-baseline="hanging" text-anchor="middle" font-size="12" fill="#24292f">Oct 2022</text>
    
        
        <path stroke="#74838f"  stroke-width="2.0"  d="M 708.9180327868853 206.0 L 708.9180327868853 214.0" />
        <text x="708.9180327868853" font-family="-apple-system, system-ui, BlinkMacSystemFont, Roboto" y="216.0" dominant-baseline="hanging" text-anchor="middle" font-size="12" fill="#24292f">Nov 2022</text>
    
        
        <path stroke="#74838f"  stroke-width="2.0"  d="M 784.655737704918 206.0 L 784.655737704918 214.0" />
        <text x="784.655737704918" font-family="-apple-system, system-ui, BlinkMacSystemFont, Roboto" y="216.0" dominant-baseline="hanging" text-anchor="middle" font-size="12" fill="#24292f">Dec 2022</text>
    
        
        <path stroke="#74838f"  stroke-width="2.0"  d="M 862.9180327868852 206.0 L 862.9180327868852 214.0" />
        <text x="862.9180327868852" font-family="-apple-system, system-ui, BlinkMacSystemFont, Roboto" y="216.0" dominant-baseline="hanging" text-anchor="middle" font-size="12" fill="#24292f">Jan 2023</text>
    
        
        <path stroke="#74838f"  stroke-width="2.0"  d="M 941.1803278688524 206.0 L 941.1803278688524 214.0" />
        <text x="941.1803278688524" font-family="-apple-system, system-ui, BlinkMacSystemFont, Roboto" y="216.0" dominant-baseline="hanging" text-anchor="middle" font-size="12" fill="#24292f">Feb 2023</text>
    
    <path stroke="#74838f"   stroke-linejoin="round" stroke-width="2.0" d="M 50.0 216.0 L 50.0 206.0 L 974.0 206.0 L 974.0 216.0"  fill="none" />
    <text x="512.0" y="25.0" font-family="-apple-system, system-ui, BlinkMacSystemFont, Roboto" dominant-baseline="middle" text-anchor="middle" font-size="18" fill="#24292f">Total daily screen name changes</text>
</svg>
