<?xml version="1.0" standalone="no"?>
<svg width="1024.0" height="256.0"  viewBox="0 0 1024.0 256.0" preserveAspectRatio="xMidYMid meet" xmlns="http://www.w3.org/2000/svg">
    <path stroke="#3498db" stroke-linejoin="round" d="M 50.0 203.3394909090909 L 50 203.3394909090909L 52.78313253012048 202.32974545454545L 55.566265060240966 196.86690909090908L 58.34939759036145 195.94792727272727L 61.13253012048193 202.14254545454546L 63.915662650602414 197.35476363636363L 66.6987951807229 191.76145454545454L 69.48192771084337 179.96218181818182L 72.26506024096386 204.09396363636364L 75.04819277108433 194.17236363636363L 77.83132530120483 192.61803636363635L 80.6144578313253 195.1253818181818L 83.39759036144578 193.92843636363637L 86.18072289156626 182.2482909090909L 88.96385542168674 200.86618181818181L 91.74698795180723 201.45614545454546L 94.53012048192771 178.89003636363637L 97.3132530120482 197.33774545454546L 100.09638554216868 198.50065454545455L 102.87951807228916 200.41803636363636L 105.66265060240964 201.18385454545455L 108.44578313253012 202.26734545454545L 111.2289156626506 195.09134545454546L 114.01204819277109 198.08087272727272L 116.79518072289156 183.38850909090908L 119.57831325301206 197.47389090909093L 122.36144578313254 202.01774545454546L 125.144578313253 194.66021818181818L 127.92771084337349 200.75272727272727L 130.71084337349396 200.00392727272728L 133.49397590361446 201.97236363636364L 136.27710843373495 204.2754909090909L 139.06024096385542 201.74545454545455L 141.8433734939759 201.01367272727273L 144.6265060240964 174.7829818181818L 147.40963855421688 195.76072727272728L 150.19277108433735 204.0032L 152.97590361445782 203.7309090909091L 155.75903614457832 197.87665454545453L 158.54216867469881 202.60770909090908L 161.32530120481928 202.6928L 164.10843373493975 197.55898181818182L 166.89156626506025 186.5141818181818L 169.67469879518072 199.26647272727274L 172.4578313253012 199.5728L 175.24096385542168 193.4802909090909L 178.02409638554218 199.10763636363635L 180.80722891566265 201.54690909090908L 183.59036144578312 201.5696L 186.3734939759036 195.06865454545454L 189.1566265060241 201.70007272727273L 191.93975903614458 197.2866909090909L 194.72289156626508 172.35505454545455L 197.50602409638552 203.20901818181818L 200.289156626506 199.6749090909091L 203.0722891566265 193.12858181818183L 205.85542168674698 196.8896L 208.63855421686748 199.78836363636364L 211.42168674698794 198.82967272727274L 214.2048192771084 204.1336727272727L 216.9879518072289 202.57934545454546L 219.7710843373494 198.9261090909091L 222.55421686746988 206L 225.33734939759037 204.128L 228.12048192771084 192.1245090909091L 230.9036144578313 206L 233.6867469879518 206L 236.4698795180723 206L 239.25301204819277 206L 242.03614457831327 197.37178181818183L 244.81927710843374 199.57847272727273L 247.6024096385542 188.9024L 250.3855421686747 195.02894545454546L 253.16867469879517 191.20552727272727L 255.95180722891567 166.8128L 258.73493975903614 203.8386909090909L 261.51807228915663 198.09221818181817L 264.30120481927713 201.64334545454545L 267.08433734939763 202.2957090909091L 269.86746987951807 203.22036363636363L 272.65060240963857 200.66763636363635L 275.433734939759 191.51185454545455L 278.2168674698795 189.18603636363636L 281 203.86705454545455L 283.7831325301205 197.56465454545454L 286.566265060241 187.32538181818182L 289.34939759036143 201.2349090909091L 292.1325301204819 200.44639999999998L 294.9156626506024 201.4618181818182L 297.69879518072287 201.09876363636363L 300.48192771084337 201.17818181818183L 303.26506024096386 193.02647272727273L 306.04819277108436 198.8069818181818L 308.8313253012048 203.39054545454545L 311.6144578313253 200.30458181818182L 314.3975903614458 198.35883636363636L 317.18072289156623 193.3101090909091L 319.9638554216868 200.56552727272728L 322.7469879518072 203.03883636363636L 325.5301204819277 197.22996363636364L 328.3132530120482 201.95534545454547L 331.09638554216866 196.016L 333.87951807228916 202.30705454545455L 336.66265060240966 199.91316363636363L 339.44578313253015 194.62050909090908L 342.2289156626506 201.29163636363637L 345.01204819277103 202.98778181818182L 347.7951807228916 203.5437090909091L 350.578313253012 200.60523636363638L 353.3614457831325 195.5621818181818L 356.144578313253 203.24305454545456L 358.92771084337346 200.15709090909093L 361.71084337349396 198.46661818181818L 364.49397590361446 201.70007272727273L 367.27710843373495 200.70734545454545L 370.0602409638554 200.4293818181818L 372.8433734939759 201.76814545454545L 375.6265060240964 204.6442181818182L 378.4096385542168 206L 381.1927710843374 196.35636363636365L 383.9759036144578 199.21541818181817L 386.7590361445783 156.87418181818182L 389.5421686746988 165.1506909090909L 392.32530120481925 204.1733818181818L 395.10843373493975 202.17658181818183L 397.89156626506025 199.31185454545454L 400.67469879518075 198.7842909090909L 403.4578313253012 202.6757818181818L 406.2409638554217 202.8573090909091L 409.0240963855422 196.1861818181818L 411.8072289156626 199.64654545454545L 414.5903614457832 198.2056727272727L 417.3734939759036 201.2178909090909L 420.1566265060241 201.79083636363637L 422.9397590361446 201.90429090909092L 425.72289156626505 200.1968L 428.50602409638554 195.17076363636363L 431.28915662650604 206L 434.07228915662654 206L 436.855421686747 206L 439.6385542168675 191.4834909090909L 442.421686746988 197.79723636363636L 445.2048192771084 198.85236363636363L 447.98795180722897 199.76L 450.7710843373494 200.03796363636363L 453.55421686746985 200.76407272727272L 456.33734939759034 201.80785454545455L 459.12048192771084 191.63098181818182L 461.90361445783134 194.41061818181817L 464.6867469879518 199.88479999999998L 467.4698795180723 152.63098181818182L 470.2530120481928 197.04843636363637L 473.0361445783132 194.4730181818182L 475.81927710843377 155.90414545454547L 478.6024096385542 91.60945454545454L 481.3855421686747 104.5376L 484.1686746987952 151.17876363636364L 486.95180722891564 185.1981090909091L 489.73493975903614 142.76610909090908L 492.51807228915663 125.0672L 495.30120481927713 123.74545454545455L 498.0843373493976 157.99738181818182L 500.86746987951807 53.56814545454546L 503.65060240963857 50.78850909090909L 506.433734939759 100.02210909090908L 509.21686746987956 156.2445090909091L 512 180.31956363636363L 514.7831325301205 192.43650909090908L 517.566265060241 193.63912727272728L 520.3493975903614 193.3328L 523.132530120482 192.11316363636365L 525.9156626506024 197.93338181818183L 528.6987951807229 191.5629090909091L 531.4819277108434 198.7672727272727L 534.2650602409637 199.3005090909091L 537.0481927710844 201.64901818181818L 539.8313253012049 200.58821818181818L 542.6144578313254 202.43752727272727L 545.3975903614457 200.73003636363637L 548.1807228915663 189.7703272727273L 550.9638554216867 203.17498181818183L 553.7469879518072 200.48610909090908L 556.5301204819277 185.1810909090909L 559.3132530120481 187.88698181818182L 562.0963855421687 191.01832727272728L 564.8795180722892 192.31738181818181L 567.6626506024096 177.09745454545455L 570.4457831325301 167.91330909090908L 573.2289156626506 179.30981818181817L 576.0120481927711 186.49716363636364L 578.7951807228916 150.34487272727273L 581.5783132530121 184.27345454545454L 584.3614457831325 199.5104L 587.1445783132531 161.24785454545454L 589.9277108433736 155.49003636363636L 592.710843373494 176.96130909090908L 595.4939759036145 190.30923636363636L 598.277108433735 193.50865454545453L 601.0602409638554 201.72843636363638L 603.843373493976 185.22647272727272L 606.6265060240964 192.03374545454545L 609.4096385542168 192.66909090909093L 612.1927710843373 180.18341818181818L 614.9759036144579 194.5013818181818L 617.7590361445783 194.6829090909091L 620.5421686746988 201.85323636363637L 623.3253012048193 196.2032L 626.1084337349397 204.49105454545455L 628.8915662650603 191.55723636363638L 631.6746987951807 180.36494545454545L 634.4578313253012 193.02647272727273L 637.2409638554217 186.20785454545455L 640.0240963855421 191.72741818181817L 642.8072289156627 191.4834909090909L 645.5903614457832 196.63432727272726L 648.3734939759036 200.7810909090909L 651.156626506024 176.26923636363637L 653.9397590361446 165.78036363636363L 656.722891566265 181.82850909090908L 659.5060240963855 160.6976L 662.289156626506 163.93105454545454L 665.0722891566264 182.10647272727272L 667.8554216867469 130.808L 670.6385542168675 190.49643636363635L 673.4216867469879 202.0914909090909L 676.2048192771084 184.09192727272728L 678.9879518072289 197.50225454545455L 681.7710843373494 187.54094545454547L 684.5542168674699 192.95272727272726L 687.3373493975904 201.88727272727272L 690.1204819277108 184.33585454545454L 692.9036144578313 183.04814545454545L 695.6867469879518 182.36741818181818L 698.4698795180723 182.54327272727272L 701.2530120481928 186.38938181818182L 704.0361445783133 174.3858909090909L 706.8192771084337 183.1786181818182L 709.6024096385543 183.5133090909091L 712.3855421686748 184.60247272727273L 715.1686746987951 186.968L 717.9518072289156 170.00087272727274L 720.7349397590361 167.8338909090909L 723.5180722891566 203.32247272727273L 726.3012048192771 206L 729.0843373493976 128.43112727272728L 731.867469879518 183.2637090909091L 734.6506024096385 156.8685090909091L 737.4337349397591 183.15592727272727L 740.2168674698795 183.2013090909091L 743 182.25963636363636L 745.7831325301205 170.18807272727273L 748.5662650602409 186.86589090909092L 751.3493975903615 183.77425454545454L 754.132530120482 186.29861818181817L 756.9156626506024 184.17134545454545L 759.6987951807229 184.9655272727273L 762.4819277108434 178.1696L 765.2650602409639 180.70530909090908L 768.0481927710844 170.80072727272727L 770.8313253012049 177.99374545454546L 773.6144578313252 175.99127272727273L 776.3975903614457 173.75621818181818L 779.1807228915663 175.45803636363638L 781.9638554216867 196.91796363636365L 784.7469879518072 150.30516363636363L 787.5301204819277 167.34036363636363L 790.3132530120482 174.52203636363637L 793.0963855421687 132.05599999999998L 795.8795180722892 144.8309818181818L 798.6626506024096 173.60872727272726L 801.4457831325301 151.91054545454546L 804.2289156626506 194.03621818181819L 807.0120481927711 160.59549090909093L 809.7951807228916 206L 812.5783132530121 153.43650909090908L 815.3614457831325 181.01163636363637L 818.1445783132531 181.6413090909091L 820.9277108433736 182.49221818181817L 823.710843373494 183.08785454545455L 826.4939759036145 206L 829.277108433735 151.86516363636363L 832.0602409638554 172.45716363636365L 834.843373493976 169.20669090909092L 837.6265060240964 178.22065454545455L 840.4096385542168 175.54312727272728L 843.1927710843373 177.61367272727273L 845.9759036144579 181.0173090909091L 848.7590361445783 176.80814545454547L 851.5421686746988 167.8962909090909L 854.3253012048193 167.1248L 857.1084337349397 176.62094545454545L 859.8915662650603 158.63272727272727L 862.6746987951807 151.3602909090909L 865.4578313253012 173.35345454545455L 868.2409638554217 206L 871.0240963855421 206L 873.8072289156627 206L 876.5903614457832 206L 879.3734939759036 206L 882.156626506024 206L 884.9397590361446 206L 887.722891566265 206L 890.5060240963855 206L 893.289156626506 206L 896.0722891566264 206L 898.8554216867469 206L 901.6385542168675 206L 904.4216867469879 206L 907.2048192771084 206L 909.9879518072289 206L 912.7710843373494 206L 915.5542168674699 206L 918.3373493975904 206L 921.1204819277108 206L 923.9036144578313 206L 926.6867469879518 206L 929.4698795180723 206L 932.2530120481928 206L 935.0361445783133 206L 937.8192771084337 206L 940.6024096385543 206L 943.3855421686748 206L 946.1686746987951 206L 948.9518072289156 206L 951.7349397590361 206L 954.5180722891566 206L 957.3012048192771 206L 960.0843373493976 206L 962.867469879518 206L 965.6506024096385 206L 968.4337349397591 206L 971.2168674698795 206L 974 206" stroke-width="2.0" fill="none" />
    
        
        
        <text x="45.0" font-family="-apple-system, system-ui, BlinkMacSystemFont, Roboto" y="50.0" dominant-baseline="middle" text-anchor="end" font-size="12" fill="#24292f">27500.0</text>
        
            
            <path stroke="#74838f" stroke-dasharray="10 6" stroke-width="0.5"  d="M 50.0 50.0 L 974.0 50.0" />
        
    
        
        
        <text x="45.0" font-family="-apple-system, system-ui, BlinkMacSystemFont, Roboto" y="81.2" dominant-baseline="middle" text-anchor="end" font-size="12" fill="#24292f">22000.0</text>
        
            
            
            <path stroke="#74838f" stroke-dasharray="10 6" stroke-width="0.5"  d="M 50.0 81.2 L 974.0 81.2" />
        
    
        
        
        <text x="45.0" font-family="-apple-system, system-ui, BlinkMacSystemFont, Roboto" y="112.4" dominant-baseline="middle" text-anchor="end" font-size="12" fill="#24292f">16500.0</text>
        
            
            
            <path stroke="#74838f" stroke-dasharray="10 6" stroke-width="0.5"  d="M 50.0 112.4 L 974.0 112.4" />
        
    
        
        
        <text x="45.0" font-family="-apple-system, system-ui, BlinkMacSystemFont, Roboto" y="143.6" dominant-baseline="middle" text-anchor="end" font-size="12" fill="#24292f">11000.0</text>
        
            
            
            <path stroke="#74838f" stroke-dasharray="10 6" stroke-width="0.5"  d="M 50.0 143.6 L 974.0 143.6" />
        
    
        
        
        <text x="45.0" font-family="-apple-system, system-ui, BlinkMacSystemFont, Roboto" y="174.8" dominant-baseline="middle" text-anchor="end" font-size="12" fill="#24292f">5500.0</text>
        
            
            
            <path stroke="#74838f" stroke-dasharray="10 6" stroke-width="0.5"  d="M 50.0 174.8 L 974.0 174.8" />
        
    
        
        
        <text x="45.0" font-family="-apple-system, system-ui, BlinkMacSystemFont, Roboto" y="206.0" dominant-baseline="middle" text-anchor="end" font-size="12" fill="#24292f">0.0</text>
        
    
    
        
        <path stroke="#74838f"  stroke-width="2.0"  d="M 94.53012048192771 206.0 L 94.53012048192771 214.0" />
        <text x="94.53012048192771" font-family="-apple-system, system-ui, BlinkMacSystemFont, Roboto" y="216.0" dominant-baseline="hanging" text-anchor="middle" font-size="12" fill="#24292f">Mar 2022</text>
    
        
        <path stroke="#74838f"  stroke-width="2.0"  d="M 180.80722891566265 206.0 L 180.80722891566265 214.0" />
        <text x="180.80722891566265" font-family="-apple-system, system-ui, BlinkMacSystemFont, Roboto" y="216.0" dominant-baseline="hanging" text-anchor="middle" font-size="12" fill="#24292f">Apr 2022</text>
    
        
        <path stroke="#74838f"  stroke-width="2.0"  d="M 264.30120481927713 206.0 L 264.30120481927713 214.0" />
        <text x="264.30120481927713" font-family="-apple-system, system-ui, BlinkMacSystemFont, Roboto" y="216.0" dominant-baseline="hanging" text-anchor="middle" font-size="12" fill="#24292f">May 2022</text>
    
        
        <path stroke="#74838f"  stroke-width="2.0"  d="M 350.578313253012 206.0 L 350.578313253012 214.0" />
        <text x="350.578313253012" font-family="-apple-system, system-ui, BlinkMacSystemFont, Roboto" y="216.0" dominant-baseline="hanging" text-anchor="middle" font-size="12" fill="#24292f">Jun 2022</text>
    
        
        <path stroke="#74838f"  stroke-width="2.0"  d="M 434.07228915662654 206.0 L 434.07228915662654 214.0" />
        <text x="434.07228915662654" font-family="-apple-system, system-ui, BlinkMacSystemFont, Roboto" y="216.0" dominant-baseline="hanging" text-anchor="middle" font-size="12" fill="#24292f">Jul 2022</text>
    
        
        <path stroke="#74838f"  stroke-width="2.0"  d="M 520.3493975903614 206.0 L 520.3493975903614 214.0" />
        <text x="520.3493975903614" font-family="-apple-system, system-ui, BlinkMacSystemFont, Roboto" y="216.0" dominant-baseline="hanging" text-anchor="middle" font-size="12" fill="#24292f">Aug 2022</text>
    
        
        <path stroke="#74838f"  stroke-width="2.0"  d="M 606.6265060240964 206.0 L 606.6265060240964 214.0" />
        <text x="606.6265060240964" font-family="-apple-system, system-ui, BlinkMacSystemFont, Roboto" y="216.0" dominant-baseline="hanging" text-anchor="middle" font-size="12" fill="#24292f">Sep 2022</text>
    
        
        <path stroke="#74838f"  stroke-width="2.0"  d="M 690.1204819277108 206.0 L 690.1204819277108 214.0" />
        <text x="690.1204819277108" font-family="-apple-system, system-ui, BlinkMacSystemFont, Roboto" y="216.0" dominant-baseline="hanging" text-anchor="middle" font-size="12" fill="#24292f">Oct 2022</text>
    
        
        <path stroke="#74838f"  stroke-width="2.0"  d="M 776.3975903614457 206.0 L 776.3975903614457 214.0" />
        <text x="776.3975903614457" font-family="-apple-system, system-ui, BlinkMacSystemFont, Roboto" y="216.0" dominant-baseline="hanging" text-anchor="middle" font-size="12" fill="#24292f">Nov 2022</text>
    
        
        <path stroke="#74838f"  stroke-width="2.0"  d="M 859.8915662650603 206.0 L 859.8915662650603 214.0" />
        <text x="859.8915662650603" font-family="-apple-system, system-ui, BlinkMacSystemFont, Roboto" y="216.0" dominant-baseline="hanging" text-anchor="middle" font-size="12" fill="#24292f">Dec 2022</text>
    
        
        <path stroke="#74838f"  stroke-width="2.0"  d="M 946.1686746987951 206.0 L 946.1686746987951 214.0" />
        <text x="946.1686746987951" font-family="-apple-system, system-ui, BlinkMacSystemFont, Roboto" y="216.0" dominant-baseline="hanging" text-anchor="middle" font-size="12" fill="#24292f">Jan 2023</text>
    
    <path stroke="#74838f"   stroke-linejoin="round" stroke-width="2.0" d="M 50.0 216.0 L 50.0 206.0 L 974.0 206.0 L 974.0 216.0"  fill="none" />
    <text x="512.0" y="25.0" font-family="-apple-system, system-ui, BlinkMacSystemFont, Roboto" dominant-baseline="middle" text-anchor="middle" font-size="18" fill="#24292f">Total daily screen name changes</text>
</svg>
