<?xml version="1.0" standalone="no"?>
<svg width="1024.0" height="256.0"  viewBox="0 0 1024.0 256.0" preserveAspectRatio="xMidYMid meet" xmlns="http://www.w3.org/2000/svg">
    <path stroke="#3498db" stroke-linejoin="round" d="M 50.0 203.3394909090909 L 50 203.3394909090909L 52.497297297297294 202.32974545454545L 54.994594594594595 196.86690909090908L 57.491891891891896 195.94792727272727L 59.98918918918919 202.14254545454546L 62.486486486486484 197.35476363636363L 64.98378378378379 191.76145454545454L 67.48108108108109 179.96218181818182L 69.97837837837838 204.09396363636364L 72.47567567567567 194.17236363636363L 74.97297297297297 192.61803636363635L 77.47027027027028 195.1253818181818L 79.96756756756757 193.92843636363637L 82.46486486486486 182.2482909090909L 84.96216216216217 200.86618181818181L 87.45945945945945 201.45614545454546L 89.95675675675676 178.89003636363637L 92.45405405405405 197.33774545454546L 94.95135135135135 198.50065454545455L 97.44864864864866 200.41803636363636L 99.94594594594595 201.18385454545455L 102.44324324324324 202.26734545454545L 104.94054054054055 195.09134545454546L 107.43783783783783 198.08087272727272L 109.93513513513514 183.38850909090908L 112.43243243243244 197.47389090909093L 114.92972972972973 202.01774545454546L 117.42702702702704 194.66021818181818L 119.92432432432433 200.75272727272727L 122.42162162162163 200.00392727272728L 124.91891891891892 201.97236363636364L 127.41621621621623 204.2754909090909L 129.91351351351352 201.74545454545455L 132.4108108108108 201.01367272727273L 134.9081081081081 174.7829818181818L 137.40540540540542 195.76072727272728L 139.9027027027027 204.0032L 142.4 203.7309090909091L 144.8972972972973 197.87665454545453L 147.3945945945946 202.60770909090908L 149.8918918918919 202.6928L 152.3891891891892 197.55898181818182L 154.8864864864865 186.5141818181818L 157.38378378378377 199.26647272727274L 159.8810810810811 199.5728L 162.3783783783784 193.4802909090909L 164.87567567567567 199.10763636363635L 167.37297297297297 201.54690909090908L 169.87027027027028 201.5696L 172.36756756756756 195.06865454545454L 174.86486486486487 201.70007272727273L 177.36216216216218 197.2866909090909L 179.85945945945946 172.35505454545455L 182.35675675675677 203.20901818181818L 184.85405405405407 199.6749090909091L 187.35135135135135 193.12858181818183L 189.84864864864866 196.8896L 192.34594594594594 199.78836363636364L 194.84324324324325 198.82967272727274L 197.34054054054056 204.1336727272727L 199.83783783783784 202.57934545454546L 202.33513513513515 198.9261090909091L 204.83243243243246 206L 207.32972972972973 204.128L 209.82702702702704 192.1245090909091L 212.32432432432432 206L 214.82162162162163 206L 217.31891891891894 206L 219.81621621621622 206L 222.31351351351353 197.37178181818183L 224.8108108108108 199.57847272727273L 227.30810810810812 188.9024L 229.80540540540542 195.02894545454546L 232.3027027027027 191.20552727272727L 234.8 166.8128L 237.29729729729732 203.8386909090909L 239.7945945945946 198.09221818181817L 242.2918918918919 201.64334545454545L 244.7891891891892 202.2957090909091L 247.2864864864865 203.22036363636363L 249.7837837837838 200.66763636363635L 252.28108108108108 191.51185454545455L 254.7783783783784 189.18603636363636L 257.2756756756757 203.86705454545455L 259.772972972973 197.56465454545454L 262.2702702702703 187.32538181818182L 264.76756756756754 201.2349090909091L 267.2648648648649 200.44639999999998L 269.7621621621622 201.4618181818182L 272.25945945945944 201.09876363636363L 274.7567567567568 201.17818181818183L 277.2540540540541 193.02647272727273L 279.75135135135133 198.8069818181818L 282.24864864864867 203.39054545454545L 284.74594594594595 200.30458181818182L 287.2432432432432 198.35883636363636L 289.74054054054056 193.3101090909091L 292.2378378378378 200.56552727272728L 294.7351351351351 203.03883636363636L 297.23243243243246 197.22996363636364L 299.72972972972974 201.95534545454547L 302.227027027027 196.016L 304.72432432432436 202.30705454545455L 307.22162162162164 199.91316363636363L 309.7189189189189 194.62050909090908L 312.2162162162162 201.29163636363637L 314.71351351351353 202.98778181818182L 317.2108108108108 203.5437090909091L 319.70810810810815 200.60523636363638L 322.2054054054054 195.5621818181818L 324.7027027027027 203.24305454545456L 327.2 200.15709090909093L 329.6972972972973 198.46661818181818L 332.1945945945946 201.70007272727273L 334.6918918918919 200.70734545454545L 337.18918918918916 200.4293818181818L 339.6864864864865 201.76814545454545L 342.1837837837838 204.6442181818182L 344.6810810810811 206L 347.1783783783784 196.35636363636365L 349.6756756756757 199.21541818181817L 352.17297297297296 156.87418181818182L 354.6702702702703 165.1506909090909L 357.1675675675676 204.1733818181818L 359.6648648648649 202.17658181818183L 362.16216216216213 199.31185454545454L 364.65945945945947 198.7842909090909L 367.15675675675675 202.6757818181818L 369.6540540540541 202.8573090909091L 372.15135135135137 196.1861818181818L 374.64864864864865 199.64654545454545L 377.1459459459459 198.2056727272727L 379.64324324324326 201.2178909090909L 382.14054054054054 201.79083636363637L 384.6378378378379 201.90429090909092L 387.1351351351351 200.1968L 389.63243243243244 195.17076363636363L 392.1297297297297 206L 394.62702702702705 206L 397.12432432432433 206L 399.6216216216216 191.4834909090909L 402.1189189189189 197.79723636363636L 404.61621621621623 198.85236363636363L 407.1135135135135 199.76L 409.61081081081085 200.03796363636363L 412.1081081081081 200.76407272727272L 414.6054054054054 201.80785454545455L 417.1027027027027 191.63098181818182L 419.6 194.41061818181817L 422.0972972972973 199.88479999999998L 424.59459459459464 152.63098181818182L 427.09189189189186 197.04843636363637L 429.5891891891892 194.4730181818182L 432.0864864864865 155.90414545454547L 434.5837837837838 91.60945454545454L 437.0810810810811 104.5376L 439.5783783783784 151.17876363636364L 442.07567567567565 185.1981090909091L 444.572972972973 142.76610909090908L 447.07027027027027 125.0672L 449.5675675675676 123.74545454545455L 452.0648648648649 157.99738181818182L 454.56216216216217 53.56814545454546L 457.05945945945945 50.78850909090909L 459.5567567567568 100.02210909090908L 462.05405405405406 156.2445090909091L 464.5513513513514 180.31956363636363L 467.0486486486486 192.43650909090908L 469.54594594594596 193.63912727272728L 472.04324324324324 193.3328L 474.5405405405406 192.11316363636365L 477.03783783783786 197.93338181818183L 479.53513513513514 191.5629090909091L 482.0324324324324 198.7672727272727L 484.52972972972975 199.3005090909091L 487.02702702702703 201.64901818181818L 489.52432432432437 200.58821818181818L 492.02162162162165 202.43752727272727L 494.5189189189189 200.73003636363637L 497.0162162162162 189.7703272727273L 499.51351351351354 203.17498181818183L 502.0108108108108 200.48610909090908L 504.50810810810816 185.1810909090909L 507.0054054054054 187.88698181818182L 509.5027027027027 191.01832727272728L 512 192.31738181818181L 514.4972972972973 177.09745454545455L 516.9945945945946 167.91330909090908L 519.4918918918919 179.30981818181817L 521.9891891891891 186.49716363636364L 524.4864864864865 150.34487272727273L 526.9837837837838 184.27345454545454L 529.4810810810811 199.5104L 531.9783783783784 161.24785454545454L 534.4756756756756 155.49003636363636L 536.9729729729729 176.96130909090908L 539.4702702702702 190.30923636363636L 541.9675675675676 193.50865454545453L 544.4648648648649 201.72843636363638L 546.962162162162 185.22647272727272L 549.4594594594595 192.03374545454545L 551.9567567567567 192.66909090909093L 554.454054054054 180.18341818181818L 556.9513513513514 194.5013818181818L 559.4486486486487 194.6829090909091L 561.9459459459459 201.85323636363637L 564.4432432432433 196.2032L 566.9405405405405 204.49105454545455L 569.4378378378378 191.55723636363638L 571.9351351351352 180.36494545454545L 574.4324324324324 193.02647272727273L 576.9297297297297 186.20785454545455L 579.4270270270271 191.72741818181817L 581.9243243243243 191.4834909090909L 584.4216216216216 196.63432727272726L 586.9189189189188 200.7810909090909L 589.4162162162163 176.26923636363637L 591.9135135135135 165.78036363636363L 594.4108108108107 181.82850909090908L 596.9081081081081 160.6976L 599.4054054054054 163.93105454545454L 601.9027027027028 182.10647272727272L 604.4 130.808L 606.8972972972972 190.49643636363635L 609.3945945945947 202.0914909090909L 611.8918918918919 184.09192727272728L 614.3891891891892 197.50225454545455L 616.8864864864864 187.54094545454547L 619.3837837837838 192.95272727272726L 621.8810810810811 201.88727272727272L 624.3783783783783 184.33585454545454L 626.8756756756757 183.04814545454545L 629.372972972973 182.36741818181818L 631.8702702702702 182.54327272727272L 634.3675675675676 186.38938181818182L 636.8648648648648 174.3858909090909L 639.3621621621622 183.1786181818182L 641.8594594594595 183.5133090909091L 644.3567567567568 184.60247272727273L 646.854054054054 186.968L 649.3513513513514 170.00087272727274L 651.8486486486487 167.8338909090909L 654.3459459459459 203.32247272727273L 656.8432432432433 206L 659.3405405405406 128.43112727272728L 661.8378378378378 183.2637090909091L 664.3351351351351 156.8685090909091L 666.8324324324324 183.15592727272727L 669.3297297297298 183.2013090909091L 671.827027027027 182.25963636363636L 674.3243243243243 170.18807272727273L 676.8216216216216 186.86589090909092L 679.3189189189189 183.77425454545454L 681.8162162162163 186.29861818181817L 684.3135135135135 184.17134545454545L 686.8108108108107 184.9655272727273L 689.3081081081082 178.1696L 691.8054054054054 180.70530909090908L 694.3027027027027 170.80072727272727L 696.8 177.99374545454546L 699.2972972972973 175.99127272727273L 701.7945945945946 173.75621818181818L 704.2918918918919 175.45803636363638L 706.7891891891892 196.91796363636365L 709.2864864864865 150.30516363636363L 711.7837837837837 167.34036363636363L 714.2810810810811 174.52203636363637L 716.7783783783783 132.05599999999998L 719.2756756756758 144.8309818181818L 721.772972972973 173.60872727272726L 724.2702702702702 151.91054545454546L 726.7675675675675 194.03621818181819L 729.2648648648649 160.59549090909093L 731.7621621621622 206L 734.2594594594594 153.43650909090908L 736.7567567567568 181.01163636363637L 739.2540540540541 181.6413090909091L 741.7513513513513 182.49221818181817L 744.2486486486487 183.08785454545455L 746.7459459459459 206L 749.2432432432432 151.86516363636363L 751.7405405405406 172.45716363636365L 754.2378378378378 169.20669090909092L 756.7351351351351 178.22065454545455L 759.2324324324325 175.54312727272728L 761.7297297297298 177.61367272727273L 764.227027027027 181.0173090909091L 766.7243243243242 176.80814545454547L 769.2216216216217 167.8962909090909L 771.7189189189189 167.1248L 774.2162162162163 176.62094545454545L 776.7135135135135 158.63272727272727L 779.2108108108108 151.3602909090909L 781.7081081081081 173.35345454545455L 784.2054054054054 206L 786.7027027027027 206L 789.2 206L 791.6972972972973 206L 794.1945945945946 206L 796.6918918918918 206L 799.1891891891893 206L 801.6864864864865 206L 804.1837837837837 206L 806.6810810810811 206L 809.1783783783784 206L 811.6756756756757 206L 814.172972972973 206L 816.6702702702702 206L 819.1675675675676 206L 821.6648648648649 206L 824.1621621621622 206L 826.6594594594594 206L 829.1567567567567 206L 831.6540540540541 206L 834.1513513513513 206L 836.6486486486486 206L 839.145945945946 206L 841.6432432432432 206L 844.1405405405405 206L 846.6378378378378 206L 849.1351351351352 206L 851.6324324324324 206L 854.1297297297298 206L 856.627027027027 206L 859.1243243243243 206L 861.6216216216217 206L 864.1189189189189 206L 866.6162162162162 206L 869.1135135135136 206L 871.6108108108108 206L 874.1081081081081 206L 876.6054054054053 206L 879.1027027027028 206L 881.6 206L 884.0972972972972 206L 886.5945945945946 206L 889.0918918918919 206L 891.5891891891893 206L 894.0864864864865 206L 896.5837837837837 206L 899.0810810810812 206L 901.5783783783784 206L 904.0756756756757 206L 906.5729729729729 206L 909.0702702702703 206L 911.5675675675676 206L 914.0648648648648 206L 916.5621621621622 206L 919.0594594594595 206L 921.5567567567567 206L 924.0540540540541 206L 926.5513513513513 206L 929.0486486486487 206L 931.545945945946 206L 934.0432432432433 206L 936.5405405405405 206L 939.0378378378379 206L 941.5351351351352 206L 944.0324324324324 206L 946.5297297297298 206L 949.0270270270271 206L 951.5243243243243 206L 954.0216216216216 206L 956.5189189189189 206L 959.0162162162163 206L 961.5135135135135 206L 964.0108108108108 206L 966.5081081081081 206L 969.0054054054054 206L 971.5027027027028 206L 974 206" stroke-width="2.0" fill="none" />
    
        
        
        <text x="45.0" font-family="-apple-system, system-ui, BlinkMacSystemFont, Roboto" y="50.0" dominant-baseline="middle" text-anchor="end" font-size="12" fill="#24292f">27500.0</text>
        
            
            <path stroke="#74838f" stroke-dasharray="10 6" stroke-width="0.5"  d="M 50.0 50.0 L 974.0 50.0" />
        
    
        
        
        <text x="45.0" font-family="-apple-system, system-ui, BlinkMacSystemFont, Roboto" y="81.2" dominant-baseline="middle" text-anchor="end" font-size="12" fill="#24292f">22000.0</text>
        
            
            
            <path stroke="#74838f" stroke-dasharray="10 6" stroke-width="0.5"  d="M 50.0 81.2 L 974.0 81.2" />
        
    
        
        
        <text x="45.0" font-family="-apple-system, system-ui, BlinkMacSystemFont, Roboto" y="112.4" dominant-baseline="middle" text-anchor="end" font-size="12" fill="#24292f">16500.0</text>
        
            
            
            <path stroke="#74838f" stroke-dasharray="10 6" stroke-width="0.5"  d="M 50.0 112.4 L 974.0 112.4" />
        
    
        
        
        <text x="45.0" font-family="-apple-system, system-ui, BlinkMacSystemFont, Roboto" y="143.6" dominant-baseline="middle" text-anchor="end" font-size="12" fill="#24292f">11000.0</text>
        
            
            
            <path stroke="#74838f" stroke-dasharray="10 6" stroke-width="0.5"  d="M 50.0 143.6 L 974.0 143.6" />
        
    
        
        
        <text x="45.0" font-family="-apple-system, system-ui, BlinkMacSystemFont, Roboto" y="174.8" dominant-baseline="middle" text-anchor="end" font-size="12" fill="#24292f">5500.0</text>
        
            
            
            <path stroke="#74838f" stroke-dasharray="10 6" stroke-width="0.5"  d="M 50.0 174.8 L 974.0 174.8" />
        
    
        
        
        <text x="45.0" font-family="-apple-system, system-ui, BlinkMacSystemFont, Roboto" y="206.0" dominant-baseline="middle" text-anchor="end" font-size="12" fill="#24292f">0.0</text>
        
    
    
        
        <path stroke="#74838f"  stroke-width="2.0"  d="M 89.95675675675676 206.0 L 89.95675675675676 214.0" />
        <text x="89.95675675675676" font-family="-apple-system, system-ui, BlinkMacSystemFont, Roboto" y="216.0" dominant-baseline="hanging" text-anchor="middle" font-size="12" fill="#24292f">Mar 2022</text>
    
        
        <path stroke="#74838f"  stroke-width="2.0"  d="M 167.37297297297297 206.0 L 167.37297297297297 214.0" />
        <text x="167.37297297297297" font-family="-apple-system, system-ui, BlinkMacSystemFont, Roboto" y="216.0" dominant-baseline="hanging" text-anchor="middle" font-size="12" fill="#24292f">Apr 2022</text>
    
        
        <path stroke="#74838f"  stroke-width="2.0"  d="M 242.2918918918919 206.0 L 242.2918918918919 214.0" />
        <text x="242.2918918918919" font-family="-apple-system, system-ui, BlinkMacSystemFont, Roboto" y="216.0" dominant-baseline="hanging" text-anchor="middle" font-size="12" fill="#24292f">May 2022</text>
    
        
        <path stroke="#74838f"  stroke-width="2.0"  d="M 319.70810810810815 206.0 L 319.70810810810815 214.0" />
        <text x="319.70810810810815" font-family="-apple-system, system-ui, BlinkMacSystemFont, Roboto" y="216.0" dominant-baseline="hanging" text-anchor="middle" font-size="12" fill="#24292f">Jun 2022</text>
    
        
        <path stroke="#74838f"  stroke-width="2.0"  d="M 394.62702702702705 206.0 L 394.62702702702705 214.0" />
        <text x="394.62702702702705" font-family="-apple-system, system-ui, BlinkMacSystemFont, Roboto" y="216.0" dominant-baseline="hanging" text-anchor="middle" font-size="12" fill="#24292f">Jul 2022</text>
    
        
        <path stroke="#74838f"  stroke-width="2.0"  d="M 472.04324324324324 206.0 L 472.04324324324324 214.0" />
        <text x="472.04324324324324" font-family="-apple-system, system-ui, BlinkMacSystemFont, Roboto" y="216.0" dominant-baseline="hanging" text-anchor="middle" font-size="12" fill="#24292f">Aug 2022</text>
    
        
        <path stroke="#74838f"  stroke-width="2.0"  d="M 549.4594594594595 206.0 L 549.4594594594595 214.0" />
        <text x="549.4594594594595" font-family="-apple-system, system-ui, BlinkMacSystemFont, Roboto" y="216.0" dominant-baseline="hanging" text-anchor="middle" font-size="12" fill="#24292f">Sep 2022</text>
    
        
        <path stroke="#74838f"  stroke-width="2.0"  d="M 624.3783783783783 206.0 L 624.3783783783783 214.0" />
        <text x="624.3783783783783" font-family="-apple-system, system-ui, BlinkMacSystemFont, Roboto" y="216.0" dominant-baseline="hanging" text-anchor="middle" font-size="12" fill="#24292f">Oct 2022</text>
    
        
        <path stroke="#74838f"  stroke-width="2.0"  d="M 701.7945945945946 206.0 L 701.7945945945946 214.0" />
        <text x="701.7945945945946" font-family="-apple-system, system-ui, BlinkMacSystemFont, Roboto" y="216.0" dominant-baseline="hanging" text-anchor="middle" font-size="12" fill="#24292f">Nov 2022</text>
    
        
        <path stroke="#74838f"  stroke-width="2.0"  d="M 776.7135135135135 206.0 L 776.7135135135135 214.0" />
        <text x="776.7135135135135" font-family="-apple-system, system-ui, BlinkMacSystemFont, Roboto" y="216.0" dominant-baseline="hanging" text-anchor="middle" font-size="12" fill="#24292f">Dec 2022</text>
    
        
        <path stroke="#74838f"  stroke-width="2.0"  d="M 854.1297297297298 206.0 L 854.1297297297298 214.0" />
        <text x="854.1297297297298" font-family="-apple-system, system-ui, BlinkMacSystemFont, Roboto" y="216.0" dominant-baseline="hanging" text-anchor="middle" font-size="12" fill="#24292f">Jan 2023</text>
    
        
        <path stroke="#74838f"  stroke-width="2.0"  d="M 931.545945945946 206.0 L 931.545945945946 214.0" />
        <text x="931.545945945946" font-family="-apple-system, system-ui, BlinkMacSystemFont, Roboto" y="216.0" dominant-baseline="hanging" text-anchor="middle" font-size="12" fill="#24292f">Feb 2023</text>
    
    <path stroke="#74838f"   stroke-linejoin="round" stroke-width="2.0" d="M 50.0 216.0 L 50.0 206.0 L 974.0 206.0 L 974.0 216.0"  fill="none" />
    <text x="512.0" y="25.0" font-family="-apple-system, system-ui, BlinkMacSystemFont, Roboto" dominant-baseline="middle" text-anchor="middle" font-size="18" fill="#24292f">Total daily screen name changes</text>
</svg>
