<?xml version="1.0" standalone="no"?>
<svg width="1024.0" height="256.0"  viewBox="0 0 1024.0 256.0" preserveAspectRatio="xMidYMid meet" xmlns="http://www.w3.org/2000/svg">
    <path stroke="#3498db" stroke-linejoin="round" d="M 50.0 203.3394909090909 L 50 203.3394909090909L 52.0218818380744 202.32974545454545L 54.0437636761488 196.86690909090908L 56.06564551422319 195.94792727272727L 58.08752735229759 202.14254545454546L 60.10940919037199 197.35476363636363L 62.13129102844639 191.76145454545454L 64.15317286652079 179.96218181818182L 66.17505470459518 204.09396363636364L 68.19693654266959 194.17236363636363L 70.21881838074398 192.61803636363635L 72.24070021881838 195.1253818181818L 74.26258205689278 193.92843636363637L 76.28446389496717 182.2482909090909L 78.30634573304158 200.86618181818181L 80.32822757111597 201.45614545454546L 82.35010940919037 178.89003636363637L 84.37199124726477 197.33774545454546L 86.39387308533918 198.50065454545455L 88.41575492341357 200.41803636363636L 90.43763676148797 201.18385454545455L 92.45951859956236 202.26734545454545L 94.48140043763676 195.09134545454546L 96.50328227571117 198.08087272727272L 98.52516411378556 183.38850909090908L 100.54704595185996 197.47389090909093L 102.56892778993435 202.01774545454546L 104.59080962800876 194.66021818181818L 106.61269146608315 200.75272727272727L 108.63457330415756 200.00392727272728L 110.65645514223195 201.97236363636364L 112.67833698030634 204.2754909090909L 114.70021881838075 201.74545454545455L 116.72210065645515 201.01367272727273L 118.74398249452955 174.7829818181818L 120.76586433260394 195.76072727272728L 122.78774617067835 204.0032L 124.80962800875274 203.7309090909091L 126.83150984682713 197.87665454545453L 128.85339168490154 202.60770909090908L 130.87527352297593 202.6928L 132.89715536105035 197.55898181818182L 134.91903719912472 186.5141818181818L 136.94091903719914 199.26647272727274L 138.96280087527353 199.5728L 140.98468271334792 193.4802909090909L 143.00656455142234 199.10763636363635L 145.0284463894967 201.54690909090908L 147.05032822757113 201.5696L 149.07221006564552 195.06865454545454L 151.0940919037199 201.70007272727273L 153.1159737417943 197.2866909090909L 155.1378555798687 172.35505454545455L 157.15973741794312 203.20901818181818L 159.1816192560175 199.6749090909091L 161.2035010940919 193.12858181818183L 163.2253829321663 196.8896L 165.2472647702407 199.78836363636364L 167.2691466083151 198.82967272727274L 169.29102844638948 204.1336727272727L 171.3129102844639 202.57934545454546L 173.33479212253832 198.9261090909091L 175.35667396061268 206L 177.3785557986871 204.128L 179.4004376367615 192.1245090909091L 181.4223194748359 206L 183.4442013129103 206L 185.4660831509847 206L 187.4879649890591 206L 189.5098468271335 197.37178181818183L 191.53172866520788 199.57847272727273L 193.5536105032823 188.9024L 195.5754923413567 195.02894545454546L 197.59737417943109 191.20552727272727L 199.61925601750548 166.8128L 201.64113785557987 203.8386909090909L 203.66301969365426 198.09221818181817L 205.68490153172868 201.64334545454545L 207.70678336980308 202.2957090909091L 209.72866520787747 203.22036363636363L 211.75054704595186 200.66763636363635L 213.77242888402625 191.51185454545455L 215.79431072210068 189.18603636363636L 217.81619256017507 203.86705454545455L 219.83807439824946 197.56465454545454L 221.85995623632385 187.32538181818182L 223.88183807439825 201.2349090909091L 225.90371991247267 200.44639999999998L 227.92560175054706 201.4618181818182L 229.94748358862145 201.09876363636363L 231.96936542669584 201.17818181818183L 233.99124726477024 193.02647272727273L 236.01312910284466 198.8069818181818L 238.03501094091905 203.39054545454545L 240.05689277899344 200.30458181818182L 242.07877461706784 198.35883636363636L 244.10065645514223 193.3101090909091L 246.12253829321662 200.56552727272728L 248.14442013129104 203.03883636363636L 250.16630196936543 197.22996363636364L 252.18818380743983 201.95534545454547L 254.21006564551422 196.016L 256.2319474835886 202.30705454545455L 258.25382932166303 199.91316363636363L 260.2757111597374 194.62050909090908L 262.2975929978118 201.29163636363637L 264.31947483588624 202.98778181818182L 266.3413566739606 203.5437090909091L 268.363238512035 200.60523636363638L 270.38512035010945 195.5621818181818L 272.4070021881838 203.24305454545456L 274.4288840262582 200.15709090909093L 276.4507658643326 198.46661818181818L 278.472647702407 201.70007272727273L 280.4945295404814 200.70734545454545L 282.51641137855574 200.4293818181818L 284.5382932166302 201.76814545454545L 286.5601750547046 204.6442181818182L 288.58205689277895 206L 290.60393873085343 196.35636363636365L 292.6258205689278 199.21541818181817L 294.64770240700216 156.87418181818182L 296.66958424507663 165.1506909090909L 298.691466083151 204.1733818181818L 300.71334792122536 202.17658181818183L 302.7352297592997 199.31185454545454L 304.7571115973742 198.7842909090909L 306.7789934354486 202.6757818181818L 308.800875273523 202.8573090909091L 310.8227571115974 196.1861818181818L 312.8446389496718 199.64654545454545L 314.8665207877462 198.2056727272727L 316.8884026258206 201.2178909090909L 318.910284463895 201.79083636363637L 320.9321663019694 201.90429090909092L 322.95404814004377 200.1968L 324.9759299781182 195.17076363636363L 326.9978118161926 206L 329.019693654267 206L 331.0415754923414 206L 333.06345733041576 191.4834909090909L 335.0853391684902 197.79723636363636L 337.1072210065646 198.85236363636363L 339.12910284463896 199.76L 341.1509846827134 200.03796363636363L 343.17286652078775 200.76407272727272L 345.19474835886217 201.80785454545455L 347.21663019693653 191.63098181818182L 349.23851203501096 194.41061818181817L 351.2603938730854 199.88479999999998L 353.28227571115974 152.63098181818182L 355.30415754923416 197.04843636363637L 357.3260393873085 194.4730181818182L 359.34792122538295 155.90414545454547L 361.36980306345737 91.60945454545454L 363.39168490153173 104.5376L 365.41356673960615 151.17876363636364L 367.4354485776805 185.1981090909091L 369.45733041575494 142.76610909090908L 371.47921225382936 125.0672L 373.5010940919037 123.74545454545455L 375.52297592997814 157.99738181818182L 377.5448577680525 53.56814545454546L 379.56673960612693 50.78850909090909L 381.58862144420135 100.02210909090908L 383.6105032822757 156.2445090909091L 385.63238512035014 180.31956363636363L 387.6542669584245 192.43650909090908L 389.6761487964989 193.63912727272728L 391.69803063457334 193.3328L 393.7199124726477 192.11316363636365L 395.7417943107221 197.93338181818183L 397.7636761487965 191.5629090909091L 399.7855579868709 198.7672727272727L 401.80743982494533 199.3005090909091L 403.8293216630197 201.64901818181818L 405.8512035010941 200.58821818181818L 407.8730853391685 202.43752727272727L 409.8949671772429 200.73003636363637L 411.9168490153173 189.7703272727273L 413.9387308533917 203.17498181818183L 415.9606126914661 200.48610909090908L 417.9824945295405 185.1810909090909L 420.0043763676149 187.88698181818182L 422.0262582056893 191.01832727272728L 424.0481400437637 192.31738181818181L 426.0700218818381 177.09745454545455L 428.09190371991247 167.91330909090908L 430.1137855579869 179.30981818181817L 432.13566739606125 186.49716363636364L 434.1575492341357 150.34487272727273L 436.1794310722101 184.27345454545454L 438.20131291028446 199.5104L 440.2231947483589 161.24785454545454L 442.24507658643324 155.49003636363636L 444.26695842450766 176.96130909090908L 446.2888402625821 190.30923636363636L 448.31072210065645 193.50865454545453L 450.33260393873087 201.72843636363638L 452.35448577680523 185.22647272727272L 454.37636761487965 192.03374545454545L 456.3982494529541 192.66909090909093L 458.42013129102844 180.18341818181818L 460.44201312910286 194.5013818181818L 462.4638949671772 194.6829090909091L 464.48577680525165 201.85323636363637L 466.50765864332607 196.2032L 468.52954048140043 204.49105454545455L 470.55142231947485 191.55723636363638L 472.5733041575492 180.36494545454545L 474.59518599562364 193.02647272727273L 476.61706783369806 186.20785454545455L 478.6389496717724 191.72741818181817L 480.66083150984684 191.4834909090909L 482.6827133479212 196.63432727272726L 484.70459518599563 200.7810909090909L 486.72647702407005 176.26923636363637L 488.7483588621444 165.78036363636363L 490.77024070021884 181.82850909090908L 492.7921225382932 160.6976L 494.8140043763676 163.93105454545454L 496.83588621444204 182.10647272727272L 498.8577680525164 130.808L 500.8796498905908 190.49643636363635L 502.9015317286652 202.0914909090909L 504.9234135667396 184.09192727272728L 506.94529540481403 197.50225454545455L 508.9671772428884 187.54094545454547L 510.9890590809628 192.95272727272726L 513.0109409190372 201.88727272727272L 515.0328227571115 184.33585454545454L 517.054704595186 183.04814545454545L 519.0765864332604 182.36741818181818L 521.0984682713347 182.54327272727272L 523.1203501094092 186.38938181818182L 525.1422319474837 174.3858909090909L 527.1641137855579 183.1786181818182L 529.1859956236324 183.5133090909091L 531.2078774617069 184.60247272727273L 533.2297592997811 186.968L 535.2516411378556 170.00087272727274L 537.2735229759301 167.8338909090909L 539.2954048140043 203.32247272727273L 541.3172866520788 206L 543.3391684901533 128.43112727272728L 545.3610503282275 183.2637090909091L 547.382932166302 156.8685090909091L 549.4048140043765 183.15592727272727L 551.4266958424507 183.2013090909091L 553.4485776805252 182.25963636363636L 555.4704595185995 170.18807272727273L 557.4923413566739 186.86589090909092L 559.5142231947484 183.77425454545454L 561.5361050328227 186.29861818181817L 563.5579868708973 184.17134545454545L 565.5798687089716 184.9655272727273L 567.601750547046 178.1696L 569.6236323851203 180.70530909090908L 571.6455142231948 170.80072727272727L 573.6673960612692 177.99374545454546L 575.6892778993436 175.99127272727273L 577.711159737418 173.75621818181818L 579.7330415754924 175.45803636363638L 581.7549234135668 196.91796363636365L 583.7768052516412 150.30516363636363L 585.7986870897156 167.34036363636363L 587.82056892779 174.52203636363637L 589.8424507658643 132.05599999999998L 591.8643326039388 144.8309818181818L 593.8862144420132 173.60872727272726L 595.9080962800875 151.91054545454546L 597.929978118162 194.03621818181819L 599.9518599562364 160.59549090909093L 601.9737417943107 206L 603.9956236323852 153.43650909090908L 606.0175054704596 181.01163636363637L 608.039387308534 181.6413090909091L 610.0612691466083 182.49221818181817L 612.0831509846828 183.08785454545455L 614.1050328227572 206L 616.1269146608315 151.86516363636363L 618.148796498906 172.45716363636365L 620.1706783369804 169.20669090909092L 622.1925601750547 178.22065454545455L 624.2144420131292 175.54312727272728L 626.2363238512036 177.61367272727273L 628.2582056892779 181.0173090909091L 630.2800875273523 176.80814545454547L 632.3019693654268 167.8962909090909L 634.3238512035011 167.1248L 636.3457330415755 176.62094545454545L 638.36761487965 158.63272727272727L 640.3894967177243 151.3602909090909L 642.4113785557987 173.35345454545455L 644.4332603938731 206L 646.4551422319475 206L 648.4770240700219 206L 650.4989059080963 206L 652.5207877461708 206L 654.5426695842451 206L 656.5645514223195 206L 658.586433260394 206L 660.6083150984683 206L 662.6301969365427 206L 664.652078774617 206L 666.6739606126915 206L 668.6958424507659 206L 670.7177242888403 206L 672.7396061269147 206L 674.7614879649891 206L 676.7833698030635 206L 678.8052516411379 206L 680.8271334792123 206L 682.8490153172867 206L 684.870897155361 206L 686.8927789934355 206L 688.9146608315099 206L 690.9365426695842 206L 692.9584245076587 206L 694.9803063457331 206L 697.0021881838074 206L 699.0240700218819 206L 701.0459518599563 206L 703.0678336980307 206L 705.089715536105 206L 707.1115973741795 206L 709.1334792122539 206L 711.1553610503282 206L 713.1772428884027 206L 715.1991247264771 206L 717.2210065645514 206L 719.2428884026259 206L 721.2647702407003 206L 723.2866520787746 206L 725.308533916849 206L 727.3304157549235 206L 729.3522975929978 206L 731.3741794310722 206L 733.3960612691467 206L 735.417943107221 206L 737.4398249452954 206L 739.4617067833698 206L 741.4835886214443 206L 743.5054704595186 206L 745.527352297593 206L 747.5492341356675 206L 749.5711159737418 206L 751.5929978118162 206L 753.6148796498907 206L 755.636761487965 206L 757.6586433260394 206L 759.6805251641138 206L 761.7024070021882 206L 763.7242888402626 206L 765.746170678337 206L 767.7680525164114 206L 769.7899343544858 206L 771.8118161925602 206L 773.8336980306347 206L 775.855579868709 206L 777.8774617067834 206L 779.8993435448577 206L 781.9212253829322 206L 783.9431072210066 206L 785.964989059081 206L 787.9868708971554 206L 790.0087527352298 206L 792.0306345733042 206L 794.0525164113786 206L 796.074398249453 206L 798.0962800875274 206L 800.1181619256017 206L 802.1400437636762 206L 804.1619256017506 206L 806.1838074398249 206L 808.2056892778994 206L 810.2275711159738 206L 812.2494529540481 206L 814.2713347921225 206L 816.293216630197 206L 818.3150984682713 206L 820.3369803063457 206L 822.3588621444202 206L 824.3807439824946 206L 826.4026258205689 206L 828.4245076586434 206L 830.4463894967178 206L 832.4682713347921 206L 834.4901531728665 206L 836.512035010941 206L 838.5339168490153 206L 840.5557986870897 206L 842.5776805251642 206L 844.5995623632385 206L 846.6214442013129 206L 848.6433260393874 206L 850.6652078774617 206L 852.6870897155361 206L 854.7089715536105 206L 856.730853391685 206L 858.7527352297593 206L 860.7746170678337 206L 862.7964989059082 206L 864.8183807439825 206L 866.8402625820569 206L 868.8621444201314 206L 870.8840262582057 206L 872.9059080962801 206L 874.9277899343545 206L 876.9496717724289 206L 878.9715536105033 206L 880.9934354485777 206L 883.0153172866521 206L 885.0371991247265 206L 887.0590809628009 206L 889.0809628008753 206L 891.1028446389497 206L 893.1247264770241 206L 895.1466083150984 206L 897.1684901531729 206L 899.1903719912473 206L 901.2122538293216 206L 903.2341356673961 206L 905.2560175054705 206L 907.2778993435448 206L 909.2997811816192 206L 911.3216630196937 206L 913.343544857768 206L 915.3654266958424 206L 917.3873085339169 206L 919.4091903719913 206L 921.4310722100656 206L 923.4529540481401 206L 925.4748358862145 206L 927.4967177242888 206L 929.5185995623632 206L 931.5404814004377 206L 933.562363238512 206L 935.5842450765864 206L 937.6061269146609 206L 939.6280087527352 206L 941.6498905908096 206L 943.6717724288841 206L 945.6936542669584 206L 947.7155361050328 206L 949.7374179431072 206L 951.7592997811817 206L 953.781181619256 206L 955.8030634573304 206L 957.8249452954049 206L 959.8468271334792 206L 961.8687089715536 206L 963.8905908096281 206L 965.9124726477024 206L 967.9343544857768 206L 969.9562363238512 206L 971.9781181619256 206L 974 206" stroke-width="2.0" fill="none" />
    
        
        
        <text x="45.0" font-family="-apple-system, system-ui, BlinkMacSystemFont, Roboto" y="50.0" dominant-baseline="middle" text-anchor="end" font-size="12" fill="#24292f">27500.0</text>
        
            
            <path stroke="#74838f" stroke-dasharray="10 6" stroke-width="0.5"  d="M 50.0 50.0 L 974.0 50.0" />
        
    
        
        
        <text x="45.0" font-family="-apple-system, system-ui, BlinkMacSystemFont, Roboto" y="81.2" dominant-baseline="middle" text-anchor="end" font-size="12" fill="#24292f">22000.0</text>
        
            
            
            <path stroke="#74838f" stroke-dasharray="10 6" stroke-width="0.5"  d="M 50.0 81.2 L 974.0 81.2" />
        
    
        
        
        <text x="45.0" font-family="-apple-system, system-ui, BlinkMacSystemFont, Roboto" y="112.4" dominant-baseline="middle" text-anchor="end" font-size="12" fill="#24292f">16500.0</text>
        
            
            
            <path stroke="#74838f" stroke-dasharray="10 6" stroke-width="0.5"  d="M 50.0 112.4 L 974.0 112.4" />
        
    
        
        
        <text x="45.0" font-family="-apple-system, system-ui, BlinkMacSystemFont, Roboto" y="143.6" dominant-baseline="middle" text-anchor="end" font-size="12" fill="#24292f">11000.0</text>
        
            
            
            <path stroke="#74838f" stroke-dasharray="10 6" stroke-width="0.5"  d="M 50.0 143.6 L 974.0 143.6" />
        
    
        
        
        <text x="45.0" font-family="-apple-system, system-ui, BlinkMacSystemFont, Roboto" y="174.8" dominant-baseline="middle" text-anchor="end" font-size="12" fill="#24292f">5500.0</text>
        
            
            
            <path stroke="#74838f" stroke-dasharray="10 6" stroke-width="0.5"  d="M 50.0 174.8 L 974.0 174.8" />
        
    
        
        
        <text x="45.0" font-family="-apple-system, system-ui, BlinkMacSystemFont, Roboto" y="206.0" dominant-baseline="middle" text-anchor="end" font-size="12" fill="#24292f">0.0</text>
        
    
    
        
        <path stroke="#74838f"  stroke-width="2.0"  d="M 82.35010940919037 206.0 L 82.35010940919037 214.0" />
        <text x="82.35010940919037" font-family="-apple-system, system-ui, BlinkMacSystemFont, Roboto" y="216.0" dominant-baseline="hanging" text-anchor="middle" font-size="12" fill="#24292f">Mar 2022</text>
    
        
        <path stroke="#74838f"  stroke-width="2.0"  d="M 145.0284463894967 206.0 L 145.0284463894967 214.0" />
        <text x="145.0284463894967" font-family="-apple-system, system-ui, BlinkMacSystemFont, Roboto" y="216.0" dominant-baseline="hanging" text-anchor="middle" font-size="12" fill="#24292f">Apr 2022</text>
    
        
        <path stroke="#74838f"  stroke-width="2.0"  d="M 205.68490153172868 206.0 L 205.68490153172868 214.0" />
        <text x="205.68490153172868" font-family="-apple-system, system-ui, BlinkMacSystemFont, Roboto" y="216.0" dominant-baseline="hanging" text-anchor="middle" font-size="12" fill="#24292f">May 2022</text>
    
        
        <path stroke="#74838f"  stroke-width="2.0"  d="M 268.363238512035 206.0 L 268.363238512035 214.0" />
        <text x="268.363238512035" font-family="-apple-system, system-ui, BlinkMacSystemFont, Roboto" y="216.0" dominant-baseline="hanging" text-anchor="middle" font-size="12" fill="#24292f">Jun 2022</text>
    
        
        <path stroke="#74838f"  stroke-width="2.0"  d="M 329.019693654267 206.0 L 329.019693654267 214.0" />
        <text x="329.019693654267" font-family="-apple-system, system-ui, BlinkMacSystemFont, Roboto" y="216.0" dominant-baseline="hanging" text-anchor="middle" font-size="12" fill="#24292f">Jul 2022</text>
    
        
        <path stroke="#74838f"  stroke-width="2.0"  d="M 391.69803063457334 206.0 L 391.69803063457334 214.0" />
        <text x="391.69803063457334" font-family="-apple-system, system-ui, BlinkMacSystemFont, Roboto" y="216.0" dominant-baseline="hanging" text-anchor="middle" font-size="12" fill="#24292f">Aug 2022</text>
    
        
        <path stroke="#74838f"  stroke-width="2.0"  d="M 454.37636761487965 206.0 L 454.37636761487965 214.0" />
        <text x="454.37636761487965" font-family="-apple-system, system-ui, BlinkMacSystemFont, Roboto" y="216.0" dominant-baseline="hanging" text-anchor="middle" font-size="12" fill="#24292f">Sep 2022</text>
    
        
        <path stroke="#74838f"  stroke-width="2.0"  d="M 515.0328227571115 206.0 L 515.0328227571115 214.0" />
        <text x="515.0328227571115" font-family="-apple-system, system-ui, BlinkMacSystemFont, Roboto" y="216.0" dominant-baseline="hanging" text-anchor="middle" font-size="12" fill="#24292f">Oct 2022</text>
    
        
        <path stroke="#74838f"  stroke-width="2.0"  d="M 577.711159737418 206.0 L 577.711159737418 214.0" />
        <text x="577.711159737418" font-family="-apple-system, system-ui, BlinkMacSystemFont, Roboto" y="216.0" dominant-baseline="hanging" text-anchor="middle" font-size="12" fill="#24292f">Nov 2022</text>
    
        
        <path stroke="#74838f"  stroke-width="2.0"  d="M 638.36761487965 206.0 L 638.36761487965 214.0" />
        <text x="638.36761487965" font-family="-apple-system, system-ui, BlinkMacSystemFont, Roboto" y="216.0" dominant-baseline="hanging" text-anchor="middle" font-size="12" fill="#24292f">Dec 2022</text>
    
        
        <path stroke="#74838f"  stroke-width="2.0"  d="M 701.0459518599563 206.0 L 701.0459518599563 214.0" />
        <text x="701.0459518599563" font-family="-apple-system, system-ui, BlinkMacSystemFont, Roboto" y="216.0" dominant-baseline="hanging" text-anchor="middle" font-size="12" fill="#24292f">Jan 2023</text>
    
        
        <path stroke="#74838f"  stroke-width="2.0"  d="M 763.7242888402626 206.0 L 763.7242888402626 214.0" />
        <text x="763.7242888402626" font-family="-apple-system, system-ui, BlinkMacSystemFont, Roboto" y="216.0" dominant-baseline="hanging" text-anchor="middle" font-size="12" fill="#24292f">Feb 2023</text>
    
        
        <path stroke="#74838f"  stroke-width="2.0"  d="M 820.3369803063457 206.0 L 820.3369803063457 214.0" />
        <text x="820.3369803063457" font-family="-apple-system, system-ui, BlinkMacSystemFont, Roboto" y="216.0" dominant-baseline="hanging" text-anchor="middle" font-size="12" fill="#24292f">Mar 2023</text>
    
        
        <path stroke="#74838f"  stroke-width="2.0"  d="M 883.0153172866521 206.0 L 883.0153172866521 214.0" />
        <text x="883.0153172866521" font-family="-apple-system, system-ui, BlinkMacSystemFont, Roboto" y="216.0" dominant-baseline="hanging" text-anchor="middle" font-size="12" fill="#24292f">Apr 2023</text>
    
        
        <path stroke="#74838f"  stroke-width="2.0"  d="M 943.6717724288841 206.0 L 943.6717724288841 214.0" />
        <text x="943.6717724288841" font-family="-apple-system, system-ui, BlinkMacSystemFont, Roboto" y="216.0" dominant-baseline="hanging" text-anchor="middle" font-size="12" fill="#24292f">May 2023</text>
    
    <path stroke="#74838f"   stroke-linejoin="round" stroke-width="2.0" d="M 50.0 216.0 L 50.0 206.0 L 974.0 206.0 L 974.0 216.0"  fill="none" />
    <text x="512.0" y="25.0" font-family="-apple-system, system-ui, BlinkMacSystemFont, Roboto" dominant-baseline="middle" text-anchor="middle" font-size="18" fill="#24292f">Total daily screen name changes</text>
</svg>
