<?xml version="1.0" standalone="no"?>
<svg width="1024.0" height="256.0"  viewBox="0 0 1024.0 256.0" preserveAspectRatio="xMidYMid meet" xmlns="http://www.w3.org/2000/svg">
    <path stroke="#3498db" stroke-linejoin="round" d="M 50.0 203.3394909090909 L 50 203.3394909090909L 52.21582733812949 202.32974545454545L 54.431654676258994 196.86690909090908L 56.64748201438849 195.94792727272727L 58.86330935251799 202.14254545454546L 61.07913669064748 197.35476363636363L 63.29496402877698 191.76145454545454L 65.51079136690647 179.96218181818182L 67.72661870503597 204.09396363636364L 69.94244604316546 194.17236363636363L 72.15827338129496 192.61803636363635L 74.37410071942446 195.1253818181818L 76.58992805755396 193.92843636363637L 78.80575539568346 182.2482909090909L 81.02158273381295 200.86618181818181L 83.23741007194243 201.45614545454546L 85.45323741007195 178.89003636363637L 87.66906474820144 197.33774545454546L 89.88489208633094 198.50065454545455L 92.10071942446044 200.41803636363636L 94.31654676258992 201.18385454545455L 96.53237410071942 202.26734545454545L 98.74820143884892 195.09134545454546L 100.96402877697841 198.08087272727272L 103.17985611510792 183.38850909090908L 105.39568345323741 197.47389090909093L 107.61151079136691 202.01774545454546L 109.82733812949641 194.66021818181818L 112.0431654676259 200.75272727272727L 114.2589928057554 200.00392727272728L 116.47482014388488 201.97236363636364L 118.69064748201438 204.2754909090909L 120.90647482014388 201.74545454545455L 123.12230215827337 201.01367272727273L 125.33812949640289 174.7829818181818L 127.55395683453239 195.76072727272728L 129.76978417266187 204.0032L 131.9856115107914 203.7309090909091L 134.20143884892087 197.87665454545453L 136.41726618705036 202.60770909090908L 138.63309352517985 202.6928L 140.84892086330933 197.55898181818182L 143.06474820143885 186.5141818181818L 145.28057553956836 199.26647272727274L 147.49640287769785 199.5728L 149.71223021582733 193.4802909090909L 151.92805755395682 199.10763636363635L 154.1438848920863 201.54690909090908L 156.35971223021585 201.5696L 158.57553956834533 195.06865454545454L 160.79136690647482 201.70007272727273L 163.0071942446043 197.2866909090909L 165.22302158273382 172.35505454545455L 167.43884892086328 203.20901818181818L 169.65467625899282 199.6749090909091L 171.8705035971223 193.12858181818183L 174.0863309352518 196.8896L 176.3021582733813 199.78836363636364L 178.5179856115108 198.82967272727274L 180.7338129496403 204.1336727272727L 182.94964028776977 202.57934545454546L 185.16546762589928 198.9261090909091L 187.38129496402877 206L 189.59712230215828 204.128L 191.81294964028777 192.1245090909091L 194.02877697841726 206L 196.24460431654674 206L 198.46043165467626 206L 200.67625899280577 206L 202.89208633093526 197.37178181818183L 205.10791366906477 199.57847272727273L 207.32374100719423 188.9024L 209.53956834532374 195.02894545454546L 211.75539568345323 191.20552727272727L 213.97122302158274 166.8128L 216.18705035971223 203.8386909090909L 218.40287769784172 198.09221818181817L 220.6187050359712 201.64334545454545L 222.83453237410072 202.2957090909091L 225.0503597122302 203.22036363636363L 227.26618705035972 200.66763636363635L 229.48201438848923 191.51185454545455L 231.6978417266187 189.18603636363636L 233.9136690647482 203.86705454545455L 236.1294964028777 197.56465454545454L 238.3453237410072 187.32538181818182L 240.5611510791367 201.2349090909091L 242.7769784172662 200.44639999999998L 244.99280575539566 201.4618181818182L 247.20863309352518 201.09876363636363L 249.42446043165467 201.17818181818183L 251.64028776978418 193.02647272727273L 253.85611510791367 198.8069818181818L 256.0719424460432 203.39054545454545L 258.2877697841726 200.30458181818182L 260.50359712230215 198.35883636363636L 262.7194244604317 193.3101090909091L 264.9352517985611 200.56552727272728L 267.15107913669067 203.03883636363636L 269.3669064748201 197.22996363636364L 271.58273381294964 201.95534545454547L 273.7985611510791 196.016L 276.0143884892086 202.30705454545455L 278.23021582733816 199.91316363636363L 280.44604316546764 194.62050909090908L 282.66187050359713 201.29163636363637L 284.87769784172656 202.98778181818182L 287.0935251798561 203.5437090909091L 289.30935251798564 200.60523636363638L 291.5251798561151 195.5621818181818L 293.7410071942446 203.24305454545456L 295.9568345323741 200.15709090909093L 298.1726618705036 198.46661818181818L 300.3884892086331 201.70007272727273L 302.6043165467626 200.70734545454545L 304.8201438848921 200.4293818181818L 307.0359712230216 201.76814545454545L 309.2517985611511 204.6442181818182L 311.4676258992806 206L 313.68345323741005 196.35636363636365L 315.89928057553954 199.21541818181817L 318.115107913669 156.87418181818182L 320.33093525179856 165.1506909090909L 322.54676258992805 204.1733818181818L 324.76258992805754 202.17658181818183L 326.9784172661871 199.31185454545454L 329.19424460431657 198.7842909090909L 331.41007194244605 202.6757818181818L 333.62589928057554 202.8573090909091L 335.8417266187051 196.1861818181818L 338.0575539568345 199.64654545454545L 340.273381294964 198.2056727272727L 342.4892086330935 201.2178909090909L 344.705035971223 201.79083636363637L 346.9208633093525 201.90429090909092L 349.136690647482 200.1968L 351.35251798561154 195.17076363636363L 353.568345323741 206L 355.7841726618705 206L 358 206L 360.21582733812954 191.4834909090909L 362.431654676259 197.79723636363636L 364.64748201438846 198.85236363636363L 366.86330935251794 199.76L 369.0791366906475 200.03796363636363L 371.294964028777 200.76407272727272L 373.51079136690646 201.80785454545455L 375.72661870503595 191.63098181818182L 377.9424460431655 194.41061818181817L 380.158273381295 199.88479999999998L 382.37410071942446 152.63098181818182L 384.589928057554 197.04843636363637L 386.80575539568343 194.4730181818182L 389.0215827338129 155.90414545454547L 391.2374100719424 91.60945454545454L 393.45323741007195 104.5376L 395.66906474820144 151.17876363636364L 397.8848920863309 185.1981090909091L 400.1007194244604 142.76610909090908L 402.31654676258995 125.0672L 404.53237410071944 123.74545454545455L 406.7482014388489 157.99738181818182L 408.96402877697847 53.56814545454546L 411.17985611510795 50.78850909090909L 413.3956834532374 100.02210909090908L 415.61151079136687 156.2445090909091L 417.8273381294964 180.31956363636363L 420.0431654676259 192.43650909090908L 422.2589928057554 193.63912727272728L 424.47482014388487 193.3328L 426.6906474820144 192.11316363636365L 428.9064748201439 197.93338181818183L 431.1223021582734 191.5629090909091L 433.33812949640287 198.7672727272727L 435.5539568345324 199.3005090909091L 437.76978417266184 201.64901818181818L 439.98561151079133 200.58821818181818L 442.2014388489209 202.43752727272727L 444.41726618705036 200.73003636363637L 446.63309352517985 189.7703272727273L 448.84892086330933 203.17498181818183L 451.0647482014389 200.48610909090908L 453.28057553956836 185.1810909090909L 455.49640287769785 187.88698181818182L 457.71223021582733 191.01832727272728L 459.9280575539569 192.31738181818181L 462.1438848920863 177.09745454545455L 464.3597122302158 167.91330909090908L 466.5755395683453 179.30981818181817L 468.7913669064748 186.49716363636364L 471.0071942446043 150.34487272727273L 473.2230215827338 184.27345454545454L 475.43884892086334 199.5104L 477.6546762589928 161.24785454545454L 479.8705035971223 155.49003636363636L 482.0863309352518 176.96130909090908L 484.30215827338134 190.30923636363636L 486.5179856115108 193.50865454545453L 488.73381294964025 201.72843636363638L 490.94964028776974 185.22647272727272L 493.1654676258993 192.03374545454545L 495.38129496402877 192.66909090909093L 497.59712230215825 180.18341818181818L 499.8129496402878 194.5013818181818L 502.0287769784173 194.6829090909091L 504.24460431654677 201.85323636363637L 506.46043165467626 196.2032L 508.6762589928058 204.49105454545455L 510.8920863309353 191.55723636363638L 513.1079136690647 180.36494545454545L 515.3237410071943 193.02647272727273L 517.5395683453237 186.20785454545455L 519.7553956834531 191.72741818181817L 521.9712230215828 191.4834909090909L 524.1870503597122 196.63432727272726L 526.4028776978417 200.7810909090909L 528.6187050359713 176.26923636363637L 530.8345323741007 165.78036363636363L 533.0503597122301 181.82850909090908L 535.2661870503597 160.6976L 537.4820143884892 163.93105454545454L 539.6978417266187 182.10647272727272L 541.9136690647482 130.808L 544.1294964028777 190.49643636363635L 546.3453237410072 202.0914909090909L 548.5611510791366 184.09192727272728L 550.7769784172662 197.50225454545455L 552.9928057553957 187.54094545454547L 555.2086330935252 192.95272727272726L 557.4244604316548 201.88727272727272L 559.6402877697842 184.33585454545454L 561.8561151079136 183.04814545454545L 564.0719424460432 182.36741818181818L 566.2877697841726 182.54327272727272L 568.5035971223022 186.38938181818182L 570.7194244604317 174.3858909090909L 572.9352517985612 183.1786181818182L 575.1510791366907 183.5133090909091L 577.3669064748201 184.60247272727273L 579.5827338129496 186.968L 581.7985611510791 170.00087272727274L 584.0143884892086 167.8338909090909L 586.230215827338 203.32247272727273L 588.4460431654677 206L 590.6618705035971 128.43112727272728L 592.8776978417267 183.2637090909091L 595.0935251798561 156.8685090909091L 597.3093525179856 183.15592727272727L 599.5251798561151 183.2013090909091L 601.7410071942445 182.25963636363636L 603.9568345323742 170.18807272727273L 606.1726618705036 186.86589090909092L 608.3884892086331 183.77425454545454L 610.6043165467626 186.29861818181817L 612.8201438848921 184.17134545454545L 615.0359712230215 184.9655272727273L 617.2517985611511 178.1696L 619.4676258992806 180.70530909090908L 621.6834532374102 170.80072727272727L 623.8992805755396 177.99374545454546L 626.115107913669 175.99127272727273L 628.3309352517986 173.75621818181818L 630.546762589928 175.45803636363638L 632.7625899280575 196.91796363636365L 634.978417266187 150.30516363636363L 637.1942446043166 167.34036363636363L 639.410071942446 174.52203636363637L 641.6258992805756 132.05599999999998L 643.841726618705 144.8309818181818L 646.0575539568346 173.60872727272726L 648.273381294964 151.91054545454546L 650.4892086330935 194.03621818181819L 652.7050359712231 160.59549090909093L 654.9208633093525 206L 657.136690647482 153.43650909090908L 659.3525179856115 181.01163636363637L 661.568345323741 181.6413090909091L 663.7841726618705 182.49221818181817L 666 183.08785454545455L 668.2158273381294 206L 670.4316546762591 151.86516363636363L 672.6474820143885 172.45716363636365L 674.863309352518 169.20669090909092L 677.0791366906475 178.22065454545455L 679.2949640287769 175.54312727272728L 681.5107913669065 177.61367272727273L 683.7266187050359 181.0173090909091L 685.9424460431655 176.80814545454547L 688.158273381295 167.8962909090909L 690.3741007194245 167.1248L 692.589928057554 176.62094545454545L 694.8057553956835 158.63272727272727L 697.0215827338129 151.3602909090909L 699.2374100719425 173.35345454545455L 701.4532374100719 206L 703.6690647482014 206L 705.884892086331 206L 708.1007194244604 206L 710.31654676259 206L 712.5323741007194 206L 714.7482014388489 206L 716.9640287769784 206L 719.179856115108 206L 721.3956834532374 206L 723.6115107913669 206L 725.8273381294964 206L 728.0431654676258 206L 730.2589928057554 206L 732.4748201438848 206L 734.6906474820144 206L 736.9064748201439 206L 739.1223021582734 206L 741.3381294964029 206L 743.5539568345324 206L 745.7697841726618 206L 747.9856115107914 206L 750.2014388489208 206L 752.4172661870504 206L 754.6330935251799 206L 756.8489208633093 206L 759.0647482014389 206L 761.2805755395683 206L 763.4964028776978 206L 765.7122302158273 206L 767.9280575539569 206L 770.1438848920864 206L 772.3597122302159 206L 774.5755395683453 206L 776.7913669064748 206L 779.0071942446043 206L 781.2230215827337 206L 783.4388489208633 206L 785.6546762589928 206L 787.8705035971224 206L 790.0863309352518 206L 792.3021582733813 206L 794.5179856115108 206L 796.7338129496403 206L 798.9496402877697 206L 801.1654676258993 206L 803.3812949640288 206L 805.5971223021583 206L 807.8129496402878 206L 810.0287769784172 206L 812.2446043165468 206L 814.4604316546762 206L 816.6762589928057 206L 818.8920863309353 206L 821.1079136690648 206L 823.3237410071943 206L 825.5395683453237 206L 827.7553956834532 206L 829.9712230215827 206L 832.1870503597122 206L 834.4028776978417 206L 836.6187050359713 206L 838.8345323741007 206L 841.0503597122303 206L 843.2661870503597 206L 845.4820143884892 206L 847.6978417266187 206L 849.9136690647482 206L 852.1294964028777 206L 854.3453237410072 206L 856.5611510791367 206L 858.7769784172662 206L 860.9928057553957 206L 863.2086330935251 206L 865.4244604316547 206L 867.6402877697842 206L 869.8561151079138 206L 872.0719424460432 206L 874.2877697841726 206L 876.5035971223022 206L 878.7194244604316 206L 880.9352517985611 206L 883.1510791366906 206L 885.3669064748202 206L 887.5827338129496 206L 889.7985611510792 206L 892.0143884892086 206L 894.2302158273382 206L 896.4460431654676 206L 898.6618705035971 206L 900.8776978417267 206L 903.0935251798561 206L 905.3093525179856 206L 907.5251798561151 206L 909.7410071942446 206L 911.956834532374 206L 914.1726618705036 206L 916.3884892086331 206L 918.6043165467627 206L 920.8201438848921 206L 923.0359712230216 206L 925.2517985611511 206L 927.4676258992805 206L 929.68345323741 206L 931.8992805755395 206L 934.1151079136691 206L 936.3309352517986 206L 938.5467625899281 206L 940.7625899280575 206L 942.9784172661871 206L 945.1942446043165 206L 947.410071942446 206L 949.6258992805756 206L 951.841726618705 206L 954.0575539568346 206L 956.273381294964 206L 958.4892086330935 206L 960.705035971223 206L 962.9208633093525 206L 965.1366906474819 206L 967.3525179856116 206L 969.568345323741 206L 971.7841726618706 206L 974 206" stroke-width="2.0" fill="none" />
    
        
        
        <text x="45.0" font-family="-apple-system, system-ui, BlinkMacSystemFont, Roboto" y="50.0" dominant-baseline="middle" text-anchor="end" font-size="12" fill="#24292f">27500.0</text>
        
            
            <path stroke="#74838f" stroke-dasharray="10 6" stroke-width="0.5"  d="M 50.0 50.0 L 974.0 50.0" />
        
    
        
        
        <text x="45.0" font-family="-apple-system, system-ui, BlinkMacSystemFont, Roboto" y="81.2" dominant-baseline="middle" text-anchor="end" font-size="12" fill="#24292f">22000.0</text>
        
            
            
            <path stroke="#74838f" stroke-dasharray="10 6" stroke-width="0.5"  d="M 50.0 81.2 L 974.0 81.2" />
        
    
        
        
        <text x="45.0" font-family="-apple-system, system-ui, BlinkMacSystemFont, Roboto" y="112.4" dominant-baseline="middle" text-anchor="end" font-size="12" fill="#24292f">16500.0</text>
        
            
            
            <path stroke="#74838f" stroke-dasharray="10 6" stroke-width="0.5"  d="M 50.0 112.4 L 974.0 112.4" />
        
    
        
        
        <text x="45.0" font-family="-apple-system, system-ui, BlinkMacSystemFont, Roboto" y="143.6" dominant-baseline="middle" text-anchor="end" font-size="12" fill="#24292f">11000.0</text>
        
            
            
            <path stroke="#74838f" stroke-dasharray="10 6" stroke-width="0.5"  d="M 50.0 143.6 L 974.0 143.6" />
        
    
        
        
        <text x="45.0" font-family="-apple-system, system-ui, BlinkMacSystemFont, Roboto" y="174.8" dominant-baseline="middle" text-anchor="end" font-size="12" fill="#24292f">5500.0</text>
        
            
            
            <path stroke="#74838f" stroke-dasharray="10 6" stroke-width="0.5"  d="M 50.0 174.8 L 974.0 174.8" />
        
    
        
        
        <text x="45.0" font-family="-apple-system, system-ui, BlinkMacSystemFont, Roboto" y="206.0" dominant-baseline="middle" text-anchor="end" font-size="12" fill="#24292f">0.0</text>
        
    
    
        
        <path stroke="#74838f"  stroke-width="2.0"  d="M 85.45323741007195 206.0 L 85.45323741007195 214.0" />
        <text x="85.45323741007195" font-family="-apple-system, system-ui, BlinkMacSystemFont, Roboto" y="216.0" dominant-baseline="hanging" text-anchor="middle" font-size="12" fill="#24292f">Mar 2022</text>
    
        
        <path stroke="#74838f"  stroke-width="2.0"  d="M 154.1438848920863 206.0 L 154.1438848920863 214.0" />
        <text x="154.1438848920863" font-family="-apple-system, system-ui, BlinkMacSystemFont, Roboto" y="216.0" dominant-baseline="hanging" text-anchor="middle" font-size="12" fill="#24292f">Apr 2022</text>
    
        
        <path stroke="#74838f"  stroke-width="2.0"  d="M 220.6187050359712 206.0 L 220.6187050359712 214.0" />
        <text x="220.6187050359712" font-family="-apple-system, system-ui, BlinkMacSystemFont, Roboto" y="216.0" dominant-baseline="hanging" text-anchor="middle" font-size="12" fill="#24292f">May 2022</text>
    
        
        <path stroke="#74838f"  stroke-width="2.0"  d="M 289.30935251798564 206.0 L 289.30935251798564 214.0" />
        <text x="289.30935251798564" font-family="-apple-system, system-ui, BlinkMacSystemFont, Roboto" y="216.0" dominant-baseline="hanging" text-anchor="middle" font-size="12" fill="#24292f">Jun 2022</text>
    
        
        <path stroke="#74838f"  stroke-width="2.0"  d="M 355.7841726618705 206.0 L 355.7841726618705 214.0" />
        <text x="355.7841726618705" font-family="-apple-system, system-ui, BlinkMacSystemFont, Roboto" y="216.0" dominant-baseline="hanging" text-anchor="middle" font-size="12" fill="#24292f">Jul 2022</text>
    
        
        <path stroke="#74838f"  stroke-width="2.0"  d="M 424.47482014388487 206.0 L 424.47482014388487 214.0" />
        <text x="424.47482014388487" font-family="-apple-system, system-ui, BlinkMacSystemFont, Roboto" y="216.0" dominant-baseline="hanging" text-anchor="middle" font-size="12" fill="#24292f">Aug 2022</text>
    
        
        <path stroke="#74838f"  stroke-width="2.0"  d="M 493.1654676258993 206.0 L 493.1654676258993 214.0" />
        <text x="493.1654676258993" font-family="-apple-system, system-ui, BlinkMacSystemFont, Roboto" y="216.0" dominant-baseline="hanging" text-anchor="middle" font-size="12" fill="#24292f">Sep 2022</text>
    
        
        <path stroke="#74838f"  stroke-width="2.0"  d="M 559.6402877697842 206.0 L 559.6402877697842 214.0" />
        <text x="559.6402877697842" font-family="-apple-system, system-ui, BlinkMacSystemFont, Roboto" y="216.0" dominant-baseline="hanging" text-anchor="middle" font-size="12" fill="#24292f">Oct 2022</text>
    
        
        <path stroke="#74838f"  stroke-width="2.0"  d="M 628.3309352517986 206.0 L 628.3309352517986 214.0" />
        <text x="628.3309352517986" font-family="-apple-system, system-ui, BlinkMacSystemFont, Roboto" y="216.0" dominant-baseline="hanging" text-anchor="middle" font-size="12" fill="#24292f">Nov 2022</text>
    
        
        <path stroke="#74838f"  stroke-width="2.0"  d="M 694.8057553956835 206.0 L 694.8057553956835 214.0" />
        <text x="694.8057553956835" font-family="-apple-system, system-ui, BlinkMacSystemFont, Roboto" y="216.0" dominant-baseline="hanging" text-anchor="middle" font-size="12" fill="#24292f">Dec 2022</text>
    
        
        <path stroke="#74838f"  stroke-width="2.0"  d="M 763.4964028776978 206.0 L 763.4964028776978 214.0" />
        <text x="763.4964028776978" font-family="-apple-system, system-ui, BlinkMacSystemFont, Roboto" y="216.0" dominant-baseline="hanging" text-anchor="middle" font-size="12" fill="#24292f">Jan 2023</text>
    
        
        <path stroke="#74838f"  stroke-width="2.0"  d="M 832.1870503597122 206.0 L 832.1870503597122 214.0" />
        <text x="832.1870503597122" font-family="-apple-system, system-ui, BlinkMacSystemFont, Roboto" y="216.0" dominant-baseline="hanging" text-anchor="middle" font-size="12" fill="#24292f">Feb 2023</text>
    
        
        <path stroke="#74838f"  stroke-width="2.0"  d="M 894.2302158273382 206.0 L 894.2302158273382 214.0" />
        <text x="894.2302158273382" font-family="-apple-system, system-ui, BlinkMacSystemFont, Roboto" y="216.0" dominant-baseline="hanging" text-anchor="middle" font-size="12" fill="#24292f">Mar 2023</text>
    
        
        <path stroke="#74838f"  stroke-width="2.0"  d="M 962.9208633093525 206.0 L 962.9208633093525 214.0" />
        <text x="962.9208633093525" font-family="-apple-system, system-ui, BlinkMacSystemFont, Roboto" y="216.0" dominant-baseline="hanging" text-anchor="middle" font-size="12" fill="#24292f">Apr 2023</text>
    
    <path stroke="#74838f"   stroke-linejoin="round" stroke-width="2.0" d="M 50.0 216.0 L 50.0 206.0 L 974.0 206.0 L 974.0 216.0"  fill="none" />
    <text x="512.0" y="25.0" font-family="-apple-system, system-ui, BlinkMacSystemFont, Roboto" dominant-baseline="middle" text-anchor="middle" font-size="18" fill="#24292f">Total daily screen name changes</text>
</svg>
