<?xml version="1.0" standalone="no"?>
<svg width="1024.0" height="256.0"  viewBox="0 0 1024.0 256.0" preserveAspectRatio="xMidYMid meet" xmlns="http://www.w3.org/2000/svg">
    <path stroke="#3498db" stroke-linejoin="round" d="M 50.0 203.89541818181817 L 50 203.89541818181817L 53.58139534883721 203.10123636363636L 57.16279069767442 197.48523636363637L 60.74418604651163 196.18050909090908L 64.32558139534883 202.3184L 67.90697674418604 197.4512L 71.48837209302326 192.1245090909091L 75.06976744186046 179.9565090909091L 78.65116279069767 204.15636363636364L 82.23255813953489 194.15534545454545L 85.81395348837209 192.66909090909093L 89.3953488372093 195.1424L 92.97674418604652 193.92276363636364L 96.55813953488372 182.33905454545456L 100.13953488372093 200.85483636363637L 103.72093023255815 201.6546909090909L 107.30232558139535 178.86167272727272L 110.88372093023256 197.52494545454545L 114.46511627906976 198.56305454545455L 118.04651162790698 200.5314909090909L 121.62790697674419 201.2178909090909L 125.2093023255814 202.34676363636362L 128.7906976744186 195.2274909090909L 132.37209302325581 198.0752L 135.95348837209303 183.4565818181818L 139.53488372093022 197.59869090909092L 143.11627906976744 202.08014545454546L 146.69767441860466 194.6658909090909L 150.27906976744185 200.7810909090909L 153.86046511627907 200.10036363636362L 157.4418604651163 201.97803636363636L 161.02325581395348 204.76901818181818L 164.6046511627907 201.89294545454544L 168.18604651162792 201.0306909090909L 171.7674418604651 175.23112727272726L 175.3488372093023 195.77774545454545L 178.93023255813952 204.0032L 182.51162790697674 203.75927272727273L 186.09302325581396 197.88232727272728L 189.67441860465115 202.61905454545456L 193.25581395348837 202.91403636363637L 196.8372093023256 197.59869090909092L 200.4186046511628 186.4914909090909L 204 199.28349090909092L 207.58139534883722 199.68058181818182L 211.1627906976744 193.57672727272728L 214.74418604651163 199.18138181818182L 218.32558139534882 201.5696L 221.90697674418604 201.62065454545456L 225.48837209302326 195.1424L 229.06976744186048 201.7341090909091L 232.65116279069767 197.27534545454546L 236.2325581395349 172.3664L 239.8139534883721 203.20334545454546L 243.39534883720933 199.7373090909091L 246.9767441860465 193.1229090909091L 250.5581395348837 196.96334545454545L 254.13953488372093 199.87345454545454L 257.72093023255815 198.824L 261.30232558139534 204.128L 264.8837209302326 202.7778909090909L 268.4651162790698 198.9090909090909L 272.04651162790697 206L 275.62790697674416 204.128L 279.2093023255814 192.10749090909093L 282.7906976744186 206L 286.37209302325584 206L 289.95348837209303 206L 293.5348837209302 206L 297.1162790697674 197.35476363636363L 300.6976744186046 199.55578181818183L 304.27906976744185 188.88538181818183L 307.86046511627904 195.42603636363637L 311.4418604651163 191.19418181818182L 315.0232558139535 166.76174545454546L 318.60465116279073 203.92378181818182L 322.1860465116279 198.09221818181817L 325.7674418604651 201.68872727272728L 329.3488372093023 202.2957090909091L 332.93023255813955 203.2770909090909L 336.51162790697674 200.69032727272727L 340.09302325581393 191.59127272727272L 343.6744186046512 189.18603636363636L 347.25581395348837 203.88974545454545L 350.8372093023256 197.54196363636362L 354.41860465116275 187.50123636363637L 358 201.2576L 361.5813953488372 200.44072727272726L 365.16279069767444 201.4618181818182L 368.74418604651163 201.09876363636363L 372.3255813953488 201.25192727272727L 375.90697674418607 192.99810909090908L 379.48837209302326 198.79563636363636L 383.06976744186045 203.39054545454545L 386.65116279069764 200.30458181818182L 390.2325581395349 198.6992L 393.8139534883721 193.30443636363637L 397.3953488372093 200.54850909090908L 400.9767441860465 203.02749090909091L 404.5581395348837 197.38312727272728L 408.13953488372096 201.95534545454547L 411.7209302325581 196.15214545454546L 415.30232558139534 202.36378181818182L 418.8837209302325 199.95287272727273L 422.4651162790698 194.73963636363635L 426.04651162790697 201.28029090909092L 429.6279069767442 203.05585454545454L 433.2093023255814 203.53803636363637L 436.79069767441865 200.65061818181817L 440.3720930232558 195.5621818181818L 443.953488372093 203.3962181818182L 447.5348837209302 200.1968L 451.1162790697674 198.4496L 454.69767441860466 201.70007272727273L 458.27906976744185 200.7981090909091L 461.8604651162791 200.45774545454546L 465.4418604651163 201.74545454545455L 469.0232558139535 204.6442181818182L 472.6046511627907 206L 476.1860465116279 196.45847272727272L 479.7674418604651 199.18705454545454L 483.3488372093023 156.77207272727273L 486.93023255813955 165.0656L 490.51162790697674 204.3776L 494.093023255814 202.16523636363638L 497.6744186046511 199.3061818181818L 501.25581395348837 198.92043636363636L 504.83720930232556 202.7154909090909L 508.4186046511628 202.84596363636365L 512 196.1861818181818L 515.5813953488372 199.70894545454547L 519.1627906976744 198.19432727272726L 522.7441860465117 201.21221818181817L 526.3255813953489 201.90429090909092L 529.9069767441861 201.89294545454544L 533.4883720930234 200.17978181818182L 537.0697674418604 195.30690909090907L 540.6511627906978 206L 544.2325581395348 206L 547.8139534883721 206L 551.3953488372092 191.4608L 554.9767441860465 197.92203636363638L 558.5581395348837 198.89774545454546L 562.1395348837209 199.78269090909092L 565.7209302325581 200.14007272727272L 569.3023255813954 200.76407272727272L 572.8837209302326 201.80785454545455L 576.4651162790698 191.64232727272727L 580.046511627907 194.45032727272726L 583.6279069767442 199.88479999999998L 587.2093023255815 152.4834909090909L 590.7906976744187 197.25832727272729L 594.3720930232558 194.4333090909091L 597.953488372093 155.8701090909091L 601.5348837209302 91.35985454545455L 605.1162790697674 104.38443636363637L 608.6976744186046 151.09934545454547L 612.2790697674418 185.27185454545454L 615.8604651162791 142.6413090909091L 619.4418604651163 124.94807272727273L 623.0232558139535 123.59229090909092L 626.6046511627907 157.87258181818183L 630.1860465116279 53.2448L 633.7674418604652 50.419781818181804L 637.3488372093024 99.76116363636363L 640.9302325581396 156.1026909090909L 644.5116279069767 180.2912L 648.093023255814 192.40814545454546L 651.6744186046512 193.7469090909091L 655.2558139534884 193.3101090909091L 658.8372093023255 192.11883636363638L 662.4186046511627 197.94472727272728L 666 191.54021818181818L 669.5813953488372 198.7445818181818L 673.1627906976744 199.31752727272726L 676.7441860465116 201.64901818181818L 680.3255813953489 200.5712L 683.9069767441861 202.49992727272726L 687.4883720930233 200.72436363636365L 691.0697674418604 190.14472727272727L 694.6511627906976 203.16930909090908L 698.232558139535 200.4690909090909L 701.8139534883721 185.13003636363635L 705.3953488372093 188.00043636363637L 708.9767441860465 190.96727272727273L 712.5581395348838 192.29469090909092L 716.1395348837209 177.01236363636363L 719.7209302325581 167.79985454545454L 723.3023255813953 179.3154909090909L 726.8837209302326 186.3837090909091L 730.4651162790698 150.07258181818182L 734.046511627907 184.29047272727274L 737.6279069767442 199.58414545454545L 741.2093023255813 161.17978181818182L 744.7906976744187 155.58647272727274L 748.3720930232558 176.9216L 751.953488372093 190.28654545454546L 755.5348837209302 193.53134545454546L 759.1162790697674 201.70574545454545L 762.6976744186047 185.22647272727272L 766.2790697674419 192.0450909090909L 769.8604651162791 192.72581818181817L 773.4418604651162 180.1493818181818L 777.0232558139535 194.52974545454546L 780.6046511627907 194.72261818181818L 784.1860465116279 201.86458181818182L 787.767441860465 196.18050909090908L 791.3488372093024 204.50807272727272L 794.9302325581396 191.57992727272728L 798.5116279069767 180.37061818181817L 802.0930232558139 192.99243636363636L 805.6744186046511 186.2192L 809.2558139534884 191.71607272727272L 812.8372093023256 191.45512727272728L 816.4186046511628 196.6229818181818L 820 200.8605090909091L 823.5813953488373 176.24654545454547L 827.1627906976745 165.63854545454546L 830.7441860465116 181.74341818181819L 834.3255813953488 160.41396363636363L 837.906976744186 163.68712727272728L 841.4883720930233 182.01003636363637L 845.0697674418604 130.56974545454545L 848.6511627906976 190.45105454545455L 852.2325581395348 202.08581818181818L 855.8139534883721 184.04654545454545L 859.3953488372093 197.4909090909091L 862.9767441860465 187.5466181818182L 866.5581395348837 192.95839999999998L 870.1395348837209 201.91563636363637L 873.7209302325582 184.38690909090909L 877.3023255813954 186.9056L 880.8837209302326 182.21992727272726L 884.4651162790698 182.3504L 888.046511627907 186.30429090909092L 891.6279069767442 174.20436363636364L 895.2093023255813 183.0368L 898.7906976744185 183.40552727272728L 902.3720930232558 184.42094545454546L 905.953488372093 186.93396363636364L 909.5348837209302 169.68887272727272L 913.1162790697674 168.5997090909091L 916.6976744186046 203.3168L 920.2790697674419 206L 923.8604651162791 127.81280000000001L 927.4418604651163 183.1616L 931.0232558139535 156.43738181818182L 934.6046511627907 182.8496L 938.186046511628 183.0765090909091L 941.7674418604652 182.25963636363636L 945.3488372093022 169.8704L 948.9302325581394 186.71272727272728L 952.5116279069767 183.4962909090909L 956.0930232558139 186.0944L 959.6744186046511 184.01818181818183L 963.2558139534883 184.63083636363638L 966.8372093023256 177.80087272727272L 970.4186046511628 180.32523636363635L 974 199.58981818181817" stroke-width="2.0" fill="none" />
    
        
        
        <text x="45.0" font-family="-apple-system, system-ui, BlinkMacSystemFont, Roboto" y="50.0" dominant-baseline="middle" text-anchor="end" font-size="12" fill="#24292f">27500.0</text>
        
            
            <path stroke="#74838f" stroke-dasharray="10 6" stroke-width="0.5"  d="M 50.0 50.0 L 974.0 50.0" />
        
    
        
        
        <text x="45.0" font-family="-apple-system, system-ui, BlinkMacSystemFont, Roboto" y="81.2" dominant-baseline="middle" text-anchor="end" font-size="12" fill="#24292f">22000.0</text>
        
            
            
            <path stroke="#74838f" stroke-dasharray="10 6" stroke-width="0.5"  d="M 50.0 81.2 L 974.0 81.2" />
        
    
        
        
        <text x="45.0" font-family="-apple-system, system-ui, BlinkMacSystemFont, Roboto" y="112.4" dominant-baseline="middle" text-anchor="end" font-size="12" fill="#24292f">16500.0</text>
        
            
            
            <path stroke="#74838f" stroke-dasharray="10 6" stroke-width="0.5"  d="M 50.0 112.4 L 974.0 112.4" />
        
    
        
        
        <text x="45.0" font-family="-apple-system, system-ui, BlinkMacSystemFont, Roboto" y="143.6" dominant-baseline="middle" text-anchor="end" font-size="12" fill="#24292f">11000.0</text>
        
            
            
            <path stroke="#74838f" stroke-dasharray="10 6" stroke-width="0.5"  d="M 50.0 143.6 L 974.0 143.6" />
        
    
        
        
        <text x="45.0" font-family="-apple-system, system-ui, BlinkMacSystemFont, Roboto" y="174.8" dominant-baseline="middle" text-anchor="end" font-size="12" fill="#24292f">5500.0</text>
        
            
            
            <path stroke="#74838f" stroke-dasharray="10 6" stroke-width="0.5"  d="M 50.0 174.8 L 974.0 174.8" />
        
    
        
        
        <text x="45.0" font-family="-apple-system, system-ui, BlinkMacSystemFont, Roboto" y="206.0" dominant-baseline="middle" text-anchor="end" font-size="12" fill="#24292f">0.0</text>
        
    
    
        
        <path stroke="#74838f"  stroke-width="2.0"  d="M 107.30232558139535 206.0 L 107.30232558139535 214.0" />
        <text x="107.30232558139535" font-family="-apple-system, system-ui, BlinkMacSystemFont, Roboto" y="216.0" dominant-baseline="hanging" text-anchor="middle" font-size="12" fill="#24292f">Mar 2022</text>
    
        
        <path stroke="#74838f"  stroke-width="2.0"  d="M 218.32558139534882 206.0 L 218.32558139534882 214.0" />
        <text x="218.32558139534882" font-family="-apple-system, system-ui, BlinkMacSystemFont, Roboto" y="216.0" dominant-baseline="hanging" text-anchor="middle" font-size="12" fill="#24292f">Apr 2022</text>
    
        
        <path stroke="#74838f"  stroke-width="2.0"  d="M 325.7674418604651 206.0 L 325.7674418604651 214.0" />
        <text x="325.7674418604651" font-family="-apple-system, system-ui, BlinkMacSystemFont, Roboto" y="216.0" dominant-baseline="hanging" text-anchor="middle" font-size="12" fill="#24292f">May 2022</text>
    
        
        <path stroke="#74838f"  stroke-width="2.0"  d="M 436.79069767441865 206.0 L 436.79069767441865 214.0" />
        <text x="436.79069767441865" font-family="-apple-system, system-ui, BlinkMacSystemFont, Roboto" y="216.0" dominant-baseline="hanging" text-anchor="middle" font-size="12" fill="#24292f">Jun 2022</text>
    
        
        <path stroke="#74838f"  stroke-width="2.0"  d="M 544.2325581395348 206.0 L 544.2325581395348 214.0" />
        <text x="544.2325581395348" font-family="-apple-system, system-ui, BlinkMacSystemFont, Roboto" y="216.0" dominant-baseline="hanging" text-anchor="middle" font-size="12" fill="#24292f">Jul 2022</text>
    
        
        <path stroke="#74838f"  stroke-width="2.0"  d="M 655.2558139534884 206.0 L 655.2558139534884 214.0" />
        <text x="655.2558139534884" font-family="-apple-system, system-ui, BlinkMacSystemFont, Roboto" y="216.0" dominant-baseline="hanging" text-anchor="middle" font-size="12" fill="#24292f">Aug 2022</text>
    
        
        <path stroke="#74838f"  stroke-width="2.0"  d="M 766.2790697674419 206.0 L 766.2790697674419 214.0" />
        <text x="766.2790697674419" font-family="-apple-system, system-ui, BlinkMacSystemFont, Roboto" y="216.0" dominant-baseline="hanging" text-anchor="middle" font-size="12" fill="#24292f">Sep 2022</text>
    
        
        <path stroke="#74838f"  stroke-width="2.0"  d="M 873.7209302325582 206.0 L 873.7209302325582 214.0" />
        <text x="873.7209302325582" font-family="-apple-system, system-ui, BlinkMacSystemFont, Roboto" y="216.0" dominant-baseline="hanging" text-anchor="middle" font-size="12" fill="#24292f">Oct 2022</text>
    
    <path stroke="#74838f"   stroke-linejoin="round" stroke-width="2.0" d="M 50.0 216.0 L 50.0 206.0 L 974.0 206.0 L 974.0 216.0"  fill="none" />
    <text x="512.0" y="25.0" font-family="-apple-system, system-ui, BlinkMacSystemFont, Roboto" dominant-baseline="middle" text-anchor="middle" font-size="18" fill="#24292f">Total daily screen name changes</text>
</svg>
