<?xml version="1.0" standalone="no"?>
<svg width="1024.0" height="256.0"  viewBox="0 0 1024.0 256.0" preserveAspectRatio="xMidYMid meet" xmlns="http://www.w3.org/2000/svg">
    <path stroke="#3498db" stroke-linejoin="round" d="M 50.0 203.3394909090909 L 50 203.3394909090909L 52.470588235294116 202.32974545454545L 54.94117647058823 196.86690909090908L 57.411764705882355 195.94792727272727L 59.88235294117647 202.14254545454546L 62.35294117647059 197.35476363636363L 64.82352941176471 191.76145454545454L 67.29411764705883 179.96218181818182L 69.76470588235294 204.09396363636364L 72.23529411764706 194.17236363636363L 74.70588235294117 192.61803636363635L 77.17647058823529 195.1253818181818L 79.64705882352942 193.92843636363637L 82.11764705882354 182.2482909090909L 84.58823529411765 200.86618181818181L 87.05882352941177 201.45614545454546L 89.52941176470588 178.89003636363637L 92 197.33774545454546L 94.47058823529412 198.50065454545455L 96.94117647058823 200.41803636363636L 99.41176470588235 201.18385454545455L 101.88235294117646 202.26734545454545L 104.35294117647058 195.09134545454546L 106.82352941176471 198.08087272727272L 109.29411764705884 183.38850909090908L 111.76470588235294 197.47389090909093L 114.23529411764706 202.01774545454546L 116.70588235294117 194.66021818181818L 119.17647058823529 200.75272727272727L 121.64705882352942 200.00392727272728L 124.11764705882354 201.97236363636364L 126.58823529411765 204.2754909090909L 129.05882352941177 201.74545454545455L 131.52941176470588 201.01367272727273L 134 174.7829818181818L 136.47058823529412 195.76072727272728L 138.94117647058823 204.0032L 141.41176470588238 203.7309090909091L 143.88235294117646 197.87665454545453L 146.3529411764706 202.60770909090908L 148.8235294117647 202.6928L 151.2941176470588 197.55898181818182L 153.76470588235293 186.5141818181818L 156.23529411764707 199.26647272727274L 158.70588235294116 199.5728L 161.1764705882353 193.4802909090909L 163.64705882352942 199.10763636363635L 166.11764705882354 201.54690909090908L 168.58823529411768 201.5696L 171.05882352941177 195.06865454545454L 173.52941176470588 201.70007272727273L 176 197.2866909090909L 178.47058823529412 172.35505454545455L 180.94117647058823 203.20901818181818L 183.41176470588235 199.6749090909091L 185.88235294117646 193.12858181818183L 188.35294117647058 196.8896L 190.8235294117647 199.78836363636364L 193.29411764705884 198.82967272727274L 195.76470588235293 204.1336727272727L 198.23529411764707 202.57934545454546L 200.7058823529412 198.9261090909091L 203.1764705882353 206L 205.64705882352942 204.128L 208.1176470588235 192.1245090909091L 210.58823529411765 206L 213.05882352941177 206L 215.52941176470588 206L 218 206L 220.47058823529412 197.37178181818183L 222.94117647058823 199.57847272727273L 225.41176470588235 188.9024L 227.88235294117646 195.02894545454546L 230.35294117647058 191.20552727272727L 232.82352941176472 166.8128L 235.2941176470588 203.8386909090909L 237.76470588235296 198.09221818181817L 240.23529411764704 201.64334545454545L 242.7058823529412 202.2957090909091L 245.1764705882353 203.22036363636363L 247.64705882352942 200.66763636363635L 250.11764705882354 191.51185454545455L 252.58823529411762 189.18603636363636L 255.05882352941177 203.86705454545455L 257.52941176470586 197.56465454545454L 260 187.32538181818182L 262.47058823529414 201.2349090909091L 264.9411764705883 200.44639999999998L 267.4117647058823 201.4618181818182L 269.88235294117646 201.09876363636363L 272.3529411764706 201.17818181818183L 274.8235294117647 193.02647272727273L 277.29411764705884 198.8069818181818L 279.7647058823529 203.39054545454545L 282.2352941176471 200.30458181818182L 284.7058823529412 198.35883636363636L 287.17647058823536 193.3101090909091L 289.6470588235294 200.56552727272728L 292.11764705882354 203.03883636363636L 294.5882352941177 197.22996363636364L 297.05882352941177 201.95534545454547L 299.5294117647059 196.016L 302 202.30705454545455L 304.47058823529414 199.91316363636363L 306.94117647058823 194.62050909090908L 309.4117647058824 201.29163636363637L 311.88235294117646 202.98778181818182L 314.35294117647055 203.5437090909091L 316.8235294117647 200.60523636363638L 319.29411764705884 195.5621818181818L 321.7647058823529 203.24305454545456L 324.2352941176471 200.15709090909093L 326.70588235294116 198.46661818181818L 329.1764705882353 201.70007272727273L 331.6470588235294 200.70734545454545L 334.11764705882354 200.4293818181818L 336.5882352941177 201.76814545454545L 339.05882352941177 204.6442181818182L 341.52941176470586 206L 344 196.35636363636365L 346.47058823529414 199.21541818181817L 348.94117647058823 156.87418181818182L 351.4117647058824 165.1506909090909L 353.88235294117646 204.1733818181818L 356.3529411764706 202.17658181818183L 358.8235294117647 199.31185454545454L 361.29411764705884 198.7842909090909L 363.764705882353 202.6757818181818L 366.235294117647 202.8573090909091L 368.70588235294116 196.1861818181818L 371.1764705882353 199.64654545454545L 373.64705882352945 198.2056727272727L 376.11764705882354 201.2178909090909L 378.5882352941176 201.79083636363637L 381.05882352941177 201.90429090909092L 383.52941176470586 200.1968L 386 195.17076363636363L 388.47058823529414 206L 390.94117647058823 206L 393.4117647058823 206L 395.88235294117646 191.4834909090909L 398.3529411764706 197.79723636363636L 400.8235294117647 198.85236363636363L 403.2941176470588 199.76L 405.7647058823529 200.03796363636363L 408.2352941176471 200.76407272727272L 410.70588235294116 201.80785454545455L 413.1764705882353 191.63098181818182L 415.64705882352945 194.41061818181817L 418.11764705882354 199.88479999999998L 420.5882352941176 152.63098181818182L 423.05882352941177 197.04843636363637L 425.5294117647059 194.4730181818182L 428 155.90414545454547L 430.4705882352941 91.60945454545454L 432.94117647058823 104.5376L 435.4117647058824 151.17876363636364L 437.88235294117646 185.1981090909091L 440.3529411764706 142.76610909090908L 442.8235294117647 125.0672L 445.29411764705884 123.74545454545455L 447.7647058823529 157.99738181818182L 450.2352941176471 53.56814545454546L 452.7058823529412 50.78850909090909L 455.17647058823525 100.02210909090908L 457.6470588235294 156.2445090909091L 460.11764705882354 180.31956363636363L 462.5882352941177 192.43650909090908L 465.05882352941177 193.63912727272728L 467.52941176470586 193.3328L 470 192.11316363636365L 472.4705882352941 197.93338181818183L 474.94117647058823 191.5629090909091L 477.4117647058824 198.7672727272727L 479.8823529411765 199.3005090909091L 482.35294117647055 201.64901818181818L 484.8235294117647 200.58821818181818L 487.29411764705884 202.43752727272727L 489.7647058823529 200.73003636363637L 492.2352941176471 189.7703272727273L 494.70588235294116 203.17498181818183L 497.1764705882353 200.48610909090908L 499.6470588235294 185.1810909090909L 502.11764705882354 187.88698181818182L 504.5882352941177 191.01832727272728L 507.05882352941177 192.31738181818181L 509.52941176470586 177.09745454545455L 512 167.91330909090908L 514.4705882352941 179.30981818181817L 516.9411764705883 186.49716363636364L 519.4117647058824 150.34487272727273L 521.8823529411766 184.27345454545454L 524.3529411764707 199.5104L 526.8235294117646 161.24785454545454L 529.2941176470588 155.49003636363636L 531.7647058823529 176.96130909090908L 534.2352941176471 190.30923636363636L 536.7058823529412 193.50865454545453L 539.1764705882354 201.72843636363638L 541.6470588235295 185.22647272727272L 544.1176470588235 192.03374545454545L 546.5882352941177 192.66909090909093L 549.0588235294118 180.18341818181818L 551.5294117647059 194.5013818181818L 554 194.6829090909091L 556.4705882352941 201.85323636363637L 558.9411764705883 196.2032L 561.4117647058823 204.49105454545455L 563.8823529411765 191.55723636363638L 566.3529411764706 180.36494545454545L 568.8235294117648 193.02647272727273L 571.2941176470589 186.20785454545455L 573.7647058823529 191.72741818181817L 576.235294117647 191.4834909090909L 578.7058823529411 196.63432727272726L 581.1764705882352 200.7810909090909L 583.6470588235294 176.26923636363637L 586.1176470588235 165.78036363636363L 588.5882352941177 181.82850909090908L 591.0588235294118 160.6976L 593.5294117647059 163.93105454545454L 596 182.10647272727272L 598.4705882352941 130.808L 600.9411764705883 190.49643636363635L 603.4117647058823 202.0914909090909L 605.8823529411765 184.09192727272728L 608.3529411764706 197.50225454545455L 610.8235294117646 187.54094545454547L 613.2941176470588 192.95272727272726L 615.7647058823529 201.88727272727272L 618.2352941176471 184.33585454545454L 620.7058823529412 183.04814545454545L 623.1764705882354 182.36741818181818L 625.6470588235295 182.54327272727272L 628.1176470588235 186.38938181818182L 630.5882352941176 174.3858909090909L 633.0588235294117 183.1786181818182L 635.5294117647059 183.5133090909091L 638 184.60247272727273L 640.4705882352941 186.968L 642.9411764705883 170.00087272727274L 645.4117647058823 167.8338909090909L 647.8823529411765 203.32247272727273L 650.3529411764706 206L 652.8235294117648 128.43112727272728L 655.2941176470588 183.2637090909091L 657.7647058823529 156.8685090909091L 660.2352941176471 183.15592727272727L 662.7058823529412 183.2013090909091L 665.1764705882352 182.25963636363636L 667.6470588235294 170.18807272727273L 670.1176470588235 186.86589090909092L 672.5882352941177 183.77425454545454L 675.0588235294118 186.29861818181817L 677.529411764706 184.17134545454545L 680 184.9655272727273L 682.470588235294 178.1696L 684.9411764705882 180.70530909090908L 687.4117647058823 170.80072727272727L 689.8823529411765 177.99374545454546L 692.3529411764706 175.99127272727273L 694.8235294117648 173.75621818181818L 697.2941176470589 175.45803636363638L 699.7647058823529 196.91796363636365L 702.2352941176471 150.30516363636363L 704.7058823529411 167.34036363636363L 707.1764705882352 174.52203636363637L 709.6470588235294 132.05599999999998L 712.1176470588235 144.8309818181818L 714.5882352941177 173.60872727272726L 717.0588235294117 151.91054545454546L 719.5294117647059 194.03621818181819L 722 160.59549090909093L 724.4705882352941 206L 726.9411764705883 153.43650909090908L 729.4117647058824 181.01163636363637L 731.8823529411765 181.6413090909091L 734.3529411764706 182.49221818181817L 736.8235294117646 183.08785454545455L 739.2941176470588 206L 741.7647058823529 151.86516363636363L 744.2352941176471 172.45716363636365L 746.7058823529412 169.20669090909092L 749.1764705882354 178.22065454545455L 751.6470588235294 175.54312727272728L 754.1176470588235 177.61367272727273L 756.5882352941176 181.0173090909091L 759.0588235294117 176.80814545454547L 761.5294117647059 167.8962909090909L 764 167.1248L 766.4705882352941 176.62094545454545L 768.9411764705883 158.63272727272727L 771.4117647058823 151.3602909090909L 773.8823529411765 173.35345454545455L 776.3529411764706 206L 778.8235294117648 206L 781.2941176470589 206L 783.7647058823529 206L 786.2352941176471 206L 788.7058823529411 206L 791.1764705882352 206L 793.6470588235294 206L 796.1176470588235 206L 798.5882352941177 206L 801.0588235294118 206L 803.529411764706 206L 806 206L 808.470588235294 206L 810.9411764705882 206L 813.4117647058823 206L 815.8823529411765 206L 818.3529411764706 206L 820.8235294117648 206L 823.2941176470588 206L 825.7647058823529 206L 828.2352941176471 206L 830.7058823529412 206L 833.1764705882352 206L 835.6470588235294 206L 838.1176470588235 206L 840.5882352941177 206L 843.0588235294117 206L 845.5294117647059 206L 848 206L 850.4705882352941 206L 852.9411764705883 206L 855.4117647058824 206L 857.8823529411765 206L 860.3529411764705 206L 862.8235294117646 206L 865.2941176470588 206L 867.7647058823529 206L 870.2352941176471 206L 872.7058823529412 206L 875.1764705882354 206L 877.6470588235294 206L 880.1176470588235 206L 882.5882352941177 206L 885.0588235294117 206L 887.5294117647059 206L 890 206L 892.4705882352941 206L 894.9411764705882 206L 897.4117647058823 206L 899.8823529411765 206L 902.3529411764706 206L 904.8235294117648 206L 907.2941176470589 206L 909.764705882353 206L 912.2352941176471 206L 914.7058823529411 206L 917.1764705882352 206L 919.6470588235294 206L 922.1176470588235 206L 924.5882352941177 206L 927.0588235294118 206L 929.5294117647059 206L 932 206L 934.4705882352941 206L 936.9411764705882 206L 939.4117647058823 206L 941.8823529411765 206L 944.3529411764706 206L 946.8235294117648 206L 949.2941176470588 206L 951.7647058823529 206L 954.2352941176471 206L 956.7058823529412 206L 959.1764705882354 206L 961.6470588235294 206L 964.1176470588235 206L 966.5882352941176 206L 969.0588235294117 206L 971.5294117647059 206L 974 206" stroke-width="2.0" fill="none" />
    
        
        
        <text x="45.0" font-family="-apple-system, system-ui, BlinkMacSystemFont, Roboto" y="50.0" dominant-baseline="middle" text-anchor="end" font-size="12" fill="#24292f">27500.0</text>
        
            
            <path stroke="#74838f" stroke-dasharray="10 6" stroke-width="0.5"  d="M 50.0 50.0 L 974.0 50.0" />
        
    
        
        
        <text x="45.0" font-family="-apple-system, system-ui, BlinkMacSystemFont, Roboto" y="81.2" dominant-baseline="middle" text-anchor="end" font-size="12" fill="#24292f">22000.0</text>
        
            
            
            <path stroke="#74838f" stroke-dasharray="10 6" stroke-width="0.5"  d="M 50.0 81.2 L 974.0 81.2" />
        
    
        
        
        <text x="45.0" font-family="-apple-system, system-ui, BlinkMacSystemFont, Roboto" y="112.4" dominant-baseline="middle" text-anchor="end" font-size="12" fill="#24292f">16500.0</text>
        
            
            
            <path stroke="#74838f" stroke-dasharray="10 6" stroke-width="0.5"  d="M 50.0 112.4 L 974.0 112.4" />
        
    
        
        
        <text x="45.0" font-family="-apple-system, system-ui, BlinkMacSystemFont, Roboto" y="143.6" dominant-baseline="middle" text-anchor="end" font-size="12" fill="#24292f">11000.0</text>
        
            
            
            <path stroke="#74838f" stroke-dasharray="10 6" stroke-width="0.5"  d="M 50.0 143.6 L 974.0 143.6" />
        
    
        
        
        <text x="45.0" font-family="-apple-system, system-ui, BlinkMacSystemFont, Roboto" y="174.8" dominant-baseline="middle" text-anchor="end" font-size="12" fill="#24292f">5500.0</text>
        
            
            
            <path stroke="#74838f" stroke-dasharray="10 6" stroke-width="0.5"  d="M 50.0 174.8 L 974.0 174.8" />
        
    
        
        
        <text x="45.0" font-family="-apple-system, system-ui, BlinkMacSystemFont, Roboto" y="206.0" dominant-baseline="middle" text-anchor="end" font-size="12" fill="#24292f">0.0</text>
        
    
    
        
        <path stroke="#74838f"  stroke-width="2.0"  d="M 89.52941176470588 206.0 L 89.52941176470588 214.0" />
        <text x="89.52941176470588" font-family="-apple-system, system-ui, BlinkMacSystemFont, Roboto" y="216.0" dominant-baseline="hanging" text-anchor="middle" font-size="12" fill="#24292f">Mar 2022</text>
    
        
        <path stroke="#74838f"  stroke-width="2.0"  d="M 166.11764705882354 206.0 L 166.11764705882354 214.0" />
        <text x="166.11764705882354" font-family="-apple-system, system-ui, BlinkMacSystemFont, Roboto" y="216.0" dominant-baseline="hanging" text-anchor="middle" font-size="12" fill="#24292f">Apr 2022</text>
    
        
        <path stroke="#74838f"  stroke-width="2.0"  d="M 240.23529411764704 206.0 L 240.23529411764704 214.0" />
        <text x="240.23529411764704" font-family="-apple-system, system-ui, BlinkMacSystemFont, Roboto" y="216.0" dominant-baseline="hanging" text-anchor="middle" font-size="12" fill="#24292f">May 2022</text>
    
        
        <path stroke="#74838f"  stroke-width="2.0"  d="M 316.8235294117647 206.0 L 316.8235294117647 214.0" />
        <text x="316.8235294117647" font-family="-apple-system, system-ui, BlinkMacSystemFont, Roboto" y="216.0" dominant-baseline="hanging" text-anchor="middle" font-size="12" fill="#24292f">Jun 2022</text>
    
        
        <path stroke="#74838f"  stroke-width="2.0"  d="M 390.94117647058823 206.0 L 390.94117647058823 214.0" />
        <text x="390.94117647058823" font-family="-apple-system, system-ui, BlinkMacSystemFont, Roboto" y="216.0" dominant-baseline="hanging" text-anchor="middle" font-size="12" fill="#24292f">Jul 2022</text>
    
        
        <path stroke="#74838f"  stroke-width="2.0"  d="M 467.52941176470586 206.0 L 467.52941176470586 214.0" />
        <text x="467.52941176470586" font-family="-apple-system, system-ui, BlinkMacSystemFont, Roboto" y="216.0" dominant-baseline="hanging" text-anchor="middle" font-size="12" fill="#24292f">Aug 2022</text>
    
        
        <path stroke="#74838f"  stroke-width="2.0"  d="M 544.1176470588235 206.0 L 544.1176470588235 214.0" />
        <text x="544.1176470588235" font-family="-apple-system, system-ui, BlinkMacSystemFont, Roboto" y="216.0" dominant-baseline="hanging" text-anchor="middle" font-size="12" fill="#24292f">Sep 2022</text>
    
        
        <path stroke="#74838f"  stroke-width="2.0"  d="M 618.2352941176471 206.0 L 618.2352941176471 214.0" />
        <text x="618.2352941176471" font-family="-apple-system, system-ui, BlinkMacSystemFont, Roboto" y="216.0" dominant-baseline="hanging" text-anchor="middle" font-size="12" fill="#24292f">Oct 2022</text>
    
        
        <path stroke="#74838f"  stroke-width="2.0"  d="M 694.8235294117648 206.0 L 694.8235294117648 214.0" />
        <text x="694.8235294117648" font-family="-apple-system, system-ui, BlinkMacSystemFont, Roboto" y="216.0" dominant-baseline="hanging" text-anchor="middle" font-size="12" fill="#24292f">Nov 2022</text>
    
        
        <path stroke="#74838f"  stroke-width="2.0"  d="M 768.9411764705883 206.0 L 768.9411764705883 214.0" />
        <text x="768.9411764705883" font-family="-apple-system, system-ui, BlinkMacSystemFont, Roboto" y="216.0" dominant-baseline="hanging" text-anchor="middle" font-size="12" fill="#24292f">Dec 2022</text>
    
        
        <path stroke="#74838f"  stroke-width="2.0"  d="M 845.5294117647059 206.0 L 845.5294117647059 214.0" />
        <text x="845.5294117647059" font-family="-apple-system, system-ui, BlinkMacSystemFont, Roboto" y="216.0" dominant-baseline="hanging" text-anchor="middle" font-size="12" fill="#24292f">Jan 2023</text>
    
        
        <path stroke="#74838f"  stroke-width="2.0"  d="M 922.1176470588235 206.0 L 922.1176470588235 214.0" />
        <text x="922.1176470588235" font-family="-apple-system, system-ui, BlinkMacSystemFont, Roboto" y="216.0" dominant-baseline="hanging" text-anchor="middle" font-size="12" fill="#24292f">Feb 2023</text>
    
    <path stroke="#74838f"   stroke-linejoin="round" stroke-width="2.0" d="M 50.0 216.0 L 50.0 206.0 L 974.0 206.0 L 974.0 216.0"  fill="none" />
    <text x="512.0" y="25.0" font-family="-apple-system, system-ui, BlinkMacSystemFont, Roboto" dominant-baseline="middle" text-anchor="middle" font-size="18" fill="#24292f">Total daily screen name changes</text>
</svg>
