<?xml version="1.0" standalone="no"?>
<svg width="1024.0" height="256.0"  viewBox="0 0 1024.0 256.0" preserveAspectRatio="xMidYMid meet" xmlns="http://www.w3.org/2000/svg">
    <path stroke="#3498db" stroke-linejoin="round" d="M 50.0 203.7138909090909 L 50 203.7138909090909L 53.422222222222224 202.8176L 56.84444444444445 197.26967272727273L 60.266666666666666 196.06138181818181L 63.68888888888889 202.24465454545455L 67.11111111111111 197.43418181818183L 70.53333333333333 192.00538181818183L 73.95555555555555 179.96218181818182L 77.37777777777778 204.13934545454546L 80.8 194.16101818181818L 84.22222222222223 192.65774545454545L 87.64444444444445 195.13672727272728L 91.06666666666666 193.92276363636364L 94.48888888888888 182.3106909090909L 97.91111111111111 200.8605090909091L 101.33333333333333 201.57527272727273L 104.75555555555556 178.86167272727272L 108.17777777777778 197.47389090909093L 111.6 198.54036363636362L 115.02222222222223 200.51447272727273L 118.44444444444444 201.1952L 121.86666666666667 202.32407272727272L 125.28888888888889 195.17643636363636L 128.7111111111111 198.08087272727272L 132.13333333333333 183.4338909090909L 135.55555555555554 197.56465454545454L 138.97777777777776 202.07447272727273L 142.4 194.6658909090909L 145.82222222222222 200.76407272727272L 149.24444444444444 200.0493090909091L 152.66666666666666 201.9837090909091L 156.0888888888889 204.53643636363637L 159.51111111111112 201.85323636363637L 162.93333333333334 201.0306909090909L 166.35555555555555 175.05527272727272L 169.77777777777777 195.76072727272728L 173.2 204.0032L 176.6222222222222 203.7536L 180.04444444444445 197.88232727272728L 183.46666666666664 202.60770909090908L 186.88888888888889 202.80625454545455L 190.3111111111111 197.58734545454547L 193.73333333333335 186.49716363636364L 197.15555555555557 199.2778181818182L 200.57777777777778 199.6352L 204 193.54836363636363L 207.42222222222222 199.15869090909092L 210.84444444444443 201.55825454545453L 214.26666666666668 201.6093090909091L 217.6888888888889 195.11403636363636L 221.11111111111111 201.70574545454545L 224.53333333333333 197.27534545454546L 227.95555555555555 172.36072727272727L 231.3777777777778 203.20901818181818L 234.8 199.7146181818182L 238.2222222222222 193.13992727272728L 241.64444444444445 196.9293090909091L 245.06666666666666 199.8394181818182L 248.48888888888888 198.83534545454546L 251.91111111111113 204.1336727272727L 255.33333333333331 202.70981818181818L 258.7555555555556 198.9090909090909L 262.1777777777778 206L 265.6 204.128L 269.02222222222224 192.10749090909093L 272.44444444444446 206L 275.8666666666667 206L 279.2888888888889 206L 282.7111111111111 206L 286.1333333333333 197.35476363636363L 289.55555555555554 199.57847272727273L 292.97777777777776 188.89672727272728L 296.4 195.30690909090907L 299.8222222222222 191.19418181818182L 303.2444444444444 166.78443636363636L 306.6666666666667 203.88974545454545L 310.0888888888889 198.09221818181817L 313.5111111111111 201.68305454545455L 316.9333333333333 202.2957090909091L 320.35555555555555 203.24872727272728L 323.77777777777777 200.68465454545455L 327.2 191.53454545454545L 330.6222222222222 189.18036363636364L 334.0444444444444 203.88407272727272L 337.4666666666667 197.5533090909091L 340.8888888888889 187.42749090909092L 344.31111111111113 201.25192727272727L 347.73333333333335 200.44072727272726L 351.15555555555557 201.4674909090909L 354.5777777777778 201.09876363636363L 358 201.20654545454545L 361.4222222222222 193.01512727272728L 364.84444444444443 198.8013090909091L 368.26666666666665 203.39054545454545L 371.68888888888887 200.30458181818182L 375.11111111111114 198.58007272727272L 378.53333333333336 193.31578181818182L 381.9555555555556 200.55985454545456L 385.3777777777778 203.03883636363636L 388.79999999999995 197.34341818181818L 392.22222222222223 201.95534545454547L 395.64444444444445 196.0784L 399.06666666666666 202.32974545454545L 402.4888888888889 199.91883636363636L 405.9111111111111 194.6829090909091L 409.3333333333333 201.29163636363637L 412.7555555555556 203.0048L 416.1777777777778 203.53803636363637L 419.6 200.64494545454545L 423.02222222222224 195.5735272727273L 426.4444444444444 203.32814545454545L 429.8666666666667 200.1741090909091L 433.2888888888889 198.45527272727273L 436.7111111111111 201.70007272727273L 440.1333333333333 200.73003636363637L 443.55555555555554 200.45207272727274L 446.97777777777776 201.7568L 450.40000000000003 204.6442181818182L 453.82222222222225 206L 457.24444444444447 196.40174545454545L 460.66666666666663 199.20407272727272L 464.08888888888885 156.78341818181818L 467.5111111111111 165.08829090909092L 470.93333333333334 204.29818181818183L 474.35555555555555 202.1709090909091L 477.77777777777777 199.31185454545454L 481.2 198.87505454545453L 484.6222222222222 202.6928L 488.0444444444445 202.85163636363637L 491.4666666666667 196.19185454545453L 494.88888888888886 199.6749090909091L 498.3111111111111 198.2L 501.7333333333333 201.2178909090909L 505.15555555555557 201.8589090909091L 508.5777777777778 201.90429090909092L 512 200.18545454545455L 515.4222222222222 195.2274909090909L 518.8444444444444 206L 522.2666666666667 206L 525.6888888888889 206L 529.1111111111111 191.46647272727273L 532.5333333333333 197.8482909090909L 535.9555555555555 198.85803636363636L 539.3777777777777 199.76567272727272L 542.8 200.11738181818183L 546.2222222222223 200.76407272727272L 549.6444444444444 201.80785454545455L 553.0666666666666 191.63665454545455L 556.4888888888888 194.44465454545454L 559.911111111111 199.89047272727274L 563.3333333333334 152.55156363636365L 566.7555555555556 197.1845818181818L 570.1777777777778 194.45600000000002L 573.6 155.85876363636362L 577.0222222222222 91.5130181818182L 580.4444444444445 104.43549090909092L 583.8666666666666 151.13338181818182L 587.2888888888889 185.2605090909091L 590.7111111111111 142.6866909090909L 594.1333333333333 124.97076363636364L 597.5555555555555 123.64334545454545L 600.9777777777778 157.91796363636362L 604.4 53.35825454545454L 607.8222222222223 50.55025454545455L 611.2444444444444 99.89163636363635L 614.6666666666667 156.17643636363636L 618.0888888888888 180.30821818181818L 621.5111111111111 192.4138181818182L 624.9333333333334 193.72421818181817L 628.3555555555555 193.32145454545454L 631.7777777777778 192.14152727272727L 635.1999999999999 197.94472727272728L 638.6222222222223 191.54589090909093L 642.0444444444445 198.75592727272726L 645.4666666666667 199.31185454545454L 648.8888888888889 201.66036363636363L 652.3111111111111 200.58254545454545L 655.7333333333333 202.4829090909091L 659.1555555555556 200.73003636363637L 662.5777777777778 190.07098181818182L 666 203.16930909090908L 669.4222222222222 200.48610909090908L 672.8444444444444 185.14138181818183L 676.2666666666667 187.99476363636364L 679.6888888888889 190.97861818181818L 683.1111111111112 192.3117090909091L 686.5333333333333 177.08043636363635L 689.9555555555555 167.8679272727273L 693.3777777777777 179.3552L 696.8 186.43476363636364L 700.2222222222223 150.22007272727274L 703.6444444444444 184.29047272727274L 707.0666666666667 199.54443636363635L 710.4888888888888 161.16276363636365L 713.9111111111112 155.52974545454546L 717.3333333333334 176.92727272727274L 720.7555555555556 190.28087272727274L 724.1777777777778 193.51432727272726L 727.5999999999999 201.70574545454545L 731.0222222222222 185.20945454545455L 734.4444444444445 192.05076363636363L 737.8666666666667 192.71447272727272L 741.2888888888889 180.13236363636364L 744.7111111111111 194.51839999999999L 748.1333333333333 194.71694545454545L 751.5555555555555 201.86458181818182L 754.9777777777778 196.19752727272726L 758.4000000000001 204.50807272727272L 761.8222222222222 191.5856L 765.2444444444444 180.36494545454545L 768.6666666666666 193.01512727272728L 772.0888888888888 186.23621818181817L 775.5111111111112 191.72174545454544L 778.9333333333333 191.46647272727273L 782.3555555555556 196.6456727272727L 785.7777777777777 200.8605090909091L 789.2 176.28058181818182L 792.6222222222223 165.6725818181818L 796.0444444444445 181.8114909090909L 799.4666666666667 160.6749090909091L 802.8888888888888 163.8346181818182L 806.3111111111111 182.06109090909092L 809.7333333333333 130.59243636363635L 813.1555555555556 190.47941818181818L 816.5777777777778 202.09716363636363L 820 184.08625454545455L 823.4222222222222 197.50225454545455L 826.8444444444444 187.55796363636364L 830.2666666666667 192.95839999999998L 833.6888888888889 201.91563636363637L 837.1111111111111 184.41527272727274L 840.5333333333333 185.408L 843.9555555555555 182.2482909090909L 847.3777777777777 182.44116363636363L 850.8000000000001 186.33832727272727L 854.2222222222222 174.31214545454546L 857.6444444444445 183.09352727272727L 861.0666666666666 183.48494545454545L 864.4888888888889 184.51738181818183L 867.9111111111112 186.93396363636364L 871.3333333333333 169.84203636363637L 874.7555555555556 168.40683636363636L 878.1777777777777 203.32247272727273L 881.6 206L 885.0222222222222 128.27796363636364L 888.4444444444445 183.224L 891.8666666666667 156.5338181818182L 895.2888888888889 182.98007272727273L 898.7111111111111 183.0765090909091L 902.1333333333334 182.2823272727273L 905.5555555555555 169.97250909090909L 908.9777777777778 186.76378181818183L 912.4 183.65512727272727L 915.8222222222222 186.22487272727273L 919.2444444444444 184.13163636363637L 922.6666666666666 184.83505454545454L 926.088888888889 178.02210909090908L 929.5111111111111 180.59752727272726L 932.9333333333334 170.5794909090909L 936.3555555555555 177.88596363636364L 939.7777777777777 175.84945454545453L 943.2 174.39723636363635L 946.6222222222221 175.26516363636364L 950.0444444444445 196.87825454545455L 953.4666666666666 149.95345454545455L 956.8888888888889 166.9773090909091L 960.3111111111111 174.22705454545454L 963.7333333333333 131.5794909090909L 967.1555555555556 144.20698181818182L 970.5777777777778 198.96581818181818L 974 206" stroke-width="2.0" fill="none" />
    
        
        
        <text x="45.0" font-family="-apple-system, system-ui, BlinkMacSystemFont, Roboto" y="50.0" dominant-baseline="middle" text-anchor="end" font-size="12" fill="#24292f">27500.0</text>
        
            
            <path stroke="#74838f" stroke-dasharray="10 6" stroke-width="0.5"  d="M 50.0 50.0 L 974.0 50.0" />
        
    
        
        
        <text x="45.0" font-family="-apple-system, system-ui, BlinkMacSystemFont, Roboto" y="81.2" dominant-baseline="middle" text-anchor="end" font-size="12" fill="#24292f">22000.0</text>
        
            
            
            <path stroke="#74838f" stroke-dasharray="10 6" stroke-width="0.5"  d="M 50.0 81.2 L 974.0 81.2" />
        
    
        
        
        <text x="45.0" font-family="-apple-system, system-ui, BlinkMacSystemFont, Roboto" y="112.4" dominant-baseline="middle" text-anchor="end" font-size="12" fill="#24292f">16500.0</text>
        
            
            
            <path stroke="#74838f" stroke-dasharray="10 6" stroke-width="0.5"  d="M 50.0 112.4 L 974.0 112.4" />
        
    
        
        
        <text x="45.0" font-family="-apple-system, system-ui, BlinkMacSystemFont, Roboto" y="143.6" dominant-baseline="middle" text-anchor="end" font-size="12" fill="#24292f">11000.0</text>
        
            
            
            <path stroke="#74838f" stroke-dasharray="10 6" stroke-width="0.5"  d="M 50.0 143.6 L 974.0 143.6" />
        
    
        
        
        <text x="45.0" font-family="-apple-system, system-ui, BlinkMacSystemFont, Roboto" y="174.8" dominant-baseline="middle" text-anchor="end" font-size="12" fill="#24292f">5500.0</text>
        
            
            
            <path stroke="#74838f" stroke-dasharray="10 6" stroke-width="0.5"  d="M 50.0 174.8 L 974.0 174.8" />
        
    
        
        
        <text x="45.0" font-family="-apple-system, system-ui, BlinkMacSystemFont, Roboto" y="206.0" dominant-baseline="middle" text-anchor="end" font-size="12" fill="#24292f">0.0</text>
        
    
    
        
        <path stroke="#74838f"  stroke-width="2.0"  d="M 104.75555555555556 206.0 L 104.75555555555556 214.0" />
        <text x="104.75555555555556" font-family="-apple-system, system-ui, BlinkMacSystemFont, Roboto" y="216.0" dominant-baseline="hanging" text-anchor="middle" font-size="12" fill="#24292f">Mar 2022</text>
    
        
        <path stroke="#74838f"  stroke-width="2.0"  d="M 210.84444444444443 206.0 L 210.84444444444443 214.0" />
        <text x="210.84444444444443" font-family="-apple-system, system-ui, BlinkMacSystemFont, Roboto" y="216.0" dominant-baseline="hanging" text-anchor="middle" font-size="12" fill="#24292f">Apr 2022</text>
    
        
        <path stroke="#74838f"  stroke-width="2.0"  d="M 313.5111111111111 206.0 L 313.5111111111111 214.0" />
        <text x="313.5111111111111" font-family="-apple-system, system-ui, BlinkMacSystemFont, Roboto" y="216.0" dominant-baseline="hanging" text-anchor="middle" font-size="12" fill="#24292f">May 2022</text>
    
        
        <path stroke="#74838f"  stroke-width="2.0"  d="M 419.6 206.0 L 419.6 214.0" />
        <text x="419.6" font-family="-apple-system, system-ui, BlinkMacSystemFont, Roboto" y="216.0" dominant-baseline="hanging" text-anchor="middle" font-size="12" fill="#24292f">Jun 2022</text>
    
        
        <path stroke="#74838f"  stroke-width="2.0"  d="M 522.2666666666667 206.0 L 522.2666666666667 214.0" />
        <text x="522.2666666666667" font-family="-apple-system, system-ui, BlinkMacSystemFont, Roboto" y="216.0" dominant-baseline="hanging" text-anchor="middle" font-size="12" fill="#24292f">Jul 2022</text>
    
        
        <path stroke="#74838f"  stroke-width="2.0"  d="M 628.3555555555555 206.0 L 628.3555555555555 214.0" />
        <text x="628.3555555555555" font-family="-apple-system, system-ui, BlinkMacSystemFont, Roboto" y="216.0" dominant-baseline="hanging" text-anchor="middle" font-size="12" fill="#24292f">Aug 2022</text>
    
        
        <path stroke="#74838f"  stroke-width="2.0"  d="M 734.4444444444445 206.0 L 734.4444444444445 214.0" />
        <text x="734.4444444444445" font-family="-apple-system, system-ui, BlinkMacSystemFont, Roboto" y="216.0" dominant-baseline="hanging" text-anchor="middle" font-size="12" fill="#24292f">Sep 2022</text>
    
        
        <path stroke="#74838f"  stroke-width="2.0"  d="M 837.1111111111111 206.0 L 837.1111111111111 214.0" />
        <text x="837.1111111111111" font-family="-apple-system, system-ui, BlinkMacSystemFont, Roboto" y="216.0" dominant-baseline="hanging" text-anchor="middle" font-size="12" fill="#24292f">Oct 2022</text>
    
        
        <path stroke="#74838f"  stroke-width="2.0"  d="M 943.2 206.0 L 943.2 214.0" />
        <text x="943.2" font-family="-apple-system, system-ui, BlinkMacSystemFont, Roboto" y="216.0" dominant-baseline="hanging" text-anchor="middle" font-size="12" fill="#24292f">Nov 2022</text>
    
    <path stroke="#74838f"   stroke-linejoin="round" stroke-width="2.0" d="M 50.0 216.0 L 50.0 206.0 L 974.0 206.0 L 974.0 216.0"  fill="none" />
    <text x="512.0" y="25.0" font-family="-apple-system, system-ui, BlinkMacSystemFont, Roboto" dominant-baseline="middle" text-anchor="middle" font-size="18" fill="#24292f">Total daily screen name changes</text>
</svg>
