<?xml version="1.0" standalone="no"?>
<svg width="1024" height="256"  viewBox="0 0 1024 256" preserveAspectRatio="xMidYMid meet" xmlns="http://www.w3.org/2000/svg">
    <path stroke="#3498db" stroke-linejoin="round" d="M 50 204.8509268292683 L 50 204.8509268292683L 55.848101265822784 204.6150243902439L 61.69620253164557 196.86068292682927L 67.54430379746836 193.51999999999998L 73.39240506329114 201.66243902439024L 79.24050632911393 194.75278048780487L 85.08860759493672 188.23121951219514L 90.9367088607595 170.92663414634146L 96.78481012658227 203.69424390243904L 102.63291139240506 190.10321951219512L 108.48101265822785 188.16273170731708L 114.32911392405063 191.5110243902439L 120.17721518987342 189.72273170731708L 126.0253164556962 174.69346341463415L 131.873417721519 199.0370731707317L 137.72151898734177 201.05365853658537L 143.56962025316454 169.51882926829268L 149.41772151898735 195.23980487804877L 155.26582278481013 196.3432195121951L 161.11392405063293 199.14360975609756L 166.9620253164557 199.55453658536584L 172.81012658227849 201.25912195121953L 178.65822784810126 191.7317073170732L 184.50632911392404 195.30068292682927L 190.35443037974684 175.57619512195123L 196.20253164556962 194.9278048780488L 202.0506329113924 200.86341463414635L 207.89873417721518 190.6967804878049L 213.74683544303798 199.0370731707317L 219.59493670886076 198.4130731707317L 225.44303797468356 200.71882926829267L 231.2911392405063 205.22380487804878L 237.13924050632912 200.81014634146342L 242.9873417721519 199.30341463414635L 248.8354430379747 165.67590243902438L 254.68354430379745 192.2948292682927L 260.53164556962025 203.35180487804877L 266.37974683544303 203.16156097560975L 272.22784810126586 195.07239024390245L 278.0759493670886 201.51024390243902L 283.9240506329114 202.37014634146342L 289.77215189873414 194.82126829268293L 295.62025316455697 179.80721951219513L 301.46835443037975 197.0889756097561L 307.3164556962025 197.88039024390244L 313.16455696202536 189.585756097561L 319.0126582278481 196.98243902439026L 324.86075949367086 200.07960975609757L 330.7088607594937 200.193756097561L 336.55696202531647 191.49580487804877L 342.40506329113924 200.46770731707318L 348.253164556962 194.23531707317073L 354.1012658227848 160.75239024390243L 359.94936708860763 202.23317073170733L 365.79746835443035 198.00975609756097L 371.6455696202532 188.84L 377.49367088607596 194.01463414634145L 383.34177215189874 197.9869268292683L 389.1898734177215 196.3888780487805L 395.0379746835443 203.47356097560976L 400.8860759493671 202.05053658536585L 406.7341772151899 196.4421463414634L 412.5822784810126 206L 418.43037974683546 203.48117073170732L 424.27848101265823 187.23434146341464L 430.126582278481 206L 435.9746835443038 206L 441.82278481012656 206L 447.6708860759494 206L 453.5189873417722 194.34946341463416L 459.3670886075949 197.30965853658537L 465.2151898734177 182.96526829268294L 471.0632911392405 192.66770731707317L 476.9113924050633 186.05482926829268L 482.75949367088606 152.98282926829268L 488.60759493670884 203.4887804878049L 494.45569620253167 195.38439024390243L 500.30379746835445 200.40682926829268L 506.1518987341772 201.00039024390244L 512 202.52995121951218L 517.8481012658228 198.9990243902439L 523.6962025316456 186.66360975609757L 529.5443037974683 183.4370731707317L 535.3924050632911 203.2300487804878L 541.2405063291139 194.59297560975608L 547.0886075949368 181.47375609756097L 552.9367088607595 199.7067317073171L 558.7848101265823 198.512L 564.632911392405 199.83609756097562L 570.4810126582279 199.3871219512195L 576.3291139240507 199.95785365853658L 582.1772151898734 188.5127804878049L 588.0253164556962 196.2899512195122L 593.873417721519 202.47668292682926L 599.7215189873417 198.30653658536585L 605.5696202531645 197.23356097560975L 611.4177215189874 188.9008780487805L 617.2658227848102 198.6489756097561L 623.1139240506329 202.00487804878048L 628.9620253164557 194.75278048780487L 634.8101265822785 200.52858536585364L 640.6582278481012 193.0938536585366L 646.506329113924 201.30478048780486L 652.3544303797469 197.91843902439024L 658.2025316455696 191.17619512195122L 664.0506329113924 199.6458536585366L 669.8987341772153 202.2179512195122L 675.746835443038 202.66692682926828L 681.5949367088607 198.8620487804878L 687.4430379746835 191.98282926829268L 693.2911392405064 202.89521951219513L 699.1392405063291 198.25326829268292L 704.9873417721519 195.78770731707317L 710.8354430379748 200.18614634146343L 716.6835443037975 199.25014634146342L 722.5316455696202 198.64136585365853L 728.379746835443 200.26224390243902L 734.2278481012657 204.15843902439025L 740.0759493670886 206L 745.9240506329114 193.31453658536586L 751.7721518987343 196.80741463414634L 757.620253164557 139.54399999999998L 763.4683544303798 150.65424390243902L 769.3164556962025 204.15843902439025L 775.1645569620252 200.81014634146342L 781.0126582278481 196.89873170731707L 786.8607594936709 196.76175609756098L 792.7088607594936 201.66243902439024L 798.5569620253165 201.74614634146343L 804.4050632911393 192.73619512195123L 810.253164556962 197.68253658536585L 816.1012658227847 195.46048780487806L 821.9493670886076 199.5088780487805L 827.7974683544304 200.74926829268293L 833.6455696202531 200.43726829268292L 839.493670886076 198.1239024390244L 845.3417721518988 191.76975609756096L 851.1898734177215 206L 857.0379746835443 206L 862.8860759493671 206L 868.7341772151898 186.21463414634147L 874.5822784810126 195.28546341463414L 880.4303797468355 196.64L 886.2784810126583 197.68253658536585L 892.126582278481 198.39785365853658L 897.9746835443038 198.94575609756097L 903.8227848101266 200.3459512195122L 909.6708860759493 186.66360975609757L 915.5189873417721 190.39239024390244L 921.367088607595 197.69014634146342L 927.2151898734177 133.49424390243902L 933.0632911392405 194.48643902439025L 938.9113924050633 190.31629268292681L 944.7594936708862 138.26556097560976L 950.6075949367089 50.89795121951221L 956.4556962025316 68.75043902439023L 962.3037974683544 131.78965853658536L 968.1518987341772 178.20917073170733L 974 201.99726829268292" stroke-width="2.0" fill="none" />
    
        
        
        <text x="45" font-family="-apple-system, system-ui, BlinkMacSystemFont, Roboto" y="50" dominant-baseline="middle" text-anchor="end" font-size="12" fill="#24292f">20500</text>
        
            
            <path stroke="#74838f" stroke-dasharray="10 6" stroke-width="0.5"  d="M 50 50 L 974 50" />
        
    
        
        
        <text x="45" font-family="-apple-system, system-ui, BlinkMacSystemFont, Roboto" y="81.2" dominant-baseline="middle" text-anchor="end" font-size="12" fill="#24292f">16400</text>
        
            
            
            <path stroke="#74838f" stroke-dasharray="10 6" stroke-width="0.5"  d="M 50 81.2 L 974 81.2" />
        
    
        
        
        <text x="45" font-family="-apple-system, system-ui, BlinkMacSystemFont, Roboto" y="112.4" dominant-baseline="middle" text-anchor="end" font-size="12" fill="#24292f">12300</text>
        
            
            
            <path stroke="#74838f" stroke-dasharray="10 6" stroke-width="0.5"  d="M 50 112.4 L 974 112.4" />
        
    
        
        
        <text x="45" font-family="-apple-system, system-ui, BlinkMacSystemFont, Roboto" y="143.6" dominant-baseline="middle" text-anchor="end" font-size="12" fill="#24292f">8200</text>
        
            
            
            <path stroke="#74838f" stroke-dasharray="10 6" stroke-width="0.5"  d="M 50 143.6 L 974 143.6" />
        
    
        
        
        <text x="45" font-family="-apple-system, system-ui, BlinkMacSystemFont, Roboto" y="174.8" dominant-baseline="middle" text-anchor="end" font-size="12" fill="#24292f">4100</text>
        
            
            
            <path stroke="#74838f" stroke-dasharray="10 6" stroke-width="0.5"  d="M 50 174.8 L 974 174.8" />
        
    
        
        
        <text x="45" font-family="-apple-system, system-ui, BlinkMacSystemFont, Roboto" y="206" dominant-baseline="middle" text-anchor="end" font-size="12" fill="#24292f">0</text>
        
    
    
        
        <path stroke="#74838f"  stroke-width="2.0"  d="M 143.56962025316454 206 L 143.56962025316454 214" />
        <text x="143.56962025316454" font-family="-apple-system, system-ui, BlinkMacSystemFont, Roboto" y="216" dominant-baseline="hanging" text-anchor="middle" font-size="12" fill="#24292f">Mar 2022</text>
    
        
        <path stroke="#74838f"  stroke-width="2.0"  d="M 324.86075949367086 206 L 324.86075949367086 214" />
        <text x="324.86075949367086" font-family="-apple-system, system-ui, BlinkMacSystemFont, Roboto" y="216" dominant-baseline="hanging" text-anchor="middle" font-size="12" fill="#24292f">Apr 2022</text>
    
        
        <path stroke="#74838f"  stroke-width="2.0"  d="M 500.30379746835445 206 L 500.30379746835445 214" />
        <text x="500.30379746835445" font-family="-apple-system, system-ui, BlinkMacSystemFont, Roboto" y="216" dominant-baseline="hanging" text-anchor="middle" font-size="12" fill="#24292f">May 2022</text>
    
        
        <path stroke="#74838f"  stroke-width="2.0"  d="M 681.5949367088607 206 L 681.5949367088607 214" />
        <text x="681.5949367088607" font-family="-apple-system, system-ui, BlinkMacSystemFont, Roboto" y="216" dominant-baseline="hanging" text-anchor="middle" font-size="12" fill="#24292f">Jun 2022</text>
    
        
        <path stroke="#74838f"  stroke-width="2.0"  d="M 857.0379746835443 206 L 857.0379746835443 214" />
        <text x="857.0379746835443" font-family="-apple-system, system-ui, BlinkMacSystemFont, Roboto" y="216" dominant-baseline="hanging" text-anchor="middle" font-size="12" fill="#24292f">Jul 2022</text>
    
    <path stroke="#74838f"   stroke-linejoin="round" stroke-width="2.0" d="M 50 216 L 50 206 L 974 206 L 974 216"  fill="none" />
    <text x="512" y="25" font-family="-apple-system, system-ui, BlinkMacSystemFont, Roboto" dominant-baseline="middle" text-anchor="middle" font-size="18" fill="#24292f">Total daily screen name changes</text>
</svg>
