<?xml version="1.0" standalone="no"?>
<svg width="1024.0" height="256.0"  viewBox="0 0 1024.0 256.0" preserveAspectRatio="xMidYMid meet" xmlns="http://www.w3.org/2000/svg">
    <path stroke="#3498db" stroke-linejoin="round" d="M 50.0 203.3394909090909 L 50 203.3394909090909L 52.333333333333336 202.32974545454545L 54.666666666666664 196.86690909090908L 57 195.94792727272727L 59.333333333333336 202.14254545454546L 61.666666666666664 197.35476363636363L 64 191.76145454545454L 66.33333333333333 179.96218181818182L 68.66666666666667 204.09396363636364L 71 194.17236363636363L 73.33333333333333 192.61803636363635L 75.66666666666666 195.1253818181818L 78 193.92843636363637L 80.33333333333334 182.2482909090909L 82.66666666666666 200.86618181818181L 85 201.45614545454546L 87.33333333333334 178.89003636363637L 89.66666666666666 197.33774545454546L 92 198.50065454545455L 94.33333333333333 200.41803636363636L 96.66666666666666 201.18385454545455L 99 202.26734545454545L 101.33333333333333 195.09134545454546L 103.66666666666666 198.08087272727272L 106 183.38850909090908L 108.33333333333334 197.47389090909093L 110.66666666666667 202.01774545454546L 113 194.66021818181818L 115.33333333333333 200.75272727272727L 117.66666666666667 200.00392727272728L 120 201.97236363636364L 122.33333333333334 204.2754909090909L 124.66666666666667 201.74545454545455L 127 201.01367272727273L 129.33333333333331 174.7829818181818L 131.66666666666669 195.76072727272728L 134 204.0032L 136.33333333333334 203.7309090909091L 138.66666666666666 197.87665454545453L 141 202.60770909090908L 143.33333333333331 202.6928L 145.66666666666669 197.55898181818182L 148 186.5141818181818L 150.33333333333334 199.26647272727274L 152.66666666666666 199.5728L 155 193.4802909090909L 157.33333333333331 199.10763636363635L 159.66666666666669 201.54690909090908L 162 201.5696L 164.33333333333334 195.06865454545454L 166.66666666666669 201.70007272727273L 169 197.2866909090909L 171.33333333333334 172.35505454545455L 173.66666666666669 203.20901818181818L 176 199.6749090909091L 178.33333333333334 193.12858181818183L 180.66666666666666 196.8896L 183 199.78836363636364L 185.33333333333334 198.82967272727274L 187.66666666666666 204.1336727272727L 190 202.57934545454546L 192.33333333333331 198.9261090909091L 194.66666666666669 206L 197 204.128L 199.33333333333334 192.1245090909091L 201.66666666666666 206L 204 206L 206.33333333333334 206L 208.66666666666666 206L 211 197.37178181818183L 213.33333333333334 199.57847272727273L 215.66666666666666 188.9024L 218 195.02894545454546L 220.33333333333331 191.20552727272727L 222.66666666666669 166.8128L 225 203.8386909090909L 227.33333333333331 198.09221818181817L 229.66666666666666 201.64334545454545L 232 202.2957090909091L 234.33333333333334 203.22036363636363L 236.66666666666666 200.66763636363635L 239 191.51185454545455L 241.33333333333334 189.18603636363636L 243.66666666666666 203.86705454545455L 246 197.56465454545454L 248.33333333333331 187.32538181818182L 250.66666666666669 201.2349090909091L 253 200.44639999999998L 255.33333333333331 201.4618181818182L 257.66666666666663 201.09876363636363L 260 201.17818181818183L 262.33333333333337 193.02647272727273L 264.66666666666663 198.8069818181818L 267 203.39054545454545L 269.33333333333337 200.30458181818182L 271.66666666666663 198.35883636363636L 274 193.3101090909091L 276.33333333333337 200.56552727272728L 278.6666666666667 203.03883636363636L 281 197.22996363636364L 283.33333333333337 201.95534545454547L 285.66666666666663 196.016L 288 202.30705454545455L 290.33333333333337 199.91316363636363L 292.6666666666667 194.62050909090908L 295 201.29163636363637L 297.33333333333337 202.98778181818182L 299.6666666666667 203.5437090909091L 302 200.60523636363638L 304.33333333333337 195.5621818181818L 306.6666666666667 203.24305454545456L 309 200.15709090909093L 311.3333333333333 198.46661818181818L 313.6666666666667 201.70007272727273L 316 200.70734545454545L 318.3333333333333 200.4293818181818L 320.6666666666667 201.76814545454545L 323 204.6442181818182L 325.3333333333333 206L 327.6666666666667 196.35636363636365L 330 199.21541818181817L 332.33333333333337 156.87418181818182L 334.66666666666663 165.1506909090909L 337 204.1733818181818L 339.33333333333337 202.17658181818183L 341.66666666666663 199.31185454545454L 344 198.7842909090909L 346.33333333333337 202.6757818181818L 348.6666666666667 202.8573090909091L 351 196.1861818181818L 353.3333333333333 199.64654545454545L 355.6666666666667 198.2056727272727L 358 201.2178909090909L 360.3333333333333 201.79083636363637L 362.6666666666667 201.90429090909092L 365 200.1968L 367.3333333333333 195.17076363636363L 369.6666666666667 206L 372 206L 374.3333333333333 206L 376.6666666666667 191.4834909090909L 379 197.79723636363636L 381.3333333333333 198.85236363636363L 383.6666666666667 199.76L 386 200.03796363636363L 388.33333333333337 200.76407272727272L 390.66666666666663 201.80785454545455L 393 191.63098181818182L 395.33333333333337 194.41061818181817L 397.66666666666663 199.88479999999998L 400 152.63098181818182L 402.33333333333337 197.04843636363637L 404.66666666666663 194.4730181818182L 407 155.90414545454547L 409.3333333333333 91.60945454545454L 411.6666666666667 104.5376L 414 151.17876363636364L 416.3333333333333 185.1981090909091L 418.6666666666667 142.76610909090908L 421 125.0672L 423.3333333333333 123.74545454545455L 425.6666666666667 157.99738181818182L 428 53.56814545454546L 430.3333333333333 50.78850909090909L 432.6666666666667 100.02210909090908L 435 156.2445090909091L 437.3333333333333 180.31956363636363L 439.6666666666667 192.43650909090908L 442 193.63912727272728L 444.3333333333333 193.3328L 446.66666666666663 192.11316363636365L 449 197.93338181818183L 451.33333333333337 191.5629090909091L 453.66666666666663 198.7672727272727L 456 199.3005090909091L 458.33333333333337 201.64901818181818L 460.66666666666663 200.58821818181818L 463 202.43752727272727L 465.3333333333333 200.73003636363637L 467.6666666666667 189.7703272727273L 470 203.17498181818183L 472.3333333333333 200.48610909090908L 474.6666666666667 185.1810909090909L 477 187.88698181818182L 479.3333333333333 191.01832727272728L 481.6666666666667 192.31738181818181L 484 177.09745454545455L 486.3333333333333 167.91330909090908L 488.6666666666667 179.30981818181817L 491 186.49716363636364L 493.3333333333333 150.34487272727273L 495.6666666666667 184.27345454545454L 498 199.5104L 500.3333333333333 161.24785454545454L 502.6666666666667 155.49003636363636L 505 176.96130909090908L 507.33333333333337 190.30923636363636L 509.66666666666663 193.50865454545453L 512 201.72843636363638L 514.3333333333333 185.22647272727272L 516.6666666666667 192.03374545454545L 519 192.66909090909093L 521.3333333333333 180.18341818181818L 523.6666666666667 194.5013818181818L 526 194.6829090909091L 528.3333333333333 201.85323636363637L 530.6666666666667 196.2032L 533 204.49105454545455L 535.3333333333334 191.55723636363638L 537.6666666666667 180.36494545454545L 540 193.02647272727273L 542.3333333333334 186.20785454545455L 544.6666666666667 191.72741818181817L 547 191.4834909090909L 549.3333333333334 196.63432727272726L 551.6666666666667 200.7810909090909L 554 176.26923636363637L 556.3333333333334 165.78036363636363L 558.6666666666667 181.82850909090908L 561 160.6976L 563.3333333333334 163.93105454545454L 565.6666666666666 182.10647272727272L 568 130.808L 570.3333333333334 190.49643636363635L 572.6666666666666 202.0914909090909L 575 184.09192727272728L 577.3333333333334 197.50225454545455L 579.6666666666666 187.54094545454547L 582 192.95272727272726L 584.3333333333334 201.88727272727272L 586.6666666666666 184.33585454545454L 589 183.04814545454545L 591.3333333333334 182.36741818181818L 593.6666666666666 182.54327272727272L 596 186.38938181818182L 598.3333333333334 174.3858909090909L 600.6666666666666 183.1786181818182L 603 183.5133090909091L 605.3333333333334 184.60247272727273L 607.6666666666666 186.968L 610 170.00087272727274L 612.3333333333333 167.8338909090909L 614.6666666666667 203.32247272727273L 617 206L 619.3333333333333 128.43112727272728L 621.6666666666667 183.2637090909091L 624 156.8685090909091L 626.3333333333333 183.15592727272727L 628.6666666666667 183.2013090909091L 631 182.25963636363636L 633.3333333333333 170.18807272727273L 635.6666666666667 186.86589090909092L 638 183.77425454545454L 640.3333333333333 186.29861818181817L 642.6666666666667 184.17134545454545L 645 184.9655272727273L 647.3333333333334 178.1696L 649.6666666666666 180.70530909090908L 652 170.80072727272727L 654.3333333333334 177.99374545454546L 656.6666666666666 175.99127272727273L 659 173.75621818181818L 661.3333333333334 175.45803636363638L 663.6666666666666 196.91796363636365L 666 150.30516363636363L 668.3333333333334 167.34036363636363L 670.6666666666666 174.52203636363637L 673 132.05599999999998L 675.3333333333334 144.8309818181818L 677.6666666666666 173.60872727272726L 680 151.91054545454546L 682.3333333333334 194.03621818181819L 684.6666666666666 160.59549090909093L 687 206L 689.3333333333334 153.43650909090908L 691.6666666666666 181.01163636363637L 694 181.6413090909091L 696.3333333333334 182.49221818181817L 698.6666666666666 183.08785454545455L 701 206L 703.3333333333334 151.86516363636363L 705.6666666666666 172.45716363636365L 708 169.20669090909092L 710.3333333333334 178.22065454545455L 712.6666666666666 175.54312727272728L 715 177.61367272727273L 717.3333333333334 181.0173090909091L 719.6666666666666 176.80814545454547L 722 167.8962909090909L 724.3333333333334 167.1248L 726.6666666666667 176.62094545454545L 729 158.63272727272727L 731.3333333333333 151.3602909090909L 733.6666666666667 173.35345454545455L 736 206L 738.3333333333333 206L 740.6666666666667 206L 743 206L 745.3333333333333 206L 747.6666666666667 206L 750 206L 752.3333333333333 206L 754.6666666666667 206L 757 206L 759.3333333333333 206L 761.6666666666666 206L 764 206L 766.3333333333334 206L 768.6666666666666 206L 771 206L 773.3333333333334 206L 775.6666666666666 206L 778 206L 780.3333333333334 206L 782.6666666666666 206L 785 206L 787.3333333333334 206L 789.6666666666666 206L 792 206L 794.3333333333334 206L 796.6666666666666 206L 799 206L 801.3333333333334 206L 803.6666666666666 206L 806 206L 808.3333333333334 206L 810.6666666666666 206L 813 206L 815.3333333333334 206L 817.6666666666666 206L 820 206L 822.3333333333334 206L 824.6666666666666 206L 827 206L 829.3333333333334 206L 831.6666666666666 206L 834 206L 836.3333333333334 206L 838.6666666666666 206L 841 206L 843.3333333333333 206L 845.6666666666667 206L 848 206L 850.3333333333333 206L 852.6666666666667 206L 855 206L 857.3333333333333 206L 859.6666666666667 206L 862 206L 864.3333333333333 206L 866.6666666666667 206L 869 206L 871.3333333333333 206L 873.6666666666667 206L 876 206L 878.3333333333334 206L 880.6666666666666 206L 883 206L 885.3333333333334 206L 887.6666666666666 206L 890 206L 892.3333333333334 206L 894.6666666666666 206L 897 206L 899.3333333333334 206L 901.6666666666666 206L 904 206L 906.3333333333334 206L 908.6666666666666 206L 911 206L 913.3333333333334 206L 915.6666666666666 206L 918 206L 920.3333333333334 206L 922.6666666666666 206L 925 206L 927.3333333333334 206L 929.6666666666666 206L 932 206L 934.3333333333334 206L 936.6666666666666 206L 939 206L 941.3333333333334 206L 943.6666666666666 206L 946 206L 948.3333333333334 206L 950.6666666666666 206L 953 206L 955.3333333333334 206L 957.6666666666667 206L 960 206L 962.3333333333333 206L 964.6666666666667 206L 967 206L 969.3333333333333 206L 971.6666666666667 206L 974 206" stroke-width="2.0" fill="none" />
    
        
        
        <text x="45.0" font-family="-apple-system, system-ui, BlinkMacSystemFont, Roboto" y="50.0" dominant-baseline="middle" text-anchor="end" font-size="12" fill="#24292f">27500.0</text>
        
            
            <path stroke="#74838f" stroke-dasharray="10 6" stroke-width="0.5"  d="M 50.0 50.0 L 974.0 50.0" />
        
    
        
        
        <text x="45.0" font-family="-apple-system, system-ui, BlinkMacSystemFont, Roboto" y="81.2" dominant-baseline="middle" text-anchor="end" font-size="12" fill="#24292f">22000.0</text>
        
            
            
            <path stroke="#74838f" stroke-dasharray="10 6" stroke-width="0.5"  d="M 50.0 81.2 L 974.0 81.2" />
        
    
        
        
        <text x="45.0" font-family="-apple-system, system-ui, BlinkMacSystemFont, Roboto" y="112.4" dominant-baseline="middle" text-anchor="end" font-size="12" fill="#24292f">16500.0</text>
        
            
            
            <path stroke="#74838f" stroke-dasharray="10 6" stroke-width="0.5"  d="M 50.0 112.4 L 974.0 112.4" />
        
    
        
        
        <text x="45.0" font-family="-apple-system, system-ui, BlinkMacSystemFont, Roboto" y="143.6" dominant-baseline="middle" text-anchor="end" font-size="12" fill="#24292f">11000.0</text>
        
            
            
            <path stroke="#74838f" stroke-dasharray="10 6" stroke-width="0.5"  d="M 50.0 143.6 L 974.0 143.6" />
        
    
        
        
        <text x="45.0" font-family="-apple-system, system-ui, BlinkMacSystemFont, Roboto" y="174.8" dominant-baseline="middle" text-anchor="end" font-size="12" fill="#24292f">5500.0</text>
        
            
            
            <path stroke="#74838f" stroke-dasharray="10 6" stroke-width="0.5"  d="M 50.0 174.8 L 974.0 174.8" />
        
    
        
        
        <text x="45.0" font-family="-apple-system, system-ui, BlinkMacSystemFont, Roboto" y="206.0" dominant-baseline="middle" text-anchor="end" font-size="12" fill="#24292f">0.0</text>
        
    
    
        
        <path stroke="#74838f"  stroke-width="2.0"  d="M 87.33333333333334 206.0 L 87.33333333333334 214.0" />
        <text x="87.33333333333334" font-family="-apple-system, system-ui, BlinkMacSystemFont, Roboto" y="216.0" dominant-baseline="hanging" text-anchor="middle" font-size="12" fill="#24292f">Mar 2022</text>
    
        
        <path stroke="#74838f"  stroke-width="2.0"  d="M 159.66666666666669 206.0 L 159.66666666666669 214.0" />
        <text x="159.66666666666669" font-family="-apple-system, system-ui, BlinkMacSystemFont, Roboto" y="216.0" dominant-baseline="hanging" text-anchor="middle" font-size="12" fill="#24292f">Apr 2022</text>
    
        
        <path stroke="#74838f"  stroke-width="2.0"  d="M 229.66666666666666 206.0 L 229.66666666666666 214.0" />
        <text x="229.66666666666666" font-family="-apple-system, system-ui, BlinkMacSystemFont, Roboto" y="216.0" dominant-baseline="hanging" text-anchor="middle" font-size="12" fill="#24292f">May 2022</text>
    
        
        <path stroke="#74838f"  stroke-width="2.0"  d="M 302.0 206.0 L 302.0 214.0" />
        <text x="302.0" font-family="-apple-system, system-ui, BlinkMacSystemFont, Roboto" y="216.0" dominant-baseline="hanging" text-anchor="middle" font-size="12" fill="#24292f">Jun 2022</text>
    
        
        <path stroke="#74838f"  stroke-width="2.0"  d="M 372.0 206.0 L 372.0 214.0" />
        <text x="372.0" font-family="-apple-system, system-ui, BlinkMacSystemFont, Roboto" y="216.0" dominant-baseline="hanging" text-anchor="middle" font-size="12" fill="#24292f">Jul 2022</text>
    
        
        <path stroke="#74838f"  stroke-width="2.0"  d="M 444.3333333333333 206.0 L 444.3333333333333 214.0" />
        <text x="444.3333333333333" font-family="-apple-system, system-ui, BlinkMacSystemFont, Roboto" y="216.0" dominant-baseline="hanging" text-anchor="middle" font-size="12" fill="#24292f">Aug 2022</text>
    
        
        <path stroke="#74838f"  stroke-width="2.0"  d="M 516.6666666666667 206.0 L 516.6666666666667 214.0" />
        <text x="516.6666666666667" font-family="-apple-system, system-ui, BlinkMacSystemFont, Roboto" y="216.0" dominant-baseline="hanging" text-anchor="middle" font-size="12" fill="#24292f">Sep 2022</text>
    
        
        <path stroke="#74838f"  stroke-width="2.0"  d="M 586.6666666666666 206.0 L 586.6666666666666 214.0" />
        <text x="586.6666666666666" font-family="-apple-system, system-ui, BlinkMacSystemFont, Roboto" y="216.0" dominant-baseline="hanging" text-anchor="middle" font-size="12" fill="#24292f">Oct 2022</text>
    
        
        <path stroke="#74838f"  stroke-width="2.0"  d="M 659.0 206.0 L 659.0 214.0" />
        <text x="659.0" font-family="-apple-system, system-ui, BlinkMacSystemFont, Roboto" y="216.0" dominant-baseline="hanging" text-anchor="middle" font-size="12" fill="#24292f">Nov 2022</text>
    
        
        <path stroke="#74838f"  stroke-width="2.0"  d="M 729.0 206.0 L 729.0 214.0" />
        <text x="729.0" font-family="-apple-system, system-ui, BlinkMacSystemFont, Roboto" y="216.0" dominant-baseline="hanging" text-anchor="middle" font-size="12" fill="#24292f">Dec 2022</text>
    
        
        <path stroke="#74838f"  stroke-width="2.0"  d="M 801.3333333333334 206.0 L 801.3333333333334 214.0" />
        <text x="801.3333333333334" font-family="-apple-system, system-ui, BlinkMacSystemFont, Roboto" y="216.0" dominant-baseline="hanging" text-anchor="middle" font-size="12" fill="#24292f">Jan 2023</text>
    
        
        <path stroke="#74838f"  stroke-width="2.0"  d="M 873.6666666666667 206.0 L 873.6666666666667 214.0" />
        <text x="873.6666666666667" font-family="-apple-system, system-ui, BlinkMacSystemFont, Roboto" y="216.0" dominant-baseline="hanging" text-anchor="middle" font-size="12" fill="#24292f">Feb 2023</text>
    
        
        <path stroke="#74838f"  stroke-width="2.0"  d="M 939.0 206.0 L 939.0 214.0" />
        <text x="939.0" font-family="-apple-system, system-ui, BlinkMacSystemFont, Roboto" y="216.0" dominant-baseline="hanging" text-anchor="middle" font-size="12" fill="#24292f">Mar 2023</text>
    
    <path stroke="#74838f"   stroke-linejoin="round" stroke-width="2.0" d="M 50.0 216.0 L 50.0 206.0 L 974.0 206.0 L 974.0 216.0"  fill="none" />
    <text x="512.0" y="25.0" font-family="-apple-system, system-ui, BlinkMacSystemFont, Roboto" dominant-baseline="middle" text-anchor="middle" font-size="18" fill="#24292f">Total daily screen name changes</text>
</svg>
