<?xml version="1.0" standalone="no"?>
<svg width="1024.0" height="256.0"  viewBox="0 0 1024.0 256.0" preserveAspectRatio="xMidYMid meet" xmlns="http://www.w3.org/2000/svg">
    <path stroke="#3498db" stroke-linejoin="round" d="M 50.0 203.3394909090909 L 50 203.3394909090909L 51.92901878914405 202.32974545454545L 53.8580375782881 196.86690909090908L 55.78705636743215 195.94792727272727L 57.7160751565762 202.14254545454546L 59.64509394572025 197.35476363636363L 61.5741127348643 191.76145454545454L 63.50313152400835 179.96218181818182L 65.4321503131524 204.09396363636364L 67.36116910229646 194.17236363636363L 69.2901878914405 192.61803636363635L 71.21920668058455 195.1253818181818L 73.1482254697286 193.92843636363637L 75.07724425887265 182.2482909090909L 77.0062630480167 200.86618181818181L 78.93528183716074 201.45614545454546L 80.8643006263048 178.89003636363637L 82.79331941544885 197.33774545454546L 84.7223382045929 198.50065454545455L 86.65135699373695 200.41803636363636L 88.58037578288099 201.18385454545455L 90.50939457202506 202.26734545454545L 92.4384133611691 195.09134545454546L 94.36743215031315 198.08087272727272L 96.2964509394572 183.38850909090908L 98.22546972860125 197.47389090909093L 100.1544885177453 202.01774545454546L 102.08350730688935 194.66021818181818L 104.0125260960334 200.75272727272727L 105.94154488517745 200.00392727272728L 107.8705636743215 201.97236363636364L 109.79958246346555 204.2754909090909L 111.7286012526096 201.74545454545455L 113.65762004175366 201.01367272727273L 115.5866388308977 174.7829818181818L 117.51565762004175 195.76072727272728L 119.4446764091858 204.0032L 121.37369519832984 203.7309090909091L 123.30271398747391 197.87665454545453L 125.23173277661796 202.60770909090908L 127.160751565762 202.6928L 129.08977035490605 197.55898181818182L 131.01878914405012 186.5141818181818L 132.94780793319416 199.26647272727274L 134.8768267223382 199.5728L 136.80584551148223 193.4802909090909L 138.7348643006263 199.10763636363635L 140.66388308977037 201.54690909090908L 142.5929018789144 201.5696L 144.52192066805844 195.06865454545454L 146.4509394572025 201.70007272727273L 148.37995824634655 197.2866909090909L 150.3089770354906 172.35505454545455L 152.23799582463465 203.20901818181818L 154.1670146137787 199.6749090909091L 156.09603340292276 193.12858181818183L 158.0250521920668 196.8896L 159.95407098121086 199.78836363636364L 161.8830897703549 198.82967272727274L 163.81210855949894 204.1336727272727L 165.741127348643 202.57934545454546L 167.67014613778707 198.9261090909091L 169.5991649269311 206L 171.52818371607515 204.128L 173.4572025052192 192.1245090909091L 175.38622129436325 206L 177.31524008350732 206L 179.24425887265136 206L 181.1732776617954 206L 183.10229645093943 197.37178181818183L 185.0313152400835 199.57847272727273L 186.96033402922757 188.9024L 188.8893528183716 195.02894545454546L 190.81837160751567 191.20552727272727L 192.74739039665968 166.8128L 194.67640918580375 203.8386909090909L 196.60542797494782 198.09221818181817L 198.53444676409185 201.64334545454545L 200.46346555323592 202.2957090909091L 202.39248434237996 203.22036363636363L 204.321503131524 200.66763636363635L 206.25052192066806 191.51185454545455L 208.1795407098121 189.18603636363636L 210.10855949895617 203.86705454545455L 212.03757828810024 197.56465454545454L 213.96659707724424 187.32538181818182L 215.8956158663883 201.2349090909091L 217.82463465553235 200.44639999999998L 219.75365344467642 201.4618181818182L 221.68267223382048 201.09876363636363L 223.6116910229645 201.17818181818183L 225.54070981210856 193.02647272727273L 227.4697286012526 198.8069818181818L 229.39874739039666 203.39054545454545L 231.32776617954073 200.30458181818182L 233.25678496868477 198.35883636363636L 235.1858037578288 193.3101090909091L 237.11482254697285 200.56552727272728L 239.0438413361169 203.03883636363636L 240.97286012526098 197.22996363636364L 242.90187891440502 201.95534545454547L 244.83089770354906 196.016L 246.7599164926931 202.30705454545455L 248.68893528183716 199.91316363636363L 250.61795407098123 194.62050909090908L 252.54697286012527 201.29163636363637L 254.4759916492693 202.98778181818182L 256.40501043841334 203.5437090909091L 258.3340292275574 200.60523636363638L 260.2630480167015 195.5621818181818L 262.1920668058455 203.24305454545456L 264.1210855949896 200.15709090909093L 266.0501043841336 198.46661818181818L 267.9791231732777 201.70007272727273L 269.9081419624217 200.70734545454545L 271.83716075156576 200.4293818181818L 273.7661795407098 201.76814545454545L 275.69519832985384 204.6442181818182L 277.6242171189979 206L 279.55323590814197 196.35636363636365L 281.482254697286 199.21541818181817L 283.41127348643005 156.87418181818182L 285.34029227557414 165.1506909090909L 287.2693110647182 204.1733818181818L 289.1983298538622 202.17658181818183L 291.12734864300626 199.31185454545454L 293.0563674321503 198.7842909090909L 294.98538622129433 202.6757818181818L 296.9144050104384 202.8573090909091L 298.84342379958247 196.1861818181818L 300.7724425887265 199.64654545454545L 302.70146137787054 198.2056727272727L 304.63048016701464 201.2178909090909L 306.5594989561587 201.79083636363637L 308.4885177453027 201.90429090909092L 310.4175365344468 200.1968L 312.3465553235908 195.17076363636363L 314.27557411273483 206L 316.20459290187887 206L 318.13361169102296 206L 320.062630480167 191.4834909090909L 321.99164926931104 197.79723636363636L 323.92066805845513 198.85236363636363L 325.8496868475992 199.76L 327.7787056367432 200.03796363636363L 329.7077244258873 200.76407272727272L 331.63674321503134 201.80785454545455L 333.5657620041754 191.63098181818182L 335.49478079331936 194.41061818181817L 337.42379958246346 199.88479999999998L 339.3528183716075 152.63098181818182L 341.28183716075154 197.04843636363637L 343.21085594989563 194.4730181818182L 345.13987473903967 155.90414545454547L 347.0688935281837 91.60945454545454L 348.9979123173278 104.5376L 350.92693110647184 151.17876363636364L 352.8559498956159 185.1981090909091L 354.7849686847599 142.76610909090908L 356.71398747390396 125.0672L 358.643006263048 123.74545454545455L 360.57202505219203 157.99738181818182L 362.5010438413361 53.56814545454546L 364.43006263048017 50.78850909090909L 366.3590814196242 100.02210909090908L 368.2881002087683 156.2445090909091L 370.21711899791234 180.31956363636363L 372.1461377870564 192.43650909090908L 374.07515657620047 193.63912727272728L 376.00417536534445 193.3328L 377.9331941544885 192.11316363636365L 379.8622129436325 197.93338181818183L 381.7912317327766 191.5629090909091L 383.72025052192066 198.7672727272727L 385.6492693110647 199.3005090909091L 387.5782881002088 201.64901818181818L 389.50730688935283 200.58821818181818L 391.43632567849687 202.43752727272727L 393.36534446764097 200.73003636363637L 395.294363256785 189.7703272727273L 397.223382045929 203.17498181818183L 399.152400835073 200.48610909090908L 401.0814196242171 185.1810909090909L 403.01043841336116 187.88698181818182L 404.9394572025052 191.01832727272728L 406.8684759916493 192.31738181818181L 408.79749478079333 177.09745454545455L 410.72651356993737 167.91330909090908L 412.65553235908146 179.30981818181817L 414.5845511482255 186.49716363636364L 416.51356993736954 150.34487272727273L 418.4425887265135 184.27345454545454L 420.3716075156576 199.5104L 422.30062630480165 161.24785454545454L 424.2296450939457 155.49003636363636L 426.1586638830898 176.96130909090908L 428.0876826722338 190.30923636363636L 430.01670146137786 193.50865454545453L 431.94572025052196 201.72843636363638L 433.874739039666 185.22647272727272L 435.80375782881003 192.03374545454545L 437.7327766179541 192.66909090909093L 439.6617954070981 180.18341818181818L 441.59081419624215 194.5013818181818L 443.5198329853862 194.6829090909091L 445.4488517745303 201.85323636363637L 447.3778705636743 196.2032L 449.30688935281836 204.49105454545455L 451.23590814196245 191.55723636363638L 453.1649269311065 180.36494545454545L 455.09394572025053 193.02647272727273L 457.02296450939457 186.20785454545455L 458.9519832985386 191.72741818181817L 460.88100208768265 191.4834909090909L 462.8100208768267 196.63432727272726L 464.7390396659708 200.7810909090909L 466.6680584551148 176.26923636363637L 468.59707724425886 165.78036363636363L 470.52609603340295 181.82850909090908L 472.455114822547 160.6976L 474.384133611691 163.93105454545454L 476.31315240083507 182.10647272727272L 478.24217118997916 130.808L 480.1711899791232 190.49643636363635L 482.1002087682672 202.0914909090909L 484.0292275574113 184.09192727272728L 485.9582463465553 197.50225454545455L 487.88726513569935 187.54094545454547L 489.81628392484345 192.95272727272726L 491.7453027139875 201.88727272727272L 493.6743215031315 184.33585454545454L 495.60334029227556 183.04814545454545L 497.53235908141966 182.36741818181818L 499.4613778705637 182.54327272727272L 501.39039665970773 186.38938181818182L 503.31941544885177 174.3858909090909L 505.2484342379958 183.1786181818182L 507.17745302713985 183.5133090909091L 509.10647181628394 184.60247272727273L 511.035490605428 186.968L 512.964509394572 170.00087272727274L 514.8935281837161 167.8338909090909L 516.8225469728601 203.32247272727273L 518.7515657620042 206L 520.6805845511483 128.43112727272728L 522.6096033402923 183.2637090909091L 524.5386221294364 156.8685090909091L 526.4676409185804 183.15592727272727L 528.3966597077244 183.2013090909091L 530.3256784968685 182.25963636363636L 532.2546972860125 170.18807272727273L 534.1837160751566 186.86589090909092L 536.1127348643006 183.77425454545454L 538.0417536534446 186.29861818181817L 539.9707724425887 184.17134545454545L 541.8997912317327 184.9655272727273L 543.8288100208767 178.1696L 545.7578288100209 180.70530909090908L 547.6868475991649 170.80072727272727L 549.615866388309 177.99374545454546L 551.544885177453 175.99127272727273L 553.473903966597 173.75621818181818L 555.4029227557411 175.45803636363638L 557.3319415448852 196.91796363636365L 559.2609603340293 150.30516363636363L 561.1899791231733 167.34036363636363L 563.1189979123174 174.52203636363637L 565.0480167014614 132.05599999999998L 566.9770354906054 144.8309818181818L 568.9060542797495 173.60872727272726L 570.8350730688936 151.91054545454546L 572.7640918580377 194.03621818181819L 574.6931106471816 160.59549090909093L 576.6221294363256 206L 578.5511482254697 153.43650909090908L 580.4801670146137 181.01163636363637L 582.4091858037577 181.6413090909091L 584.3382045929019 182.49221818181817L 586.2672233820459 183.08785454545455L 588.19624217119 206L 590.125260960334 151.86516363636363L 592.054279749478 172.45716363636365L 593.9832985386221 169.20669090909092L 595.9123173277662 178.22065454545455L 597.8413361169103 175.54312727272728L 599.7703549060543 177.61367272727273L 601.6993736951983 181.0173090909091L 603.6283924843424 176.80814545454547L 605.5574112734864 167.8962909090909L 607.4864300626305 167.1248L 609.4154488517746 176.62094545454545L 611.3444676409187 158.63272727272727L 613.2734864300627 151.3602909090909L 615.2025052192067 173.35345454545455L 617.1315240083508 206L 619.0605427974947 206L 620.9895615866387 206L 622.9185803757829 206L 624.8475991649269 206L 626.776617954071 206L 628.705636743215 206L 630.634655532359 206L 632.5636743215031 206L 634.4926931106472 206L 636.4217118997913 206L 638.3507306889353 206L 640.2797494780793 206L 642.2087682672234 206L 644.1377870563674 206L 646.0668058455115 206L 647.9958246346556 206L 649.9248434237996 206L 651.8538622129437 206L 653.7828810020877 206L 655.7118997912318 206L 657.6409185803758 206L 659.5699373695198 206L 661.4989561586639 206L 663.4279749478079 206L 665.356993736952 206L 667.286012526096 206L 669.21503131524 206L 671.1440501043841 206L 673.0730688935282 206L 675.0020876826723 206L 676.9311064718163 206L 678.8601252609603 206L 680.7891440501044 206L 682.7181628392484 206L 684.6471816283924 206L 686.5762004175366 206L 688.5052192066806 206L 690.4342379958247 206L 692.3632567849687 206L 694.2922755741128 206L 696.2212943632568 206L 698.1503131524009 206L 700.0793319415449 206L 702.0083507306889 206L 703.9373695198329 206L 705.866388308977 206L 707.795407098121 206L 709.724425887265 206L 711.6534446764092 206L 713.5824634655532 206L 715.5114822546973 206L 717.4405010438413 206L 719.3695198329854 206L 721.2985386221294 206L 723.2275574112734 206L 725.1565762004176 206L 727.0855949895616 206L 729.0146137787057 206L 730.9436325678497 206L 732.8726513569937 206L 734.8016701461378 206L 736.7306889352819 206L 738.659707724426 206L 740.58872651357 206L 742.517745302714 206L 744.446764091858 206L 746.375782881002 206L 748.304801670146 206L 750.2338204592902 206L 752.1628392484342 206L 754.0918580375783 206L 756.0208768267223 206L 757.9498956158664 206L 759.8789144050104 206L 761.8079331941544 206L 763.7369519832986 206L 765.6659707724426 206L 767.5949895615867 206L 769.5240083507307 206L 771.4530271398747 206L 773.3820459290188 206L 775.3110647181629 206L 777.240083507307 206L 779.169102296451 206L 781.098121085595 206L 783.0271398747391 206L 784.9561586638831 206L 786.885177453027 206L 788.8141962421712 206L 790.7432150313152 206L 792.6722338204593 206L 794.6012526096033 206L 796.5302713987473 206L 798.4592901878914 206L 800.3883089770354 206L 802.3173277661796 206L 804.2463465553236 206L 806.1753653444677 206L 808.1043841336117 206L 810.0334029227557 206L 811.9624217118998 206L 813.8914405010439 206L 815.820459290188 206L 817.749478079332 206L 819.678496868476 206L 821.6075156576201 206L 823.5365344467641 206L 825.4655532359081 206L 827.3945720250522 206L 829.3235908141962 206L 831.2526096033403 206L 833.1816283924843 206L 835.1106471816283 206L 837.0396659707724 206L 838.9686847599164 206L 840.8977035490606 206L 842.8267223382046 206L 844.7557411273486 206L 846.6847599164927 206L 848.6137787056367 206L 850.5427974947808 206L 852.4718162839249 206L 854.400835073069 206L 856.329853862213 206L 858.258872651357 206L 860.1878914405011 206L 862.1169102296451 206L 864.0459290187891 206L 865.9749478079333 206L 867.9039665970772 206L 869.8329853862213 206L 871.7620041753653 206L 873.6910229645093 206L 875.6200417536534 206L 877.5490605427974 206L 879.4780793319416 206L 881.4070981210856 206L 883.3361169102296 206L 885.2651356993737 206L 887.1941544885177 206L 889.1231732776617 206L 891.0521920668059 206L 892.9812108559499 206L 894.910229645094 206L 896.839248434238 206L 898.768267223382 206L 900.6972860125261 206L 902.6263048016701 206L 904.5553235908143 206L 906.4843423799583 206L 908.4133611691024 206L 910.3423799582464 206L 912.2713987473903 206L 914.2004175365344 206L 916.1294363256784 206L 918.0584551148226 206L 919.9874739039666 206L 921.9164926931106 206L 923.8455114822547 206L 925.7745302713987 206L 927.7035490605427 206L 929.6325678496869 206L 931.5615866388309 206L 933.490605427975 206L 935.419624217119 206L 937.348643006263 206L 939.2776617954071 206L 941.2066805845511 206L 943.1356993736953 206L 945.0647181628393 206L 946.9937369519834 206L 948.9227557411274 206L 950.8517745302714 206L 952.7807933194155 206L 954.7098121085595 206L 956.6388308977035 206L 958.5678496868476 206L 960.4968684759916 206L 962.4258872651357 206L 964.3549060542797 206L 966.2839248434237 206L 968.2129436325679 206L 970.1419624217119 206L 972.070981210856 206L 974 206" stroke-width="2.0" fill="none" />
    
        
        
        <text x="45.0" font-family="-apple-system, system-ui, BlinkMacSystemFont, Roboto" y="50.0" dominant-baseline="middle" text-anchor="end" font-size="12" fill="#24292f">27500.0</text>
        
            
            <path stroke="#74838f" stroke-dasharray="10 6" stroke-width="0.5"  d="M 50.0 50.0 L 974.0 50.0" />
        
    
        
        
        <text x="45.0" font-family="-apple-system, system-ui, BlinkMacSystemFont, Roboto" y="81.2" dominant-baseline="middle" text-anchor="end" font-size="12" fill="#24292f">22000.0</text>
        
            
            
            <path stroke="#74838f" stroke-dasharray="10 6" stroke-width="0.5"  d="M 50.0 81.2 L 974.0 81.2" />
        
    
        
        
        <text x="45.0" font-family="-apple-system, system-ui, BlinkMacSystemFont, Roboto" y="112.4" dominant-baseline="middle" text-anchor="end" font-size="12" fill="#24292f">16500.0</text>
        
            
            
            <path stroke="#74838f" stroke-dasharray="10 6" stroke-width="0.5"  d="M 50.0 112.4 L 974.0 112.4" />
        
    
        
        
        <text x="45.0" font-family="-apple-system, system-ui, BlinkMacSystemFont, Roboto" y="143.6" dominant-baseline="middle" text-anchor="end" font-size="12" fill="#24292f">11000.0</text>
        
            
            
            <path stroke="#74838f" stroke-dasharray="10 6" stroke-width="0.5"  d="M 50.0 143.6 L 974.0 143.6" />
        
    
        
        
        <text x="45.0" font-family="-apple-system, system-ui, BlinkMacSystemFont, Roboto" y="174.8" dominant-baseline="middle" text-anchor="end" font-size="12" fill="#24292f">5500.0</text>
        
            
            
            <path stroke="#74838f" stroke-dasharray="10 6" stroke-width="0.5"  d="M 50.0 174.8 L 974.0 174.8" />
        
    
        
        
        <text x="45.0" font-family="-apple-system, system-ui, BlinkMacSystemFont, Roboto" y="206.0" dominant-baseline="middle" text-anchor="end" font-size="12" fill="#24292f">0.0</text>
        
    
    
        
        <path stroke="#74838f"  stroke-width="2.0"  d="M 80.8643006263048 206.0 L 80.8643006263048 214.0" />
        <text x="80.8643006263048" font-family="-apple-system, system-ui, BlinkMacSystemFont, Roboto" y="216.0" dominant-baseline="hanging" text-anchor="middle" font-size="12" fill="#24292f">Mar 2022</text>
    
        
        <path stroke="#74838f"  stroke-width="2.0"  d="M 140.66388308977037 206.0 L 140.66388308977037 214.0" />
        <text x="140.66388308977037" font-family="-apple-system, system-ui, BlinkMacSystemFont, Roboto" y="216.0" dominant-baseline="hanging" text-anchor="middle" font-size="12" fill="#24292f">Apr 2022</text>
    
        
        <path stroke="#74838f"  stroke-width="2.0"  d="M 198.53444676409185 206.0 L 198.53444676409185 214.0" />
        <text x="198.53444676409185" font-family="-apple-system, system-ui, BlinkMacSystemFont, Roboto" y="216.0" dominant-baseline="hanging" text-anchor="middle" font-size="12" fill="#24292f">May 2022</text>
    
        
        <path stroke="#74838f"  stroke-width="2.0"  d="M 258.3340292275574 206.0 L 258.3340292275574 214.0" />
        <text x="258.3340292275574" font-family="-apple-system, system-ui, BlinkMacSystemFont, Roboto" y="216.0" dominant-baseline="hanging" text-anchor="middle" font-size="12" fill="#24292f">Jun 2022</text>
    
        
        <path stroke="#74838f"  stroke-width="2.0"  d="M 316.20459290187887 206.0 L 316.20459290187887 214.0" />
        <text x="316.20459290187887" font-family="-apple-system, system-ui, BlinkMacSystemFont, Roboto" y="216.0" dominant-baseline="hanging" text-anchor="middle" font-size="12" fill="#24292f">Jul 2022</text>
    
        
        <path stroke="#74838f"  stroke-width="2.0"  d="M 376.00417536534445 206.0 L 376.00417536534445 214.0" />
        <text x="376.00417536534445" font-family="-apple-system, system-ui, BlinkMacSystemFont, Roboto" y="216.0" dominant-baseline="hanging" text-anchor="middle" font-size="12" fill="#24292f">Aug 2022</text>
    
        
        <path stroke="#74838f"  stroke-width="2.0"  d="M 435.80375782881003 206.0 L 435.80375782881003 214.0" />
        <text x="435.80375782881003" font-family="-apple-system, system-ui, BlinkMacSystemFont, Roboto" y="216.0" dominant-baseline="hanging" text-anchor="middle" font-size="12" fill="#24292f">Sep 2022</text>
    
        
        <path stroke="#74838f"  stroke-width="2.0"  d="M 493.6743215031315 206.0 L 493.6743215031315 214.0" />
        <text x="493.6743215031315" font-family="-apple-system, system-ui, BlinkMacSystemFont, Roboto" y="216.0" dominant-baseline="hanging" text-anchor="middle" font-size="12" fill="#24292f">Oct 2022</text>
    
        
        <path stroke="#74838f"  stroke-width="2.0"  d="M 553.473903966597 206.0 L 553.473903966597 214.0" />
        <text x="553.473903966597" font-family="-apple-system, system-ui, BlinkMacSystemFont, Roboto" y="216.0" dominant-baseline="hanging" text-anchor="middle" font-size="12" fill="#24292f">Nov 2022</text>
    
        
        <path stroke="#74838f"  stroke-width="2.0"  d="M 611.3444676409187 206.0 L 611.3444676409187 214.0" />
        <text x="611.3444676409187" font-family="-apple-system, system-ui, BlinkMacSystemFont, Roboto" y="216.0" dominant-baseline="hanging" text-anchor="middle" font-size="12" fill="#24292f">Dec 2022</text>
    
        
        <path stroke="#74838f"  stroke-width="2.0"  d="M 671.1440501043841 206.0 L 671.1440501043841 214.0" />
        <text x="671.1440501043841" font-family="-apple-system, system-ui, BlinkMacSystemFont, Roboto" y="216.0" dominant-baseline="hanging" text-anchor="middle" font-size="12" fill="#24292f">Jan 2023</text>
    
        
        <path stroke="#74838f"  stroke-width="2.0"  d="M 730.9436325678497 206.0 L 730.9436325678497 214.0" />
        <text x="730.9436325678497" font-family="-apple-system, system-ui, BlinkMacSystemFont, Roboto" y="216.0" dominant-baseline="hanging" text-anchor="middle" font-size="12" fill="#24292f">Feb 2023</text>
    
        
        <path stroke="#74838f"  stroke-width="2.0"  d="M 784.9561586638831 206.0 L 784.9561586638831 214.0" />
        <text x="784.9561586638831" font-family="-apple-system, system-ui, BlinkMacSystemFont, Roboto" y="216.0" dominant-baseline="hanging" text-anchor="middle" font-size="12" fill="#24292f">Mar 2023</text>
    
        
        <path stroke="#74838f"  stroke-width="2.0"  d="M 844.7557411273486 206.0 L 844.7557411273486 214.0" />
        <text x="844.7557411273486" font-family="-apple-system, system-ui, BlinkMacSystemFont, Roboto" y="216.0" dominant-baseline="hanging" text-anchor="middle" font-size="12" fill="#24292f">Apr 2023</text>
    
        
        <path stroke="#74838f"  stroke-width="2.0"  d="M 902.6263048016701 206.0 L 902.6263048016701 214.0" />
        <text x="902.6263048016701" font-family="-apple-system, system-ui, BlinkMacSystemFont, Roboto" y="216.0" dominant-baseline="hanging" text-anchor="middle" font-size="12" fill="#24292f">May 2023</text>
    
        
        <path stroke="#74838f"  stroke-width="2.0"  d="M 962.4258872651357 206.0 L 962.4258872651357 214.0" />
        <text x="962.4258872651357" font-family="-apple-system, system-ui, BlinkMacSystemFont, Roboto" y="216.0" dominant-baseline="hanging" text-anchor="middle" font-size="12" fill="#24292f">Jun 2023</text>
    
    <path stroke="#74838f"   stroke-linejoin="round" stroke-width="2.0" d="M 50.0 216.0 L 50.0 206.0 L 974.0 206.0 L 974.0 216.0"  fill="none" />
    <text x="512.0" y="25.0" font-family="-apple-system, system-ui, BlinkMacSystemFont, Roboto" dominant-baseline="middle" text-anchor="middle" font-size="18" fill="#24292f">Total daily screen name changes</text>
</svg>
