<?xml version="1.0" standalone="no"?>
<svg width="1024.0" height="256.0"  viewBox="0 0 1024.0 256.0" preserveAspectRatio="xMidYMid meet" xmlns="http://www.w3.org/2000/svg">
    <path stroke="#3498db" stroke-linejoin="round" d="M 50.0 203.3394909090909 L 50 203.3394909090909L 52.36923076923077 202.32974545454545L 54.738461538461536 196.86690909090908L 57.10769230769231 195.94792727272727L 59.47692307692308 202.14254545454546L 61.84615384615385 197.35476363636363L 64.21538461538462 191.76145454545454L 66.58461538461538 179.96218181818182L 68.95384615384616 204.09396363636364L 71.32307692307693 194.17236363636363L 73.6923076923077 192.61803636363635L 76.06153846153846 195.1253818181818L 78.43076923076923 193.92843636363637L 80.8 182.2482909090909L 83.16923076923077 200.86618181818181L 85.53846153846155 201.45614545454546L 87.90769230769232 178.89003636363637L 90.27692307692308 197.33774545454546L 92.64615384615385 198.50065454545455L 95.01538461538462 200.41803636363636L 97.38461538461539 201.18385454545455L 99.75384615384615 202.26734545454545L 102.12307692307692 195.09134545454546L 104.49230769230769 198.08087272727272L 106.86153846153846 183.38850909090908L 109.23076923076923 197.47389090909093L 111.6 202.01774545454546L 113.96923076923076 194.66021818181818L 116.33846153846153 200.75272727272727L 118.70769230769231 200.00392727272728L 121.07692307692308 201.97236363636364L 123.44615384615385 204.2754909090909L 125.81538461538462 201.74545454545455L 128.18461538461537 201.01367272727273L 130.55384615384617 174.7829818181818L 132.9230769230769 195.76072727272728L 135.2923076923077 204.0032L 137.66153846153844 203.7309090909091L 140.03076923076924 197.87665454545453L 142.4 202.60770909090908L 144.76923076923077 202.6928L 147.13846153846154 197.55898181818182L 149.5076923076923 186.5141818181818L 151.87692307692308 199.26647272727274L 154.24615384615385 199.5728L 156.61538461538464 193.4802909090909L 158.98461538461538 199.10763636363635L 161.35384615384615 201.54690909090908L 163.72307692307692 201.5696L 166.09230769230768 195.06865454545454L 168.46153846153845 201.70007272727273L 170.83076923076925 197.2866909090909L 173.2 172.35505454545455L 175.56923076923076 203.20901818181818L 177.93846153846152 199.6749090909091L 180.3076923076923 193.12858181818183L 182.67692307692306 196.8896L 185.04615384615386 199.78836363636364L 187.41538461538462 198.82967272727274L 189.78461538461536 204.1336727272727L 192.15384615384616 202.57934545454546L 194.52307692307693 198.9261090909091L 196.8923076923077 206L 199.26153846153846 204.128L 201.63076923076923 192.1245090909091L 204 206L 206.36923076923077 206L 208.73846153846154 206L 211.1076923076923 206L 213.4769230769231 197.37178181818183L 215.84615384615384 199.57847272727273L 218.2153846153846 188.9024L 220.5846153846154 195.02894545454546L 222.95384615384614 191.20552727272727L 225.3230769230769 166.8128L 227.6923076923077 203.8386909090909L 230.06153846153848 198.09221818181817L 232.43076923076922 201.64334545454545L 234.8 202.2957090909091L 237.16923076923078 203.22036363636363L 239.53846153846152 200.66763636363635L 241.90769230769232 191.51185454545455L 244.27692307692308 189.18603636363636L 246.64615384615385 203.86705454545455L 249.01538461538462 197.56465454545454L 251.3846153846154 187.32538181818182L 253.75384615384615 201.2349090909091L 256.12307692307695 200.44639999999998L 258.4923076923077 201.4618181818182L 260.86153846153843 201.09876363636363L 263.2307692307693 201.17818181818183L 265.6 193.02647272727273L 267.96923076923076 198.8069818181818L 270.33846153846156 203.39054545454545L 272.7076923076923 200.30458181818182L 275.0769230769231 198.35883636363636L 277.44615384615383 193.3101090909091L 279.81538461538463 200.56552727272728L 282.18461538461537 203.03883636363636L 284.55384615384617 197.22996363636364L 286.9230769230769 201.95534545454547L 289.2923076923077 196.016L 291.6615384615385 202.30705454545455L 294.03076923076924 199.91316363636363L 296.4 194.62050909090908L 298.7692307692307 201.29163636363637L 301.1384615384615 202.98778181818182L 303.5076923076923 203.5437090909091L 305.87692307692305 200.60523636363638L 308.24615384615385 195.5621818181818L 310.6153846153846 203.24305454545456L 312.9846153846154 200.15709090909093L 315.3538461538461 198.46661818181818L 317.723076923077 201.70007272727273L 320.0923076923077 200.70734545454545L 322.46153846153845 200.4293818181818L 324.83076923076925 201.76814545454545L 327.2 204.6442181818182L 329.5692307692307 206L 331.9384615384616 196.35636363636365L 334.3076923076923 199.21541818181817L 336.67692307692306 156.87418181818182L 339.04615384615386 165.1506909090909L 341.4153846153846 204.1733818181818L 343.7846153846154 202.17658181818183L 346.1538461538462 199.31185454545454L 348.5230769230769 198.7842909090909L 350.8923076923077 202.6757818181818L 353.26153846153846 202.8573090909091L 355.6307692307692 196.1861818181818L 358 199.64654545454545L 360.36923076923074 198.2056727272727L 362.73846153846154 201.2178909090909L 365.10769230769233 201.79083636363637L 367.4769230769231 201.90429090909092L 369.8461538461538 200.1968L 372.2153846153846 195.17076363636363L 374.58461538461535 206L 376.9538461538462 206L 379.32307692307694 206L 381.6923076923077 191.4834909090909L 384.0615384615385 197.79723636363636L 386.4307692307692 198.85236363636363L 388.79999999999995 199.76L 391.1692307692308 200.03796363636363L 393.53846153846155 200.76407272727272L 395.9076923076923 201.80785454545455L 398.2769230769231 191.63098181818182L 400.6461538461538 194.41061818181817L 403.0153846153846 199.88479999999998L 405.3846153846154 152.63098181818182L 407.75384615384615 197.04843636363637L 410.12307692307695 194.4730181818182L 412.4923076923077 155.90414545454547L 414.86153846153843 91.60945454545454L 417.2307692307692 104.5376L 419.6 151.17876363636364L 421.96923076923076 185.1981090909091L 424.33846153846156 142.76610909090908L 426.7076923076923 125.0672L 429.07692307692304 123.74545454545455L 431.44615384615383 157.99738181818182L 433.81538461538463 53.56814545454546L 436.18461538461537 50.78850909090909L 438.55384615384617 100.02210909090908L 440.9230769230769 156.2445090909091L 443.2923076923077 180.31956363636363L 445.66153846153844 192.43650909090908L 448.03076923076924 193.63912727272728L 450.40000000000003 193.3328L 452.7692307692308 192.11316363636365L 455.1384615384615 197.93338181818183L 457.5076923076923 191.5629090909091L 459.87692307692305 198.7672727272727L 462.24615384615385 199.3005090909091L 464.61538461538464 201.64901818181818L 466.9846153846154 200.58821818181818L 469.3538461538462 202.43752727272727L 471.7230769230769 200.73003636363637L 474.09230769230766 189.7703272727273L 476.4615384615385 203.17498181818183L 478.83076923076925 200.48610909090908L 481.2 185.1810909090909L 483.5692307692308 187.88698181818182L 485.9384615384615 191.01832727272728L 488.30769230769226 192.31738181818181L 490.6769230769231 177.09745454545455L 493.04615384615386 167.91330909090908L 495.4153846153846 179.30981818181817L 497.7846153846154 186.49716363636364L 500.15384615384613 150.34487272727273L 502.5230769230769 184.27345454545454L 504.8923076923077 199.5104L 507.26153846153846 161.24785454545454L 509.63076923076926 155.49003636363636L 512 176.96130909090908L 514.3692307692307 190.30923636363636L 516.7384615384615 193.50865454545453L 519.1076923076923 201.72843636363638L 521.4769230769231 185.22647272727272L 523.8461538461538 192.03374545454545L 526.2153846153846 192.66909090909093L 528.5846153846154 180.18341818181818L 530.9538461538461 194.5013818181818L 533.323076923077 194.6829090909091L 535.6923076923077 201.85323636363637L 538.0615384615385 196.2032L 540.4307692307692 204.49105454545455L 542.8 191.55723636363638L 545.1692307692308 180.36494545454545L 547.5384615384614 193.02647272727273L 549.9076923076923 186.20785454545455L 552.276923076923 191.72741818181817L 554.6461538461538 191.4834909090909L 557.0153846153846 196.63432727272726L 559.3846153846155 200.7810909090909L 561.7538461538461 176.26923636363637L 564.123076923077 165.78036363636363L 566.4923076923077 181.82850909090908L 568.8615384615384 160.6976L 571.2307692307692 163.93105454545454L 573.6 182.10647272727272L 575.9692307692308 130.808L 578.3384615384615 190.49643636363635L 580.7076923076922 202.0914909090909L 583.076923076923 184.09192727272728L 585.446153846154 197.50225454545455L 587.8153846153847 187.54094545454547L 590.1846153846154 192.95272727272726L 592.5538461538462 201.88727272727272L 594.9230769230769 184.33585454545454L 597.2923076923076 183.04814545454545L 599.6615384615385 182.36741818181818L 602.0307692307692 182.54327272727272L 604.4 186.38938181818182L 606.7692307692307 174.3858909090909L 609.1384615384615 183.1786181818182L 611.5076923076923 183.5133090909091L 613.8769230769232 184.60247272727273L 616.2461538461539 186.968L 618.6153846153846 170.00087272727274L 620.9846153846154 167.8338909090909L 623.3538461538461 203.32247272727273L 625.723076923077 206L 628.0923076923077 128.43112727272728L 630.4615384615385 183.2637090909091L 632.8307692307692 156.8685090909091L 635.1999999999999 183.15592727272727L 637.5692307692308 183.2013090909091L 639.9384615384615 182.25963636363636L 642.3076923076924 170.18807272727273L 644.6769230769231 186.86589090909092L 647.0461538461539 183.77425454545454L 649.4153846153846 186.29861818181817L 651.7846153846154 184.17134545454545L 654.1538461538462 184.9655272727273L 656.5230769230769 178.1696L 658.8923076923077 180.70530909090908L 661.2615384615384 170.80072727272727L 663.6307692307693 177.99374545454546L 666 175.99127272727273L 668.3692307692307 173.75621818181818L 670.7384615384615 175.45803636363638L 673.1076923076923 196.91796363636365L 675.4769230769231 150.30516363636363L 677.8461538461539 167.34036363636363L 680.2153846153847 174.52203636363637L 682.5846153846154 132.05599999999998L 684.9538461538461 144.8309818181818L 687.3230769230769 173.60872727272726L 689.6923076923076 151.91054545454546L 692.0615384615385 194.03621818181819L 694.4307692307692 160.59549090909093L 696.8 206L 699.1692307692307 153.43650909090908L 701.5384615384615 181.01163636363637L 703.9076923076924 181.6413090909091L 706.2769230769231 182.49221818181817L 708.6461538461539 183.08785454545455L 711.0153846153846 206L 713.3846153846154 151.86516363636363L 715.7538461538461 172.45716363636365L 718.123076923077 169.20669090909092L 720.4923076923077 178.22065454545455L 722.8615384615384 175.54312727272728L 725.2307692307692 177.61367272727273L 727.5999999999999 181.0173090909091L 729.9692307692308 176.80814545454547L 732.3384615384616 167.8962909090909L 734.7076923076924 167.1248L 737.0769230769231 176.62094545454545L 739.4461538461538 158.63272727272727L 741.8153846153846 151.3602909090909L 744.1846153846154 173.35345454545455L 746.5538461538462 206L 748.9230769230769 206L 751.2923076923076 206L 753.6615384615384 206L 756.0307692307692 206L 758.4000000000001 206L 760.7692307692308 206L 763.1384615384616 206L 765.5076923076923 206L 767.876923076923 206L 770.2461538461539 206L 772.6153846153846 206L 774.9846153846154 206L 777.3538461538461 206L 779.7230769230769 206L 782.0923076923076 206L 784.4615384615385 206L 786.8307692307693 206L 789.2 206L 791.5692307692308 206L 793.9384615384615 206L 796.3076923076924 206L 798.6769230769231 206L 801.0461538461539 206L 803.4153846153846 206L 805.7846153846153 206L 808.1538461538461 206L 810.5230769230769 206L 812.8923076923077 206L 815.2615384615385 206L 817.6307692307693 206L 820 206L 822.3692307692307 206L 824.7384615384616 206L 827.1076923076923 206L 829.4769230769231 206L 831.8461538461538 206L 834.2153846153846 206L 836.5846153846154 206L 838.9538461538461 206L 841.3230769230769 206L 843.6923076923076 206L 846.0615384615385 206L 848.4307692307692 206L 850.8000000000001 206L 853.1692307692308 206L 855.5384615384615 206L 857.9076923076923 206L 860.276923076923 206L 862.6461538461539 206L 865.0153846153846 206L 867.3846153846154 206L 869.7538461538461 206L 872.1230769230768 206L 874.4923076923077 206L 876.8615384615385 206L 879.2307692307693 206L 881.6 206L 883.9692307692308 206L 886.3384615384615 206L 888.7076923076924 206L 891.0769230769231 206L 893.4461538461538 206L 895.8153846153846 206L 898.1846153846153 206L 900.553846153846 206L 902.923076923077 206L 905.2923076923078 206L 907.6615384615385 206L 910.0307692307692 206L 912.4 206L 914.7692307692308 206L 917.1384615384616 206L 919.5076923076923 206L 921.876923076923 206L 924.2461538461538 206L 926.6153846153845 206L 928.9846153846154 206L 931.3538461538462 206L 933.723076923077 206L 936.0923076923077 206L 938.4615384615385 206L 940.8307692307692 206L 943.2 206L 945.5692307692308 206L 947.9384615384615 206L 950.3076923076923 206L 952.676923076923 206L 955.0461538461539 206L 957.4153846153846 206L 959.7846153846154 206L 962.1538461538462 206L 964.5230769230769 206L 966.8923076923077 206L 969.2615384615385 206L 971.6307692307693 206L 974 206" stroke-width="2.0" fill="none" />
    
        
        
        <text x="45.0" font-family="-apple-system, system-ui, BlinkMacSystemFont, Roboto" y="50.0" dominant-baseline="middle" text-anchor="end" font-size="12" fill="#24292f">27500.0</text>
        
            
            <path stroke="#74838f" stroke-dasharray="10 6" stroke-width="0.5"  d="M 50.0 50.0 L 974.0 50.0" />
        
    
        
        
        <text x="45.0" font-family="-apple-system, system-ui, BlinkMacSystemFont, Roboto" y="81.2" dominant-baseline="middle" text-anchor="end" font-size="12" fill="#24292f">22000.0</text>
        
            
            
            <path stroke="#74838f" stroke-dasharray="10 6" stroke-width="0.5"  d="M 50.0 81.2 L 974.0 81.2" />
        
    
        
        
        <text x="45.0" font-family="-apple-system, system-ui, BlinkMacSystemFont, Roboto" y="112.4" dominant-baseline="middle" text-anchor="end" font-size="12" fill="#24292f">16500.0</text>
        
            
            
            <path stroke="#74838f" stroke-dasharray="10 6" stroke-width="0.5"  d="M 50.0 112.4 L 974.0 112.4" />
        
    
        
        
        <text x="45.0" font-family="-apple-system, system-ui, BlinkMacSystemFont, Roboto" y="143.6" dominant-baseline="middle" text-anchor="end" font-size="12" fill="#24292f">11000.0</text>
        
            
            
            <path stroke="#74838f" stroke-dasharray="10 6" stroke-width="0.5"  d="M 50.0 143.6 L 974.0 143.6" />
        
    
        
        
        <text x="45.0" font-family="-apple-system, system-ui, BlinkMacSystemFont, Roboto" y="174.8" dominant-baseline="middle" text-anchor="end" font-size="12" fill="#24292f">5500.0</text>
        
            
            
            <path stroke="#74838f" stroke-dasharray="10 6" stroke-width="0.5"  d="M 50.0 174.8 L 974.0 174.8" />
        
    
        
        
        <text x="45.0" font-family="-apple-system, system-ui, BlinkMacSystemFont, Roboto" y="206.0" dominant-baseline="middle" text-anchor="end" font-size="12" fill="#24292f">0.0</text>
        
    
    
        
        <path stroke="#74838f"  stroke-width="2.0"  d="M 87.90769230769232 206.0 L 87.90769230769232 214.0" />
        <text x="87.90769230769232" font-family="-apple-system, system-ui, BlinkMacSystemFont, Roboto" y="216.0" dominant-baseline="hanging" text-anchor="middle" font-size="12" fill="#24292f">Mar 2022</text>
    
        
        <path stroke="#74838f"  stroke-width="2.0"  d="M 161.35384615384615 206.0 L 161.35384615384615 214.0" />
        <text x="161.35384615384615" font-family="-apple-system, system-ui, BlinkMacSystemFont, Roboto" y="216.0" dominant-baseline="hanging" text-anchor="middle" font-size="12" fill="#24292f">Apr 2022</text>
    
        
        <path stroke="#74838f"  stroke-width="2.0"  d="M 232.43076923076922 206.0 L 232.43076923076922 214.0" />
        <text x="232.43076923076922" font-family="-apple-system, system-ui, BlinkMacSystemFont, Roboto" y="216.0" dominant-baseline="hanging" text-anchor="middle" font-size="12" fill="#24292f">May 2022</text>
    
        
        <path stroke="#74838f"  stroke-width="2.0"  d="M 305.87692307692305 206.0 L 305.87692307692305 214.0" />
        <text x="305.87692307692305" font-family="-apple-system, system-ui, BlinkMacSystemFont, Roboto" y="216.0" dominant-baseline="hanging" text-anchor="middle" font-size="12" fill="#24292f">Jun 2022</text>
    
        
        <path stroke="#74838f"  stroke-width="2.0"  d="M 376.9538461538462 206.0 L 376.9538461538462 214.0" />
        <text x="376.9538461538462" font-family="-apple-system, system-ui, BlinkMacSystemFont, Roboto" y="216.0" dominant-baseline="hanging" text-anchor="middle" font-size="12" fill="#24292f">Jul 2022</text>
    
        
        <path stroke="#74838f"  stroke-width="2.0"  d="M 450.40000000000003 206.0 L 450.40000000000003 214.0" />
        <text x="450.40000000000003" font-family="-apple-system, system-ui, BlinkMacSystemFont, Roboto" y="216.0" dominant-baseline="hanging" text-anchor="middle" font-size="12" fill="#24292f">Aug 2022</text>
    
        
        <path stroke="#74838f"  stroke-width="2.0"  d="M 523.8461538461538 206.0 L 523.8461538461538 214.0" />
        <text x="523.8461538461538" font-family="-apple-system, system-ui, BlinkMacSystemFont, Roboto" y="216.0" dominant-baseline="hanging" text-anchor="middle" font-size="12" fill="#24292f">Sep 2022</text>
    
        
        <path stroke="#74838f"  stroke-width="2.0"  d="M 594.9230769230769 206.0 L 594.9230769230769 214.0" />
        <text x="594.9230769230769" font-family="-apple-system, system-ui, BlinkMacSystemFont, Roboto" y="216.0" dominant-baseline="hanging" text-anchor="middle" font-size="12" fill="#24292f">Oct 2022</text>
    
        
        <path stroke="#74838f"  stroke-width="2.0"  d="M 668.3692307692307 206.0 L 668.3692307692307 214.0" />
        <text x="668.3692307692307" font-family="-apple-system, system-ui, BlinkMacSystemFont, Roboto" y="216.0" dominant-baseline="hanging" text-anchor="middle" font-size="12" fill="#24292f">Nov 2022</text>
    
        
        <path stroke="#74838f"  stroke-width="2.0"  d="M 739.4461538461538 206.0 L 739.4461538461538 214.0" />
        <text x="739.4461538461538" font-family="-apple-system, system-ui, BlinkMacSystemFont, Roboto" y="216.0" dominant-baseline="hanging" text-anchor="middle" font-size="12" fill="#24292f">Dec 2022</text>
    
        
        <path stroke="#74838f"  stroke-width="2.0"  d="M 812.8923076923077 206.0 L 812.8923076923077 214.0" />
        <text x="812.8923076923077" font-family="-apple-system, system-ui, BlinkMacSystemFont, Roboto" y="216.0" dominant-baseline="hanging" text-anchor="middle" font-size="12" fill="#24292f">Jan 2023</text>
    
        
        <path stroke="#74838f"  stroke-width="2.0"  d="M 886.3384615384615 206.0 L 886.3384615384615 214.0" />
        <text x="886.3384615384615" font-family="-apple-system, system-ui, BlinkMacSystemFont, Roboto" y="216.0" dominant-baseline="hanging" text-anchor="middle" font-size="12" fill="#24292f">Feb 2023</text>
    
        
        <path stroke="#74838f"  stroke-width="2.0"  d="M 952.676923076923 206.0 L 952.676923076923 214.0" />
        <text x="952.676923076923" font-family="-apple-system, system-ui, BlinkMacSystemFont, Roboto" y="216.0" dominant-baseline="hanging" text-anchor="middle" font-size="12" fill="#24292f">Mar 2023</text>
    
    <path stroke="#74838f"   stroke-linejoin="round" stroke-width="2.0" d="M 50.0 216.0 L 50.0 206.0 L 974.0 206.0 L 974.0 216.0"  fill="none" />
    <text x="512.0" y="25.0" font-family="-apple-system, system-ui, BlinkMacSystemFont, Roboto" dominant-baseline="middle" text-anchor="middle" font-size="18" fill="#24292f">Total daily screen name changes</text>
</svg>
