<?xml version="1.0" standalone="no"?>
<svg width="1024.0" height="256.0"  viewBox="0 0 1024.0 256.0" preserveAspectRatio="xMidYMid meet" xmlns="http://www.w3.org/2000/svg">
    <path stroke="#3498db" stroke-linejoin="round" d="M 50.0 203.3394909090909 L 50 203.3394909090909L 51.945263157894736 202.32974545454545L 53.89052631578947 196.86690909090908L 55.83578947368421 195.94792727272727L 57.781052631578945 202.14254545454546L 59.72631578947369 197.35476363636363L 61.67157894736842 191.76145454545454L 63.61684210526316 179.96218181818182L 65.56210526315789 204.09396363636364L 67.50736842105263 194.17236363636363L 69.45263157894738 192.61803636363635L 71.3978947368421 195.1253818181818L 73.34315789473683 193.92843636363637L 75.28842105263158 182.2482909090909L 77.23368421052632 200.86618181818181L 79.17894736842105 201.45614545454546L 81.12421052631579 178.89003636363637L 83.06947368421052 197.33774545454546L 85.01473684210526 198.50065454545455L 86.96000000000001 200.41803636363636L 88.90526315789474 201.18385454545455L 90.85052631578947 202.26734545454545L 92.79578947368421 195.09134545454546L 94.74105263157895 198.08087272727272L 96.68631578947368 183.38850909090908L 98.63157894736841 197.47389090909093L 100.57684210526315 202.01774545454546L 102.5221052631579 194.66021818181818L 104.46736842105264 200.75272727272727L 106.41263157894736 200.00392727272728L 108.3578947368421 201.97236363636364L 110.30315789473684 204.2754909090909L 112.24842105263158 201.74545454545455L 114.19368421052631 201.01367272727273L 116.13894736842104 174.7829818181818L 118.08421052631579 195.76072727272728L 120.02947368421053 204.0032L 121.97473684210527 203.7309090909091L 123.92 197.87665454545453L 125.86526315789473 202.60770909090908L 127.81052631578947 202.6928L 129.75578947368422 197.55898181818182L 131.70105263157893 186.5141818181818L 133.6463157894737 199.26647272727274L 135.59157894736842 199.5728L 137.53684210526316 193.4802909090909L 139.4821052631579 199.10763636363635L 141.42736842105262 201.54690909090908L 143.37263157894736 201.5696L 145.3178947368421 195.06865454545454L 147.26315789473682 201.70007272727273L 149.2084210526316 197.2866909090909L 151.1536842105263 172.35505454545455L 153.09894736842105 203.20901818181818L 155.0442105263158 199.6749090909091L 156.9894736842105 193.12858181818183L 158.93473684210528 196.8896L 160.88 199.78836363636364L 162.8252631578947 198.82967272727274L 164.77052631578948 204.1336727272727L 166.7157894736842 202.57934545454546L 168.66105263157894 198.9261090909091L 170.60631578947368 206L 172.55157894736843 204.128L 174.49684210526317 192.1245090909091L 176.44210526315788 206L 178.38736842105263 206L 180.33263157894737 206L 182.2778947368421 206L 184.22315789473686 197.37178181818183L 186.16842105263157 199.57847272727273L 188.11368421052632 188.9024L 190.05894736842106 195.02894545454546L 192.00421052631577 191.20552727272727L 193.94947368421055 166.8128L 195.89473684210526 203.8386909090909L 197.84 198.09221818181817L 199.78526315789472 201.64334545454545L 201.73052631578946 202.2957090909091L 203.67578947368423 203.22036363636363L 205.62105263157895 200.66763636363635L 207.5663157894737 191.51185454545455L 209.5115789473684 189.18603636363636L 211.45684210526315 203.86705454545455L 213.4021052631579 197.56465454545454L 215.34736842105264 187.32538181818182L 217.29263157894738 201.2349090909091L 219.2378947368421 200.44639999999998L 221.18315789473684 201.4618181818182L 223.12842105263158 201.09876363636363L 225.07368421052632 201.17818181818183L 227.01894736842104 193.02647272727273L 228.96421052631578 198.8069818181818L 230.90947368421052 203.39054545454545L 232.85473684210527 200.30458181818182L 234.8 198.35883636363636L 236.74526315789473 193.3101090909091L 238.69052631578947 200.56552727272728L 240.6357894736842 203.03883636363636L 242.58105263157896 197.22996363636364L 244.52631578947367 201.95534545454547L 246.4715789473684 196.016L 248.41684210526316 202.30705454545455L 250.3621052631579 199.91316363636363L 252.30736842105264 194.62050909090908L 254.25263157894736 201.29163636363637L 256.1978947368421 202.98778181818182L 258.1431578947369 203.5437090909091L 260.0884210526316 200.60523636363638L 262.0336842105263 195.5621818181818L 263.978947368421 203.24305454545456L 265.9242105263158 200.15709090909093L 267.86947368421056 198.46661818181818L 269.8147368421053 201.70007272727273L 271.76 200.70734545454545L 273.7052631578947 200.4293818181818L 275.6505263157894 201.76814545454545L 277.59578947368425 204.6442181818182L 279.54105263157896 206L 281.4863157894737 196.35636363636365L 283.4315789473684 199.21541818181817L 285.37684210526317 156.87418181818182L 287.3221052631579 165.1506909090909L 289.26736842105265 204.1733818181818L 291.21263157894737 202.17658181818183L 293.1578947368421 199.31185454545454L 295.10315789473685 198.7842909090909L 297.0484210526316 202.6757818181818L 298.99368421052634 202.8573090909091L 300.93894736842105 196.1861818181818L 302.88421052631577 199.64654545454545L 304.82947368421054 198.2056727272727L 306.77473684210526 201.2178909090909L 308.72 201.79083636363637L 310.66526315789474 201.90429090909092L 312.61052631578946 200.1968L 314.5557894736842 195.17076363636363L 316.50105263157894 206L 318.4463157894737 206L 320.39157894736843 206L 322.33684210526314 191.4834909090909L 324.2821052631579 197.79723636363636L 326.22736842105263 198.85236363636363L 328.17263157894735 199.76L 330.1178947368421 200.03796363636363L 332.06315789473683 200.76407272727272L 334.00842105263155 201.80785454545455L 335.9536842105263 191.63098181818182L 337.8989473684211 194.41061818181817L 339.8442105263158 199.88479999999998L 341.7894736842105 152.63098181818182L 343.7347368421053 197.04843636363637L 345.68 194.4730181818182L 347.6252631578947 155.90414545454547L 349.57052631578944 91.60945454545454L 351.5157894736842 104.5376L 353.4610526315789 151.17876363636364L 355.4063157894737 185.1981090909091L 357.35157894736847 142.76610909090908L 359.2968421052632 125.0672L 361.2421052631579 123.74545454545455L 363.1873684210526 157.99738181818182L 365.1326315789474 53.56814545454546L 367.0778947368421 50.78850909090909L 369.0231578947368 100.02210909090908L 370.9684210526316 156.2445090909091L 372.9136842105263 180.31956363636363L 374.85894736842107 192.43650909090908L 376.8042105263158 193.63912727272728L 378.74947368421056 193.3328L 380.69473684210527 192.11316363636365L 382.64 197.93338181818183L 384.58526315789476 191.5629090909091L 386.5305263157895 198.7672727272727L 388.4757894736842 199.3005090909091L 390.4210526315789 201.64901818181818L 392.3663157894737 200.58821818181818L 394.31157894736845 202.43752727272727L 396.25684210526316 200.73003636363637L 398.2021052631579 189.7703272727273L 400.14736842105265 203.17498181818183L 402.09263157894736 200.48610909090908L 404.0378947368421 185.1810909090909L 405.98315789473685 187.88698181818182L 407.92842105263156 191.01832727272728L 409.8736842105263 192.31738181818181L 411.81894736842105 177.09745454545455L 413.7642105263158 167.91330909090908L 415.70947368421054 179.30981818181817L 417.65473684210525 186.49716363636364L 419.6 150.34487272727273L 421.54526315789474 184.27345454545454L 423.49052631578945 199.5104L 425.43578947368417 161.24785454545454L 427.38105263157894 155.49003636363636L 429.3263157894737 176.96130909090908L 431.2715789473684 190.30923636363636L 433.2168421052632 193.50865454545453L 435.1621052631579 201.72843636363638L 437.1073684210526 185.22647272727272L 439.05263157894734 192.03374545454545L 440.9978947368421 192.66909090909093L 442.9431578947368 180.18341818181818L 444.88842105263154 194.5013818181818L 446.8336842105263 194.6829090909091L 448.7789473684211 201.85323636363637L 450.7242105263158 196.2032L 452.6694736842105 204.49105454545455L 454.6147368421053 191.55723636363638L 456.56 180.36494545454545L 458.5052631578947 193.02647272727273L 460.4505263157895 186.20785454545455L 462.3957894736842 191.72741818181817L 464.3410526315789 191.4834909090909L 466.2863157894737 196.63432727272726L 468.23157894736846 200.7810909090909L 470.1768421052632 176.26923636363637L 472.1221052631579 165.78036363636363L 474.0673684210526 181.82850909090908L 476.0126315789474 160.6976L 477.9578947368421 163.93105454545454L 479.9031578947368 182.10647272727272L 481.8484210526316 130.808L 483.7936842105263 190.49643636363635L 485.73894736842107 202.0914909090909L 487.6842105263158 184.09192727272728L 489.62947368421055 197.50225454545455L 491.57473684210527 187.54094545454547L 493.52 192.95272727272726L 495.46526315789475 201.88727272727272L 497.41052631578947 184.33585454545454L 499.3557894736842 183.04814545454545L 501.3010526315789 182.36741818181818L 503.24631578947367 182.54327272727272L 505.19157894736844 186.38938181818182L 507.13684210526316 174.3858909090909L 509.0821052631579 183.1786181818182L 511.02736842105264 183.5133090909091L 512.9726315789474 184.60247272727273L 514.9178947368421 186.968L 516.8631578947368 170.00087272727274L 518.8084210526315 167.8338909090909L 520.7536842105263 203.32247272727273L 522.698947368421 206L 524.6442105263158 128.43112727272728L 526.5894736842106 183.2637090909091L 528.5347368421053 156.8685090909091L 530.48 183.15592727272727L 532.4252631578947 183.2013090909091L 534.3705263157894 182.25963636363636L 536.3157894736842 170.18807272727273L 538.2610526315789 186.86589090909092L 540.2063157894737 183.77425454545454L 542.1515789473685 186.29861818181817L 544.0968421052632 184.17134545454545L 546.042105263158 184.9655272727273L 547.9873684210527 178.1696L 549.9326315789474 180.70530909090908L 551.8778947368421 170.80072727272727L 553.8231578947368 177.99374545454546L 555.7684210526315 175.99127272727273L 557.7136842105263 173.75621818181818L 559.6589473684211 175.45803636363638L 561.6042105263158 196.91796363636365L 563.5494736842105 150.30516363636363L 565.4947368421052 167.34036363636363L 567.44 174.52203636363637L 569.3852631578948 132.05599999999998L 571.3305263157895 144.8309818181818L 573.2757894736842 173.60872727272726L 575.2210526315789 151.91054545454546L 577.1663157894736 194.03621818181819L 579.1115789473683 160.59549090909093L 581.0568421052632 206L 583.0021052631579 153.43650909090908L 584.9473684210526 181.01163636363637L 586.8926315789474 181.6413090909091L 588.8378947368421 182.49221818181817L 590.7831578947369 183.08785454545455L 592.7284210526316 206L 594.6736842105263 151.86516363636363L 596.6189473684211 172.45716363636365L 598.5642105263158 169.20669090909092L 600.5094736842105 178.22065454545455L 602.4547368421053 175.54312727272728L 604.4 177.61367272727273L 606.3452631578947 181.0173090909091L 608.2905263157894 176.80814545454547L 610.2357894736842 167.8962909090909L 612.181052631579 167.1248L 614.1263157894737 176.62094545454545L 616.0715789473684 158.63272727272727L 618.0168421052631 151.3602909090909L 619.9621052631578 173.35345454545455L 621.9073684210526 206L 623.8526315789474 206L 625.7978947368422 206L 627.7431578947369 206L 629.6884210526316 206L 631.6336842105263 206L 633.578947368421 206L 635.5242105263158 206L 637.4694736842106 206L 639.4147368421053 206L 641.36 206L 643.3052631578947 206L 645.2505263157894 206L 647.1957894736842 206L 649.1410526315789 206L 651.0863157894737 206L 653.0315789473684 206L 654.9768421052631 206L 656.9221052631578 206L 658.8673684210526 206L 660.8126315789474 206L 662.7578947368421 206L 664.7031578947369 206L 666.6484210526316 206L 668.5936842105264 206L 670.5389473684211 206L 672.4842105263158 206L 674.4294736842105 206L 676.3747368421052 206L 678.32 206L 680.2652631578948 206L 682.2105263157895 206L 684.1557894736842 206L 686.1010526315789 206L 688.0463157894736 206L 689.9915789473683 206L 691.9368421052632 206L 693.8821052631579 206L 695.8273684210526 206L 697.7726315789474 206L 699.7178947368421 206L 701.6631578947369 206L 703.6084210526316 206L 705.5536842105264 206L 707.4989473684211 206L 709.4442105263158 206L 711.3894736842105 206L 713.3347368421053 206L 715.28 206L 717.2252631578947 206L 719.1705263157895 206L 721.1157894736842 206L 723.061052631579 206L 725.0063157894737 206L 726.9515789473684 206L 728.8968421052631 206L 730.8421052631578 206L 732.7873684210526 206L 734.7326315789473 206L 736.6778947368422 206L 738.6231578947369 206L 740.5684210526316 206L 742.5136842105263 206L 744.458947368421 206L 746.4042105263158 206L 748.3494736842106 206L 750.2947368421053 206L 752.24 206L 754.1852631578947 206L 756.1305263157894 206L 758.0757894736842 206L 760.0210526315789 206L 761.9663157894737 206L 763.9115789473684 206L 765.8568421052631 206L 767.8021052631578 206L 769.7473684210526 206L 771.6926315789474 206L 773.6378947368421 206L 775.5831578947369 206L 777.5284210526316 206L 779.4736842105264 206L 781.4189473684211 206L 783.3642105263158 206L 785.3094736842105 206L 787.2547368421052 206L 789.2 206L 791.1452631578948 206L 793.0905263157895 206L 795.0357894736842 206L 796.9810526315789 206L 798.9263157894736 206L 800.8715789473683 206L 802.8168421052632 206L 804.7621052631579 206L 806.7073684210526 206L 808.6526315789474 206L 810.5978947368421 206L 812.5431578947369 206L 814.4884210526316 206L 816.4336842105264 206L 818.3789473684211 206L 820.3242105263158 206L 822.2694736842105 206L 824.2147368421053 206L 826.16 206L 828.1052631578947 206L 830.0505263157895 206L 831.9957894736842 206L 833.9410526315789 206L 835.8863157894737 206L 837.8315789473684 206L 839.7768421052631 206L 841.7221052631578 206L 843.6673684210526 206L 845.6126315789473 206L 847.5578947368422 206L 849.5031578947369 206L 851.4484210526316 206L 853.3936842105263 206L 855.338947368421 206L 857.2842105263159 206L 859.2294736842106 206L 861.1747368421053 206L 863.12 206L 865.0652631578947 206L 867.0105263157894 206L 868.9557894736841 206L 870.901052631579 206L 872.8463157894737 206L 874.7915789473684 206L 876.7368421052631 206L 878.6821052631578 206L 880.6273684210526 206L 882.5726315789474 206L 884.5178947368422 206L 886.4631578947369 206L 888.4084210526316 206L 890.3536842105264 206L 892.2989473684211 206L 894.2442105263158 206L 896.1894736842105 206L 898.1347368421052 206L 900.08 206L 902.0252631578948 206L 903.9705263157895 206L 905.9157894736842 206L 907.8610526315789 206L 909.8063157894736 206L 911.7515789473683 206L 913.6968421052632 206L 915.6421052631579 206L 917.5873684210526 206L 919.5326315789474 206L 921.4778947368421 206L 923.4231578947368 206L 925.3684210526316 206L 927.3136842105264 206L 929.2589473684211 206L 931.2042105263158 206L 933.1494736842105 206L 935.0947368421052 206L 937.04 206L 938.9852631578947 206L 940.9305263157895 206L 942.8757894736842 206L 944.8210526315789 206L 946.7663157894737 206L 948.7115789473684 206L 950.6568421052631 206L 952.6021052631578 206L 954.5473684210526 206L 956.4926315789473 206L 958.4378947368422 206L 960.3831578947369 206L 962.3284210526316 206L 964.2736842105263 206L 966.218947368421 206L 968.1642105263159 206L 970.1094736842106 206L 972.0547368421053 206L 974 206" stroke-width="2.0" fill="none" />
    
        
        
        <text x="45.0" font-family="-apple-system, system-ui, BlinkMacSystemFont, Roboto" y="50.0" dominant-baseline="middle" text-anchor="end" font-size="12" fill="#24292f">27500.0</text>
        
            
            <path stroke="#74838f" stroke-dasharray="10 6" stroke-width="0.5"  d="M 50.0 50.0 L 974.0 50.0" />
        
    
        
        
        <text x="45.0" font-family="-apple-system, system-ui, BlinkMacSystemFont, Roboto" y="81.2" dominant-baseline="middle" text-anchor="end" font-size="12" fill="#24292f">22000.0</text>
        
            
            
            <path stroke="#74838f" stroke-dasharray="10 6" stroke-width="0.5"  d="M 50.0 81.2 L 974.0 81.2" />
        
    
        
        
        <text x="45.0" font-family="-apple-system, system-ui, BlinkMacSystemFont, Roboto" y="112.4" dominant-baseline="middle" text-anchor="end" font-size="12" fill="#24292f">16500.0</text>
        
            
            
            <path stroke="#74838f" stroke-dasharray="10 6" stroke-width="0.5"  d="M 50.0 112.4 L 974.0 112.4" />
        
    
        
        
        <text x="45.0" font-family="-apple-system, system-ui, BlinkMacSystemFont, Roboto" y="143.6" dominant-baseline="middle" text-anchor="end" font-size="12" fill="#24292f">11000.0</text>
        
            
            
            <path stroke="#74838f" stroke-dasharray="10 6" stroke-width="0.5"  d="M 50.0 143.6 L 974.0 143.6" />
        
    
        
        
        <text x="45.0" font-family="-apple-system, system-ui, BlinkMacSystemFont, Roboto" y="174.8" dominant-baseline="middle" text-anchor="end" font-size="12" fill="#24292f">5500.0</text>
        
            
            
            <path stroke="#74838f" stroke-dasharray="10 6" stroke-width="0.5"  d="M 50.0 174.8 L 974.0 174.8" />
        
    
        
        
        <text x="45.0" font-family="-apple-system, system-ui, BlinkMacSystemFont, Roboto" y="206.0" dominant-baseline="middle" text-anchor="end" font-size="12" fill="#24292f">0.0</text>
        
    
    
        
        <path stroke="#74838f"  stroke-width="2.0"  d="M 81.12421052631579 206.0 L 81.12421052631579 214.0" />
        <text x="81.12421052631579" font-family="-apple-system, system-ui, BlinkMacSystemFont, Roboto" y="216.0" dominant-baseline="hanging" text-anchor="middle" font-size="12" fill="#24292f">Mar 2022</text>
    
        
        <path stroke="#74838f"  stroke-width="2.0"  d="M 141.42736842105262 206.0 L 141.42736842105262 214.0" />
        <text x="141.42736842105262" font-family="-apple-system, system-ui, BlinkMacSystemFont, Roboto" y="216.0" dominant-baseline="hanging" text-anchor="middle" font-size="12" fill="#24292f">Apr 2022</text>
    
        
        <path stroke="#74838f"  stroke-width="2.0"  d="M 199.78526315789472 206.0 L 199.78526315789472 214.0" />
        <text x="199.78526315789472" font-family="-apple-system, system-ui, BlinkMacSystemFont, Roboto" y="216.0" dominant-baseline="hanging" text-anchor="middle" font-size="12" fill="#24292f">May 2022</text>
    
        
        <path stroke="#74838f"  stroke-width="2.0"  d="M 260.0884210526316 206.0 L 260.0884210526316 214.0" />
        <text x="260.0884210526316" font-family="-apple-system, system-ui, BlinkMacSystemFont, Roboto" y="216.0" dominant-baseline="hanging" text-anchor="middle" font-size="12" fill="#24292f">Jun 2022</text>
    
        
        <path stroke="#74838f"  stroke-width="2.0"  d="M 318.4463157894737 206.0 L 318.4463157894737 214.0" />
        <text x="318.4463157894737" font-family="-apple-system, system-ui, BlinkMacSystemFont, Roboto" y="216.0" dominant-baseline="hanging" text-anchor="middle" font-size="12" fill="#24292f">Jul 2022</text>
    
        
        <path stroke="#74838f"  stroke-width="2.0"  d="M 378.74947368421056 206.0 L 378.74947368421056 214.0" />
        <text x="378.74947368421056" font-family="-apple-system, system-ui, BlinkMacSystemFont, Roboto" y="216.0" dominant-baseline="hanging" text-anchor="middle" font-size="12" fill="#24292f">Aug 2022</text>
    
        
        <path stroke="#74838f"  stroke-width="2.0"  d="M 439.05263157894734 206.0 L 439.05263157894734 214.0" />
        <text x="439.05263157894734" font-family="-apple-system, system-ui, BlinkMacSystemFont, Roboto" y="216.0" dominant-baseline="hanging" text-anchor="middle" font-size="12" fill="#24292f">Sep 2022</text>
    
        
        <path stroke="#74838f"  stroke-width="2.0"  d="M 497.41052631578947 206.0 L 497.41052631578947 214.0" />
        <text x="497.41052631578947" font-family="-apple-system, system-ui, BlinkMacSystemFont, Roboto" y="216.0" dominant-baseline="hanging" text-anchor="middle" font-size="12" fill="#24292f">Oct 2022</text>
    
        
        <path stroke="#74838f"  stroke-width="2.0"  d="M 557.7136842105263 206.0 L 557.7136842105263 214.0" />
        <text x="557.7136842105263" font-family="-apple-system, system-ui, BlinkMacSystemFont, Roboto" y="216.0" dominant-baseline="hanging" text-anchor="middle" font-size="12" fill="#24292f">Nov 2022</text>
    
        
        <path stroke="#74838f"  stroke-width="2.0"  d="M 616.0715789473684 206.0 L 616.0715789473684 214.0" />
        <text x="616.0715789473684" font-family="-apple-system, system-ui, BlinkMacSystemFont, Roboto" y="216.0" dominant-baseline="hanging" text-anchor="middle" font-size="12" fill="#24292f">Dec 2022</text>
    
        
        <path stroke="#74838f"  stroke-width="2.0"  d="M 676.3747368421052 206.0 L 676.3747368421052 214.0" />
        <text x="676.3747368421052" font-family="-apple-system, system-ui, BlinkMacSystemFont, Roboto" y="216.0" dominant-baseline="hanging" text-anchor="middle" font-size="12" fill="#24292f">Jan 2023</text>
    
        
        <path stroke="#74838f"  stroke-width="2.0"  d="M 736.6778947368422 206.0 L 736.6778947368422 214.0" />
        <text x="736.6778947368422" font-family="-apple-system, system-ui, BlinkMacSystemFont, Roboto" y="216.0" dominant-baseline="hanging" text-anchor="middle" font-size="12" fill="#24292f">Feb 2023</text>
    
        
        <path stroke="#74838f"  stroke-width="2.0"  d="M 791.1452631578948 206.0 L 791.1452631578948 214.0" />
        <text x="791.1452631578948" font-family="-apple-system, system-ui, BlinkMacSystemFont, Roboto" y="216.0" dominant-baseline="hanging" text-anchor="middle" font-size="12" fill="#24292f">Mar 2023</text>
    
        
        <path stroke="#74838f"  stroke-width="2.0"  d="M 851.4484210526316 206.0 L 851.4484210526316 214.0" />
        <text x="851.4484210526316" font-family="-apple-system, system-ui, BlinkMacSystemFont, Roboto" y="216.0" dominant-baseline="hanging" text-anchor="middle" font-size="12" fill="#24292f">Apr 2023</text>
    
        
        <path stroke="#74838f"  stroke-width="2.0"  d="M 909.8063157894736 206.0 L 909.8063157894736 214.0" />
        <text x="909.8063157894736" font-family="-apple-system, system-ui, BlinkMacSystemFont, Roboto" y="216.0" dominant-baseline="hanging" text-anchor="middle" font-size="12" fill="#24292f">May 2023</text>
    
        
        <path stroke="#74838f"  stroke-width="2.0"  d="M 970.1094736842106 206.0 L 970.1094736842106 214.0" />
        <text x="970.1094736842106" font-family="-apple-system, system-ui, BlinkMacSystemFont, Roboto" y="216.0" dominant-baseline="hanging" text-anchor="middle" font-size="12" fill="#24292f">Jun 2023</text>
    
    <path stroke="#74838f"   stroke-linejoin="round" stroke-width="2.0" d="M 50.0 216.0 L 50.0 206.0 L 974.0 206.0 L 974.0 216.0"  fill="none" />
    <text x="512.0" y="25.0" font-family="-apple-system, system-ui, BlinkMacSystemFont, Roboto" dominant-baseline="middle" text-anchor="middle" font-size="18" fill="#24292f">Total daily screen name changes</text>
</svg>
