<?xml version="1.0" standalone="no"?>
<svg width="1024.0" height="256.0"  viewBox="0 0 1024.0 256.0" preserveAspectRatio="xMidYMid meet" xmlns="http://www.w3.org/2000/svg">
    <path stroke="#3498db" stroke-linejoin="round" d="M 50.0 203.6288 L 50 203.6288L 53.372262773722625 202.69847272727273L 56.74452554744526 197.1845818181818L 60.11678832116788 196.04436363636364L 63.48905109489051 202.23330909090907L 66.86131386861314 197.41716363636363L 70.23357664233576 191.9202909090909L 73.60583941605839 179.96785454545454L 76.97810218978103 204.12232727272726L 80.35036496350365 194.15534545454545L 83.72262773722628 192.63505454545455L 87.09489051094891 195.1253818181818L 90.46715328467153 193.92843636363637L 93.83941605839416 182.30501818181818L 97.21167883211679 200.8605090909091L 100.58394160583941 201.54123636363636L 103.95620437956205 178.88436363636364L 107.32846715328466 197.42283636363635L 110.7007299270073 198.54603636363635L 114.07299270072993 200.49178181818183L 117.44525547445255 201.1952L 120.81751824817519 202.3184L 124.18978102189782 195.17076363636363L 127.56204379562044 198.08087272727272L 130.93430656934305 183.42254545454546L 134.3065693430657 197.55898181818182L 137.67883211678833 202.0631272727273L 141.05109489051097 194.67156363636363L 144.42335766423358 200.7584L 147.7956204379562 200.04363636363638L 151.16788321167883 201.97803636363636L 154.54014598540147 204.52509090909092L 157.9124087591241 201.85323636363637L 161.28467153284672 201.02501818181818L 164.65693430656933 175.0269090909091L 168.02919708029196 195.76072727272728L 171.4014598540146 204.0032L 174.77372262773724 203.75927272727273L 178.14598540145985 197.88232727272728L 181.51824817518246 202.60770909090908L 184.8905109489051 202.7949090909091L 188.26277372262774 197.58167272727272L 191.63503649635038 186.49716363636364L 195.007299270073 199.2778181818182L 198.37956204379563 199.62952727272727L 201.75182481751824 193.53134545454546L 205.12408759124088 199.1530181818182L 208.49635036496352 201.55825454545453L 211.86861313868613 201.60363636363635L 215.24087591240877 195.1026909090909L 218.61313868613138 201.70007272727273L 221.98540145985402 197.27534545454546L 225.35766423357663 172.3664L 228.7299270072993 203.20901818181818L 232.1021897810219 199.7146181818182L 235.47445255474452 193.1456L 238.84671532846716 196.9293090909091L 242.21897810218977 199.8394181818182L 245.5912408759124 198.83534545454546L 248.96350364963502 204.1336727272727L 252.33576642335768 202.70981818181818L 255.7080291970803 198.92043636363636L 259.08029197080293 206L 262.4525547445255 204.128L 265.8248175182482 192.10749090909093L 269.1970802919708 206L 272.56934306569343 206L 275.94160583941607 206L 279.31386861313865 206L 282.68613138686135 197.35476363636363L 286.05839416058393 199.57847272727273L 289.4306569343066 188.89672727272728L 292.8029197080292 195.27287272727273L 296.1751824817518 191.20552727272727L 299.5474452554745 166.7957818181818L 302.91970802919707 203.88407272727272L 306.2919708029197 198.09221818181817L 309.66423357664235 201.68305454545455L 313.0364963503649 202.2957090909091L 316.40875912408757 203.24872727272728L 319.7810218978102 200.68465454545455L 323.15328467153284 191.51752727272728L 326.5255474452555 189.18036363636364L 329.8978102189781 203.88407272727272L 333.27007299270076 197.5533090909091L 336.64233576642334 187.42749090909092L 340.014598540146 201.25192727272727L 343.3868613138686 200.44072727272726L 346.75912408759126 201.4674909090909L 350.13138686131384 201.09876363636363L 353.5036496350365 201.20087272727272L 356.8759124087591 193.01512727272728L 360.24817518248176 198.8013090909091L 363.62043795620434 203.39054545454545L 366.99270072992704 200.30458181818182L 370.3649635036497 198.5517090909091L 373.73722627737226 193.31578181818182L 377.1094890510949 200.55985454545456L 380.48175182481754 203.03883636363636L 383.8540145985402 197.33207272727273L 387.22627737226276 201.95534545454547L 390.5985401459854 196.0784L 393.97080291970804 202.32974545454545L 397.3430656934306 199.91316363636363L 400.71532846715326 194.67156363636363L 404.0875912408759 201.29163636363637L 407.4598540145986 202.99912727272726L 410.8321167883212 203.53803636363637L 414.2043795620438 200.64494545454545L 417.57664233576645 195.5735272727273L 420.94890510948903 203.29978181818183L 424.3211678832117 200.16843636363637L 427.6934306569343 198.45527272727273L 431.06569343065695 201.70007272727273L 434.43795620437953 200.73003636363637L 437.81021897810217 200.44639999999998L 441.1824817518248 201.76247272727272L 444.55474452554745 204.6442181818182L 447.92700729927003 206L 451.2992700729927 196.3904L 454.67153284671537 199.20407272727272L 458.04379562043795 156.8061090909091L 461.4160583941606 165.09963636363636L 464.7883211678832 204.2925090909091L 468.16058394160586 202.17658181818183L 471.53284671532845 199.31185454545454L 474.9051094890511 198.85236363636363L 478.2773722627737 202.69847272727273L 481.64963503649636 202.85163636363637L 485.02189781021895 196.19185454545453L 488.3941605839416 199.68058181818182L 491.7664233576643 198.2L 495.13868613138686 201.2178909090909L 498.5109489051095 201.84189090909092L 501.88321167883214 201.90429090909092L 505.2554744525548 200.18545454545455L 508.62773722627736 195.21614545454545L 512 206L 515.3722627737227 206L 518.7445255474452 206L 522.1167883211679 191.46647272727273L 525.4890510948906 197.83694545454546L 528.8613138686133 198.85803636363636L 532.2335766423357 199.77701818181816L 535.6058394160584 200.11170909090907L 538.978102189781 200.76974545454544L 542.3503649635036 201.80785454545455L 545.7226277372263 191.63665454545455L 549.094890510949 194.44465454545454L 552.4671532846714 199.89047272727274L 555.8394160583941 152.5629090909091L 559.2116788321168 197.1789090909091L 562.5839416058394 194.46167272727274L 565.9562043795621 155.8701090909091L 569.3284671532847 91.5130181818182L 572.7007299270073 104.48087272727274L 576.0729927007299 151.15607272727271L 579.4452554744526 185.23214545454545L 582.8175182481751 142.71505454545454L 586.1897810218978 124.99345454545455L 589.5620437956204 123.6546909090909L 592.9343065693431 157.9293090909091L 596.3065693430657 53.36392727272727L 599.6788321167883 50.584290909090896L 603.051094890511 99.88596363636364L 606.4233576642335 156.18210909090908L 609.7956204379562 180.3138909090909L 613.1678832116788 192.4194909090909L 616.5401459854015 193.69018181818183L 619.9124087591241 193.32712727272727L 623.2846715328467 192.1245090909091L 626.6569343065693 197.93338181818183L 630.029197080292 191.55723636363638L 633.4014598540145 198.75592727272726L 636.7737226277372 199.31185454545454L 640.1459854014599 201.64901818181818L 643.5182481751825 200.58254545454545L 646.8905109489051 202.47723636363637L 650.2627737226277 200.73003636363637L 653.6350364963504 190.03127272727272L 657.007299270073 203.16930909090908L 660.3795620437957 200.48610909090908L 663.7518248175182 185.14705454545455L 667.1240875912409 187.9834181818182L 670.4963503649635 190.99563636363638L 673.8686131386861 192.3117090909091L 677.2408759124087 177.0861090909091L 680.6131386861314 167.8736L 683.9854014598541 179.36087272727272L 687.3576642335767 186.44043636363637L 690.7299270072994 150.2370909090909L 694.1021897810219 184.27912727272727L 697.4744525547445 199.54443636363635L 700.8467153284671 161.16843636363637L 704.2189781021898 155.5410909090909L 707.5912408759124 176.99534545454546L 710.9635036496351 190.28654545454546L 714.3357664233577 193.50865454545453L 717.7080291970804 201.71141818181817L 721.0802919708028 185.21512727272727L 724.4525547445255 192.05643636363635L 727.8248175182482 192.7088L 731.1970802919708 180.1493818181818L 734.5693430656935 194.51839999999999L 737.9416058394161 194.69992727272728L 741.3138686131388 201.86458181818182L 744.6861313868612 196.2032L 748.0583941605839 204.5024L 751.4306569343065 191.57425454545455L 754.8029197080292 180.37061818181817L 758.1751824817518 193.02647272727273L 761.5474452554745 186.22487272727273L 764.9197080291972 191.7330909090909L 768.2919708029196 191.4608L 771.6642335766423 196.62865454545454L 775.0364963503649 200.84349090909092L 778.4087591240876 176.26923636363637L 781.7810218978102 165.67825454545454L 785.1532846715329 181.80581818181818L 788.5255474452555 160.68058181818182L 791.8978102189781 163.8402909090909L 795.2700729927006 182.06109090909092L 798.6423357664233 130.81367272727272L 802.0145985401459 190.47374545454545L 805.3868613138686 202.09716363636363L 808.7591240875913 184.08058181818183L 812.1313868613139 197.49658181818182L 815.5036496350365 187.55796363636364L 818.8759124087591 192.95272727272726L 822.2481751824818 201.91563636363637L 825.6204379562043 184.39825454545453L 828.992700729927 184.9088L 832.3649635036496 182.26530909090908L 835.7372262773723 182.46385454545455L 839.1094890510949 186.32698181818182L 842.4817518248175 174.32916363636363L 845.8540145985401 183.09352727272727L 849.2262773722628 183.4962909090909L 852.5985401459855 184.5344L 855.970802919708 186.95098181818182L 859.3430656934307 169.85338181818182L 862.7153284671533 168.34443636363636L 866.0875912408759 203.32247272727273L 869.4598540145985 206L 872.8321167883212 128.312L 876.2043795620438 183.24669090909092L 879.5766423357665 156.78341818181818L 882.948905109489 183.05381818181817L 886.3211678832117 183.1389090909091L 889.6934306569343 182.29934545454546L 893.0656934306569 169.98385454545453L 896.4379562043796 186.7808L 899.8102189781022 183.6608L 903.1824817518249 186.2589090909091L 906.5547445255474 184.14865454545455L 909.9270072992701 184.89745454545454L 913.2992700729927 178.07316363636363L 916.6715328467153 180.65425454545453L 920.0437956204379 170.63054545454546L 923.4160583941606 177.93134545454546L 926.7883211678832 175.87214545454546L 930.1605839416059 174.29512727272729L 933.5328467153286 175.29919999999998L 936.9051094890511 196.89527272727273L 940.2773722627737 150.05556363636364L 943.6496350364963 167.05672727272727L 947.021897810219 174.29512727272729L 950.3941605839416 131.6589090909091L 953.7664233576643 144.42254545454546L 957.1386861313869 173.35345454545455L 960.5109489051096 151.68363636363637L 963.883211678832 194.1042909090909L 967.2554744525547 160.01687272727273L 970.6277372262773 206L 974 206" stroke-width="2.0" fill="none" />
    
        
        
        <text x="45.0" font-family="-apple-system, system-ui, BlinkMacSystemFont, Roboto" y="50.0" dominant-baseline="middle" text-anchor="end" font-size="12" fill="#24292f">27500.0</text>
        
            
            <path stroke="#74838f" stroke-dasharray="10 6" stroke-width="0.5"  d="M 50.0 50.0 L 974.0 50.0" />
        
    
        
        
        <text x="45.0" font-family="-apple-system, system-ui, BlinkMacSystemFont, Roboto" y="81.2" dominant-baseline="middle" text-anchor="end" font-size="12" fill="#24292f">22000.0</text>
        
            
            
            <path stroke="#74838f" stroke-dasharray="10 6" stroke-width="0.5"  d="M 50.0 81.2 L 974.0 81.2" />
        
    
        
        
        <text x="45.0" font-family="-apple-system, system-ui, BlinkMacSystemFont, Roboto" y="112.4" dominant-baseline="middle" text-anchor="end" font-size="12" fill="#24292f">16500.0</text>
        
            
            
            <path stroke="#74838f" stroke-dasharray="10 6" stroke-width="0.5"  d="M 50.0 112.4 L 974.0 112.4" />
        
    
        
        
        <text x="45.0" font-family="-apple-system, system-ui, BlinkMacSystemFont, Roboto" y="143.6" dominant-baseline="middle" text-anchor="end" font-size="12" fill="#24292f">11000.0</text>
        
            
            
            <path stroke="#74838f" stroke-dasharray="10 6" stroke-width="0.5"  d="M 50.0 143.6 L 974.0 143.6" />
        
    
        
        
        <text x="45.0" font-family="-apple-system, system-ui, BlinkMacSystemFont, Roboto" y="174.8" dominant-baseline="middle" text-anchor="end" font-size="12" fill="#24292f">5500.0</text>
        
            
            
            <path stroke="#74838f" stroke-dasharray="10 6" stroke-width="0.5"  d="M 50.0 174.8 L 974.0 174.8" />
        
    
        
        
        <text x="45.0" font-family="-apple-system, system-ui, BlinkMacSystemFont, Roboto" y="206.0" dominant-baseline="middle" text-anchor="end" font-size="12" fill="#24292f">0.0</text>
        
    
    
        
        <path stroke="#74838f"  stroke-width="2.0"  d="M 103.95620437956205 206.0 L 103.95620437956205 214.0" />
        <text x="103.95620437956205" font-family="-apple-system, system-ui, BlinkMacSystemFont, Roboto" y="216.0" dominant-baseline="hanging" text-anchor="middle" font-size="12" fill="#24292f">Mar 2022</text>
    
        
        <path stroke="#74838f"  stroke-width="2.0"  d="M 208.49635036496352 206.0 L 208.49635036496352 214.0" />
        <text x="208.49635036496352" font-family="-apple-system, system-ui, BlinkMacSystemFont, Roboto" y="216.0" dominant-baseline="hanging" text-anchor="middle" font-size="12" fill="#24292f">Apr 2022</text>
    
        
        <path stroke="#74838f"  stroke-width="2.0"  d="M 309.66423357664235 206.0 L 309.66423357664235 214.0" />
        <text x="309.66423357664235" font-family="-apple-system, system-ui, BlinkMacSystemFont, Roboto" y="216.0" dominant-baseline="hanging" text-anchor="middle" font-size="12" fill="#24292f">May 2022</text>
    
        
        <path stroke="#74838f"  stroke-width="2.0"  d="M 414.2043795620438 206.0 L 414.2043795620438 214.0" />
        <text x="414.2043795620438" font-family="-apple-system, system-ui, BlinkMacSystemFont, Roboto" y="216.0" dominant-baseline="hanging" text-anchor="middle" font-size="12" fill="#24292f">Jun 2022</text>
    
        
        <path stroke="#74838f"  stroke-width="2.0"  d="M 515.3722627737227 206.0 L 515.3722627737227 214.0" />
        <text x="515.3722627737227" font-family="-apple-system, system-ui, BlinkMacSystemFont, Roboto" y="216.0" dominant-baseline="hanging" text-anchor="middle" font-size="12" fill="#24292f">Jul 2022</text>
    
        
        <path stroke="#74838f"  stroke-width="2.0"  d="M 619.9124087591241 206.0 L 619.9124087591241 214.0" />
        <text x="619.9124087591241" font-family="-apple-system, system-ui, BlinkMacSystemFont, Roboto" y="216.0" dominant-baseline="hanging" text-anchor="middle" font-size="12" fill="#24292f">Aug 2022</text>
    
        
        <path stroke="#74838f"  stroke-width="2.0"  d="M 724.4525547445255 206.0 L 724.4525547445255 214.0" />
        <text x="724.4525547445255" font-family="-apple-system, system-ui, BlinkMacSystemFont, Roboto" y="216.0" dominant-baseline="hanging" text-anchor="middle" font-size="12" fill="#24292f">Sep 2022</text>
    
        
        <path stroke="#74838f"  stroke-width="2.0"  d="M 825.6204379562043 206.0 L 825.6204379562043 214.0" />
        <text x="825.6204379562043" font-family="-apple-system, system-ui, BlinkMacSystemFont, Roboto" y="216.0" dominant-baseline="hanging" text-anchor="middle" font-size="12" fill="#24292f">Oct 2022</text>
    
        
        <path stroke="#74838f"  stroke-width="2.0"  d="M 930.1605839416059 206.0 L 930.1605839416059 214.0" />
        <text x="930.1605839416059" font-family="-apple-system, system-ui, BlinkMacSystemFont, Roboto" y="216.0" dominant-baseline="hanging" text-anchor="middle" font-size="12" fill="#24292f">Nov 2022</text>
    
    <path stroke="#74838f"   stroke-linejoin="round" stroke-width="2.0" d="M 50.0 216.0 L 50.0 206.0 L 974.0 206.0 L 974.0 216.0"  fill="none" />
    <text x="512.0" y="25.0" font-family="-apple-system, system-ui, BlinkMacSystemFont, Roboto" dominant-baseline="middle" text-anchor="middle" font-size="18" fill="#24292f">Total daily screen name changes</text>
</svg>
