<?xml version="1.0" standalone="no"?>
<svg width="1024.0" height="256.0"  viewBox="0 0 1024.0 256.0" preserveAspectRatio="xMidYMid meet" xmlns="http://www.w3.org/2000/svg">
    <path stroke="#3498db" stroke-linejoin="round" d="M 50.0 203.3394909090909 L 50 203.3394909090909L 52.552486187845304 202.32974545454545L 55.10497237569061 196.86690909090908L 57.65745856353591 195.94792727272727L 60.209944751381215 202.14254545454546L 62.76243093922652 197.35476363636363L 65.31491712707182 191.76145454545454L 67.86740331491713 179.96218181818182L 70.41988950276243 204.09396363636364L 72.97237569060773 194.17236363636363L 75.52486187845304 192.61803636363635L 78.07734806629834 195.1253818181818L 80.62983425414365 193.92843636363637L 83.18232044198895 182.2482909090909L 85.73480662983425 200.86618181818181L 88.28729281767956 201.45614545454546L 90.83977900552486 178.89003636363637L 93.39226519337016 197.33774545454546L 95.94475138121547 198.50065454545455L 98.49723756906077 200.41803636363636L 101.04972375690608 201.18385454545455L 103.60220994475138 202.26734545454545L 106.15469613259668 195.09134545454546L 108.707182320442 198.08087272727272L 111.25966850828729 183.38850909090908L 113.81215469613261 197.47389090909093L 116.3646408839779 202.01774545454546L 118.9171270718232 194.66021818181818L 121.4696132596685 200.75272727272727L 124.02209944751381 200.00392727272728L 126.57458563535911 201.97236363636364L 129.1270718232044 204.2754909090909L 131.67955801104972 201.74545454545455L 134.23204419889504 201.01367272727273L 136.78453038674033 174.7829818181818L 139.33701657458562 195.76072727272728L 141.88950276243094 204.0032L 144.44198895027625 203.7309090909091L 146.99447513812154 197.87665454545453L 149.54696132596683 202.60770909090908L 152.09944751381215 202.6928L 154.65193370165747 197.55898181818182L 157.20441988950276 186.5141818181818L 159.75690607734805 199.26647272727274L 162.30939226519337 199.5728L 164.86187845303868 193.4802909090909L 167.414364640884 199.10763636363635L 169.96685082872926 201.54690909090908L 172.51933701657458 201.5696L 175.07182320441987 195.06865454545454L 177.62430939226522 201.70007272727273L 180.1767955801105 197.2866909090909L 182.7292817679558 172.35505454545455L 185.2817679558011 203.20901818181818L 187.8342541436464 199.6749090909091L 190.38674033149172 193.12858181818183L 192.939226519337 196.8896L 195.4917127071823 199.78836363636364L 198.04419889502762 198.82967272727274L 200.59668508287294 204.1336727272727L 203.14917127071823 202.57934545454546L 205.70165745856355 198.9261090909091L 208.25414364640883 206L 210.80662983425415 204.128L 213.35911602209944 192.1245090909091L 215.91160220994476 206L 218.46408839779005 206L 221.01657458563537 206L 223.56906077348066 206L 226.12154696132598 197.37178181818183L 228.67403314917127 199.57847272727273L 231.22651933701658 188.9024L 233.77900552486187 195.02894545454546L 236.3314917127072 191.20552727272727L 238.88397790055248 166.8128L 241.4364640883978 203.8386909090909L 243.9889502762431 198.09221818181817L 246.5414364640884 201.64334545454545L 249.0939226519337 202.2957090909091L 251.646408839779 203.22036363636363L 254.1988950276243 200.66763636363635L 256.7513812154696 191.51185454545455L 259.30386740331494 189.18603636363636L 261.8563535911602 203.86705454545455L 264.4088397790055 197.56465454545454L 266.96132596685084 187.32538181818182L 269.5138121546961 201.2349090909091L 272.0662983425415 200.44639999999998L 274.61878453038673 201.4618181818182L 277.17127071823205 201.09876363636363L 279.72375690607737 201.17818181818183L 282.2762430939227 193.02647272727273L 284.828729281768 198.8069818181818L 287.38121546961327 203.39054545454545L 289.9337016574585 200.30458181818182L 292.4861878453039 198.35883636363636L 295.03867403314916 193.3101090909091L 297.5911602209944 200.56552727272728L 300.14364640883974 203.03883636363636L 302.6961325966851 197.22996363636364L 305.24861878453044 201.95534545454547L 307.8011049723757 196.016L 310.353591160221 202.30705454545455L 312.9060773480663 199.91316363636363L 315.4585635359116 194.62050909090908L 318.0110497237569 201.29163636363637L 320.5635359116022 202.98778181818182L 323.11602209944755 203.5437090909091L 325.6685082872928 200.60523636363638L 328.2209944751381 195.5621818181818L 330.77348066298345 203.24305454545456L 333.3259668508287 200.15709090909093L 335.878453038674 198.46661818181818L 338.43093922651934 201.70007272727273L 340.9834254143646 200.70734545454545L 343.53591160221 200.4293818181818L 346.08839779005524 201.76814545454545L 348.64088397790056 204.6442181818182L 351.1933701657459 206L 353.74585635359114 196.35636363636365L 356.29834254143645 199.21541818181817L 358.8508287292818 156.87418181818182L 361.4033149171271 165.1506909090909L 363.9558011049724 204.1733818181818L 366.50828729281767 202.17658181818183L 369.060773480663 199.31185454545454L 371.6132596685083 198.7842909090909L 374.16574585635357 202.6757818181818L 376.7182320441989 202.8573090909091L 379.2707182320442 196.1861818181818L 381.8232044198895 199.64654545454545L 384.37569060773484 198.2056727272727L 386.9281767955801 201.2178909090909L 389.4806629834254 201.79083636363637L 392.03314917127074 201.90429090909092L 394.585635359116 200.1968L 397.1381215469613 195.17076363636363L 399.69060773480663 206L 402.24309392265195 206L 404.79558011049727 206L 407.34806629834253 191.4834909090909L 409.90055248618785 197.79723636363636L 412.45303867403317 198.85236363636363L 415.0055248618784 199.76L 417.55801104972375 200.03796363636363L 420.11049723756906 200.76407272727272L 422.6629834254144 201.80785454545455L 425.2154696132597 191.63098181818182L 427.76795580110496 194.41061818181817L 430.3204419889503 199.88479999999998L 432.8729281767956 152.63098181818182L 435.42541436464086 197.04843636363637L 437.9779005524862 194.4730181818182L 440.5303867403315 155.90414545454547L 443.0828729281768 91.60945454545454L 445.63535911602213 104.5376L 448.1878453038674 151.17876363636364L 450.7403314917127 185.1981090909091L 453.292817679558 142.76610909090908L 455.8453038674033 125.0672L 458.3977900552486 123.74545454545455L 460.9502762430939 157.99738181818182L 463.50276243093924 53.56814545454546L 466.05524861878456 50.78850909090909L 468.6077348066298 100.02210909090908L 471.16022099447514 156.2445090909091L 473.71270718232046 180.31956363636363L 476.2651933701657 192.43650909090908L 478.81767955801104 193.63912727272728L 481.37016574585635 193.3328L 483.9226519337017 192.11316363636365L 486.475138121547 197.93338181818183L 489.02762430939225 191.5629090909091L 491.58011049723757 198.7672727272727L 494.1325966850829 199.3005090909091L 496.68508287292815 201.64901818181818L 499.23756906077347 200.58821818181818L 501.7900552486188 202.43752727272727L 504.3425414364641 200.73003636363637L 506.8950276243094 189.7703272727273L 509.4475138121547 203.17498181818183L 512 200.48610909090908L 514.5524861878454 185.1810909090909L 517.1049723756905 187.88698181818182L 519.657458563536 191.01832727272728L 522.2099447513813 192.31738181818181L 524.7624309392265 177.09745454545455L 527.3149171270718 167.91330909090908L 529.867403314917 179.30981818181817L 532.4198895027625 186.49716363636364L 534.9723756906078 150.34487272727273L 537.5248618784531 184.27345454545454L 540.0773480662983 199.5104L 542.6298342541436 161.24785454545454L 545.1823204419888 155.49003636363636L 547.7348066298343 176.96130909090908L 550.2872928176795 190.30923636363636L 552.8397790055249 193.50865454545453L 555.3922651933702 201.72843636363638L 557.9447513812154 185.22647272727272L 560.4972375690609 192.03374545454545L 563.049723756906 192.66909090909093L 565.6022099447514 180.18341818181818L 568.1546961325967 194.5013818181818L 570.707182320442 194.6829090909091L 573.2596685082873 201.85323636363637L 575.8121546961326 196.2032L 578.3646408839779 204.49105454545455L 580.9171270718232 191.55723636363638L 583.4696132596686 180.36494545454545L 586.0220994475138 193.02647272727273L 588.5745856353591 186.20785454545455L 591.1270718232043 191.72741818181817L 593.6795580110497 191.4834909090909L 596.2320441988951 196.63432727272726L 598.7845303867404 200.7810909090909L 601.3370165745856 176.26923636363637L 603.8895027624309 165.78036363636363L 606.4419889502763 181.82850909090908L 608.9944751381215 160.6976L 611.5469613259669 163.93105454545454L 614.0994475138122 182.10647272727272L 616.6519337016574 130.808L 619.2044198895028 190.49643636363635L 621.756906077348 202.0914909090909L 624.3093922651934 184.09192727272728L 626.8618784530387 197.50225454545455L 629.414364640884 187.54094545454547L 631.9668508287292 192.95272727272726L 634.5193370165746 201.88727272727272L 637.07182320442 184.33585454545454L 639.6243093922652 183.04814545454545L 642.1767955801105 182.36741818181818L 644.7292817679557 182.54327272727272L 647.2817679558011 186.38938181818182L 649.8342541436464 174.3858909090909L 652.3867403314918 183.1786181818182L 654.939226519337 183.5133090909091L 657.4917127071823 184.60247272727273L 660.0441988950276 186.968L 662.5966850828729 170.00087272727274L 665.1491712707183 167.8338909090909L 667.7016574585635 203.32247272727273L 670.2541436464088 206L 672.8066298342542 128.43112727272728L 675.3591160220994 183.2637090909091L 677.9116022099448 156.8685090909091L 680.4640883977901 183.15592727272727L 683.0165745856353 183.2013090909091L 685.5690607734806 182.25963636363636L 688.121546961326 170.18807272727273L 690.6740331491712 186.86589090909092L 693.2265193370166 183.77425454545454L 695.7790055248619 186.29861818181817L 698.3314917127071 184.17134545454545L 700.8839779005525 184.9655272727273L 703.4364640883978 178.1696L 705.9889502762431 180.70530909090908L 708.5414364640884 170.80072727272727L 711.0939226519337 177.99374545454546L 713.646408839779 175.99127272727273L 716.1988950276243 173.75621818181818L 718.7513812154697 175.45803636363638L 721.3038674033149 196.91796363636365L 723.8563535911602 150.30516363636363L 726.4088397790055 167.34036363636363L 728.9613259668508 174.52203636363637L 731.5138121546961 132.05599999999998L 734.0662983425415 144.8309818181818L 736.6187845303867 173.60872727272726L 739.171270718232 151.91054545454546L 741.7237569060774 194.03621818181819L 744.2762430939226 160.59549090909093L 746.828729281768 206L 749.3812154696133 153.43650909090908L 751.9337016574585 181.01163636363637L 754.4861878453039 181.6413090909091L 757.0386740331492 182.49221818181817L 759.5911602209945 183.08785454545455L 762.1436464088398 206L 764.6961325966851 151.86516363636363L 767.2486187845303 172.45716363636365L 769.8011049723757 169.20669090909092L 772.353591160221 178.22065454545455L 774.9060773480663 175.54312727272728L 777.4585635359116 177.61367272727273L 780.0110497237569 181.0173090909091L 782.5635359116022 176.80814545454547L 785.1160220994475 167.8962909090909L 787.6685082872929 167.1248L 790.2209944751381 176.62094545454545L 792.7734806629834 158.63272727272727L 795.3259668508288 151.3602909090909L 797.878453038674 173.35345454545455L 800.4309392265194 206L 802.9834254143647 206L 805.5359116022099 206L 808.0883977900552 206L 810.6408839779006 206L 813.1933701657458 206L 815.7458563535912 206L 818.2983425414365 206L 820.8508287292817 206L 823.4033149171271 206L 825.9558011049724 206L 828.5082872928177 206L 831.060773480663 206L 833.6132596685082 206L 836.1657458563536 206L 838.7182320441989 206L 841.2707182320443 206L 843.8232044198895 206L 846.3756906077348 206L 848.92817679558 206L 851.4806629834254 206L 854.0331491712708 206L 856.585635359116 206L 859.1381215469613 206L 861.6906077348066 206L 864.243093922652 206L 866.7955801104972 206L 869.3480662983426 206L 871.9005524861878 206L 874.4530386740331 206L 877.0055248618785 206L 879.5580110497237 206L 882.1104972375691 206L 884.6629834254144 206L 887.2154696132596 206L 889.7679558011049 206L 892.3204419889503 206L 894.8729281767957 206L 897.4254143646409 206L 899.9779005524862 206L 902.5303867403314 206L 905.0828729281768 206L 907.6353591160221 206L 910.1878453038674 206L 912.7403314917127 206L 915.292817679558 206L 917.8453038674033 206L 920.3977900552486 206L 922.950276243094 206L 925.5027624309392 206L 928.0552486187845 206L 930.6077348066298 206L 933.1602209944751 206L 935.7127071823205 206L 938.2651933701658 206L 940.817679558011 206L 943.3701657458563 206L 945.9226519337017 206L 948.4751381215469 206L 951.0276243093923 206L 953.5801104972376 206L 956.1325966850828 206L 958.6850828729282 206L 961.2375690607735 206L 963.7900552486188 206L 966.3425414364641 206L 968.8950276243094 206L 971.4475138121546 206L 974 206" stroke-width="2.0" fill="none" />
    
        
        
        <text x="45.0" font-family="-apple-system, system-ui, BlinkMacSystemFont, Roboto" y="50.0" dominant-baseline="middle" text-anchor="end" font-size="12" fill="#24292f">27500.0</text>
        
            
            <path stroke="#74838f" stroke-dasharray="10 6" stroke-width="0.5"  d="M 50.0 50.0 L 974.0 50.0" />
        
    
        
        
        <text x="45.0" font-family="-apple-system, system-ui, BlinkMacSystemFont, Roboto" y="81.2" dominant-baseline="middle" text-anchor="end" font-size="12" fill="#24292f">22000.0</text>
        
            
            
            <path stroke="#74838f" stroke-dasharray="10 6" stroke-width="0.5"  d="M 50.0 81.2 L 974.0 81.2" />
        
    
        
        
        <text x="45.0" font-family="-apple-system, system-ui, BlinkMacSystemFont, Roboto" y="112.4" dominant-baseline="middle" text-anchor="end" font-size="12" fill="#24292f">16500.0</text>
        
            
            
            <path stroke="#74838f" stroke-dasharray="10 6" stroke-width="0.5"  d="M 50.0 112.4 L 974.0 112.4" />
        
    
        
        
        <text x="45.0" font-family="-apple-system, system-ui, BlinkMacSystemFont, Roboto" y="143.6" dominant-baseline="middle" text-anchor="end" font-size="12" fill="#24292f">11000.0</text>
        
            
            
            <path stroke="#74838f" stroke-dasharray="10 6" stroke-width="0.5"  d="M 50.0 143.6 L 974.0 143.6" />
        
    
        
        
        <text x="45.0" font-family="-apple-system, system-ui, BlinkMacSystemFont, Roboto" y="174.8" dominant-baseline="middle" text-anchor="end" font-size="12" fill="#24292f">5500.0</text>
        
            
            
            <path stroke="#74838f" stroke-dasharray="10 6" stroke-width="0.5"  d="M 50.0 174.8 L 974.0 174.8" />
        
    
        
        
        <text x="45.0" font-family="-apple-system, system-ui, BlinkMacSystemFont, Roboto" y="206.0" dominant-baseline="middle" text-anchor="end" font-size="12" fill="#24292f">0.0</text>
        
    
    
        
        <path stroke="#74838f"  stroke-width="2.0"  d="M 90.83977900552486 206.0 L 90.83977900552486 214.0" />
        <text x="90.83977900552486" font-family="-apple-system, system-ui, BlinkMacSystemFont, Roboto" y="216.0" dominant-baseline="hanging" text-anchor="middle" font-size="12" fill="#24292f">Mar 2022</text>
    
        
        <path stroke="#74838f"  stroke-width="2.0"  d="M 169.96685082872926 206.0 L 169.96685082872926 214.0" />
        <text x="169.96685082872926" font-family="-apple-system, system-ui, BlinkMacSystemFont, Roboto" y="216.0" dominant-baseline="hanging" text-anchor="middle" font-size="12" fill="#24292f">Apr 2022</text>
    
        
        <path stroke="#74838f"  stroke-width="2.0"  d="M 246.5414364640884 206.0 L 246.5414364640884 214.0" />
        <text x="246.5414364640884" font-family="-apple-system, system-ui, BlinkMacSystemFont, Roboto" y="216.0" dominant-baseline="hanging" text-anchor="middle" font-size="12" fill="#24292f">May 2022</text>
    
        
        <path stroke="#74838f"  stroke-width="2.0"  d="M 325.6685082872928 206.0 L 325.6685082872928 214.0" />
        <text x="325.6685082872928" font-family="-apple-system, system-ui, BlinkMacSystemFont, Roboto" y="216.0" dominant-baseline="hanging" text-anchor="middle" font-size="12" fill="#24292f">Jun 2022</text>
    
        
        <path stroke="#74838f"  stroke-width="2.0"  d="M 402.24309392265195 206.0 L 402.24309392265195 214.0" />
        <text x="402.24309392265195" font-family="-apple-system, system-ui, BlinkMacSystemFont, Roboto" y="216.0" dominant-baseline="hanging" text-anchor="middle" font-size="12" fill="#24292f">Jul 2022</text>
    
        
        <path stroke="#74838f"  stroke-width="2.0"  d="M 481.37016574585635 206.0 L 481.37016574585635 214.0" />
        <text x="481.37016574585635" font-family="-apple-system, system-ui, BlinkMacSystemFont, Roboto" y="216.0" dominant-baseline="hanging" text-anchor="middle" font-size="12" fill="#24292f">Aug 2022</text>
    
        
        <path stroke="#74838f"  stroke-width="2.0"  d="M 560.4972375690609 206.0 L 560.4972375690609 214.0" />
        <text x="560.4972375690609" font-family="-apple-system, system-ui, BlinkMacSystemFont, Roboto" y="216.0" dominant-baseline="hanging" text-anchor="middle" font-size="12" fill="#24292f">Sep 2022</text>
    
        
        <path stroke="#74838f"  stroke-width="2.0"  d="M 637.07182320442 206.0 L 637.07182320442 214.0" />
        <text x="637.07182320442" font-family="-apple-system, system-ui, BlinkMacSystemFont, Roboto" y="216.0" dominant-baseline="hanging" text-anchor="middle" font-size="12" fill="#24292f">Oct 2022</text>
    
        
        <path stroke="#74838f"  stroke-width="2.0"  d="M 716.1988950276243 206.0 L 716.1988950276243 214.0" />
        <text x="716.1988950276243" font-family="-apple-system, system-ui, BlinkMacSystemFont, Roboto" y="216.0" dominant-baseline="hanging" text-anchor="middle" font-size="12" fill="#24292f">Nov 2022</text>
    
        
        <path stroke="#74838f"  stroke-width="2.0"  d="M 792.7734806629834 206.0 L 792.7734806629834 214.0" />
        <text x="792.7734806629834" font-family="-apple-system, system-ui, BlinkMacSystemFont, Roboto" y="216.0" dominant-baseline="hanging" text-anchor="middle" font-size="12" fill="#24292f">Dec 2022</text>
    
        
        <path stroke="#74838f"  stroke-width="2.0"  d="M 871.9005524861878 206.0 L 871.9005524861878 214.0" />
        <text x="871.9005524861878" font-family="-apple-system, system-ui, BlinkMacSystemFont, Roboto" y="216.0" dominant-baseline="hanging" text-anchor="middle" font-size="12" fill="#24292f">Jan 2023</text>
    
        
        <path stroke="#74838f"  stroke-width="2.0"  d="M 951.0276243093923 206.0 L 951.0276243093923 214.0" />
        <text x="951.0276243093923" font-family="-apple-system, system-ui, BlinkMacSystemFont, Roboto" y="216.0" dominant-baseline="hanging" text-anchor="middle" font-size="12" fill="#24292f">Feb 2023</text>
    
    <path stroke="#74838f"   stroke-linejoin="round" stroke-width="2.0" d="M 50.0 216.0 L 50.0 206.0 L 974.0 206.0 L 974.0 216.0"  fill="none" />
    <text x="512.0" y="25.0" font-family="-apple-system, system-ui, BlinkMacSystemFont, Roboto" dominant-baseline="middle" text-anchor="middle" font-size="18" fill="#24292f">Total daily screen name changes</text>
</svg>
