<?xml version="1.0" standalone="no"?>
<svg width="1024.0" height="256.0"  viewBox="0 0 1024.0 256.0" preserveAspectRatio="xMidYMid meet" xmlns="http://www.w3.org/2000/svg">
    <path stroke="#3498db" stroke-linejoin="round" d="M 50.0 203.3394909090909 L 50 203.3394909090909L 52.0352422907489 202.32974545454545L 54.070484581497794 196.86690909090908L 56.1057268722467 195.94792727272727L 58.140969162995596 202.14254545454546L 60.17621145374449 197.35476363636363L 62.21145374449339 191.76145454545454L 64.2466960352423 179.96218181818182L 66.28193832599119 204.09396363636364L 68.31718061674009 194.17236363636363L 70.35242290748899 192.61803636363635L 72.38766519823788 195.1253818181818L 74.42290748898678 193.92843636363637L 76.45814977973569 182.2482909090909L 78.49339207048459 200.86618181818181L 80.52863436123349 201.45614545454546L 82.56387665198238 178.89003636363637L 84.59911894273128 197.33774545454546L 86.63436123348018 198.50065454545455L 88.66960352422907 200.41803636363636L 90.70484581497797 201.18385454545455L 92.74008810572687 202.26734545454545L 94.77533039647577 195.09134545454546L 96.81057268722466 198.08087272727272L 98.84581497797356 183.38850909090908L 100.88105726872246 197.47389090909093L 102.91629955947137 202.01774545454546L 104.95154185022025 194.66021818181818L 106.98678414096916 200.75272727272727L 109.02202643171806 200.00392727272728L 111.05726872246696 201.97236363636364L 113.09251101321587 204.2754909090909L 115.12775330396477 201.74545454545455L 117.16299559471365 201.01367272727273L 119.19823788546256 174.7829818181818L 121.23348017621146 195.76072727272728L 123.26872246696036 204.0032L 125.30396475770925 203.7309090909091L 127.33920704845815 197.87665454545453L 129.37444933920705 202.60770909090908L 131.40969162995594 202.6928L 133.44493392070484 197.55898181818182L 135.48017621145374 186.5141818181818L 137.51541850220264 199.26647272727274L 139.55066079295153 199.5728L 141.58590308370043 193.4802909090909L 143.62114537444933 199.10763636363635L 145.65638766519822 201.54690909090908L 147.69162995594712 201.5696L 149.72687224669605 195.06865454545454L 151.76211453744492 201.70007272727273L 153.7973568281938 197.2866909090909L 155.83259911894274 172.35505454545455L 157.86784140969164 203.20901818181818L 159.9030837004405 199.6749090909091L 161.93832599118943 193.12858181818183L 163.97356828193833 196.8896L 166.00881057268722 199.78836363636364L 168.04405286343612 198.82967272727274L 170.07929515418505 204.1336727272727L 172.11453744493392 202.57934545454546L 174.1497797356828 198.9261090909091L 176.18502202643174 206L 178.2202643171806 204.128L 180.25550660792953 192.1245090909091L 182.29074889867843 206L 184.3259911894273 206L 186.36123348017622 206L 188.39647577092512 206L 190.431718061674 197.37178181818183L 192.46696035242292 199.57847272727273L 194.5022026431718 188.9024L 196.5374449339207 195.02894545454546L 198.5726872246696 191.20552727272727L 200.6079295154185 166.8128L 202.6431718061674 203.8386909090909L 204.6784140969163 198.09221818181817L 206.71365638766522 201.64334545454545L 208.7488986784141 202.2957090909091L 210.784140969163 203.22036363636363L 212.81938325991192 200.66763636363635L 214.85462555066078 191.51185454545455L 216.88986784140968 189.18603636363636L 218.9251101321586 203.86705454545455L 220.96035242290748 197.56465454545454L 222.9955947136564 187.32538181818182L 225.0308370044053 201.2349090909091L 227.06607929515417 200.44639999999998L 229.1013215859031 201.4618181818182L 231.136563876652 201.09876363636363L 233.17180616740086 201.17818181818183L 235.20704845814979 193.02647272727273L 237.24229074889868 198.8069818181818L 239.27753303964758 203.39054545454545L 241.31277533039648 200.30458181818182L 243.34801762114537 198.35883636363636L 245.38325991189427 193.3101090909091L 247.41850220264317 200.56552727272728L 249.4537444933921 203.03883636363636L 251.48898678414096 197.22996363636364L 253.52422907488986 201.95534545454547L 255.55947136563879 196.016L 257.5947136563876 202.30705454545455L 259.6299559471365 199.91316363636363L 261.6651982378855 194.62050909090908L 263.7004405286343 201.29163636363637L 265.73568281938327 202.98778181818182L 267.77092511013217 203.5437090909091L 269.806167400881 200.60523636363638L 271.84140969162996 195.5621818181818L 273.87665198237886 203.24305454545456L 275.91189427312776 200.15709090909093L 277.94713656387665 198.46661818181818L 279.98237885462555 201.70007272727273L 282.01762114537445 200.70734545454545L 284.0528634361234 200.4293818181818L 286.08810572687224 201.76814545454545L 288.12334801762114 204.6442181818182L 290.1585903083701 206L 292.19383259911893 196.35636363636365L 294.22907488986783 199.21541818181817L 296.2643171806168 156.87418181818182L 298.2995594713656 165.1506909090909L 300.3348017621145 204.1733818181818L 302.3700440528635 202.17658181818183L 304.4052863436123 199.31185454545454L 306.4405286343612 198.7842909090909L 308.47577092511017 202.6757818181818L 310.51101321585907 202.8573090909091L 312.5462555066079 196.1861818181818L 314.58149779735686 199.64654545454545L 316.61674008810576 198.2056727272727L 318.6519823788546 201.2178909090909L 320.68722466960355 201.79083636363637L 322.72246696035245 201.90429090909092L 324.7577092511013 200.1968L 326.79295154185024 195.17076363636363L 328.82819383259914 206L 330.863436123348 206L 332.89867841409693 206L 334.93392070484583 191.4834909090909L 336.96916299559473 197.79723636363636L 339.0044052863436 198.85236363636363L 341.0396475770925 199.76L 343.0748898678414 200.03796363636363L 345.1101321585903 200.76407272727272L 347.1453744493392 201.80785454545455L 349.1806167400881 191.63098181818182L 351.215859030837 194.41061818181817L 353.2511013215859 199.88479999999998L 355.2863436123348 152.63098181818182L 357.3215859030837 197.04843636363637L 359.3568281938326 194.4730181818182L 361.3920704845815 155.90414545454547L 363.42731277533045 91.60945454545454L 365.4625550660793 104.5376L 367.4977973568282 151.17876363636364L 369.53303964757714 185.1981090909091L 371.568281938326 142.76610909090908L 373.6035242290749 125.0672L 375.63876651982383 123.74545454545455L 377.6740088105727 157.99738181818182L 379.70925110132157 53.56814545454546L 381.7444933920705 50.78850909090909L 383.77973568281936 100.02210909090908L 385.81497797356826 156.2445090909091L 387.8502202643172 180.31956363636363L 389.8854625550661 192.43650909090908L 391.92070484581495 193.63912727272728L 393.9559471365639 193.3328L 395.9911894273128 192.11316363636365L 398.02643171806164 197.93338181818183L 400.0616740088106 191.5629090909091L 402.0969162995595 198.7672727272727L 404.13215859030834 199.3005090909091L 406.1674008810573 201.64901818181818L 408.2026431718062 200.58821818181818L 410.237885462555 202.43752727272727L 412.273127753304 200.73003636363637L 414.3083700440529 189.7703272727273L 416.3436123348017 203.17498181818183L 418.3788546255507 200.48610909090908L 420.41409691629957 185.1810909090909L 422.44933920704847 187.88698181818182L 424.48458149779736 191.01832727272728L 426.51982378854626 192.31738181818181L 428.55506607929516 177.09745454545455L 430.59030837004406 167.91330909090908L 432.62555066079295 179.30981818181817L 434.66079295154185 186.49716363636364L 436.69603524229075 150.34487272727273L 438.73127753303964 184.27345454545454L 440.76651982378854 199.5104L 442.80176211453744 161.24785454545454L 444.83700440528634 155.49003636363636L 446.87224669603523 176.96130909090908L 448.9074889867842 190.30923636363636L 450.942731277533 193.50865454545453L 452.9779735682819 201.72843636363638L 455.0132158590309 185.22647272727272L 457.0484581497797 192.03374545454545L 459.0837004405286 192.66909090909093L 461.11894273127757 180.18341818181818L 463.1541850220264 194.5013818181818L 465.1894273127753 194.6829090909091L 467.22466960352426 201.85323636363637L 469.2599118942731 196.2032L 471.295154185022 204.49105454545455L 473.33039647577095 191.55723636363638L 475.36563876651985 180.36494545454545L 477.4008810572687 193.02647272727273L 479.43612334801765 186.20785454545455L 481.47136563876654 191.72741818181817L 483.5066079295154 191.4834909090909L 485.54185022026434 196.63432727272726L 487.57709251101323 200.7810909090909L 489.6123348017621 176.26923636363637L 491.647577092511 165.78036363636363L 493.6828193832599 181.82850909090908L 495.71806167400877 160.6976L 497.7533039647577 163.93105454545454L 499.7885462555066 182.10647272727272L 501.8237885462555 130.808L 503.8590308370044 190.49643636363635L 505.8942731277533 202.0914909090909L 507.9295154185022 184.09192727272728L 509.9647577092511 197.50225454545455L 512 187.54094545454547L 514.0352422907489 192.95272727272726L 516.0704845814978 201.88727272727272L 518.1057268722468 184.33585454545454L 520.1409691629956 183.04814545454545L 522.1762114537445 182.36741818181818L 524.2114537444934 182.54327272727272L 526.2466960352423 186.38938181818182L 528.2819383259912 174.3858909090909L 530.3171806167402 183.1786181818182L 532.352422907489 183.5133090909091L 534.3876651982379 184.60247272727273L 536.4229074889868 186.968L 538.4581497797357 170.00087272727274L 540.4933920704846 167.8338909090909L 542.5286343612336 203.32247272727273L 544.5638766519824 206L 546.5991189427313 128.43112727272728L 548.6343612334801 183.2637090909091L 550.669603524229 156.8685090909091L 552.704845814978 183.15592727272727L 554.740088105727 183.2013090909091L 556.7753303964757 182.25963636363636L 558.8105726872246 170.18807272727273L 560.8458149779735 186.86589090909092L 562.8810572687224 183.77425454545454L 564.9162995594713 186.29861818181817L 566.9515418502203 184.17134545454545L 568.9867841409692 184.9655272727273L 571.0220264317181 178.1696L 573.0572687224669 180.70530909090908L 575.0925110132158 170.80072727272727L 577.1277533039647 177.99374545454546L 579.1629955947137 175.99127272727273L 581.1982378854626 173.75621818181818L 583.2334801762115 175.45803636363638L 585.2687224669603 196.91796363636365L 587.3039647577092 150.30516363636363L 589.3392070484581 167.34036363636363L 591.3744493392071 174.52203636363637L 593.409691629956 132.05599999999998L 595.4449339207049 144.8309818181818L 597.4801762114538 173.60872727272726L 599.5154185022026 151.91054545454546L 601.5506607929515 194.03621818181819L 603.5859030837005 160.59549090909093L 605.6211453744494 206L 607.6563876651983 153.43650909090908L 609.6916299559472 181.01163636363637L 611.726872246696 181.6413090909091L 613.7621145374449 182.49221818181817L 615.7973568281939 183.08785454545455L 617.8325991189428 206L 619.8678414096917 151.86516363636363L 621.9030837004406 172.45716363636365L 623.9383259911895 169.20669090909092L 625.9735682819382 178.22065454545455L 628.0088105726873 175.54312727272728L 630.0440528634361 177.61367272727273L 632.079295154185 181.0173090909091L 634.114537444934 176.80814545454547L 636.1497797356828 167.8962909090909L 638.1850220264316 167.1248L 640.2202643171806 176.62094545454545L 642.2555066079295 158.63272727272727L 644.2907488986784 151.3602909090909L 646.3259911894273 173.35345454545455L 648.3612334801762 206L 650.3964757709251 206L 652.431718061674 206L 654.4669603524229 206L 656.5022026431718 206L 658.5374449339207 206L 660.5726872246696 206L 662.6079295154185 206L 664.6431718061674 206L 666.6784140969163 206L 668.7136563876652 206L 670.7488986784141 206L 672.784140969163 206L 674.8193832599119 206L 676.8546255506609 206L 678.8898678414097 206L 680.9251101321586 206L 682.9603524229075 206L 684.9955947136564 206L 687.0308370044053 206L 689.0660792951543 206L 691.1013215859031 206L 693.136563876652 206L 695.1718061674009 206L 697.2070484581498 206L 699.2422907488987 206L 701.2775330396477 206L 703.3127753303966 206L 705.3480176211453 206L 707.3832599118942 206L 709.4185022026431 206L 711.453744493392 206L 713.488986784141 206L 715.52422907489 206L 717.5594713656387 206L 719.5947136563876 206L 721.6299559471365 206L 723.6651982378854 206L 725.7004405286344 206L 727.7356828193833 206L 729.7709251101322 206L 731.806167400881 206L 733.8414096916299 206L 735.8766519823788 206L 737.9118942731278 206L 739.9471365638767 206L 741.9823788546256 206L 744.0176211453744 206L 746.0528634361233 206L 748.0881057268722 206L 750.1233480176212 206L 752.1585903083701 206L 754.193832599119 206L 756.2290748898678 206L 758.2643171806167 206L 760.2995594713656 206L 762.3348017621146 206L 764.3700440528635 206L 766.4052863436124 206L 768.4405286343613 206L 770.47577092511 206L 772.511013215859 206L 774.546255506608 206L 776.5814977973569 206L 778.6167400881058 206L 780.6519823788547 206L 782.6872246696034 206L 784.7224669603523 206L 786.7577092511013 206L 788.7929515418502 206L 790.8281938325991 206L 792.863436123348 206L 794.8986784140969 206L 796.9339207048457 206L 798.9691629955947 206L 801.0044052863436 206L 803.0396475770925 206L 805.0748898678414 206L 807.1101321585903 206L 809.1453744493391 206L 811.1806167400881 206L 813.215859030837 206L 815.2511013215859 206L 817.2863436123348 206L 819.3215859030837 206L 821.3568281938326 206L 823.3920704845815 206L 825.4273127753304 206L 827.4625550660793 206L 829.4977973568282 206L 831.5330396475771 206L 833.568281938326 206L 835.6035242290749 206L 837.6387665198238 206L 839.6740088105727 206L 841.7092511013216 206L 843.7444933920705 206L 845.7797356828194 206L 847.8149779735684 206L 849.8502202643172 206L 851.885462555066 206L 853.920704845815 206L 855.9559471365639 206L 857.9911894273127 206L 860.0264317180618 206L 862.0616740088105 206L 864.0969162995594 206L 866.1321585903083 206L 868.1674008810572 206L 870.2026431718061 206L 872.2378854625551 206L 874.273127753304 206L 876.3083700440528 206L 878.3436123348017 206L 880.3788546255506 206L 882.4140969162995 206L 884.4493392070485 206L 886.4845814977974 206L 888.5198237885462 206L 890.5550660792951 206L 892.590308370044 206L 894.6255506607929 206L 896.6607929515419 206L 898.6960352422908 206L 900.7312775330397 206L 902.7665198237885 206L 904.8017621145374 206L 906.8370044052863 206L 908.8722466960353 206L 910.9074889867842 206L 912.9427312775331 206L 914.9779735682819 206L 917.0132158590308 206L 919.0484581497797 206L 921.0837004405287 206L 923.1189427312776 206L 925.1541850220265 206L 927.1894273127754 206L 929.2246696035241 206L 931.2599118942732 206L 933.295154185022 206L 935.330396475771 206L 937.3656387665199 206L 939.4008810572687 206L 941.4361233480175 206L 943.4713656387665 206L 945.5066079295154 206L 947.5418502202643 206L 949.5770925110132 206L 951.6123348017621 206L 953.647577092511 206L 955.6828193832599 206L 957.7180616740088 206L 959.7533039647577 206L 961.7885462555066 206L 963.8237885462555 206L 965.8590308370044 206L 967.8942731277533 206L 969.9295154185022 206L 971.9647577092511 206L 974 206" stroke-width="2.0" fill="none" />
    
        
        
        <text x="45.0" font-family="-apple-system, system-ui, BlinkMacSystemFont, Roboto" y="50.0" dominant-baseline="middle" text-anchor="end" font-size="12" fill="#24292f">27500.0</text>
        
            
            <path stroke="#74838f" stroke-dasharray="10 6" stroke-width="0.5"  d="M 50.0 50.0 L 974.0 50.0" />
        
    
        
        
        <text x="45.0" font-family="-apple-system, system-ui, BlinkMacSystemFont, Roboto" y="81.2" dominant-baseline="middle" text-anchor="end" font-size="12" fill="#24292f">22000.0</text>
        
            
            
            <path stroke="#74838f" stroke-dasharray="10 6" stroke-width="0.5"  d="M 50.0 81.2 L 974.0 81.2" />
        
    
        
        
        <text x="45.0" font-family="-apple-system, system-ui, BlinkMacSystemFont, Roboto" y="112.4" dominant-baseline="middle" text-anchor="end" font-size="12" fill="#24292f">16500.0</text>
        
            
            
            <path stroke="#74838f" stroke-dasharray="10 6" stroke-width="0.5"  d="M 50.0 112.4 L 974.0 112.4" />
        
    
        
        
        <text x="45.0" font-family="-apple-system, system-ui, BlinkMacSystemFont, Roboto" y="143.6" dominant-baseline="middle" text-anchor="end" font-size="12" fill="#24292f">11000.0</text>
        
            
            
            <path stroke="#74838f" stroke-dasharray="10 6" stroke-width="0.5"  d="M 50.0 143.6 L 974.0 143.6" />
        
    
        
        
        <text x="45.0" font-family="-apple-system, system-ui, BlinkMacSystemFont, Roboto" y="174.8" dominant-baseline="middle" text-anchor="end" font-size="12" fill="#24292f">5500.0</text>
        
            
            
            <path stroke="#74838f" stroke-dasharray="10 6" stroke-width="0.5"  d="M 50.0 174.8 L 974.0 174.8" />
        
    
        
        
        <text x="45.0" font-family="-apple-system, system-ui, BlinkMacSystemFont, Roboto" y="206.0" dominant-baseline="middle" text-anchor="end" font-size="12" fill="#24292f">0.0</text>
        
    
    
        
        <path stroke="#74838f"  stroke-width="2.0"  d="M 82.56387665198238 206.0 L 82.56387665198238 214.0" />
        <text x="82.56387665198238" font-family="-apple-system, system-ui, BlinkMacSystemFont, Roboto" y="216.0" dominant-baseline="hanging" text-anchor="middle" font-size="12" fill="#24292f">Mar 2022</text>
    
        
        <path stroke="#74838f"  stroke-width="2.0"  d="M 145.65638766519822 206.0 L 145.65638766519822 214.0" />
        <text x="145.65638766519822" font-family="-apple-system, system-ui, BlinkMacSystemFont, Roboto" y="216.0" dominant-baseline="hanging" text-anchor="middle" font-size="12" fill="#24292f">Apr 2022</text>
    
        
        <path stroke="#74838f"  stroke-width="2.0"  d="M 206.71365638766522 206.0 L 206.71365638766522 214.0" />
        <text x="206.71365638766522" font-family="-apple-system, system-ui, BlinkMacSystemFont, Roboto" y="216.0" dominant-baseline="hanging" text-anchor="middle" font-size="12" fill="#24292f">May 2022</text>
    
        
        <path stroke="#74838f"  stroke-width="2.0"  d="M 269.806167400881 206.0 L 269.806167400881 214.0" />
        <text x="269.806167400881" font-family="-apple-system, system-ui, BlinkMacSystemFont, Roboto" y="216.0" dominant-baseline="hanging" text-anchor="middle" font-size="12" fill="#24292f">Jun 2022</text>
    
        
        <path stroke="#74838f"  stroke-width="2.0"  d="M 330.863436123348 206.0 L 330.863436123348 214.0" />
        <text x="330.863436123348" font-family="-apple-system, system-ui, BlinkMacSystemFont, Roboto" y="216.0" dominant-baseline="hanging" text-anchor="middle" font-size="12" fill="#24292f">Jul 2022</text>
    
        
        <path stroke="#74838f"  stroke-width="2.0"  d="M 393.9559471365639 206.0 L 393.9559471365639 214.0" />
        <text x="393.9559471365639" font-family="-apple-system, system-ui, BlinkMacSystemFont, Roboto" y="216.0" dominant-baseline="hanging" text-anchor="middle" font-size="12" fill="#24292f">Aug 2022</text>
    
        
        <path stroke="#74838f"  stroke-width="2.0"  d="M 457.0484581497797 206.0 L 457.0484581497797 214.0" />
        <text x="457.0484581497797" font-family="-apple-system, system-ui, BlinkMacSystemFont, Roboto" y="216.0" dominant-baseline="hanging" text-anchor="middle" font-size="12" fill="#24292f">Sep 2022</text>
    
        
        <path stroke="#74838f"  stroke-width="2.0"  d="M 518.1057268722468 206.0 L 518.1057268722468 214.0" />
        <text x="518.1057268722468" font-family="-apple-system, system-ui, BlinkMacSystemFont, Roboto" y="216.0" dominant-baseline="hanging" text-anchor="middle" font-size="12" fill="#24292f">Oct 2022</text>
    
        
        <path stroke="#74838f"  stroke-width="2.0"  d="M 581.1982378854626 206.0 L 581.1982378854626 214.0" />
        <text x="581.1982378854626" font-family="-apple-system, system-ui, BlinkMacSystemFont, Roboto" y="216.0" dominant-baseline="hanging" text-anchor="middle" font-size="12" fill="#24292f">Nov 2022</text>
    
        
        <path stroke="#74838f"  stroke-width="2.0"  d="M 642.2555066079295 206.0 L 642.2555066079295 214.0" />
        <text x="642.2555066079295" font-family="-apple-system, system-ui, BlinkMacSystemFont, Roboto" y="216.0" dominant-baseline="hanging" text-anchor="middle" font-size="12" fill="#24292f">Dec 2022</text>
    
        
        <path stroke="#74838f"  stroke-width="2.0"  d="M 705.3480176211453 206.0 L 705.3480176211453 214.0" />
        <text x="705.3480176211453" font-family="-apple-system, system-ui, BlinkMacSystemFont, Roboto" y="216.0" dominant-baseline="hanging" text-anchor="middle" font-size="12" fill="#24292f">Jan 2023</text>
    
        
        <path stroke="#74838f"  stroke-width="2.0"  d="M 768.4405286343613 206.0 L 768.4405286343613 214.0" />
        <text x="768.4405286343613" font-family="-apple-system, system-ui, BlinkMacSystemFont, Roboto" y="216.0" dominant-baseline="hanging" text-anchor="middle" font-size="12" fill="#24292f">Feb 2023</text>
    
        
        <path stroke="#74838f"  stroke-width="2.0"  d="M 825.4273127753304 206.0 L 825.4273127753304 214.0" />
        <text x="825.4273127753304" font-family="-apple-system, system-ui, BlinkMacSystemFont, Roboto" y="216.0" dominant-baseline="hanging" text-anchor="middle" font-size="12" fill="#24292f">Mar 2023</text>
    
        
        <path stroke="#74838f"  stroke-width="2.0"  d="M 888.5198237885462 206.0 L 888.5198237885462 214.0" />
        <text x="888.5198237885462" font-family="-apple-system, system-ui, BlinkMacSystemFont, Roboto" y="216.0" dominant-baseline="hanging" text-anchor="middle" font-size="12" fill="#24292f">Apr 2023</text>
    
        
        <path stroke="#74838f"  stroke-width="2.0"  d="M 949.5770925110132 206.0 L 949.5770925110132 214.0" />
        <text x="949.5770925110132" font-family="-apple-system, system-ui, BlinkMacSystemFont, Roboto" y="216.0" dominant-baseline="hanging" text-anchor="middle" font-size="12" fill="#24292f">May 2023</text>
    
    <path stroke="#74838f"   stroke-linejoin="round" stroke-width="2.0" d="M 50.0 216.0 L 50.0 206.0 L 974.0 206.0 L 974.0 216.0"  fill="none" />
    <text x="512.0" y="25.0" font-family="-apple-system, system-ui, BlinkMacSystemFont, Roboto" dominant-baseline="middle" text-anchor="middle" font-size="18" fill="#24292f">Total daily screen name changes</text>
</svg>
