<?xml version="1.0" standalone="no"?>
<svg width="1024.0" height="256.0"  viewBox="0 0 1024.0 256.0" preserveAspectRatio="xMidYMid meet" xmlns="http://www.w3.org/2000/svg">
    <path stroke="#e74c3c" stroke-linejoin="round" d="M 50.0 161.108 L 50 161.108L 52.43157894736842 193.664L 54.863157894736844 197.576L 57.294736842105266 197.924L 59.72631578947369 203.528L 62.1578947368421 199.94L 64.58947368421053 199.268L 67.02105263157895 191.108L 69.45263157894738 200.972L 71.8842105263158 198.62L 74.3157894736842 200L 76.74736842105263 202.57999999999998L 79.17894736842105 199.208L 81.61052631578947 195.608L 84.0421052631579 202.652L 86.47368421052632 198.716L 88.90526315789474 197.49200000000002L 91.33684210526316 191.42000000000002L 93.76842105263158 196.688L 96.2 199.46L 98.63157894736841 199.328L 101.06315789473683 198.308L 103.49473684210525 198.164L 105.92631578947368 199.832L 108.3578947368421 194.876L 110.78947368421052 199.904L 113.22105263157894 195.584L 115.65263157894736 200.732L 118.08421052631579 198.416L 120.51578947368421 190.652L 122.94736842105263 196.112L 125.37894736842105 190.82L 127.81052631578947 193.53199999999998L 130.2421052631579 199.688L 132.67368421052632 192.392L 135.10526315789474 197L 137.53684210526316 199.59199999999998L 139.96842105263158 193.54399999999998L 142.4 195.26L 144.83157894736843 195.428L 147.26315789473682 195.548L 149.69473684210527 196.484L 152.12631578947367 199.424L 154.55789473684212 199.22L 156.9894736842105 195.656L 159.42105263157896 193.952L 161.85263157894735 195.536L 164.2842105263158 198.764L 166.7157894736842 195.428L 169.14736842105265 194L 171.57894736842104 193.688L 174.0105263157895 186.32L 176.44210526315788 197.372L 178.8736842105263 195.96800000000002L 181.30526315789473 198.284L 183.73684210526315 194.38400000000001L 186.16842105263157 196.424L 188.6 196.988L 191.03157894736842 198.368L 193.46315789473684 198.05599999999998L 195.89473684210526 199.61599999999999L 198.32631578947368 191.54L 200.7578947368421 202.124L 203.18947368421053 193.34L 205.62105263157895 204.2L 208.05263157894737 206L 210.4842105263158 206L 212.9157894736842 206L 215.34736842105264 206L 217.77894736842106 190.472L 220.21052631578945 159.01999999999998L 222.6421052631579 193.56799999999998L 225.07368421052632 200.228L 227.50526315789472 193.232L 229.93684210526314 196.82L 232.3684210526316 199.772L 234.8 186.548L 237.2315789473684 197.888L 239.66315789473686 195.596L 242.09473684210528 190.508L 244.52631578947367 194.876L 246.9578947368421 190.4L 249.38947368421054 188.756L 251.82105263157897 197.852L 254.25263157894736 199.772L 256.6842105263158 191.936L 259.11578947368423 191.864L 261.5473684210526 199.316L 263.978947368421 194.72L 266.41052631578947 192.608L 268.8421052631579 194.9L 271.2736842105263 199.7L 273.7052631578947 189.224L 276.13684210526316 198.428L 278.5684210526316 196.136L 281 195.296L 283.4315789473684 196.268L 285.86315789473684 193.184L 288.2947368421053 197.204L 290.7263157894737 193.856L 293.1578947368421 197.096L 295.58947368421053 178.16L 298.021052631579 194.372L 300.4526315789474 195.92000000000002L 302.88421052631577 195.11599999999999L 305.3157894736843 196.688L 307.7473684210526 197.49200000000002L 310.17894736842106 197.696L 312.61052631578946 186.848L 315.0421052631579 192.644L 317.4736842105263 199.61599999999999L 319.90526315789475 193.052L 322.33684210526314 191.072L 324.76842105263154 195.44L 327.2 196.184L 329.63157894736844 196.46L 332.06315789473683 197.312L 334.4947368421053 193.076L 336.9263157894737 206L 339.35789473684207 186.44L 341.7894736842105 186.632L 344.2210526315789 191.276L 346.65263157894736 180.93200000000002L 349.0842105263158 201.704L 351.5157894736842 185.744L 353.94736842105266 196.028L 356.37894736842105 189.464L 358.81052631578945 194.228L 361.2421052631579 195.632L 363.6736842105263 196.844L 366.10526315789474 186.332L 368.5368421052632 197.99599999999998L 370.9684210526316 188.924L 373.4 189.128L 375.8315789473684 196.748L 378.2631578947368 182.45600000000002L 380.69473684210527 184.16L 383.1263157894737 206L 385.5578947368421 206L 387.98947368421057 206L 390.4210526315789 160.16L 392.85263157894735 198.536L 395.2842105263158 196.60399999999998L 397.7157894736842 195.668L 400.14736842105265 192.8L 402.5789473684211 196.964L 405.01052631578943 197.828L 407.4421052631579 200.84L 409.8736842105263 170.312L 412.30526315789473 189.236L 414.7368421052632 177.428L 417.1684210526316 191.564L 419.6 178.784L 422.0315789473684 176.372L 424.4631578947368 181.7L 426.89473684210526 187.472L 429.3263157894737 192.88400000000001L 431.7578947368421 189.38L 434.18947368421055 187.772L 436.62105263157895 189.404L 439.05263157894734 187.532L 441.4842105263158 193.59199999999998L 443.9157894736842 185.036L 446.34736842105264 171.332L 448.7789473684211 180.14L 451.2105263157895 172.316L 453.64210526315793 193.028L 456.0736842105263 191.996L 458.5052631578947 193.052L 460.93684210526317 194.84L 463.36842105263156 193.53199999999998L 465.8 194.024L 468.23157894736846 189.272L 470.66315789473686 195.188L 473.09473684210525 196.256L 475.5263157894737 192.62L 477.9578947368421 190.844L 480.38947368421054 200.984L 482.82105263157894 184.796L 485.2526315789474 190.88L 487.6842105263158 194.42000000000002L 490.1157894736842 189.86L 492.5473684210526 195.86L 494.9789473684211 191.984L 497.41052631578947 193.1L 499.8421052631579 186.464L 502.2736842105263 190.46L 504.7052631578947 182.156L 507.13684210526316 187.136L 509.56842105263155 191.528L 512 184.1L 514.4315789473685 189.14L 516.8631578947368 185.204L 519.2947368421053 185.468L 521.7263157894737 176.816L 524.1578947368421 189.04399999999998L 526.5894736842106 191.048L 529.0210526315789 188.756L 531.4526315789474 187.592L 533.8842105263158 191.39600000000002L 536.3157894736842 187.796L 538.7473684210527 188.228L 541.1789473684211 190.268L 543.6105263157895 194.372L 546.042105263158 194.72L 548.4736842105262 201.308L 550.9052631578948 192.752L 553.3368421052633 181.148L 555.7684210526315 181.748L 558.2 181.208L 560.6315789473686 191.3L 563.0631578947368 186.88400000000001L 565.4947368421052 181.376L 567.9263157894736 186.5L 570.3578947368421 188.44400000000002L 572.7894736842105 179.66L 575.2210526315789 183.09199999999998L 577.6526315789474 173.564L 580.0842105263158 183.836L 582.5157894736842 171.668L 584.9473684210526 148.148L 587.3789473684211 178.004L 589.8105263157895 141.86L 592.2421052631579 186.128L 594.6736842105263 188.54000000000002L 597.1052631578947 187.748L 599.5368421052631 193.256L 601.9684210526316 186.596L 604.4 185.42000000000002L 606.8315789473684 186.872L 609.2631578947369 185.372L 611.6947368421053 192.824L 614.1263157894737 188.552L 616.5578947368422 189.32L 618.9894736842106 186.632L 621.421052631579 185.768L 623.8526315789474 188.744L 626.2842105263159 187.34L 628.7157894736841 192.488L 631.1473684210526 187.028L 633.578947368421 185.468L 636.0105263157894 181.928L 638.4421052631578 183.8L 640.8736842105263 180.296L 643.3052631578947 185.516L 645.7368421052631 194L 648.1684210526316 190.328L 650.6 186.584L 653.0315789473684 168.32L 655.4631578947369 117.5L 657.8947368421053 189.10399999999998L 660.3263157894737 187.844L 662.7578947368421 190.28L 665.1894736842105 192.32L 667.6210526315789 189.2L 670.0526315789474 182.288L 672.4842105263158 188.49200000000002L 674.9157894736842 178.916L 677.3473684210526 53.432000000000016L 679.7789473684211 162.656L 682.2105263157895 184.52L 684.6421052631579 182.708L 687.0736842105264 183.68L 689.5052631578948 184.196L 691.9368421052632 179.084L 694.3684210526316 190.16L 696.8 180.476L 699.2315789473683 160.916L 701.6631578947369 121.196L 704.0947368421052 151.50799999999998L 706.5263157894736 164.132L 708.9578947368421 181.184L 711.3894736842105 170.49200000000002L 713.8210526315789 179.792L 716.2526315789474 173.204L 718.6842105263158 178.352L 721.1157894736842 182.792L 723.5473684210526 177.152L 725.9789473684211 184.232L 728.4105263157894 187.796L 730.8421052631578 188.348L 733.2736842105263 184.736L 735.7052631578947 181.892L 738.1368421052631 181.796L 740.5684210526316 179.36L 743 168.176L 745.4315789473684 181.808L 747.8631578947369 185.372L 750.2947368421053 167.708L 752.7263157894737 140.6L 755.1578947368422 160.784L 757.5894736842106 151.664L 760.0210526315789 145.952L 762.4526315789474 155.288L 764.8842105263158 153.68L 767.3157894736842 163.04L 769.7473684210526 172.064L 772.1789473684211 148.952L 774.6105263157895 171.812L 777.0421052631579 172.46L 779.4736842105264 172.508L 781.9052631578948 183.644L 784.3368421052631 166.304L 786.7684210526317 159.26L 789.2 172.652L 791.6315789473684 165.5L 794.0631578947368 154.892L 796.4947368421052 173.888L 798.9263157894736 176.3L 801.3578947368421 186.5L 803.7894736842105 183.932L 806.2210526315789 183.10399999999998L 808.6526315789474 150.128L 811.0842105263158 183.11599999999999L 813.5157894736842 186.152L 815.9473684210526 185.096L 818.3789473684211 182.276L 820.8105263157895 182.18L 823.2421052631579 182.144L 825.6736842105263 174.956L 828.1052631578947 181.988L 830.5368421052631 179.504L 832.9684210526316 184.784L 835.4 179L 837.8315789473684 175.868L 840.2631578947369 177.14L 842.6947368421053 178.832L 845.1263157894737 182.216L 847.5578947368422 176.444L 849.9894736842106 182.576L 852.421052631579 177.02L 854.8526315789474 178.58L 857.2842105263159 182.144L 859.7157894736841 179.48L 862.1473684210526 176.972L 864.578947368421 186.164L 867.0105263157894 176.096L 869.4421052631578 178.04L 871.8736842105263 152.996L 874.3052631578947 130.724L 876.7368421052631 149.888L 879.1684210526316 149.48L 881.6 184.1L 884.0315789473684 184.484L 886.4631578947369 177.56L 888.8947368421053 139.952L 891.3263157894737 148.028L 893.7578947368421 162.428L 896.1894736842105 136.244L 898.6210526315789 132.128L 901.0526315789474 142.508L 903.4842105263158 143.252L 905.9157894736842 125.732L 908.3473684210526 117.06800000000001L 910.7789473684211 164.264L 913.2105263157895 161.876L 915.6421052631579 158.636L 918.0736842105264 176.40800000000002L 920.5052631578948 186.632L 922.9368421052632 187.352L 925.3684210526316 186.152L 927.8 174.932L 930.2315789473683 178.388L 932.6631578947369 194.636L 935.0947368421052 184.748L 937.5263157894736 182.84L 939.9578947368421 173.78L 942.3894736842105 177.56L 944.8210526315789 179.996L 947.2526315789474 183.188L 949.6842105263158 153.68L 952.1157894736842 147.548L 954.5473684210526 185.504L 956.9789473684211 190.724L 959.4105263157894 174.752L 961.8421052631578 174.32L 964.2736842105263 183.692L 966.7052631578947 189.06799999999998L 969.1368421052631 186.88400000000001L 971.5684210526316 179.096L 974 180.656" stroke-width="2.0" fill="none" />
    
        
        
        <text x="45.0" font-family="-apple-system, system-ui, BlinkMacSystemFont, Roboto" y="50.0" dominant-baseline="middle" text-anchor="end" font-size="12" fill="#24292f">13000.0</text>
        
            
            <path stroke="#74838f" stroke-dasharray="10 6" stroke-width="0.5"  d="M 50.0 50.0 L 974.0 50.0" />
        
    
        
        
        <text x="45.0" font-family="-apple-system, system-ui, BlinkMacSystemFont, Roboto" y="81.2" dominant-baseline="middle" text-anchor="end" font-size="12" fill="#24292f">10400.0</text>
        
            
            
            <path stroke="#74838f" stroke-dasharray="10 6" stroke-width="0.5"  d="M 50.0 81.2 L 974.0 81.2" />
        
    
        
        
        <text x="45.0" font-family="-apple-system, system-ui, BlinkMacSystemFont, Roboto" y="112.4" dominant-baseline="middle" text-anchor="end" font-size="12" fill="#24292f">7800.0</text>
        
            
            
            <path stroke="#74838f" stroke-dasharray="10 6" stroke-width="0.5"  d="M 50.0 112.4 L 974.0 112.4" />
        
    
        
        
        <text x="45.0" font-family="-apple-system, system-ui, BlinkMacSystemFont, Roboto" y="143.6" dominant-baseline="middle" text-anchor="end" font-size="12" fill="#24292f">5200.0</text>
        
            
            
            <path stroke="#74838f" stroke-dasharray="10 6" stroke-width="0.5"  d="M 50.0 143.6 L 974.0 143.6" />
        
    
        
        
        <text x="45.0" font-family="-apple-system, system-ui, BlinkMacSystemFont, Roboto" y="174.8" dominant-baseline="middle" text-anchor="end" font-size="12" fill="#24292f">2600.0</text>
        
            
            
            <path stroke="#74838f" stroke-dasharray="10 6" stroke-width="0.5"  d="M 50.0 174.8 L 974.0 174.8" />
        
    
        
        
        <text x="45.0" font-family="-apple-system, system-ui, BlinkMacSystemFont, Roboto" y="206.0" dominant-baseline="middle" text-anchor="end" font-size="12" fill="#24292f">0.0</text>
        
    
    
        
        <path stroke="#74838f"  stroke-width="2.0"  d="M 88.90526315789474 206.0 L 88.90526315789474 214.0" />
        <text x="88.90526315789474" font-family="-apple-system, system-ui, BlinkMacSystemFont, Roboto" y="216.0" dominant-baseline="hanging" text-anchor="middle" font-size="12" fill="#24292f">Mar 2022</text>
    
        
        <path stroke="#74838f"  stroke-width="2.0"  d="M 164.2842105263158 206.0 L 164.2842105263158 214.0" />
        <text x="164.2842105263158" font-family="-apple-system, system-ui, BlinkMacSystemFont, Roboto" y="216.0" dominant-baseline="hanging" text-anchor="middle" font-size="12" fill="#24292f">Apr 2022</text>
    
        
        <path stroke="#74838f"  stroke-width="2.0"  d="M 237.2315789473684 206.0 L 237.2315789473684 214.0" />
        <text x="237.2315789473684" font-family="-apple-system, system-ui, BlinkMacSystemFont, Roboto" y="216.0" dominant-baseline="hanging" text-anchor="middle" font-size="12" fill="#24292f">May 2022</text>
    
        
        <path stroke="#74838f"  stroke-width="2.0"  d="M 312.61052631578946 206.0 L 312.61052631578946 214.0" />
        <text x="312.61052631578946" font-family="-apple-system, system-ui, BlinkMacSystemFont, Roboto" y="216.0" dominant-baseline="hanging" text-anchor="middle" font-size="12" fill="#24292f">Jun 2022</text>
    
        
        <path stroke="#74838f"  stroke-width="2.0"  d="M 385.5578947368421 206.0 L 385.5578947368421 214.0" />
        <text x="385.5578947368421" font-family="-apple-system, system-ui, BlinkMacSystemFont, Roboto" y="216.0" dominant-baseline="hanging" text-anchor="middle" font-size="12" fill="#24292f">Jul 2022</text>
    
        
        <path stroke="#74838f"  stroke-width="2.0"  d="M 460.93684210526317 206.0 L 460.93684210526317 214.0" />
        <text x="460.93684210526317" font-family="-apple-system, system-ui, BlinkMacSystemFont, Roboto" y="216.0" dominant-baseline="hanging" text-anchor="middle" font-size="12" fill="#24292f">Aug 2022</text>
    
        
        <path stroke="#74838f"  stroke-width="2.0"  d="M 536.3157894736842 206.0 L 536.3157894736842 214.0" />
        <text x="536.3157894736842" font-family="-apple-system, system-ui, BlinkMacSystemFont, Roboto" y="216.0" dominant-baseline="hanging" text-anchor="middle" font-size="12" fill="#24292f">Sep 2022</text>
    
        
        <path stroke="#74838f"  stroke-width="2.0"  d="M 609.2631578947369 206.0 L 609.2631578947369 214.0" />
        <text x="609.2631578947369" font-family="-apple-system, system-ui, BlinkMacSystemFont, Roboto" y="216.0" dominant-baseline="hanging" text-anchor="middle" font-size="12" fill="#24292f">Oct 2022</text>
    
        
        <path stroke="#74838f"  stroke-width="2.0"  d="M 684.6421052631579 206.0 L 684.6421052631579 214.0" />
        <text x="684.6421052631579" font-family="-apple-system, system-ui, BlinkMacSystemFont, Roboto" y="216.0" dominant-baseline="hanging" text-anchor="middle" font-size="12" fill="#24292f">Nov 2022</text>
    
        
        <path stroke="#74838f"  stroke-width="2.0"  d="M 757.5894736842106 206.0 L 757.5894736842106 214.0" />
        <text x="757.5894736842106" font-family="-apple-system, system-ui, BlinkMacSystemFont, Roboto" y="216.0" dominant-baseline="hanging" text-anchor="middle" font-size="12" fill="#24292f">Dec 2022</text>
    
        
        <path stroke="#74838f"  stroke-width="2.0"  d="M 832.9684210526316 206.0 L 832.9684210526316 214.0" />
        <text x="832.9684210526316" font-family="-apple-system, system-ui, BlinkMacSystemFont, Roboto" y="216.0" dominant-baseline="hanging" text-anchor="middle" font-size="12" fill="#24292f">Jan 2023</text>
    
        
        <path stroke="#74838f"  stroke-width="2.0"  d="M 908.3473684210526 206.0 L 908.3473684210526 214.0" />
        <text x="908.3473684210526" font-family="-apple-system, system-ui, BlinkMacSystemFont, Roboto" y="216.0" dominant-baseline="hanging" text-anchor="middle" font-size="12" fill="#24292f">Feb 2023</text>
    
    <path stroke="#74838f"   stroke-linejoin="round" stroke-width="2.0" d="M 50.0 216.0 L 50.0 206.0 L 974.0 206.0 L 974.0 216.0"  fill="none" />
    <text x="512.0" y="25.0" font-family="-apple-system, system-ui, BlinkMacSystemFont, Roboto" dominant-baseline="middle" text-anchor="middle" font-size="18" fill="#24292f">Total daily suspensions</text>
</svg>
