<?xml version="1.0" standalone="no"?>
<svg width="1024.0" height="256.0"  viewBox="0 0 1024.0 256.0" preserveAspectRatio="xMidYMid meet" xmlns="http://www.w3.org/2000/svg">
    <path stroke="#e74c3c" stroke-linejoin="round" d="M 50.0 162.77066666666667 L 50 162.77066666666667L 52.026315789473685 194.12088888888889L 54.05263157894737 197.888L 56.078947368421055 198.2231111111111L 58.10526315789474 203.61955555555556L 60.131578947368425 200.16444444444443L 62.1578947368421 199.51733333333334L 64.1842105263158 191.65955555555556L 66.21052631578948 201.1582222222222L 68.23684210526315 198.89333333333332L 70.26315789473685 200.22222222222223L 72.28947368421052 202.70666666666665L 74.3157894736842 199.45955555555554L 76.34210526315789 195.9928888888889L 78.36842105263158 202.776L 80.39473684210526 198.98577777777777L 82.42105263157895 197.8071111111111L 84.44736842105263 191.96L 86.47368421052632 197.0328888888889L 88.5 199.70222222222222L 90.52631578947368 199.5751111111111L 92.55263157894737 198.5928888888889L 94.57894736842104 198.45422222222223L 96.60526315789474 200.06044444444444L 98.63157894736841 195.288L 100.65789473684211 200.12977777777778L 102.68421052631578 195.96977777777778L 104.71052631578948 200.92711111111112L 106.73684210526315 198.6968888888889L 108.76315789473685 191.22044444444444L 110.78947368421052 196.47822222222223L 112.81578947368422 191.38222222222223L 114.84210526315789 193.99377777777778L 116.86842105263158 199.92177777777778L 118.89473684210526 192.89600000000002L 120.92105263157895 197.33333333333334L 122.94736842105263 199.82933333333332L 124.97368421052632 194.00533333333334L 127 195.65777777777777L 129.0263157894737 195.81955555555555L 131.05263157894737 195.9351111111111L 133.07894736842104 196.83644444444445L 135.10526315789474 199.66755555555557L 137.13157894736844 199.4711111111111L 139.15789473684208 196.0391111111111L 141.18421052631578 194.39822222222222L 143.21052631578948 195.92355555555554L 145.23684210526318 199.03199999999998L 147.26315789473682 195.81955555555555L 149.28947368421052 194.44444444444446L 151.31578947368422 194.144L 153.3421052631579 187.04888888888888L 155.36842105263156 197.69155555555557L 157.39473684210526 196.33955555555556L 159.42105263157896 198.56977777777777L 161.44736842105263 194.8142222222222L 163.4736842105263 196.77866666666665L 165.5 197.32177777777778L 167.5263157894737 198.65066666666667L 169.5526315789474 198.35022222222221L 171.57894736842104 199.85244444444444L 173.60526315789474 192.07555555555555L 175.63157894736844 202.26755555555556L 177.65789473684214 193.80888888888887L 179.68421052631578 204.26666666666665L 181.71052631578948 206L 183.73684210526315 206L 185.76315789473685 206L 187.78947368421052 206L 189.81578947368422 191.04711111111112L 191.8421052631579 160.76L 193.8684210526316 194.02844444444446L 195.89473684210526 200.4417777777778L 197.92105263157896 193.7048888888889L 199.94736842105263 197.16L 201.97368421052633 200.00266666666667L 204 187.26844444444444L 206.02631578947367 198.18844444444443L 208.05263157894737 195.98133333333334L 210.07894736842107 191.08177777777777L 212.10526315789474 195.288L 214.1315789473684 190.97777777777776L 216.1578947368421 189.39466666666667L 218.1842105263158 198.15377777777778L 220.21052631578945 200.00266666666667L 222.23684210526315 192.4568888888889L 224.26315789473685 192.38755555555556L 226.28947368421055 199.56355555555555L 228.3157894736842 195.13777777777779L 230.3421052631579 193.10399999999998L 232.3684210526316 195.3111111111111L 234.39473684210526 199.93333333333334L 236.42105263157893 189.84533333333331L 238.44736842105263 198.70844444444444L 240.47368421052633 196.50133333333332L 242.5 195.69244444444445L 244.52631578947367 196.62844444444445L 246.55263157894737 193.65866666666668L 248.57894736842104 197.52977777777778L 250.60526315789474 194.3057777777778L 252.6315789473684 197.4257777777778L 254.6578947368421 179.19111111111113L 256.6842105263158 194.80266666666665L 258.7105263157895 196.29333333333335L 260.7368421052631 195.5191111111111L 262.7631578947369 197.0328888888889L 264.7894736842105 197.8071111111111L 266.8157894736842 198.00355555555555L 268.8421052631579 187.55733333333333L 270.86842105263156 193.13866666666667L 272.89473684210526 199.85244444444444L 274.92105263157896 193.53155555555554L 276.9473684210526 191.6248888888889L 278.9736842105263 195.8311111111111L 281 196.54755555555556L 283.0263157894737 196.81333333333333L 285.0526315789474 197.63377777777777L 287.07894736842104 193.55466666666666L 289.1052631578948 206L 291.13157894736844 187.16444444444446L 293.1578947368421 187.34933333333333L 295.1842105263158 191.8213333333333L 297.2105263157895 181.86044444444445L 299.2368421052631 201.8631111111111L 301.2631578947369 186.49422222222222L 303.2894736842105 196.39733333333334L 305.3157894736843 190.07644444444443L 307.34210526315786 194.664L 309.36842105263156 196.016L 311.39473684210526 197.18311111111112L 313.42105263157896 187.06044444444444L 315.44736842105266 198.29244444444444L 317.4736842105263 189.55644444444445L 319.5 189.7528888888889L 321.5263157894737 197.09066666666666L 323.55263157894734 183.328L 325.57894736842104 184.9688888888889L 327.60526315789474 206L 329.63157894736844 206L 331.6578947368421 206L 333.6842105263158 161.85777777777778L 335.7105263157895 198.81244444444445L 337.7368421052632 196.952L 339.7631578947368 196.05066666666667L 341.7894736842105 193.2888888888889L 343.8157894736842 197.29866666666666L 345.8421052631579 198.13066666666668L 347.86842105263156 201.0311111111111L 349.89473684210526 171.63377777777777L 351.92105263157896 189.85688888888888L 353.94736842105266 178.4862222222222L 355.9736842105263 192.09866666666667L 358 179.792L 360.0263157894737 177.46933333333334L 362.05263157894734 182.6L 364.07894736842104 188.1582222222222L 366.10526315789474 193.36977777777778L 368.13157894736844 189.99555555555554L 370.15789473684214 188.4471111111111L 372.1842105263158 190.01866666666666L 374.2105263157895 188.216L 376.2368421052631 194.05155555555555L 378.2631578947368 185.81244444444445L 380.2894736842105 172.61599999999999L 382.3157894736842 181.09777777777776L 384.3421052631579 173.56355555555555L 386.3684210526316 193.50844444444445L 388.39473684210526 192.51466666666667L 390.4210526315789 193.53155555555554L 392.4473684210526 195.25333333333333L 394.4736842105263 193.99377777777778L 396.5 194.46755555555555L 398.5263157894737 189.89155555555556L 400.5526315789474 195.58844444444446L 402.5789473684211 196.6168888888889L 404.60526315789474 193.11555555555555L 406.6315789473684 191.40533333333332L 408.6578947368421 201.16977777777777L 410.6842105263158 185.58133333333333L 412.7105263157895 191.44L 414.7368421052632 194.8488888888889L 416.7631578947369 190.45777777777778L 418.7894736842105 196.23555555555555L 420.8157894736842 192.5031111111111L 422.84210526315786 193.57777777777778L 424.86842105263156 187.18755555555555L 426.89473684210526 191.03555555555556L 428.92105263157896 183.0391111111111L 430.94736842105266 187.83466666666666L 432.9736842105263 192.064L 435 184.9111111111111L 437.0263157894737 189.76444444444445L 439.05263157894734 185.97422222222224L 441.07894736842104 186.22844444444445L 443.10526315789474 177.8968888888889L 445.13157894736844 189.672L 447.1578947368421 191.60177777777778L 449.1842105263158 189.39466666666667L 451.2105263157895 188.27377777777778L 453.2368421052632 191.9368888888889L 455.2631578947368 188.47022222222222L 457.2894736842105 188.88622222222222L 459.3157894736842 190.85066666666665L 461.3421052631579 194.80266666666665L 463.36842105263156 195.13777777777779L 465.39473684210526 201.48177777777778L 467.42105263157896 193.24266666666665L 469.44736842105266 182.06844444444445L 471.4736842105263 182.64622222222224L 473.5 182.12622222222222L 475.5263157894737 191.84444444444443L 477.55263157894734 187.592L 479.57894736842104 182.288L 481.60526315789474 187.22222222222223L 483.63157894736844 189.09422222222221L 485.65789473684214 180.63555555555556L 487.6842105263158 183.94044444444444L 489.7105263157895 174.76533333333333L 491.7368421052631 184.6568888888889L 493.7631578947368 172.93955555555556L 495.7894736842105 150.29066666666665L 497.8157894736842 179.0408888888889L 499.8421052631579 144.23555555555555L 501.8684210526316 186.864L 503.89473684210526 189.18666666666667L 505.9210526315789 188.424L 507.9473684210526 193.728L 509.9736842105263 187.31466666666665L 512 186.1822222222222L 514.0263157894736 187.58044444444445L 516.0526315789474 186.136L 518.078947368421 193.312L 520.1052631578948 189.19822222222223L 522.1315789473683 189.9377777777778L 524.1578947368421 187.34933333333333L 526.1842105263158 186.51733333333334L 528.2105263157896 189.3831111111111L 530.2368421052631 188.0311111111111L 532.2631578947369 192.98844444444444L 534.2894736842105 187.73066666666668L 536.3157894736842 186.22844444444445L 538.3421052631579 182.81955555555555L 540.3684210526316 184.6222222222222L 542.3947368421053 181.248L 544.421052631579 186.27466666666666L 546.4473684210526 194.44444444444446L 548.4736842105262 190.90844444444446L 550.5 187.30311111111112L 552.5263157894738 169.71555555555557L 554.5526315789473 120.77777777777779L 556.578947368421 189.72977777777777L 558.6052631578948 188.51644444444446L 560.6315789473686 190.86222222222221L 562.6578947368421 192.82666666666665L 564.6842105263157 189.82222222222222L 566.7105263157895 183.16622222222222L 568.7368421052631 189.14044444444443L 570.7631578947369 179.9191111111111L 572.7894736842105 59.082666666666654L 574.8157894736843 164.26133333333334L 576.8421052631579 185.31555555555556L 578.8684210526316 183.57066666666668L 580.8947368421053 184.50666666666666L 582.921052631579 185.00355555555555L 584.9473684210526 180.0808888888889L 586.9736842105262 190.74666666666667L 589 181.42133333333334L 591.0263157894736 162.58577777777776L 593.0526315789474 124.3368888888889L 595.078947368421 153.52622222222223L 597.1052631578947 165.68266666666668L 599.1315789473684 182.1031111111111L 601.1578947368421 171.8071111111111L 603.1842105263158 180.76266666666666L 605.2105263157895 174.41866666666667L 607.2368421052632 179.376L 609.2631578947369 183.65155555555555L 611.2894736842105 178.22044444444444L 613.3157894736842 185.03822222222223L 615.3421052631578 188.47022222222222L 617.3684210526316 189.00177777777776L 619.3947368421052 185.52355555555556L 621.421052631579 182.7848888888889L 623.4473684210526 182.69244444444445L 625.4736842105264 180.34666666666666L 627.5 169.5768888888889L 629.5263157894736 182.704L 631.5526315789474 186.136L 633.578947368421 169.12622222222222L 635.6052631578948 143.0222222222222L 637.6315789473684 162.45866666666666L 639.6578947368422 153.67644444444443L 641.6842105263158 148.176L 643.7105263157895 157.16622222222222L 645.7368421052631 155.61777777777777L 647.7631578947368 164.63111111111112L 649.7894736842105 173.32088888888887L 651.8157894736842 151.0648888888889L 653.8421052631579 173.07822222222222L 655.8684210526316 173.70222222222222L 657.8947368421053 173.74844444444443L 659.921052631579 184.472L 661.9473684210526 167.77422222222222L 663.9736842105264 160.9911111111111L 666 173.8871111111111L 668.0263157894738 167L 670.0526315789474 156.78488888888887L 672.078947368421 175.07733333333334L 674.1052631578947 177.4L 676.1315789473684 187.22222222222223L 678.1578947368421 184.74933333333334L 680.1842105263157 183.952L 682.2105263157895 152.19733333333335L 684.2368421052631 183.96355555555556L 686.2631578947369 186.8871111111111L 688.2894736842105 185.87022222222222L 690.3157894736843 183.15466666666666L 692.3421052631579 183.06222222222223L 694.3684210526316 183.02755555555555L 696.3947368421053 176.10577777777777L 698.421052631579 182.87733333333333L 700.4473684210526 180.48533333333333L 702.4736842105262 185.56977777777777L 704.5 180L 706.5263157894736 176.984L 708.5526315789474 178.20888888888888L 710.578947368421 179.8382222222222L 712.6052631578947 183.09688888888888L 714.6315789473684 177.53866666666667L 716.6578947368421 183.44355555555555L 718.6842105263158 178.09333333333333L 720.7105263157895 179.59555555555556L 722.7368421052632 183.02755555555555L 724.7631578947369 180.4622222222222L 726.7894736842105 178.04711111111112L 728.8157894736842 186.89866666666666L 730.8421052631578 177.20355555555557L 732.8684210526316 179.07555555555555L 734.8947368421052 154.9591111111111L 736.921052631579 133.512L 738.9473684210526 151.96622222222223L 740.9736842105264 151.57333333333332L 743 184.9111111111111L 745.0263157894736 185.28088888888888L 747.0526315789474 178.61333333333334L 749.078947368421 142.39822222222222L 751.1052631578948 150.1751111111111L 753.1315789473684 164.04177777777778L 755.1578947368422 138.82755555555556L 757.1842105263158 134.864L 759.2105263157895 144.85955555555557L 761.2368421052631 145.57600000000002L 763.2631578947368 128.7048888888889L 765.2894736842105 120.36177777777777L 767.3157894736842 165.80977777777778L 769.3421052631579 163.51022222222224L 771.3684210526316 160.39022222222223L 773.3947368421053 177.504L 775.421052631579 187.34933333333333L 777.4473684210526 188.04266666666666L 779.4736842105264 186.8871111111111L 781.5 176.08266666666668L 783.5263157894738 179.41066666666666L 785.5526315789474 195.0568888888889L 787.578947368421 185.53511111111112L 789.6052631578947 183.6977777777778L 791.6315789473684 174.97333333333333L 793.6578947368421 178.61333333333334L 795.6842105263157 180.9591111111111L 797.7105263157895 184.0328888888889L 799.7368421052631 155.61777777777777L 801.7631578947369 149.7128888888889L 803.7894736842105 186.2631111111111L 805.8157894736843 191.28977777777777L 807.8421052631579 175.90933333333334L 809.8684210526316 175.49333333333334L 811.8947368421053 184.51822222222222L 813.921052631579 189.69511111111112L 815.9473684210526 187.592L 817.9736842105262 180.09244444444445L 820 176.92622222222224L 822.0263157894736 163.31377777777777L 824.0526315789474 162.112L 826.078947368421 167.1271111111111L 828.1052631578947 180.32355555555554L 830.1315789473684 184.11377777777778L 832.1578947368421 191.57866666666666L 834.1842105263158 195.54222222222222L 836.2105263157895 183.54755555555556L 838.2368421052632 164.03022222222222L 840.2631578947369 171.05599999999998L 842.2894736842105 169.92355555555557L 844.3157894736842 180.02311111111112L 846.3421052631578 172.07288888888888L 848.3684210526316 163.53333333333333L 850.3947368421052 171.34488888888887L 852.421052631579 181.59466666666668L 854.4473684210526 179.80355555555556L 856.4736842105264 166.17955555555557L 858.5 154.92444444444445L 860.5263157894736 158.4488888888889L 862.5526315789474 156.4728888888889L 864.578947368421 144.4551111111111L 866.6052631578948 158.52977777777778L 868.6315789473684 178.00088888888888L 870.6578947368422 144.99822222222224L 872.6842105263158 134.136L 874.7105263157895 139.8213333333333L 876.7368421052631 145.04444444444445L 878.7631578947368 153.168L 880.7894736842105 140.53777777777776L 882.8157894736842 113.86755555555555L 884.8421052631579 113.28977777777777L 886.8684210526316 164.85066666666665L 888.8947368421053 163.62577777777778L 890.921052631579 150.16355555555555L 892.9473684210526 149.84L 894.9736842105264 56.54044444444443L 897 124.776L 899.0263157894738 64.07466666666667L 901.0526315789474 123.55111111111111L 903.078947368421 157.536L 905.1052631578947 147.9911111111111L 907.1315789473684 136.22755555555557L 909.1578947368421 91.11466666666666L 911.1842105263157 107.36177777777779L 913.2105263157895 141.68177777777777L 915.2368421052631 157.73244444444444L 917.2631578947369 152.63644444444444L 919.2894736842105 96.22222222222221L 921.3157894736843 150.19822222222223L 923.3421052631579 116.57155555555556L 925.3684210526316 127.34133333333332L 927.3947368421053 180.53155555555554L 929.421052631579 137.10577777777777L 931.4473684210526 122.64977777777779L 933.4736842105262 104.61155555555555L 935.5 141.76266666666666L 937.5263157894736 164.23822222222222L 939.5526315789474 160.51733333333334L 941.578947368421 154.57777777777778L 943.6052631578947 175.01955555555554L 945.6315789473684 146.87022222222222L 947.6578947368421 153.23733333333334L 949.6842105263158 142.82577777777777L 951.7105263157895 130.98133333333334L 953.7368421052632 88.53777777777778L 955.7631578947369 174.488L 957.7894736842105 50.55466666666666L 959.8157894736842 84.43555555555557L 961.8421052631578 152.47466666666668L 963.8684210526316 114.90755555555555L 965.8947368421052 96.30311111111112L 967.921052631579 171.46044444444445L 969.9473684210526 183.96355555555556L 971.9736842105264 169.87733333333333L 974 197.79555555555555" stroke-width="2.0" fill="none" />
    
        
        
        <text x="45.0" font-family="-apple-system, system-ui, BlinkMacSystemFont, Roboto" y="50.0" dominant-baseline="middle" text-anchor="end" font-size="12" fill="#24292f">13500.0</text>
        
            
            <path stroke="#74838f" stroke-dasharray="10 6" stroke-width="0.5"  d="M 50.0 50.0 L 974.0 50.0" />
        
    
        
        
        <text x="45.0" font-family="-apple-system, system-ui, BlinkMacSystemFont, Roboto" y="81.2" dominant-baseline="middle" text-anchor="end" font-size="12" fill="#24292f">10800.0</text>
        
            
            
            <path stroke="#74838f" stroke-dasharray="10 6" stroke-width="0.5"  d="M 50.0 81.2 L 974.0 81.2" />
        
    
        
        
        <text x="45.0" font-family="-apple-system, system-ui, BlinkMacSystemFont, Roboto" y="112.4" dominant-baseline="middle" text-anchor="end" font-size="12" fill="#24292f">8100.0</text>
        
            
            
            <path stroke="#74838f" stroke-dasharray="10 6" stroke-width="0.5"  d="M 50.0 112.4 L 974.0 112.4" />
        
    
        
        
        <text x="45.0" font-family="-apple-system, system-ui, BlinkMacSystemFont, Roboto" y="143.6" dominant-baseline="middle" text-anchor="end" font-size="12" fill="#24292f">5400.0</text>
        
            
            
            <path stroke="#74838f" stroke-dasharray="10 6" stroke-width="0.5"  d="M 50.0 143.6 L 974.0 143.6" />
        
    
        
        
        <text x="45.0" font-family="-apple-system, system-ui, BlinkMacSystemFont, Roboto" y="174.8" dominant-baseline="middle" text-anchor="end" font-size="12" fill="#24292f">2700.0</text>
        
            
            
            <path stroke="#74838f" stroke-dasharray="10 6" stroke-width="0.5"  d="M 50.0 174.8 L 974.0 174.8" />
        
    
        
        
        <text x="45.0" font-family="-apple-system, system-ui, BlinkMacSystemFont, Roboto" y="206.0" dominant-baseline="middle" text-anchor="end" font-size="12" fill="#24292f">0.0</text>
        
    
    
        
        <path stroke="#74838f"  stroke-width="2.0"  d="M 82.42105263157895 206.0 L 82.42105263157895 214.0" />
        <text x="82.42105263157895" font-family="-apple-system, system-ui, BlinkMacSystemFont, Roboto" y="216.0" dominant-baseline="hanging" text-anchor="middle" font-size="12" fill="#24292f">Mar 2022</text>
    
        
        <path stroke="#74838f"  stroke-width="2.0"  d="M 145.23684210526318 206.0 L 145.23684210526318 214.0" />
        <text x="145.23684210526318" font-family="-apple-system, system-ui, BlinkMacSystemFont, Roboto" y="216.0" dominant-baseline="hanging" text-anchor="middle" font-size="12" fill="#24292f">Apr 2022</text>
    
        
        <path stroke="#74838f"  stroke-width="2.0"  d="M 206.02631578947367 206.0 L 206.02631578947367 214.0" />
        <text x="206.02631578947367" font-family="-apple-system, system-ui, BlinkMacSystemFont, Roboto" y="216.0" dominant-baseline="hanging" text-anchor="middle" font-size="12" fill="#24292f">May 2022</text>
    
        
        <path stroke="#74838f"  stroke-width="2.0"  d="M 268.8421052631579 206.0 L 268.8421052631579 214.0" />
        <text x="268.8421052631579" font-family="-apple-system, system-ui, BlinkMacSystemFont, Roboto" y="216.0" dominant-baseline="hanging" text-anchor="middle" font-size="12" fill="#24292f">Jun 2022</text>
    
        
        <path stroke="#74838f"  stroke-width="2.0"  d="M 329.63157894736844 206.0 L 329.63157894736844 214.0" />
        <text x="329.63157894736844" font-family="-apple-system, system-ui, BlinkMacSystemFont, Roboto" y="216.0" dominant-baseline="hanging" text-anchor="middle" font-size="12" fill="#24292f">Jul 2022</text>
    
        
        <path stroke="#74838f"  stroke-width="2.0"  d="M 392.4473684210526 206.0 L 392.4473684210526 214.0" />
        <text x="392.4473684210526" font-family="-apple-system, system-ui, BlinkMacSystemFont, Roboto" y="216.0" dominant-baseline="hanging" text-anchor="middle" font-size="12" fill="#24292f">Aug 2022</text>
    
        
        <path stroke="#74838f"  stroke-width="2.0"  d="M 455.2631578947368 206.0 L 455.2631578947368 214.0" />
        <text x="455.2631578947368" font-family="-apple-system, system-ui, BlinkMacSystemFont, Roboto" y="216.0" dominant-baseline="hanging" text-anchor="middle" font-size="12" fill="#24292f">Sep 2022</text>
    
        
        <path stroke="#74838f"  stroke-width="2.0"  d="M 516.0526315789474 206.0 L 516.0526315789474 214.0" />
        <text x="516.0526315789474" font-family="-apple-system, system-ui, BlinkMacSystemFont, Roboto" y="216.0" dominant-baseline="hanging" text-anchor="middle" font-size="12" fill="#24292f">Oct 2022</text>
    
        
        <path stroke="#74838f"  stroke-width="2.0"  d="M 578.8684210526316 206.0 L 578.8684210526316 214.0" />
        <text x="578.8684210526316" font-family="-apple-system, system-ui, BlinkMacSystemFont, Roboto" y="216.0" dominant-baseline="hanging" text-anchor="middle" font-size="12" fill="#24292f">Nov 2022</text>
    
        
        <path stroke="#74838f"  stroke-width="2.0"  d="M 639.6578947368422 206.0 L 639.6578947368422 214.0" />
        <text x="639.6578947368422" font-family="-apple-system, system-ui, BlinkMacSystemFont, Roboto" y="216.0" dominant-baseline="hanging" text-anchor="middle" font-size="12" fill="#24292f">Dec 2022</text>
    
        
        <path stroke="#74838f"  stroke-width="2.0"  d="M 702.4736842105262 206.0 L 702.4736842105262 214.0" />
        <text x="702.4736842105262" font-family="-apple-system, system-ui, BlinkMacSystemFont, Roboto" y="216.0" dominant-baseline="hanging" text-anchor="middle" font-size="12" fill="#24292f">Jan 2023</text>
    
        
        <path stroke="#74838f"  stroke-width="2.0"  d="M 765.2894736842105 206.0 L 765.2894736842105 214.0" />
        <text x="765.2894736842105" font-family="-apple-system, system-ui, BlinkMacSystemFont, Roboto" y="216.0" dominant-baseline="hanging" text-anchor="middle" font-size="12" fill="#24292f">Feb 2023</text>
    
        
        <path stroke="#74838f"  stroke-width="2.0"  d="M 822.0263157894736 206.0 L 822.0263157894736 214.0" />
        <text x="822.0263157894736" font-family="-apple-system, system-ui, BlinkMacSystemFont, Roboto" y="216.0" dominant-baseline="hanging" text-anchor="middle" font-size="12" fill="#24292f">Mar 2023</text>
    
        
        <path stroke="#74838f"  stroke-width="2.0"  d="M 884.8421052631579 206.0 L 884.8421052631579 214.0" />
        <text x="884.8421052631579" font-family="-apple-system, system-ui, BlinkMacSystemFont, Roboto" y="216.0" dominant-baseline="hanging" text-anchor="middle" font-size="12" fill="#24292f">Apr 2023</text>
    
        
        <path stroke="#74838f"  stroke-width="2.0"  d="M 945.6315789473684 206.0 L 945.6315789473684 214.0" />
        <text x="945.6315789473684" font-family="-apple-system, system-ui, BlinkMacSystemFont, Roboto" y="216.0" dominant-baseline="hanging" text-anchor="middle" font-size="12" fill="#24292f">May 2023</text>
    
    <path stroke="#74838f"   stroke-linejoin="round" stroke-width="2.0" d="M 50.0 216.0 L 50.0 206.0 L 974.0 206.0 L 974.0 216.0"  fill="none" />
    <text x="512.0" y="25.0" font-family="-apple-system, system-ui, BlinkMacSystemFont, Roboto" dominant-baseline="middle" text-anchor="middle" font-size="18" fill="#24292f">Total daily suspensions</text>
</svg>
