<?xml version="1.0" standalone="no"?>
<svg width="1024.0" height="256.0"  viewBox="0 0 1024.0 256.0" preserveAspectRatio="xMidYMid meet" xmlns="http://www.w3.org/2000/svg">
    <path stroke="#e74c3c" stroke-linejoin="round" d="M 50.0 161.108 L 50 161.108L 53.16438356164384 193.664L 56.32876712328767 197.576L 59.49315068493151 197.924L 62.65753424657534 203.528L 65.82191780821918 199.94L 68.98630136986301 199.268L 72.15068493150685 191.108L 75.31506849315068 200.972L 78.47945205479452 198.62L 81.64383561643835 200L 84.8082191780822 202.57999999999998L 87.97260273972603 199.208L 91.13698630136986 195.608L 94.30136986301369 202.652L 97.46575342465752 198.716L 100.63013698630137 197.49200000000002L 103.79452054794521 191.42000000000002L 106.95890410958904 196.688L 110.12328767123287 199.46L 113.2876712328767 199.328L 116.45205479452055 198.308L 119.61643835616438 198.164L 122.78082191780821 199.832L 125.94520547945206 194.876L 129.1095890410959 199.904L 132.27397260273972 195.584L 135.43835616438355 200.732L 138.60273972602738 198.416L 141.7671232876712 190.652L 144.93150684931504 196.112L 148.0958904109589 190.82L 151.26027397260273 193.53199999999998L 154.42465753424656 199.688L 157.58904109589042 192.392L 160.75342465753425 197L 163.91780821917808 199.59199999999998L 167.08219178082192 193.54399999999998L 170.24657534246575 195.26L 173.41095890410958 195.428L 176.5753424657534 195.548L 179.73972602739727 196.484L 182.9041095890411 199.424L 186.06849315068493 199.22L 189.23287671232876 195.656L 192.39726027397262 193.952L 195.56164383561642 195.536L 198.72602739726028 198.764L 201.8904109589041 195.428L 205.05479452054794 194L 208.21917808219177 193.688L 211.38356164383563 186.32L 214.54794520547944 197.372L 217.7123287671233 195.96800000000002L 220.87671232876713 198.284L 224.04109589041096 194.38400000000001L 227.2054794520548 196.424L 230.36986301369862 196.988L 233.53424657534245 198.368L 236.6986301369863 198.05599999999998L 239.8630136986301 199.61599999999999L 243.02739726027397 191.54L 246.1917808219178 202.124L 249.35616438356163 193.34L 252.52054794520546 204.2L 255.68493150684932 206L 258.8493150684931 206L 262.013698630137 206L 265.17808219178085 206L 268.3424657534247 190.472L 271.5068493150685 159.01999999999998L 274.67123287671234 193.56799999999998L 277.83561643835617 200.228L 281 193.232L 284.16438356164383 196.82L 287.32876712328766 199.772L 290.4931506849315 186.548L 293.6575342465753 197.888L 296.82191780821915 195.596L 299.98630136986304 190.508L 303.1506849315068 194.876L 306.3150684931507 190.4L 309.47945205479454 188.756L 312.64383561643837 197.852L 315.8082191780822 199.772L 318.972602739726 191.936L 322.13698630136986 191.864L 325.30136986301375 199.316L 328.4657534246575 194.708L 331.63013698630135 192.608L 334.79452054794524 194.9L 337.95890410958907 199.7L 341.12328767123284 189.224L 344.28767123287673 198.428L 347.45205479452056 196.136L 350.6164383561644 195.296L 353.7808219178082 196.268L 356.94520547945206 193.184L 360.1095890410959 197.204L 363.2739726027398 193.856L 366.43835616438355 197.096L 369.6027397260274 178.16L 372.76712328767127 194.372L 375.9315068493151 195.92000000000002L 379.0958904109589 195.11599999999999L 382.26027397260276 196.688L 385.4246575342466 197.49200000000002L 388.5890410958904 197.696L 391.75342465753425 186.848L 394.9178082191781 192.644L 398.0821917808219 199.61599999999999L 401.24657534246575 193.052L 404.4109589041096 191.072L 407.5753424657534 195.44L 410.73972602739724 196.184L 413.9041095890411 196.46L 417.0684931506849 197.312L 420.23287671232873 193.076L 423.3972602739726 206L 426.56164383561645 186.44L 429.7260273972602 186.632L 432.8904109589041 191.276L 436.05479452054794 180.93200000000002L 439.2191780821918 201.704L 442.3835616438356 185.744L 445.54794520547944 196.028L 448.71232876712327 189.464L 451.87671232876716 194.228L 455.04109589041093 195.632L 458.20547945205476 196.844L 461.36986301369865 186.332L 464.5342465753425 197.99599999999998L 467.69863013698625 188.924L 470.86301369863014 189.128L 474.027397260274 196.748L 477.1917808219178 182.45600000000002L 480.35616438356163 184.16L 483.52054794520546 206L 486.6849315068493 206L 489.8493150684932 206L 493.01369863013696 160.16L 496.1780821917808 198.536L 499.3424657534247 196.60399999999998L 502.5068493150685 195.668L 505.6712328767123 192.8L 508.83561643835617 196.964L 512 197.828L 515.1643835616438 200.84L 518.3287671232877 170.312L 521.4931506849316 189.236L 524.6575342465753 177.428L 527.8219178082192 191.564L 530.986301369863 178.784L 534.1506849315068 176.372L 537.3150684931506 181.7L 540.4794520547946 187.472L 543.6438356164383 192.88400000000001L 546.8082191780823 189.38L 549.9726027397261 187.772L 553.1369863013698 189.404L 556.3013698630136 187.532L 559.4657534246576 193.59199999999998L 562.6301369863014 185.036L 565.7945205479452 171.332L 568.9589041095891 180.14L 572.1232876712329 172.316L 575.2876712328767 193.028L 578.4520547945204 191.996L 581.6164383561644 193.052L 584.7808219178082 194.84L 587.945205479452 193.53199999999998L 591.1095890410959 194.024L 594.2739726027397 189.272L 597.4383561643835 195.188L 600.6027397260275 196.256L 603.7671232876712 192.62L 606.931506849315 190.844L 610.0958904109589 200.984L 613.2602739726027 184.796L 616.4246575342465 190.88L 619.5890410958905 194.42000000000002L 622.7534246575343 189.86L 625.9178082191781 195.86L 629.0821917808219 191.984L 632.2465753424657 193.1L 635.4109589041095 186.464L 638.5753424657535 190.46L 641.7397260273973 182.156L 644.9041095890411 187.136L 648.068493150685 191.528L 651.2328767123288 184.1L 654.3972602739725 189.14L 657.5616438356165 185.204L 660.7260273972603 185.468L 663.8904109589041 176.828L 667.054794520548 189.04399999999998L 670.2191780821918 191.048L 673.3835616438356 188.756L 676.5479452054796 187.592L 679.7123287671233 191.39600000000002L 682.8767123287671 187.796L 686.0410958904109 188.228L 689.2054794520548 190.268L 692.3698630136986 194.372L 695.5342465753425 194.72L 698.6986301369864 201.308L 701.8630136986302 192.752L 705.0273972602739 181.148L 708.1917808219177 181.748L 711.3561643835616 181.208L 714.5205479452055 191.3L 717.6849315068494 186.88400000000001L 720.8493150684932 181.376L 724.013698630137 186.5L 727.1780821917808 188.44400000000002L 730.3424657534246 179.66L 733.5068493150685 183.09199999999998L 736.6712328767123 173.564L 739.8356164383562 183.836L 743 171.668L 746.1643835616438 148.148L 749.3287671232877 178.004L 752.4931506849315 141.86L 755.6575342465754 186.128L 758.8219178082192 188.54000000000002L 761.986301369863 187.748L 765.1506849315068 193.256L 768.3150684931506 186.596L 771.4794520547945 185.42000000000002L 774.6438356164384 186.872L 777.8082191780823 185.372L 780.9726027397261 192.824L 784.1369863013698 188.552L 787.3013698630136 189.32L 790.4657534246575 186.632L 793.6301369863014 185.768L 796.7945205479452 188.744L 799.9589041095891 187.34L 803.1232876712329 192.488L 806.2876712328767 187.028L 809.4520547945204 185.468L 812.6164383561644 181.928L 815.7808219178082 183.8L 818.945205479452 180.296L 822.1095890410959 185.516L 825.2739726027397 194L 828.4383561643835 190.328L 831.6027397260275 186.584L 834.7671232876712 168.32L 837.931506849315 117.5L 841.0958904109589 189.10399999999998L 844.2602739726027 187.844L 847.4246575342465 190.28L 850.5890410958905 192.32L 853.7534246575343 189.2L 856.9178082191781 182.288L 860.0821917808219 188.49200000000002L 863.2465753424657 178.916L 866.4109589041095 53.432000000000016L 869.5753424657535 162.656L 872.7397260273973 184.52L 875.9041095890411 182.708L 879.068493150685 183.68L 882.2328767123288 184.196L 885.3972602739725 179.084L 888.5616438356165 190.16L 891.7260273972603 180.476L 894.8904109589041 160.916L 898.054794520548 121.196L 901.2191780821918 151.50799999999998L 904.3835616438356 164.132L 907.5479452054796 181.184L 910.7123287671233 170.49200000000002L 913.8767123287671 179.792L 917.0410958904109 173.18L 920.2054794520548 178.352L 923.3698630136986 182.792L 926.5342465753425 177.152L 929.6986301369864 184.232L 932.8630136986302 187.796L 936.0273972602739 188.336L 939.1917808219177 184.676L 942.3561643835616 181.868L 945.5205479452055 181.772L 948.6849315068494 179.312L 951.8493150684932 168.176L 955.013698630137 181.748L 958.1780821917808 185.348L 961.3424657534246 167.66L 964.5068493150685 140.372L 967.6712328767123 160.784L 970.8356164383562 151.4L 974 193.04" stroke-width="2.0" fill="none" />
    
        
        
        <text x="45.0" font-family="-apple-system, system-ui, BlinkMacSystemFont, Roboto" y="50.0" dominant-baseline="middle" text-anchor="end" font-size="12" fill="#24292f">13000.0</text>
        
            
            <path stroke="#74838f" stroke-dasharray="10 6" stroke-width="0.5"  d="M 50.0 50.0 L 974.0 50.0" />
        
    
        
        
        <text x="45.0" font-family="-apple-system, system-ui, BlinkMacSystemFont, Roboto" y="81.2" dominant-baseline="middle" text-anchor="end" font-size="12" fill="#24292f">10400.0</text>
        
            
            
            <path stroke="#74838f" stroke-dasharray="10 6" stroke-width="0.5"  d="M 50.0 81.2 L 974.0 81.2" />
        
    
        
        
        <text x="45.0" font-family="-apple-system, system-ui, BlinkMacSystemFont, Roboto" y="112.4" dominant-baseline="middle" text-anchor="end" font-size="12" fill="#24292f">7800.0</text>
        
            
            
            <path stroke="#74838f" stroke-dasharray="10 6" stroke-width="0.5"  d="M 50.0 112.4 L 974.0 112.4" />
        
    
        
        
        <text x="45.0" font-family="-apple-system, system-ui, BlinkMacSystemFont, Roboto" y="143.6" dominant-baseline="middle" text-anchor="end" font-size="12" fill="#24292f">5200.0</text>
        
            
            
            <path stroke="#74838f" stroke-dasharray="10 6" stroke-width="0.5"  d="M 50.0 143.6 L 974.0 143.6" />
        
    
        
        
        <text x="45.0" font-family="-apple-system, system-ui, BlinkMacSystemFont, Roboto" y="174.8" dominant-baseline="middle" text-anchor="end" font-size="12" fill="#24292f">2600.0</text>
        
            
            
            <path stroke="#74838f" stroke-dasharray="10 6" stroke-width="0.5"  d="M 50.0 174.8 L 974.0 174.8" />
        
    
        
        
        <text x="45.0" font-family="-apple-system, system-ui, BlinkMacSystemFont, Roboto" y="206.0" dominant-baseline="middle" text-anchor="end" font-size="12" fill="#24292f">0.0</text>
        
    
    
        
        <path stroke="#74838f"  stroke-width="2.0"  d="M 100.63013698630137 206.0 L 100.63013698630137 214.0" />
        <text x="100.63013698630137" font-family="-apple-system, system-ui, BlinkMacSystemFont, Roboto" y="216.0" dominant-baseline="hanging" text-anchor="middle" font-size="12" fill="#24292f">Mar 2022</text>
    
        
        <path stroke="#74838f"  stroke-width="2.0"  d="M 198.72602739726028 206.0 L 198.72602739726028 214.0" />
        <text x="198.72602739726028" font-family="-apple-system, system-ui, BlinkMacSystemFont, Roboto" y="216.0" dominant-baseline="hanging" text-anchor="middle" font-size="12" fill="#24292f">Apr 2022</text>
    
        
        <path stroke="#74838f"  stroke-width="2.0"  d="M 293.6575342465753 206.0 L 293.6575342465753 214.0" />
        <text x="293.6575342465753" font-family="-apple-system, system-ui, BlinkMacSystemFont, Roboto" y="216.0" dominant-baseline="hanging" text-anchor="middle" font-size="12" fill="#24292f">May 2022</text>
    
        
        <path stroke="#74838f"  stroke-width="2.0"  d="M 391.75342465753425 206.0 L 391.75342465753425 214.0" />
        <text x="391.75342465753425" font-family="-apple-system, system-ui, BlinkMacSystemFont, Roboto" y="216.0" dominant-baseline="hanging" text-anchor="middle" font-size="12" fill="#24292f">Jun 2022</text>
    
        
        <path stroke="#74838f"  stroke-width="2.0"  d="M 486.6849315068493 206.0 L 486.6849315068493 214.0" />
        <text x="486.6849315068493" font-family="-apple-system, system-ui, BlinkMacSystemFont, Roboto" y="216.0" dominant-baseline="hanging" text-anchor="middle" font-size="12" fill="#24292f">Jul 2022</text>
    
        
        <path stroke="#74838f"  stroke-width="2.0"  d="M 584.7808219178082 206.0 L 584.7808219178082 214.0" />
        <text x="584.7808219178082" font-family="-apple-system, system-ui, BlinkMacSystemFont, Roboto" y="216.0" dominant-baseline="hanging" text-anchor="middle" font-size="12" fill="#24292f">Aug 2022</text>
    
        
        <path stroke="#74838f"  stroke-width="2.0"  d="M 682.8767123287671 206.0 L 682.8767123287671 214.0" />
        <text x="682.8767123287671" font-family="-apple-system, system-ui, BlinkMacSystemFont, Roboto" y="216.0" dominant-baseline="hanging" text-anchor="middle" font-size="12" fill="#24292f">Sep 2022</text>
    
        
        <path stroke="#74838f"  stroke-width="2.0"  d="M 777.8082191780823 206.0 L 777.8082191780823 214.0" />
        <text x="777.8082191780823" font-family="-apple-system, system-ui, BlinkMacSystemFont, Roboto" y="216.0" dominant-baseline="hanging" text-anchor="middle" font-size="12" fill="#24292f">Oct 2022</text>
    
        
        <path stroke="#74838f"  stroke-width="2.0"  d="M 875.9041095890411 206.0 L 875.9041095890411 214.0" />
        <text x="875.9041095890411" font-family="-apple-system, system-ui, BlinkMacSystemFont, Roboto" y="216.0" dominant-baseline="hanging" text-anchor="middle" font-size="12" fill="#24292f">Nov 2022</text>
    
        
        <path stroke="#74838f"  stroke-width="2.0"  d="M 970.8356164383562 206.0 L 970.8356164383562 214.0" />
        <text x="970.8356164383562" font-family="-apple-system, system-ui, BlinkMacSystemFont, Roboto" y="216.0" dominant-baseline="hanging" text-anchor="middle" font-size="12" fill="#24292f">Dec 2022</text>
    
    <path stroke="#74838f"   stroke-linejoin="round" stroke-width="2.0" d="M 50.0 216.0 L 50.0 206.0 L 974.0 206.0 L 974.0 216.0"  fill="none" />
    <text x="512.0" y="25.0" font-family="-apple-system, system-ui, BlinkMacSystemFont, Roboto" dominant-baseline="middle" text-anchor="middle" font-size="18" fill="#24292f">Total daily suspensions</text>
</svg>
