<?xml version="1.0" standalone="no"?>
<svg width="1024.0" height="256.0"  viewBox="0 0 1024.0 256.0" preserveAspectRatio="xMidYMid meet" xmlns="http://www.w3.org/2000/svg">
    <path stroke="#e74c3c" stroke-linejoin="round" d="M 50.0 161.108 L 50 161.108L 52.70175438596491 193.664L 55.40350877192982 197.576L 58.10526315789474 197.924L 60.80701754385965 203.528L 63.50877192982456 199.94L 66.21052631578948 199.268L 68.91228070175438 191.108L 71.6140350877193 200.972L 74.3157894736842 198.62L 77.01754385964912 200L 79.71929824561403 202.57999999999998L 82.42105263157895 199.208L 85.12280701754386 195.608L 87.82456140350877 202.652L 90.52631578947368 198.716L 93.2280701754386 197.49200000000002L 95.9298245614035 191.42000000000002L 98.63157894736841 196.688L 101.33333333333333 199.46L 104.03508771929825 199.328L 106.73684210526315 198.308L 109.43859649122807 198.164L 112.14035087719299 199.832L 114.84210526315789 194.876L 117.54385964912281 199.904L 120.24561403508771 195.584L 122.94736842105263 200.732L 125.64912280701753 198.416L 128.35087719298247 190.652L 131.05263157894737 196.112L 133.75438596491227 190.82L 136.4561403508772 193.53199999999998L 139.15789473684208 199.688L 141.859649122807 192.392L 144.56140350877195 197L 147.26315789473682 199.59199999999998L 149.96491228070175 193.54399999999998L 152.66666666666666 195.26L 155.36842105263156 195.428L 158.0701754385965 195.548L 160.7719298245614 196.484L 163.4736842105263 199.424L 166.17543859649123 199.22L 168.87719298245614 195.656L 171.57894736842104 193.952L 174.28070175438597 195.536L 176.98245614035088 198.764L 179.68421052631578 195.428L 182.38596491228068 194L 185.08771929824562 193.688L 187.78947368421052 186.32L 190.49122807017542 197.372L 193.19298245614036 195.96800000000002L 195.89473684210526 198.284L 198.59649122807016 194.38400000000001L 201.29824561403507 196.424L 204 196.988L 206.7017543859649 198.368L 209.4035087719298 198.05599999999998L 212.10526315789474 199.61599999999999L 214.80701754385964 191.54L 217.50877192982455 202.124L 220.21052631578945 193.34L 222.91228070175438 204.2L 225.6140350877193 206L 228.3157894736842 206L 231.01754385964912 206L 233.71929824561403 206L 236.42105263157893 190.472L 239.12280701754386 159.01999999999998L 241.82456140350877 193.56799999999998L 244.52631578947367 200.228L 247.22807017543857 193.232L 249.9298245614035 196.82L 252.6315789473684 199.772L 255.33333333333331 186.548L 258.03508771929825 197.888L 260.7368421052631 195.596L 263.43859649122805 190.508L 266.140350877193 194.876L 268.8421052631579 190.4L 271.5438596491228 188.756L 274.24561403508767 197.852L 276.9473684210526 199.772L 279.64912280701753 191.936L 282.35087719298247 191.864L 285.0526315789474 199.316L 287.7543859649123 194.72L 290.4561403508772 192.608L 293.1578947368421 194.9L 295.859649122807 199.7L 298.56140350877195 189.224L 301.2631578947369 198.428L 303.96491228070175 196.136L 306.6666666666667 195.296L 309.36842105263156 196.268L 312.0701754385965 193.184L 314.77192982456137 197.204L 317.4736842105263 193.856L 320.17543859649123 197.096L 322.87719298245617 178.16L 325.57894736842104 194.372L 328.280701754386 195.92000000000002L 330.98245614035085 195.11599999999999L 333.6842105263158 196.688L 336.3859649122807 197.49200000000002L 339.08771929824564 197.696L 341.7894736842105 186.848L 344.49122807017545 192.644L 347.1929824561403 199.61599999999999L 349.89473684210526 193.052L 352.59649122807014 191.072L 355.2982456140351 195.44L 358 196.184L 360.70175438596493 196.46L 363.4035087719298 197.312L 366.10526315789474 193.076L 368.8070175438596 206L 371.50877192982455 186.44L 374.2105263157895 186.632L 376.9122807017544 191.276L 379.6140350877193 180.93200000000002L 382.3157894736842 201.704L 385.0175438596491 185.744L 387.719298245614 196.028L 390.4210526315789 189.464L 393.1228070175439 194.228L 395.82456140350877 195.632L 398.5263157894737 196.844L 401.2280701754386 186.332L 403.9298245614035 197.99599999999998L 406.6315789473684 188.924L 409.3333333333333 189.128L 412.03508771929825 196.748L 414.7368421052632 182.45600000000002L 417.43859649122805 184.16L 420.140350877193 206L 422.84210526315786 206L 425.5438596491228 206L 428.2456140350877 160.16L 430.94736842105266 198.536L 433.64912280701753 196.60399999999998L 436.35087719298247 195.668L 439.05263157894734 192.8L 441.7543859649123 196.964L 444.45614035087715 197.828L 447.1578947368421 200.84L 449.859649122807 170.312L 452.56140350877195 189.236L 455.2631578947368 177.428L 457.96491228070175 191.564L 460.66666666666663 178.784L 463.36842105263156 176.372L 466.0701754385965 181.7L 468.7719298245614 187.472L 471.4736842105263 192.88400000000001L 474.17543859649123 189.38L 476.8771929824561 187.772L 479.57894736842104 189.404L 482.2807017543859 187.532L 484.9824561403509 193.59199999999998L 487.6842105263158 185.036L 490.3859649122807 171.332L 493.0877192982456 180.14L 495.7894736842105 172.316L 498.4912280701754 193.028L 501.1929824561403 191.996L 503.89473684210526 193.052L 506.5964912280702 194.84L 509.29824561403507 193.53199999999998L 512 194.024L 514.7017543859649 189.272L 517.4035087719299 195.188L 520.1052631578948 196.256L 522.8070175438597 192.62L 525.5087719298245 190.844L 528.2105263157896 200.984L 530.9122807017544 184.796L 533.6140350877192 190.88L 536.3157894736842 194.42000000000002L 539.0175438596491 189.86L 541.719298245614 195.86L 544.421052631579 191.984L 547.1228070175439 193.1L 549.8245614035088 186.464L 552.5263157894738 190.46L 555.2280701754386 182.156L 557.9298245614035 187.136L 560.6315789473686 191.528L 563.3333333333334 184.1L 566.0350877192982 189.14L 568.7368421052631 185.204L 571.4385964912282 185.468L 574.140350877193 176.816L 576.8421052631579 189.04399999999998L 579.5438596491227 191.048L 582.2456140350878 188.756L 584.9473684210526 187.592L 587.6491228070175 191.39600000000002L 590.3508771929825 187.796L 593.0526315789474 188.228L 595.7543859649123 190.268L 598.4561403508771 194.372L 601.1578947368421 194.72L 603.859649122807 201.308L 606.561403508772 192.752L 609.2631578947369 181.148L 611.9649122807017 181.748L 614.6666666666667 181.208L 617.3684210526316 191.3L 620.0701754385965 186.88400000000001L 622.7719298245614 181.376L 625.4736842105264 186.5L 628.1754385964913 188.44400000000002L 630.8771929824561 179.66L 633.578947368421 183.09199999999998L 636.280701754386 173.564L 638.9824561403509 183.836L 641.6842105263158 171.668L 644.3859649122807 148.148L 647.0877192982457 178.004L 649.7894736842105 141.86L 652.4912280701755 186.128L 655.1929824561403 188.54000000000002L 657.8947368421053 187.748L 660.5964912280702 193.256L 663.2982456140351 186.596L 666 185.42000000000002L 668.7017543859649 186.872L 671.4035087719299 185.372L 674.1052631578947 192.824L 676.8070175438596 188.552L 679.5087719298245 189.32L 682.2105263157895 186.632L 684.9122807017544 185.768L 687.6140350877192 188.744L 690.3157894736843 187.34L 693.0175438596491 192.488L 695.719298245614 187.028L 698.421052631579 185.468L 701.1228070175439 181.928L 703.8245614035088 183.8L 706.5263157894736 180.296L 709.2280701754386 185.516L 711.9298245614035 194L 714.6315789473684 190.328L 717.3333333333334 186.584L 720.0350877192982 168.32L 722.7368421052632 117.5L 725.438596491228 189.10399999999998L 728.140350877193 187.844L 730.8421052631578 190.28L 733.5438596491229 192.32L 736.2456140350878 189.2L 738.9473684210526 182.288L 741.6491228070175 188.49200000000002L 744.3508771929825 178.916L 747.0526315789474 53.432000000000016L 749.7543859649122 162.656L 752.4561403508771 184.52L 755.1578947368422 182.708L 757.859649122807 183.68L 760.561403508772 184.196L 763.2631578947368 179.084L 765.9649122807018 190.16L 768.6666666666666 180.476L 771.3684210526316 160.916L 774.0701754385965 121.196L 776.7719298245614 151.50799999999998L 779.4736842105264 164.132L 782.1754385964912 181.184L 784.8771929824561 170.49200000000002L 787.578947368421 179.792L 790.280701754386 173.204L 792.9824561403509 178.352L 795.6842105263157 182.792L 798.3859649122808 177.152L 801.0877192982456 184.232L 803.7894736842105 187.796L 806.4912280701755 188.348L 809.1929824561404 184.736L 811.8947368421053 181.892L 814.5964912280701 181.796L 817.2982456140351 179.36L 820 168.176L 822.7017543859649 181.808L 825.4035087719298 185.372L 828.1052631578947 167.708L 830.8070175438597 140.6L 833.5087719298245 160.784L 836.2105263157895 151.664L 838.9122807017543 145.952L 841.6140350877193 155.288L 844.3157894736842 153.68L 847.0175438596491 163.04L 849.719298245614 172.064L 852.421052631579 148.952L 855.1228070175439 171.812L 857.8245614035087 172.46L 860.5263157894736 172.508L 863.2280701754386 183.644L 865.9298245614035 166.304L 868.6315789473684 159.26L 871.3333333333333 172.652L 874.0350877192983 165.5L 876.7368421052631 154.892L 879.438596491228 173.888L 882.140350877193 176.3L 884.8421052631579 186.5L 887.5438596491229 183.932L 890.2456140350877 183.10399999999998L 892.9473684210526 150.128L 895.6491228070175 183.11599999999999L 898.3508771929825 186.152L 901.0526315789474 185.096L 903.7543859649122 182.276L 906.4561403508773 182.18L 909.1578947368421 182.144L 911.859649122807 174.956L 914.5614035087718 181.988L 917.2631578947369 179.504L 919.9649122807018 184.784L 922.6666666666666 179L 925.3684210526316 175.868L 928.0701754385965 177.14L 930.7719298245614 178.832L 933.4736842105262 182.216L 936.1754385964912 176.444L 938.8771929824562 182.576L 941.578947368421 177.02L 944.280701754386 178.58L 946.9824561403508 182.144L 949.6842105263158 179.48L 952.3859649122807 176.972L 955.0877192982456 186.164L 957.7894736842105 176.096L 960.4912280701755 178.04L 963.1929824561404 152.996L 965.8947368421052 130.724L 968.5964912280701 149.888L 971.2982456140351 149.48L 974 198.596" stroke-width="2.0" fill="none" />
    
        
        
        <text x="45.0" font-family="-apple-system, system-ui, BlinkMacSystemFont, Roboto" y="50.0" dominant-baseline="middle" text-anchor="end" font-size="12" fill="#24292f">13000.0</text>
        
            
            <path stroke="#74838f" stroke-dasharray="10 6" stroke-width="0.5"  d="M 50.0 50.0 L 974.0 50.0" />
        
    
        
        
        <text x="45.0" font-family="-apple-system, system-ui, BlinkMacSystemFont, Roboto" y="81.2" dominant-baseline="middle" text-anchor="end" font-size="12" fill="#24292f">10400.0</text>
        
            
            
            <path stroke="#74838f" stroke-dasharray="10 6" stroke-width="0.5"  d="M 50.0 81.2 L 974.0 81.2" />
        
    
        
        
        <text x="45.0" font-family="-apple-system, system-ui, BlinkMacSystemFont, Roboto" y="112.4" dominant-baseline="middle" text-anchor="end" font-size="12" fill="#24292f">7800.0</text>
        
            
            
            <path stroke="#74838f" stroke-dasharray="10 6" stroke-width="0.5"  d="M 50.0 112.4 L 974.0 112.4" />
        
    
        
        
        <text x="45.0" font-family="-apple-system, system-ui, BlinkMacSystemFont, Roboto" y="143.6" dominant-baseline="middle" text-anchor="end" font-size="12" fill="#24292f">5200.0</text>
        
            
            
            <path stroke="#74838f" stroke-dasharray="10 6" stroke-width="0.5"  d="M 50.0 143.6 L 974.0 143.6" />
        
    
        
        
        <text x="45.0" font-family="-apple-system, system-ui, BlinkMacSystemFont, Roboto" y="174.8" dominant-baseline="middle" text-anchor="end" font-size="12" fill="#24292f">2600.0</text>
        
            
            
            <path stroke="#74838f" stroke-dasharray="10 6" stroke-width="0.5"  d="M 50.0 174.8 L 974.0 174.8" />
        
    
        
        
        <text x="45.0" font-family="-apple-system, system-ui, BlinkMacSystemFont, Roboto" y="206.0" dominant-baseline="middle" text-anchor="end" font-size="12" fill="#24292f">0.0</text>
        
    
    
        
        <path stroke="#74838f"  stroke-width="2.0"  d="M 93.2280701754386 206.0 L 93.2280701754386 214.0" />
        <text x="93.2280701754386" font-family="-apple-system, system-ui, BlinkMacSystemFont, Roboto" y="216.0" dominant-baseline="hanging" text-anchor="middle" font-size="12" fill="#24292f">Mar 2022</text>
    
        
        <path stroke="#74838f"  stroke-width="2.0"  d="M 176.98245614035088 206.0 L 176.98245614035088 214.0" />
        <text x="176.98245614035088" font-family="-apple-system, system-ui, BlinkMacSystemFont, Roboto" y="216.0" dominant-baseline="hanging" text-anchor="middle" font-size="12" fill="#24292f">Apr 2022</text>
    
        
        <path stroke="#74838f"  stroke-width="2.0"  d="M 258.03508771929825 206.0 L 258.03508771929825 214.0" />
        <text x="258.03508771929825" font-family="-apple-system, system-ui, BlinkMacSystemFont, Roboto" y="216.0" dominant-baseline="hanging" text-anchor="middle" font-size="12" fill="#24292f">May 2022</text>
    
        
        <path stroke="#74838f"  stroke-width="2.0"  d="M 341.7894736842105 206.0 L 341.7894736842105 214.0" />
        <text x="341.7894736842105" font-family="-apple-system, system-ui, BlinkMacSystemFont, Roboto" y="216.0" dominant-baseline="hanging" text-anchor="middle" font-size="12" fill="#24292f">Jun 2022</text>
    
        
        <path stroke="#74838f"  stroke-width="2.0"  d="M 422.84210526315786 206.0 L 422.84210526315786 214.0" />
        <text x="422.84210526315786" font-family="-apple-system, system-ui, BlinkMacSystemFont, Roboto" y="216.0" dominant-baseline="hanging" text-anchor="middle" font-size="12" fill="#24292f">Jul 2022</text>
    
        
        <path stroke="#74838f"  stroke-width="2.0"  d="M 506.5964912280702 206.0 L 506.5964912280702 214.0" />
        <text x="506.5964912280702" font-family="-apple-system, system-ui, BlinkMacSystemFont, Roboto" y="216.0" dominant-baseline="hanging" text-anchor="middle" font-size="12" fill="#24292f">Aug 2022</text>
    
        
        <path stroke="#74838f"  stroke-width="2.0"  d="M 590.3508771929825 206.0 L 590.3508771929825 214.0" />
        <text x="590.3508771929825" font-family="-apple-system, system-ui, BlinkMacSystemFont, Roboto" y="216.0" dominant-baseline="hanging" text-anchor="middle" font-size="12" fill="#24292f">Sep 2022</text>
    
        
        <path stroke="#74838f"  stroke-width="2.0"  d="M 671.4035087719299 206.0 L 671.4035087719299 214.0" />
        <text x="671.4035087719299" font-family="-apple-system, system-ui, BlinkMacSystemFont, Roboto" y="216.0" dominant-baseline="hanging" text-anchor="middle" font-size="12" fill="#24292f">Oct 2022</text>
    
        
        <path stroke="#74838f"  stroke-width="2.0"  d="M 755.1578947368422 206.0 L 755.1578947368422 214.0" />
        <text x="755.1578947368422" font-family="-apple-system, system-ui, BlinkMacSystemFont, Roboto" y="216.0" dominant-baseline="hanging" text-anchor="middle" font-size="12" fill="#24292f">Nov 2022</text>
    
        
        <path stroke="#74838f"  stroke-width="2.0"  d="M 836.2105263157895 206.0 L 836.2105263157895 214.0" />
        <text x="836.2105263157895" font-family="-apple-system, system-ui, BlinkMacSystemFont, Roboto" y="216.0" dominant-baseline="hanging" text-anchor="middle" font-size="12" fill="#24292f">Dec 2022</text>
    
        
        <path stroke="#74838f"  stroke-width="2.0"  d="M 919.9649122807018 206.0 L 919.9649122807018 214.0" />
        <text x="919.9649122807018" font-family="-apple-system, system-ui, BlinkMacSystemFont, Roboto" y="216.0" dominant-baseline="hanging" text-anchor="middle" font-size="12" fill="#24292f">Jan 2023</text>
    
    <path stroke="#74838f"   stroke-linejoin="round" stroke-width="2.0" d="M 50.0 216.0 L 50.0 206.0 L 974.0 206.0 L 974.0 216.0"  fill="none" />
    <text x="512.0" y="25.0" font-family="-apple-system, system-ui, BlinkMacSystemFont, Roboto" dominant-baseline="middle" text-anchor="middle" font-size="18" fill="#24292f">Total daily suspensions</text>
</svg>
