<?xml version="1.0" standalone="no"?>
<svg width="1024.0" height="256.0"  viewBox="0 0 1024.0 256.0" preserveAspectRatio="xMidYMid meet" xmlns="http://www.w3.org/2000/svg">
    <path stroke="#e74c3c" stroke-linejoin="round" d="M 50.0 162.77066666666667 L 50 162.77066666666667L 52.01307189542484 194.12088888888889L 54.02614379084967 197.888L 56.03921568627451 198.2231111111111L 58.052287581699346 203.61955555555556L 60.06535947712418 200.16444444444443L 62.07843137254902 199.51733333333334L 64.09150326797385 191.65955555555556L 66.10457516339869 201.1582222222222L 68.11764705882354 198.89333333333332L 70.13071895424837 200.22222222222223L 72.1437908496732 202.70666666666665L 74.15686274509804 199.45955555555554L 76.16993464052288 195.9928888888889L 78.18300653594771 202.776L 80.19607843137256 198.98577777777777L 82.20915032679738 197.8071111111111L 84.22222222222223 191.96L 86.23529411764706 197.0328888888889L 88.24836601307189 199.70222222222222L 90.26143790849673 199.5751111111111L 92.27450980392157 198.5928888888889L 94.2875816993464 198.45422222222223L 96.30065359477123 200.06044444444444L 98.31372549019608 195.288L 100.32679738562092 200.12977777777778L 102.33986928104575 195.96977777777778L 104.35294117647058 200.92711111111112L 106.36601307189542 198.6968888888889L 108.37908496732027 191.22044444444444L 110.39215686274511 196.47822222222223L 112.40522875816994 191.38222222222223L 114.41830065359478 193.99377777777778L 116.4313725490196 199.92177777777778L 118.44444444444444 192.89600000000002L 120.45751633986927 197.33333333333334L 122.47058823529412 199.82933333333332L 124.48366013071896 194.00533333333334L 126.49673202614379 195.65777777777777L 128.50980392156862 195.81955555555555L 130.52287581699346 195.9351111111111L 132.5359477124183 196.83644444444445L 134.54901960784315 199.66755555555557L 136.56209150326796 199.4711111111111L 138.5751633986928 196.0391111111111L 140.58823529411765 194.39822222222222L 142.60130718954247 195.92355555555554L 144.6143790849673 199.03199999999998L 146.62745098039215 195.81955555555555L 148.640522875817 194.44444444444446L 150.65359477124184 194.144L 152.66666666666666 187.04888888888888L 154.6797385620915 197.69155555555557L 156.69281045751632 196.33955555555556L 158.70588235294116 198.56977777777777L 160.718954248366 194.8142222222222L 162.73202614379085 196.77866666666665L 164.7450980392157 197.32177777777778L 166.75816993464053 198.65066666666667L 168.77124183006538 198.35022222222221L 170.78431372549022 199.85244444444444L 172.79738562091504 192.07555555555555L 174.81045751633988 202.26755555555556L 176.8235294117647 193.80888888888887L 178.83660130718957 204.26666666666665L 180.84967320261435 206L 182.8627450980392 206L 184.87581699346404 206L 186.88888888888889 206L 188.90196078431373 191.04711111111112L 190.91503267973854 160.76L 192.9281045751634 194.02844444444446L 194.94117647058823 200.4417777777778L 196.95424836601308 193.7048888888889L 198.96732026143792 197.16L 200.98039215686273 200.00266666666667L 202.99346405228758 187.26844444444444L 205.00653594771242 198.18844444444443L 207.01960784313727 195.98133333333334L 209.0326797385621 191.08177777777777L 211.04575163398692 195.288L 213.05882352941177 190.97777777777776L 215.0718954248366 189.39466666666667L 217.08496732026143 198.15377777777778L 219.09803921568627 200.00266666666667L 221.11111111111111 192.4568888888889L 223.12418300653593 192.38755555555556L 225.13725490196077 199.56355555555555L 227.15032679738562 195.13777777777779L 229.16339869281046 193.10399999999998L 231.1764705882353 195.3111111111111L 233.18954248366012 199.93333333333334L 235.20261437908496 189.84533333333331L 237.2156862745098 198.70844444444444L 239.22875816993465 196.50133333333332L 241.2418300653595 195.69244444444445L 243.2549019607843 196.62844444444445L 245.26797385620915 193.65866666666668L 247.281045751634 197.52977777777778L 249.29411764705884 194.3057777777778L 251.30718954248368 197.4257777777778L 253.32026143790847 179.19111111111113L 255.33333333333331 194.80266666666665L 257.34640522875816 196.29333333333335L 259.359477124183 195.5191111111111L 261.37254901960785 197.0328888888889L 263.38562091503263 197.8071111111111L 265.39869281045753 198.00355555555555L 267.4117647058823 187.55733333333333L 269.4248366013072 193.13866666666667L 271.437908496732 199.85244444444444L 273.45098039215685 193.53155555555554L 275.4640522875817 191.6248888888889L 277.47712418300654 195.8311111111111L 279.4901960784314 196.54755555555556L 281.50326797385617 196.81333333333333L 283.51633986928107 197.63377777777777L 285.52941176470586 193.55466666666666L 287.54248366013076 206L 289.55555555555554 187.16444444444446L 291.56862745098044 187.34933333333333L 293.58169934640523 191.8213333333333L 295.5947712418301 181.86044444444445L 297.6078431372549 201.8631111111111L 299.62091503267976 186.49422222222222L 301.6339869281046 196.39733333333334L 303.6470588235294 190.07644444444443L 305.66013071895424 194.664L 307.67320261437914 196.016L 309.6862745098039 197.18311111111112L 311.6993464052287 187.06044444444444L 313.7124183006536 198.29244444444444L 315.7254901960784 189.55644444444445L 317.7385620915033 189.7528888888889L 319.7516339869281 197.09066666666666L 321.7647058823529 183.328L 323.77777777777777 184.9688888888889L 325.7908496732026 206L 327.80392156862746 206L 329.8169934640523 206L 331.8300653594771 161.85777777777778L 333.843137254902 198.81244444444445L 335.8562091503268 196.952L 337.8692810457517 196.05066666666667L 339.88235294117646 193.2888888888889L 341.8954248366013 197.29866666666666L 343.90849673202615 198.13066666666668L 345.92156862745094 201.0311111111111L 347.93464052287584 171.63377777777777L 349.9477124183006 189.85688888888888L 351.96078431372547 178.4862222222222L 353.9738562091503 192.09866666666667L 355.98692810457516 179.792L 358 177.46933333333334L 360.01307189542484 182.6L 362.0261437908497 188.1582222222222L 364.03921568627453 193.36977777777778L 366.0522875816993 189.99555555555554L 368.0653594771242 188.4471111111111L 370.078431372549 190.01866666666666L 372.09150326797385 188.216L 374.1045751633987 194.05155555555555L 376.11764705882354 185.81244444444445L 378.1307189542484 172.61599999999999L 380.1437908496732 181.09777777777776L 382.15686274509807 173.56355555555555L 384.16993464052285 193.50844444444445L 386.1830065359477 192.51466666666667L 388.19607843137254 193.53155555555554L 390.2091503267974 195.25333333333333L 392.22222222222223 193.99377777777778L 394.2352941176471 194.46755555555555L 396.24836601307186 189.89155555555556L 398.26143790849676 195.58844444444446L 400.27450980392155 196.6168888888889L 402.28758169934645 193.11555555555555L 404.30065359477123 191.40533333333332L 406.3137254901961 201.16977777777777L 408.3267973856209 185.58133333333333L 410.33986928104576 191.44L 412.3529411764706 194.8488888888889L 414.36601307189545 190.45777777777778L 416.37908496732024 196.23555555555555L 418.39215686274514 192.5031111111111L 420.4052287581699 193.57777777777778L 422.41830065359477 187.18755555555555L 424.4313725490196 191.03555555555556L 426.4444444444444 183.0391111111111L 428.4575163398693 187.83466666666666L 430.4705882352941 192.064L 432.483660130719 184.9111111111111L 434.4967320261438 189.76444444444445L 436.5098039215686 185.97422222222224L 438.52287581699346 186.22844444444445L 440.5359477124183 177.8968888888889L 442.54901960784315 189.672L 444.562091503268 191.60177777777778L 446.5751633986928 189.39466666666667L 448.5882352941177 188.27377777777778L 450.60130718954247 191.9368888888889L 452.61437908496737 188.47022222222222L 454.62745098039215 188.88622222222222L 456.64052287581694 190.85066666666665L 458.65359477124184 194.80266666666665L 460.66666666666663 195.13777777777779L 462.67973856209153 201.48177777777778L 464.6928104575163 193.24266666666665L 466.70588235294116 182.06844444444445L 468.718954248366 182.64622222222224L 470.73202614379085 182.12622222222222L 472.7450980392157 191.84444444444443L 474.75816993464053 187.592L 476.7712418300653 182.288L 478.7843137254902 187.22222222222223L 480.797385620915 189.09422222222221L 482.8104575163399 180.63555555555556L 484.8235294117647 183.94044444444444L 486.83660130718954 174.76533333333333L 488.8496732026144 184.6568888888889L 490.8627450980392 172.93955555555556L 492.87581699346407 150.29066666666665L 494.88888888888886 179.0408888888889L 496.9019607843137 144.23555555555555L 498.91503267973854 186.864L 500.9281045751634 189.18666666666667L 502.94117647058823 188.424L 504.9542483660131 193.728L 506.9673202614379 187.31466666666665L 508.98039215686276 186.1822222222222L 510.99346405228755 187.58044444444445L 513.0065359477123 186.136L 515.0196078431372 193.312L 517.0326797385621 189.19822222222223L 519.045751633987 189.9377777777778L 521.0588235294117 187.34933333333333L 523.0718954248366 186.51733333333334L 525.0849673202615 189.3831111111111L 527.0980392156863 188.0311111111111L 529.1111111111111 192.98844444444444L 531.124183006536 187.73066666666668L 533.1372549019609 186.22844444444445L 535.1503267973856 182.81955555555555L 537.1633986928105 184.6222222222222L 539.1764705882354 181.248L 541.1895424836601 186.27466666666666L 543.2026143790849 194.44444444444446L 545.2156862745098 190.90844444444446L 547.2287581699347 187.30311111111112L 549.2418300653595 169.71555555555557L 551.2549019607843 120.77777777777779L 553.2679738562092 189.72977777777777L 555.281045751634 188.51644444444446L 557.2941176470588 190.86222222222221L 559.3071895424837 192.82666666666665L 561.3202614379085 189.82222222222222L 563.3333333333334 183.16622222222222L 565.3464052287583 189.14044444444443L 567.359477124183 179.9191111111111L 569.3725490196078 59.082666666666654L 571.3856209150327 164.26133333333334L 573.3986928104574 185.31555555555556L 575.4117647058823 183.57066666666668L 577.4248366013072 184.50666666666666L 579.437908496732 185.00355555555555L 581.4509803921568 180.0808888888889L 583.4640522875817 190.74666666666667L 585.4771241830066 181.42133333333334L 587.4901960784314 162.58577777777776L 589.5032679738562 124.3368888888889L 591.5163398692811 153.52622222222223L 593.5294117647059 165.68266666666668L 595.5424836601308 182.1031111111111L 597.5555555555555 171.8071111111111L 599.5686274509804 180.76266666666666L 601.5816993464052 174.41866666666667L 603.5947712418301 179.376L 605.6078431372549 183.65155555555555L 607.6209150326797 178.22044444444444L 609.6339869281046 185.03822222222223L 611.6470588235294 188.47022222222222L 613.6601307189542 189.00177777777776L 615.6732026143791 185.52355555555556L 617.686274509804 182.7848888888889L 619.6993464052288 182.69244444444445L 621.7124183006536 180.34666666666666L 623.7254901960785 169.5768888888889L 625.7385620915034 182.704L 627.751633986928 186.136L 629.7647058823529 169.12622222222222L 631.7777777777778 143.0222222222222L 633.7908496732026 162.45866666666666L 635.8039215686274 153.67644444444443L 637.8169934640523 148.176L 639.8300653594772 157.16622222222222L 641.8431372549019 155.61777777777777L 643.8562091503268 164.63111111111112L 645.8692810457517 173.32088888888887L 647.8823529411765 151.0648888888889L 649.8954248366013 173.07822222222222L 651.9084967320262 173.70222222222222L 653.9215686274509 173.74844444444443L 655.9346405228758 184.472L 657.9477124183006 167.77422222222222L 659.9607843137255 160.9911111111111L 661.9738562091503 173.8871111111111L 663.9869281045752 167L 666 156.78488888888887L 668.0130718954248 175.07733333333334L 670.0261437908497 177.4L 672.0392156862746 187.22222222222223L 674.0522875816994 184.74933333333334L 676.0653594771242 183.952L 678.0784313725491 152.19733333333335L 680.0915032679738 183.96355555555556L 682.1045751633986 186.8871111111111L 684.1176470588235 185.87022222222222L 686.1307189542484 183.15466666666666L 688.1437908496731 183.06222222222223L 690.156862745098 183.02755555555555L 692.1699346405229 176.10577777777777L 694.1830065359477 182.87733333333333L 696.1960784313725 180.48533333333333L 698.2091503267974 185.56977777777777L 700.2222222222223 180L 702.2352941176471 176.984L 704.2483660130719 178.20888888888888L 706.2614379084968 179.8382222222222L 708.2745098039215 183.09688888888888L 710.2875816993464 177.53866666666667L 712.3006535947712 183.44355555555555L 714.3137254901961 178.09333333333333L 716.3267973856209 179.59555555555556L 718.3398692810457 183.02755555555555L 720.3529411764706 180.4622222222222L 722.3660130718954 178.04711111111112L 724.3790849673203 186.89866666666666L 726.3921568627451 177.20355555555557L 728.4052287581699 179.07555555555555L 730.4183006535948 154.9591111111111L 732.4313725490197 133.512L 734.4444444444445 151.96622222222223L 736.4575163398692 151.57333333333332L 738.4705882352941 184.9111111111111L 740.483660130719 185.28088888888888L 742.4967320261437 178.61333333333334L 744.5098039215686 142.39822222222222L 746.5228758169935 150.1751111111111L 748.5359477124183 164.04177777777778L 750.5490196078431 138.82755555555556L 752.562091503268 134.864L 754.5751633986929 144.85955555555557L 756.5882352941176 145.57600000000002L 758.6013071895425 128.7048888888889L 760.6143790849674 120.36177777777777L 762.6274509803922 165.80977777777778L 764.6405228758169 163.51022222222224L 766.6535947712418 160.39022222222223L 768.6666666666666 177.504L 770.6797385620915 187.34933333333333L 772.6928104575163 188.04266666666666L 774.7058823529412 186.8871111111111L 776.718954248366 176.08266666666668L 778.7320261437909 179.41066666666666L 780.7450980392157 195.0568888888889L 782.7581699346405 185.53511111111112L 784.7712418300654 183.6977777777778L 786.7843137254903 174.97333333333333L 788.797385620915 178.61333333333334L 790.8104575163399 180.9591111111111L 792.8235294117648 184.0328888888889L 794.8366013071895 155.61777777777777L 796.8496732026143 149.7128888888889L 798.8627450980392 186.2631111111111L 800.8758169934641 191.28977777777777L 802.8888888888888 175.90933333333334L 804.9019607843137 175.49333333333334L 806.9150326797386 184.51822222222222L 808.9281045751634 189.69511111111112L 810.9411764705882 187.592L 812.9542483660131 180.09244444444445L 814.967320261438 176.92622222222224L 816.9803921568628 163.31377777777777L 818.9934640522875 162.112L 821.0065359477125 167.1271111111111L 823.0196078431372 180.32355555555554L 825.0326797385621 184.11377777777778L 827.0457516339869 191.57866666666666L 829.0588235294117 195.54222222222222L 831.0718954248366 183.54755555555556L 833.0849673202614 164.03022222222222L 835.0980392156863 171.05599999999998L 837.1111111111111 169.92355555555557L 839.124183006536 180.02311111111112L 841.1372549019608 172.07288888888888L 843.1503267973856 163.53333333333333L 845.1633986928105 171.34488888888887L 847.1764705882354 181.59466666666668L 849.1895424836601 179.80355555555556L 851.2026143790849 166.17955555555557L 853.2156862745098 154.92444444444445L 855.2287581699347 158.4488888888889L 857.2418300653594 156.4728888888889L 859.2549019607843 144.4551111111111L 861.2679738562092 158.52977777777778L 863.2810457516339 178.00088888888888L 865.2941176470588 144.99822222222224L 867.3071895424837 134.136L 869.3202614379085 139.8213333333333L 871.3333333333333 145.04444444444445L 873.3464052287582 153.168L 875.3594771241831 140.53777777777776L 877.3725490196078 113.86755555555555L 879.3856209150326 113.28977777777777L 881.3986928104575 164.85066666666665L 883.4117647058823 163.62577777777778L 885.4248366013072 150.16355555555555L 887.437908496732 149.84L 889.4509803921569 56.54044444444443L 891.4640522875817 124.776L 893.4771241830066 64.07466666666667L 895.4901960784314 123.55111111111111L 897.5032679738562 157.536L 899.5163398692811 147.9911111111111L 901.5294117647059 136.22755555555557L 903.5424836601306 91.11466666666666L 905.5555555555555 107.36177777777779L 907.5686274509804 141.68177777777777L 909.5816993464052 157.73244444444444L 911.59477124183 152.63644444444444L 913.6078431372549 96.22222222222221L 915.6209150326798 150.19822222222223L 917.6339869281045 116.57155555555556L 919.6470588235294 127.34133333333332L 921.6601307189543 180.53155555555554L 923.6732026143791 137.10577777777777L 925.6862745098039 122.64977777777779L 927.6993464052288 104.61155555555555L 929.7124183006537 141.76266666666666L 931.7254901960785 164.23822222222222L 933.7385620915032 160.51733333333334L 935.7516339869281 154.57777777777778L 937.7647058823529 175.01955555555554L 939.7777777777777 146.87022222222222L 941.7908496732026 153.23733333333334L 943.8039215686274 142.82577777777777L 945.8169934640523 130.98133333333334L 947.8300653594771 88.53777777777778L 949.843137254902 174.488L 951.8562091503268 50.55466666666666L 953.8692810457517 84.43555555555557L 955.8823529411765 152.47466666666668L 957.8954248366013 114.90755555555555L 959.9084967320262 96.30311111111112L 961.921568627451 171.46044444444445L 963.9346405228758 183.96355555555556L 965.9477124183006 169.87733333333333L 967.9607843137255 183.13155555555556L 969.9738562091504 171.992L 971.9869281045751 152.48622222222224L 974 201.22755555555557" stroke-width="2.0" fill="none" />
    
        
        
        <text x="45.0" font-family="-apple-system, system-ui, BlinkMacSystemFont, Roboto" y="50.0" dominant-baseline="middle" text-anchor="end" font-size="12" fill="#24292f">13500.0</text>
        
            
            <path stroke="#74838f" stroke-dasharray="10 6" stroke-width="0.5"  d="M 50.0 50.0 L 974.0 50.0" />
        
    
        
        
        <text x="45.0" font-family="-apple-system, system-ui, BlinkMacSystemFont, Roboto" y="81.2" dominant-baseline="middle" text-anchor="end" font-size="12" fill="#24292f">10800.0</text>
        
            
            
            <path stroke="#74838f" stroke-dasharray="10 6" stroke-width="0.5"  d="M 50.0 81.2 L 974.0 81.2" />
        
    
        
        
        <text x="45.0" font-family="-apple-system, system-ui, BlinkMacSystemFont, Roboto" y="112.4" dominant-baseline="middle" text-anchor="end" font-size="12" fill="#24292f">8100.0</text>
        
            
            
            <path stroke="#74838f" stroke-dasharray="10 6" stroke-width="0.5"  d="M 50.0 112.4 L 974.0 112.4" />
        
    
        
        
        <text x="45.0" font-family="-apple-system, system-ui, BlinkMacSystemFont, Roboto" y="143.6" dominant-baseline="middle" text-anchor="end" font-size="12" fill="#24292f">5400.0</text>
        
            
            
            <path stroke="#74838f" stroke-dasharray="10 6" stroke-width="0.5"  d="M 50.0 143.6 L 974.0 143.6" />
        
    
        
        
        <text x="45.0" font-family="-apple-system, system-ui, BlinkMacSystemFont, Roboto" y="174.8" dominant-baseline="middle" text-anchor="end" font-size="12" fill="#24292f">2700.0</text>
        
            
            
            <path stroke="#74838f" stroke-dasharray="10 6" stroke-width="0.5"  d="M 50.0 174.8 L 974.0 174.8" />
        
    
        
        
        <text x="45.0" font-family="-apple-system, system-ui, BlinkMacSystemFont, Roboto" y="206.0" dominant-baseline="middle" text-anchor="end" font-size="12" fill="#24292f">0.0</text>
        
    
    
        
        <path stroke="#74838f"  stroke-width="2.0"  d="M 82.20915032679738 206.0 L 82.20915032679738 214.0" />
        <text x="82.20915032679738" font-family="-apple-system, system-ui, BlinkMacSystemFont, Roboto" y="216.0" dominant-baseline="hanging" text-anchor="middle" font-size="12" fill="#24292f">Mar 2022</text>
    
        
        <path stroke="#74838f"  stroke-width="2.0"  d="M 144.6143790849673 206.0 L 144.6143790849673 214.0" />
        <text x="144.6143790849673" font-family="-apple-system, system-ui, BlinkMacSystemFont, Roboto" y="216.0" dominant-baseline="hanging" text-anchor="middle" font-size="12" fill="#24292f">Apr 2022</text>
    
        
        <path stroke="#74838f"  stroke-width="2.0"  d="M 205.00653594771242 206.0 L 205.00653594771242 214.0" />
        <text x="205.00653594771242" font-family="-apple-system, system-ui, BlinkMacSystemFont, Roboto" y="216.0" dominant-baseline="hanging" text-anchor="middle" font-size="12" fill="#24292f">May 2022</text>
    
        
        <path stroke="#74838f"  stroke-width="2.0"  d="M 267.4117647058823 206.0 L 267.4117647058823 214.0" />
        <text x="267.4117647058823" font-family="-apple-system, system-ui, BlinkMacSystemFont, Roboto" y="216.0" dominant-baseline="hanging" text-anchor="middle" font-size="12" fill="#24292f">Jun 2022</text>
    
        
        <path stroke="#74838f"  stroke-width="2.0"  d="M 327.80392156862746 206.0 L 327.80392156862746 214.0" />
        <text x="327.80392156862746" font-family="-apple-system, system-ui, BlinkMacSystemFont, Roboto" y="216.0" dominant-baseline="hanging" text-anchor="middle" font-size="12" fill="#24292f">Jul 2022</text>
    
        
        <path stroke="#74838f"  stroke-width="2.0"  d="M 390.2091503267974 206.0 L 390.2091503267974 214.0" />
        <text x="390.2091503267974" font-family="-apple-system, system-ui, BlinkMacSystemFont, Roboto" y="216.0" dominant-baseline="hanging" text-anchor="middle" font-size="12" fill="#24292f">Aug 2022</text>
    
        
        <path stroke="#74838f"  stroke-width="2.0"  d="M 452.61437908496737 206.0 L 452.61437908496737 214.0" />
        <text x="452.61437908496737" font-family="-apple-system, system-ui, BlinkMacSystemFont, Roboto" y="216.0" dominant-baseline="hanging" text-anchor="middle" font-size="12" fill="#24292f">Sep 2022</text>
    
        
        <path stroke="#74838f"  stroke-width="2.0"  d="M 513.0065359477123 206.0 L 513.0065359477123 214.0" />
        <text x="513.0065359477123" font-family="-apple-system, system-ui, BlinkMacSystemFont, Roboto" y="216.0" dominant-baseline="hanging" text-anchor="middle" font-size="12" fill="#24292f">Oct 2022</text>
    
        
        <path stroke="#74838f"  stroke-width="2.0"  d="M 575.4117647058823 206.0 L 575.4117647058823 214.0" />
        <text x="575.4117647058823" font-family="-apple-system, system-ui, BlinkMacSystemFont, Roboto" y="216.0" dominant-baseline="hanging" text-anchor="middle" font-size="12" fill="#24292f">Nov 2022</text>
    
        
        <path stroke="#74838f"  stroke-width="2.0"  d="M 635.8039215686274 206.0 L 635.8039215686274 214.0" />
        <text x="635.8039215686274" font-family="-apple-system, system-ui, BlinkMacSystemFont, Roboto" y="216.0" dominant-baseline="hanging" text-anchor="middle" font-size="12" fill="#24292f">Dec 2022</text>
    
        
        <path stroke="#74838f"  stroke-width="2.0"  d="M 698.2091503267974 206.0 L 698.2091503267974 214.0" />
        <text x="698.2091503267974" font-family="-apple-system, system-ui, BlinkMacSystemFont, Roboto" y="216.0" dominant-baseline="hanging" text-anchor="middle" font-size="12" fill="#24292f">Jan 2023</text>
    
        
        <path stroke="#74838f"  stroke-width="2.0"  d="M 760.6143790849674 206.0 L 760.6143790849674 214.0" />
        <text x="760.6143790849674" font-family="-apple-system, system-ui, BlinkMacSystemFont, Roboto" y="216.0" dominant-baseline="hanging" text-anchor="middle" font-size="12" fill="#24292f">Feb 2023</text>
    
        
        <path stroke="#74838f"  stroke-width="2.0"  d="M 816.9803921568628 206.0 L 816.9803921568628 214.0" />
        <text x="816.9803921568628" font-family="-apple-system, system-ui, BlinkMacSystemFont, Roboto" y="216.0" dominant-baseline="hanging" text-anchor="middle" font-size="12" fill="#24292f">Mar 2023</text>
    
        
        <path stroke="#74838f"  stroke-width="2.0"  d="M 879.3856209150326 206.0 L 879.3856209150326 214.0" />
        <text x="879.3856209150326" font-family="-apple-system, system-ui, BlinkMacSystemFont, Roboto" y="216.0" dominant-baseline="hanging" text-anchor="middle" font-size="12" fill="#24292f">Apr 2023</text>
    
        
        <path stroke="#74838f"  stroke-width="2.0"  d="M 939.7777777777777 206.0 L 939.7777777777777 214.0" />
        <text x="939.7777777777777" font-family="-apple-system, system-ui, BlinkMacSystemFont, Roboto" y="216.0" dominant-baseline="hanging" text-anchor="middle" font-size="12" fill="#24292f">May 2023</text>
    
    <path stroke="#74838f"   stroke-linejoin="round" stroke-width="2.0" d="M 50.0 216.0 L 50.0 206.0 L 974.0 206.0 L 974.0 216.0"  fill="none" />
    <text x="512.0" y="25.0" font-family="-apple-system, system-ui, BlinkMacSystemFont, Roboto" dominant-baseline="middle" text-anchor="middle" font-size="18" fill="#24292f">Total daily suspensions</text>
</svg>
