<?xml version="1.0" standalone="no"?>
<svg width="1024.0" height="256.0"  viewBox="0 0 1024.0 256.0" preserveAspectRatio="xMidYMid meet" xmlns="http://www.w3.org/2000/svg">
    <path stroke="#e74c3c" stroke-linejoin="round" d="M 50.0 161.108 L 50 161.108L 52.437994722955146 193.664L 54.87598944591029 197.576L 57.31398416886544 197.924L 59.75197889182058 203.528L 62.189973614775724 199.94L 64.62796833773088 199.268L 67.06596306068602 191.108L 69.50395778364116 200.972L 71.94195250659631 198.62L 74.37994722955145 200L 76.8179419525066 202.57999999999998L 79.25593667546174 199.208L 81.69393139841688 195.608L 84.13192612137203 202.652L 86.56992084432719 198.716L 89.00791556728231 197.49200000000002L 91.44591029023746 191.42000000000002L 93.88390501319262 196.688L 96.32189973614776 199.46L 98.7598944591029 199.328L 101.19788918205805 198.308L 103.6358839050132 198.164L 106.07387862796834 199.832L 108.51187335092348 194.876L 110.94986807387863 199.904L 113.38786279683377 195.584L 115.82585751978893 200.732L 118.26385224274406 198.416L 120.7018469656992 190.652L 123.13984168865436 196.112L 125.5778364116095 190.82L 128.01583113456462 193.53199999999998L 130.4538258575198 199.688L 132.89182058047493 192.392L 135.32981530343008 197L 137.76781002638523 199.59199999999998L 140.20580474934036 193.54399999999998L 142.6437994722955 195.26L 145.08179419525067 195.428L 147.5197889182058 195.548L 149.95778364116094 196.484L 152.3957783641161 199.424L 154.83377308707125 199.22L 157.2717678100264 195.656L 159.70976253298153 193.952L 162.14775725593668 195.536L 164.58575197889184 198.764L 167.02374670184696 195.428L 169.46174142480209 194L 171.89973614775727 193.688L 174.3377308707124 186.32L 176.77572559366754 197.372L 179.2137203166227 195.96800000000002L 181.65171503957785 198.284L 184.08970976253298 194.38400000000001L 186.52770448548813 196.424L 188.96569920844328 196.988L 191.4036939313984 198.368L 193.84168865435356 198.05599999999998L 196.27968337730871 199.61599999999999L 198.71767810026384 191.54L 201.155672823219 202.124L 203.59366754617415 193.34L 206.03166226912927 204.2L 208.46965699208442 206L 210.90765171503958 206L 213.34564643799473 206L 215.78364116094988 206L 218.22163588390504 190.472L 220.65963060686016 159.01999999999998L 223.09762532981532 193.56799999999998L 225.53562005277044 200.228L 227.9736147757256 193.232L 230.41160949868075 196.82L 232.84960422163587 199.772L 235.28759894459102 186.548L 237.72559366754618 197.888L 240.1635883905013 195.596L 242.60158311345646 190.508L 245.0395778364116 194.876L 247.47757255936673 190.4L 249.9155672823219 188.756L 252.35356200527704 197.852L 254.79155672823217 199.772L 257.2295514511873 191.936L 259.6675461741425 191.864L 262.1055408970976 199.316L 264.5435356200528 194.72L 266.98153034300793 192.608L 269.41952506596306 194.9L 271.85751978891824 199.7L 274.29551451187336 189.224L 276.7335092348285 198.428L 279.17150395778367 196.136L 281.60949868073874 195.296L 284.0474934036939 196.268L 286.4854881266491 193.184L 288.92348284960417 197.204L 291.36147757255935 193.856L 293.79947229551453 197.096L 296.2374670184696 178.16L 298.6754617414248 194.372L 301.11345646437996 195.92000000000002L 303.5514511873351 195.11599999999999L 305.9894459102902 196.688L 308.4274406332454 197.49200000000002L 310.8654353562005 197.696L 313.3034300791557 186.848L 315.7414248021108 192.644L 318.17941952506595 199.61599999999999L 320.61741424802113 193.052L 323.05540897097626 191.072L 325.4934036939314 195.44L 327.93139841688657 196.184L 330.3693931398417 196.46L 332.8073878627968 197.312L 335.245382585752 193.076L 337.6833773087071 206L 340.12137203166225 186.44L 342.55936675461743 186.632L 344.99736147757255 191.276L 347.4353562005277 180.93200000000002L 349.87335092348286 201.704L 352.311345646438 185.744L 354.7493403693931 196.028L 357.1873350923483 189.464L 359.6253298153034 194.228L 362.06332453825854 195.632L 364.5013192612137 196.844L 366.93931398416885 186.332L 369.377308707124 197.99599999999998L 371.81530343007915 188.924L 374.2532981530343 189.128L 376.69129287598946 196.748L 379.12928759894464 182.45600000000002L 381.56728232189977 184.16L 384.0052770448549 206L 386.4432717678101 206L 388.8812664907652 206L 391.3192612137203 160.16L 393.7572559366755 198.536L 396.19525065963063 196.60399999999998L 398.63324538258576 195.668L 401.0712401055409 192.8L 403.50923482849606 196.964L 405.9472295514512 197.828L 408.3852242744063 200.84L 410.8232189973615 170.312L 413.2612137203166 189.236L 415.69920844327174 177.428L 418.1372031662269 191.564L 420.57519788918205 178.784L 423.0131926121372 176.372L 425.45118733509236 181.7L 427.8891820580475 187.472L 430.3271767810026 192.88400000000001L 432.7651715039578 189.38L 435.2031662269129 187.772L 437.64116094986804 189.404L 440.0791556728232 187.532L 442.51715039577834 193.59199999999998L 444.95514511873347 185.036L 447.39313984168865 171.332L 449.8311345646438 180.14L 452.2691292875989 172.316L 454.7071240105541 193.028L 457.1451187335092 191.996L 459.58311345646433 193.052L 462.0211081794195 194.84L 464.45910290237464 193.53199999999998L 466.8970976253298 194.024L 469.335092348285 189.272L 471.7730870712401 195.188L 474.21108179419525 196.256L 476.64907651715043 192.62L 479.08707124010556 190.844L 481.5250659630607 200.984L 483.96306068601587 184.796L 486.401055408971 190.88L 488.8390501319261 194.42000000000002L 491.2770448548813 189.86L 493.7150395778364 195.86L 496.15303430079155 191.984L 498.5910290237467 193.1L 501.02902374670185 186.464L 503.467018469657 190.46L 505.90501319261216 182.156L 508.3430079155673 187.136L 510.7810026385224 191.528L 513.2189973614775 184.1L 515.6569920844327 189.14L 518.0949868073878 185.204L 520.532981530343 185.468L 522.9709762532982 176.816L 525.4089709762534 189.04399999999998L 527.8469656992083 191.048L 530.2849604221635 188.756L 532.7229551451187 187.592L 535.1609498680739 191.39600000000002L 537.5989445910291 187.796L 540.0369393139842 188.228L 542.4749340369392 190.268L 544.9129287598944 194.372L 547.3509234828496 194.72L 549.7889182058047 201.308L 552.2269129287599 192.752L 554.6649076517151 181.148L 557.1029023746702 181.748L 559.5408970976254 181.208L 561.9788918205804 191.3L 564.4168865435356 186.88400000000001L 566.8548812664908 181.376L 569.292875989446 186.5L 571.730870712401 188.44400000000002L 574.1688654353562 179.66L 576.6068601583114 183.09199999999998L 579.0448548812665 173.564L 581.4828496042217 183.836L 583.9208443271768 171.668L 586.3588390501319 148.148L 588.7968337730871 178.004L 591.2348284960423 141.86L 593.6728232189973 186.128L 596.1108179419525 188.54000000000002L 598.5488126649077 187.748L 600.9868073878628 193.256L 603.424802110818 186.596L 605.8627968337731 185.42000000000002L 608.3007915567282 186.872L 610.7387862796834 185.372L 613.1767810026386 192.824L 615.6147757255936 188.552L 618.0527704485488 189.32L 620.490765171504 186.632L 622.9287598944591 185.768L 625.3667546174142 188.744L 627.8047493403694 187.34L 630.2427440633245 192.488L 632.6807387862797 187.028L 635.1187335092349 185.468L 637.5567282321899 181.928L 639.9947229551451 183.8L 642.4327176781003 180.296L 644.8707124010554 185.516L 647.3087071240105 194L 649.7467018469657 190.328L 652.1846965699208 186.584L 654.622691292876 168.32L 657.0606860158312 117.5L 659.4986807387862 189.10399999999998L 661.9366754617414 187.844L 664.3746701846966 190.28L 666.8126649076517 192.32L 669.2506596306068 189.2L 671.688654353562 182.288L 674.1266490765171 188.49200000000002L 676.5646437994723 178.916L 679.0026385224274 53.432000000000016L 681.4406332453825 162.656L 683.8786279683377 184.52L 686.3166226912929 182.708L 688.754617414248 183.68L 691.1926121372031 184.196L 693.6306068601583 179.084L 696.0686015831135 190.16L 698.5065963060686 180.476L 700.9445910290237 160.916L 703.3825857519789 121.196L 705.8205804749341 151.50799999999998L 708.2585751978893 164.132L 710.6965699208444 181.184L 713.1345646437995 170.49200000000002L 715.5725593667547 179.792L 718.0105540897098 173.204L 720.448548812665 178.352L 722.8865435356201 182.792L 725.3245382585752 177.152L 727.7625329815304 184.232L 730.2005277044856 187.796L 732.6385224274406 188.348L 735.0765171503958 184.736L 737.514511873351 181.892L 739.9525065963061 181.796L 742.3905013192613 179.36L 744.8284960422163 168.176L 747.2664907651715 181.808L 749.7044854881267 185.372L 752.1424802110818 167.708L 754.5804749340369 140.6L 757.0184696569921 160.784L 759.4564643799472 151.664L 761.8944591029024 145.952L 764.3324538258576 155.288L 766.7704485488126 153.68L 769.2084432717678 163.04L 771.646437994723 172.064L 774.084432717678 148.952L 776.5224274406332 171.812L 778.9604221635884 172.46L 781.3984168865435 172.508L 783.8364116094987 183.644L 786.2744063324539 166.304L 788.7124010554089 159.26L 791.1503957783641 172.652L 793.5883905013193 165.5L 796.0263852242743 154.892L 798.4643799472295 173.888L 800.9023746701847 176.3L 803.3403693931398 186.5L 805.778364116095 183.932L 808.2163588390501 183.10399999999998L 810.6543535620052 150.128L 813.0923482849604 183.11599999999999L 815.5303430079156 186.152L 817.9683377308706 185.096L 820.4063324538258 182.276L 822.844327176781 182.18L 825.2823218997361 182.144L 827.7203166226913 174.956L 830.1583113456464 181.988L 832.5963060686015 179.504L 835.0343007915567 184.784L 837.4722955145119 179L 839.9102902374669 175.868L 842.3482849604221 177.14L 844.7862796833773 178.832L 847.2242744063324 182.216L 849.6622691292876 176.444L 852.1002638522427 182.576L 854.5382585751978 177.02L 856.976253298153 178.58L 859.4142480211082 182.144L 861.8522427440632 179.48L 864.2902374670184 176.972L 866.7282321899736 186.164L 869.1662269129287 176.096L 871.6042216358838 178.04L 874.042216358839 152.996L 876.4802110817942 130.724L 878.9182058047493 149.888L 881.3562005277045 149.48L 883.7941952506596 184.1L 886.2321899736148 184.484L 888.67018469657 177.56L 891.1081794195251 139.952L 893.5461741424803 148.028L 895.9841688654354 162.428L 898.4221635883905 136.244L 900.8601583113457 132.128L 903.2981530343009 142.508L 905.7361477572559 143.252L 908.1741424802111 125.732L 910.6121372031663 117.06800000000001L 913.0501319261214 164.264L 915.4881266490765 161.876L 917.9261213720317 158.636L 920.3641160949868 176.40800000000002L 922.802110817942 186.632L 925.2401055408972 187.352L 927.6781002638522 186.152L 930.1160949868074 174.932L 932.5540897097626 178.388L 934.9920844327177 194.636L 937.4300791556728 184.748L 939.868073878628 182.84L 942.3060686015831 173.78L 944.7440633245383 177.56L 947.1820580474935 179.996L 949.6200527704485 183.188L 952.0580474934037 153.68L 954.4960422163589 147.548L 956.934036939314 185.504L 959.3720316622691 190.724L 961.8100263852243 174.752L 964.2480211081794 174.32L 966.6860158311346 183.692L 969.1240105540898 189.06799999999998L 971.5620052770448 186.88400000000001L 974 199.82" stroke-width="2.0" fill="none" />
    
        
        
        <text x="45.0" font-family="-apple-system, system-ui, BlinkMacSystemFont, Roboto" y="50.0" dominant-baseline="middle" text-anchor="end" font-size="12" fill="#24292f">13000.0</text>
        
            
            <path stroke="#74838f" stroke-dasharray="10 6" stroke-width="0.5"  d="M 50.0 50.0 L 974.0 50.0" />
        
    
        
        
        <text x="45.0" font-family="-apple-system, system-ui, BlinkMacSystemFont, Roboto" y="81.2" dominant-baseline="middle" text-anchor="end" font-size="12" fill="#24292f">10400.0</text>
        
            
            
            <path stroke="#74838f" stroke-dasharray="10 6" stroke-width="0.5"  d="M 50.0 81.2 L 974.0 81.2" />
        
    
        
        
        <text x="45.0" font-family="-apple-system, system-ui, BlinkMacSystemFont, Roboto" y="112.4" dominant-baseline="middle" text-anchor="end" font-size="12" fill="#24292f">7800.0</text>
        
            
            
            <path stroke="#74838f" stroke-dasharray="10 6" stroke-width="0.5"  d="M 50.0 112.4 L 974.0 112.4" />
        
    
        
        
        <text x="45.0" font-family="-apple-system, system-ui, BlinkMacSystemFont, Roboto" y="143.6" dominant-baseline="middle" text-anchor="end" font-size="12" fill="#24292f">5200.0</text>
        
            
            
            <path stroke="#74838f" stroke-dasharray="10 6" stroke-width="0.5"  d="M 50.0 143.6 L 974.0 143.6" />
        
    
        
        
        <text x="45.0" font-family="-apple-system, system-ui, BlinkMacSystemFont, Roboto" y="174.8" dominant-baseline="middle" text-anchor="end" font-size="12" fill="#24292f">2600.0</text>
        
            
            
            <path stroke="#74838f" stroke-dasharray="10 6" stroke-width="0.5"  d="M 50.0 174.8 L 974.0 174.8" />
        
    
        
        
        <text x="45.0" font-family="-apple-system, system-ui, BlinkMacSystemFont, Roboto" y="206.0" dominant-baseline="middle" text-anchor="end" font-size="12" fill="#24292f">0.0</text>
        
    
    
        
        <path stroke="#74838f"  stroke-width="2.0"  d="M 89.00791556728231 206.0 L 89.00791556728231 214.0" />
        <text x="89.00791556728231" font-family="-apple-system, system-ui, BlinkMacSystemFont, Roboto" y="216.0" dominant-baseline="hanging" text-anchor="middle" font-size="12" fill="#24292f">Mar 2022</text>
    
        
        <path stroke="#74838f"  stroke-width="2.0"  d="M 164.58575197889184 206.0 L 164.58575197889184 214.0" />
        <text x="164.58575197889184" font-family="-apple-system, system-ui, BlinkMacSystemFont, Roboto" y="216.0" dominant-baseline="hanging" text-anchor="middle" font-size="12" fill="#24292f">Apr 2022</text>
    
        
        <path stroke="#74838f"  stroke-width="2.0"  d="M 237.72559366754618 206.0 L 237.72559366754618 214.0" />
        <text x="237.72559366754618" font-family="-apple-system, system-ui, BlinkMacSystemFont, Roboto" y="216.0" dominant-baseline="hanging" text-anchor="middle" font-size="12" fill="#24292f">May 2022</text>
    
        
        <path stroke="#74838f"  stroke-width="2.0"  d="M 313.3034300791557 206.0 L 313.3034300791557 214.0" />
        <text x="313.3034300791557" font-family="-apple-system, system-ui, BlinkMacSystemFont, Roboto" y="216.0" dominant-baseline="hanging" text-anchor="middle" font-size="12" fill="#24292f">Jun 2022</text>
    
        
        <path stroke="#74838f"  stroke-width="2.0"  d="M 386.4432717678101 206.0 L 386.4432717678101 214.0" />
        <text x="386.4432717678101" font-family="-apple-system, system-ui, BlinkMacSystemFont, Roboto" y="216.0" dominant-baseline="hanging" text-anchor="middle" font-size="12" fill="#24292f">Jul 2022</text>
    
        
        <path stroke="#74838f"  stroke-width="2.0"  d="M 462.0211081794195 206.0 L 462.0211081794195 214.0" />
        <text x="462.0211081794195" font-family="-apple-system, system-ui, BlinkMacSystemFont, Roboto" y="216.0" dominant-baseline="hanging" text-anchor="middle" font-size="12" fill="#24292f">Aug 2022</text>
    
        
        <path stroke="#74838f"  stroke-width="2.0"  d="M 537.5989445910291 206.0 L 537.5989445910291 214.0" />
        <text x="537.5989445910291" font-family="-apple-system, system-ui, BlinkMacSystemFont, Roboto" y="216.0" dominant-baseline="hanging" text-anchor="middle" font-size="12" fill="#24292f">Sep 2022</text>
    
        
        <path stroke="#74838f"  stroke-width="2.0"  d="M 610.7387862796834 206.0 L 610.7387862796834 214.0" />
        <text x="610.7387862796834" font-family="-apple-system, system-ui, BlinkMacSystemFont, Roboto" y="216.0" dominant-baseline="hanging" text-anchor="middle" font-size="12" fill="#24292f">Oct 2022</text>
    
        
        <path stroke="#74838f"  stroke-width="2.0"  d="M 686.3166226912929 206.0 L 686.3166226912929 214.0" />
        <text x="686.3166226912929" font-family="-apple-system, system-ui, BlinkMacSystemFont, Roboto" y="216.0" dominant-baseline="hanging" text-anchor="middle" font-size="12" fill="#24292f">Nov 2022</text>
    
        
        <path stroke="#74838f"  stroke-width="2.0"  d="M 759.4564643799472 206.0 L 759.4564643799472 214.0" />
        <text x="759.4564643799472" font-family="-apple-system, system-ui, BlinkMacSystemFont, Roboto" y="216.0" dominant-baseline="hanging" text-anchor="middle" font-size="12" fill="#24292f">Dec 2022</text>
    
        
        <path stroke="#74838f"  stroke-width="2.0"  d="M 835.0343007915567 206.0 L 835.0343007915567 214.0" />
        <text x="835.0343007915567" font-family="-apple-system, system-ui, BlinkMacSystemFont, Roboto" y="216.0" dominant-baseline="hanging" text-anchor="middle" font-size="12" fill="#24292f">Jan 2023</text>
    
        
        <path stroke="#74838f"  stroke-width="2.0"  d="M 910.6121372031663 206.0 L 910.6121372031663 214.0" />
        <text x="910.6121372031663" font-family="-apple-system, system-ui, BlinkMacSystemFont, Roboto" y="216.0" dominant-baseline="hanging" text-anchor="middle" font-size="12" fill="#24292f">Feb 2023</text>
    
    <path stroke="#74838f"   stroke-linejoin="round" stroke-width="2.0" d="M 50.0 216.0 L 50.0 206.0 L 974.0 206.0 L 974.0 216.0"  fill="none" />
    <text x="512.0" y="25.0" font-family="-apple-system, system-ui, BlinkMacSystemFont, Roboto" dominant-baseline="middle" text-anchor="middle" font-size="18" fill="#24292f">Total daily suspensions</text>
</svg>
