<?xml version="1.0" standalone="no"?>
<svg width="1024.0" height="256.0"  viewBox="0 0 1024.0 256.0" preserveAspectRatio="xMidYMid meet" xmlns="http://www.w3.org/2000/svg">
    <path stroke="#e74c3c" stroke-linejoin="round" d="M 50.0 161.108 L 50 161.108L 52.381443298969074 193.664L 54.76288659793814 197.576L 57.144329896907216 197.924L 59.52577319587629 203.528L 61.90721649484536 199.94L 64.28865979381443 199.268L 66.6701030927835 191.108L 69.05154639175258 200.972L 71.43298969072166 198.62L 73.81443298969072 200L 76.19587628865979 202.57999999999998L 78.57731958762886 199.208L 80.95876288659794 195.608L 83.34020618556701 202.652L 85.72164948453609 198.716L 88.10309278350516 197.49200000000002L 90.48453608247422 191.42000000000002L 92.86597938144331 196.688L 95.24742268041237 199.46L 97.62886597938143 199.328L 100.01030927835052 198.308L 102.39175257731958 198.164L 104.77319587628867 199.832L 107.15463917525773 194.876L 109.53608247422679 199.904L 111.91752577319588 195.584L 114.29896907216495 200.732L 116.68041237113401 198.416L 119.06185567010309 190.652L 121.44329896907217 196.112L 123.82474226804123 190.82L 126.20618556701031 193.53199999999998L 128.58762886597938 199.688L 130.96907216494844 192.392L 133.35051546391753 197L 135.73195876288662 199.59199999999998L 138.11340206185565 193.54399999999998L 140.49484536082474 195.26L 142.87628865979383 195.428L 145.25773195876286 195.548L 147.63917525773195 196.484L 150.02061855670104 199.424L 152.4020618556701 199.22L 154.78350515463916 195.656L 157.16494845360825 193.952L 159.54639175257734 195.536L 161.9278350515464 198.764L 164.30927835051546 195.428L 166.69072164948454 194L 169.07216494845358 193.688L 171.45360824742266 186.32L 173.83505154639175 197.372L 176.2164948453608 195.96800000000002L 178.5979381443299 198.284L 180.97938144329896 194.38400000000001L 183.36082474226802 196.424L 185.7422680412371 196.988L 188.12371134020617 198.368L 190.50515463917526 198.05599999999998L 192.88659793814435 199.61599999999999L 195.2680412371134 191.54L 197.64948453608247 202.124L 200.03092783505156 193.34L 202.41237113402062 204.2L 204.79381443298968 206L 207.17525773195877 206L 209.55670103092783 206L 211.9381443298969 206L 214.31958762886597 190.472L 216.70103092783506 159.01999999999998L 219.08247422680412 193.56799999999998L 221.4639175257732 200.228L 223.84536082474227 193.232L 226.22680412371133 196.82L 228.60824742268042 199.772L 230.98969072164948 186.548L 233.37113402061854 197.888L 235.75257731958763 195.596L 238.1340206185567 190.508L 240.51546391752575 194.876L 242.89690721649484 190.4L 245.27835051546393 188.756L 247.659793814433 197.852L 250.04123711340208 199.772L 252.42268041237114 191.936L 254.8041237113402 191.864L 257.1855670103093 199.316L 259.5670103092783 194.72L 261.9484536082474 192.608L 264.3298969072165 194.9L 266.7113402061856 199.7L 269.09278350515467 189.224L 271.47422680412376 198.428L 273.8556701030928 196.136L 276.2371134020618 195.296L 278.6185567010309 196.268L 281 193.184L 283.3814432989691 197.204L 285.7628865979381 193.856L 288.14432989690715 197.096L 290.5257731958763 178.16L 292.90721649484533 194.372L 295.2886597938144 195.92000000000002L 297.6701030927835 195.11599999999999L 300.0515463917526 196.688L 302.4329896907216 197.49200000000002L 304.8144329896908 197.696L 307.1958762886598 186.848L 309.5773195876289 192.644L 311.9587628865979 199.61599999999999L 314.340206185567 193.052L 316.72164948453604 191.072L 319.1030927835052 195.44L 321.4845360824742 196.184L 323.8659793814433 196.46L 326.24742268041234 197.312L 328.62886597938143 193.076L 331.0103092783505 206L 333.3917525773196 186.44L 335.7731958762887 186.632L 338.1546391752577 191.276L 340.5360824742268 180.93200000000002L 342.91752577319585 201.704L 345.29896907216494 185.744L 347.680412371134 196.028L 350.0618556701031 189.464L 352.44329896907215 194.228L 354.82474226804123 195.632L 357.2061855670103 196.844L 359.58762886597935 186.332L 361.9690721649485 197.99599999999998L 364.35051546391753 188.924L 366.7319587628866 189.128L 369.11340206185565 196.748L 371.49484536082474 182.45600000000002L 373.8762886597938 184.16L 376.2577319587629 206L 378.63917525773195 206L 381.02061855670104 206L 383.4020618556701 160.16L 385.78350515463916 198.536L 388.16494845360825 196.60399999999998L 390.54639175257734 195.668L 392.9278350515464 192.8L 395.30927835051546 196.964L 397.69072164948454 197.828L 400.0721649484536 200.84L 402.45360824742266 170.312L 404.83505154639175 189.236L 407.21649484536084 177.428L 409.5979381443299 191.564L 411.97938144329896 178.784L 414.36082474226805 176.372L 416.7422680412371 181.7L 419.1237113402062 187.472L 421.50515463917526 192.88400000000001L 423.88659793814435 189.38L 426.2680412371134 187.772L 428.64948453608247 189.404L 431.0309278350515 187.532L 433.41237113402065 193.59199999999998L 435.7938144329897 185.036L 438.17525773195877 171.332L 440.55670103092785 180.14L 442.9381443298969 172.316L 445.319587628866 193.028L 447.70103092783506 191.996L 450.08247422680415 193.052L 452.4639175257732 194.84L 454.8453608247423 193.53199999999998L 457.2268041237113 194.024L 459.6082474226804 189.272L 461.9896907216495 195.188L 464.37113402061857 196.256L 466.75257731958766 192.62L 469.1340206185567 190.844L 471.5154639175258 200.984L 473.8969072164948 184.796L 476.27835051546396 190.88L 478.659793814433 194.42000000000002L 481.0412371134021 189.86L 483.4226804123711 195.86L 485.8041237113402 191.984L 488.1855670103093 193.1L 490.5670103092784 186.464L 492.94845360824746 190.46L 495.3298969072165 182.156L 497.7113402061856 187.136L 500.0927835051546 191.528L 502.4742268041237 184.1L 504.8556701030928 189.14L 507.2371134020619 185.204L 509.6185567010309 185.468L 512 176.816L 514.3814432989691 189.04399999999998L 516.7628865979382 191.048L 519.1443298969073 188.756L 521.5257731958762 187.592L 523.9072164948453 191.39600000000002L 526.2886597938143 187.796L 528.6701030927836 188.228L 531.0515463917526 190.268L 533.4329896907217 194.372L 535.8144329896907 194.72L 538.1958762886597 201.308L 540.5773195876288 192.752L 542.9587628865979 181.148L 545.340206185567 181.748L 547.7216494845361 181.208L 550.1030927835052 191.3L 552.4845360824742 186.88400000000001L 554.8659793814433 181.376L 557.2474226804125 186.5L 559.6288659793815 188.44400000000002L 562.0103092783505 179.66L 564.3917525773196 183.09199999999998L 566.7731958762887 173.564L 569.1546391752578 183.836L 571.5360824742268 171.668L 573.9175257731958 148.148L 576.2989690721649 178.004L 578.680412371134 141.86L 581.061855670103 186.128L 583.4432989690721 188.54000000000002L 585.8247422680413 187.748L 588.2061855670104 193.256L 590.5876288659794 186.596L 592.9690721649484 185.42000000000002L 595.3505154639175 186.872L 597.7319587628866 185.372L 600.1134020618557 192.824L 602.4948453608247 188.552L 604.8762886597938 189.32L 607.2577319587629 186.632L 609.639175257732 185.768L 612.020618556701 188.744L 614.4020618556701 187.34L 616.7835051546392 192.488L 619.1649484536083 187.028L 621.5463917525774 185.468L 623.9278350515464 181.928L 626.3092783505155 183.8L 628.6907216494845 180.296L 631.0721649484536 185.516L 633.4536082474226 194L 635.8350515463917 190.328L 638.2164948453608 186.584L 640.5979381443299 168.32L 642.979381443299 117.5L 645.360824742268 189.10399999999998L 647.7422680412371 187.844L 650.1237113402062 190.28L 652.5051546391753 192.32L 654.8865979381443 189.2L 657.2680412371134 182.288L 659.6494845360825 188.49200000000002L 662.0309278350516 178.916L 664.4123711340206 53.432000000000016L 666.7938144329896 162.656L 669.1752577319587 184.52L 671.5567010309279 182.708L 673.938144329897 183.68L 676.319587628866 184.196L 678.7010309278351 179.084L 681.0824742268042 190.16L 683.4639175257732 180.476L 685.8453608247422 160.916L 688.2268041237113 121.196L 690.6082474226804 151.50799999999998L 692.9896907216495 164.132L 695.3711340206186 181.184L 697.7525773195875 170.49200000000002L 700.1340206185567 179.792L 702.5154639175258 173.204L 704.8969072164949 178.352L 707.2783505154639 182.792L 709.659793814433 177.152L 712.0412371134021 184.232L 714.4226804123712 187.796L 716.8041237113403 188.348L 719.1855670103092 184.736L 721.5670103092783 181.892L 723.9484536082474 181.796L 726.3298969072165 179.36L 728.7113402061856 168.176L 731.0927835051547 181.808L 733.4742268041238 185.372L 735.8556701030928 167.708L 738.2371134020618 140.6L 740.6185567010309 160.784L 743 151.664L 745.3814432989691 145.952L 747.7628865979382 155.288L 750.1443298969072 153.68L 752.5257731958762 163.04L 754.9072164948453 172.064L 757.2886597938144 148.952L 759.6701030927835 171.812L 762.0515463917526 172.46L 764.4329896907217 172.508L 766.8144329896908 183.644L 769.1958762886597 166.304L 771.5773195876288 159.26L 773.9587628865979 172.652L 776.340206185567 165.5L 778.7216494845361 154.892L 781.1030927835051 173.888L 783.4845360824742 176.3L 785.8659793814433 186.5L 788.2474226804125 183.932L 790.6288659793814 183.10399999999998L 793.0103092783505 150.128L 795.3917525773196 183.11599999999999L 797.7731958762887 186.152L 800.1546391752578 185.096L 802.5360824742268 182.276L 804.9175257731958 182.18L 807.2989690721649 182.144L 809.680412371134 174.956L 812.061855670103 181.988L 814.4432989690721 179.504L 816.8247422680413 184.784L 819.2061855670104 179L 821.5876288659794 175.868L 823.9690721649484 177.14L 826.3505154639175 178.832L 828.7319587628866 182.216L 831.1134020618557 176.444L 833.4948453608247 182.576L 835.8762886597938 177.02L 838.2577319587629 178.58L 840.639175257732 182.144L 843.020618556701 179.48L 845.4020618556701 176.972L 847.7835051546392 186.164L 850.1649484536083 176.096L 852.5463917525774 178.04L 854.9278350515464 152.996L 857.3092783505155 130.724L 859.6907216494845 149.888L 862.0721649484536 149.48L 864.4536082474226 184.1L 866.8350515463917 184.484L 869.2164948453608 177.56L 871.5979381443299 139.952L 873.979381443299 148.028L 876.360824742268 162.428L 878.7422680412371 136.244L 881.1237113402062 132.128L 883.5051546391753 142.508L 885.8865979381443 143.252L 888.2680412371134 125.732L 890.6494845360825 117.06800000000001L 893.0309278350516 164.264L 895.4123711340206 161.876L 897.7938144329896 158.636L 900.1752577319587 176.40800000000002L 902.5567010309279 186.632L 904.938144329897 187.352L 907.319587628866 186.152L 909.7010309278351 174.932L 912.0824742268042 178.388L 914.4639175257732 194.636L 916.8453608247422 184.748L 919.2268041237113 182.84L 921.6082474226804 173.78L 923.9896907216495 177.56L 926.3711340206186 179.996L 928.7525773195875 183.188L 931.1340206185567 153.68L 933.5154639175258 147.548L 935.8969072164949 185.504L 938.2783505154639 190.724L 940.659793814433 174.752L 943.0412371134021 174.32L 945.4226804123712 183.692L 947.8041237113403 189.06799999999998L 950.1855670103092 186.88400000000001L 952.5670103092783 179.096L 954.9484536082474 175.808L 957.3298969072165 161.672L 959.7113402061856 160.424L 962.0927835051547 165.632L 964.4742268041238 179.336L 966.8556701030928 183.272L 969.2371134020618 191.024L 971.6185567010309 195.14L 974 195.608" stroke-width="2.0" fill="none" />
    
        
        
        <text x="45.0" font-family="-apple-system, system-ui, BlinkMacSystemFont, Roboto" y="50.0" dominant-baseline="middle" text-anchor="end" font-size="12" fill="#24292f">13000.0</text>
        
            
            <path stroke="#74838f" stroke-dasharray="10 6" stroke-width="0.5"  d="M 50.0 50.0 L 974.0 50.0" />
        
    
        
        
        <text x="45.0" font-family="-apple-system, system-ui, BlinkMacSystemFont, Roboto" y="81.2" dominant-baseline="middle" text-anchor="end" font-size="12" fill="#24292f">10400.0</text>
        
            
            
            <path stroke="#74838f" stroke-dasharray="10 6" stroke-width="0.5"  d="M 50.0 81.2 L 974.0 81.2" />
        
    
        
        
        <text x="45.0" font-family="-apple-system, system-ui, BlinkMacSystemFont, Roboto" y="112.4" dominant-baseline="middle" text-anchor="end" font-size="12" fill="#24292f">7800.0</text>
        
            
            
            <path stroke="#74838f" stroke-dasharray="10 6" stroke-width="0.5"  d="M 50.0 112.4 L 974.0 112.4" />
        
    
        
        
        <text x="45.0" font-family="-apple-system, system-ui, BlinkMacSystemFont, Roboto" y="143.6" dominant-baseline="middle" text-anchor="end" font-size="12" fill="#24292f">5200.0</text>
        
            
            
            <path stroke="#74838f" stroke-dasharray="10 6" stroke-width="0.5"  d="M 50.0 143.6 L 974.0 143.6" />
        
    
        
        
        <text x="45.0" font-family="-apple-system, system-ui, BlinkMacSystemFont, Roboto" y="174.8" dominant-baseline="middle" text-anchor="end" font-size="12" fill="#24292f">2600.0</text>
        
            
            
            <path stroke="#74838f" stroke-dasharray="10 6" stroke-width="0.5"  d="M 50.0 174.8 L 974.0 174.8" />
        
    
        
        
        <text x="45.0" font-family="-apple-system, system-ui, BlinkMacSystemFont, Roboto" y="206.0" dominant-baseline="middle" text-anchor="end" font-size="12" fill="#24292f">0.0</text>
        
    
    
        
        <path stroke="#74838f"  stroke-width="2.0"  d="M 88.10309278350516 206.0 L 88.10309278350516 214.0" />
        <text x="88.10309278350516" font-family="-apple-system, system-ui, BlinkMacSystemFont, Roboto" y="216.0" dominant-baseline="hanging" text-anchor="middle" font-size="12" fill="#24292f">Mar 2022</text>
    
        
        <path stroke="#74838f"  stroke-width="2.0"  d="M 161.9278350515464 206.0 L 161.9278350515464 214.0" />
        <text x="161.9278350515464" font-family="-apple-system, system-ui, BlinkMacSystemFont, Roboto" y="216.0" dominant-baseline="hanging" text-anchor="middle" font-size="12" fill="#24292f">Apr 2022</text>
    
        
        <path stroke="#74838f"  stroke-width="2.0"  d="M 233.37113402061854 206.0 L 233.37113402061854 214.0" />
        <text x="233.37113402061854" font-family="-apple-system, system-ui, BlinkMacSystemFont, Roboto" y="216.0" dominant-baseline="hanging" text-anchor="middle" font-size="12" fill="#24292f">May 2022</text>
    
        
        <path stroke="#74838f"  stroke-width="2.0"  d="M 307.1958762886598 206.0 L 307.1958762886598 214.0" />
        <text x="307.1958762886598" font-family="-apple-system, system-ui, BlinkMacSystemFont, Roboto" y="216.0" dominant-baseline="hanging" text-anchor="middle" font-size="12" fill="#24292f">Jun 2022</text>
    
        
        <path stroke="#74838f"  stroke-width="2.0"  d="M 378.63917525773195 206.0 L 378.63917525773195 214.0" />
        <text x="378.63917525773195" font-family="-apple-system, system-ui, BlinkMacSystemFont, Roboto" y="216.0" dominant-baseline="hanging" text-anchor="middle" font-size="12" fill="#24292f">Jul 2022</text>
    
        
        <path stroke="#74838f"  stroke-width="2.0"  d="M 452.4639175257732 206.0 L 452.4639175257732 214.0" />
        <text x="452.4639175257732" font-family="-apple-system, system-ui, BlinkMacSystemFont, Roboto" y="216.0" dominant-baseline="hanging" text-anchor="middle" font-size="12" fill="#24292f">Aug 2022</text>
    
        
        <path stroke="#74838f"  stroke-width="2.0"  d="M 526.2886597938143 206.0 L 526.2886597938143 214.0" />
        <text x="526.2886597938143" font-family="-apple-system, system-ui, BlinkMacSystemFont, Roboto" y="216.0" dominant-baseline="hanging" text-anchor="middle" font-size="12" fill="#24292f">Sep 2022</text>
    
        
        <path stroke="#74838f"  stroke-width="2.0"  d="M 597.7319587628866 206.0 L 597.7319587628866 214.0" />
        <text x="597.7319587628866" font-family="-apple-system, system-ui, BlinkMacSystemFont, Roboto" y="216.0" dominant-baseline="hanging" text-anchor="middle" font-size="12" fill="#24292f">Oct 2022</text>
    
        
        <path stroke="#74838f"  stroke-width="2.0"  d="M 671.5567010309279 206.0 L 671.5567010309279 214.0" />
        <text x="671.5567010309279" font-family="-apple-system, system-ui, BlinkMacSystemFont, Roboto" y="216.0" dominant-baseline="hanging" text-anchor="middle" font-size="12" fill="#24292f">Nov 2022</text>
    
        
        <path stroke="#74838f"  stroke-width="2.0"  d="M 743.0 206.0 L 743.0 214.0" />
        <text x="743.0" font-family="-apple-system, system-ui, BlinkMacSystemFont, Roboto" y="216.0" dominant-baseline="hanging" text-anchor="middle" font-size="12" fill="#24292f">Dec 2022</text>
    
        
        <path stroke="#74838f"  stroke-width="2.0"  d="M 816.8247422680413 206.0 L 816.8247422680413 214.0" />
        <text x="816.8247422680413" font-family="-apple-system, system-ui, BlinkMacSystemFont, Roboto" y="216.0" dominant-baseline="hanging" text-anchor="middle" font-size="12" fill="#24292f">Jan 2023</text>
    
        
        <path stroke="#74838f"  stroke-width="2.0"  d="M 890.6494845360825 206.0 L 890.6494845360825 214.0" />
        <text x="890.6494845360825" font-family="-apple-system, system-ui, BlinkMacSystemFont, Roboto" y="216.0" dominant-baseline="hanging" text-anchor="middle" font-size="12" fill="#24292f">Feb 2023</text>
    
        
        <path stroke="#74838f"  stroke-width="2.0"  d="M 957.3298969072165 206.0 L 957.3298969072165 214.0" />
        <text x="957.3298969072165" font-family="-apple-system, system-ui, BlinkMacSystemFont, Roboto" y="216.0" dominant-baseline="hanging" text-anchor="middle" font-size="12" fill="#24292f">Mar 2023</text>
    
    <path stroke="#74838f"   stroke-linejoin="round" stroke-width="2.0" d="M 50.0 216.0 L 50.0 206.0 L 974.0 206.0 L 974.0 216.0"  fill="none" />
    <text x="512.0" y="25.0" font-family="-apple-system, system-ui, BlinkMacSystemFont, Roboto" dominant-baseline="middle" text-anchor="middle" font-size="18" fill="#24292f">Total daily suspensions</text>
</svg>
