<?xml version="1.0" standalone="no"?>
<svg width="1024.0" height="256.0"  viewBox="0 0 1024.0 256.0" preserveAspectRatio="xMidYMid meet" xmlns="http://www.w3.org/2000/svg">
    <path stroke="#e74c3c" stroke-linejoin="round" d="M 50.0 161.108 L 50 161.108L 52.61756373937677 193.664L 55.23512747875354 197.576L 57.85269121813031 197.924L 60.47025495750708 203.528L 63.08781869688385 199.94L 65.70538243626062 199.268L 68.3229461756374 191.108L 70.94050991501416 200.972L 73.55807365439094 198.62L 76.1756373937677 200L 78.79320113314448 202.57999999999998L 81.41076487252124 199.208L 84.02832861189802 195.608L 86.6458923512748 202.652L 89.26345609065156 198.716L 91.88101983002832 197.49200000000002L 94.4985835694051 191.42000000000002L 97.11614730878188 196.688L 99.73371104815864 199.46L 102.3512747875354 199.328L 104.96883852691218 198.308L 107.58640226628896 198.164L 110.20396600566572 199.832L 112.8215297450425 194.876L 115.43909348441926 199.904L 118.05665722379602 195.584L 120.67422096317281 200.732L 123.29178470254958 198.416L 125.90934844192635 190.652L 128.52691218130312 196.112L 131.1444759206799 190.82L 133.76203966005664 193.53199999999998L 136.37960339943342 199.688L 138.9971671388102 192.392L 141.61473087818698 197L 144.23229461756375 199.59199999999998L 146.8498583569405 193.54399999999998L 149.46742209631728 195.26L 152.08498583569406 195.428L 154.7025495750708 195.548L 157.32011331444758 196.484L 159.93767705382436 199.424L 162.55524079320114 199.22L 165.1728045325779 195.656L 167.79036827195466 193.952L 170.40793201133144 195.536L 173.02549575070822 198.764L 175.643059490085 195.428L 178.26062322946177 194L 180.87818696883852 193.688L 183.4957507082153 186.32L 186.11331444759205 197.372L 188.73087818696885 195.96800000000002L 191.34844192634563 198.284L 193.96600566572238 194.38400000000001L 196.58356940509915 196.424L 199.2011331444759 196.988L 201.8186968838527 198.368L 204.43626062322946 198.05599999999998L 207.05382436260624 199.61599999999999L 209.671388101983 191.54L 212.28895184135976 202.124L 214.90651558073654 193.34L 217.52407932011332 204.2L 220.1416430594901 206L 222.75920679886684 206L 225.37677053824362 206L 227.9943342776204 206L 230.61189801699717 190.472L 233.22946175637395 159.01999999999998L 235.8470254957507 193.56799999999998L 238.46458923512748 200.228L 241.08215297450423 193.232L 243.69971671388103 196.82L 246.31728045325778 199.772L 248.93484419263456 186.548L 251.55240793201133 197.888L 254.16997167138808 195.596L 256.7875354107649 190.508L 259.4050991501416 194.876L 262.0226628895184 190.4L 264.64022662889516 188.756L 267.2577903682719 197.852L 269.8753541076487 199.772L 272.4929178470255 191.936L 275.1104815864023 191.864L 277.728045325779 199.316L 280.3456090651558 194.72L 282.9631728045326 192.608L 285.5807365439093 194.9L 288.19830028328613 199.7L 290.8158640226629 189.224L 293.4334277620396 198.428L 296.05099150141643 196.136L 298.6685552407932 195.296L 301.28611898017 196.268L 303.90368271954674 193.184L 306.52124645892354 197.204L 309.1388101983003 193.856L 311.75637393767704 197.096L 314.37393767705385 178.16L 316.9915014164306 194.372L 319.60906515580734 195.92000000000002L 322.2266288951841 195.11599999999999L 324.8441926345609 196.688L 327.4617563739377 197.49200000000002L 330.07932011331445 197.696L 332.69688385269126 186.848L 335.314447592068 192.644L 337.93201133144476 199.61599999999999L 340.5495750708215 193.052L 343.1671388101983 191.072L 345.78470254957506 195.44L 348.4022662889518 196.184L 351.0198300283286 196.46L 353.6373937677054 197.312L 356.25495750708217 193.076L 358.8725212464589 206L 361.4900849858357 186.44L 364.10764872521247 186.632L 366.7252124645892 191.276L 369.342776203966 180.93200000000002L 371.9603399433428 201.704L 374.5779036827195 185.744L 377.19546742209627 196.028L 379.8130311614731 189.464L 382.4305949008499 194.228L 385.04815864022663 195.632L 387.66572237960344 196.844L 390.2832861189802 186.332L 392.90084985835693 197.99599999999998L 395.5184135977337 188.924L 398.1359773371105 189.128L 400.75354107648724 196.748L 403.371104815864 182.45600000000002L 405.9886685552408 184.16L 408.6062322946176 206L 411.22379603399435 206L 413.8413597733711 206L 416.4589235127479 160.16L 419.07648725212465 198.536L 421.6940509915014 196.60399999999998L 424.3116147308782 195.668L 426.92917847025495 192.8L 429.5467422096317 196.964L 432.16430594900845 197.828L 434.7818696883853 200.84L 437.39943342776206 170.312L 440.0169971671388 189.236L 442.63456090651556 177.428L 445.25212464589237 191.564L 447.8696883852691 178.784L 450.48725212464586 176.372L 453.10481586402267 181.7L 455.7223796033994 187.472L 458.33994334277617 192.88400000000001L 460.957507082153 189.38L 463.5750708215298 187.772L 466.1926345609065 189.404L 468.8101983002833 187.532L 471.4277620396601 193.59199999999998L 474.04532577903683 185.036L 476.6628895184136 171.332L 479.2804532577903 180.14L 481.89801699716713 172.316L 484.5155807365439 193.028L 487.1331444759207 191.996L 489.7507082152975 193.052L 492.36827195467424 194.84L 494.985835694051 193.53199999999998L 497.60339943342774 194.024L 500.22096317280455 189.272L 502.8385269121813 195.188L 505.45609065155804 196.256L 508.07365439093485 192.62L 510.6912181303116 190.844L 513.3087818696883 200.984L 515.9263456090652 184.796L 518.543909348442 190.88L 521.1614730878186 194.42000000000002L 523.7790368271953 189.86L 526.3966005665723 195.86L 529.0141643059491 191.984L 531.6317280453258 193.1L 534.2492917847026 186.464L 536.8668555240793 190.46L 539.4844192634562 182.156L 542.1019830028329 187.136L 544.7195467422097 191.528L 547.3371104815864 184.1L 549.9546742209632 189.14L 552.57223796034 185.204L 555.1898016997168 185.468L 557.8073654390935 176.816L 560.4249291784702 189.04399999999998L 563.0424929178471 191.048L 565.6600566572238 188.756L 568.2776203966006 187.592L 570.8951841359773 191.39600000000002L 573.5127478753541 187.796L 576.1303116147309 188.228L 578.7478753541077 190.268L 581.3654390934845 194.372L 583.9830028328612 194.72L 586.600566572238 201.308L 589.2181303116147 192.752L 591.8356940509915 181.148L 594.4532577903682 181.748L 597.0708215297451 181.208L 599.6883852691218 191.3L 602.3059490084986 186.88400000000001L 604.9235127478754 181.376L 607.5410764872521 186.5L 610.1586402266289 188.44400000000002L 612.7762039660056 179.66L 615.3937677053825 183.09199999999998L 618.0113314447592 173.564L 620.628895184136 183.836L 623.2464589235127 171.668L 625.8640226628895 148.148L 628.4815864022662 178.004L 631.099150141643 141.86L 633.7167138810199 186.128L 636.3342776203966 188.54000000000002L 638.9518413597734 187.748L 641.5694050991501 193.256L 644.1869688385269 186.596L 646.8045325779036 185.42000000000002L 649.4220963172804 186.872L 652.0396600566572 185.372L 654.657223796034 192.824L 657.2747875354108 188.552L 659.8923512747875 189.32L 662.5099150141643 186.632L 665.127478753541 185.768L 667.7450424929178 188.744L 670.3626062322946 187.34L 672.9801699716714 192.488L 675.5977337110481 187.028L 678.2152974504249 185.468L 680.8328611898016 181.928L 683.4504249291784 183.8L 686.0679886685552 180.296L 688.685552407932 185.516L 691.3031161473089 194L 693.9206798866855 190.328L 696.5382436260624 186.584L 699.155807365439 168.32L 701.7733711048159 117.5L 704.3909348441925 189.10399999999998L 707.0084985835695 187.844L 709.6260623229462 190.28L 712.243626062323 192.32L 714.8611898016998 189.2L 717.4787535410765 182.288L 720.0963172804533 188.49200000000002L 722.71388101983 178.916L 725.3314447592069 53.432000000000016L 727.9490084985836 162.656L 730.5665722379604 184.52L 733.1841359773371 182.708L 735.8016997167139 183.68L 738.4192634560907 184.196L 741.0368271954674 179.084L 743.6543909348443 190.16L 746.271954674221 180.476L 748.8895184135978 160.916L 751.5070821529745 121.196L 754.1246458923513 151.50799999999998L 756.742209631728 164.132L 759.3597733711048 181.184L 761.9773371104816 170.49200000000002L 764.5949008498584 179.792L 767.2124645892352 173.204L 769.8300283286119 178.352L 772.4475920679887 182.792L 775.0651558073654 177.152L 777.6827195467422 184.232L 780.300283286119 187.796L 782.9178470254958 188.348L 785.5354107648725 184.736L 788.1529745042493 181.892L 790.7705382436261 181.796L 793.3881019830028 179.36L 796.0056657223796 168.176L 798.6232294617564 181.808L 801.2407932011332 185.372L 803.8583569405099 167.708L 806.4759206798867 140.6L 809.0934844192634 160.784L 811.7110481586402 151.664L 814.3286118980169 145.952L 816.9461756373938 155.288L 819.5637393767706 153.68L 822.1813031161473 163.04L 824.7988668555241 172.064L 827.4164305949008 148.952L 830.0339943342776 171.812L 832.6515580736543 172.46L 835.2691218130311 172.508L 837.8866855524079 183.644L 840.5042492917847 166.304L 843.1218130311615 159.26L 845.7393767705382 172.652L 848.356940509915 165.5L 850.9745042492917 154.892L 853.5920679886685 173.888L 856.2096317280453 176.3L 858.8271954674221 186.5L 861.4447592067988 183.932L 864.0623229461756 183.10399999999998L 866.6798866855523 150.128L 869.2974504249291 183.11599999999999L 871.915014164306 186.152L 874.5325779036827 185.096L 877.1501416430596 182.276L 879.7677053824362 182.18L 882.385269121813 182.144L 885.0028328611897 174.956L 887.6203966005666 181.988L 890.2379603399434 179.504L 892.8555240793202 184.784L 895.473087818697 179L 898.0906515580737 175.868L 900.7082152974505 177.14L 903.3257790368272 178.832L 905.943342776204 182.216L 908.5609065155807 176.444L 911.1784702549576 182.576L 913.7960339943343 177.02L 916.4135977337111 178.58L 919.0311614730878 182.144L 921.6487252124646 179.48L 924.2662889518414 176.972L 926.8838526912181 186.164L 929.501416430595 176.096L 932.1189801699717 178.04L 934.7365439093485 152.996L 937.3541076487252 130.724L 939.971671388102 149.888L 942.5892351274787 149.48L 945.2067988668555 184.1L 947.8243626062324 184.484L 950.4419263456091 177.56L 953.0594900849859 139.952L 955.6770538243626 148.028L 958.2946175637394 162.428L 960.9121813031161 136.244L 963.5297450424929 132.128L 966.1473087818697 142.508L 968.7648725212465 143.252L 971.3824362606232 125.732L 974 169.57999999999998" stroke-width="2.0" fill="none" />
    
        
        
        <text x="45.0" font-family="-apple-system, system-ui, BlinkMacSystemFont, Roboto" y="50.0" dominant-baseline="middle" text-anchor="end" font-size="12" fill="#24292f">13000.0</text>
        
            
            <path stroke="#74838f" stroke-dasharray="10 6" stroke-width="0.5"  d="M 50.0 50.0 L 974.0 50.0" />
        
    
        
        
        <text x="45.0" font-family="-apple-system, system-ui, BlinkMacSystemFont, Roboto" y="81.2" dominant-baseline="middle" text-anchor="end" font-size="12" fill="#24292f">10400.0</text>
        
            
            
            <path stroke="#74838f" stroke-dasharray="10 6" stroke-width="0.5"  d="M 50.0 81.2 L 974.0 81.2" />
        
    
        
        
        <text x="45.0" font-family="-apple-system, system-ui, BlinkMacSystemFont, Roboto" y="112.4" dominant-baseline="middle" text-anchor="end" font-size="12" fill="#24292f">7800.0</text>
        
            
            
            <path stroke="#74838f" stroke-dasharray="10 6" stroke-width="0.5"  d="M 50.0 112.4 L 974.0 112.4" />
        
    
        
        
        <text x="45.0" font-family="-apple-system, system-ui, BlinkMacSystemFont, Roboto" y="143.6" dominant-baseline="middle" text-anchor="end" font-size="12" fill="#24292f">5200.0</text>
        
            
            
            <path stroke="#74838f" stroke-dasharray="10 6" stroke-width="0.5"  d="M 50.0 143.6 L 974.0 143.6" />
        
    
        
        
        <text x="45.0" font-family="-apple-system, system-ui, BlinkMacSystemFont, Roboto" y="174.8" dominant-baseline="middle" text-anchor="end" font-size="12" fill="#24292f">2600.0</text>
        
            
            
            <path stroke="#74838f" stroke-dasharray="10 6" stroke-width="0.5"  d="M 50.0 174.8 L 974.0 174.8" />
        
    
        
        
        <text x="45.0" font-family="-apple-system, system-ui, BlinkMacSystemFont, Roboto" y="206.0" dominant-baseline="middle" text-anchor="end" font-size="12" fill="#24292f">0.0</text>
        
    
    
        
        <path stroke="#74838f"  stroke-width="2.0"  d="M 91.88101983002832 206.0 L 91.88101983002832 214.0" />
        <text x="91.88101983002832" font-family="-apple-system, system-ui, BlinkMacSystemFont, Roboto" y="216.0" dominant-baseline="hanging" text-anchor="middle" font-size="12" fill="#24292f">Mar 2022</text>
    
        
        <path stroke="#74838f"  stroke-width="2.0"  d="M 173.02549575070822 206.0 L 173.02549575070822 214.0" />
        <text x="173.02549575070822" font-family="-apple-system, system-ui, BlinkMacSystemFont, Roboto" y="216.0" dominant-baseline="hanging" text-anchor="middle" font-size="12" fill="#24292f">Apr 2022</text>
    
        
        <path stroke="#74838f"  stroke-width="2.0"  d="M 251.55240793201133 206.0 L 251.55240793201133 214.0" />
        <text x="251.55240793201133" font-family="-apple-system, system-ui, BlinkMacSystemFont, Roboto" y="216.0" dominant-baseline="hanging" text-anchor="middle" font-size="12" fill="#24292f">May 2022</text>
    
        
        <path stroke="#74838f"  stroke-width="2.0"  d="M 332.69688385269126 206.0 L 332.69688385269126 214.0" />
        <text x="332.69688385269126" font-family="-apple-system, system-ui, BlinkMacSystemFont, Roboto" y="216.0" dominant-baseline="hanging" text-anchor="middle" font-size="12" fill="#24292f">Jun 2022</text>
    
        
        <path stroke="#74838f"  stroke-width="2.0"  d="M 411.22379603399435 206.0 L 411.22379603399435 214.0" />
        <text x="411.22379603399435" font-family="-apple-system, system-ui, BlinkMacSystemFont, Roboto" y="216.0" dominant-baseline="hanging" text-anchor="middle" font-size="12" fill="#24292f">Jul 2022</text>
    
        
        <path stroke="#74838f"  stroke-width="2.0"  d="M 492.36827195467424 206.0 L 492.36827195467424 214.0" />
        <text x="492.36827195467424" font-family="-apple-system, system-ui, BlinkMacSystemFont, Roboto" y="216.0" dominant-baseline="hanging" text-anchor="middle" font-size="12" fill="#24292f">Aug 2022</text>
    
        
        <path stroke="#74838f"  stroke-width="2.0"  d="M 573.5127478753541 206.0 L 573.5127478753541 214.0" />
        <text x="573.5127478753541" font-family="-apple-system, system-ui, BlinkMacSystemFont, Roboto" y="216.0" dominant-baseline="hanging" text-anchor="middle" font-size="12" fill="#24292f">Sep 2022</text>
    
        
        <path stroke="#74838f"  stroke-width="2.0"  d="M 652.0396600566572 206.0 L 652.0396600566572 214.0" />
        <text x="652.0396600566572" font-family="-apple-system, system-ui, BlinkMacSystemFont, Roboto" y="216.0" dominant-baseline="hanging" text-anchor="middle" font-size="12" fill="#24292f">Oct 2022</text>
    
        
        <path stroke="#74838f"  stroke-width="2.0"  d="M 733.1841359773371 206.0 L 733.1841359773371 214.0" />
        <text x="733.1841359773371" font-family="-apple-system, system-ui, BlinkMacSystemFont, Roboto" y="216.0" dominant-baseline="hanging" text-anchor="middle" font-size="12" fill="#24292f">Nov 2022</text>
    
        
        <path stroke="#74838f"  stroke-width="2.0"  d="M 811.7110481586402 206.0 L 811.7110481586402 214.0" />
        <text x="811.7110481586402" font-family="-apple-system, system-ui, BlinkMacSystemFont, Roboto" y="216.0" dominant-baseline="hanging" text-anchor="middle" font-size="12" fill="#24292f">Dec 2022</text>
    
        
        <path stroke="#74838f"  stroke-width="2.0"  d="M 892.8555240793202 206.0 L 892.8555240793202 214.0" />
        <text x="892.8555240793202" font-family="-apple-system, system-ui, BlinkMacSystemFont, Roboto" y="216.0" dominant-baseline="hanging" text-anchor="middle" font-size="12" fill="#24292f">Jan 2023</text>
    
        
        <path stroke="#74838f"  stroke-width="2.0"  d="M 974.0 206.0 L 974.0 214.0" />
        <text x="974.0" font-family="-apple-system, system-ui, BlinkMacSystemFont, Roboto" y="216.0" dominant-baseline="hanging" text-anchor="middle" font-size="12" fill="#24292f">Feb 2023</text>
    
    <path stroke="#74838f"   stroke-linejoin="round" stroke-width="2.0" d="M 50.0 216.0 L 50.0 206.0 L 974.0 206.0 L 974.0 216.0"  fill="none" />
    <text x="512.0" y="25.0" font-family="-apple-system, system-ui, BlinkMacSystemFont, Roboto" dominant-baseline="middle" text-anchor="middle" font-size="18" fill="#24292f">Total daily suspensions</text>
</svg>
