<?xml version="1.0" standalone="no"?>
<svg width="1024.0" height="256.0"  viewBox="0 0 1024.0 256.0" preserveAspectRatio="xMidYMid meet" xmlns="http://www.w3.org/2000/svg">
    <path stroke="#e74c3c" stroke-linejoin="round" d="M 50.0 161.108 L 50 161.108L 52.184397163120565 193.664L 54.36879432624114 197.576L 56.5531914893617 197.924L 58.73758865248227 203.528L 60.92198581560284 199.94L 63.1063829787234 199.268L 65.29078014184397 191.108L 67.47517730496455 200.972L 69.65957446808511 198.62L 71.84397163120568 200L 74.02836879432624 202.57999999999998L 76.2127659574468 199.208L 78.39716312056737 195.608L 80.58156028368793 202.652L 82.76595744680851 198.716L 84.95035460992908 197.49200000000002L 87.13475177304966 191.42000000000002L 89.31914893617022 196.688L 91.50354609929079 199.46L 93.68794326241135 199.328L 95.87234042553192 198.308L 98.05673758865248 198.164L 100.24113475177305 199.832L 102.42553191489361 194.876L 104.60992907801418 199.904L 106.79432624113474 195.584L 108.9787234042553 200.732L 111.16312056737588 198.416L 113.34751773049646 190.652L 115.53191489361703 196.112L 117.71631205673758 190.82L 119.90070921985816 193.53199999999998L 122.08510638297872 199.688L 124.2695035460993 192.392L 126.45390070921985 197L 128.63829787234044 199.59199999999998L 130.82269503546098 193.54399999999998L 133.00709219858157 195.26L 135.1914893617021 195.428L 137.3758865248227 195.548L 139.56028368794327 196.484L 141.74468085106383 199.424L 143.9290780141844 199.22L 146.11347517730496 195.656L 148.29787234042553 193.952L 150.4822695035461 195.536L 152.66666666666666 198.764L 154.85106382978722 195.428L 157.03546099290782 194L 159.21985815602835 193.688L 161.40425531914894 186.32L 163.58865248226948 197.372L 165.77304964539007 195.96800000000002L 167.9574468085106 198.284L 170.1418439716312 194.38400000000001L 172.32624113475177 196.424L 174.51063829787233 196.988L 176.69503546099293 198.368L 178.8794326241135 198.05599999999998L 181.06382978723406 199.61599999999999L 183.24822695035462 191.54L 185.43262411347516 202.124L 187.61702127659575 193.34L 189.80141843971631 204.2L 191.98581560283688 206L 194.17021276595744 206L 196.354609929078 206L 198.5390070921986 206L 200.72340425531917 190.472L 202.9078014184397 159.01999999999998L 205.09219858156027 193.56799999999998L 207.27659574468086 200.228L 209.46099290780143 193.232L 211.645390070922 196.82L 213.82978723404256 199.772L 216.01418439716312 186.548L 218.1985815602837 197.888L 220.38297872340425 195.596L 222.56737588652481 190.508L 224.75177304964538 194.876L 226.93617021276594 190.4L 229.12056737588654 188.756L 231.3049645390071 197.852L 233.48936170212767 199.772L 235.67375886524823 191.936L 237.8581560283688 191.864L 240.04255319148936 199.316L 242.22695035460993 194.72L 244.4113475177305 192.608L 246.59574468085106 194.9L 248.78014184397165 199.7L 250.9645390070922 189.224L 253.14893617021278 198.428L 255.33333333333331 196.136L 257.51773049645385 195.296L 259.70212765957444 196.268L 261.88652482269504 193.184L 264.07092198581563 197.204L 266.25531914893617 193.856L 268.4397163120567 197.096L 270.6241134751773 178.16L 272.8085106382979 194.372L 274.9929078014184 195.92000000000002L 277.17730496453896 195.11599999999999L 279.36170212765956 196.688L 281.54609929078015 197.49200000000002L 283.7304964539007 197.696L 285.9148936170212 186.848L 288.0992907801418 192.644L 290.2836879432624 199.61599999999999L 292.468085106383 193.052L 294.65248226950354 191.072L 296.8368794326241 195.44L 299.02127659574467 196.184L 301.20567375886526 196.46L 303.39007092198585 197.312L 305.5744680851064 193.076L 307.758865248227 206L 309.9432624113475 186.44L 312.1276595744681 186.632L 314.31205673758865 191.276L 316.49645390070924 180.93200000000002L 318.6808510638298 201.704L 320.8652482269503 185.744L 323.0496453900709 196.028L 325.2340425531915 189.464L 327.41843971631204 194.228L 329.60283687943263 195.632L 331.78723404255317 196.844L 333.97163120567376 186.332L 336.15602836879435 197.99599999999998L 338.3404255319149 188.924L 340.5248226950355 189.128L 342.709219858156 196.748L 344.8936170212766 182.45600000000002L 347.0780141843972 184.16L 349.26241134751774 206L 351.44680851063833 206L 353.6312056737588 206L 355.8156028368794 160.16L 358 198.536L 360.18439716312054 196.60399999999998L 362.36879432624113 195.668L 364.5531914893617 192.8L 366.73758865248226 196.964L 368.92198581560285 197.828L 371.1063829787234 200.84L 373.290780141844 170.312L 375.4751773049646 189.236L 377.6595744680851 177.428L 379.8439716312057 191.564L 382.02836879432624 178.784L 384.21276595744683 176.372L 386.3971631205674 181.7L 388.5815602836879 187.472L 390.7659574468085 192.88400000000001L 392.95035460992904 189.38L 395.13475177304963 187.772L 397.3191489361702 189.404L 399.50354609929076 187.532L 401.68794326241135 193.59199999999998L 403.8723404255319 185.036L 406.0567375886525 171.332L 408.2411347517731 180.14L 410.4255319148936 172.316L 412.6099290780142 193.028L 414.79432624113474 191.996L 416.97872340425533 193.052L 419.1631205673759 194.84L 421.34751773049646 193.53199999999998L 423.531914893617 194.024L 425.7163120567376 189.272L 427.90070921985813 195.188L 430.0851063829787 196.256L 432.26950354609926 192.62L 434.45390070921985 190.844L 436.63829787234044 200.984L 438.822695035461 184.796L 441.0070921985816 190.88L 443.1914893617021 194.42000000000002L 445.3758865248227 189.86L 447.5602836879433 195.86L 449.74468085106383 191.984L 451.9290780141844 193.1L 454.11347517730496 186.464L 456.29787234042556 190.46L 458.48226950354615 182.156L 460.66666666666663 187.136L 462.8510638297872 191.528L 465.03546099290776 184.1L 467.21985815602835 189.14L 469.40425531914894 185.204L 471.5886524822695 185.468L 473.7730496453901 176.816L 475.9574468085106 189.04399999999998L 478.1418439716312 191.048L 480.3262411347518 188.756L 482.51063829787233 187.592L 484.6950354609929 191.39600000000002L 486.87943262411346 187.796L 489.06382978723406 188.228L 491.24822695035465 190.268L 493.4326241134752 194.372L 495.6170212765957 194.72L 497.8014184397163 201.308L 499.98581560283685 192.752L 502.17021276595744 181.148L 504.354609929078 181.748L 506.5390070921986 181.208L 508.72340425531917 191.3L 510.9078014184397 186.88400000000001L 513.0921985815603 181.376L 515.2765957446808 186.5L 517.4609929078014 188.44400000000002L 519.645390070922 179.66L 521.8297872340424 183.09199999999998L 524.014184397163 173.564L 526.1985815602836 183.836L 528.3829787234042 171.668L 530.5673758865248 148.148L 532.7517730496454 178.004L 534.936170212766 141.86L 537.1205673758866 186.128L 539.3049645390071 188.54000000000002L 541.4893617021277 187.748L 543.6737588652481 193.256L 545.8581560283687 186.596L 548.0425531914893 185.42000000000002L 550.2269503546099 186.872L 552.4113475177305 185.372L 554.5957446808511 192.824L 556.7801418439717 188.552L 558.9645390070923 189.32L 561.1489361702128 186.632L 563.3333333333334 185.768L 565.517730496454 188.744L 567.7021276595744 187.34L 569.886524822695 192.488L 572.0709219858156 187.028L 574.2553191489362 185.468L 576.4397163120568 181.928L 578.6241134751773 183.8L 580.8085106382979 180.296L 582.9929078014185 185.516L 585.177304964539 194L 587.3617021276596 190.328L 589.5460992907801 186.584L 591.7304964539006 168.32L 593.9148936170212 117.5L 596.0992907801418 189.10399999999998L 598.2836879432624 187.844L 600.468085106383 190.28L 602.6524822695035 192.32L 604.8368794326241 189.2L 607.0212765957447 182.288L 609.2056737588653 188.49200000000002L 611.3900709219859 178.916L 613.5744680851063 53.432000000000016L 615.7588652482269 162.656L 617.9432624113475 184.52L 620.1276595744681 182.708L 622.3120567375887 183.68L 624.4964539007092 184.196L 626.6808510638298 179.084L 628.8652482269504 190.16L 631.049645390071 180.476L 633.2340425531916 160.916L 635.418439716312 121.196L 637.6028368794326 151.50799999999998L 639.7872340425532 164.132L 641.9716312056738 181.184L 644.1560283687944 170.49200000000002L 646.3404255319149 179.792L 648.5248226950355 173.204L 650.7092198581561 178.352L 652.8936170212767 182.792L 655.0780141843971 177.152L 657.2624113475176 184.232L 659.4468085106382 187.796L 661.6312056737588 188.348L 663.8156028368794 184.736L 666 181.892L 668.1843971631206 181.796L 670.3687943262411 179.36L 672.5531914893617 168.176L 674.7375886524823 181.808L 676.9219858156029 185.372L 679.1063829787234 167.708L 681.2907801418439 140.6L 683.4751773049645 160.784L 685.6595744680851 151.664L 687.8439716312057 145.952L 690.0283687943263 155.288L 692.2127659574468 153.68L 694.3971631205674 163.04L 696.581560283688 172.064L 698.7659574468086 148.952L 700.9503546099291 171.812L 703.1347517730496 172.46L 705.3191489361702 172.508L 707.5035460992908 183.644L 709.6879432624114 166.304L 711.872340425532 159.26L 714.0567375886525 172.652L 716.2411347517731 165.5L 718.4255319148937 154.892L 720.6099290780143 173.888L 722.7943262411349 176.3L 724.9787234042553 186.5L 727.1631205673758 183.932L 729.3475177304964 183.10399999999998L 731.531914893617 150.128L 733.7163120567376 183.11599999999999L 735.9007092198581 186.152L 738.0851063829787 185.096L 740.2695035460993 182.276L 742.4539007092199 182.18L 744.6382978723404 182.144L 746.8226950354609 174.956L 749.0070921985815 181.988L 751.1914893617021 179.504L 753.3758865248227 184.784L 755.5602836879433 179L 757.7446808510638 175.868L 759.9290780141844 177.14L 762.113475177305 178.832L 764.2978723404256 182.216L 766.4822695035461 176.444L 768.6666666666666 182.576L 770.8510638297872 177.02L 773.0354609929078 178.58L 775.2198581560284 182.144L 777.404255319149 179.48L 779.5886524822695 176.972L 781.7730496453901 186.164L 783.9574468085107 176.096L 786.1418439716313 178.04L 788.3262411347519 152.996L 790.5106382978723 130.724L 792.6950354609929 149.888L 794.8794326241135 149.48L 797.063829787234 184.1L 799.2482269503546 184.484L 801.4326241134752 177.56L 803.6170212765957 139.952L 805.8014184397163 148.028L 807.9858156028369 162.428L 810.1702127659574 136.244L 812.354609929078 132.128L 814.5390070921985 142.508L 816.7234042553191 143.252L 818.9078014184397 125.732L 821.0921985815603 117.06800000000001L 823.2765957446809 164.264L 825.4609929078014 161.876L 827.645390070922 158.636L 829.8297872340426 176.40800000000002L 832.0141843971631 186.632L 834.1985815602837 187.352L 836.3829787234042 186.152L 838.5673758865248 174.932L 840.7517730496454 178.388L 842.936170212766 194.636L 845.1205673758866 184.748L 847.3049645390071 182.84L 849.4893617021277 173.78L 851.6737588652483 177.56L 853.8581560283689 179.996L 856.0425531914894 183.188L 858.2269503546099 153.68L 860.4113475177305 147.548L 862.5957446808511 185.504L 864.7801418439717 190.724L 866.9645390070923 174.752L 869.1489361702127 174.32L 871.3333333333333 183.692L 873.5177304964539 189.06799999999998L 875.7021276595744 186.88400000000001L 877.886524822695 179.096L 880.0709219858155 175.808L 882.2553191489361 161.672L 884.4397163120567 160.424L 886.6241134751773 165.632L 888.8085106382979 179.336L 890.9929078014184 183.272L 893.177304964539 191.024L 895.3617021276596 195.14L 897.5460992907801 182.684L 899.7304964539007 162.416L 901.9148936170212 169.712L 904.0992907801418 168.536L 906.2836879432624 179.024L 908.468085106383 170.768L 910.6524822695036 161.9L 912.8368794326241 170.012L 915.0212765957447 180.656L 917.2056737588653 178.796L 919.3900709219859 164.648L 921.5744680851064 152.95999999999998L 923.7588652482269 156.62L 925.9432624113475 154.568L 928.1276595744681 142.088L 930.3120567375887 156.704L 932.4964539007093 176.924L 934.6808510638298 142.652L 936.8652482269504 131.372L 939.0496453900709 137.276L 941.2340425531914 142.7L 943.418439716312 151.136L 945.6028368794326 138.02L 947.7872340425531 110.324L 949.9716312056737 109.724L 952.1560283687943 163.268L 954.3404255319149 161.996L 956.5248226950355 148.016L 958.709219858156 147.68L 960.8936170212766 50.792L 963.0780141843971 121.652L 965.2624113475177 58.615999999999985L 967.4468085106383 120.38L 969.6312056737588 155.672L 971.8156028368794 145.76L 974 193.04" stroke-width="2.0" fill="none" />
    
        
        
        <text x="45.0" font-family="-apple-system, system-ui, BlinkMacSystemFont, Roboto" y="50.0" dominant-baseline="middle" text-anchor="end" font-size="12" fill="#24292f">13000.0</text>
        
            
            <path stroke="#74838f" stroke-dasharray="10 6" stroke-width="0.5"  d="M 50.0 50.0 L 974.0 50.0" />
        
    
        
        
        <text x="45.0" font-family="-apple-system, system-ui, BlinkMacSystemFont, Roboto" y="81.2" dominant-baseline="middle" text-anchor="end" font-size="12" fill="#24292f">10400.0</text>
        
            
            
            <path stroke="#74838f" stroke-dasharray="10 6" stroke-width="0.5"  d="M 50.0 81.2 L 974.0 81.2" />
        
    
        
        
        <text x="45.0" font-family="-apple-system, system-ui, BlinkMacSystemFont, Roboto" y="112.4" dominant-baseline="middle" text-anchor="end" font-size="12" fill="#24292f">7800.0</text>
        
            
            
            <path stroke="#74838f" stroke-dasharray="10 6" stroke-width="0.5"  d="M 50.0 112.4 L 974.0 112.4" />
        
    
        
        
        <text x="45.0" font-family="-apple-system, system-ui, BlinkMacSystemFont, Roboto" y="143.6" dominant-baseline="middle" text-anchor="end" font-size="12" fill="#24292f">5200.0</text>
        
            
            
            <path stroke="#74838f" stroke-dasharray="10 6" stroke-width="0.5"  d="M 50.0 143.6 L 974.0 143.6" />
        
    
        
        
        <text x="45.0" font-family="-apple-system, system-ui, BlinkMacSystemFont, Roboto" y="174.8" dominant-baseline="middle" text-anchor="end" font-size="12" fill="#24292f">2600.0</text>
        
            
            
            <path stroke="#74838f" stroke-dasharray="10 6" stroke-width="0.5"  d="M 50.0 174.8 L 974.0 174.8" />
        
    
        
        
        <text x="45.0" font-family="-apple-system, system-ui, BlinkMacSystemFont, Roboto" y="206.0" dominant-baseline="middle" text-anchor="end" font-size="12" fill="#24292f">0.0</text>
        
    
    
        
        <path stroke="#74838f"  stroke-width="2.0"  d="M 84.95035460992908 206.0 L 84.95035460992908 214.0" />
        <text x="84.95035460992908" font-family="-apple-system, system-ui, BlinkMacSystemFont, Roboto" y="216.0" dominant-baseline="hanging" text-anchor="middle" font-size="12" fill="#24292f">Mar 2022</text>
    
        
        <path stroke="#74838f"  stroke-width="2.0"  d="M 152.66666666666666 206.0 L 152.66666666666666 214.0" />
        <text x="152.66666666666666" font-family="-apple-system, system-ui, BlinkMacSystemFont, Roboto" y="216.0" dominant-baseline="hanging" text-anchor="middle" font-size="12" fill="#24292f">Apr 2022</text>
    
        
        <path stroke="#74838f"  stroke-width="2.0"  d="M 218.1985815602837 206.0 L 218.1985815602837 214.0" />
        <text x="218.1985815602837" font-family="-apple-system, system-ui, BlinkMacSystemFont, Roboto" y="216.0" dominant-baseline="hanging" text-anchor="middle" font-size="12" fill="#24292f">May 2022</text>
    
        
        <path stroke="#74838f"  stroke-width="2.0"  d="M 285.9148936170212 206.0 L 285.9148936170212 214.0" />
        <text x="285.9148936170212" font-family="-apple-system, system-ui, BlinkMacSystemFont, Roboto" y="216.0" dominant-baseline="hanging" text-anchor="middle" font-size="12" fill="#24292f">Jun 2022</text>
    
        
        <path stroke="#74838f"  stroke-width="2.0"  d="M 351.44680851063833 206.0 L 351.44680851063833 214.0" />
        <text x="351.44680851063833" font-family="-apple-system, system-ui, BlinkMacSystemFont, Roboto" y="216.0" dominant-baseline="hanging" text-anchor="middle" font-size="12" fill="#24292f">Jul 2022</text>
    
        
        <path stroke="#74838f"  stroke-width="2.0"  d="M 419.1631205673759 206.0 L 419.1631205673759 214.0" />
        <text x="419.1631205673759" font-family="-apple-system, system-ui, BlinkMacSystemFont, Roboto" y="216.0" dominant-baseline="hanging" text-anchor="middle" font-size="12" fill="#24292f">Aug 2022</text>
    
        
        <path stroke="#74838f"  stroke-width="2.0"  d="M 486.87943262411346 206.0 L 486.87943262411346 214.0" />
        <text x="486.87943262411346" font-family="-apple-system, system-ui, BlinkMacSystemFont, Roboto" y="216.0" dominant-baseline="hanging" text-anchor="middle" font-size="12" fill="#24292f">Sep 2022</text>
    
        
        <path stroke="#74838f"  stroke-width="2.0"  d="M 552.4113475177305 206.0 L 552.4113475177305 214.0" />
        <text x="552.4113475177305" font-family="-apple-system, system-ui, BlinkMacSystemFont, Roboto" y="216.0" dominant-baseline="hanging" text-anchor="middle" font-size="12" fill="#24292f">Oct 2022</text>
    
        
        <path stroke="#74838f"  stroke-width="2.0"  d="M 620.1276595744681 206.0 L 620.1276595744681 214.0" />
        <text x="620.1276595744681" font-family="-apple-system, system-ui, BlinkMacSystemFont, Roboto" y="216.0" dominant-baseline="hanging" text-anchor="middle" font-size="12" fill="#24292f">Nov 2022</text>
    
        
        <path stroke="#74838f"  stroke-width="2.0"  d="M 685.6595744680851 206.0 L 685.6595744680851 214.0" />
        <text x="685.6595744680851" font-family="-apple-system, system-ui, BlinkMacSystemFont, Roboto" y="216.0" dominant-baseline="hanging" text-anchor="middle" font-size="12" fill="#24292f">Dec 2022</text>
    
        
        <path stroke="#74838f"  stroke-width="2.0"  d="M 753.3758865248227 206.0 L 753.3758865248227 214.0" />
        <text x="753.3758865248227" font-family="-apple-system, system-ui, BlinkMacSystemFont, Roboto" y="216.0" dominant-baseline="hanging" text-anchor="middle" font-size="12" fill="#24292f">Jan 2023</text>
    
        
        <path stroke="#74838f"  stroke-width="2.0"  d="M 821.0921985815603 206.0 L 821.0921985815603 214.0" />
        <text x="821.0921985815603" font-family="-apple-system, system-ui, BlinkMacSystemFont, Roboto" y="216.0" dominant-baseline="hanging" text-anchor="middle" font-size="12" fill="#24292f">Feb 2023</text>
    
        
        <path stroke="#74838f"  stroke-width="2.0"  d="M 882.2553191489361 206.0 L 882.2553191489361 214.0" />
        <text x="882.2553191489361" font-family="-apple-system, system-ui, BlinkMacSystemFont, Roboto" y="216.0" dominant-baseline="hanging" text-anchor="middle" font-size="12" fill="#24292f">Mar 2023</text>
    
        
        <path stroke="#74838f"  stroke-width="2.0"  d="M 949.9716312056737 206.0 L 949.9716312056737 214.0" />
        <text x="949.9716312056737" font-family="-apple-system, system-ui, BlinkMacSystemFont, Roboto" y="216.0" dominant-baseline="hanging" text-anchor="middle" font-size="12" fill="#24292f">Apr 2023</text>
    
    <path stroke="#74838f"   stroke-linejoin="round" stroke-width="2.0" d="M 50.0 216.0 L 50.0 206.0 L 974.0 206.0 L 974.0 216.0"  fill="none" />
    <text x="512.0" y="25.0" font-family="-apple-system, system-ui, BlinkMacSystemFont, Roboto" dominant-baseline="middle" text-anchor="middle" font-size="18" fill="#24292f">Total daily suspensions</text>
</svg>
