<?xml version="1.0" standalone="no"?>
<svg width="1024.0" height="256.0"  viewBox="0 0 1024.0 256.0" preserveAspectRatio="xMidYMid meet" xmlns="http://www.w3.org/2000/svg">
    <path stroke="#e74c3c" stroke-linejoin="round" d="M 50.0 161.108 L 50 161.108L 52.610169491525426 193.664L 55.22033898305085 197.576L 57.83050847457627 197.924L 60.440677966101696 203.528L 63.05084745762712 199.94L 65.66101694915254 199.268L 68.27118644067797 191.108L 70.88135593220339 200.972L 73.49152542372882 198.62L 76.10169491525424 200L 78.71186440677965 202.57999999999998L 81.32203389830508 199.208L 83.9322033898305 195.608L 86.54237288135593 202.652L 89.15254237288136 198.716L 91.76271186440678 197.49200000000002L 94.37288135593221 191.42000000000002L 96.98305084745763 196.688L 99.59322033898306 199.46L 102.20338983050848 199.328L 104.81355932203391 198.308L 107.42372881355932 198.164L 110.03389830508475 199.832L 112.64406779661016 194.876L 115.2542372881356 199.904L 117.86440677966102 195.584L 120.47457627118645 200.732L 123.08474576271188 198.416L 125.69491525423729 190.652L 128.3050847457627 196.112L 130.91525423728814 190.82L 133.52542372881356 193.53199999999998L 136.135593220339 199.688L 138.74576271186442 192.392L 141.35593220338984 197L 143.96610169491527 199.59199999999998L 146.5762711864407 193.54399999999998L 149.18644067796612 195.26L 151.79661016949154 195.428L 154.40677966101697 195.548L 157.0169491525424 196.484L 159.62711864406782 199.424L 162.23728813559322 199.22L 164.84745762711864 195.656L 167.45762711864407 193.952L 170.0677966101695 195.536L 172.6779661016949 198.764L 175.28813559322032 195.428L 177.89830508474574 194L 180.5084745762712 193.688L 183.11864406779662 186.32L 185.72881355932205 197.372L 188.33898305084747 195.96800000000002L 190.9491525423729 198.284L 193.55932203389833 194.38400000000001L 196.16949152542375 196.424L 198.77966101694915 196.988L 201.38983050847457 198.368L 204 198.05599999999998L 206.61016949152543 199.61599999999999L 209.22033898305085 191.54L 211.83050847457628 202.124L 214.4406779661017 193.34L 217.05084745762713 204.2L 219.66101694915255 206L 222.27118644067798 206L 224.8813559322034 206L 227.49152542372883 206L 230.10169491525426 190.472L 232.71186440677968 159.01999999999998L 235.3220338983051 193.56799999999998L 237.93220338983053 200.228L 240.54237288135593 193.232L 243.15254237288136 196.82L 245.76271186440678 199.772L 248.3728813559322 186.548L 250.98305084745763 197.888L 253.59322033898306 195.596L 256.2033898305085 190.508L 258.81355932203394 194.876L 261.42372881355936 190.4L 264.0338983050848 188.756L 266.6440677966102 197.852L 269.25423728813564 199.772L 271.864406779661 191.936L 274.47457627118644 191.864L 277.08474576271186 199.316L 279.6949152542373 194.72L 282.3050847457627 192.608L 284.91525423728814 194.9L 287.52542372881356 199.7L 290.135593220339 189.224L 292.7457627118644 198.428L 295.3559322033898 196.136L 297.96610169491527 195.296L 300.57627118644064 196.268L 303.18644067796606 193.184L 305.7966101694915 197.204L 308.4067796610169 193.856L 311.0169491525424 197.096L 313.62711864406776 178.16L 316.23728813559325 194.372L 318.8474576271186 195.92000000000002L 321.4576271186441 195.11599999999999L 324.06779661016947 196.688L 326.67796610169495 197.49200000000002L 329.2881355932203 197.696L 331.8983050847458 186.848L 334.50847457627117 192.644L 337.11864406779665 199.61599999999999L 339.728813559322 193.052L 342.3389830508475 191.072L 344.9491525423729 195.44L 347.5593220338983 196.184L 350.1694915254237 196.46L 352.77966101694915 197.312L 355.3898305084746 193.076L 358 206L 360.6101694915254 186.44L 363.22033898305085 186.632L 365.8305084745763 191.276L 368.4406779661017 180.93200000000002L 371.0508474576271 201.704L 373.66101694915255 185.744L 376.271186440678 196.028L 378.8813559322034 189.464L 381.49152542372883 194.228L 384.10169491525426 195.632L 386.7118644067796 196.844L 389.3220338983051 186.332L 391.9322033898305 197.99599999999998L 394.54237288135596 188.924L 397.1525423728813 189.128L 399.7627118644068 196.748L 402.3728813559322 182.45600000000002L 404.98305084745766 184.16L 407.59322033898303 206L 410.2033898305085 206L 412.8135593220339 206L 415.42372881355936 160.16L 418.03389830508473 198.536L 420.6440677966102 196.60399999999998L 423.2542372881356 195.668L 425.86440677966107 192.8L 428.47457627118644 196.964L 431.08474576271186 197.828L 433.6949152542373 200.84L 436.3050847457627 170.312L 438.91525423728814 189.236L 441.52542372881356 177.428L 444.135593220339 191.564L 446.7457627118644 178.784L 449.35593220338984 176.372L 451.96610169491527 181.7L 454.5762711864407 187.472L 457.1864406779661 192.88400000000001L 459.79661016949154 189.38L 462.40677966101697 187.772L 465.0169491525424 189.404L 467.6271186440678 187.532L 470.2372881355932 193.59199999999998L 472.8474576271187 185.036L 475.45762711864404 171.332L 478.0677966101695 180.14L 480.6779661016949 172.316L 483.2881355932204 193.028L 485.89830508474574 191.996L 488.5084745762712 193.052L 491.1186440677966 194.84L 493.728813559322 193.53199999999998L 496.33898305084745 194.024L 498.9491525423729 189.272L 501.5593220338983 195.188L 504.1694915254237 196.256L 506.77966101694915 192.62L 509.3898305084746 190.844L 512 200.984L 514.6101694915254 184.796L 517.2203389830509 190.88L 519.8305084745763 194.42000000000002L 522.4406779661017 189.86L 525.0508474576271 195.86L 527.6610169491526 191.984L 530.271186440678 193.1L 532.8813559322034 186.464L 535.4915254237288 190.46L 538.1016949152543 182.156L 540.7118644067796 187.136L 543.3220338983051 191.528L 545.9322033898305 184.1L 548.542372881356 189.14L 551.1525423728813 185.204L 553.7627118644068 185.468L 556.3728813559321 176.816L 558.9830508474577 189.04399999999998L 561.593220338983 191.048L 564.2033898305085 188.756L 566.8135593220338 187.592L 569.4237288135593 191.39600000000002L 572.0338983050848 187.796L 574.6440677966102 188.228L 577.2542372881355 190.268L 579.864406779661 194.372L 582.4745762711865 194.72L 585.0847457627119 201.308L 587.6949152542372 192.752L 590.3050847457627 181.148L 592.9152542372882 181.748L 595.5254237288136 181.208L 598.1355932203389 191.3L 600.7457627118644 186.88400000000001L 603.3559322033899 181.376L 605.9661016949152 186.5L 608.5762711864406 188.44400000000002L 611.1864406779661 179.66L 613.7966101694916 183.09199999999998L 616.4067796610169 173.564L 619.0169491525423 183.836L 621.6271186440678 171.668L 624.2372881355933 148.148L 626.8474576271186 178.004L 629.457627118644 141.86L 632.0677966101695 186.128L 634.677966101695 188.54000000000002L 637.2881355932203 187.748L 639.8983050847457 193.256L 642.5084745762712 186.596L 645.1186440677966 185.42000000000002L 647.728813559322 186.872L 650.3389830508474 185.372L 652.9491525423729 192.824L 655.5593220338983 188.552L 658.1694915254237 189.32L 660.7796610169491 186.632L 663.3898305084746 185.768L 666 188.744L 668.6101694915254 187.34L 671.2203389830509 192.488L 673.8305084745763 187.028L 676.4406779661017 185.468L 679.0508474576271 181.928L 681.6610169491526 183.8L 684.2711864406779 180.296L 686.8813559322034 185.516L 689.4915254237288 194L 692.1016949152543 190.328L 694.7118644067796 186.584L 697.3220338983051 168.32L 699.9322033898305 117.5L 702.542372881356 189.10399999999998L 705.1525423728813 187.844L 707.7627118644068 190.28L 710.3728813559322 192.32L 712.9830508474577 189.2L 715.593220338983 182.288L 718.2033898305085 188.49200000000002L 720.8135593220339 178.916L 723.4237288135593 53.432000000000016L 726.0338983050847 162.656L 728.6440677966102 184.52L 731.2542372881356 182.708L 733.864406779661 183.68L 736.4745762711864 184.196L 739.0847457627119 179.084L 741.6949152542373 190.16L 744.3050847457627 180.476L 746.9152542372881 160.916L 749.5254237288136 121.196L 752.135593220339 151.50799999999998L 754.7457627118644 164.132L 757.3559322033898 181.184L 759.9661016949153 170.49200000000002L 762.5762711864407 179.792L 765.1864406779661 173.204L 767.7966101694915 178.352L 770.406779661017 182.792L 773.0169491525423 177.152L 775.6271186440678 184.232L 778.2372881355932 187.796L 780.8474576271187 188.348L 783.457627118644 184.736L 786.0677966101695 181.892L 788.6779661016949 181.796L 791.2881355932204 179.36L 793.8983050847457 168.176L 796.5084745762712 181.808L 799.1186440677966 185.372L 801.7288135593221 167.708L 804.3389830508474 140.6L 806.9491525423729 160.784L 809.5593220338983 151.664L 812.1694915254237 145.952L 814.7796610169491 155.288L 817.3898305084746 153.68L 820 163.04L 822.6101694915254 172.064L 825.2203389830509 148.952L 827.8305084745763 171.812L 830.4406779661017 172.46L 833.0508474576271 172.508L 835.6610169491526 183.644L 838.271186440678 166.304L 840.8813559322034 159.26L 843.4915254237288 172.652L 846.1016949152543 165.5L 848.7118644067797 154.892L 851.322033898305 173.888L 853.9322033898305 176.3L 856.542372881356 186.5L 859.1525423728814 183.932L 861.7627118644067 183.10399999999998L 864.3728813559322 150.128L 866.9830508474577 183.11599999999999L 869.5932203389831 186.152L 872.2033898305084 185.096L 874.8135593220339 182.276L 877.4237288135594 182.18L 880.0338983050848 182.144L 882.6440677966101 174.956L 885.2542372881356 181.988L 887.8644067796611 179.504L 890.4745762711864 184.784L 893.0847457627118 179L 895.6949152542373 175.868L 898.3050847457628 177.14L 900.9152542372881 178.832L 903.5254237288135 182.216L 906.135593220339 176.444L 908.7457627118645 182.576L 911.3559322033898 177.02L 913.9661016949152 178.58L 916.5762711864407 182.144L 919.1864406779662 179.48L 921.7966101694915 176.972L 924.4067796610169 186.164L 927.0169491525425 176.096L 929.6271186440679 178.04L 932.2372881355932 152.996L 934.8474576271186 130.724L 937.457627118644 149.888L 940.0677966101695 149.48L 942.6779661016949 184.1L 945.2881355932203 184.484L 947.8983050847457 177.56L 950.5084745762712 139.952L 953.1186440677966 148.028L 955.728813559322 162.428L 958.3389830508474 136.244L 960.9491525423729 132.128L 963.5593220338983 142.508L 966.1694915254237 143.252L 968.7796610169491 125.732L 971.3898305084746 117.06800000000001L 974 196.46" stroke-width="2.0" fill="none" />
    
        
        
        <text x="45.0" font-family="-apple-system, system-ui, BlinkMacSystemFont, Roboto" y="50.0" dominant-baseline="middle" text-anchor="end" font-size="12" fill="#24292f">13000.0</text>
        
            
            <path stroke="#74838f" stroke-dasharray="10 6" stroke-width="0.5"  d="M 50.0 50.0 L 974.0 50.0" />
        
    
        
        
        <text x="45.0" font-family="-apple-system, system-ui, BlinkMacSystemFont, Roboto" y="81.2" dominant-baseline="middle" text-anchor="end" font-size="12" fill="#24292f">10400.0</text>
        
            
            
            <path stroke="#74838f" stroke-dasharray="10 6" stroke-width="0.5"  d="M 50.0 81.2 L 974.0 81.2" />
        
    
        
        
        <text x="45.0" font-family="-apple-system, system-ui, BlinkMacSystemFont, Roboto" y="112.4" dominant-baseline="middle" text-anchor="end" font-size="12" fill="#24292f">7800.0</text>
        
            
            
            <path stroke="#74838f" stroke-dasharray="10 6" stroke-width="0.5"  d="M 50.0 112.4 L 974.0 112.4" />
        
    
        
        
        <text x="45.0" font-family="-apple-system, system-ui, BlinkMacSystemFont, Roboto" y="143.6" dominant-baseline="middle" text-anchor="end" font-size="12" fill="#24292f">5200.0</text>
        
            
            
            <path stroke="#74838f" stroke-dasharray="10 6" stroke-width="0.5"  d="M 50.0 143.6 L 974.0 143.6" />
        
    
        
        
        <text x="45.0" font-family="-apple-system, system-ui, BlinkMacSystemFont, Roboto" y="174.8" dominant-baseline="middle" text-anchor="end" font-size="12" fill="#24292f">2600.0</text>
        
            
            
            <path stroke="#74838f" stroke-dasharray="10 6" stroke-width="0.5"  d="M 50.0 174.8 L 974.0 174.8" />
        
    
        
        
        <text x="45.0" font-family="-apple-system, system-ui, BlinkMacSystemFont, Roboto" y="206.0" dominant-baseline="middle" text-anchor="end" font-size="12" fill="#24292f">0.0</text>
        
    
    
        
        <path stroke="#74838f"  stroke-width="2.0"  d="M 91.76271186440678 206.0 L 91.76271186440678 214.0" />
        <text x="91.76271186440678" font-family="-apple-system, system-ui, BlinkMacSystemFont, Roboto" y="216.0" dominant-baseline="hanging" text-anchor="middle" font-size="12" fill="#24292f">Mar 2022</text>
    
        
        <path stroke="#74838f"  stroke-width="2.0"  d="M 172.6779661016949 206.0 L 172.6779661016949 214.0" />
        <text x="172.6779661016949" font-family="-apple-system, system-ui, BlinkMacSystemFont, Roboto" y="216.0" dominant-baseline="hanging" text-anchor="middle" font-size="12" fill="#24292f">Apr 2022</text>
    
        
        <path stroke="#74838f"  stroke-width="2.0"  d="M 250.98305084745763 206.0 L 250.98305084745763 214.0" />
        <text x="250.98305084745763" font-family="-apple-system, system-ui, BlinkMacSystemFont, Roboto" y="216.0" dominant-baseline="hanging" text-anchor="middle" font-size="12" fill="#24292f">May 2022</text>
    
        
        <path stroke="#74838f"  stroke-width="2.0"  d="M 331.8983050847458 206.0 L 331.8983050847458 214.0" />
        <text x="331.8983050847458" font-family="-apple-system, system-ui, BlinkMacSystemFont, Roboto" y="216.0" dominant-baseline="hanging" text-anchor="middle" font-size="12" fill="#24292f">Jun 2022</text>
    
        
        <path stroke="#74838f"  stroke-width="2.0"  d="M 410.2033898305085 206.0 L 410.2033898305085 214.0" />
        <text x="410.2033898305085" font-family="-apple-system, system-ui, BlinkMacSystemFont, Roboto" y="216.0" dominant-baseline="hanging" text-anchor="middle" font-size="12" fill="#24292f">Jul 2022</text>
    
        
        <path stroke="#74838f"  stroke-width="2.0"  d="M 491.1186440677966 206.0 L 491.1186440677966 214.0" />
        <text x="491.1186440677966" font-family="-apple-system, system-ui, BlinkMacSystemFont, Roboto" y="216.0" dominant-baseline="hanging" text-anchor="middle" font-size="12" fill="#24292f">Aug 2022</text>
    
        
        <path stroke="#74838f"  stroke-width="2.0"  d="M 572.0338983050848 206.0 L 572.0338983050848 214.0" />
        <text x="572.0338983050848" font-family="-apple-system, system-ui, BlinkMacSystemFont, Roboto" y="216.0" dominant-baseline="hanging" text-anchor="middle" font-size="12" fill="#24292f">Sep 2022</text>
    
        
        <path stroke="#74838f"  stroke-width="2.0"  d="M 650.3389830508474 206.0 L 650.3389830508474 214.0" />
        <text x="650.3389830508474" font-family="-apple-system, system-ui, BlinkMacSystemFont, Roboto" y="216.0" dominant-baseline="hanging" text-anchor="middle" font-size="12" fill="#24292f">Oct 2022</text>
    
        
        <path stroke="#74838f"  stroke-width="2.0"  d="M 731.2542372881356 206.0 L 731.2542372881356 214.0" />
        <text x="731.2542372881356" font-family="-apple-system, system-ui, BlinkMacSystemFont, Roboto" y="216.0" dominant-baseline="hanging" text-anchor="middle" font-size="12" fill="#24292f">Nov 2022</text>
    
        
        <path stroke="#74838f"  stroke-width="2.0"  d="M 809.5593220338983 206.0 L 809.5593220338983 214.0" />
        <text x="809.5593220338983" font-family="-apple-system, system-ui, BlinkMacSystemFont, Roboto" y="216.0" dominant-baseline="hanging" text-anchor="middle" font-size="12" fill="#24292f">Dec 2022</text>
    
        
        <path stroke="#74838f"  stroke-width="2.0"  d="M 890.4745762711864 206.0 L 890.4745762711864 214.0" />
        <text x="890.4745762711864" font-family="-apple-system, system-ui, BlinkMacSystemFont, Roboto" y="216.0" dominant-baseline="hanging" text-anchor="middle" font-size="12" fill="#24292f">Jan 2023</text>
    
        
        <path stroke="#74838f"  stroke-width="2.0"  d="M 971.3898305084746 206.0 L 971.3898305084746 214.0" />
        <text x="971.3898305084746" font-family="-apple-system, system-ui, BlinkMacSystemFont, Roboto" y="216.0" dominant-baseline="hanging" text-anchor="middle" font-size="12" fill="#24292f">Feb 2023</text>
    
    <path stroke="#74838f"   stroke-linejoin="round" stroke-width="2.0" d="M 50.0 216.0 L 50.0 206.0 L 974.0 206.0 L 974.0 216.0"  fill="none" />
    <text x="512.0" y="25.0" font-family="-apple-system, system-ui, BlinkMacSystemFont, Roboto" dominant-baseline="middle" text-anchor="middle" font-size="18" fill="#24292f">Total daily suspensions</text>
</svg>
