<?xml version="1.0" standalone="no"?>
<svg width="1024.0" height="256.0"  viewBox="0 0 1024.0 256.0" preserveAspectRatio="xMidYMid meet" xmlns="http://www.w3.org/2000/svg">
    <path stroke="#e74c3c" stroke-linejoin="round" d="M 50.0 161.108 L 50 161.108L 53.38461538461539 193.664L 56.76923076923077 197.576L 60.15384615384615 197.924L 63.53846153846154 203.528L 66.92307692307692 199.94L 70.3076923076923 199.268L 73.6923076923077 191.108L 77.07692307692308 200.972L 80.46153846153847 198.62L 83.84615384615384 200L 87.23076923076923 202.57999999999998L 90.61538461538461 199.208L 94 195.608L 97.38461538461539 202.652L 100.76923076923077 198.716L 104.15384615384616 197.49200000000002L 107.53846153846155 191.42000000000002L 110.92307692307693 196.688L 114.3076923076923 199.46L 117.6923076923077 199.328L 121.07692307692308 198.308L 124.46153846153847 198.164L 127.84615384615385 199.832L 131.23076923076923 194.876L 134.6153846153846 199.904L 138 195.584L 141.3846153846154 200.732L 144.76923076923077 198.416L 148.15384615384613 190.652L 151.53846153846155 196.112L 154.9230769230769 190.82L 158.30769230769232 193.53199999999998L 161.69230769230768 199.688L 165.0769230769231 192.392L 168.46153846153845 197L 171.84615384615387 199.59199999999998L 175.23076923076923 193.54399999999998L 178.6153846153846 195.26L 182 195.428L 185.3846153846154 195.548L 188.76923076923077 196.484L 192.15384615384616 199.424L 195.53846153846155 199.22L 198.92307692307693 195.656L 202.3076923076923 193.952L 205.6923076923077 195.536L 209.07692307692307 198.764L 212.46153846153848 195.428L 215.84615384615384 194L 219.23076923076923 193.688L 222.6153846153846 186.32L 226 197.372L 229.3846153846154 195.96800000000002L 232.76923076923077 198.284L 236.15384615384616 194.38400000000001L 239.53846153846152 196.424L 242.92307692307693 196.988L 246.3076923076923 198.368L 249.6923076923077 198.05599999999998L 253.07692307692307 199.61599999999999L 256.46153846153845 191.54L 259.8461538461538 202.124L 263.2307692307693 193.34L 266.61538461538464 204.2L 270 206L 273.38461538461536 206L 276.7692307692307 206L 280.1538461538462 206L 283.53846153846155 190.472L 286.9230769230769 159.01999999999998L 290.3076923076923 193.56799999999998L 293.69230769230774 200.228L 297.0769230769231 193.232L 300.46153846153845 196.82L 303.84615384615387 199.772L 307.2307692307692 186.548L 310.6153846153846 197.888L 314 195.596L 317.3846153846154 190.508L 320.7692307692308 194.876L 324.15384615384613 190.4L 327.53846153846155 188.756L 330.9230769230769 197.852L 334.3076923076923 199.772L 337.6923076923077 191.936L 341.0769230769231 191.864L 344.46153846153845 199.316L 347.84615384615387 194.708L 351.2307692307692 192.608L 354.6153846153846 194.9L 358 199.7L 361.3846153846154 189.224L 364.7692307692308 198.428L 368.15384615384613 196.136L 371.53846153846155 195.296L 374.92307692307696 196.268L 378.3076923076923 193.184L 381.6923076923077 197.204L 385.0769230769231 193.856L 388.46153846153845 197.096L 391.84615384615387 178.16L 395.2307692307692 194.372L 398.6153846153846 195.92000000000002L 402 195.11599999999999L 405.3846153846154 196.688L 408.7692307692308 197.49200000000002L 412.15384615384613 197.696L 415.53846153846155 186.848L 418.92307692307696 192.644L 422.3076923076923 199.61599999999999L 425.6923076923077 193.052L 429.07692307692304 191.072L 432.46153846153845 195.44L 435.84615384615387 196.184L 439.2307692307692 196.46L 442.6153846153846 197.312L 446 193.076L 449.3846153846154 206L 452.7692307692308 186.44L 456.15384615384613 186.632L 459.53846153846155 191.276L 462.92307692307696 180.93200000000002L 466.3076923076923 201.704L 469.6923076923077 185.744L 473.07692307692304 196.028L 476.4615384615385 189.464L 479.84615384615387 194.228L 483.2307692307692 195.632L 486.6153846153846 196.844L 490 186.332L 493.3846153846154 197.99599999999998L 496.7692307692308 188.924L 500.15384615384613 189.128L 503.5384615384615 196.748L 506.92307692307696 182.45600000000002L 510.3076923076923 184.16L 513.6923076923076 206L 517.0769230769231 206L 520.4615384615385 206L 523.8461538461538 160.16L 527.2307692307693 198.536L 530.6153846153846 196.60399999999998L 534 195.668L 537.3846153846155 192.8L 540.7692307692307 196.964L 544.1538461538462 197.828L 547.5384615384614 200.84L 550.9230769230769 170.312L 554.3076923076923 189.236L 557.6923076923077 177.428L 561.0769230769231 191.564L 564.4615384615385 178.784L 567.8461538461538 176.372L 571.2307692307692 181.7L 574.6153846153846 187.472L 578 192.88400000000001L 581.3846153846154 189.38L 584.7692307692308 187.772L 588.1538461538462 189.404L 591.5384615384615 187.532L 594.9230769230769 193.59199999999998L 598.3076923076923 185.036L 601.6923076923077 171.332L 605.0769230769231 180.14L 608.4615384615385 172.316L 611.8461538461538 193.028L 615.2307692307693 191.996L 618.6153846153846 193.052L 622 194.84L 625.3846153846154 193.53199999999998L 628.7692307692307 194.024L 632.1538461538462 189.272L 635.5384615384615 195.188L 638.9230769230769 196.256L 642.3076923076924 192.62L 645.6923076923077 190.844L 649.0769230769231 200.984L 652.4615384615385 184.796L 655.8461538461538 190.88L 659.2307692307692 194.42000000000002L 662.6153846153846 189.86L 666 195.86L 669.3846153846154 191.984L 672.7692307692308 193.1L 676.1538461538462 186.464L 679.5384615384615 190.46L 682.9230769230769 182.156L 686.3076923076923 187.136L 689.6923076923076 191.528L 693.0769230769231 184.1L 696.4615384615385 189.14L 699.8461538461539 185.204L 703.2307692307693 185.468L 706.6153846153846 176.828L 710 189.04399999999998L 713.3846153846154 191.048L 716.7692307692307 188.756L 720.1538461538462 187.592L 723.5384615384615 191.39600000000002L 726.9230769230769 187.796L 730.3076923076924 188.228L 733.6923076923077 190.268L 737.0769230769231 194.372L 740.4615384615385 194.72L 743.8461538461538 201.308L 747.2307692307692 192.752L 750.6153846153846 181.148L 754 181.748L 757.3846153846154 181.208L 760.7692307692308 191.3L 764.1538461538462 186.88400000000001L 767.5384615384615 181.376L 770.9230769230769 186.5L 774.3076923076923 188.44400000000002L 777.6923076923076 179.66L 781.0769230769231 183.09199999999998L 784.4615384615385 173.564L 787.8461538461539 183.836L 791.2307692307693 171.668L 794.6153846153846 148.148L 798 178.004L 801.3846153846154 141.86L 804.7692307692307 186.128L 808.1538461538461 188.54000000000002L 811.5384615384615 187.748L 814.9230769230769 193.256L 818.3076923076924 186.596L 821.6923076923077 185.42000000000002L 825.0769230769231 186.872L 828.4615384615385 185.372L 831.8461538461538 192.824L 835.2307692307692 188.552L 838.6153846153845 189.32L 842 186.632L 845.3846153846155 185.768L 848.7692307692308 188.744L 852.1538461538462 187.34L 855.5384615384615 192.488L 858.9230769230769 187.028L 862.3076923076923 185.468L 865.6923076923076 181.928L 869.0769230769231 183.8L 872.4615384615385 180.296L 875.8461538461539 185.516L 879.2307692307693 194L 882.6153846153846 190.328L 886 186.584L 889.3846153846154 168.32L 892.7692307692307 117.5L 896.1538461538461 189.10399999999998L 899.5384615384615 187.844L 902.923076923077 190.28L 906.3076923076924 192.32L 909.6923076923077 189.2L 913.0769230769231 182.288L 916.4615384615385 188.49200000000002L 919.8461538461538 178.916L 923.2307692307692 53.432000000000016L 926.6153846153845 162.656L 930 184.52L 933.3846153846155 182.708L 936.7692307692308 183.68L 940.1538461538462 184.196L 943.5384615384615 179.084L 946.9230769230769 190.16L 950.3076923076923 180.476L 953.6923076923076 160.916L 957.076923076923 121.196L 960.4615384615386 151.50799999999998L 963.8461538461539 164.132L 967.2307692307693 181.184L 970.6153846153846 170.49200000000002L 974 200.46800000000002" stroke-width="2.0" fill="none" />
    
        
        
        <text x="45.0" font-family="-apple-system, system-ui, BlinkMacSystemFont, Roboto" y="50.0" dominant-baseline="middle" text-anchor="end" font-size="12" fill="#24292f">13000.0</text>
        
            
            <path stroke="#74838f" stroke-dasharray="10 6" stroke-width="0.5"  d="M 50.0 50.0 L 974.0 50.0" />
        
    
        
        
        <text x="45.0" font-family="-apple-system, system-ui, BlinkMacSystemFont, Roboto" y="81.2" dominant-baseline="middle" text-anchor="end" font-size="12" fill="#24292f">10400.0</text>
        
            
            
            <path stroke="#74838f" stroke-dasharray="10 6" stroke-width="0.5"  d="M 50.0 81.2 L 974.0 81.2" />
        
    
        
        
        <text x="45.0" font-family="-apple-system, system-ui, BlinkMacSystemFont, Roboto" y="112.4" dominant-baseline="middle" text-anchor="end" font-size="12" fill="#24292f">7800.0</text>
        
            
            
            <path stroke="#74838f" stroke-dasharray="10 6" stroke-width="0.5"  d="M 50.0 112.4 L 974.0 112.4" />
        
    
        
        
        <text x="45.0" font-family="-apple-system, system-ui, BlinkMacSystemFont, Roboto" y="143.6" dominant-baseline="middle" text-anchor="end" font-size="12" fill="#24292f">5200.0</text>
        
            
            
            <path stroke="#74838f" stroke-dasharray="10 6" stroke-width="0.5"  d="M 50.0 143.6 L 974.0 143.6" />
        
    
        
        
        <text x="45.0" font-family="-apple-system, system-ui, BlinkMacSystemFont, Roboto" y="174.8" dominant-baseline="middle" text-anchor="end" font-size="12" fill="#24292f">2600.0</text>
        
            
            
            <path stroke="#74838f" stroke-dasharray="10 6" stroke-width="0.5"  d="M 50.0 174.8 L 974.0 174.8" />
        
    
        
        
        <text x="45.0" font-family="-apple-system, system-ui, BlinkMacSystemFont, Roboto" y="206.0" dominant-baseline="middle" text-anchor="end" font-size="12" fill="#24292f">0.0</text>
        
    
    
        
        <path stroke="#74838f"  stroke-width="2.0"  d="M 104.15384615384616 206.0 L 104.15384615384616 214.0" />
        <text x="104.15384615384616" font-family="-apple-system, system-ui, BlinkMacSystemFont, Roboto" y="216.0" dominant-baseline="hanging" text-anchor="middle" font-size="12" fill="#24292f">Mar 2022</text>
    
        
        <path stroke="#74838f"  stroke-width="2.0"  d="M 209.07692307692307 206.0 L 209.07692307692307 214.0" />
        <text x="209.07692307692307" font-family="-apple-system, system-ui, BlinkMacSystemFont, Roboto" y="216.0" dominant-baseline="hanging" text-anchor="middle" font-size="12" fill="#24292f">Apr 2022</text>
    
        
        <path stroke="#74838f"  stroke-width="2.0"  d="M 310.6153846153846 206.0 L 310.6153846153846 214.0" />
        <text x="310.6153846153846" font-family="-apple-system, system-ui, BlinkMacSystemFont, Roboto" y="216.0" dominant-baseline="hanging" text-anchor="middle" font-size="12" fill="#24292f">May 2022</text>
    
        
        <path stroke="#74838f"  stroke-width="2.0"  d="M 415.53846153846155 206.0 L 415.53846153846155 214.0" />
        <text x="415.53846153846155" font-family="-apple-system, system-ui, BlinkMacSystemFont, Roboto" y="216.0" dominant-baseline="hanging" text-anchor="middle" font-size="12" fill="#24292f">Jun 2022</text>
    
        
        <path stroke="#74838f"  stroke-width="2.0"  d="M 517.0769230769231 206.0 L 517.0769230769231 214.0" />
        <text x="517.0769230769231" font-family="-apple-system, system-ui, BlinkMacSystemFont, Roboto" y="216.0" dominant-baseline="hanging" text-anchor="middle" font-size="12" fill="#24292f">Jul 2022</text>
    
        
        <path stroke="#74838f"  stroke-width="2.0"  d="M 622.0 206.0 L 622.0 214.0" />
        <text x="622.0" font-family="-apple-system, system-ui, BlinkMacSystemFont, Roboto" y="216.0" dominant-baseline="hanging" text-anchor="middle" font-size="12" fill="#24292f">Aug 2022</text>
    
        
        <path stroke="#74838f"  stroke-width="2.0"  d="M 726.9230769230769 206.0 L 726.9230769230769 214.0" />
        <text x="726.9230769230769" font-family="-apple-system, system-ui, BlinkMacSystemFont, Roboto" y="216.0" dominant-baseline="hanging" text-anchor="middle" font-size="12" fill="#24292f">Sep 2022</text>
    
        
        <path stroke="#74838f"  stroke-width="2.0"  d="M 828.4615384615385 206.0 L 828.4615384615385 214.0" />
        <text x="828.4615384615385" font-family="-apple-system, system-ui, BlinkMacSystemFont, Roboto" y="216.0" dominant-baseline="hanging" text-anchor="middle" font-size="12" fill="#24292f">Oct 2022</text>
    
        
        <path stroke="#74838f"  stroke-width="2.0"  d="M 933.3846153846155 206.0 L 933.3846153846155 214.0" />
        <text x="933.3846153846155" font-family="-apple-system, system-ui, BlinkMacSystemFont, Roboto" y="216.0" dominant-baseline="hanging" text-anchor="middle" font-size="12" fill="#24292f">Nov 2022</text>
    
    <path stroke="#74838f"   stroke-linejoin="round" stroke-width="2.0" d="M 50.0 216.0 L 50.0 206.0 L 974.0 206.0 L 974.0 216.0"  fill="none" />
    <text x="512.0" y="25.0" font-family="-apple-system, system-ui, BlinkMacSystemFont, Roboto" dominant-baseline="middle" text-anchor="middle" font-size="18" fill="#24292f">Total daily suspensions</text>
</svg>
