<?xml version="1.0" standalone="no"?>
<svg width="1024.0" height="256.0"  viewBox="0 0 1024.0 256.0" preserveAspectRatio="xMidYMid meet" xmlns="http://www.w3.org/2000/svg">
    <path stroke="#e74c3c" stroke-linejoin="round" d="M 50.0 161.108 L 50 161.108L 52.464 193.664L 54.928 197.576L 57.392 197.924L 59.856 203.528L 62.32 199.94L 64.784 199.268L 67.248 191.108L 69.712 200.972L 72.176 198.62L 74.64 200L 77.104 202.57999999999998L 79.568 199.208L 82.032 195.608L 84.49600000000001 202.652L 86.96000000000001 198.716L 89.424 197.49200000000002L 91.888 191.42000000000002L 94.352 196.688L 96.816 199.46L 99.28 199.328L 101.744 198.308L 104.208 198.164L 106.672 199.832L 109.136 194.876L 111.6 199.904L 114.064 195.584L 116.52799999999999 200.732L 118.992 198.416L 121.456 190.652L 123.92 196.112L 126.384 190.82L 128.848 193.53199999999998L 131.312 199.688L 133.776 192.392L 136.24 197L 138.704 199.59199999999998L 141.168 193.54399999999998L 143.632 195.26L 146.096 195.428L 148.56 195.548L 151.024 196.484L 153.488 199.424L 155.952 199.22L 158.416 195.656L 160.88 193.952L 163.344 195.536L 165.808 198.764L 168.272 195.428L 170.736 194L 173.2 193.688L 175.66400000000002 186.32L 178.128 197.372L 180.592 195.96800000000002L 183.05599999999998 198.284L 185.52 194.38400000000001L 187.984 196.424L 190.448 196.988L 192.912 198.368L 195.376 198.05599999999998L 197.84 199.61599999999999L 200.304 191.54L 202.768 202.124L 205.232 193.34L 207.696 204.2L 210.16 206L 212.624 206L 215.088 206L 217.55200000000002 206L 220.016 190.472L 222.48000000000002 159.01999999999998L 224.944 193.56799999999998L 227.40800000000002 200.228L 229.87199999999999 193.232L 232.336 196.82L 234.8 199.772L 237.26399999999998 186.548L 239.728 197.888L 242.19199999999998 195.596L 244.656 190.508L 247.12 194.876L 249.584 190.4L 252.048 188.756L 254.512 197.852L 256.976 199.772L 259.44 191.936L 261.904 191.864L 264.36800000000005 199.316L 266.832 194.72L 269.29600000000005 192.608L 271.76 194.9L 274.224 199.7L 276.688 189.224L 279.152 198.428L 281.616 196.136L 284.08000000000004 195.296L 286.544 196.268L 289.008 193.184L 291.472 197.204L 293.93600000000004 193.856L 296.4 197.096L 298.864 178.16L 301.32800000000003 194.372L 303.79200000000003 195.92000000000002L 306.256 195.11599999999999L 308.72 196.688L 311.184 197.49200000000002L 313.64799999999997 197.696L 316.11199999999997 186.848L 318.576 192.644L 321.04 199.61599999999999L 323.50399999999996 193.052L 325.968 191.072L 328.432 195.44L 330.896 196.184L 333.35999999999996 196.46L 335.824 197.312L 338.288 193.076L 340.752 206L 343.216 186.44L 345.68 186.632L 348.144 191.276L 350.608 180.93200000000002L 353.072 201.704L 355.536 185.744L 358 196.028L 360.464 189.464L 362.928 194.228L 365.392 195.632L 367.856 196.844L 370.32 186.332L 372.784 197.99599999999998L 375.248 188.924L 377.712 189.128L 380.176 196.748L 382.64 182.45600000000002L 385.10400000000004 184.16L 387.568 206L 390.032 206L 392.496 206L 394.96000000000004 160.16L 397.424 198.536L 399.888 196.60399999999998L 402.35200000000003 195.668L 404.81600000000003 192.8L 407.28 196.964L 409.74399999999997 197.828L 412.208 200.84L 414.672 170.312L 417.13599999999997 189.236L 419.6 177.428L 422.064 191.564L 424.52799999999996 178.784L 426.99199999999996 176.372L 429.456 181.7L 431.92 187.472L 434.38399999999996 192.88400000000001L 436.848 189.38L 439.312 187.772L 441.776 189.404L 444.24 187.532L 446.704 193.59199999999998L 449.168 185.036L 451.632 171.332L 454.096 180.14L 456.56 172.316L 459.024 193.028L 461.488 191.996L 463.952 193.052L 466.416 194.84L 468.88 193.53199999999998L 471.344 194.024L 473.808 189.272L 476.272 195.188L 478.73600000000005 196.256L 481.2 192.62L 483.664 190.844L 486.128 200.984L 488.59200000000004 184.796L 491.056 190.88L 493.52 194.42000000000002L 495.98400000000004 189.86L 498.448 195.86L 500.912 191.984L 503.376 193.1L 505.84000000000003 186.464L 508.304 190.46L 510.768 182.156L 513.232 187.136L 515.696 191.528L 518.1600000000001 184.1L 520.624 189.14L 523.088 185.204L 525.552 185.468L 528.016 176.816L 530.48 189.04399999999998L 532.944 191.048L 535.4079999999999 188.756L 537.8720000000001 187.592L 540.336 191.39600000000002L 542.8 187.796L 545.264 188.228L 547.728 190.268L 550.192 194.372L 552.6560000000001 194.72L 555.1199999999999 201.308L 557.5840000000001 192.752L 560.048 181.148L 562.512 181.748L 564.976 181.208L 567.44 191.3L 569.904 186.88400000000001L 572.368 181.376L 574.832 186.5L 577.2959999999999 188.44400000000002L 579.76 179.66L 582.2239999999999 183.09199999999998L 584.688 173.564L 587.152 183.836L 589.616 171.668L 592.08 148.148L 594.544 178.004L 597.0079999999999 141.86L 599.472 186.128L 601.936 188.54000000000002L 604.4 187.748L 606.864 193.256L 609.328 186.596L 611.792 185.42000000000002L 614.256 186.872L 616.7199999999999 185.372L 619.184 192.824L 621.648 188.552L 624.112 189.32L 626.576 186.632L 629.0400000000001 185.768L 631.504 188.744L 633.968 187.34L 636.432 192.488L 638.896 187.028L 641.36 185.468L 643.8240000000001 181.928L 646.288 183.8L 648.7520000000001 180.296L 651.216 185.516L 653.68 194L 656.144 190.328L 658.608 186.584L 661.072 168.32L 663.5360000000001 117.5L 666 189.10399999999998L 668.464 187.844L 670.928 190.28L 673.3919999999999 192.32L 675.856 189.2L 678.32 182.288L 680.784 188.49200000000002L 683.248 178.916L 685.712 53.432000000000016L 688.1759999999999 162.656L 690.64 184.52L 693.1039999999999 182.708L 695.568 183.68L 698.032 184.196L 700.496 179.084L 702.96 190.16L 705.424 180.476L 707.8879999999999 160.916L 710.352 121.196L 712.816 151.50799999999998L 715.28 164.132L 717.744 181.184L 720.2080000000001 170.49200000000002L 722.672 179.792L 725.136 173.204L 727.5999999999999 178.352L 730.064 182.792L 732.528 177.152L 734.992 184.232L 737.456 187.796L 739.9200000000001 188.348L 742.384 184.736L 744.848 181.892L 747.312 181.796L 749.776 179.36L 752.24 168.176L 754.7040000000001 181.808L 757.168 185.372L 759.6320000000001 167.708L 762.096 140.6L 764.56 160.784L 767.024 151.664L 769.4879999999999 145.952L 771.952 155.288L 774.416 153.68L 776.88 163.04L 779.344 172.064L 781.808 148.952L 784.2719999999999 171.812L 786.736 172.46L 789.2 172.508L 791.664 183.644L 794.128 166.304L 796.5920000000001 159.26L 799.0559999999999 172.652L 801.52 165.5L 803.9839999999999 154.892L 806.448 173.888L 808.912 176.3L 811.376 186.5L 813.84 183.932L 816.3040000000001 183.10399999999998L 818.7679999999999 150.128L 821.232 183.11599999999999L 823.696 186.152L 826.16 185.096L 828.624 182.276L 831.0880000000001 182.18L 833.552 182.144L 836.016 174.956L 838.48 181.988L 840.944 179.504L 843.408 184.784L 845.872 179L 848.336 175.868L 850.8000000000001 177.14L 853.264 178.832L 855.728 182.216L 858.192 176.444L 860.656 182.576L 863.12 177.02L 865.5840000000001 178.58L 868.048 182.144L 870.5120000000001 179.48L 872.976 176.972L 875.4399999999999 186.164L 877.904 176.096L 880.3679999999999 178.04L 882.832 152.996L 885.296 130.724L 887.76 149.888L 890.224 149.48L 892.688 184.1L 895.1519999999999 184.484L 897.616 177.56L 900.08 139.952L 902.544 148.028L 905.008 162.428L 907.4720000000001 136.244L 909.9359999999999 132.128L 912.4 142.508L 914.864 143.252L 917.328 125.732L 919.792 117.06800000000001L 922.256 164.264L 924.72 161.876L 927.1840000000001 158.636L 929.6479999999999 176.40800000000002L 932.112 186.632L 934.576 187.352L 937.04 186.152L 939.504 174.932L 941.9680000000001 178.388L 944.432 194.636L 946.896 184.748L 949.36 182.84L 951.824 173.78L 954.288 177.56L 956.752 179.996L 959.216 183.188L 961.6800000000001 153.68L 964.144 147.548L 966.608 185.504L 969.072 190.724L 971.536 174.752L 974 196.60399999999998" stroke-width="2.0" fill="none" />
    
        
        
        <text x="45.0" font-family="-apple-system, system-ui, BlinkMacSystemFont, Roboto" y="50.0" dominant-baseline="middle" text-anchor="end" font-size="12" fill="#24292f">13000.0</text>
        
            
            <path stroke="#74838f" stroke-dasharray="10 6" stroke-width="0.5"  d="M 50.0 50.0 L 974.0 50.0" />
        
    
        
        
        <text x="45.0" font-family="-apple-system, system-ui, BlinkMacSystemFont, Roboto" y="81.2" dominant-baseline="middle" text-anchor="end" font-size="12" fill="#24292f">10400.0</text>
        
            
            
            <path stroke="#74838f" stroke-dasharray="10 6" stroke-width="0.5"  d="M 50.0 81.2 L 974.0 81.2" />
        
    
        
        
        <text x="45.0" font-family="-apple-system, system-ui, BlinkMacSystemFont, Roboto" y="112.4" dominant-baseline="middle" text-anchor="end" font-size="12" fill="#24292f">7800.0</text>
        
            
            
            <path stroke="#74838f" stroke-dasharray="10 6" stroke-width="0.5"  d="M 50.0 112.4 L 974.0 112.4" />
        
    
        
        
        <text x="45.0" font-family="-apple-system, system-ui, BlinkMacSystemFont, Roboto" y="143.6" dominant-baseline="middle" text-anchor="end" font-size="12" fill="#24292f">5200.0</text>
        
            
            
            <path stroke="#74838f" stroke-dasharray="10 6" stroke-width="0.5"  d="M 50.0 143.6 L 974.0 143.6" />
        
    
        
        
        <text x="45.0" font-family="-apple-system, system-ui, BlinkMacSystemFont, Roboto" y="174.8" dominant-baseline="middle" text-anchor="end" font-size="12" fill="#24292f">2600.0</text>
        
            
            
            <path stroke="#74838f" stroke-dasharray="10 6" stroke-width="0.5"  d="M 50.0 174.8 L 974.0 174.8" />
        
    
        
        
        <text x="45.0" font-family="-apple-system, system-ui, BlinkMacSystemFont, Roboto" y="206.0" dominant-baseline="middle" text-anchor="end" font-size="12" fill="#24292f">0.0</text>
        
    
    
        
        <path stroke="#74838f"  stroke-width="2.0"  d="M 89.424 206.0 L 89.424 214.0" />
        <text x="89.424" font-family="-apple-system, system-ui, BlinkMacSystemFont, Roboto" y="216.0" dominant-baseline="hanging" text-anchor="middle" font-size="12" fill="#24292f">Mar 2022</text>
    
        
        <path stroke="#74838f"  stroke-width="2.0"  d="M 165.808 206.0 L 165.808 214.0" />
        <text x="165.808" font-family="-apple-system, system-ui, BlinkMacSystemFont, Roboto" y="216.0" dominant-baseline="hanging" text-anchor="middle" font-size="12" fill="#24292f">Apr 2022</text>
    
        
        <path stroke="#74838f"  stroke-width="2.0"  d="M 239.728 206.0 L 239.728 214.0" />
        <text x="239.728" font-family="-apple-system, system-ui, BlinkMacSystemFont, Roboto" y="216.0" dominant-baseline="hanging" text-anchor="middle" font-size="12" fill="#24292f">May 2022</text>
    
        
        <path stroke="#74838f"  stroke-width="2.0"  d="M 316.11199999999997 206.0 L 316.11199999999997 214.0" />
        <text x="316.11199999999997" font-family="-apple-system, system-ui, BlinkMacSystemFont, Roboto" y="216.0" dominant-baseline="hanging" text-anchor="middle" font-size="12" fill="#24292f">Jun 2022</text>
    
        
        <path stroke="#74838f"  stroke-width="2.0"  d="M 390.032 206.0 L 390.032 214.0" />
        <text x="390.032" font-family="-apple-system, system-ui, BlinkMacSystemFont, Roboto" y="216.0" dominant-baseline="hanging" text-anchor="middle" font-size="12" fill="#24292f">Jul 2022</text>
    
        
        <path stroke="#74838f"  stroke-width="2.0"  d="M 466.416 206.0 L 466.416 214.0" />
        <text x="466.416" font-family="-apple-system, system-ui, BlinkMacSystemFont, Roboto" y="216.0" dominant-baseline="hanging" text-anchor="middle" font-size="12" fill="#24292f">Aug 2022</text>
    
        
        <path stroke="#74838f"  stroke-width="2.0"  d="M 542.8 206.0 L 542.8 214.0" />
        <text x="542.8" font-family="-apple-system, system-ui, BlinkMacSystemFont, Roboto" y="216.0" dominant-baseline="hanging" text-anchor="middle" font-size="12" fill="#24292f">Sep 2022</text>
    
        
        <path stroke="#74838f"  stroke-width="2.0"  d="M 616.7199999999999 206.0 L 616.7199999999999 214.0" />
        <text x="616.7199999999999" font-family="-apple-system, system-ui, BlinkMacSystemFont, Roboto" y="216.0" dominant-baseline="hanging" text-anchor="middle" font-size="12" fill="#24292f">Oct 2022</text>
    
        
        <path stroke="#74838f"  stroke-width="2.0"  d="M 693.1039999999999 206.0 L 693.1039999999999 214.0" />
        <text x="693.1039999999999" font-family="-apple-system, system-ui, BlinkMacSystemFont, Roboto" y="216.0" dominant-baseline="hanging" text-anchor="middle" font-size="12" fill="#24292f">Nov 2022</text>
    
        
        <path stroke="#74838f"  stroke-width="2.0"  d="M 767.024 206.0 L 767.024 214.0" />
        <text x="767.024" font-family="-apple-system, system-ui, BlinkMacSystemFont, Roboto" y="216.0" dominant-baseline="hanging" text-anchor="middle" font-size="12" fill="#24292f">Dec 2022</text>
    
        
        <path stroke="#74838f"  stroke-width="2.0"  d="M 843.408 206.0 L 843.408 214.0" />
        <text x="843.408" font-family="-apple-system, system-ui, BlinkMacSystemFont, Roboto" y="216.0" dominant-baseline="hanging" text-anchor="middle" font-size="12" fill="#24292f">Jan 2023</text>
    
        
        <path stroke="#74838f"  stroke-width="2.0"  d="M 919.792 206.0 L 919.792 214.0" />
        <text x="919.792" font-family="-apple-system, system-ui, BlinkMacSystemFont, Roboto" y="216.0" dominant-baseline="hanging" text-anchor="middle" font-size="12" fill="#24292f">Feb 2023</text>
    
    <path stroke="#74838f"   stroke-linejoin="round" stroke-width="2.0" d="M 50.0 216.0 L 50.0 206.0 L 974.0 206.0 L 974.0 216.0"  fill="none" />
    <text x="512.0" y="25.0" font-family="-apple-system, system-ui, BlinkMacSystemFont, Roboto" dominant-baseline="middle" text-anchor="middle" font-size="18" fill="#24292f">Total daily suspensions</text>
</svg>
