<?xml version="1.0" standalone="no"?>
<svg width="1024.0" height="256.0"  viewBox="0 0 1024.0 256.0" preserveAspectRatio="xMidYMid meet" xmlns="http://www.w3.org/2000/svg">
    <path stroke="#e74c3c" stroke-linejoin="round" d="M 50.0 161.108 L 50 161.108L 52.56666666666667 193.664L 55.13333333333333 197.576L 57.7 197.924L 60.266666666666666 203.528L 62.83333333333333 199.94L 65.4 199.268L 67.96666666666667 191.108L 70.53333333333333 200.972L 73.1 198.62L 75.66666666666666 200L 78.23333333333333 202.57999999999998L 80.8 199.208L 83.36666666666666 195.608L 85.93333333333334 202.652L 88.5 198.716L 91.06666666666666 197.49200000000002L 93.63333333333333 191.42000000000002L 96.2 196.688L 98.76666666666667 199.46L 101.33333333333333 199.328L 103.9 198.308L 106.46666666666667 198.164L 109.03333333333333 199.832L 111.6 194.876L 114.16666666666667 199.904L 116.73333333333332 195.584L 119.3 200.732L 121.86666666666667 198.416L 124.43333333333334 190.652L 127 196.112L 129.56666666666666 190.82L 132.13333333333333 193.53199999999998L 134.7 199.688L 137.26666666666665 192.392L 139.83333333333331 197L 142.4 199.59199999999998L 144.96666666666667 193.54399999999998L 147.53333333333333 195.26L 150.10000000000002 195.428L 152.66666666666666 195.548L 155.23333333333335 196.484L 157.8 199.424L 160.36666666666667 199.22L 162.93333333333334 195.656L 165.5 193.952L 168.06666666666666 195.536L 170.63333333333333 198.764L 173.2 195.428L 175.76666666666665 194L 178.33333333333334 193.688L 180.9 186.32L 183.46666666666664 197.372L 186.03333333333333 195.96800000000002L 188.6 198.284L 191.16666666666669 194.38400000000001L 193.73333333333335 196.424L 196.29999999999998 196.988L 198.86666666666667 198.368L 201.43333333333334 198.05599999999998L 204 199.61599999999999L 206.56666666666666 191.54L 209.13333333333333 202.124L 211.7 193.34L 214.26666666666668 204.2L 216.83333333333334 206L 219.39999999999998 206L 221.96666666666667 206L 224.53333333333333 206L 227.10000000000002 190.472L 229.66666666666666 159.01999999999998L 232.23333333333332 193.56799999999998L 234.8 200.228L 237.36666666666667 193.232L 239.93333333333334 196.82L 242.5 199.772L 245.06666666666666 186.548L 247.63333333333333 197.888L 250.20000000000002 195.596L 252.76666666666665 190.508L 255.33333333333331 194.876L 257.9 190.4L 260.4666666666667 188.756L 263.03333333333336 197.852L 265.6 199.772L 268.16666666666663 191.936L 270.73333333333335 191.864L 273.3 199.316L 275.8666666666667 194.72L 278.43333333333334 192.608L 281 194.9L 283.56666666666666 199.7L 286.1333333333333 189.224L 288.70000000000005 198.428L 291.26666666666665 196.136L 293.83333333333337 195.296L 296.4 196.268L 298.96666666666664 193.184L 301.5333333333333 197.204L 304.1 193.856L 306.6666666666667 197.096L 309.23333333333335 178.16L 311.8 194.372L 314.3666666666667 195.92000000000002L 316.9333333333333 195.11599999999999L 319.5 196.688L 322.06666666666666 197.49200000000002L 324.6333333333333 197.696L 327.2 186.848L 329.76666666666665 192.644L 332.33333333333337 199.61599999999999L 334.90000000000003 193.052L 337.4666666666667 191.072L 340.0333333333333 195.44L 342.59999999999997 196.184L 345.16666666666663 196.46L 347.73333333333335 197.312L 350.3 193.076L 352.8666666666667 206L 355.43333333333334 186.44L 358 186.632L 360.5666666666667 191.276L 363.1333333333333 180.93200000000002L 365.7 201.704L 368.26666666666665 185.744L 370.8333333333333 196.028L 373.4 189.464L 375.9666666666667 194.228L 378.53333333333336 195.632L 381.1 196.844L 383.6666666666667 186.332L 386.2333333333333 197.99599999999998L 388.79999999999995 188.924L 391.3666666666667 189.128L 393.93333333333334 196.748L 396.5 182.45600000000002L 399.06666666666666 184.16L 401.6333333333333 206L 404.20000000000005 206L 406.7666666666667 206L 409.3333333333333 160.16L 411.9 198.536L 414.46666666666664 196.60399999999998L 417.0333333333333 195.668L 419.6 192.8L 422.1666666666667 196.964L 424.73333333333335 197.828L 427.3 200.84L 429.8666666666667 170.312L 432.4333333333333 189.236L 435 177.428L 437.56666666666666 191.564L 440.1333333333333 178.784L 442.7 176.372L 445.26666666666665 181.7L 447.83333333333337 187.472L 450.40000000000003 192.88400000000001L 452.9666666666667 189.38L 455.5333333333333 187.772L 458.09999999999997 189.404L 460.66666666666663 187.532L 463.23333333333335 193.59199999999998L 465.8 185.036L 468.3666666666667 171.332L 470.93333333333334 180.14L 473.5 172.316L 476.0666666666667 193.028L 478.6333333333333 191.996L 481.2 193.052L 483.76666666666665 194.84L 486.3333333333333 193.53199999999998L 488.9 194.024L 491.4666666666667 189.272L 494.03333333333336 195.188L 496.6 196.256L 499.1666666666667 192.62L 501.7333333333333 190.844L 504.29999999999995 200.984L 506.8666666666667 184.796L 509.43333333333334 190.88L 512 194.42000000000002L 514.5666666666666 189.86L 517.1333333333333 195.86L 519.7 191.984L 522.2666666666667 193.1L 524.8333333333333 186.464L 527.4000000000001 190.46L 529.9666666666667 182.156L 532.5333333333333 187.136L 535.1 191.528L 537.6666666666667 184.1L 540.2333333333333 189.14L 542.8 185.204L 545.3666666666667 185.468L 547.9333333333333 176.816L 550.5 189.04399999999998L 553.0666666666666 191.048L 555.6333333333334 188.756L 558.2 187.592L 560.7666666666667 191.39600000000002L 563.3333333333334 187.796L 565.9 188.228L 568.4666666666667 190.268L 571.0333333333333 194.372L 573.6 194.72L 576.1666666666666 201.308L 578.7333333333333 192.752L 581.3 181.148L 583.8666666666666 181.748L 586.4333333333334 181.208L 589 191.3L 591.5666666666667 186.88400000000001L 594.1333333333333 181.376L 596.7 186.5L 599.2666666666667 188.44400000000002L 601.8333333333334 179.66L 604.4 183.09199999999998L 606.9666666666666 173.564L 609.5333333333333 183.836L 612.0999999999999 171.668L 614.6666666666667 148.148L 617.2333333333333 178.004L 619.8000000000001 141.86L 622.3666666666667 186.128L 624.9333333333334 188.54000000000002L 627.5 187.748L 630.0666666666666 193.256L 632.6333333333333 186.596L 635.1999999999999 185.42000000000002L 637.7666666666667 186.872L 640.3333333333333 185.372L 642.9000000000001 192.824L 645.4666666666667 188.552L 648.0333333333334 189.32L 650.6 186.632L 653.1666666666666 185.768L 655.7333333333333 188.744L 658.3 187.34L 660.8666666666667 192.488L 663.4333333333333 187.028L 666 185.468L 668.5666666666666 181.928L 671.1333333333334 183.8L 673.7 180.296L 676.2666666666667 185.516L 678.8333333333334 194L 681.4 190.328L 683.9666666666667 186.584L 686.5333333333333 168.32L 689.1 117.5L 691.6666666666666 189.10399999999998L 694.2333333333333 187.844L 696.8 190.28L 699.3666666666666 192.32L 701.9333333333334 189.2L 704.5 182.288L 707.0666666666667 188.49200000000002L 709.6333333333333 178.916L 712.2 53.432000000000016L 714.7666666666667 162.656L 717.3333333333334 184.52L 719.9 182.708L 722.4666666666666 183.68L 725.0333333333333 184.196L 727.5999999999999 179.084L 730.1666666666667 190.16L 732.7333333333333 180.476L 735.3000000000001 160.916L 737.8666666666667 121.196L 740.4333333333334 151.50799999999998L 743 164.132L 745.5666666666666 181.184L 748.1333333333333 170.49200000000002L 750.6999999999999 179.792L 753.2666666666667 173.204L 755.8333333333333 178.352L 758.4000000000001 182.792L 760.9666666666667 177.152L 763.5333333333334 184.232L 766.1 187.796L 768.6666666666666 188.348L 771.2333333333333 184.736L 773.8 181.892L 776.3666666666667 181.796L 778.9333333333333 179.36L 781.5 168.176L 784.0666666666666 181.808L 786.6333333333334 185.372L 789.2 167.708L 791.7666666666667 140.6L 794.3333333333334 160.784L 796.9 151.664L 799.4666666666667 145.952L 802.0333333333333 155.288L 804.6 153.68L 807.1666666666666 163.04L 809.7333333333333 172.064L 812.3 148.952L 814.8666666666666 171.812L 817.4333333333334 172.46L 820 172.508L 822.5666666666667 183.644L 825.1333333333333 166.304L 827.7 159.26L 830.2666666666667 172.652L 832.8333333333334 165.5L 835.4 154.892L 837.9666666666666 173.888L 840.5333333333333 176.3L 843.0999999999999 186.5L 845.6666666666667 183.932L 848.2333333333333 183.10399999999998L 850.8000000000001 150.128L 853.3666666666667 183.11599999999999L 855.9333333333334 186.152L 858.5 185.096L 861.0666666666666 182.276L 863.6333333333333 182.18L 866.1999999999999 182.144L 868.7666666666667 174.956L 871.3333333333333 181.988L 873.9000000000001 179.504L 876.4666666666667 184.784L 879.0333333333334 179L 881.6 175.868L 884.1666666666666 177.14L 886.7333333333333 178.832L 889.3 182.216L 891.8666666666667 176.444L 894.4333333333333 182.576L 897 177.02L 899.5666666666666 178.58L 902.1333333333334 182.144L 904.7 179.48L 907.2666666666667 176.972L 909.8333333333334 186.164L 912.4 176.096L 914.9666666666667 178.04L 917.5333333333333 152.996L 920.1 130.724L 922.6666666666666 149.888L 925.2333333333333 149.48L 927.8 184.1L 930.3666666666666 184.484L 932.9333333333334 177.56L 935.5 139.952L 938.0666666666667 148.028L 940.6333333333333 162.428L 943.2 136.244L 945.7666666666667 132.128L 948.3333333333334 142.508L 950.9 143.252L 953.4666666666666 125.732L 956.0333333333333 117.06800000000001L 958.5999999999999 164.264L 961.1666666666667 161.876L 963.7333333333333 158.636L 966.3000000000001 176.40800000000002L 968.8666666666667 186.632L 971.4333333333334 187.352L 974 191.552" stroke-width="2.0" fill="none" />
    
        
        
        <text x="45.0" font-family="-apple-system, system-ui, BlinkMacSystemFont, Roboto" y="50.0" dominant-baseline="middle" text-anchor="end" font-size="12" fill="#24292f">13000.0</text>
        
            
            <path stroke="#74838f" stroke-dasharray="10 6" stroke-width="0.5"  d="M 50.0 50.0 L 974.0 50.0" />
        
    
        
        
        <text x="45.0" font-family="-apple-system, system-ui, BlinkMacSystemFont, Roboto" y="81.2" dominant-baseline="middle" text-anchor="end" font-size="12" fill="#24292f">10400.0</text>
        
            
            
            <path stroke="#74838f" stroke-dasharray="10 6" stroke-width="0.5"  d="M 50.0 81.2 L 974.0 81.2" />
        
    
        
        
        <text x="45.0" font-family="-apple-system, system-ui, BlinkMacSystemFont, Roboto" y="112.4" dominant-baseline="middle" text-anchor="end" font-size="12" fill="#24292f">7800.0</text>
        
            
            
            <path stroke="#74838f" stroke-dasharray="10 6" stroke-width="0.5"  d="M 50.0 112.4 L 974.0 112.4" />
        
    
        
        
        <text x="45.0" font-family="-apple-system, system-ui, BlinkMacSystemFont, Roboto" y="143.6" dominant-baseline="middle" text-anchor="end" font-size="12" fill="#24292f">5200.0</text>
        
            
            
            <path stroke="#74838f" stroke-dasharray="10 6" stroke-width="0.5"  d="M 50.0 143.6 L 974.0 143.6" />
        
    
        
        
        <text x="45.0" font-family="-apple-system, system-ui, BlinkMacSystemFont, Roboto" y="174.8" dominant-baseline="middle" text-anchor="end" font-size="12" fill="#24292f">2600.0</text>
        
            
            
            <path stroke="#74838f" stroke-dasharray="10 6" stroke-width="0.5"  d="M 50.0 174.8 L 974.0 174.8" />
        
    
        
        
        <text x="45.0" font-family="-apple-system, system-ui, BlinkMacSystemFont, Roboto" y="206.0" dominant-baseline="middle" text-anchor="end" font-size="12" fill="#24292f">0.0</text>
        
    
    
        
        <path stroke="#74838f"  stroke-width="2.0"  d="M 91.06666666666666 206.0 L 91.06666666666666 214.0" />
        <text x="91.06666666666666" font-family="-apple-system, system-ui, BlinkMacSystemFont, Roboto" y="216.0" dominant-baseline="hanging" text-anchor="middle" font-size="12" fill="#24292f">Mar 2022</text>
    
        
        <path stroke="#74838f"  stroke-width="2.0"  d="M 170.63333333333333 206.0 L 170.63333333333333 214.0" />
        <text x="170.63333333333333" font-family="-apple-system, system-ui, BlinkMacSystemFont, Roboto" y="216.0" dominant-baseline="hanging" text-anchor="middle" font-size="12" fill="#24292f">Apr 2022</text>
    
        
        <path stroke="#74838f"  stroke-width="2.0"  d="M 247.63333333333333 206.0 L 247.63333333333333 214.0" />
        <text x="247.63333333333333" font-family="-apple-system, system-ui, BlinkMacSystemFont, Roboto" y="216.0" dominant-baseline="hanging" text-anchor="middle" font-size="12" fill="#24292f">May 2022</text>
    
        
        <path stroke="#74838f"  stroke-width="2.0"  d="M 327.2 206.0 L 327.2 214.0" />
        <text x="327.2" font-family="-apple-system, system-ui, BlinkMacSystemFont, Roboto" y="216.0" dominant-baseline="hanging" text-anchor="middle" font-size="12" fill="#24292f">Jun 2022</text>
    
        
        <path stroke="#74838f"  stroke-width="2.0"  d="M 404.20000000000005 206.0 L 404.20000000000005 214.0" />
        <text x="404.20000000000005" font-family="-apple-system, system-ui, BlinkMacSystemFont, Roboto" y="216.0" dominant-baseline="hanging" text-anchor="middle" font-size="12" fill="#24292f">Jul 2022</text>
    
        
        <path stroke="#74838f"  stroke-width="2.0"  d="M 483.76666666666665 206.0 L 483.76666666666665 214.0" />
        <text x="483.76666666666665" font-family="-apple-system, system-ui, BlinkMacSystemFont, Roboto" y="216.0" dominant-baseline="hanging" text-anchor="middle" font-size="12" fill="#24292f">Aug 2022</text>
    
        
        <path stroke="#74838f"  stroke-width="2.0"  d="M 563.3333333333334 206.0 L 563.3333333333334 214.0" />
        <text x="563.3333333333334" font-family="-apple-system, system-ui, BlinkMacSystemFont, Roboto" y="216.0" dominant-baseline="hanging" text-anchor="middle" font-size="12" fill="#24292f">Sep 2022</text>
    
        
        <path stroke="#74838f"  stroke-width="2.0"  d="M 640.3333333333333 206.0 L 640.3333333333333 214.0" />
        <text x="640.3333333333333" font-family="-apple-system, system-ui, BlinkMacSystemFont, Roboto" y="216.0" dominant-baseline="hanging" text-anchor="middle" font-size="12" fill="#24292f">Oct 2022</text>
    
        
        <path stroke="#74838f"  stroke-width="2.0"  d="M 719.9 206.0 L 719.9 214.0" />
        <text x="719.9" font-family="-apple-system, system-ui, BlinkMacSystemFont, Roboto" y="216.0" dominant-baseline="hanging" text-anchor="middle" font-size="12" fill="#24292f">Nov 2022</text>
    
        
        <path stroke="#74838f"  stroke-width="2.0"  d="M 796.9 206.0 L 796.9 214.0" />
        <text x="796.9" font-family="-apple-system, system-ui, BlinkMacSystemFont, Roboto" y="216.0" dominant-baseline="hanging" text-anchor="middle" font-size="12" fill="#24292f">Dec 2022</text>
    
        
        <path stroke="#74838f"  stroke-width="2.0"  d="M 876.4666666666667 206.0 L 876.4666666666667 214.0" />
        <text x="876.4666666666667" font-family="-apple-system, system-ui, BlinkMacSystemFont, Roboto" y="216.0" dominant-baseline="hanging" text-anchor="middle" font-size="12" fill="#24292f">Jan 2023</text>
    
        
        <path stroke="#74838f"  stroke-width="2.0"  d="M 956.0333333333333 206.0 L 956.0333333333333 214.0" />
        <text x="956.0333333333333" font-family="-apple-system, system-ui, BlinkMacSystemFont, Roboto" y="216.0" dominant-baseline="hanging" text-anchor="middle" font-size="12" fill="#24292f">Feb 2023</text>
    
    <path stroke="#74838f"   stroke-linejoin="round" stroke-width="2.0" d="M 50.0 216.0 L 50.0 206.0 L 974.0 206.0 L 974.0 216.0"  fill="none" />
    <text x="512.0" y="25.0" font-family="-apple-system, system-ui, BlinkMacSystemFont, Roboto" dominant-baseline="middle" text-anchor="middle" font-size="18" fill="#24292f">Total daily suspensions</text>
</svg>
