<?xml version="1.0" standalone="no"?>
<svg width="1024.0" height="256.0"  viewBox="0 0 1024.0 256.0" preserveAspectRatio="xMidYMid meet" xmlns="http://www.w3.org/2000/svg">
    <path stroke="#e74c3c" stroke-linejoin="round" d="M 50.0 161.108 L 50 161.108L 53.175257731958766 193.664L 56.350515463917525 197.576L 59.52577319587629 197.924L 62.70103092783505 203.528L 65.87628865979381 199.94L 69.05154639175258 199.268L 72.22680412371135 191.108L 75.4020618556701 200.972L 78.57731958762886 198.62L 81.75257731958763 200L 84.9278350515464 202.57999999999998L 88.10309278350516 199.208L 91.27835051546393 195.608L 94.4536082474227 202.652L 97.62886597938143 198.716L 100.8041237113402 197.49200000000002L 103.97938144329896 191.42000000000002L 107.15463917525773 196.688L 110.3298969072165 199.46L 113.50515463917526 199.328L 116.68041237113401 198.308L 119.85567010309278 198.164L 123.03092783505154 199.832L 126.20618556701031 194.876L 129.3814432989691 199.904L 132.55670103092785 195.584L 135.73195876288662 200.732L 138.9072164948454 198.416L 142.08247422680412 190.652L 145.25773195876286 196.112L 148.43298969072163 190.82L 151.6082474226804 193.53199999999998L 154.78350515463916 199.688L 157.95876288659792 192.392L 161.1340206185567 197L 164.30927835051546 199.59199999999998L 167.48453608247422 193.54399999999998L 170.659793814433 195.26L 173.83505154639175 195.428L 177.01030927835052 195.548L 180.18556701030928 196.484L 183.36082474226802 199.424L 186.53608247422682 199.22L 189.71134020618555 195.656L 192.88659793814435 193.952L 196.06185567010309 195.536L 199.23711340206185 198.764L 202.41237113402062 195.428L 205.58762886597938 194L 208.76288659793815 193.688L 211.9381443298969 186.32L 215.11340206185568 197.372L 218.28865979381442 195.96800000000002L 221.4639175257732 198.284L 224.63917525773195 194.38400000000001L 227.81443298969074 196.424L 230.98969072164948 196.988L 234.16494845360825 198.368L 237.340206185567 198.05599999999998L 240.51546391752575 199.61599999999999L 243.69072164948454 191.54L 246.86597938144328 202.124L 250.04123711340208 193.34L 253.2164948453608 204.2L 256.3917525773196 206L 259.5670103092783 206L 262.74226804123714 206L 265.91752577319585 206L 269.09278350515467 190.472L 272.2680412371134 159.01999999999998L 275.44329896907215 193.56799999999998L 278.6185567010309 200.228L 281.7938144329897 193.232L 284.96907216494844 196.82L 288.14432989690715 199.772L 291.319587628866 186.548L 294.49484536082474 197.888L 297.6701030927835 195.596L 300.8453608247422 190.508L 304.02061855670104 194.876L 307.1958762886598 190.4L 310.37113402061857 188.756L 313.5463917525773 197.852L 316.72164948453604 199.772L 319.89690721649487 191.936L 323.07216494845363 191.864L 326.24742268041234 199.316L 329.4226804123711 194.708L 332.59793814432993 192.608L 335.7731958762887 194.9L 338.9484536082474 199.7L 342.12371134020617 189.224L 345.29896907216494 198.428L 348.4742268041237 196.136L 351.64948453608247 195.296L 354.82474226804123 196.268L 358 193.184L 361.17525773195877 197.204L 364.35051546391753 193.856L 367.5257731958763 197.096L 370.70103092783506 178.16L 373.8762886597938 194.372L 377.0515463917526 195.92000000000002L 380.22680412371136 195.11599999999999L 383.4020618556701 196.688L 386.57731958762884 197.49200000000002L 389.75257731958766 197.696L 392.9278350515464 186.848L 396.10309278350513 192.644L 399.2783505154639 199.61599999999999L 402.45360824742266 193.052L 405.6288659793815 191.072L 408.8041237113402 195.44L 411.97938144329896 196.184L 415.1546391752577 196.46L 418.3298969072165 197.312L 421.50515463917526 193.076L 424.680412371134 206L 427.8556701030928 186.44L 431.0309278350515 186.632L 434.2061855670103 191.276L 437.3814432989691 180.93200000000002L 440.55670103092785 201.704L 443.73195876288656 185.744L 446.90721649484533 196.028L 450.08247422680415 189.464L 453.2577319587629 194.228L 456.4329896907216 195.632L 459.6082474226804 196.844L 462.7835051546392 186.332L 465.9587628865979 197.99599999999998L 469.1340206185567 188.924L 472.30927835051546 189.128L 475.4845360824742 196.748L 478.659793814433 182.45600000000002L 481.83505154639175 184.16L 485.0103092783505 206L 488.1855670103093 206L 491.36082474226805 206L 494.5360824742268 160.16L 497.7113402061856 198.536L 500.8865979381443 196.60399999999998L 504.06185567010306 195.668L 507.2371134020619 192.8L 510.41237113402065 196.964L 513.5876288659794 197.828L 516.7628865979382 200.84L 519.9381443298969 170.312L 523.1134020618556 189.236L 526.2886597938143 177.428L 529.4639175257732 191.564L 532.639175257732 178.784L 535.8144329896907 176.372L 538.9896907216495 181.7L 542.1649484536083 187.472L 545.340206185567 192.88400000000001L 548.5154639175257 189.38L 551.6907216494844 187.772L 554.8659793814433 189.404L 558.0412371134021 187.532L 561.2164948453608 193.59199999999998L 564.3917525773196 185.036L 567.5670103092783 171.332L 570.7422680412371 180.14L 573.9175257731958 172.316L 577.0927835051546 193.028L 580.2680412371134 191.996L 583.4432989690721 193.052L 586.618556701031 194.84L 589.7938144329897 193.53199999999998L 592.9690721649484 194.024L 596.1443298969073 189.272L 599.319587628866 195.188L 602.4948453608247 196.256L 605.6701030927835 192.62L 608.8453608247422 190.844L 612.020618556701 200.984L 615.1958762886599 184.796L 618.3711340206186 190.88L 621.5463917525774 194.42000000000002L 624.7216494845361 189.86L 627.8969072164948 195.86L 631.0721649484536 191.984L 634.2474226804123 193.1L 637.422680412371 186.464L 640.5979381443299 190.46L 643.7731958762887 182.156L 646.9484536082474 187.136L 650.1237113402062 191.528L 653.2989690721649 184.1L 656.4742268041238 189.14L 659.6494845360825 185.204L 662.8247422680412 185.468L 666 176.828L 669.1752577319587 189.04399999999998L 672.3505154639175 191.048L 675.5257731958764 188.756L 678.7010309278351 187.592L 681.8762886597938 191.39600000000002L 685.0515463917526 187.796L 688.2268041237113 188.228L 691.4020618556701 190.268L 694.5773195876288 194.372L 697.7525773195875 194.72L 700.9278350515465 201.308L 704.1030927835052 192.752L 707.2783505154639 181.148L 710.4536082474227 181.748L 713.6288659793814 181.208L 716.8041237113403 191.3L 719.979381443299 186.88400000000001L 723.1546391752577 181.376L 726.3298969072165 186.5L 729.5051546391753 188.44400000000002L 732.680412371134 179.66L 735.8556701030928 183.09199999999998L 739.0309278350516 173.564L 742.2061855670103 183.836L 745.3814432989691 171.668L 748.5567010309278 148.148L 751.7319587628866 178.004L 754.9072164948453 141.86L 758.0824742268042 186.128L 761.257731958763 188.54000000000002L 764.4329896907217 187.748L 767.6082474226804 193.256L 770.7835051546392 186.596L 773.9587628865979 185.42000000000002L 777.1340206185566 186.872L 780.3092783505155 185.372L 783.4845360824742 192.824L 786.659793814433 188.552L 789.8350515463918 189.32L 793.0103092783505 186.632L 796.1855670103093 185.768L 799.360824742268 188.744L 802.5360824742268 187.34L 805.7113402061856 192.488L 808.8865979381443 187.028L 812.061855670103 185.468L 815.2371134020619 181.928L 818.4123711340206 183.8L 821.5876288659794 180.296L 824.7628865979382 185.516L 827.9381443298969 194L 831.1134020618557 190.328L 834.2886597938144 186.584L 837.4639175257731 168.32L 840.639175257732 117.5L 843.8144329896907 189.10399999999998L 846.9896907216495 187.844L 850.1649484536083 190.28L 853.340206185567 192.32L 856.5154639175258 189.2L 859.6907216494845 182.288L 862.8659793814433 188.49200000000002L 866.0412371134021 178.916L 869.2164948453608 53.432000000000016L 872.3917525773195 162.656L 875.5670103092784 184.52L 878.7422680412371 182.708L 881.9175257731958 183.68L 885.0927835051547 184.196L 888.2680412371134 179.084L 891.4432989690722 190.16L 894.6185567010309 180.476L 897.7938144329896 160.916L 900.9690721649484 121.196L 904.1443298969073 151.50799999999998L 907.319587628866 164.132L 910.4948453608248 181.184L 913.6701030927835 170.49200000000002L 916.8453608247422 179.792L 920.020618556701 173.18L 923.1958762886597 178.352L 926.3711340206186 182.792L 929.5463917525773 177.152L 932.7216494845361 184.232L 935.8969072164949 187.796L 939.0721649484536 188.336L 942.2474226804123 184.676L 945.4226804123712 181.868L 948.5979381443299 181.772L 951.7731958762886 179.312L 954.9484536082474 168.176L 958.1237113402061 181.748L 961.2989690721649 185.348L 964.4742268041238 167.66L 967.6494845360825 140.372L 970.8247422680413 160.784L 974 199.232" stroke-width="2.0" fill="none" />
    
        
        
        <text x="45.0" font-family="-apple-system, system-ui, BlinkMacSystemFont, Roboto" y="50.0" dominant-baseline="middle" text-anchor="end" font-size="12" fill="#24292f">13000.0</text>
        
            
            <path stroke="#74838f" stroke-dasharray="10 6" stroke-width="0.5"  d="M 50.0 50.0 L 974.0 50.0" />
        
    
        
        
        <text x="45.0" font-family="-apple-system, system-ui, BlinkMacSystemFont, Roboto" y="81.2" dominant-baseline="middle" text-anchor="end" font-size="12" fill="#24292f">10400.0</text>
        
            
            
            <path stroke="#74838f" stroke-dasharray="10 6" stroke-width="0.5"  d="M 50.0 81.2 L 974.0 81.2" />
        
    
        
        
        <text x="45.0" font-family="-apple-system, system-ui, BlinkMacSystemFont, Roboto" y="112.4" dominant-baseline="middle" text-anchor="end" font-size="12" fill="#24292f">7800.0</text>
        
            
            
            <path stroke="#74838f" stroke-dasharray="10 6" stroke-width="0.5"  d="M 50.0 112.4 L 974.0 112.4" />
        
    
        
        
        <text x="45.0" font-family="-apple-system, system-ui, BlinkMacSystemFont, Roboto" y="143.6" dominant-baseline="middle" text-anchor="end" font-size="12" fill="#24292f">5200.0</text>
        
            
            
            <path stroke="#74838f" stroke-dasharray="10 6" stroke-width="0.5"  d="M 50.0 143.6 L 974.0 143.6" />
        
    
        
        
        <text x="45.0" font-family="-apple-system, system-ui, BlinkMacSystemFont, Roboto" y="174.8" dominant-baseline="middle" text-anchor="end" font-size="12" fill="#24292f">2600.0</text>
        
            
            
            <path stroke="#74838f" stroke-dasharray="10 6" stroke-width="0.5"  d="M 50.0 174.8 L 974.0 174.8" />
        
    
        
        
        <text x="45.0" font-family="-apple-system, system-ui, BlinkMacSystemFont, Roboto" y="206.0" dominant-baseline="middle" text-anchor="end" font-size="12" fill="#24292f">0.0</text>
        
    
    
        
        <path stroke="#74838f"  stroke-width="2.0"  d="M 100.8041237113402 206.0 L 100.8041237113402 214.0" />
        <text x="100.8041237113402" font-family="-apple-system, system-ui, BlinkMacSystemFont, Roboto" y="216.0" dominant-baseline="hanging" text-anchor="middle" font-size="12" fill="#24292f">Mar 2022</text>
    
        
        <path stroke="#74838f"  stroke-width="2.0"  d="M 199.23711340206185 206.0 L 199.23711340206185 214.0" />
        <text x="199.23711340206185" font-family="-apple-system, system-ui, BlinkMacSystemFont, Roboto" y="216.0" dominant-baseline="hanging" text-anchor="middle" font-size="12" fill="#24292f">Apr 2022</text>
    
        
        <path stroke="#74838f"  stroke-width="2.0"  d="M 294.49484536082474 206.0 L 294.49484536082474 214.0" />
        <text x="294.49484536082474" font-family="-apple-system, system-ui, BlinkMacSystemFont, Roboto" y="216.0" dominant-baseline="hanging" text-anchor="middle" font-size="12" fill="#24292f">May 2022</text>
    
        
        <path stroke="#74838f"  stroke-width="2.0"  d="M 392.9278350515464 206.0 L 392.9278350515464 214.0" />
        <text x="392.9278350515464" font-family="-apple-system, system-ui, BlinkMacSystemFont, Roboto" y="216.0" dominant-baseline="hanging" text-anchor="middle" font-size="12" fill="#24292f">Jun 2022</text>
    
        
        <path stroke="#74838f"  stroke-width="2.0"  d="M 488.1855670103093 206.0 L 488.1855670103093 214.0" />
        <text x="488.1855670103093" font-family="-apple-system, system-ui, BlinkMacSystemFont, Roboto" y="216.0" dominant-baseline="hanging" text-anchor="middle" font-size="12" fill="#24292f">Jul 2022</text>
    
        
        <path stroke="#74838f"  stroke-width="2.0"  d="M 586.618556701031 206.0 L 586.618556701031 214.0" />
        <text x="586.618556701031" font-family="-apple-system, system-ui, BlinkMacSystemFont, Roboto" y="216.0" dominant-baseline="hanging" text-anchor="middle" font-size="12" fill="#24292f">Aug 2022</text>
    
        
        <path stroke="#74838f"  stroke-width="2.0"  d="M 685.0515463917526 206.0 L 685.0515463917526 214.0" />
        <text x="685.0515463917526" font-family="-apple-system, system-ui, BlinkMacSystemFont, Roboto" y="216.0" dominant-baseline="hanging" text-anchor="middle" font-size="12" fill="#24292f">Sep 2022</text>
    
        
        <path stroke="#74838f"  stroke-width="2.0"  d="M 780.3092783505155 206.0 L 780.3092783505155 214.0" />
        <text x="780.3092783505155" font-family="-apple-system, system-ui, BlinkMacSystemFont, Roboto" y="216.0" dominant-baseline="hanging" text-anchor="middle" font-size="12" fill="#24292f">Oct 2022</text>
    
        
        <path stroke="#74838f"  stroke-width="2.0"  d="M 878.7422680412371 206.0 L 878.7422680412371 214.0" />
        <text x="878.7422680412371" font-family="-apple-system, system-ui, BlinkMacSystemFont, Roboto" y="216.0" dominant-baseline="hanging" text-anchor="middle" font-size="12" fill="#24292f">Nov 2022</text>
    
        
        <path stroke="#74838f"  stroke-width="2.0"  d="M 974.0 206.0 L 974.0 214.0" />
        <text x="974.0" font-family="-apple-system, system-ui, BlinkMacSystemFont, Roboto" y="216.0" dominant-baseline="hanging" text-anchor="middle" font-size="12" fill="#24292f">Dec 2022</text>
    
    <path stroke="#74838f"   stroke-linejoin="round" stroke-width="2.0" d="M 50.0 216.0 L 50.0 206.0 L 974.0 206.0 L 974.0 216.0"  fill="none" />
    <text x="512.0" y="25.0" font-family="-apple-system, system-ui, BlinkMacSystemFont, Roboto" dominant-baseline="middle" text-anchor="middle" font-size="18" fill="#24292f">Total daily suspensions</text>
</svg>
