<?xml version="1.0" standalone="no"?>
<svg width="1024.0" height="256.0"  viewBox="0 0 1024.0 256.0" preserveAspectRatio="xMidYMid meet" xmlns="http://www.w3.org/2000/svg">
    <path stroke="#e74c3c" stroke-linejoin="round" d="M 50.0 161.108 L 50 161.108L 52.12413793103448 193.664L 54.248275862068965 197.576L 56.37241379310345 197.924L 58.49655172413793 203.528L 60.62068965517241 199.94L 62.744827586206895 199.268L 64.86896551724138 191.108L 66.99310344827586 200.972L 69.11724137931034 198.62L 71.24137931034483 200L 73.36551724137931 202.57999999999998L 75.48965517241379 199.208L 77.61379310344827 195.608L 79.73793103448276 202.652L 81.86206896551724 198.716L 83.98620689655172 197.49200000000002L 86.1103448275862 191.42000000000002L 88.23448275862069 196.688L 90.35862068965517 199.46L 92.48275862068965 199.328L 94.60689655172413 198.308L 96.73103448275862 198.164L 98.8551724137931 199.832L 100.97931034482758 194.876L 103.10344827586206 199.904L 105.22758620689655 195.584L 107.35172413793103 200.732L 109.47586206896551 198.416L 111.6 190.652L 113.72413793103448 196.112L 115.84827586206896 190.82L 117.97241379310344 193.53199999999998L 120.09655172413792 199.688L 122.22068965517241 192.392L 124.34482758620689 197L 126.46896551724137 199.59199999999998L 128.59310344827585 193.54399999999998L 130.71724137931034 195.26L 132.84137931034482 195.428L 134.9655172413793 195.548L 137.08965517241379 196.484L 139.21379310344827 199.424L 141.33793103448278 199.22L 143.46206896551723 195.656L 145.58620689655174 193.952L 147.7103448275862 195.536L 149.8344827586207 198.764L 151.95862068965516 195.428L 154.08275862068967 194L 156.20689655172413 193.688L 158.33103448275864 186.32L 160.4551724137931 197.372L 162.5793103448276 195.96800000000002L 164.70344827586206 198.284L 166.82758620689657 194.38400000000001L 168.95172413793102 196.424L 171.07586206896553 196.988L 173.2 198.368L 175.3241379310345 198.05599999999998L 177.44827586206895 199.61599999999999L 179.57241379310346 191.54L 181.69655172413792 202.124L 183.82068965517243 193.34L 185.94482758620688 204.2L 188.0689655172414 206L 190.19310344827585 206L 192.31724137931036 206L 194.44137931034481 206L 196.56551724137933 190.472L 198.68965517241378 159.01999999999998L 200.8137931034483 193.56799999999998L 202.93793103448274 200.228L 205.06206896551726 193.232L 207.1862068965517 196.82L 209.31034482758622 199.772L 211.43448275862067 186.548L 213.55862068965519 197.888L 215.68275862068964 195.596L 217.80689655172415 190.508L 219.9310344827586 194.876L 222.05517241379312 190.4L 224.17931034482757 188.756L 226.30344827586208 197.852L 228.42758620689654 199.772L 230.55172413793105 191.936L 232.67586206896553 191.864L 234.8 199.316L 236.9241379310345 194.72L 239.04827586206898 192.608L 241.17241379310346 194.9L 243.29655172413794 199.7L 245.42068965517242 189.224L 247.5448275862069 198.428L 249.6689655172414 196.136L 251.79310344827587 195.296L 253.91724137931035 196.268L 256.04137931034484 193.184L 258.16551724137935 197.204L 260.2896551724138 193.856L 262.41379310344826 197.096L 264.53793103448277 178.16L 266.6620689655173 194.372L 268.78620689655173 195.92000000000002L 270.9103448275862 195.11599999999999L 273.0344827586207 196.688L 275.1586206896552 197.49200000000002L 277.28275862068966 197.696L 279.4068965517241 186.848L 281.5310344827586 192.644L 283.65517241379314 199.61599999999999L 285.7793103448276 193.052L 287.90344827586205 191.072L 290.02758620689656 195.44L 292.15172413793107 196.184L 294.2758620689655 196.46L 296.4 197.312L 298.5241379310345 193.076L 300.648275862069 206L 302.77241379310345 186.44L 304.8965517241379 186.632L 307.0206896551724 191.276L 309.14482758620693 180.93200000000002L 311.2689655172414 201.704L 313.39310344827584 185.744L 315.51724137931035 196.028L 317.64137931034486 189.464L 319.7655172413793 194.228L 321.88965517241377 195.632L 324.0137931034483 196.844L 326.1379310344828 186.332L 328.26206896551724 197.99599999999998L 330.3862068965517 188.924L 332.5103448275862 189.128L 334.6344827586207 196.748L 336.7586206896552 182.45600000000002L 338.88275862068963 184.16L 341.00689655172414 206L 343.13103448275865 206L 345.2551724137931 206L 347.37931034482756 160.16L 349.50344827586207 198.536L 351.6275862068966 196.60399999999998L 353.75172413793103 195.668L 355.8758620689655 192.8L 358 196.964L 360.1241379310345 197.828L 362.24827586206897 200.84L 364.3724137931034 170.312L 366.49655172413793 189.236L 368.62068965517244 177.428L 370.7448275862069 191.564L 372.86896551724135 178.784L 374.99310344827586 176.372L 377.11724137931037 181.7L 379.2413793103448 187.472L 381.3655172413793 192.88400000000001L 383.4896551724138 189.38L 385.6137931034483 187.772L 387.73793103448276 189.404L 389.8620689655172 187.532L 391.9862068965517 193.59199999999998L 394.11034482758623 185.036L 396.2344827586207 171.332L 398.35862068965514 180.14L 400.48275862068965 172.316L 402.60689655172416 193.028L 404.7310344827586 191.996L 406.85517241379307 193.052L 408.9793103448276 194.84L 411.1034482758621 193.53199999999998L 413.22758620689655 194.024L 415.35172413793106 189.272L 417.4758620689655 195.188L 419.6 196.256L 421.7241379310345 192.62L 423.848275862069 190.844L 425.97241379310344 200.984L 428.09655172413795 184.796L 430.2206896551724 190.88L 432.3448275862069 194.42000000000002L 434.4689655172414 189.86L 436.5931034482759 195.86L 438.71724137931034 191.984L 440.84137931034485 193.1L 442.9655172413793 186.464L 445.0896551724138 190.46L 447.21379310344827 182.156L 449.3379310344828 187.136L 451.46206896551723 191.528L 453.58620689655174 184.1L 455.7103448275862 189.14L 457.8344827586207 185.204L 459.95862068965516 185.468L 462.0827586206897 176.816L 464.2068965517241 189.04399999999998L 466.33103448275864 191.048L 468.4551724137931 188.756L 470.5793103448276 187.592L 472.70344827586206 191.39600000000002L 474.82758620689657 187.796L 476.951724137931 188.228L 479.07586206896553 190.268L 481.2 194.372L 483.3241379310345 194.72L 485.44827586206895 201.308L 487.57241379310346 192.752L 489.6965517241379 181.148L 491.82068965517243 181.748L 493.9448275862069 181.208L 496.0689655172414 191.3L 498.19310344827585 186.88400000000001L 500.31724137931036 181.376L 502.4413793103448 186.5L 504.5655172413793 188.44400000000002L 506.6896551724138 179.66L 508.8137931034483 183.09199999999998L 510.93793103448274 173.564L 513.0620689655173 183.836L 515.1862068965518 171.668L 517.3103448275863 148.148L 519.4344827586207 178.004L 521.5586206896552 141.86L 523.6827586206896 186.128L 525.8068965517241 188.54000000000002L 527.9310344827586 187.748L 530.0551724137931 193.256L 532.1793103448276 186.596L 534.3034482758621 185.42000000000002L 536.4275862068965 186.872L 538.551724137931 185.372L 540.6758620689654 192.824L 542.8 188.552L 544.9241379310345 189.32L 547.048275862069 186.632L 549.1724137931035 185.768L 551.296551724138 188.744L 553.4206896551724 187.34L 555.5448275862069 192.488L 557.6689655172413 187.028L 559.7931034482758 185.468L 561.9172413793103 181.928L 564.0413793103448 183.8L 566.1655172413793 180.296L 568.2896551724139 185.516L 570.4137931034483 194L 572.5379310344828 190.328L 574.6620689655172 186.584L 576.7862068965517 168.32L 578.9103448275862 117.5L 581.0344827586207 189.10399999999998L 583.1586206896552 187.844L 585.2827586206897 190.28L 587.4068965517241 192.32L 589.5310344827586 189.2L 591.655172413793 182.288L 593.7793103448275 188.49200000000002L 595.903448275862 178.916L 598.0275862068966 53.432000000000016L 600.1517241379311 162.656L 602.2758620689656 184.52L 604.4 182.708L 606.5241379310345 183.68L 608.6482758620689 184.196L 610.7724137931034 179.084L 612.8965517241379 190.16L 615.0206896551724 180.476L 617.1448275862069 160.916L 619.2689655172414 121.196L 621.3931034482758 151.50799999999998L 623.5172413793103 164.132L 625.6413793103447 181.184L 627.7655172413793 170.49200000000002L 629.8896551724138 179.792L 632.0137931034483 173.204L 634.1379310344828 178.352L 636.2620689655173 182.792L 638.3862068965517 177.152L 640.5103448275862 184.232L 642.6344827586206 187.796L 644.7586206896551 188.348L 646.8827586206896 184.736L 649.0068965517241 181.892L 651.1310344827587 181.796L 653.2551724137932 179.36L 655.3793103448276 168.176L 657.5034482758621 181.808L 659.6275862068965 185.372L 661.751724137931 167.708L 663.8758620689656 140.6L 666 160.784L 668.1241379310345 151.664L 670.248275862069 145.952L 672.3724137931034 155.288L 674.4965517241379 153.68L 676.6206896551723 163.04L 678.7448275862068 172.064L 680.8689655172415 148.952L 682.9931034482759 171.812L 685.1172413793104 172.46L 687.2413793103449 172.508L 689.3655172413793 183.644L 691.4896551724138 166.304L 693.6137931034482 159.26L 695.7379310344827 172.652L 697.8620689655173 165.5L 699.9862068965517 154.892L 702.1103448275862 173.888L 704.2344827586207 176.3L 706.3586206896551 186.5L 708.4827586206897 183.932L 710.606896551724 183.10399999999998L 712.7310344827586 150.128L 714.8551724137932 183.11599999999999L 716.9793103448276 186.152L 719.1034482758621 185.096L 721.2275862068966 182.276L 723.351724137931 182.18L 725.4758620689655 182.144L 727.5999999999999 174.956L 729.7241379310344 181.988L 731.848275862069 179.504L 733.9724137931034 184.784L 736.096551724138 179L 738.2206896551725 175.868L 740.3448275862069 177.14L 742.4689655172414 178.832L 744.5931034482758 182.216L 746.7172413793103 176.444L 748.8413793103449 182.576L 750.9655172413793 177.02L 753.0896551724138 178.58L 755.2137931034483 182.144L 757.3379310344827 179.48L 759.4620689655172 176.972L 761.5862068965516 186.164L 763.7103448275861 176.096L 765.8344827586208 178.04L 767.9586206896552 152.996L 770.0827586206897 130.724L 772.2068965517242 149.888L 774.3310344827586 149.48L 776.4551724137931 184.1L 778.5793103448275 184.484L 780.7034482758621 177.56L 782.8275862068966 139.952L 784.951724137931 148.028L 787.0758620689655 162.428L 789.2 136.244L 791.3241379310344 132.128L 793.448275862069 142.508L 795.5724137931034 143.252L 797.696551724138 125.732L 799.8206896551725 117.06800000000001L 801.9448275862069 164.264L 804.0689655172414 161.876L 806.1931034482759 158.636L 808.3172413793103 176.40800000000002L 810.4413793103448 186.632L 812.5655172413792 187.352L 814.6896551724138 186.152L 816.8137931034483 174.932L 818.9379310344827 178.388L 821.0620689655173 194.636L 823.1862068965518 184.748L 825.3103448275862 182.84L 827.4344827586207 173.78L 829.5586206896551 177.56L 831.6827586206897 179.996L 833.8068965517242 183.188L 835.9310344827586 153.68L 838.0551724137931 147.548L 840.1793103448276 185.504L 842.303448275862 190.724L 844.4275862068965 174.752L 846.5517241379309 174.32L 848.6758620689656 183.692L 850.8000000000001 189.06799999999998L 852.9241379310345 186.88400000000001L 855.048275862069 179.096L 857.1724137931035 175.808L 859.2965517241379 161.672L 861.4206896551724 160.424L 863.5448275862068 165.632L 865.6689655172414 179.336L 867.7931034482759 183.272L 869.9172413793103 191.024L 872.0413793103448 195.14L 874.1655172413793 182.684L 876.2896551724137 162.416L 878.4137931034483 169.712L 880.5379310344827 168.536L 882.6620689655173 179.024L 884.7862068965518 170.768L 886.9103448275862 161.9L 889.0344827586207 170.012L 891.1586206896552 180.656L 893.2827586206896 178.796L 895.4068965517241 164.648L 897.5310344827585 152.95999999999998L 899.6551724137931 156.62L 901.7793103448276 154.568L 903.903448275862 142.088L 906.0275862068966 156.704L 908.1517241379311 176.924L 910.2758620689655 142.652L 912.4 131.372L 914.5241379310345 137.276L 916.648275862069 142.7L 918.7724137931035 151.136L 920.8965517241379 138.02L 923.0206896551724 110.324L 925.1448275862069 109.724L 927.2689655172413 163.268L 929.3931034482758 161.996L 931.5172413793103 148.016L 933.6413793103449 147.68L 935.7655172413794 50.792L 937.8896551724138 121.652L 940.0137931034483 58.615999999999985L 942.1379310344828 120.38L 944.2620689655172 155.672L 946.3862068965517 145.76L 948.5103448275862 133.54399999999998L 950.6344827586207 86.696L 952.7586206896552 103.568L 954.8827586206896 139.208L 957.0068965517241 155.876L 959.1310344827587 150.584L 961.255172413793 92L 963.3793103448276 148.052L 965.5034482758621 113.132L 967.6275862068966 124.316L 969.7517241379311 179.552L 971.8758620689655 134.45600000000002L 974 176.144" stroke-width="2.0" fill="none" />
    
        
        
        <text x="45.0" font-family="-apple-system, system-ui, BlinkMacSystemFont, Roboto" y="50.0" dominant-baseline="middle" text-anchor="end" font-size="12" fill="#24292f">13000.0</text>
        
            
            <path stroke="#74838f" stroke-dasharray="10 6" stroke-width="0.5"  d="M 50.0 50.0 L 974.0 50.0" />
        
    
        
        
        <text x="45.0" font-family="-apple-system, system-ui, BlinkMacSystemFont, Roboto" y="81.2" dominant-baseline="middle" text-anchor="end" font-size="12" fill="#24292f">10400.0</text>
        
            
            
            <path stroke="#74838f" stroke-dasharray="10 6" stroke-width="0.5"  d="M 50.0 81.2 L 974.0 81.2" />
        
    
        
        
        <text x="45.0" font-family="-apple-system, system-ui, BlinkMacSystemFont, Roboto" y="112.4" dominant-baseline="middle" text-anchor="end" font-size="12" fill="#24292f">7800.0</text>
        
            
            
            <path stroke="#74838f" stroke-dasharray="10 6" stroke-width="0.5"  d="M 50.0 112.4 L 974.0 112.4" />
        
    
        
        
        <text x="45.0" font-family="-apple-system, system-ui, BlinkMacSystemFont, Roboto" y="143.6" dominant-baseline="middle" text-anchor="end" font-size="12" fill="#24292f">5200.0</text>
        
            
            
            <path stroke="#74838f" stroke-dasharray="10 6" stroke-width="0.5"  d="M 50.0 143.6 L 974.0 143.6" />
        
    
        
        
        <text x="45.0" font-family="-apple-system, system-ui, BlinkMacSystemFont, Roboto" y="174.8" dominant-baseline="middle" text-anchor="end" font-size="12" fill="#24292f">2600.0</text>
        
            
            
            <path stroke="#74838f" stroke-dasharray="10 6" stroke-width="0.5"  d="M 50.0 174.8 L 974.0 174.8" />
        
    
        
        
        <text x="45.0" font-family="-apple-system, system-ui, BlinkMacSystemFont, Roboto" y="206.0" dominant-baseline="middle" text-anchor="end" font-size="12" fill="#24292f">0.0</text>
        
    
    
        
        <path stroke="#74838f"  stroke-width="2.0"  d="M 83.98620689655172 206.0 L 83.98620689655172 214.0" />
        <text x="83.98620689655172" font-family="-apple-system, system-ui, BlinkMacSystemFont, Roboto" y="216.0" dominant-baseline="hanging" text-anchor="middle" font-size="12" fill="#24292f">Mar 2022</text>
    
        
        <path stroke="#74838f"  stroke-width="2.0"  d="M 149.8344827586207 206.0 L 149.8344827586207 214.0" />
        <text x="149.8344827586207" font-family="-apple-system, system-ui, BlinkMacSystemFont, Roboto" y="216.0" dominant-baseline="hanging" text-anchor="middle" font-size="12" fill="#24292f">Apr 2022</text>
    
        
        <path stroke="#74838f"  stroke-width="2.0"  d="M 213.55862068965519 206.0 L 213.55862068965519 214.0" />
        <text x="213.55862068965519" font-family="-apple-system, system-ui, BlinkMacSystemFont, Roboto" y="216.0" dominant-baseline="hanging" text-anchor="middle" font-size="12" fill="#24292f">May 2022</text>
    
        
        <path stroke="#74838f"  stroke-width="2.0"  d="M 279.4068965517241 206.0 L 279.4068965517241 214.0" />
        <text x="279.4068965517241" font-family="-apple-system, system-ui, BlinkMacSystemFont, Roboto" y="216.0" dominant-baseline="hanging" text-anchor="middle" font-size="12" fill="#24292f">Jun 2022</text>
    
        
        <path stroke="#74838f"  stroke-width="2.0"  d="M 343.13103448275865 206.0 L 343.13103448275865 214.0" />
        <text x="343.13103448275865" font-family="-apple-system, system-ui, BlinkMacSystemFont, Roboto" y="216.0" dominant-baseline="hanging" text-anchor="middle" font-size="12" fill="#24292f">Jul 2022</text>
    
        
        <path stroke="#74838f"  stroke-width="2.0"  d="M 408.9793103448276 206.0 L 408.9793103448276 214.0" />
        <text x="408.9793103448276" font-family="-apple-system, system-ui, BlinkMacSystemFont, Roboto" y="216.0" dominant-baseline="hanging" text-anchor="middle" font-size="12" fill="#24292f">Aug 2022</text>
    
        
        <path stroke="#74838f"  stroke-width="2.0"  d="M 474.82758620689657 206.0 L 474.82758620689657 214.0" />
        <text x="474.82758620689657" font-family="-apple-system, system-ui, BlinkMacSystemFont, Roboto" y="216.0" dominant-baseline="hanging" text-anchor="middle" font-size="12" fill="#24292f">Sep 2022</text>
    
        
        <path stroke="#74838f"  stroke-width="2.0"  d="M 538.551724137931 206.0 L 538.551724137931 214.0" />
        <text x="538.551724137931" font-family="-apple-system, system-ui, BlinkMacSystemFont, Roboto" y="216.0" dominant-baseline="hanging" text-anchor="middle" font-size="12" fill="#24292f">Oct 2022</text>
    
        
        <path stroke="#74838f"  stroke-width="2.0"  d="M 604.4 206.0 L 604.4 214.0" />
        <text x="604.4" font-family="-apple-system, system-ui, BlinkMacSystemFont, Roboto" y="216.0" dominant-baseline="hanging" text-anchor="middle" font-size="12" fill="#24292f">Nov 2022</text>
    
        
        <path stroke="#74838f"  stroke-width="2.0"  d="M 668.1241379310345 206.0 L 668.1241379310345 214.0" />
        <text x="668.1241379310345" font-family="-apple-system, system-ui, BlinkMacSystemFont, Roboto" y="216.0" dominant-baseline="hanging" text-anchor="middle" font-size="12" fill="#24292f">Dec 2022</text>
    
        
        <path stroke="#74838f"  stroke-width="2.0"  d="M 733.9724137931034 206.0 L 733.9724137931034 214.0" />
        <text x="733.9724137931034" font-family="-apple-system, system-ui, BlinkMacSystemFont, Roboto" y="216.0" dominant-baseline="hanging" text-anchor="middle" font-size="12" fill="#24292f">Jan 2023</text>
    
        
        <path stroke="#74838f"  stroke-width="2.0"  d="M 799.8206896551725 206.0 L 799.8206896551725 214.0" />
        <text x="799.8206896551725" font-family="-apple-system, system-ui, BlinkMacSystemFont, Roboto" y="216.0" dominant-baseline="hanging" text-anchor="middle" font-size="12" fill="#24292f">Feb 2023</text>
    
        
        <path stroke="#74838f"  stroke-width="2.0"  d="M 859.2965517241379 206.0 L 859.2965517241379 214.0" />
        <text x="859.2965517241379" font-family="-apple-system, system-ui, BlinkMacSystemFont, Roboto" y="216.0" dominant-baseline="hanging" text-anchor="middle" font-size="12" fill="#24292f">Mar 2023</text>
    
        
        <path stroke="#74838f"  stroke-width="2.0"  d="M 925.1448275862069 206.0 L 925.1448275862069 214.0" />
        <text x="925.1448275862069" font-family="-apple-system, system-ui, BlinkMacSystemFont, Roboto" y="216.0" dominant-baseline="hanging" text-anchor="middle" font-size="12" fill="#24292f">Apr 2023</text>
    
    <path stroke="#74838f"   stroke-linejoin="round" stroke-width="2.0" d="M 50.0 216.0 L 50.0 206.0 L 974.0 206.0 L 974.0 216.0"  fill="none" />
    <text x="512.0" y="25.0" font-family="-apple-system, system-ui, BlinkMacSystemFont, Roboto" dominant-baseline="middle" text-anchor="middle" font-size="18" fill="#24292f">Total daily suspensions</text>
</svg>
