<?xml version="1.0" standalone="no"?>
<svg width="1024.0" height="256.0"  viewBox="0 0 1024.0 256.0" preserveAspectRatio="xMidYMid meet" xmlns="http://www.w3.org/2000/svg">
    <path stroke="#e74c3c" stroke-linejoin="round" d="M 50.0 161.108 L 50 161.108L 53.32374100719424 193.664L 56.64748201438849 197.576L 59.97122302158273 197.924L 63.29496402877698 203.528L 66.61870503597122 199.94L 69.94244604316546 199.268L 73.26618705035972 191.108L 76.58992805755396 200.972L 79.9136690647482 198.62L 83.23741007194243 200L 86.56115107913669 202.57999999999998L 89.88489208633094 199.208L 93.20863309352518 195.608L 96.53237410071942 202.652L 99.85611510791367 198.716L 103.17985611510792 197.49200000000002L 106.50359712230215 191.42000000000002L 109.82733812949641 196.688L 113.15107913669065 199.46L 116.47482014388488 199.328L 119.79856115107914 198.308L 123.12230215827337 198.164L 126.44604316546763 199.832L 129.76978417266187 194.876L 133.0935251798561 199.904L 136.41726618705036 195.584L 139.74100719424462 200.732L 143.06474820143885 198.416L 146.3884892086331 190.652L 149.71223021582733 196.112L 153.0359712230216 190.82L 156.35971223021585 193.53199999999998L 159.68345323741005 199.688L 163.0071942446043 192.392L 166.33093525179856 197L 169.65467625899282 199.59199999999998L 172.97841726618705 193.54399999999998L 176.3021582733813 195.26L 179.62589928057554 195.428L 182.94964028776977 195.548L 186.27338129496403 196.484L 189.59712230215828 199.424L 192.92086330935254 199.22L 196.24460431654674 195.656L 199.568345323741 193.952L 202.89208633093526 195.536L 206.2158273381295 198.764L 209.53956834532374 195.428L 212.86330935251797 194L 216.18705035971223 193.688L 219.51079136690646 186.32L 222.83453237410072 197.372L 226.15827338129498 195.96800000000002L 229.48201438848923 198.284L 232.80575539568343 194.38400000000001L 236.1294964028777 196.424L 239.45323741007195 196.988L 242.7769784172662 198.368L 246.10071942446044 198.05599999999998L 249.42446043165467 199.61599999999999L 252.74820143884892 191.54L 256.0719424460432 202.124L 259.39568345323744 193.34L 262.7194244604317 204.2L 266.0431654676259 206L 269.3669064748201 206L 272.69064748201436 206L 276.0143884892086 206L 279.33812949640287 190.472L 282.66187050359713 159.01999999999998L 285.9856115107914 193.56799999999998L 289.30935251798564 200.228L 292.63309352517985 193.232L 295.9568345323741 196.82L 299.2805755395683 199.772L 302.6043165467626 186.548L 305.9280575539568 197.888L 309.2517985611511 195.596L 312.57553956834533 190.508L 315.89928057553954 194.876L 319.22302158273385 190.4L 322.54676258992805 188.756L 325.87050359712225 197.852L 329.19424460431657 199.772L 332.51798561151077 191.936L 335.8417266187051 191.864L 339.1654676258993 199.316L 342.4892086330935 194.708L 345.8129496402878 192.608L 349.136690647482 194.9L 352.46043165467626 199.7L 355.7841726618705 189.224L 359.1079136690647 198.428L 362.431654676259 196.136L 365.75539568345323 195.296L 369.0791366906475 196.268L 372.40287769784175 193.184L 375.72661870503595 197.204L 379.0503597122302 193.856L 382.37410071942446 197.096L 385.6978417266187 178.16L 389.0215827338129 194.372L 392.3453237410072 195.92000000000002L 395.66906474820144 195.11599999999999L 398.9928057553957 196.688L 402.31654676258995 197.49200000000002L 405.64028776978415 197.696L 408.96402877697847 186.848L 412.28776978417267 192.644L 415.61151079136687 199.61599999999999L 418.9352517985612 193.052L 422.2589928057554 191.072L 425.58273381294964 195.44L 428.9064748201439 196.184L 432.2302158273381 196.46L 435.5539568345324 197.312L 438.8776978417266 193.076L 442.2014388489209 206L 445.52517985611513 186.44L 448.84892086330933 186.632L 452.1726618705036 191.276L 455.49640287769785 180.93200000000002L 458.8201438848921 201.704L 462.1438848920863 185.744L 465.46762589928056 196.028L 468.7913669064748 189.464L 472.1151079136691 194.228L 475.43884892086334 195.632L 478.76258992805754 196.844L 482.0863309352518 186.332L 485.41007194244605 197.99599999999998L 488.73381294964025 188.924L 492.05755395683457 189.128L 495.38129496402877 196.748L 498.705035971223 182.45600000000002L 502.0287769784173 184.16L 505.3525179856115 206L 508.6762589928058 206L 512 206L 515.3237410071943 160.16L 518.6474820143885 198.536L 521.9712230215828 196.60399999999998L 525.294964028777 195.668L 528.6187050359713 192.8L 531.9424460431654 196.964L 535.2661870503597 197.828L 538.5899280575541 200.84L 541.9136690647482 170.312L 545.2374100719425 189.236L 548.5611510791366 177.428L 551.8848920863309 191.564L 555.2086330935252 178.784L 558.5323741007194 176.372L 561.8561151079136 181.7L 565.1798561151079 187.472L 568.5035971223022 192.88400000000001L 571.8273381294964 189.38L 575.1510791366907 187.772L 578.4748201438849 189.404L 581.7985611510791 187.532L 585.1223021582733 193.59199999999998L 588.4460431654677 185.036L 591.7697841726618 171.332L 595.0935251798561 180.14L 598.4172661870504 172.316L 601.7410071942445 193.028L 605.0647482014389 191.996L 608.3884892086331 193.052L 611.7122302158274 194.84L 615.0359712230215 193.53199999999998L 618.3597122302158 194.024L 621.6834532374102 189.272L 625.0071942446043 195.188L 628.3309352517986 196.256L 631.6546762589928 192.62L 634.978417266187 190.844L 638.3021582733813 200.984L 641.6258992805756 184.796L 644.9496402877697 190.88L 648.273381294964 194.42000000000002L 651.5971223021583 189.86L 654.9208633093525 195.86L 658.2446043165468 191.984L 661.568345323741 193.1L 664.8920863309352 186.464L 668.2158273381294 190.46L 671.5395683453238 182.156L 674.863309352518 187.136L 678.1870503597122 191.528L 681.5107913669065 184.1L 684.8345323741007 189.14L 688.158273381295 185.204L 691.4820143884892 185.468L 694.8057553956835 176.828L 698.1294964028776 189.04399999999998L 701.4532374100719 191.048L 704.7769784172663 188.756L 708.1007194244604 187.592L 711.4244604316547 191.39600000000002L 714.7482014388489 187.796L 718.0719424460431 188.228L 721.3956834532374 190.268L 724.7194244604317 194.372L 728.0431654676258 194.72L 731.3669064748201 201.308L 734.6906474820144 192.752L 738.0143884892086 181.148L 741.3381294964029 181.748L 744.6618705035971 181.208L 747.9856115107914 191.3L 751.3093525179856 186.88400000000001L 754.6330935251799 181.376L 757.9568345323742 186.5L 761.2805755395683 188.44400000000002L 764.6043165467626 179.66L 767.9280575539569 183.09199999999998L 771.2517985611511 173.564L 774.5755395683453 183.836L 777.8992805755396 171.668L 781.2230215827337 148.148L 784.5467625899281 178.004L 787.8705035971224 141.86L 791.1942446043165 186.128L 794.5179856115108 188.54000000000002L 797.841726618705 187.748L 801.1654676258993 193.256L 804.4892086330935 186.596L 807.8129496402878 185.42000000000002L 811.136690647482 186.872L 814.4604316546762 185.372L 817.7841726618706 192.824L 821.1079136690648 188.552L 824.431654676259 189.32L 827.7553956834532 186.632L 831.0791366906475 185.768L 834.4028776978417 188.744L 837.726618705036 187.34L 841.0503597122303 192.488L 844.3741007194244 187.028L 847.6978417266187 185.468L 851.021582733813 181.928L 854.3453237410072 183.8L 857.6690647482014 180.296L 860.9928057553957 185.516L 864.3165467625898 194L 867.6402877697842 190.328L 870.9640287769785 186.584L 874.2877697841726 168.32L 877.6115107913669 117.5L 880.9352517985611 189.10399999999998L 884.2589928057555 187.844L 887.5827338129496 190.28L 890.9064748201439 192.32L 894.2302158273382 189.2L 897.5539568345323 182.288L 900.8776978417267 188.49200000000002L 904.2014388489209 178.916L 907.5251798561151 53.432000000000016L 910.8489208633093 162.656L 914.1726618705036 184.52L 917.4964028776978 182.708L 920.8201438848921 183.68L 924.1438848920864 184.196L 927.4676258992805 179.084L 930.7913669064748 190.16L 934.1151079136691 180.476L 937.4388489208633 160.916L 940.7625899280575 121.196L 944.0863309352518 151.50799999999998L 947.410071942446 164.132L 950.7338129496403 181.184L 954.0575539568346 170.49200000000002L 957.3812949640288 179.792L 960.705035971223 173.504L 964.0287769784172 178.088L 967.3525179856116 182.792L 970.6762589928057 178.04L 974 201.05599999999998" stroke-width="2.0" fill="none" />
    
        
        
        <text x="45.0" font-family="-apple-system, system-ui, BlinkMacSystemFont, Roboto" y="50.0" dominant-baseline="middle" text-anchor="end" font-size="12" fill="#24292f">13000.0</text>
        
            
            <path stroke="#74838f" stroke-dasharray="10 6" stroke-width="0.5"  d="M 50.0 50.0 L 974.0 50.0" />
        
    
        
        
        <text x="45.0" font-family="-apple-system, system-ui, BlinkMacSystemFont, Roboto" y="81.2" dominant-baseline="middle" text-anchor="end" font-size="12" fill="#24292f">10400.0</text>
        
            
            
            <path stroke="#74838f" stroke-dasharray="10 6" stroke-width="0.5"  d="M 50.0 81.2 L 974.0 81.2" />
        
    
        
        
        <text x="45.0" font-family="-apple-system, system-ui, BlinkMacSystemFont, Roboto" y="112.4" dominant-baseline="middle" text-anchor="end" font-size="12" fill="#24292f">7800.0</text>
        
            
            
            <path stroke="#74838f" stroke-dasharray="10 6" stroke-width="0.5"  d="M 50.0 112.4 L 974.0 112.4" />
        
    
        
        
        <text x="45.0" font-family="-apple-system, system-ui, BlinkMacSystemFont, Roboto" y="143.6" dominant-baseline="middle" text-anchor="end" font-size="12" fill="#24292f">5200.0</text>
        
            
            
            <path stroke="#74838f" stroke-dasharray="10 6" stroke-width="0.5"  d="M 50.0 143.6 L 974.0 143.6" />
        
    
        
        
        <text x="45.0" font-family="-apple-system, system-ui, BlinkMacSystemFont, Roboto" y="174.8" dominant-baseline="middle" text-anchor="end" font-size="12" fill="#24292f">2600.0</text>
        
            
            
            <path stroke="#74838f" stroke-dasharray="10 6" stroke-width="0.5"  d="M 50.0 174.8 L 974.0 174.8" />
        
    
        
        
        <text x="45.0" font-family="-apple-system, system-ui, BlinkMacSystemFont, Roboto" y="206.0" dominant-baseline="middle" text-anchor="end" font-size="12" fill="#24292f">0.0</text>
        
    
    
        
        <path stroke="#74838f"  stroke-width="2.0"  d="M 103.17985611510792 206.0 L 103.17985611510792 214.0" />
        <text x="103.17985611510792" font-family="-apple-system, system-ui, BlinkMacSystemFont, Roboto" y="216.0" dominant-baseline="hanging" text-anchor="middle" font-size="12" fill="#24292f">Mar 2022</text>
    
        
        <path stroke="#74838f"  stroke-width="2.0"  d="M 206.2158273381295 206.0 L 206.2158273381295 214.0" />
        <text x="206.2158273381295" font-family="-apple-system, system-ui, BlinkMacSystemFont, Roboto" y="216.0" dominant-baseline="hanging" text-anchor="middle" font-size="12" fill="#24292f">Apr 2022</text>
    
        
        <path stroke="#74838f"  stroke-width="2.0"  d="M 305.9280575539568 206.0 L 305.9280575539568 214.0" />
        <text x="305.9280575539568" font-family="-apple-system, system-ui, BlinkMacSystemFont, Roboto" y="216.0" dominant-baseline="hanging" text-anchor="middle" font-size="12" fill="#24292f">May 2022</text>
    
        
        <path stroke="#74838f"  stroke-width="2.0"  d="M 408.96402877697847 206.0 L 408.96402877697847 214.0" />
        <text x="408.96402877697847" font-family="-apple-system, system-ui, BlinkMacSystemFont, Roboto" y="216.0" dominant-baseline="hanging" text-anchor="middle" font-size="12" fill="#24292f">Jun 2022</text>
    
        
        <path stroke="#74838f"  stroke-width="2.0"  d="M 508.6762589928058 206.0 L 508.6762589928058 214.0" />
        <text x="508.6762589928058" font-family="-apple-system, system-ui, BlinkMacSystemFont, Roboto" y="216.0" dominant-baseline="hanging" text-anchor="middle" font-size="12" fill="#24292f">Jul 2022</text>
    
        
        <path stroke="#74838f"  stroke-width="2.0"  d="M 611.7122302158274 206.0 L 611.7122302158274 214.0" />
        <text x="611.7122302158274" font-family="-apple-system, system-ui, BlinkMacSystemFont, Roboto" y="216.0" dominant-baseline="hanging" text-anchor="middle" font-size="12" fill="#24292f">Aug 2022</text>
    
        
        <path stroke="#74838f"  stroke-width="2.0"  d="M 714.7482014388489 206.0 L 714.7482014388489 214.0" />
        <text x="714.7482014388489" font-family="-apple-system, system-ui, BlinkMacSystemFont, Roboto" y="216.0" dominant-baseline="hanging" text-anchor="middle" font-size="12" fill="#24292f">Sep 2022</text>
    
        
        <path stroke="#74838f"  stroke-width="2.0"  d="M 814.4604316546762 206.0 L 814.4604316546762 214.0" />
        <text x="814.4604316546762" font-family="-apple-system, system-ui, BlinkMacSystemFont, Roboto" y="216.0" dominant-baseline="hanging" text-anchor="middle" font-size="12" fill="#24292f">Oct 2022</text>
    
        
        <path stroke="#74838f"  stroke-width="2.0"  d="M 917.4964028776978 206.0 L 917.4964028776978 214.0" />
        <text x="917.4964028776978" font-family="-apple-system, system-ui, BlinkMacSystemFont, Roboto" y="216.0" dominant-baseline="hanging" text-anchor="middle" font-size="12" fill="#24292f">Nov 2022</text>
    
    <path stroke="#74838f"   stroke-linejoin="round" stroke-width="2.0" d="M 50.0 216.0 L 50.0 206.0 L 974.0 206.0 L 974.0 216.0"  fill="none" />
    <text x="512.0" y="25.0" font-family="-apple-system, system-ui, BlinkMacSystemFont, Roboto" dominant-baseline="middle" text-anchor="middle" font-size="18" fill="#24292f">Total daily suspensions</text>
</svg>
