<?xml version="1.0" standalone="no"?>
<svg width="1024.0" height="256.0"  viewBox="0 0 1024.0 256.0" preserveAspectRatio="xMidYMid meet" xmlns="http://www.w3.org/2000/svg">
    <path stroke="#e74c3c" stroke-linejoin="round" d="M 50.0 162.77066666666667 L 50 162.77066666666667L 51.86666666666667 194.12088888888889L 53.733333333333334 197.888L 55.6 198.2231111111111L 57.46666666666667 203.61955555555556L 59.333333333333336 200.16444444444443L 61.2 199.51733333333334L 63.06666666666667 191.65955555555556L 64.93333333333334 201.1582222222222L 66.8 198.89333333333332L 68.66666666666667 200.22222222222223L 70.53333333333333 202.70666666666665L 72.4 199.45955555555554L 74.26666666666667 195.9928888888889L 76.13333333333334 202.776L 78 198.98577777777777L 79.86666666666667 197.8071111111111L 81.73333333333333 191.96L 83.6 197.0328888888889L 85.46666666666667 199.70222222222222L 87.33333333333334 199.5751111111111L 89.2 198.5928888888889L 91.06666666666666 198.45422222222223L 92.93333333333334 200.06044444444444L 94.8 195.288L 96.66666666666666 200.12977777777778L 98.53333333333333 195.96977777777778L 100.4 200.92711111111112L 102.26666666666668 198.6968888888889L 104.13333333333333 191.22044444444444L 106 196.47822222222223L 107.86666666666667 191.38222222222223L 109.73333333333333 193.99377777777778L 111.6 199.92177777777778L 113.46666666666667 192.89600000000002L 115.33333333333333 197.33333333333334L 117.2 199.82933333333332L 119.06666666666666 194.00533333333334L 120.93333333333332 195.65777777777777L 122.8 195.81955555555555L 124.66666666666667 195.9351111111111L 126.53333333333335 196.83644444444445L 128.4 199.66755555555557L 130.26666666666665 199.4711111111111L 132.13333333333333 196.0391111111111L 134 194.39822222222222L 135.86666666666667 195.92355555555554L 137.73333333333335 199.03199999999998L 139.6 195.81955555555555L 141.46666666666667 194.44444444444446L 143.33333333333331 194.144L 145.2 187.04888888888888L 147.06666666666666 197.69155555555557L 148.93333333333334 196.33955555555556L 150.8 198.56977777777777L 152.66666666666666 194.8142222222222L 154.53333333333336 196.77866666666665L 156.4 197.32177777777778L 158.26666666666665 198.65066666666667L 160.13333333333333 198.35022222222221L 162 199.85244444444444L 163.86666666666667 192.07555555555555L 165.73333333333335 202.26755555555556L 167.6 193.80888888888887L 169.46666666666667 204.26666666666665L 171.33333333333334 206L 173.2 206L 175.06666666666666 206L 176.93333333333334 206L 178.8 191.04711111111112L 180.66666666666666 160.76L 182.53333333333333 194.02844444444446L 184.4 200.4417777777778L 186.26666666666668 193.7048888888889L 188.13333333333333 197.16L 190 200.00266666666667L 191.86666666666665 187.26844444444444L 193.73333333333335 198.18844444444443L 195.6 195.98133333333334L 197.46666666666667 191.08177777777777L 199.33333333333334 195.288L 201.2 190.97777777777776L 203.0666666666667 189.39466666666667L 204.93333333333334 198.15377777777778L 206.8 200.00266666666667L 208.66666666666666 192.4568888888889L 210.53333333333333 192.38755555555556L 212.4 199.56355555555555L 214.26666666666668 195.13777777777779L 216.13333333333333 193.10399999999998L 218 195.3111111111111L 219.86666666666665 199.93333333333334L 221.73333333333335 189.84533333333331L 223.6 198.70844444444444L 225.46666666666667 196.50133333333332L 227.33333333333331 195.69244444444445L 229.2 196.62844444444445L 231.0666666666667 193.65866666666668L 232.93333333333334 197.52977777777778L 234.8 194.3057777777778L 236.66666666666666 197.4257777777778L 238.53333333333333 179.19111111111113L 240.4 194.80266666666665L 242.26666666666668 196.29333333333335L 244.13333333333333 195.5191111111111L 246 197.0328888888889L 247.86666666666665 197.8071111111111L 249.73333333333335 198.00355555555555L 251.6 187.55733333333333L 253.46666666666667 193.13866666666667L 255.33333333333331 199.85244444444444L 257.2 193.53155555555554L 259.0666666666667 191.6248888888889L 260.93333333333334 195.8311111111111L 262.8 196.54755555555556L 264.66666666666663 196.81333333333333L 266.5333333333333 197.63377777777777L 268.4 193.55466666666666L 270.26666666666665 206L 272.1333333333333 187.16444444444446L 274 187.34933333333333L 275.8666666666667 191.8213333333333L 277.73333333333335 181.86044444444445L 279.6 201.8631111111111L 281.4666666666667 186.49422222222222L 283.33333333333337 196.39733333333334L 285.2 190.07644444444443L 287.06666666666666 194.664L 288.93333333333334 196.016L 290.8 197.18311111111112L 292.6666666666667 187.06044444444444L 294.5333333333333 198.29244444444444L 296.4 189.55644444444445L 298.26666666666665 189.7528888888889L 300.1333333333333 197.09066666666666L 302 183.328L 303.8666666666667 184.9688888888889L 305.73333333333335 206L 307.6 206L 309.46666666666664 206L 311.3333333333333 161.85777777777778L 313.2 198.81244444444445L 315.06666666666666 196.952L 316.9333333333333 196.05066666666667L 318.8 193.2888888888889L 320.6666666666667 197.29866666666666L 322.53333333333336 198.13066666666668L 324.40000000000003 201.0311111111111L 326.26666666666665 171.63377777777777L 328.1333333333333 189.85688888888888L 330 178.4862222222222L 331.8666666666667 192.09866666666667L 333.7333333333333 179.792L 335.59999999999997 177.46933333333334L 337.4666666666667 182.6L 339.33333333333337 188.1582222222222L 341.2 193.36977777777778L 343.06666666666666 189.99555555555554L 344.93333333333334 188.4471111111111L 346.8 190.01866666666666L 348.6666666666667 188.216L 350.5333333333333 194.05155555555555L 352.4 185.81244444444445L 354.26666666666665 172.61599999999999L 356.1333333333334 181.09777777777776L 358 173.56355555555555L 359.8666666666667 193.50844444444445L 361.73333333333335 192.51466666666667L 363.6 193.53155555555554L 365.46666666666664 195.25333333333333L 367.3333333333333 193.99377777777778L 369.2 194.46755555555555L 371.06666666666666 189.89155555555556L 372.93333333333334 195.58844444444446L 374.8 196.6168888888889L 376.6666666666667 193.11555555555555L 378.53333333333336 191.40533333333332L 380.40000000000003 201.16977777777777L 382.26666666666665 185.58133333333333L 384.1333333333333 191.44L 386 194.8488888888889L 387.8666666666667 190.45777777777778L 389.7333333333333 196.23555555555555L 391.59999999999997 192.5031111111111L 393.4666666666667 193.57777777777778L 395.33333333333337 187.18755555555555L 397.2 191.03555555555556L 399.06666666666666 183.0391111111111L 400.93333333333334 187.83466666666666L 402.8 192.064L 404.66666666666663 184.9111111111111L 406.5333333333333 189.76444444444445L 408.4 185.97422222222224L 410.26666666666665 186.22844444444445L 412.1333333333334 177.8968888888889L 414 189.672L 415.8666666666667 191.60177777777778L 417.73333333333335 189.39466666666667L 419.6 188.27377777777778L 421.46666666666664 191.9368888888889L 423.3333333333333 188.47022222222222L 425.2 188.88622222222222L 427.06666666666666 190.85066666666665L 428.93333333333334 194.80266666666665L 430.8 195.13777777777779L 432.6666666666667 201.48177777777778L 434.53333333333336 193.24266666666665L 436.4 182.06844444444445L 438.26666666666665 182.64622222222224L 440.1333333333333 182.12622222222222L 442 191.84444444444443L 443.8666666666667 187.592L 445.7333333333333 182.288L 447.6 187.22222222222223L 449.4666666666667 189.09422222222221L 451.33333333333337 180.63555555555556L 453.2 183.94044444444444L 455.06666666666666 174.76533333333333L 456.93333333333334 184.6568888888889L 458.8 172.93955555555556L 460.66666666666663 150.29066666666665L 462.5333333333333 179.0408888888889L 464.4 144.23555555555555L 466.26666666666665 186.864L 468.1333333333334 189.18666666666667L 470 188.424L 471.8666666666667 193.728L 473.73333333333335 187.31466666666665L 475.6 186.1822222222222L 477.46666666666664 187.58044444444445L 479.3333333333333 186.136L 481.2 193.312L 483.06666666666666 189.19822222222223L 484.93333333333334 189.9377777777778L 486.8 187.34933333333333L 488.6666666666667 186.51733333333334L 490.53333333333336 189.3831111111111L 492.4 188.0311111111111L 494.26666666666665 192.98844444444444L 496.1333333333333 187.73066666666668L 498 186.22844444444445L 499.8666666666667 182.81955555555555L 501.7333333333333 184.6222222222222L 503.6 181.248L 505.4666666666667 186.27466666666666L 507.33333333333337 194.44444444444446L 509.2 190.90844444444446L 511.06666666666666 187.30311111111112L 512.9333333333334 169.71555555555557L 514.8 120.77777777777779L 516.6666666666667 189.72977777777777L 518.5333333333333 188.51644444444446L 520.4 190.86222222222221L 522.2666666666667 192.82666666666665L 524.1333333333333 189.82222222222222L 526 183.16622222222222L 527.8666666666667 189.14044444444443L 529.7333333333333 179.9191111111111L 531.6 59.082666666666654L 533.4666666666667 164.26133333333334L 535.3333333333334 185.31555555555556L 537.1999999999999 183.57066666666668L 539.0666666666666 184.50666666666666L 540.9333333333334 185.00355555555555L 542.8 180.0808888888889L 544.6666666666667 190.74666666666667L 546.5333333333333 181.42133333333334L 548.4000000000001 162.58577777777776L 550.2666666666667 124.3368888888889L 552.1333333333332 153.52622222222223L 554 165.68266666666668L 555.8666666666666 182.1031111111111L 557.7333333333333 171.8071111111111L 559.6 180.76266666666666L 561.4666666666667 174.41866666666667L 563.3333333333334 179.376L 565.2 183.65155555555555L 567.0666666666667 178.22044444444444L 568.9333333333333 185.03822222222223L 570.8 188.47022222222222L 572.6666666666666 189.00177777777776L 574.5333333333333 185.52355555555556L 576.4 182.7848888888889L 578.2666666666667 182.69244444444445L 580.1333333333333 180.34666666666666L 582 169.5768888888889L 583.8666666666666 182.704L 585.7333333333333 186.136L 587.6 169.12622222222222L 589.4666666666667 143.0222222222222L 591.3333333333334 162.45866666666666L 593.2 153.67644444444443L 595.0666666666667 148.176L 596.9333333333334 157.16622222222222L 598.8000000000001 155.61777777777777L 600.6666666666666 164.63111111111112L 602.5333333333333 173.32088888888887L 604.4 151.0648888888889L 606.2666666666667 173.07822222222222L 608.1333333333333 173.70222222222222L 610 173.74844444444443L 611.8666666666667 184.472L 613.7333333333333 167.77422222222222L 615.5999999999999 160.9911111111111L 617.4666666666666 173.8871111111111L 619.3333333333333 167L 621.1999999999999 156.78488888888887L 623.0666666666667 175.07733333333334L 624.9333333333334 177.4L 626.8000000000001 187.22222222222223L 628.6666666666667 184.74933333333334L 630.5333333333334 183.952L 632.4 152.19733333333335L 634.2666666666667 183.96355555555556L 636.1333333333333 186.8871111111111L 638 185.87022222222222L 639.8666666666667 183.15466666666666L 641.7333333333333 183.06222222222223L 643.6 183.02755555555555L 645.4666666666667 176.10577777777777L 647.3333333333334 182.87733333333333L 649.1999999999999 180.48533333333333L 651.0666666666666 185.56977777777777L 652.9333333333333 180L 654.8 176.984L 656.6666666666666 178.20888888888888L 658.5333333333333 179.8382222222222L 660.4 183.09688888888888L 662.2666666666668 177.53866666666667L 664.1333333333333 183.44355555555555L 666 178.09333333333333L 667.8666666666667 179.59555555555556L 669.7333333333333 183.02755555555555L 671.6 180.4622222222222L 673.4666666666667 178.04711111111112L 675.3333333333334 186.89866666666666L 677.2 177.20355555555557L 679.0666666666667 179.07555555555555L 680.9333333333333 154.9591111111111L 682.8 133.512L 684.6666666666666 151.96622222222223L 686.5333333333333 151.57333333333332L 688.4 184.9111111111111L 690.2666666666667 185.28088888888888L 692.1333333333333 178.61333333333334L 694 142.39822222222222L 695.8666666666667 150.1751111111111L 697.7333333333333 164.04177777777778L 699.6 138.82755555555556L 701.4666666666667 134.864L 703.3333333333334 144.85955555555557L 705.2 145.57600000000002L 707.0666666666667 128.7048888888889L 708.9333333333334 120.36177777777777L 710.8000000000001 165.80977777777778L 712.6666666666666 163.51022222222224L 714.5333333333333 160.39022222222223L 716.4 177.504L 718.2666666666667 187.34933333333333L 720.1333333333333 188.04266666666666L 722 186.8871111111111L 723.8666666666667 176.08266666666668L 725.7333333333333 179.41066666666666L 727.5999999999999 195.0568888888889L 729.4666666666666 185.53511111111112L 731.3333333333333 183.6977777777778L 733.1999999999999 174.97333333333333L 735.0666666666667 178.61333333333334L 736.9333333333334 180.9591111111111L 738.8000000000001 184.0328888888889L 740.6666666666667 155.61777777777777L 742.5333333333334 149.7128888888889L 744.4 186.2631111111111L 746.2666666666667 191.28977777777777L 748.1333333333333 175.90933333333334L 750 175.49333333333334L 751.8666666666667 184.51822222222222L 753.7333333333333 189.69511111111112L 755.6 187.592L 757.4666666666667 180.09244444444445L 759.3333333333333 176.92622222222224L 761.1999999999999 163.31377777777777L 763.0666666666666 162.112L 764.9333333333333 167.1271111111111L 766.8 180.32355555555554L 768.6666666666666 184.11377777777778L 770.5333333333333 191.57866666666666L 772.4000000000001 195.54222222222222L 774.2666666666668 183.54755555555556L 776.1333333333333 164.03022222222222L 778 171.05599999999998L 779.8666666666667 169.92355555555557L 781.7333333333333 180.02311111111112L 783.6 172.07288888888888L 785.4666666666667 163.53333333333333L 787.3333333333334 171.34488888888887L 789.2 181.59466666666668L 791.0666666666666 179.80355555555556L 792.9333333333333 166.17955555555557L 794.8 154.92444444444445L 796.6666666666666 158.4488888888889L 798.5333333333333 156.4728888888889L 800.4 144.4551111111111L 802.2666666666667 158.52977777777778L 804.1333333333333 178.00088888888888L 806 144.99822222222224L 807.8666666666667 134.136L 809.7333333333333 139.8213333333333L 811.6 145.04444444444445L 813.4666666666667 153.168L 815.3333333333334 140.53777777777776L 817.2 113.86755555555555L 819.0666666666667 113.28977777777777L 820.9333333333334 164.85066666666665L 822.8 163.62577777777778L 824.6666666666666 150.16355555555555L 826.5333333333333 149.84L 828.4 56.54044444444443L 830.2666666666667 124.776L 832.1333333333333 64.07466666666667L 834 123.55111111111111L 835.8666666666667 157.536L 837.7333333333333 147.9911111111111L 839.5999999999999 136.22755555555557L 841.4666666666666 91.11466666666666L 843.3333333333333 107.36177777777779L 845.2 141.68177777777777L 847.0666666666667 157.73244444444444L 848.9333333333334 152.63644444444444L 850.8000000000001 96.22222222222221L 852.6666666666667 150.19822222222223L 854.5333333333333 116.57155555555556L 856.4 127.34133333333332L 858.2666666666667 180.53155555555554L 860.1333333333333 137.10577777777777L 862 122.64977777777779L 863.8666666666667 104.61155555555555L 865.7333333333333 141.76266666666666L 867.6 164.23822222222222L 869.4666666666667 160.51733333333334L 871.3333333333333 154.57777777777778L 873.1999999999999 175.01955555555554L 875.0666666666666 146.87022222222222L 876.9333333333333 153.23733333333334L 878.8 142.82577777777777L 880.6666666666666 130.98133333333334L 882.5333333333333 88.53777777777778L 884.4000000000001 174.488L 886.2666666666668 50.55466666666666L 888.1333333333333 84.43555555555557L 890 152.47466666666668L 891.8666666666667 114.90755555555555L 893.7333333333333 96.30311111111112L 895.6 171.46044444444445L 897.4666666666667 183.96355555555556L 899.3333333333334 169.87733333333333L 901.2 183.13155555555556L 903.0666666666666 171.992L 904.9333333333333 152.48622222222224L 906.8 169.704L 908.6666666666666 172.99733333333333L 910.5333333333333 164.61955555555556L 912.4 162.64355555555557L 914.2666666666667 170.51288888888888L 916.1333333333333 145.6568888888889L 918 159.81244444444445L 919.8666666666667 167.2542222222222L 921.7333333333333 141.55466666666666L 923.6 160.864L 925.4666666666667 157.7208888888889L 927.3333333333334 154.87822222222223L 929.2 145.29866666666666L 931.0666666666667 177.65422222222222L 932.9333333333334 119.73777777777778L 934.8 144.96355555555556L 936.6666666666666 151.15733333333333L 938.5333333333333 164.4231111111111L 940.4 174.1991111111111L 942.2666666666667 171.784L 944.1333333333333 157.12L 946 159.44266666666667L 947.8666666666667 169.77333333333334L 949.7333333333333 166.64177777777778L 951.5999999999999 176.5102222222222L 953.4666666666666 174.04888888888888L 955.3333333333334 157.17777777777778L 957.2 148.66133333333335L 959.0666666666667 141.01155555555556L 960.9333333333334 147.49422222222222L 962.8000000000001 147.08977777777778L 964.6666666666667 164.78133333333332L 966.5333333333333 160.4711111111111L 968.4 165.59022222222222L 970.2666666666667 150.85688888888888L 972.1333333333333 165.84444444444443L 974 188.80533333333335" stroke-width="2.0" fill="none" />
    
        
        
        <text x="45.0" font-family="-apple-system, system-ui, BlinkMacSystemFont, Roboto" y="50.0" dominant-baseline="middle" text-anchor="end" font-size="12" fill="#24292f">13500.0</text>
        
            
            <path stroke="#74838f" stroke-dasharray="10 6" stroke-width="0.5"  d="M 50.0 50.0 L 974.0 50.0" />
        
    
        
        
        <text x="45.0" font-family="-apple-system, system-ui, BlinkMacSystemFont, Roboto" y="81.2" dominant-baseline="middle" text-anchor="end" font-size="12" fill="#24292f">10800.0</text>
        
            
            
            <path stroke="#74838f" stroke-dasharray="10 6" stroke-width="0.5"  d="M 50.0 81.2 L 974.0 81.2" />
        
    
        
        
        <text x="45.0" font-family="-apple-system, system-ui, BlinkMacSystemFont, Roboto" y="112.4" dominant-baseline="middle" text-anchor="end" font-size="12" fill="#24292f">8100.0</text>
        
            
            
            <path stroke="#74838f" stroke-dasharray="10 6" stroke-width="0.5"  d="M 50.0 112.4 L 974.0 112.4" />
        
    
        
        
        <text x="45.0" font-family="-apple-system, system-ui, BlinkMacSystemFont, Roboto" y="143.6" dominant-baseline="middle" text-anchor="end" font-size="12" fill="#24292f">5400.0</text>
        
            
            
            <path stroke="#74838f" stroke-dasharray="10 6" stroke-width="0.5"  d="M 50.0 143.6 L 974.0 143.6" />
        
    
        
        
        <text x="45.0" font-family="-apple-system, system-ui, BlinkMacSystemFont, Roboto" y="174.8" dominant-baseline="middle" text-anchor="end" font-size="12" fill="#24292f">2700.0</text>
        
            
            
            <path stroke="#74838f" stroke-dasharray="10 6" stroke-width="0.5"  d="M 50.0 174.8 L 974.0 174.8" />
        
    
        
        
        <text x="45.0" font-family="-apple-system, system-ui, BlinkMacSystemFont, Roboto" y="206.0" dominant-baseline="middle" text-anchor="end" font-size="12" fill="#24292f">0.0</text>
        
    
    
        
        <path stroke="#74838f"  stroke-width="2.0"  d="M 79.86666666666667 206.0 L 79.86666666666667 214.0" />
        <text x="79.86666666666667" font-family="-apple-system, system-ui, BlinkMacSystemFont, Roboto" y="216.0" dominant-baseline="hanging" text-anchor="middle" font-size="12" fill="#24292f">Mar 2022</text>
    
        
        <path stroke="#74838f"  stroke-width="2.0"  d="M 137.73333333333335 206.0 L 137.73333333333335 214.0" />
        <text x="137.73333333333335" font-family="-apple-system, system-ui, BlinkMacSystemFont, Roboto" y="216.0" dominant-baseline="hanging" text-anchor="middle" font-size="12" fill="#24292f">Apr 2022</text>
    
        
        <path stroke="#74838f"  stroke-width="2.0"  d="M 193.73333333333335 206.0 L 193.73333333333335 214.0" />
        <text x="193.73333333333335" font-family="-apple-system, system-ui, BlinkMacSystemFont, Roboto" y="216.0" dominant-baseline="hanging" text-anchor="middle" font-size="12" fill="#24292f">May 2022</text>
    
        
        <path stroke="#74838f"  stroke-width="2.0"  d="M 251.6 206.0 L 251.6 214.0" />
        <text x="251.6" font-family="-apple-system, system-ui, BlinkMacSystemFont, Roboto" y="216.0" dominant-baseline="hanging" text-anchor="middle" font-size="12" fill="#24292f">Jun 2022</text>
    
        
        <path stroke="#74838f"  stroke-width="2.0"  d="M 307.6 206.0 L 307.6 214.0" />
        <text x="307.6" font-family="-apple-system, system-ui, BlinkMacSystemFont, Roboto" y="216.0" dominant-baseline="hanging" text-anchor="middle" font-size="12" fill="#24292f">Jul 2022</text>
    
        
        <path stroke="#74838f"  stroke-width="2.0"  d="M 365.46666666666664 206.0 L 365.46666666666664 214.0" />
        <text x="365.46666666666664" font-family="-apple-system, system-ui, BlinkMacSystemFont, Roboto" y="216.0" dominant-baseline="hanging" text-anchor="middle" font-size="12" fill="#24292f">Aug 2022</text>
    
        
        <path stroke="#74838f"  stroke-width="2.0"  d="M 423.3333333333333 206.0 L 423.3333333333333 214.0" />
        <text x="423.3333333333333" font-family="-apple-system, system-ui, BlinkMacSystemFont, Roboto" y="216.0" dominant-baseline="hanging" text-anchor="middle" font-size="12" fill="#24292f">Sep 2022</text>
    
        
        <path stroke="#74838f"  stroke-width="2.0"  d="M 479.3333333333333 206.0 L 479.3333333333333 214.0" />
        <text x="479.3333333333333" font-family="-apple-system, system-ui, BlinkMacSystemFont, Roboto" y="216.0" dominant-baseline="hanging" text-anchor="middle" font-size="12" fill="#24292f">Oct 2022</text>
    
        
        <path stroke="#74838f"  stroke-width="2.0"  d="M 537.1999999999999 206.0 L 537.1999999999999 214.0" />
        <text x="537.1999999999999" font-family="-apple-system, system-ui, BlinkMacSystemFont, Roboto" y="216.0" dominant-baseline="hanging" text-anchor="middle" font-size="12" fill="#24292f">Nov 2022</text>
    
        
        <path stroke="#74838f"  stroke-width="2.0"  d="M 593.2 206.0 L 593.2 214.0" />
        <text x="593.2" font-family="-apple-system, system-ui, BlinkMacSystemFont, Roboto" y="216.0" dominant-baseline="hanging" text-anchor="middle" font-size="12" fill="#24292f">Dec 2022</text>
    
        
        <path stroke="#74838f"  stroke-width="2.0"  d="M 651.0666666666666 206.0 L 651.0666666666666 214.0" />
        <text x="651.0666666666666" font-family="-apple-system, system-ui, BlinkMacSystemFont, Roboto" y="216.0" dominant-baseline="hanging" text-anchor="middle" font-size="12" fill="#24292f">Jan 2023</text>
    
        
        <path stroke="#74838f"  stroke-width="2.0"  d="M 708.9333333333334 206.0 L 708.9333333333334 214.0" />
        <text x="708.9333333333334" font-family="-apple-system, system-ui, BlinkMacSystemFont, Roboto" y="216.0" dominant-baseline="hanging" text-anchor="middle" font-size="12" fill="#24292f">Feb 2023</text>
    
        
        <path stroke="#74838f"  stroke-width="2.0"  d="M 761.1999999999999 206.0 L 761.1999999999999 214.0" />
        <text x="761.1999999999999" font-family="-apple-system, system-ui, BlinkMacSystemFont, Roboto" y="216.0" dominant-baseline="hanging" text-anchor="middle" font-size="12" fill="#24292f">Mar 2023</text>
    
        
        <path stroke="#74838f"  stroke-width="2.0"  d="M 819.0666666666667 206.0 L 819.0666666666667 214.0" />
        <text x="819.0666666666667" font-family="-apple-system, system-ui, BlinkMacSystemFont, Roboto" y="216.0" dominant-baseline="hanging" text-anchor="middle" font-size="12" fill="#24292f">Apr 2023</text>
    
        
        <path stroke="#74838f"  stroke-width="2.0"  d="M 875.0666666666666 206.0 L 875.0666666666666 214.0" />
        <text x="875.0666666666666" font-family="-apple-system, system-ui, BlinkMacSystemFont, Roboto" y="216.0" dominant-baseline="hanging" text-anchor="middle" font-size="12" fill="#24292f">May 2023</text>
    
        
        <path stroke="#74838f"  stroke-width="2.0"  d="M 932.9333333333334 206.0 L 932.9333333333334 214.0" />
        <text x="932.9333333333334" font-family="-apple-system, system-ui, BlinkMacSystemFont, Roboto" y="216.0" dominant-baseline="hanging" text-anchor="middle" font-size="12" fill="#24292f">Jun 2023</text>
    
    <path stroke="#74838f"   stroke-linejoin="round" stroke-width="2.0" d="M 50.0 216.0 L 50.0 206.0 L 974.0 206.0 L 974.0 216.0"  fill="none" />
    <text x="512.0" y="25.0" font-family="-apple-system, system-ui, BlinkMacSystemFont, Roboto" dominant-baseline="middle" text-anchor="middle" font-size="18" fill="#24292f">Total daily suspensions</text>
</svg>
