<?xml version="1.0" standalone="no"?>
<svg width="1024.0" height="256.0"  viewBox="0 0 1024.0 256.0" preserveAspectRatio="xMidYMid meet" xmlns="http://www.w3.org/2000/svg">
    <path stroke="#e74c3c" stroke-linejoin="round" d="M 50.0 161.108 L 50 161.108L 53.12162162162162 193.664L 56.24324324324324 197.576L 59.36486486486486 197.924L 62.486486486486484 203.528L 65.60810810810811 199.94L 68.72972972972973 199.268L 71.85135135135135 191.108L 74.97297297297297 200.972L 78.0945945945946 198.62L 81.21621621621622 200L 84.33783783783784 202.57999999999998L 87.45945945945945 199.208L 90.58108108108108 195.608L 93.70270270270271 202.652L 96.82432432432432 198.716L 99.94594594594595 197.49200000000002L 103.06756756756758 191.42000000000002L 106.1891891891892 196.688L 109.3108108108108 199.46L 112.43243243243244 199.328L 115.55405405405405 198.308L 118.67567567567568 198.164L 121.79729729729729 199.832L 124.91891891891892 194.876L 128.04054054054052 199.904L 131.16216216216216 195.584L 134.28378378378378 200.732L 137.40540540540542 198.416L 140.52702702702703 190.652L 143.64864864864865 196.112L 146.77027027027026 190.82L 149.8918918918919 193.53199999999998L 153.01351351351352 199.688L 156.13513513513516 192.392L 159.25675675675677 197L 162.3783783783784 199.59199999999998L 165.5 193.54399999999998L 168.6216216216216 195.26L 171.74324324324323 195.428L 174.86486486486487 195.548L 177.98648648648648 196.484L 181.1081081081081 199.424L 184.2297297297297 199.22L 187.35135135135135 195.656L 190.47297297297297 193.952L 193.59459459459458 195.536L 196.7162162162162 198.764L 199.83783783783784 195.428L 202.95945945945945 194L 206.08108108108107 193.688L 209.20270270270268 186.32L 212.32432432432432 197.372L 215.44594594594594 195.96800000000002L 218.56756756756755 198.284L 221.6891891891892 194.38400000000001L 224.8108108108108 196.424L 227.93243243243245 196.988L 231.05405405405406 198.368L 234.17567567567568 198.05599999999998L 237.29729729729732 199.61599999999999L 240.41891891891893 191.54L 243.54054054054055 202.124L 246.66216216216216 193.34L 249.7837837837838 204.2L 252.90540540540542 206L 256.02702702702703 206L 259.14864864864865 206L 262.2702702702703 206L 265.3918918918919 190.472L 268.51351351351354 159.01999999999998L 271.6351351351351 193.56799999999998L 274.7567567567568 200.228L 277.8783783783784 193.232L 281 196.82L 284.12162162162167 199.772L 287.2432432432432 186.548L 290.3648648648649 197.888L 293.48648648648646 195.596L 296.6081081081081 190.508L 299.72972972972974 194.876L 302.85135135135135 190.4L 305.97297297297297 188.756L 309.09459459459464 197.852L 312.2162162162162 199.772L 315.33783783783787 191.936L 318.4594594594594 191.864L 321.5810810810811 199.316L 324.7027027027027 194.72L 327.8243243243243 192.608L 330.94594594594594 194.9L 334.0675675675676 199.7L 337.18918918918916 189.224L 340.31081081081084 198.428L 343.4324324324324 196.136L 346.55405405405406 195.296L 349.6756756756757 196.268L 352.7972972972973 193.184L 355.9189189189189 197.204L 359.0405405405406 193.856L 362.16216216216213 197.096L 365.2837837837838 178.16L 368.40540540540536 194.372L 371.52702702702703 195.92000000000002L 374.64864864864865 195.11599999999999L 377.77027027027026 196.688L 380.8918918918919 197.49200000000002L 384.01351351351354 197.696L 387.1351351351351 186.848L 390.2567567567568 192.644L 393.3783783783784 199.61599999999999L 396.5 193.052L 399.6216216216216 191.072L 402.7432432432432 195.44L 405.8648648648649 196.184L 408.98648648648646 196.46L 412.1081081081081 197.312L 415.22972972972974 193.076L 418.35135135135135 206L 421.47297297297297 186.44L 424.59459459459464 186.632L 427.7162162162162 191.276L 430.83783783783787 180.93200000000002L 433.9594594594594 201.704L 437.0810810810811 185.744L 440.2027027027027 196.028L 443.3243243243243 189.464L 446.44594594594594 194.228L 449.5675675675676 195.632L 452.68918918918916 196.844L 455.81081081081084 186.332L 458.9324324324324 197.99599999999998L 462.05405405405406 188.924L 465.1756756756757 189.128L 468.2972972972973 196.748L 471.4189189189189 182.45600000000002L 474.5405405405406 184.16L 477.66216216216213 206L 480.7837837837838 206L 483.90540540540536 206L 487.02702702702703 160.16L 490.14864864864865 198.536L 493.27027027027026 196.60399999999998L 496.3918918918919 195.668L 499.51351351351354 192.8L 502.6351351351351 196.964L 505.7567567567568 197.828L 508.8783783783784 200.84L 512 170.312L 515.1216216216217 189.236L 518.2432432432433 177.428L 521.3648648648648 191.564L 524.4864864864865 178.784L 527.6081081081081 176.372L 530.7297297297298 181.7L 533.8513513513515 187.472L 536.9729729729729 192.88400000000001L 540.0945945945946 189.38L 543.2162162162163 187.772L 546.3378378378379 189.404L 549.4594594594595 187.532L 552.5810810810812 193.59199999999998L 555.7027027027027 185.036L 558.8243243243244 171.332L 561.9459459459459 180.14L 565.0675675675676 172.316L 568.1891891891893 193.028L 571.3108108108107 191.996L 574.4324324324324 193.052L 577.5540540540541 194.84L 580.6756756756757 193.53199999999998L 583.7972972972973 194.024L 586.9189189189188 189.272L 590.0405405405405 195.188L 593.1621621621622 196.256L 596.2837837837837 192.62L 599.4054054054054 190.844L 602.5270270270271 200.984L 605.6486486486486 184.796L 608.7702702702702 190.88L 611.8918918918919 194.42000000000002L 615.0135135135135 189.86L 618.1351351351352 195.86L 621.2567567567568 191.984L 624.3783783783783 193.1L 627.5 186.464L 630.6216216216217 190.46L 633.7432432432432 182.156L 636.8648648648648 187.136L 639.9864864864865 191.528L 643.1081081081081 184.1L 646.2297297297298 189.14L 649.3513513513514 185.204L 652.4729729729729 185.468L 655.5945945945946 176.828L 658.7162162162163 189.04399999999998L 661.8378378378378 191.048L 664.9594594594595 188.756L 668.0810810810812 187.592L 671.2027027027027 191.39600000000002L 674.3243243243243 187.796L 677.4459459459459 188.228L 680.5675675675676 190.268L 683.6891891891893 194.372L 686.8108108108107 194.72L 689.9324324324324 201.308L 693.0540540540541 192.752L 696.1756756756757 181.148L 699.2972972972973 181.748L 702.4189189189188 181.208L 705.5405405405405 191.3L 708.6621621621622 186.88400000000001L 711.7837837837837 181.376L 714.9054054054054 186.5L 718.0270270270271 188.44400000000002L 721.1486486486486 179.66L 724.2702702702702 183.09199999999998L 727.3918918918919 173.564L 730.5135135135135 183.836L 733.6351351351352 171.668L 736.7567567567568 148.148L 739.8783783783783 178.004L 743 141.86L 746.1216216216217 186.128L 749.2432432432432 188.54000000000002L 752.3648648648648 187.748L 755.4864864864865 193.256L 758.6081081081081 186.596L 761.7297297297298 185.42000000000002L 764.8513513513514 186.872L 767.9729729729729 185.372L 771.0945945945946 192.824L 774.2162162162163 188.552L 777.3378378378378 189.32L 780.4594594594595 186.632L 783.5810810810812 185.768L 786.7027027027027 188.744L 789.8243243243243 187.34L 792.9459459459459 192.488L 796.0675675675676 187.028L 799.1891891891893 185.468L 802.3108108108107 181.928L 805.4324324324324 183.8L 808.5540540540541 180.296L 811.6756756756757 185.516L 814.7972972972973 194L 817.9189189189188 190.328L 821.0405405405405 186.584L 824.1621621621622 168.32L 827.2837837837837 117.5L 830.4054054054054 189.10399999999998L 833.5270270270271 187.844L 836.6486486486486 190.28L 839.7702702702702 192.32L 842.8918918918919 189.2L 846.0135135135135 182.288L 849.1351351351352 188.49200000000002L 852.2567567567568 178.916L 855.3783783783783 53.432000000000016L 858.5 162.656L 861.6216216216217 184.52L 864.7432432432432 182.708L 867.8648648648648 183.68L 870.9864864864865 184.196L 874.1081081081081 179.084L 877.2297297297298 190.16L 880.3513513513514 180.476L 883.4729729729729 160.916L 886.5945945945946 121.196L 889.7162162162163 151.50799999999998L 892.8378378378378 164.132L 895.9594594594595 181.184L 899.0810810810812 170.49200000000002L 902.2027027027027 179.792L 905.3243243243243 173.204L 908.4459459459459 178.352L 911.5675675675676 182.792L 914.6891891891893 177.152L 917.8108108108107 184.232L 920.9324324324324 187.796L 924.0540540540541 188.348L 927.1756756756757 184.736L 930.2972972972973 181.892L 933.4189189189188 181.796L 936.5405405405405 179.36L 939.6621621621622 168.176L 942.7837837837837 181.808L 945.9054054054054 185.372L 949.0270270270271 167.708L 952.1486486486486 140.6L 955.2702702702702 160.784L 958.3918918918919 151.664L 961.5135135135135 145.952L 964.6351351351352 155.288L 967.7567567567568 153.68L 970.8783783783783 163.04L 974 191" stroke-width="2.0" fill="none" />
    
        
        
        <text x="45.0" font-family="-apple-system, system-ui, BlinkMacSystemFont, Roboto" y="50.0" dominant-baseline="middle" text-anchor="end" font-size="12" fill="#24292f">13000.0</text>
        
            
            <path stroke="#74838f" stroke-dasharray="10 6" stroke-width="0.5"  d="M 50.0 50.0 L 974.0 50.0" />
        
    
        
        
        <text x="45.0" font-family="-apple-system, system-ui, BlinkMacSystemFont, Roboto" y="81.2" dominant-baseline="middle" text-anchor="end" font-size="12" fill="#24292f">10400.0</text>
        
            
            
            <path stroke="#74838f" stroke-dasharray="10 6" stroke-width="0.5"  d="M 50.0 81.2 L 974.0 81.2" />
        
    
        
        
        <text x="45.0" font-family="-apple-system, system-ui, BlinkMacSystemFont, Roboto" y="112.4" dominant-baseline="middle" text-anchor="end" font-size="12" fill="#24292f">7800.0</text>
        
            
            
            <path stroke="#74838f" stroke-dasharray="10 6" stroke-width="0.5"  d="M 50.0 112.4 L 974.0 112.4" />
        
    
        
        
        <text x="45.0" font-family="-apple-system, system-ui, BlinkMacSystemFont, Roboto" y="143.6" dominant-baseline="middle" text-anchor="end" font-size="12" fill="#24292f">5200.0</text>
        
            
            
            <path stroke="#74838f" stroke-dasharray="10 6" stroke-width="0.5"  d="M 50.0 143.6 L 974.0 143.6" />
        
    
        
        
        <text x="45.0" font-family="-apple-system, system-ui, BlinkMacSystemFont, Roboto" y="174.8" dominant-baseline="middle" text-anchor="end" font-size="12" fill="#24292f">2600.0</text>
        
            
            
            <path stroke="#74838f" stroke-dasharray="10 6" stroke-width="0.5"  d="M 50.0 174.8 L 974.0 174.8" />
        
    
        
        
        <text x="45.0" font-family="-apple-system, system-ui, BlinkMacSystemFont, Roboto" y="206.0" dominant-baseline="middle" text-anchor="end" font-size="12" fill="#24292f">0.0</text>
        
    
    
        
        <path stroke="#74838f"  stroke-width="2.0"  d="M 99.94594594594595 206.0 L 99.94594594594595 214.0" />
        <text x="99.94594594594595" font-family="-apple-system, system-ui, BlinkMacSystemFont, Roboto" y="216.0" dominant-baseline="hanging" text-anchor="middle" font-size="12" fill="#24292f">Mar 2022</text>
    
        
        <path stroke="#74838f"  stroke-width="2.0"  d="M 196.7162162162162 206.0 L 196.7162162162162 214.0" />
        <text x="196.7162162162162" font-family="-apple-system, system-ui, BlinkMacSystemFont, Roboto" y="216.0" dominant-baseline="hanging" text-anchor="middle" font-size="12" fill="#24292f">Apr 2022</text>
    
        
        <path stroke="#74838f"  stroke-width="2.0"  d="M 290.3648648648649 206.0 L 290.3648648648649 214.0" />
        <text x="290.3648648648649" font-family="-apple-system, system-ui, BlinkMacSystemFont, Roboto" y="216.0" dominant-baseline="hanging" text-anchor="middle" font-size="12" fill="#24292f">May 2022</text>
    
        
        <path stroke="#74838f"  stroke-width="2.0"  d="M 387.1351351351351 206.0 L 387.1351351351351 214.0" />
        <text x="387.1351351351351" font-family="-apple-system, system-ui, BlinkMacSystemFont, Roboto" y="216.0" dominant-baseline="hanging" text-anchor="middle" font-size="12" fill="#24292f">Jun 2022</text>
    
        
        <path stroke="#74838f"  stroke-width="2.0"  d="M 480.7837837837838 206.0 L 480.7837837837838 214.0" />
        <text x="480.7837837837838" font-family="-apple-system, system-ui, BlinkMacSystemFont, Roboto" y="216.0" dominant-baseline="hanging" text-anchor="middle" font-size="12" fill="#24292f">Jul 2022</text>
    
        
        <path stroke="#74838f"  stroke-width="2.0"  d="M 577.5540540540541 206.0 L 577.5540540540541 214.0" />
        <text x="577.5540540540541" font-family="-apple-system, system-ui, BlinkMacSystemFont, Roboto" y="216.0" dominant-baseline="hanging" text-anchor="middle" font-size="12" fill="#24292f">Aug 2022</text>
    
        
        <path stroke="#74838f"  stroke-width="2.0"  d="M 674.3243243243243 206.0 L 674.3243243243243 214.0" />
        <text x="674.3243243243243" font-family="-apple-system, system-ui, BlinkMacSystemFont, Roboto" y="216.0" dominant-baseline="hanging" text-anchor="middle" font-size="12" fill="#24292f">Sep 2022</text>
    
        
        <path stroke="#74838f"  stroke-width="2.0"  d="M 767.9729729729729 206.0 L 767.9729729729729 214.0" />
        <text x="767.9729729729729" font-family="-apple-system, system-ui, BlinkMacSystemFont, Roboto" y="216.0" dominant-baseline="hanging" text-anchor="middle" font-size="12" fill="#24292f">Oct 2022</text>
    
        
        <path stroke="#74838f"  stroke-width="2.0"  d="M 864.7432432432432 206.0 L 864.7432432432432 214.0" />
        <text x="864.7432432432432" font-family="-apple-system, system-ui, BlinkMacSystemFont, Roboto" y="216.0" dominant-baseline="hanging" text-anchor="middle" font-size="12" fill="#24292f">Nov 2022</text>
    
        
        <path stroke="#74838f"  stroke-width="2.0"  d="M 958.3918918918919 206.0 L 958.3918918918919 214.0" />
        <text x="958.3918918918919" font-family="-apple-system, system-ui, BlinkMacSystemFont, Roboto" y="216.0" dominant-baseline="hanging" text-anchor="middle" font-size="12" fill="#24292f">Dec 2022</text>
    
    <path stroke="#74838f"   stroke-linejoin="round" stroke-width="2.0" d="M 50.0 216.0 L 50.0 206.0 L 974.0 206.0 L 974.0 216.0"  fill="none" />
    <text x="512.0" y="25.0" font-family="-apple-system, system-ui, BlinkMacSystemFont, Roboto" dominant-baseline="middle" text-anchor="middle" font-size="18" fill="#24292f">Total daily suspensions</text>
</svg>
