<?xml version="1.0" standalone="no"?>
<svg width="1024.0" height="256.0"  viewBox="0 0 1024.0 256.0" preserveAspectRatio="xMidYMid meet" xmlns="http://www.w3.org/2000/svg">
    <path stroke="#e74c3c" stroke-linejoin="round" d="M 41.0 133.0505 L 41 133.0505L 44.616279069767444 185.954L 48.23255813953488 192.311L 51.848837209302324 192.8765L 55.46511627906977 201.983L 59.081395348837205 196.1525L 62.69767441860465 195.0605L 66.31395348837209 181.8005L 69.93023255813954 197.8295L 73.54651162790697 194.0075L 77.16279069767441 196.25L 80.77906976744185 200.4425L 84.3953488372093 194.963L 88.01162790697674 189.113L 91.62790697674419 200.5595L 95.24418604651163 194.1635L 98.86046511627907 192.1745L 102.47674418604652 182.3075L 106.09302325581395 190.868L 109.7093023255814 195.3725L 113.32558139534883 195.15800000000002L 116.94186046511628 193.5005L 120.55813953488372 193.2665L 124.17441860465117 195.977L 127.79069767441861 187.9235L 131.40697674418607 196.094L 135.02325581395348 189.074L 138.63953488372096 197.4395L 142.25581395348837 193.676L 145.87209302325581 181.0595L 149.48837209302326 189.93200000000002L 153.1046511627907 181.3325L 156.72093023255815 185.7395L 160.3372093023256 195.743L 163.95348837209303 183.887L 167.56976744186045 191.375L 171.1860465116279 195.587L 174.80232558139537 185.75900000000001L 178.4186046511628 188.5475L 182.03488372093022 188.82049999999998L 185.65116279069767 189.0155L 189.2674418604651 190.5365L 192.88372093023256 195.314L 196.5 194.98250000000002L 200.11627906976744 189.191L 203.7325581395349 186.422L 207.34883720930233 188.99599999999998L 210.96511627906975 194.2415L 214.58139534883722 188.82049999999998L 218.19767441860466 186.5L 221.8139534883721 185.993L 225.43023255813952 174.02L 229.04651162790697 191.9795L 232.6627906976744 189.698L 236.27906976744188 193.4615L 239.8953488372093 187.124L 243.51162790697674 190.439L 247.12790697674419 191.3555L 250.74418604651163 193.598L 254.36046511627907 193.091L 257.9767441860465 195.626L 261.59302325581393 182.5025L 265.2093023255814 199.7015L 268.8255813953488 185.4275L 272.4418604651163 203.075L 276.0581395348837 206L 279.6744186046512 206L 283.29069767441865 206L 286.90697674418607 206L 290.5232558139535 180.767L 294.1395348837209 129.6575L 297.75581395348837 185.798L 301.3720930232558 196.6205L 304.98837209302326 185.252L 308.60465116279073 191.08249999999998L 312.22093023255815 195.8795L 315.8372093023256 174.3905L 319.453488372093 192.81799999999998L 323.06976744186045 189.0935L 326.6860465116279 180.8255L 330.30232558139534 187.9235L 333.9186046511628 180.65L 337.5348837209302 177.9785L 341.1511627906977 192.7595L 344.7674418604651 195.8795L 348.3837209302325 183.14600000000002L 352 183.029L 355.6162790697674 195.1385L 359.2325581395349 187.6505L 362.8488372093023 184.238L 366.4651162790698 187.9625L 370.08139534883725 195.7625L 373.69767441860466 178.739L 377.3139534883721 193.69549999999998L 380.9302325581395 189.971L 384.54651162790697 188.606L 388.16279069767444 190.1855L 391.77906976744185 185.174L 395.3953488372093 191.7065L 399.01162790697674 186.266L 402.6279069767442 191.531L 406.24418604651163 160.76L 409.86046511627904 187.1045L 413.4767441860465 189.62L 417.09302325581393 188.3135L 420.7093023255814 190.868L 424.3255813953488 192.1745L 427.9418604651163 192.506L 431.55813953488376 174.878L 435.1744186046511 184.2965L 438.7906976744186 195.626L 442.406976744186 184.9595L 446.0232558139535 181.742L 449.63953488372096 188.84L 453.25581395348837 190.049L 456.87209302325584 190.4975L 460.48837209302326 191.882L 464.1046511627907 184.9985L 467.72093023255815 206L 471.33720930232556 174.215L 474.95348837209303 174.527L 478.56976744186045 182.0735L 482.1860465116279 165.2645L 485.80232558139534 199.019L 489.4186046511628 173.084L 493.0348837209302 189.7955L 496.65116279069764 179.129L 500.2674418604651 186.8705L 503.8837209302325 189.152L 507.5 191.1215L 511.1162790697675 174.0395L 514.7325581395348 192.99349999999998L 518.3488372093024 178.2515L 521.9651162790698 178.583L 525.5813953488373 190.9655L 529.1976744186047 167.74099999999999L 532.8139534883721 170.51L 536.4302325581396 206L 540.046511627907 206L 543.6627906976744 206L 547.2790697674418 131.51L 550.8953488372092 193.871L 554.5116279069767 190.73149999999998L 558.1279069767442 189.2105L 561.7441860465116 184.55L 565.3604651162791 191.3165L 568.9767441860465 192.72050000000002L 572.5930232558139 197.615L 576.2093023255815 148.007L 579.8255813953489 178.7585L 583.4418604651163 159.5705L 587.0581395348837 182.54149999999998L 590.6744186046512 161.774L 594.2906976744187 157.8545L 597.906976744186 166.5125L 601.5232558139535 175.892L 605.1395348837209 184.6865L 608.7558139534883 178.9925L 612.3720930232558 176.3795L 615.9883720930233 179.0315L 619.6046511627907 175.9895L 623.2209302325581 185.837L 626.8372093023256 171.93349999999998L 630.453488372093 149.6645L 634.0697674418604 163.97750000000002L 637.686046511628 151.2635L 641.3023255813954 184.9205L 644.9186046511628 183.2435L 648.5348837209302 184.9595L 652.1511627906978 187.865L 655.767441860465 185.7395L 659.3837209302325 186.539L 663 178.817L 666.6162790697674 188.4305L 670.2325581395348 190.166L 673.8488372093024 184.2575L 677.4651162790698 181.3715L 681.0813953488372 197.849L 684.6976744186046 171.5435L 688.3139534883721 181.43L 691.9302325581396 187.1825L 695.546511627907 179.7725L 699.1627906976745 189.5225L 702.7790697674419 183.224L 706.3953488372093 185.0375L 710.0116279069767 174.254L 713.6279069767442 180.7475L 717.2441860465116 167.2535L 720.860465116279 175.346L 724.4767441860465 182.483L 728.0930232558139 170.4125L 731.7093023255813 178.6025L 735.3255813953489 172.2065L 738.9418604651163 172.6355L 742.5581395348837 158.59550000000002L 746.1744186046511 178.44650000000001L 749.7906976744187 181.703L 753.4069767441861 177.9785L 757.0232558139535 176.087L 760.639534883721 182.2685L 764.2558139534884 176.4185L 767.8720930232558 177.1205L 771.4883720930233 180.4355L 775.1046511627907 187.1045L 778.7209302325581 187.67000000000002L 782.3372093023255 198.3755L 785.953488372093 184.472L 789.5697674418604 165.6155L 793.1860465116279 166.5905L 796.8023255813954 165.713L 800.4186046511628 182.1125L 804.0348837209302 174.9365L 807.6511627906976 165.986L 811.2674418604652 174.3125L 814.8837209302326 177.4715L 818.5 163.1975L 822.1162790697675 168.7745L 825.732558139535 153.2915L 829.3488372093022 169.9835L 832.9651162790698 150.2105L 836.5813953488372 111.99050000000001L 840.1976744186046 160.5065L 843.813953488372 101.77250000000001L 847.4302325581396 173.708L 851.046511627907 177.6275L 854.6627906976744 176.3405L 858.2790697674419 185.291L 861.8953488372093 174.4685L 865.5116279069767 172.5575L 869.1279069767442 174.917L 872.7441860465117 172.4795L 876.3604651162791 184.589L 879.9767441860465 177.647L 883.593023255814 178.895L 887.2093023255813 174.527L 890.8255813953488 173.123L 894.4418604651163 177.959L 898.0581395348837 175.6775L 901.6744186046511 184.043L 905.2906976744185 175.1705L 908.9069767441861 172.6355L 912.5232558139535 166.883L 916.1395348837209 169.925L 919.7558139534884 164.231L 923.3720930232558 172.7135L 926.9883720930233 186.5L 930.6046511627907 180.533L 934.2209302325582 174.449L 937.8372093023256 144.76999999999998L 941.453488372093 62.1875L 945.0697674418604 178.544L 948.6860465116279 176.4965L 952.3023255813953 180.45499999999998L 955.9186046511628 183.77L 959.5348837209302 178.7L 963.1511627906976 167.46800000000002L 966.767441860465 177.5495L 970.3837209302326 161.9885L 974 56.64950000000002" stroke-width="2.0" fill="none" />
    
        
        
        <text x="36.0" font-family="-apple-system, system-ui, BlinkMacSystemFont, Roboto" y="50.0" dominant-baseline="middle" text-anchor="end" font-size="12" fill="#24292f">8000.0</text>
        
            
            <path stroke="#74838f" stroke-dasharray="10 6" stroke-width="0.5"  d="M 41.0 50.0 L 974.0 50.0" />
        
    
        
        
        <text x="36.0" font-family="-apple-system, system-ui, BlinkMacSystemFont, Roboto" y="81.2" dominant-baseline="middle" text-anchor="end" font-size="12" fill="#24292f">6400.0</text>
        
            
            
            <path stroke="#74838f" stroke-dasharray="10 6" stroke-width="0.5"  d="M 41.0 81.2 L 974.0 81.2" />
        
    
        
        
        <text x="36.0" font-family="-apple-system, system-ui, BlinkMacSystemFont, Roboto" y="112.4" dominant-baseline="middle" text-anchor="end" font-size="12" fill="#24292f">4800.0</text>
        
            
            
            <path stroke="#74838f" stroke-dasharray="10 6" stroke-width="0.5"  d="M 41.0 112.4 L 974.0 112.4" />
        
    
        
        
        <text x="36.0" font-family="-apple-system, system-ui, BlinkMacSystemFont, Roboto" y="143.6" dominant-baseline="middle" text-anchor="end" font-size="12" fill="#24292f">3200.0</text>
        
            
            
            <path stroke="#74838f" stroke-dasharray="10 6" stroke-width="0.5"  d="M 41.0 143.6 L 974.0 143.6" />
        
    
        
        
        <text x="36.0" font-family="-apple-system, system-ui, BlinkMacSystemFont, Roboto" y="174.8" dominant-baseline="middle" text-anchor="end" font-size="12" fill="#24292f">1600.0</text>
        
            
            
            <path stroke="#74838f" stroke-dasharray="10 6" stroke-width="0.5"  d="M 41.0 174.8 L 974.0 174.8" />
        
    
        
        
        <text x="36.0" font-family="-apple-system, system-ui, BlinkMacSystemFont, Roboto" y="206.0" dominant-baseline="middle" text-anchor="end" font-size="12" fill="#24292f">0.0</text>
        
    
    
        
        <path stroke="#74838f"  stroke-width="2.0"  d="M 98.86046511627907 206.0 L 98.86046511627907 214.0" />
        <text x="98.86046511627907" font-family="-apple-system, system-ui, BlinkMacSystemFont, Roboto" y="216.0" dominant-baseline="hanging" text-anchor="middle" font-size="12" fill="#24292f">Mar 2022</text>
    
        
        <path stroke="#74838f"  stroke-width="2.0"  d="M 210.96511627906975 206.0 L 210.96511627906975 214.0" />
        <text x="210.96511627906975" font-family="-apple-system, system-ui, BlinkMacSystemFont, Roboto" y="216.0" dominant-baseline="hanging" text-anchor="middle" font-size="12" fill="#24292f">Apr 2022</text>
    
        
        <path stroke="#74838f"  stroke-width="2.0"  d="M 319.453488372093 206.0 L 319.453488372093 214.0" />
        <text x="319.453488372093" font-family="-apple-system, system-ui, BlinkMacSystemFont, Roboto" y="216.0" dominant-baseline="hanging" text-anchor="middle" font-size="12" fill="#24292f">May 2022</text>
    
        
        <path stroke="#74838f"  stroke-width="2.0"  d="M 431.55813953488376 206.0 L 431.55813953488376 214.0" />
        <text x="431.55813953488376" font-family="-apple-system, system-ui, BlinkMacSystemFont, Roboto" y="216.0" dominant-baseline="hanging" text-anchor="middle" font-size="12" fill="#24292f">Jun 2022</text>
    
        
        <path stroke="#74838f"  stroke-width="2.0"  d="M 540.046511627907 206.0 L 540.046511627907 214.0" />
        <text x="540.046511627907" font-family="-apple-system, system-ui, BlinkMacSystemFont, Roboto" y="216.0" dominant-baseline="hanging" text-anchor="middle" font-size="12" fill="#24292f">Jul 2022</text>
    
        
        <path stroke="#74838f"  stroke-width="2.0"  d="M 652.1511627906978 206.0 L 652.1511627906978 214.0" />
        <text x="652.1511627906978" font-family="-apple-system, system-ui, BlinkMacSystemFont, Roboto" y="216.0" dominant-baseline="hanging" text-anchor="middle" font-size="12" fill="#24292f">Aug 2022</text>
    
        
        <path stroke="#74838f"  stroke-width="2.0"  d="M 764.2558139534884 206.0 L 764.2558139534884 214.0" />
        <text x="764.2558139534884" font-family="-apple-system, system-ui, BlinkMacSystemFont, Roboto" y="216.0" dominant-baseline="hanging" text-anchor="middle" font-size="12" fill="#24292f">Sep 2022</text>
    
        
        <path stroke="#74838f"  stroke-width="2.0"  d="M 872.7441860465117 206.0 L 872.7441860465117 214.0" />
        <text x="872.7441860465117" font-family="-apple-system, system-ui, BlinkMacSystemFont, Roboto" y="216.0" dominant-baseline="hanging" text-anchor="middle" font-size="12" fill="#24292f">Oct 2022</text>
    
    <path stroke="#74838f"   stroke-linejoin="round" stroke-width="2.0" d="M 41.0 216.0 L 41.0 206.0 L 974.0 206.0 L 974.0 216.0"  fill="none" />
    <text x="507.5" y="25.0" font-family="-apple-system, system-ui, BlinkMacSystemFont, Roboto" dominant-baseline="middle" text-anchor="middle" font-size="18" fill="#24292f">Total daily suspensions</text>
</svg>
