<?xml version="1.0" standalone="no"?>
<svg width="1024.0" height="256.0"  viewBox="0 0 1024.0 256.0" preserveAspectRatio="xMidYMid meet" xmlns="http://www.w3.org/2000/svg">
    <path stroke="#e74c3c" stroke-linejoin="round" d="M 50.0 161.108 L 50 161.108L 52.64 193.664L 55.28 197.576L 57.92 197.924L 60.56 203.528L 63.2 199.94L 65.84 199.268L 68.48 191.108L 71.12 200.972L 73.75999999999999 198.62L 76.4 200L 79.04 202.57999999999998L 81.68 199.208L 84.32 195.608L 86.96000000000001 202.652L 89.6 198.716L 92.24000000000001 197.49200000000002L 94.88 191.42000000000002L 97.52 196.688L 100.16 199.46L 102.8 199.328L 105.44 198.308L 108.08000000000001 198.164L 110.72 199.832L 113.36000000000001 194.876L 116 199.904L 118.64 195.584L 121.28 200.732L 123.92 198.416L 126.55999999999999 190.652L 129.2 196.112L 131.83999999999997 190.82L 134.48000000000002 193.53199999999998L 137.12 199.688L 139.76 192.392L 142.4 197L 145.04 199.59199999999998L 147.68 193.54399999999998L 150.32 195.26L 152.96 195.428L 155.6 195.548L 158.24 196.484L 160.88 199.424L 163.51999999999998 199.22L 166.16000000000003 195.656L 168.79999999999998 193.952L 171.44 195.536L 174.07999999999998 198.764L 176.72000000000003 195.428L 179.36 194L 182 193.688L 184.64 186.32L 187.28 197.372L 189.92000000000002 195.96800000000002L 192.56 198.284L 195.2 194.38400000000001L 197.84 196.424L 200.48000000000002 196.988L 203.11999999999998 198.368L 205.76 198.05599999999998L 208.4 199.61599999999999L 211.04000000000002 191.54L 213.67999999999998 202.124L 216.32 193.34L 218.96 204.2L 221.6 206L 224.24 206L 226.88 206L 229.52 206L 232.16 190.472L 234.8 159.01999999999998L 237.44 193.56799999999998L 240.07999999999998 200.228L 242.72 193.232L 245.36 196.82L 248 199.772L 250.64 186.548L 253.28 197.888L 255.92000000000002 195.596L 258.55999999999995 190.508L 261.2 194.876L 263.84000000000003 190.4L 266.48 188.756L 269.12 197.852L 271.76 199.772L 274.4 191.936L 277.03999999999996 191.864L 279.68 199.316L 282.32000000000005 194.72L 284.96000000000004 192.608L 287.59999999999997 194.9L 290.24 199.7L 292.88 189.224L 295.52 198.428L 298.15999999999997 196.136L 300.79999999999995 195.296L 303.44000000000005 196.268L 306.08 193.184L 308.72 197.204L 311.36 193.856L 314 197.096L 316.64000000000004 178.16L 319.28 194.372L 321.91999999999996 195.92000000000002L 324.56 195.11599999999999L 327.2 196.688L 329.84000000000003 197.49200000000002L 332.48 197.696L 335.12 186.848L 337.76 192.644L 340.4 199.61599999999999L 343.03999999999996 193.052L 345.68 191.072L 348.32 195.44L 350.96000000000004 196.184L 353.6 196.46L 356.23999999999995 197.312L 358.88 193.076L 361.52 206L 364.16 186.44L 366.8 186.632L 369.44 191.276L 372.08000000000004 180.93200000000002L 374.71999999999997 201.704L 377.35999999999996 185.744L 380 196.028L 382.64 189.464L 385.28000000000003 194.228L 387.92 195.632L 390.56 196.844L 393.2 186.332L 395.84 197.99599999999998L 398.48 188.924L 401.12 189.128L 403.76 196.748L 406.40000000000003 182.45600000000002L 409.04 184.16L 411.67999999999995 206L 414.32 206L 416.96 206L 419.6 160.16L 422.24 198.536L 424.88 196.60399999999998L 427.52000000000004 195.668L 430.15999999999997 192.8L 432.8 196.964L 435.44 197.828L 438.08 200.84L 440.72 170.312L 443.36 189.236L 446 177.428L 448.64 191.564L 451.28 178.784L 453.92 176.372L 456.56 181.7L 459.2 187.472L 461.84000000000003 192.88400000000001L 464.48 189.38L 467.11999999999995 187.772L 469.76 189.404L 472.4 187.532L 475.04 193.59199999999998L 477.68 185.036L 480.32 171.332L 482.96000000000004 180.14L 485.59999999999997 172.316L 488.24 193.028L 490.88 191.996L 493.52 193.052L 496.16 194.84L 498.8 193.53199999999998L 501.44 194.024L 504.08 189.272L 506.71999999999997 195.188L 509.36 196.256L 512 192.62L 514.6400000000001 190.844L 517.28 200.984L 519.9200000000001 184.796L 522.56 190.88L 525.1999999999999 194.42000000000002L 527.8399999999999 189.86L 530.48 195.86L 533.1200000000001 191.984L 535.76 193.1L 538.4000000000001 186.464L 541.04 190.46L 543.68 182.156L 546.3199999999999 187.136L 548.96 191.528L 551.5999999999999 184.1L 554.24 189.14L 556.8800000000001 185.204L 559.52 185.468L 562.16 176.816L 564.8000000000001 189.04399999999998L 567.44 191.048L 570.0799999999999 188.756L 572.72 187.592L 575.36 191.39600000000002L 578 187.796L 580.64 188.228L 583.2800000000001 190.268L 585.92 194.372L 588.56 194.72L 591.2 201.308L 593.8399999999999 192.752L 596.48 181.148L 599.12 181.748L 601.7600000000001 181.208L 604.4 191.3L 607.04 186.88400000000001L 609.6800000000001 181.376L 612.3199999999999 186.5L 614.96 188.44400000000002L 617.6 179.66L 620.24 183.09199999999998L 622.88 173.564L 625.52 183.836L 628.16 171.668L 630.8 148.148L 633.44 178.004L 636.0799999999999 141.86L 638.72 186.128L 641.36 188.54000000000002L 644 187.748L 646.64 193.256L 649.28 186.596L 651.9200000000001 185.42000000000002L 654.56 186.872L 657.2 185.372L 659.84 192.824L 662.4799999999999 188.552L 665.12 189.32L 667.76 186.632L 670.4 185.768L 673.04 188.744L 675.6800000000001 187.34L 678.32 192.488L 680.9599999999999 187.028L 683.6 185.468L 686.24 181.928L 688.88 183.8L 691.52 180.296L 694.1600000000001 185.516L 696.8 194L 699.4399999999999 190.328L 702.08 186.584L 704.7199999999999 168.32L 707.36 117.5L 710 189.10399999999998L 712.6400000000001 187.844L 715.28 190.28L 717.92 192.32L 720.5600000000001 189.2L 723.1999999999999 182.288L 725.84 188.49200000000002L 728.48 178.916L 731.12 53.432000000000016L 733.76 162.656L 736.4 184.52L 739.04 182.708L 741.68 183.68L 744.32 184.196L 746.96 179.084L 749.6 190.16L 752.24 180.476L 754.88 160.916L 757.52 121.196L 760.16 151.50799999999998L 762.8000000000001 164.132L 765.4399999999999 181.184L 768.08 170.49200000000002L 770.72 179.792L 773.3599999999999 173.204L 776 178.352L 778.64 182.792L 781.2800000000001 177.152L 783.92 184.232L 786.5600000000001 187.796L 789.2 188.348L 791.8399999999999 184.736L 794.48 181.892L 797.12 181.796L 799.76 179.36L 802.4 168.176L 805.0400000000001 181.808L 807.68 185.372L 810.3199999999999 167.708L 812.96 140.6L 815.6 160.784L 818.24 151.664L 820.88 145.952L 823.5200000000001 155.288L 826.16 153.68L 828.8 163.04L 831.44 172.064L 834.0799999999999 148.952L 836.72 171.812L 839.36 172.46L 842 172.508L 844.64 183.644L 847.28 166.304L 849.9200000000001 159.26L 852.56 172.652L 855.2 165.5L 857.84 154.892L 860.48 173.888L 863.12 176.3L 865.76 186.5L 868.4 183.932L 871.04 183.10399999999998L 873.6800000000001 150.128L 876.3199999999999 183.11599999999999L 878.96 186.152L 881.6 185.096L 884.2399999999999 182.276L 886.88 182.18L 889.52 182.144L 892.1600000000001 174.956L 894.8 181.988L 897.44 179.504L 900.08 184.784L 902.7199999999999 179L 905.36 175.868L 908 177.14L 910.64 178.832L 913.28 182.216L 915.9200000000001 176.444L 918.56 182.576L 921.1999999999999 177.02L 923.84 178.58L 926.48 182.144L 929.12 179.48L 931.76 176.972L 934.4000000000001 186.164L 937.04 176.096L 939.68 178.04L 942.32 152.996L 944.9599999999999 130.724L 947.6 149.888L 950.24 149.48L 952.88 184.1L 955.52 184.484L 958.16 177.56L 960.8000000000001 139.952L 963.4399999999999 148.028L 966.08 162.428L 968.72 136.244L 971.36 132.128L 974 188.852" stroke-width="2.0" fill="none" />
    
        
        
        <text x="45.0" font-family="-apple-system, system-ui, BlinkMacSystemFont, Roboto" y="50.0" dominant-baseline="middle" text-anchor="end" font-size="12" fill="#24292f">13000.0</text>
        
            
            <path stroke="#74838f" stroke-dasharray="10 6" stroke-width="0.5"  d="M 50.0 50.0 L 974.0 50.0" />
        
    
        
        
        <text x="45.0" font-family="-apple-system, system-ui, BlinkMacSystemFont, Roboto" y="81.2" dominant-baseline="middle" text-anchor="end" font-size="12" fill="#24292f">10400.0</text>
        
            
            
            <path stroke="#74838f" stroke-dasharray="10 6" stroke-width="0.5"  d="M 50.0 81.2 L 974.0 81.2" />
        
    
        
        
        <text x="45.0" font-family="-apple-system, system-ui, BlinkMacSystemFont, Roboto" y="112.4" dominant-baseline="middle" text-anchor="end" font-size="12" fill="#24292f">7800.0</text>
        
            
            
            <path stroke="#74838f" stroke-dasharray="10 6" stroke-width="0.5"  d="M 50.0 112.4 L 974.0 112.4" />
        
    
        
        
        <text x="45.0" font-family="-apple-system, system-ui, BlinkMacSystemFont, Roboto" y="143.6" dominant-baseline="middle" text-anchor="end" font-size="12" fill="#24292f">5200.0</text>
        
            
            
            <path stroke="#74838f" stroke-dasharray="10 6" stroke-width="0.5"  d="M 50.0 143.6 L 974.0 143.6" />
        
    
        
        
        <text x="45.0" font-family="-apple-system, system-ui, BlinkMacSystemFont, Roboto" y="174.8" dominant-baseline="middle" text-anchor="end" font-size="12" fill="#24292f">2600.0</text>
        
            
            
            <path stroke="#74838f" stroke-dasharray="10 6" stroke-width="0.5"  d="M 50.0 174.8 L 974.0 174.8" />
        
    
        
        
        <text x="45.0" font-family="-apple-system, system-ui, BlinkMacSystemFont, Roboto" y="206.0" dominant-baseline="middle" text-anchor="end" font-size="12" fill="#24292f">0.0</text>
        
    
    
        
        <path stroke="#74838f"  stroke-width="2.0"  d="M 92.24000000000001 206.0 L 92.24000000000001 214.0" />
        <text x="92.24000000000001" font-family="-apple-system, system-ui, BlinkMacSystemFont, Roboto" y="216.0" dominant-baseline="hanging" text-anchor="middle" font-size="12" fill="#24292f">Mar 2022</text>
    
        
        <path stroke="#74838f"  stroke-width="2.0"  d="M 174.07999999999998 206.0 L 174.07999999999998 214.0" />
        <text x="174.07999999999998" font-family="-apple-system, system-ui, BlinkMacSystemFont, Roboto" y="216.0" dominant-baseline="hanging" text-anchor="middle" font-size="12" fill="#24292f">Apr 2022</text>
    
        
        <path stroke="#74838f"  stroke-width="2.0"  d="M 253.28 206.0 L 253.28 214.0" />
        <text x="253.28" font-family="-apple-system, system-ui, BlinkMacSystemFont, Roboto" y="216.0" dominant-baseline="hanging" text-anchor="middle" font-size="12" fill="#24292f">May 2022</text>
    
        
        <path stroke="#74838f"  stroke-width="2.0"  d="M 335.12 206.0 L 335.12 214.0" />
        <text x="335.12" font-family="-apple-system, system-ui, BlinkMacSystemFont, Roboto" y="216.0" dominant-baseline="hanging" text-anchor="middle" font-size="12" fill="#24292f">Jun 2022</text>
    
        
        <path stroke="#74838f"  stroke-width="2.0"  d="M 414.32 206.0 L 414.32 214.0" />
        <text x="414.32" font-family="-apple-system, system-ui, BlinkMacSystemFont, Roboto" y="216.0" dominant-baseline="hanging" text-anchor="middle" font-size="12" fill="#24292f">Jul 2022</text>
    
        
        <path stroke="#74838f"  stroke-width="2.0"  d="M 496.16 206.0 L 496.16 214.0" />
        <text x="496.16" font-family="-apple-system, system-ui, BlinkMacSystemFont, Roboto" y="216.0" dominant-baseline="hanging" text-anchor="middle" font-size="12" fill="#24292f">Aug 2022</text>
    
        
        <path stroke="#74838f"  stroke-width="2.0"  d="M 578.0 206.0 L 578.0 214.0" />
        <text x="578.0" font-family="-apple-system, system-ui, BlinkMacSystemFont, Roboto" y="216.0" dominant-baseline="hanging" text-anchor="middle" font-size="12" fill="#24292f">Sep 2022</text>
    
        
        <path stroke="#74838f"  stroke-width="2.0"  d="M 657.2 206.0 L 657.2 214.0" />
        <text x="657.2" font-family="-apple-system, system-ui, BlinkMacSystemFont, Roboto" y="216.0" dominant-baseline="hanging" text-anchor="middle" font-size="12" fill="#24292f">Oct 2022</text>
    
        
        <path stroke="#74838f"  stroke-width="2.0"  d="M 739.04 206.0 L 739.04 214.0" />
        <text x="739.04" font-family="-apple-system, system-ui, BlinkMacSystemFont, Roboto" y="216.0" dominant-baseline="hanging" text-anchor="middle" font-size="12" fill="#24292f">Nov 2022</text>
    
        
        <path stroke="#74838f"  stroke-width="2.0"  d="M 818.24 206.0 L 818.24 214.0" />
        <text x="818.24" font-family="-apple-system, system-ui, BlinkMacSystemFont, Roboto" y="216.0" dominant-baseline="hanging" text-anchor="middle" font-size="12" fill="#24292f">Dec 2022</text>
    
        
        <path stroke="#74838f"  stroke-width="2.0"  d="M 900.08 206.0 L 900.08 214.0" />
        <text x="900.08" font-family="-apple-system, system-ui, BlinkMacSystemFont, Roboto" y="216.0" dominant-baseline="hanging" text-anchor="middle" font-size="12" fill="#24292f">Jan 2023</text>
    
    <path stroke="#74838f"   stroke-linejoin="round" stroke-width="2.0" d="M 50.0 216.0 L 50.0 206.0 L 974.0 206.0 L 974.0 216.0"  fill="none" />
    <text x="512.0" y="25.0" font-family="-apple-system, system-ui, BlinkMacSystemFont, Roboto" dominant-baseline="middle" text-anchor="middle" font-size="18" fill="#24292f">Total daily suspensions</text>
</svg>
