<?xml version="1.0" standalone="no"?>
<svg width="1024.0" height="256.0"  viewBox="0 0 1024.0 256.0" preserveAspectRatio="xMidYMid meet" xmlns="http://www.w3.org/2000/svg">
    <path stroke="#e74c3c" stroke-linejoin="round" d="M 50.0 161.108 L 50 161.108L 53.19723183391004 193.664L 56.39446366782007 197.576L 59.5916955017301 197.924L 62.78892733564014 203.528L 65.98615916955018 199.94L 69.1833910034602 199.268L 72.38062283737024 191.108L 75.57785467128028 200.972L 78.7750865051903 198.62L 81.97231833910035 200L 85.16955017301038 202.57999999999998L 88.3667820069204 199.208L 91.56401384083046 195.608L 94.76124567474048 202.652L 97.95847750865052 198.716L 101.15570934256056 197.49200000000002L 104.35294117647058 191.42000000000002L 107.55017301038062 196.688L 110.74740484429066 199.46L 113.9446366782007 199.328L 117.14186851211073 198.308L 120.33910034602076 198.164L 123.5363321799308 199.832L 126.73356401384082 194.876L 129.93079584775086 199.904L 133.1280276816609 195.584L 136.32525951557093 200.732L 139.52249134948096 198.416L 142.719723183391 190.652L 145.91695501730104 196.112L 149.11418685121106 190.82L 152.3114186851211 193.53199999999998L 155.50865051903114 199.688L 158.70588235294116 192.392L 161.9031141868512 197L 165.10034602076124 199.59199999999998L 168.29757785467126 193.54399999999998L 171.4948096885813 195.26L 174.69204152249137 195.428L 177.8892733564014 195.548L 181.0865051903114 196.484L 184.28373702422147 199.424L 187.4809688581315 199.22L 190.67820069204151 195.656L 193.87543252595157 193.952L 197.0726643598616 195.536L 200.26989619377161 198.764L 203.46712802768164 195.428L 206.6643598615917 194L 209.86159169550172 193.688L 213.05882352941177 186.32L 216.25605536332182 197.372L 219.45328719723184 195.96800000000002L 222.65051903114187 198.284L 225.8477508650519 194.38400000000001L 229.04498269896195 196.424L 232.24221453287197 196.988L 235.439446366782 198.368L 238.63667820069205 198.05599999999998L 241.83391003460207 199.61599999999999L 245.0311418685121 191.54L 248.22837370242215 202.124L 251.4256055363322 193.34L 254.62283737024222 204.2L 257.8200692041522 206L 261.01730103806227 206L 264.2145328719723 206L 267.4117647058823 206L 270.6089965397924 190.472L 273.8062283737024 159.01999999999998L 277.0034602076124 193.56799999999998L 280.2006920415225 200.228L 283.3979238754325 193.232L 286.5951557093425 196.82L 289.7923875432526 199.772L 292.9896193771626 186.548L 296.1868512110726 197.888L 299.38408304498273 195.596L 302.5813148788927 190.508L 305.7785467128028 194.876L 308.97577854671283 190.4L 312.1730103806228 188.756L 315.3702422145329 197.852L 318.56747404844293 199.772L 321.7647058823529 191.936L 324.961937716263 191.864L 328.15916955017303 199.316L 331.35640138408303 194.708L 334.5536332179931 192.608L 337.75086505190313 194.9L 340.94809688581313 199.7L 344.1453287197232 189.224L 347.34256055363323 198.428L 350.53979238754323 196.136L 353.7370242214533 195.296L 356.9342560553633 196.268L 360.13148788927333 193.184L 363.3287197231834 197.204L 366.5259515570934 193.856L 369.72318339100343 197.096L 372.92041522491354 178.16L 376.11764705882354 194.372L 379.3148788927336 195.92000000000002L 382.51211072664364 195.11599999999999L 385.70934256055364 196.688L 388.9065743944637 197.49200000000002L 392.1038062283737 197.696L 395.30103806228374 186.848L 398.4982698961938 192.644L 401.6955017301038 199.61599999999999L 404.89273356401384 193.052L 408.0899653979239 191.072L 411.2871972318339 195.44L 414.48442906574394 196.184L 417.681660899654 196.46L 420.878892733564 197.312L 424.07612456747404 193.076L 427.2733564013841 206L 430.4705882352941 186.44L 433.66782006920414 186.632L 436.86505190311414 191.276L 440.0622837370242 180.93200000000002L 443.2595155709343 201.704L 446.4567474048443 185.744L 449.65397923875435 196.028L 452.8512110726644 189.464L 456.0484429065744 194.228L 459.24567474048445 195.632L 462.4429065743945 196.844L 465.6401384083045 186.332L 468.83737024221455 197.99599999999998L 472.03460207612454 188.924L 475.2318339100346 189.128L 478.42906574394465 196.748L 481.62629757785464 182.45600000000002L 484.8235294117647 184.16L 488.02076124567475 206L 491.21799307958474 206L 494.4152249134948 206L 497.61245674740485 160.16L 500.80968858131484 198.536L 504.0069204152249 196.60399999999998L 507.20415224913495 195.668L 510.40138408304495 192.8L 513.598615916955 196.964L 516.795847750865 197.828L 519.9930795847752 200.84L 523.190311418685 170.312L 526.3875432525952 189.236L 529.5847750865051 177.428L 532.7820069204153 191.564L 535.9792387543253 178.784L 539.1764705882354 176.372L 542.3737024221452 181.7L 545.5709342560554 187.472L 548.7681660899655 192.88400000000001L 551.9653979238755 189.38L 555.1626297577855 187.772L 558.3598615916956 189.404L 561.5570934256056 187.532L 564.7543252595156 193.59199999999998L 567.9515570934257 185.036L 571.1487889273357 171.332L 574.3460207612457 180.14L 577.5432525951556 172.316L 580.7404844290658 193.028L 583.9377162629758 191.996L 587.1349480968859 193.052L 590.3321799307959 194.84L 593.5294117647059 193.53199999999998L 596.7266435986159 194.024L 599.923875432526 189.272L 603.121107266436 195.188L 606.3183391003461 196.256L 609.5155709342561 192.62L 612.7128027681661 190.844L 615.910034602076 200.984L 619.1072664359862 184.796L 622.3044982698963 190.88L 625.5017301038063 194.42000000000002L 628.6989619377163 189.86L 631.8961937716263 195.86L 635.0934256055364 191.984L 638.2906574394464 193.1L 641.4878892733565 186.464L 644.6851211072665 190.46L 647.8823529411765 182.156L 651.0795847750865 187.136L 654.2768166089966 191.528L 657.4740484429066 184.1L 660.6712802768167 189.14L 663.8685121107266 185.204L 667.0657439446367 185.468L 670.2629757785467 176.828L 673.4602076124568 189.04399999999998L 676.6574394463668 191.048L 679.8546712802769 188.756L 683.0519031141868 187.592L 686.2491349480969 191.39600000000002L 689.4463667820069 187.796L 692.643598615917 188.228L 695.8408304498271 190.268L 699.038062283737 194.372L 702.2352941176471 194.72L 705.4325259515571 201.308L 708.6297577854672 192.752L 711.8269896193772 181.148L 715.0242214532873 181.748L 718.2214532871972 181.208L 721.4186851211073 191.3L 724.6159169550173 186.88400000000001L 727.8131487889274 181.376L 731.0103806228374 186.5L 734.2076124567474 188.44400000000002L 737.4048442906574 179.66L 740.6020761245675 183.09199999999998L 743.7993079584775 173.564L 746.9965397923876 183.836L 750.1937716262976 171.668L 753.3910034602076 148.148L 756.5882352941176 178.004L 759.7854671280277 141.86L 762.9826989619378 186.128L 766.1799307958478 188.54000000000002L 769.3771626297578 187.748L 772.5743944636678 193.256L 775.7716262975779 186.596L 778.9688581314879 185.42000000000002L 782.166089965398 186.872L 785.363321799308 185.372L 788.560553633218 192.824L 791.757785467128 188.552L 794.9550173010381 189.32L 798.1522491349481 186.632L 801.3494809688582 185.768L 804.5467128027682 188.744L 807.7439446366782 187.34L 810.9411764705882 192.488L 814.1384083044983 187.028L 817.3356401384083 185.468L 820.5328719723184 181.928L 823.7301038062283 183.8L 826.9273356401384 180.296L 830.1245674740484 185.516L 833.3217993079585 194L 836.5190311418686 190.328L 839.7162629757786 186.584L 842.9134948096886 168.32L 846.1107266435986 117.5L 849.3079584775087 189.10399999999998L 852.5051903114187 187.844L 855.7024221453288 190.28L 858.8996539792387 192.32L 862.0968858131488 189.2L 865.2941176470588 182.288L 868.4913494809689 188.49200000000002L 871.6885813148789 178.916L 874.885813148789 53.432000000000016L 878.0830449826989 162.656L 881.280276816609 184.52L 884.477508650519 182.708L 887.6747404844291 183.68L 890.8719723183391 184.196L 894.0692041522491 179.084L 897.2664359861591 190.16L 900.4636678200692 180.476L 903.6608996539793 160.916L 906.8581314878893 121.196L 910.0553633217994 151.50799999999998L 913.2525951557093 164.132L 916.4498269896194 181.184L 919.6470588235294 170.49200000000002L 922.8442906574395 179.792L 926.0415224913495 173.144L 929.2387543252595 178.352L 932.4359861591695 182.792L 935.6332179930796 177.152L 938.8304498269896 184.232L 942.0276816608997 187.796L 945.2249134948097 188.336L 948.4221453287197 184.64L 951.6193771626297 181.868L 954.8166089965398 181.772L 958.0138408304498 179.276L 961.2110726643599 168.176L 964.4083044982699 181.7L 967.6055363321799 185.324L 970.8027681660899 167.6L 974 167.312" stroke-width="2.0" fill="none" />
    
        
        
        <text x="45.0" font-family="-apple-system, system-ui, BlinkMacSystemFont, Roboto" y="50.0" dominant-baseline="middle" text-anchor="end" font-size="12" fill="#24292f">13000.0</text>
        
            
            <path stroke="#74838f" stroke-dasharray="10 6" stroke-width="0.5"  d="M 50.0 50.0 L 974.0 50.0" />
        
    
        
        
        <text x="45.0" font-family="-apple-system, system-ui, BlinkMacSystemFont, Roboto" y="81.2" dominant-baseline="middle" text-anchor="end" font-size="12" fill="#24292f">10400.0</text>
        
            
            
            <path stroke="#74838f" stroke-dasharray="10 6" stroke-width="0.5"  d="M 50.0 81.2 L 974.0 81.2" />
        
    
        
        
        <text x="45.0" font-family="-apple-system, system-ui, BlinkMacSystemFont, Roboto" y="112.4" dominant-baseline="middle" text-anchor="end" font-size="12" fill="#24292f">7800.0</text>
        
            
            
            <path stroke="#74838f" stroke-dasharray="10 6" stroke-width="0.5"  d="M 50.0 112.4 L 974.0 112.4" />
        
    
        
        
        <text x="45.0" font-family="-apple-system, system-ui, BlinkMacSystemFont, Roboto" y="143.6" dominant-baseline="middle" text-anchor="end" font-size="12" fill="#24292f">5200.0</text>
        
            
            
            <path stroke="#74838f" stroke-dasharray="10 6" stroke-width="0.5"  d="M 50.0 143.6 L 974.0 143.6" />
        
    
        
        
        <text x="45.0" font-family="-apple-system, system-ui, BlinkMacSystemFont, Roboto" y="174.8" dominant-baseline="middle" text-anchor="end" font-size="12" fill="#24292f">2600.0</text>
        
            
            
            <path stroke="#74838f" stroke-dasharray="10 6" stroke-width="0.5"  d="M 50.0 174.8 L 974.0 174.8" />
        
    
        
        
        <text x="45.0" font-family="-apple-system, system-ui, BlinkMacSystemFont, Roboto" y="206.0" dominant-baseline="middle" text-anchor="end" font-size="12" fill="#24292f">0.0</text>
        
    
    
        
        <path stroke="#74838f"  stroke-width="2.0"  d="M 101.15570934256056 206.0 L 101.15570934256056 214.0" />
        <text x="101.15570934256056" font-family="-apple-system, system-ui, BlinkMacSystemFont, Roboto" y="216.0" dominant-baseline="hanging" text-anchor="middle" font-size="12" fill="#24292f">Mar 2022</text>
    
        
        <path stroke="#74838f"  stroke-width="2.0"  d="M 200.26989619377161 206.0 L 200.26989619377161 214.0" />
        <text x="200.26989619377161" font-family="-apple-system, system-ui, BlinkMacSystemFont, Roboto" y="216.0" dominant-baseline="hanging" text-anchor="middle" font-size="12" fill="#24292f">Apr 2022</text>
    
        
        <path stroke="#74838f"  stroke-width="2.0"  d="M 296.1868512110726 206.0 L 296.1868512110726 214.0" />
        <text x="296.1868512110726" font-family="-apple-system, system-ui, BlinkMacSystemFont, Roboto" y="216.0" dominant-baseline="hanging" text-anchor="middle" font-size="12" fill="#24292f">May 2022</text>
    
        
        <path stroke="#74838f"  stroke-width="2.0"  d="M 395.30103806228374 206.0 L 395.30103806228374 214.0" />
        <text x="395.30103806228374" font-family="-apple-system, system-ui, BlinkMacSystemFont, Roboto" y="216.0" dominant-baseline="hanging" text-anchor="middle" font-size="12" fill="#24292f">Jun 2022</text>
    
        
        <path stroke="#74838f"  stroke-width="2.0"  d="M 491.21799307958474 206.0 L 491.21799307958474 214.0" />
        <text x="491.21799307958474" font-family="-apple-system, system-ui, BlinkMacSystemFont, Roboto" y="216.0" dominant-baseline="hanging" text-anchor="middle" font-size="12" fill="#24292f">Jul 2022</text>
    
        
        <path stroke="#74838f"  stroke-width="2.0"  d="M 590.3321799307959 206.0 L 590.3321799307959 214.0" />
        <text x="590.3321799307959" font-family="-apple-system, system-ui, BlinkMacSystemFont, Roboto" y="216.0" dominant-baseline="hanging" text-anchor="middle" font-size="12" fill="#24292f">Aug 2022</text>
    
        
        <path stroke="#74838f"  stroke-width="2.0"  d="M 689.4463667820069 206.0 L 689.4463667820069 214.0" />
        <text x="689.4463667820069" font-family="-apple-system, system-ui, BlinkMacSystemFont, Roboto" y="216.0" dominant-baseline="hanging" text-anchor="middle" font-size="12" fill="#24292f">Sep 2022</text>
    
        
        <path stroke="#74838f"  stroke-width="2.0"  d="M 785.363321799308 206.0 L 785.363321799308 214.0" />
        <text x="785.363321799308" font-family="-apple-system, system-ui, BlinkMacSystemFont, Roboto" y="216.0" dominant-baseline="hanging" text-anchor="middle" font-size="12" fill="#24292f">Oct 2022</text>
    
        
        <path stroke="#74838f"  stroke-width="2.0"  d="M 884.477508650519 206.0 L 884.477508650519 214.0" />
        <text x="884.477508650519" font-family="-apple-system, system-ui, BlinkMacSystemFont, Roboto" y="216.0" dominant-baseline="hanging" text-anchor="middle" font-size="12" fill="#24292f">Nov 2022</text>
    
    <path stroke="#74838f"   stroke-linejoin="round" stroke-width="2.0" d="M 50.0 216.0 L 50.0 206.0 L 974.0 206.0 L 974.0 216.0"  fill="none" />
    <text x="512.0" y="25.0" font-family="-apple-system, system-ui, BlinkMacSystemFont, Roboto" dominant-baseline="middle" text-anchor="middle" font-size="18" fill="#24292f">Total daily suspensions</text>
</svg>
