<?xml version="1.0" standalone="no"?>
<svg width="1024.0" height="256.0"  viewBox="0 0 1024.0 256.0" preserveAspectRatio="xMidYMid meet" xmlns="http://www.w3.org/2000/svg">
    <path stroke="#e74c3c" stroke-linejoin="round" d="M 50.0 161.108 L 50 161.108L 52.25916870415648 193.664L 54.51833740831296 197.576L 56.77750611246944 197.924L 59.03667481662592 203.528L 61.2958435207824 199.94L 63.55501222493888 199.268L 65.81418092909536 191.108L 68.07334963325184 200.972L 70.33251833740832 198.62L 72.5916870415648 200L 74.85085574572128 202.57999999999998L 77.11002444987776 199.208L 79.36919315403424 195.608L 81.62836185819071 202.652L 83.8875305623472 198.716L 86.14669926650367 197.49200000000002L 88.40586797066015 191.42000000000002L 90.66503667481663 196.688L 92.92420537897311 199.46L 95.18337408312959 199.328L 97.44254278728607 198.308L 99.70171149144254 198.164L 101.96088019559903 199.832L 104.22004889975551 194.876L 106.47921760391198 199.904L 108.73838630806847 195.584L 110.99755501222494 200.732L 113.25672371638142 198.416L 115.5158924205379 190.652L 117.77506112469437 196.112L 120.03422982885085 190.82L 122.29339853300733 193.53199999999998L 124.55256723716381 199.688L 126.8117359413203 192.392L 129.0709046454768 197L 131.33007334963327 199.59199999999998L 133.58924205378975 193.54399999999998L 135.84841075794623 195.26L 138.1075794621027 195.428L 140.36674816625919 195.548L 142.62591687041567 196.484L 144.88508557457214 199.424L 147.14425427872862 199.22L 149.40342298288508 195.656L 151.66259168704156 193.952L 153.92176039119806 195.536L 156.18092909535454 198.764L 158.44009779951102 195.428L 160.69926650366747 194L 162.95843520782395 193.688L 165.21760391198046 186.32L 167.47677261613694 197.372L 169.7359413202934 195.96800000000002L 171.99511002444987 198.284L 174.25427872860638 194.38400000000001L 176.51344743276283 196.424L 178.7726161369193 196.988L 181.0317848410758 198.368L 183.29095354523227 198.05599999999998L 185.55012224938875 199.61599999999999L 187.80929095354523 191.54L 190.0684596577017 202.124L 192.3276283618582 193.34L 194.58679706601467 204.2L 196.84596577017115 206L 199.10513447432763 206L 201.3643031784841 206L 203.6234718826406 206L 205.88264058679707 190.472L 208.14180929095355 159.01999999999998L 210.40097799511003 193.56799999999998L 212.6601466992665 200.228L 214.91931540342298 193.232L 217.17848410757946 196.82L 219.43765281173594 199.772L 221.69682151589242 186.548L 223.9559902200489 197.888L 226.21515892420538 195.596L 228.47432762836186 190.508L 230.73349633251834 194.876L 232.99266503667482 190.4L 235.2518337408313 188.756L 237.51100244498775 197.852L 239.77017114914426 199.772L 242.02933985330074 191.936L 244.28850855745722 191.864L 246.5476772616137 199.316L 248.80684596577015 194.72L 251.06601466992666 192.608L 253.3251833740831 194.9L 255.58435207823962 199.7L 257.8435207823961 189.224L 260.10268948655255 198.428L 262.3618581907091 196.136L 264.6210268948655 195.296L 266.88019559902204 196.268L 269.13936430317847 193.184L 271.39853300733495 197.204L 273.6577017114914 193.856L 275.9168704156479 197.096L 278.1760391198044 178.16L 280.4352078239609 194.372L 282.69437652811735 195.92000000000002L 284.9535452322739 195.11599999999999L 287.2127139364303 196.688L 289.4718826405868 197.49200000000002L 291.73105134474326 197.696L 293.99022004889974 186.848L 296.2493887530562 192.644L 298.50855745721276 199.61599999999999L 300.7677261613692 193.052L 303.02689486552566 191.072L 305.28606356968214 195.44L 307.5452322738386 196.184L 309.8044009779951 196.46L 312.0635696821516 197.312L 314.32273838630806 193.076L 316.58190709046454 206L 318.841075794621 186.44L 321.1002444987775 186.632L 323.359413202934 191.276L 325.61858190709046 180.93200000000002L 327.87775061124694 201.704L 330.1369193154034 185.744L 332.3960880195599 196.028L 334.6552567237164 189.464L 336.91442542787286 194.228L 339.17359413202934 195.632L 341.4327628361858 196.844L 343.6919315403423 186.332L 345.9511002444988 197.99599999999998L 348.21026894865525 188.924L 350.46943765281173 189.128L 352.7286063569682 196.748L 354.9877750611247 182.45600000000002L 357.2469437652812 184.16L 359.50611246943765 206L 361.76528117359413 206L 364.0244498777506 206L 366.2836185819071 160.16L 368.5427872860636 198.536L 370.80195599022005 196.60399999999998L 373.06112469437653 195.668L 375.320293398533 192.8L 377.5794621026895 196.964L 379.83863080684597 197.828L 382.09779951100245 200.84L 384.35696821515893 170.312L 386.6161369193154 189.236L 388.8753056234719 177.428L 391.13447432762837 191.564L 393.39364303178485 178.784L 395.6528117359413 176.372L 397.9119804400978 181.7L 400.1711491442543 187.472L 402.43031784841077 192.88400000000001L 404.68948655256725 189.38L 406.9486552567237 187.772L 409.2078239608802 189.404L 411.4669926650367 187.532L 413.72616136919316 193.59199999999998L 415.98533007334964 185.036L 418.2444987775061 171.332L 420.5036674816626 180.14L 422.7628361858191 172.316L 425.0220048899755 193.028L 427.28117359413204 191.996L 429.5403422982885 193.052L 431.799511002445 194.84L 434.0586797066015 193.53199999999998L 436.3178484107579 194.024L 438.57701711491444 189.272L 440.8361858190709 195.188L 443.0953545232274 196.256L 445.3545232273838 192.62L 447.6136919315403 190.844L 449.87286063569684 200.984L 452.1320293398533 184.796L 454.3911980440098 190.88L 456.6503667481662 194.42000000000002L 458.9095354523227 189.86L 461.16870415647924 195.86L 463.4278728606357 191.984L 465.6870415647922 193.1L 467.9462102689486 186.464L 470.2053789731051 190.46L 472.46454767726163 182.156L 474.7237163814181 187.136L 476.9828850855746 191.528L 479.242053789731 184.1L 481.5012224938875 189.14L 483.76039119804403 185.204L 486.0195599022005 185.468L 488.278728606357 176.816L 490.5378973105134 189.04399999999998L 492.7970660146699 191.048L 495.05623471882643 188.756L 497.3154034229829 187.592L 499.5745721271394 191.39600000000002L 501.8337408312958 187.796L 504.0929095354523 188.228L 506.35207823960883 190.268L 508.6112469437653 194.372L 510.8704156479218 194.72L 513.1295843520783 201.308L 515.3887530562347 192.752L 517.6479217603912 181.148L 519.9070904645478 181.748L 522.1662591687041 181.208L 524.4254278728606 191.3L 526.6845965770171 186.88400000000001L 528.9437652811736 181.376L 531.2029339853301 186.5L 533.4621026894865 188.44400000000002L 535.7212713936431 179.66L 537.9804400977995 183.09199999999998L 540.2396088019559 173.564L 542.4987775061124 183.836L 544.757946210269 171.668L 547.0171149144255 148.148L 549.2762836185818 178.004L 551.5354523227384 141.86L 553.7946210268949 186.128L 556.0537897310513 188.54000000000002L 558.3129584352079 187.748L 560.5721271393643 193.256L 562.8312958435207 186.596L 565.0904645476772 185.42000000000002L 567.3496332518337 186.872L 569.6088019559902 185.372L 571.8679706601467 192.824L 574.1271393643032 188.552L 576.3863080684597 189.32L 578.6454767726161 186.632L 580.9046454767727 185.768L 583.1638141809291 188.744L 585.4229828850855 187.34L 587.682151589242 192.488L 589.9413202933985 187.028L 592.200488997555 185.468L 594.4596577017115 181.928L 596.718826405868 183.8L 598.9779951100245 180.296L 601.2371638141809 185.516L 603.4963325183375 194L 605.7555012224939 190.328L 608.0146699266503 186.584L 610.2738386308068 168.32L 612.5330073349633 117.5L 614.7921760391198 189.10399999999998L 617.0513447432763 187.844L 619.3105134474328 190.28L 621.5696821515893 192.32L 623.8288508557457 189.2L 626.0880195599022 182.288L 628.3471882640587 188.49200000000002L 630.6063569682151 178.916L 632.8655256723716 53.432000000000016L 635.124694376528 162.656L 637.3838630806846 184.52L 639.6430317848411 182.708L 641.9022004889976 183.68L 644.1613691931541 184.196L 646.4205378973105 179.084L 648.679706601467 190.16L 650.9388753056235 180.476L 653.1980440097799 160.916L 655.4572127139364 121.196L 657.7163814180929 151.50799999999998L 659.9755501222494 164.132L 662.2347188264059 181.184L 664.4938875305623 170.49200000000002L 666.7530562347189 179.792L 669.0122249388753 173.204L 671.2713936430318 178.352L 673.5305623471883 182.792L 675.7897310513447 177.152L 678.0488997555012 184.232L 680.3080684596576 187.796L 682.5672371638142 188.348L 684.8264058679706 184.736L 687.0855745721271 181.892L 689.3447432762837 181.796L 691.6039119804401 179.36L 693.8630806845966 168.176L 696.1222493887531 181.808L 698.3814180929095 185.372L 700.640586797066 167.708L 702.8997555012224 140.6L 705.158924205379 160.784L 707.4180929095354 151.664L 709.6772616136919 145.952L 711.9364303178485 155.288L 714.1955990220049 153.68L 716.4547677261614 163.04L 718.7139364303179 172.064L 720.9731051344743 148.952L 723.2322738386308 171.812L 725.4914425427872 172.46L 727.7506112469438 172.508L 730.0097799511002 183.644L 732.2689486552567 166.304L 734.5281173594133 159.26L 736.7872860635697 172.652L 739.0464547677262 165.5L 741.3056234718827 154.892L 743.5647921760391 173.888L 745.8239608801956 176.3L 748.083129584352 186.5L 750.3422982885086 183.932L 752.601466992665 183.10399999999998L 754.8606356968215 150.128L 757.1198044009781 183.11599999999999L 759.3789731051345 186.152L 761.638141809291 185.096L 763.8973105134475 182.276L 766.1564792176039 182.18L 768.4156479217604 182.144L 770.6748166259168 174.956L 772.9339853300734 181.988L 775.1931540342298 179.504L 777.4523227383863 184.784L 779.7114914425429 179L 781.9706601466993 175.868L 784.2298288508558 177.14L 786.4889975550122 178.832L 788.7481662591687 182.216L 791.0073349633252 176.444L 793.2665036674816 182.576L 795.5256723716382 177.02L 797.7848410757946 178.58L 800.044009779951 182.144L 802.3031784841077 179.48L 804.5623471882641 176.972L 806.8215158924206 186.164L 809.080684596577 176.096L 811.3398533007335 178.04L 813.59902200489 152.996L 815.8581907090464 130.724L 818.117359413203 149.888L 820.3765281173594 149.48L 822.6356968215158 184.1L 824.8948655256725 184.484L 827.1540342298289 177.56L 829.4132029339853 139.952L 831.6723716381418 148.028L 833.9315403422983 162.428L 836.1907090464548 136.244L 838.4498777506112 132.128L 840.7090464547676 142.508L 842.9682151589242 143.252L 845.2273838630806 125.732L 847.4865525672371 117.06800000000001L 849.7457212713937 164.264L 852.0048899755501 161.876L 854.2640586797066 158.636L 856.5232273838631 176.40800000000002L 858.7823960880196 186.632L 861.041564792176 187.352L 863.3007334963324 186.152L 865.559902200489 174.932L 867.8190709046454 178.388L 870.0782396088019 194.636L 872.3374083129585 184.748L 874.5965770171149 182.84L 876.8557457212714 173.78L 879.1149144254279 177.56L 881.3740831295844 179.996L 883.6332518337408 183.188L 885.8924205378972 153.68L 888.1515892420538 147.548L 890.4107579462102 185.504L 892.6699266503667 190.724L 894.9290953545233 174.752L 897.1882640586797 174.32L 899.4474327628362 183.692L 901.7066014669927 189.06799999999998L 903.9657701711492 186.88400000000001L 906.2249388753056 179.096L 908.484107579462 175.808L 910.7432762836186 161.672L 913.002444987775 160.424L 915.2616136919315 165.632L 917.5207823960881 179.336L 919.7799511002445 183.272L 922.039119804401 191.024L 924.2982885085574 195.14L 926.557457212714 182.684L 928.8166259168704 162.416L 931.0757946210268 169.712L 933.3349633251834 168.536L 935.5941320293398 179.024L 937.8533007334963 170.768L 940.1124694376529 161.9L 942.3716381418093 170.012L 944.6308068459658 180.656L 946.8899755501222 178.796L 949.1491442542788 164.648L 951.4083129584352 152.95999999999998L 953.6674816625916 156.62L 955.9266503667482 154.568L 958.1858190709046 142.088L 960.4449877750611 156.704L 962.7041564792177 176.924L 964.9633251833741 142.652L 967.2224938875306 131.372L 969.481662591687 137.276L 971.7408312958436 142.7L 974 194.39600000000002" stroke-width="2.0" fill="none" />
    
        
        
        <text x="45.0" font-family="-apple-system, system-ui, BlinkMacSystemFont, Roboto" y="50.0" dominant-baseline="middle" text-anchor="end" font-size="12" fill="#24292f">13000.0</text>
        
            
            <path stroke="#74838f" stroke-dasharray="10 6" stroke-width="0.5"  d="M 50.0 50.0 L 974.0 50.0" />
        
    
        
        
        <text x="45.0" font-family="-apple-system, system-ui, BlinkMacSystemFont, Roboto" y="81.2" dominant-baseline="middle" text-anchor="end" font-size="12" fill="#24292f">10400.0</text>
        
            
            
            <path stroke="#74838f" stroke-dasharray="10 6" stroke-width="0.5"  d="M 50.0 81.2 L 974.0 81.2" />
        
    
        
        
        <text x="45.0" font-family="-apple-system, system-ui, BlinkMacSystemFont, Roboto" y="112.4" dominant-baseline="middle" text-anchor="end" font-size="12" fill="#24292f">7800.0</text>
        
            
            
            <path stroke="#74838f" stroke-dasharray="10 6" stroke-width="0.5"  d="M 50.0 112.4 L 974.0 112.4" />
        
    
        
        
        <text x="45.0" font-family="-apple-system, system-ui, BlinkMacSystemFont, Roboto" y="143.6" dominant-baseline="middle" text-anchor="end" font-size="12" fill="#24292f">5200.0</text>
        
            
            
            <path stroke="#74838f" stroke-dasharray="10 6" stroke-width="0.5"  d="M 50.0 143.6 L 974.0 143.6" />
        
    
        
        
        <text x="45.0" font-family="-apple-system, system-ui, BlinkMacSystemFont, Roboto" y="174.8" dominant-baseline="middle" text-anchor="end" font-size="12" fill="#24292f">2600.0</text>
        
            
            
            <path stroke="#74838f" stroke-dasharray="10 6" stroke-width="0.5"  d="M 50.0 174.8 L 974.0 174.8" />
        
    
        
        
        <text x="45.0" font-family="-apple-system, system-ui, BlinkMacSystemFont, Roboto" y="206.0" dominant-baseline="middle" text-anchor="end" font-size="12" fill="#24292f">0.0</text>
        
    
    
        
        <path stroke="#74838f"  stroke-width="2.0"  d="M 86.14669926650367 206.0 L 86.14669926650367 214.0" />
        <text x="86.14669926650367" font-family="-apple-system, system-ui, BlinkMacSystemFont, Roboto" y="216.0" dominant-baseline="hanging" text-anchor="middle" font-size="12" fill="#24292f">Mar 2022</text>
    
        
        <path stroke="#74838f"  stroke-width="2.0"  d="M 156.18092909535454 206.0 L 156.18092909535454 214.0" />
        <text x="156.18092909535454" font-family="-apple-system, system-ui, BlinkMacSystemFont, Roboto" y="216.0" dominant-baseline="hanging" text-anchor="middle" font-size="12" fill="#24292f">Apr 2022</text>
    
        
        <path stroke="#74838f"  stroke-width="2.0"  d="M 223.9559902200489 206.0 L 223.9559902200489 214.0" />
        <text x="223.9559902200489" font-family="-apple-system, system-ui, BlinkMacSystemFont, Roboto" y="216.0" dominant-baseline="hanging" text-anchor="middle" font-size="12" fill="#24292f">May 2022</text>
    
        
        <path stroke="#74838f"  stroke-width="2.0"  d="M 293.99022004889974 206.0 L 293.99022004889974 214.0" />
        <text x="293.99022004889974" font-family="-apple-system, system-ui, BlinkMacSystemFont, Roboto" y="216.0" dominant-baseline="hanging" text-anchor="middle" font-size="12" fill="#24292f">Jun 2022</text>
    
        
        <path stroke="#74838f"  stroke-width="2.0"  d="M 361.76528117359413 206.0 L 361.76528117359413 214.0" />
        <text x="361.76528117359413" font-family="-apple-system, system-ui, BlinkMacSystemFont, Roboto" y="216.0" dominant-baseline="hanging" text-anchor="middle" font-size="12" fill="#24292f">Jul 2022</text>
    
        
        <path stroke="#74838f"  stroke-width="2.0"  d="M 431.799511002445 206.0 L 431.799511002445 214.0" />
        <text x="431.799511002445" font-family="-apple-system, system-ui, BlinkMacSystemFont, Roboto" y="216.0" dominant-baseline="hanging" text-anchor="middle" font-size="12" fill="#24292f">Aug 2022</text>
    
        
        <path stroke="#74838f"  stroke-width="2.0"  d="M 501.8337408312958 206.0 L 501.8337408312958 214.0" />
        <text x="501.8337408312958" font-family="-apple-system, system-ui, BlinkMacSystemFont, Roboto" y="216.0" dominant-baseline="hanging" text-anchor="middle" font-size="12" fill="#24292f">Sep 2022</text>
    
        
        <path stroke="#74838f"  stroke-width="2.0"  d="M 569.6088019559902 206.0 L 569.6088019559902 214.0" />
        <text x="569.6088019559902" font-family="-apple-system, system-ui, BlinkMacSystemFont, Roboto" y="216.0" dominant-baseline="hanging" text-anchor="middle" font-size="12" fill="#24292f">Oct 2022</text>
    
        
        <path stroke="#74838f"  stroke-width="2.0"  d="M 639.6430317848411 206.0 L 639.6430317848411 214.0" />
        <text x="639.6430317848411" font-family="-apple-system, system-ui, BlinkMacSystemFont, Roboto" y="216.0" dominant-baseline="hanging" text-anchor="middle" font-size="12" fill="#24292f">Nov 2022</text>
    
        
        <path stroke="#74838f"  stroke-width="2.0"  d="M 707.4180929095354 206.0 L 707.4180929095354 214.0" />
        <text x="707.4180929095354" font-family="-apple-system, system-ui, BlinkMacSystemFont, Roboto" y="216.0" dominant-baseline="hanging" text-anchor="middle" font-size="12" fill="#24292f">Dec 2022</text>
    
        
        <path stroke="#74838f"  stroke-width="2.0"  d="M 777.4523227383863 206.0 L 777.4523227383863 214.0" />
        <text x="777.4523227383863" font-family="-apple-system, system-ui, BlinkMacSystemFont, Roboto" y="216.0" dominant-baseline="hanging" text-anchor="middle" font-size="12" fill="#24292f">Jan 2023</text>
    
        
        <path stroke="#74838f"  stroke-width="2.0"  d="M 847.4865525672371 206.0 L 847.4865525672371 214.0" />
        <text x="847.4865525672371" font-family="-apple-system, system-ui, BlinkMacSystemFont, Roboto" y="216.0" dominant-baseline="hanging" text-anchor="middle" font-size="12" fill="#24292f">Feb 2023</text>
    
        
        <path stroke="#74838f"  stroke-width="2.0"  d="M 910.7432762836186 206.0 L 910.7432762836186 214.0" />
        <text x="910.7432762836186" font-family="-apple-system, system-ui, BlinkMacSystemFont, Roboto" y="216.0" dominant-baseline="hanging" text-anchor="middle" font-size="12" fill="#24292f">Mar 2023</text>
    
    <path stroke="#74838f"   stroke-linejoin="round" stroke-width="2.0" d="M 50.0 216.0 L 50.0 206.0 L 974.0 206.0 L 974.0 216.0"  fill="none" />
    <text x="512.0" y="25.0" font-family="-apple-system, system-ui, BlinkMacSystemFont, Roboto" dominant-baseline="middle" text-anchor="middle" font-size="18" fill="#24292f">Total daily suspensions</text>
</svg>
