<?xml version="1.0" standalone="no"?>
<svg width="1024.0" height="256.0"  viewBox="0 0 1024.0 256.0" preserveAspectRatio="xMidYMid meet" xmlns="http://www.w3.org/2000/svg">
    <path stroke="#e74c3c" stroke-linejoin="round" d="M 50.0 162.77066666666667 L 50 162.77066666666667L 51.949367088607595 194.12088888888889L 53.89873417721519 197.888L 55.848101265822784 198.2231111111111L 57.79746835443038 203.61955555555556L 59.74683544303797 200.16444444444443L 61.69620253164557 199.51733333333334L 63.64556962025316 191.65955555555556L 65.59493670886076 201.1582222222222L 67.54430379746836 198.89333333333332L 69.49367088607595 200.22222222222223L 71.44303797468355 202.70666666666665L 73.39240506329114 199.45955555555554L 75.34177215189874 195.9928888888889L 77.29113924050633 202.776L 79.24050632911393 198.98577777777777L 81.18987341772151 197.8071111111111L 83.13924050632912 191.96L 85.08860759493672 197.0328888888889L 87.0379746835443 199.70222222222222L 88.9873417721519 199.5751111111111L 90.9367088607595 198.5928888888889L 92.8860759493671 198.45422222222223L 94.83544303797468 200.06044444444444L 96.78481012658227 195.288L 98.73417721518987 200.12977777777778L 100.68354430379748 195.96977777777778L 102.63291139240506 200.92711111111112L 104.58227848101265 198.6968888888889L 106.53164556962025 191.22044444444444L 108.48101265822785 196.47822222222223L 110.43037974683546 191.38222222222223L 112.37974683544303 193.99377777777778L 114.32911392405063 199.92177777777778L 116.27848101265823 192.89600000000002L 118.22784810126582 197.33333333333334L 120.17721518987342 199.82933333333332L 122.12658227848101 194.00533333333334L 124.07594936708861 195.65777777777777L 126.0253164556962 195.81955555555555L 127.9746835443038 195.9351111111111L 129.9240506329114 196.83644444444445L 131.873417721519 199.66755555555557L 133.82278481012656 199.4711111111111L 135.7721518987342 196.0391111111111L 137.72151898734177 194.39822222222222L 139.67088607594937 195.92355555555554L 141.62025316455697 199.03199999999998L 143.56962025316454 195.81955555555555L 145.51898734177215 194.44444444444446L 147.46835443037975 194.144L 149.41772151898735 187.04888888888888L 151.36708860759495 197.69155555555557L 153.31645569620252 196.33955555555556L 155.26582278481013 198.56977777777777L 157.21518987341773 194.8142222222222L 159.1645569620253 196.77866666666665L 161.11392405063293 197.32177777777778L 163.0632911392405 198.65066666666667L 165.0126582278481 198.35022222222221L 166.9620253164557 199.85244444444444L 168.91139240506328 192.07555555555555L 170.8607594936709 202.26755555555556L 172.81012658227849 193.80888888888887L 174.75949367088606 204.26666666666665L 176.70886075949366 206L 178.65822784810126 206L 180.60759493670886 206L 182.55696202531647 206L 184.50632911392404 191.04711111111112L 186.45569620253164 160.76L 188.40506329113924 194.02844444444446L 190.35443037974684 200.4417777777778L 192.30379746835445 193.7048888888889L 194.25316455696202 197.16L 196.20253164556962 200.00266666666667L 198.15189873417722 187.26844444444444L 200.1012658227848 198.18844444444443L 202.0506329113924 195.98133333333334L 204 191.08177777777777L 205.9493670886076 195.288L 207.89873417721518 190.97777777777776L 209.84810126582278 189.39466666666667L 211.79746835443038 198.15377777777778L 213.74683544303798 200.00266666666667L 215.69620253164558 192.4568888888889L 217.64556962025316 192.38755555555556L 219.59493670886076 199.56355555555555L 221.54430379746836 195.13777777777779L 223.49367088607596 193.10399999999998L 225.44303797468356 195.3111111111111L 227.39240506329114 199.93333333333334L 229.34177215189874 189.84533333333331L 231.2911392405063 198.70844444444444L 233.2405063291139 196.50133333333332L 235.18987341772151 195.69244444444445L 237.13924050632912 196.62844444444445L 239.08860759493672 193.65866666666668L 241.0379746835443 197.52977777777778L 242.9873417721519 194.3057777777778L 244.9367088607595 197.4257777777778L 246.8860759493671 179.19111111111113L 248.8354430379747 194.80266666666665L 250.7848101265823 196.29333333333335L 252.73417721518987 195.5191111111111L 254.68354430379745 197.0328888888889L 256.63291139240505 197.8071111111111L 258.5822784810126 198.00355555555555L 260.53164556962025 187.55733333333333L 262.4810126582279 193.13866666666667L 264.43037974683546 199.85244444444444L 266.37974683544303 193.53155555555554L 268.3291139240506 191.6248888888889L 270.27848101265823 195.8311111111111L 272.22784810126586 196.54755555555556L 274.17721518987344 196.81333333333333L 276.126582278481 197.63377777777777L 278.0759493670886 193.55466666666666L 280.0253164556962 206L 281.9746835443038 187.16444444444446L 283.9240506329114 187.34933333333333L 285.873417721519 191.8213333333333L 287.82278481012656 181.86044444444445L 289.77215189873414 201.8631111111111L 291.7215189873418 186.49422222222222L 293.6708860759494 196.39733333333334L 295.62025316455697 190.07644444444443L 297.56962025316454 194.664L 299.5189873417721 196.016L 301.46835443037975 197.18311111111112L 303.4177215189873 187.06044444444444L 305.36708860759495 198.29244444444444L 307.3164556962025 189.55644444444445L 309.26582278481015 189.7528888888889L 311.2151898734177 197.09066666666666L 313.16455696202536 183.328L 315.11392405063293 184.9688888888889L 317.0632911392405 206L 319.0126582278481 206L 320.9620253164557 206L 322.9113924050633 161.85777777777778L 324.86075949367086 198.81244444444445L 326.8101265822785 196.952L 328.75949367088606 196.05066666666667L 330.7088607594937 193.2888888888889L 332.65822784810126 197.29866666666666L 334.6075949367089 198.13066666666668L 336.55696202531647 201.0311111111111L 338.50632911392404 171.63377777777777L 340.4556962025316 189.85688888888888L 342.40506329113924 178.4862222222222L 344.3544303797468 192.09866666666667L 346.30379746835445 179.792L 348.253164556962 177.46933333333334L 350.2025316455696 182.6L 352.1518987341772 188.1582222222222L 354.1012658227848 193.36977777777778L 356.0506329113924 189.99555555555554L 358 188.4471111111111L 359.94936708860763 190.01866666666666L 361.8987341772152 188.216L 363.8481012658228 194.05155555555555L 365.79746835443035 185.81244444444445L 367.746835443038 172.61599999999999L 369.69620253164555 181.09777777777776L 371.6455696202532 173.56355555555555L 373.59493670886076 193.50844444444445L 375.5443037974684 192.51466666666667L 377.49367088607596 193.53155555555554L 379.44303797468353 195.25333333333333L 381.39240506329116 193.99377777777778L 383.34177215189874 194.46755555555555L 385.2911392405063 189.89155555555556L 387.2405063291139 195.58844444444446L 389.1898734177215 196.6168888888889L 391.1392405063291 193.11555555555555L 393.0886075949367 191.40533333333332L 395.0379746835443 201.16977777777777L 396.9873417721519 185.58133333333333L 398.9367088607595 191.44L 400.8860759493671 194.8488888888889L 402.8354430379747 190.45777777777778L 404.7848101265823 196.23555555555555L 406.7341772151899 192.5031111111111L 408.6835443037975 193.57777777777778L 410.63291139240505 187.18755555555555L 412.5822784810126 191.03555555555556L 414.53164556962025 183.0391111111111L 416.4810126582278 187.83466666666666L 418.43037974683546 192.064L 420.37974683544303 184.9111111111111L 422.32911392405066 189.76444444444445L 424.27848101265823 185.97422222222224L 426.22784810126586 186.22844444444445L 428.17721518987344 177.8968888888889L 430.126582278481 189.672L 432.0759493670886 191.60177777777778L 434.02531645569616 189.39466666666667L 435.9746835443038 188.27377777777778L 437.92405063291136 191.9368888888889L 439.873417721519 188.47022222222222L 441.82278481012656 188.88622222222222L 443.7721518987342 190.85066666666665L 445.72151898734177 194.80266666666665L 447.6708860759494 195.13777777777779L 449.62025316455697 201.48177777777778L 451.5696202531646 193.24266666666665L 453.5189873417722 182.06844444444445L 455.46835443037975 182.64622222222224L 457.4177215189873 182.12622222222222L 459.3670886075949 191.84444444444443L 461.3164556962025 187.592L 463.2658227848101 182.288L 465.2151898734177 187.22222222222223L 467.1645569620253 189.09422222222221L 469.11392405063293 180.63555555555556L 471.0632911392405 183.94044444444444L 473.01265822784814 174.76533333333333L 474.9620253164557 184.6568888888889L 476.9113924050633 172.93955555555556L 478.86075949367086 150.29066666666665L 480.8101265822785 179.0408888888889L 482.75949367088606 144.23555555555555L 484.7088607594937 186.864L 486.65822784810126 189.18666666666667L 488.60759493670884 188.424L 490.55696202531647 193.728L 492.50632911392404 187.31466666666665L 494.45569620253167 186.1822222222222L 496.40506329113924 187.58044444444445L 498.3544303797469 186.136L 500.30379746835445 193.312L 502.253164556962 189.19822222222223L 504.2025316455696 189.9377777777778L 506.1518987341772 187.34933333333333L 508.1012658227848 186.51733333333334L 510.0506329113924 189.3831111111111L 512 188.0311111111111L 513.9493670886076 192.98844444444444L 515.8987341772151 187.73066666666668L 517.8481012658228 186.22844444444445L 519.7974683544304 182.81955555555555L 521.746835443038 184.6222222222222L 523.6962025316456 181.248L 525.6455696202531 186.27466666666666L 527.5949367088608 194.44444444444446L 529.5443037974683 190.90844444444446L 531.493670886076 187.30311111111112L 533.4430379746836 169.71555555555557L 535.3924050632911 120.77777777777779L 537.3417721518988 189.72977777777777L 539.2911392405063 188.51644444444446L 541.2405063291139 190.86222222222221L 543.1898734177216 192.82666666666665L 545.1392405063291 189.82222222222222L 547.0886075949368 183.16622222222222L 549.0379746835442 189.14044444444443L 550.9873417721519 179.9191111111111L 552.9367088607595 59.082666666666654L 554.8860759493671 164.26133333333334L 556.8354430379746 185.31555555555556L 558.7848101265823 183.57066666666668L 560.7341772151899 184.50666666666666L 562.6835443037975 185.00355555555555L 564.632911392405 180.0808888888889L 566.5822784810126 190.74666666666667L 568.5316455696203 181.42133333333334L 570.4810126582279 162.58577777777776L 572.4303797468355 124.3368888888889L 574.379746835443 153.52622222222223L 576.3291139240507 165.68266666666668L 578.2784810126583 182.1031111111111L 580.2278481012659 171.8071111111111L 582.1772151898734 180.76266666666666L 584.126582278481 174.41866666666667L 586.0759493670886 179.376L 588.0253164556962 183.65155555555555L 589.9746835443037 178.22044444444444L 591.9240506329114 185.03822222222223L 593.873417721519 188.47022222222222L 595.8227848101266 189.00177777777776L 597.7721518987341 185.52355555555556L 599.7215189873417 182.7848888888889L 601.6708860759494 182.69244444444445L 603.620253164557 180.34666666666666L 605.5696202531645 169.5768888888889L 607.5189873417721 182.704L 609.4683544303798 186.136L 611.4177215189874 169.12622222222222L 613.367088607595 143.0222222222222L 615.3164556962025 162.45866666666666L 617.2658227848102 153.67644444444443L 619.2151898734178 148.176L 621.1645569620254 157.16622222222222L 623.1139240506329 155.61777777777777L 625.0632911392405 164.63111111111112L 627.0126582278481 173.32088888888887L 628.9620253164557 151.0648888888889L 630.9113924050632 173.07822222222222L 632.8607594936708 173.70222222222222L 634.8101265822785 173.74844444444443L 636.7594936708861 184.472L 638.7088607594936 167.77422222222222L 640.6582278481012 160.9911111111111L 642.6075949367089 173.8871111111111L 644.5569620253165 167L 646.506329113924 156.78488888888887L 648.4556962025316 175.07733333333334L 650.4050632911392 177.4L 652.3544303797469 187.22222222222223L 654.3037974683544 184.74933333333334L 656.253164556962 183.952L 658.2025316455696 152.19733333333335L 660.1518987341773 183.96355555555556L 662.1012658227849 186.8871111111111L 664.0506329113924 185.87022222222222L 666 183.15466666666666L 667.9493670886077 183.06222222222223L 669.8987341772153 183.02755555555555L 671.8481012658228 176.10577777777777L 673.7974683544304 182.87733333333333L 675.746835443038 180.48533333333333L 677.6962025316456 185.56977777777777L 679.6455696202531 180L 681.5949367088607 176.984L 683.5443037974683 178.20888888888888L 685.493670886076 179.8382222222222L 687.4430379746835 183.09688888888888L 689.3924050632911 177.53866666666667L 691.3417721518987 183.44355555555555L 693.2911392405064 178.09333333333333L 695.2405063291139 179.59555555555556L 697.1898734177215 183.02755555555555L 699.1392405063291 180.4622222222222L 701.0886075949368 178.04711111111112L 703.0379746835443 186.89866666666666L 704.9873417721519 177.20355555555557L 706.9367088607595 179.07555555555555L 708.8860759493671 154.9591111111111L 710.8354430379748 133.512L 712.7848101265823 151.96622222222223L 714.7341772151899 151.57333333333332L 716.6835443037975 184.9111111111111L 718.632911392405 185.28088888888888L 720.5822784810126 178.61333333333334L 722.5316455696202 142.39822222222222L 724.4810126582278 150.1751111111111L 726.4303797468355 164.04177777777778L 728.379746835443 138.82755555555556L 730.3291139240506 134.864L 732.2784810126582 144.85955555555557L 734.2278481012657 145.57600000000002L 736.1772151898734 128.7048888888889L 738.126582278481 120.36177777777777L 740.0759493670886 165.80977777777778L 742.0253164556962 163.51022222222224L 743.9746835443038 160.39022222222223L 745.9240506329114 177.504L 747.873417721519 187.34933333333333L 749.8227848101266 188.04266666666666L 751.7721518987343 186.8871111111111L 753.7215189873418 176.08266666666668L 755.6708860759494 179.41066666666666L 757.620253164557 195.0568888888889L 759.5696202531645 185.53511111111112L 761.5189873417722 183.6977777777778L 763.4683544303798 174.97333333333333L 765.4177215189874 178.61333333333334L 767.367088607595 180.9591111111111L 769.3164556962025 184.0328888888889L 771.2658227848101 155.61777777777777L 773.2151898734177 149.7128888888889L 775.1645569620252 186.2631111111111L 777.1139240506329 191.28977777777777L 779.0632911392405 175.90933333333334L 781.0126582278481 175.49333333333334L 782.9620253164557 184.51822222222222L 784.9113924050632 189.69511111111112L 786.8607594936709 187.592L 788.8101265822785 180.09244444444445L 790.7594936708861 176.92622222222224L 792.7088607594936 163.31377777777777L 794.6582278481013 162.112L 796.6075949367089 167.1271111111111L 798.5569620253165 180.32355555555554L 800.506329113924 184.11377777777778L 802.4556962025317 191.57866666666666L 804.4050632911393 195.54222222222222L 806.3544303797469 183.54755555555556L 808.3037974683544 164.03022222222222L 810.253164556962 171.05599999999998L 812.2025316455696 169.92355555555557L 814.1518987341772 180.02311111111112L 816.1012658227847 172.07288888888888L 818.0506329113923 163.53333333333333L 820 171.34488888888887L 821.9493670886076 181.59466666666668L 823.8987341772151 179.80355555555556L 825.8481012658227 166.17955555555557L 827.7974683544304 154.92444444444445L 829.746835443038 158.4488888888889L 831.6962025316456 156.4728888888889L 833.6455696202531 144.4551111111111L 835.5949367088608 158.52977777777778L 837.5443037974684 178.00088888888888L 839.493670886076 144.99822222222224L 841.4430379746835 134.136L 843.3924050632911 139.8213333333333L 845.3417721518988 145.04444444444445L 847.2911392405064 153.168L 849.2405063291139 140.53777777777776L 851.1898734177215 113.86755555555555L 853.1392405063292 113.28977777777777L 855.0886075949368 164.85066666666665L 857.0379746835443 163.62577777777778L 858.9873417721519 150.16355555555555L 860.9367088607595 149.84L 862.8860759493671 56.54044444444443L 864.8354430379746 124.776L 866.7848101265822 64.07466666666667L 868.7341772151898 123.55111111111111L 870.6835443037975 157.536L 872.632911392405 147.9911111111111L 874.5822784810126 136.22755555555557L 876.5316455696202 91.11466666666666L 878.4810126582279 107.36177777777779L 880.4303797468355 141.68177777777777L 882.379746835443 157.73244444444444L 884.3291139240506 152.63644444444444L 886.2784810126583 96.22222222222221L 888.2278481012659 150.19822222222223L 890.1772151898734 116.57155555555556L 892.126582278481 127.34133333333332L 894.0759493670886 180.53155555555554L 896.0253164556963 137.10577777777777L 897.9746835443038 122.64977777777779L 899.9240506329114 104.61155555555555L 901.873417721519 141.76266666666666L 903.8227848101266 164.23822222222222L 905.7721518987341 160.51733333333334L 907.7215189873417 154.57777777777778L 909.6708860759493 175.01955555555554L 911.620253164557 146.87022222222222L 913.5696202531645 153.23733333333334L 915.5189873417721 142.82577777777777L 917.4683544303797 130.98133333333334L 919.4177215189874 88.53777777777778L 921.367088607595 174.488L 923.3164556962025 50.55466666666666L 925.2658227848101 84.43555555555557L 927.2151898734177 152.47466666666668L 929.1645569620254 114.90755555555555L 931.1139240506329 96.30311111111112L 933.0632911392405 171.46044444444445L 935.0126582278481 183.96355555555556L 936.9620253164558 169.87733333333333L 938.9113924050633 183.13155555555556L 940.8607594936709 171.992L 942.8101265822785 152.48622222222224L 944.7594936708862 169.704L 946.7088607594937 172.99733333333333L 948.6582278481013 164.61955555555556L 950.6075949367089 162.64355555555557L 952.5569620253165 170.51288888888888L 954.506329113924 145.6568888888889L 956.4556962025316 159.81244444444445L 958.4050632911392 167.2542222222222L 960.3544303797468 141.55466666666666L 962.3037974683544 160.864L 964.253164556962 157.7208888888889L 966.2025316455696 154.87822222222223L 968.1518987341772 145.29866666666666L 970.1012658227849 177.65422222222222L 972.0506329113924 119.73777777777778L 974 192.792" stroke-width="2.0" fill="none" />
    
        
        
        <text x="45.0" font-family="-apple-system, system-ui, BlinkMacSystemFont, Roboto" y="50.0" dominant-baseline="middle" text-anchor="end" font-size="12" fill="#24292f">13500.0</text>
        
            
            <path stroke="#74838f" stroke-dasharray="10 6" stroke-width="0.5"  d="M 50.0 50.0 L 974.0 50.0" />
        
    
        
        
        <text x="45.0" font-family="-apple-system, system-ui, BlinkMacSystemFont, Roboto" y="81.2" dominant-baseline="middle" text-anchor="end" font-size="12" fill="#24292f">10800.0</text>
        
            
            
            <path stroke="#74838f" stroke-dasharray="10 6" stroke-width="0.5"  d="M 50.0 81.2 L 974.0 81.2" />
        
    
        
        
        <text x="45.0" font-family="-apple-system, system-ui, BlinkMacSystemFont, Roboto" y="112.4" dominant-baseline="middle" text-anchor="end" font-size="12" fill="#24292f">8100.0</text>
        
            
            
            <path stroke="#74838f" stroke-dasharray="10 6" stroke-width="0.5"  d="M 50.0 112.4 L 974.0 112.4" />
        
    
        
        
        <text x="45.0" font-family="-apple-system, system-ui, BlinkMacSystemFont, Roboto" y="143.6" dominant-baseline="middle" text-anchor="end" font-size="12" fill="#24292f">5400.0</text>
        
            
            
            <path stroke="#74838f" stroke-dasharray="10 6" stroke-width="0.5"  d="M 50.0 143.6 L 974.0 143.6" />
        
    
        
        
        <text x="45.0" font-family="-apple-system, system-ui, BlinkMacSystemFont, Roboto" y="174.8" dominant-baseline="middle" text-anchor="end" font-size="12" fill="#24292f">2700.0</text>
        
            
            
            <path stroke="#74838f" stroke-dasharray="10 6" stroke-width="0.5"  d="M 50.0 174.8 L 974.0 174.8" />
        
    
        
        
        <text x="45.0" font-family="-apple-system, system-ui, BlinkMacSystemFont, Roboto" y="206.0" dominant-baseline="middle" text-anchor="end" font-size="12" fill="#24292f">0.0</text>
        
    
    
        
        <path stroke="#74838f"  stroke-width="2.0"  d="M 81.18987341772151 206.0 L 81.18987341772151 214.0" />
        <text x="81.18987341772151" font-family="-apple-system, system-ui, BlinkMacSystemFont, Roboto" y="216.0" dominant-baseline="hanging" text-anchor="middle" font-size="12" fill="#24292f">Mar 2022</text>
    
        
        <path stroke="#74838f"  stroke-width="2.0"  d="M 141.62025316455697 206.0 L 141.62025316455697 214.0" />
        <text x="141.62025316455697" font-family="-apple-system, system-ui, BlinkMacSystemFont, Roboto" y="216.0" dominant-baseline="hanging" text-anchor="middle" font-size="12" fill="#24292f">Apr 2022</text>
    
        
        <path stroke="#74838f"  stroke-width="2.0"  d="M 200.1012658227848 206.0 L 200.1012658227848 214.0" />
        <text x="200.1012658227848" font-family="-apple-system, system-ui, BlinkMacSystemFont, Roboto" y="216.0" dominant-baseline="hanging" text-anchor="middle" font-size="12" fill="#24292f">May 2022</text>
    
        
        <path stroke="#74838f"  stroke-width="2.0"  d="M 260.53164556962025 206.0 L 260.53164556962025 214.0" />
        <text x="260.53164556962025" font-family="-apple-system, system-ui, BlinkMacSystemFont, Roboto" y="216.0" dominant-baseline="hanging" text-anchor="middle" font-size="12" fill="#24292f">Jun 2022</text>
    
        
        <path stroke="#74838f"  stroke-width="2.0"  d="M 319.0126582278481 206.0 L 319.0126582278481 214.0" />
        <text x="319.0126582278481" font-family="-apple-system, system-ui, BlinkMacSystemFont, Roboto" y="216.0" dominant-baseline="hanging" text-anchor="middle" font-size="12" fill="#24292f">Jul 2022</text>
    
        
        <path stroke="#74838f"  stroke-width="2.0"  d="M 379.44303797468353 206.0 L 379.44303797468353 214.0" />
        <text x="379.44303797468353" font-family="-apple-system, system-ui, BlinkMacSystemFont, Roboto" y="216.0" dominant-baseline="hanging" text-anchor="middle" font-size="12" fill="#24292f">Aug 2022</text>
    
        
        <path stroke="#74838f"  stroke-width="2.0"  d="M 439.873417721519 206.0 L 439.873417721519 214.0" />
        <text x="439.873417721519" font-family="-apple-system, system-ui, BlinkMacSystemFont, Roboto" y="216.0" dominant-baseline="hanging" text-anchor="middle" font-size="12" fill="#24292f">Sep 2022</text>
    
        
        <path stroke="#74838f"  stroke-width="2.0"  d="M 498.3544303797469 206.0 L 498.3544303797469 214.0" />
        <text x="498.3544303797469" font-family="-apple-system, system-ui, BlinkMacSystemFont, Roboto" y="216.0" dominant-baseline="hanging" text-anchor="middle" font-size="12" fill="#24292f">Oct 2022</text>
    
        
        <path stroke="#74838f"  stroke-width="2.0"  d="M 558.7848101265823 206.0 L 558.7848101265823 214.0" />
        <text x="558.7848101265823" font-family="-apple-system, system-ui, BlinkMacSystemFont, Roboto" y="216.0" dominant-baseline="hanging" text-anchor="middle" font-size="12" fill="#24292f">Nov 2022</text>
    
        
        <path stroke="#74838f"  stroke-width="2.0"  d="M 617.2658227848102 206.0 L 617.2658227848102 214.0" />
        <text x="617.2658227848102" font-family="-apple-system, system-ui, BlinkMacSystemFont, Roboto" y="216.0" dominant-baseline="hanging" text-anchor="middle" font-size="12" fill="#24292f">Dec 2022</text>
    
        
        <path stroke="#74838f"  stroke-width="2.0"  d="M 677.6962025316456 206.0 L 677.6962025316456 214.0" />
        <text x="677.6962025316456" font-family="-apple-system, system-ui, BlinkMacSystemFont, Roboto" y="216.0" dominant-baseline="hanging" text-anchor="middle" font-size="12" fill="#24292f">Jan 2023</text>
    
        
        <path stroke="#74838f"  stroke-width="2.0"  d="M 738.126582278481 206.0 L 738.126582278481 214.0" />
        <text x="738.126582278481" font-family="-apple-system, system-ui, BlinkMacSystemFont, Roboto" y="216.0" dominant-baseline="hanging" text-anchor="middle" font-size="12" fill="#24292f">Feb 2023</text>
    
        
        <path stroke="#74838f"  stroke-width="2.0"  d="M 792.7088607594936 206.0 L 792.7088607594936 214.0" />
        <text x="792.7088607594936" font-family="-apple-system, system-ui, BlinkMacSystemFont, Roboto" y="216.0" dominant-baseline="hanging" text-anchor="middle" font-size="12" fill="#24292f">Mar 2023</text>
    
        
        <path stroke="#74838f"  stroke-width="2.0"  d="M 853.1392405063292 206.0 L 853.1392405063292 214.0" />
        <text x="853.1392405063292" font-family="-apple-system, system-ui, BlinkMacSystemFont, Roboto" y="216.0" dominant-baseline="hanging" text-anchor="middle" font-size="12" fill="#24292f">Apr 2023</text>
    
        
        <path stroke="#74838f"  stroke-width="2.0"  d="M 911.620253164557 206.0 L 911.620253164557 214.0" />
        <text x="911.620253164557" font-family="-apple-system, system-ui, BlinkMacSystemFont, Roboto" y="216.0" dominant-baseline="hanging" text-anchor="middle" font-size="12" fill="#24292f">May 2023</text>
    
        
        <path stroke="#74838f"  stroke-width="2.0"  d="M 972.0506329113924 206.0 L 972.0506329113924 214.0" />
        <text x="972.0506329113924" font-family="-apple-system, system-ui, BlinkMacSystemFont, Roboto" y="216.0" dominant-baseline="hanging" text-anchor="middle" font-size="12" fill="#24292f">Jun 2023</text>
    
    <path stroke="#74838f"   stroke-linejoin="round" stroke-width="2.0" d="M 50.0 216.0 L 50.0 206.0 L 974.0 206.0 L 974.0 216.0"  fill="none" />
    <text x="512.0" y="25.0" font-family="-apple-system, system-ui, BlinkMacSystemFont, Roboto" dominant-baseline="middle" text-anchor="middle" font-size="18" fill="#24292f">Total daily suspensions</text>
</svg>
