<?xml version="1.0" standalone="no"?>
<svg width="1024.0" height="256.0"  viewBox="0 0 1024.0 256.0" preserveAspectRatio="xMidYMid meet" xmlns="http://www.w3.org/2000/svg">
    <path stroke="#e74c3c" stroke-linejoin="round" d="M 50.0 162.77066666666667 L 50 162.77066666666667L 51.90515463917526 194.12088888888889L 53.810309278350516 197.888L 55.715463917525774 198.2231111111111L 57.62061855670103 203.61955555555556L 59.52577319587629 200.16444444444443L 61.43092783505155 199.51733333333334L 63.33608247422681 191.65955555555556L 65.24123711340206 201.1582222222222L 67.14639175257732 198.89333333333332L 69.05154639175258 200.22222222222223L 70.95670103092783 202.70666666666665L 72.8618556701031 199.45955555555554L 74.76701030927835 195.9928888888889L 76.67216494845361 202.776L 78.57731958762886 198.98577777777777L 80.48247422680413 197.8071111111111L 82.38762886597938 191.96L 84.29278350515463 197.0328888888889L 86.1979381443299 199.70222222222222L 88.10309278350516 199.5751111111111L 90.00824742268041 198.5928888888889L 91.91340206185566 198.45422222222223L 93.81855670103093 200.06044444444444L 95.7237113402062 195.288L 97.62886597938143 200.12977777777778L 99.5340206185567 195.96977777777778L 101.43917525773196 200.92711111111112L 103.34432989690723 198.6968888888889L 105.24948453608248 191.22044444444444L 107.15463917525773 196.47822222222223L 109.059793814433 191.38222222222223L 110.96494845360826 193.99377777777778L 112.8701030927835 199.92177777777778L 114.77525773195876 192.89600000000002L 116.68041237113401 197.33333333333334L 118.58556701030928 199.82933333333332L 120.49072164948454 194.00533333333334L 122.39587628865979 195.65777777777777L 124.30103092783506 195.81955555555555L 126.20618556701031 195.9351111111111L 128.11134020618556 196.83644444444445L 130.01649484536082 199.66755555555557L 131.9216494845361 199.4711111111111L 133.82680412371133 196.0391111111111L 135.73195876288662 194.39822222222222L 137.63711340206186 195.92355555555554L 139.54226804123712 199.03199999999998L 141.4474226804124 195.81955555555555L 143.35257731958762 194.44444444444446L 145.25773195876286 194.144L 147.16288659793815 187.04888888888888L 149.0680412371134 197.69155555555557L 150.97319587628866 196.33955555555556L 152.87835051546392 198.56977777777777L 154.78350515463916 194.8142222222222L 156.68865979381445 196.77866666666665L 158.5938144329897 197.32177777777778L 160.49896907216495 198.65066666666667L 162.40412371134022 198.35022222222221L 164.30927835051546 199.85244444444444L 166.21443298969072 192.07555555555555L 168.119587628866 202.26755555555556L 170.02474226804125 193.80888888888887L 171.92989690721652 204.26666666666665L 173.83505154639175 206L 175.740206185567 206L 177.64536082474228 206L 179.55051546391752 206L 181.45567010309279 191.04711111111112L 183.36082474226802 160.76L 185.26597938144332 194.02844444444446L 187.17113402061855 200.4417777777778L 189.07628865979382 193.7048888888889L 190.98144329896908 197.16L 192.88659793814435 200.00266666666667L 194.79175257731958 187.26844444444444L 196.69690721649485 198.18844444444443L 198.60206185567012 195.98133333333334L 200.50721649484535 191.08177777777777L 202.41237113402062 195.288L 204.31752577319585 190.97777777777776L 206.22268041237115 189.39466666666667L 208.12783505154638 198.15377777777778L 210.03298969072165 200.00266666666667L 211.9381443298969 192.4568888888889L 213.84329896907218 192.38755555555556L 215.74845360824742 199.56355555555555L 217.65360824742268 195.13777777777779L 219.55876288659792 193.10399999999998L 221.4639175257732 195.3111111111111L 223.36907216494845 199.93333333333334L 225.2742268041237 189.84533333333331L 227.17938144329898 198.70844444444444L 229.08453608247424 196.50133333333332L 230.98969072164948 195.69244444444445L 232.89484536082475 196.62844444444445L 234.8 193.65866666666668L 236.70515463917525 197.52977777777778L 238.6103092783505 194.3057777777778L 240.51546391752575 197.4257777777778L 242.42061855670104 179.19111111111113L 244.32577319587628 194.80266666666665L 246.23092783505155 196.29333333333335L 248.13608247422678 195.5191111111111L 250.04123711340208 197.0328888888889L 251.9463917525773 197.8071111111111L 253.85154639175258 198.00355555555555L 255.75670103092784 187.55733333333333L 257.66185567010314 193.13866666666667L 259.5670103092783 199.85244444444444L 261.4721649484536 193.53155555555554L 263.3773195876289 191.6248888888889L 265.28247422680414 195.8311111111111L 267.1876288659794 196.54755555555556L 269.09278350515467 196.81333333333333L 270.9979381443299 197.63377777777777L 272.90309278350514 193.55466666666666L 274.80824742268044 206L 276.7134020618556 187.16444444444446L 278.6185567010309 187.34933333333333L 280.5237113402062 191.8213333333333L 282.42886597938144 181.86044444444445L 284.3340206185567 201.8631111111111L 286.239175257732 186.49422222222222L 288.14432989690715 196.39733333333334L 290.0494845360825 190.07644444444443L 291.95463917525774 194.664L 293.85979381443303 196.016L 295.7649484536082 197.18311111111112L 297.6701030927835 187.06044444444444L 299.57525773195874 198.29244444444444L 301.480412371134 189.55644444444445L 303.3855670103093 189.7528888888889L 305.29072164948457 197.09066666666666L 307.1958762886598 183.328L 309.10103092783504 184.9688888888889L 311.0061855670103 206L 312.91134020618557 206L 314.8164948453608 206L 316.72164948453604 161.85777777777778L 318.62680412371134 198.81244444444445L 320.53195876288663 196.952L 322.43711340206187 196.05066666666667L 324.3422680412371 193.2888888888889L 326.24742268041234 197.29866666666666L 328.15257731958764 198.13066666666668L 330.0577319587629 201.0311111111111L 331.96288659793817 171.63377777777777L 333.8680412371134 189.85688888888888L 335.7731958762887 178.4862222222222L 337.67835051546393 192.09866666666667L 339.58350515463917 179.792L 341.4886597938144 177.46933333333334L 343.3938144329897 182.6L 345.29896907216494 188.1582222222222L 347.20412371134023 193.36977777777778L 349.10927835051547 189.99555555555554L 351.0144329896907 188.4471111111111L 352.919587628866 190.01866666666666L 354.82474226804123 188.216L 356.72989690721647 194.05155555555555L 358.6350515463917 185.81244444444445L 360.54020618556706 172.61599999999999L 362.4453608247423 181.09777777777776L 364.35051546391753 173.56355555555555L 366.25567010309277 193.50844444444445L 368.16082474226806 192.51466666666667L 370.0659793814433 193.53155555555554L 371.97113402061854 195.25333333333333L 373.8762886597938 193.99377777777778L 375.7814432989691 194.46755555555555L 377.68659793814436 189.89155555555556L 379.5917525773196 195.58844444444446L 381.49690721649483 196.6168888888889L 383.4020618556701 193.11555555555555L 385.30721649484536 191.40533333333332L 387.2123711340206 201.16977777777777L 389.11752577319584 185.58133333333333L 391.02268041237113 191.44L 392.9278350515464 194.8488888888889L 394.83298969072166 190.45777777777778L 396.7381443298969 196.23555555555555L 398.64329896907213 192.5031111111111L 400.5484536082474 193.57777777777778L 402.45360824742266 187.18755555555555L 404.35876288659796 191.03555555555556L 406.2639175257732 183.0391111111111L 408.1690721649485 187.83466666666666L 410.0742268041237 192.064L 411.97938144329896 184.9111111111111L 413.8845360824742 189.76444444444445L 415.7896907216495 185.97422222222224L 417.69484536082473 186.22844444444445L 419.6 177.8968888888889L 421.50515463917526 189.672L 423.4103092783505 191.60177777777778L 425.3154639175258 189.39466666666667L 427.220618556701 188.27377777777778L 429.12577319587626 191.9368888888889L 431.0309278350515 188.47022222222222L 432.93608247422685 188.88622222222222L 434.8412371134021 190.85066666666665L 436.7463917525773 194.80266666666665L 438.65154639175256 195.13777777777779L 440.55670103092785 201.48177777777778L 442.4618556701031 193.24266666666665L 444.3670103092783 182.06844444444445L 446.27216494845356 182.64622222222224L 448.1773195876289 182.12622222222222L 450.08247422680415 191.84444444444443L 451.9876288659794 187.592L 453.8927835051546 182.288L 455.7979381443299 187.22222222222223L 457.70309278350516 189.09422222222221L 459.6082474226804 180.63555555555556L 461.5134020618557 183.94044444444444L 463.4185567010309 174.76533333333333L 465.3237113402062 184.6568888888889L 467.22886597938145 172.93955555555556L 469.1340206185567 150.29066666666665L 471.0391752577319 179.0408888888889L 472.9443298969072 144.23555555555555L 474.84948453608246 186.864L 476.75463917525775 189.18666666666667L 478.659793814433 188.424L 480.5649484536083 193.728L 482.4701030927835 187.31466666666665L 484.37525773195875 186.1822222222222L 486.280412371134 187.58044444444445L 488.1855670103093 186.136L 490.0907216494845 193.312L 491.9958762886598 189.19822222222223L 493.90103092783505 189.9377777777778L 495.8061855670103 187.34933333333333L 497.7113402061856 186.51733333333334L 499.6164948453608 189.3831111111111L 501.52164948453606 188.0311111111111L 503.4268041237113 192.98844444444444L 505.33195876288664 187.73066666666668L 507.2371134020619 186.22844444444445L 509.1422680412371 182.81955555555555L 511.04742268041235 184.6222222222222L 512.9525773195876 181.248L 514.8577319587629 186.27466666666666L 516.7628865979382 194.44444444444446L 518.6680412371134 190.90844444444446L 520.5731958762887 187.30311111111112L 522.478350515464 169.71555555555557L 524.3835051546391 120.77777777777779L 526.2886597938143 189.72977777777777L 528.1938144329897 188.51644444444446L 530.098969072165 190.86222222222221L 532.0041237113403 192.82666666666665L 533.9092783505155 189.82222222222222L 535.8144329896907 183.16622222222222L 537.7195876288661 189.14044444444443L 539.6247422680412 179.9191111111111L 541.5298969072164 59.082666666666654L 543.4350515463917 164.26133333333334L 545.340206185567 185.31555555555556L 547.2453608247422 183.57066666666668L 549.1505154639175 184.50666666666666L 551.0556701030928 185.00355555555555L 552.960824742268 180.0808888888889L 554.8659793814433 190.74666666666667L 556.7711340206185 181.42133333333334L 558.6762886597938 162.58577777777776L 560.5814432989691 124.3368888888889L 562.4865979381443 153.52622222222223L 564.3917525773196 165.68266666666668L 566.2969072164949 182.1031111111111L 568.2020618556701 171.8071111111111L 570.1072164948454 180.76266666666666L 572.0123711340206 174.41866666666667L 573.9175257731958 179.376L 575.8226804123711 183.65155555555555L 577.7278350515463 178.22044444444444L 579.6329896907216 185.03822222222223L 581.5381443298969 188.47022222222222L 583.4432989690721 189.00177777777776L 585.3484536082475 185.52355555555556L 587.2536082474227 182.7848888888889L 589.158762886598 182.69244444444445L 591.0639175257733 180.34666666666666L 592.9690721649484 169.5768888888889L 594.8742268041237 182.704L 596.779381443299 186.136L 598.6845360824742 169.12622222222222L 600.5896907216495 143.0222222222222L 602.4948453608247 162.45866666666666L 604.4 153.67644444444443L 606.3051546391753 148.176L 608.2103092783505 157.16622222222222L 610.1154639175257 155.61777777777777L 612.020618556701 164.63111111111112L 613.9257731958763 173.32088888888887L 615.8309278350516 151.0648888888889L 617.7360824742268 173.07822222222222L 619.6412371134021 173.70222222222222L 621.5463917525774 173.74844444444443L 623.4515463917526 184.472L 625.3567010309279 167.77422222222222L 627.261855670103 160.9911111111111L 629.1670103092783 173.8871111111111L 631.0721649484536 167L 632.9773195876288 156.78488888888887L 634.8824742268041 175.07733333333334L 636.7876288659794 177.4L 638.6927835051546 187.22222222222223L 640.5979381443299 184.74933333333334L 642.5030927835052 183.952L 644.4082474226805 152.19733333333335L 646.3134020618558 183.96355555555556L 648.2185567010309 186.8871111111111L 650.1237113402062 185.87022222222222L 652.0288659793814 183.15466666666666L 653.9340206185567 183.06222222222223L 655.839175257732 183.02755555555555L 657.7443298969072 176.10577777777777L 659.6494845360825 182.87733333333333L 661.5546391752578 180.48533333333333L 663.4597938144329 185.56977777777777L 665.3649484536082 180L 667.2701030927834 176.984L 669.1752577319587 178.20888888888888L 671.0804123711341 179.8382222222222L 672.9855670103093 183.09688888888888L 674.8907216494846 177.53866666666667L 676.7958762886598 183.44355555555555L 678.7010309278351 178.09333333333333L 680.6061855670104 179.59555555555556L 682.5113402061855 183.02755555555555L 684.4164948453608 180.4622222222222L 686.3216494845361 178.04711111111112L 688.2268041237113 186.89866666666666L 690.1319587628866 177.20355555555557L 692.0371134020618 179.07555555555555L 693.9422680412371 154.9591111111111L 695.8474226804124 133.512L 697.7525773195875 151.96622222222223L 699.6577319587628 151.57333333333332L 701.5628865979382 184.9111111111111L 703.4680412371134 185.28088888888888L 705.3731958762887 178.61333333333334L 707.2783505154639 142.39822222222222L 709.1835051546392 150.1751111111111L 711.0886597938145 164.04177777777778L 712.9938144329897 138.82755555555556L 714.898969072165 134.864L 716.8041237113403 144.85955555555557L 718.7092783505154 145.57600000000002L 720.6144329896907 128.7048888888889L 722.5195876288659 120.36177777777777L 724.4247422680412 165.80977777777778L 726.3298969072165 163.51022222222224L 728.2350515463917 160.39022222222223L 730.1402061855671 177.504L 732.0453608247423 187.34933333333333L 733.9505154639176 188.04266666666666L 735.8556701030928 186.8871111111111L 737.760824742268 176.08266666666668L 739.6659793814433 179.41066666666666L 741.5711340206186 195.0568888888889L 743.4762886597938 185.53511111111112L 745.3814432989691 183.6977777777778L 747.2865979381443 174.97333333333333L 749.1917525773196 178.61333333333334L 751.0969072164949 180.9591111111111L 753.00206185567 184.0328888888889L 754.9072164948453 155.61777777777777L 756.8123711340206 149.7128888888889L 758.7175257731959 186.2631111111111L 760.6226804123712 191.28977777777777L 762.5278350515464 175.90933333333334L 764.4329896907217 175.49333333333334L 766.338144329897 184.51822222222222L 768.2432989690722 189.69511111111112L 770.1484536082475 187.592L 772.0536082474226 180.09244444444445L 773.9587628865979 176.92622222222224L 775.8639175257732 163.31377777777777L 777.7690721649484 162.112L 779.6742268041237 167.1271111111111L 781.579381443299 180.32355555555554L 783.4845360824742 184.11377777777778L 785.3896907216495 191.57866666666666L 787.2948453608248 195.54222222222222L 789.2 183.54755555555556L 791.1051546391753 164.03022222222222L 793.0103092783505 171.05599999999998L 794.9154639175258 169.92355555555557L 796.820618556701 180.02311111111112L 798.7257731958763 172.07288888888888L 800.6309278350516 163.53333333333333L 802.5360824742268 171.34488888888887L 804.441237113402 181.59466666666668L 806.3463917525773 179.80355555555556L 808.2515463917525 166.17955555555557L 810.1567010309278 154.92444444444445L 812.061855670103 158.4488888888889L 813.9670103092783 156.4728888888889L 815.8721649484537 144.4551111111111L 817.7773195876289 158.52977777777778L 819.6824742268042 178.00088888888888L 821.5876288659794 144.99822222222224L 823.4927835051546 134.136L 825.3979381443299 139.8213333333333L 827.3030927835051 145.04444444444445L 829.2082474226804 153.168L 831.1134020618557 140.53777777777776L 833.0185567010309 113.86755555555555L 834.9237113402062 113.28977777777777L 836.8288659793814 164.85066666666665L 838.7340206185567 163.62577777777778L 840.639175257732 150.16355555555555L 842.5443298969071 149.84L 844.4494845360825 56.54044444444443L 846.3546391752578 124.776L 848.259793814433 64.07466666666667L 850.1649484536083 123.55111111111111L 852.0701030927835 157.536L 853.9752577319588 147.9911111111111L 855.8804123711341 136.22755555555557L 857.7855670103093 91.11466666666666L 859.6907216494845 107.36177777777779L 861.5958762886598 141.68177777777777L 863.501030927835 157.73244444444444L 865.4061855670103 152.63644444444444L 867.3113402061855 96.22222222222221L 869.2164948453608 150.19822222222223L 871.1216494845361 116.57155555555556L 873.0268041237114 127.34133333333332L 874.9319587628867 180.53155555555554L 876.8371134020618 137.10577777777777L 878.7422680412371 122.64977777777779L 880.6474226804124 104.61155555555555L 882.5525773195876 141.76266666666666L 884.4577319587629 164.23822222222222L 886.3628865979382 160.51733333333334L 888.2680412371134 154.57777777777778L 890.1731958762887 175.01955555555554L 892.0783505154639 146.87022222222222L 893.9835051546391 153.23733333333334L 895.8886597938144 142.82577777777777L 897.7938144329896 130.98133333333334L 899.6989690721649 88.53777777777778L 901.6041237113402 174.488L 903.5092783505155 50.55466666666666L 905.4144329896908 84.43555555555557L 907.319587628866 152.47466666666668L 909.2247422680413 114.90755555555555L 911.1298969072166 96.30311111111112L 913.0350515463917 171.46044444444445L 914.940206185567 183.96355555555556L 916.8453608247422 169.87733333333333L 918.7505154639175 183.13155555555556L 920.6556701030928 171.992L 922.560824742268 152.48622222222224L 924.4659793814433 169.704L 926.3711340206186 172.99733333333333L 928.2762886597937 164.61955555555556L 930.181443298969 162.64355555555557L 932.0865979381443 170.51288888888888L 933.9917525773196 145.6568888888889L 935.8969072164949 159.81244444444445L 937.8020618556701 167.2542222222222L 939.7072164948454 141.55466666666666L 941.6123711340206 160.864L 943.5175257731959 157.7208888888889L 945.4226804123712 154.87822222222223L 947.3278350515463 145.29866666666666L 949.2329896907216 177.65422222222222L 951.1381443298969 119.73777777777778L 953.0432989690721 144.96355555555556L 954.9484536082474 151.15733333333333L 956.8536082474226 164.4231111111111L 958.7587628865979 174.1991111111111L 960.6639175257733 171.784L 962.5690721649485 157.12L 964.4742268041238 159.44266666666667L 966.379381443299 169.77333333333334L 968.2845360824742 166.64177777777778L 970.1896907216495 176.5102222222222L 972.0948453608247 174.04888888888888L 974 196.96355555555556" stroke-width="2.0" fill="none" />
    
        
        
        <text x="45.0" font-family="-apple-system, system-ui, BlinkMacSystemFont, Roboto" y="50.0" dominant-baseline="middle" text-anchor="end" font-size="12" fill="#24292f">13500.0</text>
        
            
            <path stroke="#74838f" stroke-dasharray="10 6" stroke-width="0.5"  d="M 50.0 50.0 L 974.0 50.0" />
        
    
        
        
        <text x="45.0" font-family="-apple-system, system-ui, BlinkMacSystemFont, Roboto" y="81.2" dominant-baseline="middle" text-anchor="end" font-size="12" fill="#24292f">10800.0</text>
        
            
            
            <path stroke="#74838f" stroke-dasharray="10 6" stroke-width="0.5"  d="M 50.0 81.2 L 974.0 81.2" />
        
    
        
        
        <text x="45.0" font-family="-apple-system, system-ui, BlinkMacSystemFont, Roboto" y="112.4" dominant-baseline="middle" text-anchor="end" font-size="12" fill="#24292f">8100.0</text>
        
            
            
            <path stroke="#74838f" stroke-dasharray="10 6" stroke-width="0.5"  d="M 50.0 112.4 L 974.0 112.4" />
        
    
        
        
        <text x="45.0" font-family="-apple-system, system-ui, BlinkMacSystemFont, Roboto" y="143.6" dominant-baseline="middle" text-anchor="end" font-size="12" fill="#24292f">5400.0</text>
        
            
            
            <path stroke="#74838f" stroke-dasharray="10 6" stroke-width="0.5"  d="M 50.0 143.6 L 974.0 143.6" />
        
    
        
        
        <text x="45.0" font-family="-apple-system, system-ui, BlinkMacSystemFont, Roboto" y="174.8" dominant-baseline="middle" text-anchor="end" font-size="12" fill="#24292f">2700.0</text>
        
            
            
            <path stroke="#74838f" stroke-dasharray="10 6" stroke-width="0.5"  d="M 50.0 174.8 L 974.0 174.8" />
        
    
        
        
        <text x="45.0" font-family="-apple-system, system-ui, BlinkMacSystemFont, Roboto" y="206.0" dominant-baseline="middle" text-anchor="end" font-size="12" fill="#24292f">0.0</text>
        
    
    
        
        <path stroke="#74838f"  stroke-width="2.0"  d="M 80.48247422680413 206.0 L 80.48247422680413 214.0" />
        <text x="80.48247422680413" font-family="-apple-system, system-ui, BlinkMacSystemFont, Roboto" y="216.0" dominant-baseline="hanging" text-anchor="middle" font-size="12" fill="#24292f">Mar 2022</text>
    
        
        <path stroke="#74838f"  stroke-width="2.0"  d="M 139.54226804123712 206.0 L 139.54226804123712 214.0" />
        <text x="139.54226804123712" font-family="-apple-system, system-ui, BlinkMacSystemFont, Roboto" y="216.0" dominant-baseline="hanging" text-anchor="middle" font-size="12" fill="#24292f">Apr 2022</text>
    
        
        <path stroke="#74838f"  stroke-width="2.0"  d="M 196.69690721649485 206.0 L 196.69690721649485 214.0" />
        <text x="196.69690721649485" font-family="-apple-system, system-ui, BlinkMacSystemFont, Roboto" y="216.0" dominant-baseline="hanging" text-anchor="middle" font-size="12" fill="#24292f">May 2022</text>
    
        
        <path stroke="#74838f"  stroke-width="2.0"  d="M 255.75670103092784 206.0 L 255.75670103092784 214.0" />
        <text x="255.75670103092784" font-family="-apple-system, system-ui, BlinkMacSystemFont, Roboto" y="216.0" dominant-baseline="hanging" text-anchor="middle" font-size="12" fill="#24292f">Jun 2022</text>
    
        
        <path stroke="#74838f"  stroke-width="2.0"  d="M 312.91134020618557 206.0 L 312.91134020618557 214.0" />
        <text x="312.91134020618557" font-family="-apple-system, system-ui, BlinkMacSystemFont, Roboto" y="216.0" dominant-baseline="hanging" text-anchor="middle" font-size="12" fill="#24292f">Jul 2022</text>
    
        
        <path stroke="#74838f"  stroke-width="2.0"  d="M 371.97113402061854 206.0 L 371.97113402061854 214.0" />
        <text x="371.97113402061854" font-family="-apple-system, system-ui, BlinkMacSystemFont, Roboto" y="216.0" dominant-baseline="hanging" text-anchor="middle" font-size="12" fill="#24292f">Aug 2022</text>
    
        
        <path stroke="#74838f"  stroke-width="2.0"  d="M 431.0309278350515 206.0 L 431.0309278350515 214.0" />
        <text x="431.0309278350515" font-family="-apple-system, system-ui, BlinkMacSystemFont, Roboto" y="216.0" dominant-baseline="hanging" text-anchor="middle" font-size="12" fill="#24292f">Sep 2022</text>
    
        
        <path stroke="#74838f"  stroke-width="2.0"  d="M 488.1855670103093 206.0 L 488.1855670103093 214.0" />
        <text x="488.1855670103093" font-family="-apple-system, system-ui, BlinkMacSystemFont, Roboto" y="216.0" dominant-baseline="hanging" text-anchor="middle" font-size="12" fill="#24292f">Oct 2022</text>
    
        
        <path stroke="#74838f"  stroke-width="2.0"  d="M 547.2453608247422 206.0 L 547.2453608247422 214.0" />
        <text x="547.2453608247422" font-family="-apple-system, system-ui, BlinkMacSystemFont, Roboto" y="216.0" dominant-baseline="hanging" text-anchor="middle" font-size="12" fill="#24292f">Nov 2022</text>
    
        
        <path stroke="#74838f"  stroke-width="2.0"  d="M 604.4 206.0 L 604.4 214.0" />
        <text x="604.4" font-family="-apple-system, system-ui, BlinkMacSystemFont, Roboto" y="216.0" dominant-baseline="hanging" text-anchor="middle" font-size="12" fill="#24292f">Dec 2022</text>
    
        
        <path stroke="#74838f"  stroke-width="2.0"  d="M 663.4597938144329 206.0 L 663.4597938144329 214.0" />
        <text x="663.4597938144329" font-family="-apple-system, system-ui, BlinkMacSystemFont, Roboto" y="216.0" dominant-baseline="hanging" text-anchor="middle" font-size="12" fill="#24292f">Jan 2023</text>
    
        
        <path stroke="#74838f"  stroke-width="2.0"  d="M 722.5195876288659 206.0 L 722.5195876288659 214.0" />
        <text x="722.5195876288659" font-family="-apple-system, system-ui, BlinkMacSystemFont, Roboto" y="216.0" dominant-baseline="hanging" text-anchor="middle" font-size="12" fill="#24292f">Feb 2023</text>
    
        
        <path stroke="#74838f"  stroke-width="2.0"  d="M 775.8639175257732 206.0 L 775.8639175257732 214.0" />
        <text x="775.8639175257732" font-family="-apple-system, system-ui, BlinkMacSystemFont, Roboto" y="216.0" dominant-baseline="hanging" text-anchor="middle" font-size="12" fill="#24292f">Mar 2023</text>
    
        
        <path stroke="#74838f"  stroke-width="2.0"  d="M 834.9237113402062 206.0 L 834.9237113402062 214.0" />
        <text x="834.9237113402062" font-family="-apple-system, system-ui, BlinkMacSystemFont, Roboto" y="216.0" dominant-baseline="hanging" text-anchor="middle" font-size="12" fill="#24292f">Apr 2023</text>
    
        
        <path stroke="#74838f"  stroke-width="2.0"  d="M 892.0783505154639 206.0 L 892.0783505154639 214.0" />
        <text x="892.0783505154639" font-family="-apple-system, system-ui, BlinkMacSystemFont, Roboto" y="216.0" dominant-baseline="hanging" text-anchor="middle" font-size="12" fill="#24292f">May 2023</text>
    
        
        <path stroke="#74838f"  stroke-width="2.0"  d="M 951.1381443298969 206.0 L 951.1381443298969 214.0" />
        <text x="951.1381443298969" font-family="-apple-system, system-ui, BlinkMacSystemFont, Roboto" y="216.0" dominant-baseline="hanging" text-anchor="middle" font-size="12" fill="#24292f">Jun 2023</text>
    
    <path stroke="#74838f"   stroke-linejoin="round" stroke-width="2.0" d="M 50.0 216.0 L 50.0 206.0 L 974.0 206.0 L 974.0 216.0"  fill="none" />
    <text x="512.0" y="25.0" font-family="-apple-system, system-ui, BlinkMacSystemFont, Roboto" dominant-baseline="middle" text-anchor="middle" font-size="18" fill="#24292f">Total daily suspensions</text>
</svg>
