<?xml version="1.0" standalone="no"?>
<svg width="1024.0" height="256.0"  viewBox="0 0 1024.0 256.0" preserveAspectRatio="xMidYMid meet" xmlns="http://www.w3.org/2000/svg">
    <path stroke="#e74c3c" stroke-linejoin="round" d="M 50.0 161.108 L 50 161.108L 52.275862068965516 193.664L 54.55172413793103 197.576L 56.827586206896555 197.924L 59.10344827586207 203.528L 61.37931034482759 199.94L 63.6551724137931 199.268L 65.93103448275862 191.108L 68.20689655172414 200.972L 70.48275862068965 198.62L 72.75862068965517 200L 75.0344827586207 202.57999999999998L 77.3103448275862 199.208L 79.58620689655173 195.608L 81.86206896551724 202.652L 84.13793103448276 198.716L 86.41379310344828 197.49200000000002L 88.6896551724138 191.42000000000002L 90.9655172413793 196.688L 93.24137931034483 199.46L 95.51724137931035 199.328L 97.79310344827587 198.308L 100.06896551724138 198.164L 102.34482758620689 199.832L 104.62068965517241 194.876L 106.89655172413794 199.904L 109.17241379310346 195.584L 111.44827586206897 200.732L 113.72413793103448 198.416L 116 190.652L 118.27586206896552 196.112L 120.55172413793103 190.82L 122.82758620689656 193.53199999999998L 125.10344827586206 199.688L 127.37931034482759 192.392L 129.6551724137931 197L 131.9310344827586 199.59199999999998L 134.20689655172413 193.54399999999998L 136.48275862068965 195.26L 138.75862068965517 195.428L 141.0344827586207 195.548L 143.31034482758622 196.484L 145.58620689655174 199.424L 147.86206896551724 199.22L 150.13793103448276 195.656L 152.41379310344828 193.952L 154.68965517241378 195.536L 156.9655172413793 198.764L 159.24137931034483 195.428L 161.51724137931035 194L 163.79310344827587 193.688L 166.0689655172414 186.32L 168.34482758620692 197.372L 170.62068965517244 195.96800000000002L 172.89655172413794 198.284L 175.17241379310343 194.38400000000001L 177.44827586206895 196.424L 179.72413793103448 196.988L 182 198.368L 184.2758620689655 198.05599999999998L 186.55172413793105 199.61599999999999L 188.82758620689657 191.54L 191.10344827586206 202.124L 193.3793103448276 193.34L 195.6551724137931 204.2L 197.93103448275863 206L 200.20689655172413 206L 202.48275862068965 206L 204.75862068965517 206L 207.03448275862067 190.472L 209.31034482758622 159.01999999999998L 211.58620689655174 193.56799999999998L 213.86206896551724 200.228L 216.13793103448276 193.232L 218.41379310344828 196.82L 220.68965517241378 199.772L 222.9655172413793 186.548L 225.24137931034483 197.888L 227.51724137931032 195.596L 229.79310344827587 190.508L 232.0689655172414 194.876L 234.3448275862069 190.4L 236.6206896551724 188.756L 238.89655172413794 197.852L 241.17241379310346 199.772L 243.44827586206895 191.936L 245.72413793103448 191.864L 248 199.316L 250.27586206896552 194.72L 252.55172413793105 192.608L 254.82758620689657 194.9L 257.1034482758621 199.7L 259.37931034482756 189.224L 261.65517241379314 198.428L 263.9310344827586 196.136L 266.2068965517241 195.296L 268.48275862068965 196.268L 270.7586206896552 193.184L 273.0344827586207 197.204L 275.3103448275862 193.856L 277.58620689655174 197.096L 279.8620689655172 178.16L 282.1379310344828 194.372L 284.41379310344826 195.92000000000002L 286.68965517241384 195.11599999999999L 288.9655172413793 196.688L 291.2413793103449 197.49200000000002L 293.51724137931035 197.696L 295.7931034482759 186.848L 298.0689655172414 192.644L 300.34482758620686 199.61599999999999L 302.62068965517244 193.052L 304.8965517241379 191.072L 307.17241379310343 195.44L 309.44827586206895 196.184L 311.7241379310345 196.46L 314 197.312L 316.2758620689655 193.076L 318.551724137931 206L 320.8275862068965 186.44L 323.1034482758621 186.632L 325.3793103448276 191.276L 327.65517241379314 180.93200000000002L 329.93103448275866 201.704L 332.2068965517241 185.744L 334.48275862068965 196.028L 336.7586206896552 189.464L 339.0344827586207 194.228L 341.3103448275862 195.632L 343.58620689655174 196.844L 345.86206896551727 186.332L 348.13793103448273 197.99599999999998L 350.41379310344826 188.924L 352.6896551724138 189.128L 354.9655172413793 196.748L 357.2413793103448 182.45600000000002L 359.51724137931035 184.16L 361.7931034482758 206L 364.06896551724134 206L 366.3448275862069 206L 368.62068965517244 160.16L 370.89655172413796 198.536L 373.1724137931035 196.60399999999998L 375.44827586206895 195.668L 377.7241379310345 192.8L 380 196.964L 382.2758620689655 197.828L 384.55172413793105 200.84L 386.82758620689657 170.312L 389.1034482758621 189.236L 391.37931034482756 177.428L 393.6551724137931 191.564L 395.9310344827586 178.784L 398.2068965517241 176.372L 400.48275862068965 181.7L 402.7586206896552 187.472L 405.03448275862064 192.88400000000001L 407.3103448275862 189.38L 409.58620689655174 187.772L 411.86206896551727 189.404L 414.1379310344828 187.532L 416.4137931034483 193.59199999999998L 418.6896551724138 185.036L 420.9655172413793 171.332L 423.2413793103448 180.14L 425.51724137931035 172.316L 427.7931034482759 193.028L 430.0689655172414 191.996L 432.3448275862069 193.052L 434.6206896551724 194.84L 436.8965517241379 193.53199999999998L 439.17241379310343 194.024L 441.44827586206895 189.272L 443.7241379310345 195.188L 446 196.256L 448.27586206896547 192.62L 450.55172413793105 190.844L 452.82758620689657 200.984L 455.1034482758621 184.796L 457.3793103448276 190.88L 459.65517241379314 194.42000000000002L 461.9310344827586 189.86L 464.2068965517241 195.86L 466.48275862068965 191.984L 468.7586206896552 193.1L 471.0344827586207 186.464L 473.3103448275862 190.46L 475.58620689655174 182.156L 477.8620689655172 187.136L 480.13793103448273 191.528L 482.41379310344826 184.1L 484.6896551724138 189.14L 486.9655172413793 185.204L 489.2413793103448 185.468L 491.51724137931035 176.816L 493.7931034482759 189.04399999999998L 496.0689655172414 191.048L 498.3448275862069 188.756L 500.62068965517244 187.592L 502.89655172413796 191.39600000000002L 505.17241379310343 187.796L 507.44827586206895 188.228L 509.7241379310345 190.268L 512 194.372L 514.2758620689656 194.72L 516.551724137931 201.308L 518.8275862068965 192.752L 521.1034482758621 181.148L 523.3793103448277 181.748L 525.655172413793 181.208L 527.9310344827586 191.3L 530.2068965517242 186.88400000000001L 532.4827586206898 181.376L 534.7586206896551 186.5L 537.0344827586207 188.44400000000002L 539.3103448275862 179.66L 541.5862068965517 183.09199999999998L 543.8620689655172 173.564L 546.1379310344828 183.836L 548.4137931034483 171.668L 550.6896551724137 148.148L 552.9655172413793 178.004L 555.2413793103449 141.86L 557.5172413793105 186.128L 559.7931034482758 188.54000000000002L 562.0689655172414 187.748L 564.3448275862069 193.256L 566.6206896551724 186.596L 568.8965517241379 185.42000000000002L 571.1724137931035 186.872L 573.448275862069 185.372L 575.7241379310345 192.824L 578 188.552L 580.2758620689656 189.32L 582.551724137931 186.632L 584.8275862068965 185.768L 587.103448275862 188.744L 589.3793103448276 187.34L 591.655172413793 192.488L 593.9310344827586 187.028L 596.2068965517242 185.468L 598.4827586206897 181.928L 600.7586206896552 183.8L 603.0344827586207 180.296L 605.3103448275863 185.516L 607.5862068965517 194L 609.8620689655173 190.328L 612.1379310344828 186.584L 614.4137931034483 168.32L 616.6896551724137 117.5L 618.9655172413793 189.10399999999998L 621.2413793103448 187.844L 623.5172413793103 190.28L 625.7931034482758 192.32L 628.0689655172414 189.2L 630.3448275862069 182.288L 632.6206896551724 188.49200000000002L 634.8965517241379 178.916L 637.1724137931035 53.432000000000016L 639.4482758620691 162.656L 641.7241379310345 184.52L 644 182.708L 646.2758620689655 183.68L 648.551724137931 184.196L 650.8275862068965 179.084L 653.1034482758621 190.16L 655.3793103448276 180.476L 657.6551724137931 160.916L 659.9310344827586 121.196L 662.2068965517242 151.50799999999998L 664.4827586206897 164.132L 666.7586206896552 181.184L 669.0344827586207 170.49200000000002L 671.3103448275862 179.792L 673.5862068965516 173.204L 675.8620689655172 178.352L 678.1379310344827 182.792L 680.4137931034483 177.152L 682.6896551724138 184.232L 684.9655172413793 187.796L 687.2413793103449 188.348L 689.5172413793103 184.736L 691.7931034482759 181.892L 694.0689655172414 181.796L 696.344827586207 179.36L 698.6206896551724 168.176L 700.8965517241379 181.808L 703.1724137931034 185.372L 705.448275862069 167.708L 707.7241379310344 140.6L 710 160.784L 712.2758620689655 151.664L 714.551724137931 145.952L 716.8275862068965 155.288L 719.1034482758621 153.68L 721.3793103448276 163.04L 723.6551724137931 172.064L 725.9310344827587 148.952L 728.2068965517242 171.812L 730.4827586206897 172.46L 732.7586206896551 172.508L 735.0344827586207 183.644L 737.3103448275862 166.304L 739.5862068965517 159.26L 741.8620689655172 172.652L 744.1379310344828 165.5L 746.4137931034483 154.892L 748.6896551724138 173.888L 750.9655172413793 176.3L 753.2413793103449 186.5L 755.5172413793103 183.932L 757.7931034482758 183.10399999999998L 760.0689655172413 150.128L 762.3448275862069 183.11599999999999L 764.6206896551724 186.152L 766.8965517241379 185.096L 769.1724137931035 182.276L 771.448275862069 182.18L 773.7241379310345 182.144L 776 174.956L 778.2758620689656 181.988L 780.551724137931 179.504L 782.8275862068966 184.784L 785.1034482758621 179L 787.3793103448276 175.868L 789.655172413793 177.14L 791.9310344827586 178.832L 794.2068965517241 182.216L 796.4827586206897 176.444L 798.7586206896551 182.576L 801.0344827586207 177.02L 803.3103448275862 178.58L 805.5862068965517 182.144L 807.8620689655173 179.48L 810.1379310344828 176.972L 812.4137931034484 186.164L 814.6896551724138 176.096L 816.9655172413793 178.04L 819.2413793103448 152.996L 821.5172413793103 130.724L 823.7931034482758 149.888L 826.0689655172414 149.48L 828.3448275862069 184.1L 830.6206896551724 184.484L 832.8965517241379 177.56L 835.1724137931035 139.952L 837.448275862069 148.028L 839.7241379310345 162.428L 842 136.244L 844.2758620689655 132.128L 846.5517241379309 142.508L 848.8275862068965 143.252L 851.1034482758621 125.732L 853.3793103448276 117.06800000000001L 855.6551724137931 164.264L 857.9310344827586 161.876L 860.2068965517242 158.636L 862.4827586206897 176.40800000000002L 864.7586206896552 186.632L 867.0344827586207 187.352L 869.3103448275863 186.152L 871.5862068965517 174.932L 873.8620689655172 178.388L 876.1379310344827 194.636L 878.4137931034483 184.748L 880.6896551724137 182.84L 882.9655172413793 173.78L 885.2413793103448 177.56L 887.5172413793103 179.996L 889.7931034482758 183.188L 892.0689655172414 153.68L 894.344827586207 147.548L 896.6206896551724 185.504L 898.896551724138 190.724L 901.1724137931035 174.752L 903.448275862069 174.32L 905.7241379310344 183.692L 908 189.06799999999998L 910.2758620689655 186.88400000000001L 912.551724137931 179.096L 914.8275862068965 175.808L 917.1034482758621 161.672L 919.3793103448276 160.424L 921.6551724137931 165.632L 923.9310344827586 179.336L 926.2068965517242 183.272L 928.4827586206897 191.024L 930.7586206896551 195.14L 933.0344827586207 182.684L 935.3103448275862 162.416L 937.5862068965517 169.712L 939.8620689655172 168.536L 942.1379310344828 179.024L 944.4137931034483 170.768L 946.6896551724138 161.9L 948.9655172413793 170.012L 951.2413793103449 180.656L 953.5172413793103 178.796L 955.7931034482759 164.648L 958.0689655172414 152.95999999999998L 960.3448275862069 156.62L 962.6206896551723 154.568L 964.8965517241379 142.088L 967.1724137931034 156.704L 969.448275862069 176.924L 971.7241379310344 142.652L 974 186.05599999999998" stroke-width="2.0" fill="none" />
    
        
        
        <text x="45.0" font-family="-apple-system, system-ui, BlinkMacSystemFont, Roboto" y="50.0" dominant-baseline="middle" text-anchor="end" font-size="12" fill="#24292f">13000.0</text>
        
            
            <path stroke="#74838f" stroke-dasharray="10 6" stroke-width="0.5"  d="M 50.0 50.0 L 974.0 50.0" />
        
    
        
        
        <text x="45.0" font-family="-apple-system, system-ui, BlinkMacSystemFont, Roboto" y="81.2" dominant-baseline="middle" text-anchor="end" font-size="12" fill="#24292f">10400.0</text>
        
            
            
            <path stroke="#74838f" stroke-dasharray="10 6" stroke-width="0.5"  d="M 50.0 81.2 L 974.0 81.2" />
        
    
        
        
        <text x="45.0" font-family="-apple-system, system-ui, BlinkMacSystemFont, Roboto" y="112.4" dominant-baseline="middle" text-anchor="end" font-size="12" fill="#24292f">7800.0</text>
        
            
            
            <path stroke="#74838f" stroke-dasharray="10 6" stroke-width="0.5"  d="M 50.0 112.4 L 974.0 112.4" />
        
    
        
        
        <text x="45.0" font-family="-apple-system, system-ui, BlinkMacSystemFont, Roboto" y="143.6" dominant-baseline="middle" text-anchor="end" font-size="12" fill="#24292f">5200.0</text>
        
            
            
            <path stroke="#74838f" stroke-dasharray="10 6" stroke-width="0.5"  d="M 50.0 143.6 L 974.0 143.6" />
        
    
        
        
        <text x="45.0" font-family="-apple-system, system-ui, BlinkMacSystemFont, Roboto" y="174.8" dominant-baseline="middle" text-anchor="end" font-size="12" fill="#24292f">2600.0</text>
        
            
            
            <path stroke="#74838f" stroke-dasharray="10 6" stroke-width="0.5"  d="M 50.0 174.8 L 974.0 174.8" />
        
    
        
        
        <text x="45.0" font-family="-apple-system, system-ui, BlinkMacSystemFont, Roboto" y="206.0" dominant-baseline="middle" text-anchor="end" font-size="12" fill="#24292f">0.0</text>
        
    
    
        
        <path stroke="#74838f"  stroke-width="2.0"  d="M 86.41379310344828 206.0 L 86.41379310344828 214.0" />
        <text x="86.41379310344828" font-family="-apple-system, system-ui, BlinkMacSystemFont, Roboto" y="216.0" dominant-baseline="hanging" text-anchor="middle" font-size="12" fill="#24292f">Mar 2022</text>
    
        
        <path stroke="#74838f"  stroke-width="2.0"  d="M 156.9655172413793 206.0 L 156.9655172413793 214.0" />
        <text x="156.9655172413793" font-family="-apple-system, system-ui, BlinkMacSystemFont, Roboto" y="216.0" dominant-baseline="hanging" text-anchor="middle" font-size="12" fill="#24292f">Apr 2022</text>
    
        
        <path stroke="#74838f"  stroke-width="2.0"  d="M 225.24137931034483 206.0 L 225.24137931034483 214.0" />
        <text x="225.24137931034483" font-family="-apple-system, system-ui, BlinkMacSystemFont, Roboto" y="216.0" dominant-baseline="hanging" text-anchor="middle" font-size="12" fill="#24292f">May 2022</text>
    
        
        <path stroke="#74838f"  stroke-width="2.0"  d="M 295.7931034482759 206.0 L 295.7931034482759 214.0" />
        <text x="295.7931034482759" font-family="-apple-system, system-ui, BlinkMacSystemFont, Roboto" y="216.0" dominant-baseline="hanging" text-anchor="middle" font-size="12" fill="#24292f">Jun 2022</text>
    
        
        <path stroke="#74838f"  stroke-width="2.0"  d="M 364.06896551724134 206.0 L 364.06896551724134 214.0" />
        <text x="364.06896551724134" font-family="-apple-system, system-ui, BlinkMacSystemFont, Roboto" y="216.0" dominant-baseline="hanging" text-anchor="middle" font-size="12" fill="#24292f">Jul 2022</text>
    
        
        <path stroke="#74838f"  stroke-width="2.0"  d="M 434.6206896551724 206.0 L 434.6206896551724 214.0" />
        <text x="434.6206896551724" font-family="-apple-system, system-ui, BlinkMacSystemFont, Roboto" y="216.0" dominant-baseline="hanging" text-anchor="middle" font-size="12" fill="#24292f">Aug 2022</text>
    
        
        <path stroke="#74838f"  stroke-width="2.0"  d="M 505.17241379310343 206.0 L 505.17241379310343 214.0" />
        <text x="505.17241379310343" font-family="-apple-system, system-ui, BlinkMacSystemFont, Roboto" y="216.0" dominant-baseline="hanging" text-anchor="middle" font-size="12" fill="#24292f">Sep 2022</text>
    
        
        <path stroke="#74838f"  stroke-width="2.0"  d="M 573.448275862069 206.0 L 573.448275862069 214.0" />
        <text x="573.448275862069" font-family="-apple-system, system-ui, BlinkMacSystemFont, Roboto" y="216.0" dominant-baseline="hanging" text-anchor="middle" font-size="12" fill="#24292f">Oct 2022</text>
    
        
        <path stroke="#74838f"  stroke-width="2.0"  d="M 644.0 206.0 L 644.0 214.0" />
        <text x="644.0" font-family="-apple-system, system-ui, BlinkMacSystemFont, Roboto" y="216.0" dominant-baseline="hanging" text-anchor="middle" font-size="12" fill="#24292f">Nov 2022</text>
    
        
        <path stroke="#74838f"  stroke-width="2.0"  d="M 712.2758620689655 206.0 L 712.2758620689655 214.0" />
        <text x="712.2758620689655" font-family="-apple-system, system-ui, BlinkMacSystemFont, Roboto" y="216.0" dominant-baseline="hanging" text-anchor="middle" font-size="12" fill="#24292f">Dec 2022</text>
    
        
        <path stroke="#74838f"  stroke-width="2.0"  d="M 782.8275862068966 206.0 L 782.8275862068966 214.0" />
        <text x="782.8275862068966" font-family="-apple-system, system-ui, BlinkMacSystemFont, Roboto" y="216.0" dominant-baseline="hanging" text-anchor="middle" font-size="12" fill="#24292f">Jan 2023</text>
    
        
        <path stroke="#74838f"  stroke-width="2.0"  d="M 853.3793103448276 206.0 L 853.3793103448276 214.0" />
        <text x="853.3793103448276" font-family="-apple-system, system-ui, BlinkMacSystemFont, Roboto" y="216.0" dominant-baseline="hanging" text-anchor="middle" font-size="12" fill="#24292f">Feb 2023</text>
    
        
        <path stroke="#74838f"  stroke-width="2.0"  d="M 917.1034482758621 206.0 L 917.1034482758621 214.0" />
        <text x="917.1034482758621" font-family="-apple-system, system-ui, BlinkMacSystemFont, Roboto" y="216.0" dominant-baseline="hanging" text-anchor="middle" font-size="12" fill="#24292f">Mar 2023</text>
    
    <path stroke="#74838f"   stroke-linejoin="round" stroke-width="2.0" d="M 50.0 216.0 L 50.0 206.0 L 974.0 206.0 L 974.0 216.0"  fill="none" />
    <text x="512.0" y="25.0" font-family="-apple-system, system-ui, BlinkMacSystemFont, Roboto" dominant-baseline="middle" text-anchor="middle" font-size="18" fill="#24292f">Total daily suspensions</text>
</svg>
