<?xml version="1.0" standalone="no"?>
<svg width="1024.0" height="256.0"  viewBox="0 0 1024.0 256.0" preserveAspectRatio="xMidYMid meet" xmlns="http://www.w3.org/2000/svg">
    <path stroke="#e74c3c" stroke-linejoin="round" d="M 50.0 161.108 L 50 161.108L 52.24271844660194 193.664L 54.48543689320388 197.576L 56.728155339805824 197.924L 58.970873786407765 203.528L 61.213592233009706 199.94L 63.45631067961165 199.268L 65.69902912621359 191.108L 67.94174757281553 200.972L 70.18446601941747 198.62L 72.42718446601941 200L 74.66990291262135 202.57999999999998L 76.9126213592233 199.208L 79.15533980582524 195.608L 81.39805825242718 202.652L 83.64077669902912 198.716L 85.88349514563106 197.49200000000002L 88.12621359223301 191.42000000000002L 90.36893203883496 196.688L 92.6116504854369 199.46L 94.85436893203882 199.328L 97.09708737864077 198.308L 99.3398058252427 198.164L 101.58252427184466 199.832L 103.8252427184466 194.876L 106.06796116504854 199.904L 108.31067961165049 195.584L 110.55339805825243 200.732L 112.79611650485437 198.416L 115.03883495145631 190.652L 117.28155339805825 196.112L 119.52427184466019 190.82L 121.76699029126213 193.53199999999998L 124.00970873786409 199.688L 126.25242718446603 192.392L 128.49514563106797 197L 130.7378640776699 199.59199999999998L 132.98058252427185 193.54399999999998L 135.2233009708738 195.26L 137.4660194174757 195.428L 139.70873786407765 195.548L 141.9514563106796 196.484L 144.19417475728153 199.424L 146.43689320388347 199.22L 148.6796116504854 195.656L 150.92233009708735 193.952L 153.16504854368932 195.536L 155.40776699029126 198.764L 157.6504854368932 195.428L 159.89320388349515 194L 162.1359223300971 193.688L 164.37864077669903 186.32L 166.62135922330097 197.372L 168.8640776699029 195.96800000000002L 171.10679611650485 198.284L 173.3495145631068 194.38400000000001L 175.59223300970874 196.424L 177.83495145631068 196.988L 180.07766990291262 198.368L 182.32038834951456 198.05599999999998L 184.5631067961165 199.61599999999999L 186.80582524271844 191.54L 189.04854368932038 202.124L 191.29126213592232 193.34L 193.53398058252426 204.2L 195.77669902912623 206L 198.01941747572818 206L 200.26213592233012 206L 202.50485436893206 206L 204.747572815534 190.472L 206.99029126213594 159.01999999999998L 209.23300970873788 193.56799999999998L 211.47572815533982 200.228L 213.71844660194176 193.232L 215.9611650485437 196.82L 218.20388349514565 199.772L 220.4466019417476 186.548L 222.68932038834953 197.888L 224.93203883495144 195.596L 227.17475728155338 190.508L 229.41747572815532 194.876L 231.66019417475727 190.4L 233.9029126213592 188.756L 236.14563106796115 197.852L 238.3883495145631 199.772L 240.63106796116503 191.936L 242.87378640776697 191.864L 245.1165048543689 199.316L 247.35922330097085 194.72L 249.6019417475728 192.608L 251.84466019417474 194.9L 254.0873786407767 199.7L 256.33009708737865 189.224L 258.5728155339806 198.428L 260.81553398058253 196.136L 263.05825242718447 195.296L 265.3009708737864 196.268L 267.54368932038835 193.184L 269.7864077669903 197.204L 272.02912621359224 193.856L 274.2718446601942 197.096L 276.5145631067961 178.16L 278.75728155339806 194.372L 281 195.92000000000002L 283.24271844660194 195.11599999999999L 285.4854368932039 196.688L 287.7281553398058 197.49200000000002L 289.97087378640776 197.696L 292.2135922330097 186.848L 294.45631067961165 192.644L 296.6990291262136 199.61599999999999L 298.94174757281553 193.052L 301.18446601941747 191.072L 303.4271844660194 195.44L 305.66990291262135 196.184L 307.9126213592233 196.46L 310.15533980582524 197.312L 312.3980582524272 193.076L 314.6407766990291 206L 316.88349514563106 186.44L 319.126213592233 186.632L 321.36893203883494 191.276L 323.6116504854369 180.93200000000002L 325.8543689320388 201.704L 328.09708737864077 185.744L 330.3398058252427 196.028L 332.58252427184465 189.464L 334.8252427184466 194.228L 337.06796116504853 195.632L 339.3106796116505 196.844L 341.55339805825247 186.332L 343.7961165048544 197.99599999999998L 346.03883495145635 188.924L 348.2815533980583 189.128L 350.52427184466023 196.748L 352.7669902912622 182.45600000000002L 355.0097087378641 184.16L 357.25242718446606 206L 359.495145631068 206L 361.73786407766994 206L 363.9805825242719 160.16L 366.2233009708738 198.536L 368.46601941747576 196.60399999999998L 370.7087378640777 195.668L 372.95145631067965 192.8L 375.1941747572816 196.964L 377.4368932038835 197.828L 379.67961165048547 200.84L 381.9223300970874 170.312L 384.16504854368935 189.236L 386.4077669902913 177.428L 388.65048543689323 191.564L 390.8932038834952 178.784L 393.1359223300971 176.372L 395.37864077669906 181.7L 397.62135922330094 187.472L 399.8640776699029 192.88400000000001L 402.1067961165048 189.38L 404.34951456310677 187.772L 406.5922330097087 189.404L 408.83495145631065 187.532L 411.0776699029126 193.59199999999998L 413.32038834951453 185.036L 415.5631067961165 171.332L 417.8058252427184 180.14L 420.04854368932035 172.316L 422.2912621359223 193.028L 424.53398058252424 191.996L 426.7766990291262 193.052L 429.0194174757281 194.84L 431.26213592233006 193.53199999999998L 433.504854368932 194.024L 435.74757281553394 189.272L 437.9902912621359 195.188L 440.2330097087378 196.256L 442.47572815533977 192.62L 444.7184466019417 190.844L 446.96116504854365 200.984L 449.2038834951456 184.796L 451.44660194174753 190.88L 453.6893203883495 194.42000000000002L 455.93203883495147 189.86L 458.1747572815534 195.86L 460.41747572815535 191.984L 462.6601941747573 193.1L 464.90291262135923 186.464L 467.1456310679612 190.46L 469.3883495145631 182.156L 471.63106796116506 187.136L 473.873786407767 191.528L 476.11650485436894 184.1L 478.3592233009709 189.14L 480.6019417475728 185.204L 482.84466019417476 185.468L 485.0873786407767 176.816L 487.33009708737865 189.04399999999998L 489.5728155339806 191.048L 491.81553398058253 188.756L 494.05825242718447 187.592L 496.3009708737864 191.39600000000002L 498.54368932038835 187.796L 500.7864077669903 188.228L 503.02912621359224 190.268L 505.2718446601942 194.372L 507.5145631067961 194.72L 509.75728155339806 201.308L 512 192.752L 514.2427184466019 181.148L 516.4854368932039 181.748L 518.7281553398059 181.208L 520.9708737864078 191.3L 523.2135922330096 186.88400000000001L 525.4563106796116 181.376L 527.6990291262136 186.5L 529.9417475728155 188.44400000000002L 532.1844660194174 179.66L 534.4271844660194 183.09199999999998L 536.6699029126214 173.564L 538.9126213592233 183.836L 541.1553398058252 171.668L 543.3980582524272 148.148L 545.6407766990292 178.004L 547.8834951456311 141.86L 550.126213592233 186.128L 552.3689320388349 188.54000000000002L 554.6116504854369 187.748L 556.8543689320388 193.256L 559.0970873786407 186.596L 561.3398058252427 185.42000000000002L 563.5825242718446 186.872L 565.8252427184466 185.372L 568.0679611650485 192.824L 570.3106796116505 188.552L 572.5533980582524 189.32L 574.7961165048544 186.632L 577.0388349514562 185.768L 579.2815533980582 188.744L 581.5242718446601 187.34L 583.7669902912621 192.488L 586.009708737864 187.028L 588.252427184466 185.468L 590.4951456310679 181.928L 592.7378640776699 183.8L 594.9805825242718 180.296L 597.2233009708738 185.516L 599.4660194174756 194L 601.7087378640776 190.328L 603.9514563106795 186.584L 606.1941747572815 168.32L 608.4368932038834 117.5L 610.6796116504854 189.10399999999998L 612.9223300970873 187.844L 615.1650485436893 190.28L 617.4077669902912 192.32L 619.6504854368932 189.2L 621.8932038834951 182.288L 624.1359223300971 188.49200000000002L 626.378640776699 178.916L 628.621359223301 53.432000000000016L 630.8640776699029 162.656L 633.1067961165049 184.52L 635.3495145631068 182.708L 637.5922330097088 183.68L 639.8349514563107 184.196L 642.0776699029127 179.084L 644.3203883495146 190.16L 646.5631067961166 180.476L 648.8058252427185 160.916L 651.0485436893205 121.196L 653.2912621359224 151.50799999999998L 655.5339805825244 164.132L 657.7766990291262 181.184L 660.0194174757282 170.49200000000002L 662.2621359223301 179.792L 664.5048543689321 173.204L 666.747572815534 178.352L 668.990291262136 182.792L 671.2330097087379 177.152L 673.4757281553399 184.232L 675.7184466019418 187.796L 677.9611650485438 188.348L 680.2038834951456 184.736L 682.4466019417476 181.892L 684.6893203883495 181.796L 686.9320388349515 179.36L 689.1747572815534 168.176L 691.4174757281554 181.808L 693.6601941747573 185.372L 695.9029126213593 167.708L 698.1456310679612 140.6L 700.3883495145632 160.784L 702.6310679611651 151.664L 704.873786407767 145.952L 707.1165048543689 155.288L 709.3592233009709 153.68L 711.6019417475728 163.04L 713.8446601941748 172.064L 716.0873786407767 148.952L 718.3300970873787 171.812L 720.5728155339806 172.46L 722.8155339805826 172.508L 725.0582524271845 183.644L 727.3009708737865 166.304L 729.5436893203884 159.26L 731.7864077669904 172.652L 734.0291262135922 165.5L 736.2718446601942 154.892L 738.5145631067961 173.888L 740.7572815533981 176.3L 743 186.5L 745.2427184466019 183.932L 747.4854368932039 183.10399999999998L 749.7281553398058 150.128L 751.9708737864078 183.11599999999999L 754.2135922330096 186.152L 756.4563106796116 185.096L 758.6990291262135 182.276L 760.9417475728155 182.18L 763.1844660194174 182.144L 765.4271844660194 174.956L 767.6699029126213 181.988L 769.9126213592233 179.504L 772.1553398058252 184.784L 774.3980582524272 179L 776.6407766990291 175.868L 778.8834951456311 177.14L 781.126213592233 178.832L 783.3689320388349 182.216L 785.6116504854368 176.444L 787.8543689320388 182.576L 790.0970873786407 177.02L 792.3398058252427 178.58L 794.5825242718446 182.144L 796.8252427184466 179.48L 799.0679611650485 176.972L 801.3106796116505 186.164L 803.5533980582524 176.096L 805.7961165048544 178.04L 808.0388349514562 152.996L 810.2815533980582 130.724L 812.5242718446601 149.888L 814.7669902912621 149.48L 817.009708737864 184.1L 819.252427184466 184.484L 821.4951456310679 177.56L 823.7378640776699 139.952L 825.9805825242718 148.028L 828.2233009708738 162.428L 830.4660194174756 136.244L 832.7087378640776 132.128L 834.9514563106795 142.508L 837.1941747572815 143.252L 839.4368932038834 125.732L 841.6796116504854 117.06800000000001L 843.9223300970873 164.264L 846.1650485436893 161.876L 848.4077669902912 158.636L 850.6504854368932 176.40800000000002L 852.8932038834951 186.632L 855.1359223300971 187.352L 857.378640776699 186.152L 859.621359223301 174.932L 861.8640776699029 178.388L 864.1067961165049 194.636L 866.3495145631068 184.748L 868.5922330097088 182.84L 870.8349514563107 173.78L 873.0776699029127 177.56L 875.3203883495146 179.996L 877.5631067961166 183.188L 879.8058252427185 153.68L 882.0485436893205 147.548L 884.2912621359224 185.504L 886.5339805825244 190.724L 888.7766990291262 174.752L 891.0194174757282 174.32L 893.2621359223301 183.692L 895.5048543689321 189.06799999999998L 897.747572815534 186.88400000000001L 899.990291262136 179.096L 902.2330097087379 175.808L 904.4757281553399 161.672L 906.7184466019418 160.424L 908.9611650485438 165.632L 911.2038834951456 179.336L 913.4466019417476 183.272L 915.6893203883495 191.024L 917.9320388349515 195.14L 920.1747572815534 182.684L 922.4174757281554 162.416L 924.6601941747573 169.712L 926.9029126213593 168.536L 929.1456310679612 179.024L 931.3883495145632 170.768L 933.6310679611651 161.9L 935.873786407767 170.012L 938.1165048543689 180.656L 940.3592233009709 178.796L 942.6019417475728 164.648L 944.8446601941748 152.95999999999998L 947.0873786407767 156.62L 949.3300970873787 154.568L 951.5728155339806 142.088L 953.8155339805826 156.704L 956.0582524271845 176.924L 958.3009708737865 142.652L 960.5436893203884 131.372L 962.7864077669904 137.276L 965.0291262135922 142.7L 967.2718446601942 151.136L 969.5145631067961 138.02L 971.7572815533981 110.324L 974 109.724" stroke-width="2.0" fill="none" />
    
        
        
        <text x="45.0" font-family="-apple-system, system-ui, BlinkMacSystemFont, Roboto" y="50.0" dominant-baseline="middle" text-anchor="end" font-size="12" fill="#24292f">13000.0</text>
        
            
            <path stroke="#74838f" stroke-dasharray="10 6" stroke-width="0.5"  d="M 50.0 50.0 L 974.0 50.0" />
        
    
        
        
        <text x="45.0" font-family="-apple-system, system-ui, BlinkMacSystemFont, Roboto" y="81.2" dominant-baseline="middle" text-anchor="end" font-size="12" fill="#24292f">10400.0</text>
        
            
            
            <path stroke="#74838f" stroke-dasharray="10 6" stroke-width="0.5"  d="M 50.0 81.2 L 974.0 81.2" />
        
    
        
        
        <text x="45.0" font-family="-apple-system, system-ui, BlinkMacSystemFont, Roboto" y="112.4" dominant-baseline="middle" text-anchor="end" font-size="12" fill="#24292f">7800.0</text>
        
            
            
            <path stroke="#74838f" stroke-dasharray="10 6" stroke-width="0.5"  d="M 50.0 112.4 L 974.0 112.4" />
        
    
        
        
        <text x="45.0" font-family="-apple-system, system-ui, BlinkMacSystemFont, Roboto" y="143.6" dominant-baseline="middle" text-anchor="end" font-size="12" fill="#24292f">5200.0</text>
        
            
            
            <path stroke="#74838f" stroke-dasharray="10 6" stroke-width="0.5"  d="M 50.0 143.6 L 974.0 143.6" />
        
    
        
        
        <text x="45.0" font-family="-apple-system, system-ui, BlinkMacSystemFont, Roboto" y="174.8" dominant-baseline="middle" text-anchor="end" font-size="12" fill="#24292f">2600.0</text>
        
            
            
            <path stroke="#74838f" stroke-dasharray="10 6" stroke-width="0.5"  d="M 50.0 174.8 L 974.0 174.8" />
        
    
        
        
        <text x="45.0" font-family="-apple-system, system-ui, BlinkMacSystemFont, Roboto" y="206.0" dominant-baseline="middle" text-anchor="end" font-size="12" fill="#24292f">0.0</text>
        
    
    
        
        <path stroke="#74838f"  stroke-width="2.0"  d="M 85.88349514563106 206.0 L 85.88349514563106 214.0" />
        <text x="85.88349514563106" font-family="-apple-system, system-ui, BlinkMacSystemFont, Roboto" y="216.0" dominant-baseline="hanging" text-anchor="middle" font-size="12" fill="#24292f">Mar 2022</text>
    
        
        <path stroke="#74838f"  stroke-width="2.0"  d="M 155.40776699029126 206.0 L 155.40776699029126 214.0" />
        <text x="155.40776699029126" font-family="-apple-system, system-ui, BlinkMacSystemFont, Roboto" y="216.0" dominant-baseline="hanging" text-anchor="middle" font-size="12" fill="#24292f">Apr 2022</text>
    
        
        <path stroke="#74838f"  stroke-width="2.0"  d="M 222.68932038834953 206.0 L 222.68932038834953 214.0" />
        <text x="222.68932038834953" font-family="-apple-system, system-ui, BlinkMacSystemFont, Roboto" y="216.0" dominant-baseline="hanging" text-anchor="middle" font-size="12" fill="#24292f">May 2022</text>
    
        
        <path stroke="#74838f"  stroke-width="2.0"  d="M 292.2135922330097 206.0 L 292.2135922330097 214.0" />
        <text x="292.2135922330097" font-family="-apple-system, system-ui, BlinkMacSystemFont, Roboto" y="216.0" dominant-baseline="hanging" text-anchor="middle" font-size="12" fill="#24292f">Jun 2022</text>
    
        
        <path stroke="#74838f"  stroke-width="2.0"  d="M 359.495145631068 206.0 L 359.495145631068 214.0" />
        <text x="359.495145631068" font-family="-apple-system, system-ui, BlinkMacSystemFont, Roboto" y="216.0" dominant-baseline="hanging" text-anchor="middle" font-size="12" fill="#24292f">Jul 2022</text>
    
        
        <path stroke="#74838f"  stroke-width="2.0"  d="M 429.0194174757281 206.0 L 429.0194174757281 214.0" />
        <text x="429.0194174757281" font-family="-apple-system, system-ui, BlinkMacSystemFont, Roboto" y="216.0" dominant-baseline="hanging" text-anchor="middle" font-size="12" fill="#24292f">Aug 2022</text>
    
        
        <path stroke="#74838f"  stroke-width="2.0"  d="M 498.54368932038835 206.0 L 498.54368932038835 214.0" />
        <text x="498.54368932038835" font-family="-apple-system, system-ui, BlinkMacSystemFont, Roboto" y="216.0" dominant-baseline="hanging" text-anchor="middle" font-size="12" fill="#24292f">Sep 2022</text>
    
        
        <path stroke="#74838f"  stroke-width="2.0"  d="M 565.8252427184466 206.0 L 565.8252427184466 214.0" />
        <text x="565.8252427184466" font-family="-apple-system, system-ui, BlinkMacSystemFont, Roboto" y="216.0" dominant-baseline="hanging" text-anchor="middle" font-size="12" fill="#24292f">Oct 2022</text>
    
        
        <path stroke="#74838f"  stroke-width="2.0"  d="M 635.3495145631068 206.0 L 635.3495145631068 214.0" />
        <text x="635.3495145631068" font-family="-apple-system, system-ui, BlinkMacSystemFont, Roboto" y="216.0" dominant-baseline="hanging" text-anchor="middle" font-size="12" fill="#24292f">Nov 2022</text>
    
        
        <path stroke="#74838f"  stroke-width="2.0"  d="M 702.6310679611651 206.0 L 702.6310679611651 214.0" />
        <text x="702.6310679611651" font-family="-apple-system, system-ui, BlinkMacSystemFont, Roboto" y="216.0" dominant-baseline="hanging" text-anchor="middle" font-size="12" fill="#24292f">Dec 2022</text>
    
        
        <path stroke="#74838f"  stroke-width="2.0"  d="M 772.1553398058252 206.0 L 772.1553398058252 214.0" />
        <text x="772.1553398058252" font-family="-apple-system, system-ui, BlinkMacSystemFont, Roboto" y="216.0" dominant-baseline="hanging" text-anchor="middle" font-size="12" fill="#24292f">Jan 2023</text>
    
        
        <path stroke="#74838f"  stroke-width="2.0"  d="M 841.6796116504854 206.0 L 841.6796116504854 214.0" />
        <text x="841.6796116504854" font-family="-apple-system, system-ui, BlinkMacSystemFont, Roboto" y="216.0" dominant-baseline="hanging" text-anchor="middle" font-size="12" fill="#24292f">Feb 2023</text>
    
        
        <path stroke="#74838f"  stroke-width="2.0"  d="M 904.4757281553399 206.0 L 904.4757281553399 214.0" />
        <text x="904.4757281553399" font-family="-apple-system, system-ui, BlinkMacSystemFont, Roboto" y="216.0" dominant-baseline="hanging" text-anchor="middle" font-size="12" fill="#24292f">Mar 2023</text>
    
        
        <path stroke="#74838f"  stroke-width="2.0"  d="M 974.0 206.0 L 974.0 214.0" />
        <text x="974.0" font-family="-apple-system, system-ui, BlinkMacSystemFont, Roboto" y="216.0" dominant-baseline="hanging" text-anchor="middle" font-size="12" fill="#24292f">Apr 2023</text>
    
    <path stroke="#74838f"   stroke-linejoin="round" stroke-width="2.0" d="M 50.0 216.0 L 50.0 206.0 L 974.0 206.0 L 974.0 216.0"  fill="none" />
    <text x="512.0" y="25.0" font-family="-apple-system, system-ui, BlinkMacSystemFont, Roboto" dominant-baseline="middle" text-anchor="middle" font-size="18" fill="#24292f">Total daily suspensions</text>
</svg>
