<?xml version="1.0" standalone="no"?>
<svg width="1024.0" height="256.0"  viewBox="0 0 1024.0 256.0" preserveAspectRatio="xMidYMid meet" xmlns="http://www.w3.org/2000/svg">
    <path stroke="#e74c3c" stroke-linejoin="round" d="M 50.0 162.77066666666667 L 50 162.77066666666667L 51.8406374501992 194.12088888888889L 53.68127490039841 197.888L 55.52191235059761 198.2231111111111L 57.36254980079681 203.61955555555556L 59.20318725099602 200.16444444444443L 61.04382470119522 199.51733333333334L 62.88446215139442 191.65955555555556L 64.72509960159363 201.1582222222222L 66.56573705179284 198.89333333333332L 68.40637450199203 200.22222222222223L 70.24701195219123 202.70666666666665L 72.08764940239044 199.45955555555554L 73.92828685258965 195.9928888888889L 75.76892430278885 202.776L 77.60956175298804 198.98577777777777L 79.45019920318725 197.8071111111111L 81.29083665338645 191.96L 83.13147410358566 197.0328888888889L 84.97211155378486 199.70222222222222L 86.81274900398407 199.5751111111111L 88.65338645418326 198.5928888888889L 90.49402390438247 198.45422222222223L 92.33466135458167 200.06044444444444L 94.17529880478088 195.288L 96.01593625498008 200.12977777777778L 97.85657370517929 195.96977777777778L 99.69721115537848 200.92711111111112L 101.5378486055777 198.6968888888889L 103.37848605577689 191.22044444444444L 105.2191235059761 196.47822222222223L 107.0597609561753 191.38222222222223L 108.9003984063745 193.99377777777778L 110.7410358565737 199.92177777777778L 112.5816733067729 192.89600000000002L 114.42231075697211 197.33333333333334L 116.26294820717132 199.82933333333332L 118.10358565737052 194.00533333333334L 119.94422310756973 195.65777777777777L 121.78486055776892 195.81955555555555L 123.62549800796813 195.9351111111111L 125.46613545816733 196.83644444444445L 127.30677290836653 199.66755555555557L 129.14741035856574 199.4711111111111L 130.98804780876495 196.0391111111111L 132.82868525896413 194.39822222222222L 134.66932270916334 195.92355555555554L 136.50996015936255 199.03199999999998L 138.35059760956176 195.81955555555555L 140.19123505976097 194.44444444444446L 142.03187250996015 194.144L 143.87250996015936 187.04888888888888L 145.71314741035857 197.69155555555557L 147.55378486055776 196.33955555555556L 149.39442231075697 198.56977777777777L 151.23505976095618 194.8142222222222L 153.0756972111554 196.77866666666665L 154.9163346613546 197.32177777777778L 156.75697211155378 198.65066666666667L 158.597609561753 198.35022222222221L 160.4382470119522 199.85244444444444L 162.27888446215138 192.07555555555555L 164.1195219123506 202.26755555555556L 165.9601593625498 193.80888888888887L 167.800796812749 204.26666666666665L 169.64143426294822 206L 171.4820717131474 206L 173.3227091633466 206L 175.1633466135458 206L 177.003984063745 191.04711111111112L 178.84462151394422 160.76L 180.68525896414343 194.02844444444446L 182.52589641434264 200.4417777777778L 184.36653386454185 193.7048888888889L 186.20717131474103 197.16L 188.04780876494024 200.00266666666667L 189.88844621513945 187.26844444444444L 191.72908366533864 198.18844444444443L 193.56972111553785 195.98133333333334L 195.41035856573706 191.08177777777777L 197.25099601593627 195.288L 199.09163346613545 190.97777777777776L 200.93227091633466 189.39466666666667L 202.77290836653387 198.15377777777778L 204.61354581673305 200.00266666666667L 206.45418326693226 192.4568888888889L 208.29482071713147 192.38755555555556L 210.13545816733068 199.56355555555555L 211.9760956175299 195.13777777777779L 213.8167330677291 193.10399999999998L 215.65737051792829 195.3111111111111L 217.4980079681275 199.93333333333334L 219.3386454183267 189.84533333333331L 221.1792828685259 198.70844444444444L 223.0199203187251 196.50133333333332L 224.8605577689243 195.69244444444445L 226.7011952191235 196.62844444444445L 228.5418326693227 193.65866666666668L 230.3824701195219 197.52977777777778L 232.2231075697211 194.3057777777778L 234.0637450199203 197.4257777777778L 235.90438247011951 179.19111111111113L 237.74501992031873 194.80266666666665L 239.58565737051794 196.29333333333335L 241.42629482071715 195.5191111111111L 243.26693227091636 197.0328888888889L 245.10756972111554 197.8071111111111L 246.94820717131475 198.00355555555555L 248.78884462151396 187.55733333333333L 250.62948207171314 193.13866666666667L 252.47011952191235 199.85244444444444L 254.31075697211156 193.53155555555554L 256.1513944223108 191.6248888888889L 257.99203187251 195.8311111111111L 259.8326693227092 196.54755555555556L 261.67330677290835 196.81333333333333L 263.51394422310756 197.63377777777777L 265.35458167330677 193.55466666666666L 267.195219123506 206L 269.0358565737052 187.16444444444446L 270.8764940239044 187.34933333333333L 272.71713147410355 191.8213333333333L 274.55776892430276 181.86044444444445L 276.398406374502 201.8631111111111L 278.2390438247012 186.49422222222222L 280.0796812749004 196.39733333333334L 281.9203187250996 190.07644444444443L 283.7609561752988 194.664L 285.601593625498 196.016L 287.44223107569724 197.18311111111112L 289.28286852589645 187.06044444444444L 291.1235059760956 198.29244444444444L 292.9641434262948 189.55644444444445L 294.804780876494 189.7528888888889L 296.6454183266932 197.09066666666666L 298.4860557768924 183.328L 300.3266932270916 184.9688888888889L 302.1673306772908 206L 304.00796812749 206L 305.8486055776892 206L 307.68924302788844 161.85777777777778L 309.52988047808765 198.81244444444445L 311.37051792828686 196.952L 313.21115537848607 196.05066666666667L 315.0517928286853 193.2888888888889L 316.8924302788845 197.29866666666666L 318.7330677290837 198.13066666666668L 320.5737051792829 201.0311111111111L 322.41434262948206 171.63377777777777L 324.2549800796813 189.85688888888888L 326.0956175298805 178.4862222222222L 327.9362549800797 192.09866666666667L 329.7768924302789 179.792L 331.6175298804781 177.46933333333334L 333.45816733067727 182.6L 335.2988047808765 188.1582222222222L 337.1394422310757 193.36977777777778L 338.9800796812749 189.99555555555554L 340.8207171314741 188.4471111111111L 342.6613545816733 190.01866666666666L 344.50199203187253 188.216L 346.3426294820717 194.05155555555555L 348.1832669322709 185.81244444444445L 350.0239043824701 172.61599999999999L 351.8645418326693 181.09777777777776L 353.7051792828685 173.56355555555555L 355.54581673306774 193.50844444444445L 357.3864541832669 192.51466666666667L 359.2270916334661 193.53155555555554L 361.0677290836653 195.25333333333333L 362.9083665338645 193.99377777777778L 364.74900398406373 194.46755555555555L 366.58964143426294 189.89155555555556L 368.43027888446215 195.58844444444446L 370.27091633466136 196.6168888888889L 372.1115537848606 193.11555555555555L 373.9521912350598 191.40533333333332L 375.792828685259 201.16977777777777L 377.6334661354582 185.58133333333333L 379.47410358565736 191.44L 381.31474103585657 194.8488888888889L 383.1553784860558 190.45777777777778L 384.996015936255 196.23555555555555L 386.8366533864542 192.5031111111111L 388.6772908366534 193.57777777777778L 390.5179282868526 187.18755555555555L 392.3585657370518 191.03555555555556L 394.199203187251 183.0391111111111L 396.0398406374502 187.83466666666666L 397.8804780876494 192.064L 399.7211155378486 184.9111111111111L 401.56175298804783 189.76444444444445L 403.402390438247 185.97422222222224L 405.2430278884462 186.22844444444445L 407.0836653386454 177.8968888888889L 408.9243027888446 189.672L 410.7649402390438 191.60177777777778L 412.60557768924303 189.39466666666667L 414.4462151394422 188.27377777777778L 416.2868525896414 191.9368888888889L 418.1274900398406 188.47022222222222L 419.9681274900398 188.88622222222222L 421.80876494023903 190.85066666666665L 423.64940239043824 194.80266666666665L 425.49003984063745 195.13777777777779L 427.33067729083666 201.48177777777778L 429.17131474103587 193.24266666666665L 431.0119521912351 182.06844444444445L 432.8525896414343 182.64622222222224L 434.6932270916335 182.12622222222222L 436.5338645418327 191.84444444444443L 438.37450199203187 187.592L 440.2151394422311 182.288L 442.0557768924303 187.22222222222223L 443.8964143426295 189.09422222222221L 445.7370517928287 180.63555555555556L 447.5776892430279 183.94044444444444L 449.4183266932271 174.76533333333333L 451.2589641434263 184.6568888888889L 453.0996015936255 172.93955555555556L 454.9402390438247 150.29066666666665L 456.7808764940239 179.0408888888889L 458.6215139442231 144.23555555555555L 460.4621513944223 186.864L 462.3027888446215 189.18666666666667L 464.1434262948207 188.424L 465.9840637450199 193.728L 467.8247011952191 187.31466666666665L 469.66533864541833 186.1822222222222L 471.50597609561754 187.58044444444445L 473.3466135458167 186.136L 475.1872509960159 193.312L 477.0278884462151 189.19822222222223L 478.8685258964143 189.9377777777778L 480.70916334661354 187.34933333333333L 482.54980079681275 186.51733333333334L 484.39043824701196 189.3831111111111L 486.23107569721117 188.0311111111111L 488.0717131474104 192.98844444444444L 489.9123505976096 187.73066666666668L 491.7529880478088 186.22844444444445L 493.593625498008 182.81955555555555L 495.43426294820716 184.6222222222222L 497.2749003984064 181.248L 499.1155378486056 186.27466666666666L 500.9561752988048 194.44444444444446L 502.796812749004 190.90844444444446L 504.6374501992032 187.30311111111112L 506.47808764940237 169.71555555555557L 508.3187250996016 120.77777777777779L 510.1593625498008 189.72977777777777L 512 188.51644444444446L 513.8406374501992 190.86222222222221L 515.6812749003984 192.82666666666665L 517.5219123505976 189.82222222222222L 519.3625498007968 183.16622222222222L 521.203187250996 189.14044444444443L 523.0438247011953 179.9191111111111L 524.8844621513945 59.082666666666654L 526.7250996015937 164.26133333333334L 528.5657370517929 185.31555555555556L 530.406374501992 183.57066666666668L 532.2470119521912 184.50666666666666L 534.0876494023904 185.00355555555555L 535.9282868525896 180.0808888888889L 537.7689243027888 190.74666666666667L 539.609561752988 181.42133333333334L 541.4501992031873 162.58577777777776L 543.2908366533864 124.3368888888889L 545.1314741035856 153.52622222222223L 546.9721115537848 165.68266666666668L 548.812749003984 182.1031111111111L 550.6533864541832 171.8071111111111L 552.4940239043824 180.76266666666666L 554.3346613545816 174.41866666666667L 556.1752988047808 179.376L 558.01593625498 183.65155555555555L 559.8565737051792 178.22044444444444L 561.6972111553785 185.03822222222223L 563.5378486055777 188.47022222222222L 565.3784860557769 189.00177777777776L 567.2191235059761 185.52355555555556L 569.0597609561753 182.7848888888889L 570.9003984063745 182.69244444444445L 572.7410358565737 180.34666666666666L 574.5816733067729 169.5768888888889L 576.4223107569721 182.704L 578.2629482071713 186.136L 580.1035856573706 169.12622222222222L 581.9442231075698 143.0222222222222L 583.784860557769 162.45866666666666L 585.6254980079682 153.67644444444443L 587.4661354581674 148.176L 589.3067729083666 157.16622222222222L 591.1474103585658 155.61777777777777L 592.9880478087649 164.63111111111112L 594.8286852589641 173.32088888888887L 596.6693227091633 151.0648888888889L 598.5099601593625 173.07822222222222L 600.3505976095618 173.70222222222222L 602.191235059761 173.74844444444443L 604.0318725099602 184.472L 605.8725099601594 167.77422222222222L 607.7131474103586 160.9911111111111L 609.5537848605578 173.8871111111111L 611.394422310757 167L 613.2350597609562 156.78488888888887L 615.0756972111554 175.07733333333334L 616.9163346613545 177.4L 618.7569721115538 187.22222222222223L 620.597609561753 184.74933333333334L 622.4382470119522 183.952L 624.2788844621514 152.19733333333335L 626.1195219123506 183.96355555555556L 627.9601593625498 186.8871111111111L 629.800796812749 185.87022222222222L 631.6414342629482 183.15466666666666L 633.4820717131474 183.06222222222223L 635.3227091633466 183.02755555555555L 637.1633466135459 176.10577777777777L 639.0039840637451 182.87733333333333L 640.8446215139442 180.48533333333333L 642.6852589641434 185.56977777777777L 644.5258964143426 180L 646.3665338645418 176.984L 648.207171314741 178.20888888888888L 650.0478087649402 179.8382222222222L 651.8884462151394 183.09688888888888L 653.7290836653386 177.53866666666667L 655.5697211155378 183.44355555555555L 657.410358565737 178.09333333333333L 659.2509960159363 179.59555555555556L 661.0916334661355 183.02755555555555L 662.9322709163346 180.4622222222222L 664.7729083665338 178.04711111111112L 666.613545816733 186.89866666666666L 668.4541832669322 177.20355555555557L 670.2948207171314 179.07555555555555L 672.1354581673306 154.9591111111111L 673.9760956175298 133.512L 675.816733067729 151.96622222222223L 677.6573705179283 151.57333333333332L 679.4980079681275 184.9111111111111L 681.3386454183267 185.28088888888888L 683.1792828685259 178.61333333333334L 685.0199203187251 142.39822222222222L 686.8605577689243 150.1751111111111L 688.7011952191235 164.04177777777778L 690.5418326693227 138.82755555555556L 692.3824701195219 134.864L 694.2231075697212 144.85955555555557L 696.0637450199204 145.57600000000002L 697.9043824701196 128.7048888888889L 699.7450199203188 120.36177777777777L 701.585657370518 165.80977777777778L 703.4262948207172 163.51022222222224L 705.2669322709164 160.39022222222223L 707.1075697211156 177.504L 708.9482071713147 187.34933333333333L 710.7888446215139 188.04266666666666L 712.6294820717131 186.8871111111111L 714.4701195219124 176.08266666666668L 716.3107569721116 179.41066666666666L 718.1513944223108 195.0568888888889L 719.99203187251 185.53511111111112L 721.8326693227092 183.6977777777778L 723.6733067729084 174.97333333333333L 725.5139442231076 178.61333333333334L 727.3545816733068 180.9591111111111L 729.195219123506 184.0328888888889L 731.0358565737052 155.61777777777777L 732.8764940239043 149.7128888888889L 734.7171314741036 186.2631111111111L 736.5577689243028 191.28977777777777L 738.398406374502 175.90933333333334L 740.2390438247012 175.49333333333334L 742.0796812749004 184.51822222222222L 743.9203187250996 189.69511111111112L 745.7609561752988 187.592L 747.601593625498 180.09244444444445L 749.4422310756972 176.92622222222224L 751.2828685258964 163.31377777777777L 753.1235059760957 162.112L 754.9641434262948 167.1271111111111L 756.804780876494 180.32355555555554L 758.6454183266932 184.11377777777778L 760.4860557768924 191.57866666666666L 762.3266932270916 195.54222222222222L 764.1673306772908 183.54755555555556L 766.00796812749 164.03022222222222L 767.8486055776892 171.05599999999998L 769.6892430278884 169.92355555555557L 771.5298804780876 180.02311111111112L 773.3705179282869 172.07288888888888L 775.2111553784861 163.53333333333333L 777.0517928286853 171.34488888888887L 778.8924302788844 181.59466666666668L 780.7330677290836 179.80355555555556L 782.5737051792828 166.17955555555557L 784.414342629482 154.92444444444445L 786.2549800796812 158.4488888888889L 788.0956175298804 156.4728888888889L 789.9362549800796 144.4551111111111L 791.7768924302788 158.52977777777778L 793.6175298804781 178.00088888888888L 795.4581673306773 144.99822222222224L 797.2988047808765 134.136L 799.1394422310757 139.8213333333333L 800.9800796812749 145.04444444444445L 802.8207171314741 153.168L 804.6613545816733 140.53777777777776L 806.5019920318725 113.86755555555555L 808.3426294820717 113.28977777777777L 810.183266932271 164.85066666666665L 812.0239043824702 163.62577777777778L 813.8645418326694 150.16355555555555L 815.7051792828686 149.84L 817.5458167330678 56.54044444444443L 819.386454183267 124.776L 821.2270916334662 64.07466666666667L 823.0677290836654 123.55111111111111L 824.9083665338645 157.536L 826.7490039840637 147.9911111111111L 828.589641434263 136.22755555555557L 830.4302788844622 91.11466666666666L 832.2709163346614 107.36177777777779L 834.1115537848606 141.68177777777777L 835.9521912350598 157.73244444444444L 837.792828685259 152.63644444444444L 839.6334661354582 96.22222222222221L 841.4741035856574 150.19822222222223L 843.3147410358566 116.57155555555556L 845.1553784860558 127.34133333333332L 846.9960159362549 180.53155555555554L 848.8366533864541 137.10577777777777L 850.6772908366534 122.64977777777779L 852.5179282868526 104.61155555555555L 854.3585657370518 141.76266666666666L 856.199203187251 164.23822222222222L 858.0398406374502 160.51733333333334L 859.8804780876494 154.57777777777778L 861.7211155378486 175.01955555555554L 863.5617529880478 146.87022222222222L 865.402390438247 153.23733333333334L 867.2430278884462 142.82577777777777L 869.0836653386455 130.98133333333334L 870.9243027888446 88.53777777777778L 872.7649402390438 174.488L 874.605577689243 50.55466666666666L 876.4462151394422 84.43555555555557L 878.2868525896414 152.47466666666668L 880.1274900398406 114.90755555555555L 881.9681274900398 96.30311111111112L 883.808764940239 171.46044444444445L 885.6494023904382 183.96355555555556L 887.4900398406375 169.87733333333333L 889.3306772908367 183.13155555555556L 891.1713147410359 171.992L 893.0119521912351 152.48622222222224L 894.8525896414342 169.704L 896.6932270916334 172.99733333333333L 898.5338645418326 164.61955555555556L 900.3745019920318 162.64355555555557L 902.215139442231 170.51288888888888L 904.0557768924302 145.6568888888889L 905.8964143426294 159.81244444444445L 907.7370517928287 167.2542222222222L 909.5776892430279 141.55466666666666L 911.4183266932271 160.864L 913.2589641434263 157.7208888888889L 915.0996015936255 154.87822222222223L 916.9402390438247 145.29866666666666L 918.7808764940239 177.65422222222222L 920.6215139442231 119.73777777777778L 922.4621513944223 144.96355555555556L 924.3027888446215 151.15733333333333L 926.1434262948208 164.4231111111111L 927.98406374502 174.1991111111111L 929.8247011952192 171.784L 931.6653386454184 157.12L 933.5059760956176 159.44266666666667L 935.3466135458168 169.77333333333334L 937.187250996016 166.64177777777778L 939.0278884462151 176.5102222222222L 940.8685258964143 174.04888888888888L 942.7091633466135 157.17777777777778L 944.5498007968127 148.66133333333335L 946.390438247012 141.01155555555556L 948.2310756972112 147.49422222222222L 950.0717131474104 147.08977777777778L 951.9123505976096 164.78133333333332L 953.7529880478088 160.4711111111111L 955.593625498008 165.59022222222222L 957.4342629482072 150.85688888888888L 959.2749003984064 165.84444444444443L 961.1155378486056 164.65422222222222L 962.9561752988047 206L 964.796812749004 150.68355555555556L 966.6374501992032 81.07288888888888L 968.4780876494024 172.89333333333332L 970.3187250996016 125.80444444444444L 972.1593625498008 111.776L 974 174.11822222222222" stroke-width="2.0" fill="none" />
    
        
        
        <text x="45.0" font-family="-apple-system, system-ui, BlinkMacSystemFont, Roboto" y="50.0" dominant-baseline="middle" text-anchor="end" font-size="12" fill="#24292f">13500.0</text>
        
            
            <path stroke="#74838f" stroke-dasharray="10 6" stroke-width="0.5"  d="M 50.0 50.0 L 974.0 50.0" />
        
    
        
        
        <text x="45.0" font-family="-apple-system, system-ui, BlinkMacSystemFont, Roboto" y="81.2" dominant-baseline="middle" text-anchor="end" font-size="12" fill="#24292f">10800.0</text>
        
            
            
            <path stroke="#74838f" stroke-dasharray="10 6" stroke-width="0.5"  d="M 50.0 81.2 L 974.0 81.2" />
        
    
        
        
        <text x="45.0" font-family="-apple-system, system-ui, BlinkMacSystemFont, Roboto" y="112.4" dominant-baseline="middle" text-anchor="end" font-size="12" fill="#24292f">8100.0</text>
        
            
            
            <path stroke="#74838f" stroke-dasharray="10 6" stroke-width="0.5"  d="M 50.0 112.4 L 974.0 112.4" />
        
    
        
        
        <text x="45.0" font-family="-apple-system, system-ui, BlinkMacSystemFont, Roboto" y="143.6" dominant-baseline="middle" text-anchor="end" font-size="12" fill="#24292f">5400.0</text>
        
            
            
            <path stroke="#74838f" stroke-dasharray="10 6" stroke-width="0.5"  d="M 50.0 143.6 L 974.0 143.6" />
        
    
        
        
        <text x="45.0" font-family="-apple-system, system-ui, BlinkMacSystemFont, Roboto" y="174.8" dominant-baseline="middle" text-anchor="end" font-size="12" fill="#24292f">2700.0</text>
        
            
            
            <path stroke="#74838f" stroke-dasharray="10 6" stroke-width="0.5"  d="M 50.0 174.8 L 974.0 174.8" />
        
    
        
        
        <text x="45.0" font-family="-apple-system, system-ui, BlinkMacSystemFont, Roboto" y="206.0" dominant-baseline="middle" text-anchor="end" font-size="12" fill="#24292f">0.0</text>
        
    
    
        
        <path stroke="#74838f"  stroke-width="2.0"  d="M 79.45019920318725 206.0 L 79.45019920318725 214.0" />
        <text x="79.45019920318725" font-family="-apple-system, system-ui, BlinkMacSystemFont, Roboto" y="216.0" dominant-baseline="hanging" text-anchor="middle" font-size="12" fill="#24292f">Mar 2022</text>
    
        
        <path stroke="#74838f"  stroke-width="2.0"  d="M 136.50996015936255 206.0 L 136.50996015936255 214.0" />
        <text x="136.50996015936255" font-family="-apple-system, system-ui, BlinkMacSystemFont, Roboto" y="216.0" dominant-baseline="hanging" text-anchor="middle" font-size="12" fill="#24292f">Apr 2022</text>
    
        
        <path stroke="#74838f"  stroke-width="2.0"  d="M 191.72908366533864 206.0 L 191.72908366533864 214.0" />
        <text x="191.72908366533864" font-family="-apple-system, system-ui, BlinkMacSystemFont, Roboto" y="216.0" dominant-baseline="hanging" text-anchor="middle" font-size="12" fill="#24292f">May 2022</text>
    
        
        <path stroke="#74838f"  stroke-width="2.0"  d="M 248.78884462151396 206.0 L 248.78884462151396 214.0" />
        <text x="248.78884462151396" font-family="-apple-system, system-ui, BlinkMacSystemFont, Roboto" y="216.0" dominant-baseline="hanging" text-anchor="middle" font-size="12" fill="#24292f">Jun 2022</text>
    
        
        <path stroke="#74838f"  stroke-width="2.0"  d="M 304.00796812749 206.0 L 304.00796812749 214.0" />
        <text x="304.00796812749" font-family="-apple-system, system-ui, BlinkMacSystemFont, Roboto" y="216.0" dominant-baseline="hanging" text-anchor="middle" font-size="12" fill="#24292f">Jul 2022</text>
    
        
        <path stroke="#74838f"  stroke-width="2.0"  d="M 361.0677290836653 206.0 L 361.0677290836653 214.0" />
        <text x="361.0677290836653" font-family="-apple-system, system-ui, BlinkMacSystemFont, Roboto" y="216.0" dominant-baseline="hanging" text-anchor="middle" font-size="12" fill="#24292f">Aug 2022</text>
    
        
        <path stroke="#74838f"  stroke-width="2.0"  d="M 418.1274900398406 206.0 L 418.1274900398406 214.0" />
        <text x="418.1274900398406" font-family="-apple-system, system-ui, BlinkMacSystemFont, Roboto" y="216.0" dominant-baseline="hanging" text-anchor="middle" font-size="12" fill="#24292f">Sep 2022</text>
    
        
        <path stroke="#74838f"  stroke-width="2.0"  d="M 473.3466135458167 206.0 L 473.3466135458167 214.0" />
        <text x="473.3466135458167" font-family="-apple-system, system-ui, BlinkMacSystemFont, Roboto" y="216.0" dominant-baseline="hanging" text-anchor="middle" font-size="12" fill="#24292f">Oct 2022</text>
    
        
        <path stroke="#74838f"  stroke-width="2.0"  d="M 530.406374501992 206.0 L 530.406374501992 214.0" />
        <text x="530.406374501992" font-family="-apple-system, system-ui, BlinkMacSystemFont, Roboto" y="216.0" dominant-baseline="hanging" text-anchor="middle" font-size="12" fill="#24292f">Nov 2022</text>
    
        
        <path stroke="#74838f"  stroke-width="2.0"  d="M 585.6254980079682 206.0 L 585.6254980079682 214.0" />
        <text x="585.6254980079682" font-family="-apple-system, system-ui, BlinkMacSystemFont, Roboto" y="216.0" dominant-baseline="hanging" text-anchor="middle" font-size="12" fill="#24292f">Dec 2022</text>
    
        
        <path stroke="#74838f"  stroke-width="2.0"  d="M 642.6852589641434 206.0 L 642.6852589641434 214.0" />
        <text x="642.6852589641434" font-family="-apple-system, system-ui, BlinkMacSystemFont, Roboto" y="216.0" dominant-baseline="hanging" text-anchor="middle" font-size="12" fill="#24292f">Jan 2023</text>
    
        
        <path stroke="#74838f"  stroke-width="2.0"  d="M 699.7450199203188 206.0 L 699.7450199203188 214.0" />
        <text x="699.7450199203188" font-family="-apple-system, system-ui, BlinkMacSystemFont, Roboto" y="216.0" dominant-baseline="hanging" text-anchor="middle" font-size="12" fill="#24292f">Feb 2023</text>
    
        
        <path stroke="#74838f"  stroke-width="2.0"  d="M 751.2828685258964 206.0 L 751.2828685258964 214.0" />
        <text x="751.2828685258964" font-family="-apple-system, system-ui, BlinkMacSystemFont, Roboto" y="216.0" dominant-baseline="hanging" text-anchor="middle" font-size="12" fill="#24292f">Mar 2023</text>
    
        
        <path stroke="#74838f"  stroke-width="2.0"  d="M 808.3426294820717 206.0 L 808.3426294820717 214.0" />
        <text x="808.3426294820717" font-family="-apple-system, system-ui, BlinkMacSystemFont, Roboto" y="216.0" dominant-baseline="hanging" text-anchor="middle" font-size="12" fill="#24292f">Apr 2023</text>
    
        
        <path stroke="#74838f"  stroke-width="2.0"  d="M 863.5617529880478 206.0 L 863.5617529880478 214.0" />
        <text x="863.5617529880478" font-family="-apple-system, system-ui, BlinkMacSystemFont, Roboto" y="216.0" dominant-baseline="hanging" text-anchor="middle" font-size="12" fill="#24292f">May 2023</text>
    
        
        <path stroke="#74838f"  stroke-width="2.0"  d="M 920.6215139442231 206.0 L 920.6215139442231 214.0" />
        <text x="920.6215139442231" font-family="-apple-system, system-ui, BlinkMacSystemFont, Roboto" y="216.0" dominant-baseline="hanging" text-anchor="middle" font-size="12" fill="#24292f">Jun 2023</text>
    
    <path stroke="#74838f"   stroke-linejoin="round" stroke-width="2.0" d="M 50.0 216.0 L 50.0 206.0 L 974.0 206.0 L 974.0 216.0"  fill="none" />
    <text x="512.0" y="25.0" font-family="-apple-system, system-ui, BlinkMacSystemFont, Roboto" dominant-baseline="middle" text-anchor="middle" font-size="18" fill="#24292f">Total daily suspensions</text>
</svg>
