<?xml version="1.0" standalone="no"?>
<svg width="1024.0" height="256.0"  viewBox="0 0 1024.0 256.0" preserveAspectRatio="xMidYMid meet" xmlns="http://www.w3.org/2000/svg">
    <path stroke="#e74c3c" stroke-linejoin="round" d="M 50.0 162.77066666666667 L 50 162.77066666666667L 51.855421686746986 194.12088888888889L 53.71084337349397 197.888L 55.566265060240966 198.2231111111111L 57.42168674698795 203.61955555555556L 59.27710843373494 200.16444444444443L 61.13253012048193 199.51733333333334L 62.98795180722892 191.65955555555556L 64.8433734939759 201.1582222222222L 66.6987951807229 198.89333333333332L 68.55421686746988 200.22222222222223L 70.40963855421687 202.70666666666665L 72.26506024096386 199.45955555555554L 74.12048192771084 195.9928888888889L 75.97590361445783 202.776L 77.83132530120483 198.98577777777777L 79.6867469879518 197.8071111111111L 81.5421686746988 191.96L 83.39759036144578 197.0328888888889L 85.25301204819277 199.70222222222222L 87.10843373493975 199.5751111111111L 88.96385542168674 198.5928888888889L 90.81927710843374 198.45422222222223L 92.67469879518072 200.06044444444444L 94.53012048192771 195.288L 96.3855421686747 200.12977777777778L 98.24096385542168 195.96977777777778L 100.09638554216868 200.92711111111112L 101.95180722891567 198.6968888888889L 103.80722891566265 191.22044444444444L 105.66265060240964 196.47822222222223L 107.51807228915662 191.38222222222223L 109.37349397590361 193.99377777777778L 111.2289156626506 199.92177777777778L 113.0843373493976 192.89600000000002L 114.93975903614458 197.33333333333334L 116.79518072289156 199.82933333333332L 118.65060240963855 194.00533333333334L 120.50602409638554 195.65777777777777L 122.36144578313254 195.81955555555555L 124.21686746987952 195.9351111111111L 126.0722891566265 196.83644444444445L 127.92771084337349 199.66755555555557L 129.7831325301205 199.4711111111111L 131.63855421686748 196.0391111111111L 133.49397590361446 194.39822222222222L 135.34939759036143 195.92355555555554L 137.2048192771084 199.03199999999998L 139.06024096385542 195.81955555555555L 140.91566265060243 194.44444444444446L 142.7710843373494 194.144L 144.6265060240964 187.04888888888888L 146.48192771084337 197.69155555555557L 148.33734939759037 196.33955555555556L 150.19277108433735 198.56977777777777L 152.04819277108433 194.8142222222222L 153.90361445783134 196.77866666666665L 155.75903614457832 197.32177777777778L 157.6144578313253 198.65066666666667L 159.46987951807228 198.35022222222221L 161.32530120481928 199.85244444444444L 163.18072289156626 192.07555555555555L 165.03614457831324 202.26755555555556L 166.89156626506025 193.80888888888887L 168.74698795180723 204.26666666666665L 170.60240963855424 206L 172.4578313253012 206L 174.3132530120482 206L 176.1686746987952 206L 178.02409638554218 191.04711111111112L 179.87951807228916 160.76L 181.73493975903614 194.02844444444446L 183.59036144578312 200.4417777777778L 185.44578313253012 193.7048888888889L 187.3012048192771 197.16L 189.1566265060241 200.00266666666667L 191.0120481927711 187.26844444444444L 192.86746987951807 198.18844444444443L 194.72289156626508 195.98133333333334L 196.57831325301206 191.08177777777777L 198.43373493975903 195.288L 200.289156626506 190.97777777777776L 202.144578313253 189.39466666666667L 204 198.15377777777778L 205.85542168674698 200.00266666666667L 207.710843373494 192.4568888888889L 209.56626506024097 192.38755555555556L 211.42168674698794 199.56355555555555L 213.27710843373495 195.13777777777779L 215.13253012048193 193.10399999999998L 216.9879518072289 195.3111111111111L 218.8433734939759 199.93333333333334L 220.6987951807229 189.84533333333331L 222.55421686746988 198.70844444444444L 224.40963855421685 196.50133333333332L 226.26506024096386 195.69244444444445L 228.12048192771084 196.62844444444445L 229.97590361445785 193.65866666666668L 231.83132530120483 197.52977777777778L 233.6867469879518 194.3057777777778L 235.5421686746988 197.4257777777778L 237.3975903614458 179.19111111111113L 239.25301204819277 194.80266666666665L 241.10843373493975 196.29333333333335L 242.96385542168673 195.5191111111111L 244.81927710843374 197.0328888888889L 246.67469879518075 197.8071111111111L 248.53012048192772 198.00355555555555L 250.3855421686747 187.55733333333333L 252.24096385542168 193.13866666666667L 254.09638554216866 199.85244444444444L 255.95180722891567 193.53155555555554L 257.8072289156627 191.6248888888889L 259.6626506024096 195.8311111111111L 261.51807228915663 196.54755555555556L 263.3734939759036 196.81333333333333L 265.2289156626506 197.63377777777777L 267.08433734939763 193.55466666666666L 268.93975903614455 206L 270.7951807228916 187.16444444444446L 272.65060240963857 187.34933333333333L 274.50602409638554 191.8213333333333L 276.3614457831325 181.86044444444445L 278.2168674698795 201.8631111111111L 280.0722891566265 186.49422222222222L 281.9277108433735 196.39733333333334L 283.7831325301205 190.07644444444443L 285.6385542168675 194.664L 287.49397590361446 196.016L 289.34939759036143 197.18311111111112L 291.20481927710847 187.06044444444444L 293.06024096385545 198.29244444444444L 294.9156626506024 189.55644444444445L 296.7710843373494 189.7528888888889L 298.6265060240964 197.09066666666666L 300.48192771084337 183.328L 302.3373493975904 184.9688888888889L 304.1927710843373 206L 306.04819277108436 206L 307.9036144578313 206L 309.7590361445783 161.85777777777778L 311.6144578313253 198.81244444444445L 313.4698795180723 196.952L 315.3253012048193 196.05066666666667L 317.18072289156623 193.2888888888889L 319.03614457831327 197.29866666666666L 320.89156626506025 198.13066666666668L 322.7469879518072 201.0311111111111L 324.6024096385542 171.63377777777777L 326.4578313253012 189.85688888888888L 328.3132530120482 178.4862222222222L 330.1686746987952 192.09866666666667L 332.0240963855422 179.792L 333.87951807228916 177.46933333333334L 335.73493975903614 182.6L 337.5903614457831 188.1582222222222L 339.44578313253015 193.36977777777778L 341.3012048192771 189.99555555555554L 343.1566265060241 188.4471111111111L 345.01204819277103 190.01866666666666L 346.86746987951807 188.216L 348.7228915662651 194.05155555555555L 350.578313253012 185.81244444444445L 352.43373493975906 172.61599999999999L 354.289156626506 181.09777777777776L 356.144578313253 173.56355555555555L 358 193.50844444444445L 359.855421686747 192.51466666666667L 361.71084337349396 193.53155555555554L 363.56626506024094 195.25333333333333L 365.421686746988 193.99377777777778L 367.27710843373495 194.46755555555555L 369.13253012048193 189.89155555555556L 370.9879518072289 195.58844444444446L 372.8433734939759 196.6168888888889L 374.69879518072287 193.11555555555555L 376.5542168674699 191.40533333333332L 378.4096385542168 201.16977777777777L 380.26506024096386 185.58133333333333L 382.12048192771084 191.44L 383.9759036144578 194.8488888888889L 385.83132530120486 190.45777777777778L 387.6867469879518 196.23555555555555L 389.5421686746988 192.5031111111111L 391.3975903614458 193.57777777777778L 393.2530120481928 187.18755555555555L 395.10843373493975 191.03555555555556L 396.96385542168673 183.0391111111111L 398.8192771084337 187.83466666666666L 400.67469879518075 192.064L 402.5301204819277 184.9111111111111L 404.3855421686747 189.76444444444445L 406.2409638554217 185.97422222222224L 408.09638554216866 186.22844444444445L 409.9518072289157 177.8968888888889L 411.8072289156626 189.672L 413.66265060240966 191.60177777777778L 415.51807228915663 189.39466666666667L 417.3734939759036 188.27377777777778L 419.2289156626506 191.9368888888889L 421.0843373493976 188.47022222222222L 422.9397590361446 188.88622222222222L 424.7951807228916 190.85066666666665L 426.65060240963857 194.80266666666665L 428.50602409638554 195.13777777777779L 430.3614457831325 201.48177777777778L 432.2168674698795 193.24266666666665L 434.07228915662654 182.06844444444445L 435.92771084337346 182.64622222222224L 437.7831325301205 182.12622222222222L 439.6385542168675 191.84444444444443L 441.49397590361446 187.592L 443.3493975903615 182.288L 445.2048192771084 187.22222222222223L 447.06024096385545 189.09422222222221L 448.91566265060237 180.63555555555556L 450.7710843373494 183.94044444444444L 452.6265060240964 174.76533333333333L 454.48192771084337 184.6568888888889L 456.33734939759034 172.93955555555556L 458.1927710843373 150.29066666666665L 460.04819277108436 179.0408888888889L 461.90361445783134 144.23555555555555L 463.7590361445783 186.864L 465.6144578313253 189.18666666666667L 467.4698795180723 188.424L 469.32530120481925 193.728L 471.1807228915663 187.31466666666665L 473.0361445783132 186.1822222222222L 474.89156626506025 187.58044444444445L 476.7469879518072 186.136L 478.6024096385542 193.312L 480.45783132530124 189.19822222222223L 482.31325301204816 189.9377777777778L 484.1686746987952 187.34933333333333L 486.0240963855422 186.51733333333334L 487.87951807228916 189.3831111111111L 489.73493975903614 188.0311111111111L 491.5903614457831 192.98844444444444L 493.4457831325301 187.73066666666668L 495.30120481927713 186.22844444444445L 497.1566265060241 182.81955555555555L 499.0120481927711 184.6222222222222L 500.86746987951807 181.248L 502.72289156626505 186.27466666666666L 504.5783132530121 194.44444444444446L 506.433734939759 190.90844444444446L 508.28915662650604 187.30311111111112L 510.14457831325296 169.71555555555557L 512 120.77777777777779L 513.855421686747 189.72977777777777L 515.7108433734941 188.51644444444446L 517.566265060241 190.86222222222221L 519.4216867469879 192.82666666666665L 521.277108433735 189.82222222222222L 523.132530120482 183.16622222222222L 524.9879518072289 189.14044444444443L 526.8433734939758 179.9191111111111L 528.6987951807229 59.082666666666654L 530.5542168674699 164.26133333333334L 532.4096385542169 185.31555555555556L 534.2650602409637 183.57066666666668L 536.1204819277109 184.50666666666666L 537.9759036144578 185.00355555555555L 539.8313253012049 180.0808888888889L 541.6867469879518 190.74666666666667L 543.5421686746988 181.42133333333334L 545.3975903614457 162.58577777777776L 547.2530120481928 124.3368888888889L 549.1084337349398 153.52622222222223L 550.9638554216867 165.68266666666668L 552.8192771084337 182.1031111111111L 554.6746987951808 171.8071111111111L 556.5301204819277 180.76266666666666L 558.3855421686746 174.41866666666667L 560.2409638554217 179.376L 562.0963855421687 183.65155555555555L 563.9518072289156 178.22044444444444L 565.8072289156626 185.03822222222223L 567.6626506024096 188.47022222222222L 569.5180722891566 189.00177777777776L 571.3734939759037 185.52355555555556L 573.2289156626506 182.7848888888889L 575.0843373493975 182.69244444444445L 576.9397590361446 180.34666666666666L 578.7951807228916 169.5768888888889L 580.6506024096386 182.704L 582.5060240963855 186.136L 584.3614457831325 169.12622222222222L 586.2168674698795 143.0222222222222L 588.0722891566265 162.45866666666666L 589.9277108433736 153.67644444444443L 591.7831325301205 148.176L 593.6385542168674 157.16622222222222L 595.4939759036145 155.61777777777777L 597.3493975903615 164.63111111111112L 599.2048192771084 173.32088888888887L 601.0602409638554 151.0648888888889L 602.9156626506024 173.07822222222222L 604.7710843373494 173.70222222222222L 606.6265060240964 173.74844444444443L 608.4819277108434 184.472L 610.3373493975904 167.77422222222222L 612.1927710843373 160.9911111111111L 614.0481927710844 173.8871111111111L 615.9036144578313 167L 617.7590361445783 156.78488888888887L 619.6144578313254 175.07733333333334L 621.4698795180723 177.4L 623.3253012048193 187.22222222222223L 625.1807228915662 184.74933333333334L 627.0361445783133 183.952L 628.8915662650603 152.19733333333335L 630.7469879518072 183.96355555555556L 632.6024096385541 186.8871111111111L 634.4578313253012 185.87022222222222L 636.3132530120482 183.15466666666666L 638.1686746987953 183.06222222222223L 640.0240963855421 183.02755555555555L 641.8795180722891 176.10577777777777L 643.7349397590361 182.87733333333333L 645.5903614457832 180.48533333333333L 647.4457831325302 185.56977777777777L 649.301204819277 180L 651.156626506024 176.984L 653.0120481927711 178.20888888888888L 654.8674698795181 179.8382222222222L 656.722891566265 183.09688888888888L 658.578313253012 177.53866666666667L 660.433734939759 183.44355555555555L 662.289156626506 178.09333333333333L 664.1445783132531 179.59555555555556L 666 183.02755555555555L 667.8554216867469 180.4622222222222L 669.710843373494 178.04711111111112L 671.566265060241 186.89866666666666L 673.4216867469879 177.20355555555557L 675.277108433735 179.07555555555555L 677.1325301204819 154.9591111111111L 678.9879518072289 133.512L 680.843373493976 151.96622222222223L 682.6987951807229 151.57333333333332L 684.5542168674699 184.9111111111111L 686.4096385542168 185.28088888888888L 688.2650602409639 178.61333333333334L 690.1204819277108 142.39822222222222L 691.9759036144578 150.1751111111111L 693.8313253012049 164.04177777777778L 695.6867469879518 138.82755555555556L 697.5421686746988 134.864L 699.3975903614457 144.85955555555557L 701.2530120481928 145.57600000000002L 703.1084337349398 128.7048888888889L 704.9638554216867 120.36177777777777L 706.8192771084337 165.80977777777778L 708.6746987951807 163.51022222222224L 710.5301204819277 160.39022222222223L 712.3855421686748 177.504L 714.2409638554217 187.34933333333333L 716.0963855421686 188.04266666666666L 717.9518072289156 186.8871111111111L 719.8072289156627 176.08266666666668L 721.6626506024097 179.41066666666666L 723.5180722891566 195.0568888888889L 725.3734939759036 185.53511111111112L 727.2289156626506 183.6977777777778L 729.0843373493976 174.97333333333333L 730.9397590361446 178.61333333333334L 732.7951807228916 180.9591111111111L 734.6506024096385 184.0328888888889L 736.5060240963855 155.61777777777777L 738.3614457831326 149.7128888888889L 740.2168674698795 186.2631111111111L 742.0722891566265 191.28977777777777L 743.9277108433735 175.90933333333334L 745.7831325301205 175.49333333333334L 747.6385542168674 184.51822222222222L 749.4939759036145 189.69511111111112L 751.3493975903615 187.592L 753.2048192771084 180.09244444444445L 755.0602409638554 176.92622222222224L 756.9156626506024 163.31377777777777L 758.7710843373494 162.112L 760.6265060240964 167.1271111111111L 762.4819277108434 180.32355555555554L 764.3373493975903 184.11377777777778L 766.1927710843373 191.57866666666666L 768.0481927710844 195.54222222222222L 769.9036144578314 183.54755555555556L 771.7590361445783 164.03022222222222L 773.6144578313252 171.05599999999998L 775.4698795180723 169.92355555555557L 777.3253012048193 180.02311111111112L 779.1807228915663 172.07288888888888L 781.0361445783133 163.53333333333333L 782.8915662650602 171.34488888888887L 784.7469879518072 181.59466666666668L 786.6024096385543 179.80355555555556L 788.4578313253012 166.17955555555557L 790.3132530120482 154.92444444444445L 792.1686746987951 158.4488888888889L 794.0240963855422 156.4728888888889L 795.8795180722892 144.4551111111111L 797.7349397590361 158.52977777777778L 799.5903614457832 178.00088888888888L 801.4457831325301 144.99822222222224L 803.3012048192771 134.136L 805.156626506024 139.8213333333333L 807.0120481927711 145.04444444444445L 808.8674698795181 153.168L 810.722891566265 140.53777777777776L 812.5783132530121 113.86755555555555L 814.433734939759 113.28977777777777L 816.289156626506 164.85066666666665L 818.1445783132531 163.62577777777778L 820 150.16355555555555L 821.8554216867469 149.84L 823.710843373494 56.54044444444443L 825.566265060241 124.776L 827.421686746988 64.07466666666667L 829.277108433735 123.55111111111111L 831.1325301204819 157.536L 832.9879518072289 147.9911111111111L 834.843373493976 136.22755555555557L 836.698795180723 91.11466666666666L 838.5542168674698 107.36177777777779L 840.4096385542168 141.68177777777777L 842.2650602409639 157.73244444444444L 844.1204819277109 152.63644444444444L 845.9759036144579 96.22222222222221L 847.8313253012047 150.19822222222223L 849.6867469879518 116.57155555555556L 851.5421686746988 127.34133333333332L 853.3975903614459 180.53155555555554L 855.2530120481928 137.10577777777777L 857.1084337349397 122.64977777777779L 858.9638554216867 104.61155555555555L 860.8192771084338 141.76266666666666L 862.6746987951807 164.23822222222222L 864.5301204819277 160.51733333333334L 866.3855421686746 154.57777777777778L 868.2409638554217 175.01955555555554L 870.0963855421687 146.87022222222222L 871.9518072289156 153.23733333333334L 873.8072289156627 142.82577777777777L 875.6626506024096 130.98133333333334L 877.5180722891566 88.53777777777778L 879.3734939759036 174.488L 881.2289156626506 50.55466666666666L 883.0843373493976 84.43555555555557L 884.9397590361446 152.47466666666668L 886.7951807228916 114.90755555555555L 888.6506024096385 96.30311111111112L 890.5060240963855 171.46044444444445L 892.3614457831326 183.96355555555556L 894.2168674698795 169.87733333333333L 896.0722891566264 183.13155555555556L 897.9277108433735 171.992L 899.7831325301205 152.48622222222224L 901.6385542168675 169.704L 903.4939759036145 172.99733333333333L 905.3493975903614 164.61955555555556L 907.2048192771084 162.64355555555557L 909.0602409638554 170.51288888888888L 910.9156626506025 145.6568888888889L 912.7710843373494 159.81244444444445L 914.6265060240963 167.2542222222222L 916.4819277108434 141.55466666666666L 918.3373493975904 160.864L 920.1927710843374 157.7208888888889L 922.0481927710844 154.87822222222223L 923.9036144578313 145.29866666666666L 925.7590361445783 177.65422222222222L 927.6144578313254 119.73777777777778L 929.4698795180723 144.96355555555556L 931.3253012048193 151.15733333333333L 933.1807228915662 164.4231111111111L 935.0361445783133 174.1991111111111L 936.8915662650602 171.784L 938.7469879518072 157.12L 940.6024096385543 159.44266666666667L 942.4578313253012 169.77333333333334L 944.3132530120482 166.64177777777778L 946.1686746987951 176.5102222222222L 948.0240963855422 174.04888888888888L 949.8795180722892 157.17777777777778L 951.7349397590361 148.66133333333335L 953.5903614457831 141.01155555555556L 955.4457831325301 147.49422222222222L 957.3012048192771 147.08977777777778L 959.1566265060242 164.78133333333332L 961.0120481927711 160.4711111111111L 962.867469879518 165.59022222222222L 964.722891566265 150.85688888888888L 966.5783132530121 165.84444444444443L 968.4337349397591 164.65422222222222L 970.2891566265059 206L 972.144578313253 150.68355555555556L 974 196.64" stroke-width="2.0" fill="none" />
    
        
        
        <text x="45.0" font-family="-apple-system, system-ui, BlinkMacSystemFont, Roboto" y="50.0" dominant-baseline="middle" text-anchor="end" font-size="12" fill="#24292f">13500.0</text>
        
            
            <path stroke="#74838f" stroke-dasharray="10 6" stroke-width="0.5"  d="M 50.0 50.0 L 974.0 50.0" />
        
    
        
        
        <text x="45.0" font-family="-apple-system, system-ui, BlinkMacSystemFont, Roboto" y="81.2" dominant-baseline="middle" text-anchor="end" font-size="12" fill="#24292f">10800.0</text>
        
            
            
            <path stroke="#74838f" stroke-dasharray="10 6" stroke-width="0.5"  d="M 50.0 81.2 L 974.0 81.2" />
        
    
        
        
        <text x="45.0" font-family="-apple-system, system-ui, BlinkMacSystemFont, Roboto" y="112.4" dominant-baseline="middle" text-anchor="end" font-size="12" fill="#24292f">8100.0</text>
        
            
            
            <path stroke="#74838f" stroke-dasharray="10 6" stroke-width="0.5"  d="M 50.0 112.4 L 974.0 112.4" />
        
    
        
        
        <text x="45.0" font-family="-apple-system, system-ui, BlinkMacSystemFont, Roboto" y="143.6" dominant-baseline="middle" text-anchor="end" font-size="12" fill="#24292f">5400.0</text>
        
            
            
            <path stroke="#74838f" stroke-dasharray="10 6" stroke-width="0.5"  d="M 50.0 143.6 L 974.0 143.6" />
        
    
        
        
        <text x="45.0" font-family="-apple-system, system-ui, BlinkMacSystemFont, Roboto" y="174.8" dominant-baseline="middle" text-anchor="end" font-size="12" fill="#24292f">2700.0</text>
        
            
            
            <path stroke="#74838f" stroke-dasharray="10 6" stroke-width="0.5"  d="M 50.0 174.8 L 974.0 174.8" />
        
    
        
        
        <text x="45.0" font-family="-apple-system, system-ui, BlinkMacSystemFont, Roboto" y="206.0" dominant-baseline="middle" text-anchor="end" font-size="12" fill="#24292f">0.0</text>
        
    
    
        
        <path stroke="#74838f"  stroke-width="2.0"  d="M 79.6867469879518 206.0 L 79.6867469879518 214.0" />
        <text x="79.6867469879518" font-family="-apple-system, system-ui, BlinkMacSystemFont, Roboto" y="216.0" dominant-baseline="hanging" text-anchor="middle" font-size="12" fill="#24292f">Mar 2022</text>
    
        
        <path stroke="#74838f"  stroke-width="2.0"  d="M 137.2048192771084 206.0 L 137.2048192771084 214.0" />
        <text x="137.2048192771084" font-family="-apple-system, system-ui, BlinkMacSystemFont, Roboto" y="216.0" dominant-baseline="hanging" text-anchor="middle" font-size="12" fill="#24292f">Apr 2022</text>
    
        
        <path stroke="#74838f"  stroke-width="2.0"  d="M 192.86746987951807 206.0 L 192.86746987951807 214.0" />
        <text x="192.86746987951807" font-family="-apple-system, system-ui, BlinkMacSystemFont, Roboto" y="216.0" dominant-baseline="hanging" text-anchor="middle" font-size="12" fill="#24292f">May 2022</text>
    
        
        <path stroke="#74838f"  stroke-width="2.0"  d="M 250.3855421686747 206.0 L 250.3855421686747 214.0" />
        <text x="250.3855421686747" font-family="-apple-system, system-ui, BlinkMacSystemFont, Roboto" y="216.0" dominant-baseline="hanging" text-anchor="middle" font-size="12" fill="#24292f">Jun 2022</text>
    
        
        <path stroke="#74838f"  stroke-width="2.0"  d="M 306.04819277108436 206.0 L 306.04819277108436 214.0" />
        <text x="306.04819277108436" font-family="-apple-system, system-ui, BlinkMacSystemFont, Roboto" y="216.0" dominant-baseline="hanging" text-anchor="middle" font-size="12" fill="#24292f">Jul 2022</text>
    
        
        <path stroke="#74838f"  stroke-width="2.0"  d="M 363.56626506024094 206.0 L 363.56626506024094 214.0" />
        <text x="363.56626506024094" font-family="-apple-system, system-ui, BlinkMacSystemFont, Roboto" y="216.0" dominant-baseline="hanging" text-anchor="middle" font-size="12" fill="#24292f">Aug 2022</text>
    
        
        <path stroke="#74838f"  stroke-width="2.0"  d="M 421.0843373493976 206.0 L 421.0843373493976 214.0" />
        <text x="421.0843373493976" font-family="-apple-system, system-ui, BlinkMacSystemFont, Roboto" y="216.0" dominant-baseline="hanging" text-anchor="middle" font-size="12" fill="#24292f">Sep 2022</text>
    
        
        <path stroke="#74838f"  stroke-width="2.0"  d="M 476.7469879518072 206.0 L 476.7469879518072 214.0" />
        <text x="476.7469879518072" font-family="-apple-system, system-ui, BlinkMacSystemFont, Roboto" y="216.0" dominant-baseline="hanging" text-anchor="middle" font-size="12" fill="#24292f">Oct 2022</text>
    
        
        <path stroke="#74838f"  stroke-width="2.0"  d="M 534.2650602409637 206.0 L 534.2650602409637 214.0" />
        <text x="534.2650602409637" font-family="-apple-system, system-ui, BlinkMacSystemFont, Roboto" y="216.0" dominant-baseline="hanging" text-anchor="middle" font-size="12" fill="#24292f">Nov 2022</text>
    
        
        <path stroke="#74838f"  stroke-width="2.0"  d="M 589.9277108433736 206.0 L 589.9277108433736 214.0" />
        <text x="589.9277108433736" font-family="-apple-system, system-ui, BlinkMacSystemFont, Roboto" y="216.0" dominant-baseline="hanging" text-anchor="middle" font-size="12" fill="#24292f">Dec 2022</text>
    
        
        <path stroke="#74838f"  stroke-width="2.0"  d="M 647.4457831325302 206.0 L 647.4457831325302 214.0" />
        <text x="647.4457831325302" font-family="-apple-system, system-ui, BlinkMacSystemFont, Roboto" y="216.0" dominant-baseline="hanging" text-anchor="middle" font-size="12" fill="#24292f">Jan 2023</text>
    
        
        <path stroke="#74838f"  stroke-width="2.0"  d="M 704.9638554216867 206.0 L 704.9638554216867 214.0" />
        <text x="704.9638554216867" font-family="-apple-system, system-ui, BlinkMacSystemFont, Roboto" y="216.0" dominant-baseline="hanging" text-anchor="middle" font-size="12" fill="#24292f">Feb 2023</text>
    
        
        <path stroke="#74838f"  stroke-width="2.0"  d="M 756.9156626506024 206.0 L 756.9156626506024 214.0" />
        <text x="756.9156626506024" font-family="-apple-system, system-ui, BlinkMacSystemFont, Roboto" y="216.0" dominant-baseline="hanging" text-anchor="middle" font-size="12" fill="#24292f">Mar 2023</text>
    
        
        <path stroke="#74838f"  stroke-width="2.0"  d="M 814.433734939759 206.0 L 814.433734939759 214.0" />
        <text x="814.433734939759" font-family="-apple-system, system-ui, BlinkMacSystemFont, Roboto" y="216.0" dominant-baseline="hanging" text-anchor="middle" font-size="12" fill="#24292f">Apr 2023</text>
    
        
        <path stroke="#74838f"  stroke-width="2.0"  d="M 870.0963855421687 206.0 L 870.0963855421687 214.0" />
        <text x="870.0963855421687" font-family="-apple-system, system-ui, BlinkMacSystemFont, Roboto" y="216.0" dominant-baseline="hanging" text-anchor="middle" font-size="12" fill="#24292f">May 2023</text>
    
        
        <path stroke="#74838f"  stroke-width="2.0"  d="M 927.6144578313254 206.0 L 927.6144578313254 214.0" />
        <text x="927.6144578313254" font-family="-apple-system, system-ui, BlinkMacSystemFont, Roboto" y="216.0" dominant-baseline="hanging" text-anchor="middle" font-size="12" fill="#24292f">Jun 2023</text>
    
    <path stroke="#74838f"   stroke-linejoin="round" stroke-width="2.0" d="M 50.0 216.0 L 50.0 206.0 L 974.0 206.0 L 974.0 216.0"  fill="none" />
    <text x="512.0" y="25.0" font-family="-apple-system, system-ui, BlinkMacSystemFont, Roboto" dominant-baseline="middle" text-anchor="middle" font-size="18" fill="#24292f">Total daily suspensions</text>
</svg>
