<?xml version="1.0" standalone="no"?>
<svg width="1024.0" height="256.0"  viewBox="0 0 1024.0 256.0" preserveAspectRatio="xMidYMid meet" xmlns="http://www.w3.org/2000/svg">
    <path stroke="#e74c3c" stroke-linejoin="round" d="M 50.0 161.108 L 50 161.108L 52.76646706586826 193.664L 55.532934131736525 197.576L 58.299401197604794 197.924L 61.06586826347306 203.528L 63.83233532934132 199.94L 66.59880239520959 199.268L 69.36526946107784 191.108L 72.13173652694611 200.972L 74.89820359281437 198.62L 77.66467065868264 200L 80.4311377245509 202.57999999999998L 83.19760479041916 199.208L 85.96407185628743 195.608L 88.73053892215569 202.652L 91.49700598802394 198.716L 94.26347305389223 197.49200000000002L 97.02994011976048 191.42000000000002L 99.79640718562874 196.688L 102.562874251497 199.46L 105.32934131736528 199.328L 108.09580838323353 198.308L 110.8622754491018 198.164L 113.62874251497007 199.832L 116.39520958083833 194.876L 119.16167664670658 199.904L 121.92814371257485 195.584L 124.6946107784431 200.732L 127.46107784431138 198.416L 130.22754491017963 190.652L 132.9940119760479 196.112L 135.76047904191617 190.82L 138.52694610778445 193.53199999999998L 141.2934131736527 199.688L 144.05988023952096 192.392L 146.82634730538922 197L 149.59281437125748 199.59199999999998L 152.35928143712573 193.54399999999998L 155.125748502994 195.26L 157.8922155688623 195.428L 160.65868263473055 195.548L 163.4251497005988 196.484L 166.19161676646706 199.424L 168.95808383233532 199.22L 171.7245508982036 195.656L 174.49101796407186 193.952L 177.25748502994014 195.536L 180.02395209580837 198.764L 182.79041916167665 195.428L 185.5568862275449 194L 188.32335329341316 193.688L 191.08982035928145 186.32L 193.8562874251497 197.372L 196.62275449101796 195.96800000000002L 199.3892215568862 198.284L 202.1556886227545 194.38400000000001L 204.92215568862275 196.424L 207.68862275449104 196.988L 210.4550898203593 198.368L 213.22155688622755 198.05599999999998L 215.9880239520958 199.61599999999999L 218.75449101796406 191.54L 221.52095808383234 202.124L 224.2874251497006 193.34L 227.05389221556888 204.2L 229.82035928143713 206L 232.5868263473054 206L 235.35329341317365 206L 238.1197604790419 206L 240.88622754491018 190.472L 243.65269461077844 159.01999999999998L 246.41916167664672 193.56799999999998L 249.18562874251498 200.228L 251.95209580838323 193.232L 254.7185628742515 196.82L 257.4850299401197 199.772L 260.251497005988 186.548L 263.01796407185634 197.888L 265.7844311377246 195.596L 268.55089820359285 190.508L 271.3173652694611 194.876L 274.08383233532936 190.4L 276.8502994011976 188.756L 279.6167664670659 197.852L 282.3832335329341 199.772L 285.1497005988024 191.936L 287.91616766467064 191.864L 290.6826347305389 199.316L 293.4491017964072 194.72L 296.2155688622754 192.608L 298.9820359281437 194.9L 301.748502994012 199.7L 304.5149700598803 189.224L 307.2814371257485 198.428L 310.04790419161674 196.136L 312.81437125748505 195.296L 315.5808383233533 196.268L 318.34730538922156 193.184L 321.1137724550898 197.204L 323.88023952095807 193.856L 326.6467065868263 197.096L 329.4131736526946 178.16L 332.1796407185629 194.372L 334.94610778443115 195.92000000000002L 337.7125748502994 195.11599999999999L 340.47904191616766 196.688L 343.2455089820359 197.49200000000002L 346.0119760479042 197.696L 348.7784431137724 186.848L 351.54491017964074 192.644L 354.311377245509 199.61599999999999L 357.07784431137725 193.052L 359.8443113772455 191.072L 362.61077844311376 195.44L 365.37724550898207 196.184L 368.14371257485027 196.46L 370.9101796407186 197.312L 373.67664670658684 193.076L 376.4431137724551 206L 379.20958083832335 186.44L 381.9760479041916 186.632L 384.7425149700599 191.276L 387.5089820359281 180.93200000000002L 390.2754491017964 201.704L 393.0419161676647 185.744L 395.80838323353294 196.028L 398.5748502994012 189.464L 401.34131736526945 194.228L 404.10778443113776 195.632L 406.87425149700596 196.844L 409.64071856287427 186.332L 412.4071856287425 197.99599999999998L 415.1736526946108 188.924L 417.94011976047904 189.128L 420.7065868263473 196.748L 423.4730538922156 182.45600000000002L 426.2395209580838 184.16L 429.0059880239521 206L 431.77245508982037 206L 434.5389221556886 206L 437.3053892215569 160.16L 440.07185628742513 198.536L 442.83832335329345 196.60399999999998L 445.60479041916165 195.668L 448.37125748502996 192.8L 451.1377245508982 196.964L 453.90419161676647 197.828L 456.6706586826348 200.84L 459.437125748503 170.312L 462.2035928143713 189.236L 464.9700598802395 177.428L 467.7365269461078 191.564L 470.50299401197606 178.784L 473.2694610778443 176.372L 476.0359281437126 181.7L 478.8023952095808 187.472L 481.56886227544913 192.88400000000001L 484.33532934131733 189.38L 487.10179640718565 187.772L 489.86826347305384 189.404L 492.63473053892216 187.532L 495.40119760479047 193.59199999999998L 498.16766467065867 185.036L 500.934131736527 171.332L 503.7005988023952 180.14L 506.4670658682635 172.316L 509.2335329341317 193.028L 512 191.996L 514.7664670658683 193.052L 517.5329341317365 194.84L 520.2994011976048 193.53199999999998L 523.065868263473 194.024L 525.8323353293413 189.272L 528.5988023952095 195.188L 531.3652694610778 196.256L 534.131736526946 192.62L 536.8982035928144 190.844L 539.6646706586827 200.984L 542.4311377245508 184.796L 545.1976047904191 190.88L 547.9640718562874 194.42000000000002L 550.7305389221557 189.86L 553.497005988024 195.86L 556.2634730538923 191.984L 559.0299401197606 193.1L 561.7964071856287 186.464L 564.562874251497 190.46L 567.3293413173653 182.156L 570.0958083832335 187.136L 572.8622754491017 191.528L 575.6287425149701 184.1L 578.3952095808384 189.14L 581.1616766467066 185.204L 583.9281437125748 185.468L 586.6946107784431 176.816L 589.4610778443114 189.04399999999998L 592.2275449101796 191.048L 594.9940119760479 188.756L 597.7604790419161 187.592L 600.5269461077844 191.39600000000002L 603.2934131736527 187.796L 606.059880239521 188.228L 608.8263473053892 190.268L 611.5928143712574 194.372L 614.3592814371258 194.72L 617.125748502994 201.308L 619.8922155688623 192.752L 622.6586826347304 181.148L 625.4251497005988 181.748L 628.1916167664671 181.208L 630.9580838323353 191.3L 633.7245508982036 186.88400000000001L 636.4910179640718 181.376L 639.2574850299401 186.5L 642.0239520958085 188.44400000000002L 644.7904191616767 179.66L 647.5568862275449 183.09199999999998L 650.3233532934131 173.564L 653.0898203592815 183.836L 655.8562874251497 171.668L 658.622754491018 148.148L 661.3892215568862 178.004L 664.1556886227545 141.86L 666.9221556886228 186.128L 669.688622754491 188.54000000000002L 672.4550898203593 187.748L 675.2215568862275 193.256L 677.9880239520958 186.596L 680.7544910179641 185.42000000000002L 683.5209580838324 186.872L 686.2874251497005 185.372L 689.0538922155688 192.824L 691.8203592814372 188.552L 694.5868263473054 189.32L 697.3532934131737 186.632L 700.1197604790419 185.768L 702.8862275449102 188.744L 705.6526946107784 187.34L 708.4191616766467 192.488L 711.185628742515 187.028L 713.9520958083832 185.468L 716.7185628742515 181.928L 719.4850299401198 183.8L 722.2514970059881 180.296L 725.0179640718562 185.516L 727.7844311377245 194L 730.5508982035929 190.328L 733.3173652694611 186.584L 736.0838323353294 168.32L 738.8502994011976 117.5L 741.6167664670659 189.10399999999998L 744.3832335329341 187.844L 747.1497005988024 190.28L 749.9161676646706 192.32L 752.6826347305389 189.2L 755.4491017964071 182.288L 758.2155688622755 188.49200000000002L 760.9820359281438 178.916L 763.7485029940119 53.432000000000016L 766.5149700598802 162.656L 769.2814371257485 184.52L 772.0479041916168 182.708L 774.814371257485 183.68L 777.5808383233533 184.196L 780.3473053892216 179.084L 783.1137724550898 190.16L 785.8802395209581 180.476L 788.6467065868263 160.916L 791.4131736526946 121.196L 794.1796407185628 151.50799999999998L 796.9461077844312 164.132L 799.7125748502995 181.184L 802.4790419161676 170.49200000000002L 805.2455089820359 179.792L 808.0119760479042 173.204L 810.7784431137725 178.352L 813.5449101796407 182.792L 816.311377245509 177.152L 819.0778443113772 184.232L 821.8443113772455 187.796L 824.6107784431138 188.348L 827.377245508982 184.736L 830.1437125748503 181.892L 832.9101796407185 181.796L 835.6766467065869 179.36L 838.4431137724551 168.176L 841.2095808383233 181.808L 843.9760479041915 185.372L 846.7425149700599 167.708L 849.5089820359282 140.6L 852.2754491017964 160.784L 855.0419161676647 151.664L 857.8083832335329 145.952L 860.5748502994012 155.288L 863.3413173652696 153.68L 866.1077844311377 163.04L 868.874251497006 172.064L 871.6407185628742 148.952L 874.4071856287426 171.812L 877.1736526946108 172.46L 879.940119760479 172.508L 882.7065868263473 183.644L 885.4730538922156 166.304L 888.2395209580839 159.26L 891.0059880239521 172.652L 893.7724550898204 165.5L 896.5389221556886 154.892L 899.3053892215569 173.888L 902.0718562874252 176.3L 904.8383233532934 186.5L 907.6047904191616 183.932L 910.3712574850299 183.10399999999998L 913.1377245508983 150.128L 915.9041916167665 183.11599999999999L 918.6706586826347 186.152L 921.437125748503 185.096L 924.2035928143713 182.276L 926.9700598802395 182.18L 929.7365269461077 182.144L 932.502994011976 174.956L 935.2694610778443 181.988L 938.0359281437126 179.504L 940.8023952095809 184.784L 943.5688622754491 179L 946.3353293413173 175.868L 949.1017964071856 177.14L 951.868263473054 178.832L 954.6347305389222 182.216L 957.4011976047904 176.444L 960.1676646706587 182.576L 962.934131736527 177.02L 965.7005988023952 178.58L 968.4670658682634 182.144L 971.2335329341317 179.48L 974 198.11599999999999" stroke-width="2.0" fill="none" />
    
        
        
        <text x="45.0" font-family="-apple-system, system-ui, BlinkMacSystemFont, Roboto" y="50.0" dominant-baseline="middle" text-anchor="end" font-size="12" fill="#24292f">13000.0</text>
        
            
            <path stroke="#74838f" stroke-dasharray="10 6" stroke-width="0.5"  d="M 50.0 50.0 L 974.0 50.0" />
        
    
        
        
        <text x="45.0" font-family="-apple-system, system-ui, BlinkMacSystemFont, Roboto" y="81.2" dominant-baseline="middle" text-anchor="end" font-size="12" fill="#24292f">10400.0</text>
        
            
            
            <path stroke="#74838f" stroke-dasharray="10 6" stroke-width="0.5"  d="M 50.0 81.2 L 974.0 81.2" />
        
    
        
        
        <text x="45.0" font-family="-apple-system, system-ui, BlinkMacSystemFont, Roboto" y="112.4" dominant-baseline="middle" text-anchor="end" font-size="12" fill="#24292f">7800.0</text>
        
            
            
            <path stroke="#74838f" stroke-dasharray="10 6" stroke-width="0.5"  d="M 50.0 112.4 L 974.0 112.4" />
        
    
        
        
        <text x="45.0" font-family="-apple-system, system-ui, BlinkMacSystemFont, Roboto" y="143.6" dominant-baseline="middle" text-anchor="end" font-size="12" fill="#24292f">5200.0</text>
        
            
            
            <path stroke="#74838f" stroke-dasharray="10 6" stroke-width="0.5"  d="M 50.0 143.6 L 974.0 143.6" />
        
    
        
        
        <text x="45.0" font-family="-apple-system, system-ui, BlinkMacSystemFont, Roboto" y="174.8" dominant-baseline="middle" text-anchor="end" font-size="12" fill="#24292f">2600.0</text>
        
            
            
            <path stroke="#74838f" stroke-dasharray="10 6" stroke-width="0.5"  d="M 50.0 174.8 L 974.0 174.8" />
        
    
        
        
        <text x="45.0" font-family="-apple-system, system-ui, BlinkMacSystemFont, Roboto" y="206.0" dominant-baseline="middle" text-anchor="end" font-size="12" fill="#24292f">0.0</text>
        
    
    
        
        <path stroke="#74838f"  stroke-width="2.0"  d="M 94.26347305389223 206.0 L 94.26347305389223 214.0" />
        <text x="94.26347305389223" font-family="-apple-system, system-ui, BlinkMacSystemFont, Roboto" y="216.0" dominant-baseline="hanging" text-anchor="middle" font-size="12" fill="#24292f">Mar 2022</text>
    
        
        <path stroke="#74838f"  stroke-width="2.0"  d="M 180.02395209580837 206.0 L 180.02395209580837 214.0" />
        <text x="180.02395209580837" font-family="-apple-system, system-ui, BlinkMacSystemFont, Roboto" y="216.0" dominant-baseline="hanging" text-anchor="middle" font-size="12" fill="#24292f">Apr 2022</text>
    
        
        <path stroke="#74838f"  stroke-width="2.0"  d="M 263.01796407185634 206.0 L 263.01796407185634 214.0" />
        <text x="263.01796407185634" font-family="-apple-system, system-ui, BlinkMacSystemFont, Roboto" y="216.0" dominant-baseline="hanging" text-anchor="middle" font-size="12" fill="#24292f">May 2022</text>
    
        
        <path stroke="#74838f"  stroke-width="2.0"  d="M 348.7784431137724 206.0 L 348.7784431137724 214.0" />
        <text x="348.7784431137724" font-family="-apple-system, system-ui, BlinkMacSystemFont, Roboto" y="216.0" dominant-baseline="hanging" text-anchor="middle" font-size="12" fill="#24292f">Jun 2022</text>
    
        
        <path stroke="#74838f"  stroke-width="2.0"  d="M 431.77245508982037 206.0 L 431.77245508982037 214.0" />
        <text x="431.77245508982037" font-family="-apple-system, system-ui, BlinkMacSystemFont, Roboto" y="216.0" dominant-baseline="hanging" text-anchor="middle" font-size="12" fill="#24292f">Jul 2022</text>
    
        
        <path stroke="#74838f"  stroke-width="2.0"  d="M 517.5329341317365 206.0 L 517.5329341317365 214.0" />
        <text x="517.5329341317365" font-family="-apple-system, system-ui, BlinkMacSystemFont, Roboto" y="216.0" dominant-baseline="hanging" text-anchor="middle" font-size="12" fill="#24292f">Aug 2022</text>
    
        
        <path stroke="#74838f"  stroke-width="2.0"  d="M 603.2934131736527 206.0 L 603.2934131736527 214.0" />
        <text x="603.2934131736527" font-family="-apple-system, system-ui, BlinkMacSystemFont, Roboto" y="216.0" dominant-baseline="hanging" text-anchor="middle" font-size="12" fill="#24292f">Sep 2022</text>
    
        
        <path stroke="#74838f"  stroke-width="2.0"  d="M 686.2874251497005 206.0 L 686.2874251497005 214.0" />
        <text x="686.2874251497005" font-family="-apple-system, system-ui, BlinkMacSystemFont, Roboto" y="216.0" dominant-baseline="hanging" text-anchor="middle" font-size="12" fill="#24292f">Oct 2022</text>
    
        
        <path stroke="#74838f"  stroke-width="2.0"  d="M 772.0479041916168 206.0 L 772.0479041916168 214.0" />
        <text x="772.0479041916168" font-family="-apple-system, system-ui, BlinkMacSystemFont, Roboto" y="216.0" dominant-baseline="hanging" text-anchor="middle" font-size="12" fill="#24292f">Nov 2022</text>
    
        
        <path stroke="#74838f"  stroke-width="2.0"  d="M 855.0419161676647 206.0 L 855.0419161676647 214.0" />
        <text x="855.0419161676647" font-family="-apple-system, system-ui, BlinkMacSystemFont, Roboto" y="216.0" dominant-baseline="hanging" text-anchor="middle" font-size="12" fill="#24292f">Dec 2022</text>
    
        
        <path stroke="#74838f"  stroke-width="2.0"  d="M 940.8023952095809 206.0 L 940.8023952095809 214.0" />
        <text x="940.8023952095809" font-family="-apple-system, system-ui, BlinkMacSystemFont, Roboto" y="216.0" dominant-baseline="hanging" text-anchor="middle" font-size="12" fill="#24292f">Jan 2023</text>
    
    <path stroke="#74838f"   stroke-linejoin="round" stroke-width="2.0" d="M 50.0 216.0 L 50.0 206.0 L 974.0 206.0 L 974.0 216.0"  fill="none" />
    <text x="512.0" y="25.0" font-family="-apple-system, system-ui, BlinkMacSystemFont, Roboto" dominant-baseline="middle" text-anchor="middle" font-size="18" fill="#24292f">Total daily suspensions</text>
</svg>
