<?xml version="1.0" standalone="no"?>
<svg width="1024" height="256"  viewBox="0 0 1024 256" preserveAspectRatio="xMidYMid meet" xmlns="http://www.w3.org/2000/svg">
    <path stroke="#e74c3c" stroke-linejoin="round" d="M 41 59.98399999999998 L 41 59.98399999999998L 46.867924528301884 165.90800000000002L 52.735849056603776 178.622L 58.60377358490566 179.753L 64.47169811320755 197.966L 70.33962264150944 186.305L 76.20754716981132 184.121L 82.0754716981132 157.601L 87.9433962264151 189.659L 93.81132075471697 182.015L 99.67924528301887 186.5L 105.54716981132076 194.885L 111.41509433962264 183.926L 117.28301886792453 172.226L 123.15094339622641 195.119L 129.0188679245283 182.327L 134.8867924528302 178.349L 140.75471698113208 158.615L 146.62264150943395 175.697L 152.49056603773585 184.745L 158.35849056603774 184.316L 164.22641509433961 181.001L 170.0943396226415 180.533L 175.96226415094338 185.954L 181.83018867924528 169.847L 187.69811320754715 186.188L 193.56603773584905 172.109L 199.43396226415092 188.87900000000002L 205.30188679245282 181.352L 211.16981132075472 156.119L 217.03773584905662 173.864L 222.90566037735852 156.66500000000002L 228.77358490566039 165.479L 234.64150943396228 185.486L 240.50943396226415 161.774L 246.37735849056605 176.75L 252.24528301886792 185.174L 258.11320754716985 165.518L 263.9811320754717 171.095L 269.8490566037736 171.641L 275.7169811320755 172.031L 281.58490566037733 175.073L 287.45283018867923 184.628L 293.3207547169811 183.965L 299.188679245283 172.382L 305.0566037735849 166.844L 310.92452830188677 171.992L 316.79245283018867 182.483L 322.66037735849056 171.641L 328.52830188679246 167L 334.3962264150943 165.986L 340.2641509433962 142.04000000000002L 346.1320754716981 177.959L 352 173.39600000000002L 357.86792452830184 180.923L 363.73584905660374 168.248L 369.60377358490564 174.878L 375.47169811320754 176.711L 381.33962264150944 181.196L 387.2075471698113 180.182L 393.07547169811323 185.252L 398.94339622641513 159.005L 404.81132075471703 193.403L 410.6792452830189 164.85500000000002L 416.54716981132077 200.15L 422.41509433962267 206L 428.28301886792457 206L 434.1509433962264 206L 440.0188679245283 206L 445.8867924528302 155.534L 451.7547169811321 53.315L 457.62264150943395 165.596L 463.49056603773585 187.24099999999999L 469.35849056603774 164.504L 475.22641509433964 176.165L 481.09433962264154 185.75900000000001L 486.9622641509434 142.781L 492.8301886792453 179.636L 498.6981132075472 172.187L 504.5660377358491 155.651L 510.4339622641509 169.847L 516.3018867924528 155.3L 522.1698113207547 149.957L 528.0377358490566 179.519L 533.9056603773585 185.75900000000001L 539.7735849056603 160.292L 545.6415094339623 160.058L 551.5094339622642 184.277L 557.377358490566 169.301L 563.2452830188679 162.476L 569.1132075471698 169.925L 574.9811320754717 185.525L 580.8490566037735 151.478L 586.7169811320755 181.391L 592.5849056603773 173.942L 598.4528301886792 171.212L 604.3207547169811 174.371L 610.188679245283 164.348L 616.0566037735849 177.413L 621.9245283018868 166.53199999999998L 627.7924528301886 177.062L 633.6603773584906 115.442L 639.5283018867924 168.209L 645.3962264150944 173.24L 651.2641509433962 170.627L 657.132075471698 175.736L 663 178.349L 668.8679245283018 179.012L 674.7358490566037 143.756L 680.6037735849056 162.59300000000002L 686.4716981132075 185.252L 692.3396226415094 163.919L 698.2075471698113 157.484L 704.0754716981131 171.68L 709.9433962264151 174.098L 715.8113207547169 174.995L 721.6792452830189 177.764L 727.5471698113207 163.997L 733.4150943396226 206L 739.2830188679245 142.43L 745.1509433962265 143.015L 751.0188679245283 158.147L 756.8867924528303 124.529L 762.7547169811321 192.038L 768.6226415094341 140.168L 774.4905660377359 173.591L 780.3584905660377 152.258L 786.2264150943397 167.74099999999999L 792.0943396226415 172.304L 797.9622641509434 176.243L 803.8301886792453 142.079L 809.6981132075472 179.987L 815.5660377358491 150.503L 821.433962264151 151.166L 827.3018867924528 175.931L 833.1698113207548 129.482L 839.0377358490566 135.01999999999998L 844.9056603773586 206L 850.7735849056604 206L 856.6415094339623 206L 862.5094339622642 57.02000000000001L 868.377358490566 181.742L 874.2452830188679 175.463L 880.1132075471698 172.421L 885.9811320754717 163.1L 891.8490566037736 176.633L 897.7169811320755 179.441L 903.5849056603773 189.23000000000002L 909.4528301886793 90.014L 915.3207547169811 151.517L 921.1886792452831 113.141L 927.0566037735849 159.083L 932.9245283018868 117.548L 938.7924528301887 109.709L 944.6603773584906 127.025L 950.5283018867924 145.784L 956.3962264150944 163.373L 962.2641509433962 152.024L 968.1320754716982 146.75900000000001L 974 166.376" stroke-width="2.0" fill="none" />
    
        
        
        <text x="36" font-family="-apple-system, system-ui, BlinkMacSystemFont, Roboto" y="50" dominant-baseline="middle" text-anchor="end" font-size="12" fill="#24292f">4000</text>
        
            
            <path stroke="#74838f" stroke-dasharray="10 6" stroke-width="0.5"  d="M 41 50 L 974 50" />
        
    
        
        
        <text x="36" font-family="-apple-system, system-ui, BlinkMacSystemFont, Roboto" y="81.2" dominant-baseline="middle" text-anchor="end" font-size="12" fill="#24292f">3200</text>
        
            
            
            <path stroke="#74838f" stroke-dasharray="10 6" stroke-width="0.5"  d="M 41 81.2 L 974 81.2" />
        
    
        
        
        <text x="36" font-family="-apple-system, system-ui, BlinkMacSystemFont, Roboto" y="112.4" dominant-baseline="middle" text-anchor="end" font-size="12" fill="#24292f">2400</text>
        
            
            
            <path stroke="#74838f" stroke-dasharray="10 6" stroke-width="0.5"  d="M 41 112.4 L 974 112.4" />
        
    
        
        
        <text x="36" font-family="-apple-system, system-ui, BlinkMacSystemFont, Roboto" y="143.6" dominant-baseline="middle" text-anchor="end" font-size="12" fill="#24292f">1600</text>
        
            
            
            <path stroke="#74838f" stroke-dasharray="10 6" stroke-width="0.5"  d="M 41 143.6 L 974 143.6" />
        
    
        
        
        <text x="36" font-family="-apple-system, system-ui, BlinkMacSystemFont, Roboto" y="174.8" dominant-baseline="middle" text-anchor="end" font-size="12" fill="#24292f">800</text>
        
            
            
            <path stroke="#74838f" stroke-dasharray="10 6" stroke-width="0.5"  d="M 41 174.8 L 974 174.8" />
        
    
        
        
        <text x="36" font-family="-apple-system, system-ui, BlinkMacSystemFont, Roboto" y="206" dominant-baseline="middle" text-anchor="end" font-size="12" fill="#24292f">0</text>
        
    
    
        
        <path stroke="#74838f"  stroke-width="2.0"  d="M 134.8867924528302 206 L 134.8867924528302 214" />
        <text x="134.8867924528302" font-family="-apple-system, system-ui, BlinkMacSystemFont, Roboto" y="216" dominant-baseline="hanging" text-anchor="middle" font-size="12" fill="#24292f">Mar 2022</text>
    
        
        <path stroke="#74838f"  stroke-width="2.0"  d="M 316.79245283018867 206 L 316.79245283018867 214" />
        <text x="316.79245283018867" font-family="-apple-system, system-ui, BlinkMacSystemFont, Roboto" y="216" dominant-baseline="hanging" text-anchor="middle" font-size="12" fill="#24292f">Apr 2022</text>
    
        
        <path stroke="#74838f"  stroke-width="2.0"  d="M 492.8301886792453 206 L 492.8301886792453 214" />
        <text x="492.8301886792453" font-family="-apple-system, system-ui, BlinkMacSystemFont, Roboto" y="216" dominant-baseline="hanging" text-anchor="middle" font-size="12" fill="#24292f">May 2022</text>
    
        
        <path stroke="#74838f"  stroke-width="2.0"  d="M 674.7358490566037 206 L 674.7358490566037 214" />
        <text x="674.7358490566037" font-family="-apple-system, system-ui, BlinkMacSystemFont, Roboto" y="216" dominant-baseline="hanging" text-anchor="middle" font-size="12" fill="#24292f">Jun 2022</text>
    
        
        <path stroke="#74838f"  stroke-width="2.0"  d="M 850.7735849056604 206 L 850.7735849056604 214" />
        <text x="850.7735849056604" font-family="-apple-system, system-ui, BlinkMacSystemFont, Roboto" y="216" dominant-baseline="hanging" text-anchor="middle" font-size="12" fill="#24292f">Jul 2022</text>
    
    <path stroke="#74838f"   stroke-linejoin="round" stroke-width="2.0" d="M 41 216 L 41 206 L 974 206 L 974 216"  fill="none" />
    <text x="507.5" y="25" font-family="-apple-system, system-ui, BlinkMacSystemFont, Roboto" dominant-baseline="middle" text-anchor="middle" font-size="18" fill="#24292f">Total daily suspensions</text>
</svg>
