<?xml version="1.0" standalone="no"?>
<svg width="1024.0" height="256.0"  viewBox="0 0 1024.0 256.0" preserveAspectRatio="xMidYMid meet" xmlns="http://www.w3.org/2000/svg">
    <path stroke="#e74c3c" stroke-linejoin="round" d="M 50.0 162.77066666666667 L 50 162.77066666666667L 52 194.12088888888889L 54 197.888L 56 198.2231111111111L 58 203.61955555555556L 60 200.16444444444443L 62 199.51733333333334L 64 191.65955555555556L 66 201.1582222222222L 68 198.89333333333332L 70 200.22222222222223L 72 202.70666666666665L 74 199.45955555555554L 76 195.9928888888889L 78 202.776L 80 198.98577777777777L 82 197.8071111111111L 84 191.96L 86 197.0328888888889L 88 199.70222222222222L 90 199.5751111111111L 92 198.5928888888889L 94 198.45422222222223L 96 200.06044444444444L 98 195.288L 100 200.12977777777778L 102 195.96977777777778L 104 200.92711111111112L 106 198.6968888888889L 108 191.22044444444444L 110 196.47822222222223L 112 191.38222222222223L 114 193.99377777777778L 116 199.92177777777778L 118 192.89600000000002L 120 197.33333333333334L 122 199.82933333333332L 124 194.00533333333334L 126 195.65777777777777L 128 195.81955555555555L 130 195.9351111111111L 132 196.83644444444445L 134 199.66755555555557L 136 199.4711111111111L 138 196.0391111111111L 140 194.39822222222222L 142 195.92355555555554L 144 199.03199999999998L 146 195.81955555555555L 148 194.44444444444446L 150 194.144L 152 187.04888888888888L 154 197.69155555555557L 156 196.33955555555556L 158 198.56977777777777L 160 194.8142222222222L 162 196.77866666666665L 164 197.32177777777778L 166 198.65066666666667L 168 198.35022222222221L 170 199.85244444444444L 172 192.07555555555555L 174 202.26755555555556L 176 193.80888888888887L 178 204.26666666666665L 180 206L 182 206L 184 206L 186 206L 188 191.04711111111112L 190 160.76L 192 194.02844444444446L 194 200.4417777777778L 196 193.7048888888889L 198 197.16L 200 200.00266666666667L 202 187.26844444444444L 204 198.18844444444443L 206 195.98133333333334L 208 191.08177777777777L 210 195.288L 212 190.97777777777776L 214 189.39466666666667L 216 198.15377777777778L 218 200.00266666666667L 220 192.4568888888889L 222 192.38755555555556L 224 199.56355555555555L 226 195.13777777777779L 228 193.10399999999998L 230 195.3111111111111L 232 199.93333333333334L 234 189.84533333333331L 236 198.70844444444444L 238 196.50133333333332L 240 195.69244444444445L 242 196.62844444444445L 244 193.65866666666668L 246 197.52977777777778L 248 194.3057777777778L 250 197.4257777777778L 252 179.19111111111113L 254 194.80266666666665L 256 196.29333333333335L 258 195.5191111111111L 260 197.0328888888889L 262 197.8071111111111L 264 198.00355555555555L 266 187.55733333333333L 268 193.13866666666667L 270 199.85244444444444L 272 193.53155555555554L 274 191.6248888888889L 276 195.8311111111111L 278 196.54755555555556L 280 196.81333333333333L 282 197.63377777777777L 284 193.55466666666666L 286 206L 288 187.16444444444446L 290 187.34933333333333L 292 191.8213333333333L 294 181.86044444444445L 296 201.8631111111111L 298 186.49422222222222L 300 196.39733333333334L 302 190.07644444444443L 304 194.664L 306 196.016L 308 197.18311111111112L 310 187.06044444444444L 312 198.29244444444444L 314 189.55644444444445L 316 189.7528888888889L 318 197.09066666666666L 320 183.328L 322 184.9688888888889L 324 206L 326 206L 328 206L 330 161.85777777777778L 332 198.81244444444445L 334 196.952L 336 196.05066666666667L 338 193.2888888888889L 340 197.29866666666666L 342 198.13066666666668L 344 201.0311111111111L 346 171.63377777777777L 348 189.85688888888888L 350 178.4862222222222L 352 192.09866666666667L 354 179.792L 356 177.46933333333334L 358 182.6L 360 188.1582222222222L 362 193.36977777777778L 364 189.99555555555554L 366 188.4471111111111L 368 190.01866666666666L 370 188.216L 372 194.05155555555555L 374 185.81244444444445L 376 172.61599999999999L 378 181.09777777777776L 380 173.56355555555555L 382 193.50844444444445L 384 192.51466666666667L 386 193.53155555555554L 388 195.25333333333333L 390 193.99377777777778L 392 194.46755555555555L 394 189.89155555555556L 396 195.58844444444446L 398 196.6168888888889L 400 193.11555555555555L 402 191.40533333333332L 404 201.16977777777777L 406 185.58133333333333L 408 191.44L 410 194.8488888888889L 412 190.45777777777778L 414 196.23555555555555L 416 192.5031111111111L 418 193.57777777777778L 420 187.18755555555555L 422 191.03555555555556L 424 183.0391111111111L 426 187.83466666666666L 428 192.064L 430 184.9111111111111L 432 189.76444444444445L 434 185.97422222222224L 436 186.22844444444445L 438 177.8968888888889L 440 189.672L 442 191.60177777777778L 444 189.39466666666667L 446 188.27377777777778L 448 191.9368888888889L 450 188.47022222222222L 452 188.88622222222222L 454 190.85066666666665L 456 194.80266666666665L 458 195.13777777777779L 460 201.48177777777778L 462 193.24266666666665L 464 182.06844444444445L 466 182.64622222222224L 468 182.12622222222222L 470 191.84444444444443L 472 187.592L 474 182.288L 476 187.22222222222223L 478 189.09422222222221L 480 180.63555555555556L 482 183.94044444444444L 484 174.76533333333333L 486 184.6568888888889L 488 172.93955555555556L 490 150.29066666666665L 492 179.0408888888889L 494 144.23555555555555L 496 186.864L 498 189.18666666666667L 500 188.424L 502 193.728L 504 187.31466666666665L 506 186.1822222222222L 508 187.58044444444445L 510 186.136L 512 193.312L 514 189.19822222222223L 516 189.9377777777778L 518 187.34933333333333L 520 186.51733333333334L 522 189.3831111111111L 524 188.0311111111111L 526 192.98844444444444L 528 187.73066666666668L 530 186.22844444444445L 532 182.81955555555555L 534 184.6222222222222L 536 181.248L 538 186.27466666666666L 540 194.44444444444446L 542 190.90844444444446L 544 187.30311111111112L 546 169.71555555555557L 548 120.77777777777779L 550 189.72977777777777L 552 188.51644444444446L 554 190.86222222222221L 556 192.82666666666665L 558 189.82222222222222L 560 183.16622222222222L 562 189.14044444444443L 564 179.9191111111111L 566 59.082666666666654L 568 164.26133333333334L 570 185.31555555555556L 572 183.57066666666668L 574 184.50666666666666L 576 185.00355555555555L 578 180.0808888888889L 580 190.74666666666667L 582 181.42133333333334L 584 162.58577777777776L 586 124.3368888888889L 588 153.52622222222223L 590 165.68266666666668L 592 182.1031111111111L 594 171.8071111111111L 596 180.76266666666666L 598 174.41866666666667L 600 179.376L 602 183.65155555555555L 604 178.22044444444444L 606 185.03822222222223L 608 188.47022222222222L 610 189.00177777777776L 612 185.52355555555556L 614 182.7848888888889L 616 182.69244444444445L 618 180.34666666666666L 620 169.5768888888889L 622 182.704L 624 186.136L 626 169.12622222222222L 628 143.0222222222222L 630 162.45866666666666L 632 153.67644444444443L 634 148.176L 636 157.16622222222222L 638 155.61777777777777L 640 164.63111111111112L 642 173.32088888888887L 644 151.0648888888889L 646 173.07822222222222L 648 173.70222222222222L 650 173.74844444444443L 652 184.472L 654 167.77422222222222L 656 160.9911111111111L 658 173.8871111111111L 660 167L 662 156.78488888888887L 664 175.07733333333334L 666 177.4L 668 187.22222222222223L 670 184.74933333333334L 672 183.952L 674 152.19733333333335L 676 183.96355555555556L 678 186.8871111111111L 680 185.87022222222222L 682 183.15466666666666L 684 183.06222222222223L 686 183.02755555555555L 688 176.10577777777777L 690 182.87733333333333L 692 180.48533333333333L 694 185.56977777777777L 696 180L 698 176.984L 700 178.20888888888888L 702 179.8382222222222L 704 183.09688888888888L 706 177.53866666666667L 708 183.44355555555555L 710 178.09333333333333L 712 179.59555555555556L 714 183.02755555555555L 716 180.4622222222222L 718 178.04711111111112L 720 186.89866666666666L 722 177.20355555555557L 724 179.07555555555555L 726 154.9591111111111L 728 133.512L 730 151.96622222222223L 732 151.57333333333332L 734 184.9111111111111L 736 185.28088888888888L 738 178.61333333333334L 740 142.39822222222222L 742 150.1751111111111L 744 164.04177777777778L 746 138.82755555555556L 748 134.864L 750 144.85955555555557L 752 145.57600000000002L 754 128.7048888888889L 756 120.36177777777777L 758 165.80977777777778L 760 163.51022222222224L 762 160.39022222222223L 764 177.504L 766 187.34933333333333L 768 188.04266666666666L 770 186.8871111111111L 772 176.08266666666668L 774 179.41066666666666L 776 195.0568888888889L 778 185.53511111111112L 780 183.6977777777778L 782 174.97333333333333L 784 178.61333333333334L 786 180.9591111111111L 788 184.0328888888889L 790 155.61777777777777L 792 149.7128888888889L 794 186.2631111111111L 796 191.28977777777777L 798 175.90933333333334L 800 175.49333333333334L 802 184.51822222222222L 804 189.69511111111112L 806 187.592L 808 180.09244444444445L 810 176.92622222222224L 812 163.31377777777777L 814 162.112L 816 167.1271111111111L 818 180.32355555555554L 820 184.11377777777778L 822 191.57866666666666L 824 195.54222222222222L 826 183.54755555555556L 828 164.03022222222222L 830 171.05599999999998L 832 169.92355555555557L 834 180.02311111111112L 836 172.07288888888888L 838 163.53333333333333L 840 171.34488888888887L 842 181.59466666666668L 844 179.80355555555556L 846 166.17955555555557L 848 154.92444444444445L 850 158.4488888888889L 852 156.4728888888889L 854 144.4551111111111L 856 158.52977777777778L 858 178.00088888888888L 860 144.99822222222224L 862 134.136L 864 139.8213333333333L 866 145.04444444444445L 868 153.168L 870 140.53777777777776L 872 113.86755555555555L 874 113.28977777777777L 876 164.85066666666665L 878 163.62577777777778L 880 150.16355555555555L 882 149.84L 884 56.54044444444443L 886 124.776L 888 64.07466666666667L 890 123.55111111111111L 892 157.536L 894 147.9911111111111L 896 136.22755555555557L 898 91.11466666666666L 900 107.36177777777779L 902 141.68177777777777L 904 157.73244444444444L 906 152.63644444444444L 908 96.22222222222221L 910 150.19822222222223L 912 116.57155555555556L 914 127.34133333333332L 916 180.53155555555554L 918 137.10577777777777L 920 122.64977777777779L 922 104.61155555555555L 924 141.76266666666666L 926 164.23822222222222L 928 160.51733333333334L 930 154.57777777777778L 932 175.01955555555554L 934 146.87022222222222L 936 153.23733333333334L 938 142.82577777777777L 940 130.98133333333334L 942 88.53777777777778L 944 174.488L 946 50.55466666666666L 948 84.43555555555557L 950 152.47466666666668L 952 114.90755555555555L 954 96.30311111111112L 956 171.46044444444445L 958 183.96355555555556L 960 169.87733333333333L 962 183.13155555555556L 964 171.992L 966 152.48622222222224L 968 169.704L 970 172.99733333333333L 972 164.61955555555556L 974 193.9591111111111" stroke-width="2.0" fill="none" />
    
        
        
        <text x="45.0" font-family="-apple-system, system-ui, BlinkMacSystemFont, Roboto" y="50.0" dominant-baseline="middle" text-anchor="end" font-size="12" fill="#24292f">13500.0</text>
        
            
            <path stroke="#74838f" stroke-dasharray="10 6" stroke-width="0.5"  d="M 50.0 50.0 L 974.0 50.0" />
        
    
        
        
        <text x="45.0" font-family="-apple-system, system-ui, BlinkMacSystemFont, Roboto" y="81.2" dominant-baseline="middle" text-anchor="end" font-size="12" fill="#24292f">10800.0</text>
        
            
            
            <path stroke="#74838f" stroke-dasharray="10 6" stroke-width="0.5"  d="M 50.0 81.2 L 974.0 81.2" />
        
    
        
        
        <text x="45.0" font-family="-apple-system, system-ui, BlinkMacSystemFont, Roboto" y="112.4" dominant-baseline="middle" text-anchor="end" font-size="12" fill="#24292f">8100.0</text>
        
            
            
            <path stroke="#74838f" stroke-dasharray="10 6" stroke-width="0.5"  d="M 50.0 112.4 L 974.0 112.4" />
        
    
        
        
        <text x="45.0" font-family="-apple-system, system-ui, BlinkMacSystemFont, Roboto" y="143.6" dominant-baseline="middle" text-anchor="end" font-size="12" fill="#24292f">5400.0</text>
        
            
            
            <path stroke="#74838f" stroke-dasharray="10 6" stroke-width="0.5"  d="M 50.0 143.6 L 974.0 143.6" />
        
    
        
        
        <text x="45.0" font-family="-apple-system, system-ui, BlinkMacSystemFont, Roboto" y="174.8" dominant-baseline="middle" text-anchor="end" font-size="12" fill="#24292f">2700.0</text>
        
            
            
            <path stroke="#74838f" stroke-dasharray="10 6" stroke-width="0.5"  d="M 50.0 174.8 L 974.0 174.8" />
        
    
        
        
        <text x="45.0" font-family="-apple-system, system-ui, BlinkMacSystemFont, Roboto" y="206.0" dominant-baseline="middle" text-anchor="end" font-size="12" fill="#24292f">0.0</text>
        
    
    
        
        <path stroke="#74838f"  stroke-width="2.0"  d="M 82.0 206.0 L 82.0 214.0" />
        <text x="82.0" font-family="-apple-system, system-ui, BlinkMacSystemFont, Roboto" y="216.0" dominant-baseline="hanging" text-anchor="middle" font-size="12" fill="#24292f">Mar 2022</text>
    
        
        <path stroke="#74838f"  stroke-width="2.0"  d="M 144.0 206.0 L 144.0 214.0" />
        <text x="144.0" font-family="-apple-system, system-ui, BlinkMacSystemFont, Roboto" y="216.0" dominant-baseline="hanging" text-anchor="middle" font-size="12" fill="#24292f">Apr 2022</text>
    
        
        <path stroke="#74838f"  stroke-width="2.0"  d="M 204.0 206.0 L 204.0 214.0" />
        <text x="204.0" font-family="-apple-system, system-ui, BlinkMacSystemFont, Roboto" y="216.0" dominant-baseline="hanging" text-anchor="middle" font-size="12" fill="#24292f">May 2022</text>
    
        
        <path stroke="#74838f"  stroke-width="2.0"  d="M 266.0 206.0 L 266.0 214.0" />
        <text x="266.0" font-family="-apple-system, system-ui, BlinkMacSystemFont, Roboto" y="216.0" dominant-baseline="hanging" text-anchor="middle" font-size="12" fill="#24292f">Jun 2022</text>
    
        
        <path stroke="#74838f"  stroke-width="2.0"  d="M 326.0 206.0 L 326.0 214.0" />
        <text x="326.0" font-family="-apple-system, system-ui, BlinkMacSystemFont, Roboto" y="216.0" dominant-baseline="hanging" text-anchor="middle" font-size="12" fill="#24292f">Jul 2022</text>
    
        
        <path stroke="#74838f"  stroke-width="2.0"  d="M 388.0 206.0 L 388.0 214.0" />
        <text x="388.0" font-family="-apple-system, system-ui, BlinkMacSystemFont, Roboto" y="216.0" dominant-baseline="hanging" text-anchor="middle" font-size="12" fill="#24292f">Aug 2022</text>
    
        
        <path stroke="#74838f"  stroke-width="2.0"  d="M 450.0 206.0 L 450.0 214.0" />
        <text x="450.0" font-family="-apple-system, system-ui, BlinkMacSystemFont, Roboto" y="216.0" dominant-baseline="hanging" text-anchor="middle" font-size="12" fill="#24292f">Sep 2022</text>
    
        
        <path stroke="#74838f"  stroke-width="2.0"  d="M 510.0 206.0 L 510.0 214.0" />
        <text x="510.0" font-family="-apple-system, system-ui, BlinkMacSystemFont, Roboto" y="216.0" dominant-baseline="hanging" text-anchor="middle" font-size="12" fill="#24292f">Oct 2022</text>
    
        
        <path stroke="#74838f"  stroke-width="2.0"  d="M 572.0 206.0 L 572.0 214.0" />
        <text x="572.0" font-family="-apple-system, system-ui, BlinkMacSystemFont, Roboto" y="216.0" dominant-baseline="hanging" text-anchor="middle" font-size="12" fill="#24292f">Nov 2022</text>
    
        
        <path stroke="#74838f"  stroke-width="2.0"  d="M 632.0 206.0 L 632.0 214.0" />
        <text x="632.0" font-family="-apple-system, system-ui, BlinkMacSystemFont, Roboto" y="216.0" dominant-baseline="hanging" text-anchor="middle" font-size="12" fill="#24292f">Dec 2022</text>
    
        
        <path stroke="#74838f"  stroke-width="2.0"  d="M 694.0 206.0 L 694.0 214.0" />
        <text x="694.0" font-family="-apple-system, system-ui, BlinkMacSystemFont, Roboto" y="216.0" dominant-baseline="hanging" text-anchor="middle" font-size="12" fill="#24292f">Jan 2023</text>
    
        
        <path stroke="#74838f"  stroke-width="2.0"  d="M 756.0 206.0 L 756.0 214.0" />
        <text x="756.0" font-family="-apple-system, system-ui, BlinkMacSystemFont, Roboto" y="216.0" dominant-baseline="hanging" text-anchor="middle" font-size="12" fill="#24292f">Feb 2023</text>
    
        
        <path stroke="#74838f"  stroke-width="2.0"  d="M 812.0 206.0 L 812.0 214.0" />
        <text x="812.0" font-family="-apple-system, system-ui, BlinkMacSystemFont, Roboto" y="216.0" dominant-baseline="hanging" text-anchor="middle" font-size="12" fill="#24292f">Mar 2023</text>
    
        
        <path stroke="#74838f"  stroke-width="2.0"  d="M 874.0 206.0 L 874.0 214.0" />
        <text x="874.0" font-family="-apple-system, system-ui, BlinkMacSystemFont, Roboto" y="216.0" dominant-baseline="hanging" text-anchor="middle" font-size="12" fill="#24292f">Apr 2023</text>
    
        
        <path stroke="#74838f"  stroke-width="2.0"  d="M 934.0 206.0 L 934.0 214.0" />
        <text x="934.0" font-family="-apple-system, system-ui, BlinkMacSystemFont, Roboto" y="216.0" dominant-baseline="hanging" text-anchor="middle" font-size="12" fill="#24292f">May 2023</text>
    
    <path stroke="#74838f"   stroke-linejoin="round" stroke-width="2.0" d="M 50.0 216.0 L 50.0 206.0 L 974.0 206.0 L 974.0 216.0"  fill="none" />
    <text x="512.0" y="25.0" font-family="-apple-system, system-ui, BlinkMacSystemFont, Roboto" dominant-baseline="middle" text-anchor="middle" font-size="18" fill="#24292f">Total daily suspensions</text>
</svg>
