<?xml version="1.0" standalone="no"?>
<svg width="1024.0" height="256.0"  viewBox="0 0 1024.0 256.0" preserveAspectRatio="xMidYMid meet" xmlns="http://www.w3.org/2000/svg">
    <path stroke="#e74c3c" stroke-linejoin="round" d="M 50.0 162.77066666666667 L 50 162.77066666666667L 51.833333333333336 194.12088888888889L 53.666666666666664 197.888L 55.5 198.2231111111111L 57.333333333333336 203.61955555555556L 59.166666666666664 200.16444444444443L 61 199.51733333333334L 62.83333333333333 191.65955555555556L 64.66666666666667 201.1582222222222L 66.5 198.89333333333332L 68.33333333333333 200.22222222222223L 70.16666666666666 202.70666666666665L 72 199.45955555555554L 73.83333333333333 195.9928888888889L 75.66666666666666 202.776L 77.5 198.98577777777777L 79.33333333333333 197.8071111111111L 81.16666666666666 191.96L 83 197.0328888888889L 84.83333333333333 199.70222222222222L 86.66666666666666 199.5751111111111L 88.5 198.5928888888889L 90.33333333333333 198.45422222222223L 92.16666666666666 200.06044444444444L 94 195.288L 95.83333333333333 200.12977777777778L 97.66666666666666 195.96977777777778L 99.5 200.92711111111112L 101.33333333333333 198.6968888888889L 103.16666666666666 191.22044444444444L 105 196.47822222222223L 106.83333333333333 191.38222222222223L 108.66666666666666 193.99377777777778L 110.5 199.92177777777778L 112.33333333333333 192.89600000000002L 114.16666666666667 197.33333333333334L 116 199.82933333333332L 117.83333333333334 194.00533333333334L 119.66666666666666 195.65777777777777L 121.5 195.81955555555555L 123.33333333333333 195.9351111111111L 125.16666666666667 196.83644444444445L 127 199.66755555555557L 128.83333333333331 199.4711111111111L 130.66666666666666 196.0391111111111L 132.5 194.39822222222222L 134.33333333333331 195.92355555555554L 136.16666666666669 199.03199999999998L 138 195.81955555555555L 139.83333333333331 194.44444444444446L 141.66666666666666 194.144L 143.5 187.04888888888888L 145.33333333333331 197.69155555555557L 147.16666666666669 196.33955555555556L 149 198.56977777777777L 150.83333333333331 194.8142222222222L 152.66666666666666 196.77866666666665L 154.5 197.32177777777778L 156.33333333333331 198.65066666666667L 158.16666666666669 198.35022222222221L 160 199.85244444444444L 161.83333333333331 192.07555555555555L 163.66666666666666 202.26755555555556L 165.5 193.80888888888887L 167.33333333333331 204.26666666666665L 169.16666666666669 206L 171 206L 172.83333333333331 206L 174.66666666666666 206L 176.5 191.04711111111112L 178.33333333333334 160.76L 180.16666666666666 194.02844444444446L 182 200.4417777777778L 183.83333333333334 193.7048888888889L 185.66666666666669 197.16L 187.5 200.00266666666667L 189.33333333333331 187.26844444444444L 191.16666666666669 198.18844444444443L 193 195.98133333333334L 194.83333333333334 191.08177777777777L 196.66666666666666 195.288L 198.5 190.97777777777776L 200.33333333333334 189.39466666666667L 202.16666666666666 198.15377777777778L 204 200.00266666666667L 205.83333333333334 192.4568888888889L 207.66666666666666 192.38755555555556L 209.5 199.56355555555555L 211.33333333333331 195.13777777777779L 213.16666666666669 193.10399999999998L 215 195.3111111111111L 216.83333333333334 199.93333333333334L 218.66666666666666 189.84533333333331L 220.5 198.70844444444444L 222.33333333333334 196.50133333333332L 224.16666666666666 195.69244444444445L 226 196.62844444444445L 227.83333333333334 193.65866666666668L 229.66666666666666 197.52977777777778L 231.5 194.3057777777778L 233.33333333333331 197.4257777777778L 235.16666666666669 179.19111111111113L 237 194.80266666666665L 238.83333333333334 196.29333333333335L 240.66666666666666 195.5191111111111L 242.5 197.0328888888889L 244.33333333333334 197.8071111111111L 246.16666666666666 198.00355555555555L 248 187.55733333333333L 249.83333333333334 193.13866666666667L 251.66666666666666 199.85244444444444L 253.5 193.53155555555554L 255.33333333333331 191.6248888888889L 257.1666666666667 195.8311111111111L 259 196.54755555555556L 260.8333333333333 196.81333333333333L 262.66666666666663 197.63377777777777L 264.5 193.55466666666666L 266.33333333333337 206L 268.16666666666663 187.16444444444446L 270 187.34933333333333L 271.83333333333337 191.8213333333333L 273.66666666666663 181.86044444444445L 275.5 201.8631111111111L 277.3333333333333 186.49422222222222L 279.1666666666667 196.39733333333334L 281 190.07644444444443L 282.8333333333333 194.664L 284.66666666666663 196.016L 286.5 197.18311111111112L 288.33333333333337 187.06044444444444L 290.1666666666667 198.29244444444444L 292 189.55644444444445L 293.83333333333337 189.7528888888889L 295.66666666666663 197.09066666666666L 297.5 183.328L 299.3333333333333 184.9688888888889L 301.16666666666663 206L 303 206L 304.83333333333337 206L 306.6666666666667 161.85777777777778L 308.5 198.81244444444445L 310.3333333333333 196.952L 312.1666666666667 196.05066666666667L 314 193.2888888888889L 315.8333333333333 197.29866666666666L 317.6666666666667 198.13066666666668L 319.5 201.0311111111111L 321.33333333333337 171.63377777777777L 323.1666666666667 189.85688888888888L 325 178.4862222222222L 326.8333333333333 192.09866666666667L 328.66666666666663 179.792L 330.5 177.46933333333334L 332.33333333333337 182.6L 334.1666666666667 188.1582222222222L 336 193.36977777777778L 337.8333333333333 189.99555555555554L 339.6666666666667 188.4471111111111L 341.5 190.01866666666666L 343.3333333333333 188.216L 345.16666666666663 194.05155555555555L 347 185.81244444444445L 348.83333333333337 172.61599999999999L 350.6666666666667 181.09777777777776L 352.5 173.56355555555555L 354.3333333333333 193.50844444444445L 356.16666666666663 192.51466666666667L 358 193.53155555555554L 359.8333333333333 195.25333333333333L 361.6666666666667 193.99377777777778L 363.5 194.46755555555555L 365.3333333333333 189.89155555555556L 367.1666666666667 195.58844444444446L 369 196.6168888888889L 370.8333333333333 193.11555555555555L 372.66666666666663 191.40533333333332L 374.5 201.16977777777777L 376.33333333333337 185.58133333333333L 378.1666666666667 191.44L 380 194.8488888888889L 381.8333333333333 190.45777777777778L 383.6666666666667 196.23555555555555L 385.5 192.5031111111111L 387.3333333333333 193.57777777777778L 389.16666666666663 187.18755555555555L 391 191.03555555555556L 392.83333333333337 183.0391111111111L 394.6666666666667 187.83466666666666L 396.5 192.064L 398.3333333333333 184.9111111111111L 400.16666666666663 189.76444444444445L 402 185.97422222222224L 403.83333333333337 186.22844444444445L 405.6666666666667 177.8968888888889L 407.5 189.672L 409.3333333333333 191.60177777777778L 411.1666666666667 189.39466666666667L 413 188.27377777777778L 414.8333333333333 191.9368888888889L 416.66666666666663 188.47022222222222L 418.5 188.88622222222222L 420.33333333333337 190.85066666666665L 422.1666666666667 194.80266666666665L 424 195.13777777777779L 425.8333333333333 201.48177777777778L 427.6666666666667 193.24266666666665L 429.5 182.06844444444445L 431.3333333333333 182.64622222222224L 433.1666666666667 182.12622222222222L 435 191.84444444444443L 436.83333333333337 187.592L 438.6666666666667 182.288L 440.5 187.22222222222223L 442.3333333333333 189.09422222222221L 444.16666666666663 180.63555555555556L 446 183.94044444444444L 447.83333333333337 174.76533333333333L 449.6666666666667 184.6568888888889L 451.5 172.93955555555556L 453.3333333333333 150.29066666666665L 455.1666666666667 179.0408888888889L 457 144.23555555555555L 458.8333333333333 186.864L 460.66666666666663 189.18666666666667L 462.5 188.424L 464.33333333333337 193.728L 466.1666666666667 187.31466666666665L 468 186.1822222222222L 469.8333333333333 187.58044444444445L 471.66666666666663 186.136L 473.5 193.312L 475.3333333333333 189.19822222222223L 477.1666666666667 189.9377777777778L 479 187.34933333333333L 480.8333333333333 186.51733333333334L 482.6666666666667 189.3831111111111L 484.5 188.0311111111111L 486.3333333333333 192.98844444444444L 488.16666666666663 187.73066666666668L 490 186.22844444444445L 491.83333333333337 182.81955555555555L 493.6666666666667 184.6222222222222L 495.5 181.248L 497.3333333333333 186.27466666666666L 499.1666666666667 194.44444444444446L 501 190.90844444444446L 502.8333333333333 187.30311111111112L 504.66666666666663 169.71555555555557L 506.5 120.77777777777779L 508.33333333333337 189.72977777777777L 510.1666666666667 188.51644444444446L 512 190.86222222222221L 513.8333333333333 192.82666666666665L 515.6666666666666 189.82222222222222L 517.5 183.16622222222222L 519.3333333333333 189.14044444444443L 521.1666666666666 179.9191111111111L 523 59.082666666666654L 524.8333333333333 164.26133333333334L 526.6666666666667 185.31555555555556L 528.5 183.57066666666668L 530.3333333333334 184.50666666666666L 532.1666666666667 185.00355555555555L 534 180.0808888888889L 535.8333333333334 190.74666666666667L 537.6666666666667 181.42133333333334L 539.5 162.58577777777776L 541.3333333333333 124.3368888888889L 543.1666666666667 153.52622222222223L 545 165.68266666666668L 546.8333333333333 182.1031111111111L 548.6666666666666 171.8071111111111L 550.5 180.76266666666666L 552.3333333333333 174.41866666666667L 554.1666666666666 179.376L 556 183.65155555555555L 557.8333333333334 178.22044444444444L 559.6666666666667 185.03822222222223L 561.5 188.47022222222222L 563.3333333333334 189.00177777777776L 565.1666666666666 185.52355555555556L 567 182.7848888888889L 568.8333333333334 182.69244444444445L 570.6666666666666 180.34666666666666L 572.5 169.5768888888889L 574.3333333333334 182.704L 576.1666666666666 186.136L 578 169.12622222222222L 579.8333333333333 143.0222222222222L 581.6666666666666 162.45866666666666L 583.5 153.67644444444443L 585.3333333333334 148.176L 587.1666666666667 157.16622222222222L 589 155.61777777777777L 590.8333333333334 164.63111111111112L 592.6666666666667 173.32088888888887L 594.5 151.0648888888889L 596.3333333333334 173.07822222222222L 598.1666666666666 173.70222222222222L 600 173.74844444444443L 601.8333333333334 184.472L 603.6666666666666 167.77422222222222L 605.5 160.9911111111111L 607.3333333333333 173.8871111111111L 609.1666666666666 167L 611 156.78488888888887L 612.8333333333333 175.07733333333334L 614.6666666666667 177.4L 616.5 187.22222222222223L 618.3333333333334 184.74933333333334L 620.1666666666667 183.952L 622 152.19733333333335L 623.8333333333334 183.96355555555556L 625.6666666666666 186.8871111111111L 627.5 185.87022222222222L 629.3333333333334 183.15466666666666L 631.1666666666666 183.06222222222223L 633 183.02755555555555L 634.8333333333333 176.10577777777777L 636.6666666666666 182.87733333333333L 638.5 180.48533333333333L 640.3333333333333 185.56977777777777L 642.1666666666667 180L 644 176.984L 645.8333333333334 178.20888888888888L 647.6666666666667 179.8382222222222L 649.5 183.09688888888888L 651.3333333333334 177.53866666666667L 653.1666666666666 183.44355555555555L 655 178.09333333333333L 656.8333333333334 179.59555555555556L 658.6666666666666 183.02755555555555L 660.5 180.4622222222222L 662.3333333333333 178.04711111111112L 664.1666666666666 186.89866666666666L 666 177.20355555555557L 667.8333333333333 179.07555555555555L 669.6666666666666 154.9591111111111L 671.5 133.512L 673.3333333333334 151.96622222222223L 675.1666666666667 151.57333333333332L 677 184.9111111111111L 678.8333333333334 185.28088888888888L 680.6666666666666 178.61333333333334L 682.5 142.39822222222222L 684.3333333333334 150.1751111111111L 686.1666666666666 164.04177777777778L 688 138.82755555555556L 689.8333333333334 134.864L 691.6666666666666 144.85955555555557L 693.5 145.57600000000002L 695.3333333333333 128.7048888888889L 697.1666666666666 120.36177777777777L 699 165.80977777777778L 700.8333333333334 163.51022222222224L 702.6666666666667 160.39022222222223L 704.5 177.504L 706.3333333333334 187.34933333333333L 708.1666666666667 188.04266666666666L 710 186.8871111111111L 711.8333333333334 176.08266666666668L 713.6666666666666 179.41066666666666L 715.5 195.0568888888889L 717.3333333333334 185.53511111111112L 719.1666666666666 183.6977777777778L 721 174.97333333333333L 722.8333333333333 178.61333333333334L 724.6666666666666 180.9591111111111L 726.5 184.0328888888889L 728.3333333333333 155.61777777777777L 730.1666666666667 149.7128888888889L 732 186.2631111111111L 733.8333333333334 191.28977777777777L 735.6666666666667 175.90933333333334L 737.5 175.49333333333334L 739.3333333333334 184.51822222222222L 741.1666666666666 189.69511111111112L 743 187.592L 744.8333333333334 180.09244444444445L 746.6666666666666 176.92622222222224L 748.5 163.31377777777777L 750.3333333333333 162.112L 752.1666666666666 167.1271111111111L 754 180.32355555555554L 755.8333333333333 184.11377777777778L 757.6666666666667 191.57866666666666L 759.5 195.54222222222222L 761.3333333333334 183.54755555555556L 763.1666666666667 164.03022222222222L 765 171.05599999999998L 766.8333333333334 169.92355555555557L 768.6666666666666 180.02311111111112L 770.5 172.07288888888888L 772.3333333333334 163.53333333333333L 774.1666666666666 171.34488888888887L 776 181.59466666666668L 777.8333333333333 179.80355555555556L 779.6666666666666 166.17955555555557L 781.5 154.92444444444445L 783.3333333333333 158.4488888888889L 785.1666666666666 156.4728888888889L 787 144.4551111111111L 788.8333333333334 158.52977777777778L 790.6666666666667 178.00088888888888L 792.5 144.99822222222224L 794.3333333333334 134.136L 796.1666666666666 139.8213333333333L 798 145.04444444444445L 799.8333333333334 153.168L 801.6666666666666 140.53777777777776L 803.5 113.86755555555555L 805.3333333333334 113.28977777777777L 807.1666666666666 164.85066666666665L 809 163.62577777777778L 810.8333333333333 150.16355555555555L 812.6666666666666 149.84L 814.5 56.54044444444443L 816.3333333333334 124.776L 818.1666666666667 64.07466666666667L 820 123.55111111111111L 821.8333333333334 157.536L 823.6666666666667 147.9911111111111L 825.5 136.22755555555557L 827.3333333333334 91.11466666666666L 829.1666666666666 107.36177777777779L 831 141.68177777777777L 832.8333333333334 157.73244444444444L 834.6666666666666 152.63644444444444L 836.5 96.22222222222221L 838.3333333333333 150.19822222222223L 840.1666666666666 116.57155555555556L 842 127.34133333333332L 843.8333333333333 180.53155555555554L 845.6666666666667 137.10577777777777L 847.5 122.64977777777779L 849.3333333333334 104.61155555555555L 851.1666666666667 141.76266666666666L 853 164.23822222222222L 854.8333333333334 160.51733333333334L 856.6666666666666 154.57777777777778L 858.5 175.01955555555554L 860.3333333333334 146.87022222222222L 862.1666666666666 153.23733333333334L 864 142.82577777777777L 865.8333333333333 130.98133333333334L 867.6666666666666 88.53777777777778L 869.5 174.488L 871.3333333333333 50.55466666666666L 873.1666666666667 84.43555555555557L 875 152.47466666666668L 876.8333333333334 114.90755555555555L 878.6666666666667 96.30311111111112L 880.5 171.46044444444445L 882.3333333333334 183.96355555555556L 884.1666666666666 169.87733333333333L 886 183.13155555555556L 887.8333333333334 171.992L 889.6666666666666 152.48622222222224L 891.5 169.704L 893.3333333333333 172.99733333333333L 895.1666666666666 164.61955555555556L 897 162.64355555555557L 898.8333333333333 170.51288888888888L 900.6666666666666 145.6568888888889L 902.5 159.81244444444445L 904.3333333333334 167.2542222222222L 906.1666666666667 141.55466666666666L 908 160.864L 909.8333333333334 157.7208888888889L 911.6666666666666 154.87822222222223L 913.5 145.29866666666666L 915.3333333333334 177.65422222222222L 917.1666666666666 119.73777777777778L 919 144.96355555555556L 920.8333333333334 151.15733333333333L 922.6666666666666 164.4231111111111L 924.5 174.1991111111111L 926.3333333333333 171.784L 928.1666666666666 157.12L 930 159.44266666666667L 931.8333333333334 169.77333333333334L 933.6666666666667 166.64177777777778L 935.5 176.5102222222222L 937.3333333333334 174.04888888888888L 939.1666666666667 157.17777777777778L 941 148.66133333333335L 942.8333333333334 141.01155555555556L 944.6666666666666 147.49422222222222L 946.5 147.08977777777778L 948.3333333333334 164.78133333333332L 950.1666666666666 160.4711111111111L 952 165.59022222222222L 953.8333333333333 150.85688888888888L 955.6666666666666 165.84444444444443L 957.5 164.65422222222222L 959.3333333333333 206L 961.1666666666667 150.68355555555556L 963 81.07288888888888L 964.8333333333334 172.89333333333332L 966.6666666666667 125.80444444444444L 968.5 111.776L 970.3333333333334 174.11822222222222L 972.1666666666666 134.72533333333334L 974 202.19822222222223" stroke-width="2.0" fill="none" />
    
        
        
        <text x="45.0" font-family="-apple-system, system-ui, BlinkMacSystemFont, Roboto" y="50.0" dominant-baseline="middle" text-anchor="end" font-size="12" fill="#24292f">13500.0</text>
        
            
            <path stroke="#74838f" stroke-dasharray="10 6" stroke-width="0.5"  d="M 50.0 50.0 L 974.0 50.0" />
        
    
        
        
        <text x="45.0" font-family="-apple-system, system-ui, BlinkMacSystemFont, Roboto" y="81.2" dominant-baseline="middle" text-anchor="end" font-size="12" fill="#24292f">10800.0</text>
        
            
            
            <path stroke="#74838f" stroke-dasharray="10 6" stroke-width="0.5"  d="M 50.0 81.2 L 974.0 81.2" />
        
    
        
        
        <text x="45.0" font-family="-apple-system, system-ui, BlinkMacSystemFont, Roboto" y="112.4" dominant-baseline="middle" text-anchor="end" font-size="12" fill="#24292f">8100.0</text>
        
            
            
            <path stroke="#74838f" stroke-dasharray="10 6" stroke-width="0.5"  d="M 50.0 112.4 L 974.0 112.4" />
        
    
        
        
        <text x="45.0" font-family="-apple-system, system-ui, BlinkMacSystemFont, Roboto" y="143.6" dominant-baseline="middle" text-anchor="end" font-size="12" fill="#24292f">5400.0</text>
        
            
            
            <path stroke="#74838f" stroke-dasharray="10 6" stroke-width="0.5"  d="M 50.0 143.6 L 974.0 143.6" />
        
    
        
        
        <text x="45.0" font-family="-apple-system, system-ui, BlinkMacSystemFont, Roboto" y="174.8" dominant-baseline="middle" text-anchor="end" font-size="12" fill="#24292f">2700.0</text>
        
            
            
            <path stroke="#74838f" stroke-dasharray="10 6" stroke-width="0.5"  d="M 50.0 174.8 L 974.0 174.8" />
        
    
        
        
        <text x="45.0" font-family="-apple-system, system-ui, BlinkMacSystemFont, Roboto" y="206.0" dominant-baseline="middle" text-anchor="end" font-size="12" fill="#24292f">0.0</text>
        
    
    
        
        <path stroke="#74838f"  stroke-width="2.0"  d="M 79.33333333333333 206.0 L 79.33333333333333 214.0" />
        <text x="79.33333333333333" font-family="-apple-system, system-ui, BlinkMacSystemFont, Roboto" y="216.0" dominant-baseline="hanging" text-anchor="middle" font-size="12" fill="#24292f">Mar 2022</text>
    
        
        <path stroke="#74838f"  stroke-width="2.0"  d="M 136.16666666666669 206.0 L 136.16666666666669 214.0" />
        <text x="136.16666666666669" font-family="-apple-system, system-ui, BlinkMacSystemFont, Roboto" y="216.0" dominant-baseline="hanging" text-anchor="middle" font-size="12" fill="#24292f">Apr 2022</text>
    
        
        <path stroke="#74838f"  stroke-width="2.0"  d="M 191.16666666666669 206.0 L 191.16666666666669 214.0" />
        <text x="191.16666666666669" font-family="-apple-system, system-ui, BlinkMacSystemFont, Roboto" y="216.0" dominant-baseline="hanging" text-anchor="middle" font-size="12" fill="#24292f">May 2022</text>
    
        
        <path stroke="#74838f"  stroke-width="2.0"  d="M 248.0 206.0 L 248.0 214.0" />
        <text x="248.0" font-family="-apple-system, system-ui, BlinkMacSystemFont, Roboto" y="216.0" dominant-baseline="hanging" text-anchor="middle" font-size="12" fill="#24292f">Jun 2022</text>
    
        
        <path stroke="#74838f"  stroke-width="2.0"  d="M 303.0 206.0 L 303.0 214.0" />
        <text x="303.0" font-family="-apple-system, system-ui, BlinkMacSystemFont, Roboto" y="216.0" dominant-baseline="hanging" text-anchor="middle" font-size="12" fill="#24292f">Jul 2022</text>
    
        
        <path stroke="#74838f"  stroke-width="2.0"  d="M 359.8333333333333 206.0 L 359.8333333333333 214.0" />
        <text x="359.8333333333333" font-family="-apple-system, system-ui, BlinkMacSystemFont, Roboto" y="216.0" dominant-baseline="hanging" text-anchor="middle" font-size="12" fill="#24292f">Aug 2022</text>
    
        
        <path stroke="#74838f"  stroke-width="2.0"  d="M 416.66666666666663 206.0 L 416.66666666666663 214.0" />
        <text x="416.66666666666663" font-family="-apple-system, system-ui, BlinkMacSystemFont, Roboto" y="216.0" dominant-baseline="hanging" text-anchor="middle" font-size="12" fill="#24292f">Sep 2022</text>
    
        
        <path stroke="#74838f"  stroke-width="2.0"  d="M 471.66666666666663 206.0 L 471.66666666666663 214.0" />
        <text x="471.66666666666663" font-family="-apple-system, system-ui, BlinkMacSystemFont, Roboto" y="216.0" dominant-baseline="hanging" text-anchor="middle" font-size="12" fill="#24292f">Oct 2022</text>
    
        
        <path stroke="#74838f"  stroke-width="2.0"  d="M 528.5 206.0 L 528.5 214.0" />
        <text x="528.5" font-family="-apple-system, system-ui, BlinkMacSystemFont, Roboto" y="216.0" dominant-baseline="hanging" text-anchor="middle" font-size="12" fill="#24292f">Nov 2022</text>
    
        
        <path stroke="#74838f"  stroke-width="2.0"  d="M 583.5 206.0 L 583.5 214.0" />
        <text x="583.5" font-family="-apple-system, system-ui, BlinkMacSystemFont, Roboto" y="216.0" dominant-baseline="hanging" text-anchor="middle" font-size="12" fill="#24292f">Dec 2022</text>
    
        
        <path stroke="#74838f"  stroke-width="2.0"  d="M 640.3333333333333 206.0 L 640.3333333333333 214.0" />
        <text x="640.3333333333333" font-family="-apple-system, system-ui, BlinkMacSystemFont, Roboto" y="216.0" dominant-baseline="hanging" text-anchor="middle" font-size="12" fill="#24292f">Jan 2023</text>
    
        
        <path stroke="#74838f"  stroke-width="2.0"  d="M 697.1666666666666 206.0 L 697.1666666666666 214.0" />
        <text x="697.1666666666666" font-family="-apple-system, system-ui, BlinkMacSystemFont, Roboto" y="216.0" dominant-baseline="hanging" text-anchor="middle" font-size="12" fill="#24292f">Feb 2023</text>
    
        
        <path stroke="#74838f"  stroke-width="2.0"  d="M 748.5 206.0 L 748.5 214.0" />
        <text x="748.5" font-family="-apple-system, system-ui, BlinkMacSystemFont, Roboto" y="216.0" dominant-baseline="hanging" text-anchor="middle" font-size="12" fill="#24292f">Mar 2023</text>
    
        
        <path stroke="#74838f"  stroke-width="2.0"  d="M 805.3333333333334 206.0 L 805.3333333333334 214.0" />
        <text x="805.3333333333334" font-family="-apple-system, system-ui, BlinkMacSystemFont, Roboto" y="216.0" dominant-baseline="hanging" text-anchor="middle" font-size="12" fill="#24292f">Apr 2023</text>
    
        
        <path stroke="#74838f"  stroke-width="2.0"  d="M 860.3333333333334 206.0 L 860.3333333333334 214.0" />
        <text x="860.3333333333334" font-family="-apple-system, system-ui, BlinkMacSystemFont, Roboto" y="216.0" dominant-baseline="hanging" text-anchor="middle" font-size="12" fill="#24292f">May 2023</text>
    
        
        <path stroke="#74838f"  stroke-width="2.0"  d="M 917.1666666666666 206.0 L 917.1666666666666 214.0" />
        <text x="917.1666666666666" font-family="-apple-system, system-ui, BlinkMacSystemFont, Roboto" y="216.0" dominant-baseline="hanging" text-anchor="middle" font-size="12" fill="#24292f">Jun 2023</text>
    
        
        <path stroke="#74838f"  stroke-width="2.0"  d="M 972.1666666666666 206.0 L 972.1666666666666 214.0" />
        <text x="972.1666666666666" font-family="-apple-system, system-ui, BlinkMacSystemFont, Roboto" y="216.0" dominant-baseline="hanging" text-anchor="middle" font-size="12" fill="#24292f">Jul 2023</text>
    
    <path stroke="#74838f"   stroke-linejoin="round" stroke-width="2.0" d="M 50.0 216.0 L 50.0 206.0 L 974.0 206.0 L 974.0 216.0"  fill="none" />
    <text x="512.0" y="25.0" font-family="-apple-system, system-ui, BlinkMacSystemFont, Roboto" dominant-baseline="middle" text-anchor="middle" font-size="18" fill="#24292f">Total daily suspensions</text>
</svg>
