<?xml version="1.0" standalone="no"?>
<svg width="1024.0" height="256.0"  viewBox="0 0 1024.0 256.0" preserveAspectRatio="xMidYMid meet" xmlns="http://www.w3.org/2000/svg">
    <path stroke="#e74c3c" stroke-linejoin="round" d="M 50.0 161.108 L 50 161.108L 52.28712871287129 193.664L 54.57425742574257 197.576L 56.86138613861386 197.924L 59.148514851485146 203.528L 61.43564356435644 199.94L 63.72277227722772 199.268L 66.00990099009901 191.108L 68.29702970297029 200.972L 70.58415841584159 198.62L 72.87128712871288 200L 75.15841584158416 202.57999999999998L 77.44554455445544 199.208L 79.73267326732673 195.608L 82.01980198019803 202.652L 84.3069306930693 198.716L 86.59405940594058 197.49200000000002L 88.88118811881188 191.42000000000002L 91.16831683168317 196.688L 93.45544554455446 199.46L 95.74257425742574 199.328L 98.02970297029702 198.308L 100.31683168316832 198.164L 102.60396039603961 199.832L 104.89108910891089 194.876L 107.17821782178217 199.904L 109.46534653465346 195.584L 111.75247524752476 200.732L 114.03960396039605 198.416L 116.32673267326732 190.652L 118.61386138613861 196.112L 120.9009900990099 190.82L 123.18811881188118 193.53199999999998L 125.47524752475248 199.688L 127.76237623762377 192.392L 130.04950495049505 197L 132.33663366336634 199.59199999999998L 134.6237623762376 193.54399999999998L 136.91089108910893 195.26L 139.1980198019802 195.428L 141.4851485148515 195.548L 143.77227722772278 196.484L 146.05940594059405 199.424L 148.34653465346534 199.22L 150.63366336633663 195.656L 152.92079207920793 193.952L 155.20792079207922 195.536L 157.4950495049505 198.764L 159.78217821782178 195.428L 162.06930693069307 194L 164.35643564356434 193.688L 166.64356435643566 186.32L 168.93069306930693 197.372L 171.21782178217822 195.96800000000002L 173.5049504950495 198.284L 175.7920792079208 194.38400000000001L 178.0792079207921 196.424L 180.36633663366337 196.988L 182.65346534653463 198.368L 184.94059405940592 198.05599999999998L 187.22772277227722 199.61599999999999L 189.5148514851485 191.54L 191.8019801980198 202.124L 194.0891089108911 193.34L 196.37623762376236 204.2L 198.66336633663366 206L 200.95049504950495 206L 203.23762376237624 206L 205.52475247524754 206L 207.81188118811883 190.472L 210.0990099009901 159.01999999999998L 212.38613861386136 193.56799999999998L 214.67326732673266 200.228L 216.96039603960395 193.232L 219.24752475247524 196.82L 221.53465346534654 199.772L 223.82178217821783 186.548L 226.10891089108912 197.888L 228.3960396039604 195.596L 230.68316831683168 190.508L 232.97029702970298 194.876L 235.25742574257427 190.4L 237.54455445544556 188.756L 239.83168316831683 197.852L 242.11881188118812 199.772L 244.4059405940594 191.936L 246.69306930693068 191.864L 248.98019801980197 199.316L 251.26732673267327 194.72L 253.55445544554456 192.608L 255.84158415841586 194.9L 258.1287128712871 199.7L 260.41584158415844 189.224L 262.7029702970297 198.428L 264.990099009901 196.136L 267.2772277227723 195.296L 269.56435643564356 196.268L 271.8514851485148 193.184L 274.13861386138615 197.204L 276.4257425742574 193.856L 278.7128712871287 197.096L 281 178.16L 283.2871287128713 194.372L 285.5742574257426 195.92000000000002L 287.86138613861385 195.11599999999999L 290.1485148514852 196.688L 292.43564356435644 197.49200000000002L 294.7227722772277 197.696L 297.009900990099 186.848L 299.29702970297035 192.644L 301.5841584158416 199.61599999999999L 303.8712871287129 193.052L 306.1584158415842 191.072L 308.44554455445547 195.44L 310.73267326732673 196.184L 313.019801980198 196.46L 315.30693069306926 197.312L 317.5940594059406 193.076L 319.88118811881185 206L 322.16831683168317 186.44L 324.45544554455444 186.632L 326.74257425742576 191.276L 329.029702970297 180.93200000000002L 331.3168316831683 201.704L 333.6039603960396 185.744L 335.8910891089109 196.028L 338.1782178217822 189.464L 340.46534653465346 194.228L 342.7524752475247 195.632L 345.03960396039605 196.844L 347.3267326732673 186.332L 349.61386138613864 197.99599999999998L 351.9009900990099 188.924L 354.1881188118812 189.128L 356.4752475247525 196.748L 358.76237623762376 182.45600000000002L 361.0495049504951 184.16L 363.33663366336634 206L 365.62376237623766 206L 367.9108910891089 206L 370.1980198019802 160.16L 372.48514851485146 198.536L 374.7722772277227 196.60399999999998L 377.05940594059405 195.668L 379.3465346534653 192.8L 381.63366336633663 196.964L 383.9207920792079 197.828L 386.2079207920792 200.84L 388.4950495049505 170.312L 390.78217821782175 189.236L 393.0693069306931 177.428L 395.35643564356434 191.564L 397.64356435643566 178.784L 399.9306930693069 176.372L 402.21782178217825 181.7L 404.5049504950495 187.472L 406.7920792079208 192.88400000000001L 409.0792079207921 189.38L 411.36633663366337 187.772L 413.6534653465347 189.404L 415.94059405940595 187.532L 418.2277227722773 193.59199999999998L 420.51485148514854 185.036L 422.8019801980198 171.332L 425.0891089108911 180.14L 427.37623762376234 172.316L 429.66336633663366 193.028L 431.9504950495049 191.996L 434.23762376237624 193.052L 436.5247524752475 194.84L 438.8118811881188 193.53199999999998L 441.0990099009901 194.024L 443.38613861386136 189.272L 445.6732673267327 195.188L 447.96039603960395 196.256L 450.2475247524753 192.62L 452.53465346534654 190.844L 454.8217821782178 200.984L 457.1089108910891 184.796L 459.3960396039604 190.88L 461.6831683168317 194.42000000000002L 463.970297029703 189.86L 466.25742574257424 195.86L 468.54455445544556 191.984L 470.83168316831683 193.1L 473.11881188118815 186.464L 475.4059405940594 190.46L 477.69306930693074 182.156L 479.980198019802 187.136L 482.26732673267327 191.528L 484.55445544554453 184.1L 486.8415841584158 189.14L 489.1287128712871 185.204L 491.4158415841584 185.468L 493.7029702970297 176.816L 495.990099009901 189.04399999999998L 498.27722772277224 191.048L 500.56435643564356 188.756L 502.8514851485148 187.592L 505.13861386138615 191.39600000000002L 507.4257425742574 187.796L 509.71287128712873 188.228L 512 190.268L 514.2871287128712 194.372L 516.5742574257426 194.72L 518.8613861386139 201.308L 521.1485148514852 192.752L 523.4356435643565 181.148L 525.7227722772277 181.748L 528.009900990099 181.208L 530.2970297029703 191.3L 532.5841584158416 186.88400000000001L 534.8712871287129 181.376L 537.1584158415842 186.5L 539.4455445544554 188.44400000000002L 541.7326732673267 179.66L 544.019801980198 183.09199999999998L 546.3069306930693 173.564L 548.5940594059407 183.836L 550.8811881188119 171.668L 553.1683168316832 148.148L 555.4554455445545 178.004L 557.7425742574258 141.86L 560.0297029702971 186.128L 562.3168316831684 188.54000000000002L 564.6039603960396 187.748L 566.8910891089109 193.256L 569.1782178217823 186.596L 571.4653465346535 185.42000000000002L 573.7524752475247 186.872L 576.039603960396 185.372L 578.3267326732673 192.824L 580.6138613861385 188.552L 582.9009900990098 189.32L 585.1881188118812 186.632L 587.4752475247525 185.768L 589.7623762376237 188.744L 592.049504950495 187.34L 594.3366336633663 192.488L 596.6237623762376 187.028L 598.9108910891089 185.468L 601.1980198019802 181.928L 603.4851485148515 183.8L 605.7722772277227 180.296L 608.059405940594 185.516L 610.3465346534654 194L 612.6336633663366 190.328L 614.9207920792079 186.584L 617.2079207920792 168.32L 619.4950495049505 117.5L 621.7821782178218 189.10399999999998L 624.0693069306931 187.844L 626.3564356435644 190.28L 628.6435643564356 192.32L 630.9306930693069 189.2L 633.2178217821782 182.288L 635.5049504950495 188.49200000000002L 637.7920792079208 178.916L 640.0792079207921 53.432000000000016L 642.3663366336634 162.656L 644.6534653465346 184.52L 646.940594059406 182.708L 649.2277227722773 183.68L 651.5148514851485 184.196L 653.8019801980198 179.084L 656.0891089108911 190.16L 658.3762376237624 180.476L 660.6633663366337 160.916L 662.950495049505 121.196L 665.2376237623763 151.50799999999998L 667.5247524752475 164.132L 669.8118811881188 181.184L 672.0990099009902 170.49200000000002L 674.3861386138615 179.792L 676.6732673267327 173.204L 678.960396039604 178.352L 681.2475247524753 182.792L 683.5346534653465 177.152L 685.8217821782177 184.232L 688.1089108910891 187.796L 690.3960396039604 188.348L 692.6831683168316 184.736L 694.9702970297029 181.892L 697.2574257425742 181.796L 699.5445544554455 179.36L 701.8316831683168 168.176L 704.1188118811881 181.808L 706.4059405940594 185.372L 708.6930693069306 167.708L 710.980198019802 140.6L 713.2673267326733 160.784L 715.5544554455445 151.664L 717.8415841584158 145.952L 720.1287128712871 155.288L 722.4158415841584 153.68L 724.7029702970297 163.04L 726.990099009901 172.064L 729.2772277227723 148.952L 731.5643564356435 171.812L 733.8514851485148 172.46L 736.1386138613861 172.508L 738.4257425742575 183.644L 740.7128712871287 166.304L 743 159.26L 745.2871287128713 172.652L 747.5742574257425 165.5L 749.8613861386139 154.892L 752.1485148514852 173.888L 754.4356435643565 176.3L 756.7227722772277 186.5L 759.009900990099 183.932L 761.2970297029703 183.10399999999998L 763.5841584158416 150.128L 765.8712871287129 183.11599999999999L 768.1584158415842 186.152L 770.4455445544555 185.096L 772.7326732673267 182.276L 775.019801980198 182.18L 777.3069306930694 182.144L 779.5940594059406 174.956L 781.8811881188119 181.988L 784.1683168316832 179.504L 786.4554455445545 184.784L 788.7425742574258 179L 791.0297029702971 175.868L 793.3168316831684 177.14L 795.6039603960396 178.832L 797.8910891089109 182.216L 800.1782178217823 176.444L 802.4653465346535 182.576L 804.7524752475247 177.02L 807.039603960396 178.58L 809.3267326732673 182.144L 811.6138613861385 179.48L 813.9009900990098 176.972L 816.1881188118812 186.164L 818.4752475247525 176.096L 820.7623762376237 178.04L 823.049504950495 152.996L 825.3366336633663 130.724L 827.6237623762376 149.888L 829.9108910891089 149.48L 832.1980198019802 184.1L 834.4851485148515 184.484L 836.7722772277227 177.56L 839.059405940594 139.952L 841.3465346534654 148.028L 843.6336633663366 162.428L 845.9207920792079 136.244L 848.2079207920792 132.128L 850.4950495049505 142.508L 852.7821782178218 143.252L 855.0693069306931 125.732L 857.3564356435644 117.06800000000001L 859.6435643564356 164.264L 861.9306930693069 161.876L 864.2178217821782 158.636L 866.5049504950495 176.40800000000002L 868.7920792079208 186.632L 871.0792079207921 187.352L 873.3663366336634 186.152L 875.6534653465346 174.932L 877.940594059406 178.388L 880.2277227722773 194.636L 882.5148514851485 184.748L 884.8019801980198 182.84L 887.0891089108911 173.78L 889.3762376237624 177.56L 891.6633663366337 179.996L 893.950495049505 183.188L 896.2376237623763 153.68L 898.5247524752475 147.548L 900.8118811881188 185.504L 903.0990099009902 190.724L 905.3861386138615 174.752L 907.6732673267327 174.32L 909.960396039604 183.692L 912.2475247524753 189.06799999999998L 914.5346534653465 186.88400000000001L 916.8217821782177 179.096L 919.1089108910891 175.808L 921.3960396039604 161.672L 923.6831683168316 160.424L 925.9702970297029 165.632L 928.2574257425742 179.336L 930.5445544554455 183.272L 932.8316831683168 191.024L 935.1188118811881 195.14L 937.4059405940594 182.684L 939.6930693069306 162.416L 941.980198019802 169.712L 944.2673267326733 168.536L 946.5544554455445 179.024L 948.8415841584158 170.768L 951.1287128712871 161.9L 953.4158415841584 170.012L 955.7029702970297 180.656L 957.990099009901 178.796L 960.2772277227723 164.648L 962.5643564356435 152.95999999999998L 964.8514851485148 156.62L 967.1386138613861 154.568L 969.4257425742575 142.088L 971.7128712871287 156.704L 974 198.01999999999998" stroke-width="2.0" fill="none" />
    
        
        
        <text x="45.0" font-family="-apple-system, system-ui, BlinkMacSystemFont, Roboto" y="50.0" dominant-baseline="middle" text-anchor="end" font-size="12" fill="#24292f">13000.0</text>
        
            
            <path stroke="#74838f" stroke-dasharray="10 6" stroke-width="0.5"  d="M 50.0 50.0 L 974.0 50.0" />
        
    
        
        
        <text x="45.0" font-family="-apple-system, system-ui, BlinkMacSystemFont, Roboto" y="81.2" dominant-baseline="middle" text-anchor="end" font-size="12" fill="#24292f">10400.0</text>
        
            
            
            <path stroke="#74838f" stroke-dasharray="10 6" stroke-width="0.5"  d="M 50.0 81.2 L 974.0 81.2" />
        
    
        
        
        <text x="45.0" font-family="-apple-system, system-ui, BlinkMacSystemFont, Roboto" y="112.4" dominant-baseline="middle" text-anchor="end" font-size="12" fill="#24292f">7800.0</text>
        
            
            
            <path stroke="#74838f" stroke-dasharray="10 6" stroke-width="0.5"  d="M 50.0 112.4 L 974.0 112.4" />
        
    
        
        
        <text x="45.0" font-family="-apple-system, system-ui, BlinkMacSystemFont, Roboto" y="143.6" dominant-baseline="middle" text-anchor="end" font-size="12" fill="#24292f">5200.0</text>
        
            
            
            <path stroke="#74838f" stroke-dasharray="10 6" stroke-width="0.5"  d="M 50.0 143.6 L 974.0 143.6" />
        
    
        
        
        <text x="45.0" font-family="-apple-system, system-ui, BlinkMacSystemFont, Roboto" y="174.8" dominant-baseline="middle" text-anchor="end" font-size="12" fill="#24292f">2600.0</text>
        
            
            
            <path stroke="#74838f" stroke-dasharray="10 6" stroke-width="0.5"  d="M 50.0 174.8 L 974.0 174.8" />
        
    
        
        
        <text x="45.0" font-family="-apple-system, system-ui, BlinkMacSystemFont, Roboto" y="206.0" dominant-baseline="middle" text-anchor="end" font-size="12" fill="#24292f">0.0</text>
        
    
    
        
        <path stroke="#74838f"  stroke-width="2.0"  d="M 86.59405940594058 206.0 L 86.59405940594058 214.0" />
        <text x="86.59405940594058" font-family="-apple-system, system-ui, BlinkMacSystemFont, Roboto" y="216.0" dominant-baseline="hanging" text-anchor="middle" font-size="12" fill="#24292f">Mar 2022</text>
    
        
        <path stroke="#74838f"  stroke-width="2.0"  d="M 157.4950495049505 206.0 L 157.4950495049505 214.0" />
        <text x="157.4950495049505" font-family="-apple-system, system-ui, BlinkMacSystemFont, Roboto" y="216.0" dominant-baseline="hanging" text-anchor="middle" font-size="12" fill="#24292f">Apr 2022</text>
    
        
        <path stroke="#74838f"  stroke-width="2.0"  d="M 226.10891089108912 206.0 L 226.10891089108912 214.0" />
        <text x="226.10891089108912" font-family="-apple-system, system-ui, BlinkMacSystemFont, Roboto" y="216.0" dominant-baseline="hanging" text-anchor="middle" font-size="12" fill="#24292f">May 2022</text>
    
        
        <path stroke="#74838f"  stroke-width="2.0"  d="M 297.009900990099 206.0 L 297.009900990099 214.0" />
        <text x="297.009900990099" font-family="-apple-system, system-ui, BlinkMacSystemFont, Roboto" y="216.0" dominant-baseline="hanging" text-anchor="middle" font-size="12" fill="#24292f">Jun 2022</text>
    
        
        <path stroke="#74838f"  stroke-width="2.0"  d="M 365.62376237623766 206.0 L 365.62376237623766 214.0" />
        <text x="365.62376237623766" font-family="-apple-system, system-ui, BlinkMacSystemFont, Roboto" y="216.0" dominant-baseline="hanging" text-anchor="middle" font-size="12" fill="#24292f">Jul 2022</text>
    
        
        <path stroke="#74838f"  stroke-width="2.0"  d="M 436.5247524752475 206.0 L 436.5247524752475 214.0" />
        <text x="436.5247524752475" font-family="-apple-system, system-ui, BlinkMacSystemFont, Roboto" y="216.0" dominant-baseline="hanging" text-anchor="middle" font-size="12" fill="#24292f">Aug 2022</text>
    
        
        <path stroke="#74838f"  stroke-width="2.0"  d="M 507.4257425742574 206.0 L 507.4257425742574 214.0" />
        <text x="507.4257425742574" font-family="-apple-system, system-ui, BlinkMacSystemFont, Roboto" y="216.0" dominant-baseline="hanging" text-anchor="middle" font-size="12" fill="#24292f">Sep 2022</text>
    
        
        <path stroke="#74838f"  stroke-width="2.0"  d="M 576.039603960396 206.0 L 576.039603960396 214.0" />
        <text x="576.039603960396" font-family="-apple-system, system-ui, BlinkMacSystemFont, Roboto" y="216.0" dominant-baseline="hanging" text-anchor="middle" font-size="12" fill="#24292f">Oct 2022</text>
    
        
        <path stroke="#74838f"  stroke-width="2.0"  d="M 646.940594059406 206.0 L 646.940594059406 214.0" />
        <text x="646.940594059406" font-family="-apple-system, system-ui, BlinkMacSystemFont, Roboto" y="216.0" dominant-baseline="hanging" text-anchor="middle" font-size="12" fill="#24292f">Nov 2022</text>
    
        
        <path stroke="#74838f"  stroke-width="2.0"  d="M 715.5544554455445 206.0 L 715.5544554455445 214.0" />
        <text x="715.5544554455445" font-family="-apple-system, system-ui, BlinkMacSystemFont, Roboto" y="216.0" dominant-baseline="hanging" text-anchor="middle" font-size="12" fill="#24292f">Dec 2022</text>
    
        
        <path stroke="#74838f"  stroke-width="2.0"  d="M 786.4554455445545 206.0 L 786.4554455445545 214.0" />
        <text x="786.4554455445545" font-family="-apple-system, system-ui, BlinkMacSystemFont, Roboto" y="216.0" dominant-baseline="hanging" text-anchor="middle" font-size="12" fill="#24292f">Jan 2023</text>
    
        
        <path stroke="#74838f"  stroke-width="2.0"  d="M 857.3564356435644 206.0 L 857.3564356435644 214.0" />
        <text x="857.3564356435644" font-family="-apple-system, system-ui, BlinkMacSystemFont, Roboto" y="216.0" dominant-baseline="hanging" text-anchor="middle" font-size="12" fill="#24292f">Feb 2023</text>
    
        
        <path stroke="#74838f"  stroke-width="2.0"  d="M 921.3960396039604 206.0 L 921.3960396039604 214.0" />
        <text x="921.3960396039604" font-family="-apple-system, system-ui, BlinkMacSystemFont, Roboto" y="216.0" dominant-baseline="hanging" text-anchor="middle" font-size="12" fill="#24292f">Mar 2023</text>
    
    <path stroke="#74838f"   stroke-linejoin="round" stroke-width="2.0" d="M 50.0 216.0 L 50.0 206.0 L 974.0 206.0 L 974.0 216.0"  fill="none" />
    <text x="512.0" y="25.0" font-family="-apple-system, system-ui, BlinkMacSystemFont, Roboto" dominant-baseline="middle" text-anchor="middle" font-size="18" fill="#24292f">Total daily suspensions</text>
</svg>
