<?xml version="1.0" standalone="no"?>
<svg width="1024.0" height="256.0"  viewBox="0 0 1024.0 256.0" preserveAspectRatio="xMidYMid meet" xmlns="http://www.w3.org/2000/svg">
    <path stroke="#e74c3c" stroke-linejoin="round" d="M 50.0 161.108 L 50 161.108L 52.45092838196287 193.664L 54.90185676392573 197.576L 57.352785145888596 197.924L 59.80371352785146 203.528L 62.254641909814325 199.94L 64.70557029177719 199.268L 67.15649867374006 191.108L 69.60742705570291 200.972L 72.05835543766578 198.62L 74.50928381962865 200L 76.96021220159152 202.57999999999998L 79.41114058355438 199.208L 81.86206896551724 195.608L 84.3129973474801 202.652L 86.76392572944297 198.716L 89.21485411140583 197.49200000000002L 91.6657824933687 191.42000000000002L 94.11671087533156 196.688L 96.56763925729443 199.46L 99.0185676392573 199.328L 101.46949602122015 198.308L 103.92042440318303 198.164L 106.37135278514589 199.832L 108.82228116710876 194.876L 111.27320954907162 199.904L 113.72413793103448 195.584L 116.17506631299736 200.732L 118.62599469496021 198.416L 121.07692307692308 190.652L 123.52785145888593 196.112L 125.97877984084882 190.82L 128.42970822281166 193.53199999999998L 130.88063660477454 199.688L 133.3315649867374 192.392L 135.78249336870027 197L 138.23342175066313 199.59199999999998L 140.68435013262598 193.54399999999998L 143.13527851458886 195.26L 145.58620689655174 195.428L 148.0371352785146 195.548L 150.48806366047745 196.484L 152.9389920424403 199.424L 155.3899204244032 199.22L 157.84084880636607 195.656L 160.29177718832892 193.952L 162.74270557029178 195.536L 165.19363395225463 198.764L 167.6445623342175 195.428L 170.09549071618036 194L 172.54641909814325 193.688L 174.9973474801061 186.32L 177.44827586206895 197.372L 179.8992042440318 195.96800000000002L 182.35013262599472 198.284L 184.80106100795757 194.38400000000001L 187.25198938992042 196.424L 189.70291777188328 196.988L 192.15384615384616 198.368L 194.604774535809 198.05599999999998L 197.05570291777187 199.61599999999999L 199.50663129973475 191.54L 201.95755968169763 202.124L 204.40848806366049 193.34L 206.85941644562334 204.2L 209.31034482758622 206L 211.76127320954907 206L 214.21220159151193 206L 216.66312997347478 206L 219.11405835543766 190.472L 221.56498673740055 159.01999999999998L 224.0159151193634 193.56799999999998L 226.46684350132625 200.228L 228.91777188328913 193.232L 231.368700265252 196.82L 233.81962864721484 199.772L 236.27055702917772 186.548L 238.72148541114058 197.888L 241.17241379310346 195.596L 243.6233421750663 190.508L 246.0742705570292 194.876L 248.52519893899205 190.4L 250.9761273209549 188.756L 253.42705570291776 197.852L 255.87798408488064 199.772L 258.32891246684346 191.936L 260.7798408488064 191.864L 263.2307692307693 199.316L 265.68169761273214 194.72L 268.132625994695 192.608L 270.58355437665784 194.9L 273.0344827586207 199.7L 275.48541114058355 189.224L 277.9363395225464 198.428L 280.38726790450926 196.136L 282.83819628647217 195.296L 285.289124668435 196.268L 287.7400530503979 193.184L 290.19098143236073 197.204L 292.6419098143236 193.856L 295.0928381962865 197.096L 297.54376657824935 178.16L 299.9946949602122 194.372L 302.44562334217505 195.92000000000002L 304.8965517241379 195.11599999999999L 307.34748010610076 196.688L 309.7984084880636 197.49200000000002L 312.2493368700265 197.696L 314.70026525198944 186.848L 317.1511936339523 192.644L 319.60212201591514 199.61599999999999L 322.053050397878 193.052L 324.50397877984085 191.072L 326.9549071618037 195.44L 329.40583554376656 196.184L 331.85676392572947 196.46L 334.3076923076923 197.312L 336.7586206896552 193.076L 339.209549071618 206L 341.6604774535809 186.44L 344.11140583554374 186.632L 346.5623342175066 191.276L 349.0132625994695 180.93200000000002L 351.46419098143235 201.704L 353.91511936339526 185.744L 356.3660477453581 196.028L 358.81697612732097 189.464L 361.2679045092838 194.228L 363.7188328912467 195.632L 366.16976127320953 196.844L 368.62068965517244 186.332L 371.0716180371353 197.99599999999998L 373.52254641909815 188.924L 375.973474801061 189.128L 378.42440318302386 196.748L 380.8753315649867 182.45600000000002L 383.32625994694956 184.16L 385.7771883289125 206L 388.2281167108753 206L 390.6790450928382 206L 393.1299734748011 160.16L 395.58090185676394 198.536L 398.0318302387268 196.60399999999998L 400.48275862068965 195.668L 402.9336870026525 192.8L 405.3846153846154 196.964L 407.83554376657827 197.828L 410.2864721485411 200.84L 412.737400530504 170.312L 415.18832891246683 189.236L 417.6392572944297 177.428L 420.09018567639254 191.564L 422.54111405835545 178.784L 424.9920424403183 176.372L 427.44297082228115 181.7L 429.893899204244 187.472L 432.3448275862069 192.88400000000001L 434.7957559681698 189.38L 437.2466843501326 187.772L 439.69761273209554 189.404L 442.1485411140584 187.532L 444.59946949602124 193.59199999999998L 447.0503978779841 185.036L 449.50132625994695 171.332L 451.9522546419098 180.14L 454.40318302387266 172.316L 456.8541114058355 193.028L 459.3050397877984 191.996L 461.7559681697613 193.052L 464.2068965517241 194.84L 466.657824933687 193.53199999999998L 469.10875331564984 194.024L 471.55968169761275 189.272L 474.0106100795756 195.188L 476.4615384615385 196.256L 478.91246684350136 192.62L 481.3633952254642 190.844L 483.81432360742707 200.984L 486.2652519893899 184.796L 488.7161803713528 190.88L 491.16710875331563 194.42000000000002L 493.6180371352785 189.86L 496.0689655172414 195.86L 498.51989389920425 191.984L 500.9708222811671 193.1L 503.42175066312996 186.464L 505.8726790450928 190.46L 508.32360742705566 182.156L 510.7745358090186 187.136L 513.2254641909815 191.528L 515.6763925729443 184.1L 518.1273209549072 189.14L 520.57824933687 185.204L 523.0291777188329 185.468L 525.4801061007958 176.816L 527.9310344827586 189.04399999999998L 530.3819628647215 191.048L 532.8328912466843 188.756L 535.2838196286472 187.592L 537.73474801061 191.39600000000002L 540.185676392573 187.796L 542.6366047745357 188.228L 545.0875331564987 190.268L 547.5384615384614 194.372L 549.9893899204244 194.72L 552.4403183023873 201.308L 554.8912466843501 192.752L 557.3421750663131 181.148L 559.7931034482758 181.748L 562.2440318302388 181.208L 564.6949602122015 191.3L 567.1458885941645 186.88400000000001L 569.5968169761272 181.376L 572.0477453580902 186.5L 574.498673740053 188.44400000000002L 576.9496021220159 179.66L 579.4005305039789 183.09199999999998L 581.8514588859416 173.564L 584.3023872679046 183.836L 586.7533156498673 171.668L 589.2042440318303 148.148L 591.655172413793 178.004L 594.106100795756 141.86L 596.5570291777188 186.128L 599.0079575596817 188.54000000000002L 601.4588859416446 187.748L 603.9098143236074 193.256L 606.3607427055703 186.596L 608.8116710875331 185.42000000000002L 611.262599469496 186.872L 613.7135278514589 185.372L 616.1644562334218 192.824L 618.6153846153846 188.552L 621.0663129973475 189.32L 623.5172413793103 186.632L 625.9681697612732 185.768L 628.419098143236 188.744L 630.870026525199 187.34L 633.3209549071618 192.488L 635.7718832891247 187.028L 638.2228116710875 185.468L 640.6737400530504 181.928L 643.1246684350132 183.8L 645.5755968169761 180.296L 648.026525198939 185.516L 650.4774535809019 194L 652.9283819628647 190.328L 655.3793103448276 186.584L 657.8302387267905 168.32L 660.2811671087533 117.5L 662.7320954907162 189.10399999999998L 665.183023872679 187.844L 667.6339522546419 190.28L 670.0848806366048 192.32L 672.5358090185676 189.2L 674.9867374005305 182.288L 677.4376657824934 188.49200000000002L 679.8885941644562 178.916L 682.3395225464191 53.432000000000016L 684.7904509283819 162.656L 687.2413793103449 184.52L 689.6923076923076 182.708L 692.1432360742706 183.68L 694.5941644562334 184.196L 697.0450928381963 179.084L 699.4960212201592 190.16L 701.946949602122 180.476L 704.397877984085 160.916L 706.8488063660477 121.196L 709.2997347480107 151.50799999999998L 711.7506631299734 164.132L 714.2015915119364 181.184L 716.6525198938991 170.49200000000002L 719.1034482758621 179.792L 721.554376657825 173.204L 724.0053050397878 178.352L 726.4562334217507 182.792L 728.9071618037135 177.152L 731.3580901856764 184.232L 733.8090185676392 187.796L 736.2599469496022 188.348L 738.710875331565 184.736L 741.1618037135279 181.892L 743.6127320954907 181.796L 746.0636604774536 179.36L 748.5145888594164 168.176L 750.9655172413793 181.808L 753.4164456233422 185.372L 755.867374005305 167.708L 758.3183023872679 140.6L 760.7692307692308 160.784L 763.2201591511936 151.664L 765.6710875331565 145.952L 768.1220159151193 155.288L 770.5729442970822 153.68L 773.0238726790451 163.04L 775.474801061008 172.064L 777.9257294429709 148.952L 780.3766578249337 171.812L 782.8275862068966 172.46L 785.2785145888594 172.508L 787.7294429708223 183.644L 790.1803713527851 166.304L 792.631299734748 159.26L 795.0822281167109 172.652L 797.5331564986737 165.5L 799.9840848806366 154.892L 802.4350132625995 173.888L 804.8859416445623 176.3L 807.3368700265252 186.5L 809.787798408488 183.932L 812.238726790451 183.10399999999998L 814.6896551724138 150.128L 817.1405835543767 183.11599999999999L 819.5915119363395 186.152L 822.0424403183024 185.096L 824.4933687002653 182.276L 826.9442970822281 182.18L 829.3952254641911 182.144L 831.8461538461538 174.956L 834.2970822281168 181.988L 836.7480106100795 179.504L 839.1989389920425 184.784L 841.6498673740052 179L 844.1007957559682 175.868L 846.5517241379309 177.14L 849.0026525198939 178.832L 851.4535809018568 182.216L 853.9045092838196 176.444L 856.3554376657826 182.576L 858.8063660477453 177.02L 861.2572944297083 178.58L 863.708222811671 182.144L 866.159151193634 179.48L 868.6100795755968 176.972L 871.0610079575597 186.164L 873.5119363395225 176.096L 875.9628647214854 178.04L 878.4137931034483 152.996L 880.8647214854111 130.724L 883.315649867374 149.888L 885.7665782493369 149.48L 888.2175066312997 184.1L 890.6684350132626 184.484L 893.1193633952255 177.56L 895.5702917771883 139.952L 898.0212201591512 148.028L 900.472148541114 162.428L 902.923076923077 136.244L 905.3740053050398 132.128L 907.8249336870027 142.508L 910.2758620689655 143.252L 912.7267904509284 125.732L 915.1777188328912 117.06800000000001L 917.6286472148541 164.264L 920.079575596817 161.876L 922.5305039787798 158.636L 924.9814323607427 176.40800000000002L 927.4323607427056 186.632L 929.8832891246684 187.352L 932.3342175066313 186.152L 934.7851458885942 174.932L 937.236074270557 178.388L 939.6870026525199 194.636L 942.1379310344828 184.748L 944.5888594164456 182.84L 947.0397877984085 173.78L 949.4907161803714 177.56L 951.9416445623342 179.996L 954.3925729442971 183.188L 956.8435013262599 153.68L 959.2944297082229 147.548L 961.7453580901856 185.504L 964.1962864721486 190.724L 966.6472148541113 174.752L 969.0981432360743 174.32L 971.5490716180371 183.692L 974 194.54" stroke-width="2.0" fill="none" />
    
        
        
        <text x="45.0" font-family="-apple-system, system-ui, BlinkMacSystemFont, Roboto" y="50.0" dominant-baseline="middle" text-anchor="end" font-size="12" fill="#24292f">13000.0</text>
        
            
            <path stroke="#74838f" stroke-dasharray="10 6" stroke-width="0.5"  d="M 50.0 50.0 L 974.0 50.0" />
        
    
        
        
        <text x="45.0" font-family="-apple-system, system-ui, BlinkMacSystemFont, Roboto" y="81.2" dominant-baseline="middle" text-anchor="end" font-size="12" fill="#24292f">10400.0</text>
        
            
            
            <path stroke="#74838f" stroke-dasharray="10 6" stroke-width="0.5"  d="M 50.0 81.2 L 974.0 81.2" />
        
    
        
        
        <text x="45.0" font-family="-apple-system, system-ui, BlinkMacSystemFont, Roboto" y="112.4" dominant-baseline="middle" text-anchor="end" font-size="12" fill="#24292f">7800.0</text>
        
            
            
            <path stroke="#74838f" stroke-dasharray="10 6" stroke-width="0.5"  d="M 50.0 112.4 L 974.0 112.4" />
        
    
        
        
        <text x="45.0" font-family="-apple-system, system-ui, BlinkMacSystemFont, Roboto" y="143.6" dominant-baseline="middle" text-anchor="end" font-size="12" fill="#24292f">5200.0</text>
        
            
            
            <path stroke="#74838f" stroke-dasharray="10 6" stroke-width="0.5"  d="M 50.0 143.6 L 974.0 143.6" />
        
    
        
        
        <text x="45.0" font-family="-apple-system, system-ui, BlinkMacSystemFont, Roboto" y="174.8" dominant-baseline="middle" text-anchor="end" font-size="12" fill="#24292f">2600.0</text>
        
            
            
            <path stroke="#74838f" stroke-dasharray="10 6" stroke-width="0.5"  d="M 50.0 174.8 L 974.0 174.8" />
        
    
        
        
        <text x="45.0" font-family="-apple-system, system-ui, BlinkMacSystemFont, Roboto" y="206.0" dominant-baseline="middle" text-anchor="end" font-size="12" fill="#24292f">0.0</text>
        
    
    
        
        <path stroke="#74838f"  stroke-width="2.0"  d="M 89.21485411140583 206.0 L 89.21485411140583 214.0" />
        <text x="89.21485411140583" font-family="-apple-system, system-ui, BlinkMacSystemFont, Roboto" y="216.0" dominant-baseline="hanging" text-anchor="middle" font-size="12" fill="#24292f">Mar 2022</text>
    
        
        <path stroke="#74838f"  stroke-width="2.0"  d="M 165.19363395225463 206.0 L 165.19363395225463 214.0" />
        <text x="165.19363395225463" font-family="-apple-system, system-ui, BlinkMacSystemFont, Roboto" y="216.0" dominant-baseline="hanging" text-anchor="middle" font-size="12" fill="#24292f">Apr 2022</text>
    
        
        <path stroke="#74838f"  stroke-width="2.0"  d="M 238.72148541114058 206.0 L 238.72148541114058 214.0" />
        <text x="238.72148541114058" font-family="-apple-system, system-ui, BlinkMacSystemFont, Roboto" y="216.0" dominant-baseline="hanging" text-anchor="middle" font-size="12" fill="#24292f">May 2022</text>
    
        
        <path stroke="#74838f"  stroke-width="2.0"  d="M 314.70026525198944 206.0 L 314.70026525198944 214.0" />
        <text x="314.70026525198944" font-family="-apple-system, system-ui, BlinkMacSystemFont, Roboto" y="216.0" dominant-baseline="hanging" text-anchor="middle" font-size="12" fill="#24292f">Jun 2022</text>
    
        
        <path stroke="#74838f"  stroke-width="2.0"  d="M 388.2281167108753 206.0 L 388.2281167108753 214.0" />
        <text x="388.2281167108753" font-family="-apple-system, system-ui, BlinkMacSystemFont, Roboto" y="216.0" dominant-baseline="hanging" text-anchor="middle" font-size="12" fill="#24292f">Jul 2022</text>
    
        
        <path stroke="#74838f"  stroke-width="2.0"  d="M 464.2068965517241 206.0 L 464.2068965517241 214.0" />
        <text x="464.2068965517241" font-family="-apple-system, system-ui, BlinkMacSystemFont, Roboto" y="216.0" dominant-baseline="hanging" text-anchor="middle" font-size="12" fill="#24292f">Aug 2022</text>
    
        
        <path stroke="#74838f"  stroke-width="2.0"  d="M 540.185676392573 206.0 L 540.185676392573 214.0" />
        <text x="540.185676392573" font-family="-apple-system, system-ui, BlinkMacSystemFont, Roboto" y="216.0" dominant-baseline="hanging" text-anchor="middle" font-size="12" fill="#24292f">Sep 2022</text>
    
        
        <path stroke="#74838f"  stroke-width="2.0"  d="M 613.7135278514589 206.0 L 613.7135278514589 214.0" />
        <text x="613.7135278514589" font-family="-apple-system, system-ui, BlinkMacSystemFont, Roboto" y="216.0" dominant-baseline="hanging" text-anchor="middle" font-size="12" fill="#24292f">Oct 2022</text>
    
        
        <path stroke="#74838f"  stroke-width="2.0"  d="M 689.6923076923076 206.0 L 689.6923076923076 214.0" />
        <text x="689.6923076923076" font-family="-apple-system, system-ui, BlinkMacSystemFont, Roboto" y="216.0" dominant-baseline="hanging" text-anchor="middle" font-size="12" fill="#24292f">Nov 2022</text>
    
        
        <path stroke="#74838f"  stroke-width="2.0"  d="M 763.2201591511936 206.0 L 763.2201591511936 214.0" />
        <text x="763.2201591511936" font-family="-apple-system, system-ui, BlinkMacSystemFont, Roboto" y="216.0" dominant-baseline="hanging" text-anchor="middle" font-size="12" fill="#24292f">Dec 2022</text>
    
        
        <path stroke="#74838f"  stroke-width="2.0"  d="M 839.1989389920425 206.0 L 839.1989389920425 214.0" />
        <text x="839.1989389920425" font-family="-apple-system, system-ui, BlinkMacSystemFont, Roboto" y="216.0" dominant-baseline="hanging" text-anchor="middle" font-size="12" fill="#24292f">Jan 2023</text>
    
        
        <path stroke="#74838f"  stroke-width="2.0"  d="M 915.1777188328912 206.0 L 915.1777188328912 214.0" />
        <text x="915.1777188328912" font-family="-apple-system, system-ui, BlinkMacSystemFont, Roboto" y="216.0" dominant-baseline="hanging" text-anchor="middle" font-size="12" fill="#24292f">Feb 2023</text>
    
    <path stroke="#74838f"   stroke-linejoin="round" stroke-width="2.0" d="M 50.0 216.0 L 50.0 206.0 L 974.0 206.0 L 974.0 216.0"  fill="none" />
    <text x="512.0" y="25.0" font-family="-apple-system, system-ui, BlinkMacSystemFont, Roboto" dominant-baseline="middle" text-anchor="middle" font-size="18" fill="#24292f">Total daily suspensions</text>
</svg>
