<?xml version="1.0" standalone="no"?>
<svg width="1024.0" height="256.0"  viewBox="0 0 1024.0 256.0" preserveAspectRatio="xMidYMid meet" xmlns="http://www.w3.org/2000/svg">
    <path stroke="#e74c3c" stroke-linejoin="round" d="M 50.0 161.108 L 50 161.108L 52.75 193.664L 55.5 197.576L 58.25 197.924L 61 203.528L 63.75 199.94L 66.5 199.268L 69.25 191.108L 72 200.972L 74.75 198.62L 77.5 200L 80.25 202.57999999999998L 83 199.208L 85.75 195.608L 88.5 202.652L 91.25 198.716L 94 197.49200000000002L 96.75 191.42000000000002L 99.5 196.688L 102.25 199.46L 105 199.328L 107.75 198.308L 110.5 198.164L 113.25 199.832L 116 194.876L 118.75 199.904L 121.5 195.584L 124.25 200.732L 127 198.416L 129.75 190.652L 132.5 196.112L 135.25 190.82L 138 193.53199999999998L 140.75 199.688L 143.5 192.392L 146.25 197L 149 199.59199999999998L 151.75 193.54399999999998L 154.5 195.26L 157.25 195.428L 160 195.548L 162.75 196.484L 165.5 199.424L 168.25 199.22L 171 195.656L 173.75 193.952L 176.5 195.536L 179.25 198.764L 182 195.428L 184.75 194L 187.5 193.688L 190.25 186.32L 193 197.372L 195.75 195.96800000000002L 198.5 198.284L 201.25 194.38400000000001L 204 196.424L 206.75 196.988L 209.5 198.368L 212.25 198.05599999999998L 215 199.61599999999999L 217.75 191.54L 220.5 202.124L 223.25 193.34L 226 204.2L 228.75 206L 231.5 206L 234.25 206L 237 206L 239.75 190.472L 242.5 159.01999999999998L 245.25 193.56799999999998L 248 200.228L 250.75 193.232L 253.5 196.82L 256.25 199.772L 259 186.548L 261.75 197.888L 264.5 195.596L 267.25 190.508L 270 194.876L 272.75 190.4L 275.5 188.756L 278.25 197.852L 281 199.772L 283.75 191.936L 286.5 191.864L 289.25 199.316L 292 194.72L 294.75 192.608L 297.5 194.9L 300.25 199.7L 303 189.224L 305.75 198.428L 308.5 196.136L 311.25 195.296L 314 196.268L 316.75 193.184L 319.5 197.204L 322.25 193.856L 325 197.096L 327.75 178.16L 330.5 194.372L 333.25 195.92000000000002L 336 195.11599999999999L 338.75 196.688L 341.5 197.49200000000002L 344.25 197.696L 347 186.848L 349.75 192.644L 352.5 199.61599999999999L 355.25 193.052L 358 191.072L 360.75 195.44L 363.5 196.184L 366.25 196.46L 369 197.312L 371.75 193.076L 374.5 206L 377.25 186.44L 380 186.632L 382.75 191.276L 385.5 180.93200000000002L 388.25 201.704L 391 185.744L 393.75 196.028L 396.5 189.464L 399.25 194.228L 402 195.632L 404.75 196.844L 407.5 186.332L 410.25 197.99599999999998L 413 188.924L 415.75 189.128L 418.5 196.748L 421.25 182.45600000000002L 424 184.16L 426.75 206L 429.5 206L 432.25 206L 435 160.16L 437.75 198.536L 440.5 196.60399999999998L 443.25 195.668L 446 192.8L 448.75 196.964L 451.5 197.828L 454.25 200.84L 457 170.312L 459.75 189.236L 462.5 177.428L 465.25 191.564L 468 178.784L 470.75 176.372L 473.5 181.7L 476.25 187.472L 479 192.88400000000001L 481.75 189.38L 484.5 187.772L 487.25 189.404L 490 187.532L 492.75 193.59199999999998L 495.5 185.036L 498.25 171.332L 501 180.14L 503.75 172.316L 506.5 193.028L 509.25 191.996L 512 193.052L 514.75 194.84L 517.5 193.53199999999998L 520.25 194.024L 523 189.272L 525.75 195.188L 528.5 196.256L 531.25 192.62L 534 190.844L 536.75 200.984L 539.5 184.796L 542.25 190.88L 545 194.42000000000002L 547.75 189.86L 550.5 195.86L 553.25 191.984L 556 193.1L 558.75 186.464L 561.5 190.46L 564.25 182.156L 567 187.136L 569.75 191.528L 572.5 184.1L 575.25 189.14L 578 185.204L 580.75 185.468L 583.5 176.816L 586.25 189.04399999999998L 589 191.048L 591.75 188.756L 594.5 187.592L 597.25 191.39600000000002L 600 187.796L 602.75 188.228L 605.5 190.268L 608.25 194.372L 611 194.72L 613.75 201.308L 616.5 192.752L 619.25 181.148L 622 181.748L 624.75 181.208L 627.5 191.3L 630.25 186.88400000000001L 633 181.376L 635.75 186.5L 638.5 188.44400000000002L 641.25 179.66L 644 183.09199999999998L 646.75 173.564L 649.5 183.836L 652.25 171.668L 655 148.148L 657.75 178.004L 660.5 141.86L 663.25 186.128L 666 188.54000000000002L 668.75 187.748L 671.5 193.256L 674.25 186.596L 677 185.42000000000002L 679.75 186.872L 682.5 185.372L 685.25 192.824L 688 188.552L 690.75 189.32L 693.5 186.632L 696.25 185.768L 699 188.744L 701.75 187.34L 704.5 192.488L 707.25 187.028L 710 185.468L 712.75 181.928L 715.5 183.8L 718.25 180.296L 721 185.516L 723.75 194L 726.5 190.328L 729.25 186.584L 732 168.32L 734.75 117.5L 737.5 189.10399999999998L 740.25 187.844L 743 190.28L 745.75 192.32L 748.5 189.2L 751.25 182.288L 754 188.49200000000002L 756.75 178.916L 759.5 53.432000000000016L 762.25 162.656L 765 184.52L 767.75 182.708L 770.5 183.68L 773.25 184.196L 776 179.084L 778.75 190.16L 781.5 180.476L 784.25 160.916L 787 121.196L 789.75 151.50799999999998L 792.5 164.132L 795.25 181.184L 798 170.49200000000002L 800.75 179.792L 803.5 173.204L 806.25 178.352L 809 182.792L 811.75 177.152L 814.5 184.232L 817.25 187.796L 820 188.348L 822.75 184.736L 825.5 181.892L 828.25 181.796L 831 179.36L 833.75 168.176L 836.5 181.808L 839.25 185.372L 842 167.708L 844.75 140.6L 847.5 160.784L 850.25 151.664L 853 145.952L 855.75 155.288L 858.5 153.68L 861.25 163.04L 864 172.064L 866.75 148.952L 869.5 171.812L 872.25 172.46L 875 172.508L 877.75 183.644L 880.5 166.304L 883.25 159.26L 886 172.652L 888.75 165.5L 891.5 154.892L 894.25 173.888L 897 176.3L 899.75 186.5L 902.5 183.932L 905.25 183.10399999999998L 908 150.128L 910.75 183.11599999999999L 913.5 186.152L 916.25 185.096L 919 182.276L 921.75 182.18L 924.5 182.144L 927.25 174.956L 930 181.988L 932.75 179.504L 935.5 184.784L 938.25 179L 941 175.868L 943.75 177.14L 946.5 178.832L 949.25 182.216L 952 176.444L 954.75 182.576L 957.5 177.02L 960.25 178.58L 963 182.144L 965.75 179.48L 968.5 176.972L 971.25 186.164L 974 195.872" stroke-width="2.0" fill="none" />
    
        
        
        <text x="45.0" font-family="-apple-system, system-ui, BlinkMacSystemFont, Roboto" y="50.0" dominant-baseline="middle" text-anchor="end" font-size="12" fill="#24292f">13000.0</text>
        
            
            <path stroke="#74838f" stroke-dasharray="10 6" stroke-width="0.5"  d="M 50.0 50.0 L 974.0 50.0" />
        
    
        
        
        <text x="45.0" font-family="-apple-system, system-ui, BlinkMacSystemFont, Roboto" y="81.2" dominant-baseline="middle" text-anchor="end" font-size="12" fill="#24292f">10400.0</text>
        
            
            
            <path stroke="#74838f" stroke-dasharray="10 6" stroke-width="0.5"  d="M 50.0 81.2 L 974.0 81.2" />
        
    
        
        
        <text x="45.0" font-family="-apple-system, system-ui, BlinkMacSystemFont, Roboto" y="112.4" dominant-baseline="middle" text-anchor="end" font-size="12" fill="#24292f">7800.0</text>
        
            
            
            <path stroke="#74838f" stroke-dasharray="10 6" stroke-width="0.5"  d="M 50.0 112.4 L 974.0 112.4" />
        
    
        
        
        <text x="45.0" font-family="-apple-system, system-ui, BlinkMacSystemFont, Roboto" y="143.6" dominant-baseline="middle" text-anchor="end" font-size="12" fill="#24292f">5200.0</text>
        
            
            
            <path stroke="#74838f" stroke-dasharray="10 6" stroke-width="0.5"  d="M 50.0 143.6 L 974.0 143.6" />
        
    
        
        
        <text x="45.0" font-family="-apple-system, system-ui, BlinkMacSystemFont, Roboto" y="174.8" dominant-baseline="middle" text-anchor="end" font-size="12" fill="#24292f">2600.0</text>
        
            
            
            <path stroke="#74838f" stroke-dasharray="10 6" stroke-width="0.5"  d="M 50.0 174.8 L 974.0 174.8" />
        
    
        
        
        <text x="45.0" font-family="-apple-system, system-ui, BlinkMacSystemFont, Roboto" y="206.0" dominant-baseline="middle" text-anchor="end" font-size="12" fill="#24292f">0.0</text>
        
    
    
        
        <path stroke="#74838f"  stroke-width="2.0"  d="M 94.0 206.0 L 94.0 214.0" />
        <text x="94.0" font-family="-apple-system, system-ui, BlinkMacSystemFont, Roboto" y="216.0" dominant-baseline="hanging" text-anchor="middle" font-size="12" fill="#24292f">Mar 2022</text>
    
        
        <path stroke="#74838f"  stroke-width="2.0"  d="M 179.25 206.0 L 179.25 214.0" />
        <text x="179.25" font-family="-apple-system, system-ui, BlinkMacSystemFont, Roboto" y="216.0" dominant-baseline="hanging" text-anchor="middle" font-size="12" fill="#24292f">Apr 2022</text>
    
        
        <path stroke="#74838f"  stroke-width="2.0"  d="M 261.75 206.0 L 261.75 214.0" />
        <text x="261.75" font-family="-apple-system, system-ui, BlinkMacSystemFont, Roboto" y="216.0" dominant-baseline="hanging" text-anchor="middle" font-size="12" fill="#24292f">May 2022</text>
    
        
        <path stroke="#74838f"  stroke-width="2.0"  d="M 347.0 206.0 L 347.0 214.0" />
        <text x="347.0" font-family="-apple-system, system-ui, BlinkMacSystemFont, Roboto" y="216.0" dominant-baseline="hanging" text-anchor="middle" font-size="12" fill="#24292f">Jun 2022</text>
    
        
        <path stroke="#74838f"  stroke-width="2.0"  d="M 429.5 206.0 L 429.5 214.0" />
        <text x="429.5" font-family="-apple-system, system-ui, BlinkMacSystemFont, Roboto" y="216.0" dominant-baseline="hanging" text-anchor="middle" font-size="12" fill="#24292f">Jul 2022</text>
    
        
        <path stroke="#74838f"  stroke-width="2.0"  d="M 514.75 206.0 L 514.75 214.0" />
        <text x="514.75" font-family="-apple-system, system-ui, BlinkMacSystemFont, Roboto" y="216.0" dominant-baseline="hanging" text-anchor="middle" font-size="12" fill="#24292f">Aug 2022</text>
    
        
        <path stroke="#74838f"  stroke-width="2.0"  d="M 600.0 206.0 L 600.0 214.0" />
        <text x="600.0" font-family="-apple-system, system-ui, BlinkMacSystemFont, Roboto" y="216.0" dominant-baseline="hanging" text-anchor="middle" font-size="12" fill="#24292f">Sep 2022</text>
    
        
        <path stroke="#74838f"  stroke-width="2.0"  d="M 682.5 206.0 L 682.5 214.0" />
        <text x="682.5" font-family="-apple-system, system-ui, BlinkMacSystemFont, Roboto" y="216.0" dominant-baseline="hanging" text-anchor="middle" font-size="12" fill="#24292f">Oct 2022</text>
    
        
        <path stroke="#74838f"  stroke-width="2.0"  d="M 767.75 206.0 L 767.75 214.0" />
        <text x="767.75" font-family="-apple-system, system-ui, BlinkMacSystemFont, Roboto" y="216.0" dominant-baseline="hanging" text-anchor="middle" font-size="12" fill="#24292f">Nov 2022</text>
    
        
        <path stroke="#74838f"  stroke-width="2.0"  d="M 850.25 206.0 L 850.25 214.0" />
        <text x="850.25" font-family="-apple-system, system-ui, BlinkMacSystemFont, Roboto" y="216.0" dominant-baseline="hanging" text-anchor="middle" font-size="12" fill="#24292f">Dec 2022</text>
    
        
        <path stroke="#74838f"  stroke-width="2.0"  d="M 935.5 206.0 L 935.5 214.0" />
        <text x="935.5" font-family="-apple-system, system-ui, BlinkMacSystemFont, Roboto" y="216.0" dominant-baseline="hanging" text-anchor="middle" font-size="12" fill="#24292f">Jan 2023</text>
    
    <path stroke="#74838f"   stroke-linejoin="round" stroke-width="2.0" d="M 50.0 216.0 L 50.0 206.0 L 974.0 206.0 L 974.0 216.0"  fill="none" />
    <text x="512.0" y="25.0" font-family="-apple-system, system-ui, BlinkMacSystemFont, Roboto" dominant-baseline="middle" text-anchor="middle" font-size="18" fill="#24292f">Total daily suspensions</text>
</svg>
