<?xml version="1.0" standalone="no"?>
<svg width="1024.0" height="256.0"  viewBox="0 0 1024.0 256.0" preserveAspectRatio="xMidYMid meet" xmlns="http://www.w3.org/2000/svg">
    <path stroke="#e74c3c" stroke-linejoin="round" d="M 41.0 128.1872 L 41 128.1872L 44.616279069767444 184.6176L 48.23255813953488 191.39839999999998L 51.848837209302324 192.0016L 55.46511627906977 201.7152L 59.081395348837205 195.496L 62.69767441860465 194.3312L 66.31395348837209 180.1872L 69.93023255813954 197.2848L 73.54651162790697 193.208L 77.16279069767441 195.6L 80.77906976744185 200.072L 84.3953488372093 194.22719999999998L 88.01162790697674 187.9872L 91.62790697674419 200.1968L 95.24418604651163 193.3744L 98.86046511627907 191.2528L 102.47674418604652 180.728L 106.09302325581395 189.8592L 109.7093023255814 194.664L 113.32558139534883 194.4352L 116.94186046511628 192.6672L 120.55813953488372 192.4176L 124.17441860465117 195.3088L 127.79069767441861 186.7184L 131.40697674418607 195.4336L 135.02325581395348 187.9456L 138.63953488372096 196.8688L 142.25581395348837 192.8544L 145.87209302325581 179.39679999999998L 149.48837209302326 188.86079999999998L 153.1046511627907 179.688L 156.72093023255815 184.3888L 160.3372093023256 195.0592L 163.95348837209303 182.4128L 167.56976744186045 190.4L 171.1860465116279 194.8928L 174.80232558139537 184.4096L 178.4186046511628 187.38400000000001L 182.03488372093022 187.6752L 185.65116279069767 187.8832L 189.2674418604651 189.50560000000002L 192.88372093023256 194.6016L 196.5 194.248L 200.11627906976744 188.0704L 203.7325581395349 185.1168L 207.34883720930233 187.8624L 210.96511627906975 193.4576L 214.58139534883722 187.6752L 218.19767441860466 185.2L 221.8139534883721 184.6592L 225.43023255813952 171.888L 229.04651162790697 191.0448L 232.6627906976744 188.6112L 236.27906976744188 192.6256L 239.8953488372093 185.8656L 243.51162790697674 189.4016L 247.12790697674419 190.3792L 250.74418604651163 192.7712L 254.36046511627907 192.2304L 257.9767441860465 194.93439999999998L 261.59302325581393 180.936L 265.2093023255814 199.2816L 268.8255813953488 184.056L 272.4418604651163 202.88L 276.0581395348837 206L 279.6744186046512 206L 283.29069767441865 206L 286.90697674418607 206L 290.5232558139535 179.0848L 294.1395348837209 124.568L 297.75581395348837 184.4512L 301.3720930232558 195.9952L 304.98837209302326 183.8688L 308.60465116279073 190.088L 312.22093023255815 195.2048L 315.8372093023256 172.2832L 319.453488372093 191.9392L 323.06976744186045 187.9664L 326.6860465116279 179.1472L 330.30232558139534 186.7184L 333.9186046511628 178.96L 337.5348837209302 176.1104L 341.1511627906977 191.8768L 344.7674418604651 195.2048L 348.3837209302325 181.6224L 352 181.4976L 355.6162790697674 194.4144L 359.2325581395349 186.4272L 362.8488372093023 182.7872L 366.4651162790698 186.76L 370.08139534883725 195.07999999999998L 373.69767441860466 176.9216L 377.3139534883721 192.8752L 380.9302325581395 188.9024L 384.54651162790697 187.4464L 388.16279069767444 189.1312L 391.77906976744185 183.7856L 395.3953488372093 190.7536L 399.01162790697674 184.9504L 402.6279069767442 190.5664L 406.24418604651163 157.744L 409.86046511627904 185.8448L 413.4767441860465 188.528L 417.09302325581393 187.1344L 420.7093023255814 189.8592L 424.3255813953488 191.2528L 427.9418604651163 191.6064L 431.55813953488376 172.8032L 435.1744186046511 182.8496L 438.7906976744186 194.93439999999998L 442.406976744186 183.5568L 446.0232558139535 180.1248L 449.63953488372096 187.696L 453.25581395348837 188.9856L 456.87209302325584 189.464L 460.48837209302326 190.9408L 464.1046511627907 183.5984L 467.72093023255815 206L 471.33720930232556 172.096L 474.95348837209303 172.4288L 478.56976744186045 180.4784L 482.1860465116279 162.5488L 485.80232558139534 198.55360000000002L 489.4186046511628 170.8896L 493.0348837209302 188.71519999999998L 496.65116279069764 177.3376L 500.2674418604651 185.5952L 503.8837209302325 188.0288L 507.5 190.12959999999998L 511.1162790697675 171.90879999999999L 514.7325581395348 192.1264L 518.3488372093024 176.4016L 521.9651162790698 176.7552L 525.5813953488373 189.9632L 529.1976744186047 165.1904L 532.8139534883721 168.144L 536.4302325581396 206L 540.046511627907 206L 543.6627906976744 206L 547.2790697674418 126.54400000000001L 550.8953488372092 193.0624L 554.5116279069767 189.71359999999999L 558.1279069767442 188.09120000000001L 561.7441860465116 183.12L 565.3604651162791 190.3376L 568.9767441860465 191.8352L 572.5930232558139 197.05599999999998L 576.2093023255815 144.1408L 579.8255813953489 176.9424L 583.4418604651163 156.4752L 587.0581395348837 180.9776L 590.6744186046512 158.8256L 594.2906976744187 154.6448L 597.906976744186 163.88L 601.5232558139535 173.88479999999998L 605.1395348837209 183.2656L 608.7558139534883 177.192L 612.3720930232558 174.4048L 615.9883720930233 177.2336L 619.6046511627907 173.9888L 623.2209302325581 184.4928L 626.8372093023256 169.6624L 630.453488372093 145.90879999999999L 634.0697674418604 161.176L 637.686046511628 147.6144L 641.3023255813954 183.5152L 644.9186046511628 181.7264L 648.5348837209302 183.5568L 652.1511627906978 186.656L 655.767441860465 184.3888L 659.3837209302325 185.2416L 663 177.0048L 666.6162790697674 187.2592L 670.2325581395348 189.1104L 673.8488372093024 182.808L 677.4651162790698 179.7296L 681.0813953488372 197.3056L 684.6976744186046 169.2464L 688.3139534883721 179.792L 691.9302325581396 185.928L 695.546511627907 178.024L 699.1627906976745 188.424L 702.7790697674419 181.7056L 706.3953488372093 183.64L 710.0116279069767 172.1376L 713.6279069767442 179.064L 717.2441860465116 164.6704L 720.860465116279 173.3024L 724.4767441860465 180.9152L 728.0930232558139 168.04L 731.7093023255813 176.776L 735.3255813953489 169.9536L 738.9418604651163 170.4112L 742.5581395348837 155.4352L 746.1744186046511 176.6096L 749.7906976744187 180.0832L 753.4069767441861 176.1104L 757.0232558139535 174.0928L 760.639534883721 180.6864L 764.2558139534884 174.44639999999998L 767.8720930232558 175.1952L 771.4883720930233 178.7312L 775.1046511627907 185.8448L 778.7209302325581 186.448L 782.3372093023255 197.8672L 785.953488372093 183.0368L 789.5697674418604 162.9232L 793.1860465116279 163.9632L 796.8023255813954 163.0272L 800.4186046511628 180.52L 804.0348837209302 172.8656L 807.6511627906976 163.3184L 811.2674418604652 172.2L 814.8837209302326 175.5696L 818.5 160.344L 822.1162790697675 166.2928L 825.732558139535 149.7776L 829.3488372093022 167.5824L 832.9651162790698 146.4912L 836.5813953488372 105.72319999999999L 840.1976744186046 157.4736L 843.813953488372 94.824L 847.4302325581396 171.5552L 851.046511627907 175.736L 854.6627906976744 174.3632L 858.2790697674419 183.9104L 861.8953488372093 172.3664L 865.5116279069767 170.328L 869.1279069767442 172.8448L 872.7441860465117 170.2448L 876.3604651162791 183.1616L 879.9767441860465 175.7568L 883.593023255814 177.088L 887.2093023255813 172.4288L 890.8255813953488 170.9312L 894.4418604651163 176.0896L 898.0581395348837 173.656L 901.6744186046511 182.57920000000001L 905.2906976744185 173.11520000000002L 908.9069767441861 170.4112L 912.5232558139535 164.27519999999998L 916.1395348837209 167.51999999999998L 919.7558139534884 161.44639999999998L 923.3720930232558 170.49439999999998L 926.9883720930233 185.2L 930.6046511627907 178.8352L 934.2209302325582 172.3456L 937.8372093023256 140.688L 941.453488372093 52.599999999999994L 945.0697674418604 176.71359999999999L 948.6860465116279 174.52960000000002L 952.3023255813953 178.752L 955.9186046511628 182.288L 959.5348837209302 176.88L 963.1511627906976 164.8992L 966.767441860465 175.6528L 970.3837209302326 159.0544L 974 69.26079999999999" stroke-width="2.0" fill="none" />
    
        
        
        <text x="36.0" font-family="-apple-system, system-ui, BlinkMacSystemFont, Roboto" y="50.0" dominant-baseline="middle" text-anchor="end" font-size="12" fill="#24292f">7500.0</text>
        
            
            <path stroke="#74838f" stroke-dasharray="10 6" stroke-width="0.5"  d="M 41.0 50.0 L 974.0 50.0" />
        
    
        
        
        <text x="36.0" font-family="-apple-system, system-ui, BlinkMacSystemFont, Roboto" y="81.2" dominant-baseline="middle" text-anchor="end" font-size="12" fill="#24292f">6000.0</text>
        
            
            
            <path stroke="#74838f" stroke-dasharray="10 6" stroke-width="0.5"  d="M 41.0 81.2 L 974.0 81.2" />
        
    
        
        
        <text x="36.0" font-family="-apple-system, system-ui, BlinkMacSystemFont, Roboto" y="112.4" dominant-baseline="middle" text-anchor="end" font-size="12" fill="#24292f">4500.0</text>
        
            
            
            <path stroke="#74838f" stroke-dasharray="10 6" stroke-width="0.5"  d="M 41.0 112.4 L 974.0 112.4" />
        
    
        
        
        <text x="36.0" font-family="-apple-system, system-ui, BlinkMacSystemFont, Roboto" y="143.6" dominant-baseline="middle" text-anchor="end" font-size="12" fill="#24292f">3000.0</text>
        
            
            
            <path stroke="#74838f" stroke-dasharray="10 6" stroke-width="0.5"  d="M 41.0 143.6 L 974.0 143.6" />
        
    
        
        
        <text x="36.0" font-family="-apple-system, system-ui, BlinkMacSystemFont, Roboto" y="174.8" dominant-baseline="middle" text-anchor="end" font-size="12" fill="#24292f">1500.0</text>
        
            
            
            <path stroke="#74838f" stroke-dasharray="10 6" stroke-width="0.5"  d="M 41.0 174.8 L 974.0 174.8" />
        
    
        
        
        <text x="36.0" font-family="-apple-system, system-ui, BlinkMacSystemFont, Roboto" y="206.0" dominant-baseline="middle" text-anchor="end" font-size="12" fill="#24292f">0.0</text>
        
    
    
        
        <path stroke="#74838f"  stroke-width="2.0"  d="M 98.86046511627907 206.0 L 98.86046511627907 214.0" />
        <text x="98.86046511627907" font-family="-apple-system, system-ui, BlinkMacSystemFont, Roboto" y="216.0" dominant-baseline="hanging" text-anchor="middle" font-size="12" fill="#24292f">Mar 2022</text>
    
        
        <path stroke="#74838f"  stroke-width="2.0"  d="M 210.96511627906975 206.0 L 210.96511627906975 214.0" />
        <text x="210.96511627906975" font-family="-apple-system, system-ui, BlinkMacSystemFont, Roboto" y="216.0" dominant-baseline="hanging" text-anchor="middle" font-size="12" fill="#24292f">Apr 2022</text>
    
        
        <path stroke="#74838f"  stroke-width="2.0"  d="M 319.453488372093 206.0 L 319.453488372093 214.0" />
        <text x="319.453488372093" font-family="-apple-system, system-ui, BlinkMacSystemFont, Roboto" y="216.0" dominant-baseline="hanging" text-anchor="middle" font-size="12" fill="#24292f">May 2022</text>
    
        
        <path stroke="#74838f"  stroke-width="2.0"  d="M 431.55813953488376 206.0 L 431.55813953488376 214.0" />
        <text x="431.55813953488376" font-family="-apple-system, system-ui, BlinkMacSystemFont, Roboto" y="216.0" dominant-baseline="hanging" text-anchor="middle" font-size="12" fill="#24292f">Jun 2022</text>
    
        
        <path stroke="#74838f"  stroke-width="2.0"  d="M 540.046511627907 206.0 L 540.046511627907 214.0" />
        <text x="540.046511627907" font-family="-apple-system, system-ui, BlinkMacSystemFont, Roboto" y="216.0" dominant-baseline="hanging" text-anchor="middle" font-size="12" fill="#24292f">Jul 2022</text>
    
        
        <path stroke="#74838f"  stroke-width="2.0"  d="M 652.1511627906978 206.0 L 652.1511627906978 214.0" />
        <text x="652.1511627906978" font-family="-apple-system, system-ui, BlinkMacSystemFont, Roboto" y="216.0" dominant-baseline="hanging" text-anchor="middle" font-size="12" fill="#24292f">Aug 2022</text>
    
        
        <path stroke="#74838f"  stroke-width="2.0"  d="M 764.2558139534884 206.0 L 764.2558139534884 214.0" />
        <text x="764.2558139534884" font-family="-apple-system, system-ui, BlinkMacSystemFont, Roboto" y="216.0" dominant-baseline="hanging" text-anchor="middle" font-size="12" fill="#24292f">Sep 2022</text>
    
        
        <path stroke="#74838f"  stroke-width="2.0"  d="M 872.7441860465117 206.0 L 872.7441860465117 214.0" />
        <text x="872.7441860465117" font-family="-apple-system, system-ui, BlinkMacSystemFont, Roboto" y="216.0" dominant-baseline="hanging" text-anchor="middle" font-size="12" fill="#24292f">Oct 2022</text>
    
    <path stroke="#74838f"   stroke-linejoin="round" stroke-width="2.0" d="M 41.0 216.0 L 41.0 206.0 L 974.0 206.0 L 974.0 216.0"  fill="none" />
    <text x="507.5" y="25.0" font-family="-apple-system, system-ui, BlinkMacSystemFont, Roboto" dominant-baseline="middle" text-anchor="middle" font-size="18" fill="#24292f">Total daily suspensions</text>
</svg>
