<?xml version="1.0" standalone="no"?>
<svg width="1024.0" height="256.0"  viewBox="0 0 1024.0 256.0" preserveAspectRatio="xMidYMid meet" xmlns="http://www.w3.org/2000/svg">
    <path stroke="#e74c3c" stroke-linejoin="round" d="M 50.0 161.108 L 50 161.108L 52.095238095238095 193.664L 54.19047619047619 197.576L 56.285714285714285 197.924L 58.38095238095238 203.528L 60.476190476190474 199.94L 62.57142857142857 199.268L 64.66666666666667 191.108L 66.76190476190476 200.972L 68.85714285714286 198.62L 70.95238095238095 200L 73.04761904761905 202.57999999999998L 75.14285714285714 199.208L 77.23809523809524 195.608L 79.33333333333333 202.652L 81.42857142857143 198.716L 83.52380952380952 197.49200000000002L 85.61904761904762 191.42000000000002L 87.71428571428571 196.688L 89.80952380952381 199.46L 91.9047619047619 199.328L 94 198.308L 96.0952380952381 198.164L 98.19047619047619 199.832L 100.28571428571428 194.876L 102.38095238095238 199.904L 104.47619047619048 195.584L 106.57142857142857 200.732L 108.66666666666666 198.416L 110.76190476190476 190.652L 112.85714285714286 196.112L 114.95238095238096 190.82L 117.04761904761905 193.53199999999998L 119.14285714285714 199.688L 121.23809523809524 192.392L 123.33333333333333 197L 125.42857142857142 199.59199999999998L 127.52380952380953 193.54399999999998L 129.61904761904762 195.26L 131.71428571428572 195.428L 133.8095238095238 195.548L 135.9047619047619 196.484L 138 199.424L 140.0952380952381 199.22L 142.1904761904762 195.656L 144.28571428571428 193.952L 146.38095238095238 195.536L 148.47619047619048 198.764L 150.57142857142856 195.428L 152.66666666666666 194L 154.76190476190476 193.688L 156.85714285714286 186.32L 158.95238095238096 197.372L 161.04761904761904 195.96800000000002L 163.14285714285714 198.284L 165.23809523809524 194.38400000000001L 167.33333333333331 196.424L 169.42857142857144 196.988L 171.52380952380952 198.368L 173.61904761904762 198.05599999999998L 175.71428571428572 199.61599999999999L 177.8095238095238 191.54L 179.90476190476193 202.124L 182 193.34L 184.0952380952381 204.2L 186.19047619047618 206L 188.28571428571428 206L 190.38095238095238 206L 192.47619047619048 206L 194.57142857142858 190.472L 196.66666666666666 159.01999999999998L 198.76190476190476 193.56799999999998L 200.85714285714283 200.228L 202.95238095238096 193.232L 205.04761904761907 196.82L 207.14285714285714 199.772L 209.23809523809524 186.548L 211.33333333333331 197.888L 213.42857142857142 195.596L 215.52380952380955 190.508L 217.61904761904762 194.876L 219.71428571428572 190.4L 221.8095238095238 188.756L 223.9047619047619 197.852L 226 199.772L 228.0952380952381 191.936L 230.1904761904762 191.864L 232.28571428571428 199.316L 234.38095238095238 194.72L 236.47619047619048 192.608L 238.57142857142858 194.9L 240.66666666666666 199.7L 242.76190476190476 189.224L 244.85714285714286 198.428L 246.95238095238093 196.136L 249.04761904761907 195.296L 251.14285714285714 196.268L 253.23809523809524 193.184L 255.33333333333331 197.204L 257.42857142857144 193.856L 259.5238095238095 197.096L 261.6190476190476 178.16L 263.7142857142857 194.372L 265.8095238095238 195.92000000000002L 267.9047619047619 195.11599999999999L 270 196.688L 272.0952380952381 197.49200000000002L 274.1904761904762 197.696L 276.2857142857143 186.848L 278.3809523809524 192.644L 280.4761904761905 199.61599999999999L 282.57142857142856 193.052L 284.66666666666663 191.072L 286.7619047619048 195.44L 288.8571428571429 196.184L 290.95238095238096 196.46L 293.04761904761904 197.312L 295.14285714285717 193.076L 297.23809523809524 206L 299.3333333333333 186.44L 301.42857142857144 186.632L 303.5238095238095 191.276L 305.6190476190476 180.93200000000002L 307.71428571428567 201.704L 309.80952380952385 185.744L 311.9047619047619 196.028L 314 189.464L 316.09523809523813 194.228L 318.1904761904762 195.632L 320.2857142857143 196.844L 322.38095238095235 186.332L 324.4761904761905 197.99599999999998L 326.57142857142856 188.924L 328.66666666666663 189.128L 330.76190476190476 196.748L 332.8571428571429 182.45600000000002L 334.95238095238096 184.16L 337.04761904761904 206L 339.14285714285717 206L 341.23809523809524 206L 343.3333333333333 160.16L 345.42857142857144 198.536L 347.5238095238095 196.60399999999998L 349.6190476190476 195.668L 351.71428571428567 192.8L 353.8095238095238 196.964L 355.9047619047619 197.828L 358 200.84L 360.09523809523813 170.312L 362.1904761904762 189.236L 364.2857142857143 177.428L 366.38095238095235 191.564L 368.4761904761905 178.784L 370.57142857142856 176.372L 372.66666666666663 181.7L 374.76190476190476 187.472L 376.85714285714283 192.88400000000001L 378.95238095238096 189.38L 381.0476190476191 187.772L 383.14285714285717 189.404L 385.23809523809524 187.532L 387.3333333333333 193.59199999999998L 389.42857142857144 185.036L 391.5238095238095 171.332L 393.6190476190476 180.14L 395.7142857142857 172.316L 397.8095238095238 193.028L 399.9047619047619 191.996L 402 193.052L 404.09523809523813 194.84L 406.1904761904762 193.53199999999998L 408.2857142857143 194.024L 410.3809523809524 189.272L 412.4761904761905 195.188L 414.57142857142856 196.256L 416.66666666666663 192.62L 418.76190476190476 190.844L 420.85714285714283 200.984L 422.95238095238096 184.796L 425.0476190476191 190.88L 427.14285714285717 194.42000000000002L 429.23809523809524 189.86L 431.3333333333333 195.86L 433.42857142857144 191.984L 435.5238095238095 193.1L 437.6190476190476 186.464L 439.7142857142857 190.46L 441.8095238095238 182.156L 443.90476190476187 187.136L 446 191.528L 448.09523809523813 184.1L 450.1904761904762 189.14L 452.2857142857143 185.204L 454.3809523809524 185.468L 456.4761904761905 176.816L 458.57142857142856 189.04399999999998L 460.66666666666663 191.048L 462.76190476190476 188.756L 464.85714285714283 187.592L 466.95238095238096 191.39600000000002L 469.0476190476191 187.796L 471.14285714285717 188.228L 473.23809523809524 190.268L 475.3333333333333 194.372L 477.42857142857144 194.72L 479.5238095238095 201.308L 481.6190476190476 192.752L 483.7142857142857 181.148L 485.8095238095238 181.748L 487.90476190476187 181.208L 490 191.3L 492.09523809523813 186.88400000000001L 494.1904761904762 181.376L 496.2857142857143 186.5L 498.3809523809524 188.44400000000002L 500.4761904761905 179.66L 502.57142857142856 183.09199999999998L 504.66666666666663 173.564L 506.76190476190476 183.836L 508.85714285714283 171.668L 510.9523809523809 148.148L 513.047619047619 178.004L 515.1428571428571 141.86L 517.2380952380953 186.128L 519.3333333333333 188.54000000000002L 521.4285714285714 187.748L 523.5238095238096 193.256L 525.6190476190476 186.596L 527.7142857142858 185.42000000000002L 529.8095238095237 186.872L 531.9047619047619 185.372L 534 192.824L 536.0952380952381 188.552L 538.1904761904761 189.32L 540.2857142857143 186.632L 542.3809523809523 185.768L 544.4761904761905 188.744L 546.5714285714287 187.34L 548.6666666666666 192.488L 550.7619047619048 187.028L 552.8571428571429 185.468L 554.952380952381 181.928L 557.047619047619 183.8L 559.1428571428571 180.296L 561.2380952380952 185.516L 563.3333333333334 194L 565.4285714285713 190.328L 567.5238095238095 186.584L 569.6190476190477 168.32L 571.7142857142857 117.5L 573.8095238095239 189.10399999999998L 575.9047619047619 187.844L 578 190.28L 580.0952380952381 192.32L 582.1904761904763 189.2L 584.2857142857142 182.288L 586.3809523809524 188.49200000000002L 588.4761904761905 178.916L 590.5714285714286 53.432000000000016L 592.6666666666667 162.656L 594.7619047619047 184.52L 596.8571428571429 182.708L 598.952380952381 183.68L 601.047619047619 184.196L 603.1428571428571 179.084L 605.2380952380953 190.16L 607.3333333333333 180.476L 609.4285714285714 160.916L 611.5238095238095 121.196L 613.6190476190476 151.50799999999998L 615.7142857142858 164.132L 617.8095238095239 181.184L 619.9047619047619 170.49200000000002L 622 179.792L 624.0952380952381 173.204L 626.1904761904761 178.352L 628.2857142857143 182.792L 630.3809523809523 177.152L 632.4761904761905 184.232L 634.5714285714286 187.796L 636.6666666666666 188.348L 638.7619047619048 184.736L 640.8571428571429 181.892L 642.952380952381 181.796L 645.047619047619 179.36L 647.1428571428572 168.176L 649.2380952380952 181.808L 651.3333333333334 185.372L 653.4285714285713 167.708L 655.5238095238095 140.6L 657.6190476190476 160.784L 659.7142857142857 151.664L 661.8095238095239 145.952L 663.9047619047619 155.288L 666 153.68L 668.0952380952381 163.04L 670.1904761904763 172.064L 672.2857142857142 148.952L 674.3809523809524 171.812L 676.4761904761905 172.46L 678.5714285714286 172.508L 680.6666666666666 183.644L 682.7619047619047 166.304L 684.8571428571429 159.26L 686.952380952381 172.652L 689.047619047619 165.5L 691.1428571428571 154.892L 693.2380952380953 173.888L 695.3333333333333 176.3L 697.4285714285714 186.5L 699.5238095238095 183.932L 701.6190476190476 183.10399999999998L 703.7142857142857 150.128L 705.8095238095239 183.11599999999999L 707.9047619047619 186.152L 710 185.096L 712.0952380952382 182.276L 714.1904761904761 182.18L 716.2857142857143 182.144L 718.3809523809523 174.956L 720.4761904761905 181.988L 722.5714285714286 179.504L 724.6666666666666 184.784L 726.7619047619048 179L 728.8571428571429 175.868L 730.952380952381 177.14L 733.047619047619 178.832L 735.1428571428572 182.216L 737.2380952380952 176.444L 739.3333333333334 182.576L 741.4285714285714 177.02L 743.5238095238095 178.58L 745.6190476190476 182.144L 747.7142857142857 179.48L 749.8095238095239 176.972L 751.9047619047619 186.164L 754 176.096L 756.0952380952381 178.04L 758.1904761904763 152.996L 760.2857142857142 130.724L 762.3809523809524 149.888L 764.4761904761905 149.48L 766.5714285714286 184.1L 768.6666666666666 184.484L 770.7619047619048 177.56L 772.8571428571429 139.952L 774.952380952381 148.028L 777.047619047619 162.428L 779.1428571428571 136.244L 781.2380952380953 132.128L 783.3333333333333 142.508L 785.4285714285714 143.252L 787.5238095238095 125.732L 789.6190476190476 117.06800000000001L 791.7142857142857 164.264L 793.8095238095239 161.876L 795.9047619047619 158.636L 798 176.40800000000002L 800.0952380952382 186.632L 802.1904761904761 187.352L 804.2857142857143 186.152L 806.3809523809523 174.932L 808.4761904761905 178.388L 810.5714285714286 194.636L 812.6666666666666 184.748L 814.7619047619047 182.84L 816.8571428571429 173.78L 818.952380952381 177.56L 821.047619047619 179.996L 823.1428571428572 183.188L 825.2380952380952 153.68L 827.3333333333334 147.548L 829.4285714285714 185.504L 831.5238095238095 190.724L 833.6190476190476 174.752L 835.7142857142857 174.32L 837.8095238095237 183.692L 839.9047619047619 189.06799999999998L 842 186.88400000000001L 844.0952380952381 179.096L 846.1904761904763 175.808L 848.2857142857142 161.672L 850.3809523809524 160.424L 852.4761904761905 165.632L 854.5714285714286 179.336L 856.6666666666666 183.272L 858.7619047619048 191.024L 860.8571428571429 195.14L 862.952380952381 182.684L 865.0476190476192 162.416L 867.1428571428571 169.712L 869.2380952380953 168.536L 871.3333333333333 179.024L 873.4285714285714 170.768L 875.5238095238095 161.9L 877.6190476190476 170.012L 879.7142857142857 180.656L 881.8095238095239 178.796L 883.9047619047619 164.648L 886 152.95999999999998L 888.0952380952382 156.62L 890.1904761904761 154.568L 892.2857142857143 142.088L 894.3809523809524 156.704L 896.4761904761905 176.924L 898.5714285714286 142.652L 900.6666666666666 131.372L 902.7619047619047 137.276L 904.8571428571429 142.7L 906.952380952381 151.136L 909.047619047619 138.02L 911.1428571428572 110.324L 913.2380952380952 109.724L 915.3333333333334 163.268L 917.4285714285714 161.996L 919.5238095238095 148.016L 921.6190476190476 147.68L 923.7142857142858 50.792L 925.8095238095237 121.652L 927.9047619047619 58.615999999999985L 930 120.38L 932.0952380952381 155.672L 934.1904761904763 145.76L 936.2857142857142 133.54399999999998L 938.3809523809524 86.696L 940.4761904761905 103.568L 942.5714285714286 139.208L 944.6666666666666 155.876L 946.7619047619048 150.584L 948.8571428571428 92L 950.952380952381 148.052L 953.047619047619 113.132L 955.1428571428571 124.316L 957.2380952380953 179.552L 959.3333333333333 134.45600000000002L 961.4285714285714 119.44399999999999L 963.5238095238095 100.71199999999999L 965.6190476190476 139.292L 967.7142857142857 162.632L 969.8095238095239 158.768L 971.9047619047618 152.6L 974 188.876" stroke-width="2.0" fill="none" />
    
        
        
        <text x="45.0" font-family="-apple-system, system-ui, BlinkMacSystemFont, Roboto" y="50.0" dominant-baseline="middle" text-anchor="end" font-size="12" fill="#24292f">13000.0</text>
        
            
            <path stroke="#74838f" stroke-dasharray="10 6" stroke-width="0.5"  d="M 50.0 50.0 L 974.0 50.0" />
        
    
        
        
        <text x="45.0" font-family="-apple-system, system-ui, BlinkMacSystemFont, Roboto" y="81.2" dominant-baseline="middle" text-anchor="end" font-size="12" fill="#24292f">10400.0</text>
        
            
            
            <path stroke="#74838f" stroke-dasharray="10 6" stroke-width="0.5"  d="M 50.0 81.2 L 974.0 81.2" />
        
    
        
        
        <text x="45.0" font-family="-apple-system, system-ui, BlinkMacSystemFont, Roboto" y="112.4" dominant-baseline="middle" text-anchor="end" font-size="12" fill="#24292f">7800.0</text>
        
            
            
            <path stroke="#74838f" stroke-dasharray="10 6" stroke-width="0.5"  d="M 50.0 112.4 L 974.0 112.4" />
        
    
        
        
        <text x="45.0" font-family="-apple-system, system-ui, BlinkMacSystemFont, Roboto" y="143.6" dominant-baseline="middle" text-anchor="end" font-size="12" fill="#24292f">5200.0</text>
        
            
            
            <path stroke="#74838f" stroke-dasharray="10 6" stroke-width="0.5"  d="M 50.0 143.6 L 974.0 143.6" />
        
    
        
        
        <text x="45.0" font-family="-apple-system, system-ui, BlinkMacSystemFont, Roboto" y="174.8" dominant-baseline="middle" text-anchor="end" font-size="12" fill="#24292f">2600.0</text>
        
            
            
            <path stroke="#74838f" stroke-dasharray="10 6" stroke-width="0.5"  d="M 50.0 174.8 L 974.0 174.8" />
        
    
        
        
        <text x="45.0" font-family="-apple-system, system-ui, BlinkMacSystemFont, Roboto" y="206.0" dominant-baseline="middle" text-anchor="end" font-size="12" fill="#24292f">0.0</text>
        
    
    
        
        <path stroke="#74838f"  stroke-width="2.0"  d="M 83.52380952380952 206.0 L 83.52380952380952 214.0" />
        <text x="83.52380952380952" font-family="-apple-system, system-ui, BlinkMacSystemFont, Roboto" y="216.0" dominant-baseline="hanging" text-anchor="middle" font-size="12" fill="#24292f">Mar 2022</text>
    
        
        <path stroke="#74838f"  stroke-width="2.0"  d="M 148.47619047619048 206.0 L 148.47619047619048 214.0" />
        <text x="148.47619047619048" font-family="-apple-system, system-ui, BlinkMacSystemFont, Roboto" y="216.0" dominant-baseline="hanging" text-anchor="middle" font-size="12" fill="#24292f">Apr 2022</text>
    
        
        <path stroke="#74838f"  stroke-width="2.0"  d="M 211.33333333333331 206.0 L 211.33333333333331 214.0" />
        <text x="211.33333333333331" font-family="-apple-system, system-ui, BlinkMacSystemFont, Roboto" y="216.0" dominant-baseline="hanging" text-anchor="middle" font-size="12" fill="#24292f">May 2022</text>
    
        
        <path stroke="#74838f"  stroke-width="2.0"  d="M 276.2857142857143 206.0 L 276.2857142857143 214.0" />
        <text x="276.2857142857143" font-family="-apple-system, system-ui, BlinkMacSystemFont, Roboto" y="216.0" dominant-baseline="hanging" text-anchor="middle" font-size="12" fill="#24292f">Jun 2022</text>
    
        
        <path stroke="#74838f"  stroke-width="2.0"  d="M 339.14285714285717 206.0 L 339.14285714285717 214.0" />
        <text x="339.14285714285717" font-family="-apple-system, system-ui, BlinkMacSystemFont, Roboto" y="216.0" dominant-baseline="hanging" text-anchor="middle" font-size="12" fill="#24292f">Jul 2022</text>
    
        
        <path stroke="#74838f"  stroke-width="2.0"  d="M 404.09523809523813 206.0 L 404.09523809523813 214.0" />
        <text x="404.09523809523813" font-family="-apple-system, system-ui, BlinkMacSystemFont, Roboto" y="216.0" dominant-baseline="hanging" text-anchor="middle" font-size="12" fill="#24292f">Aug 2022</text>
    
        
        <path stroke="#74838f"  stroke-width="2.0"  d="M 469.0476190476191 206.0 L 469.0476190476191 214.0" />
        <text x="469.0476190476191" font-family="-apple-system, system-ui, BlinkMacSystemFont, Roboto" y="216.0" dominant-baseline="hanging" text-anchor="middle" font-size="12" fill="#24292f">Sep 2022</text>
    
        
        <path stroke="#74838f"  stroke-width="2.0"  d="M 531.9047619047619 206.0 L 531.9047619047619 214.0" />
        <text x="531.9047619047619" font-family="-apple-system, system-ui, BlinkMacSystemFont, Roboto" y="216.0" dominant-baseline="hanging" text-anchor="middle" font-size="12" fill="#24292f">Oct 2022</text>
    
        
        <path stroke="#74838f"  stroke-width="2.0"  d="M 596.8571428571429 206.0 L 596.8571428571429 214.0" />
        <text x="596.8571428571429" font-family="-apple-system, system-ui, BlinkMacSystemFont, Roboto" y="216.0" dominant-baseline="hanging" text-anchor="middle" font-size="12" fill="#24292f">Nov 2022</text>
    
        
        <path stroke="#74838f"  stroke-width="2.0"  d="M 659.7142857142857 206.0 L 659.7142857142857 214.0" />
        <text x="659.7142857142857" font-family="-apple-system, system-ui, BlinkMacSystemFont, Roboto" y="216.0" dominant-baseline="hanging" text-anchor="middle" font-size="12" fill="#24292f">Dec 2022</text>
    
        
        <path stroke="#74838f"  stroke-width="2.0"  d="M 724.6666666666666 206.0 L 724.6666666666666 214.0" />
        <text x="724.6666666666666" font-family="-apple-system, system-ui, BlinkMacSystemFont, Roboto" y="216.0" dominant-baseline="hanging" text-anchor="middle" font-size="12" fill="#24292f">Jan 2023</text>
    
        
        <path stroke="#74838f"  stroke-width="2.0"  d="M 789.6190476190476 206.0 L 789.6190476190476 214.0" />
        <text x="789.6190476190476" font-family="-apple-system, system-ui, BlinkMacSystemFont, Roboto" y="216.0" dominant-baseline="hanging" text-anchor="middle" font-size="12" fill="#24292f">Feb 2023</text>
    
        
        <path stroke="#74838f"  stroke-width="2.0"  d="M 848.2857142857142 206.0 L 848.2857142857142 214.0" />
        <text x="848.2857142857142" font-family="-apple-system, system-ui, BlinkMacSystemFont, Roboto" y="216.0" dominant-baseline="hanging" text-anchor="middle" font-size="12" fill="#24292f">Mar 2023</text>
    
        
        <path stroke="#74838f"  stroke-width="2.0"  d="M 913.2380952380952 206.0 L 913.2380952380952 214.0" />
        <text x="913.2380952380952" font-family="-apple-system, system-ui, BlinkMacSystemFont, Roboto" y="216.0" dominant-baseline="hanging" text-anchor="middle" font-size="12" fill="#24292f">Apr 2023</text>
    
    <path stroke="#74838f"   stroke-linejoin="round" stroke-width="2.0" d="M 50.0 216.0 L 50.0 206.0 L 974.0 206.0 L 974.0 216.0"  fill="none" />
    <text x="512.0" y="25.0" font-family="-apple-system, system-ui, BlinkMacSystemFont, Roboto" dominant-baseline="middle" text-anchor="middle" font-size="18" fill="#24292f">Total daily suspensions</text>
</svg>
