<?xml version="1.0" standalone="no"?>
<svg width="1024.0" height="256.0"  viewBox="0 0 1024.0 256.0" preserveAspectRatio="xMidYMid meet" xmlns="http://www.w3.org/2000/svg">
    <path stroke="#e74c3c" stroke-linejoin="round" d="M 50.0 161.108 L 50 161.108L 53.372262773722625 193.664L 56.74452554744526 197.576L 60.11678832116788 197.924L 63.48905109489051 203.528L 66.86131386861314 199.94L 70.23357664233576 199.268L 73.60583941605839 191.108L 76.97810218978103 200.972L 80.35036496350365 198.62L 83.72262773722628 200L 87.09489051094891 202.57999999999998L 90.46715328467153 199.208L 93.83941605839416 195.608L 97.21167883211679 202.652L 100.58394160583941 198.716L 103.95620437956205 197.49200000000002L 107.32846715328466 191.42000000000002L 110.7007299270073 196.688L 114.07299270072993 199.46L 117.44525547445255 199.328L 120.81751824817519 198.308L 124.18978102189782 198.164L 127.56204379562044 199.832L 130.93430656934305 194.876L 134.3065693430657 199.904L 137.67883211678833 195.584L 141.05109489051097 200.732L 144.42335766423358 198.416L 147.7956204379562 190.652L 151.16788321167883 196.112L 154.54014598540147 190.82L 157.9124087591241 193.53199999999998L 161.28467153284672 199.688L 164.65693430656933 192.392L 168.02919708029196 197L 171.4014598540146 199.59199999999998L 174.77372262773724 193.54399999999998L 178.14598540145985 195.26L 181.51824817518246 195.428L 184.8905109489051 195.548L 188.26277372262774 196.484L 191.63503649635038 199.424L 195.007299270073 199.22L 198.37956204379563 195.656L 201.75182481751824 193.952L 205.12408759124088 195.536L 208.49635036496352 198.764L 211.86861313868613 195.428L 215.24087591240877 194L 218.61313868613138 193.688L 221.98540145985402 186.32L 225.35766423357663 197.372L 228.7299270072993 195.96800000000002L 232.1021897810219 198.284L 235.47445255474452 194.38400000000001L 238.84671532846716 196.424L 242.21897810218977 196.988L 245.5912408759124 198.368L 248.96350364963502 198.05599999999998L 252.33576642335768 199.61599999999999L 255.7080291970803 191.54L 259.08029197080293 202.124L 262.4525547445255 193.34L 265.8248175182482 204.2L 269.1970802919708 206L 272.56934306569343 206L 275.94160583941607 206L 279.31386861313865 206L 282.68613138686135 190.472L 286.05839416058393 159.01999999999998L 289.4306569343066 193.56799999999998L 292.8029197080292 200.228L 296.1751824817518 193.232L 299.5474452554745 196.82L 302.91970802919707 199.772L 306.2919708029197 186.548L 309.66423357664235 197.888L 313.0364963503649 195.596L 316.40875912408757 190.508L 319.7810218978102 194.876L 323.15328467153284 190.4L 326.5255474452555 188.756L 329.8978102189781 197.852L 333.27007299270076 199.772L 336.64233576642334 191.936L 340.014598540146 191.864L 343.3868613138686 199.316L 346.75912408759126 194.708L 350.13138686131384 192.608L 353.5036496350365 194.9L 356.8759124087591 199.7L 360.24817518248176 189.224L 363.62043795620434 198.428L 366.99270072992704 196.136L 370.3649635036497 195.296L 373.73722627737226 196.268L 377.1094890510949 193.184L 380.48175182481754 197.204L 383.8540145985402 193.856L 387.22627737226276 197.096L 390.5985401459854 178.16L 393.97080291970804 194.372L 397.3430656934306 195.92000000000002L 400.71532846715326 195.11599999999999L 404.0875912408759 196.688L 407.4598540145986 197.49200000000002L 410.8321167883212 197.696L 414.2043795620438 186.848L 417.57664233576645 192.644L 420.94890510948903 199.61599999999999L 424.3211678832117 193.052L 427.6934306569343 191.072L 431.06569343065695 195.44L 434.43795620437953 196.184L 437.81021897810217 196.46L 441.1824817518248 197.312L 444.55474452554745 193.076L 447.92700729927003 206L 451.2992700729927 186.44L 454.67153284671537 186.632L 458.04379562043795 191.276L 461.4160583941606 180.93200000000002L 464.7883211678832 201.704L 468.16058394160586 185.744L 471.53284671532845 196.028L 474.9051094890511 189.464L 478.2773722627737 194.228L 481.64963503649636 195.632L 485.02189781021895 196.844L 488.3941605839416 186.332L 491.7664233576643 197.99599999999998L 495.13868613138686 188.924L 498.5109489051095 189.128L 501.88321167883214 196.748L 505.2554744525548 182.45600000000002L 508.62773722627736 184.16L 512 206L 515.3722627737227 206L 518.7445255474452 206L 522.1167883211679 160.16L 525.4890510948906 198.536L 528.8613138686133 196.60399999999998L 532.2335766423357 195.668L 535.6058394160584 192.8L 538.978102189781 196.964L 542.3503649635036 197.828L 545.7226277372263 200.84L 549.094890510949 170.312L 552.4671532846714 189.236L 555.8394160583941 177.428L 559.2116788321168 191.564L 562.5839416058394 178.784L 565.9562043795621 176.372L 569.3284671532847 181.7L 572.7007299270073 187.472L 576.0729927007299 192.88400000000001L 579.4452554744526 189.38L 582.8175182481751 187.772L 586.1897810218978 189.404L 589.5620437956204 187.532L 592.9343065693431 193.59199999999998L 596.3065693430657 185.036L 599.6788321167883 171.332L 603.051094890511 180.14L 606.4233576642335 172.316L 609.7956204379562 193.028L 613.1678832116788 191.996L 616.5401459854015 193.052L 619.9124087591241 194.84L 623.2846715328467 193.53199999999998L 626.6569343065693 194.024L 630.029197080292 189.272L 633.4014598540145 195.188L 636.7737226277372 196.256L 640.1459854014599 192.62L 643.5182481751825 190.844L 646.8905109489051 200.984L 650.2627737226277 184.796L 653.6350364963504 190.88L 657.007299270073 194.42000000000002L 660.3795620437957 189.86L 663.7518248175182 195.86L 667.1240875912409 191.984L 670.4963503649635 193.1L 673.8686131386861 186.464L 677.2408759124087 190.46L 680.6131386861314 182.156L 683.9854014598541 187.136L 687.3576642335767 191.528L 690.7299270072994 184.1L 694.1021897810219 189.14L 697.4744525547445 185.204L 700.8467153284671 185.468L 704.2189781021898 176.828L 707.5912408759124 189.04399999999998L 710.9635036496351 191.048L 714.3357664233577 188.756L 717.7080291970804 187.592L 721.0802919708028 191.39600000000002L 724.4525547445255 187.796L 727.8248175182482 188.228L 731.1970802919708 190.268L 734.5693430656935 194.372L 737.9416058394161 194.72L 741.3138686131388 201.308L 744.6861313868612 192.752L 748.0583941605839 181.148L 751.4306569343065 181.748L 754.8029197080292 181.208L 758.1751824817518 191.3L 761.5474452554745 186.88400000000001L 764.9197080291972 181.376L 768.2919708029196 186.5L 771.6642335766423 188.44400000000002L 775.0364963503649 179.66L 778.4087591240876 183.09199999999998L 781.7810218978102 173.564L 785.1532846715329 183.836L 788.5255474452555 171.668L 791.8978102189781 148.148L 795.2700729927006 178.004L 798.6423357664233 141.86L 802.0145985401459 186.128L 805.3868613138686 188.54000000000002L 808.7591240875913 187.748L 812.1313868613139 193.256L 815.5036496350365 186.596L 818.8759124087591 185.42000000000002L 822.2481751824818 186.872L 825.6204379562043 185.372L 828.992700729927 192.824L 832.3649635036496 188.552L 835.7372262773723 189.32L 839.1094890510949 186.632L 842.4817518248175 185.768L 845.8540145985401 188.744L 849.2262773722628 187.34L 852.5985401459855 192.488L 855.970802919708 187.028L 859.3430656934307 185.468L 862.7153284671533 181.928L 866.0875912408759 183.8L 869.4598540145985 180.296L 872.8321167883212 185.516L 876.2043795620438 194L 879.5766423357665 190.328L 882.948905109489 186.584L 886.3211678832117 168.32L 889.6934306569343 117.5L 893.0656934306569 189.10399999999998L 896.4379562043796 187.844L 899.8102189781022 190.28L 903.1824817518249 192.32L 906.5547445255474 189.2L 909.9270072992701 182.288L 913.2992700729927 188.49200000000002L 916.6715328467153 178.916L 920.0437956204379 53.432000000000016L 923.4160583941606 162.656L 926.7883211678832 184.52L 930.1605839416059 182.708L 933.5328467153286 183.68L 936.9051094890511 184.196L 940.2773722627737 179.084L 943.6496350364963 190.16L 947.021897810219 180.476L 950.3941605839416 160.916L 953.7664233576643 121.196L 957.1386861313869 151.50799999999998L 960.5109489051096 164.132L 963.883211678832 181.184L 967.2554744525547 170.49200000000002L 970.6277372262773 179.792L 974 182.492" stroke-width="2.0" fill="none" />
    
        
        
        <text x="45.0" font-family="-apple-system, system-ui, BlinkMacSystemFont, Roboto" y="50.0" dominant-baseline="middle" text-anchor="end" font-size="12" fill="#24292f">13000.0</text>
        
            
            <path stroke="#74838f" stroke-dasharray="10 6" stroke-width="0.5"  d="M 50.0 50.0 L 974.0 50.0" />
        
    
        
        
        <text x="45.0" font-family="-apple-system, system-ui, BlinkMacSystemFont, Roboto" y="81.2" dominant-baseline="middle" text-anchor="end" font-size="12" fill="#24292f">10400.0</text>
        
            
            
            <path stroke="#74838f" stroke-dasharray="10 6" stroke-width="0.5"  d="M 50.0 81.2 L 974.0 81.2" />
        
    
        
        
        <text x="45.0" font-family="-apple-system, system-ui, BlinkMacSystemFont, Roboto" y="112.4" dominant-baseline="middle" text-anchor="end" font-size="12" fill="#24292f">7800.0</text>
        
            
            
            <path stroke="#74838f" stroke-dasharray="10 6" stroke-width="0.5"  d="M 50.0 112.4 L 974.0 112.4" />
        
    
        
        
        <text x="45.0" font-family="-apple-system, system-ui, BlinkMacSystemFont, Roboto" y="143.6" dominant-baseline="middle" text-anchor="end" font-size="12" fill="#24292f">5200.0</text>
        
            
            
            <path stroke="#74838f" stroke-dasharray="10 6" stroke-width="0.5"  d="M 50.0 143.6 L 974.0 143.6" />
        
    
        
        
        <text x="45.0" font-family="-apple-system, system-ui, BlinkMacSystemFont, Roboto" y="174.8" dominant-baseline="middle" text-anchor="end" font-size="12" fill="#24292f">2600.0</text>
        
            
            
            <path stroke="#74838f" stroke-dasharray="10 6" stroke-width="0.5"  d="M 50.0 174.8 L 974.0 174.8" />
        
    
        
        
        <text x="45.0" font-family="-apple-system, system-ui, BlinkMacSystemFont, Roboto" y="206.0" dominant-baseline="middle" text-anchor="end" font-size="12" fill="#24292f">0.0</text>
        
    
    
        
        <path stroke="#74838f"  stroke-width="2.0"  d="M 103.95620437956205 206.0 L 103.95620437956205 214.0" />
        <text x="103.95620437956205" font-family="-apple-system, system-ui, BlinkMacSystemFont, Roboto" y="216.0" dominant-baseline="hanging" text-anchor="middle" font-size="12" fill="#24292f">Mar 2022</text>
    
        
        <path stroke="#74838f"  stroke-width="2.0"  d="M 208.49635036496352 206.0 L 208.49635036496352 214.0" />
        <text x="208.49635036496352" font-family="-apple-system, system-ui, BlinkMacSystemFont, Roboto" y="216.0" dominant-baseline="hanging" text-anchor="middle" font-size="12" fill="#24292f">Apr 2022</text>
    
        
        <path stroke="#74838f"  stroke-width="2.0"  d="M 309.66423357664235 206.0 L 309.66423357664235 214.0" />
        <text x="309.66423357664235" font-family="-apple-system, system-ui, BlinkMacSystemFont, Roboto" y="216.0" dominant-baseline="hanging" text-anchor="middle" font-size="12" fill="#24292f">May 2022</text>
    
        
        <path stroke="#74838f"  stroke-width="2.0"  d="M 414.2043795620438 206.0 L 414.2043795620438 214.0" />
        <text x="414.2043795620438" font-family="-apple-system, system-ui, BlinkMacSystemFont, Roboto" y="216.0" dominant-baseline="hanging" text-anchor="middle" font-size="12" fill="#24292f">Jun 2022</text>
    
        
        <path stroke="#74838f"  stroke-width="2.0"  d="M 515.3722627737227 206.0 L 515.3722627737227 214.0" />
        <text x="515.3722627737227" font-family="-apple-system, system-ui, BlinkMacSystemFont, Roboto" y="216.0" dominant-baseline="hanging" text-anchor="middle" font-size="12" fill="#24292f">Jul 2022</text>
    
        
        <path stroke="#74838f"  stroke-width="2.0"  d="M 619.9124087591241 206.0 L 619.9124087591241 214.0" />
        <text x="619.9124087591241" font-family="-apple-system, system-ui, BlinkMacSystemFont, Roboto" y="216.0" dominant-baseline="hanging" text-anchor="middle" font-size="12" fill="#24292f">Aug 2022</text>
    
        
        <path stroke="#74838f"  stroke-width="2.0"  d="M 724.4525547445255 206.0 L 724.4525547445255 214.0" />
        <text x="724.4525547445255" font-family="-apple-system, system-ui, BlinkMacSystemFont, Roboto" y="216.0" dominant-baseline="hanging" text-anchor="middle" font-size="12" fill="#24292f">Sep 2022</text>
    
        
        <path stroke="#74838f"  stroke-width="2.0"  d="M 825.6204379562043 206.0 L 825.6204379562043 214.0" />
        <text x="825.6204379562043" font-family="-apple-system, system-ui, BlinkMacSystemFont, Roboto" y="216.0" dominant-baseline="hanging" text-anchor="middle" font-size="12" fill="#24292f">Oct 2022</text>
    
        
        <path stroke="#74838f"  stroke-width="2.0"  d="M 930.1605839416059 206.0 L 930.1605839416059 214.0" />
        <text x="930.1605839416059" font-family="-apple-system, system-ui, BlinkMacSystemFont, Roboto" y="216.0" dominant-baseline="hanging" text-anchor="middle" font-size="12" fill="#24292f">Nov 2022</text>
    
    <path stroke="#74838f"   stroke-linejoin="round" stroke-width="2.0" d="M 50.0 216.0 L 50.0 206.0 L 974.0 206.0 L 974.0 216.0"  fill="none" />
    <text x="512.0" y="25.0" font-family="-apple-system, system-ui, BlinkMacSystemFont, Roboto" dominant-baseline="middle" text-anchor="middle" font-size="18" fill="#24292f">Total daily suspensions</text>
</svg>
