<?xml version="1.0" standalone="no"?>
<svg width="1024.0" height="256.0"  viewBox="0 0 1024.0 256.0" preserveAspectRatio="xMidYMid meet" xmlns="http://www.w3.org/2000/svg">
    <path stroke="#e74c3c" stroke-linejoin="round" d="M 50.0 162.77066666666667 L 50 162.77066666666667L 51.91701244813278 194.12088888888889L 53.83402489626556 197.888L 55.75103734439834 198.2231111111111L 57.66804979253112 203.61955555555556L 59.5850622406639 200.16444444444443L 61.50207468879668 199.51733333333334L 63.41908713692946 191.65955555555556L 65.33609958506224 201.1582222222222L 67.25311203319502 198.89333333333332L 69.1701244813278 200.22222222222223L 71.08713692946058 202.70666666666665L 73.00414937759336 199.45955555555554L 74.92116182572614 195.9928888888889L 76.83817427385893 202.776L 78.7551867219917 198.98577777777777L 80.67219917012449 197.8071111111111L 82.58921161825725 191.96L 84.50622406639005 197.0328888888889L 86.42323651452281 199.70222222222222L 88.34024896265561 199.5751111111111L 90.25726141078837 198.5928888888889L 92.17427385892117 198.45422222222223L 94.09128630705393 200.06044444444444L 96.00829875518673 195.288L 97.9253112033195 200.12977777777778L 99.84232365145229 195.96977777777778L 101.75933609958506 200.92711111111112L 103.67634854771785 198.6968888888889L 105.59336099585062 191.22044444444444L 107.51037344398341 196.47822222222223L 109.42738589211618 191.38222222222223L 111.34439834024897 193.99377777777778L 113.26141078838174 199.92177777777778L 115.17842323651452 192.89600000000002L 117.09543568464731 197.33333333333334L 119.01244813278008 199.82933333333332L 120.92946058091287 194.00533333333334L 122.84647302904564 195.65777777777777L 124.76348547717842 195.81955555555555L 126.6804979253112 195.9351111111111L 128.59751037344398 196.83644444444445L 130.51452282157675 199.66755555555557L 132.43153526970954 199.4711111111111L 134.34854771784234 196.0391111111111L 136.2655601659751 194.39822222222222L 138.18257261410787 195.92355555555554L 140.09958506224066 199.03199999999998L 142.01659751037346 195.81955555555555L 143.93360995850622 194.44444444444446L 145.850622406639 194.144L 147.76763485477179 187.04888888888888L 149.68464730290458 197.69155555555557L 151.60165975103735 196.33955555555556L 153.5186721991701 198.56977777777777L 155.4356846473029 194.8142222222222L 157.3526970954357 196.77866666666665L 159.26970954356847 197.32177777777778L 161.18672199170123 198.65066666666667L 163.103734439834 198.35022222222221L 165.02074688796682 199.85244444444444L 166.9377593360996 192.07555555555555L 168.85477178423236 202.26755555555556L 170.77178423236515 193.80888888888887L 172.68879668049794 204.26666666666665L 174.6058091286307 206L 176.52282157676348 206L 178.43983402489627 206L 180.35684647302904 206L 182.2738589211618 191.04711111111112L 184.19087136929463 160.76L 186.1078838174274 194.02844444444446L 188.02489626556016 200.4417777777778L 189.94190871369292 193.7048888888889L 191.85892116182575 197.16L 193.7759336099585 200.00266666666667L 195.69294605809128 187.26844444444444L 197.60995850622405 198.18844444444443L 199.52697095435684 195.98133333333334L 201.44398340248964 191.08177777777777L 203.3609958506224 195.288L 205.2780082987552 190.97777777777776L 207.19502074688796 189.39466666666667L 209.11203319502076 198.15377777777778L 211.02904564315352 200.00266666666667L 212.94605809128632 192.4568888888889L 214.86307053941908 192.38755555555556L 216.78008298755188 199.56355555555555L 218.69709543568464 195.13777777777779L 220.61410788381744 193.10399999999998L 222.5311203319502 195.3111111111111L 224.44813278008297 199.93333333333334L 226.36514522821577 189.84533333333331L 228.28215767634856 198.70844444444444L 230.19917012448133 196.50133333333332L 232.1161825726141 195.69244444444445L 234.0331950207469 196.62844444444445L 235.95020746887968 193.65866666666668L 237.86721991701245 197.52977777777778L 239.78423236514521 194.3057777777778L 241.701244813278 197.4257777777778L 243.6182572614108 179.19111111111113L 245.53526970954357 194.80266666666665L 247.45228215767634 196.29333333333335L 249.36929460580913 195.5191111111111L 251.28630705394193 197.0328888888889L 253.2033195020747 197.8071111111111L 255.12033195020746 198.00355555555555L 257.0373443983402 187.55733333333333L 258.95435684647305 193.13866666666667L 260.8713692946058 199.85244444444444L 262.7883817427386 193.53155555555554L 264.7053941908714 191.6248888888889L 266.6224066390041 195.8311111111111L 268.53941908713693 196.54755555555556L 270.45643153526976 196.81333333333333L 272.37344398340247 197.63377777777777L 274.2904564315353 193.55466666666666L 276.207468879668 206L 278.1244813278008 187.16444444444446L 280.04149377593365 187.34933333333333L 281.95850622406635 191.8213333333333L 283.8755186721992 181.86044444444445L 285.79253112033194 201.8631111111111L 287.7095435684647 186.49422222222222L 289.62655601659753 196.39733333333334L 291.5435684647303 190.07644444444443L 293.46058091286307 194.664L 295.3775933609959 196.016L 297.2946058091286 197.18311111111112L 299.2116182572614 187.06044444444444L 301.12863070539413 198.29244444444444L 303.04564315352695 189.55644444444445L 304.9626556016598 189.7528888888889L 306.87966804979254 197.09066666666666L 308.7966804979253 183.328L 310.7136929460581 184.9688888888889L 312.63070539419084 206L 314.5477178423236 206L 316.46473029045643 206L 318.38174273858925 161.85777777777778L 320.298755186722 198.81244444444445L 322.2157676348548 196.952L 324.13278008298755 196.05066666666667L 326.0497925311203 193.2888888888889L 327.9668049792531 197.29866666666666L 329.88381742738585 198.13066666666668L 331.8008298755187 201.0311111111111L 333.7178423236515 171.63377777777777L 335.63485477178426 189.85688888888888L 337.551867219917 178.4862222222222L 339.4688796680498 192.09866666666667L 341.38589211618256 179.792L 343.3029045643153 177.46933333333334L 345.2199170124481 182.6L 347.1369294605809 188.1582222222222L 349.0539419087137 193.36977777777778L 350.9709543568465 189.99555555555554L 352.88796680497927 188.4471111111111L 354.80497925311204 190.01866666666666L 356.7219917012448 188.216L 358.63900414937757 194.05155555555555L 360.5560165975104 185.81244444444445L 362.47302904564316 172.61599999999999L 364.3900414937759 181.09777777777776L 366.3070539419087 173.56355555555555L 368.2240663900415 193.50844444444445L 370.1410788381743 192.51466666666667L 372.05809128630705 193.53155555555554L 373.9751037344398 195.25333333333333L 375.89211618257264 193.99377777777778L 377.8091286307054 194.46755555555555L 379.72614107883817 189.89155555555556L 381.64315352697093 195.58844444444446L 383.56016597510376 196.6168888888889L 385.4771784232365 193.11555555555555L 387.3941908713693 191.40533333333332L 389.3112033195021 201.16977777777777L 391.2282157676349 185.58133333333333L 393.14522821576764 191.44L 395.0622406639004 194.8488888888889L 396.9792531120332 190.45777777777778L 398.89626556016594 196.23555555555555L 400.81327800829877 192.5031111111111L 402.73029045643153 193.57777777777778L 404.64730290456436 187.18755555555555L 406.5643153526971 191.03555555555556L 408.4813278008299 183.0391111111111L 410.39834024896265 187.83466666666666L 412.3153526970954 192.064L 414.2323651452282 184.9111111111111L 416.14937759336095 189.76444444444445L 418.0663900414938 185.97422222222224L 419.9834024896266 186.22844444444445L 421.90041493775936 177.8968888888889L 423.81742738589213 189.672L 425.7344398340249 191.60177777777778L 427.65145228215766 189.39466666666667L 429.56846473029043 188.27377777777778L 431.4854771784232 191.9368888888889L 433.402489626556 188.47022222222222L 435.3195020746888 188.88622222222222L 437.2365145228216 190.85066666666665L 439.1535269709544 194.80266666666665L 441.07053941908714 195.13777777777779L 442.9875518672199 201.48177777777778L 444.9045643153527 193.24266666666665L 446.82157676348544 182.06844444444445L 448.73858921161826 182.64622222222224L 450.655601659751 182.12622222222222L 452.57261410788385 191.84444444444443L 454.4896265560166 187.592L 456.4066390041494 182.288L 458.32365145228215 187.22222222222223L 460.2406639004149 189.09422222222221L 462.15767634854774 180.63555555555556L 464.0746887966805 183.94044444444444L 465.99170124481327 174.76533333333333L 467.90871369294604 184.6568888888889L 469.82572614107886 172.93955555555556L 471.7427385892116 150.29066666666665L 473.6597510373444 179.0408888888889L 475.57676348547716 144.23555555555555L 477.49377593361 186.864L 479.41078838174275 189.18666666666667L 481.3278008298755 188.424L 483.2448132780083 193.728L 485.16182572614105 187.31466666666665L 487.07883817427387 186.1822222222222L 488.99585062240664 187.58044444444445L 490.91286307053946 186.136L 492.8298755186722 193.312L 494.746887966805 189.19822222222223L 496.66390041493776 189.9377777777778L 498.5809128630705 187.34933333333333L 500.4979253112033 186.51733333333334L 502.41493775933606 189.3831111111111L 504.3319502074689 188.0311111111111L 506.2489626556017 192.98844444444444L 508.16597510373447 187.73066666666668L 510.08298755186723 186.22844444444445L 512 182.81955555555555L 513.9170124481327 184.6222222222222L 515.8340248962655 181.248L 517.7510373443984 186.27466666666666L 519.6680497925311 194.44444444444446L 521.5850622406639 190.90844444444446L 523.5020746887967 187.30311111111112L 525.4190871369294 169.71555555555557L 527.3360995850624 120.77777777777779L 529.2531120331951 189.72977777777777L 531.1701244813278 188.51644444444446L 533.0871369294606 190.86222222222221L 535.0041493775934 192.82666666666665L 536.9211618257261 189.82222222222222L 538.838174273859 183.16622222222222L 540.7551867219918 189.14044444444443L 542.6721991701245 179.9191111111111L 544.5892116182572 59.082666666666654L 546.50622406639 164.26133333333334L 548.4232365145228 185.31555555555556L 550.3402489626556 183.57066666666668L 552.2572614107883 184.50666666666666L 554.1742738589212 185.00355555555555L 556.0912863070539 180.0808888888889L 558.0082987551868 190.74666666666667L 559.9253112033196 181.42133333333334L 561.8423236514523 162.58577777777776L 563.7593360995851 124.3368888888889L 565.6763485477179 153.52622222222223L 567.5933609958506 165.68266666666668L 569.5103734439834 182.1031111111111L 571.4273858921161 171.8071111111111L 573.344398340249 180.76266666666666L 575.2614107883817 174.41866666666667L 577.1784232365145 179.376L 579.0954356846472 183.65155555555555L 581.01244813278 178.22044444444444L 582.9294605809129 185.03822222222223L 584.8464730290457 188.47022222222222L 586.7634854771785 189.00177777777776L 588.6804979253112 185.52355555555556L 590.597510373444 182.7848888888889L 592.5145228215767 182.69244444444445L 594.4315352697096 180.34666666666666L 596.3485477178423 169.5768888888889L 598.2655601659751 182.704L 600.1825726141079 186.136L 602.0995850622406 169.12622222222222L 604.0165975103735 143.0222222222222L 605.9336099585062 162.45866666666666L 607.850622406639 153.67644444444443L 609.7676348547717 148.176L 611.6846473029045 157.16622222222222L 613.6016597510373 155.61777777777777L 615.5186721991702 164.63111111111112L 617.435684647303 173.32088888888887L 619.3526970954357 151.0648888888889L 621.2697095435685 173.07822222222222L 623.1867219917012 173.70222222222222L 625.103734439834 173.74844444444443L 627.0207468879668 184.472L 628.9377593360996 167.77422222222222L 630.8547717842323 160.9911111111111L 632.7717842323651 173.8871111111111L 634.688796680498 167L 636.6058091286307 156.78488888888887L 638.5228215767635 175.07733333333334L 640.4398340248962 177.4L 642.3568464730291 187.22222222222223L 644.2738589211618 184.74933333333334L 646.1908713692947 183.952L 648.1078838174274 152.19733333333335L 650.0248962655602 183.96355555555556L 651.941908713693 186.8871111111111L 653.8589211618257 185.87022222222222L 655.7759336099585 183.15466666666666L 657.6929460580913 183.06222222222223L 659.6099585062241 183.02755555555555L 661.5269709543568 176.10577777777777L 663.4439834024896 182.87733333333333L 665.3609958506224 180.48533333333333L 667.2780082987551 185.56977777777777L 669.195020746888 180L 671.1120331950208 176.984L 673.0290456431536 178.20888888888888L 674.9460580912863 179.8382222222222L 676.8630705394191 183.09688888888888L 678.7800829875519 177.53866666666667L 680.6970954356847 183.44355555555555L 682.6141078838174 178.09333333333333L 684.5311203319502 179.59555555555556L 686.448132780083 183.02755555555555L 688.3651452282157 180.4622222222222L 690.2821576763486 178.04711111111112L 692.1991701244813 186.89866666666666L 694.1161825726141 177.20355555555557L 696.0331950207468 179.07555555555555L 697.9502074688796 154.9591111111111L 699.8672199170124 133.512L 701.7842323651453 151.96622222222223L 703.7012448132781 151.57333333333332L 705.6182572614108 184.9111111111111L 707.5352697095436 185.28088888888888L 709.4522821576763 178.61333333333334L 711.3692946058092 142.39822222222222L 713.2863070539419 150.1751111111111L 715.2033195020747 164.04177777777778L 717.1203319502075 138.82755555555556L 719.0373443983402 134.864L 720.954356846473 144.85955555555557L 722.8713692946058 145.57600000000002L 724.7883817427386 128.7048888888889L 726.7053941908713 120.36177777777777L 728.6224066390042 165.80977777777778L 730.5394190871369 163.51022222222224L 732.4564315352698 160.39022222222223L 734.3734439834025 177.504L 736.2904564315353 187.34933333333333L 738.2074688796681 188.04266666666666L 740.1244813278008 186.8871111111111L 742.0414937759336 176.08266666666668L 743.9585062240664 179.41066666666666L 745.8755186721992 195.0568888888889L 747.7925311203319 185.53511111111112L 749.7095435684647 183.6977777777778L 751.6265560165975 174.97333333333333L 753.5435684647302 178.61333333333334L 755.4605809128631 180.9591111111111L 757.3775933609958 184.0328888888889L 759.2946058091287 155.61777777777777L 761.2116182572614 149.7128888888889L 763.1286307053942 186.2631111111111L 765.045643153527 191.28977777777777L 766.9626556016598 175.90933333333334L 768.8796680497925 175.49333333333334L 770.7966804979253 184.51822222222222L 772.7136929460581 189.69511111111112L 774.6307053941908 187.592L 776.5477178423237 180.09244444444445L 778.4647302904564 176.92622222222224L 780.3817427385892 163.31377777777777L 782.2987551867219 162.112L 784.2157676348547 167.1271111111111L 786.1327800829876 180.32355555555554L 788.0497925311204 184.11377777777778L 789.9668049792532 191.57866666666666L 791.8838174273859 195.54222222222222L 793.8008298755187 183.54755555555556L 795.7178423236514 164.03022222222222L 797.6348547717843 171.05599999999998L 799.551867219917 169.92355555555557L 801.4688796680498 180.02311111111112L 803.3858921161826 172.07288888888888L 805.3029045643153 163.53333333333333L 807.2199170124481 171.34488888888887L 809.1369294605809 181.59466666666668L 811.0539419087137 179.80355555555556L 812.9709543568464 166.17955555555557L 814.8879668049792 154.92444444444445L 816.804979253112 158.4488888888889L 818.7219917012449 156.4728888888889L 820.6390041493776 144.4551111111111L 822.5560165975104 158.52977777777778L 824.4730290456432 178.00088888888888L 826.3900414937759 144.99822222222224L 828.3070539419087 134.136L 830.2240663900415 139.8213333333333L 832.1410788381743 145.04444444444445L 834.058091286307 153.168L 835.9751037344398 140.53777777777776L 837.8921161825726 113.86755555555555L 839.8091286307053 113.28977777777777L 841.7261410788382 164.85066666666665L 843.6431535269709 163.62577777777778L 845.5601659751038 150.16355555555555L 847.4771784232365 149.84L 849.3941908713693 56.54044444444443L 851.311203319502 124.776L 853.2282157676349 64.07466666666667L 855.1452282157677 123.55111111111111L 857.0622406639004 157.536L 858.9792531120332 147.9911111111111L 860.896265560166 136.22755555555557L 862.8132780082988 91.11466666666666L 864.7302904564315 107.36177777777779L 866.6473029045643 141.68177777777777L 868.564315352697 157.73244444444444L 870.4813278008298 152.63644444444444L 872.3983402489627 96.22222222222221L 874.3153526970955 150.19822222222223L 876.2323651452283 116.57155555555556L 878.149377593361 127.34133333333332L 880.0663900414938 180.53155555555554L 881.9834024896265 137.10577777777777L 883.9004149377594 122.64977777777779L 885.8174273858921 104.61155555555555L 887.7344398340249 141.76266666666666L 889.6514522821577 164.23822222222222L 891.5684647302904 160.51733333333334L 893.4854771784233 154.57777777777778L 895.402489626556 175.01955555555554L 897.3195020746888 146.87022222222222L 899.2365145228215 153.23733333333334L 901.1535269709543 142.82577777777777L 903.0705394190871 130.98133333333334L 904.98755186722 88.53777777777778L 906.9045643153528 174.488L 908.8215767634855 50.55466666666666L 910.7385892116183 84.43555555555557L 912.655601659751 152.47466666666668L 914.5726141078839 114.90755555555555L 916.4896265560166 96.30311111111112L 918.4066390041494 171.46044444444445L 920.3236514522821 183.96355555555556L 922.2406639004149 169.87733333333333L 924.1576763485477 183.13155555555556L 926.0746887966804 171.992L 927.9917012448133 152.48622222222224L 929.908713692946 169.704L 931.8257261410789 172.99733333333333L 933.7427385892116 164.61955555555556L 935.6597510373444 162.64355555555557L 937.5767634854772 170.51288888888888L 939.49377593361 145.6568888888889L 941.4107883817428 159.81244444444445L 943.3278008298755 167.2542222222222L 945.2448132780083 141.55466666666666L 947.161825726141 160.864L 949.0788381742739 157.7208888888889L 950.9958506224066 154.87822222222223L 952.9128630705394 145.29866666666666L 954.8298755186721 177.65422222222222L 956.7468879668049 119.73777777777778L 958.6639004149378 144.96355555555556L 960.5809128630706 151.15733333333333L 962.4979253112034 164.4231111111111L 964.4149377593361 174.1991111111111L 966.3319502074689 171.784L 968.2489626556016 157.12L 970.1659751037345 159.44266666666667L 972.0829875518672 169.77333333333334L 974 203.58488888888888" stroke-width="2.0" fill="none" />
    
        
        
        <text x="45.0" font-family="-apple-system, system-ui, BlinkMacSystemFont, Roboto" y="50.0" dominant-baseline="middle" text-anchor="end" font-size="12" fill="#24292f">13500.0</text>
        
            
            <path stroke="#74838f" stroke-dasharray="10 6" stroke-width="0.5"  d="M 50.0 50.0 L 974.0 50.0" />
        
    
        
        
        <text x="45.0" font-family="-apple-system, system-ui, BlinkMacSystemFont, Roboto" y="81.2" dominant-baseline="middle" text-anchor="end" font-size="12" fill="#24292f">10800.0</text>
        
            
            
            <path stroke="#74838f" stroke-dasharray="10 6" stroke-width="0.5"  d="M 50.0 81.2 L 974.0 81.2" />
        
    
        
        
        <text x="45.0" font-family="-apple-system, system-ui, BlinkMacSystemFont, Roboto" y="112.4" dominant-baseline="middle" text-anchor="end" font-size="12" fill="#24292f">8100.0</text>
        
            
            
            <path stroke="#74838f" stroke-dasharray="10 6" stroke-width="0.5"  d="M 50.0 112.4 L 974.0 112.4" />
        
    
        
        
        <text x="45.0" font-family="-apple-system, system-ui, BlinkMacSystemFont, Roboto" y="143.6" dominant-baseline="middle" text-anchor="end" font-size="12" fill="#24292f">5400.0</text>
        
            
            
            <path stroke="#74838f" stroke-dasharray="10 6" stroke-width="0.5"  d="M 50.0 143.6 L 974.0 143.6" />
        
    
        
        
        <text x="45.0" font-family="-apple-system, system-ui, BlinkMacSystemFont, Roboto" y="174.8" dominant-baseline="middle" text-anchor="end" font-size="12" fill="#24292f">2700.0</text>
        
            
            
            <path stroke="#74838f" stroke-dasharray="10 6" stroke-width="0.5"  d="M 50.0 174.8 L 974.0 174.8" />
        
    
        
        
        <text x="45.0" font-family="-apple-system, system-ui, BlinkMacSystemFont, Roboto" y="206.0" dominant-baseline="middle" text-anchor="end" font-size="12" fill="#24292f">0.0</text>
        
    
    
        
        <path stroke="#74838f"  stroke-width="2.0"  d="M 80.67219917012449 206.0 L 80.67219917012449 214.0" />
        <text x="80.67219917012449" font-family="-apple-system, system-ui, BlinkMacSystemFont, Roboto" y="216.0" dominant-baseline="hanging" text-anchor="middle" font-size="12" fill="#24292f">Mar 2022</text>
    
        
        <path stroke="#74838f"  stroke-width="2.0"  d="M 140.09958506224066 206.0 L 140.09958506224066 214.0" />
        <text x="140.09958506224066" font-family="-apple-system, system-ui, BlinkMacSystemFont, Roboto" y="216.0" dominant-baseline="hanging" text-anchor="middle" font-size="12" fill="#24292f">Apr 2022</text>
    
        
        <path stroke="#74838f"  stroke-width="2.0"  d="M 197.60995850622405 206.0 L 197.60995850622405 214.0" />
        <text x="197.60995850622405" font-family="-apple-system, system-ui, BlinkMacSystemFont, Roboto" y="216.0" dominant-baseline="hanging" text-anchor="middle" font-size="12" fill="#24292f">May 2022</text>
    
        
        <path stroke="#74838f"  stroke-width="2.0"  d="M 257.0373443983402 206.0 L 257.0373443983402 214.0" />
        <text x="257.0373443983402" font-family="-apple-system, system-ui, BlinkMacSystemFont, Roboto" y="216.0" dominant-baseline="hanging" text-anchor="middle" font-size="12" fill="#24292f">Jun 2022</text>
    
        
        <path stroke="#74838f"  stroke-width="2.0"  d="M 314.5477178423236 206.0 L 314.5477178423236 214.0" />
        <text x="314.5477178423236" font-family="-apple-system, system-ui, BlinkMacSystemFont, Roboto" y="216.0" dominant-baseline="hanging" text-anchor="middle" font-size="12" fill="#24292f">Jul 2022</text>
    
        
        <path stroke="#74838f"  stroke-width="2.0"  d="M 373.9751037344398 206.0 L 373.9751037344398 214.0" />
        <text x="373.9751037344398" font-family="-apple-system, system-ui, BlinkMacSystemFont, Roboto" y="216.0" dominant-baseline="hanging" text-anchor="middle" font-size="12" fill="#24292f">Aug 2022</text>
    
        
        <path stroke="#74838f"  stroke-width="2.0"  d="M 433.402489626556 206.0 L 433.402489626556 214.0" />
        <text x="433.402489626556" font-family="-apple-system, system-ui, BlinkMacSystemFont, Roboto" y="216.0" dominant-baseline="hanging" text-anchor="middle" font-size="12" fill="#24292f">Sep 2022</text>
    
        
        <path stroke="#74838f"  stroke-width="2.0"  d="M 490.91286307053946 206.0 L 490.91286307053946 214.0" />
        <text x="490.91286307053946" font-family="-apple-system, system-ui, BlinkMacSystemFont, Roboto" y="216.0" dominant-baseline="hanging" text-anchor="middle" font-size="12" fill="#24292f">Oct 2022</text>
    
        
        <path stroke="#74838f"  stroke-width="2.0"  d="M 550.3402489626556 206.0 L 550.3402489626556 214.0" />
        <text x="550.3402489626556" font-family="-apple-system, system-ui, BlinkMacSystemFont, Roboto" y="216.0" dominant-baseline="hanging" text-anchor="middle" font-size="12" fill="#24292f">Nov 2022</text>
    
        
        <path stroke="#74838f"  stroke-width="2.0"  d="M 607.850622406639 206.0 L 607.850622406639 214.0" />
        <text x="607.850622406639" font-family="-apple-system, system-ui, BlinkMacSystemFont, Roboto" y="216.0" dominant-baseline="hanging" text-anchor="middle" font-size="12" fill="#24292f">Dec 2022</text>
    
        
        <path stroke="#74838f"  stroke-width="2.0"  d="M 667.2780082987551 206.0 L 667.2780082987551 214.0" />
        <text x="667.2780082987551" font-family="-apple-system, system-ui, BlinkMacSystemFont, Roboto" y="216.0" dominant-baseline="hanging" text-anchor="middle" font-size="12" fill="#24292f">Jan 2023</text>
    
        
        <path stroke="#74838f"  stroke-width="2.0"  d="M 726.7053941908713 206.0 L 726.7053941908713 214.0" />
        <text x="726.7053941908713" font-family="-apple-system, system-ui, BlinkMacSystemFont, Roboto" y="216.0" dominant-baseline="hanging" text-anchor="middle" font-size="12" fill="#24292f">Feb 2023</text>
    
        
        <path stroke="#74838f"  stroke-width="2.0"  d="M 780.3817427385892 206.0 L 780.3817427385892 214.0" />
        <text x="780.3817427385892" font-family="-apple-system, system-ui, BlinkMacSystemFont, Roboto" y="216.0" dominant-baseline="hanging" text-anchor="middle" font-size="12" fill="#24292f">Mar 2023</text>
    
        
        <path stroke="#74838f"  stroke-width="2.0"  d="M 839.8091286307053 206.0 L 839.8091286307053 214.0" />
        <text x="839.8091286307053" font-family="-apple-system, system-ui, BlinkMacSystemFont, Roboto" y="216.0" dominant-baseline="hanging" text-anchor="middle" font-size="12" fill="#24292f">Apr 2023</text>
    
        
        <path stroke="#74838f"  stroke-width="2.0"  d="M 897.3195020746888 206.0 L 897.3195020746888 214.0" />
        <text x="897.3195020746888" font-family="-apple-system, system-ui, BlinkMacSystemFont, Roboto" y="216.0" dominant-baseline="hanging" text-anchor="middle" font-size="12" fill="#24292f">May 2023</text>
    
        
        <path stroke="#74838f"  stroke-width="2.0"  d="M 956.7468879668049 206.0 L 956.7468879668049 214.0" />
        <text x="956.7468879668049" font-family="-apple-system, system-ui, BlinkMacSystemFont, Roboto" y="216.0" dominant-baseline="hanging" text-anchor="middle" font-size="12" fill="#24292f">Jun 2023</text>
    
    <path stroke="#74838f"   stroke-linejoin="round" stroke-width="2.0" d="M 50.0 216.0 L 50.0 206.0 L 974.0 206.0 L 974.0 216.0"  fill="none" />
    <text x="512.0" y="25.0" font-family="-apple-system, system-ui, BlinkMacSystemFont, Roboto" dominant-baseline="middle" text-anchor="middle" font-size="18" fill="#24292f">Total daily suspensions</text>
</svg>
