<?xml version="1.0" standalone="no"?>
<svg width="1024.0" height="256.0"  viewBox="0 0 1024.0 256.0" preserveAspectRatio="xMidYMid meet" xmlns="http://www.w3.org/2000/svg">
    <path stroke="#e74c3c" stroke-linejoin="round" d="M 50.0 161.108 L 50 161.108L 53.335740072202164 193.664L 56.671480144404335 197.576L 60.0072202166065 197.924L 63.34296028880867 203.528L 66.67870036101083 199.94L 70.014440433213 199.268L 73.35018050541515 191.108L 76.68592057761734 200.972L 80.0216606498195 198.62L 83.35740072202165 200L 86.69314079422384 202.57999999999998L 90.028880866426 199.208L 93.36462093862815 195.608L 96.70036101083032 202.652L 100.03610108303249 198.716L 103.37184115523466 197.49200000000002L 106.70758122743682 191.42000000000002L 110.04332129963899 196.688L 113.37906137184116 199.46L 116.71480144404332 199.328L 120.05054151624549 198.308L 123.38628158844766 198.164L 126.72202166064982 199.832L 130.057761732852 194.876L 133.39350180505414 199.904L 136.7292418772563 195.584L 140.06498194945848 200.732L 143.40072202166064 198.416L 146.73646209386283 190.652L 150.07220216606498 196.112L 153.40794223826714 190.82L 156.74368231046932 193.53199999999998L 160.07942238267148 199.688L 163.41516245487364 192.392L 166.75090252707582 197L 170.08664259927798 199.59199999999998L 173.42238267148014 193.54399999999998L 176.75812274368232 195.26L 180.09386281588448 195.428L 183.42960288808663 195.548L 186.7653429602888 196.484L 190.10108303249098 199.424L 193.43682310469316 199.22L 196.77256317689532 195.656L 200.10830324909747 193.952L 203.44404332129963 195.536L 206.7797833935018 198.764L 210.11552346570397 195.428L 213.45126353790613 194L 216.78700361010831 193.688L 220.12274368231047 186.32L 223.45848375451263 197.372L 226.7942238267148 195.96800000000002L 230.12996389891697 198.284L 233.46570397111913 194.38400000000001L 236.80144404332128 196.424L 240.13718411552347 196.988L 243.47292418772562 198.368L 246.8086642599278 198.05599999999998L 250.14440433212997 199.61599999999999L 253.48014440433212 191.54L 256.8158844765343 202.124L 260.15162454873644 193.34L 263.48736462093865 204.2L 266.8231046931408 206L 270.15884476534296 206L 273.4945848375451 206L 276.8303249097473 206L 280.16606498194943 190.472L 283.50180505415165 159.01999999999998L 286.8375451263538 193.56799999999998L 290.17328519855596 200.228L 293.5090252707581 193.232L 296.8447653429603 196.82L 300.18050541516243 199.772L 303.51624548736464 186.548L 306.8519855595668 197.888L 310.18772563176896 195.596L 313.5234657039711 190.508L 316.85920577617327 194.876L 320.1949458483754 190.4L 323.5306859205776 188.756L 326.8664259927798 197.852L 330.20216606498195 199.772L 333.5379061371841 191.936L 336.8736462093863 191.864L 340.2093862815885 199.316L 343.54512635379064 194.708L 346.8808664259928 192.608L 350.21660649819495 194.9L 353.5523465703971 199.7L 356.88808664259926 189.224L 360.2238267148014 198.428L 363.5595667870036 196.136L 366.8953068592058 195.296L 370.23104693140795 196.268L 373.5667870036101 193.184L 376.90252707581226 197.204L 380.2382671480145 193.856L 383.57400722021663 197.096L 386.9097472924188 178.16L 390.24548736462094 194.372L 393.5812274368231 195.92000000000002L 396.91696750902526 195.11599999999999L 400.2527075812274 196.688L 403.5884476534296 197.49200000000002L 406.9241877256318 197.696L 410.25992779783394 186.848L 413.5956678700361 192.644L 416.93140794223825 199.61599999999999L 420.2671480144404 193.052L 423.60288808664257 191.072L 426.9386281588448 195.44L 430.27436823104694 196.184L 433.6101083032491 196.46L 436.94584837545125 197.312L 440.28158844765346 193.076L 443.6173285198556 206L 446.9530685920578 186.44L 450.28880866425993 186.632L 453.6245487364621 191.276L 456.96028880866425 180.93200000000002L 460.2960288808664 201.704L 463.63176895306856 185.744L 466.9675090252707 196.028L 470.30324909747293 189.464L 473.6389891696751 194.228L 476.9747292418773 195.632L 480.31046931407946 196.844L 483.6462093862816 186.332L 486.98194945848377 197.99599999999998L 490.3176895306859 188.924L 493.6534296028881 189.128L 496.98916967509024 196.748L 500.3249097472924 182.45600000000002L 503.66064981949455 184.16L 506.9963898916967 206L 510.33212996389886 206L 513.6678700361011 206L 517.0036101083033 160.16L 520.3393501805054 198.536L 523.6750902527076 196.60399999999998L 527.0108303249098 195.668L 530.3465703971119 192.8L 533.6823104693141 196.964L 537.0180505415162 197.828L 540.3537906137184 200.84L 543.6895306859205 170.312L 547.0252707581227 189.236L 550.3610108303249 177.428L 553.6967509025271 191.564L 557.0324909747293 178.784L 560.3682310469314 176.372L 563.7039711191336 181.7L 567.0397111913358 187.472L 570.3754512635379 192.88400000000001L 573.7111913357401 189.38L 577.0469314079422 187.772L 580.3826714801445 189.404L 583.7184115523465 187.532L 587.0541516245488 193.59199999999998L 590.3898916967509 185.036L 593.7256317689531 171.332L 597.0613718411552 180.14L 600.3971119133574 172.316L 603.7328519855596 193.028L 607.0685920577617 191.996L 610.4043321299639 193.052L 613.7400722021661 194.84L 617.0758122743682 193.53199999999998L 620.4115523465704 194.024L 623.7472924187726 189.272L 627.0830324909747 195.188L 630.418772563177 196.256L 633.754512635379 192.62L 637.0902527075813 190.844L 640.4259927797834 200.984L 643.7617328519856 184.796L 647.0974729241877 190.88L 650.4332129963899 194.42000000000002L 653.768953068592 189.86L 657.1046931407942 195.86L 660.4404332129964 191.984L 663.7761732851985 193.1L 667.1119133574008 186.464L 670.4476534296028 190.46L 673.7833935018051 182.156L 677.1191335740072 187.136L 680.4548736462094 191.528L 683.7906137184116 184.1L 687.1263537906137 189.14L 690.4620938628159 185.204L 693.797833935018 185.468L 697.1335740072202 176.828L 700.4693140794224 189.04399999999998L 703.8050541516245 191.048L 707.1407942238267 188.756L 710.476534296029 187.592L 713.812274368231 191.39600000000002L 717.1480144404333 187.796L 720.4837545126354 188.228L 723.8194945848376 190.268L 727.1552346570397 194.372L 730.4909747292419 194.72L 733.826714801444 201.308L 737.1624548736462 192.752L 740.4981949458484 181.148L 743.8339350180505 181.748L 747.1696750902527 181.208L 750.5054151624548 191.3L 753.841155234657 186.88400000000001L 757.1768953068593 181.376L 760.5126353790614 186.5L 763.8483754512636 188.44400000000002L 767.1841155234657 179.66L 770.5198555956679 183.09199999999998L 773.85559566787 173.564L 777.1913357400722 183.836L 780.5270758122743 171.668L 783.8628158844765 148.148L 787.1985559566787 178.004L 790.5342960288808 141.86L 793.8700361010831 186.128L 797.2057761732851 188.54000000000002L 800.5415162454874 187.748L 803.8772563176896 193.256L 807.2129963898917 186.596L 810.5487364620939 185.42000000000002L 813.884476534296 186.872L 817.2202166064982 185.372L 820.5559566787003 192.824L 823.8916967509025 188.552L 827.2274368231047 189.32L 830.5631768953069 186.632L 833.898916967509 185.768L 837.2346570397112 188.744L 840.5703971119133 187.34L 843.9061371841156 192.488L 847.2418772563177 187.028L 850.5776173285199 185.468L 853.913357400722 181.928L 857.2490974729242 183.8L 860.5848375451263 180.296L 863.9205776173285 185.516L 867.2563176895308 194L 870.5920577617328 190.328L 873.9277978339351 186.584L 877.2635379061371 168.32L 880.5992779783394 117.5L 883.9350180505414 189.10399999999998L 887.2707581227437 187.844L 890.6064981949459 190.28L 893.942238267148 192.32L 897.2779783393502 189.2L 900.6137184115523 182.288L 903.9494584837546 188.49200000000002L 907.2851985559566 178.916L 910.6209386281589 53.432000000000016L 913.956678700361 162.656L 917.2924187725632 184.52L 920.6281588447653 182.708L 923.9638989169675 183.68L 927.2996389891696 184.196L 930.6353790613719 179.084L 933.971119133574 190.16L 937.3068592057762 180.476L 940.6425992779784 160.916L 943.9783393501805 121.196L 947.3140794223827 151.50799999999998L 950.6498194945848 164.132L 953.9855595667871 181.184L 957.3212996389891 170.49200000000002L 960.6570397111914 179.792L 963.9927797833934 173.504L 967.3285198555957 178.088L 970.6642599277977 182.792L 974 199.676" stroke-width="2.0" fill="none" />
    
        
        
        <text x="45.0" font-family="-apple-system, system-ui, BlinkMacSystemFont, Roboto" y="50.0" dominant-baseline="middle" text-anchor="end" font-size="12" fill="#24292f">13000.0</text>
        
            
            <path stroke="#74838f" stroke-dasharray="10 6" stroke-width="0.5"  d="M 50.0 50.0 L 974.0 50.0" />
        
    
        
        
        <text x="45.0" font-family="-apple-system, system-ui, BlinkMacSystemFont, Roboto" y="81.2" dominant-baseline="middle" text-anchor="end" font-size="12" fill="#24292f">10400.0</text>
        
            
            
            <path stroke="#74838f" stroke-dasharray="10 6" stroke-width="0.5"  d="M 50.0 81.2 L 974.0 81.2" />
        
    
        
        
        <text x="45.0" font-family="-apple-system, system-ui, BlinkMacSystemFont, Roboto" y="112.4" dominant-baseline="middle" text-anchor="end" font-size="12" fill="#24292f">7800.0</text>
        
            
            
            <path stroke="#74838f" stroke-dasharray="10 6" stroke-width="0.5"  d="M 50.0 112.4 L 974.0 112.4" />
        
    
        
        
        <text x="45.0" font-family="-apple-system, system-ui, BlinkMacSystemFont, Roboto" y="143.6" dominant-baseline="middle" text-anchor="end" font-size="12" fill="#24292f">5200.0</text>
        
            
            
            <path stroke="#74838f" stroke-dasharray="10 6" stroke-width="0.5"  d="M 50.0 143.6 L 974.0 143.6" />
        
    
        
        
        <text x="45.0" font-family="-apple-system, system-ui, BlinkMacSystemFont, Roboto" y="174.8" dominant-baseline="middle" text-anchor="end" font-size="12" fill="#24292f">2600.0</text>
        
            
            
            <path stroke="#74838f" stroke-dasharray="10 6" stroke-width="0.5"  d="M 50.0 174.8 L 974.0 174.8" />
        
    
        
        
        <text x="45.0" font-family="-apple-system, system-ui, BlinkMacSystemFont, Roboto" y="206.0" dominant-baseline="middle" text-anchor="end" font-size="12" fill="#24292f">0.0</text>
        
    
    
        
        <path stroke="#74838f"  stroke-width="2.0"  d="M 103.37184115523466 206.0 L 103.37184115523466 214.0" />
        <text x="103.37184115523466" font-family="-apple-system, system-ui, BlinkMacSystemFont, Roboto" y="216.0" dominant-baseline="hanging" text-anchor="middle" font-size="12" fill="#24292f">Mar 2022</text>
    
        
        <path stroke="#74838f"  stroke-width="2.0"  d="M 206.7797833935018 206.0 L 206.7797833935018 214.0" />
        <text x="206.7797833935018" font-family="-apple-system, system-ui, BlinkMacSystemFont, Roboto" y="216.0" dominant-baseline="hanging" text-anchor="middle" font-size="12" fill="#24292f">Apr 2022</text>
    
        
        <path stroke="#74838f"  stroke-width="2.0"  d="M 306.8519855595668 206.0 L 306.8519855595668 214.0" />
        <text x="306.8519855595668" font-family="-apple-system, system-ui, BlinkMacSystemFont, Roboto" y="216.0" dominant-baseline="hanging" text-anchor="middle" font-size="12" fill="#24292f">May 2022</text>
    
        
        <path stroke="#74838f"  stroke-width="2.0"  d="M 410.25992779783394 206.0 L 410.25992779783394 214.0" />
        <text x="410.25992779783394" font-family="-apple-system, system-ui, BlinkMacSystemFont, Roboto" y="216.0" dominant-baseline="hanging" text-anchor="middle" font-size="12" fill="#24292f">Jun 2022</text>
    
        
        <path stroke="#74838f"  stroke-width="2.0"  d="M 510.33212996389886 206.0 L 510.33212996389886 214.0" />
        <text x="510.33212996389886" font-family="-apple-system, system-ui, BlinkMacSystemFont, Roboto" y="216.0" dominant-baseline="hanging" text-anchor="middle" font-size="12" fill="#24292f">Jul 2022</text>
    
        
        <path stroke="#74838f"  stroke-width="2.0"  d="M 613.7400722021661 206.0 L 613.7400722021661 214.0" />
        <text x="613.7400722021661" font-family="-apple-system, system-ui, BlinkMacSystemFont, Roboto" y="216.0" dominant-baseline="hanging" text-anchor="middle" font-size="12" fill="#24292f">Aug 2022</text>
    
        
        <path stroke="#74838f"  stroke-width="2.0"  d="M 717.1480144404333 206.0 L 717.1480144404333 214.0" />
        <text x="717.1480144404333" font-family="-apple-system, system-ui, BlinkMacSystemFont, Roboto" y="216.0" dominant-baseline="hanging" text-anchor="middle" font-size="12" fill="#24292f">Sep 2022</text>
    
        
        <path stroke="#74838f"  stroke-width="2.0"  d="M 817.2202166064982 206.0 L 817.2202166064982 214.0" />
        <text x="817.2202166064982" font-family="-apple-system, system-ui, BlinkMacSystemFont, Roboto" y="216.0" dominant-baseline="hanging" text-anchor="middle" font-size="12" fill="#24292f">Oct 2022</text>
    
        
        <path stroke="#74838f"  stroke-width="2.0"  d="M 920.6281588447653 206.0 L 920.6281588447653 214.0" />
        <text x="920.6281588447653" font-family="-apple-system, system-ui, BlinkMacSystemFont, Roboto" y="216.0" dominant-baseline="hanging" text-anchor="middle" font-size="12" fill="#24292f">Nov 2022</text>
    
    <path stroke="#74838f"   stroke-linejoin="round" stroke-width="2.0" d="M 50.0 216.0 L 50.0 206.0 L 974.0 206.0 L 974.0 216.0"  fill="none" />
    <text x="512.0" y="25.0" font-family="-apple-system, system-ui, BlinkMacSystemFont, Roboto" dominant-baseline="middle" text-anchor="middle" font-size="18" fill="#24292f">Total daily suspensions</text>
</svg>
