<?xml version="1.0" standalone="no"?>
<svg width="1024.0" height="256.0"  viewBox="0 0 1024.0 256.0" preserveAspectRatio="xMidYMid meet" xmlns="http://www.w3.org/2000/svg">
    <path stroke="#e74c3c" stroke-linejoin="round" d="M 50.0 162.77066666666667 L 50 162.77066666666667L 51.937106918238996 194.12088888888889L 53.874213836477985 197.888L 55.81132075471698 198.2231111111111L 57.74842767295598 203.61955555555556L 59.685534591194966 200.16444444444443L 61.62264150943396 199.51733333333334L 63.55974842767296 191.65955555555556L 65.49685534591195 201.1582222222222L 67.43396226415095 198.89333333333332L 69.37106918238993 200.22222222222223L 71.30817610062893 202.70666666666665L 73.24528301886792 199.45955555555554L 75.18238993710692 195.9928888888889L 77.11949685534591 202.776L 79.05660377358491 198.98577777777777L 80.9937106918239 197.8071111111111L 82.93081761006289 191.96L 84.86792452830188 197.0328888888889L 86.80503144654088 199.70222222222222L 88.74213836477988 199.5751111111111L 90.67924528301887 198.5928888888889L 92.61635220125785 198.45422222222223L 94.55345911949686 200.06044444444444L 96.49056603773585 195.288L 98.42767295597484 200.12977777777778L 100.36477987421384 195.96977777777778L 102.30188679245283 200.92711111111112L 104.23899371069183 198.6968888888889L 106.17610062893081 191.22044444444444L 108.11320754716982 196.47822222222223L 110.0503144654088 191.38222222222223L 111.9874213836478 193.99377777777778L 113.9245283018868 199.92177777777778L 115.86163522012578 192.89600000000002L 117.79874213836479 197.33333333333334L 119.73584905660377 199.82933333333332L 121.67295597484278 194.00533333333334L 123.61006289308176 195.65777777777777L 125.54716981132076 195.81955555555555L 127.48427672955975 195.9351111111111L 129.42138364779873 196.83644444444445L 131.35849056603774 199.66755555555557L 133.29559748427673 199.4711111111111L 135.2327044025157 196.0391111111111L 137.16981132075472 194.39822222222222L 139.10691823899373 195.92355555555554L 141.04402515723268 199.03199999999998L 142.9811320754717 195.81955555555555L 144.9182389937107 194.44444444444446L 146.85534591194968 194.144L 148.79245283018867 187.04888888888888L 150.72955974842768 197.69155555555557L 152.66666666666666 196.33955555555556L 154.60377358490567 198.56977777777777L 156.54088050314465 194.8142222222222L 158.47798742138366 196.77866666666665L 160.41509433962264 197.32177777777778L 162.35220125786162 198.65066666666667L 164.28930817610063 198.35022222222221L 166.22641509433964 199.85244444444444L 168.16352201257862 192.07555555555555L 170.1006289308176 202.26755555555556L 172.03773584905662 193.80888888888887L 173.9748427672956 204.26666666666665L 175.91194968553458 206L 177.8490566037736 206L 179.78616352201257 206L 181.72327044025155 206L 183.66037735849056 191.04711111111112L 185.59748427672957 160.76L 187.53459119496856 194.02844444444446L 189.47169811320754 200.4417777777778L 191.40880503144655 193.7048888888889L 193.34591194968556 197.16L 195.2830188679245 200.00266666666667L 197.22012578616352 187.26844444444444L 199.15723270440253 198.18844444444443L 201.0943396226415 195.98133333333334L 203.0314465408805 191.08177777777777L 204.9685534591195 195.288L 206.9056603773585 190.97777777777776L 208.8427672955975 189.39466666666667L 210.77987421383648 198.15377777777778L 212.71698113207546 200.00266666666667L 214.65408805031447 192.4568888888889L 216.59119496855345 192.38755555555556L 218.52830188679243 199.56355555555555L 220.46540880503144 195.13777777777779L 222.40251572327045 193.10399999999998L 224.33962264150944 195.3111111111111L 226.27672955974842 199.93333333333334L 228.21383647798743 189.84533333333331L 230.15094339622644 198.70844444444444L 232.0880503144654 196.50133333333332L 234.0251572327044 195.69244444444445L 235.9622641509434 196.62844444444445L 237.8993710691824 193.65866666666668L 239.83647798742138 197.52977777777778L 241.77358490566039 194.3057777777778L 243.71069182389937 197.4257777777778L 245.64779874213838 179.19111111111113L 247.58490566037736 194.80266666666665L 249.52201257861634 196.29333333333335L 251.45911949685535 195.5191111111111L 253.39622641509433 197.0328888888889L 255.33333333333331 197.8071111111111L 257.2704402515723 198.00355555555555L 259.20754716981133 187.55733333333333L 261.1446540880503 193.13866666666667L 263.0817610062893 199.85244444444444L 265.0188679245283 193.53155555555554L 266.9559748427673 191.6248888888889L 268.8930817610063 195.8311111111111L 270.8301886792453 196.54755555555556L 272.7672955974843 196.81333333333333L 274.70440251572325 197.63377777777777L 276.64150943396226 193.55466666666666L 278.57861635220127 206L 280.5157232704403 187.16444444444446L 282.4528301886793 187.34933333333333L 284.3899371069182 191.8213333333333L 286.32704402515725 181.86044444444445L 288.2641509433962 201.8631111111111L 290.2012578616352 186.49422222222222L 292.1383647798742 196.39733333333334L 294.07547169811323 190.07644444444443L 296.0125786163522 194.664L 297.9496855345912 196.016L 299.88679245283015 197.18311111111112L 301.82389937106916 187.06044444444444L 303.76100628930817 198.29244444444444L 305.6981132075472 189.55644444444445L 307.63522012578613 189.7528888888889L 309.57232704402514 197.09066666666666L 311.50943396226415 183.328L 313.4465408805031 184.9688888888889L 315.3836477987422 206L 317.3207547169811 206L 319.2578616352201 206L 321.19496855345915 161.85777777777778L 323.1320754716981 198.81244444444445L 325.0691823899371 196.952L 327.0062893081761 196.05066666666667L 328.9433962264151 193.2888888888889L 330.8805031446541 197.29866666666666L 332.8176100628931 198.13066666666668L 334.75471698113205 201.0311111111111L 336.6918238993711 171.63377777777777L 338.62893081761007 189.85688888888888L 340.566037735849 178.4862222222222L 342.5031446540881 192.09866666666667L 344.44025157232704 179.792L 346.377358490566 177.46933333333334L 348.31446540880506 182.6L 350.251572327044 188.1582222222222L 352.188679245283 193.36977777777778L 354.12578616352204 189.99555555555554L 356.062893081761 188.4471111111111L 358 190.01866666666666L 359.937106918239 188.216L 361.87421383647796 194.05155555555555L 363.811320754717 185.81244444444445L 365.748427672956 172.61599999999999L 367.685534591195 181.09777777777776L 369.62264150943395 173.56355555555555L 371.55974842767296 193.50844444444445L 373.49685534591197 192.51466666666667L 375.4339622641509 193.53155555555554L 377.37106918238993 195.25333333333333L 379.30817610062894 193.99377777777778L 381.2452830188679 194.46755555555555L 383.1823899371069 189.89155555555556L 385.1194968553459 195.58844444444446L 387.05660377358487 196.6168888888889L 388.99371069182394 193.11555555555555L 390.9308176100629 191.40533333333332L 392.86792452830184 201.16977777777777L 394.8050314465409 185.58133333333333L 396.74213836477986 191.44L 398.6792452830189 194.8488888888889L 400.6163522012579 190.45777777777778L 402.55345911949684 196.23555555555555L 404.49056603773585 192.5031111111111L 406.42767295597486 193.57777777777778L 408.3647798742138 187.18755555555555L 410.3018867924529 191.03555555555556L 412.23899371069183 183.0391111111111L 414.1761006289308 187.83466666666666L 416.11320754716985 192.064L 418.0503144654088 184.9111111111111L 419.98742138364776 189.76444444444445L 421.9245283018868 185.97422222222224L 423.8616352201258 186.22844444444445L 425.7987421383648 177.8968888888889L 427.7358490566038 189.672L 429.67295597484275 191.60177777777778L 431.61006289308176 189.39466666666667L 433.54716981132077 188.27377777777778L 435.4842767295597 191.9368888888889L 437.42138364779873 188.47022222222222L 439.35849056603774 188.88622222222222L 441.29559748427675 190.85066666666665L 443.2327044025157 194.80266666666665L 445.1698113207547 195.13777777777779L 447.1069182389937 201.48177777777778L 449.0440251572327 193.24266666666665L 450.9811320754717 182.06844444444445L 452.9182389937107 182.64622222222224L 454.85534591194966 182.12622222222222L 456.79245283018867 191.84444444444443L 458.7295597484277 187.592L 460.66666666666663 182.288L 462.6037735849057 187.22222222222223L 464.54088050314465 189.09422222222221L 466.4779874213836 180.63555555555556L 468.41509433962267 183.94044444444444L 470.3522012578616 174.76533333333333L 472.2893081761006 184.6568888888889L 474.22641509433964 172.93955555555556L 476.1635220125786 150.29066666666665L 478.1006289308176 179.0408888888889L 480.0377358490566 144.23555555555555L 481.97484276729557 186.864L 483.91194968553464 189.18666666666667L 485.8490566037736 188.424L 487.78616352201254 193.728L 489.7232704402516 187.31466666666665L 491.66037735849056 186.1822222222222L 493.5974842767296 187.58044444444445L 495.5345911949686 186.136L 497.47169811320754 193.312L 499.40880503144655 189.19822222222223L 501.34591194968556 189.9377777777778L 503.2830188679245 187.34933333333333L 505.2201257861635 186.51733333333334L 507.15723270440253 189.3831111111111L 509.0943396226415 188.0311111111111L 511.0314465408805 192.98844444444444L 512.9685534591194 187.73066666666668L 514.9056603773586 186.22844444444445L 516.8427672955975 182.81955555555555L 518.7798742138364 184.6222222222222L 520.7169811320755 181.248L 522.6540880503145 186.27466666666666L 524.5911949685534 194.44444444444446L 526.5283018867924 190.90844444444446L 528.4654088050315 187.30311111111112L 530.4025157232704 169.71555555555557L 532.3396226415094 120.77777777777779L 534.2767295597484 189.72977777777777L 536.2138364779873 188.51644444444446L 538.1509433962265 190.86222222222221L 540.0880503144654 192.82666666666665L 542.0251572327044 189.82222222222222L 543.9622641509434 183.16622222222222L 545.8993710691824 189.14044444444443L 547.8364779874214 179.9191111111111L 549.7735849056603 59.082666666666654L 551.7106918238994 164.26133333333334L 553.6477987421383 185.31555555555556L 555.5849056603773 183.57066666666668L 557.5220125786163 184.50666666666666L 559.4591194968552 185.00355555555555L 561.3962264150944 180.0808888888889L 563.3333333333334 190.74666666666667L 565.2704402515723 181.42133333333334L 567.2075471698113 162.58577777777776L 569.1446540880503 124.3368888888889L 571.0817610062893 153.52622222222223L 573.0188679245283 165.68266666666668L 574.9559748427673 182.1031111111111L 576.8930817610062 171.8071111111111L 578.8301886792452 180.76266666666666L 580.7672955974843 174.41866666666667L 582.7044025157232 179.376L 584.6415094339623 183.65155555555555L 586.5786163522013 178.22044444444444L 588.5157232704402 185.03822222222223L 590.4528301886792 188.47022222222222L 592.3899371069183 189.00177777777776L 594.3270440251573 185.52355555555556L 596.2641509433962 182.7848888888889L 598.2012578616352 182.69244444444445L 600.1383647798742 180.34666666666666L 602.0754716981132 169.5768888888889L 604.0125786163522 182.704L 605.9496855345913 186.136L 607.8867924528302 169.12622222222222L 609.8238993710692 143.0222222222222L 611.7610062893082 162.45866666666666L 613.6981132075472 153.67644444444443L 615.6352201257862 148.176L 617.5723270440252 157.16622222222222L 619.5094339622641 155.61777777777777L 621.4465408805031 164.63111111111112L 623.3836477987422 173.32088888888887L 625.3207547169811 151.0648888888889L 627.2578616352201 173.07822222222222L 629.1949685534591 173.70222222222222L 631.132075471698 173.74844444444443L 633.0691823899372 184.472L 635.0062893081762 167.77422222222222L 636.9433962264151 160.9911111111111L 638.8805031446541 173.8871111111111L 640.8176100628931 167L 642.754716981132 156.78488888888887L 644.6918238993711 175.07733333333334L 646.6289308176101 177.4L 648.566037735849 187.22222222222223L 650.503144654088 184.74933333333334L 652.440251572327 183.952L 654.377358490566 152.19733333333335L 656.3144654088051 183.96355555555556L 658.2515723270441 186.8871111111111L 660.188679245283 185.87022222222222L 662.125786163522 183.15466666666666L 664.062893081761 183.06222222222223L 666 183.02755555555555L 667.937106918239 176.10577777777777L 669.874213836478 182.87733333333333L 671.8113207547169 180.48533333333333L 673.7484276729559 185.56977777777777L 675.685534591195 180L 677.622641509434 176.984L 679.559748427673 178.20888888888888L 681.496855345912 179.8382222222222L 683.4339622641509 183.09688888888888L 685.37106918239 177.53866666666667L 687.308176100629 183.44355555555555L 689.2452830188679 178.09333333333333L 691.1823899371069 179.59555555555556L 693.1194968553459 183.02755555555555L 695.0566037735848 180.4622222222222L 696.9937106918239 178.04711111111112L 698.930817610063 186.89866666666666L 700.8679245283018 177.20355555555557L 702.8050314465409 179.07555555555555L 704.7421383647799 154.9591111111111L 706.6792452830189 133.512L 708.6163522012579 151.96622222222223L 710.5534591194969 151.57333333333332L 712.4905660377358 184.9111111111111L 714.4276729559748 185.28088888888888L 716.3647798742138 178.61333333333334L 718.3018867924528 142.39822222222222L 720.2389937106918 150.1751111111111L 722.1761006289308 164.04177777777778L 724.1132075471697 138.82755555555556L 726.0503144654087 134.864L 727.9874213836479 144.85955555555557L 729.9245283018868 145.57600000000002L 731.8616352201258 128.7048888888889L 733.7987421383648 120.36177777777777L 735.7358490566037 165.80977777777778L 737.6729559748428 163.51022222222224L 739.6100628930818 160.39022222222223L 741.5471698113207 177.504L 743.4842767295597 187.34933333333333L 745.4213836477987 188.04266666666666L 747.3584905660377 186.8871111111111L 749.2955974842768 176.08266666666668L 751.2327044025158 179.41066666666666L 753.1698113207548 195.0568888888889L 755.1069182389937 185.53511111111112L 757.0440251572327 183.6977777777778L 758.9811320754717 174.97333333333333L 760.9182389937107 178.61333333333334L 762.8553459119497 180.9591111111111L 764.7924528301887 184.0328888888889L 766.7295597484276 155.61777777777777L 768.6666666666666 149.7128888888889L 770.6037735849058 186.2631111111111L 772.5408805031446 191.28977777777777L 774.4779874213837 175.90933333333334L 776.4150943396227 175.49333333333334L 778.3522012578616 184.51822222222222L 780.2893081761007 189.69511111111112L 782.2264150943397 187.592L 784.1635220125786 180.09244444444445L 786.1006289308176 176.92622222222224L 788.0377358490566 163.31377777777777L 789.9748427672955 162.112L 791.9119496855346 167.1271111111111L 793.8490566037736 180.32355555555554L 795.7861635220125 184.11377777777778L 797.7232704402516 191.57866666666666L 799.6603773584906 195.54222222222222L 801.5974842767296 183.54755555555556L 803.5345911949686 164.03022222222222L 805.4716981132076 171.05599999999998L 807.4088050314465 169.92355555555557L 809.3459119496855 180.02311111111112L 811.2830188679245 172.07288888888888L 813.2201257861635 163.53333333333333L 815.1572327044025 171.34488888888887L 817.0943396226415 181.59466666666668L 819.0314465408804 179.80355555555556L 820.9685534591194 166.17955555555557L 822.9056603773586 154.92444444444445L 824.8427672955975 158.4488888888889L 826.7798742138365 156.4728888888889L 828.7169811320755 144.4551111111111L 830.6540880503144 158.52977777777778L 832.5911949685535 178.00088888888888L 834.5283018867925 144.99822222222224L 836.4654088050314 134.136L 838.4025157232704 139.8213333333333L 840.3396226415094 145.04444444444445L 842.2767295597483 153.168L 844.2138364779875 140.53777777777776L 846.1509433962265 113.86755555555555L 848.0880503144654 113.28977777777777L 850.0251572327044 164.85066666666665L 851.9622641509434 163.62577777777778L 853.8993710691824 150.16355555555555L 855.8364779874214 149.84L 857.7735849056604 56.54044444444443L 859.7106918238993 124.776L 861.6477987421383 64.07466666666667L 863.5849056603773 123.55111111111111L 865.5220125786163 157.536L 867.4591194968554 147.9911111111111L 869.3962264150944 136.22755555555557L 871.3333333333333 91.11466666666666L 873.2704402515723 107.36177777777779L 875.2075471698114 141.68177777777777L 877.1446540880503 157.73244444444444L 879.0817610062893 152.63644444444444L 881.0188679245283 96.22222222222221L 882.9559748427672 150.19822222222223L 884.8930817610063 116.57155555555556L 886.8301886792453 127.34133333333332L 888.7672955974842 180.53155555555554L 890.7044025157232 137.10577777777777L 892.6415094339623 122.64977777777779L 894.5786163522012 104.61155555555555L 896.5157232704403 141.76266666666666L 898.4528301886793 164.23822222222222L 900.3899371069183 160.51733333333334L 902.3270440251572 154.57777777777778L 904.2641509433962 175.01955555555554L 906.2012578616352 146.87022222222222L 908.1383647798742 153.23733333333334L 910.0754716981132 142.82577777777777L 912.0125786163522 130.98133333333334L 913.9496855345911 88.53777777777778L 915.8867924528302 174.488L 917.8238993710693 50.55466666666666L 919.7610062893082 84.43555555555557L 921.6981132075472 152.47466666666668L 923.6352201257862 114.90755555555555L 925.5723270440251 96.30311111111112L 927.5094339622642 171.46044444444445L 929.4465408805032 183.96355555555556L 931.3836477987421 169.87733333333333L 933.3207547169811 183.13155555555556L 935.2578616352201 171.992L 937.1949685534591 152.48622222222224L 939.1320754716982 169.704L 941.0691823899372 172.99733333333333L 943.0062893081761 164.61955555555556L 944.9433962264151 162.64355555555557L 946.8805031446541 170.51288888888888L 948.8176100628931 145.6568888888889L 950.7547169811321 159.81244444444445L 952.6918238993711 167.2542222222222L 954.62893081761 141.55466666666666L 956.566037735849 160.864L 958.503144654088 157.7208888888889L 960.440251572327 154.87822222222223L 962.377358490566 145.29866666666666L 964.3144654088051 177.65422222222222L 966.251572327044 119.73777777777778L 968.188679245283 144.96355555555556L 970.1257861635221 151.15733333333333L 972.062893081761 164.4231111111111L 974 203.11111111111111" stroke-width="2.0" fill="none" />
    
        
        
        <text x="45.0" font-family="-apple-system, system-ui, BlinkMacSystemFont, Roboto" y="50.0" dominant-baseline="middle" text-anchor="end" font-size="12" fill="#24292f">13500.0</text>
        
            
            <path stroke="#74838f" stroke-dasharray="10 6" stroke-width="0.5"  d="M 50.0 50.0 L 974.0 50.0" />
        
    
        
        
        <text x="45.0" font-family="-apple-system, system-ui, BlinkMacSystemFont, Roboto" y="81.2" dominant-baseline="middle" text-anchor="end" font-size="12" fill="#24292f">10800.0</text>
        
            
            
            <path stroke="#74838f" stroke-dasharray="10 6" stroke-width="0.5"  d="M 50.0 81.2 L 974.0 81.2" />
        
    
        
        
        <text x="45.0" font-family="-apple-system, system-ui, BlinkMacSystemFont, Roboto" y="112.4" dominant-baseline="middle" text-anchor="end" font-size="12" fill="#24292f">8100.0</text>
        
            
            
            <path stroke="#74838f" stroke-dasharray="10 6" stroke-width="0.5"  d="M 50.0 112.4 L 974.0 112.4" />
        
    
        
        
        <text x="45.0" font-family="-apple-system, system-ui, BlinkMacSystemFont, Roboto" y="143.6" dominant-baseline="middle" text-anchor="end" font-size="12" fill="#24292f">5400.0</text>
        
            
            
            <path stroke="#74838f" stroke-dasharray="10 6" stroke-width="0.5"  d="M 50.0 143.6 L 974.0 143.6" />
        
    
        
        
        <text x="45.0" font-family="-apple-system, system-ui, BlinkMacSystemFont, Roboto" y="174.8" dominant-baseline="middle" text-anchor="end" font-size="12" fill="#24292f">2700.0</text>
        
            
            
            <path stroke="#74838f" stroke-dasharray="10 6" stroke-width="0.5"  d="M 50.0 174.8 L 974.0 174.8" />
        
    
        
        
        <text x="45.0" font-family="-apple-system, system-ui, BlinkMacSystemFont, Roboto" y="206.0" dominant-baseline="middle" text-anchor="end" font-size="12" fill="#24292f">0.0</text>
        
    
    
        
        <path stroke="#74838f"  stroke-width="2.0"  d="M 80.9937106918239 206.0 L 80.9937106918239 214.0" />
        <text x="80.9937106918239" font-family="-apple-system, system-ui, BlinkMacSystemFont, Roboto" y="216.0" dominant-baseline="hanging" text-anchor="middle" font-size="12" fill="#24292f">Mar 2022</text>
    
        
        <path stroke="#74838f"  stroke-width="2.0"  d="M 141.04402515723268 206.0 L 141.04402515723268 214.0" />
        <text x="141.04402515723268" font-family="-apple-system, system-ui, BlinkMacSystemFont, Roboto" y="216.0" dominant-baseline="hanging" text-anchor="middle" font-size="12" fill="#24292f">Apr 2022</text>
    
        
        <path stroke="#74838f"  stroke-width="2.0"  d="M 199.15723270440253 206.0 L 199.15723270440253 214.0" />
        <text x="199.15723270440253" font-family="-apple-system, system-ui, BlinkMacSystemFont, Roboto" y="216.0" dominant-baseline="hanging" text-anchor="middle" font-size="12" fill="#24292f">May 2022</text>
    
        
        <path stroke="#74838f"  stroke-width="2.0"  d="M 259.20754716981133 206.0 L 259.20754716981133 214.0" />
        <text x="259.20754716981133" font-family="-apple-system, system-ui, BlinkMacSystemFont, Roboto" y="216.0" dominant-baseline="hanging" text-anchor="middle" font-size="12" fill="#24292f">Jun 2022</text>
    
        
        <path stroke="#74838f"  stroke-width="2.0"  d="M 317.3207547169811 206.0 L 317.3207547169811 214.0" />
        <text x="317.3207547169811" font-family="-apple-system, system-ui, BlinkMacSystemFont, Roboto" y="216.0" dominant-baseline="hanging" text-anchor="middle" font-size="12" fill="#24292f">Jul 2022</text>
    
        
        <path stroke="#74838f"  stroke-width="2.0"  d="M 377.37106918238993 206.0 L 377.37106918238993 214.0" />
        <text x="377.37106918238993" font-family="-apple-system, system-ui, BlinkMacSystemFont, Roboto" y="216.0" dominant-baseline="hanging" text-anchor="middle" font-size="12" fill="#24292f">Aug 2022</text>
    
        
        <path stroke="#74838f"  stroke-width="2.0"  d="M 437.42138364779873 206.0 L 437.42138364779873 214.0" />
        <text x="437.42138364779873" font-family="-apple-system, system-ui, BlinkMacSystemFont, Roboto" y="216.0" dominant-baseline="hanging" text-anchor="middle" font-size="12" fill="#24292f">Sep 2022</text>
    
        
        <path stroke="#74838f"  stroke-width="2.0"  d="M 495.5345911949686 206.0 L 495.5345911949686 214.0" />
        <text x="495.5345911949686" font-family="-apple-system, system-ui, BlinkMacSystemFont, Roboto" y="216.0" dominant-baseline="hanging" text-anchor="middle" font-size="12" fill="#24292f">Oct 2022</text>
    
        
        <path stroke="#74838f"  stroke-width="2.0"  d="M 555.5849056603773 206.0 L 555.5849056603773 214.0" />
        <text x="555.5849056603773" font-family="-apple-system, system-ui, BlinkMacSystemFont, Roboto" y="216.0" dominant-baseline="hanging" text-anchor="middle" font-size="12" fill="#24292f">Nov 2022</text>
    
        
        <path stroke="#74838f"  stroke-width="2.0"  d="M 613.6981132075472 206.0 L 613.6981132075472 214.0" />
        <text x="613.6981132075472" font-family="-apple-system, system-ui, BlinkMacSystemFont, Roboto" y="216.0" dominant-baseline="hanging" text-anchor="middle" font-size="12" fill="#24292f">Dec 2022</text>
    
        
        <path stroke="#74838f"  stroke-width="2.0"  d="M 673.7484276729559 206.0 L 673.7484276729559 214.0" />
        <text x="673.7484276729559" font-family="-apple-system, system-ui, BlinkMacSystemFont, Roboto" y="216.0" dominant-baseline="hanging" text-anchor="middle" font-size="12" fill="#24292f">Jan 2023</text>
    
        
        <path stroke="#74838f"  stroke-width="2.0"  d="M 733.7987421383648 206.0 L 733.7987421383648 214.0" />
        <text x="733.7987421383648" font-family="-apple-system, system-ui, BlinkMacSystemFont, Roboto" y="216.0" dominant-baseline="hanging" text-anchor="middle" font-size="12" fill="#24292f">Feb 2023</text>
    
        
        <path stroke="#74838f"  stroke-width="2.0"  d="M 788.0377358490566 206.0 L 788.0377358490566 214.0" />
        <text x="788.0377358490566" font-family="-apple-system, system-ui, BlinkMacSystemFont, Roboto" y="216.0" dominant-baseline="hanging" text-anchor="middle" font-size="12" fill="#24292f">Mar 2023</text>
    
        
        <path stroke="#74838f"  stroke-width="2.0"  d="M 848.0880503144654 206.0 L 848.0880503144654 214.0" />
        <text x="848.0880503144654" font-family="-apple-system, system-ui, BlinkMacSystemFont, Roboto" y="216.0" dominant-baseline="hanging" text-anchor="middle" font-size="12" fill="#24292f">Apr 2023</text>
    
        
        <path stroke="#74838f"  stroke-width="2.0"  d="M 906.2012578616352 206.0 L 906.2012578616352 214.0" />
        <text x="906.2012578616352" font-family="-apple-system, system-ui, BlinkMacSystemFont, Roboto" y="216.0" dominant-baseline="hanging" text-anchor="middle" font-size="12" fill="#24292f">May 2023</text>
    
        
        <path stroke="#74838f"  stroke-width="2.0"  d="M 966.251572327044 206.0 L 966.251572327044 214.0" />
        <text x="966.251572327044" font-family="-apple-system, system-ui, BlinkMacSystemFont, Roboto" y="216.0" dominant-baseline="hanging" text-anchor="middle" font-size="12" fill="#24292f">Jun 2023</text>
    
    <path stroke="#74838f"   stroke-linejoin="round" stroke-width="2.0" d="M 50.0 216.0 L 50.0 206.0 L 974.0 206.0 L 974.0 216.0"  fill="none" />
    <text x="512.0" y="25.0" font-family="-apple-system, system-ui, BlinkMacSystemFont, Roboto" dominant-baseline="middle" text-anchor="middle" font-size="18" fill="#24292f">Total daily suspensions</text>
</svg>
