<?xml version="1.0" standalone="no"?>
<svg width="1024.0" height="256.0"  viewBox="0 0 1024.0 256.0" preserveAspectRatio="xMidYMid meet" xmlns="http://www.w3.org/2000/svg">
    <path stroke="#e74c3c" stroke-linejoin="round" d="M 50.0 162.77066666666667 L 50 162.77066666666667L 51.92901878914405 194.12088888888889L 53.8580375782881 197.888L 55.78705636743215 198.2231111111111L 57.7160751565762 203.61955555555556L 59.64509394572025 200.16444444444443L 61.5741127348643 199.51733333333334L 63.50313152400835 191.65955555555556L 65.4321503131524 201.1582222222222L 67.36116910229646 198.89333333333332L 69.2901878914405 200.22222222222223L 71.21920668058455 202.70666666666665L 73.1482254697286 199.45955555555554L 75.07724425887265 195.9928888888889L 77.0062630480167 202.776L 78.93528183716074 198.98577777777777L 80.8643006263048 197.8071111111111L 82.79331941544885 191.96L 84.7223382045929 197.0328888888889L 86.65135699373695 199.70222222222222L 88.58037578288099 199.5751111111111L 90.50939457202506 198.5928888888889L 92.4384133611691 198.45422222222223L 94.36743215031315 200.06044444444444L 96.2964509394572 195.288L 98.22546972860125 200.12977777777778L 100.1544885177453 195.96977777777778L 102.08350730688935 200.92711111111112L 104.0125260960334 198.6968888888889L 105.94154488517745 191.22044444444444L 107.8705636743215 196.47822222222223L 109.79958246346555 191.38222222222223L 111.7286012526096 193.99377777777778L 113.65762004175366 199.92177777777778L 115.5866388308977 192.89600000000002L 117.51565762004175 197.33333333333334L 119.4446764091858 199.82933333333332L 121.37369519832984 194.00533333333334L 123.30271398747391 195.65777777777777L 125.23173277661796 195.81955555555555L 127.160751565762 195.9351111111111L 129.08977035490605 196.83644444444445L 131.01878914405012 199.66755555555557L 132.94780793319416 199.4711111111111L 134.8768267223382 196.0391111111111L 136.80584551148223 194.39822222222222L 138.7348643006263 195.92355555555554L 140.66388308977037 199.03199999999998L 142.5929018789144 195.81955555555555L 144.52192066805844 194.44444444444446L 146.4509394572025 194.144L 148.37995824634655 187.04888888888888L 150.3089770354906 197.69155555555557L 152.23799582463465 196.33955555555556L 154.1670146137787 198.56977777777777L 156.09603340292276 194.8142222222222L 158.0250521920668 196.77866666666665L 159.95407098121086 197.32177777777778L 161.8830897703549 198.65066666666667L 163.81210855949894 198.35022222222221L 165.741127348643 199.85244444444444L 167.67014613778707 192.07555555555555L 169.5991649269311 202.26755555555556L 171.52818371607515 193.80888888888887L 173.4572025052192 204.26666666666665L 175.38622129436325 206L 177.31524008350732 206L 179.24425887265136 206L 181.1732776617954 206L 183.10229645093943 191.04711111111112L 185.0313152400835 160.76L 186.96033402922757 194.02844444444446L 188.8893528183716 200.4417777777778L 190.81837160751567 193.7048888888889L 192.74739039665968 197.16L 194.67640918580375 200.00266666666667L 196.60542797494782 187.26844444444444L 198.53444676409185 198.18844444444443L 200.46346555323592 195.98133333333334L 202.39248434237996 191.08177777777777L 204.321503131524 195.288L 206.25052192066806 190.97777777777776L 208.1795407098121 189.39466666666667L 210.10855949895617 198.15377777777778L 212.03757828810024 200.00266666666667L 213.96659707724424 192.4568888888889L 215.8956158663883 192.38755555555556L 217.82463465553235 199.56355555555555L 219.75365344467642 195.13777777777779L 221.68267223382048 193.10399999999998L 223.6116910229645 195.3111111111111L 225.54070981210856 199.93333333333334L 227.4697286012526 189.84533333333331L 229.39874739039666 198.70844444444444L 231.32776617954073 196.50133333333332L 233.25678496868477 195.69244444444445L 235.1858037578288 196.62844444444445L 237.11482254697285 193.65866666666668L 239.0438413361169 197.52977777777778L 240.97286012526098 194.3057777777778L 242.90187891440502 197.4257777777778L 244.83089770354906 179.19111111111113L 246.7599164926931 194.80266666666665L 248.68893528183716 196.29333333333335L 250.61795407098123 195.5191111111111L 252.54697286012527 197.0328888888889L 254.4759916492693 197.8071111111111L 256.40501043841334 198.00355555555555L 258.3340292275574 187.55733333333333L 260.2630480167015 193.13866666666667L 262.1920668058455 199.85244444444444L 264.1210855949896 193.53155555555554L 266.0501043841336 191.6248888888889L 267.9791231732777 195.8311111111111L 269.9081419624217 196.54755555555556L 271.83716075156576 196.81333333333333L 273.7661795407098 197.63377777777777L 275.69519832985384 193.55466666666666L 277.6242171189979 206L 279.55323590814197 187.16444444444446L 281.482254697286 187.34933333333333L 283.41127348643005 191.8213333333333L 285.34029227557414 181.86044444444445L 287.2693110647182 201.8631111111111L 289.1983298538622 186.49422222222222L 291.12734864300626 196.39733333333334L 293.0563674321503 190.07644444444443L 294.98538622129433 194.664L 296.9144050104384 196.016L 298.84342379958247 197.18311111111112L 300.7724425887265 187.06044444444444L 302.70146137787054 198.29244444444444L 304.63048016701464 189.55644444444445L 306.5594989561587 189.7528888888889L 308.4885177453027 197.09066666666666L 310.4175365344468 183.328L 312.3465553235908 184.9688888888889L 314.27557411273483 206L 316.20459290187887 206L 318.13361169102296 206L 320.062630480167 161.85777777777778L 321.99164926931104 198.81244444444445L 323.92066805845513 196.952L 325.8496868475992 196.05066666666667L 327.7787056367432 193.2888888888889L 329.7077244258873 197.29866666666666L 331.63674321503134 198.13066666666668L 333.5657620041754 201.0311111111111L 335.49478079331936 171.63377777777777L 337.42379958246346 189.85688888888888L 339.3528183716075 178.4862222222222L 341.28183716075154 192.09866666666667L 343.21085594989563 179.792L 345.13987473903967 177.46933333333334L 347.0688935281837 182.6L 348.9979123173278 188.1582222222222L 350.92693110647184 193.36977777777778L 352.8559498956159 189.99555555555554L 354.7849686847599 188.4471111111111L 356.71398747390396 190.01866666666666L 358.643006263048 188.216L 360.57202505219203 194.05155555555555L 362.5010438413361 185.81244444444445L 364.43006263048017 172.61599999999999L 366.3590814196242 181.09777777777776L 368.2881002087683 173.56355555555555L 370.21711899791234 193.50844444444445L 372.1461377870564 192.51466666666667L 374.07515657620047 193.53155555555554L 376.00417536534445 195.25333333333333L 377.9331941544885 193.99377777777778L 379.8622129436325 194.46755555555555L 381.7912317327766 189.89155555555556L 383.72025052192066 195.58844444444446L 385.6492693110647 196.6168888888889L 387.5782881002088 193.11555555555555L 389.50730688935283 191.40533333333332L 391.43632567849687 201.16977777777777L 393.36534446764097 185.58133333333333L 395.294363256785 191.44L 397.223382045929 194.8488888888889L 399.152400835073 190.45777777777778L 401.0814196242171 196.23555555555555L 403.01043841336116 192.5031111111111L 404.9394572025052 193.57777777777778L 406.8684759916493 187.18755555555555L 408.79749478079333 191.03555555555556L 410.72651356993737 183.0391111111111L 412.65553235908146 187.83466666666666L 414.5845511482255 192.064L 416.51356993736954 184.9111111111111L 418.4425887265135 189.76444444444445L 420.3716075156576 185.97422222222224L 422.30062630480165 186.22844444444445L 424.2296450939457 177.8968888888889L 426.1586638830898 189.672L 428.0876826722338 191.60177777777778L 430.01670146137786 189.39466666666667L 431.94572025052196 188.27377777777778L 433.874739039666 191.9368888888889L 435.80375782881003 188.47022222222222L 437.7327766179541 188.88622222222222L 439.6617954070981 190.85066666666665L 441.59081419624215 194.80266666666665L 443.5198329853862 195.13777777777779L 445.4488517745303 201.48177777777778L 447.3778705636743 193.24266666666665L 449.30688935281836 182.06844444444445L 451.23590814196245 182.64622222222224L 453.1649269311065 182.12622222222222L 455.09394572025053 191.84444444444443L 457.02296450939457 187.592L 458.9519832985386 182.288L 460.88100208768265 187.22222222222223L 462.8100208768267 189.09422222222221L 464.7390396659708 180.63555555555556L 466.6680584551148 183.94044444444444L 468.59707724425886 174.76533333333333L 470.52609603340295 184.6568888888889L 472.455114822547 172.93955555555556L 474.384133611691 150.29066666666665L 476.31315240083507 179.0408888888889L 478.24217118997916 144.23555555555555L 480.1711899791232 186.864L 482.1002087682672 189.18666666666667L 484.0292275574113 188.424L 485.9582463465553 193.728L 487.88726513569935 187.31466666666665L 489.81628392484345 186.1822222222222L 491.7453027139875 187.58044444444445L 493.6743215031315 186.136L 495.60334029227556 193.312L 497.53235908141966 189.19822222222223L 499.4613778705637 189.9377777777778L 501.39039665970773 187.34933333333333L 503.31941544885177 186.51733333333334L 505.2484342379958 189.3831111111111L 507.17745302713985 188.0311111111111L 509.10647181628394 192.98844444444444L 511.035490605428 187.73066666666668L 512.964509394572 186.22844444444445L 514.8935281837161 182.81955555555555L 516.8225469728601 184.6222222222222L 518.7515657620042 181.248L 520.6805845511483 186.27466666666666L 522.6096033402923 194.44444444444446L 524.5386221294364 190.90844444444446L 526.4676409185804 187.30311111111112L 528.3966597077244 169.71555555555557L 530.3256784968685 120.77777777777779L 532.2546972860125 189.72977777777777L 534.1837160751566 188.51644444444446L 536.1127348643006 190.86222222222221L 538.0417536534446 192.82666666666665L 539.9707724425887 189.82222222222222L 541.8997912317327 183.16622222222222L 543.8288100208767 189.14044444444443L 545.7578288100209 179.9191111111111L 547.6868475991649 59.082666666666654L 549.615866388309 164.26133333333334L 551.544885177453 185.31555555555556L 553.473903966597 183.57066666666668L 555.4029227557411 184.50666666666666L 557.3319415448852 185.00355555555555L 559.2609603340293 180.0808888888889L 561.1899791231733 190.74666666666667L 563.1189979123174 181.42133333333334L 565.0480167014614 162.58577777777776L 566.9770354906054 124.3368888888889L 568.9060542797495 153.52622222222223L 570.8350730688936 165.68266666666668L 572.7640918580377 182.1031111111111L 574.6931106471816 171.8071111111111L 576.6221294363256 180.76266666666666L 578.5511482254697 174.41866666666667L 580.4801670146137 179.376L 582.4091858037577 183.65155555555555L 584.3382045929019 178.22044444444444L 586.2672233820459 185.03822222222223L 588.19624217119 188.47022222222222L 590.125260960334 189.00177777777776L 592.054279749478 185.52355555555556L 593.9832985386221 182.7848888888889L 595.9123173277662 182.69244444444445L 597.8413361169103 180.34666666666666L 599.7703549060543 169.5768888888889L 601.6993736951983 182.704L 603.6283924843424 186.136L 605.5574112734864 169.12622222222222L 607.4864300626305 143.0222222222222L 609.4154488517746 162.45866666666666L 611.3444676409187 153.67644444444443L 613.2734864300627 148.176L 615.2025052192067 157.16622222222222L 617.1315240083508 155.61777777777777L 619.0605427974947 164.63111111111112L 620.9895615866387 173.32088888888887L 622.9185803757829 151.0648888888889L 624.8475991649269 173.07822222222222L 626.776617954071 173.70222222222222L 628.705636743215 173.74844444444443L 630.634655532359 184.472L 632.5636743215031 167.77422222222222L 634.4926931106472 160.9911111111111L 636.4217118997913 173.8871111111111L 638.3507306889353 167L 640.2797494780793 156.78488888888887L 642.2087682672234 175.07733333333334L 644.1377870563674 177.4L 646.0668058455115 187.22222222222223L 647.9958246346556 184.74933333333334L 649.9248434237996 183.952L 651.8538622129437 152.19733333333335L 653.7828810020877 183.96355555555556L 655.7118997912318 186.8871111111111L 657.6409185803758 185.87022222222222L 659.5699373695198 183.15466666666666L 661.4989561586639 183.06222222222223L 663.4279749478079 183.02755555555555L 665.356993736952 176.10577777777777L 667.286012526096 182.87733333333333L 669.21503131524 180.48533333333333L 671.1440501043841 185.56977777777777L 673.0730688935282 180L 675.0020876826723 176.984L 676.9311064718163 178.20888888888888L 678.8601252609603 179.8382222222222L 680.7891440501044 183.09688888888888L 682.7181628392484 177.53866666666667L 684.6471816283924 183.44355555555555L 686.5762004175366 178.09333333333333L 688.5052192066806 179.59555555555556L 690.4342379958247 183.02755555555555L 692.3632567849687 180.4622222222222L 694.2922755741128 178.04711111111112L 696.2212943632568 186.89866666666666L 698.1503131524009 177.20355555555557L 700.0793319415449 179.07555555555555L 702.0083507306889 154.9591111111111L 703.9373695198329 133.512L 705.866388308977 151.96622222222223L 707.795407098121 151.57333333333332L 709.724425887265 184.9111111111111L 711.6534446764092 185.28088888888888L 713.5824634655532 178.61333333333334L 715.5114822546973 142.39822222222222L 717.4405010438413 150.1751111111111L 719.3695198329854 164.04177777777778L 721.2985386221294 138.82755555555556L 723.2275574112734 134.864L 725.1565762004176 144.85955555555557L 727.0855949895616 145.57600000000002L 729.0146137787057 128.7048888888889L 730.9436325678497 120.36177777777777L 732.8726513569937 165.80977777777778L 734.8016701461378 163.51022222222224L 736.7306889352819 160.39022222222223L 738.659707724426 177.504L 740.58872651357 187.34933333333333L 742.517745302714 188.04266666666666L 744.446764091858 186.8871111111111L 746.375782881002 176.08266666666668L 748.304801670146 179.41066666666666L 750.2338204592902 195.0568888888889L 752.1628392484342 185.53511111111112L 754.0918580375783 183.6977777777778L 756.0208768267223 174.97333333333333L 757.9498956158664 178.61333333333334L 759.8789144050104 180.9591111111111L 761.8079331941544 184.0328888888889L 763.7369519832986 155.61777777777777L 765.6659707724426 149.7128888888889L 767.5949895615867 186.2631111111111L 769.5240083507307 191.28977777777777L 771.4530271398747 175.90933333333334L 773.3820459290188 175.49333333333334L 775.3110647181629 184.51822222222222L 777.240083507307 189.69511111111112L 779.169102296451 187.592L 781.098121085595 180.09244444444445L 783.0271398747391 176.92622222222224L 784.9561586638831 163.31377777777777L 786.885177453027 162.112L 788.8141962421712 167.1271111111111L 790.7432150313152 180.32355555555554L 792.6722338204593 184.11377777777778L 794.6012526096033 191.57866666666666L 796.5302713987473 195.54222222222222L 798.4592901878914 183.54755555555556L 800.3883089770354 164.03022222222222L 802.3173277661796 171.05599999999998L 804.2463465553236 169.92355555555557L 806.1753653444677 180.02311111111112L 808.1043841336117 172.07288888888888L 810.0334029227557 163.53333333333333L 811.9624217118998 171.34488888888887L 813.8914405010439 181.59466666666668L 815.820459290188 179.80355555555556L 817.749478079332 166.17955555555557L 819.678496868476 154.92444444444445L 821.6075156576201 158.4488888888889L 823.5365344467641 156.4728888888889L 825.4655532359081 144.4551111111111L 827.3945720250522 158.52977777777778L 829.3235908141962 178.00088888888888L 831.2526096033403 144.99822222222224L 833.1816283924843 134.136L 835.1106471816283 139.8213333333333L 837.0396659707724 145.04444444444445L 838.9686847599164 153.168L 840.8977035490606 140.53777777777776L 842.8267223382046 113.86755555555555L 844.7557411273486 113.28977777777777L 846.6847599164927 164.85066666666665L 848.6137787056367 163.62577777777778L 850.5427974947808 150.16355555555555L 852.4718162839249 149.84L 854.400835073069 56.54044444444443L 856.329853862213 124.776L 858.258872651357 64.07466666666667L 860.1878914405011 123.55111111111111L 862.1169102296451 157.536L 864.0459290187891 147.9911111111111L 865.9749478079333 136.22755555555557L 867.9039665970772 91.11466666666666L 869.8329853862213 107.36177777777779L 871.7620041753653 141.68177777777777L 873.6910229645093 157.73244444444444L 875.6200417536534 152.63644444444444L 877.5490605427974 96.22222222222221L 879.4780793319416 150.19822222222223L 881.4070981210856 116.57155555555556L 883.3361169102296 127.34133333333332L 885.2651356993737 180.53155555555554L 887.1941544885177 137.10577777777777L 889.1231732776617 122.64977777777779L 891.0521920668059 104.61155555555555L 892.9812108559499 141.76266666666666L 894.910229645094 164.23822222222222L 896.839248434238 160.51733333333334L 898.768267223382 154.57777777777778L 900.6972860125261 175.01955555555554L 902.6263048016701 146.87022222222222L 904.5553235908143 153.23733333333334L 906.4843423799583 142.82577777777777L 908.4133611691024 130.98133333333334L 910.3423799582464 88.53777777777778L 912.2713987473903 174.488L 914.2004175365344 50.55466666666666L 916.1294363256784 84.43555555555557L 918.0584551148226 152.47466666666668L 919.9874739039666 114.90755555555555L 921.9164926931106 96.30311111111112L 923.8455114822547 171.46044444444445L 925.7745302713987 183.96355555555556L 927.7035490605427 169.87733333333333L 929.6325678496869 183.13155555555556L 931.5615866388309 171.992L 933.490605427975 152.48622222222224L 935.419624217119 169.704L 937.348643006263 172.99733333333333L 939.2776617954071 164.61955555555556L 941.2066805845511 162.64355555555557L 943.1356993736953 170.51288888888888L 945.0647181628393 145.6568888888889L 946.9937369519834 159.81244444444445L 948.9227557411274 167.2542222222222L 950.8517745302714 141.55466666666666L 952.7807933194155 160.864L 954.7098121085595 157.7208888888889L 956.6388308977035 154.87822222222223L 958.5678496868476 145.29866666666666L 960.4968684759916 177.65422222222222L 962.4258872651357 119.73777777777778L 964.3549060542797 144.96355555555556L 966.2839248434237 151.15733333333333L 968.2129436325679 164.4231111111111L 970.1419624217119 174.1991111111111L 972.070981210856 171.784L 974 192.82666666666665" stroke-width="2.0" fill="none" />
    
        
        
        <text x="45.0" font-family="-apple-system, system-ui, BlinkMacSystemFont, Roboto" y="50.0" dominant-baseline="middle" text-anchor="end" font-size="12" fill="#24292f">13500.0</text>
        
            
            <path stroke="#74838f" stroke-dasharray="10 6" stroke-width="0.5"  d="M 50.0 50.0 L 974.0 50.0" />
        
    
        
        
        <text x="45.0" font-family="-apple-system, system-ui, BlinkMacSystemFont, Roboto" y="81.2" dominant-baseline="middle" text-anchor="end" font-size="12" fill="#24292f">10800.0</text>
        
            
            
            <path stroke="#74838f" stroke-dasharray="10 6" stroke-width="0.5"  d="M 50.0 81.2 L 974.0 81.2" />
        
    
        
        
        <text x="45.0" font-family="-apple-system, system-ui, BlinkMacSystemFont, Roboto" y="112.4" dominant-baseline="middle" text-anchor="end" font-size="12" fill="#24292f">8100.0</text>
        
            
            
            <path stroke="#74838f" stroke-dasharray="10 6" stroke-width="0.5"  d="M 50.0 112.4 L 974.0 112.4" />
        
    
        
        
        <text x="45.0" font-family="-apple-system, system-ui, BlinkMacSystemFont, Roboto" y="143.6" dominant-baseline="middle" text-anchor="end" font-size="12" fill="#24292f">5400.0</text>
        
            
            
            <path stroke="#74838f" stroke-dasharray="10 6" stroke-width="0.5"  d="M 50.0 143.6 L 974.0 143.6" />
        
    
        
        
        <text x="45.0" font-family="-apple-system, system-ui, BlinkMacSystemFont, Roboto" y="174.8" dominant-baseline="middle" text-anchor="end" font-size="12" fill="#24292f">2700.0</text>
        
            
            
            <path stroke="#74838f" stroke-dasharray="10 6" stroke-width="0.5"  d="M 50.0 174.8 L 974.0 174.8" />
        
    
        
        
        <text x="45.0" font-family="-apple-system, system-ui, BlinkMacSystemFont, Roboto" y="206.0" dominant-baseline="middle" text-anchor="end" font-size="12" fill="#24292f">0.0</text>
        
    
    
        
        <path stroke="#74838f"  stroke-width="2.0"  d="M 80.8643006263048 206.0 L 80.8643006263048 214.0" />
        <text x="80.8643006263048" font-family="-apple-system, system-ui, BlinkMacSystemFont, Roboto" y="216.0" dominant-baseline="hanging" text-anchor="middle" font-size="12" fill="#24292f">Mar 2022</text>
    
        
        <path stroke="#74838f"  stroke-width="2.0"  d="M 140.66388308977037 206.0 L 140.66388308977037 214.0" />
        <text x="140.66388308977037" font-family="-apple-system, system-ui, BlinkMacSystemFont, Roboto" y="216.0" dominant-baseline="hanging" text-anchor="middle" font-size="12" fill="#24292f">Apr 2022</text>
    
        
        <path stroke="#74838f"  stroke-width="2.0"  d="M 198.53444676409185 206.0 L 198.53444676409185 214.0" />
        <text x="198.53444676409185" font-family="-apple-system, system-ui, BlinkMacSystemFont, Roboto" y="216.0" dominant-baseline="hanging" text-anchor="middle" font-size="12" fill="#24292f">May 2022</text>
    
        
        <path stroke="#74838f"  stroke-width="2.0"  d="M 258.3340292275574 206.0 L 258.3340292275574 214.0" />
        <text x="258.3340292275574" font-family="-apple-system, system-ui, BlinkMacSystemFont, Roboto" y="216.0" dominant-baseline="hanging" text-anchor="middle" font-size="12" fill="#24292f">Jun 2022</text>
    
        
        <path stroke="#74838f"  stroke-width="2.0"  d="M 316.20459290187887 206.0 L 316.20459290187887 214.0" />
        <text x="316.20459290187887" font-family="-apple-system, system-ui, BlinkMacSystemFont, Roboto" y="216.0" dominant-baseline="hanging" text-anchor="middle" font-size="12" fill="#24292f">Jul 2022</text>
    
        
        <path stroke="#74838f"  stroke-width="2.0"  d="M 376.00417536534445 206.0 L 376.00417536534445 214.0" />
        <text x="376.00417536534445" font-family="-apple-system, system-ui, BlinkMacSystemFont, Roboto" y="216.0" dominant-baseline="hanging" text-anchor="middle" font-size="12" fill="#24292f">Aug 2022</text>
    
        
        <path stroke="#74838f"  stroke-width="2.0"  d="M 435.80375782881003 206.0 L 435.80375782881003 214.0" />
        <text x="435.80375782881003" font-family="-apple-system, system-ui, BlinkMacSystemFont, Roboto" y="216.0" dominant-baseline="hanging" text-anchor="middle" font-size="12" fill="#24292f">Sep 2022</text>
    
        
        <path stroke="#74838f"  stroke-width="2.0"  d="M 493.6743215031315 206.0 L 493.6743215031315 214.0" />
        <text x="493.6743215031315" font-family="-apple-system, system-ui, BlinkMacSystemFont, Roboto" y="216.0" dominant-baseline="hanging" text-anchor="middle" font-size="12" fill="#24292f">Oct 2022</text>
    
        
        <path stroke="#74838f"  stroke-width="2.0"  d="M 553.473903966597 206.0 L 553.473903966597 214.0" />
        <text x="553.473903966597" font-family="-apple-system, system-ui, BlinkMacSystemFont, Roboto" y="216.0" dominant-baseline="hanging" text-anchor="middle" font-size="12" fill="#24292f">Nov 2022</text>
    
        
        <path stroke="#74838f"  stroke-width="2.0"  d="M 611.3444676409187 206.0 L 611.3444676409187 214.0" />
        <text x="611.3444676409187" font-family="-apple-system, system-ui, BlinkMacSystemFont, Roboto" y="216.0" dominant-baseline="hanging" text-anchor="middle" font-size="12" fill="#24292f">Dec 2022</text>
    
        
        <path stroke="#74838f"  stroke-width="2.0"  d="M 671.1440501043841 206.0 L 671.1440501043841 214.0" />
        <text x="671.1440501043841" font-family="-apple-system, system-ui, BlinkMacSystemFont, Roboto" y="216.0" dominant-baseline="hanging" text-anchor="middle" font-size="12" fill="#24292f">Jan 2023</text>
    
        
        <path stroke="#74838f"  stroke-width="2.0"  d="M 730.9436325678497 206.0 L 730.9436325678497 214.0" />
        <text x="730.9436325678497" font-family="-apple-system, system-ui, BlinkMacSystemFont, Roboto" y="216.0" dominant-baseline="hanging" text-anchor="middle" font-size="12" fill="#24292f">Feb 2023</text>
    
        
        <path stroke="#74838f"  stroke-width="2.0"  d="M 784.9561586638831 206.0 L 784.9561586638831 214.0" />
        <text x="784.9561586638831" font-family="-apple-system, system-ui, BlinkMacSystemFont, Roboto" y="216.0" dominant-baseline="hanging" text-anchor="middle" font-size="12" fill="#24292f">Mar 2023</text>
    
        
        <path stroke="#74838f"  stroke-width="2.0"  d="M 844.7557411273486 206.0 L 844.7557411273486 214.0" />
        <text x="844.7557411273486" font-family="-apple-system, system-ui, BlinkMacSystemFont, Roboto" y="216.0" dominant-baseline="hanging" text-anchor="middle" font-size="12" fill="#24292f">Apr 2023</text>
    
        
        <path stroke="#74838f"  stroke-width="2.0"  d="M 902.6263048016701 206.0 L 902.6263048016701 214.0" />
        <text x="902.6263048016701" font-family="-apple-system, system-ui, BlinkMacSystemFont, Roboto" y="216.0" dominant-baseline="hanging" text-anchor="middle" font-size="12" fill="#24292f">May 2023</text>
    
        
        <path stroke="#74838f"  stroke-width="2.0"  d="M 962.4258872651357 206.0 L 962.4258872651357 214.0" />
        <text x="962.4258872651357" font-family="-apple-system, system-ui, BlinkMacSystemFont, Roboto" y="216.0" dominant-baseline="hanging" text-anchor="middle" font-size="12" fill="#24292f">Jun 2023</text>
    
    <path stroke="#74838f"   stroke-linejoin="round" stroke-width="2.0" d="M 50.0 216.0 L 50.0 206.0 L 974.0 206.0 L 974.0 216.0"  fill="none" />
    <text x="512.0" y="25.0" font-family="-apple-system, system-ui, BlinkMacSystemFont, Roboto" dominant-baseline="middle" text-anchor="middle" font-size="18" fill="#24292f">Total daily suspensions</text>
</svg>
