<?xml version="1.0" standalone="no"?>
<svg width="1024.0" height="256.0"  viewBox="0 0 1024.0 256.0" preserveAspectRatio="xMidYMid meet" xmlns="http://www.w3.org/2000/svg">
    <path stroke="#e74c3c" stroke-linejoin="round" d="M 50.0 161.108 L 50 161.108L 53.43494423791822 193.664L 56.86988847583643 197.576L 60.30483271375465 197.924L 63.739776951672866 203.528L 67.17472118959108 199.94L 70.6096654275093 199.268L 74.04460966542752 191.108L 77.47955390334573 200.972L 80.91449814126393 198.62L 84.34944237918216 200L 87.78438661710038 202.57999999999998L 91.21933085501858 199.208L 94.65427509293681 195.608L 98.08921933085502 202.652L 101.52416356877323 198.716L 104.95910780669145 197.49200000000002L 108.39405204460965 191.42000000000002L 111.82899628252787 196.688L 115.2639405204461 199.46L 118.69888475836431 199.328L 122.13382899628253 198.308L 125.56877323420075 198.164L 129.00371747211895 199.832L 132.43866171003717 194.876L 135.87360594795538 199.904L 139.30855018587363 195.584L 142.74349442379184 200.732L 146.17843866171003 198.416L 149.61338289962825 190.652L 153.04832713754647 196.112L 156.48327137546468 190.82L 159.9182156133829 193.53199999999998L 163.35315985130111 199.688L 166.7881040892193 192.392L 170.22304832713755 197L 173.65799256505574 199.59199999999998L 177.09293680297398 193.54399999999998L 180.5278810408922 195.26L 183.9628252788104 195.428L 187.39776951672863 195.548L 190.83271375464682 196.484L 194.26765799256506 199.424L 197.70260223048325 199.22L 201.1375464684015 195.656L 204.5724907063197 193.952L 208.0074349442379 195.536L 211.44237918215615 198.764L 214.87732342007433 195.428L 218.31226765799258 194L 221.74721189591077 193.688L 225.18215613382898 186.32L 228.61710037174723 197.372L 232.05204460966542 195.96800000000002L 235.48698884758366 198.284L 238.92193308550185 194.38400000000001L 242.35687732342006 196.424L 245.79182156133828 196.988L 249.2267657992565 198.368L 252.66171003717474 198.05599999999998L 256.09665427509293 199.61599999999999L 259.53159851301115 191.54L 262.96654275092936 202.124L 266.4014869888476 193.34L 269.8364312267658 204.2L 273.271375464684 206L 276.70631970260223 206L 280.14126394052045 206L 283.5762081784386 206L 287.0111524163569 190.472L 290.4460966542751 159.01999999999998L 293.8810408921933 193.56799999999998L 297.31598513011147 200.228L 300.7509293680297 193.232L 304.18587360594796 196.82L 307.6208178438662 199.772L 311.0557620817844 186.548L 314.49070631970255 197.888L 317.9256505576208 195.596L 321.36059479553904 190.508L 324.79553903345726 194.876L 328.2304832713755 190.4L 331.66542750929364 188.756L 335.1003717472119 197.852L 338.5353159851301 199.772L 341.97026022304834 191.936L 345.4052044609665 191.864L 348.8401486988847 199.316L 352.275092936803 194.708L 355.7100371747212 192.608L 359.1449814126394 194.9L 362.5799256505576 199.7L 366.0148698884758 189.224L 369.4498141263941 198.428L 372.8847583643123 196.136L 376.3197026022305 195.296L 379.75464684014867 196.268L 383.1895910780669 193.184L 386.62453531598516 197.204L 390.0594795539034 193.856L 393.49442379182153 197.096L 396.92936802973975 178.16L 400.36431226765797 194.372L 403.79925650557624 195.92000000000002L 407.23420074349445 195.11599999999999L 410.6691449814126 196.688L 414.10408921933083 197.49200000000002L 417.53903345724905 197.696L 420.9739776951673 186.848L 424.4089219330855 192.644L 427.8438661710037 199.61599999999999L 431.2788104089219 193.052L 434.71375464684013 191.072L 438.1486988847584 195.44L 441.58364312267656 196.184L 445.0185873605948 196.46L 448.453531598513 197.312L 451.8884758364312 193.076L 455.3234200743495 206L 458.75836431226764 186.44L 462.19330855018586 186.632L 465.6282527881041 191.276L 469.0631970260223 180.93200000000002L 472.4981412639405 201.704L 475.9330855018587 185.744L 479.36802973977694 196.028L 482.80297397769516 189.464L 486.2379182156134 194.228L 489.6728624535316 195.632L 493.1078066914498 196.844L 496.542750929368 186.332L 499.97769516728624 197.99599999999998L 503.41263940520446 188.924L 506.8475836431227 189.128L 510.2825278810409 196.748L 513.717472118959 182.45600000000002L 517.1524163568772 184.16L 520.5873605947955 206L 524.0223048327138 206L 527.457249070632 206L 530.8921933085502 160.16L 534.3271375464684 198.536L 537.7620817843866 196.60399999999998L 541.197026022305 195.668L 544.6319702602229 192.8L 548.0669144981412 196.964L 551.5018587360594 197.828L 554.9368029739777 200.84L 558.3717472118959 170.312L 561.8066914498141 189.236L 565.2416356877324 177.428L 568.6765799256506 191.564L 572.1115241635688 178.784L 575.546468401487 176.372L 578.9814126394051 181.7L 582.4163568773234 187.472L 585.8513011152417 192.88400000000001L 589.2862453531599 189.38L 592.7211895910781 187.772L 596.1561338289963 189.404L 599.5910780669145 187.532L 603.0260223048327 193.59199999999998L 606.460966542751 185.036L 609.895910780669 171.332L 613.3308550185873 180.14L 616.7657992565056 172.316L 620.2007434944238 193.028L 623.635687732342 191.996L 627.0706319702603 193.052L 630.5055762081785 194.84L 633.9405204460967 193.53199999999998L 637.3754646840149 194.024L 640.810408921933 189.272L 644.2453531598512 195.188L 647.6802973977694 196.256L 651.1152416356878 192.62L 654.550185873606 190.844L 657.9851301115242 200.984L 661.4200743494424 184.796L 664.8550185873606 190.88L 668.2899628252788 194.42000000000002L 671.724907063197 189.86L 675.1598513011152 195.86L 678.5947955390334 191.984L 682.0297397769516 193.1L 685.4646840148699 186.464L 688.8996282527881 190.46L 692.3345724907064 182.156L 695.7695167286246 187.136L 699.2044609665428 191.528L 702.639405204461 184.1L 706.0743494423791 189.14L 709.5092936802973 185.204L 712.9442379182155 185.468L 716.3791821561338 176.828L 719.8141263940521 189.04399999999998L 723.2490706319703 191.048L 726.6840148698885 188.756L 730.1189591078067 187.592L 733.553903345725 191.39600000000002L 736.9888475836431 187.796L 740.4237918215613 188.228L 743.8587360594795 190.268L 747.2936802973977 194.372L 750.7286245353159 194.72L 754.1635687732343 201.308L 757.5985130111525 192.752L 761.0334572490707 181.148L 764.4684014869889 181.748L 767.903345724907 181.208L 771.3382899628252 191.3L 774.7732342007434 186.88400000000001L 778.2081784386617 181.376L 781.6431226765799 186.5L 785.0780669144981 188.44400000000002L 788.5130111524164 179.66L 791.9479553903346 183.09199999999998L 795.3828996282529 173.564L 798.817843866171 183.836L 802.2527881040892 171.668L 805.6877323420074 148.148L 809.1226765799256 178.004L 812.5576208178438 141.86L 815.992565055762 186.128L 819.4275092936803 188.54000000000002L 822.8624535315986 187.748L 826.2973977695168 193.256L 829.732342007435 186.596L 833.1672862453531 185.42000000000002L 836.6022304832713 186.872L 840.0371747211896 185.372L 843.4721189591078 192.824L 846.907063197026 188.552L 850.3420074349442 189.32L 853.7769516728624 186.632L 857.2118959107808 185.768L 860.646840148699 188.744L 864.0817843866171 187.34L 867.5167286245353 192.488L 870.9516728624535 187.028L 874.3866171003717 185.468L 877.8215613382899 181.928L 881.2565055762082 183.8L 884.6914498141264 180.296L 888.1263940520446 185.516L 891.5613382899629 194L 894.996282527881 190.328L 898.4312267657992 186.584L 901.8661710037175 168.32L 905.3011152416357 117.5L 908.7360594795539 189.10399999999998L 912.1710037174721 187.844L 915.6059479553903 190.28L 919.0408921933085 192.32L 922.4758364312268 189.2L 925.9107806691451 182.288L 929.3457249070632 188.49200000000002L 932.7806691449814 178.916L 936.2156133828996 53.432000000000016L 939.6505576208178 162.656L 943.085501858736 184.52L 946.5204460966543 182.708L 949.9553903345725 183.68L 953.3903345724907 184.196L 956.8252788104089 179.084L 960.2602230483271 190.16L 963.6951672862454 180.476L 967.1301115241636 160.916L 970.5650557620818 121.376L 974 185.012" stroke-width="2.0" fill="none" />
    
        
        
        <text x="45.0" font-family="-apple-system, system-ui, BlinkMacSystemFont, Roboto" y="50.0" dominant-baseline="middle" text-anchor="end" font-size="12" fill="#24292f">13000.0</text>
        
            
            <path stroke="#74838f" stroke-dasharray="10 6" stroke-width="0.5"  d="M 50.0 50.0 L 974.0 50.0" />
        
    
        
        
        <text x="45.0" font-family="-apple-system, system-ui, BlinkMacSystemFont, Roboto" y="81.2" dominant-baseline="middle" text-anchor="end" font-size="12" fill="#24292f">10400.0</text>
        
            
            
            <path stroke="#74838f" stroke-dasharray="10 6" stroke-width="0.5"  d="M 50.0 81.2 L 974.0 81.2" />
        
    
        
        
        <text x="45.0" font-family="-apple-system, system-ui, BlinkMacSystemFont, Roboto" y="112.4" dominant-baseline="middle" text-anchor="end" font-size="12" fill="#24292f">7800.0</text>
        
            
            
            <path stroke="#74838f" stroke-dasharray="10 6" stroke-width="0.5"  d="M 50.0 112.4 L 974.0 112.4" />
        
    
        
        
        <text x="45.0" font-family="-apple-system, system-ui, BlinkMacSystemFont, Roboto" y="143.6" dominant-baseline="middle" text-anchor="end" font-size="12" fill="#24292f">5200.0</text>
        
            
            
            <path stroke="#74838f" stroke-dasharray="10 6" stroke-width="0.5"  d="M 50.0 143.6 L 974.0 143.6" />
        
    
        
        
        <text x="45.0" font-family="-apple-system, system-ui, BlinkMacSystemFont, Roboto" y="174.8" dominant-baseline="middle" text-anchor="end" font-size="12" fill="#24292f">2600.0</text>
        
            
            
            <path stroke="#74838f" stroke-dasharray="10 6" stroke-width="0.5"  d="M 50.0 174.8 L 974.0 174.8" />
        
    
        
        
        <text x="45.0" font-family="-apple-system, system-ui, BlinkMacSystemFont, Roboto" y="206.0" dominant-baseline="middle" text-anchor="end" font-size="12" fill="#24292f">0.0</text>
        
    
    
        
        <path stroke="#74838f"  stroke-width="2.0"  d="M 104.95910780669145 206.0 L 104.95910780669145 214.0" />
        <text x="104.95910780669145" font-family="-apple-system, system-ui, BlinkMacSystemFont, Roboto" y="216.0" dominant-baseline="hanging" text-anchor="middle" font-size="12" fill="#24292f">Mar 2022</text>
    
        
        <path stroke="#74838f"  stroke-width="2.0"  d="M 211.44237918215615 206.0 L 211.44237918215615 214.0" />
        <text x="211.44237918215615" font-family="-apple-system, system-ui, BlinkMacSystemFont, Roboto" y="216.0" dominant-baseline="hanging" text-anchor="middle" font-size="12" fill="#24292f">Apr 2022</text>
    
        
        <path stroke="#74838f"  stroke-width="2.0"  d="M 314.49070631970255 206.0 L 314.49070631970255 214.0" />
        <text x="314.49070631970255" font-family="-apple-system, system-ui, BlinkMacSystemFont, Roboto" y="216.0" dominant-baseline="hanging" text-anchor="middle" font-size="12" fill="#24292f">May 2022</text>
    
        
        <path stroke="#74838f"  stroke-width="2.0"  d="M 420.9739776951673 206.0 L 420.9739776951673 214.0" />
        <text x="420.9739776951673" font-family="-apple-system, system-ui, BlinkMacSystemFont, Roboto" y="216.0" dominant-baseline="hanging" text-anchor="middle" font-size="12" fill="#24292f">Jun 2022</text>
    
        
        <path stroke="#74838f"  stroke-width="2.0"  d="M 524.0223048327138 206.0 L 524.0223048327138 214.0" />
        <text x="524.0223048327138" font-family="-apple-system, system-ui, BlinkMacSystemFont, Roboto" y="216.0" dominant-baseline="hanging" text-anchor="middle" font-size="12" fill="#24292f">Jul 2022</text>
    
        
        <path stroke="#74838f"  stroke-width="2.0"  d="M 630.5055762081785 206.0 L 630.5055762081785 214.0" />
        <text x="630.5055762081785" font-family="-apple-system, system-ui, BlinkMacSystemFont, Roboto" y="216.0" dominant-baseline="hanging" text-anchor="middle" font-size="12" fill="#24292f">Aug 2022</text>
    
        
        <path stroke="#74838f"  stroke-width="2.0"  d="M 736.9888475836431 206.0 L 736.9888475836431 214.0" />
        <text x="736.9888475836431" font-family="-apple-system, system-ui, BlinkMacSystemFont, Roboto" y="216.0" dominant-baseline="hanging" text-anchor="middle" font-size="12" fill="#24292f">Sep 2022</text>
    
        
        <path stroke="#74838f"  stroke-width="2.0"  d="M 840.0371747211896 206.0 L 840.0371747211896 214.0" />
        <text x="840.0371747211896" font-family="-apple-system, system-ui, BlinkMacSystemFont, Roboto" y="216.0" dominant-baseline="hanging" text-anchor="middle" font-size="12" fill="#24292f">Oct 2022</text>
    
        
        <path stroke="#74838f"  stroke-width="2.0"  d="M 946.5204460966543 206.0 L 946.5204460966543 214.0" />
        <text x="946.5204460966543" font-family="-apple-system, system-ui, BlinkMacSystemFont, Roboto" y="216.0" dominant-baseline="hanging" text-anchor="middle" font-size="12" fill="#24292f">Nov 2022</text>
    
    <path stroke="#74838f"   stroke-linejoin="round" stroke-width="2.0" d="M 50.0 216.0 L 50.0 206.0 L 974.0 206.0 L 974.0 216.0"  fill="none" />
    <text x="512.0" y="25.0" font-family="-apple-system, system-ui, BlinkMacSystemFont, Roboto" dominant-baseline="middle" text-anchor="middle" font-size="18" fill="#24292f">Total daily suspensions</text>
</svg>
