<?xml version="1.0" standalone="no"?>
<svg width="1024.0" height="256.0"  viewBox="0 0 1024.0 256.0" preserveAspectRatio="xMidYMid meet" xmlns="http://www.w3.org/2000/svg">
    <path stroke="#e74c3c" stroke-linejoin="round" d="M 50.0 161.108 L 50 161.108L 52.22115384615385 193.664L 54.44230769230769 197.576L 56.66346153846154 197.924L 58.88461538461539 203.528L 61.10576923076923 199.94L 63.32692307692308 199.268L 65.54807692307692 191.108L 67.76923076923077 200.972L 69.99038461538461 198.62L 72.21153846153847 200L 74.4326923076923 202.57999999999998L 76.65384615384616 199.208L 78.875 195.608L 81.09615384615384 202.652L 83.31730769230768 198.716L 85.53846153846155 197.49200000000002L 87.75961538461539 191.42000000000002L 89.98076923076923 196.688L 92.20192307692307 199.46L 94.42307692307693 199.328L 96.64423076923077 198.308L 98.86538461538461 198.164L 101.08653846153845 199.832L 103.30769230769232 194.876L 105.52884615384616 199.904L 107.75 195.584L 109.97115384615385 200.732L 112.19230769230768 198.416L 114.41346153846155 190.652L 116.63461538461537 196.112L 118.85576923076923 190.82L 121.07692307692308 193.53199999999998L 123.29807692307692 199.688L 125.51923076923077 192.392L 127.74038461538463 197L 129.96153846153845 199.59199999999998L 132.18269230769232 193.54399999999998L 134.40384615384613 195.26L 136.625 195.428L 138.84615384615387 195.548L 141.06730769230768 196.484L 143.28846153846155 199.424L 145.50961538461536 199.22L 147.73076923076923 195.656L 149.9519230769231 193.952L 152.1730769230769 195.536L 154.39423076923077 198.764L 156.61538461538464 195.428L 158.83653846153845 194L 161.05769230769232 193.688L 163.27884615384613 186.32L 165.5 197.372L 167.72115384615384 195.96800000000002L 169.9423076923077 198.284L 172.16346153846155 194.38400000000001L 174.38461538461536 196.424L 176.60576923076923 196.988L 178.8269230769231 198.368L 181.0480769230769 198.05599999999998L 183.26923076923075 199.61599999999999L 185.4903846153846 191.54L 187.71153846153845 202.124L 189.9326923076923 193.34L 192.15384615384616 204.2L 194.375 206L 196.59615384615384 206L 198.8173076923077 206L 201.03846153846155 206L 203.2596153846154 190.472L 205.48076923076925 159.01999999999998L 207.7019230769231 193.56799999999998L 209.9230769230769 200.228L 212.14423076923075 193.232L 214.3653846153846 196.82L 216.58653846153845 199.772L 218.8076923076923 186.548L 221.02884615384616 197.888L 223.25 195.596L 225.47115384615384 190.508L 227.6923076923077 194.876L 229.91346153846155 190.4L 232.1346153846154 188.756L 234.35576923076925 197.852L 236.5769230769231 199.772L 238.7980769230769 191.936L 241.01923076923075 191.864L 243.2403846153846 199.316L 245.46153846153845 194.72L 247.6826923076923 192.608L 249.90384615384616 194.9L 252.125 199.7L 254.34615384615384 189.224L 256.56730769230774 198.428L 258.78846153846155 196.136L 261.00961538461536 195.296L 263.2307692307693 196.268L 265.4519230769231 193.184L 267.6730769230769 197.204L 269.8942307692307 193.856L 272.11538461538464 197.096L 274.33653846153845 178.16L 276.55769230769226 194.372L 278.7788461538462 195.92000000000002L 281 195.11599999999999L 283.2211538461538 196.688L 285.4423076923077 197.49200000000002L 287.66346153846155 197.696L 289.8846153846154 186.848L 292.1057692307693 192.644L 294.3269230769231 199.61599999999999L 296.5480769230769 193.052L 298.7692307692307 191.072L 300.9903846153846 195.44L 303.21153846153845 196.184L 305.4326923076923 196.46L 307.6538461538462 197.312L 309.875 193.076L 312.0961538461538 206L 314.3173076923077 186.44L 316.5384615384615 186.632L 318.7596153846154 191.276L 320.9807692307692 180.93200000000002L 323.2019230769231 201.704L 325.4230769230769 185.744L 327.6442307692308 196.028L 329.8653846153846 189.464L 332.0865384615385 194.228L 334.3076923076923 195.632L 336.5288461538462 196.844L 338.75 186.332L 340.9711538461538 197.99599999999998L 343.1923076923077 188.924L 345.4134615384615 189.128L 347.6346153846154 196.748L 349.8557692307692 182.45600000000002L 352.0769230769231 184.16L 354.2980769230769 206L 356.5192307692308 206L 358.7403846153846 206L 360.9615384615385 160.16L 363.1826923076923 198.536L 365.4038461538462 196.60399999999998L 367.625 195.668L 369.8461538461538 192.8L 372.0673076923077 196.964L 374.2884615384615 197.828L 376.5096153846154 200.84L 378.7307692307692 170.312L 380.9519230769231 189.236L 383.1730769230769 177.428L 385.3942307692308 191.564L 387.6153846153846 178.784L 389.8365384615385 176.372L 392.0576923076923 181.7L 394.2788461538462 187.472L 396.5 192.88400000000001L 398.7211538461538 189.38L 400.9423076923077 187.772L 403.1634615384615 189.404L 405.3846153846154 187.532L 407.6057692307692 193.59199999999998L 409.8269230769231 185.036L 412.0480769230769 171.332L 414.2692307692308 180.14L 416.4903846153846 172.316L 418.7115384615385 193.028L 420.9326923076923 191.996L 423.1538461538462 193.052L 425.375 194.84L 427.5961538461538 193.53199999999998L 429.8173076923077 194.024L 432.0384615384615 189.272L 434.2596153846154 195.188L 436.4807692307692 196.256L 438.7019230769231 192.62L 440.9230769230769 190.844L 443.1442307692308 200.984L 445.3653846153846 184.796L 447.5865384615385 190.88L 449.8076923076923 194.42000000000002L 452.0288461538462 189.86L 454.25 195.86L 456.4711538461538 191.984L 458.6923076923077 193.1L 460.9134615384615 186.464L 463.1346153846154 190.46L 465.3557692307692 182.156L 467.5769230769231 187.136L 469.7980769230769 191.528L 472.0192307692308 184.1L 474.2403846153846 189.14L 476.4615384615385 185.204L 478.6826923076923 185.468L 480.9038461538462 176.816L 483.125 189.04399999999998L 485.3461538461538 191.048L 487.5673076923077 188.756L 489.7884615384615 187.592L 492.0096153846154 191.39600000000002L 494.2307692307692 187.796L 496.4519230769231 188.228L 498.6730769230769 190.268L 500.8942307692308 194.372L 503.1153846153846 194.72L 505.3365384615385 201.308L 507.5576923076923 192.752L 509.7788461538462 181.148L 512 181.748L 514.2211538461538 181.208L 516.4423076923076 191.3L 518.6634615384614 186.88400000000001L 520.8846153846154 181.376L 523.1057692307692 186.5L 525.3269230769231 188.44400000000002L 527.5480769230769 179.66L 529.7692307692308 183.09199999999998L 531.9903846153846 173.564L 534.2115384615386 183.836L 536.4326923076924 171.668L 538.6538461538462 148.148L 540.875 178.004L 543.0961538461538 141.86L 545.3173076923076 186.128L 547.5384615384614 188.54000000000002L 549.7596153846154 187.748L 551.9807692307692 193.256L 554.2019230769231 186.596L 556.4230769230769 185.42000000000002L 558.6442307692308 186.872L 560.8653846153846 185.372L 563.0865384615385 192.824L 565.3076923076924 188.552L 567.5288461538462 189.32L 569.75 186.632L 571.9711538461538 185.768L 574.1923076923076 188.744L 576.4134615384615 187.34L 578.6346153846154 192.488L 580.8557692307692 187.028L 583.076923076923 185.468L 585.298076923077 181.928L 587.5192307692308 183.8L 589.7403846153846 180.296L 591.9615384615385 185.516L 594.1826923076924 194L 596.4038461538462 190.328L 598.625 186.584L 600.8461538461538 168.32L 603.0673076923076 117.5L 605.2884615384615 189.10399999999998L 607.5096153846154 187.844L 609.7307692307692 190.28L 611.951923076923 192.32L 614.173076923077 189.2L 616.3942307692308 182.288L 618.6153846153846 188.49200000000002L 620.8365384615385 178.916L 623.0576923076924 53.432000000000016L 625.2788461538462 162.656L 627.5 184.52L 629.7211538461538 182.708L 631.9423076923076 183.68L 634.1634615384615 184.196L 636.3846153846154 179.084L 638.6057692307692 190.16L 640.826923076923 180.476L 643.048076923077 160.916L 645.2692307692308 121.196L 647.4903846153846 151.50799999999998L 649.7115384615385 164.132L 651.9326923076924 181.184L 654.1538461538462 170.49200000000002L 656.375 179.792L 658.5961538461538 173.204L 660.8173076923076 178.352L 663.0384615384615 182.792L 665.2596153846154 177.152L 667.4807692307692 184.232L 669.701923076923 187.796L 671.923076923077 188.348L 674.1442307692308 184.736L 676.3653846153846 181.892L 678.5865384615385 181.796L 680.8076923076924 179.36L 683.0288461538462 168.176L 685.25 181.808L 687.4711538461538 185.372L 689.6923076923076 167.708L 691.9134615384615 140.6L 694.1346153846154 160.784L 696.3557692307692 151.664L 698.576923076923 145.952L 700.798076923077 155.288L 703.0192307692308 153.68L 705.2403846153846 163.04L 707.4615384615385 172.064L 709.6826923076924 148.952L 711.9038461538462 171.812L 714.125 172.46L 716.3461538461538 172.508L 718.5673076923076 183.644L 720.7884615384615 166.304L 723.0096153846154 159.26L 725.2307692307692 172.652L 727.451923076923 165.5L 729.673076923077 154.892L 731.8942307692308 173.888L 734.1153846153846 176.3L 736.3365384615385 186.5L 738.5576923076924 183.932L 740.7788461538462 183.10399999999998L 743 150.128L 745.2211538461538 183.11599999999999L 747.4423076923076 186.152L 749.6634615384615 185.096L 751.8846153846154 182.276L 754.1057692307692 182.18L 756.326923076923 182.144L 758.548076923077 174.956L 760.7692307692308 181.988L 762.9903846153846 179.504L 765.2115384615385 184.784L 767.4326923076924 179L 769.6538461538462 175.868L 771.875 177.14L 774.0961538461538 178.832L 776.3173076923076 182.216L 778.5384615384615 176.444L 780.7596153846154 182.576L 782.9807692307692 177.02L 785.201923076923 178.58L 787.423076923077 182.144L 789.6442307692308 179.48L 791.8653846153846 176.972L 794.0865384615385 186.164L 796.3076923076924 176.096L 798.5288461538462 178.04L 800.75 152.996L 802.9711538461538 130.724L 805.1923076923076 149.888L 807.4134615384615 149.48L 809.6346153846154 184.1L 811.8557692307692 184.484L 814.076923076923 177.56L 816.298076923077 139.952L 818.5192307692308 148.028L 820.7403846153846 162.428L 822.9615384615385 136.244L 825.1826923076924 132.128L 827.4038461538462 142.508L 829.625 143.252L 831.8461538461538 125.732L 834.0673076923076 117.06800000000001L 836.2884615384615 164.264L 838.5096153846154 161.876L 840.7307692307692 158.636L 842.951923076923 176.40800000000002L 845.173076923077 186.632L 847.3942307692308 187.352L 849.6153846153846 186.152L 851.8365384615385 174.932L 854.0576923076924 178.388L 856.2788461538462 194.636L 858.5 184.748L 860.7211538461538 182.84L 862.9423076923076 173.78L 865.1634615384615 177.56L 867.3846153846154 179.996L 869.6057692307692 183.188L 871.826923076923 153.68L 874.048076923077 147.548L 876.2692307692308 185.504L 878.4903846153846 190.724L 880.7115384615385 174.752L 882.9326923076924 174.32L 885.1538461538462 183.692L 887.375 189.06799999999998L 889.5961538461538 186.88400000000001L 891.8173076923076 179.096L 894.0384615384615 175.808L 896.2596153846154 161.672L 898.4807692307692 160.424L 900.701923076923 165.632L 902.923076923077 179.336L 905.1442307692308 183.272L 907.3653846153846 191.024L 909.5865384615385 195.14L 911.8076923076924 182.684L 914.0288461538462 162.416L 916.25 169.712L 918.4711538461538 168.536L 920.6923076923076 179.024L 922.9134615384615 170.768L 925.1346153846154 161.9L 927.3557692307692 170.012L 929.576923076923 180.656L 931.798076923077 178.796L 934.0192307692308 164.648L 936.2403846153846 152.95999999999998L 938.4615384615385 156.62L 940.6826923076924 154.568L 942.9038461538462 142.088L 945.125 156.704L 947.3461538461538 176.924L 949.5673076923076 142.652L 951.7884615384615 131.372L 954.0096153846154 137.276L 956.2307692307692 142.7L 958.451923076923 151.136L 960.673076923077 138.02L 962.8942307692308 110.324L 965.1153846153846 109.724L 967.3365384615385 163.268L 969.5576923076924 161.996L 971.7788461538462 148.016L 974 192.752" stroke-width="2.0" fill="none" />
    
        
        
        <text x="45.0" font-family="-apple-system, system-ui, BlinkMacSystemFont, Roboto" y="50.0" dominant-baseline="middle" text-anchor="end" font-size="12" fill="#24292f">13000.0</text>
        
            
            <path stroke="#74838f" stroke-dasharray="10 6" stroke-width="0.5"  d="M 50.0 50.0 L 974.0 50.0" />
        
    
        
        
        <text x="45.0" font-family="-apple-system, system-ui, BlinkMacSystemFont, Roboto" y="81.2" dominant-baseline="middle" text-anchor="end" font-size="12" fill="#24292f">10400.0</text>
        
            
            
            <path stroke="#74838f" stroke-dasharray="10 6" stroke-width="0.5"  d="M 50.0 81.2 L 974.0 81.2" />
        
    
        
        
        <text x="45.0" font-family="-apple-system, system-ui, BlinkMacSystemFont, Roboto" y="112.4" dominant-baseline="middle" text-anchor="end" font-size="12" fill="#24292f">7800.0</text>
        
            
            
            <path stroke="#74838f" stroke-dasharray="10 6" stroke-width="0.5"  d="M 50.0 112.4 L 974.0 112.4" />
        
    
        
        
        <text x="45.0" font-family="-apple-system, system-ui, BlinkMacSystemFont, Roboto" y="143.6" dominant-baseline="middle" text-anchor="end" font-size="12" fill="#24292f">5200.0</text>
        
            
            
            <path stroke="#74838f" stroke-dasharray="10 6" stroke-width="0.5"  d="M 50.0 143.6 L 974.0 143.6" />
        
    
        
        
        <text x="45.0" font-family="-apple-system, system-ui, BlinkMacSystemFont, Roboto" y="174.8" dominant-baseline="middle" text-anchor="end" font-size="12" fill="#24292f">2600.0</text>
        
            
            
            <path stroke="#74838f" stroke-dasharray="10 6" stroke-width="0.5"  d="M 50.0 174.8 L 974.0 174.8" />
        
    
        
        
        <text x="45.0" font-family="-apple-system, system-ui, BlinkMacSystemFont, Roboto" y="206.0" dominant-baseline="middle" text-anchor="end" font-size="12" fill="#24292f">0.0</text>
        
    
    
        
        <path stroke="#74838f"  stroke-width="2.0"  d="M 85.53846153846155 206.0 L 85.53846153846155 214.0" />
        <text x="85.53846153846155" font-family="-apple-system, system-ui, BlinkMacSystemFont, Roboto" y="216.0" dominant-baseline="hanging" text-anchor="middle" font-size="12" fill="#24292f">Mar 2022</text>
    
        
        <path stroke="#74838f"  stroke-width="2.0"  d="M 154.39423076923077 206.0 L 154.39423076923077 214.0" />
        <text x="154.39423076923077" font-family="-apple-system, system-ui, BlinkMacSystemFont, Roboto" y="216.0" dominant-baseline="hanging" text-anchor="middle" font-size="12" fill="#24292f">Apr 2022</text>
    
        
        <path stroke="#74838f"  stroke-width="2.0"  d="M 221.02884615384616 206.0 L 221.02884615384616 214.0" />
        <text x="221.02884615384616" font-family="-apple-system, system-ui, BlinkMacSystemFont, Roboto" y="216.0" dominant-baseline="hanging" text-anchor="middle" font-size="12" fill="#24292f">May 2022</text>
    
        
        <path stroke="#74838f"  stroke-width="2.0"  d="M 289.8846153846154 206.0 L 289.8846153846154 214.0" />
        <text x="289.8846153846154" font-family="-apple-system, system-ui, BlinkMacSystemFont, Roboto" y="216.0" dominant-baseline="hanging" text-anchor="middle" font-size="12" fill="#24292f">Jun 2022</text>
    
        
        <path stroke="#74838f"  stroke-width="2.0"  d="M 356.5192307692308 206.0 L 356.5192307692308 214.0" />
        <text x="356.5192307692308" font-family="-apple-system, system-ui, BlinkMacSystemFont, Roboto" y="216.0" dominant-baseline="hanging" text-anchor="middle" font-size="12" fill="#24292f">Jul 2022</text>
    
        
        <path stroke="#74838f"  stroke-width="2.0"  d="M 425.375 206.0 L 425.375 214.0" />
        <text x="425.375" font-family="-apple-system, system-ui, BlinkMacSystemFont, Roboto" y="216.0" dominant-baseline="hanging" text-anchor="middle" font-size="12" fill="#24292f">Aug 2022</text>
    
        
        <path stroke="#74838f"  stroke-width="2.0"  d="M 494.2307692307692 206.0 L 494.2307692307692 214.0" />
        <text x="494.2307692307692" font-family="-apple-system, system-ui, BlinkMacSystemFont, Roboto" y="216.0" dominant-baseline="hanging" text-anchor="middle" font-size="12" fill="#24292f">Sep 2022</text>
    
        
        <path stroke="#74838f"  stroke-width="2.0"  d="M 560.8653846153846 206.0 L 560.8653846153846 214.0" />
        <text x="560.8653846153846" font-family="-apple-system, system-ui, BlinkMacSystemFont, Roboto" y="216.0" dominant-baseline="hanging" text-anchor="middle" font-size="12" fill="#24292f">Oct 2022</text>
    
        
        <path stroke="#74838f"  stroke-width="2.0"  d="M 629.7211538461538 206.0 L 629.7211538461538 214.0" />
        <text x="629.7211538461538" font-family="-apple-system, system-ui, BlinkMacSystemFont, Roboto" y="216.0" dominant-baseline="hanging" text-anchor="middle" font-size="12" fill="#24292f">Nov 2022</text>
    
        
        <path stroke="#74838f"  stroke-width="2.0"  d="M 696.3557692307692 206.0 L 696.3557692307692 214.0" />
        <text x="696.3557692307692" font-family="-apple-system, system-ui, BlinkMacSystemFont, Roboto" y="216.0" dominant-baseline="hanging" text-anchor="middle" font-size="12" fill="#24292f">Dec 2022</text>
    
        
        <path stroke="#74838f"  stroke-width="2.0"  d="M 765.2115384615385 206.0 L 765.2115384615385 214.0" />
        <text x="765.2115384615385" font-family="-apple-system, system-ui, BlinkMacSystemFont, Roboto" y="216.0" dominant-baseline="hanging" text-anchor="middle" font-size="12" fill="#24292f">Jan 2023</text>
    
        
        <path stroke="#74838f"  stroke-width="2.0"  d="M 834.0673076923076 206.0 L 834.0673076923076 214.0" />
        <text x="834.0673076923076" font-family="-apple-system, system-ui, BlinkMacSystemFont, Roboto" y="216.0" dominant-baseline="hanging" text-anchor="middle" font-size="12" fill="#24292f">Feb 2023</text>
    
        
        <path stroke="#74838f"  stroke-width="2.0"  d="M 896.2596153846154 206.0 L 896.2596153846154 214.0" />
        <text x="896.2596153846154" font-family="-apple-system, system-ui, BlinkMacSystemFont, Roboto" y="216.0" dominant-baseline="hanging" text-anchor="middle" font-size="12" fill="#24292f">Mar 2023</text>
    
        
        <path stroke="#74838f"  stroke-width="2.0"  d="M 965.1153846153846 206.0 L 965.1153846153846 214.0" />
        <text x="965.1153846153846" font-family="-apple-system, system-ui, BlinkMacSystemFont, Roboto" y="216.0" dominant-baseline="hanging" text-anchor="middle" font-size="12" fill="#24292f">Apr 2023</text>
    
    <path stroke="#74838f"   stroke-linejoin="round" stroke-width="2.0" d="M 50.0 216.0 L 50.0 206.0 L 974.0 206.0 L 974.0 216.0"  fill="none" />
    <text x="512.0" y="25.0" font-family="-apple-system, system-ui, BlinkMacSystemFont, Roboto" dominant-baseline="middle" text-anchor="middle" font-size="18" fill="#24292f">Total daily suspensions</text>
</svg>
