<?xml version="1.0" standalone="no"?>
<svg width="1024.0" height="256.0"  viewBox="0 0 1024.0 256.0" preserveAspectRatio="xMidYMid meet" xmlns="http://www.w3.org/2000/svg">
    <path stroke="#e74c3c" stroke-linejoin="round" d="M 50.0 162.77066666666667 L 50 162.77066666666667L 52.0174672489083 194.12088888888889L 54.03493449781659 197.888L 56.05240174672489 198.2231111111111L 58.069868995633186 203.61955555555556L 60.08733624454148 200.16444444444443L 62.10480349344978 199.51733333333334L 64.12227074235808 191.65955555555556L 66.13973799126637 201.1582222222222L 68.15720524017468 198.89333333333332L 70.17467248908297 200.22222222222223L 72.19213973799127 202.70666666666665L 74.20960698689956 199.45955555555554L 76.22707423580786 195.9928888888889L 78.24454148471615 202.776L 80.26200873362446 198.98577777777777L 82.27947598253274 197.8071111111111L 84.29694323144105 191.96L 86.31441048034935 197.0328888888889L 88.33187772925764 199.70222222222222L 90.34934497816593 199.5751111111111L 92.36681222707423 198.5928888888889L 94.38427947598254 198.45422222222223L 96.40174672489083 200.06044444444444L 98.41921397379912 195.288L 100.43668122270742 200.12977777777778L 102.45414847161572 195.96977777777778L 104.47161572052401 200.92711111111112L 106.4890829694323 198.6968888888889L 108.5065502183406 191.22044444444444L 110.52401746724891 196.47822222222223L 112.54148471615721 191.38222222222223L 114.5589519650655 193.99377777777778L 116.57641921397381 199.92177777777778L 118.5938864628821 192.89600000000002L 120.61135371179039 197.33333333333334L 122.62882096069869 199.82933333333332L 124.64628820960698 194.00533333333334L 126.66375545851528 195.65777777777777L 128.6812227074236 195.81955555555555L 130.69868995633186 195.9351111111111L 132.71615720524017 196.83644444444445L 134.73362445414847 199.66755555555557L 136.75109170305677 199.4711111111111L 138.76855895196508 196.0391111111111L 140.78602620087335 194.39822222222222L 142.80349344978166 195.92355555555554L 144.82096069868996 199.03199999999998L 146.83842794759823 195.81955555555555L 148.85589519650654 194.44444444444446L 150.87336244541484 194.144L 152.89082969432314 187.04888888888888L 154.90829694323145 197.69155555555557L 156.92576419213975 196.33955555555556L 158.94323144104803 198.56977777777777L 160.96069868995633 194.8142222222222L 162.9781659388646 196.77866666666665L 164.9956331877729 197.32177777777778L 167.0131004366812 198.65066666666667L 169.03056768558952 198.35022222222221L 171.04803493449782 199.85244444444444L 173.06550218340612 192.07555555555555L 175.08296943231443 202.26755555555556L 177.10043668122267 193.80888888888887L 179.117903930131 204.26666666666665L 181.1353711790393 206L 183.15283842794761 206L 185.1703056768559 206L 187.1877729257642 206L 189.20524017467247 191.04711111111112L 191.22270742358077 160.76L 193.24017467248908 194.02844444444446L 195.25764192139738 200.4417777777778L 197.27510917030568 193.7048888888889L 199.29257641921396 197.16L 201.31004366812226 200.00266666666667L 203.32751091703057 187.26844444444444L 205.34497816593887 198.18844444444443L 207.36244541484717 195.98133333333334L 209.37991266375548 191.08177777777777L 211.39737991266375 195.288L 213.41484716157206 190.97777777777776L 215.43231441048036 189.39466666666667L 217.44978165938866 198.15377777777778L 219.46724890829697 200.00266666666667L 221.48471615720524 192.4568888888889L 223.50218340611355 192.38755555555556L 225.51965065502182 199.56355555555555L 227.53711790393012 195.13777777777779L 229.55458515283843 193.10399999999998L 231.5720524017467 195.3111111111111L 233.589519650655 199.93333333333334L 235.6069868995633 189.84533333333331L 237.6244541484716 198.70844444444444L 239.64192139737992 196.50133333333332L 241.65938864628822 195.69244444444445L 243.6768558951965 196.62844444444445L 245.6943231441048 193.65866666666668L 247.7117903930131 197.52977777777778L 249.7292576419214 194.3057777777778L 251.7467248908297 197.4257777777778L 253.764192139738 179.19111111111113L 255.7816593886463 194.80266666666665L 257.7991266375546 196.29333333333335L 259.8165938864629 195.5191111111111L 261.83406113537114 197.0328888888889L 263.8515283842795 197.8071111111111L 265.86899563318775 198.00355555555555L 267.88646288209605 187.55733333333333L 269.90393013100436 193.13866666666667L 271.92139737991266 199.85244444444444L 273.93886462882097 193.53155555555554L 275.9563318777292 191.6248888888889L 277.9737991266376 195.8311111111111L 279.9912663755458 196.54755555555556L 282.0087336244541 196.81333333333333L 284.0262008733624 197.63377777777777L 286.04366812227073 193.55466666666666L 288.06113537117903 206L 290.07860262008734 187.16444444444446L 292.09606986899564 187.34933333333333L 294.11353711790395 191.8213333333333L 296.13100436681225 181.86044444444445L 298.14847161572055 201.8631111111111L 300.16593886462886 186.49422222222222L 302.1834061135371 196.39733333333334L 304.20087336244535 190.07644444444443L 306.2183406113537 194.664L 308.235807860262 196.016L 310.2532751091703 197.18311111111112L 312.2707423580786 187.06044444444444L 314.2882096069869 198.29244444444444L 316.30567685589523 189.55644444444445L 318.3231441048035 189.7528888888889L 320.3406113537118 197.09066666666666L 322.3580786026201 183.328L 324.3755458515284 184.9688888888889L 326.39301310043663 206L 328.41048034934494 206L 330.42794759825324 206L 332.44541484716154 161.85777777777778L 334.46288209606985 198.81244444444445L 336.48034934497815 196.952L 338.49781659388645 196.05066666666667L 340.51528384279476 193.2888888888889L 342.53275109170306 197.29866666666666L 344.55021834061137 198.13066666666668L 346.56768558951967 201.0311111111111L 348.5851528384279 171.63377777777777L 350.6026200873362 189.85688888888888L 352.6200873362445 178.4862222222222L 354.6375545851528 192.09866666666667L 356.65502183406113 179.792L 358.67248908296943 177.46933333333334L 360.68995633187774 182.6L 362.70742358078604 188.1582222222222L 364.72489082969435 193.36977777777778L 366.74235807860265 189.99555555555554L 368.75982532751095 188.4471111111111L 370.7772925764192 190.01866666666666L 372.7947598253275 188.216L 374.8122270742358 194.05155555555555L 376.8296943231441 185.81244444444445L 378.8471615720524 172.61599999999999L 380.8646288209607 181.09777777777776L 382.882096069869 173.56355555555555L 384.8995633187773 193.50844444444445L 386.91703056768563 192.51466666666667L 388.93449781659393 193.53155555555554L 390.95196506550224 195.25333333333333L 392.9694323144105 193.99377777777778L 394.9868995633188 194.46755555555555L 397.0043668122271 189.89155555555556L 399.02183406113534 195.58844444444446L 401.03930131004364 196.6168888888889L 403.05676855895194 193.11555555555555L 405.07423580786025 191.40533333333332L 407.09170305676855 201.16977777777777L 409.10917030567686 185.58133333333333L 411.12663755458516 191.44L 413.1441048034934 194.8488888888889L 415.1615720524017 190.45777777777778L 417.17903930131 196.23555555555555L 419.1965065502183 192.5031111111111L 421.2139737991266 193.57777777777778L 423.2314410480349 187.18755555555555L 425.2489082969432 191.03555555555556L 427.26637554585153 183.0391111111111L 429.28384279475983 187.83466666666666L 431.30131004366814 192.064L 433.31877729257644 184.9111111111111L 435.3362445414847 189.76444444444445L 437.353711790393 185.97422222222224L 439.3711790393013 186.22844444444445L 441.3886462882096 177.8968888888889L 443.4061135371179 189.672L 445.4235807860262 191.60177777777778L 447.4410480349345 189.39466666666667L 449.4585152838428 188.27377777777778L 451.4759825327511 191.9368888888889L 453.4934497816594 188.47022222222222L 455.5109170305677 188.88622222222222L 457.528384279476 190.85066666666665L 459.5458515283843 194.80266666666665L 461.5633187772926 195.13777777777779L 463.5807860262009 201.48177777777778L 465.5982532751092 193.24266666666665L 467.6157205240175 182.06844444444445L 469.6331877729258 182.64622222222224L 471.6506550218341 182.12622222222222L 473.66812227074234 191.84444444444443L 475.68558951965065 187.592L 477.70305676855895 182.288L 479.7205240174672 187.22222222222223L 481.7379912663755 189.09422222222221L 483.7554585152838 180.63555555555556L 485.7729257641921 183.94044444444444L 487.7903930131004 174.76533333333333L 489.8078602620087 184.6568888888889L 491.825327510917 172.93955555555556L 493.8427947598253 150.29066666666665L 495.8602620087336 179.0408888888889L 497.87772925764193 144.23555555555555L 499.89519650655023 186.864L 501.9126637554585 189.18666666666667L 503.9301310043668 188.424L 505.9475982532751 193.728L 507.9650655021834 187.31466666666665L 509.9825327510917 186.1822222222222L 512 187.58044444444445L 514.0174672489082 186.136L 516.0349344978166 193.312L 518.0524017467249 189.19822222222223L 520.0698689956332 189.9377777777778L 522.0873362445415 187.34933333333333L 524.1048034934498 186.51733333333334L 526.1222707423581 189.3831111111111L 528.1397379912664 188.0311111111111L 530.1572052401747 192.98844444444444L 532.174672489083 187.73066666666668L 534.1921397379913 186.22844444444445L 536.2096069868995 182.81955555555555L 538.2270742358079 184.6222222222222L 540.2445414847161 181.248L 542.2620087336245 186.27466666666666L 544.2794759825327 194.44444444444446L 546.2969432314411 190.90844444444446L 548.3144104803494 187.30311111111112L 550.3318777292577 169.71555555555557L 552.3493449781658 120.77777777777779L 554.3668122270742 189.72977777777777L 556.3842794759826 188.51644444444446L 558.4017467248907 190.86222222222221L 560.4192139737991 192.82666666666665L 562.4366812227074 189.82222222222222L 564.4541484716158 183.16622222222222L 566.471615720524 189.14044444444443L 568.4890829694324 179.9191111111111L 570.5065502183406 59.082666666666654L 572.524017467249 164.26133333333334L 574.5414847161572 185.31555555555556L 576.5589519650656 183.57066666666668L 578.5764192139738 184.50666666666666L 580.5938864628821 185.00355555555555L 582.6113537117905 180.0808888888889L 584.6288209606987 190.74666666666667L 586.646288209607 181.42133333333334L 588.6637554585153 162.58577777777776L 590.6812227074236 124.3368888888889L 592.6986899563318 153.52622222222223L 594.7161572052402 165.68266666666668L 596.7336244541484 182.1031111111111L 598.7510917030568 171.8071111111111L 600.768558951965 180.76266666666666L 602.7860262008733 174.41866666666667L 604.8034934497816 179.376L 606.8209606986899 183.65155555555555L 608.8384279475982 178.22044444444444L 610.8558951965065 185.03822222222223L 612.8733624454148 188.47022222222222L 614.8908296943231 189.00177777777776L 616.9082969432314 185.52355555555556L 618.9257641921397 182.7848888888889L 620.943231441048 182.69244444444445L 622.9606986899563 180.34666666666666L 624.9781659388645 169.5768888888889L 626.9956331877729 182.704L 629.0131004366812 186.136L 631.0305676855895 169.12622222222222L 633.0480349344978 143.0222222222222L 635.0655021834061 162.45866666666666L 637.0829694323144 153.67644444444443L 639.1004366812227 148.176L 641.117903930131 157.16622222222222L 643.1353711790393 155.61777777777777L 645.1528384279476 164.63111111111112L 647.1703056768558 173.32088888888887L 649.1877729257642 151.0648888888889L 651.2052401746724 173.07822222222222L 653.2227074235808 173.70222222222222L 655.240174672489 173.74844444444443L 657.2576419213974 184.472L 659.2751091703057 167.77422222222222L 661.292576419214 160.9911111111111L 663.3100436681223 173.8871111111111L 665.3275109170306 167L 667.3449781659389 156.78488888888887L 669.3624454148471 175.07733333333334L 671.3799126637555 177.4L 673.3973799126637 187.22222222222223L 675.4148471615721 184.74933333333334L 677.4323144104803 183.952L 679.4497816593887 152.19733333333335L 681.4672489082969 183.96355555555556L 683.4847161572053 186.8871111111111L 685.5021834061135 185.87022222222222L 687.5196506550219 183.15466666666666L 689.5371179039302 183.06222222222223L 691.5545851528384 183.02755555555555L 693.5720524017468 176.10577777777777L 695.589519650655 182.87733333333333L 697.6069868995634 180.48533333333333L 699.6244541484716 185.56977777777777L 701.64192139738 180L 703.6593886462882 176.984L 705.6768558951966 178.20888888888888L 707.6943231441048 179.8382222222222L 709.7117903930132 183.09688888888888L 711.7292576419214 177.53866666666667L 713.7467248908297 183.44355555555555L 715.764192139738 178.09333333333333L 717.7816593886463 179.59555555555556L 719.7991266375547 183.02755555555555L 721.8165938864629 180.4622222222222L 723.8340611353713 178.04711111111112L 725.8515283842795 186.89866666666666L 727.8689956331879 177.20355555555557L 729.8864628820961 179.07555555555555L 731.9039301310045 154.9591111111111L 733.9213973799127 133.512L 735.938864628821 151.96622222222223L 737.9563318777293 151.57333333333332L 739.9737991266376 184.9111111111111L 741.9912663755458 185.28088888888888L 744.0087336244542 178.61333333333334L 746.0262008733624 142.39822222222222L 748.0436681222707 150.1751111111111L 750.061135371179 164.04177777777778L 752.0786026200873 138.82755555555556L 754.0960698689955 134.864L 756.1135371179039 144.85955555555557L 758.1310043668121 145.57600000000002L 760.1484716157205 128.7048888888889L 762.1659388646287 120.36177777777777L 764.1834061135371 165.80977777777778L 766.2008733624453 163.51022222222224L 768.2183406113537 160.39022222222223L 770.235807860262 177.504L 772.2532751091703 187.34933333333333L 774.2707423580786 188.04266666666666L 776.2882096069868 186.8871111111111L 778.3056768558952 176.08266666666668L 780.3231441048034 179.41066666666666L 782.3406113537118 195.0568888888889L 784.35807860262 185.53511111111112L 786.3755458515284 183.6977777777778L 788.3930131004366 174.97333333333333L 790.410480349345 178.61333333333334L 792.4279475982532 180.9591111111111L 794.4454148471616 184.0328888888889L 796.4628820960698 155.61777777777777L 798.4803493449781 149.7128888888889L 800.4978165938865 186.2631111111111L 802.5152838427947 191.28977777777777L 804.5327510917031 175.90933333333334L 806.5502183406113 175.49333333333334L 808.5676855895197 184.51822222222222L 810.5851528384279 189.69511111111112L 812.6026200873363 187.592L 814.6200873362445 180.09244444444445L 816.6375545851529 176.92622222222224L 818.6550218340611 163.31377777777777L 820.6724890829694 162.112L 822.6899563318777 167.1271111111111L 824.707423580786 180.32355555555554L 826.7248908296943 184.11377777777778L 828.7423580786026 191.57866666666666L 830.759825327511 195.54222222222222L 832.7772925764192 183.54755555555556L 834.7947598253276 164.03022222222222L 836.8122270742358 171.05599999999998L 838.8296943231442 169.92355555555557L 840.8471615720524 180.02311111111112L 842.8646288209607 172.07288888888888L 844.882096069869 163.53333333333333L 846.8995633187773 171.34488888888887L 848.9170305676856 181.59466666666668L 850.9344978165939 179.80355555555556L 852.9519650655022 166.17955555555557L 854.9694323144105 154.92444444444445L 856.9868995633188 158.4488888888889L 859.0043668122271 156.4728888888889L 861.0218340611355 144.4551111111111L 863.0393013100437 158.52977777777778L 865.056768558952 178.00088888888888L 867.0742358078603 144.99822222222224L 869.0917030567686 134.136L 871.1091703056769 139.8213333333333L 873.1266375545852 145.04444444444445L 875.1441048034935 153.168L 877.1615720524018 140.53777777777776L 879.1790393013101 113.86755555555555L 881.1965065502184 113.28977777777777L 883.2139737991267 164.85066666666665L 885.231441048035 163.62577777777778L 887.2489082969432 150.16355555555555L 889.2663755458516 149.84L 891.2838427947598 56.54044444444443L 893.3013100436682 124.776L 895.3187772925764 64.07466666666667L 897.3362445414847 123.55111111111111L 899.353711790393 157.536L 901.3711790393013 147.9911111111111L 903.3886462882095 136.22755555555557L 905.4061135371179 91.11466666666666L 907.4235807860262 107.36177777777779L 909.4410480349344 141.68177777777777L 911.4585152838428 157.73244444444444L 913.475982532751 152.63644444444444L 915.4934497816594 96.22222222222221L 917.5109170305676 150.19822222222223L 919.528384279476 116.57155555555556L 921.5458515283842 127.34133333333332L 923.5633187772926 180.53155555555554L 925.5807860262008 137.10577777777777L 927.5982532751092 122.64977777777779L 929.6157205240174 104.61155555555555L 931.6331877729257 141.76266666666666L 933.650655021834 164.23822222222222L 935.6681222707423 160.51733333333334L 937.6855895196506 154.57777777777778L 939.7030567685589 175.01955555555554L 941.7205240174673 146.87022222222222L 943.7379912663755 153.23733333333334L 945.7554585152839 142.82577777777777L 947.7729257641921 130.98133333333334L 949.7903930131005 88.53777777777778L 951.8078602620087 174.488L 953.825327510917 50.55466666666666L 955.8427947598253 84.43555555555557L 957.8602620087336 152.47466666666668L 959.8777292576419 114.90755555555555L 961.8951965065502 96.30311111111112L 963.9126637554585 171.46044444444445L 965.9301310043668 183.96355555555556L 967.9475982532751 169.87733333333333L 969.9650655021834 183.13155555555556L 971.9825327510918 171.992L 974 202.31377777777777" stroke-width="2.0" fill="none" />
    
        
        
        <text x="45.0" font-family="-apple-system, system-ui, BlinkMacSystemFont, Roboto" y="50.0" dominant-baseline="middle" text-anchor="end" font-size="12" fill="#24292f">13500.0</text>
        
            
            <path stroke="#74838f" stroke-dasharray="10 6" stroke-width="0.5"  d="M 50.0 50.0 L 974.0 50.0" />
        
    
        
        
        <text x="45.0" font-family="-apple-system, system-ui, BlinkMacSystemFont, Roboto" y="81.2" dominant-baseline="middle" text-anchor="end" font-size="12" fill="#24292f">10800.0</text>
        
            
            
            <path stroke="#74838f" stroke-dasharray="10 6" stroke-width="0.5"  d="M 50.0 81.2 L 974.0 81.2" />
        
    
        
        
        <text x="45.0" font-family="-apple-system, system-ui, BlinkMacSystemFont, Roboto" y="112.4" dominant-baseline="middle" text-anchor="end" font-size="12" fill="#24292f">8100.0</text>
        
            
            
            <path stroke="#74838f" stroke-dasharray="10 6" stroke-width="0.5"  d="M 50.0 112.4 L 974.0 112.4" />
        
    
        
        
        <text x="45.0" font-family="-apple-system, system-ui, BlinkMacSystemFont, Roboto" y="143.6" dominant-baseline="middle" text-anchor="end" font-size="12" fill="#24292f">5400.0</text>
        
            
            
            <path stroke="#74838f" stroke-dasharray="10 6" stroke-width="0.5"  d="M 50.0 143.6 L 974.0 143.6" />
        
    
        
        
        <text x="45.0" font-family="-apple-system, system-ui, BlinkMacSystemFont, Roboto" y="174.8" dominant-baseline="middle" text-anchor="end" font-size="12" fill="#24292f">2700.0</text>
        
            
            
            <path stroke="#74838f" stroke-dasharray="10 6" stroke-width="0.5"  d="M 50.0 174.8 L 974.0 174.8" />
        
    
        
        
        <text x="45.0" font-family="-apple-system, system-ui, BlinkMacSystemFont, Roboto" y="206.0" dominant-baseline="middle" text-anchor="end" font-size="12" fill="#24292f">0.0</text>
        
    
    
        
        <path stroke="#74838f"  stroke-width="2.0"  d="M 82.27947598253274 206.0 L 82.27947598253274 214.0" />
        <text x="82.27947598253274" font-family="-apple-system, system-ui, BlinkMacSystemFont, Roboto" y="216.0" dominant-baseline="hanging" text-anchor="middle" font-size="12" fill="#24292f">Mar 2022</text>
    
        
        <path stroke="#74838f"  stroke-width="2.0"  d="M 144.82096069868996 206.0 L 144.82096069868996 214.0" />
        <text x="144.82096069868996" font-family="-apple-system, system-ui, BlinkMacSystemFont, Roboto" y="216.0" dominant-baseline="hanging" text-anchor="middle" font-size="12" fill="#24292f">Apr 2022</text>
    
        
        <path stroke="#74838f"  stroke-width="2.0"  d="M 205.34497816593887 206.0 L 205.34497816593887 214.0" />
        <text x="205.34497816593887" font-family="-apple-system, system-ui, BlinkMacSystemFont, Roboto" y="216.0" dominant-baseline="hanging" text-anchor="middle" font-size="12" fill="#24292f">May 2022</text>
    
        
        <path stroke="#74838f"  stroke-width="2.0"  d="M 267.88646288209605 206.0 L 267.88646288209605 214.0" />
        <text x="267.88646288209605" font-family="-apple-system, system-ui, BlinkMacSystemFont, Roboto" y="216.0" dominant-baseline="hanging" text-anchor="middle" font-size="12" fill="#24292f">Jun 2022</text>
    
        
        <path stroke="#74838f"  stroke-width="2.0"  d="M 328.41048034934494 206.0 L 328.41048034934494 214.0" />
        <text x="328.41048034934494" font-family="-apple-system, system-ui, BlinkMacSystemFont, Roboto" y="216.0" dominant-baseline="hanging" text-anchor="middle" font-size="12" fill="#24292f">Jul 2022</text>
    
        
        <path stroke="#74838f"  stroke-width="2.0"  d="M 390.95196506550224 206.0 L 390.95196506550224 214.0" />
        <text x="390.95196506550224" font-family="-apple-system, system-ui, BlinkMacSystemFont, Roboto" y="216.0" dominant-baseline="hanging" text-anchor="middle" font-size="12" fill="#24292f">Aug 2022</text>
    
        
        <path stroke="#74838f"  stroke-width="2.0"  d="M 453.4934497816594 206.0 L 453.4934497816594 214.0" />
        <text x="453.4934497816594" font-family="-apple-system, system-ui, BlinkMacSystemFont, Roboto" y="216.0" dominant-baseline="hanging" text-anchor="middle" font-size="12" fill="#24292f">Sep 2022</text>
    
        
        <path stroke="#74838f"  stroke-width="2.0"  d="M 514.0174672489082 206.0 L 514.0174672489082 214.0" />
        <text x="514.0174672489082" font-family="-apple-system, system-ui, BlinkMacSystemFont, Roboto" y="216.0" dominant-baseline="hanging" text-anchor="middle" font-size="12" fill="#24292f">Oct 2022</text>
    
        
        <path stroke="#74838f"  stroke-width="2.0"  d="M 576.5589519650656 206.0 L 576.5589519650656 214.0" />
        <text x="576.5589519650656" font-family="-apple-system, system-ui, BlinkMacSystemFont, Roboto" y="216.0" dominant-baseline="hanging" text-anchor="middle" font-size="12" fill="#24292f">Nov 2022</text>
    
        
        <path stroke="#74838f"  stroke-width="2.0"  d="M 637.0829694323144 206.0 L 637.0829694323144 214.0" />
        <text x="637.0829694323144" font-family="-apple-system, system-ui, BlinkMacSystemFont, Roboto" y="216.0" dominant-baseline="hanging" text-anchor="middle" font-size="12" fill="#24292f">Dec 2022</text>
    
        
        <path stroke="#74838f"  stroke-width="2.0"  d="M 699.6244541484716 206.0 L 699.6244541484716 214.0" />
        <text x="699.6244541484716" font-family="-apple-system, system-ui, BlinkMacSystemFont, Roboto" y="216.0" dominant-baseline="hanging" text-anchor="middle" font-size="12" fill="#24292f">Jan 2023</text>
    
        
        <path stroke="#74838f"  stroke-width="2.0"  d="M 762.1659388646287 206.0 L 762.1659388646287 214.0" />
        <text x="762.1659388646287" font-family="-apple-system, system-ui, BlinkMacSystemFont, Roboto" y="216.0" dominant-baseline="hanging" text-anchor="middle" font-size="12" fill="#24292f">Feb 2023</text>
    
        
        <path stroke="#74838f"  stroke-width="2.0"  d="M 818.6550218340611 206.0 L 818.6550218340611 214.0" />
        <text x="818.6550218340611" font-family="-apple-system, system-ui, BlinkMacSystemFont, Roboto" y="216.0" dominant-baseline="hanging" text-anchor="middle" font-size="12" fill="#24292f">Mar 2023</text>
    
        
        <path stroke="#74838f"  stroke-width="2.0"  d="M 881.1965065502184 206.0 L 881.1965065502184 214.0" />
        <text x="881.1965065502184" font-family="-apple-system, system-ui, BlinkMacSystemFont, Roboto" y="216.0" dominant-baseline="hanging" text-anchor="middle" font-size="12" fill="#24292f">Apr 2023</text>
    
        
        <path stroke="#74838f"  stroke-width="2.0"  d="M 941.7205240174673 206.0 L 941.7205240174673 214.0" />
        <text x="941.7205240174673" font-family="-apple-system, system-ui, BlinkMacSystemFont, Roboto" y="216.0" dominant-baseline="hanging" text-anchor="middle" font-size="12" fill="#24292f">May 2023</text>
    
    <path stroke="#74838f"   stroke-linejoin="round" stroke-width="2.0" d="M 50.0 216.0 L 50.0 206.0 L 974.0 206.0 L 974.0 216.0"  fill="none" />
    <text x="512.0" y="25.0" font-family="-apple-system, system-ui, BlinkMacSystemFont, Roboto" dominant-baseline="middle" text-anchor="middle" font-size="18" fill="#24292f">Total daily suspensions</text>
</svg>
