<?xml version="1.0" standalone="no"?>
<svg width="1024.0" height="256.0"  viewBox="0 0 1024.0 256.0" preserveAspectRatio="xMidYMid meet" xmlns="http://www.w3.org/2000/svg">
    <path stroke="#e74c3c" stroke-linejoin="round" d="M 50.0 161.108 L 50 161.108L 53 193.664L 56 197.576L 59 197.924L 62 203.528L 65 199.94L 68 199.268L 71 191.108L 74 200.972L 77 198.62L 80 200L 83 202.57999999999998L 86 199.208L 89 195.608L 92 202.652L 95 198.716L 98 197.49200000000002L 101 191.42000000000002L 104 196.688L 107 199.46L 110 199.328L 113 198.308L 116 198.164L 119 199.832L 122 194.876L 125 199.904L 128 195.584L 131 200.732L 134 198.416L 137 190.652L 140 196.112L 143 190.82L 146 193.53199999999998L 149 199.688L 152 192.392L 155 197L 158 199.59199999999998L 161 193.54399999999998L 164 195.26L 167 195.428L 170 195.548L 173 196.484L 176 199.424L 179 199.22L 182 195.656L 185 193.952L 188 195.536L 191 198.764L 194 195.428L 197 194L 200 193.688L 203 186.32L 206 197.372L 209 195.96800000000002L 212 198.284L 215 194.38400000000001L 218 196.424L 221 196.988L 224 198.368L 227 198.05599999999998L 230 199.61599999999999L 233 191.54L 236 202.124L 239 193.34L 242 204.2L 245 206L 248 206L 251 206L 254 206L 257 190.472L 260 159.01999999999998L 263 193.56799999999998L 266 200.228L 269 193.232L 272 196.82L 275 199.772L 278 186.548L 281 197.888L 284 195.596L 287 190.508L 290 194.876L 293 190.4L 296 188.756L 299 197.852L 302 199.772L 305 191.936L 308 191.864L 311 199.316L 314 194.72L 317 192.608L 320 194.9L 323 199.7L 326 189.224L 329 198.428L 332 196.136L 335 195.296L 338 196.268L 341 193.184L 344 197.204L 347 193.856L 350 197.096L 353 178.16L 356 194.372L 359 195.92000000000002L 362 195.11599999999999L 365 196.688L 368 197.49200000000002L 371 197.696L 374 186.848L 377 192.644L 380 199.61599999999999L 383 193.052L 386 191.072L 389 195.44L 392 196.184L 395 196.46L 398 197.312L 401 193.076L 404 206L 407 186.44L 410 186.632L 413 191.276L 416 180.93200000000002L 419 201.704L 422 185.744L 425 196.028L 428 189.464L 431 194.228L 434 195.632L 437 196.844L 440 186.332L 443 197.99599999999998L 446 188.924L 449 189.128L 452 196.748L 455 182.45600000000002L 458 184.16L 461 206L 464 206L 467 206L 470 160.16L 473 198.536L 476 196.60399999999998L 479 195.668L 482 192.8L 485 196.964L 488 197.828L 491 200.84L 494 170.312L 497 189.236L 500 177.428L 503 191.564L 506 178.784L 509 176.372L 512 181.7L 515 187.472L 518 192.88400000000001L 521 189.38L 524 187.772L 527 189.404L 530 187.532L 533 193.59199999999998L 536 185.036L 539 171.332L 542 180.14L 545 172.316L 548 193.028L 551 191.996L 554 193.052L 557 194.84L 560 193.53199999999998L 563 194.024L 566 189.272L 569 195.188L 572 196.256L 575 192.62L 578 190.844L 581 200.984L 584 184.796L 587 190.88L 590 194.42000000000002L 593 189.86L 596 195.86L 599 191.984L 602 193.1L 605 186.464L 608 190.46L 611 182.156L 614 187.136L 617 191.528L 620 184.1L 623 189.14L 626 185.204L 629 185.468L 632 176.828L 635 189.04399999999998L 638 191.048L 641 188.756L 644 187.592L 647 191.39600000000002L 650 187.796L 653 188.228L 656 190.268L 659 194.372L 662 194.72L 665 201.308L 668 192.752L 671 181.148L 674 181.748L 677 181.208L 680 191.3L 683 186.88400000000001L 686 181.376L 689 186.5L 692 188.44400000000002L 695 179.66L 698 183.09199999999998L 701 173.564L 704 183.836L 707 171.668L 710 148.148L 713 178.004L 716 141.86L 719 186.128L 722 188.54000000000002L 725 187.748L 728 193.256L 731 186.596L 734 185.42000000000002L 737 186.872L 740 185.372L 743 192.824L 746 188.552L 749 189.32L 752 186.632L 755 185.768L 758 188.744L 761 187.34L 764 192.488L 767 187.028L 770 185.468L 773 181.928L 776 183.8L 779 180.296L 782 185.516L 785 194L 788 190.328L 791 186.584L 794 168.32L 797 117.5L 800 189.10399999999998L 803 187.844L 806 190.28L 809 192.32L 812 189.2L 815 182.288L 818 188.49200000000002L 821 178.916L 824 53.432000000000016L 827 162.656L 830 184.52L 833 182.708L 836 183.68L 839 184.196L 842 179.084L 845 190.16L 848 180.476L 851 160.916L 854 121.196L 857 151.50799999999998L 860 164.132L 863 181.184L 866 170.49200000000002L 869 179.792L 872 173.204L 875 178.352L 878 182.792L 881 177.152L 884 184.232L 887 187.796L 890 188.348L 893 184.736L 896 181.892L 899 181.796L 902 179.36L 905 168.176L 908 181.808L 911 185.372L 914 167.708L 917 140.6L 920 160.784L 923 151.664L 926 145.952L 929 155.288L 932 153.68L 935 163.04L 938 172.064L 941 148.952L 944 171.812L 947 172.46L 950 172.508L 953 183.644L 956 166.304L 959 159.26L 962 172.652L 965 165.5L 968 154.892L 971 173.888L 974 195.98000000000002" stroke-width="2.0" fill="none" />
    
        
        
        <text x="45.0" font-family="-apple-system, system-ui, BlinkMacSystemFont, Roboto" y="50.0" dominant-baseline="middle" text-anchor="end" font-size="12" fill="#24292f">13000.0</text>
        
            
            <path stroke="#74838f" stroke-dasharray="10 6" stroke-width="0.5"  d="M 50.0 50.0 L 974.0 50.0" />
        
    
        
        
        <text x="45.0" font-family="-apple-system, system-ui, BlinkMacSystemFont, Roboto" y="81.2" dominant-baseline="middle" text-anchor="end" font-size="12" fill="#24292f">10400.0</text>
        
            
            
            <path stroke="#74838f" stroke-dasharray="10 6" stroke-width="0.5"  d="M 50.0 81.2 L 974.0 81.2" />
        
    
        
        
        <text x="45.0" font-family="-apple-system, system-ui, BlinkMacSystemFont, Roboto" y="112.4" dominant-baseline="middle" text-anchor="end" font-size="12" fill="#24292f">7800.0</text>
        
            
            
            <path stroke="#74838f" stroke-dasharray="10 6" stroke-width="0.5"  d="M 50.0 112.4 L 974.0 112.4" />
        
    
        
        
        <text x="45.0" font-family="-apple-system, system-ui, BlinkMacSystemFont, Roboto" y="143.6" dominant-baseline="middle" text-anchor="end" font-size="12" fill="#24292f">5200.0</text>
        
            
            
            <path stroke="#74838f" stroke-dasharray="10 6" stroke-width="0.5"  d="M 50.0 143.6 L 974.0 143.6" />
        
    
        
        
        <text x="45.0" font-family="-apple-system, system-ui, BlinkMacSystemFont, Roboto" y="174.8" dominant-baseline="middle" text-anchor="end" font-size="12" fill="#24292f">2600.0</text>
        
            
            
            <path stroke="#74838f" stroke-dasharray="10 6" stroke-width="0.5"  d="M 50.0 174.8 L 974.0 174.8" />
        
    
        
        
        <text x="45.0" font-family="-apple-system, system-ui, BlinkMacSystemFont, Roboto" y="206.0" dominant-baseline="middle" text-anchor="end" font-size="12" fill="#24292f">0.0</text>
        
    
    
        
        <path stroke="#74838f"  stroke-width="2.0"  d="M 98.0 206.0 L 98.0 214.0" />
        <text x="98.0" font-family="-apple-system, system-ui, BlinkMacSystemFont, Roboto" y="216.0" dominant-baseline="hanging" text-anchor="middle" font-size="12" fill="#24292f">Mar 2022</text>
    
        
        <path stroke="#74838f"  stroke-width="2.0"  d="M 191.0 206.0 L 191.0 214.0" />
        <text x="191.0" font-family="-apple-system, system-ui, BlinkMacSystemFont, Roboto" y="216.0" dominant-baseline="hanging" text-anchor="middle" font-size="12" fill="#24292f">Apr 2022</text>
    
        
        <path stroke="#74838f"  stroke-width="2.0"  d="M 281.0 206.0 L 281.0 214.0" />
        <text x="281.0" font-family="-apple-system, system-ui, BlinkMacSystemFont, Roboto" y="216.0" dominant-baseline="hanging" text-anchor="middle" font-size="12" fill="#24292f">May 2022</text>
    
        
        <path stroke="#74838f"  stroke-width="2.0"  d="M 374.0 206.0 L 374.0 214.0" />
        <text x="374.0" font-family="-apple-system, system-ui, BlinkMacSystemFont, Roboto" y="216.0" dominant-baseline="hanging" text-anchor="middle" font-size="12" fill="#24292f">Jun 2022</text>
    
        
        <path stroke="#74838f"  stroke-width="2.0"  d="M 464.0 206.0 L 464.0 214.0" />
        <text x="464.0" font-family="-apple-system, system-ui, BlinkMacSystemFont, Roboto" y="216.0" dominant-baseline="hanging" text-anchor="middle" font-size="12" fill="#24292f">Jul 2022</text>
    
        
        <path stroke="#74838f"  stroke-width="2.0"  d="M 557.0 206.0 L 557.0 214.0" />
        <text x="557.0" font-family="-apple-system, system-ui, BlinkMacSystemFont, Roboto" y="216.0" dominant-baseline="hanging" text-anchor="middle" font-size="12" fill="#24292f">Aug 2022</text>
    
        
        <path stroke="#74838f"  stroke-width="2.0"  d="M 650.0 206.0 L 650.0 214.0" />
        <text x="650.0" font-family="-apple-system, system-ui, BlinkMacSystemFont, Roboto" y="216.0" dominant-baseline="hanging" text-anchor="middle" font-size="12" fill="#24292f">Sep 2022</text>
    
        
        <path stroke="#74838f"  stroke-width="2.0"  d="M 740.0 206.0 L 740.0 214.0" />
        <text x="740.0" font-family="-apple-system, system-ui, BlinkMacSystemFont, Roboto" y="216.0" dominant-baseline="hanging" text-anchor="middle" font-size="12" fill="#24292f">Oct 2022</text>
    
        
        <path stroke="#74838f"  stroke-width="2.0"  d="M 833.0 206.0 L 833.0 214.0" />
        <text x="833.0" font-family="-apple-system, system-ui, BlinkMacSystemFont, Roboto" y="216.0" dominant-baseline="hanging" text-anchor="middle" font-size="12" fill="#24292f">Nov 2022</text>
    
        
        <path stroke="#74838f"  stroke-width="2.0"  d="M 923.0 206.0 L 923.0 214.0" />
        <text x="923.0" font-family="-apple-system, system-ui, BlinkMacSystemFont, Roboto" y="216.0" dominant-baseline="hanging" text-anchor="middle" font-size="12" fill="#24292f">Dec 2022</text>
    
    <path stroke="#74838f"   stroke-linejoin="round" stroke-width="2.0" d="M 50.0 216.0 L 50.0 206.0 L 974.0 206.0 L 974.0 216.0"  fill="none" />
    <text x="512.0" y="25.0" font-family="-apple-system, system-ui, BlinkMacSystemFont, Roboto" dominant-baseline="middle" text-anchor="middle" font-size="18" fill="#24292f">Total daily suspensions</text>
</svg>
