<?xml version="1.0" standalone="no"?>
<svg width="1024.0" height="256.0"  viewBox="0 0 1024.0 256.0" preserveAspectRatio="xMidYMid meet" xmlns="http://www.w3.org/2000/svg">
    <path stroke="#e74c3c" stroke-linejoin="round" d="M 50.0 161.108 L 50 161.108L 52.69387755102041 193.664L 55.38775510204081 197.576L 58.08163265306123 197.924L 60.775510204081634 203.528L 63.46938775510204 199.94L 66.16326530612245 199.268L 68.85714285714286 191.108L 71.55102040816327 200.972L 74.24489795918367 198.62L 76.93877551020408 200L 79.63265306122449 202.57999999999998L 82.32653061224491 199.208L 85.0204081632653 195.608L 87.71428571428571 202.652L 90.40816326530611 198.716L 93.10204081632654 197.49200000000002L 95.79591836734694 191.42000000000002L 98.48979591836735 196.688L 101.18367346938776 199.46L 103.87755102040816 199.328L 106.57142857142857 198.308L 109.26530612244898 198.164L 111.9591836734694 199.832L 114.6530612244898 194.876L 117.34693877551021 199.904L 120.04081632653062 195.584L 122.73469387755102 200.732L 125.42857142857142 198.416L 128.12244897959184 190.652L 130.81632653061223 196.112L 133.51020408163265 190.82L 136.20408163265307 193.53199999999998L 138.89795918367346 199.688L 141.59183673469389 192.392L 144.28571428571428 197L 146.9795918367347 199.59199999999998L 149.67346938775512 193.54399999999998L 152.3673469387755 195.26L 155.0612244897959 195.428L 157.75510204081633 195.548L 160.44897959183675 196.484L 163.14285714285714 199.424L 165.83673469387756 199.22L 168.53061224489795 195.656L 171.22448979591837 193.952L 173.9183673469388 195.536L 176.61224489795916 198.764L 179.3061224489796 195.428L 182 194L 184.69387755102042 193.688L 187.3877551020408 186.32L 190.08163265306123 197.372L 192.77551020408163 195.96800000000002L 195.46938775510205 198.284L 198.16326530612244 194.38400000000001L 200.85714285714283 196.424L 203.55102040816325 196.988L 206.24489795918367 198.368L 208.9387755102041 198.05599999999998L 211.6326530612245 199.61599999999999L 214.3265306122449 191.54L 217.0204081632653 202.124L 219.71428571428572 193.34L 222.40816326530611 204.2L 225.10204081632654 206L 227.79591836734693 206L 230.48979591836732 206L 233.18367346938777 206L 235.87755102040816 190.472L 238.57142857142858 159.01999999999998L 241.26530612244898 193.56799999999998L 243.9591836734694 200.228L 246.6530612244898 193.232L 249.3469387755102 196.82L 252.0408163265306 199.772L 254.73469387755102 186.548L 257.42857142857144 197.888L 260.1224489795918 195.596L 262.8163265306123 190.508L 265.51020408163265 194.876L 268.2040816326531 190.4L 270.8979591836735 188.756L 273.59183673469386 197.852L 276.2857142857143 199.772L 278.9795918367347 191.936L 281.6734693877551 191.864L 284.36734693877554 199.316L 287.0612244897959 194.72L 289.7551020408163 192.608L 292.44897959183675 194.9L 295.14285714285717 199.7L 297.8367346938776 189.224L 300.53061224489795 198.428L 303.2244897959183 196.136L 305.9183673469388 195.296L 308.6122448979592 196.268L 311.3061224489796 193.184L 314 197.204L 316.6938775510204 193.856L 319.38775510204084 197.096L 322.0816326530612 178.16L 324.7755102040816 194.372L 327.469387755102 195.92000000000002L 330.16326530612247 195.11599999999999L 332.8571428571429 196.688L 335.55102040816325 197.49200000000002L 338.2448979591837 197.696L 340.9387755102041 186.848L 343.6326530612245 192.644L 346.3265306122449 199.61599999999999L 349.0204081632653 193.052L 351.71428571428567 191.072L 354.40816326530614 195.44L 357.1020408163265 196.184L 359.7959183673469 196.46L 362.48979591836735 197.312L 365.18367346938777 193.076L 367.8775510204082 206L 370.57142857142856 186.44L 373.265306122449 186.632L 375.9591836734694 191.276L 378.6530612244898 180.93200000000002L 381.3469387755102 201.704L 384.0408163265306 185.744L 386.734693877551 196.028L 389.42857142857144 189.464L 392.12244897959187 194.228L 394.81632653061223 195.632L 397.51020408163265 196.844L 400.2040816326531 186.332L 402.8979591836735 197.99599999999998L 405.59183673469386 188.924L 408.2857142857143 189.128L 410.97959183673464 196.748L 413.6734693877551 182.45600000000002L 416.36734693877554 184.16L 419.0612244897959 206L 421.7551020408163 206L 424.44897959183675 206L 427.14285714285717 160.16L 429.83673469387753 198.536L 432.53061224489795 196.60399999999998L 435.2244897959184 195.668L 437.9183673469388 192.8L 440.61224489795916 196.964L 443.3061224489796 197.828L 446 200.84L 448.6938775510204 170.312L 451.38775510204084 189.236L 454.0816326530612 177.428L 456.7755102040816 191.564L 459.46938775510205 178.784L 462.16326530612247 176.372L 464.85714285714283 181.7L 467.55102040816325 187.472L 470.2448979591837 192.88400000000001L 472.9387755102041 189.38L 475.6326530612245 187.772L 478.3265306122449 189.404L 481.0204081632653 187.532L 483.7142857142857 193.59199999999998L 486.40816326530614 185.036L 489.1020408163265 171.332L 491.7959183673469 180.14L 494.48979591836735 172.316L 497.18367346938777 193.028L 499.8775510204082 191.996L 502.57142857142856 193.052L 505.265306122449 194.84L 507.9591836734694 193.53199999999998L 510.6530612244898 194.024L 513.3469387755102 189.272L 516.0408163265306 195.188L 518.7346938775511 196.256L 521.4285714285714 192.62L 524.1224489795918 190.844L 526.8163265306123 200.984L 529.5102040816327 184.796L 532.204081632653 190.88L 534.8979591836735 194.42000000000002L 537.591836734694 189.86L 540.2857142857143 195.86L 542.9795918367347 191.984L 545.6734693877552 193.1L 548.3673469387754 186.464L 551.0612244897959 190.46L 553.7551020408164 182.156L 556.4489795918366 187.136L 559.1428571428571 191.528L 561.8367346938776 184.1L 564.530612244898 189.14L 567.2244897959184 185.204L 569.9183673469388 185.468L 572.6122448979592 176.816L 575.3061224489795 189.04399999999998L 578 191.048L 580.6938775510204 188.756L 583.3877551020408 187.592L 586.0816326530612 191.39600000000002L 588.7755102040817 187.796L 591.469387755102 188.228L 594.1632653061224 190.268L 596.8571428571429 194.372L 599.5510204081633 194.72L 602.2448979591836 201.308L 604.938775510204 192.752L 607.6326530612246 181.148L 610.3265306122449 181.748L 613.0204081632653 181.208L 615.7142857142858 191.3L 618.4081632653061 186.88400000000001L 621.1020408163265 181.376L 623.7959183673469 186.5L 626.4897959183673 188.44400000000002L 629.1836734693877 179.66L 631.8775510204082 183.09199999999998L 634.5714285714286 173.564L 637.265306122449 183.836L 639.9591836734694 171.668L 642.6530612244898 148.148L 645.3469387755102 178.004L 648.0408163265306 141.86L 650.734693877551 186.128L 653.4285714285713 188.54000000000002L 656.1224489795919 187.748L 658.8163265306123 193.256L 661.5102040816327 186.596L 664.204081632653 185.42000000000002L 666.8979591836735 186.872L 669.5918367346939 185.372L 672.2857142857142 192.824L 674.9795918367347 188.552L 677.6734693877551 189.32L 680.3673469387755 186.632L 683.0612244897959 185.768L 685.7551020408164 188.744L 688.4489795918367 187.34L 691.1428571428571 192.488L 693.8367346938776 187.028L 696.530612244898 185.468L 699.2244897959183 181.928L 701.9183673469388 183.8L 704.6122448979593 180.296L 707.3061224489796 185.516L 710 194L 712.6938775510204 190.328L 715.3877551020408 186.584L 718.0816326530612 168.32L 720.7755102040816 117.5L 723.469387755102 189.10399999999998L 726.1632653061225 187.844L 728.8571428571429 190.28L 731.5510204081633 192.32L 734.2448979591837 189.2L 736.9387755102041 182.288L 739.6326530612245 188.49200000000002L 742.3265306122448 178.916L 745.0204081632653 53.432000000000016L 747.7142857142857 162.656L 750.4081632653061 184.52L 753.1020408163265 182.708L 755.795918367347 183.68L 758.4897959183673 184.196L 761.1836734693877 179.084L 763.8775510204082 190.16L 766.5714285714286 180.476L 769.2653061224489 160.916L 771.9591836734693 121.196L 774.6530612244899 151.50799999999998L 777.3469387755102 164.132L 780.0408163265306 181.184L 782.7346938775511 170.49200000000002L 785.4285714285714 179.792L 788.1224489795918 173.204L 790.8163265306122 178.352L 793.5102040816327 182.792L 796.204081632653 177.152L 798.8979591836735 184.232L 801.5918367346939 187.796L 804.2857142857143 188.348L 806.9795918367347 184.736L 809.6734693877551 181.892L 812.3673469387755 181.796L 815.0612244897959 179.36L 817.7551020408163 168.176L 820.4489795918367 181.808L 823.1428571428572 185.372L 825.8367346938776 167.708L 828.530612244898 140.6L 831.2244897959183 160.784L 833.9183673469388 151.664L 836.6122448979592 145.952L 839.3061224489795 155.288L 842 153.68L 844.6938775510205 163.04L 847.3877551020408 172.064L 850.0816326530612 148.952L 852.7755102040817 171.812L 855.469387755102 172.46L 858.1632653061224 172.508L 860.8571428571429 183.644L 863.5510204081633 166.304L 866.2448979591836 159.26L 868.9387755102041 172.652L 871.6326530612246 165.5L 874.3265306122449 154.892L 877.0204081632653 173.888L 879.7142857142857 176.3L 882.4081632653061 186.5L 885.1020408163265 183.932L 887.7959183673469 183.10399999999998L 890.4897959183673 150.128L 893.1836734693878 183.11599999999999L 895.8775510204082 186.152L 898.5714285714286 185.096L 901.265306122449 182.276L 903.9591836734694 182.18L 906.6530612244898 182.144L 909.3469387755101 174.956L 912.0408163265306 181.988L 914.734693877551 179.504L 917.4285714285714 184.784L 920.1224489795918 179L 922.8163265306123 175.868L 925.5102040816327 177.14L 928.204081632653 178.832L 930.8979591836735 182.216L 933.5918367346939 176.444L 936.2857142857142 182.576L 938.9795918367347 177.02L 941.6734693877552 178.58L 944.3673469387755 182.144L 947.0612244897959 179.48L 949.7551020408164 176.972L 952.4489795918367 186.164L 955.1428571428571 176.096L 957.8367346938775 178.04L 960.530612244898 152.996L 963.2244897959184 130.724L 965.9183673469388 149.888L 968.6122448979592 149.48L 971.3061224489796 184.1L 974 192.89600000000002" stroke-width="2.0" fill="none" />
    
        
        
        <text x="45.0" font-family="-apple-system, system-ui, BlinkMacSystemFont, Roboto" y="50.0" dominant-baseline="middle" text-anchor="end" font-size="12" fill="#24292f">13000.0</text>
        
            
            <path stroke="#74838f" stroke-dasharray="10 6" stroke-width="0.5"  d="M 50.0 50.0 L 974.0 50.0" />
        
    
        
        
        <text x="45.0" font-family="-apple-system, system-ui, BlinkMacSystemFont, Roboto" y="81.2" dominant-baseline="middle" text-anchor="end" font-size="12" fill="#24292f">10400.0</text>
        
            
            
            <path stroke="#74838f" stroke-dasharray="10 6" stroke-width="0.5"  d="M 50.0 81.2 L 974.0 81.2" />
        
    
        
        
        <text x="45.0" font-family="-apple-system, system-ui, BlinkMacSystemFont, Roboto" y="112.4" dominant-baseline="middle" text-anchor="end" font-size="12" fill="#24292f">7800.0</text>
        
            
            
            <path stroke="#74838f" stroke-dasharray="10 6" stroke-width="0.5"  d="M 50.0 112.4 L 974.0 112.4" />
        
    
        
        
        <text x="45.0" font-family="-apple-system, system-ui, BlinkMacSystemFont, Roboto" y="143.6" dominant-baseline="middle" text-anchor="end" font-size="12" fill="#24292f">5200.0</text>
        
            
            
            <path stroke="#74838f" stroke-dasharray="10 6" stroke-width="0.5"  d="M 50.0 143.6 L 974.0 143.6" />
        
    
        
        
        <text x="45.0" font-family="-apple-system, system-ui, BlinkMacSystemFont, Roboto" y="174.8" dominant-baseline="middle" text-anchor="end" font-size="12" fill="#24292f">2600.0</text>
        
            
            
            <path stroke="#74838f" stroke-dasharray="10 6" stroke-width="0.5"  d="M 50.0 174.8 L 974.0 174.8" />
        
    
        
        
        <text x="45.0" font-family="-apple-system, system-ui, BlinkMacSystemFont, Roboto" y="206.0" dominant-baseline="middle" text-anchor="end" font-size="12" fill="#24292f">0.0</text>
        
    
    
        
        <path stroke="#74838f"  stroke-width="2.0"  d="M 93.10204081632654 206.0 L 93.10204081632654 214.0" />
        <text x="93.10204081632654" font-family="-apple-system, system-ui, BlinkMacSystemFont, Roboto" y="216.0" dominant-baseline="hanging" text-anchor="middle" font-size="12" fill="#24292f">Mar 2022</text>
    
        
        <path stroke="#74838f"  stroke-width="2.0"  d="M 176.61224489795916 206.0 L 176.61224489795916 214.0" />
        <text x="176.61224489795916" font-family="-apple-system, system-ui, BlinkMacSystemFont, Roboto" y="216.0" dominant-baseline="hanging" text-anchor="middle" font-size="12" fill="#24292f">Apr 2022</text>
    
        
        <path stroke="#74838f"  stroke-width="2.0"  d="M 257.42857142857144 206.0 L 257.42857142857144 214.0" />
        <text x="257.42857142857144" font-family="-apple-system, system-ui, BlinkMacSystemFont, Roboto" y="216.0" dominant-baseline="hanging" text-anchor="middle" font-size="12" fill="#24292f">May 2022</text>
    
        
        <path stroke="#74838f"  stroke-width="2.0"  d="M 340.9387755102041 206.0 L 340.9387755102041 214.0" />
        <text x="340.9387755102041" font-family="-apple-system, system-ui, BlinkMacSystemFont, Roboto" y="216.0" dominant-baseline="hanging" text-anchor="middle" font-size="12" fill="#24292f">Jun 2022</text>
    
        
        <path stroke="#74838f"  stroke-width="2.0"  d="M 421.7551020408163 206.0 L 421.7551020408163 214.0" />
        <text x="421.7551020408163" font-family="-apple-system, system-ui, BlinkMacSystemFont, Roboto" y="216.0" dominant-baseline="hanging" text-anchor="middle" font-size="12" fill="#24292f">Jul 2022</text>
    
        
        <path stroke="#74838f"  stroke-width="2.0"  d="M 505.265306122449 206.0 L 505.265306122449 214.0" />
        <text x="505.265306122449" font-family="-apple-system, system-ui, BlinkMacSystemFont, Roboto" y="216.0" dominant-baseline="hanging" text-anchor="middle" font-size="12" fill="#24292f">Aug 2022</text>
    
        
        <path stroke="#74838f"  stroke-width="2.0"  d="M 588.7755102040817 206.0 L 588.7755102040817 214.0" />
        <text x="588.7755102040817" font-family="-apple-system, system-ui, BlinkMacSystemFont, Roboto" y="216.0" dominant-baseline="hanging" text-anchor="middle" font-size="12" fill="#24292f">Sep 2022</text>
    
        
        <path stroke="#74838f"  stroke-width="2.0"  d="M 669.5918367346939 206.0 L 669.5918367346939 214.0" />
        <text x="669.5918367346939" font-family="-apple-system, system-ui, BlinkMacSystemFont, Roboto" y="216.0" dominant-baseline="hanging" text-anchor="middle" font-size="12" fill="#24292f">Oct 2022</text>
    
        
        <path stroke="#74838f"  stroke-width="2.0"  d="M 753.1020408163265 206.0 L 753.1020408163265 214.0" />
        <text x="753.1020408163265" font-family="-apple-system, system-ui, BlinkMacSystemFont, Roboto" y="216.0" dominant-baseline="hanging" text-anchor="middle" font-size="12" fill="#24292f">Nov 2022</text>
    
        
        <path stroke="#74838f"  stroke-width="2.0"  d="M 833.9183673469388 206.0 L 833.9183673469388 214.0" />
        <text x="833.9183673469388" font-family="-apple-system, system-ui, BlinkMacSystemFont, Roboto" y="216.0" dominant-baseline="hanging" text-anchor="middle" font-size="12" fill="#24292f">Dec 2022</text>
    
        
        <path stroke="#74838f"  stroke-width="2.0"  d="M 917.4285714285714 206.0 L 917.4285714285714 214.0" />
        <text x="917.4285714285714" font-family="-apple-system, system-ui, BlinkMacSystemFont, Roboto" y="216.0" dominant-baseline="hanging" text-anchor="middle" font-size="12" fill="#24292f">Jan 2023</text>
    
    <path stroke="#74838f"   stroke-linejoin="round" stroke-width="2.0" d="M 50.0 216.0 L 50.0 206.0 L 974.0 206.0 L 974.0 216.0"  fill="none" />
    <text x="512.0" y="25.0" font-family="-apple-system, system-ui, BlinkMacSystemFont, Roboto" dominant-baseline="middle" text-anchor="middle" font-size="18" fill="#24292f">Total daily suspensions</text>
</svg>
