<?xml version="1.0" standalone="no"?>
<svg width="1024.0" height="256.0"  viewBox="0 0 1024.0 256.0" preserveAspectRatio="xMidYMid meet" xmlns="http://www.w3.org/2000/svg">
    <path stroke="#e74c3c" stroke-linejoin="round" d="M 50.0 161.108 L 50 161.108L 53.23076923076923 193.664L 56.46153846153846 197.576L 59.69230769230769 197.924L 62.92307692307692 203.528L 66.15384615384616 199.94L 69.38461538461539 199.268L 72.61538461538461 191.108L 75.84615384615384 200.972L 79.07692307692308 198.62L 82.3076923076923 200L 85.53846153846155 202.57999999999998L 88.76923076923077 199.208L 92 195.608L 95.23076923076923 202.652L 98.46153846153845 198.716L 101.6923076923077 197.49200000000002L 104.92307692307692 191.42000000000002L 108.15384615384616 196.688L 111.38461538461539 199.46L 114.61538461538461 199.328L 117.84615384615384 198.308L 121.07692307692308 198.164L 124.3076923076923 199.832L 127.53846153846155 194.876L 130.76923076923077 199.904L 134 195.584L 137.23076923076923 200.732L 140.46153846153845 198.416L 143.69230769230768 190.652L 146.9230769230769 196.112L 150.15384615384613 190.82L 153.3846153846154 193.53199999999998L 156.61538461538464 199.688L 159.84615384615384 192.392L 163.0769230769231 197L 166.30769230769232 199.59199999999998L 169.53846153846155 193.54399999999998L 172.76923076923077 195.26L 176 195.428L 179.23076923076923 195.548L 182.46153846153845 196.484L 185.69230769230768 199.424L 188.9230769230769 199.22L 192.15384615384616 195.656L 195.3846153846154 193.952L 198.6153846153846 195.536L 201.84615384615384 198.764L 205.0769230769231 195.428L 208.30769230769232 194L 211.53846153846152 193.688L 214.76923076923077 186.32L 218 197.372L 221.23076923076923 195.96800000000002L 224.46153846153845 198.284L 227.6923076923077 194.38400000000001L 230.92307692307693 196.424L 234.15384615384616 196.988L 237.3846153846154 198.368L 240.6153846153846 198.05599999999998L 243.84615384615384 199.61599999999999L 247.07692307692307 191.54L 250.3076923076923 202.124L 253.53846153846155 193.34L 256.7692307692308 204.2L 260 206L 263.2307692307693 206L 266.46153846153845 206L 269.6923076923077 206L 272.9230769230769 190.472L 276.1538461538462 159.01999999999998L 279.38461538461536 193.56799999999998L 282.61538461538464 200.228L 285.84615384615387 193.232L 289.0769230769231 196.82L 292.3076923076923 199.772L 295.53846153846155 186.548L 298.7692307692307 197.888L 302 195.596L 305.23076923076917 190.508L 308.46153846153845 194.876L 311.6923076923077 190.4L 314.9230769230769 188.756L 318.15384615384613 197.852L 321.38461538461536 199.772L 324.6153846153846 191.936L 327.8461538461538 191.864L 331.0769230769231 199.316L 334.3076923076923 194.708L 337.53846153846155 192.608L 340.7692307692308 194.9L 344 199.7L 347.2307692307692 189.224L 350.46153846153845 198.428L 353.6923076923077 196.136L 356.92307692307696 195.296L 360.1538461538462 196.268L 363.3846153846154 193.184L 366.61538461538464 197.204L 369.8461538461538 193.856L 373.07692307692304 197.096L 376.30769230769226 178.16L 379.53846153846155 194.372L 382.7692307692308 195.92000000000002L 386 195.11599999999999L 389.2307692307692 196.688L 392.46153846153845 197.49200000000002L 395.6923076923077 197.696L 398.9230769230769 186.848L 402.15384615384613 192.644L 405.3846153846154 199.61599999999999L 408.61538461538464 193.052L 411.84615384615387 191.072L 415.0769230769231 195.44L 418.3076923076923 196.184L 421.53846153846155 196.46L 424.7692307692308 197.312L 428 193.076L 431.2307692307692 206L 434.46153846153845 186.44L 437.6923076923077 186.632L 440.9230769230769 191.276L 444.15384615384613 180.93200000000002L 447.38461538461536 201.704L 450.6153846153846 185.744L 453.84615384615387 196.028L 457.0769230769231 189.464L 460.3076923076923 194.228L 463.53846153846155 195.632L 466.7692307692308 196.844L 470 186.332L 473.2307692307692 197.99599999999998L 476.4615384615385 188.924L 479.69230769230774 189.128L 482.9230769230769 196.748L 486.15384615384613 182.45600000000002L 489.38461538461536 184.16L 492.6153846153846 206L 495.8461538461538 206L 499.07692307692304 206L 502.3076923076923 160.16L 505.53846153846155 198.536L 508.7692307692308 196.60399999999998L 512 195.668L 515.2307692307693 192.8L 518.4615384615385 196.964L 521.6923076923077 197.828L 524.9230769230769 200.84L 528.1538461538462 170.312L 531.3846153846154 189.236L 534.6153846153846 177.428L 537.8461538461538 191.564L 541.0769230769231 178.784L 544.3076923076924 176.372L 547.5384615384614 181.7L 550.7692307692307 187.472L 554 192.88400000000001L 557.2307692307693 189.38L 560.4615384615383 187.772L 563.6923076923077 189.404L 566.9230769230769 187.532L 570.1538461538462 193.59199999999998L 573.3846153846154 185.036L 576.6153846153845 171.332L 579.8461538461538 180.14L 583.076923076923 172.316L 586.3076923076923 193.028L 589.5384615384615 191.996L 592.7692307692307 193.052L 596 194.84L 599.2307692307692 193.53199999999998L 602.4615384615385 194.024L 605.6923076923076 189.272L 608.9230769230769 195.188L 612.1538461538462 196.256L 615.3846153846154 192.62L 618.6153846153846 190.844L 621.8461538461538 200.984L 625.0769230769231 184.796L 628.3076923076923 190.88L 631.5384615384615 194.42000000000002L 634.7692307692308 189.86L 638 195.86L 641.2307692307693 191.984L 644.4615384615385 193.1L 647.6923076923077 186.464L 650.9230769230769 190.46L 654.1538461538462 182.156L 657.3846153846154 187.136L 660.6153846153846 191.528L 663.8461538461539 184.1L 667.0769230769231 189.14L 670.3076923076924 185.204L 673.5384615384615 185.468L 676.7692307692308 176.828L 680 189.04399999999998L 683.2307692307693 191.048L 686.4615384615385 188.756L 689.6923076923076 187.592L 692.9230769230769 191.39600000000002L 696.1538461538461 187.796L 699.3846153846154 188.228L 702.6153846153845 190.268L 705.8461538461538 194.372L 709.0769230769231 194.72L 712.3076923076923 201.308L 715.5384615384615 192.752L 718.7692307692307 181.148L 722 181.748L 725.2307692307692 181.208L 728.4615384615385 191.3L 731.6923076923077 186.88400000000001L 734.9230769230769 181.376L 738.1538461538462 186.5L 741.3846153846154 188.44400000000002L 744.6153846153846 179.66L 747.8461538461538 183.09199999999998L 751.0769230769231 173.564L 754.3076923076923 183.836L 757.5384615384615 171.668L 760.7692307692308 148.148L 764 178.004L 767.2307692307693 141.86L 770.4615384615385 186.128L 773.6923076923077 188.54000000000002L 776.9230769230769 187.748L 780.1538461538462 193.256L 783.3846153846155 186.596L 786.6153846153846 185.42000000000002L 789.8461538461539 186.872L 793.0769230769231 185.372L 796.3076923076924 192.824L 799.5384615384615 188.552L 802.7692307692307 189.32L 806 186.632L 809.2307692307692 185.768L 812.4615384615385 188.744L 815.6923076923076 187.34L 818.9230769230769 192.488L 822.1538461538461 187.028L 825.3846153846154 185.468L 828.6153846153846 181.928L 831.8461538461538 183.8L 835.0769230769231 180.296L 838.3076923076923 185.516L 841.5384615384615 194L 844.7692307692307 190.328L 848 186.584L 851.2307692307692 168.32L 854.4615384615385 117.5L 857.6923076923077 189.10399999999998L 860.9230769230769 187.844L 864.1538461538462 190.28L 867.3846153846154 192.32L 870.6153846153846 189.2L 873.8461538461538 182.288L 877.0769230769231 188.49200000000002L 880.3076923076924 178.916L 883.5384615384615 53.432000000000016L 886.7692307692308 162.656L 890 184.52L 893.2307692307693 182.708L 896.4615384615385 183.68L 899.6923076923077 184.196L 902.923076923077 179.084L 906.1538461538462 190.16L 909.3846153846155 180.476L 912.6153846153846 160.916L 915.8461538461538 121.196L 919.0769230769231 151.50799999999998L 922.3076923076923 164.132L 925.5384615384615 181.184L 928.7692307692307 170.49200000000002L 932 179.792L 935.2307692307692 173.144L 938.4615384615385 178.352L 941.6923076923076 182.792L 944.9230769230769 177.152L 948.1538461538461 184.232L 951.3846153846154 187.796L 954.6153846153846 188.336L 957.8461538461538 184.64L 961.0769230769231 181.868L 964.3076923076923 181.772L 967.5384615384615 179.276L 970.7692307692307 168.176L 974 198.32" stroke-width="2.0" fill="none" />
    
        
        
        <text x="45.0" font-family="-apple-system, system-ui, BlinkMacSystemFont, Roboto" y="50.0" dominant-baseline="middle" text-anchor="end" font-size="12" fill="#24292f">13000.0</text>
        
            
            <path stroke="#74838f" stroke-dasharray="10 6" stroke-width="0.5"  d="M 50.0 50.0 L 974.0 50.0" />
        
    
        
        
        <text x="45.0" font-family="-apple-system, system-ui, BlinkMacSystemFont, Roboto" y="81.2" dominant-baseline="middle" text-anchor="end" font-size="12" fill="#24292f">10400.0</text>
        
            
            
            <path stroke="#74838f" stroke-dasharray="10 6" stroke-width="0.5"  d="M 50.0 81.2 L 974.0 81.2" />
        
    
        
        
        <text x="45.0" font-family="-apple-system, system-ui, BlinkMacSystemFont, Roboto" y="112.4" dominant-baseline="middle" text-anchor="end" font-size="12" fill="#24292f">7800.0</text>
        
            
            
            <path stroke="#74838f" stroke-dasharray="10 6" stroke-width="0.5"  d="M 50.0 112.4 L 974.0 112.4" />
        
    
        
        
        <text x="45.0" font-family="-apple-system, system-ui, BlinkMacSystemFont, Roboto" y="143.6" dominant-baseline="middle" text-anchor="end" font-size="12" fill="#24292f">5200.0</text>
        
            
            
            <path stroke="#74838f" stroke-dasharray="10 6" stroke-width="0.5"  d="M 50.0 143.6 L 974.0 143.6" />
        
    
        
        
        <text x="45.0" font-family="-apple-system, system-ui, BlinkMacSystemFont, Roboto" y="174.8" dominant-baseline="middle" text-anchor="end" font-size="12" fill="#24292f">2600.0</text>
        
            
            
            <path stroke="#74838f" stroke-dasharray="10 6" stroke-width="0.5"  d="M 50.0 174.8 L 974.0 174.8" />
        
    
        
        
        <text x="45.0" font-family="-apple-system, system-ui, BlinkMacSystemFont, Roboto" y="206.0" dominant-baseline="middle" text-anchor="end" font-size="12" fill="#24292f">0.0</text>
        
    
    
        
        <path stroke="#74838f"  stroke-width="2.0"  d="M 101.6923076923077 206.0 L 101.6923076923077 214.0" />
        <text x="101.6923076923077" font-family="-apple-system, system-ui, BlinkMacSystemFont, Roboto" y="216.0" dominant-baseline="hanging" text-anchor="middle" font-size="12" fill="#24292f">Mar 2022</text>
    
        
        <path stroke="#74838f"  stroke-width="2.0"  d="M 201.84615384615384 206.0 L 201.84615384615384 214.0" />
        <text x="201.84615384615384" font-family="-apple-system, system-ui, BlinkMacSystemFont, Roboto" y="216.0" dominant-baseline="hanging" text-anchor="middle" font-size="12" fill="#24292f">Apr 2022</text>
    
        
        <path stroke="#74838f"  stroke-width="2.0"  d="M 298.7692307692307 206.0 L 298.7692307692307 214.0" />
        <text x="298.7692307692307" font-family="-apple-system, system-ui, BlinkMacSystemFont, Roboto" y="216.0" dominant-baseline="hanging" text-anchor="middle" font-size="12" fill="#24292f">May 2022</text>
    
        
        <path stroke="#74838f"  stroke-width="2.0"  d="M 398.9230769230769 206.0 L 398.9230769230769 214.0" />
        <text x="398.9230769230769" font-family="-apple-system, system-ui, BlinkMacSystemFont, Roboto" y="216.0" dominant-baseline="hanging" text-anchor="middle" font-size="12" fill="#24292f">Jun 2022</text>
    
        
        <path stroke="#74838f"  stroke-width="2.0"  d="M 495.8461538461538 206.0 L 495.8461538461538 214.0" />
        <text x="495.8461538461538" font-family="-apple-system, system-ui, BlinkMacSystemFont, Roboto" y="216.0" dominant-baseline="hanging" text-anchor="middle" font-size="12" fill="#24292f">Jul 2022</text>
    
        
        <path stroke="#74838f"  stroke-width="2.0"  d="M 596.0 206.0 L 596.0 214.0" />
        <text x="596.0" font-family="-apple-system, system-ui, BlinkMacSystemFont, Roboto" y="216.0" dominant-baseline="hanging" text-anchor="middle" font-size="12" fill="#24292f">Aug 2022</text>
    
        
        <path stroke="#74838f"  stroke-width="2.0"  d="M 696.1538461538461 206.0 L 696.1538461538461 214.0" />
        <text x="696.1538461538461" font-family="-apple-system, system-ui, BlinkMacSystemFont, Roboto" y="216.0" dominant-baseline="hanging" text-anchor="middle" font-size="12" fill="#24292f">Sep 2022</text>
    
        
        <path stroke="#74838f"  stroke-width="2.0"  d="M 793.0769230769231 206.0 L 793.0769230769231 214.0" />
        <text x="793.0769230769231" font-family="-apple-system, system-ui, BlinkMacSystemFont, Roboto" y="216.0" dominant-baseline="hanging" text-anchor="middle" font-size="12" fill="#24292f">Oct 2022</text>
    
        
        <path stroke="#74838f"  stroke-width="2.0"  d="M 893.2307692307693 206.0 L 893.2307692307693 214.0" />
        <text x="893.2307692307693" font-family="-apple-system, system-ui, BlinkMacSystemFont, Roboto" y="216.0" dominant-baseline="hanging" text-anchor="middle" font-size="12" fill="#24292f">Nov 2022</text>
    
    <path stroke="#74838f"   stroke-linejoin="round" stroke-width="2.0" d="M 50.0 216.0 L 50.0 206.0 L 974.0 206.0 L 974.0 216.0"  fill="none" />
    <text x="512.0" y="25.0" font-family="-apple-system, system-ui, BlinkMacSystemFont, Roboto" dominant-baseline="middle" text-anchor="middle" font-size="18" fill="#24292f">Total daily suspensions</text>
</svg>
