<?xml version="1.0" standalone="no"?>
<svg width="1024.0" height="256.0"  viewBox="0 0 1024.0 256.0" preserveAspectRatio="xMidYMid meet" xmlns="http://www.w3.org/2000/svg">
    <path stroke="#e74c3c" stroke-linejoin="round" d="M 50.0 161.108 L 50 161.108L 52.67052023121387 193.664L 55.34104046242774 197.576L 58.01156069364162 197.924L 60.68208092485549 203.528L 63.35260115606936 199.94L 66.02312138728324 199.268L 68.69364161849711 191.108L 71.36416184971098 200.972L 74.03468208092485 198.62L 76.70520231213872 200L 79.3757225433526 202.57999999999998L 82.04624277456648 199.208L 84.71676300578035 195.608L 87.38728323699422 202.652L 90.05780346820809 198.716L 92.72832369942196 197.49200000000002L 95.39884393063585 191.42000000000002L 98.0693641618497 196.688L 100.73988439306359 199.46L 103.41040462427745 199.328L 106.08092485549133 198.308L 108.75144508670519 198.164L 111.42196531791907 199.832L 114.09248554913295 194.876L 116.76300578034683 199.904L 119.4335260115607 195.584L 122.10404624277457 200.732L 124.77456647398844 198.416L 127.44508670520231 190.652L 130.11560693641619 196.112L 132.78612716763007 190.82L 135.45664739884393 193.53199999999998L 138.12716763005778 199.688L 140.7976878612717 192.392L 143.46820809248555 197L 146.1387283236994 199.59199999999998L 148.8092485549133 193.54399999999998L 151.47976878612718 195.26L 154.15028901734104 195.428L 156.8208092485549 195.548L 159.49132947976878 196.484L 162.16184971098266 199.424L 164.83236994219652 199.22L 167.50289017341038 195.656L 170.17341040462426 193.952L 172.84393063583815 195.536L 175.514450867052 198.764L 178.1849710982659 195.428L 180.85549132947978 194L 183.52601156069366 193.688L 186.19653179190752 186.32L 188.8670520231214 197.372L 191.53757225433526 195.96800000000002L 194.20809248554914 198.284L 196.878612716763 194.38400000000001L 199.5491329479769 196.424L 202.21965317919074 196.988L 204.89017341040463 198.368L 207.56069364161849 198.05599999999998L 210.23121387283237 199.61599999999999L 212.90173410404623 191.54L 215.5722543352601 202.124L 218.24277456647397 193.34L 220.91329479768785 204.2L 223.5838150289017 206L 226.2543352601156 206L 228.92485549132948 206L 231.59537572254337 206L 234.26589595375722 190.472L 236.9364161849711 159.01999999999998L 239.60693641618496 193.56799999999998L 242.27745664739885 200.228L 244.94797687861274 193.232L 247.6184971098266 196.82L 250.28901734104048 199.772L 252.95953757225433 186.548L 255.63005780346822 197.888L 258.3005780346821 195.596L 260.971098265896 190.508L 263.6416184971098 194.876L 266.3121387283237 190.4L 268.98265895953756 188.756L 271.6531791907514 197.852L 274.32369942196533 199.772L 276.9942196531792 191.936L 279.66473988439304 191.864L 282.33526011560696 199.316L 285.00578034682076 194.72L 287.67630057803467 192.608L 290.3468208092485 194.9L 293.01734104046244 199.7L 295.6878612716763 189.224L 298.3583815028902 198.428L 301.028901734104 196.136L 303.6994219653179 195.296L 306.3699421965318 196.268L 309.04046242774564 193.184L 311.71098265895955 197.204L 314.3815028901734 193.856L 317.0520231213873 197.096L 319.7225433526011 178.16L 322.39306358381504 194.372L 325.0635838150289 195.92000000000002L 327.7341040462428 195.11599999999999L 330.40462427745666 196.688L 333.0751445086705 197.49200000000002L 335.7456647398844 197.696L 338.4161849710983 186.848L 341.08670520231215 192.644L 343.757225433526 199.61599999999999L 346.42774566473986 193.052L 349.0982658959538 191.072L 351.76878612716763 195.44L 354.4393063583815 196.184L 357.10982658959534 196.46L 359.78034682080926 197.312L 362.45086705202317 193.076L 365.12138728323697 206L 367.7919075144509 186.44L 370.46242774566474 186.632L 373.13294797687865 191.276L 375.80346820809245 180.93200000000002L 378.47398843930637 201.704L 381.1445086705202 185.744L 383.81502890173414 196.028L 386.48554913294794 189.464L 389.15606936416185 194.228L 391.8265895953757 195.632L 394.4971098265896 196.844L 397.1676300578034 186.332L 399.83815028901734 197.99599999999998L 402.5086705202312 188.924L 405.1791907514451 189.128L 407.84971098265896 196.748L 410.5202312138728 182.45600000000002L 413.19075144508673 184.16L 415.8612716763006 206L 418.53179190751445 206L 421.2023121387283 206L 423.8728323699422 160.16L 426.5433526011561 198.536L 429.21387283236993 196.60399999999998L 431.8843930635838 195.668L 434.5549132947977 192.8L 437.22543352601156 196.964L 439.89595375722547 197.828L 442.56647398843927 200.84L 445.2369942196532 170.312L 447.90751445086704 189.236L 450.57803468208095 177.428L 453.24855491329475 191.564L 455.91907514450867 178.784L 458.5895953757225 176.372L 461.26011560693644 181.7L 463.9306358381503 187.472L 466.60115606936415 192.88400000000001L 469.27167630057806 189.38L 471.9421965317919 187.772L 474.6127167630058 189.404L 477.28323699421964 187.532L 479.95375722543355 193.59199999999998L 482.6242774566474 185.036L 485.29479768786126 171.332L 487.9653179190751 180.14L 490.63583815028903 172.316L 493.3063583815029 193.028L 495.97687861271675 191.996L 498.6473988439306 193.052L 501.3179190751445 194.84L 503.9884393063584 193.53199999999998L 506.65895953757223 194.024L 509.3294797687861 189.272L 512 195.188L 514.6705202312139 196.256L 517.3410404624278 192.62L 520.0115606936415 190.844L 522.6820809248554 200.984L 525.3526011560693 184.796L 528.0231213872833 190.88L 530.693641618497 194.42000000000002L 533.364161849711 189.86L 536.0346820809249 195.86L 538.7052023121388 191.984L 541.3757225433526 193.1L 544.0462427745665 186.464L 546.7167630057804 190.46L 549.3872832369943 182.156L 552.057803468208 187.136L 554.7283236994219 191.528L 557.3988439306358 184.1L 560.0693641618498 189.14L 562.7398843930636 185.204L 565.4104046242775 185.468L 568.0809248554913 176.816L 570.7514450867052 189.04399999999998L 573.4219653179191 191.048L 576.0924855491329 188.756L 578.7630057803468 187.592L 581.4335260115607 191.39600000000002L 584.1040462427746 187.796L 586.7745664739884 188.228L 589.4450867052022 190.268L 592.1156069364162 194.372L 594.7861271676301 194.72L 597.4566473988439 201.308L 600.1271676300578 192.752L 602.7976878612717 181.148L 605.4682080924856 181.748L 608.1387283236994 181.208L 610.8092485549133 191.3L 613.4797687861271 186.88400000000001L 616.150289017341 181.376L 618.820809248555 186.5L 621.4913294797688 188.44400000000002L 624.1618497109827 179.66L 626.8323699421966 183.09199999999998L 629.5028901734105 173.564L 632.1734104046243 183.836L 634.8439306358381 171.668L 637.514450867052 148.148L 640.1849710982659 178.004L 642.8554913294797 141.86L 645.5260115606936 186.128L 648.1965317919075 188.54000000000002L 650.8670520231215 187.748L 653.5375722543353 193.256L 656.2080924855491 186.596L 658.878612716763 185.42000000000002L 661.5491329479769 186.872L 664.2196531791907 185.372L 666.8901734104046 192.824L 669.5606936416185 188.552L 672.2312138728324 189.32L 674.9017341040463 186.632L 677.5722543352601 185.768L 680.2427745664739 188.744L 682.9132947976879 187.34L 685.5838150289018 192.488L 688.2543352601156 187.028L 690.9248554913295 185.468L 693.5953757225434 181.928L 696.2658959537573 183.8L 698.9364161849711 180.296L 701.6069364161849 185.516L 704.2774566473988 194L 706.9479768786127 190.328L 709.6184971098265 186.584L 712.2890173410404 168.32L 714.9595375722544 117.5L 717.6300578034683 189.10399999999998L 720.3005780346821 187.844L 722.9710982658959 190.28L 725.6416184971098 192.32L 728.3121387283237 189.2L 730.9826589595376 182.288L 733.6531791907514 188.49200000000002L 736.3236994219653 178.916L 738.9942196531792 53.432000000000016L 741.6647398843932 162.656L 744.3352601156068 184.52L 747.0057803468208 182.708L 749.6763005780347 183.68L 752.3468208092486 184.196L 755.0173410404624 179.084L 757.6878612716763 190.16L 760.3583815028902 180.476L 763.0289017341041 160.916L 765.6994219653179 121.196L 768.3699421965317 151.50799999999998L 771.0404624277456 164.132L 773.7109826589596 181.184L 776.3815028901735 170.49200000000002L 779.0520231213873 179.792L 781.7225433526012 173.204L 784.3930635838151 178.352L 787.0635838150289 182.792L 789.7341040462427 177.152L 792.4046242774566 184.232L 795.0751445086705 187.796L 797.7456647398844 188.348L 800.4161849710982 184.736L 803.0867052023121 181.892L 805.7572254335261 181.796L 808.4277456647399 179.36L 811.0982658959537 168.176L 813.7687861271676 181.808L 816.4393063583815 185.372L 819.1098265895954 167.708L 821.7803468208093 140.6L 824.4508670520231 160.784L 827.121387283237 151.664L 829.7919075144509 145.952L 832.4624277456647 155.288L 835.1329479768785 153.68L 837.8034682080925 163.04L 840.4739884393064 172.064L 843.1445086705203 148.952L 845.8150289017341 171.812L 848.485549132948 172.46L 851.1560693641619 172.508L 853.8265895953757 183.644L 856.4971098265895 166.304L 859.1676300578034 159.26L 861.8381502890173 172.652L 864.5086705202312 165.5L 867.179190751445 154.892L 869.849710982659 173.888L 872.5202312138729 176.3L 875.1907514450867 186.5L 877.8612716763006 183.932L 880.5317919075144 183.10399999999998L 883.2023121387283 150.128L 885.8728323699422 183.11599999999999L 888.5433526011561 186.152L 891.2138728323699 185.096L 893.8843930635838 182.276L 896.5549132947978 182.18L 899.2254335260116 182.144L 901.8959537572254 174.956L 904.5664739884393 181.988L 907.2369942196532 179.504L 909.9075144508671 184.784L 912.5780346820809 179L 915.2485549132948 175.868L 917.9190751445087 177.14L 920.5895953757225 178.832L 923.2601156069364 182.216L 925.9306358381502 176.444L 928.6011560693642 182.576L 931.2716763005781 177.02L 933.942196531792 178.58L 936.6127167630058 182.144L 939.2832369942197 179.48L 941.9537572254335 176.972L 944.6242774566474 186.164L 947.2947976878612 176.096L 949.9653179190751 178.04L 952.635838150289 152.996L 955.306358381503 130.724L 957.9768786127167 149.888L 960.6473988439307 149.48L 963.3179190751445 184.1L 965.9884393063584 184.484L 968.6589595375722 177.56L 971.3294797687861 139.952L 974 188.51600000000002" stroke-width="2.0" fill="none" />
    
        
        
        <text x="45.0" font-family="-apple-system, system-ui, BlinkMacSystemFont, Roboto" y="50.0" dominant-baseline="middle" text-anchor="end" font-size="12" fill="#24292f">13000.0</text>
        
            
            <path stroke="#74838f" stroke-dasharray="10 6" stroke-width="0.5"  d="M 50.0 50.0 L 974.0 50.0" />
        
    
        
        
        <text x="45.0" font-family="-apple-system, system-ui, BlinkMacSystemFont, Roboto" y="81.2" dominant-baseline="middle" text-anchor="end" font-size="12" fill="#24292f">10400.0</text>
        
            
            
            <path stroke="#74838f" stroke-dasharray="10 6" stroke-width="0.5"  d="M 50.0 81.2 L 974.0 81.2" />
        
    
        
        
        <text x="45.0" font-family="-apple-system, system-ui, BlinkMacSystemFont, Roboto" y="112.4" dominant-baseline="middle" text-anchor="end" font-size="12" fill="#24292f">7800.0</text>
        
            
            
            <path stroke="#74838f" stroke-dasharray="10 6" stroke-width="0.5"  d="M 50.0 112.4 L 974.0 112.4" />
        
    
        
        
        <text x="45.0" font-family="-apple-system, system-ui, BlinkMacSystemFont, Roboto" y="143.6" dominant-baseline="middle" text-anchor="end" font-size="12" fill="#24292f">5200.0</text>
        
            
            
            <path stroke="#74838f" stroke-dasharray="10 6" stroke-width="0.5"  d="M 50.0 143.6 L 974.0 143.6" />
        
    
        
        
        <text x="45.0" font-family="-apple-system, system-ui, BlinkMacSystemFont, Roboto" y="174.8" dominant-baseline="middle" text-anchor="end" font-size="12" fill="#24292f">2600.0</text>
        
            
            
            <path stroke="#74838f" stroke-dasharray="10 6" stroke-width="0.5"  d="M 50.0 174.8 L 974.0 174.8" />
        
    
        
        
        <text x="45.0" font-family="-apple-system, system-ui, BlinkMacSystemFont, Roboto" y="206.0" dominant-baseline="middle" text-anchor="end" font-size="12" fill="#24292f">0.0</text>
        
    
    
        
        <path stroke="#74838f"  stroke-width="2.0"  d="M 92.72832369942196 206.0 L 92.72832369942196 214.0" />
        <text x="92.72832369942196" font-family="-apple-system, system-ui, BlinkMacSystemFont, Roboto" y="216.0" dominant-baseline="hanging" text-anchor="middle" font-size="12" fill="#24292f">Mar 2022</text>
    
        
        <path stroke="#74838f"  stroke-width="2.0"  d="M 175.514450867052 206.0 L 175.514450867052 214.0" />
        <text x="175.514450867052" font-family="-apple-system, system-ui, BlinkMacSystemFont, Roboto" y="216.0" dominant-baseline="hanging" text-anchor="middle" font-size="12" fill="#24292f">Apr 2022</text>
    
        
        <path stroke="#74838f"  stroke-width="2.0"  d="M 255.63005780346822 206.0 L 255.63005780346822 214.0" />
        <text x="255.63005780346822" font-family="-apple-system, system-ui, BlinkMacSystemFont, Roboto" y="216.0" dominant-baseline="hanging" text-anchor="middle" font-size="12" fill="#24292f">May 2022</text>
    
        
        <path stroke="#74838f"  stroke-width="2.0"  d="M 338.4161849710983 206.0 L 338.4161849710983 214.0" />
        <text x="338.4161849710983" font-family="-apple-system, system-ui, BlinkMacSystemFont, Roboto" y="216.0" dominant-baseline="hanging" text-anchor="middle" font-size="12" fill="#24292f">Jun 2022</text>
    
        
        <path stroke="#74838f"  stroke-width="2.0"  d="M 418.53179190751445 206.0 L 418.53179190751445 214.0" />
        <text x="418.53179190751445" font-family="-apple-system, system-ui, BlinkMacSystemFont, Roboto" y="216.0" dominant-baseline="hanging" text-anchor="middle" font-size="12" fill="#24292f">Jul 2022</text>
    
        
        <path stroke="#74838f"  stroke-width="2.0"  d="M 501.3179190751445 206.0 L 501.3179190751445 214.0" />
        <text x="501.3179190751445" font-family="-apple-system, system-ui, BlinkMacSystemFont, Roboto" y="216.0" dominant-baseline="hanging" text-anchor="middle" font-size="12" fill="#24292f">Aug 2022</text>
    
        
        <path stroke="#74838f"  stroke-width="2.0"  d="M 584.1040462427746 206.0 L 584.1040462427746 214.0" />
        <text x="584.1040462427746" font-family="-apple-system, system-ui, BlinkMacSystemFont, Roboto" y="216.0" dominant-baseline="hanging" text-anchor="middle" font-size="12" fill="#24292f">Sep 2022</text>
    
        
        <path stroke="#74838f"  stroke-width="2.0"  d="M 664.2196531791907 206.0 L 664.2196531791907 214.0" />
        <text x="664.2196531791907" font-family="-apple-system, system-ui, BlinkMacSystemFont, Roboto" y="216.0" dominant-baseline="hanging" text-anchor="middle" font-size="12" fill="#24292f">Oct 2022</text>
    
        
        <path stroke="#74838f"  stroke-width="2.0"  d="M 747.0057803468208 206.0 L 747.0057803468208 214.0" />
        <text x="747.0057803468208" font-family="-apple-system, system-ui, BlinkMacSystemFont, Roboto" y="216.0" dominant-baseline="hanging" text-anchor="middle" font-size="12" fill="#24292f">Nov 2022</text>
    
        
        <path stroke="#74838f"  stroke-width="2.0"  d="M 827.121387283237 206.0 L 827.121387283237 214.0" />
        <text x="827.121387283237" font-family="-apple-system, system-ui, BlinkMacSystemFont, Roboto" y="216.0" dominant-baseline="hanging" text-anchor="middle" font-size="12" fill="#24292f">Dec 2022</text>
    
        
        <path stroke="#74838f"  stroke-width="2.0"  d="M 909.9075144508671 206.0 L 909.9075144508671 214.0" />
        <text x="909.9075144508671" font-family="-apple-system, system-ui, BlinkMacSystemFont, Roboto" y="216.0" dominant-baseline="hanging" text-anchor="middle" font-size="12" fill="#24292f">Jan 2023</text>
    
    <path stroke="#74838f"   stroke-linejoin="round" stroke-width="2.0" d="M 50.0 216.0 L 50.0 206.0 L 974.0 206.0 L 974.0 216.0"  fill="none" />
    <text x="512.0" y="25.0" font-family="-apple-system, system-ui, BlinkMacSystemFont, Roboto" dominant-baseline="middle" text-anchor="middle" font-size="18" fill="#24292f">Total daily suspensions</text>
</svg>
