<?xml version="1.0" standalone="no"?>
<svg width="1024" height="256"  viewBox="0 0 1024 256" preserveAspectRatio="xMidYMid meet" xmlns="http://www.w3.org/2000/svg">
    <path stroke="#e74c3c" stroke-linejoin="round" d="M 41 59.98399999999998 L 41 59.98399999999998L 46.83125 165.90800000000002L 52.6625 178.622L 58.49375 179.753L 64.325 197.966L 70.15625 186.305L 75.9875 184.121L 81.81875 157.601L 87.65 189.659L 93.48125 182.015L 99.3125 186.5L 105.14375000000001 194.885L 110.975 183.926L 116.80625 172.226L 122.63749999999999 195.119L 128.46875 182.327L 134.3 178.349L 140.13125 158.615L 145.9625 175.697L 151.79375 184.745L 157.625 184.316L 163.45625 181.001L 169.28750000000002 180.533L 175.11874999999998 185.954L 180.95 169.847L 186.78125 186.188L 192.6125 172.109L 198.44375000000002 188.87900000000002L 204.27499999999998 181.352L 210.10625 156.119L 215.9375 173.864L 221.76875 156.66500000000002L 227.60000000000002 165.479L 233.43124999999998 185.486L 239.2625 161.774L 245.09375 176.75L 250.925 185.174L 256.75625 165.518L 262.5875 171.095L 268.41875 171.641L 274.25 172.031L 280.08124999999995 175.073L 285.9125 184.628L 291.74375 183.965L 297.57500000000005 172.382L 303.40625 166.844L 309.23749999999995 171.992L 315.06875 182.483L 320.9 171.641L 326.73125000000005 167L 332.5625 165.986L 338.39374999999995 142.04000000000002L 344.225 177.959L 350.05625 173.39600000000002L 355.88750000000005 180.923L 361.71875 168.248L 367.54999999999995 174.878L 373.38125 176.711L 379.2125 181.196L 385.04375000000005 180.182L 390.875 185.252L 396.70624999999995 159.005L 402.5375 193.403L 408.36875 164.85500000000002L 414.20000000000005 200.15L 420.03125 206L 425.86249999999995 206L 431.69375 206L 437.525 206L 443.35625000000005 155.534L 449.1875 53.315L 455.01874999999995 165.596L 460.85 187.24099999999999L 466.68125 164.504L 472.51250000000005 176.165L 478.34375 185.75900000000001L 484.17499999999995 142.781L 490.00625 179.636L 495.8375 172.187L 501.66875000000005 155.651L 507.5 169.847L 513.33125 155.3L 519.1624999999999 149.957L 524.9937500000001 179.519L 530.825 185.75900000000001L 536.65625 160.292L 542.4875 160.058L 548.3187499999999 184.277L 554.1500000000001 169.301L 559.98125 162.476L 565.8125 169.925L 571.64375 185.525L 577.4749999999999 151.478L 583.3062500000001 181.391L 589.1375 173.942L 594.96875 171.212L 600.8 174.371L 606.6312499999999 164.348L 612.4625000000001 177.413L 618.29375 166.53199999999998L 624.125 177.062L 629.95625 115.442L 635.7874999999999 168.209L 641.6187500000001 173.24L 647.45 170.627L 653.28125 175.736L 659.1125 178.349L 664.9437499999999 179.012L 670.7750000000001 143.756L 676.60625 162.59300000000002L 682.4375 185.252L 688.26875 163.919L 694.0999999999999 157.484L 699.9312500000001 171.68L 705.7625 174.098L 711.59375 174.995L 717.425 177.764L 723.2562499999999 163.997L 729.0875000000001 206L 734.91875 142.43L 740.75 143.015L 746.58125 158.147L 752.4124999999999 124.529L 758.2437500000001 192.038L 764.075 140.168L 769.90625 173.591L 775.7375 152.258L 781.5687499999999 167.74099999999999L 787.4000000000001 172.304L 793.23125 176.243L 799.0625 142.079L 804.89375 179.987L 810.7249999999999 150.503L 816.5562500000001 151.166L 822.3875 175.931L 828.21875 129.482L 834.05 135.01999999999998L 839.8812499999999 206L 845.7125000000001 206L 851.54375 206L 857.375 57.02000000000001L 863.20625 181.742L 869.0374999999999 175.463L 874.8687500000001 172.421L 880.7 163.1L 886.53125 176.633L 892.3625 179.441L 898.1937499999999 189.23000000000002L 904.0250000000001 90.014L 909.85625 151.517L 915.6875 113.141L 921.51875 159.083L 927.3499999999999 117.548L 933.1812500000001 109.709L 939.0125 127.025L 944.84375 145.784L 950.675 163.373L 956.5062499999999 152.024L 962.3375000000001 146.75900000000001L 968.16875 152.063L 974 187.28" stroke-width="2.0" fill="none" />
    
        
        
        <text x="36" font-family="-apple-system, system-ui, BlinkMacSystemFont, Roboto" y="50" dominant-baseline="middle" text-anchor="end" font-size="12" fill="#24292f">4000</text>
        
            
            <path stroke="#74838f" stroke-dasharray="10 6" stroke-width="0.5"  d="M 41 50 L 974 50" />
        
    
        
        
        <text x="36" font-family="-apple-system, system-ui, BlinkMacSystemFont, Roboto" y="81.2" dominant-baseline="middle" text-anchor="end" font-size="12" fill="#24292f">3200</text>
        
            
            
            <path stroke="#74838f" stroke-dasharray="10 6" stroke-width="0.5"  d="M 41 81.2 L 974 81.2" />
        
    
        
        
        <text x="36" font-family="-apple-system, system-ui, BlinkMacSystemFont, Roboto" y="112.4" dominant-baseline="middle" text-anchor="end" font-size="12" fill="#24292f">2400</text>
        
            
            
            <path stroke="#74838f" stroke-dasharray="10 6" stroke-width="0.5"  d="M 41 112.4 L 974 112.4" />
        
    
        
        
        <text x="36" font-family="-apple-system, system-ui, BlinkMacSystemFont, Roboto" y="143.6" dominant-baseline="middle" text-anchor="end" font-size="12" fill="#24292f">1600</text>
        
            
            
            <path stroke="#74838f" stroke-dasharray="10 6" stroke-width="0.5"  d="M 41 143.6 L 974 143.6" />
        
    
        
        
        <text x="36" font-family="-apple-system, system-ui, BlinkMacSystemFont, Roboto" y="174.8" dominant-baseline="middle" text-anchor="end" font-size="12" fill="#24292f">800</text>
        
            
            
            <path stroke="#74838f" stroke-dasharray="10 6" stroke-width="0.5"  d="M 41 174.8 L 974 174.8" />
        
    
        
        
        <text x="36" font-family="-apple-system, system-ui, BlinkMacSystemFont, Roboto" y="206" dominant-baseline="middle" text-anchor="end" font-size="12" fill="#24292f">0</text>
        
    
    
        
        <path stroke="#74838f"  stroke-width="2.0"  d="M 134.3 206 L 134.3 214" />
        <text x="134.3" font-family="-apple-system, system-ui, BlinkMacSystemFont, Roboto" y="216" dominant-baseline="hanging" text-anchor="middle" font-size="12" fill="#24292f">Mar 2022</text>
    
        
        <path stroke="#74838f"  stroke-width="2.0"  d="M 315.06875 206 L 315.06875 214" />
        <text x="315.06875" font-family="-apple-system, system-ui, BlinkMacSystemFont, Roboto" y="216" dominant-baseline="hanging" text-anchor="middle" font-size="12" fill="#24292f">Apr 2022</text>
    
        
        <path stroke="#74838f"  stroke-width="2.0"  d="M 490.00625 206 L 490.00625 214" />
        <text x="490.00625" font-family="-apple-system, system-ui, BlinkMacSystemFont, Roboto" y="216" dominant-baseline="hanging" text-anchor="middle" font-size="12" fill="#24292f">May 2022</text>
    
        
        <path stroke="#74838f"  stroke-width="2.0"  d="M 670.7750000000001 206 L 670.7750000000001 214" />
        <text x="670.7750000000001" font-family="-apple-system, system-ui, BlinkMacSystemFont, Roboto" y="216" dominant-baseline="hanging" text-anchor="middle" font-size="12" fill="#24292f">Jun 2022</text>
    
        
        <path stroke="#74838f"  stroke-width="2.0"  d="M 845.7125000000001 206 L 845.7125000000001 214" />
        <text x="845.7125000000001" font-family="-apple-system, system-ui, BlinkMacSystemFont, Roboto" y="216" dominant-baseline="hanging" text-anchor="middle" font-size="12" fill="#24292f">Jul 2022</text>
    
    <path stroke="#74838f"   stroke-linejoin="round" stroke-width="2.0" d="M 41 216 L 41 206 L 974 206 L 974 216"  fill="none" />
    <text x="507.5" y="25" font-family="-apple-system, system-ui, BlinkMacSystemFont, Roboto" dominant-baseline="middle" text-anchor="middle" font-size="18" fill="#24292f">Total daily suspensions</text>
</svg>
