<?xml version="1.0" standalone="no"?>
<svg width="1024.0" height="256.0"  viewBox="0 0 1024.0 256.0" preserveAspectRatio="xMidYMid meet" xmlns="http://www.w3.org/2000/svg">
    <path stroke="#e74c3c" stroke-linejoin="round" d="M 50.0 161.108 L 50 161.108L 52.16901408450704 193.664L 54.33802816901409 197.576L 56.50704225352113 197.924L 58.67605633802817 203.528L 60.84507042253521 199.94L 63.014084507042256 199.268L 65.1830985915493 191.108L 67.35211267605634 200.972L 69.52112676056338 198.62L 71.69014084507042 200L 73.85915492957747 202.57999999999998L 76.02816901408451 199.208L 78.19718309859155 195.608L 80.36619718309859 202.652L 82.53521126760563 198.716L 84.70422535211267 197.49200000000002L 86.87323943661971 191.42000000000002L 89.04225352112675 196.688L 91.2112676056338 199.46L 93.38028169014083 199.328L 95.54929577464787 198.308L 97.71830985915494 198.164L 99.88732394366198 199.832L 102.05633802816902 194.876L 104.22535211267606 199.904L 106.3943661971831 195.584L 108.56338028169014 200.732L 110.73239436619718 198.416L 112.90140845070422 190.652L 115.07042253521126 196.112L 117.2394366197183 190.82L 119.40845070422536 193.53199999999998L 121.57746478873239 199.688L 123.74647887323944 192.392L 125.91549295774648 197L 128.0845070422535 199.59199999999998L 130.25352112676057 193.54399999999998L 132.4225352112676 195.26L 134.59154929577466 195.428L 136.76056338028167 195.548L 138.92957746478874 196.484L 141.09859154929575 199.424L 143.26760563380282 199.22L 145.43661971830988 195.656L 147.6056338028169 193.952L 149.77464788732397 195.536L 151.94366197183098 198.764L 154.11267605633805 195.428L 156.28169014084506 194L 158.45070422535213 193.688L 160.61971830985914 186.32L 162.7887323943662 197.372L 164.95774647887325 195.96800000000002L 167.1267605633803 198.284L 169.29577464788733 194.38400000000001L 171.46478873239437 196.424L 173.63380281690138 196.988L 175.80281690140845 198.368L 177.9718309859155 198.05599999999998L 180.14084507042253 199.61599999999999L 182.3098591549296 191.54L 184.4788732394366 202.124L 186.64788732394365 193.34L 188.81690140845072 204.2L 190.98591549295776 206L 193.15492957746477 206L 195.32394366197184 206L 197.49295774647888 206L 199.66197183098592 190.472L 201.83098591549296 159.01999999999998L 204 193.56799999999998L 206.16901408450704 200.228L 208.33802816901408 193.232L 210.50704225352115 196.82L 212.67605633802816 199.772L 214.8450704225352 186.548L 217.01408450704224 197.888L 219.1830985915493 195.596L 221.35211267605635 190.508L 223.52112676056336 194.876L 225.69014084507043 190.4L 227.85915492957747 188.756L 230.0281690140845 197.852L 232.19718309859152 199.772L 234.3661971830986 191.936L 236.53521126760563 191.864L 238.70422535211267 199.316L 240.87323943661974 194.72L 243.04225352112675 192.608L 245.2112676056338 194.9L 247.38028169014083 199.7L 249.5492957746479 189.224L 251.7183098591549 198.428L 253.88732394366195 196.136L 256.056338028169 195.296L 258.2253521126761 196.268L 260.3943661971831 193.184L 262.5633802816901 197.204L 264.7323943661972 193.856L 266.90140845070425 197.096L 269.07042253521126 178.16L 271.2394366197183 194.372L 273.40845070422534 195.92000000000002L 275.5774647887324 195.11599999999999L 277.7464788732394 196.688L 279.9154929577465 197.49200000000002L 282.08450704225356 197.696L 284.2535211267606 186.848L 286.4225352112676 192.644L 288.59154929577466 199.61599999999999L 290.76056338028167 193.052L 292.92957746478874 191.072L 295.09859154929575 195.44L 297.26760563380276 196.184L 299.4366197183099 196.46L 301.6056338028169 197.312L 303.77464788732397 193.076L 305.943661971831 206L 308.112676056338 186.44L 310.28169014084506 186.632L 312.4507042253521 191.276L 314.6197183098592 180.93200000000002L 316.7887323943662 201.704L 318.9577464788732 185.744L 321.1267605633803 196.028L 323.2957746478873 189.464L 325.46478873239437 194.228L 327.63380281690144 195.632L 329.80281690140845 196.844L 331.9718309859155 186.332L 334.14084507042253 197.99599999999998L 336.30985915492954 188.924L 338.4788732394366 189.128L 340.6478873239437 196.748L 342.81690140845075 182.45600000000002L 344.98591549295776 184.16L 347.15492957746477 206L 349.32394366197184 206L 351.49295774647885 206L 353.6619718309859 160.16L 355.830985915493 198.536L 358 196.60399999999998L 360.16901408450707 195.668L 362.3380281690141 192.8L 364.50704225352115 196.964L 366.67605633802816 197.828L 368.8450704225352 200.84L 371.0140845070423 170.312L 373.1830985915493 189.236L 375.3521126760563 177.428L 377.5211267605634 191.564L 379.6901408450704 178.784L 381.85915492957747 176.372L 384.0281690140845 181.7L 386.19718309859155 187.472L 388.3661971830986 192.88400000000001L 390.53521126760563 189.38L 392.7042253521127 187.772L 394.8732394366197 189.404L 397.0422535211267 187.532L 399.2112676056338 193.59199999999998L 401.38028169014086 185.036L 403.54929577464793 171.332L 405.71830985915494 180.14L 407.88732394366195 172.316L 410.056338028169 193.028L 412.22535211267603 191.996L 414.39436619718305 193.052L 416.5633802816902 194.84L 418.7323943661972 193.53199999999998L 420.90140845070425 194.024L 423.07042253521126 189.272L 425.2394366197183 195.188L 427.40845070422534 196.256L 429.57746478873236 192.62L 431.7464788732395 190.844L 433.9154929577465 200.984L 436.0845070422535 184.796L 438.2535211267606 190.88L 440.4225352112676 194.42000000000002L 442.59154929577466 189.86L 444.76056338028167 195.86L 446.92957746478874 191.984L 449.0985915492958 193.1L 451.2676056338028 186.464L 453.4366197183098 190.46L 455.6056338028169 182.156L 457.7746478873239 187.136L 459.943661971831 191.528L 462.11267605633805 184.1L 464.28169014084506 189.14L 466.4507042253521 185.204L 468.61971830985914 185.468L 470.7887323943662 176.816L 472.9577464788732 189.04399999999998L 475.1267605633803 191.048L 477.29577464788736 188.756L 479.46478873239437 187.592L 481.63380281690144 191.39600000000002L 483.80281690140845 187.796L 485.97183098591546 188.228L 488.14084507042253 190.268L 490.3098591549296 194.372L 492.4788732394366 194.72L 494.6478873239437 201.308L 496.8169014084507 192.752L 498.98591549295776 181.148L 501.15492957746477 181.748L 503.3239436619718 181.208L 505.4929577464789 191.3L 507.6619718309859 186.88400000000001L 509.830985915493 181.376L 512 186.5L 514.1690140845071 188.44400000000002L 516.338028169014 179.66L 518.5070422535211 183.09199999999998L 520.6760563380283 173.564L 522.8450704225352 183.836L 525.0140845070423 171.668L 527.1830985915493 148.148L 529.3521126760563 178.004L 531.5211267605633 141.86L 533.6901408450703 186.128L 535.8591549295775 188.54000000000002L 538.0281690140845 187.748L 540.1971830985915 193.256L 542.3661971830986 186.596L 544.5352112676055 185.42000000000002L 546.7042253521126 186.872L 548.8732394366198 185.372L 551.0422535211269 192.824L 553.2112676056338 188.552L 555.3802816901409 189.32L 557.5492957746479 186.632L 559.7183098591549 185.768L 561.887323943662 188.744L 564.0563380281691 187.34L 566.225352112676 192.488L 568.3943661971831 187.028L 570.5633802816901 185.468L 572.7323943661971 181.928L 574.9014084507043 183.8L 577.0704225352113 180.296L 579.2394366197184 185.516L 581.4084507042253 194L 583.5774647887324 190.328L 585.7464788732394 186.584L 587.9154929577464 168.32L 590.0845070422536 117.5L 592.2535211267606 189.10399999999998L 594.4225352112676 187.844L 596.5915492957746 190.28L 598.7605633802817 192.32L 600.9295774647887 189.2L 603.0985915492957 182.288L 605.2676056338029 188.49200000000002L 607.4366197183099 178.916L 609.6056338028169 53.432000000000016L 611.7746478873239 162.656L 613.943661971831 184.52L 616.112676056338 182.708L 618.2816901408451 183.68L 620.4507042253522 184.196L 622.6197183098591 179.084L 624.7887323943662 190.16L 626.9577464788732 180.476L 629.1267605633803 160.916L 631.2957746478874 121.196L 633.4647887323944 151.50799999999998L 635.6338028169015 164.132L 637.8028169014084 181.184L 639.9718309859155 170.49200000000002L 642.1408450704225 179.792L 644.3098591549295 173.204L 646.4788732394367 178.352L 648.6478873239437 182.792L 650.8169014084507 177.152L 652.9859154929577 184.232L 655.1549295774648 187.796L 657.3239436619718 188.348L 659.4929577464789 184.736L 661.661971830986 181.892L 663.830985915493 181.796L 666 179.36L 668.169014084507 168.176L 670.3380281690141 181.808L 672.507042253521 185.372L 674.6760563380282 167.708L 676.8450704225353 140.6L 679.0140845070423 160.784L 681.1830985915493 151.664L 683.3521126760563 145.952L 685.5211267605634 155.288L 687.6901408450703 153.68L 689.8591549295775 163.04L 692.0281690140846 172.064L 694.1971830985915 148.952L 696.3661971830986 171.812L 698.5352112676056 172.46L 700.7042253521126 172.508L 702.8732394366197 183.644L 705.0422535211268 166.304L 707.2112676056339 159.26L 709.3802816901408 172.652L 711.5492957746479 165.5L 713.7183098591549 154.892L 715.887323943662 173.888L 718.056338028169 176.3L 720.2253521126761 186.5L 722.3943661971831 183.932L 724.5633802816901 183.10399999999998L 726.7323943661972 150.128L 728.9014084507041 183.11599999999999L 731.0704225352113 186.152L 733.2394366197183 185.096L 735.4084507042254 182.276L 737.5774647887324 182.18L 739.7464788732394 182.144L 741.9154929577466 174.956L 744.0845070422534 181.988L 746.2535211267606 179.504L 748.4225352112676 184.784L 750.5915492957746 179L 752.7605633802817 175.868L 754.9295774647887 177.14L 757.0985915492959 178.832L 759.2676056338028 182.216L 761.4366197183099 176.444L 763.6056338028169 182.576L 765.7746478873239 177.02L 767.943661971831 178.58L 770.112676056338 182.144L 772.2816901408451 179.48L 774.4507042253521 176.972L 776.6197183098592 186.164L 778.7887323943661 176.096L 780.9577464788732 178.04L 783.1267605633803 152.996L 785.2957746478874 130.724L 787.4647887323944 149.888L 789.6338028169014 149.48L 791.8028169014085 184.1L 793.9718309859154 184.484L 796.1408450704225 177.56L 798.3098591549297 139.952L 800.4788732394366 148.028L 802.6478873239437 162.428L 804.8169014084507 136.244L 806.9859154929577 132.128L 809.1549295774647 142.508L 811.3239436619718 143.252L 813.492957746479 125.732L 815.6619718309859 117.06800000000001L 817.830985915493 164.264L 820 161.876L 822.169014084507 158.636L 824.338028169014 176.40800000000002L 826.5070422535211 186.632L 828.6760563380282 187.352L 830.8450704225352 186.152L 833.0140845070423 174.932L 835.1830985915493 178.388L 837.3521126760563 194.636L 839.5211267605633 184.748L 841.6901408450705 182.84L 843.8591549295775 173.78L 846.0281690140845 177.56L 848.1971830985916 179.996L 850.3661971830985 183.188L 852.5352112676056 153.68L 854.7042253521126 147.548L 856.8732394366197 185.504L 859.0422535211268 190.724L 861.2112676056338 174.752L 863.3802816901409 174.32L 865.5492957746478 183.692L 867.7183098591549 189.06799999999998L 869.887323943662 186.88400000000001L 872.056338028169 179.096L 874.2253521126761 175.808L 876.3943661971831 161.672L 878.5633802816901 160.424L 880.7323943661971 165.632L 882.9014084507043 179.336L 885.0704225352113 183.272L 887.2394366197183 191.024L 889.4084507042254 195.14L 891.5774647887324 182.684L 893.7464788732394 162.416L 895.9154929577464 169.712L 898.0845070422536 168.536L 900.2535211267606 179.024L 902.4225352112676 170.768L 904.5915492957747 161.9L 906.7605633802816 170.012L 908.9295774647887 180.656L 911.0985915492957 178.796L 913.2676056338029 164.648L 915.4366197183099 152.95999999999998L 917.6056338028169 156.62L 919.774647887324 154.568L 921.9436619718309 142.088L 924.112676056338 156.704L 926.2816901408451 176.924L 928.4507042253521 142.652L 930.6197183098592 131.372L 932.7887323943662 137.276L 934.9577464788732 142.7L 937.1267605633802 151.136L 939.2957746478874 138.02L 941.4647887323944 110.324L 943.6338028169014 109.724L 945.8028169014085 163.268L 947.9718309859155 161.996L 950.1408450704225 148.016L 952.3098591549295 147.68L 954.4788732394367 50.792L 956.6478873239436 121.652L 958.8169014084507 58.615999999999985L 960.9859154929578 120.38L 963.1549295774648 155.672L 965.3239436619718 145.76L 967.4929577464789 133.54399999999998L 969.661971830986 86.696L 971.8309859154929 103.568L 974 141.776" stroke-width="2.0" fill="none" />
    
        
        
        <text x="45.0" font-family="-apple-system, system-ui, BlinkMacSystemFont, Roboto" y="50.0" dominant-baseline="middle" text-anchor="end" font-size="12" fill="#24292f">13000.0</text>
        
            
            <path stroke="#74838f" stroke-dasharray="10 6" stroke-width="0.5"  d="M 50.0 50.0 L 974.0 50.0" />
        
    
        
        
        <text x="45.0" font-family="-apple-system, system-ui, BlinkMacSystemFont, Roboto" y="81.2" dominant-baseline="middle" text-anchor="end" font-size="12" fill="#24292f">10400.0</text>
        
            
            
            <path stroke="#74838f" stroke-dasharray="10 6" stroke-width="0.5"  d="M 50.0 81.2 L 974.0 81.2" />
        
    
        
        
        <text x="45.0" font-family="-apple-system, system-ui, BlinkMacSystemFont, Roboto" y="112.4" dominant-baseline="middle" text-anchor="end" font-size="12" fill="#24292f">7800.0</text>
        
            
            
            <path stroke="#74838f" stroke-dasharray="10 6" stroke-width="0.5"  d="M 50.0 112.4 L 974.0 112.4" />
        
    
        
        
        <text x="45.0" font-family="-apple-system, system-ui, BlinkMacSystemFont, Roboto" y="143.6" dominant-baseline="middle" text-anchor="end" font-size="12" fill="#24292f">5200.0</text>
        
            
            
            <path stroke="#74838f" stroke-dasharray="10 6" stroke-width="0.5"  d="M 50.0 143.6 L 974.0 143.6" />
        
    
        
        
        <text x="45.0" font-family="-apple-system, system-ui, BlinkMacSystemFont, Roboto" y="174.8" dominant-baseline="middle" text-anchor="end" font-size="12" fill="#24292f">2600.0</text>
        
            
            
            <path stroke="#74838f" stroke-dasharray="10 6" stroke-width="0.5"  d="M 50.0 174.8 L 974.0 174.8" />
        
    
        
        
        <text x="45.0" font-family="-apple-system, system-ui, BlinkMacSystemFont, Roboto" y="206.0" dominant-baseline="middle" text-anchor="end" font-size="12" fill="#24292f">0.0</text>
        
    
    
        
        <path stroke="#74838f"  stroke-width="2.0"  d="M 84.70422535211267 206.0 L 84.70422535211267 214.0" />
        <text x="84.70422535211267" font-family="-apple-system, system-ui, BlinkMacSystemFont, Roboto" y="216.0" dominant-baseline="hanging" text-anchor="middle" font-size="12" fill="#24292f">Mar 2022</text>
    
        
        <path stroke="#74838f"  stroke-width="2.0"  d="M 151.94366197183098 206.0 L 151.94366197183098 214.0" />
        <text x="151.94366197183098" font-family="-apple-system, system-ui, BlinkMacSystemFont, Roboto" y="216.0" dominant-baseline="hanging" text-anchor="middle" font-size="12" fill="#24292f">Apr 2022</text>
    
        
        <path stroke="#74838f"  stroke-width="2.0"  d="M 217.01408450704224 206.0 L 217.01408450704224 214.0" />
        <text x="217.01408450704224" font-family="-apple-system, system-ui, BlinkMacSystemFont, Roboto" y="216.0" dominant-baseline="hanging" text-anchor="middle" font-size="12" fill="#24292f">May 2022</text>
    
        
        <path stroke="#74838f"  stroke-width="2.0"  d="M 284.2535211267606 206.0 L 284.2535211267606 214.0" />
        <text x="284.2535211267606" font-family="-apple-system, system-ui, BlinkMacSystemFont, Roboto" y="216.0" dominant-baseline="hanging" text-anchor="middle" font-size="12" fill="#24292f">Jun 2022</text>
    
        
        <path stroke="#74838f"  stroke-width="2.0"  d="M 349.32394366197184 206.0 L 349.32394366197184 214.0" />
        <text x="349.32394366197184" font-family="-apple-system, system-ui, BlinkMacSystemFont, Roboto" y="216.0" dominant-baseline="hanging" text-anchor="middle" font-size="12" fill="#24292f">Jul 2022</text>
    
        
        <path stroke="#74838f"  stroke-width="2.0"  d="M 416.5633802816902 206.0 L 416.5633802816902 214.0" />
        <text x="416.5633802816902" font-family="-apple-system, system-ui, BlinkMacSystemFont, Roboto" y="216.0" dominant-baseline="hanging" text-anchor="middle" font-size="12" fill="#24292f">Aug 2022</text>
    
        
        <path stroke="#74838f"  stroke-width="2.0"  d="M 483.80281690140845 206.0 L 483.80281690140845 214.0" />
        <text x="483.80281690140845" font-family="-apple-system, system-ui, BlinkMacSystemFont, Roboto" y="216.0" dominant-baseline="hanging" text-anchor="middle" font-size="12" fill="#24292f">Sep 2022</text>
    
        
        <path stroke="#74838f"  stroke-width="2.0"  d="M 548.8732394366198 206.0 L 548.8732394366198 214.0" />
        <text x="548.8732394366198" font-family="-apple-system, system-ui, BlinkMacSystemFont, Roboto" y="216.0" dominant-baseline="hanging" text-anchor="middle" font-size="12" fill="#24292f">Oct 2022</text>
    
        
        <path stroke="#74838f"  stroke-width="2.0"  d="M 616.112676056338 206.0 L 616.112676056338 214.0" />
        <text x="616.112676056338" font-family="-apple-system, system-ui, BlinkMacSystemFont, Roboto" y="216.0" dominant-baseline="hanging" text-anchor="middle" font-size="12" fill="#24292f">Nov 2022</text>
    
        
        <path stroke="#74838f"  stroke-width="2.0"  d="M 681.1830985915493 206.0 L 681.1830985915493 214.0" />
        <text x="681.1830985915493" font-family="-apple-system, system-ui, BlinkMacSystemFont, Roboto" y="216.0" dominant-baseline="hanging" text-anchor="middle" font-size="12" fill="#24292f">Dec 2022</text>
    
        
        <path stroke="#74838f"  stroke-width="2.0"  d="M 748.4225352112676 206.0 L 748.4225352112676 214.0" />
        <text x="748.4225352112676" font-family="-apple-system, system-ui, BlinkMacSystemFont, Roboto" y="216.0" dominant-baseline="hanging" text-anchor="middle" font-size="12" fill="#24292f">Jan 2023</text>
    
        
        <path stroke="#74838f"  stroke-width="2.0"  d="M 815.6619718309859 206.0 L 815.6619718309859 214.0" />
        <text x="815.6619718309859" font-family="-apple-system, system-ui, BlinkMacSystemFont, Roboto" y="216.0" dominant-baseline="hanging" text-anchor="middle" font-size="12" fill="#24292f">Feb 2023</text>
    
        
        <path stroke="#74838f"  stroke-width="2.0"  d="M 876.3943661971831 206.0 L 876.3943661971831 214.0" />
        <text x="876.3943661971831" font-family="-apple-system, system-ui, BlinkMacSystemFont, Roboto" y="216.0" dominant-baseline="hanging" text-anchor="middle" font-size="12" fill="#24292f">Mar 2023</text>
    
        
        <path stroke="#74838f"  stroke-width="2.0"  d="M 943.6338028169014 206.0 L 943.6338028169014 214.0" />
        <text x="943.6338028169014" font-family="-apple-system, system-ui, BlinkMacSystemFont, Roboto" y="216.0" dominant-baseline="hanging" text-anchor="middle" font-size="12" fill="#24292f">Apr 2023</text>
    
    <path stroke="#74838f"   stroke-linejoin="round" stroke-width="2.0" d="M 50.0 216.0 L 50.0 206.0 L 974.0 206.0 L 974.0 216.0"  fill="none" />
    <text x="512.0" y="25.0" font-family="-apple-system, system-ui, BlinkMacSystemFont, Roboto" dominant-baseline="middle" text-anchor="middle" font-size="18" fill="#24292f">Total daily suspensions</text>
</svg>
