<?xml version="1.0" standalone="no"?>
<svg width="1024.0" height="256.0"  viewBox="0 0 1024.0 256.0" preserveAspectRatio="xMidYMid meet" xmlns="http://www.w3.org/2000/svg">
    <path stroke="#e74c3c" stroke-linejoin="round" d="M 50.0 161.108 L 50 161.108L 52.33924050632911 193.664L 54.678481012658224 197.576L 57.017721518987344 197.924L 59.356962025316456 203.528L 61.69620253164557 199.94L 64.03544303797469 199.268L 66.37468354430379 191.108L 68.71392405063291 200.972L 71.05316455696203 198.62L 73.39240506329114 200L 75.73164556962026 202.57999999999998L 78.07088607594937 199.208L 80.41012658227848 195.608L 82.7493670886076 202.652L 85.08860759493672 198.716L 87.42784810126582 197.49200000000002L 89.76708860759493 191.42000000000002L 92.10632911392405 196.688L 94.44556962025317 199.46L 96.78481012658227 199.328L 99.12405063291139 198.308L 101.46329113924051 198.164L 103.80253164556962 199.832L 106.14177215189873 194.876L 108.48101265822785 199.904L 110.82025316455696 195.584L 113.15949367088608 200.732L 115.4987341772152 198.416L 117.8379746835443 190.652L 120.17721518987342 196.112L 122.51645569620253 190.82L 124.85569620253165 193.53199999999998L 127.19493670886077 199.688L 129.53417721518986 192.392L 131.873417721519 197L 134.2126582278481 199.59199999999998L 136.5518987341772 193.54399999999998L 138.89113924050633 195.26L 141.23037974683544 195.428L 143.56962025316454 195.548L 145.90886075949368 196.484L 148.24810126582278 199.424L 150.5873417721519 199.22L 152.92658227848102 195.656L 155.26582278481013 193.952L 157.60506329113923 195.536L 159.94430379746836 198.764L 162.28354430379747 195.428L 164.62278481012657 194L 166.9620253164557 193.688L 169.30126582278479 186.32L 171.64050632911392 197.372L 173.97974683544305 195.96800000000002L 176.31898734177216 198.284L 178.65822784810126 194.38400000000001L 180.9974683544304 196.424L 183.33670886075947 196.988L 185.6759493670886 198.368L 188.0151898734177 198.05599999999998L 190.35443037974684 199.61599999999999L 192.69367088607595 191.54L 195.03291139240505 202.124L 197.37215189873416 193.34L 199.7113924050633 204.2L 202.0506329113924 206L 204.38987341772153 206L 206.7291139240506 206L 209.06835443037974 206L 211.40759493670885 190.472L 213.74683544303798 159.01999999999998L 216.08607594936709 193.56799999999998L 218.4253164556962 200.228L 220.76455696202532 193.232L 223.10379746835443 196.82L 225.44303797468356 199.772L 227.78227848101267 186.548L 230.12151898734177 197.888L 232.46075949367088 195.596L 234.8 190.508L 237.13924050632912 194.876L 239.47848101265825 190.4L 241.81772151898733 188.756L 244.15696202531646 197.852L 246.49620253164557 199.772L 248.8354430379747 191.936L 251.1746835443038 191.864L 253.5139240506329 199.316L 255.853164556962 194.72L 258.1924050632912 192.608L 260.53164556962025 194.9L 262.8708860759494 199.7L 265.21012658227846 189.224L 267.5493670886076 198.428L 269.88860759493673 196.136L 272.22784810126586 195.296L 274.56708860759494 196.268L 276.906329113924 193.184L 279.24556962025315 197.204L 281.5848101265823 193.856L 283.9240506329114 197.096L 286.2632911392405 178.16L 288.60253164556957 194.372L 290.9417721518987 195.92000000000002L 293.28101265822784 195.11599999999999L 295.62025316455697 196.688L 297.9594936708861 197.49200000000002L 300.2987341772152 197.696L 302.6379746835443 186.848L 304.97721518987345 192.644L 307.3164556962025 199.61599999999999L 309.65569620253166 193.052L 311.9949367088608 191.072L 314.3341772151899 195.44L 316.67341772151894 196.184L 319.0126582278481 196.46L 321.3518987341772 197.312L 323.69113924050635 193.076L 326.0303797468354 206L 328.36962025316456 186.44L 330.7088607594937 186.632L 333.0481012658228 191.276L 335.3873417721519 180.93200000000002L 337.72658227848103 201.704L 340.0658227848101 185.744L 342.40506329113924 196.028L 344.7443037974683 189.464L 347.08354430379745 194.228L 349.4227848101266 195.632L 351.7620253164557 196.844L 354.1012658227848 186.332L 356.44050632911393 197.99599999999998L 358.77974683544306 188.924L 361.11898734177214 189.128L 363.4582278481012 196.748L 365.79746835443035 182.45600000000002L 368.1367088607595 184.16L 370.4759493670886 206L 372.8151898734177 206L 375.1544303797468 206L 377.49367088607596 160.16L 379.8329113924051 198.536L 382.17215189873417 196.60399999999998L 384.5113924050633 195.668L 386.8506329113924 192.8L 389.1898734177215 196.964L 391.52911392405065 197.828L 393.8683544303797 200.84L 396.20759493670886 170.312L 398.546835443038 189.236L 400.8860759493671 177.428L 403.2253164556962 191.564L 405.56455696202534 178.784L 407.9037974683544 176.372L 410.24303797468355 181.7L 412.5822784810126 187.472L 414.92151898734176 192.88400000000001L 417.2607594936709 189.38L 419.6 187.772L 421.9392405063291 189.404L 424.27848101265823 187.532L 426.61772151898737 193.59199999999998L 428.9569620253165 185.036L 431.2962025316456 171.332L 433.63544303797465 180.14L 435.9746835443038 172.316L 438.3139240506329 193.028L 440.653164556962 191.996L 442.99240506329113 193.052L 445.33164556962026 194.84L 447.6708860759494 193.53199999999998L 450.0101265822785 194.024L 452.3493670886076 189.272L 454.6886075949367 195.188L 457.0278481012658 196.256L 459.3670886075949 192.62L 461.706329113924 190.844L 464.04556962025316 200.984L 466.3848101265823 184.796L 468.72405063291137 190.88L 471.0632911392405 194.42000000000002L 473.40253164556964 189.86L 475.7417721518988 195.86L 478.08101265822785 191.984L 480.4202531645569 193.1L 482.75949367088606 186.464L 485.0987341772152 190.46L 487.4379746835443 182.156L 489.7772151898734 187.136L 492.11645569620254 191.528L 494.45569620253167 184.1L 496.7949367088608 189.14L 499.1341772151899 185.204L 501.47341772151896 185.468L 503.8126582278481 176.816L 506.1518987341772 189.04399999999998L 508.4911392405063 191.048L 510.83037974683543 188.756L 513.1696202531646 187.592L 515.5088607594937 191.39600000000002L 517.8481012658228 187.796L 520.187341772152 188.228L 522.526582278481 190.268L 524.8658227848101 194.372L 527.2050632911391 194.72L 529.5443037974683 201.308L 531.8835443037974 192.752L 534.2227848101265 181.148L 536.5620253164557 181.748L 538.9012658227848 181.208L 541.2405063291139 191.3L 543.5797468354431 186.88400000000001L 545.9189873417722 181.376L 548.2582278481012 186.5L 550.5974683544304 188.44400000000002L 552.9367088607595 179.66L 555.2759493670886 183.09199999999998L 557.6151898734178 173.564L 559.9544303797469 183.836L 562.2936708860759 171.668L 564.632911392405 148.148L 566.9721518987342 178.004L 569.3113924050633 141.86L 571.6506329113924 186.128L 573.9898734177216 188.54000000000002L 576.3291139240507 187.748L 578.6683544303798 193.256L 581.0075949367089 186.596L 583.3468354430379 185.42000000000002L 585.686075949367 186.872L 588.0253164556962 185.372L 590.3645569620253 192.824L 592.7037974683544 188.552L 595.0430379746836 189.32L 597.3822784810127 186.632L 599.7215189873417 185.768L 602.0607594936708 188.744L 604.4 187.34L 606.7392405063291 192.488L 609.0784810126582 187.028L 611.4177215189874 185.468L 613.7569620253165 181.928L 616.0962025316456 183.8L 618.4354430379747 180.296L 620.7746835443038 185.516L 623.1139240506329 194L 625.4531645569621 190.328L 627.7924050632911 186.584L 630.1316455696202 168.32L 632.4708860759494 117.5L 634.8101265822785 189.10399999999998L 637.1493670886075 187.844L 639.4886075949366 190.28L 641.8278481012658 192.32L 644.1670886075949 189.2L 646.506329113924 182.288L 648.8455696202532 188.49200000000002L 651.1848101265823 178.916L 653.5240506329114 53.432000000000016L 655.8632911392406 162.656L 658.2025316455696 184.52L 660.5417721518987 182.708L 662.8810126582279 183.68L 665.220253164557 184.196L 667.5594936708861 179.084L 669.8987341772153 190.16L 672.2379746835443 180.476L 674.5772151898734 160.916L 676.9164556962024 121.196L 679.2556962025316 151.50799999999998L 681.5949367088607 164.132L 683.9341772151898 181.184L 686.273417721519 170.49200000000002L 688.6126582278481 179.792L 690.9518987341772 173.204L 693.2911392405064 178.352L 695.6303797468354 182.792L 697.9696202531645 177.152L 700.3088607594937 184.232L 702.6481012658228 187.796L 704.9873417721519 188.348L 707.326582278481 184.736L 709.6658227848102 181.892L 712.0050632911393 181.796L 714.3443037974683 179.36L 716.6835443037975 168.176L 719.0227848101266 181.808L 721.3620253164556 185.372L 723.7012658227848 167.708L 726.0405063291139 140.6L 728.379746835443 160.784L 730.7189873417722 151.664L 733.0582278481013 145.952L 735.3974683544303 155.288L 737.7367088607594 153.68L 740.0759493670886 163.04L 742.4151898734177 172.064L 744.7544303797469 148.952L 747.093670886076 171.812L 749.4329113924051 172.46L 751.7721518987343 172.508L 754.1113924050633 183.644L 756.4506329113924 166.304L 758.7898734177215 159.26L 761.1291139240507 172.652L 763.4683544303798 165.5L 765.8075949367088 154.892L 768.146835443038 173.888L 770.4860759493671 176.3L 772.8253164556961 186.5L 775.1645569620252 183.932L 777.5037974683544 183.10399999999998L 779.8430379746835 150.128L 782.1822784810126 183.11599999999999L 784.5215189873418 186.152L 786.8607594936709 185.096L 789.2 182.276L 791.5392405063291 182.18L 793.8784810126582 182.144L 796.2177215189873 174.956L 798.5569620253165 181.988L 800.8962025316456 179.504L 803.2354430379747 184.784L 805.5746835443039 179L 807.913924050633 175.868L 810.253164556962 177.14L 812.5924050632912 178.832L 814.9316455696202 182.216L 817.2708860759493 176.444L 819.6101265822784 182.576L 821.9493670886076 177.02L 824.2886075949367 178.58L 826.6278481012658 182.144L 828.967088607595 179.48L 831.306329113924 176.972L 833.6455696202531 186.164L 835.9848101265823 176.096L 838.3240506329114 178.04L 840.6632911392405 152.996L 843.0025316455697 130.724L 845.3417721518988 149.888L 847.6810126582279 149.48L 850.020253164557 184.1L 852.3594936708861 184.484L 854.6987341772152 177.56L 857.0379746835443 139.952L 859.3772151898734 148.028L 861.7164556962025 162.428L 864.0556962025316 136.244L 866.3949367088608 132.128L 868.7341772151898 142.508L 871.0734177215189 143.252L 873.412658227848 125.732L 875.7518987341772 117.06800000000001L 878.0911392405063 164.264L 880.4303797468355 161.876L 882.7696202531646 158.636L 885.1088607594937 176.40800000000002L 887.4481012658227 186.632L 889.7873417721519 187.352L 892.126582278481 186.152L 894.4658227848101 174.932L 896.8050632911393 178.388L 899.1443037974684 194.636L 901.4835443037975 184.748L 903.8227848101266 182.84L 906.1620253164557 173.78L 908.5012658227847 177.56L 910.8405063291139 179.996L 913.179746835443 183.188L 915.5189873417721 153.68L 917.8582278481013 147.548L 920.1974683544304 185.504L 922.5367088607595 190.724L 924.8759493670887 174.752L 927.2151898734177 174.32L 929.5544303797468 183.692L 931.8936708860759 189.06799999999998L 934.2329113924051 186.88400000000001L 936.5721518987342 179.096L 938.9113924050633 175.808L 941.2506329113925 161.672L 943.5898734177216 160.424L 945.9291139240506 165.632L 948.2683544303798 179.336L 950.6075949367089 183.272L 952.9468354430379 191.024L 955.286075949367 195.14L 957.6253164556962 182.684L 959.9645569620253 162.416L 962.3037974683544 169.712L 964.6430379746835 168.536L 966.9822784810126 179.024L 969.3215189873417 170.768L 971.6607594936709 161.9L 974 195.09199999999998" stroke-width="2.0" fill="none" />
    
        
        
        <text x="45.0" font-family="-apple-system, system-ui, BlinkMacSystemFont, Roboto" y="50.0" dominant-baseline="middle" text-anchor="end" font-size="12" fill="#24292f">13000.0</text>
        
            
            <path stroke="#74838f" stroke-dasharray="10 6" stroke-width="0.5"  d="M 50.0 50.0 L 974.0 50.0" />
        
    
        
        
        <text x="45.0" font-family="-apple-system, system-ui, BlinkMacSystemFont, Roboto" y="81.2" dominant-baseline="middle" text-anchor="end" font-size="12" fill="#24292f">10400.0</text>
        
            
            
            <path stroke="#74838f" stroke-dasharray="10 6" stroke-width="0.5"  d="M 50.0 81.2 L 974.0 81.2" />
        
    
        
        
        <text x="45.0" font-family="-apple-system, system-ui, BlinkMacSystemFont, Roboto" y="112.4" dominant-baseline="middle" text-anchor="end" font-size="12" fill="#24292f">7800.0</text>
        
            
            
            <path stroke="#74838f" stroke-dasharray="10 6" stroke-width="0.5"  d="M 50.0 112.4 L 974.0 112.4" />
        
    
        
        
        <text x="45.0" font-family="-apple-system, system-ui, BlinkMacSystemFont, Roboto" y="143.6" dominant-baseline="middle" text-anchor="end" font-size="12" fill="#24292f">5200.0</text>
        
            
            
            <path stroke="#74838f" stroke-dasharray="10 6" stroke-width="0.5"  d="M 50.0 143.6 L 974.0 143.6" />
        
    
        
        
        <text x="45.0" font-family="-apple-system, system-ui, BlinkMacSystemFont, Roboto" y="174.8" dominant-baseline="middle" text-anchor="end" font-size="12" fill="#24292f">2600.0</text>
        
            
            
            <path stroke="#74838f" stroke-dasharray="10 6" stroke-width="0.5"  d="M 50.0 174.8 L 974.0 174.8" />
        
    
        
        
        <text x="45.0" font-family="-apple-system, system-ui, BlinkMacSystemFont, Roboto" y="206.0" dominant-baseline="middle" text-anchor="end" font-size="12" fill="#24292f">0.0</text>
        
    
    
        
        <path stroke="#74838f"  stroke-width="2.0"  d="M 87.42784810126582 206.0 L 87.42784810126582 214.0" />
        <text x="87.42784810126582" font-family="-apple-system, system-ui, BlinkMacSystemFont, Roboto" y="216.0" dominant-baseline="hanging" text-anchor="middle" font-size="12" fill="#24292f">Mar 2022</text>
    
        
        <path stroke="#74838f"  stroke-width="2.0"  d="M 159.94430379746836 206.0 L 159.94430379746836 214.0" />
        <text x="159.94430379746836" font-family="-apple-system, system-ui, BlinkMacSystemFont, Roboto" y="216.0" dominant-baseline="hanging" text-anchor="middle" font-size="12" fill="#24292f">Apr 2022</text>
    
        
        <path stroke="#74838f"  stroke-width="2.0"  d="M 230.12151898734177 206.0 L 230.12151898734177 214.0" />
        <text x="230.12151898734177" font-family="-apple-system, system-ui, BlinkMacSystemFont, Roboto" y="216.0" dominant-baseline="hanging" text-anchor="middle" font-size="12" fill="#24292f">May 2022</text>
    
        
        <path stroke="#74838f"  stroke-width="2.0"  d="M 302.6379746835443 206.0 L 302.6379746835443 214.0" />
        <text x="302.6379746835443" font-family="-apple-system, system-ui, BlinkMacSystemFont, Roboto" y="216.0" dominant-baseline="hanging" text-anchor="middle" font-size="12" fill="#24292f">Jun 2022</text>
    
        
        <path stroke="#74838f"  stroke-width="2.0"  d="M 372.8151898734177 206.0 L 372.8151898734177 214.0" />
        <text x="372.8151898734177" font-family="-apple-system, system-ui, BlinkMacSystemFont, Roboto" y="216.0" dominant-baseline="hanging" text-anchor="middle" font-size="12" fill="#24292f">Jul 2022</text>
    
        
        <path stroke="#74838f"  stroke-width="2.0"  d="M 445.33164556962026 206.0 L 445.33164556962026 214.0" />
        <text x="445.33164556962026" font-family="-apple-system, system-ui, BlinkMacSystemFont, Roboto" y="216.0" dominant-baseline="hanging" text-anchor="middle" font-size="12" fill="#24292f">Aug 2022</text>
    
        
        <path stroke="#74838f"  stroke-width="2.0"  d="M 517.8481012658228 206.0 L 517.8481012658228 214.0" />
        <text x="517.8481012658228" font-family="-apple-system, system-ui, BlinkMacSystemFont, Roboto" y="216.0" dominant-baseline="hanging" text-anchor="middle" font-size="12" fill="#24292f">Sep 2022</text>
    
        
        <path stroke="#74838f"  stroke-width="2.0"  d="M 588.0253164556962 206.0 L 588.0253164556962 214.0" />
        <text x="588.0253164556962" font-family="-apple-system, system-ui, BlinkMacSystemFont, Roboto" y="216.0" dominant-baseline="hanging" text-anchor="middle" font-size="12" fill="#24292f">Oct 2022</text>
    
        
        <path stroke="#74838f"  stroke-width="2.0"  d="M 660.5417721518987 206.0 L 660.5417721518987 214.0" />
        <text x="660.5417721518987" font-family="-apple-system, system-ui, BlinkMacSystemFont, Roboto" y="216.0" dominant-baseline="hanging" text-anchor="middle" font-size="12" fill="#24292f">Nov 2022</text>
    
        
        <path stroke="#74838f"  stroke-width="2.0"  d="M 730.7189873417722 206.0 L 730.7189873417722 214.0" />
        <text x="730.7189873417722" font-family="-apple-system, system-ui, BlinkMacSystemFont, Roboto" y="216.0" dominant-baseline="hanging" text-anchor="middle" font-size="12" fill="#24292f">Dec 2022</text>
    
        
        <path stroke="#74838f"  stroke-width="2.0"  d="M 803.2354430379747 206.0 L 803.2354430379747 214.0" />
        <text x="803.2354430379747" font-family="-apple-system, system-ui, BlinkMacSystemFont, Roboto" y="216.0" dominant-baseline="hanging" text-anchor="middle" font-size="12" fill="#24292f">Jan 2023</text>
    
        
        <path stroke="#74838f"  stroke-width="2.0"  d="M 875.7518987341772 206.0 L 875.7518987341772 214.0" />
        <text x="875.7518987341772" font-family="-apple-system, system-ui, BlinkMacSystemFont, Roboto" y="216.0" dominant-baseline="hanging" text-anchor="middle" font-size="12" fill="#24292f">Feb 2023</text>
    
        
        <path stroke="#74838f"  stroke-width="2.0"  d="M 941.2506329113925 206.0 L 941.2506329113925 214.0" />
        <text x="941.2506329113925" font-family="-apple-system, system-ui, BlinkMacSystemFont, Roboto" y="216.0" dominant-baseline="hanging" text-anchor="middle" font-size="12" fill="#24292f">Mar 2023</text>
    
    <path stroke="#74838f"   stroke-linejoin="round" stroke-width="2.0" d="M 50.0 216.0 L 50.0 206.0 L 974.0 206.0 L 974.0 216.0"  fill="none" />
    <text x="512.0" y="25.0" font-family="-apple-system, system-ui, BlinkMacSystemFont, Roboto" dominant-baseline="middle" text-anchor="middle" font-size="18" fill="#24292f">Total daily suspensions</text>
</svg>
