<?xml version="1.0" standalone="no"?>
<svg width="1024.0" height="256.0"  viewBox="0 0 1024.0 256.0" preserveAspectRatio="xMidYMid meet" xmlns="http://www.w3.org/2000/svg">
    <path stroke="#e74c3c" stroke-linejoin="round" d="M 50.0 161.108 L 50 161.108L 52.60281690140845 193.664L 55.205633802816905 197.576L 57.80845070422535 197.924L 60.4112676056338 203.528L 63.014084507042256 199.94L 65.6169014084507 199.268L 68.21971830985916 191.108L 70.8225352112676 200.972L 73.42535211267605 198.62L 76.02816901408451 200L 78.63098591549296 202.57999999999998L 81.2338028169014 199.208L 83.83661971830986 195.608L 86.43943661971832 202.652L 89.04225352112675 198.716L 91.64507042253521 197.49200000000002L 94.24788732394366 191.42000000000002L 96.85070422535212 196.688L 99.45352112676056 199.46L 102.05633802816902 199.328L 104.65915492957745 198.308L 107.26197183098591 198.164L 109.86478873239437 199.832L 112.4676056338028 194.876L 115.07042253521126 199.904L 117.67323943661972 195.584L 120.27605633802817 200.732L 122.87887323943663 198.416L 125.48169014084507 190.652L 128.0845070422535 196.112L 130.68732394366197 190.82L 133.29014084507043 193.53199999999998L 135.89295774647888 199.688L 138.49577464788732 192.392L 141.09859154929575 197L 143.70140845070424 199.59199999999998L 146.30422535211267 193.54399999999998L 148.90704225352113 195.26L 151.5098591549296 195.428L 154.11267605633805 195.548L 156.71549295774648 196.484L 159.3183098591549 199.424L 161.92112676056337 199.22L 164.52394366197183 195.656L 167.1267605633803 193.952L 169.72957746478875 195.536L 172.33239436619718 198.764L 174.9352112676056 195.428L 177.5380281690141 194L 180.14084507042253 193.688L 182.743661971831 186.32L 185.34647887323945 197.372L 187.94929577464788 195.96800000000002L 190.55211267605634 198.284L 193.15492957746477 194.38400000000001L 195.75774647887326 196.424L 198.3605633802817 196.988L 200.96338028169015 198.368L 203.56619718309858 198.05599999999998L 206.16901408450704 199.61599999999999L 208.7718309859155 191.54L 211.37464788732393 202.124L 213.97746478873242 193.34L 216.58028169014085 204.2L 219.1830985915493 206L 221.78591549295774 206L 224.3887323943662 206L 226.99154929577463 206L 229.5943661971831 190.472L 232.19718309859152 159.01999999999998L 234.8 193.56799999999998L 237.40281690140847 200.228L 240.0056338028169 193.232L 242.60845070422536 196.82L 245.2112676056338 199.772L 247.81408450704225 186.548L 250.41690140845068 197.888L 253.01971830985917 195.596L 255.6225352112676 190.508L 258.2253521126761 194.876L 260.8281690140845 190.4L 263.43098591549295 188.756L 266.0338028169014 197.852L 268.6366197183098 199.772L 271.2394366197183 191.936L 273.84225352112674 191.864L 276.4450704225352 199.316L 279.04788732394366 194.72L 281.6507042253521 192.608L 284.2535211267606 194.9L 286.85633802816903 199.7L 289.4591549295775 189.224L 292.0619718309859 198.428L 294.66478873239436 196.136L 297.26760563380276 195.296L 299.8704225352112 196.268L 302.47323943661974 193.184L 305.0760563380282 197.204L 307.67887323943665 193.856L 310.28169014084506 197.096L 312.8845070422535 178.16L 315.487323943662 194.372L 318.09014084507044 195.92000000000002L 320.6929577464789 195.11599999999999L 323.2957746478873 196.688L 325.89859154929576 197.49200000000002L 328.5014084507042 197.696L 331.1042253521127 186.848L 333.7070422535211 192.644L 336.30985915492954 199.61599999999999L 338.91267605633806 193.052L 341.5154929577465 191.072L 344.1183098591549 195.44L 346.7211267605634 196.184L 349.32394366197184 196.46L 351.9267605633803 197.312L 354.52957746478876 193.076L 357.13239436619716 206L 359.7352112676056 186.44L 362.3380281690141 186.632L 364.94084507042254 191.276L 367.543661971831 180.93200000000002L 370.1464788732394 201.704L 372.74929577464786 185.744L 375.3521126760563 196.028L 377.95492957746484 189.464L 380.55774647887324 194.228L 383.1605633802817 195.632L 385.76338028169016 196.844L 388.3661971830986 186.332L 390.969014084507 197.99599999999998L 393.5718309859155 188.924L 396.17464788732394 189.128L 398.7774647887324 196.748L 401.38028169014086 182.45600000000002L 403.98309859154926 184.16L 406.5859154929577 206L 409.1887323943662 206L 411.79154929577464 206L 414.39436619718305 160.16L 416.99718309859156 198.536L 419.6 196.60399999999998L 422.2028169014085 195.668L 424.80563380281694 192.8L 427.40845070422534 196.964L 430.0112676056338 197.828L 432.61408450704226 200.84L 435.2169014084507 170.312L 437.8197183098591 189.236L 440.4225352112676 177.428L 443.02535211267605 191.564L 445.6281690140845 178.784L 448.23098591549297 176.372L 450.83380281690137 181.7L 453.4366197183098 187.472L 456.03943661971834 192.88400000000001L 458.6422535211268 189.38L 461.2450704225352 187.772L 463.84788732394367 189.404L 466.4507042253521 187.532L 469.0535211267606 193.59199999999998L 471.656338028169 185.036L 474.25915492957745 171.332L 476.8619718309859 180.14L 479.46478873239437 172.316L 482.0676056338028 193.028L 484.67042253521123 191.996L 487.2732394366197 193.052L 489.87605633802815 194.84L 492.4788732394366 193.53199999999998L 495.08169014084507 194.024L 497.68450704225353 189.272L 500.287323943662 195.188L 502.89014084507045 196.256L 505.4929577464789 192.62L 508.0957746478873 190.844L 510.69859154929577 200.984L 513.3014084507042 184.796L 515.9042253521127 190.88L 518.5070422535211 194.42000000000002L 521.1098591549296 189.86L 523.7126760563381 195.86L 526.3154929577465 191.984L 528.918309859155 193.1L 531.5211267605633 186.464L 534.1239436619718 190.46L 536.7267605633803 182.156L 539.3295774647887 187.136L 541.9323943661971 191.528L 544.5352112676055 184.1L 547.138028169014 189.14L 549.7408450704224 185.204L 552.343661971831 185.468L 554.9464788732395 176.816L 557.5492957746479 189.04399999999998L 560.1521126760564 191.048L 562.7549295774648 188.756L 565.3577464788733 187.592L 567.9605633802818 191.39600000000002L 570.5633802816901 187.796L 573.1661971830986 188.228L 575.769014084507 190.268L 578.3718309859155 194.372L 580.974647887324 194.72L 583.5774647887324 201.308L 586.1802816901409 192.752L 588.7830985915493 181.148L 591.3859154929578 181.748L 593.9887323943661 181.208L 596.5915492957746 191.3L 599.1943661971831 186.88400000000001L 601.7971830985915 181.376L 604.4 186.5L 607.0028169014084 188.44400000000002L 609.6056338028169 179.66L 612.2084507042254 183.09199999999998L 614.8112676056338 173.564L 617.4140845070422 183.836L 620.0169014084506 171.668L 622.6197183098591 148.148L 625.2225352112675 178.004L 627.8253521126761 141.86L 630.4281690140846 186.128L 633.030985915493 188.54000000000002L 635.6338028169015 187.748L 638.2366197183098 193.256L 640.8394366197183 186.596L 643.4422535211268 185.42000000000002L 646.0450704225352 186.872L 648.6478873239437 185.372L 651.2507042253521 192.824L 653.8535211267606 188.552L 656.4563380281691 189.32L 659.0591549295775 186.632L 661.661971830986 185.768L 664.2647887323943 188.744L 666.8676056338028 187.34L 669.4704225352112 192.488L 672.0732394366197 187.028L 674.6760563380282 185.468L 677.2788732394366 181.928L 679.8816901408451 183.8L 682.4845070422535 180.296L 685.087323943662 185.516L 687.6901408450703 194L 690.2929577464788 190.328L 692.8957746478873 186.584L 695.4985915492957 168.32L 698.1014084507042 117.5L 700.7042253521126 189.10399999999998L 703.3070422535211 187.844L 705.9098591549297 190.28L 708.512676056338 192.32L 711.1154929577465 189.2L 713.7183098591549 182.288L 716.3211267605634 188.49200000000002L 718.9239436619719 178.916L 721.5267605633803 53.432000000000016L 724.1295774647888 162.656L 726.7323943661972 184.52L 729.3352112676057 182.708L 731.938028169014 183.68L 734.5408450704225 184.196L 737.143661971831 179.084L 739.7464788732394 190.16L 742.3492957746479 180.476L 744.9521126760563 160.916L 747.5549295774648 121.196L 750.1577464788733 151.50799999999998L 752.7605633802817 164.132L 755.3633802816901 181.184L 757.9661971830985 170.49200000000002L 760.569014084507 179.792L 763.1718309859154 173.204L 765.7746478873239 178.352L 768.3774647887324 182.792L 770.9802816901408 177.152L 773.5830985915493 184.232L 776.1859154929577 187.796L 778.7887323943661 188.348L 781.3915492957746 184.736L 783.9943661971831 181.892L 786.5971830985916 181.796L 789.2 179.36L 791.8028169014085 168.176L 794.405633802817 181.808L 797.0084507042254 185.372L 799.6112676056339 167.708L 802.2140845070422 140.6L 804.8169014084507 160.784L 807.4197183098591 151.664L 810.0225352112676 145.952L 812.6253521126761 155.288L 815.2281690140845 153.68L 817.830985915493 163.04L 820.4338028169014 172.064L 823.0366197183099 148.952L 825.6394366197183 171.812L 828.2422535211267 172.46L 830.8450704225352 172.508L 833.4478873239436 183.644L 836.0507042253521 166.304L 838.6535211267606 159.26L 841.256338028169 172.652L 843.8591549295775 165.5L 846.4619718309859 154.892L 849.0647887323943 173.888L 851.6676056338027 176.3L 854.2704225352112 186.5L 856.8732394366197 183.932L 859.4760563380282 183.10399999999998L 862.0788732394367 150.128L 864.6816901408451 183.11599999999999L 867.2845070422536 186.152L 869.887323943662 185.096L 872.4901408450704 182.276L 875.0929577464789 182.18L 877.6957746478873 182.144L 880.2985915492958 174.956L 882.9014084507043 181.988L 885.5042253521127 179.504L 888.1070422535212 184.784L 890.7098591549296 179L 893.312676056338 175.868L 895.9154929577464 177.14L 898.5183098591549 178.832L 901.1211267605634 182.216L 903.7239436619718 176.444L 906.3267605633803 182.576L 908.9295774647887 177.02L 911.5323943661972 178.58L 914.1352112676057 182.144L 916.7380281690141 179.48L 919.3408450704225 176.972L 921.9436619718309 186.164L 924.5464788732394 176.096L 927.1492957746478 178.04L 929.7521126760563 152.996L 932.3549295774648 130.724L 934.9577464788732 149.888L 937.5605633802818 149.48L 940.1633802816901 184.1L 942.7661971830986 184.484L 945.3690140845071 177.56L 947.9718309859155 139.952L 950.574647887324 148.028L 953.1774647887324 162.428L 955.7802816901409 136.244L 958.3830985915494 132.128L 960.9859154929578 142.508L 963.5887323943662 143.252L 966.1915492957746 125.732L 968.7943661971831 117.06800000000001L 971.3971830985915 164.264L 974 189.536" stroke-width="2.0" fill="none" />
    
        
        
        <text x="45.0" font-family="-apple-system, system-ui, BlinkMacSystemFont, Roboto" y="50.0" dominant-baseline="middle" text-anchor="end" font-size="12" fill="#24292f">13000.0</text>
        
            
            <path stroke="#74838f" stroke-dasharray="10 6" stroke-width="0.5"  d="M 50.0 50.0 L 974.0 50.0" />
        
    
        
        
        <text x="45.0" font-family="-apple-system, system-ui, BlinkMacSystemFont, Roboto" y="81.2" dominant-baseline="middle" text-anchor="end" font-size="12" fill="#24292f">10400.0</text>
        
            
            
            <path stroke="#74838f" stroke-dasharray="10 6" stroke-width="0.5"  d="M 50.0 81.2 L 974.0 81.2" />
        
    
        
        
        <text x="45.0" font-family="-apple-system, system-ui, BlinkMacSystemFont, Roboto" y="112.4" dominant-baseline="middle" text-anchor="end" font-size="12" fill="#24292f">7800.0</text>
        
            
            
            <path stroke="#74838f" stroke-dasharray="10 6" stroke-width="0.5"  d="M 50.0 112.4 L 974.0 112.4" />
        
    
        
        
        <text x="45.0" font-family="-apple-system, system-ui, BlinkMacSystemFont, Roboto" y="143.6" dominant-baseline="middle" text-anchor="end" font-size="12" fill="#24292f">5200.0</text>
        
            
            
            <path stroke="#74838f" stroke-dasharray="10 6" stroke-width="0.5"  d="M 50.0 143.6 L 974.0 143.6" />
        
    
        
        
        <text x="45.0" font-family="-apple-system, system-ui, BlinkMacSystemFont, Roboto" y="174.8" dominant-baseline="middle" text-anchor="end" font-size="12" fill="#24292f">2600.0</text>
        
            
            
            <path stroke="#74838f" stroke-dasharray="10 6" stroke-width="0.5"  d="M 50.0 174.8 L 974.0 174.8" />
        
    
        
        
        <text x="45.0" font-family="-apple-system, system-ui, BlinkMacSystemFont, Roboto" y="206.0" dominant-baseline="middle" text-anchor="end" font-size="12" fill="#24292f">0.0</text>
        
    
    
        
        <path stroke="#74838f"  stroke-width="2.0"  d="M 91.64507042253521 206.0 L 91.64507042253521 214.0" />
        <text x="91.64507042253521" font-family="-apple-system, system-ui, BlinkMacSystemFont, Roboto" y="216.0" dominant-baseline="hanging" text-anchor="middle" font-size="12" fill="#24292f">Mar 2022</text>
    
        
        <path stroke="#74838f"  stroke-width="2.0"  d="M 172.33239436619718 206.0 L 172.33239436619718 214.0" />
        <text x="172.33239436619718" font-family="-apple-system, system-ui, BlinkMacSystemFont, Roboto" y="216.0" dominant-baseline="hanging" text-anchor="middle" font-size="12" fill="#24292f">Apr 2022</text>
    
        
        <path stroke="#74838f"  stroke-width="2.0"  d="M 250.41690140845068 206.0 L 250.41690140845068 214.0" />
        <text x="250.41690140845068" font-family="-apple-system, system-ui, BlinkMacSystemFont, Roboto" y="216.0" dominant-baseline="hanging" text-anchor="middle" font-size="12" fill="#24292f">May 2022</text>
    
        
        <path stroke="#74838f"  stroke-width="2.0"  d="M 331.1042253521127 206.0 L 331.1042253521127 214.0" />
        <text x="331.1042253521127" font-family="-apple-system, system-ui, BlinkMacSystemFont, Roboto" y="216.0" dominant-baseline="hanging" text-anchor="middle" font-size="12" fill="#24292f">Jun 2022</text>
    
        
        <path stroke="#74838f"  stroke-width="2.0"  d="M 409.1887323943662 206.0 L 409.1887323943662 214.0" />
        <text x="409.1887323943662" font-family="-apple-system, system-ui, BlinkMacSystemFont, Roboto" y="216.0" dominant-baseline="hanging" text-anchor="middle" font-size="12" fill="#24292f">Jul 2022</text>
    
        
        <path stroke="#74838f"  stroke-width="2.0"  d="M 489.87605633802815 206.0 L 489.87605633802815 214.0" />
        <text x="489.87605633802815" font-family="-apple-system, system-ui, BlinkMacSystemFont, Roboto" y="216.0" dominant-baseline="hanging" text-anchor="middle" font-size="12" fill="#24292f">Aug 2022</text>
    
        
        <path stroke="#74838f"  stroke-width="2.0"  d="M 570.5633802816901 206.0 L 570.5633802816901 214.0" />
        <text x="570.5633802816901" font-family="-apple-system, system-ui, BlinkMacSystemFont, Roboto" y="216.0" dominant-baseline="hanging" text-anchor="middle" font-size="12" fill="#24292f">Sep 2022</text>
    
        
        <path stroke="#74838f"  stroke-width="2.0"  d="M 648.6478873239437 206.0 L 648.6478873239437 214.0" />
        <text x="648.6478873239437" font-family="-apple-system, system-ui, BlinkMacSystemFont, Roboto" y="216.0" dominant-baseline="hanging" text-anchor="middle" font-size="12" fill="#24292f">Oct 2022</text>
    
        
        <path stroke="#74838f"  stroke-width="2.0"  d="M 729.3352112676057 206.0 L 729.3352112676057 214.0" />
        <text x="729.3352112676057" font-family="-apple-system, system-ui, BlinkMacSystemFont, Roboto" y="216.0" dominant-baseline="hanging" text-anchor="middle" font-size="12" fill="#24292f">Nov 2022</text>
    
        
        <path stroke="#74838f"  stroke-width="2.0"  d="M 807.4197183098591 206.0 L 807.4197183098591 214.0" />
        <text x="807.4197183098591" font-family="-apple-system, system-ui, BlinkMacSystemFont, Roboto" y="216.0" dominant-baseline="hanging" text-anchor="middle" font-size="12" fill="#24292f">Dec 2022</text>
    
        
        <path stroke="#74838f"  stroke-width="2.0"  d="M 888.1070422535212 206.0 L 888.1070422535212 214.0" />
        <text x="888.1070422535212" font-family="-apple-system, system-ui, BlinkMacSystemFont, Roboto" y="216.0" dominant-baseline="hanging" text-anchor="middle" font-size="12" fill="#24292f">Jan 2023</text>
    
        
        <path stroke="#74838f"  stroke-width="2.0"  d="M 968.7943661971831 206.0 L 968.7943661971831 214.0" />
        <text x="968.7943661971831" font-family="-apple-system, system-ui, BlinkMacSystemFont, Roboto" y="216.0" dominant-baseline="hanging" text-anchor="middle" font-size="12" fill="#24292f">Feb 2023</text>
    
    <path stroke="#74838f"   stroke-linejoin="round" stroke-width="2.0" d="M 50.0 216.0 L 50.0 206.0 L 974.0 206.0 L 974.0 216.0"  fill="none" />
    <text x="512.0" y="25.0" font-family="-apple-system, system-ui, BlinkMacSystemFont, Roboto" dominant-baseline="middle" text-anchor="middle" font-size="18" fill="#24292f">Total daily suspensions</text>
</svg>
