<?xml version="1.0" standalone="no"?>
<svg width="1024.0" height="256.0"  viewBox="0 0 1024.0 256.0" preserveAspectRatio="xMidYMid meet" xmlns="http://www.w3.org/2000/svg">
    <path stroke="#e74c3c" stroke-linejoin="round" d="M 50.0 161.108 L 50 161.108L 52.81707317073171 193.664L 55.63414634146341 197.576L 58.451219512195124 197.924L 61.26829268292683 203.528L 64.08536585365854 199.94L 66.90243902439025 199.268L 69.71951219512195 191.108L 72.53658536585365 200.972L 75.35365853658537 198.62L 78.17073170731707 200L 80.98780487804878 202.57999999999998L 83.8048780487805 199.208L 86.6219512195122 195.608L 89.4390243902439 202.652L 92.2560975609756 198.716L 95.07317073170732 197.49200000000002L 97.89024390243902 191.42000000000002L 100.70731707317074 196.688L 103.52439024390245 199.46L 106.34146341463415 199.328L 109.15853658536585 198.308L 111.97560975609755 198.164L 114.79268292682927 199.832L 117.60975609756098 194.876L 120.42682926829268 199.904L 123.2439024390244 195.584L 126.0609756097561 200.732L 128.8780487804878 198.416L 131.6951219512195 190.652L 134.5121951219512 196.112L 137.3292682926829 190.82L 140.14634146341464 193.53199999999998L 142.96341463414635 199.688L 145.78048780487805 192.392L 148.59756097560975 197L 151.41463414634148 199.59199999999998L 154.2317073170732 193.54399999999998L 157.0487804878049 195.26L 159.8658536585366 195.428L 162.6829268292683 195.548L 165.5 196.484L 168.3170731707317 199.424L 171.1341463414634 199.22L 173.9512195121951 195.656L 176.76829268292684 193.952L 179.58536585365854 195.536L 182.40243902439025 198.764L 185.21951219512195 195.428L 188.03658536585365 194L 190.85365853658536 193.688L 193.67073170731706 186.32L 196.4878048780488 197.372L 199.3048780487805 195.96800000000002L 202.1219512195122 198.284L 204.9390243902439 194.38400000000001L 207.75609756097563 196.424L 210.5731707317073 196.988L 213.390243902439 198.368L 216.2073170731707 198.05599999999998L 219.02439024390245 199.61599999999999L 221.84146341463415 191.54L 224.65853658536585 202.124L 227.47560975609755 193.34L 230.2926829268293 204.2L 233.109756097561 206L 235.9268292682927 206L 238.74390243902437 206L 241.5609756097561 206L 244.3780487804878 190.472L 247.1951219512195 159.01999999999998L 250.0121951219512 193.56799999999998L 252.82926829268294 200.228L 255.64634146341464 193.232L 258.4634146341464 196.82L 261.280487804878 199.772L 264.0975609756098 186.548L 266.9146341463414 197.888L 269.7317073170732 195.596L 272.54878048780483 190.508L 275.3658536585366 194.876L 278.1829268292683 190.4L 281 188.756L 283.8170731707317 197.852L 286.6341463414634 199.772L 289.45121951219517 191.936L 292.2682926829268 191.864L 295.0853658536586 199.316L 297.9024390243902 194.72L 300.719512195122 192.608L 303.5365853658537 194.9L 306.3536585365854 199.7L 309.1707317073171 189.224L 311.98780487804873 198.428L 314.8048780487805 196.136L 317.6219512195122 195.296L 320.4390243902439 196.268L 323.2560975609756 193.184L 326.0731707317073 197.204L 328.890243902439 193.856L 331.7073170731707 197.096L 334.5243902439024 178.16L 337.3414634146341 194.372L 340.1585365853659 195.92000000000002L 342.9756097560976 195.11599999999999L 345.7926829268293 196.688L 348.609756097561 197.49200000000002L 351.4268292682927 197.696L 354.2439024390244 186.848L 357.0609756097561 192.644L 359.8780487804878 199.61599999999999L 362.6951219512195 193.052L 365.51219512195127 191.072L 368.3292682926829 195.44L 371.1463414634146 196.184L 373.9634146341463 196.46L 376.780487804878 197.312L 379.5975609756097 193.076L 382.4146341463414 206L 385.2317073170732 186.44L 388.0487804878049 186.632L 390.8658536585366 191.276L 393.6829268292683 180.93200000000002L 396.5 201.704L 399.3170731707317 185.744L 402.1341463414634 196.028L 404.9512195121951 189.464L 407.7682926829268 194.228L 410.5853658536586 195.632L 413.4024390243903 196.844L 416.219512195122 186.332L 419.0365853658537 197.99599999999998L 421.8536585365854 188.924L 424.6707317073171 189.128L 427.48780487804873 196.748L 430.3048780487805 182.45600000000002L 433.1219512195122 184.16L 435.9390243902439 206L 438.7560975609756 206L 441.5731707317073 206L 444.390243902439 160.16L 447.2073170731707 198.536L 450.0243902439024 196.60399999999998L 452.8414634146341 195.668L 455.6585365853659 192.8L 458.4756097560976 196.964L 461.2926829268293 197.828L 464.109756097561 200.84L 466.9268292682927 170.312L 469.7439024390244 189.236L 472.5609756097561 177.428L 475.3780487804878 191.564L 478.1951219512195 178.784L 481.01219512195127 176.372L 483.8292682926829 181.7L 486.6463414634146 187.472L 489.4634146341463 192.88400000000001L 492.280487804878 189.38L 495.0975609756097 187.772L 497.9146341463414 189.404L 500.7317073170732 187.532L 503.5487804878049 193.59199999999998L 506.3658536585366 185.036L 509.1829268292683 171.332L 512 180.14L 514.8170731707316 172.316L 517.6341463414634 193.028L 520.4512195121952 191.996L 523.2682926829268 193.052L 526.0853658536586 194.84L 528.9024390243903 193.53199999999998L 531.719512195122 194.024L 534.5365853658536 189.272L 537.3536585365854 195.188L 540.1707317073171 196.256L 542.9878048780488 192.62L 545.8048780487804 190.844L 548.6219512195123 200.984L 551.439024390244 184.796L 554.2560975609756 190.88L 557.0731707317074 194.42000000000002L 559.8902439024391 189.86L 562.7073170731708 195.86L 565.5243902439025 191.984L 568.3414634146342 193.1L 571.1585365853658 186.464L 573.9756097560975 190.46L 576.7926829268292 182.156L 579.609756097561 187.136L 582.4268292682926 191.528L 585.2439024390244 184.1L 588.060975609756 189.14L 590.8780487804878 185.204L 593.6951219512194 185.468L 596.5121951219512 176.828L 599.3292682926829 189.04399999999998L 602.1463414634146 191.048L 604.9634146341464 188.756L 607.780487804878 187.592L 610.5975609756098 191.39600000000002L 613.4146341463414 187.796L 616.2317073170732 188.228L 619.0487804878048 190.268L 621.8658536585366 194.372L 624.6829268292682 194.72L 627.5 201.308L 630.3170731707318 192.752L 633.1341463414634 181.148L 635.9512195121952 181.748L 638.7682926829268 181.208L 641.5853658536586 191.3L 644.4024390243902 186.88400000000001L 647.219512195122 181.376L 650.0365853658536 186.5L 652.8536585365854 188.44400000000002L 655.6707317073171 179.66L 658.4878048780488 183.09199999999998L 661.3048780487806 173.564L 664.1219512195122 183.836L 666.939024390244 171.668L 669.7560975609756 148.148L 672.5731707317074 178.004L 675.390243902439 141.86L 678.2073170731708 186.128L 681.0243902439025 188.54000000000002L 683.8414634146342 187.748L 686.6585365853658 193.256L 689.4756097560975 186.596L 692.2926829268292 185.42000000000002L 695.109756097561 186.872L 697.9268292682926 185.372L 700.7439024390244 192.824L 703.560975609756 188.552L 706.3780487804878 189.32L 709.1951219512194 186.632L 712.0121951219512 185.768L 714.8292682926829 188.744L 717.6463414634146 187.34L 720.4634146341464 192.488L 723.280487804878 187.028L 726.0975609756098 185.468L 728.9146341463414 181.928L 731.7317073170732 183.8L 734.5487804878048 180.296L 737.3658536585366 185.516L 740.1829268292682 194L 743 190.328L 745.8170731707318 186.584L 748.6341463414634 168.32L 751.4512195121952 117.5L 754.2682926829268 189.10399999999998L 757.0853658536586 187.844L 759.9024390243902 190.28L 762.719512195122 192.32L 765.5365853658536 189.2L 768.3536585365854 182.288L 771.1707317073171 188.49200000000002L 773.9878048780488 178.916L 776.8048780487806 53.432000000000016L 779.6219512195122 162.656L 782.439024390244 184.52L 785.2560975609756 182.708L 788.0731707317074 183.68L 790.890243902439 184.196L 793.7073170731708 179.084L 796.5243902439025 190.16L 799.3414634146342 180.476L 802.1585365853658 160.916L 804.9756097560975 121.196L 807.7926829268292 151.50799999999998L 810.609756097561 164.132L 813.4268292682926 181.184L 816.2439024390244 170.49200000000002L 819.060975609756 179.792L 821.8780487804878 173.204L 824.6951219512194 178.352L 827.5121951219512 182.792L 830.3292682926829 177.152L 833.1463414634146 184.232L 835.9634146341464 187.796L 838.780487804878 188.348L 841.5975609756098 184.736L 844.4146341463414 181.892L 847.2317073170732 181.796L 850.0487804878048 179.36L 852.8658536585366 168.176L 855.6829268292682 181.808L 858.5 185.372L 861.3170731707318 167.708L 864.1341463414634 140.6L 866.9512195121952 160.784L 869.7682926829268 151.664L 872.5853658536586 145.952L 875.4024390243902 155.288L 878.219512195122 153.68L 881.0365853658536 163.04L 883.8536585365854 172.064L 886.6707317073171 148.952L 889.4878048780488 171.812L 892.3048780487806 172.46L 895.1219512195122 172.508L 897.939024390244 183.644L 900.7560975609756 166.304L 903.5731707317074 159.26L 906.390243902439 172.652L 909.2073170731708 165.5L 912.0243902439025 154.892L 914.8414634146342 173.888L 917.6585365853658 176.3L 920.4756097560975 186.5L 923.2926829268292 183.932L 926.109756097561 183.10399999999998L 928.9268292682926 150.128L 931.7439024390244 183.11599999999999L 934.560975609756 186.152L 937.3780487804878 185.096L 940.1951219512194 182.276L 943.0121951219512 182.18L 945.8292682926829 182.144L 948.6463414634146 174.956L 951.4634146341464 181.988L 954.280487804878 179.504L 957.0975609756098 184.784L 959.9146341463414 179L 962.7317073170732 175.868L 965.5487804878048 177.14L 968.3658536585366 178.832L 971.1829268292682 182.216L 974 190.34" stroke-width="2.0" fill="none" />
    
        
        
        <text x="45.0" font-family="-apple-system, system-ui, BlinkMacSystemFont, Roboto" y="50.0" dominant-baseline="middle" text-anchor="end" font-size="12" fill="#24292f">13000.0</text>
        
            
            <path stroke="#74838f" stroke-dasharray="10 6" stroke-width="0.5"  d="M 50.0 50.0 L 974.0 50.0" />
        
    
        
        
        <text x="45.0" font-family="-apple-system, system-ui, BlinkMacSystemFont, Roboto" y="81.2" dominant-baseline="middle" text-anchor="end" font-size="12" fill="#24292f">10400.0</text>
        
            
            
            <path stroke="#74838f" stroke-dasharray="10 6" stroke-width="0.5"  d="M 50.0 81.2 L 974.0 81.2" />
        
    
        
        
        <text x="45.0" font-family="-apple-system, system-ui, BlinkMacSystemFont, Roboto" y="112.4" dominant-baseline="middle" text-anchor="end" font-size="12" fill="#24292f">7800.0</text>
        
            
            
            <path stroke="#74838f" stroke-dasharray="10 6" stroke-width="0.5"  d="M 50.0 112.4 L 974.0 112.4" />
        
    
        
        
        <text x="45.0" font-family="-apple-system, system-ui, BlinkMacSystemFont, Roboto" y="143.6" dominant-baseline="middle" text-anchor="end" font-size="12" fill="#24292f">5200.0</text>
        
            
            
            <path stroke="#74838f" stroke-dasharray="10 6" stroke-width="0.5"  d="M 50.0 143.6 L 974.0 143.6" />
        
    
        
        
        <text x="45.0" font-family="-apple-system, system-ui, BlinkMacSystemFont, Roboto" y="174.8" dominant-baseline="middle" text-anchor="end" font-size="12" fill="#24292f">2600.0</text>
        
            
            
            <path stroke="#74838f" stroke-dasharray="10 6" stroke-width="0.5"  d="M 50.0 174.8 L 974.0 174.8" />
        
    
        
        
        <text x="45.0" font-family="-apple-system, system-ui, BlinkMacSystemFont, Roboto" y="206.0" dominant-baseline="middle" text-anchor="end" font-size="12" fill="#24292f">0.0</text>
        
    
    
        
        <path stroke="#74838f"  stroke-width="2.0"  d="M 95.07317073170732 206.0 L 95.07317073170732 214.0" />
        <text x="95.07317073170732" font-family="-apple-system, system-ui, BlinkMacSystemFont, Roboto" y="216.0" dominant-baseline="hanging" text-anchor="middle" font-size="12" fill="#24292f">Mar 2022</text>
    
        
        <path stroke="#74838f"  stroke-width="2.0"  d="M 182.40243902439025 206.0 L 182.40243902439025 214.0" />
        <text x="182.40243902439025" font-family="-apple-system, system-ui, BlinkMacSystemFont, Roboto" y="216.0" dominant-baseline="hanging" text-anchor="middle" font-size="12" fill="#24292f">Apr 2022</text>
    
        
        <path stroke="#74838f"  stroke-width="2.0"  d="M 266.9146341463414 206.0 L 266.9146341463414 214.0" />
        <text x="266.9146341463414" font-family="-apple-system, system-ui, BlinkMacSystemFont, Roboto" y="216.0" dominant-baseline="hanging" text-anchor="middle" font-size="12" fill="#24292f">May 2022</text>
    
        
        <path stroke="#74838f"  stroke-width="2.0"  d="M 354.2439024390244 206.0 L 354.2439024390244 214.0" />
        <text x="354.2439024390244" font-family="-apple-system, system-ui, BlinkMacSystemFont, Roboto" y="216.0" dominant-baseline="hanging" text-anchor="middle" font-size="12" fill="#24292f">Jun 2022</text>
    
        
        <path stroke="#74838f"  stroke-width="2.0"  d="M 438.7560975609756 206.0 L 438.7560975609756 214.0" />
        <text x="438.7560975609756" font-family="-apple-system, system-ui, BlinkMacSystemFont, Roboto" y="216.0" dominant-baseline="hanging" text-anchor="middle" font-size="12" fill="#24292f">Jul 2022</text>
    
        
        <path stroke="#74838f"  stroke-width="2.0"  d="M 526.0853658536586 206.0 L 526.0853658536586 214.0" />
        <text x="526.0853658536586" font-family="-apple-system, system-ui, BlinkMacSystemFont, Roboto" y="216.0" dominant-baseline="hanging" text-anchor="middle" font-size="12" fill="#24292f">Aug 2022</text>
    
        
        <path stroke="#74838f"  stroke-width="2.0"  d="M 613.4146341463414 206.0 L 613.4146341463414 214.0" />
        <text x="613.4146341463414" font-family="-apple-system, system-ui, BlinkMacSystemFont, Roboto" y="216.0" dominant-baseline="hanging" text-anchor="middle" font-size="12" fill="#24292f">Sep 2022</text>
    
        
        <path stroke="#74838f"  stroke-width="2.0"  d="M 697.9268292682926 206.0 L 697.9268292682926 214.0" />
        <text x="697.9268292682926" font-family="-apple-system, system-ui, BlinkMacSystemFont, Roboto" y="216.0" dominant-baseline="hanging" text-anchor="middle" font-size="12" fill="#24292f">Oct 2022</text>
    
        
        <path stroke="#74838f"  stroke-width="2.0"  d="M 785.2560975609756 206.0 L 785.2560975609756 214.0" />
        <text x="785.2560975609756" font-family="-apple-system, system-ui, BlinkMacSystemFont, Roboto" y="216.0" dominant-baseline="hanging" text-anchor="middle" font-size="12" fill="#24292f">Nov 2022</text>
    
        
        <path stroke="#74838f"  stroke-width="2.0"  d="M 869.7682926829268 206.0 L 869.7682926829268 214.0" />
        <text x="869.7682926829268" font-family="-apple-system, system-ui, BlinkMacSystemFont, Roboto" y="216.0" dominant-baseline="hanging" text-anchor="middle" font-size="12" fill="#24292f">Dec 2022</text>
    
        
        <path stroke="#74838f"  stroke-width="2.0"  d="M 957.0975609756098 206.0 L 957.0975609756098 214.0" />
        <text x="957.0975609756098" font-family="-apple-system, system-ui, BlinkMacSystemFont, Roboto" y="216.0" dominant-baseline="hanging" text-anchor="middle" font-size="12" fill="#24292f">Jan 2023</text>
    
    <path stroke="#74838f"   stroke-linejoin="round" stroke-width="2.0" d="M 50.0 216.0 L 50.0 206.0 L 974.0 206.0 L 974.0 216.0"  fill="none" />
    <text x="512.0" y="25.0" font-family="-apple-system, system-ui, BlinkMacSystemFont, Roboto" dominant-baseline="middle" text-anchor="middle" font-size="18" fill="#24292f">Total daily suspensions</text>
</svg>
