<?xml version="1.0" standalone="no"?>
<svg width="1024.0" height="256.0"  viewBox="0 0 1024.0 256.0" preserveAspectRatio="xMidYMid meet" xmlns="http://www.w3.org/2000/svg">
    <path stroke="#e74c3c" stroke-linejoin="round" d="M 50.0 182.17975510204082 L 50 182.17975510204082L 51.8046875 199.45436734693877L 53.609375 201.5301224489796L 55.4140625 201.71477551020408L 57.21875 204.68832653061224L 59.0234375 202.78448979591838L 60.828125 202.42791836734693L 62.6328125 198.0981224489796L 64.4375 203.33208163265306L 66.2421875 202.08408163265307L 68.046875 202.81632653061223L 69.8515625 204.185306122449L 71.65625 202.39608163265308L 73.4609375 200.4858775510204L 75.265625 204.22351020408163L 77.0703125 202.13502040816326L 78.875 201.48555102040817L 80.6796875 198.26367346938775L 82.484375 201.0589387755102L 84.2890625 202.52979591836734L 86.09375 202.45975510204082L 87.8984375 201.9185306122449L 89.703125 201.84212244897958L 91.5078125 202.7271836734694L 93.3125 200.0974693877551L 95.1171875 202.76538775510204L 96.921875 200.47314285714288L 98.7265625 203.20473469387755L 100.53125 201.97583673469387L 102.3359375 197.85616326530612L 104.140625 200.75330612244898L 105.9453125 197.94530612244898L 107.75 199.38432653061224L 109.5546875 202.65077551020408L 111.359375 198.77942857142858L 113.1640625 201.22448979591837L 114.96875 202.5998367346939L 116.7734375 199.39069387755103L 118.578125 200.3012244897959L 120.3828125 200.39036734693877L 122.1875 200.45404081632654L 123.9921875 200.95069387755103L 125.796875 202.51069387755103L 127.6015625 202.40244897959184L 129.40625 200.51134693877552L 131.2109375 199.6071836734694L 133.015625 200.44767346938775L 134.8203125 202.16048979591835L 136.625 200.39036734693877L 138.4296875 199.6326530612245L 140.234375 199.46710204081631L 142.0390625 195.55755102040817L 143.84375 201.4218775510204L 145.6484375 200.6768979591837L 147.453125 201.90579591836735L 149.2578125 199.8364081632653L 151.0625 200.91885714285715L 152.8671875 201.21812244897959L 154.671875 201.95036734693878L 156.4765625 201.7848163265306L 158.28125 202.6125714285714L 160.0859375 198.32734693877552L 161.890625 203.9433469387755L 163.6953125 199.28244897959183L 165.5 205.0448979591837L 167.3046875 206L 169.109375 206L 170.9140625 206L 172.71875 206L 174.5234375 197.7606530612245L 176.328125 181.07183673469387L 178.1328125 199.40342857142858L 179.9375 202.93730612244897L 181.7421875 199.22514285714286L 183.546875 201.12897959183672L 185.3515625 202.69534693877551L 187.15625 195.6785306122449L 188.9609375 201.69567346938777L 190.765625 200.47951020408163L 192.5703125 197.7797551020408L 194.375 200.0974693877551L 196.1796875 197.72244897959183L 197.984375 196.8501224489796L 199.7890625 201.67657142857144L 201.59375 202.69534693877551L 203.3984375 198.5374693877551L 205.203125 198.49926530612245L 207.0078125 202.45338775510203L 208.8125 200.01469387755103L 210.6171875 198.89404081632654L 212.421875 200.11020408163265L 214.2265625 202.65714285714284L 216.03125 197.09844897959184L 217.8359375 201.98220408163266L 219.640625 200.76604081632652L 221.4453125 200.32032653061225L 223.25 200.83608163265308L 225.0546875 199.19967346938776L 226.859375 201.33273469387757L 228.6640625 199.55624489795917L 230.46875 201.27542857142856L 232.2734375 191.22775510204082L 234.078125 199.83004081632652L 235.8828125 200.65142857142857L 237.6875 200.22481632653063L 239.4921875 201.0589387755102L 241.296875 201.48555102040817L 243.1015625 201.59379591836733L 244.90625 195.8377142857143L 246.7109375 198.91314285714287L 248.515625 202.6125714285714L 250.3203125 199.1296326530612L 252.125 198.07902040816327L 253.9296875 200.39673469387753L 255.734375 200.79151020408165L 257.5390625 200.93795918367346L 259.34375 201.39004081632652L 261.1484375 199.14236734693878L 262.953125 206L 264.7578125 195.6212244897959L 266.5625 195.72310204081634L 268.3671875 198.18726530612244L 270.171875 192.69861224489796L 271.9765625 203.72048979591835L 273.78125 195.25191836734695L 275.5859375 200.70873469387755L 277.390625 197.22579591836734L 279.1953125 199.75363265306123L 281 200.49861224489797L 282.8046875 201.14171428571427L 284.609375 195.56391836734693L 286.4140625 201.75297959183672L 288.21875 196.93926530612245L 290.0234375 197.04751020408162L 291.828125 201.09077551020408L 293.6328125 193.50726530612246L 295.4375 194.4114285714286L 297.2421875 206L 299.046875 206L 300.8515625 206L 302.65625 181.67673469387756L 304.4609375 202.03951020408164L 306.265625 201.01436734693877L 308.0703125 200.51771428571428L 309.875 198.99591836734695L 311.6796875 201.20538775510204L 313.484375 201.66383673469386L 315.2890625 203.26204081632653L 317.09375 187.06351020408164L 318.8984375 197.10481632653062L 320.703125 190.83934693877552L 322.5078125 198.34008163265307L 324.3125 191.55885714285714L 326.1171875 190.27902040816326L 327.921875 193.1061224489796L 329.7265625 196.16881632653062L 331.53125 199.04048979591838L 333.3359375 197.1812244897959L 335.140625 196.328L 336.9453125 197.19395918367348L 338.75 196.2006530612245L 340.5546875 199.41616326530612L 342.359375 194.87624489795917L 344.1640625 187.60473469387756L 345.96875 192.27836734693878L 347.7734375 188.12685714285715L 349.578125 199.1168979591837L 351.3828125 198.56930612244898L 353.1875 199.1296326530612L 354.9921875 200.07836734693876L 356.796875 199.38432653061224L 358.6015625 199.64538775510204L 360.40625 197.12391836734693L 362.2109375 200.26302040816327L 364.015625 200.8297142857143L 365.8203125 198.9004081632653L 367.625 197.95804081632653L 369.4296875 203.33844897959185L 371.234375 194.74889795918367L 373.0390625 197.97714285714287L 374.84375 199.85551020408164L 376.6484375 197.43591836734694L 378.453125 200.61959183673468L 380.2578125 198.5629387755102L 382.0625 199.15510204081633L 383.8671875 195.63395918367348L 385.671875 197.75428571428571L 387.4765625 193.34808163265308L 389.28125 195.9905306122449L 391.0859375 198.32097959183673L 392.890625 194.37959183673468L 394.6953125 197.0538775510204L 396.5 194.96538775510203L 398.3046875 195.1054693877551L 400.109375 190.51461224489796L 401.9140625 197.0029387755102L 403.71875 198.0662857142857L 405.5234375 196.8501224489796L 407.328125 196.23248979591835L 409.1328125 198.2509387755102L 410.9375 196.34073469387755L 412.7421875 196.56995918367346L 414.546875 197.6524081632653L 416.3515625 199.83004081632652L 418.15625 200.01469387755103L 419.9609375 203.51036734693878L 421.765625 198.97044897959182L 423.5703125 192.8132244897959L 425.375 193.13159183673469L 427.1796875 192.8450612244898L 428.984375 198.2L 430.7890625 195.8568163265306L 432.59375 192.93420408163266L 434.3984375 195.6530612244898L 436.203125 196.68457142857142L 438.0078125 192.02367346938775L 439.8125 193.84473469387757L 441.6171875 188.78906122448979L 443.421875 194.23951020408163L 445.2265625 187.78302040816325L 447.03125 175.30302040816326L 448.8359375 191.14497959183674L 450.640625 171.9665306122449L 452.4453125 195.45567346938776L 454.25 196.73551020408163L 456.0546875 196.31526530612246L 457.859375 199.2378775510204L 459.6640625 195.704L 461.46875 195.07999999999998L 463.2734375 195.85044897959185L 465.078125 195.0545306122449L 466.8828125 199.0086530612245L 468.6875 196.74187755102042L 470.4921875 197.14938775510205L 472.296875 195.72310204081634L 474.1015625 195.2646530612245L 475.90625 196.8437551020408L 477.7109375 196.09877551020406L 479.515625 198.83036734693877L 481.3203125 195.93322448979592L 483.125 195.1054693877551L 484.9296875 193.22710204081633L 486.734375 194.2204081632653L 488.5390625 192.36114285714285L 490.34375 195.1309387755102L 492.1484375 199.6326530612245L 493.953125 197.6842448979592L 495.7578125 195.69763265306122L 497.5625 186.0065306122449L 499.3671875 159.0408163265306L 501.171875 197.0347755102041L 502.9765625 196.36620408163265L 504.78125 197.65877551020407L 506.5859375 198.7412244897959L 508.390625 197.0857142857143L 510.1953125 193.4181224489796L 512 196.71004081632654L 513.8046875 191.6288979591837L 515.609375 125.04555102040817L 517.4140625 183.00114285714287L 519.21875 194.60244897959183L 521.0234375 193.64097959183673L 522.828125 194.15673469387755L 524.6328125 194.4305306122449L 526.4375 191.71804081632652L 528.2421875 197.59510204081633L 530.046875 192.45665306122447L 531.8515625 182.0778775510204L 533.65625 161.00195918367348L 535.4609375 177.08587755102042L 537.265625 183.78432653061225L 539.0703125 192.83232653061225L 540.875 187.15902040816326L 542.6796875 192.09371428571427L 544.484375 188.59804081632655L 546.2890625 191.32963265306122L 548.09375 193.68555102040816L 549.8984375 190.69289795918368L 551.703125 194.44963265306123L 553.5078125 196.34073469387755L 555.3125 196.63363265306123L 557.1171875 194.71706122448978L 558.921875 193.208L 560.7265625 193.15706122448978L 562.53125 191.86448979591836L 564.3359375 185.9301224489796L 566.140625 193.16342857142857L 567.9453125 195.0545306122449L 569.75 185.68179591836736L 571.5546875 171.29795918367347L 573.359375 182.00783673469388L 575.1640625 177.1686530612245L 576.96875 174.13779591836735L 578.7734375 179.0915918367347L 580.578125 178.2383673469388L 582.3828125 183.20489795918368L 584.1875 187.99314285714286L 585.9921875 175.72963265306123L 587.796875 187.85942857142857L 589.6015625 188.20326530612243L 591.40625 188.22873469387756L 593.2109375 194.13763265306122L 595.015625 184.93681632653062L 596.8203125 181.19918367346938L 598.625 188.30514285714287L 600.4296875 184.51020408163265L 602.234375 178.8814693877551L 604.0390625 188.96097959183675L 605.84375 190.24081632653062L 607.6484375 195.6530612244898L 609.453125 194.29044897959184L 611.2578125 193.85110204081633L 613.0625 176.35363265306123L 614.8671875 193.8574693877551L 616.671875 195.4684081632653L 618.4765625 194.90808163265308L 620.28125 193.41175510204081L 622.0859375 193.3608163265306L 623.890625 193.3417142857143L 625.6953125 189.52767346938776L 627.5 193.25893877551022L 629.3046875 191.94089795918367L 631.109375 194.7425306122449L 632.9140625 191.67346938775512L 634.71875 190.01159183673468L 636.5234375 190.6865306122449L 638.328125 191.58432653061226L 640.1328125 193.37991836734693L 641.9375 190.31722448979593L 643.7421875 193.5709387755102L 645.546875 190.62285714285713L 647.3515625 191.45061224489797L 649.15625 193.3417142857143L 650.9609375 191.92816326530613L 652.765625 190.59738775510203L 654.5703125 195.4747755102041L 656.375 190.13257142857142L 658.1796875 191.16408163265305L 659.984375 177.87542857142856L 661.7890625 166.05763265306123L 663.59375 176.22628571428572L 665.3984375 176.00979591836733L 667.203125 194.37959183673468L 669.0078125 194.5833469387755L 670.8125 190.90938775510205L 672.6171875 170.9541224489796L 674.421875 175.2393469387755L 676.2265625 182.88016326530612L 678.03125 168.98661224489797L 679.8359375 166.80261224489797L 681.640625 172.3103673469388L 683.4453125 172.70514285714285L 685.25 163.40881632653063L 687.0546875 158.8115918367347L 688.859375 183.85436734693877L 690.6640625 182.58726530612245L 692.46875 180.86808163265306L 694.2734375 190.2981224489796L 696.078125 195.72310204081634L 697.8828125 196.10514285714285L 699.6875 195.4684081632653L 701.4921875 189.5149387755102L 703.296875 191.34873469387756L 705.1015625 199.9701224489796L 706.90625 194.72342857142857L 708.7109375 193.71102040816328L 710.515625 188.90367346938774L 712.3203125 190.90938775510205L 714.125 192.20195918367347L 715.9296875 193.89567346938776L 717.734375 178.2383673469388L 719.5390625 174.9846530612245L 721.34375 195.12457142857141L 723.1484375 197.8943673469388L 724.953125 189.41942857142857L 726.7578125 189.19020408163266L 728.5625 194.16310204081634L 730.3671875 197.01567346938776L 732.171875 195.8568163265306L 733.9765625 191.7244081632653L 735.78125 189.97975510204083L 737.5859375 182.47902040816325L 739.390625 181.8168163265306L 741.1953125 184.58024489795918L 743 191.8517551020408L 744.8046875 193.9402448979592L 746.609375 198.05355102040818L 748.4140625 200.23755102040815L 750.21875 193.62824489795918L 752.0234375 182.87379591836736L 753.828125 186.74514285714287L 755.6328125 186.12114285714284L 757.4375 191.68620408163264L 759.2421875 187.3054693877551L 761.046875 182.6L 762.8515625 186.90432653061225L 764.65625 192.55216326530612L 766.4609375 191.56522448979592L 768.265625 184.0581224489796L 770.0703125 177.85632653061225L 771.875 179.7983673469388L 773.6796875 178.70955102040816L 775.484375 172.08751020408164L 777.2890625 179.84293877551022L 779.09375 190.57191836734694L 780.8984375 172.38677551020407L 782.703125 166.4014693877551L 784.5078125 169.53420408163265L 786.3125 172.41224489795917L 788.1171875 176.88848979591836L 789.921875 169.92897959183674L 791.7265625 155.23314285714287L 793.53125 154.9147755102041L 795.3359375 183.32587755102043L 797.140625 182.6509387755102L 798.9453125 175.23297959183674L 800.75 175.05469387755102L 802.5546875 123.64473469387755L 804.359375 161.24391836734694L 806.1640625 127.7962448979592L 807.96875 160.56897959183675L 809.7734375 179.2953469387755L 811.578125 174.03591836734694L 813.3828125 167.55395918367347L 815.1875 142.69583673469387L 816.9921875 151.64832653061225L 818.796875 170.55934693877552L 820.6015625 179.4035918367347L 822.40625 176.59559183673468L 824.2109375 145.51020408163265L 826.015625 175.25208163265307L 827.8203125 156.72310204081634L 829.625 162.6574693877551L 831.4296875 191.96636734693877L 833.234375 168.03787755102042L 835.0390625 160.07232653061226L 836.84375 150.13289795918368L 838.6484375 170.60391836734692L 840.453125 182.98840816326532L 842.2578125 180.93812244897958L 844.0625 177.66530612244898L 845.8671875 188.92914285714286L 847.671875 173.41828571428573L 849.4765625 176.92669387755103L 851.28125 171.18971428571427L 853.0859375 164.6631836734694L 854.890625 141.27591836734695L 856.6953125 188.6362448979592L 858.5 120.34644897959184L 860.3046875 139.01551020408164L 862.109375 176.50644897959182L 863.9140625 155.80620408163264L 865.71875 145.55477551020408L 867.5234375 186.968L 869.328125 193.8574693877551L 871.1328125 186.09567346938775L 872.9375 193.39902040816327L 874.7421875 187.26089795918367L 876.546875 176.5128163265306L 878.3515625 186.00016326530613L 880.15625 187.81485714285714L 881.9609375 183.1985306122449L 883.765625 182.1097142857143L 885.5703125 186.4458775510204L 887.375 172.74971428571428L 889.1796875 180.5497142857143L 890.984375 184.6502857142857L 892.7890625 170.48930612244897L 894.59375 181.12914285714285L 896.3984375 179.39722448979592L 898.203125 177.83085714285716L 900.0078125 172.55232653061225L 901.8125 190.38089795918367L 903.6171875 158.46775510204083L 905.421875 172.36767346938774L 907.2265625 175.78057142857142L 909.03125 183.09028571428573L 910.8359375 188.4770612244898L 912.640625 187.1462857142857L 914.4453125 179.0661224489796L 916.25 180.34595918367347L 918.0546875 186.03836734693877L 919.859375 184.31281632653062L 921.6640625 189.75053061224492L 923.46875 188.39428571428573L 925.2734375 179.09795918367348L 927.078125 174.40522448979593L 928.8828125 170.19004081632653L 930.6875 173.7621224489796L 932.4921875 173.53926530612245L 934.296875 183.28767346938776L 936.1015625 180.9126530612245L 937.90625 183.73338775510203L 939.7109375 175.61502040816328L 941.515625 183.8734693877551L 943.3203125 183.21763265306123L 945.125 206L 946.9296875 175.51951020408163L 948.734375 137.16261224489796L 950.5390625 187.75755102040816L 952.34375 161.81061224489795L 954.1484375 154.0806530612245L 955.953125 188.43248979591837L 957.7578125 166.72620408163266L 959.5625 172.24032653061224L 961.3671875 193.32261224489795L 963.171875 150.34302040816326L 964.9765625 150.833306122449L 966.78125 51.16522448979592L 968.5859375 116.8444081632653L 970.390625 168.55363265306121L 972.1953125 170.80767346938777L 974 149.20963265306122" stroke-width="2.0" fill="none" />
    
        
        
        <text x="45.0" font-family="-apple-system, system-ui, BlinkMacSystemFont, Roboto" y="50.0" dominant-baseline="middle" text-anchor="end" font-size="12" fill="#24292f">24500.0</text>
        
            
            <path stroke="#74838f" stroke-dasharray="10 6" stroke-width="0.5"  d="M 50.0 50.0 L 974.0 50.0" />
        
    
        
        
        <text x="45.0" font-family="-apple-system, system-ui, BlinkMacSystemFont, Roboto" y="81.2" dominant-baseline="middle" text-anchor="end" font-size="12" fill="#24292f">19600.0</text>
        
            
            
            <path stroke="#74838f" stroke-dasharray="10 6" stroke-width="0.5"  d="M 50.0 81.2 L 974.0 81.2" />
        
    
        
        
        <text x="45.0" font-family="-apple-system, system-ui, BlinkMacSystemFont, Roboto" y="112.4" dominant-baseline="middle" text-anchor="end" font-size="12" fill="#24292f">14700.0</text>
        
            
            
            <path stroke="#74838f" stroke-dasharray="10 6" stroke-width="0.5"  d="M 50.0 112.4 L 974.0 112.4" />
        
    
        
        
        <text x="45.0" font-family="-apple-system, system-ui, BlinkMacSystemFont, Roboto" y="143.6" dominant-baseline="middle" text-anchor="end" font-size="12" fill="#24292f">9800.0</text>
        
            
            
            <path stroke="#74838f" stroke-dasharray="10 6" stroke-width="0.5"  d="M 50.0 143.6 L 974.0 143.6" />
        
    
        
        
        <text x="45.0" font-family="-apple-system, system-ui, BlinkMacSystemFont, Roboto" y="174.8" dominant-baseline="middle" text-anchor="end" font-size="12" fill="#24292f">4900.0</text>
        
            
            
            <path stroke="#74838f" stroke-dasharray="10 6" stroke-width="0.5"  d="M 50.0 174.8 L 974.0 174.8" />
        
    
        
        
        <text x="45.0" font-family="-apple-system, system-ui, BlinkMacSystemFont, Roboto" y="206.0" dominant-baseline="middle" text-anchor="end" font-size="12" fill="#24292f">0.0</text>
        
    
    
        
        <path stroke="#74838f"  stroke-width="2.0"  d="M 78.875 206.0 L 78.875 214.0" />
        <text x="78.875" font-family="-apple-system, system-ui, BlinkMacSystemFont, Roboto" y="216.0" dominant-baseline="hanging" text-anchor="middle" font-size="12" fill="#24292f">Mar 2022</text>
    
        
        <path stroke="#74838f"  stroke-width="2.0"  d="M 134.8203125 206.0 L 134.8203125 214.0" />
        <text x="134.8203125" font-family="-apple-system, system-ui, BlinkMacSystemFont, Roboto" y="216.0" dominant-baseline="hanging" text-anchor="middle" font-size="12" fill="#24292f">Apr 2022</text>
    
        
        <path stroke="#74838f"  stroke-width="2.0"  d="M 188.9609375 206.0 L 188.9609375 214.0" />
        <text x="188.9609375" font-family="-apple-system, system-ui, BlinkMacSystemFont, Roboto" y="216.0" dominant-baseline="hanging" text-anchor="middle" font-size="12" fill="#24292f">May 2022</text>
    
        
        <path stroke="#74838f"  stroke-width="2.0"  d="M 244.90625 206.0 L 244.90625 214.0" />
        <text x="244.90625" font-family="-apple-system, system-ui, BlinkMacSystemFont, Roboto" y="216.0" dominant-baseline="hanging" text-anchor="middle" font-size="12" fill="#24292f">Jun 2022</text>
    
        
        <path stroke="#74838f"  stroke-width="2.0"  d="M 299.046875 206.0 L 299.046875 214.0" />
        <text x="299.046875" font-family="-apple-system, system-ui, BlinkMacSystemFont, Roboto" y="216.0" dominant-baseline="hanging" text-anchor="middle" font-size="12" fill="#24292f">Jul 2022</text>
    
        
        <path stroke="#74838f"  stroke-width="2.0"  d="M 354.9921875 206.0 L 354.9921875 214.0" />
        <text x="354.9921875" font-family="-apple-system, system-ui, BlinkMacSystemFont, Roboto" y="216.0" dominant-baseline="hanging" text-anchor="middle" font-size="12" fill="#24292f">Aug 2022</text>
    
        
        <path stroke="#74838f"  stroke-width="2.0"  d="M 410.9375 206.0 L 410.9375 214.0" />
        <text x="410.9375" font-family="-apple-system, system-ui, BlinkMacSystemFont, Roboto" y="216.0" dominant-baseline="hanging" text-anchor="middle" font-size="12" fill="#24292f">Sep 2022</text>
    
        
        <path stroke="#74838f"  stroke-width="2.0"  d="M 465.078125 206.0 L 465.078125 214.0" />
        <text x="465.078125" font-family="-apple-system, system-ui, BlinkMacSystemFont, Roboto" y="216.0" dominant-baseline="hanging" text-anchor="middle" font-size="12" fill="#24292f">Oct 2022</text>
    
        
        <path stroke="#74838f"  stroke-width="2.0"  d="M 521.0234375 206.0 L 521.0234375 214.0" />
        <text x="521.0234375" font-family="-apple-system, system-ui, BlinkMacSystemFont, Roboto" y="216.0" dominant-baseline="hanging" text-anchor="middle" font-size="12" fill="#24292f">Nov 2022</text>
    
        
        <path stroke="#74838f"  stroke-width="2.0"  d="M 575.1640625 206.0 L 575.1640625 214.0" />
        <text x="575.1640625" font-family="-apple-system, system-ui, BlinkMacSystemFont, Roboto" y="216.0" dominant-baseline="hanging" text-anchor="middle" font-size="12" fill="#24292f">Dec 2022</text>
    
        
        <path stroke="#74838f"  stroke-width="2.0"  d="M 631.109375 206.0 L 631.109375 214.0" />
        <text x="631.109375" font-family="-apple-system, system-ui, BlinkMacSystemFont, Roboto" y="216.0" dominant-baseline="hanging" text-anchor="middle" font-size="12" fill="#24292f">Jan 2023</text>
    
        
        <path stroke="#74838f"  stroke-width="2.0"  d="M 687.0546875 206.0 L 687.0546875 214.0" />
        <text x="687.0546875" font-family="-apple-system, system-ui, BlinkMacSystemFont, Roboto" y="216.0" dominant-baseline="hanging" text-anchor="middle" font-size="12" fill="#24292f">Feb 2023</text>
    
        
        <path stroke="#74838f"  stroke-width="2.0"  d="M 737.5859375 206.0 L 737.5859375 214.0" />
        <text x="737.5859375" font-family="-apple-system, system-ui, BlinkMacSystemFont, Roboto" y="216.0" dominant-baseline="hanging" text-anchor="middle" font-size="12" fill="#24292f">Mar 2023</text>
    
        
        <path stroke="#74838f"  stroke-width="2.0"  d="M 793.53125 206.0 L 793.53125 214.0" />
        <text x="793.53125" font-family="-apple-system, system-ui, BlinkMacSystemFont, Roboto" y="216.0" dominant-baseline="hanging" text-anchor="middle" font-size="12" fill="#24292f">Apr 2023</text>
    
        
        <path stroke="#74838f"  stroke-width="2.0"  d="M 847.671875 206.0 L 847.671875 214.0" />
        <text x="847.671875" font-family="-apple-system, system-ui, BlinkMacSystemFont, Roboto" y="216.0" dominant-baseline="hanging" text-anchor="middle" font-size="12" fill="#24292f">May 2023</text>
    
        
        <path stroke="#74838f"  stroke-width="2.0"  d="M 903.6171875 206.0 L 903.6171875 214.0" />
        <text x="903.6171875" font-family="-apple-system, system-ui, BlinkMacSystemFont, Roboto" y="216.0" dominant-baseline="hanging" text-anchor="middle" font-size="12" fill="#24292f">Jun 2023</text>
    
        
        <path stroke="#74838f"  stroke-width="2.0"  d="M 957.7578125 206.0 L 957.7578125 214.0" />
        <text x="957.7578125" font-family="-apple-system, system-ui, BlinkMacSystemFont, Roboto" y="216.0" dominant-baseline="hanging" text-anchor="middle" font-size="12" fill="#24292f">Jul 2023</text>
    
    <path stroke="#74838f"   stroke-linejoin="round" stroke-width="2.0" d="M 50.0 216.0 L 50.0 206.0 L 974.0 206.0 L 974.0 216.0"  fill="none" />
    <text x="512.0" y="25.0" font-family="-apple-system, system-ui, BlinkMacSystemFont, Roboto" dominant-baseline="middle" text-anchor="middle" font-size="18" fill="#24292f">Total daily suspensions</text>
</svg>
