<?xml version="1.0" standalone="no"?>
<svg width="1024.0" height="256.0"  viewBox="0 0 1024.0 256.0" preserveAspectRatio="xMidYMid meet" xmlns="http://www.w3.org/2000/svg">
    <path stroke="#e74c3c" stroke-linejoin="round" d="M 50.0 161.108 L 50 161.108L 52.52459016393443 193.664L 55.049180327868854 197.576L 57.57377049180328 197.924L 60.09836065573771 203.528L 62.62295081967213 199.94L 65.14754098360656 199.268L 67.67213114754098 191.108L 70.19672131147541 200.972L 72.72131147540983 198.62L 75.24590163934425 200L 77.77049180327869 202.57999999999998L 80.29508196721312 199.208L 82.81967213114754 195.608L 85.34426229508196 202.652L 87.86885245901638 198.716L 90.39344262295083 197.49200000000002L 92.91803278688525 191.42000000000002L 95.44262295081967 196.688L 97.9672131147541 199.46L 100.49180327868852 199.328L 103.01639344262296 198.308L 105.54098360655738 198.164L 108.0655737704918 199.832L 110.59016393442623 194.876L 113.11475409836066 199.904L 115.63934426229508 195.584L 118.1639344262295 200.732L 120.68852459016394 198.416L 123.21311475409837 190.652L 125.73770491803278 196.112L 128.2622950819672 190.82L 130.78688524590166 193.53199999999998L 133.31147540983608 199.688L 135.8360655737705 192.392L 138.36065573770492 197L 140.88524590163934 199.59199999999998L 143.40983606557376 193.54399999999998L 145.9344262295082 195.26L 148.4590163934426 195.428L 150.98360655737704 195.548L 153.5081967213115 196.484L 156.0327868852459 199.424L 158.55737704918033 199.22L 161.08196721311475 195.656L 163.60655737704917 193.952L 166.1311475409836 195.536L 168.65573770491804 198.764L 171.18032786885246 195.428L 173.7049180327869 194L 176.22950819672133 193.688L 178.75409836065572 186.32L 181.27868852459017 197.372L 183.80327868852459 195.96800000000002L 186.327868852459 198.284L 188.85245901639345 194.38400000000001L 191.37704918032787 196.424L 193.9016393442623 196.988L 196.42622950819674 198.368L 198.95081967213116 198.05599999999998L 201.47540983606555 199.61599999999999L 204 191.54L 206.52459016393442 202.124L 209.04918032786884 193.34L 211.5737704918033 204.2L 214.0983606557377 206L 216.62295081967213 206L 219.14754098360658 206L 221.672131147541 206L 224.1967213114754 190.472L 226.72131147540983 159.01999999999998L 229.24590163934425 193.56799999999998L 231.77049180327867 200.228L 234.29508196721312 193.232L 236.81967213114754 196.82L 239.34426229508196 199.772L 241.8688524590164 186.548L 244.39344262295083 197.888L 246.91803278688522 195.596L 249.44262295081967 190.508L 251.9672131147541 194.876L 254.4918032786885 190.4L 257.016393442623 188.756L 259.54098360655735 197.852L 262.0655737704918 199.772L 264.59016393442624 191.936L 267.11475409836066 191.864L 269.6393442622951 199.316L 272.1639344262295 194.72L 274.6885245901639 192.608L 277.21311475409834 194.9L 279.7377049180328 199.7L 282.2622950819672 189.224L 284.78688524590166 198.428L 287.3114754098361 196.136L 289.8360655737705 195.296L 292.3606557377049 196.268L 294.88524590163934 193.184L 297.4098360655738 197.204L 299.9344262295082 193.856L 302.45901639344265 197.096L 304.983606557377 178.16L 307.50819672131144 194.372L 310.03278688524586 195.92000000000002L 312.55737704918033 195.11599999999999L 315.08196721311475 196.688L 317.60655737704917 197.49200000000002L 320.1311475409836 197.696L 322.655737704918 186.848L 325.18032786885243 192.644L 327.7049180327869 199.61599999999999L 330.2295081967213 193.052L 332.75409836065575 191.072L 335.27868852459017 195.44L 337.8032786885246 196.184L 340.327868852459 196.46L 342.8524590163935 197.312L 345.3770491803279 193.076L 347.9016393442623 206L 350.4262295081967 186.44L 352.9508196721311 186.632L 355.4754098360656 191.276L 358 180.93200000000002L 360.5245901639344 201.704L 363.04918032786884 185.744L 365.57377049180326 196.028L 368.0983606557377 189.464L 370.62295081967216 194.228L 373.1475409836066 195.632L 375.672131147541 196.844L 378.1967213114754 186.332L 380.72131147540983 197.99599999999998L 383.24590163934425 188.924L 385.77049180327873 189.128L 388.29508196721315 196.748L 390.81967213114757 182.45600000000002L 393.344262295082 184.16L 395.8688524590164 206L 398.3934426229508 206L 400.91803278688525 206L 403.44262295081967 160.16L 405.9672131147541 198.536L 408.4918032786885 196.60399999999998L 411.0163934426229 195.668L 413.54098360655735 192.8L 416.0655737704918 196.964L 418.59016393442624 197.828L 421.11475409836066 200.84L 423.6393442622951 170.312L 426.1639344262295 189.236L 428.6885245901639 177.428L 431.2131147540984 191.564L 433.7377049180328 178.784L 436.26229508196724 176.372L 438.78688524590166 181.7L 441.3114754098361 187.472L 443.83606557377044 192.88400000000001L 446.3606557377049 189.38L 448.88524590163934 187.772L 451.40983606557376 189.404L 453.9344262295082 187.532L 456.4590163934426 193.59199999999998L 458.983606557377 185.036L 461.5081967213115 171.332L 464.0327868852459 180.14L 466.55737704918033 172.316L 469.08196721311475 193.028L 471.60655737704917 191.996L 474.1311475409836 193.052L 476.65573770491807 194.84L 479.1803278688525 193.53199999999998L 481.7049180327869 194.024L 484.2295081967213 189.272L 486.75409836065575 195.188L 489.27868852459017 196.256L 491.8032786885246 192.62L 494.327868852459 190.844L 496.8524590163934 200.984L 499.37704918032784 184.796L 501.90163934426226 190.88L 504.42622950819674 194.42000000000002L 506.95081967213116 189.86L 509.4754098360656 195.86L 512 191.984L 514.5245901639344 193.1L 517.0491803278688 186.464L 519.5737704918033 190.46L 522.0983606557377 182.156L 524.6229508196722 187.136L 527.1475409836066 191.528L 529.672131147541 184.1L 532.1967213114754 189.14L 534.7213114754098 185.204L 537.2459016393443 185.468L 539.7704918032787 176.816L 542.2950819672132 189.04399999999998L 544.8196721311476 191.048L 547.344262295082 188.756L 549.8688524590164 187.592L 552.3934426229509 191.39600000000002L 554.9180327868853 187.796L 557.4426229508197 188.228L 559.967213114754 190.268L 562.4918032786885 194.372L 565.0163934426229 194.72L 567.5409836065573 201.308L 570.0655737704917 192.752L 572.5901639344262 181.148L 575.1147540983607 181.748L 577.639344262295 181.208L 580.1639344262295 191.3L 582.6885245901639 186.88400000000001L 585.2131147540983 181.376L 587.7377049180328 186.5L 590.2622950819672 188.44400000000002L 592.7868852459017 179.66L 595.311475409836 183.09199999999998L 597.8360655737705 173.564L 600.3606557377049 183.836L 602.8852459016393 171.668L 605.4098360655738 148.148L 607.9344262295082 178.004L 610.4590163934427 141.86L 612.983606557377 186.128L 615.5081967213115 188.54000000000002L 618.032786885246 187.748L 620.5573770491803 193.256L 623.0819672131148 186.596L 625.6065573770492 185.42000000000002L 628.1311475409836 186.872L 630.655737704918 185.372L 633.1803278688525 192.824L 635.704918032787 188.552L 638.2295081967213 189.32L 640.7540983606558 186.632L 643.2786885245902 185.768L 645.8032786885246 188.744L 648.3278688524591 187.34L 650.8524590163934 192.488L 653.3770491803278 187.028L 655.9016393442622 185.468L 658.4262295081967 181.928L 660.9508196721312 183.8L 663.4754098360655 180.296L 666 185.516L 668.5245901639344 194L 671.0491803278688 190.328L 673.5737704918032 186.584L 676.0983606557377 168.32L 678.6229508196722 117.5L 681.1475409836065 189.10399999999998L 683.672131147541 187.844L 686.1967213114754 190.28L 688.7213114754098 192.32L 691.2459016393443 189.2L 693.7704918032787 182.288L 696.2950819672132 188.49200000000002L 698.8196721311475 178.916L 701.344262295082 53.432000000000016L 703.8688524590164 162.656L 706.3934426229508 184.52L 708.9180327868853 182.708L 711.4426229508197 183.68L 713.9672131147541 184.196L 716.4918032786885 179.084L 719.016393442623 190.16L 721.5409836065575 180.476L 724.0655737704918 160.916L 726.5901639344263 121.196L 729.1147540983607 151.50799999999998L 731.6393442622951 164.132L 734.1639344262295 181.184L 736.688524590164 170.49200000000002L 739.2131147540985 179.792L 741.7377049180328 173.204L 744.2622950819672 178.352L 746.7868852459015 182.792L 749.311475409836 177.152L 751.8360655737705 184.232L 754.3606557377049 187.796L 756.8852459016393 188.348L 759.4098360655737 184.736L 761.9344262295082 181.892L 764.4590163934425 181.796L 766.983606557377 179.36L 769.5081967213115 168.176L 772.0327868852459 181.808L 774.5573770491803 185.372L 777.0819672131147 167.708L 779.6065573770492 140.6L 782.1311475409836 160.784L 784.655737704918 151.664L 787.1803278688525 145.952L 789.7049180327868 155.288L 792.2295081967213 153.68L 794.7540983606557 163.04L 797.2786885245902 172.064L 799.8032786885246 148.952L 802.327868852459 171.812L 804.8524590163935 172.46L 807.3770491803278 172.508L 809.9016393442623 183.644L 812.4262295081968 166.304L 814.9508196721312 159.26L 817.4754098360656 172.652L 820 165.5L 822.5245901639345 154.892L 825.0491803278688 173.888L 827.5737704918033 176.3L 830.0983606557378 186.5L 832.6229508196722 183.932L 835.1475409836066 183.10399999999998L 837.6721311475409 150.128L 840.1967213114754 183.11599999999999L 842.7213114754098 186.152L 845.2459016393442 185.096L 847.7704918032787 182.276L 850.295081967213 182.18L 852.8196721311475 182.144L 855.344262295082 174.956L 857.8688524590164 181.988L 860.3934426229508 179.504L 862.9180327868852 184.784L 865.4426229508197 179L 867.967213114754 175.868L 870.4918032786885 177.14L 873.016393442623 178.832L 875.5409836065573 182.216L 878.0655737704918 176.444L 880.5901639344262 182.576L 883.1147540983607 177.02L 885.6393442622951 178.58L 888.1639344262295 182.144L 890.688524590164 179.48L 893.2131147540983 176.972L 895.7377049180328 186.164L 898.2622950819672 176.096L 900.7868852459017 178.04L 903.3114754098361 152.996L 905.8360655737705 130.724L 908.360655737705 149.888L 910.8852459016393 149.48L 913.4098360655738 184.1L 915.9344262295083 184.484L 918.4590163934427 177.56L 920.9836065573771 139.952L 923.5081967213115 148.028L 926.032786885246 162.428L 928.5573770491803 136.244L 931.0819672131147 132.128L 933.6065573770492 142.508L 936.1311475409835 143.252L 938.655737704918 125.732L 941.1803278688524 117.06800000000001L 943.7049180327868 164.264L 946.2295081967213 161.876L 948.7540983606557 158.636L 951.2786885245902 176.40800000000002L 953.8032786885245 186.632L 956.327868852459 187.352L 958.8524590163935 186.152L 961.3770491803278 174.932L 963.9016393442623 178.388L 966.4262295081967 194.636L 968.9508196721312 184.748L 971.4754098360655 182.84L 974 187.61599999999999" stroke-width="2.0" fill="none" />
    
        
        
        <text x="45.0" font-family="-apple-system, system-ui, BlinkMacSystemFont, Roboto" y="50.0" dominant-baseline="middle" text-anchor="end" font-size="12" fill="#24292f">13000.0</text>
        
            
            <path stroke="#74838f" stroke-dasharray="10 6" stroke-width="0.5"  d="M 50.0 50.0 L 974.0 50.0" />
        
    
        
        
        <text x="45.0" font-family="-apple-system, system-ui, BlinkMacSystemFont, Roboto" y="81.2" dominant-baseline="middle" text-anchor="end" font-size="12" fill="#24292f">10400.0</text>
        
            
            
            <path stroke="#74838f" stroke-dasharray="10 6" stroke-width="0.5"  d="M 50.0 81.2 L 974.0 81.2" />
        
    
        
        
        <text x="45.0" font-family="-apple-system, system-ui, BlinkMacSystemFont, Roboto" y="112.4" dominant-baseline="middle" text-anchor="end" font-size="12" fill="#24292f">7800.0</text>
        
            
            
            <path stroke="#74838f" stroke-dasharray="10 6" stroke-width="0.5"  d="M 50.0 112.4 L 974.0 112.4" />
        
    
        
        
        <text x="45.0" font-family="-apple-system, system-ui, BlinkMacSystemFont, Roboto" y="143.6" dominant-baseline="middle" text-anchor="end" font-size="12" fill="#24292f">5200.0</text>
        
            
            
            <path stroke="#74838f" stroke-dasharray="10 6" stroke-width="0.5"  d="M 50.0 143.6 L 974.0 143.6" />
        
    
        
        
        <text x="45.0" font-family="-apple-system, system-ui, BlinkMacSystemFont, Roboto" y="174.8" dominant-baseline="middle" text-anchor="end" font-size="12" fill="#24292f">2600.0</text>
        
            
            
            <path stroke="#74838f" stroke-dasharray="10 6" stroke-width="0.5"  d="M 50.0 174.8 L 974.0 174.8" />
        
    
        
        
        <text x="45.0" font-family="-apple-system, system-ui, BlinkMacSystemFont, Roboto" y="206.0" dominant-baseline="middle" text-anchor="end" font-size="12" fill="#24292f">0.0</text>
        
    
    
        
        <path stroke="#74838f"  stroke-width="2.0"  d="M 90.39344262295083 206.0 L 90.39344262295083 214.0" />
        <text x="90.39344262295083" font-family="-apple-system, system-ui, BlinkMacSystemFont, Roboto" y="216.0" dominant-baseline="hanging" text-anchor="middle" font-size="12" fill="#24292f">Mar 2022</text>
    
        
        <path stroke="#74838f"  stroke-width="2.0"  d="M 168.65573770491804 206.0 L 168.65573770491804 214.0" />
        <text x="168.65573770491804" font-family="-apple-system, system-ui, BlinkMacSystemFont, Roboto" y="216.0" dominant-baseline="hanging" text-anchor="middle" font-size="12" fill="#24292f">Apr 2022</text>
    
        
        <path stroke="#74838f"  stroke-width="2.0"  d="M 244.39344262295083 206.0 L 244.39344262295083 214.0" />
        <text x="244.39344262295083" font-family="-apple-system, system-ui, BlinkMacSystemFont, Roboto" y="216.0" dominant-baseline="hanging" text-anchor="middle" font-size="12" fill="#24292f">May 2022</text>
    
        
        <path stroke="#74838f"  stroke-width="2.0"  d="M 322.655737704918 206.0 L 322.655737704918 214.0" />
        <text x="322.655737704918" font-family="-apple-system, system-ui, BlinkMacSystemFont, Roboto" y="216.0" dominant-baseline="hanging" text-anchor="middle" font-size="12" fill="#24292f">Jun 2022</text>
    
        
        <path stroke="#74838f"  stroke-width="2.0"  d="M 398.3934426229508 206.0 L 398.3934426229508 214.0" />
        <text x="398.3934426229508" font-family="-apple-system, system-ui, BlinkMacSystemFont, Roboto" y="216.0" dominant-baseline="hanging" text-anchor="middle" font-size="12" fill="#24292f">Jul 2022</text>
    
        
        <path stroke="#74838f"  stroke-width="2.0"  d="M 476.65573770491807 206.0 L 476.65573770491807 214.0" />
        <text x="476.65573770491807" font-family="-apple-system, system-ui, BlinkMacSystemFont, Roboto" y="216.0" dominant-baseline="hanging" text-anchor="middle" font-size="12" fill="#24292f">Aug 2022</text>
    
        
        <path stroke="#74838f"  stroke-width="2.0"  d="M 554.9180327868853 206.0 L 554.9180327868853 214.0" />
        <text x="554.9180327868853" font-family="-apple-system, system-ui, BlinkMacSystemFont, Roboto" y="216.0" dominant-baseline="hanging" text-anchor="middle" font-size="12" fill="#24292f">Sep 2022</text>
    
        
        <path stroke="#74838f"  stroke-width="2.0"  d="M 630.655737704918 206.0 L 630.655737704918 214.0" />
        <text x="630.655737704918" font-family="-apple-system, system-ui, BlinkMacSystemFont, Roboto" y="216.0" dominant-baseline="hanging" text-anchor="middle" font-size="12" fill="#24292f">Oct 2022</text>
    
        
        <path stroke="#74838f"  stroke-width="2.0"  d="M 708.9180327868853 206.0 L 708.9180327868853 214.0" />
        <text x="708.9180327868853" font-family="-apple-system, system-ui, BlinkMacSystemFont, Roboto" y="216.0" dominant-baseline="hanging" text-anchor="middle" font-size="12" fill="#24292f">Nov 2022</text>
    
        
        <path stroke="#74838f"  stroke-width="2.0"  d="M 784.655737704918 206.0 L 784.655737704918 214.0" />
        <text x="784.655737704918" font-family="-apple-system, system-ui, BlinkMacSystemFont, Roboto" y="216.0" dominant-baseline="hanging" text-anchor="middle" font-size="12" fill="#24292f">Dec 2022</text>
    
        
        <path stroke="#74838f"  stroke-width="2.0"  d="M 862.9180327868852 206.0 L 862.9180327868852 214.0" />
        <text x="862.9180327868852" font-family="-apple-system, system-ui, BlinkMacSystemFont, Roboto" y="216.0" dominant-baseline="hanging" text-anchor="middle" font-size="12" fill="#24292f">Jan 2023</text>
    
        
        <path stroke="#74838f"  stroke-width="2.0"  d="M 941.1803278688524 206.0 L 941.1803278688524 214.0" />
        <text x="941.1803278688524" font-family="-apple-system, system-ui, BlinkMacSystemFont, Roboto" y="216.0" dominant-baseline="hanging" text-anchor="middle" font-size="12" fill="#24292f">Feb 2023</text>
    
    <path stroke="#74838f"   stroke-linejoin="round" stroke-width="2.0" d="M 50.0 216.0 L 50.0 206.0 L 974.0 206.0 L 974.0 216.0"  fill="none" />
    <text x="512.0" y="25.0" font-family="-apple-system, system-ui, BlinkMacSystemFont, Roboto" dominant-baseline="middle" text-anchor="middle" font-size="18" fill="#24292f">Total daily suspensions</text>
</svg>
