<?xml version="1.0" standalone="no"?>
<svg width="1024.0" height="256.0"  viewBox="0 0 1024.0 256.0" preserveAspectRatio="xMidYMid meet" xmlns="http://www.w3.org/2000/svg">
    <path stroke="#e74c3c" stroke-linejoin="round" d="M 50.0 162.77066666666667 L 50 162.77066666666667L 52.03973509933775 194.12088888888889L 54.079470198675494 197.888L 56.11920529801324 198.2231111111111L 58.158940397350996 203.61955555555556L 60.19867549668874 200.16444444444443L 62.23841059602649 199.51733333333334L 64.27814569536424 191.65955555555556L 66.31788079470199 201.1582222222222L 68.35761589403974 198.89333333333332L 70.39735099337749 200.22222222222223L 72.43708609271523 202.70666666666665L 74.47682119205298 199.45955555555554L 76.51655629139073 195.9928888888889L 78.55629139072848 202.776L 80.59602649006622 198.98577777777777L 82.63576158940398 197.8071111111111L 84.67549668874172 191.96L 86.71523178807948 197.0328888888889L 88.75496688741723 199.70222222222222L 90.79470198675497 199.5751111111111L 92.83443708609272 198.5928888888889L 94.87417218543047 198.45422222222223L 96.91390728476821 200.06044444444444L 98.95364238410596 195.288L 100.99337748344371 200.12977777777778L 103.03311258278146 195.96977777777778L 105.0728476821192 200.92711111111112L 107.11258278145695 198.6968888888889L 109.1523178807947 191.22044444444444L 111.19205298013244 196.47822222222223L 113.23178807947019 191.38222222222223L 115.27152317880795 193.99377777777778L 117.31125827814569 199.92177777777778L 119.35099337748343 192.89600000000002L 121.3907284768212 197.33333333333334L 123.43046357615894 199.82933333333332L 125.47019867549669 194.00533333333334L 127.50993377483444 195.65777777777777L 129.5496688741722 195.81955555555555L 131.58940397350995 195.9351111111111L 133.6291390728477 196.83644444444445L 135.66887417218544 199.66755555555557L 137.7086092715232 199.4711111111111L 139.74834437086093 196.0391111111111L 141.78807947019868 194.39822222222222L 143.82781456953643 195.92355555555554L 145.86754966887418 199.03199999999998L 147.90728476821192 195.81955555555555L 149.94701986754967 194.44444444444446L 151.98675496688742 194.144L 154.02649006622516 187.04888888888888L 156.0662251655629 197.69155555555557L 158.10596026490066 196.33955555555556L 160.1456953642384 198.56977777777777L 162.18543046357615 194.8142222222222L 164.2251655629139 196.77866666666665L 166.26490066225165 197.32177777777778L 168.3046357615894 198.65066666666667L 170.34437086092714 198.35022222222221L 172.3841059602649 199.85244444444444L 174.42384105960264 192.07555555555555L 176.46357615894038 202.26755555555556L 178.50331125827813 193.80888888888887L 180.5430463576159 204.26666666666665L 182.58278145695365 206L 184.62251655629137 206L 186.66225165562915 206L 188.70198675496687 206L 190.74172185430464 191.04711111111112L 192.7814569536424 160.76L 194.82119205298014 194.02844444444446L 196.86092715231788 200.4417777777778L 198.90066225165563 193.7048888888889L 200.94039735099338 197.16L 202.98013245033113 200.00266666666667L 205.01986754966887 187.26844444444444L 207.05960264900662 198.18844444444443L 209.09933774834437 195.98133333333334L 211.13907284768212 191.08177777777777L 213.1788079470199 195.288L 215.2185430463576 190.97777777777776L 217.25827814569539 189.39466666666667L 219.2980132450331 198.15377777777778L 221.33774834437085 200.00266666666667L 223.3774834437086 192.4568888888889L 225.41721854304635 192.38755555555556L 227.45695364238412 199.56355555555555L 229.49668874172184 195.13777777777779L 231.53642384105962 193.10399999999998L 233.57615894039733 195.3111111111111L 235.6158940397351 199.93333333333334L 237.65562913907286 189.84533333333331L 239.69536423841058 198.70844444444444L 241.73509933774835 196.50133333333332L 243.77483443708607 195.69244444444445L 245.81456953642385 196.62844444444445L 247.8543046357616 193.65866666666668L 249.89403973509934 197.52977777777778L 251.9337748344371 194.3057777777778L 253.97350993377484 197.4257777777778L 256.0132450331126 179.19111111111113L 258.05298013245033 194.80266666666665L 260.0927152317881 196.29333333333335L 262.1324503311258 195.5191111111111L 264.17218543046357 197.0328888888889L 266.2119205298013 197.8071111111111L 268.2516556291391 198.00355555555555L 270.2913907284768 187.55733333333333L 272.3311258278146 193.13866666666667L 274.3708609271523 199.85244444444444L 276.41059602649005 193.53155555555554L 278.4503311258278 191.6248888888889L 280.49006622516555 195.8311111111111L 282.5298013245033 196.54755555555556L 284.5695364238411 196.81333333333333L 286.6092715231788 197.63377777777777L 288.64900662251654 193.55466666666666L 290.6887417218543 206L 292.7284768211921 187.16444444444446L 294.7682119205298 187.34933333333333L 296.8079470198675 191.8213333333333L 298.8476821192053 181.86044444444445L 300.8874172185431 201.8631111111111L 302.92715231788077 186.49422222222222L 304.9668874172186 196.39733333333334L 307.00662251655626 190.07644444444443L 309.046357615894 194.664L 311.0860927152318 196.016L 313.12582781456956 197.18311111111112L 315.1655629139073 187.06044444444444L 317.205298013245 198.29244444444444L 319.24503311258275 189.55644444444445L 321.28476821192055 189.7528888888889L 323.3245033112583 197.09066666666666L 325.36423841059604 183.328L 327.40397350993373 184.9688888888889L 329.44370860927154 206L 331.4834437086093 206L 333.52317880794703 206L 335.5629139072848 161.85777777777778L 337.60264900662247 198.81244444444445L 339.6423841059603 196.952L 341.682119205298 196.05066666666667L 343.72185430463577 193.2888888888889L 345.7615894039735 197.29866666666666L 347.80132450331126 198.13066666666668L 349.841059602649 201.0311111111111L 351.88079470198676 171.63377777777777L 353.9205298013245 189.85688888888888L 355.96026490066225 178.4862222222222L 358 192.09866666666667L 360.03973509933775 179.792L 362.0794701986755 177.46933333333334L 364.11920529801324 182.6L 366.15894039735105 188.1582222222222L 368.19867549668874 193.36977777777778L 370.2384105960265 189.99555555555554L 372.27814569536423 188.4471111111111L 374.317880794702 190.01866666666666L 376.3576158940398 188.216L 378.3973509933775 194.05155555555555L 380.4370860927152 185.81244444444445L 382.47682119205297 172.61599999999999L 384.51655629139077 181.09777777777776L 386.55629139072846 173.56355555555555L 388.5960264900662 193.50844444444445L 390.63576158940396 192.51466666666667L 392.6754966887417 193.53155555555554L 394.7152317880795 195.25333333333333L 396.7549668874172 193.99377777777778L 398.79470198675494 194.46755555555555L 400.8344370860927 189.89155555555556L 402.8741721854305 195.58844444444446L 404.91390728476824 196.6168888888889L 406.95364238410593 193.11555555555555L 408.9933774834437 191.40533333333332L 411.0331125827814 201.16977777777777L 413.07284768211923 185.58133333333333L 415.112582781457 191.44L 417.15231788079467 194.8488888888889L 419.1920529801324 190.45777777777778L 421.2317880794702 196.23555555555555L 423.27152317880797 192.5031111111111L 425.3112582781457 193.57777777777778L 427.3509933774834 187.18755555555555L 429.39072847682115 191.03555555555556L 431.43046357615896 183.0391111111111L 433.4701986754967 187.83466666666666L 435.50993377483445 192.064L 437.54966887417214 184.9111111111111L 439.58940397350995 189.76444444444445L 441.6291390728477 185.97422222222224L 443.66887417218544 186.22844444444445L 445.7086092715232 177.8968888888889L 447.74834437086093 189.672L 449.7880794701987 191.60177777777778L 451.82781456953643 189.39466666666667L 453.8675496688742 188.27377777777778L 455.9072847682119 191.9368888888889L 457.94701986754967 188.47022222222222L 459.9867549668874 188.88622222222222L 462.02649006622516 190.85066666666665L 464.0662251655629 194.80266666666665L 466.10596026490066 195.13777777777779L 468.1456953642384 201.48177777777778L 470.18543046357615 193.24266666666665L 472.2251655629139 182.06844444444445L 474.26490066225165 182.64622222222224L 476.30463576158945 182.12622222222222L 478.34437086092714 191.84444444444443L 480.3841059602649 187.592L 482.42384105960264 182.288L 484.4635761589404 187.22222222222223L 486.5033112582782 189.09422222222221L 488.5430463576159 180.63555555555556L 490.5827814569536 183.94044444444444L 492.6225165562914 174.76533333333333L 494.6622516556292 184.6568888888889L 496.7019867549669 172.93955555555556L 498.7417218543046 150.29066666666665L 500.78145695364236 179.0408888888889L 502.8211920529801 144.23555555555555L 504.8609271523179 186.864L 506.90066225165566 189.18666666666667L 508.94039735099335 188.424L 510.9801324503311 193.728L 513.0198675496689 187.31466666666665L 515.0596026490066 186.1822222222222L 517.0993377483444 187.58044444444445L 519.1390728476822 186.136L 521.1788079470199 193.312L 523.2185430463576 189.19822222222223L 525.2582781456954 189.9377777777778L 527.2980132450331 187.34933333333333L 529.3377483443708 186.51733333333334L 531.3774834437086 189.3831111111111L 533.4172185430464 188.0311111111111L 535.4569536423842 192.98844444444444L 537.4966887417219 187.73066666666668L 539.5364238410596 186.22844444444445L 541.5761589403974 182.81955555555555L 543.615894039735 184.6222222222222L 545.6556291390727 181.248L 547.6953642384105 186.27466666666666L 549.7350993377484 194.44444444444446L 551.7748344370862 190.90844444444446L 553.8145695364238 187.30311111111112L 555.8543046357615 169.71555555555557L 557.8940397350993 120.77777777777779L 559.9337748344371 189.72977777777777L 561.973509933775 188.51644444444446L 564.0132450331125 190.86222222222221L 566.0529801324503 192.82666666666665L 568.092715231788 189.82222222222222L 570.1324503311258 183.16622222222222L 572.1721854304636 189.14044444444443L 574.2119205298013 179.9191111111111L 576.2516556291391 59.082666666666654L 578.2913907284768 164.26133333333334L 580.3311258278146 185.31555555555556L 582.3708609271523 183.57066666666668L 584.41059602649 184.50666666666666L 586.4503311258278 185.00355555555555L 588.4900662251655 180.0808888888889L 590.5298013245033 190.74666666666667L 592.5695364238411 181.42133333333334L 594.6092715231788 162.58577777777776L 596.6490066225166 124.3368888888889L 598.6887417218543 153.52622222222223L 600.7284768211921 165.68266666666668L 602.7682119205298 182.1031111111111L 604.8079470198675 171.8071111111111L 606.8476821192053 180.76266666666666L 608.8874172185431 174.41866666666667L 610.9271523178808 179.376L 612.9668874172186 183.65155555555555L 615.0066225165563 178.22044444444444L 617.0463576158941 185.03822222222223L 619.0860927152319 188.47022222222222L 621.1258278145696 189.00177777777776L 623.1655629139073 185.52355555555556L 625.2052980132449 182.7848888888889L 627.2450331125827 182.69244444444445L 629.2847682119206 180.34666666666666L 631.3245033112582 169.5768888888889L 633.364238410596 182.704L 635.4039735099337 186.136L 637.4437086092715 169.12622222222222L 639.4834437086093 143.0222222222222L 641.523178807947 162.45866666666666L 643.5629139072847 153.67644444444443L 645.6026490066225 148.176L 647.6423841059602 157.16622222222222L 649.682119205298 155.61777777777777L 651.7218543046357 164.63111111111112L 653.7615894039735 173.32088888888887L 655.8013245033113 151.0648888888889L 657.841059602649 173.07822222222222L 659.8807947019868 173.70222222222222L 661.9205298013245 173.74844444444443L 663.9602649006622 184.472L 666 167.77422222222222L 668.0397350993377 160.9911111111111L 670.0794701986755 173.8871111111111L 672.1192052980133 167L 674.158940397351 156.78488888888887L 676.1986754966888 175.07733333333334L 678.2384105960265 177.4L 680.2781456953643 187.22222222222223L 682.3178807947021 184.74933333333334L 684.3576158940397 183.952L 686.3973509933775 152.19733333333335L 688.4370860927152 183.96355555555556L 690.476821192053 186.8871111111111L 692.5165562913908 185.87022222222222L 694.5562913907285 183.15466666666666L 696.5960264900663 183.06222222222223L 698.635761589404 183.02755555555555L 700.6754966887418 176.10577777777777L 702.7152317880796 182.87733333333333L 704.7549668874171 180.48533333333333L 706.794701986755 185.56977777777777L 708.8344370860927 180L 710.8741721854304 176.984L 712.9139072847682 178.20888888888888L 714.9536423841059 179.8382222222222L 716.9933774834437 183.09688888888888L 719.0331125827815 177.53866666666667L 721.0728476821192 183.44355555555555L 723.1125827814569 178.09333333333333L 725.1523178807946 179.59555555555556L 727.1920529801324 183.02755555555555L 729.2317880794702 180.4622222222222L 731.2715231788079 178.04711111111112L 733.3112582781457 186.89866666666666L 735.3509933774834 177.20355555555557L 737.3907284768212 179.07555555555555L 739.430463576159 154.9591111111111L 741.4701986754967 133.512L 743.5099337748344 151.96622222222223L 745.5496688741722 151.57333333333332L 747.5894039735099 184.9111111111111L 749.6291390728477 185.28088888888888L 751.6688741721854 178.61333333333334L 753.7086092715232 142.39822222222222L 755.748344370861 150.1751111111111L 757.7880794701987 164.04177777777778L 759.8278145695365 138.82755555555556L 761.8675496688742 134.864L 763.9072847682119 144.85955555555557L 765.9470198675497 145.57600000000002L 767.9867549668874 128.7048888888889L 770.0264900662252 120.36177777777777L 772.0662251655629 165.80977777777778L 774.1059602649007 163.51022222222224L 776.1456953642385 160.39022222222223L 778.1854304635762 177.504L 780.225165562914 187.34933333333333L 782.2649006622516 188.04266666666666L 784.3046357615893 186.8871111111111L 786.3443708609271 176.08266666666668L 788.3841059602648 179.41066666666666L 790.4238410596026 195.0568888888889L 792.4635761589404 185.53511111111112L 794.5033112582781 183.6977777777778L 796.5430463576159 174.97333333333333L 798.5827814569536 178.61333333333334L 800.6225165562914 180.9591111111111L 802.6622516556292 184.0328888888889L 804.7019867549668 155.61777777777777L 806.7417218543046 149.7128888888889L 808.7814569536423 186.2631111111111L 810.8211920529801 191.28977777777777L 812.8609271523179 175.90933333333334L 814.9006622516556 175.49333333333334L 816.9403973509934 184.51822222222222L 818.9801324503312 189.69511111111112L 821.0198675496689 187.592L 823.0596026490067 180.09244444444445L 825.0993377483443 176.92622222222224L 827.1390728476821 163.31377777777777L 829.1788079470199 162.112L 831.2185430463576 167.1271111111111L 833.2582781456954 180.32355555555554L 835.2980132450331 184.11377777777778L 837.3377483443709 191.57866666666666L 839.3774834437087 195.54222222222222L 841.4172185430464 183.54755555555556L 843.4569536423841 164.03022222222222L 845.4966887417219 171.05599999999998L 847.5364238410596 169.92355555555557L 849.5761589403974 180.02311111111112L 851.615894039735 172.07288888888888L 853.6556291390729 163.53333333333333L 855.6953642384107 171.34488888888887L 857.7350993377484 181.59466666666668L 859.7748344370862 179.80355555555556L 861.8145695364238 166.17955555555557L 863.8543046357615 154.92444444444445L 865.8940397350993 158.4488888888889L 867.933774834437 156.4728888888889L 869.9735099337748 144.4551111111111L 872.0132450331125 158.52977777777778L 874.0529801324503 178.00088888888888L 876.0927152317881 144.99822222222224L 878.1324503311258 134.136L 880.1721854304636 139.8213333333333L 882.2119205298013 145.04444444444445L 884.251655629139 153.168L 886.2913907284768 140.53777777777776L 888.3311258278145 113.86755555555555L 890.3708609271523 113.28977777777777L 892.4105960264901 164.85066666666665L 894.4503311258278 163.62577777777778L 896.4900662251656 150.16355555555555L 898.5298013245033 149.84L 900.5695364238411 56.54044444444443L 902.6092715231789 124.776L 904.6490066225165 64.07466666666667L 906.6887417218543 123.55111111111111L 908.728476821192 157.536L 910.7682119205298 147.9911111111111L 912.8079470198676 136.22755555555557L 914.8476821192053 91.11466666666666L 916.8874172185431 107.36177777777779L 918.9271523178808 141.68177777777777L 920.9668874172186 157.73244444444444L 923.0066225165564 152.63644444444444L 925.046357615894 96.22222222222221L 927.0860927152318 150.19822222222223L 929.1258278145696 116.57155555555556L 931.1655629139073 127.34133333333332L 933.205298013245 180.53155555555554L 935.2450331125827 137.10577777777777L 937.2847682119206 122.64977777777779L 939.3245033112584 104.61155555555555L 941.364238410596 141.76266666666666L 943.4039735099338 164.23822222222222L 945.4437086092714 160.51733333333334L 947.4834437086092 154.57777777777778L 949.523178807947 175.01955555555554L 951.5629139072847 146.87022222222222L 953.6026490066225 153.23733333333334L 955.6423841059602 142.82577777777777L 957.682119205298 130.98133333333334L 959.7218543046358 88.53777777777778L 961.7615894039735 174.488L 963.8013245033113 50.55466666666666L 965.841059602649 84.43555555555557L 967.8807947019867 152.47466666666668L 969.9205298013245 114.90755555555555L 971.9602649006622 96.30311111111112L 974 188.5742222222222" stroke-width="2.0" fill="none" />
    
        
        
        <text x="45.0" font-family="-apple-system, system-ui, BlinkMacSystemFont, Roboto" y="50.0" dominant-baseline="middle" text-anchor="end" font-size="12" fill="#24292f">13500.0</text>
        
            
            <path stroke="#74838f" stroke-dasharray="10 6" stroke-width="0.5"  d="M 50.0 50.0 L 974.0 50.0" />
        
    
        
        
        <text x="45.0" font-family="-apple-system, system-ui, BlinkMacSystemFont, Roboto" y="81.2" dominant-baseline="middle" text-anchor="end" font-size="12" fill="#24292f">10800.0</text>
        
            
            
            <path stroke="#74838f" stroke-dasharray="10 6" stroke-width="0.5"  d="M 50.0 81.2 L 974.0 81.2" />
        
    
        
        
        <text x="45.0" font-family="-apple-system, system-ui, BlinkMacSystemFont, Roboto" y="112.4" dominant-baseline="middle" text-anchor="end" font-size="12" fill="#24292f">8100.0</text>
        
            
            
            <path stroke="#74838f" stroke-dasharray="10 6" stroke-width="0.5"  d="M 50.0 112.4 L 974.0 112.4" />
        
    
        
        
        <text x="45.0" font-family="-apple-system, system-ui, BlinkMacSystemFont, Roboto" y="143.6" dominant-baseline="middle" text-anchor="end" font-size="12" fill="#24292f">5400.0</text>
        
            
            
            <path stroke="#74838f" stroke-dasharray="10 6" stroke-width="0.5"  d="M 50.0 143.6 L 974.0 143.6" />
        
    
        
        
        <text x="45.0" font-family="-apple-system, system-ui, BlinkMacSystemFont, Roboto" y="174.8" dominant-baseline="middle" text-anchor="end" font-size="12" fill="#24292f">2700.0</text>
        
            
            
            <path stroke="#74838f" stroke-dasharray="10 6" stroke-width="0.5"  d="M 50.0 174.8 L 974.0 174.8" />
        
    
        
        
        <text x="45.0" font-family="-apple-system, system-ui, BlinkMacSystemFont, Roboto" y="206.0" dominant-baseline="middle" text-anchor="end" font-size="12" fill="#24292f">0.0</text>
        
    
    
        
        <path stroke="#74838f"  stroke-width="2.0"  d="M 82.63576158940398 206.0 L 82.63576158940398 214.0" />
        <text x="82.63576158940398" font-family="-apple-system, system-ui, BlinkMacSystemFont, Roboto" y="216.0" dominant-baseline="hanging" text-anchor="middle" font-size="12" fill="#24292f">Mar 2022</text>
    
        
        <path stroke="#74838f"  stroke-width="2.0"  d="M 145.86754966887418 206.0 L 145.86754966887418 214.0" />
        <text x="145.86754966887418" font-family="-apple-system, system-ui, BlinkMacSystemFont, Roboto" y="216.0" dominant-baseline="hanging" text-anchor="middle" font-size="12" fill="#24292f">Apr 2022</text>
    
        
        <path stroke="#74838f"  stroke-width="2.0"  d="M 207.05960264900662 206.0 L 207.05960264900662 214.0" />
        <text x="207.05960264900662" font-family="-apple-system, system-ui, BlinkMacSystemFont, Roboto" y="216.0" dominant-baseline="hanging" text-anchor="middle" font-size="12" fill="#24292f">May 2022</text>
    
        
        <path stroke="#74838f"  stroke-width="2.0"  d="M 270.2913907284768 206.0 L 270.2913907284768 214.0" />
        <text x="270.2913907284768" font-family="-apple-system, system-ui, BlinkMacSystemFont, Roboto" y="216.0" dominant-baseline="hanging" text-anchor="middle" font-size="12" fill="#24292f">Jun 2022</text>
    
        
        <path stroke="#74838f"  stroke-width="2.0"  d="M 331.4834437086093 206.0 L 331.4834437086093 214.0" />
        <text x="331.4834437086093" font-family="-apple-system, system-ui, BlinkMacSystemFont, Roboto" y="216.0" dominant-baseline="hanging" text-anchor="middle" font-size="12" fill="#24292f">Jul 2022</text>
    
        
        <path stroke="#74838f"  stroke-width="2.0"  d="M 394.7152317880795 206.0 L 394.7152317880795 214.0" />
        <text x="394.7152317880795" font-family="-apple-system, system-ui, BlinkMacSystemFont, Roboto" y="216.0" dominant-baseline="hanging" text-anchor="middle" font-size="12" fill="#24292f">Aug 2022</text>
    
        
        <path stroke="#74838f"  stroke-width="2.0"  d="M 457.94701986754967 206.0 L 457.94701986754967 214.0" />
        <text x="457.94701986754967" font-family="-apple-system, system-ui, BlinkMacSystemFont, Roboto" y="216.0" dominant-baseline="hanging" text-anchor="middle" font-size="12" fill="#24292f">Sep 2022</text>
    
        
        <path stroke="#74838f"  stroke-width="2.0"  d="M 519.1390728476822 206.0 L 519.1390728476822 214.0" />
        <text x="519.1390728476822" font-family="-apple-system, system-ui, BlinkMacSystemFont, Roboto" y="216.0" dominant-baseline="hanging" text-anchor="middle" font-size="12" fill="#24292f">Oct 2022</text>
    
        
        <path stroke="#74838f"  stroke-width="2.0"  d="M 582.3708609271523 206.0 L 582.3708609271523 214.0" />
        <text x="582.3708609271523" font-family="-apple-system, system-ui, BlinkMacSystemFont, Roboto" y="216.0" dominant-baseline="hanging" text-anchor="middle" font-size="12" fill="#24292f">Nov 2022</text>
    
        
        <path stroke="#74838f"  stroke-width="2.0"  d="M 643.5629139072847 206.0 L 643.5629139072847 214.0" />
        <text x="643.5629139072847" font-family="-apple-system, system-ui, BlinkMacSystemFont, Roboto" y="216.0" dominant-baseline="hanging" text-anchor="middle" font-size="12" fill="#24292f">Dec 2022</text>
    
        
        <path stroke="#74838f"  stroke-width="2.0"  d="M 706.794701986755 206.0 L 706.794701986755 214.0" />
        <text x="706.794701986755" font-family="-apple-system, system-ui, BlinkMacSystemFont, Roboto" y="216.0" dominant-baseline="hanging" text-anchor="middle" font-size="12" fill="#24292f">Jan 2023</text>
    
        
        <path stroke="#74838f"  stroke-width="2.0"  d="M 770.0264900662252 206.0 L 770.0264900662252 214.0" />
        <text x="770.0264900662252" font-family="-apple-system, system-ui, BlinkMacSystemFont, Roboto" y="216.0" dominant-baseline="hanging" text-anchor="middle" font-size="12" fill="#24292f">Feb 2023</text>
    
        
        <path stroke="#74838f"  stroke-width="2.0"  d="M 827.1390728476821 206.0 L 827.1390728476821 214.0" />
        <text x="827.1390728476821" font-family="-apple-system, system-ui, BlinkMacSystemFont, Roboto" y="216.0" dominant-baseline="hanging" text-anchor="middle" font-size="12" fill="#24292f">Mar 2023</text>
    
        
        <path stroke="#74838f"  stroke-width="2.0"  d="M 890.3708609271523 206.0 L 890.3708609271523 214.0" />
        <text x="890.3708609271523" font-family="-apple-system, system-ui, BlinkMacSystemFont, Roboto" y="216.0" dominant-baseline="hanging" text-anchor="middle" font-size="12" fill="#24292f">Apr 2023</text>
    
        
        <path stroke="#74838f"  stroke-width="2.0"  d="M 951.5629139072847 206.0 L 951.5629139072847 214.0" />
        <text x="951.5629139072847" font-family="-apple-system, system-ui, BlinkMacSystemFont, Roboto" y="216.0" dominant-baseline="hanging" text-anchor="middle" font-size="12" fill="#24292f">May 2023</text>
    
    <path stroke="#74838f"   stroke-linejoin="round" stroke-width="2.0" d="M 50.0 216.0 L 50.0 206.0 L 974.0 206.0 L 974.0 216.0"  fill="none" />
    <text x="512.0" y="25.0" font-family="-apple-system, system-ui, BlinkMacSystemFont, Roboto" dominant-baseline="middle" text-anchor="middle" font-size="18" fill="#24292f">Total daily suspensions</text>
</svg>
