<?xml version="1.0" standalone="no"?>
<svg width="1024.0" height="256.0"  viewBox="0 0 1024.0 256.0" preserveAspectRatio="xMidYMid meet" xmlns="http://www.w3.org/2000/svg">
    <path stroke="#e74c3c" stroke-linejoin="round" d="M 50.0 161.108 L 50 161.108L 52.321608040201006 193.664L 54.64321608040201 197.576L 56.96482412060301 197.924L 59.28643216080402 203.528L 61.608040201005025 199.94L 63.92964824120603 199.268L 66.25125628140704 191.108L 68.57286432160804 200.972L 70.89447236180905 198.62L 73.21608040201005 200L 75.53768844221105 202.57999999999998L 77.85929648241206 199.208L 80.18090452261308 195.608L 82.50251256281408 202.652L 84.82412060301507 198.716L 87.14572864321607 197.49200000000002L 89.46733668341707 191.42000000000002L 91.7889447236181 196.688L 94.1105527638191 199.46L 96.4321608040201 199.328L 98.7537688442211 198.308L 101.07537688442211 198.164L 103.39698492462313 199.832L 105.71859296482413 194.876L 108.04020100502512 199.904L 110.36180904522614 195.584L 112.68341708542714 200.732L 115.00502512562814 198.416L 117.32663316582914 190.652L 119.64824120603015 196.112L 121.96984924623116 190.82L 124.29145728643216 193.53199999999998L 126.61306532663316 199.688L 128.93467336683415 192.392L 131.25628140703517 197L 133.5778894472362 199.59199999999998L 135.8994974874372 193.54399999999998L 138.2211055276382 195.26L 140.5427135678392 195.428L 142.8643216080402 195.548L 145.1859296482412 196.484L 147.5075376884422 199.424L 149.8291457286432 199.22L 152.15075376884423 195.656L 154.47236180904522 193.952L 156.79396984924625 195.536L 159.11557788944725 198.764L 161.43718592964825 195.428L 163.75879396984925 194L 166.08040201005025 193.688L 168.40201005025125 186.32L 170.72361809045228 197.372L 173.04522613065325 195.96800000000002L 175.36683417085428 198.284L 177.68844221105525 194.38400000000001L 180.01005025125627 196.424L 182.3316582914573 196.988L 184.65326633165827 198.368L 186.9748743718593 198.05599999999998L 189.2964824120603 199.61599999999999L 191.6180904522613 191.54L 193.93969849246233 202.124L 196.2613065326633 193.34L 198.58291457286433 204.2L 200.90452261306532 206L 203.22613065326632 206L 205.54773869346735 206L 207.86934673366832 206L 210.19095477386935 190.472L 212.51256281407035 159.01999999999998L 214.83417085427135 193.56799999999998L 217.15577889447238 200.228L 219.47738693467335 193.232L 221.79899497487438 196.82L 224.12060301507537 199.772L 226.44221105527637 186.548L 228.7638190954774 197.888L 231.08542713567837 195.596L 233.4070351758794 190.508L 235.7286432160804 194.876L 238.0502512562814 190.4L 240.37185929648243 188.756L 242.6934673366834 197.852L 245.01507537688443 199.772L 247.33668341708542 191.936L 249.65829145728642 191.864L 251.97989949748745 199.316L 254.30150753768845 194.72L 256.62311557788945 192.608L 258.94472361809045 194.9L 261.26633165829145 199.7L 263.5879396984925 189.224L 265.9095477386935 198.428L 268.2311557788945 196.136L 270.5527638190955 195.296L 272.8743718592965 196.268L 275.1959798994975 193.184L 277.5175879396985 197.204L 279.8391959798995 193.856L 282.1608040201005 197.096L 284.4824120603015 178.16L 286.8040201005025 194.372L 289.1256281407035 195.92000000000002L 291.44723618090455 195.11599999999999L 293.7688442211055 196.688L 296.0904522613065 197.49200000000002L 298.4120603015075 197.696L 300.73366834170855 186.848L 303.0552763819096 192.644L 305.3768844221105 199.61599999999999L 307.69849246231155 193.052L 310.02010050251255 191.072L 312.34170854271355 195.44L 314.6633165829146 196.184L 316.98492462311555 196.46L 319.30653266331655 197.312L 321.6281407035176 193.076L 323.9497487437186 206L 326.2713567839196 186.44L 328.5929648241206 186.632L 330.9145728643216 191.276L 333.2361809045226 180.93200000000002L 335.5577889447236 201.704L 337.87939698492465 185.744L 340.20100502512565 196.028L 342.5226130653266 189.464L 344.84422110552765 194.228L 347.16582914572865 195.632L 349.48743718592965 196.844L 351.80904522613065 186.332L 354.13065326633165 197.99599999999998L 356.45226130653265 188.924L 358.77386934673365 189.128L 361.0954773869347 196.748L 363.4170854271357 182.45600000000002L 365.73869346733665 184.16L 368.0603015075377 206L 370.3819095477387 206L 372.7035175879397 206L 375.0251256281407 160.16L 377.3467336683417 198.536L 379.6683417085427 196.60399999999998L 381.9899497487437 195.668L 384.31155778894475 192.8L 386.63316582914575 196.964L 388.9547738693467 197.828L 391.27638190954775 200.84L 393.59798994974875 170.312L 395.91959798994975 189.236L 398.24120603015075 177.428L 400.56281407035175 191.564L 402.88442211055275 178.784L 405.20603015075375 176.372L 407.5276381909548 181.7L 409.8492462311558 187.472L 412.17085427135675 192.88400000000001L 414.4924623115578 189.38L 416.8140703517588 187.772L 419.1356783919598 189.404L 421.4572864321608 187.532L 423.7788944723618 193.59199999999998L 426.1005025125628 185.036L 428.4221105527638 171.332L 430.74371859296485 180.14L 433.06532663316585 172.316L 435.3869346733668 193.028L 437.70854271356785 191.996L 440.03015075376885 193.052L 442.35175879396985 194.84L 444.67336683417085 193.53199999999998L 446.99497487437185 194.024L 449.31658291457285 189.272L 451.63819095477385 195.188L 453.9597989949749 196.256L 456.2814070351759 192.62L 458.6030150753769 190.844L 460.9246231155779 200.984L 463.2462311557789 184.796L 465.5678391959799 190.88L 467.8894472361809 194.42000000000002L 470.21105527638196 189.86L 472.5326633165829 195.86L 474.8542713567839 191.984L 477.17587939698495 193.1L 479.49748743718595 186.464L 481.81909547738695 190.46L 484.1407035175879 182.156L 486.46231155778895 187.136L 488.78391959798995 191.528L 491.10552763819095 184.1L 493.427135678392 189.14L 495.74874371859295 185.204L 498.07035175879395 185.468L 500.391959798995 176.816L 502.713567839196 189.04399999999998L 505.035175879397 191.048L 507.35678391959794 188.756L 509.678391959799 187.592L 512 191.39600000000002L 514.321608040201 187.796L 516.643216080402 188.228L 518.964824120603 190.268L 521.286432160804 194.372L 523.608040201005 194.72L 525.929648241206 201.308L 528.251256281407 192.752L 530.572864321608 181.148L 532.8944723618091 181.748L 535.21608040201 181.208L 537.537688442211 191.3L 539.8592964824121 186.88400000000001L 542.180904522613 181.376L 544.5025125628141 186.5L 546.824120603015 188.44400000000002L 549.145728643216 179.66L 551.4673366834171 183.09199999999998L 553.788944723618 173.564L 556.1105527638192 183.836L 558.4321608040201 171.668L 560.753768844221 148.148L 563.0753768844221 178.004L 565.3969849246231 141.86L 567.7185929648242 186.128L 570.0402010050251 188.54000000000002L 572.3618090452261 187.748L 574.6834170854271 193.256L 577.0050251256281 186.596L 579.3266331658292 185.42000000000002L 581.6482412060301 186.872L 583.9698492462311 185.372L 586.2914572864322 192.824L 588.6130653266331 188.552L 590.9346733668342 189.32L 593.2562814070352 186.632L 595.5778894472361 185.768L 597.8994974874372 188.744L 600.2211055276382 187.34L 602.5427135678392 192.488L 604.8643216080402 187.028L 607.1859296482412 185.468L 609.5075376884422 181.928L 611.8291457286432 183.8L 614.1507537688442 180.296L 616.4723618090452 185.516L 618.7939698492462 194L 621.1155778894472 190.328L 623.4371859296482 186.584L 625.7587939698493 168.32L 628.0804020100502 117.5L 630.4020100502513 189.10399999999998L 632.7236180904523 187.844L 635.0452261306532 190.28L 637.3668341708543 192.32L 639.6884422110553 189.2L 642.0100502512563 182.288L 644.3316582914573 188.49200000000002L 646.6532663316583 178.916L 648.9748743718593 53.432000000000016L 651.2964824120603 162.656L 653.6180904522613 184.52L 655.9396984924623 182.708L 658.2613065326633 183.68L 660.5829145728643 184.196L 662.9045226130653 179.084L 665.2261306532664 190.16L 667.5477386934673 180.476L 669.8693467336683 160.916L 672.1909547738694 121.196L 674.5125628140703 151.50799999999998L 676.8341708542714 164.132L 679.1557788944724 181.184L 681.4773869346733 170.49200000000002L 683.7989949748744 179.792L 686.1206030150754 173.204L 688.4422110552764 178.352L 690.7638190954774 182.792L 693.0854271356784 177.152L 695.4070351758794 184.232L 697.7286432160804 187.796L 700.0502512562814 188.348L 702.3718592964824 184.736L 704.6934673366834 181.892L 707.0150753768844 181.796L 709.3366834170854 179.36L 711.6582914572865 168.176L 713.9798994974874 181.808L 716.3015075376884 185.372L 718.6231155778895 167.708L 720.9447236180904 140.6L 723.2663316582915 160.784L 725.5879396984925 151.664L 727.9095477386934 145.952L 730.2311557788945 155.288L 732.5527638190955 153.68L 734.8743718592965 163.04L 737.1959798994975 172.064L 739.5175879396985 148.952L 741.8391959798995 171.812L 744.1608040201005 172.46L 746.4824120603015 172.508L 748.8040201005025 183.644L 751.1256281407035 166.304L 753.4472361809045 159.26L 755.7688442211055 172.652L 758.0904522613066 165.5L 760.4120603015075 154.892L 762.7336683417085 173.888L 765.0552763819096 176.3L 767.3768844221105 186.5L 769.6984924623116 183.932L 772.0201005025126 183.10399999999998L 774.3417085427135 150.128L 776.6633165829146 183.11599999999999L 778.9849246231156 186.152L 781.3065326633166 185.096L 783.6281407035176 182.276L 785.9497487437186 182.18L 788.2713567839196 182.144L 790.5929648241206 174.956L 792.9145728643216 181.988L 795.2361809045226 179.504L 797.5577889447236 184.784L 799.8793969849246 179L 802.2010050251256 175.868L 804.5226130653267 177.14L 806.8442211055276 178.832L 809.1658291457286 182.216L 811.4874371859297 176.444L 813.8090452261306 182.576L 816.1306532663317 177.02L 818.4522613065327 178.58L 820.7738693467336 182.144L 823.0954773869347 179.48L 825.4170854271357 176.972L 827.7386934673367 186.164L 830.0603015075377 176.096L 832.3819095477387 178.04L 834.7035175879397 152.996L 837.0251256281407 130.724L 839.3467336683417 149.888L 841.6683417085427 149.48L 843.9899497487437 184.1L 846.3115577889447 184.484L 848.6331658291457 177.56L 850.9547738693468 139.952L 853.2763819095477 148.028L 855.5979899497487 162.428L 857.9195979899498 136.244L 860.2412060301507 132.128L 862.5628140703518 142.508L 864.8844221105528 143.252L 867.2060301507538 125.732L 869.5276381909548 117.06800000000001L 871.8492462311558 164.264L 874.1708542713568 161.876L 876.4924623115578 158.636L 878.8140703517588 176.40800000000002L 881.1356783919598 186.632L 883.4572864321608 187.352L 885.7788944723618 186.152L 888.1005025125628 174.932L 890.4221105527639 178.388L 892.7437185929648 194.636L 895.0653266331658 184.748L 897.3869346733669 182.84L 899.7085427135678 173.78L 902.0301507537689 177.56L 904.3517587939699 179.996L 906.6733668341708 183.188L 908.9949748743719 153.68L 911.3165829145729 147.548L 913.6381909547739 185.504L 915.9597989949749 190.724L 918.2814070351758 174.752L 920.6030150753769 174.32L 922.9246231155779 183.692L 925.2462311557789 189.06799999999998L 927.5678391959799 186.88400000000001L 929.8894472361809 179.096L 932.2110552763819 175.808L 934.5326633165829 161.672L 936.854271356784 160.424L 939.1758793969849 165.632L 941.4974874371859 179.336L 943.819095477387 183.272L 946.1407035175879 191.024L 948.462311557789 195.14L 950.78391959799 182.684L 953.1055276381909 162.416L 955.427135678392 169.712L 957.7487437185929 168.536L 960.070351758794 179.024L 962.391959798995 170.768L 964.7135678391959 161.9L 967.035175879397 170.012L 969.356783919598 180.656L 971.678391959799 178.796L 974 187.04" stroke-width="2.0" fill="none" />
    
        
        
        <text x="45.0" font-family="-apple-system, system-ui, BlinkMacSystemFont, Roboto" y="50.0" dominant-baseline="middle" text-anchor="end" font-size="12" fill="#24292f">13000.0</text>
        
            
            <path stroke="#74838f" stroke-dasharray="10 6" stroke-width="0.5"  d="M 50.0 50.0 L 974.0 50.0" />
        
    
        
        
        <text x="45.0" font-family="-apple-system, system-ui, BlinkMacSystemFont, Roboto" y="81.2" dominant-baseline="middle" text-anchor="end" font-size="12" fill="#24292f">10400.0</text>
        
            
            
            <path stroke="#74838f" stroke-dasharray="10 6" stroke-width="0.5"  d="M 50.0 81.2 L 974.0 81.2" />
        
    
        
        
        <text x="45.0" font-family="-apple-system, system-ui, BlinkMacSystemFont, Roboto" y="112.4" dominant-baseline="middle" text-anchor="end" font-size="12" fill="#24292f">7800.0</text>
        
            
            
            <path stroke="#74838f" stroke-dasharray="10 6" stroke-width="0.5"  d="M 50.0 112.4 L 974.0 112.4" />
        
    
        
        
        <text x="45.0" font-family="-apple-system, system-ui, BlinkMacSystemFont, Roboto" y="143.6" dominant-baseline="middle" text-anchor="end" font-size="12" fill="#24292f">5200.0</text>
        
            
            
            <path stroke="#74838f" stroke-dasharray="10 6" stroke-width="0.5"  d="M 50.0 143.6 L 974.0 143.6" />
        
    
        
        
        <text x="45.0" font-family="-apple-system, system-ui, BlinkMacSystemFont, Roboto" y="174.8" dominant-baseline="middle" text-anchor="end" font-size="12" fill="#24292f">2600.0</text>
        
            
            
            <path stroke="#74838f" stroke-dasharray="10 6" stroke-width="0.5"  d="M 50.0 174.8 L 974.0 174.8" />
        
    
        
        
        <text x="45.0" font-family="-apple-system, system-ui, BlinkMacSystemFont, Roboto" y="206.0" dominant-baseline="middle" text-anchor="end" font-size="12" fill="#24292f">0.0</text>
        
    
    
        
        <path stroke="#74838f"  stroke-width="2.0"  d="M 87.14572864321607 206.0 L 87.14572864321607 214.0" />
        <text x="87.14572864321607" font-family="-apple-system, system-ui, BlinkMacSystemFont, Roboto" y="216.0" dominant-baseline="hanging" text-anchor="middle" font-size="12" fill="#24292f">Mar 2022</text>
    
        
        <path stroke="#74838f"  stroke-width="2.0"  d="M 159.11557788944725 206.0 L 159.11557788944725 214.0" />
        <text x="159.11557788944725" font-family="-apple-system, system-ui, BlinkMacSystemFont, Roboto" y="216.0" dominant-baseline="hanging" text-anchor="middle" font-size="12" fill="#24292f">Apr 2022</text>
    
        
        <path stroke="#74838f"  stroke-width="2.0"  d="M 228.7638190954774 206.0 L 228.7638190954774 214.0" />
        <text x="228.7638190954774" font-family="-apple-system, system-ui, BlinkMacSystemFont, Roboto" y="216.0" dominant-baseline="hanging" text-anchor="middle" font-size="12" fill="#24292f">May 2022</text>
    
        
        <path stroke="#74838f"  stroke-width="2.0"  d="M 300.73366834170855 206.0 L 300.73366834170855 214.0" />
        <text x="300.73366834170855" font-family="-apple-system, system-ui, BlinkMacSystemFont, Roboto" y="216.0" dominant-baseline="hanging" text-anchor="middle" font-size="12" fill="#24292f">Jun 2022</text>
    
        
        <path stroke="#74838f"  stroke-width="2.0"  d="M 370.3819095477387 206.0 L 370.3819095477387 214.0" />
        <text x="370.3819095477387" font-family="-apple-system, system-ui, BlinkMacSystemFont, Roboto" y="216.0" dominant-baseline="hanging" text-anchor="middle" font-size="12" fill="#24292f">Jul 2022</text>
    
        
        <path stroke="#74838f"  stroke-width="2.0"  d="M 442.35175879396985 206.0 L 442.35175879396985 214.0" />
        <text x="442.35175879396985" font-family="-apple-system, system-ui, BlinkMacSystemFont, Roboto" y="216.0" dominant-baseline="hanging" text-anchor="middle" font-size="12" fill="#24292f">Aug 2022</text>
    
        
        <path stroke="#74838f"  stroke-width="2.0"  d="M 514.321608040201 206.0 L 514.321608040201 214.0" />
        <text x="514.321608040201" font-family="-apple-system, system-ui, BlinkMacSystemFont, Roboto" y="216.0" dominant-baseline="hanging" text-anchor="middle" font-size="12" fill="#24292f">Sep 2022</text>
    
        
        <path stroke="#74838f"  stroke-width="2.0"  d="M 583.9698492462311 206.0 L 583.9698492462311 214.0" />
        <text x="583.9698492462311" font-family="-apple-system, system-ui, BlinkMacSystemFont, Roboto" y="216.0" dominant-baseline="hanging" text-anchor="middle" font-size="12" fill="#24292f">Oct 2022</text>
    
        
        <path stroke="#74838f"  stroke-width="2.0"  d="M 655.9396984924623 206.0 L 655.9396984924623 214.0" />
        <text x="655.9396984924623" font-family="-apple-system, system-ui, BlinkMacSystemFont, Roboto" y="216.0" dominant-baseline="hanging" text-anchor="middle" font-size="12" fill="#24292f">Nov 2022</text>
    
        
        <path stroke="#74838f"  stroke-width="2.0"  d="M 725.5879396984925 206.0 L 725.5879396984925 214.0" />
        <text x="725.5879396984925" font-family="-apple-system, system-ui, BlinkMacSystemFont, Roboto" y="216.0" dominant-baseline="hanging" text-anchor="middle" font-size="12" fill="#24292f">Dec 2022</text>
    
        
        <path stroke="#74838f"  stroke-width="2.0"  d="M 797.5577889447236 206.0 L 797.5577889447236 214.0" />
        <text x="797.5577889447236" font-family="-apple-system, system-ui, BlinkMacSystemFont, Roboto" y="216.0" dominant-baseline="hanging" text-anchor="middle" font-size="12" fill="#24292f">Jan 2023</text>
    
        
        <path stroke="#74838f"  stroke-width="2.0"  d="M 869.5276381909548 206.0 L 869.5276381909548 214.0" />
        <text x="869.5276381909548" font-family="-apple-system, system-ui, BlinkMacSystemFont, Roboto" y="216.0" dominant-baseline="hanging" text-anchor="middle" font-size="12" fill="#24292f">Feb 2023</text>
    
        
        <path stroke="#74838f"  stroke-width="2.0"  d="M 934.5326633165829 206.0 L 934.5326633165829 214.0" />
        <text x="934.5326633165829" font-family="-apple-system, system-ui, BlinkMacSystemFont, Roboto" y="216.0" dominant-baseline="hanging" text-anchor="middle" font-size="12" fill="#24292f">Mar 2023</text>
    
    <path stroke="#74838f"   stroke-linejoin="round" stroke-width="2.0" d="M 50.0 216.0 L 50.0 206.0 L 974.0 206.0 L 974.0 216.0"  fill="none" />
    <text x="512.0" y="25.0" font-family="-apple-system, system-ui, BlinkMacSystemFont, Roboto" dominant-baseline="middle" text-anchor="middle" font-size="18" fill="#24292f">Total daily suspensions</text>
</svg>
