<?xml version="1.0" standalone="no"?>
<svg width="1024.0" height="256.0"  viewBox="0 0 1024.0 256.0" preserveAspectRatio="xMidYMid meet" xmlns="http://www.w3.org/2000/svg">
    <path stroke="#e74c3c" stroke-linejoin="round" d="M 50.0 161.108 L 50 161.108L 52.333333333333336 193.664L 54.666666666666664 197.576L 57 197.924L 59.333333333333336 203.528L 61.666666666666664 199.94L 64 199.268L 66.33333333333333 191.108L 68.66666666666667 200.972L 71 198.62L 73.33333333333333 200L 75.66666666666666 202.57999999999998L 78 199.208L 80.33333333333334 195.608L 82.66666666666666 202.652L 85 198.716L 87.33333333333334 197.49200000000002L 89.66666666666666 191.42000000000002L 92 196.688L 94.33333333333333 199.46L 96.66666666666666 199.328L 99 198.308L 101.33333333333333 198.164L 103.66666666666666 199.832L 106 194.876L 108.33333333333334 199.904L 110.66666666666667 195.584L 113 200.732L 115.33333333333333 198.416L 117.66666666666667 190.652L 120 196.112L 122.33333333333334 190.82L 124.66666666666667 193.53199999999998L 127 199.688L 129.33333333333331 192.392L 131.66666666666669 197L 134 199.59199999999998L 136.33333333333334 193.54399999999998L 138.66666666666666 195.26L 141 195.428L 143.33333333333331 195.548L 145.66666666666669 196.484L 148 199.424L 150.33333333333334 199.22L 152.66666666666666 195.656L 155 193.952L 157.33333333333331 195.536L 159.66666666666669 198.764L 162 195.428L 164.33333333333334 194L 166.66666666666669 193.688L 169 186.32L 171.33333333333334 197.372L 173.66666666666669 195.96800000000002L 176 198.284L 178.33333333333334 194.38400000000001L 180.66666666666666 196.424L 183 196.988L 185.33333333333334 198.368L 187.66666666666666 198.05599999999998L 190 199.61599999999999L 192.33333333333331 191.54L 194.66666666666669 202.124L 197 193.34L 199.33333333333334 204.2L 201.66666666666666 206L 204 206L 206.33333333333334 206L 208.66666666666666 206L 211 190.472L 213.33333333333334 159.01999999999998L 215.66666666666666 193.56799999999998L 218 200.228L 220.33333333333331 193.232L 222.66666666666669 196.82L 225 199.772L 227.33333333333331 186.548L 229.66666666666666 197.888L 232 195.596L 234.33333333333334 190.508L 236.66666666666666 194.876L 239 190.4L 241.33333333333334 188.756L 243.66666666666666 197.852L 246 199.772L 248.33333333333331 191.936L 250.66666666666669 191.864L 253 199.316L 255.33333333333331 194.72L 257.66666666666663 192.608L 260 194.9L 262.33333333333337 199.7L 264.66666666666663 189.224L 267 198.428L 269.33333333333337 196.136L 271.66666666666663 195.296L 274 196.268L 276.33333333333337 193.184L 278.6666666666667 197.204L 281 193.856L 283.33333333333337 197.096L 285.66666666666663 178.16L 288 194.372L 290.33333333333337 195.92000000000002L 292.6666666666667 195.11599999999999L 295 196.688L 297.33333333333337 197.49200000000002L 299.6666666666667 197.696L 302 186.848L 304.33333333333337 192.644L 306.6666666666667 199.61599999999999L 309 193.052L 311.3333333333333 191.072L 313.6666666666667 195.44L 316 196.184L 318.3333333333333 196.46L 320.6666666666667 197.312L 323 193.076L 325.3333333333333 206L 327.6666666666667 186.44L 330 186.632L 332.33333333333337 191.276L 334.66666666666663 180.93200000000002L 337 201.704L 339.33333333333337 185.744L 341.66666666666663 196.028L 344 189.464L 346.33333333333337 194.228L 348.6666666666667 195.632L 351 196.844L 353.3333333333333 186.332L 355.6666666666667 197.99599999999998L 358 188.924L 360.3333333333333 189.128L 362.6666666666667 196.748L 365 182.45600000000002L 367.3333333333333 184.16L 369.6666666666667 206L 372 206L 374.3333333333333 206L 376.6666666666667 160.16L 379 198.536L 381.3333333333333 196.60399999999998L 383.6666666666667 195.668L 386 192.8L 388.33333333333337 196.964L 390.66666666666663 197.828L 393 200.84L 395.33333333333337 170.312L 397.66666666666663 189.236L 400 177.428L 402.33333333333337 191.564L 404.66666666666663 178.784L 407 176.372L 409.3333333333333 181.7L 411.6666666666667 187.472L 414 192.88400000000001L 416.3333333333333 189.38L 418.6666666666667 187.772L 421 189.404L 423.3333333333333 187.532L 425.6666666666667 193.59199999999998L 428 185.036L 430.3333333333333 171.332L 432.6666666666667 180.14L 435 172.316L 437.3333333333333 193.028L 439.6666666666667 191.996L 442 193.052L 444.3333333333333 194.84L 446.66666666666663 193.53199999999998L 449 194.024L 451.33333333333337 189.272L 453.66666666666663 195.188L 456 196.256L 458.33333333333337 192.62L 460.66666666666663 190.844L 463 200.984L 465.3333333333333 184.796L 467.6666666666667 190.88L 470 194.42000000000002L 472.3333333333333 189.86L 474.6666666666667 195.86L 477 191.984L 479.3333333333333 193.1L 481.6666666666667 186.464L 484 190.46L 486.3333333333333 182.156L 488.6666666666667 187.136L 491 191.528L 493.3333333333333 184.1L 495.6666666666667 189.14L 498 185.204L 500.3333333333333 185.468L 502.6666666666667 176.816L 505 189.04399999999998L 507.33333333333337 191.048L 509.66666666666663 188.756L 512 187.592L 514.3333333333333 191.39600000000002L 516.6666666666667 187.796L 519 188.228L 521.3333333333333 190.268L 523.6666666666667 194.372L 526 194.72L 528.3333333333333 201.308L 530.6666666666667 192.752L 533 181.148L 535.3333333333334 181.748L 537.6666666666667 181.208L 540 191.3L 542.3333333333334 186.88400000000001L 544.6666666666667 181.376L 547 186.5L 549.3333333333334 188.44400000000002L 551.6666666666667 179.66L 554 183.09199999999998L 556.3333333333334 173.564L 558.6666666666667 183.836L 561 171.668L 563.3333333333334 148.148L 565.6666666666666 178.004L 568 141.86L 570.3333333333334 186.128L 572.6666666666666 188.54000000000002L 575 187.748L 577.3333333333334 193.256L 579.6666666666666 186.596L 582 185.42000000000002L 584.3333333333334 186.872L 586.6666666666666 185.372L 589 192.824L 591.3333333333334 188.552L 593.6666666666666 189.32L 596 186.632L 598.3333333333334 185.768L 600.6666666666666 188.744L 603 187.34L 605.3333333333334 192.488L 607.6666666666666 187.028L 610 185.468L 612.3333333333333 181.928L 614.6666666666667 183.8L 617 180.296L 619.3333333333333 185.516L 621.6666666666667 194L 624 190.328L 626.3333333333333 186.584L 628.6666666666667 168.32L 631 117.5L 633.3333333333333 189.10399999999998L 635.6666666666667 187.844L 638 190.28L 640.3333333333333 192.32L 642.6666666666667 189.2L 645 182.288L 647.3333333333334 188.49200000000002L 649.6666666666666 178.916L 652 53.432000000000016L 654.3333333333334 162.656L 656.6666666666666 184.52L 659 182.708L 661.3333333333334 183.68L 663.6666666666666 184.196L 666 179.084L 668.3333333333334 190.16L 670.6666666666666 180.476L 673 160.916L 675.3333333333334 121.196L 677.6666666666666 151.50799999999998L 680 164.132L 682.3333333333334 181.184L 684.6666666666666 170.49200000000002L 687 179.792L 689.3333333333334 173.204L 691.6666666666666 178.352L 694 182.792L 696.3333333333334 177.152L 698.6666666666666 184.232L 701 187.796L 703.3333333333334 188.348L 705.6666666666666 184.736L 708 181.892L 710.3333333333334 181.796L 712.6666666666666 179.36L 715 168.176L 717.3333333333334 181.808L 719.6666666666666 185.372L 722 167.708L 724.3333333333334 140.6L 726.6666666666667 160.784L 729 151.664L 731.3333333333333 145.952L 733.6666666666667 155.288L 736 153.68L 738.3333333333333 163.04L 740.6666666666667 172.064L 743 148.952L 745.3333333333333 171.812L 747.6666666666667 172.46L 750 172.508L 752.3333333333333 183.644L 754.6666666666667 166.304L 757 159.26L 759.3333333333333 172.652L 761.6666666666666 165.5L 764 154.892L 766.3333333333334 173.888L 768.6666666666666 176.3L 771 186.5L 773.3333333333334 183.932L 775.6666666666666 183.10399999999998L 778 150.128L 780.3333333333334 183.11599999999999L 782.6666666666666 186.152L 785 185.096L 787.3333333333334 182.276L 789.6666666666666 182.18L 792 182.144L 794.3333333333334 174.956L 796.6666666666666 181.988L 799 179.504L 801.3333333333334 184.784L 803.6666666666666 179L 806 175.868L 808.3333333333334 177.14L 810.6666666666666 178.832L 813 182.216L 815.3333333333334 176.444L 817.6666666666666 182.576L 820 177.02L 822.3333333333334 178.58L 824.6666666666666 182.144L 827 179.48L 829.3333333333334 176.972L 831.6666666666666 186.164L 834 176.096L 836.3333333333334 178.04L 838.6666666666666 152.996L 841 130.724L 843.3333333333333 149.888L 845.6666666666667 149.48L 848 184.1L 850.3333333333333 184.484L 852.6666666666667 177.56L 855 139.952L 857.3333333333333 148.028L 859.6666666666667 162.428L 862 136.244L 864.3333333333333 132.128L 866.6666666666667 142.508L 869 143.252L 871.3333333333333 125.732L 873.6666666666667 117.06800000000001L 876 164.264L 878.3333333333334 161.876L 880.6666666666666 158.636L 883 176.40800000000002L 885.3333333333334 186.632L 887.6666666666666 187.352L 890 186.152L 892.3333333333334 174.932L 894.6666666666666 178.388L 897 194.636L 899.3333333333334 184.748L 901.6666666666666 182.84L 904 173.78L 906.3333333333334 177.56L 908.6666666666666 179.996L 911 183.188L 913.3333333333334 153.68L 915.6666666666666 147.548L 918 185.504L 920.3333333333334 190.724L 922.6666666666666 174.752L 925 174.32L 927.3333333333334 183.692L 929.6666666666666 189.06799999999998L 932 186.88400000000001L 934.3333333333334 179.096L 936.6666666666666 175.808L 939 161.672L 941.3333333333334 160.424L 943.6666666666666 165.632L 946 179.336L 948.3333333333334 183.272L 950.6666666666666 191.024L 953 195.14L 955.3333333333334 182.684L 957.6666666666667 162.416L 960 169.712L 962.3333333333333 168.536L 964.6666666666667 179.024L 967 170.768L 969.3333333333333 161.9L 971.6666666666667 170.012L 974 195.2" stroke-width="2.0" fill="none" />
    
        
        
        <text x="45.0" font-family="-apple-system, system-ui, BlinkMacSystemFont, Roboto" y="50.0" dominant-baseline="middle" text-anchor="end" font-size="12" fill="#24292f">13000.0</text>
        
            
            <path stroke="#74838f" stroke-dasharray="10 6" stroke-width="0.5"  d="M 50.0 50.0 L 974.0 50.0" />
        
    
        
        
        <text x="45.0" font-family="-apple-system, system-ui, BlinkMacSystemFont, Roboto" y="81.2" dominant-baseline="middle" text-anchor="end" font-size="12" fill="#24292f">10400.0</text>
        
            
            
            <path stroke="#74838f" stroke-dasharray="10 6" stroke-width="0.5"  d="M 50.0 81.2 L 974.0 81.2" />
        
    
        
        
        <text x="45.0" font-family="-apple-system, system-ui, BlinkMacSystemFont, Roboto" y="112.4" dominant-baseline="middle" text-anchor="end" font-size="12" fill="#24292f">7800.0</text>
        
            
            
            <path stroke="#74838f" stroke-dasharray="10 6" stroke-width="0.5"  d="M 50.0 112.4 L 974.0 112.4" />
        
    
        
        
        <text x="45.0" font-family="-apple-system, system-ui, BlinkMacSystemFont, Roboto" y="143.6" dominant-baseline="middle" text-anchor="end" font-size="12" fill="#24292f">5200.0</text>
        
            
            
            <path stroke="#74838f" stroke-dasharray="10 6" stroke-width="0.5"  d="M 50.0 143.6 L 974.0 143.6" />
        
    
        
        
        <text x="45.0" font-family="-apple-system, system-ui, BlinkMacSystemFont, Roboto" y="174.8" dominant-baseline="middle" text-anchor="end" font-size="12" fill="#24292f">2600.0</text>
        
            
            
            <path stroke="#74838f" stroke-dasharray="10 6" stroke-width="0.5"  d="M 50.0 174.8 L 974.0 174.8" />
        
    
        
        
        <text x="45.0" font-family="-apple-system, system-ui, BlinkMacSystemFont, Roboto" y="206.0" dominant-baseline="middle" text-anchor="end" font-size="12" fill="#24292f">0.0</text>
        
    
    
        
        <path stroke="#74838f"  stroke-width="2.0"  d="M 87.33333333333334 206.0 L 87.33333333333334 214.0" />
        <text x="87.33333333333334" font-family="-apple-system, system-ui, BlinkMacSystemFont, Roboto" y="216.0" dominant-baseline="hanging" text-anchor="middle" font-size="12" fill="#24292f">Mar 2022</text>
    
        
        <path stroke="#74838f"  stroke-width="2.0"  d="M 159.66666666666669 206.0 L 159.66666666666669 214.0" />
        <text x="159.66666666666669" font-family="-apple-system, system-ui, BlinkMacSystemFont, Roboto" y="216.0" dominant-baseline="hanging" text-anchor="middle" font-size="12" fill="#24292f">Apr 2022</text>
    
        
        <path stroke="#74838f"  stroke-width="2.0"  d="M 229.66666666666666 206.0 L 229.66666666666666 214.0" />
        <text x="229.66666666666666" font-family="-apple-system, system-ui, BlinkMacSystemFont, Roboto" y="216.0" dominant-baseline="hanging" text-anchor="middle" font-size="12" fill="#24292f">May 2022</text>
    
        
        <path stroke="#74838f"  stroke-width="2.0"  d="M 302.0 206.0 L 302.0 214.0" />
        <text x="302.0" font-family="-apple-system, system-ui, BlinkMacSystemFont, Roboto" y="216.0" dominant-baseline="hanging" text-anchor="middle" font-size="12" fill="#24292f">Jun 2022</text>
    
        
        <path stroke="#74838f"  stroke-width="2.0"  d="M 372.0 206.0 L 372.0 214.0" />
        <text x="372.0" font-family="-apple-system, system-ui, BlinkMacSystemFont, Roboto" y="216.0" dominant-baseline="hanging" text-anchor="middle" font-size="12" fill="#24292f">Jul 2022</text>
    
        
        <path stroke="#74838f"  stroke-width="2.0"  d="M 444.3333333333333 206.0 L 444.3333333333333 214.0" />
        <text x="444.3333333333333" font-family="-apple-system, system-ui, BlinkMacSystemFont, Roboto" y="216.0" dominant-baseline="hanging" text-anchor="middle" font-size="12" fill="#24292f">Aug 2022</text>
    
        
        <path stroke="#74838f"  stroke-width="2.0"  d="M 516.6666666666667 206.0 L 516.6666666666667 214.0" />
        <text x="516.6666666666667" font-family="-apple-system, system-ui, BlinkMacSystemFont, Roboto" y="216.0" dominant-baseline="hanging" text-anchor="middle" font-size="12" fill="#24292f">Sep 2022</text>
    
        
        <path stroke="#74838f"  stroke-width="2.0"  d="M 586.6666666666666 206.0 L 586.6666666666666 214.0" />
        <text x="586.6666666666666" font-family="-apple-system, system-ui, BlinkMacSystemFont, Roboto" y="216.0" dominant-baseline="hanging" text-anchor="middle" font-size="12" fill="#24292f">Oct 2022</text>
    
        
        <path stroke="#74838f"  stroke-width="2.0"  d="M 659.0 206.0 L 659.0 214.0" />
        <text x="659.0" font-family="-apple-system, system-ui, BlinkMacSystemFont, Roboto" y="216.0" dominant-baseline="hanging" text-anchor="middle" font-size="12" fill="#24292f">Nov 2022</text>
    
        
        <path stroke="#74838f"  stroke-width="2.0"  d="M 729.0 206.0 L 729.0 214.0" />
        <text x="729.0" font-family="-apple-system, system-ui, BlinkMacSystemFont, Roboto" y="216.0" dominant-baseline="hanging" text-anchor="middle" font-size="12" fill="#24292f">Dec 2022</text>
    
        
        <path stroke="#74838f"  stroke-width="2.0"  d="M 801.3333333333334 206.0 L 801.3333333333334 214.0" />
        <text x="801.3333333333334" font-family="-apple-system, system-ui, BlinkMacSystemFont, Roboto" y="216.0" dominant-baseline="hanging" text-anchor="middle" font-size="12" fill="#24292f">Jan 2023</text>
    
        
        <path stroke="#74838f"  stroke-width="2.0"  d="M 873.6666666666667 206.0 L 873.6666666666667 214.0" />
        <text x="873.6666666666667" font-family="-apple-system, system-ui, BlinkMacSystemFont, Roboto" y="216.0" dominant-baseline="hanging" text-anchor="middle" font-size="12" fill="#24292f">Feb 2023</text>
    
        
        <path stroke="#74838f"  stroke-width="2.0"  d="M 939.0 206.0 L 939.0 214.0" />
        <text x="939.0" font-family="-apple-system, system-ui, BlinkMacSystemFont, Roboto" y="216.0" dominant-baseline="hanging" text-anchor="middle" font-size="12" fill="#24292f">Mar 2023</text>
    
    <path stroke="#74838f"   stroke-linejoin="round" stroke-width="2.0" d="M 50.0 216.0 L 50.0 206.0 L 974.0 206.0 L 974.0 216.0"  fill="none" />
    <text x="512.0" y="25.0" font-family="-apple-system, system-ui, BlinkMacSystemFont, Roboto" dominant-baseline="middle" text-anchor="middle" font-size="18" fill="#24292f">Total daily suspensions</text>
</svg>
