<?xml version="1.0" standalone="no"?>
<svg width="1024.0" height="256.0"  viewBox="0 0 1024.0 256.0" preserveAspectRatio="xMidYMid meet" xmlns="http://www.w3.org/2000/svg">
    <path stroke="#e74c3c" stroke-linejoin="round" d="M 50.0 161.108 L 50 161.108L 53.3 193.664L 56.6 197.576L 59.9 197.924L 63.2 203.528L 66.5 199.94L 69.8 199.268L 73.1 191.108L 76.4 200.972L 79.69999999999999 198.62L 83 200L 86.3 202.57999999999998L 89.6 199.208L 92.9 195.608L 96.2 202.652L 99.5 198.716L 102.8 197.49200000000002L 106.1 191.42000000000002L 109.39999999999999 196.688L 112.69999999999999 199.46L 116 199.328L 119.3 198.308L 122.6 198.164L 125.9 199.832L 129.2 194.876L 132.5 199.904L 135.8 195.584L 139.10000000000002 200.732L 142.4 198.416L 145.7 190.652L 149 196.112L 152.3 190.82L 155.6 193.53199999999998L 158.89999999999998 199.688L 162.2 192.392L 165.5 197L 168.79999999999998 199.59199999999998L 172.10000000000002 193.54399999999998L 175.39999999999998 195.26L 178.70000000000002 195.428L 182 195.548L 185.3 196.484L 188.6 199.424L 191.9 199.22L 195.2 195.656L 198.5 193.952L 201.8 195.536L 205.1 198.764L 208.4 195.428L 211.7 194L 215 193.688L 218.29999999999998 186.32L 221.6 197.372L 224.9 195.96800000000002L 228.20000000000002 198.284L 231.5 194.38400000000001L 234.8 196.424L 238.1 196.988L 241.4 198.368L 244.7 198.05599999999998L 248 199.61599999999999L 251.3 191.54L 254.6 202.124L 257.9 193.34L 261.2 204.2L 264.5 206L 267.79999999999995 206L 271.1 206L 274.4 206L 277.70000000000005 190.472L 281 159.01999999999998L 284.29999999999995 193.56799999999998L 287.59999999999997 200.228L 290.9 193.232L 294.20000000000005 196.82L 297.5 199.772L 300.79999999999995 186.548L 304.1 197.888L 307.40000000000003 195.596L 310.7 190.508L 314 194.876L 317.3 190.4L 320.6 188.756L 323.9 197.852L 327.2 199.772L 330.5 191.936L 333.8 191.864L 337.1 199.316L 340.4 194.708L 343.7 192.608L 347 194.9L 350.3 199.7L 353.6 189.224L 356.9 198.428L 360.2 196.136L 363.5 195.296L 366.8 196.268L 370.09999999999997 193.184L 373.4 197.204L 376.70000000000005 193.856L 380 197.096L 383.3 178.16L 386.59999999999997 194.372L 389.90000000000003 195.92000000000002L 393.2 195.11599999999999L 396.5 196.688L 399.8 197.49200000000002L 403.09999999999997 197.696L 406.40000000000003 186.848L 409.7 192.644L 413 199.61599999999999L 416.29999999999995 193.052L 419.6 191.072L 422.90000000000003 195.44L 426.2 196.184L 429.5 196.46L 432.8 197.312L 436.1 193.076L 439.4 206L 442.7 186.44L 446 186.632L 449.3 191.276L 452.6 180.93200000000002L 455.9 201.704L 459.2 185.744L 462.5 196.028L 465.8 189.464L 469.1 194.228L 472.4 195.632L 475.7 196.844L 479 186.332L 482.3 197.99599999999998L 485.59999999999997 188.924L 488.9 189.128L 492.20000000000005 196.748L 495.5 182.45600000000002L 498.8 184.16L 502.09999999999997 206L 505.40000000000003 206L 508.7 206L 512 160.16L 515.3 198.536L 518.5999999999999 196.60399999999998L 521.9 195.668L 525.1999999999999 192.8L 528.5 196.964L 531.8 197.828L 535.1 200.84L 538.4000000000001 170.312L 541.7 189.236L 545 177.428L 548.3 191.564L 551.5999999999999 178.784L 554.9 176.372L 558.2 181.7L 561.5 187.472L 564.8000000000001 192.88400000000001L 568.1 189.38L 571.4 187.772L 574.6999999999999 189.404L 578 187.532L 581.3 193.59199999999998L 584.6 185.036L 587.9000000000001 171.332L 591.2 180.14L 594.5 172.316L 597.8 193.028L 601.1 191.996L 604.4 193.052L 607.6999999999999 194.84L 611 193.53199999999998L 614.3000000000001 194.024L 617.6 189.272L 620.9 195.188L 624.2 196.256L 627.5 192.62L 630.8 190.844L 634.1 200.984L 637.4 184.796L 640.6999999999999 190.88L 644 194.42000000000002L 647.3000000000001 189.86L 650.6 195.86L 653.9 191.984L 657.2 193.1L 660.5 186.464L 663.8 190.46L 667.0999999999999 182.156L 670.4 187.136L 673.7 191.528L 677 184.1L 680.3000000000001 189.14L 683.6 185.204L 686.9 185.468L 690.1999999999999 176.828L 693.5 189.04399999999998L 696.8 191.048L 700.1 188.756L 703.4000000000001 187.592L 706.7 191.39600000000002L 710 187.796L 713.3 188.228L 716.6 190.268L 719.9 194.372L 723.1999999999999 194.72L 726.5 201.308L 729.8000000000001 192.752L 733.1 181.148L 736.4 181.748L 739.7 181.208L 743 191.3L 746.3 186.88400000000001L 749.6 181.376L 752.9 186.5L 756.1999999999999 188.44400000000002L 759.5 179.66L 762.8000000000001 183.09199999999998L 766.1 173.564L 769.4 183.836L 772.7 171.668L 776 148.148L 779.3 178.004L 782.5999999999999 141.86L 785.9 186.128L 789.2 188.54000000000002L 792.5 187.748L 795.8000000000001 193.256L 799.1 186.596L 802.4 185.42000000000002L 805.6999999999999 186.872L 809 185.372L 812.3 192.824L 815.6 188.552L 818.9000000000001 189.32L 822.2 186.632L 825.5 185.768L 828.8 188.744L 832.1 187.34L 835.4 192.488L 838.6999999999999 187.028L 842 185.468L 845.3000000000001 181.928L 848.6 183.8L 851.9 180.296L 855.2 185.516L 858.5 194L 861.8 190.328L 865.1 186.584L 868.4 168.32L 871.6999999999999 117.5L 875 189.10399999999998L 878.3000000000001 187.844L 881.6 190.28L 884.9 192.32L 888.2 189.2L 891.5 182.288L 894.8 188.49200000000002L 898.0999999999999 178.916L 901.4 53.432000000000016L 904.7 162.656L 908 184.52L 911.3000000000001 182.708L 914.6 183.68L 917.9 184.196L 921.1999999999999 179.084L 924.5 190.16L 927.8 180.476L 931.1 160.916L 934.4000000000001 121.196L 937.7 151.50799999999998L 941 164.132L 944.3 181.184L 947.6 170.49200000000002L 950.9 179.792L 954.1999999999999 173.504L 957.5 178.088L 960.8000000000001 182.792L 964.1 177.164L 967.4 184.232L 970.7 187.808L 974 202.94" stroke-width="2.0" fill="none" />
    
        
        
        <text x="45.0" font-family="-apple-system, system-ui, BlinkMacSystemFont, Roboto" y="50.0" dominant-baseline="middle" text-anchor="end" font-size="12" fill="#24292f">13000.0</text>
        
            
            <path stroke="#74838f" stroke-dasharray="10 6" stroke-width="0.5"  d="M 50.0 50.0 L 974.0 50.0" />
        
    
        
        
        <text x="45.0" font-family="-apple-system, system-ui, BlinkMacSystemFont, Roboto" y="81.2" dominant-baseline="middle" text-anchor="end" font-size="12" fill="#24292f">10400.0</text>
        
            
            
            <path stroke="#74838f" stroke-dasharray="10 6" stroke-width="0.5"  d="M 50.0 81.2 L 974.0 81.2" />
        
    
        
        
        <text x="45.0" font-family="-apple-system, system-ui, BlinkMacSystemFont, Roboto" y="112.4" dominant-baseline="middle" text-anchor="end" font-size="12" fill="#24292f">7800.0</text>
        
            
            
            <path stroke="#74838f" stroke-dasharray="10 6" stroke-width="0.5"  d="M 50.0 112.4 L 974.0 112.4" />
        
    
        
        
        <text x="45.0" font-family="-apple-system, system-ui, BlinkMacSystemFont, Roboto" y="143.6" dominant-baseline="middle" text-anchor="end" font-size="12" fill="#24292f">5200.0</text>
        
            
            
            <path stroke="#74838f" stroke-dasharray="10 6" stroke-width="0.5"  d="M 50.0 143.6 L 974.0 143.6" />
        
    
        
        
        <text x="45.0" font-family="-apple-system, system-ui, BlinkMacSystemFont, Roboto" y="174.8" dominant-baseline="middle" text-anchor="end" font-size="12" fill="#24292f">2600.0</text>
        
            
            
            <path stroke="#74838f" stroke-dasharray="10 6" stroke-width="0.5"  d="M 50.0 174.8 L 974.0 174.8" />
        
    
        
        
        <text x="45.0" font-family="-apple-system, system-ui, BlinkMacSystemFont, Roboto" y="206.0" dominant-baseline="middle" text-anchor="end" font-size="12" fill="#24292f">0.0</text>
        
    
    
        
        <path stroke="#74838f"  stroke-width="2.0"  d="M 102.8 206.0 L 102.8 214.0" />
        <text x="102.8" font-family="-apple-system, system-ui, BlinkMacSystemFont, Roboto" y="216.0" dominant-baseline="hanging" text-anchor="middle" font-size="12" fill="#24292f">Mar 2022</text>
    
        
        <path stroke="#74838f"  stroke-width="2.0"  d="M 205.1 206.0 L 205.1 214.0" />
        <text x="205.1" font-family="-apple-system, system-ui, BlinkMacSystemFont, Roboto" y="216.0" dominant-baseline="hanging" text-anchor="middle" font-size="12" fill="#24292f">Apr 2022</text>
    
        
        <path stroke="#74838f"  stroke-width="2.0"  d="M 304.1 206.0 L 304.1 214.0" />
        <text x="304.1" font-family="-apple-system, system-ui, BlinkMacSystemFont, Roboto" y="216.0" dominant-baseline="hanging" text-anchor="middle" font-size="12" fill="#24292f">May 2022</text>
    
        
        <path stroke="#74838f"  stroke-width="2.0"  d="M 406.40000000000003 206.0 L 406.40000000000003 214.0" />
        <text x="406.40000000000003" font-family="-apple-system, system-ui, BlinkMacSystemFont, Roboto" y="216.0" dominant-baseline="hanging" text-anchor="middle" font-size="12" fill="#24292f">Jun 2022</text>
    
        
        <path stroke="#74838f"  stroke-width="2.0"  d="M 505.40000000000003 206.0 L 505.40000000000003 214.0" />
        <text x="505.40000000000003" font-family="-apple-system, system-ui, BlinkMacSystemFont, Roboto" y="216.0" dominant-baseline="hanging" text-anchor="middle" font-size="12" fill="#24292f">Jul 2022</text>
    
        
        <path stroke="#74838f"  stroke-width="2.0"  d="M 607.6999999999999 206.0 L 607.6999999999999 214.0" />
        <text x="607.6999999999999" font-family="-apple-system, system-ui, BlinkMacSystemFont, Roboto" y="216.0" dominant-baseline="hanging" text-anchor="middle" font-size="12" fill="#24292f">Aug 2022</text>
    
        
        <path stroke="#74838f"  stroke-width="2.0"  d="M 710.0 206.0 L 710.0 214.0" />
        <text x="710.0" font-family="-apple-system, system-ui, BlinkMacSystemFont, Roboto" y="216.0" dominant-baseline="hanging" text-anchor="middle" font-size="12" fill="#24292f">Sep 2022</text>
    
        
        <path stroke="#74838f"  stroke-width="2.0"  d="M 809.0 206.0 L 809.0 214.0" />
        <text x="809.0" font-family="-apple-system, system-ui, BlinkMacSystemFont, Roboto" y="216.0" dominant-baseline="hanging" text-anchor="middle" font-size="12" fill="#24292f">Oct 2022</text>
    
        
        <path stroke="#74838f"  stroke-width="2.0"  d="M 911.3000000000001 206.0 L 911.3000000000001 214.0" />
        <text x="911.3000000000001" font-family="-apple-system, system-ui, BlinkMacSystemFont, Roboto" y="216.0" dominant-baseline="hanging" text-anchor="middle" font-size="12" fill="#24292f">Nov 2022</text>
    
    <path stroke="#74838f"   stroke-linejoin="round" stroke-width="2.0" d="M 50.0 216.0 L 50.0 206.0 L 974.0 206.0 L 974.0 216.0"  fill="none" />
    <text x="512.0" y="25.0" font-family="-apple-system, system-ui, BlinkMacSystemFont, Roboto" dominant-baseline="middle" text-anchor="middle" font-size="18" fill="#24292f">Total daily suspensions</text>
</svg>
