<?xml version="1.0" standalone="no"?>
<svg width="1024" height="256"  viewBox="0 0 1024 256" preserveAspectRatio="xMidYMid meet" xmlns="http://www.w3.org/2000/svg">
    <path stroke="#e74c3c" stroke-linejoin="round" d="M 41 59.98399999999998 L 41 59.98399999999998L 46.94267515923567 165.90800000000002L 52.88535031847134 178.622L 58.828025477707 179.753L 64.77070063694268 197.966L 70.71337579617834 186.305L 76.656050955414 184.121L 82.59872611464968 157.601L 88.54140127388536 189.659L 94.48407643312102 182.015L 100.42675159235668 186.5L 106.36942675159236 194.885L 112.31210191082802 183.926L 118.2547770700637 172.226L 124.19745222929936 195.119L 130.14012738853503 182.327L 136.0828025477707 178.349L 142.02547770700636 158.615L 147.96815286624204 175.697L 153.9108280254777 184.745L 159.85350318471336 184.316L 165.79617834394904 181.001L 171.7388535031847 180.533L 177.6815286624204 185.954L 183.62420382165604 169.847L 189.56687898089172 186.188L 195.5095541401274 172.109L 201.45222929936304 188.87900000000002L 207.39490445859872 181.352L 213.3375796178344 156.119L 219.28025477707007 173.864L 225.22292993630575 156.66500000000002L 231.16560509554142 165.479L 237.10828025477707 185.486L 243.05095541401275 161.774L 248.99363057324842 176.75L 254.93630573248407 185.174L 260.8789808917197 165.518L 266.8216560509554 171.095L 272.7643312101911 171.641L 278.7070063694267 172.031L 284.6496815286624 175.073L 290.5923566878981 184.628L 296.5350318471337 183.965L 302.4777070063694 172.382L 308.4203821656051 166.844L 314.3630573248408 171.992L 320.30573248407643 182.483L 326.2484076433121 171.641L 332.1910828025478 167L 338.13375796178343 165.986L 344.0764331210191 142.04000000000002L 350.0191082802548 177.959L 355.96178343949043 173.39600000000002L 361.9044585987261 180.923L 367.8471337579618 168.248L 373.78980891719743 174.878L 379.7324840764331 176.711L 385.6751592356688 181.196L 391.6178343949045 180.182L 397.56050955414014 185.252L 403.50318471337584 159.005L 409.4458598726115 193.403L 415.38853503184714 164.85500000000002L 421.33121019108285 200.15L 427.2738853503185 206L 433.21656050955414 206L 439.15923566878985 206L 445.1019108280255 206L 451.04458598726114 155.534L 456.98726114649685 53.315L 462.9299363057325 165.596L 468.87261146496814 187.24099999999999L 474.81528662420385 164.504L 480.7579617834395 176.165L 486.70063694267515 185.75900000000001L 492.64331210191085 142.781L 498.5859872611465 179.636L 504.52866242038215 172.187L 510.47133757961785 155.651L 516.4140127388534 169.847L 522.3566878980891 155.3L 528.2993630573249 149.957L 534.2420382165606 179.519L 540.1847133757962 185.75900000000001L 546.1273885350319 160.292L 552.0700636942674 160.058L 558.0127388535032 184.277L 563.9554140127389 169.301L 569.8980891719746 162.476L 575.8407643312102 169.925L 581.7834394904459 185.525L 587.7261146496816 151.478L 593.6687898089172 181.391L 599.6114649681529 173.942L 605.5541401273886 171.212L 611.4968152866242 174.371L 617.4394904458599 164.348L 623.3821656050956 177.413L 629.3248407643312 166.53199999999998L 635.2675159235669 177.062L 641.2101910828026 115.442L 647.1528662420382 168.209L 653.0955414012739 173.24L 659.0382165605096 170.627L 664.9808917197452 175.736L 670.9235668789809 178.349L 676.8662420382166 179.012L 682.8089171974522 143.756L 688.7515923566879 162.59300000000002L 694.6942675159236 185.252L 700.6369426751592 163.919L 706.5796178343949 157.484L 712.5222929936306 171.68L 718.4649681528662 174.098L 724.4076433121019 174.995L 730.3503184713376 177.764L 736.2929936305732 163.997L 742.235668789809 206L 748.1783439490447 142.43L 754.1210191082803 143.015L 760.063694267516 158.147L 766.0063694267517 124.529L 771.9490445859873 192.038L 777.891719745223 140.168L 783.8343949044587 173.591L 789.7770700636943 152.258L 795.71974522293 167.74099999999999L 801.6624203821657 172.304L 807.6050955414013 176.243L 813.547770700637 142.079L 819.4904458598727 179.987L 825.4331210191083 150.503L 831.375796178344 151.166L 837.3184713375797 175.931L 843.2611464968153 129.482L 849.203821656051 135.01999999999998L 855.1464968152867 206L 861.0891719745223 206L 867.031847133758 206L 872.9745222929937 57.02000000000001L 878.9171974522293 181.742L 884.859872611465 175.463L 890.8025477707007 172.421L 896.7452229299363 163.1L 902.687898089172 176.633L 908.6305732484077 179.441L 914.5732484076433 189.23000000000002L 920.515923566879 90.014L 926.4585987261147 151.517L 932.4012738853503 113.141L 938.343949044586 159.083L 944.2866242038217 117.548L 950.2292993630573 109.709L 956.171974522293 127.025L 962.1146496815287 145.784L 968.0573248407643 163.373L 974 164.26999999999998" stroke-width="2.0" fill="none" />
    
        
        
        <text x="36" font-family="-apple-system, system-ui, BlinkMacSystemFont, Roboto" y="50" dominant-baseline="middle" text-anchor="end" font-size="12" fill="#24292f">4000</text>
        
            
            <path stroke="#74838f" stroke-dasharray="10 6" stroke-width="0.5"  d="M 41 50 L 974 50" />
        
    
        
        
        <text x="36" font-family="-apple-system, system-ui, BlinkMacSystemFont, Roboto" y="81.2" dominant-baseline="middle" text-anchor="end" font-size="12" fill="#24292f">3200</text>
        
            
            
            <path stroke="#74838f" stroke-dasharray="10 6" stroke-width="0.5"  d="M 41 81.2 L 974 81.2" />
        
    
        
        
        <text x="36" font-family="-apple-system, system-ui, BlinkMacSystemFont, Roboto" y="112.4" dominant-baseline="middle" text-anchor="end" font-size="12" fill="#24292f">2400</text>
        
            
            
            <path stroke="#74838f" stroke-dasharray="10 6" stroke-width="0.5"  d="M 41 112.4 L 974 112.4" />
        
    
        
        
        <text x="36" font-family="-apple-system, system-ui, BlinkMacSystemFont, Roboto" y="143.6" dominant-baseline="middle" text-anchor="end" font-size="12" fill="#24292f">1600</text>
        
            
            
            <path stroke="#74838f" stroke-dasharray="10 6" stroke-width="0.5"  d="M 41 143.6 L 974 143.6" />
        
    
        
        
        <text x="36" font-family="-apple-system, system-ui, BlinkMacSystemFont, Roboto" y="174.8" dominant-baseline="middle" text-anchor="end" font-size="12" fill="#24292f">800</text>
        
            
            
            <path stroke="#74838f" stroke-dasharray="10 6" stroke-width="0.5"  d="M 41 174.8 L 974 174.8" />
        
    
        
        
        <text x="36" font-family="-apple-system, system-ui, BlinkMacSystemFont, Roboto" y="206" dominant-baseline="middle" text-anchor="end" font-size="12" fill="#24292f">0</text>
        
    
    
        
        <path stroke="#74838f"  stroke-width="2.0"  d="M 136.0828025477707 206 L 136.0828025477707 214" />
        <text x="136.0828025477707" font-family="-apple-system, system-ui, BlinkMacSystemFont, Roboto" y="216" dominant-baseline="hanging" text-anchor="middle" font-size="12" fill="#24292f">Mar 2022</text>
    
        
        <path stroke="#74838f"  stroke-width="2.0"  d="M 320.30573248407643 206 L 320.30573248407643 214" />
        <text x="320.30573248407643" font-family="-apple-system, system-ui, BlinkMacSystemFont, Roboto" y="216" dominant-baseline="hanging" text-anchor="middle" font-size="12" fill="#24292f">Apr 2022</text>
    
        
        <path stroke="#74838f"  stroke-width="2.0"  d="M 498.5859872611465 206 L 498.5859872611465 214" />
        <text x="498.5859872611465" font-family="-apple-system, system-ui, BlinkMacSystemFont, Roboto" y="216" dominant-baseline="hanging" text-anchor="middle" font-size="12" fill="#24292f">May 2022</text>
    
        
        <path stroke="#74838f"  stroke-width="2.0"  d="M 682.8089171974522 206 L 682.8089171974522 214" />
        <text x="682.8089171974522" font-family="-apple-system, system-ui, BlinkMacSystemFont, Roboto" y="216" dominant-baseline="hanging" text-anchor="middle" font-size="12" fill="#24292f">Jun 2022</text>
    
        
        <path stroke="#74838f"  stroke-width="2.0"  d="M 861.0891719745223 206 L 861.0891719745223 214" />
        <text x="861.0891719745223" font-family="-apple-system, system-ui, BlinkMacSystemFont, Roboto" y="216" dominant-baseline="hanging" text-anchor="middle" font-size="12" fill="#24292f">Jul 2022</text>
    
    <path stroke="#74838f"   stroke-linejoin="round" stroke-width="2.0" d="M 41 216 L 41 206 L 974 206 L 974 216"  fill="none" />
    <text x="507.5" y="25" font-family="-apple-system, system-ui, BlinkMacSystemFont, Roboto" dominant-baseline="middle" text-anchor="middle" font-size="18" fill="#24292f">Total daily suspensions</text>
</svg>
