<?xml version="1.0" standalone="no"?>
<svg width="1024.0" height="256.0"  viewBox="0 0 1024.0 256.0" preserveAspectRatio="xMidYMid meet" xmlns="http://www.w3.org/2000/svg">
    <path stroke="#e74c3c" stroke-linejoin="round" d="M 50.0 161.108 L 50 161.108L 53.39705882352941 193.664L 56.794117647058826 197.576L 60.19117647058823 197.924L 63.588235294117645 203.528L 66.98529411764706 199.94L 70.38235294117646 199.268L 73.77941176470588 191.108L 77.17647058823529 200.972L 80.57352941176471 198.62L 83.97058823529412 200L 87.36764705882354 202.57999999999998L 90.76470588235294 199.208L 94.16176470588235 195.608L 97.55882352941177 202.652L 100.95588235294117 198.716L 104.35294117647058 197.49200000000002L 107.75 191.42000000000002L 111.14705882352942 196.688L 114.54411764705883 199.46L 117.94117647058823 199.328L 121.33823529411765 198.308L 124.73529411764706 198.164L 128.13235294117646 199.832L 131.52941176470588 194.876L 134.9264705882353 199.904L 138.3235294117647 195.584L 141.72058823529412 200.732L 145.11764705882354 198.416L 148.51470588235293 190.652L 151.91176470588235 196.112L 155.30882352941177 190.82L 158.70588235294116 193.53199999999998L 162.1029411764706 199.688L 165.5 192.392L 168.8970588235294 197L 172.29411764705884 199.59199999999998L 175.69117647058823 193.54399999999998L 179.08823529411765 195.26L 182.48529411764704 195.428L 185.88235294117646 195.548L 189.27941176470588 196.484L 192.6764705882353 199.424L 196.0735294117647 199.22L 199.47058823529412 195.656L 202.86764705882354 193.952L 206.26470588235296 195.536L 209.66176470588235 198.764L 213.05882352941177 195.428L 216.4558823529412 194L 219.8529411764706 193.688L 223.25 186.32L 226.6470588235294 197.372L 230.0441176470588 195.96800000000002L 233.44117647058823 198.284L 236.83823529411765 194.38400000000001L 240.23529411764704 196.424L 243.63235294117646 196.988L 247.02941176470588 198.368L 250.4264705882353 198.05599999999998L 253.8235294117647 199.61599999999999L 257.22058823529414 191.54L 260.61764705882354 202.124L 264.0147058823529 193.34L 267.4117647058823 204.2L 270.80882352941177 206L 274.2058823529412 206L 277.6029411764706 206L 281 206L 284.3970588235294 190.472L 287.7941176470588 159.01999999999998L 291.1911764705883 193.56799999999998L 294.5882352941177 200.228L 297.9852941176471 193.232L 301.38235294117646 196.82L 304.7794117647059 199.772L 308.1764705882353 186.548L 311.5735294117647 197.888L 314.9705882352941 195.596L 318.36764705882354 190.508L 321.7647058823529 194.876L 325.1617647058824 190.4L 328.55882352941177 188.756L 331.9558823529412 197.852L 335.3529411764706 199.772L 338.75 191.936L 342.1470588235294 191.864L 345.5441176470588 199.316L 348.94117647058823 194.708L 352.3382352941176 192.608L 355.7352941176471 194.9L 359.13235294117646 199.7L 362.5294117647059 189.224L 365.9264705882353 198.428L 369.3235294117647 196.136L 372.7205882352941 195.296L 376.11764705882354 196.268L 379.5147058823529 193.184L 382.9117647058824 197.204L 386.30882352941177 193.856L 389.7058823529412 197.096L 393.1029411764706 178.16L 396.5 194.372L 399.8970588235294 195.92000000000002L 403.2941176470588 195.11599999999999L 406.69117647058823 196.688L 410.0882352941176 197.49200000000002L 413.4852941176471 197.696L 416.88235294117646 186.848L 420.2794117647059 192.644L 423.6764705882353 199.61599999999999L 427.0735294117647 193.052L 430.4705882352941 191.072L 433.86764705882354 195.44L 437.2647058823529 196.184L 440.6617647058824 196.46L 444.05882352941177 197.312L 447.4558823529412 193.076L 450.8529411764706 206L 454.25 186.44L 457.6470588235294 186.632L 461.0441176470588 191.276L 464.44117647058823 180.93200000000002L 467.8382352941176 201.704L 471.2352941176471 185.744L 474.63235294117646 196.028L 478.0294117647059 189.464L 481.4264705882353 194.228L 484.8235294117647 195.632L 488.2205882352941 196.844L 491.61764705882354 186.332L 495.0147058823529 197.99599999999998L 498.4117647058824 188.924L 501.80882352941177 189.128L 505.2058823529412 196.748L 508.6029411764706 182.45600000000002L 512 184.16L 515.3970588235294 206L 518.7941176470588 206L 522.1911764705882 206L 525.5882352941176 160.16L 528.9852941176471 198.536L 532.3823529411766 196.60399999999998L 535.7794117647059 195.668L 539.1764705882354 192.8L 542.5735294117646 196.964L 545.9705882352941 197.828L 549.3676470588234 200.84L 552.7647058823529 170.312L 556.1617647058824 189.236L 559.5588235294118 177.428L 562.9558823529412 191.564L 566.3529411764706 178.784L 569.75 176.372L 573.1470588235294 181.7L 576.5441176470588 187.472L 579.9411764705882 192.88400000000001L 583.3382352941176 189.38L 586.7352941176471 187.772L 590.1323529411765 189.404L 593.5294117647059 187.532L 596.9264705882352 193.59199999999998L 600.3235294117648 185.036L 603.7205882352941 171.332L 607.1176470588235 180.14L 610.5147058823529 172.316L 613.9117647058824 193.028L 617.3088235294118 191.996L 620.7058823529412 193.052L 624.1029411764706 194.84L 627.5 193.53199999999998L 630.8970588235294 194.024L 634.2941176470588 189.272L 637.6911764705882 195.188L 641.0882352941176 196.256L 644.4852941176471 192.62L 647.8823529411765 190.844L 651.2794117647059 200.984L 654.6764705882352 184.796L 658.0735294117648 190.88L 661.4705882352941 194.42000000000002L 664.8676470588235 189.86L 668.2647058823529 195.86L 671.6617647058824 191.984L 675.0588235294118 193.1L 678.4558823529412 186.464L 681.8529411764706 190.46L 685.25 182.156L 688.6470588235294 187.136L 692.0441176470588 191.528L 695.4411764705882 184.1L 698.8382352941176 189.14L 702.2352941176471 185.204L 705.6323529411765 185.468L 709.0294117647059 176.828L 712.4264705882352 189.04399999999998L 715.8235294117648 191.048L 719.2205882352941 188.756L 722.6176470588235 187.592L 726.0147058823529 191.39600000000002L 729.4117647058824 187.796L 732.8088235294118 188.228L 736.2058823529412 190.268L 739.6029411764706 194.372L 743 194.72L 746.3970588235294 201.308L 749.7941176470588 192.752L 753.1911764705882 181.148L 756.5882352941176 181.748L 759.9852941176471 181.208L 763.3823529411765 191.3L 766.7794117647059 186.88400000000001L 770.1764705882352 181.376L 773.5735294117648 186.5L 776.9705882352941 188.44400000000002L 780.3676470588235 179.66L 783.7647058823529 183.09199999999998L 787.1617647058824 173.564L 790.5588235294118 183.836L 793.9558823529412 171.668L 797.3529411764706 148.148L 800.75 178.004L 804.1470588235294 141.86L 807.5441176470588 186.128L 810.9411764705882 188.54000000000002L 814.3382352941176 187.748L 817.7352941176471 193.256L 821.1323529411765 186.596L 824.5294117647059 185.42000000000002L 827.9264705882352 186.872L 831.3235294117648 185.372L 834.7205882352941 192.824L 838.1176470588235 188.552L 841.5147058823529 189.32L 844.9117647058824 186.632L 848.3088235294118 185.768L 851.7058823529412 188.744L 855.1029411764706 187.34L 858.5 192.488L 861.8970588235294 187.028L 865.2941176470588 185.468L 868.6911764705882 181.928L 872.0882352941176 183.8L 875.4852941176471 180.296L 878.8823529411765 185.516L 882.2794117647059 194L 885.6764705882352 190.328L 889.0735294117648 186.584L 892.4705882352941 168.32L 895.8676470588235 117.5L 899.2647058823529 189.10399999999998L 902.6617647058824 187.844L 906.0588235294118 190.28L 909.4558823529412 192.32L 912.8529411764706 189.2L 916.25 182.288L 919.6470588235294 188.49200000000002L 923.0441176470588 178.916L 926.4411764705882 53.432000000000016L 929.8382352941176 162.656L 933.2352941176471 184.52L 936.6323529411765 182.708L 940.0294117647059 183.68L 943.4264705882352 184.196L 946.8235294117648 179.084L 950.2205882352941 190.16L 953.6176470588235 180.476L 957.0147058823529 160.916L 960.4117647058824 121.196L 963.8088235294118 151.50799999999998L 967.2058823529412 164.132L 970.6029411764706 181.184L 974 188.48000000000002" stroke-width="2.0" fill="none" />
    
        
        
        <text x="45.0" font-family="-apple-system, system-ui, BlinkMacSystemFont, Roboto" y="50.0" dominant-baseline="middle" text-anchor="end" font-size="12" fill="#24292f">13000.0</text>
        
            
            <path stroke="#74838f" stroke-dasharray="10 6" stroke-width="0.5"  d="M 50.0 50.0 L 974.0 50.0" />
        
    
        
        
        <text x="45.0" font-family="-apple-system, system-ui, BlinkMacSystemFont, Roboto" y="81.2" dominant-baseline="middle" text-anchor="end" font-size="12" fill="#24292f">10400.0</text>
        
            
            
            <path stroke="#74838f" stroke-dasharray="10 6" stroke-width="0.5"  d="M 50.0 81.2 L 974.0 81.2" />
        
    
        
        
        <text x="45.0" font-family="-apple-system, system-ui, BlinkMacSystemFont, Roboto" y="112.4" dominant-baseline="middle" text-anchor="end" font-size="12" fill="#24292f">7800.0</text>
        
            
            
            <path stroke="#74838f" stroke-dasharray="10 6" stroke-width="0.5"  d="M 50.0 112.4 L 974.0 112.4" />
        
    
        
        
        <text x="45.0" font-family="-apple-system, system-ui, BlinkMacSystemFont, Roboto" y="143.6" dominant-baseline="middle" text-anchor="end" font-size="12" fill="#24292f">5200.0</text>
        
            
            
            <path stroke="#74838f" stroke-dasharray="10 6" stroke-width="0.5"  d="M 50.0 143.6 L 974.0 143.6" />
        
    
        
        
        <text x="45.0" font-family="-apple-system, system-ui, BlinkMacSystemFont, Roboto" y="174.8" dominant-baseline="middle" text-anchor="end" font-size="12" fill="#24292f">2600.0</text>
        
            
            
            <path stroke="#74838f" stroke-dasharray="10 6" stroke-width="0.5"  d="M 50.0 174.8 L 974.0 174.8" />
        
    
        
        
        <text x="45.0" font-family="-apple-system, system-ui, BlinkMacSystemFont, Roboto" y="206.0" dominant-baseline="middle" text-anchor="end" font-size="12" fill="#24292f">0.0</text>
        
    
    
        
        <path stroke="#74838f"  stroke-width="2.0"  d="M 104.35294117647058 206.0 L 104.35294117647058 214.0" />
        <text x="104.35294117647058" font-family="-apple-system, system-ui, BlinkMacSystemFont, Roboto" y="216.0" dominant-baseline="hanging" text-anchor="middle" font-size="12" fill="#24292f">Mar 2022</text>
    
        
        <path stroke="#74838f"  stroke-width="2.0"  d="M 209.66176470588235 206.0 L 209.66176470588235 214.0" />
        <text x="209.66176470588235" font-family="-apple-system, system-ui, BlinkMacSystemFont, Roboto" y="216.0" dominant-baseline="hanging" text-anchor="middle" font-size="12" fill="#24292f">Apr 2022</text>
    
        
        <path stroke="#74838f"  stroke-width="2.0"  d="M 311.5735294117647 206.0 L 311.5735294117647 214.0" />
        <text x="311.5735294117647" font-family="-apple-system, system-ui, BlinkMacSystemFont, Roboto" y="216.0" dominant-baseline="hanging" text-anchor="middle" font-size="12" fill="#24292f">May 2022</text>
    
        
        <path stroke="#74838f"  stroke-width="2.0"  d="M 416.88235294117646 206.0 L 416.88235294117646 214.0" />
        <text x="416.88235294117646" font-family="-apple-system, system-ui, BlinkMacSystemFont, Roboto" y="216.0" dominant-baseline="hanging" text-anchor="middle" font-size="12" fill="#24292f">Jun 2022</text>
    
        
        <path stroke="#74838f"  stroke-width="2.0"  d="M 518.7941176470588 206.0 L 518.7941176470588 214.0" />
        <text x="518.7941176470588" font-family="-apple-system, system-ui, BlinkMacSystemFont, Roboto" y="216.0" dominant-baseline="hanging" text-anchor="middle" font-size="12" fill="#24292f">Jul 2022</text>
    
        
        <path stroke="#74838f"  stroke-width="2.0"  d="M 624.1029411764706 206.0 L 624.1029411764706 214.0" />
        <text x="624.1029411764706" font-family="-apple-system, system-ui, BlinkMacSystemFont, Roboto" y="216.0" dominant-baseline="hanging" text-anchor="middle" font-size="12" fill="#24292f">Aug 2022</text>
    
        
        <path stroke="#74838f"  stroke-width="2.0"  d="M 729.4117647058824 206.0 L 729.4117647058824 214.0" />
        <text x="729.4117647058824" font-family="-apple-system, system-ui, BlinkMacSystemFont, Roboto" y="216.0" dominant-baseline="hanging" text-anchor="middle" font-size="12" fill="#24292f">Sep 2022</text>
    
        
        <path stroke="#74838f"  stroke-width="2.0"  d="M 831.3235294117648 206.0 L 831.3235294117648 214.0" />
        <text x="831.3235294117648" font-family="-apple-system, system-ui, BlinkMacSystemFont, Roboto" y="216.0" dominant-baseline="hanging" text-anchor="middle" font-size="12" fill="#24292f">Oct 2022</text>
    
        
        <path stroke="#74838f"  stroke-width="2.0"  d="M 936.6323529411765 206.0 L 936.6323529411765 214.0" />
        <text x="936.6323529411765" font-family="-apple-system, system-ui, BlinkMacSystemFont, Roboto" y="216.0" dominant-baseline="hanging" text-anchor="middle" font-size="12" fill="#24292f">Nov 2022</text>
    
    <path stroke="#74838f"   stroke-linejoin="round" stroke-width="2.0" d="M 50.0 216.0 L 50.0 206.0 L 974.0 206.0 L 974.0 216.0"  fill="none" />
    <text x="512.0" y="25.0" font-family="-apple-system, system-ui, BlinkMacSystemFont, Roboto" dominant-baseline="middle" text-anchor="middle" font-size="18" fill="#24292f">Total daily suspensions</text>
</svg>
