<?xml version="1.0" standalone="no"?>
<svg width="1024.0" height="256.0"  viewBox="0 0 1024.0 256.0" preserveAspectRatio="xMidYMid meet" xmlns="http://www.w3.org/2000/svg">
    <path stroke="#e74c3c" stroke-linejoin="round" d="M 50.0 161.108 L 50 161.108L 53.21951219512195 193.664L 56.4390243902439 197.576L 59.65853658536585 197.924L 62.8780487804878 203.528L 66.09756097560975 199.94L 69.3170731707317 199.268L 72.53658536585365 191.108L 75.7560975609756 200.972L 78.97560975609755 198.62L 82.1951219512195 200L 85.41463414634146 202.57999999999998L 88.63414634146342 199.208L 91.85365853658537 195.608L 95.07317073170732 202.652L 98.29268292682927 198.716L 101.51219512195122 197.49200000000002L 104.73170731707317 191.42000000000002L 107.95121951219512 196.688L 111.17073170731707 199.46L 114.39024390243902 199.328L 117.60975609756098 198.308L 120.82926829268293 198.164L 124.04878048780488 199.832L 127.26829268292684 194.876L 130.4878048780488 199.904L 133.70731707317074 195.584L 136.9268292682927 200.732L 140.14634146341464 198.416L 143.3658536585366 190.652L 146.58536585365854 196.112L 149.8048780487805 190.82L 153.02439024390245 193.53199999999998L 156.2439024390244 199.688L 159.46341463414635 192.392L 162.6829268292683 197L 165.90243902439025 199.59199999999998L 169.1219512195122 193.54399999999998L 172.34146341463415 195.26L 175.5609756097561 195.428L 178.78048780487805 195.548L 182 196.484L 185.21951219512195 199.424L 188.4390243902439 199.22L 191.65853658536585 195.656L 194.8780487804878 193.952L 198.09756097560975 195.536L 201.3170731707317 198.764L 204.53658536585368 195.428L 207.75609756097563 194L 210.97560975609758 193.688L 214.19512195121953 186.32L 217.41463414634148 197.372L 220.63414634146343 195.96800000000002L 223.85365853658539 198.284L 227.07317073170734 194.38400000000001L 230.2926829268293 196.424L 233.51219512195124 196.988L 236.7317073170732 198.368L 239.95121951219514 198.05599999999998L 243.1707317073171 199.61599999999999L 246.39024390243904 191.54L 249.609756097561 202.124L 252.82926829268294 193.34L 256.0487804878049 204.2L 259.2682926829268 206L 262.4878048780488 206L 265.70731707317077 206L 268.9268292682927 206L 272.1463414634146 190.472L 275.3658536585366 159.01999999999998L 278.5853658536586 193.56799999999998L 281.8048780487805 200.228L 285.0243902439024 193.232L 288.2439024390244 196.82L 291.4634146341464 199.772L 294.6829268292683 186.548L 297.9024390243902 197.888L 301.1219512195122 195.596L 304.3414634146342 190.508L 307.5609756097561 194.876L 310.7804878048781 190.4L 314 188.756L 317.219512195122 197.852L 320.4390243902439 199.772L 323.6585365853659 191.936L 326.8780487804878 191.864L 330.0975609756098 199.316L 333.3170731707317 194.708L 336.5365853658537 192.608L 339.7560975609756 194.9L 342.9756097560976 199.7L 346.1951219512195 189.224L 349.4146341463415 198.428L 352.6341463414634 196.136L 355.8536585365854 195.296L 359.07317073170736 196.268L 362.2926829268293 193.184L 365.51219512195127 197.204L 368.7317073170732 193.856L 371.95121951219517 197.096L 375.1707317073171 178.16L 378.39024390243907 194.372L 381.609756097561 195.92000000000002L 384.82926829268297 195.11599999999999L 388.0487804878049 196.688L 391.26829268292687 197.49200000000002L 394.4878048780488 197.696L 397.70731707317077 186.848L 400.9268292682927 192.644L 404.1463414634147 199.61599999999999L 407.3658536585366 193.052L 410.5853658536586 191.072L 413.8048780487805 195.44L 417.0243902439025 196.184L 420.2439024390244 196.46L 423.4634146341464 197.312L 426.6829268292683 193.076L 429.9024390243903 206L 433.1219512195122 186.44L 436.3414634146342 186.632L 439.5609756097561 191.276L 442.7804878048781 180.93200000000002L 446 201.704L 449.219512195122 185.744L 452.4390243902439 196.028L 455.6585365853659 189.464L 458.8780487804878 194.228L 462.0975609756098 195.632L 465.31707317073176 196.844L 468.5365853658537 186.332L 471.7560975609756 197.99599999999998L 474.9756097560976 188.924L 478.1951219512195 189.128L 481.4146341463415 196.748L 484.6341463414634 182.45600000000002L 487.8536585365854 184.16L 491.0731707317073 206L 494.2926829268293 206L 497.5121951219512 206L 500.7317073170732 160.16L 503.9512195121951 198.536L 507.1707317073171 196.60399999999998L 510.390243902439 195.668L 513.609756097561 192.8L 516.8292682926829 196.964L 520.0487804878048 197.828L 523.2682926829268 200.84L 526.4878048780488 170.312L 529.7073170731708 189.236L 532.9268292682927 177.428L 536.1463414634146 191.564L 539.3658536585366 178.784L 542.5853658536585 176.372L 545.8048780487804 181.7L 549.0243902439024 187.472L 552.2439024390244 192.88400000000001L 555.4634146341464 189.38L 558.6829268292684 187.772L 561.9024390243902 189.404L 565.1219512195122 187.532L 568.3414634146342 193.59199999999998L 571.5609756097562 185.036L 574.780487804878 171.332L 578 180.14L 581.219512195122 172.316L 584.439024390244 193.028L 587.6585365853658 191.996L 590.8780487804878 193.052L 594.0975609756098 194.84L 597.3170731707318 193.53199999999998L 600.5365853658536 194.024L 603.7560975609756 189.272L 606.9756097560976 195.188L 610.1951219512196 196.256L 613.4146341463414 192.62L 616.6341463414634 190.844L 619.8536585365854 200.984L 623.0731707317074 184.796L 626.2926829268292 190.88L 629.5121951219512 194.42000000000002L 632.7317073170732 189.86L 635.9512195121952 195.86L 639.170731707317 191.984L 642.390243902439 193.1L 645.609756097561 186.464L 648.829268292683 190.46L 652.0487804878048 182.156L 655.2682926829268 187.136L 658.4878048780488 191.528L 661.7073170731708 184.1L 664.9268292682926 189.14L 668.1463414634147 185.204L 671.3658536585366 185.468L 674.5853658536586 176.828L 677.8048780487804 189.04399999999998L 681.0243902439025 191.048L 684.2439024390244 188.756L 687.4634146341464 187.592L 690.6829268292682 191.39600000000002L 693.9024390243903 187.796L 697.1219512195122 188.228L 700.3414634146342 190.268L 703.560975609756 194.372L 706.7804878048781 194.72L 710 201.308L 713.219512195122 192.752L 716.4390243902438 181.148L 719.6585365853659 181.748L 722.8780487804878 181.208L 726.0975609756098 191.3L 729.3170731707316 186.88400000000001L 732.5365853658537 181.376L 735.7560975609756 186.5L 738.9756097560976 188.44400000000002L 742.1951219512194 179.66L 745.4146341463415 183.09199999999998L 748.6341463414634 173.564L 751.8536585365854 183.836L 755.0731707317073 171.668L 758.2926829268293 148.148L 761.5121951219512 178.004L 764.7317073170732 141.86L 767.951219512195 186.128L 771.1707317073171 188.54000000000002L 774.390243902439 187.748L 777.609756097561 193.256L 780.829268292683 186.596L 784.048780487805 185.42000000000002L 787.2682926829268 186.872L 790.4878048780488 185.372L 793.7073170731708 192.824L 796.9268292682927 188.552L 800.1463414634146 189.32L 803.3658536585366 186.632L 806.5853658536586 185.768L 809.8048780487806 188.744L 813.0243902439024 187.34L 816.2439024390244 192.488L 819.4634146341464 187.028L 822.6829268292684 185.468L 825.9024390243902 181.928L 829.1219512195122 183.8L 832.3414634146342 180.296L 835.5609756097562 185.516L 838.780487804878 194L 842 190.328L 845.219512195122 186.584L 848.439024390244 168.32L 851.6585365853658 117.5L 854.8780487804878 189.10399999999998L 858.0975609756098 187.844L 861.3170731707318 190.28L 864.5365853658536 192.32L 867.7560975609756 189.2L 870.9756097560976 182.288L 874.1951219512196 188.49200000000002L 877.4146341463414 178.916L 880.6341463414635 53.432000000000016L 883.8536585365854 162.656L 887.0731707317074 184.52L 890.2926829268292 182.708L 893.5121951219512 183.68L 896.7317073170732 184.196L 899.9512195121952 179.084L 903.170731707317 190.16L 906.390243902439 180.476L 909.609756097561 160.916L 912.829268292683 121.196L 916.0487804878048 151.50799999999998L 919.2682926829268 164.132L 922.4878048780488 181.184L 925.7073170731708 170.49200000000002L 928.9268292682926 179.792L 932.1463414634146 173.144L 935.3658536585366 178.352L 938.5853658536586 182.792L 941.8048780487804 177.152L 945.0243902439024 184.232L 948.2439024390244 187.796L 951.4634146341464 188.336L 954.6829268292682 184.64L 957.9024390243902 181.868L 961.1219512195122 181.772L 964.3414634146342 179.276L 967.560975609756 168.176L 970.780487804878 181.916L 974 202.844" stroke-width="2.0" fill="none" />
    
        
        
        <text x="45.0" font-family="-apple-system, system-ui, BlinkMacSystemFont, Roboto" y="50.0" dominant-baseline="middle" text-anchor="end" font-size="12" fill="#24292f">13000.0</text>
        
            
            <path stroke="#74838f" stroke-dasharray="10 6" stroke-width="0.5"  d="M 50.0 50.0 L 974.0 50.0" />
        
    
        
        
        <text x="45.0" font-family="-apple-system, system-ui, BlinkMacSystemFont, Roboto" y="81.2" dominant-baseline="middle" text-anchor="end" font-size="12" fill="#24292f">10400.0</text>
        
            
            
            <path stroke="#74838f" stroke-dasharray="10 6" stroke-width="0.5"  d="M 50.0 81.2 L 974.0 81.2" />
        
    
        
        
        <text x="45.0" font-family="-apple-system, system-ui, BlinkMacSystemFont, Roboto" y="112.4" dominant-baseline="middle" text-anchor="end" font-size="12" fill="#24292f">7800.0</text>
        
            
            
            <path stroke="#74838f" stroke-dasharray="10 6" stroke-width="0.5"  d="M 50.0 112.4 L 974.0 112.4" />
        
    
        
        
        <text x="45.0" font-family="-apple-system, system-ui, BlinkMacSystemFont, Roboto" y="143.6" dominant-baseline="middle" text-anchor="end" font-size="12" fill="#24292f">5200.0</text>
        
            
            
            <path stroke="#74838f" stroke-dasharray="10 6" stroke-width="0.5"  d="M 50.0 143.6 L 974.0 143.6" />
        
    
        
        
        <text x="45.0" font-family="-apple-system, system-ui, BlinkMacSystemFont, Roboto" y="174.8" dominant-baseline="middle" text-anchor="end" font-size="12" fill="#24292f">2600.0</text>
        
            
            
            <path stroke="#74838f" stroke-dasharray="10 6" stroke-width="0.5"  d="M 50.0 174.8 L 974.0 174.8" />
        
    
        
        
        <text x="45.0" font-family="-apple-system, system-ui, BlinkMacSystemFont, Roboto" y="206.0" dominant-baseline="middle" text-anchor="end" font-size="12" fill="#24292f">0.0</text>
        
    
    
        
        <path stroke="#74838f"  stroke-width="2.0"  d="M 101.51219512195122 206.0 L 101.51219512195122 214.0" />
        <text x="101.51219512195122" font-family="-apple-system, system-ui, BlinkMacSystemFont, Roboto" y="216.0" dominant-baseline="hanging" text-anchor="middle" font-size="12" fill="#24292f">Mar 2022</text>
    
        
        <path stroke="#74838f"  stroke-width="2.0"  d="M 201.3170731707317 206.0 L 201.3170731707317 214.0" />
        <text x="201.3170731707317" font-family="-apple-system, system-ui, BlinkMacSystemFont, Roboto" y="216.0" dominant-baseline="hanging" text-anchor="middle" font-size="12" fill="#24292f">Apr 2022</text>
    
        
        <path stroke="#74838f"  stroke-width="2.0"  d="M 297.9024390243902 206.0 L 297.9024390243902 214.0" />
        <text x="297.9024390243902" font-family="-apple-system, system-ui, BlinkMacSystemFont, Roboto" y="216.0" dominant-baseline="hanging" text-anchor="middle" font-size="12" fill="#24292f">May 2022</text>
    
        
        <path stroke="#74838f"  stroke-width="2.0"  d="M 397.70731707317077 206.0 L 397.70731707317077 214.0" />
        <text x="397.70731707317077" font-family="-apple-system, system-ui, BlinkMacSystemFont, Roboto" y="216.0" dominant-baseline="hanging" text-anchor="middle" font-size="12" fill="#24292f">Jun 2022</text>
    
        
        <path stroke="#74838f"  stroke-width="2.0"  d="M 494.2926829268293 206.0 L 494.2926829268293 214.0" />
        <text x="494.2926829268293" font-family="-apple-system, system-ui, BlinkMacSystemFont, Roboto" y="216.0" dominant-baseline="hanging" text-anchor="middle" font-size="12" fill="#24292f">Jul 2022</text>
    
        
        <path stroke="#74838f"  stroke-width="2.0"  d="M 594.0975609756098 206.0 L 594.0975609756098 214.0" />
        <text x="594.0975609756098" font-family="-apple-system, system-ui, BlinkMacSystemFont, Roboto" y="216.0" dominant-baseline="hanging" text-anchor="middle" font-size="12" fill="#24292f">Aug 2022</text>
    
        
        <path stroke="#74838f"  stroke-width="2.0"  d="M 693.9024390243903 206.0 L 693.9024390243903 214.0" />
        <text x="693.9024390243903" font-family="-apple-system, system-ui, BlinkMacSystemFont, Roboto" y="216.0" dominant-baseline="hanging" text-anchor="middle" font-size="12" fill="#24292f">Sep 2022</text>
    
        
        <path stroke="#74838f"  stroke-width="2.0"  d="M 790.4878048780488 206.0 L 790.4878048780488 214.0" />
        <text x="790.4878048780488" font-family="-apple-system, system-ui, BlinkMacSystemFont, Roboto" y="216.0" dominant-baseline="hanging" text-anchor="middle" font-size="12" fill="#24292f">Oct 2022</text>
    
        
        <path stroke="#74838f"  stroke-width="2.0"  d="M 890.2926829268292 206.0 L 890.2926829268292 214.0" />
        <text x="890.2926829268292" font-family="-apple-system, system-ui, BlinkMacSystemFont, Roboto" y="216.0" dominant-baseline="hanging" text-anchor="middle" font-size="12" fill="#24292f">Nov 2022</text>
    
    <path stroke="#74838f"   stroke-linejoin="round" stroke-width="2.0" d="M 50.0 216.0 L 50.0 206.0 L 974.0 206.0 L 974.0 216.0"  fill="none" />
    <text x="512.0" y="25.0" font-family="-apple-system, system-ui, BlinkMacSystemFont, Roboto" dominant-baseline="middle" text-anchor="middle" font-size="18" fill="#24292f">Total daily suspensions</text>
</svg>
