<?xml version="1.0" standalone="no"?>
<svg width="1024.0" height="256.0"  viewBox="0 0 1024.0 256.0" preserveAspectRatio="xMidYMid meet" xmlns="http://www.w3.org/2000/svg">
    <path stroke="#e74c3c" stroke-linejoin="round" d="M 50.0 161.108 L 50 161.108L 52.292803970223325 193.664L 54.58560794044665 197.576L 56.878411910669975 197.924L 59.1712158808933 203.528L 61.464019851116625 199.94L 63.75682382133995 199.268L 66.04962779156327 191.108L 68.3424317617866 200.972L 70.63523573200993 198.62L 72.92803970223325 200L 75.22084367245658 202.57999999999998L 77.5136476426799 199.208L 79.80645161290323 195.608L 82.09925558312655 202.652L 84.39205955334987 198.716L 86.6848635235732 197.49200000000002L 88.97766749379653 191.42000000000002L 91.27047146401985 196.688L 93.56327543424317 199.46L 95.8560794044665 199.328L 98.14888337468983 198.308L 100.44168734491316 198.164L 102.73449131513647 199.832L 105.0272952853598 194.876L 107.32009925558313 199.904L 109.61290322580645 195.584L 111.90570719602977 200.732L 114.1985111662531 198.416L 116.49131513647643 190.652L 118.78411910669975 196.112L 121.07692307692308 190.82L 123.3697270471464 193.53199999999998L 125.66253101736973 199.688L 127.95533498759306 192.392L 130.24813895781637 197L 132.5409429280397 199.59199999999998L 134.83374689826303 193.54399999999998L 137.12655086848633 195.26L 139.4193548387097 195.428L 141.712158808933 195.548L 144.00496277915633 196.484L 146.29776674937966 199.424L 148.59057071960297 199.22L 150.88337468982633 195.656L 153.17617866004963 193.952L 155.46898263027293 195.536L 157.7617866004963 198.764L 160.0545905707196 195.428L 162.34739454094293 194L 164.64019851116626 193.688L 166.93300248138956 186.32L 169.2258064516129 197.372L 171.51861042183623 195.96800000000002L 173.81141439205953 198.284L 176.1042183622829 194.38400000000001L 178.3970223325062 196.424L 180.68982630272953 196.988L 182.98263027295286 198.368L 185.27543424317616 198.05599999999998L 187.5682382133995 199.61599999999999L 189.86104218362283 191.54L 192.15384615384616 202.124L 194.4466501240695 193.34L 196.7394540942928 204.2L 199.03225806451613 206L 201.32506203473946 206L 203.61786600496276 206L 205.91066997518612 206L 208.20347394540943 190.472L 210.49627791563276 159.01999999999998L 212.78908188585606 193.56799999999998L 215.0818858560794 200.228L 217.37468982630273 193.232L 219.66749379652606 196.82L 221.9602977667494 199.772L 224.2531017369727 186.548L 226.54590570719603 197.888L 228.83870967741936 195.596L 231.13151364764266 190.508L 233.42431761786602 194.876L 235.71712158808933 190.4L 238.00992555831266 188.756L 240.302729528536 197.852L 242.5955334987593 199.772L 244.88833746898263 191.936L 247.18114143920593 191.864L 249.4739454094293 199.316L 251.76674937965262 194.72L 254.05955334987593 192.608L 256.35235732009926 194.9L 258.64516129032256 199.7L 260.93796526054587 189.224L 263.2307692307693 198.428L 265.5235732009926 196.136L 267.8163771712159 195.296L 270.1091811414392 196.268L 272.4019851116625 193.184L 274.69478908188586 197.204L 276.98759305210916 193.856L 279.2803970223325 197.096L 281.5732009925558 178.16L 283.86600496277913 194.372L 286.15880893300255 195.92000000000002L 288.4516129032258 195.11599999999999L 290.74441687344915 196.688L 293.03722084367246 197.49200000000002L 295.33002481389576 197.696L 297.62282878411906 186.848L 299.9156327543424 192.644L 302.2084367245658 199.61599999999999L 304.5012406947891 193.052L 306.7940446650124 191.072L 309.0868486352357 195.44L 311.37965260545906 196.184L 313.67245657568236 196.46L 315.9652605459057 197.312L 318.258064516129 193.076L 320.55086848635233 206L 322.8436724565757 186.44L 325.136476426799 186.632L 327.42928039702235 191.276L 329.72208436724566 180.93200000000002L 332.01488833746896 201.704L 334.3076923076923 185.744L 336.6004962779156 196.028L 338.893300248139 189.464L 341.1861042183623 194.228L 343.4789081885856 195.632L 345.77171215880895 196.844L 348.06451612903226 186.332L 350.3573200992556 197.99599999999998L 352.6501240694789 188.924L 354.9429280397022 189.128L 357.2357320099255 196.748L 359.5285359801489 182.45600000000002L 361.82133995037225 184.16L 364.1141439205955 206L 366.40694789081886 206L 368.69975186104216 206L 370.9925558312655 160.16L 373.2853598014889 198.536L 375.5781637717121 196.60399999999998L 377.8709677419355 195.668L 380.1637717121588 192.8L 382.45657568238215 196.964L 384.74937965260546 197.828L 387.04218362282876 200.84L 389.3349875930521 170.312L 391.6277915632754 189.236L 393.9205955334988 177.428L 396.2133995037221 191.564L 398.5062034739454 178.784L 400.7990074441687 176.372L 403.09181141439205 181.7L 405.3846153846154 187.472L 407.6774193548387 192.88400000000001L 409.970223325062 189.38L 412.2630272952853 187.772L 414.5558312655087 189.404L 416.84863523573205 187.532L 419.14143920595535 193.59199999999998L 421.43424317617865 185.036L 423.72704714640196 171.332L 426.0198511166253 180.14L 428.3126550868486 172.316L 430.605459057072 193.028L 432.8982630272953 191.996L 435.1910669975186 193.052L 437.48387096774195 194.84L 439.77667493796525 193.53199999999998L 442.0694789081886 194.024L 444.36228287841186 189.272L 446.6550868486352 195.188L 448.9478908188586 196.256L 451.2406947890819 192.62L 453.53349875930525 190.844L 455.8263027295285 200.984L 458.11910669975185 184.796L 460.41191066997516 190.88L 462.7047146401985 194.42000000000002L 464.9975186104219 189.86L 467.2903225806451 195.86L 469.5831265508685 191.984L 471.8759305210918 193.1L 474.16873449131515 186.464L 476.4615384615385 190.46L 478.75434243176176 182.156L 481.0471464019851 187.136L 483.3399503722084 191.528L 485.6327543424318 184.1L 487.9255583126551 189.14L 490.2183622828784 185.204L 492.51116625310175 185.468L 494.80397022332505 176.816L 497.0967741935484 189.04399999999998L 499.3895781637717 191.048L 501.682382133995 188.756L 503.9751861042183 187.592L 506.2679900744417 191.39600000000002L 508.56079404466504 187.796L 510.85359801488835 188.228L 513.1464019851117 190.268L 515.439205955335 194.372L 517.7320099255583 194.72L 520.0248138957817 201.308L 522.3176178660051 192.752L 524.6104218362282 181.148L 526.9032258064516 181.748L 529.196029776675 181.208L 531.4888337468983 191.3L 533.7816377171216 186.88400000000001L 536.0744416873449 181.376L 538.3672456575682 186.5L 540.6600496277915 188.44400000000002L 542.9528535980149 179.66L 545.2456575682381 183.09199999999998L 547.5384615384614 173.564L 549.8312655086849 183.836L 552.1240694789083 171.668L 554.4168734491316 148.148L 556.7096774193549 178.004L 559.0024813895782 141.86L 561.2952853598015 186.128L 563.5880893300248 188.54000000000002L 565.8808933002482 187.748L 568.1736972704714 193.256L 570.4665012406948 186.596L 572.7593052109181 185.42000000000002L 575.0521091811414 186.872L 577.3449131513647 185.372L 579.637717121588 192.824L 581.9305210918114 188.552L 584.2233250620347 189.32L 586.516129032258 186.632L 588.8089330024814 185.768L 591.1017369727047 188.744L 593.3945409429281 187.34L 595.6873449131514 192.488L 597.9801488833747 187.028L 600.272952853598 185.468L 602.5657568238213 181.928L 604.8585607940447 183.8L 607.151364764268 180.296L 609.4441687344913 185.516L 611.7369727047146 194L 614.0297766749379 190.328L 616.3225806451613 186.584L 618.6153846153846 168.32L 620.908188585608 117.5L 623.2009925558312 189.10399999999998L 625.4937965260546 187.844L 627.786600496278 190.28L 630.0794044665013 192.32L 632.3722084367246 189.2L 634.6650124069479 182.288L 636.9578163771712 188.49200000000002L 639.2506203473946 178.916L 641.5434243176179 53.432000000000016L 643.8362282878412 162.656L 646.1290322580645 184.52L 648.4218362282878 182.708L 650.7146401985112 183.68L 653.0074441687345 184.196L 655.3002481389578 179.084L 657.5930521091811 190.16L 659.8858560794044 180.476L 662.1786600496279 160.916L 664.471464019851 121.196L 666.7642679900744 151.50799999999998L 669.0570719602978 164.132L 671.3498759305211 181.184L 673.6426799007445 170.49200000000002L 675.9354838709677 179.792L 678.228287841191 173.204L 680.5210918114144 178.352L 682.8138957816377 182.792L 685.1066997518611 177.152L 687.3995037220843 184.232L 689.6923076923076 187.796L 691.985111662531 188.348L 694.2779156327543 184.736L 696.5707196029778 181.892L 698.863523573201 181.796L 701.1563275434243 179.36L 703.4491315136477 168.176L 705.741935483871 181.808L 708.0347394540943 185.372L 710.3275434243176 167.708L 712.6203473945409 140.6L 714.9131513647643 160.784L 717.2059553349876 151.664L 719.4987593052109 145.952L 721.7915632754342 155.288L 724.0843672456575 153.68L 726.3771712158809 163.04L 728.6699751861042 172.064L 730.9627791563275 148.952L 733.2555831265508 171.812L 735.5483870967741 172.46L 737.8411910669976 172.508L 740.1339950372209 183.644L 742.4267990074442 166.304L 744.7196029776675 159.26L 747.0124069478908 172.652L 749.3052109181142 165.5L 751.5980148883374 154.892L 753.8908188585608 173.888L 756.1836228287841 176.3L 758.4764267990074 186.5L 760.7692307692308 183.932L 763.062034739454 183.10399999999998L 765.3548387096774 150.128L 767.6476426799007 183.11599999999999L 769.940446650124 186.152L 772.2332506203475 185.096L 774.5260545905707 182.276L 776.8188585607941 182.18L 779.1116625310174 182.144L 781.4044665012407 174.956L 783.6972704714641 181.988L 785.9900744416873 179.504L 788.2828784119107 184.784L 790.575682382134 179L 792.8684863523573 175.868L 795.1612903225806 177.14L 797.4540942928039 178.832L 799.7468982630273 182.216L 802.0397022332506 176.444L 804.3325062034739 182.576L 806.6253101736972 177.02L 808.9181141439205 178.58L 811.210918114144 182.144L 813.5037220843673 179.48L 815.7965260545906 176.972L 818.0893300248139 186.164L 820.3821339950372 176.096L 822.6749379652606 178.04L 824.9677419354839 152.996L 827.2605459057071 130.724L 829.5533498759305 149.888L 831.8461538461538 149.48L 834.1389578163772 184.1L 836.4317617866005 184.484L 838.7245657568237 177.56L 841.0173697270471 139.952L 843.3101736972704 148.028L 845.6029776674939 162.428L 847.8957816377172 136.244L 850.1885856079404 132.128L 852.4813895781638 142.508L 854.7741935483871 143.252L 857.0669975186105 125.732L 859.3598014888338 117.06800000000001L 861.652605459057 164.264L 863.9454094292804 161.876L 866.2382133995037 158.636L 868.5310173697271 176.40800000000002L 870.8238213399503 186.632L 873.1166253101736 187.352L 875.409429280397 186.152L 877.7022332506203 174.932L 879.9950372208438 178.388L 882.287841191067 194.636L 884.5806451612902 184.748L 886.8734491315137 182.84L 889.166253101737 173.78L 891.4590570719604 177.56L 893.7518610421836 179.996L 896.0446650124069 183.188L 898.3374689826303 153.68L 900.6302729528536 147.548L 902.923076923077 185.504L 905.2158808933002 190.724L 907.5086848635235 174.752L 909.8014888337469 174.32L 912.0942928039702 183.692L 914.3870967741935 189.06799999999998L 916.6799007444168 186.88400000000001L 918.9727047146401 179.096L 921.2655086848636 175.808L 923.5583126550869 161.672L 925.8511166253102 160.424L 928.1439205955335 165.632L 930.4367245657568 179.336L 932.7295285359802 183.272L 935.0223325062035 191.024L 937.3151364764268 195.14L 939.6079404466501 182.684L 941.9007444168734 162.416L 944.1935483870968 169.712L 946.4863523573201 168.536L 948.7791563275434 179.024L 951.0719602977667 170.768L 953.36476426799 161.9L 955.6575682382135 170.012L 957.9503722084366 180.656L 960.2431761786601 178.796L 962.5359801488834 164.648L 964.8287841191067 152.95999999999998L 967.1215880893301 156.62L 969.4143920595533 154.568L 971.7071960297767 142.088L 974 193.55599999999998" stroke-width="2.0" fill="none" />
    
        
        
        <text x="45.0" font-family="-apple-system, system-ui, BlinkMacSystemFont, Roboto" y="50.0" dominant-baseline="middle" text-anchor="end" font-size="12" fill="#24292f">13000.0</text>
        
            
            <path stroke="#74838f" stroke-dasharray="10 6" stroke-width="0.5"  d="M 50.0 50.0 L 974.0 50.0" />
        
    
        
        
        <text x="45.0" font-family="-apple-system, system-ui, BlinkMacSystemFont, Roboto" y="81.2" dominant-baseline="middle" text-anchor="end" font-size="12" fill="#24292f">10400.0</text>
        
            
            
            <path stroke="#74838f" stroke-dasharray="10 6" stroke-width="0.5"  d="M 50.0 81.2 L 974.0 81.2" />
        
    
        
        
        <text x="45.0" font-family="-apple-system, system-ui, BlinkMacSystemFont, Roboto" y="112.4" dominant-baseline="middle" text-anchor="end" font-size="12" fill="#24292f">7800.0</text>
        
            
            
            <path stroke="#74838f" stroke-dasharray="10 6" stroke-width="0.5"  d="M 50.0 112.4 L 974.0 112.4" />
        
    
        
        
        <text x="45.0" font-family="-apple-system, system-ui, BlinkMacSystemFont, Roboto" y="143.6" dominant-baseline="middle" text-anchor="end" font-size="12" fill="#24292f">5200.0</text>
        
            
            
            <path stroke="#74838f" stroke-dasharray="10 6" stroke-width="0.5"  d="M 50.0 143.6 L 974.0 143.6" />
        
    
        
        
        <text x="45.0" font-family="-apple-system, system-ui, BlinkMacSystemFont, Roboto" y="174.8" dominant-baseline="middle" text-anchor="end" font-size="12" fill="#24292f">2600.0</text>
        
            
            
            <path stroke="#74838f" stroke-dasharray="10 6" stroke-width="0.5"  d="M 50.0 174.8 L 974.0 174.8" />
        
    
        
        
        <text x="45.0" font-family="-apple-system, system-ui, BlinkMacSystemFont, Roboto" y="206.0" dominant-baseline="middle" text-anchor="end" font-size="12" fill="#24292f">0.0</text>
        
    
    
        
        <path stroke="#74838f"  stroke-width="2.0"  d="M 86.6848635235732 206.0 L 86.6848635235732 214.0" />
        <text x="86.6848635235732" font-family="-apple-system, system-ui, BlinkMacSystemFont, Roboto" y="216.0" dominant-baseline="hanging" text-anchor="middle" font-size="12" fill="#24292f">Mar 2022</text>
    
        
        <path stroke="#74838f"  stroke-width="2.0"  d="M 157.7617866004963 206.0 L 157.7617866004963 214.0" />
        <text x="157.7617866004963" font-family="-apple-system, system-ui, BlinkMacSystemFont, Roboto" y="216.0" dominant-baseline="hanging" text-anchor="middle" font-size="12" fill="#24292f">Apr 2022</text>
    
        
        <path stroke="#74838f"  stroke-width="2.0"  d="M 226.54590570719603 206.0 L 226.54590570719603 214.0" />
        <text x="226.54590570719603" font-family="-apple-system, system-ui, BlinkMacSystemFont, Roboto" y="216.0" dominant-baseline="hanging" text-anchor="middle" font-size="12" fill="#24292f">May 2022</text>
    
        
        <path stroke="#74838f"  stroke-width="2.0"  d="M 297.62282878411906 206.0 L 297.62282878411906 214.0" />
        <text x="297.62282878411906" font-family="-apple-system, system-ui, BlinkMacSystemFont, Roboto" y="216.0" dominant-baseline="hanging" text-anchor="middle" font-size="12" fill="#24292f">Jun 2022</text>
    
        
        <path stroke="#74838f"  stroke-width="2.0"  d="M 366.40694789081886 206.0 L 366.40694789081886 214.0" />
        <text x="366.40694789081886" font-family="-apple-system, system-ui, BlinkMacSystemFont, Roboto" y="216.0" dominant-baseline="hanging" text-anchor="middle" font-size="12" fill="#24292f">Jul 2022</text>
    
        
        <path stroke="#74838f"  stroke-width="2.0"  d="M 437.48387096774195 206.0 L 437.48387096774195 214.0" />
        <text x="437.48387096774195" font-family="-apple-system, system-ui, BlinkMacSystemFont, Roboto" y="216.0" dominant-baseline="hanging" text-anchor="middle" font-size="12" fill="#24292f">Aug 2022</text>
    
        
        <path stroke="#74838f"  stroke-width="2.0"  d="M 508.56079404466504 206.0 L 508.56079404466504 214.0" />
        <text x="508.56079404466504" font-family="-apple-system, system-ui, BlinkMacSystemFont, Roboto" y="216.0" dominant-baseline="hanging" text-anchor="middle" font-size="12" fill="#24292f">Sep 2022</text>
    
        
        <path stroke="#74838f"  stroke-width="2.0"  d="M 577.3449131513647 206.0 L 577.3449131513647 214.0" />
        <text x="577.3449131513647" font-family="-apple-system, system-ui, BlinkMacSystemFont, Roboto" y="216.0" dominant-baseline="hanging" text-anchor="middle" font-size="12" fill="#24292f">Oct 2022</text>
    
        
        <path stroke="#74838f"  stroke-width="2.0"  d="M 648.4218362282878 206.0 L 648.4218362282878 214.0" />
        <text x="648.4218362282878" font-family="-apple-system, system-ui, BlinkMacSystemFont, Roboto" y="216.0" dominant-baseline="hanging" text-anchor="middle" font-size="12" fill="#24292f">Nov 2022</text>
    
        
        <path stroke="#74838f"  stroke-width="2.0"  d="M 717.2059553349876 206.0 L 717.2059553349876 214.0" />
        <text x="717.2059553349876" font-family="-apple-system, system-ui, BlinkMacSystemFont, Roboto" y="216.0" dominant-baseline="hanging" text-anchor="middle" font-size="12" fill="#24292f">Dec 2022</text>
    
        
        <path stroke="#74838f"  stroke-width="2.0"  d="M 788.2828784119107 206.0 L 788.2828784119107 214.0" />
        <text x="788.2828784119107" font-family="-apple-system, system-ui, BlinkMacSystemFont, Roboto" y="216.0" dominant-baseline="hanging" text-anchor="middle" font-size="12" fill="#24292f">Jan 2023</text>
    
        
        <path stroke="#74838f"  stroke-width="2.0"  d="M 859.3598014888338 206.0 L 859.3598014888338 214.0" />
        <text x="859.3598014888338" font-family="-apple-system, system-ui, BlinkMacSystemFont, Roboto" y="216.0" dominant-baseline="hanging" text-anchor="middle" font-size="12" fill="#24292f">Feb 2023</text>
    
        
        <path stroke="#74838f"  stroke-width="2.0"  d="M 923.5583126550869 206.0 L 923.5583126550869 214.0" />
        <text x="923.5583126550869" font-family="-apple-system, system-ui, BlinkMacSystemFont, Roboto" y="216.0" dominant-baseline="hanging" text-anchor="middle" font-size="12" fill="#24292f">Mar 2023</text>
    
    <path stroke="#74838f"   stroke-linejoin="round" stroke-width="2.0" d="M 50.0 216.0 L 50.0 206.0 L 974.0 206.0 L 974.0 216.0"  fill="none" />
    <text x="512.0" y="25.0" font-family="-apple-system, system-ui, BlinkMacSystemFont, Roboto" dominant-baseline="middle" text-anchor="middle" font-size="18" fill="#24292f">Total daily suspensions</text>
</svg>
