<?xml version="1.0" standalone="no"?>
<svg width="1024.0" height="256.0"  viewBox="0 0 1024.0 256.0" preserveAspectRatio="xMidYMid meet" xmlns="http://www.w3.org/2000/svg">
    <path stroke="#e74c3c" stroke-linejoin="round" d="M 50.0 161.108 L 50 161.108L 52.44444444444444 193.664L 54.888888888888886 197.576L 57.333333333333336 197.924L 59.77777777777778 203.528L 62.22222222222222 199.94L 64.66666666666667 199.268L 67.11111111111111 191.108L 69.55555555555556 200.972L 72 198.62L 74.44444444444444 200L 76.88888888888889 202.57999999999998L 79.33333333333333 199.208L 81.77777777777777 195.608L 84.22222222222223 202.652L 86.66666666666666 198.716L 89.11111111111111 197.49200000000002L 91.55555555555554 191.42000000000002L 94 196.688L 96.44444444444444 199.46L 98.88888888888889 199.328L 101.33333333333333 198.308L 103.77777777777777 198.164L 106.22222222222223 199.832L 108.66666666666666 194.876L 111.11111111111111 199.904L 113.55555555555554 195.584L 116 200.732L 118.44444444444444 198.416L 120.88888888888889 190.652L 123.33333333333333 196.112L 125.77777777777777 190.82L 128.22222222222223 193.53199999999998L 130.66666666666666 199.688L 133.1111111111111 192.392L 135.55555555555554 197L 138 199.59199999999998L 140.44444444444446 193.54399999999998L 142.88888888888889 195.26L 145.33333333333331 195.428L 147.77777777777777 195.548L 150.22222222222223 196.484L 152.66666666666666 199.424L 155.1111111111111 199.22L 157.55555555555554 195.656L 160 193.952L 162.44444444444446 195.536L 164.88888888888889 198.764L 167.33333333333331 195.428L 169.77777777777777 194L 172.22222222222223 193.688L 174.66666666666666 186.32L 177.1111111111111 197.372L 179.55555555555554 195.96800000000002L 182 198.284L 184.44444444444443 194.38400000000001L 186.88888888888889 196.424L 189.33333333333331 196.988L 191.77777777777777 198.368L 194.2222222222222 198.05599999999998L 196.66666666666666 199.61599999999999L 199.11111111111111 191.54L 201.55555555555554 202.124L 204 193.34L 206.44444444444443 204.2L 208.88888888888889 206L 211.33333333333331 206L 213.77777777777777 206L 216.2222222222222 206L 218.66666666666666 190.472L 221.11111111111111 159.01999999999998L 223.55555555555554 193.56799999999998L 226 200.228L 228.44444444444443 193.232L 230.88888888888889 196.82L 233.33333333333331 199.772L 235.77777777777777 186.548L 238.2222222222222 197.888L 240.66666666666666 195.596L 243.11111111111111 190.508L 245.55555555555554 194.876L 248 190.4L 250.44444444444443 188.756L 252.88888888888889 197.852L 255.33333333333331 199.772L 257.77777777777777 191.936L 260.2222222222222 191.864L 262.66666666666663 199.316L 265.1111111111111 194.72L 267.55555555555554 192.608L 270 194.9L 272.44444444444446 199.7L 274.8888888888889 189.224L 277.3333333333333 198.428L 279.77777777777777 196.136L 282.22222222222223 195.296L 284.66666666666663 196.268L 287.1111111111111 193.184L 289.55555555555554 197.204L 292 193.856L 294.44444444444446 197.096L 296.8888888888889 178.16L 299.3333333333333 194.372L 301.7777777777778 195.92000000000002L 304.2222222222222 195.11599999999999L 306.6666666666667 196.688L 309.1111111111111 197.49200000000002L 311.55555555555554 197.696L 314 186.848L 316.44444444444446 192.644L 318.88888888888886 199.61599999999999L 321.33333333333337 193.052L 323.77777777777777 191.072L 326.22222222222223 195.44L 328.66666666666663 196.184L 331.11111111111114 196.46L 333.55555555555554 197.312L 336 193.076L 338.4444444444444 206L 340.8888888888889 186.44L 343.3333333333333 186.632L 345.77777777777777 191.276L 348.22222222222223 180.93200000000002L 350.6666666666667 201.704L 353.1111111111111 185.744L 355.55555555555554 196.028L 358 189.464L 360.44444444444446 194.228L 362.88888888888886 195.632L 365.3333333333333 196.844L 367.77777777777777 186.332L 370.22222222222223 197.99599999999998L 372.66666666666663 188.924L 375.11111111111114 189.128L 377.55555555555554 196.748L 380 182.45600000000002L 382.4444444444444 184.16L 384.8888888888889 206L 387.3333333333333 206L 389.77777777777777 206L 392.22222222222223 160.16L 394.6666666666667 198.536L 397.1111111111111 196.60399999999998L 399.55555555555554 195.668L 402 192.8L 404.44444444444446 196.964L 406.88888888888886 197.828L 409.3333333333333 200.84L 411.77777777777777 170.312L 414.22222222222223 189.236L 416.66666666666663 177.428L 419.11111111111114 191.564L 421.55555555555554 178.784L 424 176.372L 426.4444444444444 181.7L 428.8888888888889 187.472L 431.3333333333333 192.88400000000001L 433.77777777777777 189.38L 436.22222222222223 187.772L 438.6666666666667 189.404L 441.1111111111111 187.532L 443.55555555555554 193.59199999999998L 446 185.036L 448.44444444444446 171.332L 450.88888888888886 180.14L 453.3333333333333 172.316L 455.77777777777777 193.028L 458.22222222222223 191.996L 460.66666666666663 193.052L 463.1111111111111 194.84L 465.55555555555554 193.53199999999998L 468 194.024L 470.4444444444444 189.272L 472.8888888888889 195.188L 475.3333333333333 196.256L 477.77777777777777 192.62L 480.2222222222222 190.844L 482.6666666666667 200.984L 485.1111111111111 184.796L 487.55555555555554 190.88L 490 194.42000000000002L 492.44444444444446 189.86L 494.88888888888886 195.86L 497.3333333333333 191.984L 499.77777777777777 193.1L 502.22222222222223 186.464L 504.66666666666663 190.46L 507.1111111111111 182.156L 509.55555555555554 187.136L 512 191.528L 514.4444444444445 184.1L 516.8888888888889 189.14L 519.3333333333333 185.204L 521.7777777777778 185.468L 524.2222222222222 176.816L 526.6666666666667 189.04399999999998L 529.1111111111111 191.048L 531.5555555555555 188.756L 534 187.592L 536.4444444444446 191.39600000000002L 538.8888888888889 187.796L 541.3333333333333 188.228L 543.7777777777778 190.268L 546.2222222222223 194.372L 548.6666666666666 194.72L 551.1111111111111 201.308L 553.5555555555557 192.752L 556 181.148L 558.4444444444443 181.748L 560.8888888888889 181.208L 563.3333333333334 191.3L 565.7777777777778 186.88400000000001L 568.2222222222222 181.376L 570.6666666666666 186.5L 573.1111111111111 188.44400000000002L 575.5555555555557 179.66L 578 183.09199999999998L 580.4444444444445 173.564L 582.8888888888889 183.836L 585.3333333333334 171.668L 587.7777777777777 148.148L 590.2222222222222 178.004L 592.6666666666667 141.86L 595.1111111111112 186.128L 597.5555555555555 188.54000000000002L 600 187.748L 602.4444444444445 193.256L 604.8888888888889 186.596L 607.3333333333333 185.42000000000002L 609.7777777777778 186.872L 612.2222222222223 185.372L 614.6666666666667 192.824L 617.1111111111111 188.552L 619.5555555555555 189.32L 622 186.632L 624.4444444444445 185.768L 626.8888888888888 188.744L 629.3333333333334 187.34L 631.7777777777778 192.488L 634.2222222222223 187.028L 636.6666666666666 185.468L 639.1111111111111 181.928L 641.5555555555555 183.8L 644 180.296L 646.4444444444445 185.516L 648.8888888888889 194L 651.3333333333334 190.328L 653.7777777777778 186.584L 656.2222222222222 168.32L 658.6666666666666 117.5L 661.1111111111111 189.10399999999998L 663.5555555555555 187.844L 666 190.28L 668.4444444444445 192.32L 670.8888888888889 189.2L 673.3333333333334 182.288L 675.7777777777777 188.49200000000002L 678.2222222222222 178.916L 680.6666666666666 53.432000000000016L 683.1111111111112 162.656L 685.5555555555555 184.52L 688 182.708L 690.4444444444445 183.68L 692.8888888888889 184.196L 695.3333333333333 179.084L 697.7777777777777 190.16L 700.2222222222223 180.476L 702.6666666666667 160.916L 705.1111111111111 121.196L 707.5555555555555 151.50799999999998L 710 164.132L 712.4444444444445 181.184L 714.8888888888888 170.49200000000002L 717.3333333333334 179.792L 719.7777777777778 173.204L 722.2222222222223 178.352L 724.6666666666666 182.792L 727.1111111111111 177.152L 729.5555555555555 184.232L 732 187.796L 734.4444444444445 188.348L 736.8888888888889 184.736L 739.3333333333334 181.892L 741.7777777777778 181.796L 744.2222222222222 179.36L 746.6666666666666 168.176L 749.1111111111111 181.808L 751.5555555555555 185.372L 754 167.708L 756.4444444444445 140.6L 758.8888888888889 160.784L 761.3333333333334 151.664L 763.7777777777777 145.952L 766.2222222222222 155.288L 768.6666666666666 153.68L 771.1111111111112 163.04L 773.5555555555555 172.064L 776 148.952L 778.4444444444445 171.812L 780.8888888888889 172.46L 783.3333333333333 172.508L 785.7777777777777 183.644L 788.2222222222223 166.304L 790.6666666666667 159.26L 793.1111111111111 172.652L 795.5555555555555 165.5L 798 154.892L 800.4444444444445 173.888L 802.8888888888888 176.3L 805.3333333333334 186.5L 807.7777777777778 183.932L 810.2222222222223 183.10399999999998L 812.6666666666666 150.128L 815.1111111111111 183.11599999999999L 817.5555555555555 186.152L 820 185.096L 822.4444444444445 182.276L 824.8888888888889 182.18L 827.3333333333334 182.144L 829.7777777777778 174.956L 832.2222222222222 181.988L 834.6666666666666 179.504L 837.1111111111111 184.784L 839.5555555555555 179L 842 175.868L 844.4444444444445 177.14L 846.8888888888889 178.832L 849.3333333333334 182.216L 851.7777777777777 176.444L 854.2222222222222 182.576L 856.6666666666666 177.02L 859.1111111111112 178.58L 861.5555555555555 182.144L 864 179.48L 866.4444444444445 176.972L 868.8888888888889 186.164L 871.3333333333333 176.096L 873.7777777777777 178.04L 876.2222222222222 152.996L 878.6666666666667 130.724L 881.1111111111111 149.888L 883.5555555555555 149.48L 886 184.1L 888.4444444444445 184.484L 890.8888888888888 177.56L 893.3333333333333 139.952L 895.7777777777778 148.028L 898.2222222222223 162.428L 900.6666666666666 136.244L 903.1111111111111 132.128L 905.5555555555555 142.508L 908 143.252L 910.4444444444443 125.732L 912.8888888888889 117.06800000000001L 915.3333333333334 164.264L 917.7777777777778 161.876L 920.2222222222222 158.636L 922.6666666666666 176.40800000000002L 925.1111111111111 186.632L 927.5555555555555 187.352L 930 186.152L 932.4444444444445 174.932L 934.8888888888889 178.388L 937.3333333333334 194.636L 939.7777777777777 184.748L 942.2222222222222 182.84L 944.6666666666666 173.78L 947.1111111111111 177.56L 949.5555555555555 179.996L 952 183.188L 954.4444444444445 153.68L 956.8888888888889 147.548L 959.3333333333333 185.504L 961.7777777777777 190.724L 964.2222222222222 174.752L 966.6666666666667 174.32L 969.1111111111111 183.692L 971.5555555555555 189.06799999999998L 974 195.88400000000001" stroke-width="2.0" fill="none" />
    
        
        
        <text x="45.0" font-family="-apple-system, system-ui, BlinkMacSystemFont, Roboto" y="50.0" dominant-baseline="middle" text-anchor="end" font-size="12" fill="#24292f">13000.0</text>
        
            
            <path stroke="#74838f" stroke-dasharray="10 6" stroke-width="0.5"  d="M 50.0 50.0 L 974.0 50.0" />
        
    
        
        
        <text x="45.0" font-family="-apple-system, system-ui, BlinkMacSystemFont, Roboto" y="81.2" dominant-baseline="middle" text-anchor="end" font-size="12" fill="#24292f">10400.0</text>
        
            
            
            <path stroke="#74838f" stroke-dasharray="10 6" stroke-width="0.5"  d="M 50.0 81.2 L 974.0 81.2" />
        
    
        
        
        <text x="45.0" font-family="-apple-system, system-ui, BlinkMacSystemFont, Roboto" y="112.4" dominant-baseline="middle" text-anchor="end" font-size="12" fill="#24292f">7800.0</text>
        
            
            
            <path stroke="#74838f" stroke-dasharray="10 6" stroke-width="0.5"  d="M 50.0 112.4 L 974.0 112.4" />
        
    
        
        
        <text x="45.0" font-family="-apple-system, system-ui, BlinkMacSystemFont, Roboto" y="143.6" dominant-baseline="middle" text-anchor="end" font-size="12" fill="#24292f">5200.0</text>
        
            
            
            <path stroke="#74838f" stroke-dasharray="10 6" stroke-width="0.5"  d="M 50.0 143.6 L 974.0 143.6" />
        
    
        
        
        <text x="45.0" font-family="-apple-system, system-ui, BlinkMacSystemFont, Roboto" y="174.8" dominant-baseline="middle" text-anchor="end" font-size="12" fill="#24292f">2600.0</text>
        
            
            
            <path stroke="#74838f" stroke-dasharray="10 6" stroke-width="0.5"  d="M 50.0 174.8 L 974.0 174.8" />
        
    
        
        
        <text x="45.0" font-family="-apple-system, system-ui, BlinkMacSystemFont, Roboto" y="206.0" dominant-baseline="middle" text-anchor="end" font-size="12" fill="#24292f">0.0</text>
        
    
    
        
        <path stroke="#74838f"  stroke-width="2.0"  d="M 89.11111111111111 206.0 L 89.11111111111111 214.0" />
        <text x="89.11111111111111" font-family="-apple-system, system-ui, BlinkMacSystemFont, Roboto" y="216.0" dominant-baseline="hanging" text-anchor="middle" font-size="12" fill="#24292f">Mar 2022</text>
    
        
        <path stroke="#74838f"  stroke-width="2.0"  d="M 164.88888888888889 206.0 L 164.88888888888889 214.0" />
        <text x="164.88888888888889" font-family="-apple-system, system-ui, BlinkMacSystemFont, Roboto" y="216.0" dominant-baseline="hanging" text-anchor="middle" font-size="12" fill="#24292f">Apr 2022</text>
    
        
        <path stroke="#74838f"  stroke-width="2.0"  d="M 238.2222222222222 206.0 L 238.2222222222222 214.0" />
        <text x="238.2222222222222" font-family="-apple-system, system-ui, BlinkMacSystemFont, Roboto" y="216.0" dominant-baseline="hanging" text-anchor="middle" font-size="12" fill="#24292f">May 2022</text>
    
        
        <path stroke="#74838f"  stroke-width="2.0"  d="M 314.0 206.0 L 314.0 214.0" />
        <text x="314.0" font-family="-apple-system, system-ui, BlinkMacSystemFont, Roboto" y="216.0" dominant-baseline="hanging" text-anchor="middle" font-size="12" fill="#24292f">Jun 2022</text>
    
        
        <path stroke="#74838f"  stroke-width="2.0"  d="M 387.3333333333333 206.0 L 387.3333333333333 214.0" />
        <text x="387.3333333333333" font-family="-apple-system, system-ui, BlinkMacSystemFont, Roboto" y="216.0" dominant-baseline="hanging" text-anchor="middle" font-size="12" fill="#24292f">Jul 2022</text>
    
        
        <path stroke="#74838f"  stroke-width="2.0"  d="M 463.1111111111111 206.0 L 463.1111111111111 214.0" />
        <text x="463.1111111111111" font-family="-apple-system, system-ui, BlinkMacSystemFont, Roboto" y="216.0" dominant-baseline="hanging" text-anchor="middle" font-size="12" fill="#24292f">Aug 2022</text>
    
        
        <path stroke="#74838f"  stroke-width="2.0"  d="M 538.8888888888889 206.0 L 538.8888888888889 214.0" />
        <text x="538.8888888888889" font-family="-apple-system, system-ui, BlinkMacSystemFont, Roboto" y="216.0" dominant-baseline="hanging" text-anchor="middle" font-size="12" fill="#24292f">Sep 2022</text>
    
        
        <path stroke="#74838f"  stroke-width="2.0"  d="M 612.2222222222223 206.0 L 612.2222222222223 214.0" />
        <text x="612.2222222222223" font-family="-apple-system, system-ui, BlinkMacSystemFont, Roboto" y="216.0" dominant-baseline="hanging" text-anchor="middle" font-size="12" fill="#24292f">Oct 2022</text>
    
        
        <path stroke="#74838f"  stroke-width="2.0"  d="M 688.0 206.0 L 688.0 214.0" />
        <text x="688.0" font-family="-apple-system, system-ui, BlinkMacSystemFont, Roboto" y="216.0" dominant-baseline="hanging" text-anchor="middle" font-size="12" fill="#24292f">Nov 2022</text>
    
        
        <path stroke="#74838f"  stroke-width="2.0"  d="M 761.3333333333334 206.0 L 761.3333333333334 214.0" />
        <text x="761.3333333333334" font-family="-apple-system, system-ui, BlinkMacSystemFont, Roboto" y="216.0" dominant-baseline="hanging" text-anchor="middle" font-size="12" fill="#24292f">Dec 2022</text>
    
        
        <path stroke="#74838f"  stroke-width="2.0"  d="M 837.1111111111111 206.0 L 837.1111111111111 214.0" />
        <text x="837.1111111111111" font-family="-apple-system, system-ui, BlinkMacSystemFont, Roboto" y="216.0" dominant-baseline="hanging" text-anchor="middle" font-size="12" fill="#24292f">Jan 2023</text>
    
        
        <path stroke="#74838f"  stroke-width="2.0"  d="M 912.8888888888889 206.0 L 912.8888888888889 214.0" />
        <text x="912.8888888888889" font-family="-apple-system, system-ui, BlinkMacSystemFont, Roboto" y="216.0" dominant-baseline="hanging" text-anchor="middle" font-size="12" fill="#24292f">Feb 2023</text>
    
    <path stroke="#74838f"   stroke-linejoin="round" stroke-width="2.0" d="M 50.0 216.0 L 50.0 206.0 L 974.0 206.0 L 974.0 216.0"  fill="none" />
    <text x="512.0" y="25.0" font-family="-apple-system, system-ui, BlinkMacSystemFont, Roboto" dominant-baseline="middle" text-anchor="middle" font-size="18" fill="#24292f">Total daily suspensions</text>
</svg>
