<?xml version="1.0" standalone="no"?>
<svg width="1024.0" height="256.0"  viewBox="0 0 1024.0 256.0" preserveAspectRatio="xMidYMid meet" xmlns="http://www.w3.org/2000/svg">
    <path stroke="#e74c3c" stroke-linejoin="round" d="M 50.0 161.108 L 50 161.108L 52.588235294117645 193.664L 55.1764705882353 197.576L 57.76470588235294 197.924L 60.35294117647059 203.528L 62.94117647058823 199.94L 65.52941176470588 199.268L 68.11764705882354 191.108L 70.70588235294117 200.972L 73.29411764705883 198.62L 75.88235294117646 200L 78.47058823529412 202.57999999999998L 81.05882352941177 199.208L 83.64705882352942 195.608L 86.23529411764706 202.652L 88.82352941176471 198.716L 91.41176470588235 197.49200000000002L 94 191.42000000000002L 96.58823529411765 196.688L 99.17647058823529 199.46L 101.76470588235294 199.328L 104.35294117647058 198.308L 106.94117647058823 198.164L 109.52941176470588 199.832L 112.11764705882354 194.876L 114.70588235294117 199.904L 117.29411764705883 195.584L 119.88235294117646 200.732L 122.47058823529412 198.416L 125.05882352941177 190.652L 127.64705882352942 196.112L 130.23529411764707 190.82L 132.8235294117647 193.53199999999998L 135.41176470588238 199.688L 138 192.392L 140.58823529411765 197L 143.1764705882353 199.59199999999998L 145.76470588235293 193.54399999999998L 148.35294117647058 195.26L 150.94117647058823 195.428L 153.52941176470588 195.548L 156.11764705882354 196.484L 158.70588235294116 199.424L 161.29411764705884 199.22L 163.88235294117646 195.656L 166.47058823529412 193.952L 169.05882352941177 195.536L 171.64705882352942 198.764L 174.23529411764707 195.428L 176.8235294117647 194L 179.41176470588235 193.688L 182 186.32L 184.58823529411765 197.372L 187.1764705882353 195.96800000000002L 189.76470588235293 198.284L 192.3529411764706 194.38400000000001L 194.94117647058823 196.424L 197.52941176470588 196.988L 200.11764705882354 198.368L 202.70588235294116 198.05599999999998L 205.29411764705884 199.61599999999999L 207.88235294117646 191.54L 210.47058823529412 202.124L 213.05882352941177 193.34L 215.64705882352942 204.2L 218.23529411764704 206L 220.82352941176472 206L 223.41176470588235 206L 226 206L 228.58823529411765 190.472L 231.1764705882353 159.01999999999998L 233.76470588235293 193.56799999999998L 236.35294117647058 200.228L 238.94117647058823 193.232L 241.52941176470588 196.82L 244.11764705882354 199.772L 246.70588235294116 186.548L 249.29411764705884 197.888L 251.88235294117646 195.596L 254.47058823529412 190.508L 257.05882352941177 194.876L 259.6470588235294 190.4L 262.2352941176471 188.756L 264.82352941176475 197.852L 267.4117647058823 199.772L 270 191.936L 272.5882352941177 191.864L 275.17647058823525 199.316L 277.7647058823529 194.72L 280.3529411764706 192.608L 282.94117647058823 194.9L 285.52941176470586 199.7L 288.11764705882354 189.224L 290.7058823529412 198.428L 293.29411764705884 196.136L 295.88235294117646 195.296L 298.47058823529414 196.268L 301.0588235294117 193.184L 303.6470588235294 197.204L 306.2352941176471 193.856L 308.8235294117647 197.096L 311.4117647058823 178.16L 314 194.372L 316.5882352941176 195.92000000000002L 319.1764705882353 195.11599999999999L 321.7647058823529 196.688L 324.3529411764706 197.49200000000002L 326.94117647058823 197.696L 329.52941176470586 186.848L 332.11764705882354 192.644L 334.7058823529412 199.61599999999999L 337.29411764705884 193.052L 339.88235294117646 191.072L 342.4705882352941 195.44L 345.05882352941177 196.184L 347.64705882352945 196.46L 350.2352941176471 197.312L 352.8235294117647 193.076L 355.4117647058823 206L 358 186.44L 360.5882352941177 186.632L 363.1764705882353 191.276L 365.7647058823529 180.93200000000002L 368.3529411764706 201.704L 370.94117647058823 185.744L 373.52941176470586 196.028L 376.11764705882354 189.464L 378.7058823529412 194.228L 381.29411764705884 195.632L 383.88235294117646 196.844L 386.4705882352941 186.332L 389.05882352941177 197.99599999999998L 391.64705882352945 188.924L 394.2352941176471 189.128L 396.8235294117647 196.748L 399.4117647058823 182.45600000000002L 402 184.16L 404.5882352941177 206L 407.1764705882353 206L 409.7647058823529 206L 412.3529411764706 160.16L 414.94117647058823 198.536L 417.52941176470586 196.60399999999998L 420.11764705882354 195.668L 422.70588235294116 192.8L 425.29411764705884 196.964L 427.88235294117646 197.828L 430.4705882352941 200.84L 433.05882352941177 170.312L 435.64705882352945 189.236L 438.2352941176471 177.428L 440.8235294117647 191.564L 443.4117647058823 178.784L 446 176.372L 448.5882352941177 181.7L 451.1764705882353 187.472L 453.7647058823529 192.88400000000001L 456.3529411764706 189.38L 458.94117647058823 187.772L 461.5294117647059 189.404L 464.11764705882354 187.532L 466.70588235294116 193.59199999999998L 469.29411764705884 185.036L 471.88235294117646 171.332L 474.4705882352941 180.14L 477.05882352941177 172.316L 479.64705882352945 193.028L 482.2352941176471 191.996L 484.8235294117647 193.052L 487.4117647058823 194.84L 490 193.53199999999998L 492.5882352941177 194.024L 495.1764705882353 189.272L 497.7647058823529 195.188L 500.35294117647055 196.256L 502.94117647058823 192.62L 505.5294117647059 190.844L 508.11764705882354 200.984L 510.70588235294116 184.796L 513.2941176470588 190.88L 515.8823529411765 194.42000000000002L 518.4705882352941 189.86L 521.0588235294117 195.86L 523.6470588235294 191.984L 526.2352941176471 193.1L 528.8235294117648 186.464L 531.4117647058824 190.46L 534 182.156L 536.5882352941177 187.136L 539.1764705882354 191.528L 541.7647058823529 184.1L 544.3529411764705 189.14L 546.9411764705883 185.204L 549.5294117647059 185.468L 552.1176470588234 176.816L 554.7058823529411 189.04399999999998L 557.2941176470588 191.048L 559.8823529411766 188.756L 562.4705882352941 187.592L 565.0588235294118 191.39600000000002L 567.6470588235294 187.796L 570.2352941176471 188.228L 572.8235294117646 190.268L 575.4117647058823 194.372L 578 194.72L 580.5882352941176 201.308L 583.1764705882352 192.752L 585.764705882353 181.148L 588.3529411764706 181.748L 590.9411764705883 181.208L 593.5294117647059 191.3L 596.1176470588235 186.88400000000001L 598.7058823529412 181.376L 601.2941176470588 186.5L 603.8823529411765 188.44400000000002L 606.4705882352941 179.66L 609.0588235294117 183.09199999999998L 611.6470588235294 173.564L 614.2352941176471 183.836L 616.8235294117648 171.668L 619.4117647058824 148.148L 622 178.004L 624.5882352941177 141.86L 627.1764705882352 186.128L 629.7647058823529 188.54000000000002L 632.3529411764706 187.748L 634.9411764705882 193.256L 637.5294117647059 186.596L 640.1176470588235 185.42000000000002L 642.7058823529412 186.872L 645.2941176470589 185.372L 647.8823529411765 192.824L 650.4705882352941 188.552L 653.0588235294118 189.32L 655.6470588235294 186.632L 658.2352941176471 185.768L 660.8235294117646 188.744L 663.4117647058823 187.34L 666 192.488L 668.5882352941176 187.028L 671.1764705882354 185.468L 673.7647058823529 181.928L 676.3529411764706 183.8L 678.9411764705883 180.296L 681.5294117647059 185.516L 684.1176470588235 194L 686.7058823529412 190.328L 689.2941176470588 186.584L 691.8823529411765 168.32L 694.470588235294 117.5L 697.0588235294117 189.10399999999998L 699.6470588235294 187.844L 702.2352941176471 190.28L 704.8235294117648 192.32L 707.4117647058824 189.2L 710 182.288L 712.5882352941177 188.49200000000002L 715.1764705882352 178.916L 717.7647058823529 53.432000000000016L 720.3529411764706 162.656L 722.9411764705882 184.52L 725.5294117647059 182.708L 728.1176470588235 183.68L 730.7058823529412 184.196L 733.2941176470589 179.084L 735.8823529411765 190.16L 738.4705882352941 180.476L 741.0588235294118 160.916L 743.6470588235294 121.196L 746.2352941176471 151.50799999999998L 748.8235294117646 164.132L 751.4117647058823 181.184L 754 170.49200000000002L 756.5882352941176 179.792L 759.1764705882354 173.204L 761.7647058823529 178.352L 764.3529411764706 182.792L 766.9411764705883 177.152L 769.5294117647059 184.232L 772.1176470588235 187.796L 774.7058823529412 188.348L 777.2941176470588 184.736L 779.8823529411765 181.892L 782.470588235294 181.796L 785.0588235294117 179.36L 787.6470588235295 168.176L 790.2352941176471 181.808L 792.8235294117648 185.372L 795.4117647058823 167.708L 798 140.6L 800.5882352941177 160.784L 803.1764705882352 151.664L 805.7647058823529 145.952L 808.3529411764706 155.288L 810.9411764705882 153.68L 813.5294117647059 163.04L 816.1176470588235 172.064L 818.7058823529412 148.952L 821.2941176470589 171.812L 823.8823529411765 172.46L 826.4705882352941 172.508L 829.0588235294117 183.644L 831.6470588235294 166.304L 834.2352941176471 159.26L 836.8235294117646 172.652L 839.4117647058823 165.5L 842 154.892L 844.5882352941177 173.888L 847.1764705882354 176.3L 849.7647058823529 186.5L 852.3529411764706 183.932L 854.9411764705883 183.10399999999998L 857.5294117647059 150.128L 860.1176470588235 183.11599999999999L 862.7058823529412 186.152L 865.2941176470588 185.096L 867.8823529411765 182.276L 870.470588235294 182.18L 873.0588235294118 182.144L 875.6470588235295 174.956L 878.2352941176471 181.988L 880.8235294117648 179.504L 883.4117647058823 184.784L 886 179L 888.5882352941177 175.868L 891.1764705882352 177.14L 893.7647058823529 178.832L 896.3529411764706 182.216L 898.9411764705882 176.444L 901.5294117647059 182.576L 904.1176470588235 177.02L 906.7058823529412 178.58L 909.2941176470589 182.144L 911.8823529411765 179.48L 914.4705882352941 176.972L 917.0588235294117 186.164L 919.6470588235294 176.096L 922.2352941176471 178.04L 924.8235294117646 152.996L 927.4117647058823 130.724L 930 149.888L 932.5882352941177 149.48L 935.1764705882354 184.1L 937.7647058823529 184.484L 940.3529411764706 177.56L 942.9411764705883 139.952L 945.5294117647059 148.028L 948.1176470588235 162.428L 950.7058823529411 136.244L 953.2941176470588 132.128L 955.8823529411765 142.508L 958.470588235294 143.252L 961.0588235294118 125.732L 963.6470588235295 117.06800000000001L 966.2352941176471 164.264L 968.8235294117648 161.876L 971.4117647058823 158.636L 974 192.476" stroke-width="2.0" fill="none" />
    
        
        
        <text x="45.0" font-family="-apple-system, system-ui, BlinkMacSystemFont, Roboto" y="50.0" dominant-baseline="middle" text-anchor="end" font-size="12" fill="#24292f">13000.0</text>
        
            
            <path stroke="#74838f" stroke-dasharray="10 6" stroke-width="0.5"  d="M 50.0 50.0 L 974.0 50.0" />
        
    
        
        
        <text x="45.0" font-family="-apple-system, system-ui, BlinkMacSystemFont, Roboto" y="81.2" dominant-baseline="middle" text-anchor="end" font-size="12" fill="#24292f">10400.0</text>
        
            
            
            <path stroke="#74838f" stroke-dasharray="10 6" stroke-width="0.5"  d="M 50.0 81.2 L 974.0 81.2" />
        
    
        
        
        <text x="45.0" font-family="-apple-system, system-ui, BlinkMacSystemFont, Roboto" y="112.4" dominant-baseline="middle" text-anchor="end" font-size="12" fill="#24292f">7800.0</text>
        
            
            
            <path stroke="#74838f" stroke-dasharray="10 6" stroke-width="0.5"  d="M 50.0 112.4 L 974.0 112.4" />
        
    
        
        
        <text x="45.0" font-family="-apple-system, system-ui, BlinkMacSystemFont, Roboto" y="143.6" dominant-baseline="middle" text-anchor="end" font-size="12" fill="#24292f">5200.0</text>
        
            
            
            <path stroke="#74838f" stroke-dasharray="10 6" stroke-width="0.5"  d="M 50.0 143.6 L 974.0 143.6" />
        
    
        
        
        <text x="45.0" font-family="-apple-system, system-ui, BlinkMacSystemFont, Roboto" y="174.8" dominant-baseline="middle" text-anchor="end" font-size="12" fill="#24292f">2600.0</text>
        
            
            
            <path stroke="#74838f" stroke-dasharray="10 6" stroke-width="0.5"  d="M 50.0 174.8 L 974.0 174.8" />
        
    
        
        
        <text x="45.0" font-family="-apple-system, system-ui, BlinkMacSystemFont, Roboto" y="206.0" dominant-baseline="middle" text-anchor="end" font-size="12" fill="#24292f">0.0</text>
        
    
    
        
        <path stroke="#74838f"  stroke-width="2.0"  d="M 91.41176470588235 206.0 L 91.41176470588235 214.0" />
        <text x="91.41176470588235" font-family="-apple-system, system-ui, BlinkMacSystemFont, Roboto" y="216.0" dominant-baseline="hanging" text-anchor="middle" font-size="12" fill="#24292f">Mar 2022</text>
    
        
        <path stroke="#74838f"  stroke-width="2.0"  d="M 171.64705882352942 206.0 L 171.64705882352942 214.0" />
        <text x="171.64705882352942" font-family="-apple-system, system-ui, BlinkMacSystemFont, Roboto" y="216.0" dominant-baseline="hanging" text-anchor="middle" font-size="12" fill="#24292f">Apr 2022</text>
    
        
        <path stroke="#74838f"  stroke-width="2.0"  d="M 249.29411764705884 206.0 L 249.29411764705884 214.0" />
        <text x="249.29411764705884" font-family="-apple-system, system-ui, BlinkMacSystemFont, Roboto" y="216.0" dominant-baseline="hanging" text-anchor="middle" font-size="12" fill="#24292f">May 2022</text>
    
        
        <path stroke="#74838f"  stroke-width="2.0"  d="M 329.52941176470586 206.0 L 329.52941176470586 214.0" />
        <text x="329.52941176470586" font-family="-apple-system, system-ui, BlinkMacSystemFont, Roboto" y="216.0" dominant-baseline="hanging" text-anchor="middle" font-size="12" fill="#24292f">Jun 2022</text>
    
        
        <path stroke="#74838f"  stroke-width="2.0"  d="M 407.1764705882353 206.0 L 407.1764705882353 214.0" />
        <text x="407.1764705882353" font-family="-apple-system, system-ui, BlinkMacSystemFont, Roboto" y="216.0" dominant-baseline="hanging" text-anchor="middle" font-size="12" fill="#24292f">Jul 2022</text>
    
        
        <path stroke="#74838f"  stroke-width="2.0"  d="M 487.4117647058823 206.0 L 487.4117647058823 214.0" />
        <text x="487.4117647058823" font-family="-apple-system, system-ui, BlinkMacSystemFont, Roboto" y="216.0" dominant-baseline="hanging" text-anchor="middle" font-size="12" fill="#24292f">Aug 2022</text>
    
        
        <path stroke="#74838f"  stroke-width="2.0"  d="M 567.6470588235294 206.0 L 567.6470588235294 214.0" />
        <text x="567.6470588235294" font-family="-apple-system, system-ui, BlinkMacSystemFont, Roboto" y="216.0" dominant-baseline="hanging" text-anchor="middle" font-size="12" fill="#24292f">Sep 2022</text>
    
        
        <path stroke="#74838f"  stroke-width="2.0"  d="M 645.2941176470589 206.0 L 645.2941176470589 214.0" />
        <text x="645.2941176470589" font-family="-apple-system, system-ui, BlinkMacSystemFont, Roboto" y="216.0" dominant-baseline="hanging" text-anchor="middle" font-size="12" fill="#24292f">Oct 2022</text>
    
        
        <path stroke="#74838f"  stroke-width="2.0"  d="M 725.5294117647059 206.0 L 725.5294117647059 214.0" />
        <text x="725.5294117647059" font-family="-apple-system, system-ui, BlinkMacSystemFont, Roboto" y="216.0" dominant-baseline="hanging" text-anchor="middle" font-size="12" fill="#24292f">Nov 2022</text>
    
        
        <path stroke="#74838f"  stroke-width="2.0"  d="M 803.1764705882352 206.0 L 803.1764705882352 214.0" />
        <text x="803.1764705882352" font-family="-apple-system, system-ui, BlinkMacSystemFont, Roboto" y="216.0" dominant-baseline="hanging" text-anchor="middle" font-size="12" fill="#24292f">Dec 2022</text>
    
        
        <path stroke="#74838f"  stroke-width="2.0"  d="M 883.4117647058823 206.0 L 883.4117647058823 214.0" />
        <text x="883.4117647058823" font-family="-apple-system, system-ui, BlinkMacSystemFont, Roboto" y="216.0" dominant-baseline="hanging" text-anchor="middle" font-size="12" fill="#24292f">Jan 2023</text>
    
        
        <path stroke="#74838f"  stroke-width="2.0"  d="M 963.6470588235295 206.0 L 963.6470588235295 214.0" />
        <text x="963.6470588235295" font-family="-apple-system, system-ui, BlinkMacSystemFont, Roboto" y="216.0" dominant-baseline="hanging" text-anchor="middle" font-size="12" fill="#24292f">Feb 2023</text>
    
    <path stroke="#74838f"   stroke-linejoin="round" stroke-width="2.0" d="M 50.0 216.0 L 50.0 206.0 L 974.0 206.0 L 974.0 216.0"  fill="none" />
    <text x="512.0" y="25.0" font-family="-apple-system, system-ui, BlinkMacSystemFont, Roboto" dominant-baseline="middle" text-anchor="middle" font-size="18" fill="#24292f">Total daily suspensions</text>
</svg>
