<?xml version="1.0" standalone="no"?>
<svg width="1024.0" height="256.0"  viewBox="0 0 1024.0 256.0" preserveAspectRatio="xMidYMid meet" xmlns="http://www.w3.org/2000/svg">
    <path stroke="#e74c3c" stroke-linejoin="round" d="M 50.0 161.108 L 50 161.108L 52.470588235294116 193.664L 54.94117647058823 197.576L 57.411764705882355 197.924L 59.88235294117647 203.528L 62.35294117647059 199.94L 64.82352941176471 199.268L 67.29411764705883 191.108L 69.76470588235294 200.972L 72.23529411764706 198.62L 74.70588235294117 200L 77.17647058823529 202.57999999999998L 79.64705882352942 199.208L 82.11764705882354 195.608L 84.58823529411765 202.652L 87.05882352941177 198.716L 89.52941176470588 197.49200000000002L 92 191.42000000000002L 94.47058823529412 196.688L 96.94117647058823 199.46L 99.41176470588235 199.328L 101.88235294117646 198.308L 104.35294117647058 198.164L 106.82352941176471 199.832L 109.29411764705884 194.876L 111.76470588235294 199.904L 114.23529411764706 195.584L 116.70588235294117 200.732L 119.17647058823529 198.416L 121.64705882352942 190.652L 124.11764705882354 196.112L 126.58823529411765 190.82L 129.05882352941177 193.53199999999998L 131.52941176470588 199.688L 134 192.392L 136.47058823529412 197L 138.94117647058823 199.59199999999998L 141.41176470588238 193.54399999999998L 143.88235294117646 195.26L 146.3529411764706 195.428L 148.8235294117647 195.548L 151.2941176470588 196.484L 153.76470588235293 199.424L 156.23529411764707 199.22L 158.70588235294116 195.656L 161.1764705882353 193.952L 163.64705882352942 195.536L 166.11764705882354 198.764L 168.58823529411768 195.428L 171.05882352941177 194L 173.52941176470588 193.688L 176 186.32L 178.47058823529412 197.372L 180.94117647058823 195.96800000000002L 183.41176470588235 198.284L 185.88235294117646 194.38400000000001L 188.35294117647058 196.424L 190.8235294117647 196.988L 193.29411764705884 198.368L 195.76470588235293 198.05599999999998L 198.23529411764707 199.61599999999999L 200.7058823529412 191.54L 203.1764705882353 202.124L 205.64705882352942 193.34L 208.1176470588235 204.2L 210.58823529411765 206L 213.05882352941177 206L 215.52941176470588 206L 218 206L 220.47058823529412 190.472L 222.94117647058823 159.01999999999998L 225.41176470588235 193.56799999999998L 227.88235294117646 200.228L 230.35294117647058 193.232L 232.82352941176472 196.82L 235.2941176470588 199.772L 237.76470588235296 186.548L 240.23529411764704 197.888L 242.7058823529412 195.596L 245.1764705882353 190.508L 247.64705882352942 194.876L 250.11764705882354 190.4L 252.58823529411762 188.756L 255.05882352941177 197.852L 257.52941176470586 199.772L 260 191.936L 262.47058823529414 191.864L 264.9411764705883 199.316L 267.4117647058823 194.72L 269.88235294117646 192.608L 272.3529411764706 194.9L 274.8235294117647 199.7L 277.29411764705884 189.224L 279.7647058823529 198.428L 282.2352941176471 196.136L 284.7058823529412 195.296L 287.17647058823536 196.268L 289.6470588235294 193.184L 292.11764705882354 197.204L 294.5882352941177 193.856L 297.05882352941177 197.096L 299.5294117647059 178.16L 302 194.372L 304.47058823529414 195.92000000000002L 306.94117647058823 195.11599999999999L 309.4117647058824 196.688L 311.88235294117646 197.49200000000002L 314.35294117647055 197.696L 316.8235294117647 186.848L 319.29411764705884 192.644L 321.7647058823529 199.61599999999999L 324.2352941176471 193.052L 326.70588235294116 191.072L 329.1764705882353 195.44L 331.6470588235294 196.184L 334.11764705882354 196.46L 336.5882352941177 197.312L 339.05882352941177 193.076L 341.52941176470586 206L 344 186.44L 346.47058823529414 186.632L 348.94117647058823 191.276L 351.4117647058824 180.93200000000002L 353.88235294117646 201.704L 356.3529411764706 185.744L 358.8235294117647 196.028L 361.29411764705884 189.464L 363.764705882353 194.228L 366.235294117647 195.632L 368.70588235294116 196.844L 371.1764705882353 186.332L 373.64705882352945 197.99599999999998L 376.11764705882354 188.924L 378.5882352941176 189.128L 381.05882352941177 196.748L 383.52941176470586 182.45600000000002L 386 184.16L 388.47058823529414 206L 390.94117647058823 206L 393.4117647058823 206L 395.88235294117646 160.16L 398.3529411764706 198.536L 400.8235294117647 196.60399999999998L 403.2941176470588 195.668L 405.7647058823529 192.8L 408.2352941176471 196.964L 410.70588235294116 197.828L 413.1764705882353 200.84L 415.64705882352945 170.312L 418.11764705882354 189.236L 420.5882352941176 177.428L 423.05882352941177 191.564L 425.5294117647059 178.784L 428 176.372L 430.4705882352941 181.7L 432.94117647058823 187.472L 435.4117647058824 192.88400000000001L 437.88235294117646 189.38L 440.3529411764706 187.772L 442.8235294117647 189.404L 445.29411764705884 187.532L 447.7647058823529 193.59199999999998L 450.2352941176471 185.036L 452.7058823529412 171.332L 455.17647058823525 180.14L 457.6470588235294 172.316L 460.11764705882354 193.028L 462.5882352941177 191.996L 465.05882352941177 193.052L 467.52941176470586 194.84L 470 193.53199999999998L 472.4705882352941 194.024L 474.94117647058823 189.272L 477.4117647058824 195.188L 479.8823529411765 196.256L 482.35294117647055 192.62L 484.8235294117647 190.844L 487.29411764705884 200.984L 489.7647058823529 184.796L 492.2352941176471 190.88L 494.70588235294116 194.42000000000002L 497.1764705882353 189.86L 499.6470588235294 195.86L 502.11764705882354 191.984L 504.5882352941177 193.1L 507.05882352941177 186.464L 509.52941176470586 190.46L 512 182.156L 514.4705882352941 187.136L 516.9411764705883 191.528L 519.4117647058824 184.1L 521.8823529411766 189.14L 524.3529411764707 185.204L 526.8235294117646 185.468L 529.2941176470588 176.816L 531.7647058823529 189.04399999999998L 534.2352941176471 191.048L 536.7058823529412 188.756L 539.1764705882354 187.592L 541.6470588235295 191.39600000000002L 544.1176470588235 187.796L 546.5882352941177 188.228L 549.0588235294118 190.268L 551.5294117647059 194.372L 554 194.72L 556.4705882352941 201.308L 558.9411764705883 192.752L 561.4117647058823 181.148L 563.8823529411765 181.748L 566.3529411764706 181.208L 568.8235294117648 191.3L 571.2941176470589 186.88400000000001L 573.7647058823529 181.376L 576.235294117647 186.5L 578.7058823529411 188.44400000000002L 581.1764705882352 179.66L 583.6470588235294 183.09199999999998L 586.1176470588235 173.564L 588.5882352941177 183.836L 591.0588235294118 171.668L 593.5294117647059 148.148L 596 178.004L 598.4705882352941 141.86L 600.9411764705883 186.128L 603.4117647058823 188.54000000000002L 605.8823529411765 187.748L 608.3529411764706 193.256L 610.8235294117646 186.596L 613.2941176470588 185.42000000000002L 615.7647058823529 186.872L 618.2352941176471 185.372L 620.7058823529412 192.824L 623.1764705882354 188.552L 625.6470588235295 189.32L 628.1176470588235 186.632L 630.5882352941176 185.768L 633.0588235294117 188.744L 635.5294117647059 187.34L 638 192.488L 640.4705882352941 187.028L 642.9411764705883 185.468L 645.4117647058823 181.928L 647.8823529411765 183.8L 650.3529411764706 180.296L 652.8235294117648 185.516L 655.2941176470588 194L 657.7647058823529 190.328L 660.2352941176471 186.584L 662.7058823529412 168.32L 665.1764705882352 117.5L 667.6470588235294 189.10399999999998L 670.1176470588235 187.844L 672.5882352941177 190.28L 675.0588235294118 192.32L 677.529411764706 189.2L 680 182.288L 682.470588235294 188.49200000000002L 684.9411764705882 178.916L 687.4117647058823 53.432000000000016L 689.8823529411765 162.656L 692.3529411764706 184.52L 694.8235294117648 182.708L 697.2941176470589 183.68L 699.7647058823529 184.196L 702.2352941176471 179.084L 704.7058823529411 190.16L 707.1764705882352 180.476L 709.6470588235294 160.916L 712.1176470588235 121.196L 714.5882352941177 151.50799999999998L 717.0588235294117 164.132L 719.5294117647059 181.184L 722 170.49200000000002L 724.4705882352941 179.792L 726.9411764705883 173.204L 729.4117647058824 178.352L 731.8823529411765 182.792L 734.3529411764706 177.152L 736.8235294117646 184.232L 739.2941176470588 187.796L 741.7647058823529 188.348L 744.2352941176471 184.736L 746.7058823529412 181.892L 749.1764705882354 181.796L 751.6470588235294 179.36L 754.1176470588235 168.176L 756.5882352941176 181.808L 759.0588235294117 185.372L 761.5294117647059 167.708L 764 140.6L 766.4705882352941 160.784L 768.9411764705883 151.664L 771.4117647058823 145.952L 773.8823529411765 155.288L 776.3529411764706 153.68L 778.8235294117648 163.04L 781.2941176470589 172.064L 783.7647058823529 148.952L 786.2352941176471 171.812L 788.7058823529411 172.46L 791.1764705882352 172.508L 793.6470588235294 183.644L 796.1176470588235 166.304L 798.5882352941177 159.26L 801.0588235294118 172.652L 803.529411764706 165.5L 806 154.892L 808.470588235294 173.888L 810.9411764705882 176.3L 813.4117647058823 186.5L 815.8823529411765 183.932L 818.3529411764706 183.10399999999998L 820.8235294117648 150.128L 823.2941176470588 183.11599999999999L 825.7647058823529 186.152L 828.2352941176471 185.096L 830.7058823529412 182.276L 833.1764705882352 182.18L 835.6470588235294 182.144L 838.1176470588235 174.956L 840.5882352941177 181.988L 843.0588235294117 179.504L 845.5294117647059 184.784L 848 179L 850.4705882352941 175.868L 852.9411764705883 177.14L 855.4117647058824 178.832L 857.8823529411765 182.216L 860.3529411764705 176.444L 862.8235294117646 182.576L 865.2941176470588 177.02L 867.7647058823529 178.58L 870.2352941176471 182.144L 872.7058823529412 179.48L 875.1764705882354 176.972L 877.6470588235294 186.164L 880.1176470588235 176.096L 882.5882352941177 178.04L 885.0588235294117 152.996L 887.5294117647059 130.724L 890 149.888L 892.4705882352941 149.48L 894.9411764705882 184.1L 897.4117647058823 184.484L 899.8823529411765 177.56L 902.3529411764706 139.952L 904.8235294117648 148.028L 907.2941176470589 162.428L 909.764705882353 136.244L 912.2352941176471 132.128L 914.7058823529411 142.508L 917.1764705882352 143.252L 919.6470588235294 125.732L 922.1176470588235 117.06800000000001L 924.5882352941177 164.264L 927.0588235294118 161.876L 929.5294117647059 158.636L 932 176.40800000000002L 934.4705882352941 186.632L 936.9411764705882 187.352L 939.4117647058823 186.152L 941.8823529411765 174.932L 944.3529411764706 178.388L 946.8235294117648 194.636L 949.2941176470588 184.748L 951.7647058823529 182.84L 954.2352941176471 173.78L 956.7058823529412 177.56L 959.1764705882354 179.996L 961.6470588235294 183.188L 964.1176470588235 153.68L 966.5882352941176 147.548L 969.0588235294117 185.504L 971.5294117647059 190.724L 974 197.756" stroke-width="2.0" fill="none" />
    
        
        
        <text x="45.0" font-family="-apple-system, system-ui, BlinkMacSystemFont, Roboto" y="50.0" dominant-baseline="middle" text-anchor="end" font-size="12" fill="#24292f">13000.0</text>
        
            
            <path stroke="#74838f" stroke-dasharray="10 6" stroke-width="0.5"  d="M 50.0 50.0 L 974.0 50.0" />
        
    
        
        
        <text x="45.0" font-family="-apple-system, system-ui, BlinkMacSystemFont, Roboto" y="81.2" dominant-baseline="middle" text-anchor="end" font-size="12" fill="#24292f">10400.0</text>
        
            
            
            <path stroke="#74838f" stroke-dasharray="10 6" stroke-width="0.5"  d="M 50.0 81.2 L 974.0 81.2" />
        
    
        
        
        <text x="45.0" font-family="-apple-system, system-ui, BlinkMacSystemFont, Roboto" y="112.4" dominant-baseline="middle" text-anchor="end" font-size="12" fill="#24292f">7800.0</text>
        
            
            
            <path stroke="#74838f" stroke-dasharray="10 6" stroke-width="0.5"  d="M 50.0 112.4 L 974.0 112.4" />
        
    
        
        
        <text x="45.0" font-family="-apple-system, system-ui, BlinkMacSystemFont, Roboto" y="143.6" dominant-baseline="middle" text-anchor="end" font-size="12" fill="#24292f">5200.0</text>
        
            
            
            <path stroke="#74838f" stroke-dasharray="10 6" stroke-width="0.5"  d="M 50.0 143.6 L 974.0 143.6" />
        
    
        
        
        <text x="45.0" font-family="-apple-system, system-ui, BlinkMacSystemFont, Roboto" y="174.8" dominant-baseline="middle" text-anchor="end" font-size="12" fill="#24292f">2600.0</text>
        
            
            
            <path stroke="#74838f" stroke-dasharray="10 6" stroke-width="0.5"  d="M 50.0 174.8 L 974.0 174.8" />
        
    
        
        
        <text x="45.0" font-family="-apple-system, system-ui, BlinkMacSystemFont, Roboto" y="206.0" dominant-baseline="middle" text-anchor="end" font-size="12" fill="#24292f">0.0</text>
        
    
    
        
        <path stroke="#74838f"  stroke-width="2.0"  d="M 89.52941176470588 206.0 L 89.52941176470588 214.0" />
        <text x="89.52941176470588" font-family="-apple-system, system-ui, BlinkMacSystemFont, Roboto" y="216.0" dominant-baseline="hanging" text-anchor="middle" font-size="12" fill="#24292f">Mar 2022</text>
    
        
        <path stroke="#74838f"  stroke-width="2.0"  d="M 166.11764705882354 206.0 L 166.11764705882354 214.0" />
        <text x="166.11764705882354" font-family="-apple-system, system-ui, BlinkMacSystemFont, Roboto" y="216.0" dominant-baseline="hanging" text-anchor="middle" font-size="12" fill="#24292f">Apr 2022</text>
    
        
        <path stroke="#74838f"  stroke-width="2.0"  d="M 240.23529411764704 206.0 L 240.23529411764704 214.0" />
        <text x="240.23529411764704" font-family="-apple-system, system-ui, BlinkMacSystemFont, Roboto" y="216.0" dominant-baseline="hanging" text-anchor="middle" font-size="12" fill="#24292f">May 2022</text>
    
        
        <path stroke="#74838f"  stroke-width="2.0"  d="M 316.8235294117647 206.0 L 316.8235294117647 214.0" />
        <text x="316.8235294117647" font-family="-apple-system, system-ui, BlinkMacSystemFont, Roboto" y="216.0" dominant-baseline="hanging" text-anchor="middle" font-size="12" fill="#24292f">Jun 2022</text>
    
        
        <path stroke="#74838f"  stroke-width="2.0"  d="M 390.94117647058823 206.0 L 390.94117647058823 214.0" />
        <text x="390.94117647058823" font-family="-apple-system, system-ui, BlinkMacSystemFont, Roboto" y="216.0" dominant-baseline="hanging" text-anchor="middle" font-size="12" fill="#24292f">Jul 2022</text>
    
        
        <path stroke="#74838f"  stroke-width="2.0"  d="M 467.52941176470586 206.0 L 467.52941176470586 214.0" />
        <text x="467.52941176470586" font-family="-apple-system, system-ui, BlinkMacSystemFont, Roboto" y="216.0" dominant-baseline="hanging" text-anchor="middle" font-size="12" fill="#24292f">Aug 2022</text>
    
        
        <path stroke="#74838f"  stroke-width="2.0"  d="M 544.1176470588235 206.0 L 544.1176470588235 214.0" />
        <text x="544.1176470588235" font-family="-apple-system, system-ui, BlinkMacSystemFont, Roboto" y="216.0" dominant-baseline="hanging" text-anchor="middle" font-size="12" fill="#24292f">Sep 2022</text>
    
        
        <path stroke="#74838f"  stroke-width="2.0"  d="M 618.2352941176471 206.0 L 618.2352941176471 214.0" />
        <text x="618.2352941176471" font-family="-apple-system, system-ui, BlinkMacSystemFont, Roboto" y="216.0" dominant-baseline="hanging" text-anchor="middle" font-size="12" fill="#24292f">Oct 2022</text>
    
        
        <path stroke="#74838f"  stroke-width="2.0"  d="M 694.8235294117648 206.0 L 694.8235294117648 214.0" />
        <text x="694.8235294117648" font-family="-apple-system, system-ui, BlinkMacSystemFont, Roboto" y="216.0" dominant-baseline="hanging" text-anchor="middle" font-size="12" fill="#24292f">Nov 2022</text>
    
        
        <path stroke="#74838f"  stroke-width="2.0"  d="M 768.9411764705883 206.0 L 768.9411764705883 214.0" />
        <text x="768.9411764705883" font-family="-apple-system, system-ui, BlinkMacSystemFont, Roboto" y="216.0" dominant-baseline="hanging" text-anchor="middle" font-size="12" fill="#24292f">Dec 2022</text>
    
        
        <path stroke="#74838f"  stroke-width="2.0"  d="M 845.5294117647059 206.0 L 845.5294117647059 214.0" />
        <text x="845.5294117647059" font-family="-apple-system, system-ui, BlinkMacSystemFont, Roboto" y="216.0" dominant-baseline="hanging" text-anchor="middle" font-size="12" fill="#24292f">Jan 2023</text>
    
        
        <path stroke="#74838f"  stroke-width="2.0"  d="M 922.1176470588235 206.0 L 922.1176470588235 214.0" />
        <text x="922.1176470588235" font-family="-apple-system, system-ui, BlinkMacSystemFont, Roboto" y="216.0" dominant-baseline="hanging" text-anchor="middle" font-size="12" fill="#24292f">Feb 2023</text>
    
    <path stroke="#74838f"   stroke-linejoin="round" stroke-width="2.0" d="M 50.0 216.0 L 50.0 206.0 L 974.0 206.0 L 974.0 216.0"  fill="none" />
    <text x="512.0" y="25.0" font-family="-apple-system, system-ui, BlinkMacSystemFont, Roboto" dominant-baseline="middle" text-anchor="middle" font-size="18" fill="#24292f">Total daily suspensions</text>
</svg>
