<?xml version="1.0" standalone="no"?>
<svg width="1024.0" height="256.0"  viewBox="0 0 1024.0 256.0" preserveAspectRatio="xMidYMid meet" xmlns="http://www.w3.org/2000/svg">
    <path stroke="#e74c3c" stroke-linejoin="round" d="M 50.0 161.108 L 50 161.108L 53.01960784313725 193.664L 56.03921568627451 197.576L 59.05882352941177 197.924L 62.07843137254902 203.528L 65.09803921568627 199.94L 68.11764705882354 199.268L 71.13725490196079 191.108L 74.15686274509804 200.972L 77.17647058823529 198.62L 80.19607843137256 200L 83.2156862745098 202.57999999999998L 86.23529411764706 199.208L 89.25490196078431 195.608L 92.27450980392157 202.652L 95.29411764705883 198.716L 98.31372549019608 197.49200000000002L 101.33333333333333 191.42000000000002L 104.35294117647058 196.688L 107.37254901960785 199.46L 110.39215686274511 199.328L 113.41176470588235 198.308L 116.4313725490196 198.164L 119.45098039215686 199.832L 122.47058823529412 194.876L 125.49019607843137 199.904L 128.50980392156862 195.584L 131.52941176470588 200.732L 134.54901960784315 198.416L 137.5686274509804 190.652L 140.58823529411765 196.112L 143.60784313725492 190.82L 146.62745098039215 193.53199999999998L 149.64705882352942 199.688L 152.66666666666666 192.392L 155.68627450980392 197L 158.70588235294116 199.59199999999998L 161.72549019607843 193.54399999999998L 164.7450980392157 195.26L 167.76470588235293 195.428L 170.78431372549022 195.548L 173.80392156862746 196.484L 176.8235294117647 199.424L 179.84313725490196 199.22L 182.8627450980392 195.656L 185.88235294117646 193.952L 188.90196078431373 195.536L 191.921568627451 198.764L 194.94117647058823 195.428L 197.96078431372547 194L 200.98039215686273 193.688L 204 186.32L 207.01960784313727 197.372L 210.0392156862745 195.96800000000002L 213.05882352941177 198.284L 216.07843137254903 194.38400000000001L 219.09803921568627 196.424L 222.11764705882354 196.988L 225.13725490196077 198.368L 228.15686274509804 198.05599999999998L 231.1764705882353 199.61599999999999L 234.19607843137257 191.54L 237.2156862745098 202.124L 240.23529411764704 193.34L 243.2549019607843 204.2L 246.27450980392157 206L 249.29411764705884 206L 252.31372549019608 206L 255.33333333333331 206L 258.3529411764706 190.472L 261.37254901960785 159.01999999999998L 264.3921568627451 193.56799999999998L 267.4117647058823 200.228L 270.4313725490196 193.232L 273.45098039215685 196.82L 276.47058823529414 199.772L 279.4901960784314 186.548L 282.5098039215686 197.888L 285.52941176470586 195.596L 288.54901960784315 190.508L 291.56862745098044 194.876L 294.5882352941177 190.4L 297.6078431372549 188.756L 300.62745098039215 197.852L 303.6470588235294 199.772L 306.6666666666667 191.936L 309.6862745098039 191.864L 312.70588235294116 199.316L 315.7254901960784 194.72L 318.7450980392157 192.608L 321.7647058823529 194.9L 324.7843137254902 199.7L 327.80392156862746 189.224L 330.8235294117647 198.428L 333.843137254902 196.136L 336.8627450980392 195.296L 339.88235294117646 196.268L 342.9019607843137 193.184L 345.92156862745094 197.204L 348.94117647058823 193.856L 351.96078431372547 197.096L 354.98039215686276 178.16L 358 194.372L 361.0196078431373 195.92000000000002L 364.03921568627453 195.11599999999999L 367.05882352941177 196.688L 370.078431372549 197.49200000000002L 373.09803921568624 197.696L 376.11764705882354 186.848L 379.1372549019608 192.644L 382.15686274509807 199.61599999999999L 385.1764705882353 193.052L 388.19607843137254 191.072L 391.21568627450984 195.44L 394.2352941176471 196.184L 397.2549019607843 196.46L 400.27450980392155 197.312L 403.2941176470588 193.076L 406.3137254901961 206L 409.3333333333333 186.44L 412.3529411764706 186.632L 415.37254901960785 191.276L 418.39215686274514 180.93200000000002L 421.4117647058824 201.704L 424.4313725490196 185.744L 427.45098039215685 196.028L 430.4705882352941 189.464L 433.4901960784314 194.228L 436.5098039215686 195.632L 439.52941176470586 196.844L 442.54901960784315 186.332L 445.5686274509804 197.99599999999998L 448.5882352941177 188.924L 451.6078431372549 189.128L 454.62745098039215 196.748L 457.6470588235294 182.45600000000002L 460.66666666666663 184.16L 463.6862745098039 206L 466.70588235294116 206L 469.72549019607845 206L 472.7450980392157 160.16L 475.7647058823529 198.536L 478.7843137254902 196.60399999999998L 481.80392156862746 195.668L 484.8235294117647 192.8L 487.84313725490193 196.964L 490.8627450980392 197.828L 493.88235294117646 200.84L 496.9019607843137 170.312L 499.921568627451 189.236L 502.94117647058823 177.428L 505.9607843137255 191.564L 508.98039215686276 178.784L 512 176.372L 515.0196078431372 181.7L 518.0392156862745 187.472L 521.0588235294117 192.88400000000001L 524.078431372549 189.38L 527.0980392156863 187.772L 530.1176470588236 189.404L 533.1372549019609 187.532L 536.1568627450981 193.59199999999998L 539.1764705882354 185.036L 542.1960784313726 171.332L 545.2156862745098 180.14L 548.2352941176471 172.316L 551.2549019607843 193.028L 554.2745098039215 191.996L 557.2941176470588 193.052L 560.3137254901961 194.84L 563.3333333333334 193.53199999999998L 566.3529411764706 194.024L 569.3725490196078 189.272L 572.3921568627451 195.188L 575.4117647058823 196.256L 578.4313725490196 192.62L 581.4509803921568 190.844L 584.4705882352941 200.984L 587.4901960784314 184.796L 590.5098039215686 190.88L 593.5294117647059 194.42000000000002L 596.5490196078431 189.86L 599.5686274509804 195.86L 602.5882352941177 191.984L 605.6078431372549 193.1L 608.6274509803922 186.464L 611.6470588235294 190.46L 614.6666666666667 182.156L 617.686274509804 187.136L 620.7058823529412 191.528L 623.7254901960785 184.1L 626.7450980392157 189.14L 629.7647058823529 185.204L 632.7843137254902 185.468L 635.8039215686274 176.828L 638.8235294117646 189.04399999999998L 641.8431372549019 191.048L 644.8627450980392 188.756L 647.8823529411765 187.592L 650.9019607843137 191.39600000000002L 653.9215686274509 187.796L 656.9411764705883 188.228L 659.9607843137255 190.268L 662.9803921568628 194.372L 666 194.72L 669.0196078431372 201.308L 672.0392156862746 192.752L 675.0588235294118 181.148L 678.0784313725491 181.748L 681.0980392156863 181.208L 684.1176470588235 191.3L 687.1372549019608 186.88400000000001L 690.156862745098 181.376L 693.1764705882352 186.5L 696.1960784313725 188.44400000000002L 699.2156862745097 179.66L 702.2352941176471 183.09199999999998L 705.2549019607843 173.564L 708.2745098039215 183.836L 711.2941176470588 171.668L 714.3137254901961 148.148L 717.3333333333334 178.004L 720.3529411764706 141.86L 723.3725490196078 186.128L 726.3921568627451 188.54000000000002L 729.4117647058824 187.748L 732.4313725490197 193.256L 735.4509803921569 186.596L 738.4705882352941 185.42000000000002L 741.4901960784314 186.872L 744.5098039215686 185.372L 747.5294117647059 192.824L 750.5490196078431 188.552L 753.5686274509803 189.32L 756.5882352941176 186.632L 759.6078431372549 185.768L 762.6274509803922 188.744L 765.6470588235294 187.34L 768.6666666666666 192.488L 771.6862745098039 187.028L 774.7058823529412 185.468L 777.7254901960785 181.928L 780.7450980392157 183.8L 783.7647058823529 180.296L 786.7843137254903 185.516L 789.8039215686275 194L 792.8235294117648 190.328L 795.843137254902 186.584L 798.8627450980392 168.32L 801.8823529411765 117.5L 804.9019607843137 189.10399999999998L 807.9215686274509 187.844L 810.9411764705882 190.28L 813.9607843137254 192.32L 816.9803921568628 189.2L 820 182.288L 823.0196078431372 188.49200000000002L 826.0392156862745 178.916L 829.0588235294117 53.432000000000016L 832.0784313725491 162.656L 835.0980392156863 184.52L 838.1176470588235 182.708L 841.1372549019608 183.68L 844.1568627450981 184.196L 847.1764705882354 179.084L 850.1960784313726 190.16L 853.2156862745098 180.476L 856.2352941176471 160.916L 859.2549019607843 121.196L 862.2745098039215 151.50799999999998L 865.2941176470588 164.132L 868.313725490196 181.184L 871.3333333333333 170.49200000000002L 874.3529411764706 179.792L 877.3725490196078 173.204L 880.3921568627451 178.352L 883.4117647058823 182.792L 886.4313725490196 177.152L 889.4509803921569 184.232L 892.4705882352941 187.796L 895.4901960784314 188.348L 898.5098039215686 184.736L 901.5294117647059 181.892L 904.5490196078432 181.796L 907.5686274509804 179.36L 910.5882352941177 168.176L 913.6078431372549 181.808L 916.6274509803922 185.372L 919.6470588235294 167.708L 922.6666666666666 140.6L 925.6862745098039 160.784L 928.7058823529411 151.664L 931.7254901960785 145.952L 934.7450980392157 155.288L 937.7647058823529 153.68L 940.7843137254902 163.04L 943.8039215686274 172.064L 946.8235294117648 148.952L 949.843137254902 171.812L 952.8627450980392 172.46L 955.8823529411765 172.508L 958.9019607843137 183.644L 961.921568627451 166.304L 964.9411764705883 159.26L 967.9607843137255 172.652L 970.9803921568628 165.512L 974 196.052" stroke-width="2.0" fill="none" />
    
        
        
        <text x="45.0" font-family="-apple-system, system-ui, BlinkMacSystemFont, Roboto" y="50.0" dominant-baseline="middle" text-anchor="end" font-size="12" fill="#24292f">13000.0</text>
        
            
            <path stroke="#74838f" stroke-dasharray="10 6" stroke-width="0.5"  d="M 50.0 50.0 L 974.0 50.0" />
        
    
        
        
        <text x="45.0" font-family="-apple-system, system-ui, BlinkMacSystemFont, Roboto" y="81.2" dominant-baseline="middle" text-anchor="end" font-size="12" fill="#24292f">10400.0</text>
        
            
            
            <path stroke="#74838f" stroke-dasharray="10 6" stroke-width="0.5"  d="M 50.0 81.2 L 974.0 81.2" />
        
    
        
        
        <text x="45.0" font-family="-apple-system, system-ui, BlinkMacSystemFont, Roboto" y="112.4" dominant-baseline="middle" text-anchor="end" font-size="12" fill="#24292f">7800.0</text>
        
            
            
            <path stroke="#74838f" stroke-dasharray="10 6" stroke-width="0.5"  d="M 50.0 112.4 L 974.0 112.4" />
        
    
        
        
        <text x="45.0" font-family="-apple-system, system-ui, BlinkMacSystemFont, Roboto" y="143.6" dominant-baseline="middle" text-anchor="end" font-size="12" fill="#24292f">5200.0</text>
        
            
            
            <path stroke="#74838f" stroke-dasharray="10 6" stroke-width="0.5"  d="M 50.0 143.6 L 974.0 143.6" />
        
    
        
        
        <text x="45.0" font-family="-apple-system, system-ui, BlinkMacSystemFont, Roboto" y="174.8" dominant-baseline="middle" text-anchor="end" font-size="12" fill="#24292f">2600.0</text>
        
            
            
            <path stroke="#74838f" stroke-dasharray="10 6" stroke-width="0.5"  d="M 50.0 174.8 L 974.0 174.8" />
        
    
        
        
        <text x="45.0" font-family="-apple-system, system-ui, BlinkMacSystemFont, Roboto" y="206.0" dominant-baseline="middle" text-anchor="end" font-size="12" fill="#24292f">0.0</text>
        
    
    
        
        <path stroke="#74838f"  stroke-width="2.0"  d="M 98.31372549019608 206.0 L 98.31372549019608 214.0" />
        <text x="98.31372549019608" font-family="-apple-system, system-ui, BlinkMacSystemFont, Roboto" y="216.0" dominant-baseline="hanging" text-anchor="middle" font-size="12" fill="#24292f">Mar 2022</text>
    
        
        <path stroke="#74838f"  stroke-width="2.0"  d="M 191.921568627451 206.0 L 191.921568627451 214.0" />
        <text x="191.921568627451" font-family="-apple-system, system-ui, BlinkMacSystemFont, Roboto" y="216.0" dominant-baseline="hanging" text-anchor="middle" font-size="12" fill="#24292f">Apr 2022</text>
    
        
        <path stroke="#74838f"  stroke-width="2.0"  d="M 282.5098039215686 206.0 L 282.5098039215686 214.0" />
        <text x="282.5098039215686" font-family="-apple-system, system-ui, BlinkMacSystemFont, Roboto" y="216.0" dominant-baseline="hanging" text-anchor="middle" font-size="12" fill="#24292f">May 2022</text>
    
        
        <path stroke="#74838f"  stroke-width="2.0"  d="M 376.11764705882354 206.0 L 376.11764705882354 214.0" />
        <text x="376.11764705882354" font-family="-apple-system, system-ui, BlinkMacSystemFont, Roboto" y="216.0" dominant-baseline="hanging" text-anchor="middle" font-size="12" fill="#24292f">Jun 2022</text>
    
        
        <path stroke="#74838f"  stroke-width="2.0"  d="M 466.70588235294116 206.0 L 466.70588235294116 214.0" />
        <text x="466.70588235294116" font-family="-apple-system, system-ui, BlinkMacSystemFont, Roboto" y="216.0" dominant-baseline="hanging" text-anchor="middle" font-size="12" fill="#24292f">Jul 2022</text>
    
        
        <path stroke="#74838f"  stroke-width="2.0"  d="M 560.3137254901961 206.0 L 560.3137254901961 214.0" />
        <text x="560.3137254901961" font-family="-apple-system, system-ui, BlinkMacSystemFont, Roboto" y="216.0" dominant-baseline="hanging" text-anchor="middle" font-size="12" fill="#24292f">Aug 2022</text>
    
        
        <path stroke="#74838f"  stroke-width="2.0"  d="M 653.9215686274509 206.0 L 653.9215686274509 214.0" />
        <text x="653.9215686274509" font-family="-apple-system, system-ui, BlinkMacSystemFont, Roboto" y="216.0" dominant-baseline="hanging" text-anchor="middle" font-size="12" fill="#24292f">Sep 2022</text>
    
        
        <path stroke="#74838f"  stroke-width="2.0"  d="M 744.5098039215686 206.0 L 744.5098039215686 214.0" />
        <text x="744.5098039215686" font-family="-apple-system, system-ui, BlinkMacSystemFont, Roboto" y="216.0" dominant-baseline="hanging" text-anchor="middle" font-size="12" fill="#24292f">Oct 2022</text>
    
        
        <path stroke="#74838f"  stroke-width="2.0"  d="M 838.1176470588235 206.0 L 838.1176470588235 214.0" />
        <text x="838.1176470588235" font-family="-apple-system, system-ui, BlinkMacSystemFont, Roboto" y="216.0" dominant-baseline="hanging" text-anchor="middle" font-size="12" fill="#24292f">Nov 2022</text>
    
        
        <path stroke="#74838f"  stroke-width="2.0"  d="M 928.7058823529411 206.0 L 928.7058823529411 214.0" />
        <text x="928.7058823529411" font-family="-apple-system, system-ui, BlinkMacSystemFont, Roboto" y="216.0" dominant-baseline="hanging" text-anchor="middle" font-size="12" fill="#24292f">Dec 2022</text>
    
    <path stroke="#74838f"   stroke-linejoin="round" stroke-width="2.0" d="M 50.0 216.0 L 50.0 206.0 L 974.0 206.0 L 974.0 216.0"  fill="none" />
    <text x="512.0" y="25.0" font-family="-apple-system, system-ui, BlinkMacSystemFont, Roboto" dominant-baseline="middle" text-anchor="middle" font-size="18" fill="#24292f">Total daily suspensions</text>
</svg>
