<?xml version="1.0" standalone="no"?>
<svg width="1024.0" height="256.0"  viewBox="0 0 1024.0 256.0" preserveAspectRatio="xMidYMid meet" xmlns="http://www.w3.org/2000/svg">
    <path stroke="#e74c3c" stroke-linejoin="round" d="M 50.0 162.77066666666667 L 50 162.77066666666667L 51.94117647058823 194.12088888888889L 53.88235294117647 197.888L 55.8235294117647 198.2231111111111L 57.76470588235294 203.61955555555556L 59.705882352941174 200.16444444444443L 61.64705882352941 199.51733333333334L 63.588235294117645 191.65955555555556L 65.52941176470588 201.1582222222222L 67.47058823529412 198.89333333333332L 69.41176470588235 200.22222222222223L 71.3529411764706 202.70666666666665L 73.29411764705883 199.45955555555554L 75.23529411764706 195.9928888888889L 77.17647058823529 202.776L 79.11764705882354 198.98577777777777L 81.05882352941177 197.8071111111111L 83 191.96L 84.94117647058823 197.0328888888889L 86.88235294117646 199.70222222222222L 88.82352941176471 199.5751111111111L 90.76470588235294 198.5928888888889L 92.70588235294119 198.45422222222223L 94.64705882352942 200.06044444444444L 96.58823529411765 195.288L 98.52941176470588 200.12977777777778L 100.47058823529412 195.96977777777778L 102.41176470588235 200.92711111111112L 104.35294117647058 198.6968888888889L 106.29411764705881 191.22044444444444L 108.23529411764706 196.47822222222223L 110.1764705882353 191.38222222222223L 112.11764705882354 193.99377777777778L 114.05882352941177 199.92177777777778L 116 192.89600000000002L 117.94117647058823 197.33333333333334L 119.88235294117646 199.82933333333332L 121.82352941176471 194.00533333333334L 123.76470588235294 195.65777777777777L 125.70588235294117 195.81955555555555L 127.64705882352942 195.9351111111111L 129.58823529411765 196.83644444444445L 131.52941176470588 199.66755555555557L 133.47058823529412 199.4711111111111L 135.41176470588238 196.0391111111111L 137.35294117647058 194.39822222222222L 139.29411764705884 195.92355555555554L 141.23529411764707 199.03199999999998L 143.1764705882353 195.81955555555555L 145.11764705882354 194.44444444444446L 147.05882352941177 194.144L 149 187.04888888888888L 150.94117647058823 197.69155555555557L 152.88235294117646 196.33955555555556L 154.8235294117647 198.56977777777777L 156.76470588235293 194.8142222222222L 158.70588235294116 196.77866666666665L 160.64705882352942 197.32177777777778L 162.58823529411762 198.65066666666667L 164.52941176470588 198.35022222222221L 166.47058823529412 199.85244444444444L 168.41176470588235 192.07555555555555L 170.3529411764706 202.26755555555556L 172.29411764705884 193.80888888888887L 174.23529411764707 204.26666666666665L 176.17647058823528 206L 178.11764705882354 206L 180.05882352941177 206L 182 206L 183.94117647058826 191.04711111111112L 185.88235294117646 160.76L 187.8235294117647 194.02844444444446L 189.76470588235293 200.4417777777778L 191.7058823529412 193.7048888888889L 193.64705882352942 197.16L 195.58823529411765 200.00266666666667L 197.52941176470588 187.26844444444444L 199.47058823529412 198.18844444444443L 201.41176470588235 195.98133333333334L 203.35294117647058 191.08177777777777L 205.29411764705884 195.288L 207.23529411764707 190.97777777777776L 209.1764705882353 189.39466666666667L 211.1176470588235 198.15377777777778L 213.05882352941177 200.00266666666667L 215 192.4568888888889L 216.94117647058823 192.38755555555556L 218.88235294117646 199.56355555555555L 220.82352941176472 195.13777777777779L 222.76470588235296 193.10399999999998L 224.70588235294116 195.3111111111111L 226.6470588235294 199.93333333333334L 228.58823529411765 189.84533333333331L 230.52941176470588 198.70844444444444L 232.47058823529412 196.50133333333332L 234.41176470588238 195.69244444444445L 236.35294117647058 196.62844444444445L 238.2941176470588 193.65866666666668L 240.23529411764704 197.52977777777778L 242.1764705882353 194.3057777777778L 244.11764705882354 197.4257777777778L 246.05882352941177 179.19111111111113L 248 194.80266666666665L 249.94117647058823 196.29333333333335L 251.88235294117646 195.5191111111111L 253.8235294117647 197.0328888888889L 255.76470588235296 197.8071111111111L 257.7058823529412 198.00355555555555L 259.6470588235294 187.55733333333333L 261.5882352941177 193.13866666666667L 263.52941176470586 199.85244444444444L 265.47058823529414 193.53155555555554L 267.4117647058823 191.6248888888889L 269.3529411764706 195.8311111111111L 271.29411764705884 196.54755555555556L 273.2352941176471 196.81333333333333L 275.17647058823525 197.63377777777777L 277.11764705882354 193.55466666666666L 279.05882352941177 206L 281 187.16444444444446L 282.94117647058823 187.34933333333333L 284.88235294117646 191.8213333333333L 286.8235294117647 181.86044444444445L 288.7647058823529 201.8631111111111L 290.7058823529412 186.49422222222222L 292.6470588235294 196.39733333333334L 294.5882352941177 190.07644444444443L 296.52941176470586 194.664L 298.47058823529414 196.016L 300.4117647058823 197.18311111111112L 302.35294117647055 187.06044444444444L 304.29411764705884 198.29244444444444L 306.2352941176471 189.55644444444445L 308.1764705882353 189.7528888888889L 310.11764705882354 197.09066666666666L 312.05882352941177 183.328L 314 184.9688888888889L 315.94117647058823 206L 317.8823529411765 206L 319.8235294117647 206L 321.7647058823529 161.85777777777778L 323.70588235294116 198.81244444444445L 325.6470588235294 196.952L 327.5882352941176 196.05066666666667L 329.52941176470586 193.2888888888889L 331.4705882352941 197.29866666666666L 333.4117647058824 198.13066666666668L 335.3529411764706 201.0311111111111L 337.29411764705884 171.63377777777777L 339.2352941176471 189.85688888888888L 341.1764705882353 178.4862222222222L 343.11764705882354 192.09866666666667L 345.05882352941177 179.792L 347 177.46933333333334L 348.94117647058823 182.6L 350.88235294117646 188.1582222222222L 352.8235294117647 193.36977777777778L 354.7647058823529 189.99555555555554L 356.70588235294116 188.4471111111111L 358.6470588235294 190.01866666666666L 360.5882352941177 188.216L 362.5294117647059 194.05155555555555L 364.47058823529414 185.81244444444445L 366.4117647058824 172.61599999999999L 368.3529411764706 181.09777777777776L 370.29411764705884 173.56355555555555L 372.235294117647 193.50844444444445L 374.17647058823525 192.51466666666667L 376.11764705882354 193.53155555555554L 378.05882352941177 195.25333333333333L 380 193.99377777777778L 381.94117647058823 194.46755555555555L 383.88235294117646 189.89155555555556L 385.8235294117647 195.58844444444446L 387.7647058823529 196.6168888888889L 389.7058823529412 193.11555555555555L 391.64705882352945 191.40533333333332L 393.5882352941177 201.16977777777777L 395.5294117647059 185.58133333333333L 397.4705882352941 191.44L 399.4117647058823 194.8488888888889L 401.35294117647055 190.45777777777778L 403.2941176470588 196.23555555555555L 405.2352941176471 192.5031111111111L 407.1764705882353 193.57777777777778L 409.11764705882354 187.18755555555555L 411.05882352941177 191.03555555555556L 413 183.0391111111111L 414.94117647058823 187.83466666666666L 416.88235294117646 192.064L 418.82352941176475 184.9111111111111L 420.764705882353 189.76444444444445L 422.70588235294116 185.97422222222224L 424.6470588235294 186.22844444444445L 426.5882352941176 177.8968888888889L 428.52941176470586 189.672L 430.4705882352941 191.60177777777778L 432.4117647058823 189.39466666666667L 434.3529411764706 188.27377777777778L 436.29411764705884 191.9368888888889L 438.2352941176471 188.47022222222222L 440.1764705882353 188.88622222222222L 442.11764705882354 190.85066666666665L 444.05882352941177 194.80266666666665L 446 195.13777777777779L 447.94117647058823 201.48177777777778L 449.88235294117646 193.24266666666665L 451.8235294117647 182.06844444444445L 453.7647058823529 182.64622222222224L 455.70588235294116 182.12622222222222L 457.6470588235294 191.84444444444443L 459.5882352941176 187.592L 461.5294117647059 182.288L 463.47058823529414 187.22222222222223L 465.4117647058824 189.09422222222221L 467.3529411764706 180.63555555555556L 469.29411764705884 183.94044444444444L 471.2352941176471 174.76533333333333L 473.1764705882353 184.6568888888889L 475.1176470588235 172.93955555555556L 477.05882352941177 150.29066666666665L 479 179.0408888888889L 480.94117647058823 144.23555555555555L 482.88235294117646 186.864L 484.8235294117647 189.18666666666667L 486.7647058823529 188.424L 488.70588235294116 193.728L 490.64705882352945 187.31466666666665L 492.5882352941177 186.1822222222222L 494.5294117647059 187.58044444444445L 496.47058823529414 186.136L 498.4117647058824 193.312L 500.35294117647055 189.19822222222223L 502.2941176470588 189.9377777777778L 504.235294117647 187.34933333333333L 506.1764705882353 186.51733333333334L 508.11764705882354 189.3831111111111L 510.05882352941177 188.0311111111111L 512 192.98844444444444L 513.9411764705883 187.73066666666668L 515.8823529411765 186.22844444444445L 517.8235294117646 182.81955555555555L 519.7647058823529 184.6222222222222L 521.7058823529412 181.248L 523.6470588235294 186.27466666666666L 525.5882352941176 194.44444444444446L 527.5294117647059 190.90844444444446L 529.4705882352941 187.30311111111112L 531.4117647058824 169.71555555555557L 533.3529411764706 120.77777777777779L 535.2941176470588 189.72977777777777L 537.2352941176471 188.51644444444446L 539.1764705882354 190.86222222222221L 541.1176470588235 192.82666666666665L 543.0588235294117 189.82222222222222L 545 183.16622222222222L 546.9411764705883 189.14044444444443L 548.8823529411765 179.9191111111111L 550.8235294117646 59.082666666666654L 552.7647058823529 164.26133333333334L 554.7058823529411 185.31555555555556L 556.6470588235295 183.57066666666668L 558.5882352941177 184.50666666666666L 560.5294117647059 185.00355555555555L 562.4705882352941 180.0808888888889L 564.4117647058823 190.74666666666667L 566.3529411764706 181.42133333333334L 568.2941176470588 162.58577777777776L 570.2352941176471 124.3368888888889L 572.1764705882352 153.52622222222223L 574.1176470588235 165.68266666666668L 576.0588235294117 182.1031111111111L 578 171.8071111111111L 579.9411764705882 180.76266666666666L 581.8823529411765 174.41866666666667L 583.8235294117646 179.376L 585.764705882353 183.65155555555555L 587.7058823529412 178.22044444444444L 589.6470588235294 185.03822222222223L 591.5882352941177 188.47022222222222L 593.5294117647059 189.00177777777776L 595.4705882352941 185.52355555555556L 597.4117647058823 182.7848888888889L 599.3529411764706 182.69244444444445L 601.2941176470588 180.34666666666666L 603.2352941176471 169.5768888888889L 605.1764705882352 182.704L 607.1176470588235 186.136L 609.0588235294117 169.12622222222222L 611 143.0222222222222L 612.9411764705882 162.45866666666666L 614.8823529411765 153.67644444444443L 616.8235294117648 148.176L 618.7647058823529 157.16622222222222L 620.7058823529412 155.61777777777777L 622.6470588235294 164.63111111111112L 624.5882352941177 173.32088888888887L 626.5294117647059 151.0648888888889L 628.4705882352941 173.07822222222222L 630.4117647058823 173.70222222222222L 632.3529411764706 173.74844444444443L 634.2941176470588 184.472L 636.2352941176471 167.77422222222222L 638.1764705882352 160.9911111111111L 640.1176470588235 173.8871111111111L 642.0588235294118 167L 644 156.78488888888887L 645.9411764705883 175.07733333333334L 647.8823529411765 177.4L 649.8235294117648 187.22222222222223L 651.7647058823529 184.74933333333334L 653.7058823529412 183.952L 655.6470588235294 152.19733333333335L 657.5882352941177 183.96355555555556L 659.5294117647059 186.8871111111111L 661.4705882352941 185.87022222222222L 663.4117647058823 183.15466666666666L 665.3529411764706 183.06222222222223L 667.2941176470588 183.02755555555555L 669.235294117647 176.10577777777777L 671.1764705882354 182.87733333333333L 673.1176470588235 180.48533333333333L 675.0588235294118 185.56977777777777L 677 180L 678.9411764705883 176.984L 680.8823529411765 178.20888888888888L 682.8235294117648 179.8382222222222L 684.7647058823529 183.09688888888888L 686.7058823529412 177.53866666666667L 688.6470588235294 183.44355555555555L 690.5882352941177 178.09333333333333L 692.5294117647059 179.59555555555556L 694.470588235294 183.02755555555555L 696.4117647058823 180.4622222222222L 698.3529411764705 178.04711111111112L 700.2941176470589 186.89866666666666L 702.2352941176471 177.20355555555557L 704.1764705882354 179.07555555555555L 706.1176470588235 154.9591111111111L 708.0588235294118 133.512L 710 151.96622222222223L 711.9411764705883 151.57333333333332L 713.8823529411765 184.9111111111111L 715.8235294117648 185.28088888888888L 717.7647058823529 178.61333333333334L 719.7058823529411 142.39822222222222L 721.6470588235294 150.1751111111111L 723.5882352941176 164.04177777777778L 725.5294117647059 138.82755555555556L 727.470588235294 134.864L 729.4117647058824 144.85955555555557L 731.3529411764706 145.57600000000002L 733.2941176470589 128.7048888888889L 735.2352941176471 120.36177777777777L 737.1764705882354 165.80977777777778L 739.1176470588235 163.51022222222224L 741.0588235294118 160.39022222222223L 743 177.504L 744.9411764705882 187.34933333333333L 746.8823529411765 188.04266666666666L 748.8235294117646 186.8871111111111L 750.7647058823529 176.08266666666668L 752.7058823529411 179.41066666666666L 754.6470588235294 195.0568888888889L 756.5882352941176 185.53511111111112L 758.529411764706 183.6977777777778L 760.4705882352941 174.97333333333333L 762.4117647058824 178.61333333333334L 764.3529411764706 180.9591111111111L 766.2941176470589 184.0328888888889L 768.2352941176471 155.61777777777777L 770.1764705882352 149.7128888888889L 772.1176470588235 186.2631111111111L 774.0588235294117 191.28977777777777L 776 175.90933333333334L 777.9411764705882 175.49333333333334L 779.8823529411765 184.51822222222222L 781.8235294117646 189.69511111111112L 783.7647058823529 187.592L 785.7058823529411 180.09244444444445L 787.6470588235295 176.92622222222224L 789.5882352941177 163.31377777777777L 791.529411764706 162.112L 793.4705882352941 167.1271111111111L 795.4117647058823 180.32355555555554L 797.3529411764706 184.11377777777778L 799.2941176470588 191.57866666666666L 801.2352941176471 195.54222222222222L 803.1764705882352 183.54755555555556L 805.1176470588235 164.03022222222222L 807.0588235294117 171.05599999999998L 809 169.92355555555557L 810.9411764705882 180.02311111111112L 812.8823529411765 172.07288888888888L 814.8235294117646 163.53333333333333L 816.764705882353 171.34488888888887L 818.7058823529412 181.59466666666668L 820.6470588235294 179.80355555555556L 822.5882352941177 166.17955555555557L 824.5294117647059 154.92444444444445L 826.4705882352941 158.4488888888889L 828.4117647058823 156.4728888888889L 830.3529411764706 144.4551111111111L 832.2941176470588 158.52977777777778L 834.2352941176471 178.00088888888888L 836.1764705882352 144.99822222222224L 838.1176470588235 134.136L 840.0588235294117 139.8213333333333L 842 145.04444444444445L 843.9411764705882 153.168L 845.8823529411765 140.53777777777776L 847.8235294117648 113.86755555555555L 849.7647058823529 113.28977777777777L 851.7058823529412 164.85066666666665L 853.6470588235294 163.62577777777778L 855.5882352941177 150.16355555555555L 857.5294117647059 149.84L 859.4705882352941 56.54044444444443L 861.4117647058823 124.776L 863.3529411764706 64.07466666666667L 865.2941176470588 123.55111111111111L 867.2352941176471 157.536L 869.1764705882352 147.9911111111111L 871.1176470588235 136.22755555555557L 873.0588235294118 91.11466666666666L 875 107.36177777777779L 876.9411764705883 141.68177777777777L 878.8823529411765 157.73244444444444L 880.8235294117648 152.63644444444444L 882.7647058823529 96.22222222222221L 884.7058823529412 150.19822222222223L 886.6470588235294 116.57155555555556L 888.5882352941177 127.34133333333332L 890.5294117647059 180.53155555555554L 892.4705882352941 137.10577777777777L 894.4117647058823 122.64977777777779L 896.3529411764706 104.61155555555555L 898.2941176470588 141.76266666666666L 900.235294117647 164.23822222222222L 902.1764705882354 160.51733333333334L 904.1176470588235 154.57777777777778L 906.0588235294118 175.01955555555554L 908 146.87022222222222L 909.9411764705883 153.23733333333334L 911.8823529411765 142.82577777777777L 913.8235294117648 130.98133333333334L 915.7647058823529 88.53777777777778L 917.7058823529412 174.488L 919.6470588235294 50.55466666666666L 921.5882352941177 84.43555555555557L 923.5294117647059 152.47466666666668L 925.470588235294 114.90755555555555L 927.4117647058823 96.30311111111112L 929.3529411764705 171.46044444444445L 931.2941176470589 183.96355555555556L 933.2352941176471 169.87733333333333L 935.1764705882354 183.13155555555556L 937.1176470588235 171.992L 939.0588235294118 152.48622222222224L 941 169.704L 942.9411764705883 172.99733333333333L 944.8823529411765 164.61955555555556L 946.8235294117648 162.64355555555557L 948.7647058823529 170.51288888888888L 950.7058823529411 145.6568888888889L 952.6470588235294 159.81244444444445L 954.5882352941176 167.2542222222222L 956.5294117647059 141.55466666666666L 958.470588235294 160.864L 960.4117647058824 157.7208888888889L 962.3529411764706 154.87822222222223L 964.2941176470589 145.29866666666666L 966.2352941176471 177.65422222222222L 968.1764705882354 119.73777777777778L 970.1176470588235 144.96355555555556L 972.0588235294118 151.15733333333333L 974 188.216" stroke-width="2.0" fill="none" />
    
        
        
        <text x="45.0" font-family="-apple-system, system-ui, BlinkMacSystemFont, Roboto" y="50.0" dominant-baseline="middle" text-anchor="end" font-size="12" fill="#24292f">13500.0</text>
        
            
            <path stroke="#74838f" stroke-dasharray="10 6" stroke-width="0.5"  d="M 50.0 50.0 L 974.0 50.0" />
        
    
        
        
        <text x="45.0" font-family="-apple-system, system-ui, BlinkMacSystemFont, Roboto" y="81.2" dominant-baseline="middle" text-anchor="end" font-size="12" fill="#24292f">10800.0</text>
        
            
            
            <path stroke="#74838f" stroke-dasharray="10 6" stroke-width="0.5"  d="M 50.0 81.2 L 974.0 81.2" />
        
    
        
        
        <text x="45.0" font-family="-apple-system, system-ui, BlinkMacSystemFont, Roboto" y="112.4" dominant-baseline="middle" text-anchor="end" font-size="12" fill="#24292f">8100.0</text>
        
            
            
            <path stroke="#74838f" stroke-dasharray="10 6" stroke-width="0.5"  d="M 50.0 112.4 L 974.0 112.4" />
        
    
        
        
        <text x="45.0" font-family="-apple-system, system-ui, BlinkMacSystemFont, Roboto" y="143.6" dominant-baseline="middle" text-anchor="end" font-size="12" fill="#24292f">5400.0</text>
        
            
            
            <path stroke="#74838f" stroke-dasharray="10 6" stroke-width="0.5"  d="M 50.0 143.6 L 974.0 143.6" />
        
    
        
        
        <text x="45.0" font-family="-apple-system, system-ui, BlinkMacSystemFont, Roboto" y="174.8" dominant-baseline="middle" text-anchor="end" font-size="12" fill="#24292f">2700.0</text>
        
            
            
            <path stroke="#74838f" stroke-dasharray="10 6" stroke-width="0.5"  d="M 50.0 174.8 L 974.0 174.8" />
        
    
        
        
        <text x="45.0" font-family="-apple-system, system-ui, BlinkMacSystemFont, Roboto" y="206.0" dominant-baseline="middle" text-anchor="end" font-size="12" fill="#24292f">0.0</text>
        
    
    
        
        <path stroke="#74838f"  stroke-width="2.0"  d="M 81.05882352941177 206.0 L 81.05882352941177 214.0" />
        <text x="81.05882352941177" font-family="-apple-system, system-ui, BlinkMacSystemFont, Roboto" y="216.0" dominant-baseline="hanging" text-anchor="middle" font-size="12" fill="#24292f">Mar 2022</text>
    
        
        <path stroke="#74838f"  stroke-width="2.0"  d="M 141.23529411764707 206.0 L 141.23529411764707 214.0" />
        <text x="141.23529411764707" font-family="-apple-system, system-ui, BlinkMacSystemFont, Roboto" y="216.0" dominant-baseline="hanging" text-anchor="middle" font-size="12" fill="#24292f">Apr 2022</text>
    
        
        <path stroke="#74838f"  stroke-width="2.0"  d="M 199.47058823529412 206.0 L 199.47058823529412 214.0" />
        <text x="199.47058823529412" font-family="-apple-system, system-ui, BlinkMacSystemFont, Roboto" y="216.0" dominant-baseline="hanging" text-anchor="middle" font-size="12" fill="#24292f">May 2022</text>
    
        
        <path stroke="#74838f"  stroke-width="2.0"  d="M 259.6470588235294 206.0 L 259.6470588235294 214.0" />
        <text x="259.6470588235294" font-family="-apple-system, system-ui, BlinkMacSystemFont, Roboto" y="216.0" dominant-baseline="hanging" text-anchor="middle" font-size="12" fill="#24292f">Jun 2022</text>
    
        
        <path stroke="#74838f"  stroke-width="2.0"  d="M 317.8823529411765 206.0 L 317.8823529411765 214.0" />
        <text x="317.8823529411765" font-family="-apple-system, system-ui, BlinkMacSystemFont, Roboto" y="216.0" dominant-baseline="hanging" text-anchor="middle" font-size="12" fill="#24292f">Jul 2022</text>
    
        
        <path stroke="#74838f"  stroke-width="2.0"  d="M 378.05882352941177 206.0 L 378.05882352941177 214.0" />
        <text x="378.05882352941177" font-family="-apple-system, system-ui, BlinkMacSystemFont, Roboto" y="216.0" dominant-baseline="hanging" text-anchor="middle" font-size="12" fill="#24292f">Aug 2022</text>
    
        
        <path stroke="#74838f"  stroke-width="2.0"  d="M 438.2352941176471 206.0 L 438.2352941176471 214.0" />
        <text x="438.2352941176471" font-family="-apple-system, system-ui, BlinkMacSystemFont, Roboto" y="216.0" dominant-baseline="hanging" text-anchor="middle" font-size="12" fill="#24292f">Sep 2022</text>
    
        
        <path stroke="#74838f"  stroke-width="2.0"  d="M 496.47058823529414 206.0 L 496.47058823529414 214.0" />
        <text x="496.47058823529414" font-family="-apple-system, system-ui, BlinkMacSystemFont, Roboto" y="216.0" dominant-baseline="hanging" text-anchor="middle" font-size="12" fill="#24292f">Oct 2022</text>
    
        
        <path stroke="#74838f"  stroke-width="2.0"  d="M 556.6470588235295 206.0 L 556.6470588235295 214.0" />
        <text x="556.6470588235295" font-family="-apple-system, system-ui, BlinkMacSystemFont, Roboto" y="216.0" dominant-baseline="hanging" text-anchor="middle" font-size="12" fill="#24292f">Nov 2022</text>
    
        
        <path stroke="#74838f"  stroke-width="2.0"  d="M 614.8823529411765 206.0 L 614.8823529411765 214.0" />
        <text x="614.8823529411765" font-family="-apple-system, system-ui, BlinkMacSystemFont, Roboto" y="216.0" dominant-baseline="hanging" text-anchor="middle" font-size="12" fill="#24292f">Dec 2022</text>
    
        
        <path stroke="#74838f"  stroke-width="2.0"  d="M 675.0588235294118 206.0 L 675.0588235294118 214.0" />
        <text x="675.0588235294118" font-family="-apple-system, system-ui, BlinkMacSystemFont, Roboto" y="216.0" dominant-baseline="hanging" text-anchor="middle" font-size="12" fill="#24292f">Jan 2023</text>
    
        
        <path stroke="#74838f"  stroke-width="2.0"  d="M 735.2352941176471 206.0 L 735.2352941176471 214.0" />
        <text x="735.2352941176471" font-family="-apple-system, system-ui, BlinkMacSystemFont, Roboto" y="216.0" dominant-baseline="hanging" text-anchor="middle" font-size="12" fill="#24292f">Feb 2023</text>
    
        
        <path stroke="#74838f"  stroke-width="2.0"  d="M 789.5882352941177 206.0 L 789.5882352941177 214.0" />
        <text x="789.5882352941177" font-family="-apple-system, system-ui, BlinkMacSystemFont, Roboto" y="216.0" dominant-baseline="hanging" text-anchor="middle" font-size="12" fill="#24292f">Mar 2023</text>
    
        
        <path stroke="#74838f"  stroke-width="2.0"  d="M 849.7647058823529 206.0 L 849.7647058823529 214.0" />
        <text x="849.7647058823529" font-family="-apple-system, system-ui, BlinkMacSystemFont, Roboto" y="216.0" dominant-baseline="hanging" text-anchor="middle" font-size="12" fill="#24292f">Apr 2023</text>
    
        
        <path stroke="#74838f"  stroke-width="2.0"  d="M 908.0 206.0 L 908.0 214.0" />
        <text x="908.0" font-family="-apple-system, system-ui, BlinkMacSystemFont, Roboto" y="216.0" dominant-baseline="hanging" text-anchor="middle" font-size="12" fill="#24292f">May 2023</text>
    
        
        <path stroke="#74838f"  stroke-width="2.0"  d="M 968.1764705882354 206.0 L 968.1764705882354 214.0" />
        <text x="968.1764705882354" font-family="-apple-system, system-ui, BlinkMacSystemFont, Roboto" y="216.0" dominant-baseline="hanging" text-anchor="middle" font-size="12" fill="#24292f">Jun 2023</text>
    
    <path stroke="#74838f"   stroke-linejoin="round" stroke-width="2.0" d="M 50.0 216.0 L 50.0 206.0 L 974.0 206.0 L 974.0 216.0"  fill="none" />
    <text x="512.0" y="25.0" font-family="-apple-system, system-ui, BlinkMacSystemFont, Roboto" dominant-baseline="middle" text-anchor="middle" font-size="18" fill="#24292f">Total daily suspensions</text>
</svg>
