<?xml version="1.0" standalone="no"?>
<svg width="1024.0" height="256.0"  viewBox="0 0 1024.0 256.0" preserveAspectRatio="xMidYMid meet" xmlns="http://www.w3.org/2000/svg">
    <path stroke="#e74c3c" stroke-linejoin="round" d="M 50.0 161.108 L 50 161.108L 53.142857142857146 193.664L 56.285714285714285 197.576L 59.42857142857143 197.924L 62.57142857142857 203.528L 65.71428571428572 199.94L 68.85714285714286 199.268L 72 191.108L 75.14285714285714 200.972L 78.28571428571428 198.62L 81.42857142857143 200L 84.57142857142857 202.57999999999998L 87.71428571428571 199.208L 90.85714285714286 195.608L 94 202.652L 97.14285714285714 198.716L 100.28571428571428 197.49200000000002L 103.42857142857143 191.42000000000002L 106.57142857142857 196.688L 109.71428571428572 199.46L 112.85714285714286 199.328L 116 198.308L 119.14285714285714 198.164L 122.28571428571429 199.832L 125.42857142857142 194.876L 128.57142857142856 199.904L 131.71428571428572 195.584L 134.85714285714286 200.732L 138 198.416L 141.14285714285714 190.652L 144.28571428571428 196.112L 147.42857142857144 190.82L 150.57142857142856 193.53199999999998L 153.71428571428572 199.688L 156.85714285714286 192.392L 160 197L 163.14285714285714 199.59199999999998L 166.28571428571428 193.54399999999998L 169.42857142857144 195.26L 172.57142857142858 195.428L 175.71428571428572 195.548L 178.85714285714283 196.484L 182 199.424L 185.14285714285714 199.22L 188.28571428571428 195.656L 191.42857142857144 193.952L 194.57142857142858 195.536L 197.71428571428572 198.764L 200.85714285714283 195.428L 204 194L 207.14285714285714 193.688L 210.28571428571428 186.32L 213.42857142857142 197.372L 216.57142857142858 195.96800000000002L 219.71428571428572 198.284L 222.85714285714286 194.38400000000001L 226 196.424L 229.14285714285714 196.988L 232.28571428571428 198.368L 235.42857142857142 198.05599999999998L 238.57142857142858 199.61599999999999L 241.71428571428572 191.54L 244.85714285714286 202.124L 248 193.34L 251.14285714285714 204.2L 254.28571428571428 206L 257.42857142857144 206L 260.57142857142856 206L 263.7142857142857 206L 266.8571428571429 190.472L 270 159.01999999999998L 273.1428571428571 193.56799999999998L 276.2857142857143 200.228L 279.42857142857144 193.232L 282.57142857142856 196.82L 285.7142857142857 199.772L 288.8571428571429 186.548L 292 197.888L 295.14285714285717 195.596L 298.28571428571433 190.508L 301.42857142857144 194.876L 304.57142857142856 190.4L 307.71428571428567 188.756L 310.85714285714283 197.852L 314 199.772L 317.1428571428571 191.936L 320.2857142857143 191.864L 323.42857142857144 199.316L 326.57142857142856 194.72L 329.7142857142857 192.608L 332.8571428571429 194.9L 336 199.7L 339.14285714285717 189.224L 342.2857142857143 198.428L 345.42857142857144 196.136L 348.5714285714286 195.296L 351.71428571428567 196.268L 354.85714285714283 193.184L 358 197.204L 361.1428571428571 193.856L 364.2857142857143 197.096L 367.42857142857144 178.16L 370.57142857142856 194.372L 373.7142857142857 195.92000000000002L 376.85714285714283 195.11599999999999L 380 196.688L 383.14285714285717 197.49200000000002L 386.2857142857143 197.696L 389.42857142857144 186.848L 392.5714285714286 192.644L 395.7142857142857 199.61599999999999L 398.85714285714283 193.052L 402 191.072L 405.1428571428571 195.44L 408.2857142857143 196.184L 411.42857142857144 196.46L 414.57142857142856 197.312L 417.7142857142857 193.076L 420.85714285714283 206L 424 186.44L 427.14285714285717 186.632L 430.2857142857143 191.276L 433.42857142857144 180.93200000000002L 436.5714285714286 201.704L 439.7142857142857 185.744L 442.85714285714283 196.028L 446 189.464L 449.1428571428571 194.228L 452.2857142857143 195.632L 455.42857142857144 196.844L 458.57142857142856 186.332L 461.7142857142857 197.99599999999998L 464.85714285714283 188.924L 468 189.128L 471.14285714285717 196.748L 474.2857142857143 182.45600000000002L 477.42857142857144 184.16L 480.5714285714286 206L 483.7142857142857 206L 486.8571428571429 206L 490 160.16L 493.1428571428571 198.536L 496.2857142857143 196.60399999999998L 499.4285714285714 195.668L 502.57142857142856 192.8L 505.7142857142857 196.964L 508.85714285714283 197.828L 512 200.84L 515.1428571428571 170.312L 518.2857142857142 189.236L 521.4285714285714 177.428L 524.5714285714287 191.564L 527.7142857142858 178.784L 530.8571428571429 176.372L 534 181.7L 537.1428571428571 187.472L 540.2857142857143 192.88400000000001L 543.4285714285714 189.38L 546.5714285714287 187.772L 549.7142857142858 189.404L 552.8571428571429 187.532L 556 193.59199999999998L 559.1428571428571 185.036L 562.2857142857142 171.332L 565.4285714285713 180.14L 568.5714285714286 172.316L 571.7142857142857 193.028L 574.8571428571428 191.996L 578 193.052L 581.1428571428571 194.84L 584.2857142857142 193.53199999999998L 587.4285714285714 194.024L 590.5714285714286 189.272L 593.7142857142857 195.188L 596.8571428571429 196.256L 600 192.62L 603.1428571428571 190.844L 606.2857142857143 200.984L 609.4285714285714 184.796L 612.5714285714286 190.88L 615.7142857142858 194.42000000000002L 618.8571428571429 189.86L 622 195.86L 625.1428571428571 191.984L 628.2857142857143 193.1L 631.4285714285714 186.464L 634.5714285714286 190.46L 637.7142857142858 182.156L 640.8571428571429 187.136L 644 191.528L 647.1428571428572 184.1L 650.2857142857143 189.14L 653.4285714285713 185.204L 656.5714285714286 185.468L 659.7142857142857 176.828L 662.8571428571428 189.04399999999998L 666 191.048L 669.1428571428571 188.756L 672.2857142857142 187.592L 675.4285714285714 191.39600000000002L 678.5714285714286 187.796L 681.7142857142857 188.228L 684.8571428571429 190.268L 688 194.372L 691.1428571428571 194.72L 694.2857142857143 201.308L 697.4285714285714 192.752L 700.5714285714286 181.148L 703.7142857142857 181.748L 706.8571428571429 181.208L 710 191.3L 713.1428571428571 186.88400000000001L 716.2857142857143 181.376L 719.4285714285714 186.5L 722.5714285714286 188.44400000000002L 725.7142857142858 179.66L 728.8571428571429 183.09199999999998L 732 173.564L 735.1428571428572 183.836L 738.2857142857143 171.668L 741.4285714285714 148.148L 744.5714285714286 178.004L 747.7142857142857 141.86L 750.8571428571428 186.128L 754 188.54000000000002L 757.1428571428571 187.748L 760.2857142857142 193.256L 763.4285714285714 186.596L 766.5714285714286 185.42000000000002L 769.7142857142857 186.872L 772.8571428571429 185.372L 776 192.824L 779.1428571428571 188.552L 782.2857142857143 189.32L 785.4285714285714 186.632L 788.5714285714286 185.768L 791.7142857142857 188.744L 794.8571428571429 187.34L 798 192.488L 801.1428571428571 187.028L 804.2857142857143 185.468L 807.4285714285714 181.928L 810.5714285714286 183.8L 813.7142857142858 180.296L 816.8571428571429 185.516L 820 194L 823.1428571428572 190.328L 826.2857142857143 186.584L 829.4285714285714 168.32L 832.5714285714287 117.5L 835.7142857142857 189.10399999999998L 838.8571428571428 187.844L 842 190.28L 845.1428571428571 192.32L 848.2857142857142 189.2L 851.4285714285714 182.288L 854.5714285714286 188.49200000000002L 857.7142857142857 178.916L 860.8571428571429 53.432000000000016L 864 162.656L 867.1428571428571 184.52L 870.2857142857142 182.708L 873.4285714285714 183.68L 876.5714285714286 184.196L 879.7142857142857 179.084L 882.8571428571429 190.16L 886 180.476L 889.1428571428571 160.916L 892.2857142857143 121.196L 895.4285714285714 151.50799999999998L 898.5714285714286 164.132L 901.7142857142858 181.184L 904.8571428571429 170.49200000000002L 908 179.792L 911.1428571428572 173.204L 914.2857142857143 178.352L 917.4285714285714 182.792L 920.5714285714287 177.152L 923.7142857142858 184.232L 926.8571428571429 187.796L 930 188.348L 933.1428571428571 184.736L 936.2857142857142 181.892L 939.4285714285714 181.796L 942.5714285714286 179.36L 945.7142857142857 168.176L 948.8571428571428 181.808L 952 185.372L 955.1428571428571 167.708L 958.2857142857142 140.6L 961.4285714285714 160.784L 964.5714285714286 151.664L 967.7142857142857 145.952L 970.8571428571429 155.288L 974 180.90800000000002" stroke-width="2.0" fill="none" />
    
        
        
        <text x="45.0" font-family="-apple-system, system-ui, BlinkMacSystemFont, Roboto" y="50.0" dominant-baseline="middle" text-anchor="end" font-size="12" fill="#24292f">13000.0</text>
        
            
            <path stroke="#74838f" stroke-dasharray="10 6" stroke-width="0.5"  d="M 50.0 50.0 L 974.0 50.0" />
        
    
        
        
        <text x="45.0" font-family="-apple-system, system-ui, BlinkMacSystemFont, Roboto" y="81.2" dominant-baseline="middle" text-anchor="end" font-size="12" fill="#24292f">10400.0</text>
        
            
            
            <path stroke="#74838f" stroke-dasharray="10 6" stroke-width="0.5"  d="M 50.0 81.2 L 974.0 81.2" />
        
    
        
        
        <text x="45.0" font-family="-apple-system, system-ui, BlinkMacSystemFont, Roboto" y="112.4" dominant-baseline="middle" text-anchor="end" font-size="12" fill="#24292f">7800.0</text>
        
            
            
            <path stroke="#74838f" stroke-dasharray="10 6" stroke-width="0.5"  d="M 50.0 112.4 L 974.0 112.4" />
        
    
        
        
        <text x="45.0" font-family="-apple-system, system-ui, BlinkMacSystemFont, Roboto" y="143.6" dominant-baseline="middle" text-anchor="end" font-size="12" fill="#24292f">5200.0</text>
        
            
            
            <path stroke="#74838f" stroke-dasharray="10 6" stroke-width="0.5"  d="M 50.0 143.6 L 974.0 143.6" />
        
    
        
        
        <text x="45.0" font-family="-apple-system, system-ui, BlinkMacSystemFont, Roboto" y="174.8" dominant-baseline="middle" text-anchor="end" font-size="12" fill="#24292f">2600.0</text>
        
            
            
            <path stroke="#74838f" stroke-dasharray="10 6" stroke-width="0.5"  d="M 50.0 174.8 L 974.0 174.8" />
        
    
        
        
        <text x="45.0" font-family="-apple-system, system-ui, BlinkMacSystemFont, Roboto" y="206.0" dominant-baseline="middle" text-anchor="end" font-size="12" fill="#24292f">0.0</text>
        
    
    
        
        <path stroke="#74838f"  stroke-width="2.0"  d="M 100.28571428571428 206.0 L 100.28571428571428 214.0" />
        <text x="100.28571428571428" font-family="-apple-system, system-ui, BlinkMacSystemFont, Roboto" y="216.0" dominant-baseline="hanging" text-anchor="middle" font-size="12" fill="#24292f">Mar 2022</text>
    
        
        <path stroke="#74838f"  stroke-width="2.0"  d="M 197.71428571428572 206.0 L 197.71428571428572 214.0" />
        <text x="197.71428571428572" font-family="-apple-system, system-ui, BlinkMacSystemFont, Roboto" y="216.0" dominant-baseline="hanging" text-anchor="middle" font-size="12" fill="#24292f">Apr 2022</text>
    
        
        <path stroke="#74838f"  stroke-width="2.0"  d="M 292.0 206.0 L 292.0 214.0" />
        <text x="292.0" font-family="-apple-system, system-ui, BlinkMacSystemFont, Roboto" y="216.0" dominant-baseline="hanging" text-anchor="middle" font-size="12" fill="#24292f">May 2022</text>
    
        
        <path stroke="#74838f"  stroke-width="2.0"  d="M 389.42857142857144 206.0 L 389.42857142857144 214.0" />
        <text x="389.42857142857144" font-family="-apple-system, system-ui, BlinkMacSystemFont, Roboto" y="216.0" dominant-baseline="hanging" text-anchor="middle" font-size="12" fill="#24292f">Jun 2022</text>
    
        
        <path stroke="#74838f"  stroke-width="2.0"  d="M 483.7142857142857 206.0 L 483.7142857142857 214.0" />
        <text x="483.7142857142857" font-family="-apple-system, system-ui, BlinkMacSystemFont, Roboto" y="216.0" dominant-baseline="hanging" text-anchor="middle" font-size="12" fill="#24292f">Jul 2022</text>
    
        
        <path stroke="#74838f"  stroke-width="2.0"  d="M 581.1428571428571 206.0 L 581.1428571428571 214.0" />
        <text x="581.1428571428571" font-family="-apple-system, system-ui, BlinkMacSystemFont, Roboto" y="216.0" dominant-baseline="hanging" text-anchor="middle" font-size="12" fill="#24292f">Aug 2022</text>
    
        
        <path stroke="#74838f"  stroke-width="2.0"  d="M 678.5714285714286 206.0 L 678.5714285714286 214.0" />
        <text x="678.5714285714286" font-family="-apple-system, system-ui, BlinkMacSystemFont, Roboto" y="216.0" dominant-baseline="hanging" text-anchor="middle" font-size="12" fill="#24292f">Sep 2022</text>
    
        
        <path stroke="#74838f"  stroke-width="2.0"  d="M 772.8571428571429 206.0 L 772.8571428571429 214.0" />
        <text x="772.8571428571429" font-family="-apple-system, system-ui, BlinkMacSystemFont, Roboto" y="216.0" dominant-baseline="hanging" text-anchor="middle" font-size="12" fill="#24292f">Oct 2022</text>
    
        
        <path stroke="#74838f"  stroke-width="2.0"  d="M 870.2857142857142 206.0 L 870.2857142857142 214.0" />
        <text x="870.2857142857142" font-family="-apple-system, system-ui, BlinkMacSystemFont, Roboto" y="216.0" dominant-baseline="hanging" text-anchor="middle" font-size="12" fill="#24292f">Nov 2022</text>
    
        
        <path stroke="#74838f"  stroke-width="2.0"  d="M 964.5714285714286 206.0 L 964.5714285714286 214.0" />
        <text x="964.5714285714286" font-family="-apple-system, system-ui, BlinkMacSystemFont, Roboto" y="216.0" dominant-baseline="hanging" text-anchor="middle" font-size="12" fill="#24292f">Dec 2022</text>
    
    <path stroke="#74838f"   stroke-linejoin="round" stroke-width="2.0" d="M 50.0 216.0 L 50.0 206.0 L 974.0 206.0 L 974.0 216.0"  fill="none" />
    <text x="512.0" y="25.0" font-family="-apple-system, system-ui, BlinkMacSystemFont, Roboto" dominant-baseline="middle" text-anchor="middle" font-size="18" fill="#24292f">Total daily suspensions</text>
</svg>
