<?xml version="1.0" standalone="no"?>
<svg width="1024.0" height="256.0"  viewBox="0 0 1024.0 256.0" preserveAspectRatio="xMidYMid meet" xmlns="http://www.w3.org/2000/svg">
    <path stroke="#e74c3c" stroke-linejoin="round" d="M 50.0 162.77066666666667 L 50 162.77066666666667L 51.96595744680851 194.12088888888889L 53.93191489361702 197.888L 55.89787234042553 198.2231111111111L 57.86382978723404 203.61955555555556L 59.829787234042556 200.16444444444443L 61.795744680851065 199.51733333333334L 63.761702127659575 191.65955555555556L 65.72765957446808 201.1582222222222L 67.6936170212766 198.89333333333332L 69.65957446808511 200.22222222222223L 71.62553191489361 202.70666666666665L 73.59148936170213 199.45955555555554L 75.55744680851063 195.9928888888889L 77.52340425531915 202.776L 79.48936170212765 198.98577777777777L 81.45531914893617 197.8071111111111L 83.42127659574467 191.96L 85.38723404255319 197.0328888888889L 87.3531914893617 199.70222222222222L 89.31914893617022 199.5751111111111L 91.28510638297873 198.5928888888889L 93.25106382978723 198.45422222222223L 95.21702127659574 200.06044444444444L 97.18297872340426 195.288L 99.14893617021276 200.12977777777778L 101.11489361702127 195.96977777777778L 103.08085106382978 200.92711111111112L 105.0468085106383 198.6968888888889L 107.01276595744682 191.22044444444444L 108.9787234042553 196.47822222222223L 110.94468085106382 191.38222222222223L 112.91063829787234 193.99377777777778L 114.87659574468086 199.92177777777778L 116.84255319148936 192.89600000000002L 118.80851063829788 197.33333333333334L 120.77446808510638 199.82933333333332L 122.7404255319149 194.00533333333334L 124.70638297872341 195.65777777777777L 126.67234042553191 195.81955555555555L 128.63829787234044 195.9351111111111L 130.60425531914893 196.83644444444445L 132.57021276595745 199.66755555555557L 134.53617021276597 199.4711111111111L 136.50212765957446 196.0391111111111L 138.46808510638297 194.39822222222222L 140.4340425531915 195.92355555555554L 142.4 199.03199999999998L 144.36595744680852 195.81955555555555L 146.331914893617 194.44444444444446L 148.29787234042553 194.144L 150.26382978723404 187.04888888888888L 152.22978723404253 197.69155555555557L 154.19574468085108 196.33955555555556L 156.16170212765957 198.56977777777777L 158.12765957446808 194.8142222222222L 160.0936170212766 196.77866666666665L 162.0595744680851 197.32177777777778L 164.02553191489363 198.65066666666667L 165.99148936170212 198.35022222222221L 167.9574468085106 199.85244444444444L 169.92340425531916 192.07555555555555L 171.88936170212764 202.26755555555556L 173.8553191489362 193.80888888888887L 175.82127659574468 204.26666666666665L 177.7872340425532 206L 179.7531914893617 206L 181.71914893617023 206L 183.68510638297872 206L 185.65106382978723 191.04711111111112L 187.61702127659575 160.76L 189.58297872340424 194.02844444444446L 191.54893617021276 200.4417777777778L 193.51489361702127 193.7048888888889L 195.4808510638298 197.16L 197.4468085106383 200.00266666666667L 199.41276595744682 187.26844444444444L 201.3787234042553 198.18844444444443L 203.34468085106383 195.98133333333334L 205.31063829787234 191.08177777777777L 207.27659574468086 195.288L 209.24255319148935 190.97777777777776L 211.20851063829787 189.39466666666667L 213.17446808510638 198.15377777777778L 215.1404255319149 200.00266666666667L 217.10638297872342 192.4568888888889L 219.0723404255319 192.38755555555556L 221.03829787234042 199.56355555555555L 223.00425531914894 195.13777777777779L 224.97021276595746 193.10399999999998L 226.93617021276594 195.3111111111111L 228.90212765957446 199.93333333333334L 230.86808510638298 189.84533333333331L 232.8340425531915 198.70844444444444L 234.8 196.50133333333332L 236.7659574468085 195.69244444444445L 238.73191489361702 196.62844444444445L 240.69787234042553 193.65866666666668L 242.66382978723405 197.52977777777778L 244.62978723404254 194.3057777777778L 246.59574468085106 197.4257777777778L 248.56170212765957 179.19111111111113L 250.5276595744681 194.80266666666665L 252.4936170212766 196.29333333333335L 254.4595744680851 195.5191111111111L 256.4255319148936 197.0328888888889L 258.39148936170216 197.8071111111111L 260.35744680851064 198.00355555555555L 262.32340425531913 187.55733333333333L 264.2893617021276 193.13866666666667L 266.25531914893617 199.85244444444444L 268.2212765957447 193.53155555555554L 270.1872340425532 191.6248888888889L 272.1531914893617 195.8311111111111L 274.1191489361702 196.54755555555556L 276.0851063829787 196.81333333333333L 278.05106382978727 197.63377777777777L 280.01702127659576 193.55466666666666L 281.98297872340424 206L 283.94893617021273 187.16444444444446L 285.9148936170212 187.34933333333333L 287.88085106382977 191.8213333333333L 289.8468085106383 181.86044444444445L 291.8127659574468 201.8631111111111L 293.7787234042553 186.49422222222222L 295.74468085106383 196.39733333333334L 297.7106382978724 190.07644444444443L 299.67659574468087 194.664L 301.64255319148936 196.016L 303.60851063829784 197.18311111111112L 305.5744680851064 187.06044444444444L 307.54042553191493 198.29244444444444L 309.5063829787234 189.55644444444445L 311.4723404255319 189.7528888888889L 313.43829787234046 197.09066666666666L 315.40425531914894 183.328L 317.37021276595743 184.9688888888889L 319.3361702127659 206L 321.30212765957447 206L 323.26808510638296 206L 325.2340425531915 161.85777777777778L 327.2 198.81244444444445L 329.1659574468085 196.952L 331.131914893617 196.05066666666667L 333.0978723404255 193.2888888888889L 335.06382978723406 197.29866666666666L 337.02978723404254 198.13066666666668L 338.9957446808511 201.0311111111111L 340.9617021276596 171.63377777777777L 342.9276595744681 189.85688888888888L 344.8936170212766 178.4862222222222L 346.8595744680851 192.09866666666667L 348.82553191489365 179.792L 350.79148936170213 177.46933333333334L 352.7574468085106 182.6L 354.7234042553191 188.1582222222222L 356.68936170212766 193.36977777777778L 358.65531914893614 189.99555555555554L 360.6212765957447 188.4471111111111L 362.5872340425532 190.01866666666666L 364.5531914893617 188.216L 366.5191489361702 194.05155555555555L 368.4851063829787 185.81244444444445L 370.45106382978724 172.61599999999999L 372.41702127659573 181.09777777777776L 374.3829787234043 173.56355555555555L 376.34893617021277 193.50844444444445L 378.3148936170213 192.51466666666667L 380.2808510638298 193.53155555555554L 382.2468085106383 195.25333333333333L 384.21276595744683 193.99377777777778L 386.1787234042553 194.46755555555555L 388.1446808510638 189.89155555555556L 390.1106382978723 195.58844444444446L 392.07659574468084 196.6168888888889L 394.04255319148933 193.11555555555555L 396.0085106382979 191.40533333333332L 397.97446808510637 201.16977777777777L 399.9404255319149 185.58133333333333L 401.9063829787234 191.44L 403.8723404255319 194.8488888888889L 405.83829787234043 190.45777777777778L 407.8042553191489 196.23555555555555L 409.77021276595747 192.5031111111111L 411.73617021276596 193.57777777777778L 413.7021276595745 187.18755555555555L 415.668085106383 191.03555555555556L 417.63404255319153 183.0391111111111L 419.6 187.83466666666666L 421.5659574468085 192.064L 423.531914893617 184.9111111111111L 425.4978723404255 189.76444444444445L 427.46382978723403 185.97422222222224L 429.4297872340425 186.22844444444445L 431.39574468085107 177.8968888888889L 433.36170212765956 189.672L 435.3276595744681 191.60177777777778L 437.2936170212766 189.39466666666667L 439.2595744680851 188.27377777777778L 441.2255319148936 191.9368888888889L 443.1914893617021 188.47022222222222L 445.15744680851066 188.88622222222222L 447.12340425531914 190.85066666666665L 449.0893617021277 194.80266666666665L 451.0553191489362 195.13777777777779L 453.0212765957447 201.48177777777778L 454.9872340425532 193.24266666666665L 456.9531914893617 182.06844444444445L 458.9191489361702 182.64622222222224L 460.8851063829787 182.12622222222222L 462.8510638297872 191.84444444444443L 464.8170212765957 187.592L 466.78297872340426 182.288L 468.74893617021274 187.22222222222223L 470.7148936170213 189.09422222222221L 472.6808510638298 180.63555555555556L 474.6468085106383 183.94044444444444L 476.6127659574468 174.76533333333333L 478.5787234042553 184.6568888888889L 480.54468085106384 172.93955555555556L 482.51063829787233 150.29066666666665L 484.4765957446809 179.0408888888889L 486.44255319148937 144.23555555555555L 488.4085106382979 186.864L 490.3744680851064 189.18666666666667L 492.3404255319149 188.424L 494.3063829787234 193.728L 496.27234042553187 187.31466666666665L 498.2382978723404 186.1822222222222L 500.2042553191489 187.58044444444445L 502.17021276595744 186.136L 504.13617021276593 193.312L 506.1021276595745 189.19822222222223L 508.06808510638297 189.9377777777778L 510.0340425531915 187.34933333333333L 512 186.51733333333334L 513.9659574468085 189.3831111111111L 515.931914893617 188.0311111111111L 517.8978723404255 192.98844444444444L 519.8638297872341 187.73066666666668L 521.8297872340424 186.22844444444445L 523.7957446808512 182.81955555555555L 525.7617021276595 184.6222222222222L 527.7276595744681 181.248L 529.6936170212766 186.27466666666666L 531.6595744680851 194.44444444444446L 533.6255319148936 190.90844444444446L 535.5914893617021 187.30311111111112L 537.5574468085106 169.71555555555557L 539.5234042553192 120.77777777777779L 541.4893617021277 189.72977777777777L 543.4553191489363 188.51644444444446L 545.4212765957448 190.86222222222221L 547.3872340425532 192.82666666666665L 549.3531914893617 189.82222222222222L 551.3191489361702 183.16622222222222L 553.2851063829787 189.14044444444443L 555.2510638297872 179.9191111111111L 557.2170212765957 59.082666666666654L 559.1829787234042 164.26133333333334L 561.1489361702128 185.31555555555556L 563.1148936170213 183.57066666666668L 565.0808510638299 184.50666666666666L 567.0468085106382 185.00355555555555L 569.0127659574468 180.0808888888889L 570.9787234042553 190.74666666666667L 572.9446808510638 181.42133333333334L 574.9106382978723 162.58577777777776L 576.8765957446809 124.3368888888889L 578.8425531914894 153.52622222222223L 580.8085106382979 165.68266666666668L 582.7744680851064 182.1031111111111L 584.7404255319149 171.8071111111111L 586.7063829787234 180.76266666666666L 588.6723404255318 174.41866666666667L 590.6382978723404 179.376L 592.6042553191489 183.65155555555555L 594.5702127659574 178.22044444444444L 596.5361702127659 185.03822222222223L 598.5021276595745 188.47022222222222L 600.468085106383 189.00177777777776L 602.4340425531915 185.52355555555556L 604.4 182.7848888888889L 606.3659574468086 182.69244444444445L 608.331914893617 180.34666666666666L 610.2978723404256 169.5768888888889L 612.263829787234 182.704L 614.2297872340426 186.136L 616.195744680851 169.12622222222222L 618.1617021276596 143.0222222222222L 620.1276595744681 162.45866666666666L 622.0936170212766 153.67644444444443L 624.0595744680851 148.176L 626.0255319148936 157.16622222222222L 627.9914893617022 155.61777777777777L 629.9574468085106 164.63111111111112L 631.9234042553192 173.32088888888887L 633.8893617021276 151.0648888888889L 635.8553191489362 173.07822222222222L 637.8212765957446 173.70222222222222L 639.7872340425532 173.74844444444443L 641.7531914893617 184.472L 643.7191489361702 167.77422222222222L 645.6851063829787 160.9911111111111L 647.6510638297873 173.8871111111111L 649.6170212765958 167L 651.5829787234043 156.78488888888887L 653.5489361702128 175.07733333333334L 655.5148936170212 177.4L 657.4808510638298 187.22222222222223L 659.4468085106382 184.74933333333334L 661.4127659574468 183.952L 663.3787234042553 152.19733333333335L 665.3446808510638 183.96355555555556L 667.3106382978723 186.8871111111111L 669.2765957446809 185.87022222222222L 671.2425531914894 183.15466666666666L 673.2085106382979 183.06222222222223L 675.1744680851064 183.02755555555555L 677.140425531915 176.10577777777777L 679.1063829787234 182.87733333333333L 681.0723404255319 180.48533333333333L 683.0382978723404 185.56977777777777L 685.004255319149 180L 686.9702127659574 176.984L 688.936170212766 178.20888888888888L 690.9021276595745 179.8382222222222L 692.868085106383 183.09688888888888L 694.8340425531915 177.53866666666667L 696.8 183.44355555555555L 698.7659574468086 178.09333333333333L 700.7319148936169 179.59555555555556L 702.6978723404255 183.02755555555555L 704.663829787234 180.4622222222222L 706.6297872340426 178.04711111111112L 708.595744680851 186.89866666666666L 710.5617021276596 177.20355555555557L 712.5276595744681 179.07555555555555L 714.4936170212766 154.9591111111111L 716.4595744680851 133.512L 718.4255319148937 151.96622222222223L 720.3914893617022 151.57333333333332L 722.3574468085106 184.9111111111111L 724.3234042553191 185.28088888888888L 726.2893617021276 178.61333333333334L 728.2553191489362 142.39822222222222L 730.2212765957446 150.1751111111111L 732.1872340425532 164.04177777777778L 734.1531914893617 138.82755555555556L 736.1191489361702 134.864L 738.0851063829787 144.85955555555557L 740.0510638297873 145.57600000000002L 742.0170212765958 128.7048888888889L 743.9829787234042 120.36177777777777L 745.9489361702127 165.80977777777778L 747.9148936170213 163.51022222222224L 749.8808510638298 160.39022222222223L 751.8468085106383 177.504L 753.8127659574468 187.34933333333333L 755.7787234042554 188.04266666666666L 757.7446808510638 186.8871111111111L 759.7106382978724 176.08266666666668L 761.6765957446809 179.41066666666666L 763.6425531914894 195.0568888888889L 765.6085106382978 185.53511111111112L 767.5744680851063 183.6977777777778L 769.5404255319149 174.97333333333333L 771.5063829787234 178.61333333333334L 773.4723404255319 180.9591111111111L 775.4382978723404 184.0328888888889L 777.404255319149 155.61777777777777L 779.3702127659574 149.7128888888889L 781.336170212766 186.2631111111111L 783.3021276595745 191.28977777777777L 785.2680851063831 175.90933333333334L 787.2340425531914 175.49333333333334L 789.2 184.51822222222222L 791.1659574468085 189.69511111111112L 793.131914893617 187.592L 795.0978723404255 180.09244444444445L 797.063829787234 176.92622222222224L 799.0297872340426 163.31377777777777L 800.995744680851 162.112L 802.9617021276596 167.1271111111111L 804.9276595744681 180.32355555555554L 806.8936170212766 184.11377777777778L 808.859574468085 191.57866666666666L 810.8255319148936 195.54222222222222L 812.7914893617021 183.54755555555556L 814.7574468085106 164.03022222222222L 816.7234042553191 171.05599999999998L 818.6893617021277 169.92355555555557L 820.6553191489362 180.02311111111112L 822.6212765957447 172.07288888888888L 824.5872340425532 163.53333333333333L 826.5531914893618 171.34488888888887L 828.5191489361702 181.59466666666668L 830.4851063829788 179.80355555555556L 832.4510638297872 166.17955555555557L 834.4170212765957 154.92444444444445L 836.3829787234042 158.4488888888889L 838.3489361702127 156.4728888888889L 840.3148936170213 144.4551111111111L 842.2808510638298 158.52977777777778L 844.2468085106383 178.00088888888888L 846.2127659574468 144.99822222222224L 848.1787234042554 134.136L 850.1446808510638 139.8213333333333L 852.1106382978724 145.04444444444445L 854.0765957446808 153.168L 856.0425531914894 140.53777777777776L 858.0085106382978 113.86755555555555L 859.9744680851064 113.28977777777777L 861.9404255319149 164.85066666666665L 863.9063829787234 163.62577777777778L 865.8723404255319 150.16355555555555L 867.8382978723404 149.84L 869.804255319149 56.54044444444443L 871.7702127659574 124.776L 873.736170212766 64.07466666666667L 875.7021276595744 123.55111111111111L 877.668085106383 157.536L 879.6340425531914 147.9911111111111L 881.6 136.22755555555557L 883.5659574468085 91.11466666666666L 885.531914893617 107.36177777777779L 887.4978723404255 141.68177777777777L 889.4638297872341 157.73244444444444L 891.4297872340426 152.63644444444444L 893.3957446808511 96.22222222222221L 895.3617021276596 150.19822222222223L 897.3276595744682 116.57155555555556L 899.2936170212766 127.34133333333332L 901.2595744680851 180.53155555555554L 903.2255319148936 137.10577777777777L 905.1914893617021 122.64977777777779L 907.1574468085106 104.61155555555555L 909.1234042553191 141.76266666666666L 911.0893617021277 164.23822222222222L 913.0553191489362 160.51733333333334L 915.0212765957447 154.57777777777778L 916.9872340425532 175.01955555555554L 918.9531914893618 146.87022222222222L 920.9191489361701 153.23733333333334L 922.8851063829787 142.82577777777777L 924.8510638297872 130.98133333333334L 926.8170212765958 88.53777777777778L 928.7829787234042 174.488L 930.7489361702128 50.55466666666666L 932.7148936170213 84.43555555555557L 934.6808510638298 152.47466666666668L 936.6468085106383 114.90755555555555L 938.6127659574468 96.30311111111112L 940.5787234042554 171.46044444444445L 942.5446808510637 183.96355555555556L 944.5106382978723 169.87733333333333L 946.4765957446808 183.13155555555556L 948.4425531914894 171.992L 950.4085106382978 152.48622222222224L 952.3744680851064 169.704L 954.3404255319149 172.99733333333333L 956.3063829787234 164.61955555555556L 958.2723404255319 162.64355555555557L 960.2382978723405 170.51288888888888L 962.204255319149 145.6568888888889L 964.1702127659574 159.81244444444445L 966.1361702127659 167.2542222222222L 968.1021276595745 141.55466666666666L 970.068085106383 160.864L 972.0340425531915 157.7208888888889L 974 197.81866666666667" stroke-width="2.0" fill="none" />
    
        
        
        <text x="45.0" font-family="-apple-system, system-ui, BlinkMacSystemFont, Roboto" y="50.0" dominant-baseline="middle" text-anchor="end" font-size="12" fill="#24292f">13500.0</text>
        
            
            <path stroke="#74838f" stroke-dasharray="10 6" stroke-width="0.5"  d="M 50.0 50.0 L 974.0 50.0" />
        
    
        
        
        <text x="45.0" font-family="-apple-system, system-ui, BlinkMacSystemFont, Roboto" y="81.2" dominant-baseline="middle" text-anchor="end" font-size="12" fill="#24292f">10800.0</text>
        
            
            
            <path stroke="#74838f" stroke-dasharray="10 6" stroke-width="0.5"  d="M 50.0 81.2 L 974.0 81.2" />
        
    
        
        
        <text x="45.0" font-family="-apple-system, system-ui, BlinkMacSystemFont, Roboto" y="112.4" dominant-baseline="middle" text-anchor="end" font-size="12" fill="#24292f">8100.0</text>
        
            
            
            <path stroke="#74838f" stroke-dasharray="10 6" stroke-width="0.5"  d="M 50.0 112.4 L 974.0 112.4" />
        
    
        
        
        <text x="45.0" font-family="-apple-system, system-ui, BlinkMacSystemFont, Roboto" y="143.6" dominant-baseline="middle" text-anchor="end" font-size="12" fill="#24292f">5400.0</text>
        
            
            
            <path stroke="#74838f" stroke-dasharray="10 6" stroke-width="0.5"  d="M 50.0 143.6 L 974.0 143.6" />
        
    
        
        
        <text x="45.0" font-family="-apple-system, system-ui, BlinkMacSystemFont, Roboto" y="174.8" dominant-baseline="middle" text-anchor="end" font-size="12" fill="#24292f">2700.0</text>
        
            
            
            <path stroke="#74838f" stroke-dasharray="10 6" stroke-width="0.5"  d="M 50.0 174.8 L 974.0 174.8" />
        
    
        
        
        <text x="45.0" font-family="-apple-system, system-ui, BlinkMacSystemFont, Roboto" y="206.0" dominant-baseline="middle" text-anchor="end" font-size="12" fill="#24292f">0.0</text>
        
    
    
        
        <path stroke="#74838f"  stroke-width="2.0"  d="M 81.45531914893617 206.0 L 81.45531914893617 214.0" />
        <text x="81.45531914893617" font-family="-apple-system, system-ui, BlinkMacSystemFont, Roboto" y="216.0" dominant-baseline="hanging" text-anchor="middle" font-size="12" fill="#24292f">Mar 2022</text>
    
        
        <path stroke="#74838f"  stroke-width="2.0"  d="M 142.4 206.0 L 142.4 214.0" />
        <text x="142.4" font-family="-apple-system, system-ui, BlinkMacSystemFont, Roboto" y="216.0" dominant-baseline="hanging" text-anchor="middle" font-size="12" fill="#24292f">Apr 2022</text>
    
        
        <path stroke="#74838f"  stroke-width="2.0"  d="M 201.3787234042553 206.0 L 201.3787234042553 214.0" />
        <text x="201.3787234042553" font-family="-apple-system, system-ui, BlinkMacSystemFont, Roboto" y="216.0" dominant-baseline="hanging" text-anchor="middle" font-size="12" fill="#24292f">May 2022</text>
    
        
        <path stroke="#74838f"  stroke-width="2.0"  d="M 262.32340425531913 206.0 L 262.32340425531913 214.0" />
        <text x="262.32340425531913" font-family="-apple-system, system-ui, BlinkMacSystemFont, Roboto" y="216.0" dominant-baseline="hanging" text-anchor="middle" font-size="12" fill="#24292f">Jun 2022</text>
    
        
        <path stroke="#74838f"  stroke-width="2.0"  d="M 321.30212765957447 206.0 L 321.30212765957447 214.0" />
        <text x="321.30212765957447" font-family="-apple-system, system-ui, BlinkMacSystemFont, Roboto" y="216.0" dominant-baseline="hanging" text-anchor="middle" font-size="12" fill="#24292f">Jul 2022</text>
    
        
        <path stroke="#74838f"  stroke-width="2.0"  d="M 382.2468085106383 206.0 L 382.2468085106383 214.0" />
        <text x="382.2468085106383" font-family="-apple-system, system-ui, BlinkMacSystemFont, Roboto" y="216.0" dominant-baseline="hanging" text-anchor="middle" font-size="12" fill="#24292f">Aug 2022</text>
    
        
        <path stroke="#74838f"  stroke-width="2.0"  d="M 443.1914893617021 206.0 L 443.1914893617021 214.0" />
        <text x="443.1914893617021" font-family="-apple-system, system-ui, BlinkMacSystemFont, Roboto" y="216.0" dominant-baseline="hanging" text-anchor="middle" font-size="12" fill="#24292f">Sep 2022</text>
    
        
        <path stroke="#74838f"  stroke-width="2.0"  d="M 502.17021276595744 206.0 L 502.17021276595744 214.0" />
        <text x="502.17021276595744" font-family="-apple-system, system-ui, BlinkMacSystemFont, Roboto" y="216.0" dominant-baseline="hanging" text-anchor="middle" font-size="12" fill="#24292f">Oct 2022</text>
    
        
        <path stroke="#74838f"  stroke-width="2.0"  d="M 563.1148936170213 206.0 L 563.1148936170213 214.0" />
        <text x="563.1148936170213" font-family="-apple-system, system-ui, BlinkMacSystemFont, Roboto" y="216.0" dominant-baseline="hanging" text-anchor="middle" font-size="12" fill="#24292f">Nov 2022</text>
    
        
        <path stroke="#74838f"  stroke-width="2.0"  d="M 622.0936170212766 206.0 L 622.0936170212766 214.0" />
        <text x="622.0936170212766" font-family="-apple-system, system-ui, BlinkMacSystemFont, Roboto" y="216.0" dominant-baseline="hanging" text-anchor="middle" font-size="12" fill="#24292f">Dec 2022</text>
    
        
        <path stroke="#74838f"  stroke-width="2.0"  d="M 683.0382978723404 206.0 L 683.0382978723404 214.0" />
        <text x="683.0382978723404" font-family="-apple-system, system-ui, BlinkMacSystemFont, Roboto" y="216.0" dominant-baseline="hanging" text-anchor="middle" font-size="12" fill="#24292f">Jan 2023</text>
    
        
        <path stroke="#74838f"  stroke-width="2.0"  d="M 743.9829787234042 206.0 L 743.9829787234042 214.0" />
        <text x="743.9829787234042" font-family="-apple-system, system-ui, BlinkMacSystemFont, Roboto" y="216.0" dominant-baseline="hanging" text-anchor="middle" font-size="12" fill="#24292f">Feb 2023</text>
    
        
        <path stroke="#74838f"  stroke-width="2.0"  d="M 799.0297872340426 206.0 L 799.0297872340426 214.0" />
        <text x="799.0297872340426" font-family="-apple-system, system-ui, BlinkMacSystemFont, Roboto" y="216.0" dominant-baseline="hanging" text-anchor="middle" font-size="12" fill="#24292f">Mar 2023</text>
    
        
        <path stroke="#74838f"  stroke-width="2.0"  d="M 859.9744680851064 206.0 L 859.9744680851064 214.0" />
        <text x="859.9744680851064" font-family="-apple-system, system-ui, BlinkMacSystemFont, Roboto" y="216.0" dominant-baseline="hanging" text-anchor="middle" font-size="12" fill="#24292f">Apr 2023</text>
    
        
        <path stroke="#74838f"  stroke-width="2.0"  d="M 918.9531914893618 206.0 L 918.9531914893618 214.0" />
        <text x="918.9531914893618" font-family="-apple-system, system-ui, BlinkMacSystemFont, Roboto" y="216.0" dominant-baseline="hanging" text-anchor="middle" font-size="12" fill="#24292f">May 2023</text>
    
    <path stroke="#74838f"   stroke-linejoin="round" stroke-width="2.0" d="M 50.0 216.0 L 50.0 206.0 L 974.0 206.0 L 974.0 216.0"  fill="none" />
    <text x="512.0" y="25.0" font-family="-apple-system, system-ui, BlinkMacSystemFont, Roboto" dominant-baseline="middle" text-anchor="middle" font-size="18" fill="#24292f">Total daily suspensions</text>
</svg>
