<?xml version="1.0" standalone="no"?>
<svg width="1024.0" height="256.0"  viewBox="0 0 1024.0 256.0" preserveAspectRatio="xMidYMid meet" xmlns="http://www.w3.org/2000/svg">
    <path stroke="#e74c3c" stroke-linejoin="round" d="M 50.0 159.31232 L 50 159.31232L 53.58139534883721 193.17056L 57.16279069767442 197.23904L 60.74418604651163 197.60096L 64.32558139534883 203.42912L 67.90697674418604 199.6976L 71.48837209302326 198.99872L 75.06976744186046 190.51232L 78.65116279069767 200.77088L 82.23255813953489 198.32479999999998L 85.81395348837209 199.76L 89.3953488372093 202.4432L 92.97674418604652 198.93632L 96.55813953488372 195.19232L 100.13953488372093 202.51808L 103.72093023255815 198.42464L 107.30232558139535 197.15168L 110.88372093023256 190.83679999999998L 114.46511627906976 196.31552L 118.04651162790698 199.1984L 121.62790697674419 199.06112000000002L 125.2093023255814 198.00032L 128.7906976744186 197.85056L 132.37209302325581 199.58528L 135.95348837209303 194.43104L 139.53488372093022 199.66016L 143.11627906976744 195.16736L 146.69767441860466 200.52128L 150.27906976744185 198.11264L 153.86046511627907 190.03808L 157.4418604651163 195.71648L 161.02325581395348 190.21280000000002L 164.6046511627907 193.03328L 168.18604651162792 199.43552L 171.7674418604651 191.84768L 175.3488372093023 196.64L 178.93023255813952 199.33568L 182.51162790697674 193.04576L 186.09302325581396 194.8304L 189.67441860465115 195.00512L 193.25581395348837 195.12992L 196.8372093023256 196.10336L 200.4186046511628 199.16096L 204 198.9488L 207.58139534883722 195.24224L 211.1627906976744 193.47008L 214.74418604651163 195.11744L 218.32558139534882 198.47456L 221.90697674418604 195.00512L 225.48837209302326 193.51999999999998L 229.06976744186048 193.19552L 232.65116279069767 185.5328L 236.2325581395349 197.02688L 239.8139534883721 195.56672L 243.39534883720933 197.97536L 246.9767441860465 193.91935999999998L 250.5581395348837 196.04095999999998L 254.13953488372093 196.62752L 257.72093023255815 198.06272L 261.30232558139534 197.73824L 264.8837209302326 199.36064L 268.4651162790698 190.9616L 272.04651162790697 201.96896L 275.62790697674416 192.8336L 279.2093023255814 204.128L 282.7906976744186 206L 286.37209302325584 206L 289.95348837209303 206L 293.5348837209302 206L 297.1162790697674 189.85088000000002L 300.6976744186046 157.1408L 304.27906976744185 193.07072L 307.86046511627904 199.99712L 311.4418604651163 192.72128L 315.0232558139535 196.4528L 318.60465116279073 199.52288L 322.1860465116279 185.76992L 325.7674418604651 197.56351999999998L 329.3488372093023 195.17984L 332.93023255813955 189.88832L 336.51162790697674 194.43104L 340.09302325581393 189.776L 343.6744186046512 188.06624L 347.25581395348837 197.52608L 350.8372093023256 199.52288L 354.41860465116275 191.37344000000002L 358 191.29856L 361.5813953488372 199.04864L 365.16279069767444 194.25632000000002L 368.74418604651163 192.07232L 372.3255813953488 194.45600000000002L 375.90697674418607 199.448L 379.48837209302326 188.55295999999998L 383.06976744186045 198.12512L 386.65116279069764 195.74144L 390.2325581395349 194.86784L 393.8139534883721 195.87872L 397.3953488372093 192.67136L 400.9767441860465 196.85216L 404.5581395348837 193.37024L 408.13953488372096 196.73984000000002L 411.7209302325581 177.0464L 415.30232558139534 193.90688L 418.8837209302325 195.5168L 422.4651162790698 194.68063999999998L 426.04651162790697 196.31552L 429.6279069767442 197.15168L 433.2093023255814 197.36383999999998L 436.79069767441865 186.08192L 440.3720930232558 192.10976L 443.953488372093 199.36064L 447.5348837209302 192.53408000000002L 451.1162790697674 190.47487999999998L 454.69767441860466 195.01760000000002L 458.27906976744185 195.79136L 461.8604651162791 196.0784L 465.4418604651163 196.96448L 469.0232558139535 192.55903999999998L 472.6046511627907 206L 476.1860465116279 185.6576L 479.7674418604651 185.85728L 483.3488372093023 190.68704L 486.93023255813955 179.92928L 490.51162790697674 201.53216L 494.093023255814 184.93376L 497.6744186046511 195.62912L 501.25581395348837 188.80256L 504.83720930232556 193.75712L 508.4186046511628 195.21728000000002L 512 196.47776L 515.5813953488372 185.54528L 519.1627906976744 197.67584L 522.7441860465117 188.24096L 526.3255813953489 188.45312L 529.9069767441861 196.37792000000002L 533.4883720930234 181.51424L 537.0697674418604 183.28640000000001L 540.6511627906978 206L 544.2325581395348 206L 547.8139534883721 206L 551.3953488372092 158.3264L 554.9767441860465 198.23744L 558.5581395348837 196.22816L 562.1395348837209 195.25472L 565.7209302325581 192.272L 569.3023255813954 196.60255999999998L 572.8837209302326 197.50112000000001L 576.4651162790698 200.6336L 580.046511627907 168.88448L 583.6279069767442 188.56544L 587.2093023255815 176.28512L 590.7906976744187 190.98656L 594.3720930232558 177.69536L 597.953488372093 175.18688L 601.5348837209302 180.728L 605.1162790697674 186.73088L 608.6976744186046 192.35935999999998L 612.2790697674418 188.71519999999998L 615.8604651162791 187.04288L 619.4418604651163 188.74016L 623.0232558139535 186.79328L 626.6046511627907 193.09568000000002L 630.1860465116279 184.19744L 633.7674418604652 169.94528L 637.3488372093024 179.1056L 640.9302325581396 170.96864L 644.5116279069767 192.50912L 648.093023255814 191.43583999999998L 651.6744186046512 192.53408000000002L 655.2558139534884 194.3936L 658.8372093023255 193.03328L 662.4186046511627 193.54496L 666 188.60288L 669.5813953488372 194.75552L 673.1627906976744 195.86624L 676.7441860465116 192.0848L 680.3255813953489 190.23776L 683.9069767441861 200.78336000000002L 687.4883720930233 183.94783999999999L 691.0697674418604 190.27519999999998L 694.6511627906976 193.9568L 698.232558139535 189.2144L 701.8139534883721 195.4544L 705.3953488372093 191.42336L 708.9767441860465 192.584L 712.5581395348838 185.68256L 716.1395348837209 189.8384L 719.7209302325581 181.20224000000002L 723.3023255813953 186.38144L 726.8837209302326 190.94912L 730.4651162790698 183.224L 734.046511627907 188.4656L 737.6279069767442 184.37216L 741.2093023255813 184.64672L 744.7906976744187 175.66112L 748.3720930232558 188.36576L 751.953488372093 190.44992L 755.5348837209302 188.06624L 759.1162790697674 186.85568L 762.6976744186047 190.81184000000002L 766.2790697674419 187.06784L 769.8604651162791 187.51712L 773.4418604651162 189.63872L 777.0232558139535 193.90688L 780.6046511627907 194.2688L 784.1860465116279 201.12032L 787.767441860465 192.22208L 791.3488372093024 180.15392L 794.9302325581396 180.77792L 798.5116279069767 180.21632L 802.0930232558139 190.712L 805.6744186046511 186.11936L 809.2558139534884 180.39104L 812.8372093023256 185.72L 816.4186046511628 187.74176L 820 178.6064L 823.5813953488373 182.17568L 827.1627906976745 172.26656L 830.7441860465116 182.94944L 834.3255813953488 170.29471999999998L 837.906976744186 145.83392L 841.4883720930233 176.88416L 845.0697674418604 139.2944L 848.6511627906976 185.33312L 852.2325581395348 187.8416L 855.8139534883721 187.01792L 859.3953488372093 192.74624L 862.9767441860465 185.81984L 866.5581395348837 184.5968L 870.1395348837209 186.10688L 873.7209302325582 184.54688L 877.3023255813954 192.29696L 880.8837209302326 187.85408L 884.4651162790698 188.6528L 888.046511627907 185.85728L 891.6279069767442 184.95872L 895.2093023255813 188.05376L 898.7906976744185 186.5936L 902.3720930232558 191.94752L 905.953488372093 186.26912L 909.5348837209302 184.64672L 913.1162790697674 180.96512L 916.6976744186046 182.912L 920.2790697674419 179.26784L 923.8604651162791 184.69664L 927.4418604651163 193.51999999999998L 931.0232558139535 189.70112L 934.6046511627907 185.80736L 938.186046511628 166.8128L 941.7674418604652 113.96000000000001L 945.3488372093022 188.42816L 948.9302325581394 187.11776L 952.5116279069767 189.65120000000002L 956.0930232558139 191.77280000000002L 959.6744186046511 188.528L 963.2558139534883 181.33952L 966.8372093023256 187.79167999999999L 970.4186046511628 177.83264L 974 54.54272" stroke-width="2.0" fill="none" />
    
        
        
        <text x="45.0" font-family="-apple-system, system-ui, BlinkMacSystemFont, Roboto" y="50.0" dominant-baseline="middle" text-anchor="end" font-size="12" fill="#24292f">12500.0</text>
        
            
            <path stroke="#74838f" stroke-dasharray="10 6" stroke-width="0.5"  d="M 50.0 50.0 L 974.0 50.0" />
        
    
        
        
        <text x="45.0" font-family="-apple-system, system-ui, BlinkMacSystemFont, Roboto" y="81.2" dominant-baseline="middle" text-anchor="end" font-size="12" fill="#24292f">10000.0</text>
        
            
            
            <path stroke="#74838f" stroke-dasharray="10 6" stroke-width="0.5"  d="M 50.0 81.2 L 974.0 81.2" />
        
    
        
        
        <text x="45.0" font-family="-apple-system, system-ui, BlinkMacSystemFont, Roboto" y="112.4" dominant-baseline="middle" text-anchor="end" font-size="12" fill="#24292f">7500.0</text>
        
            
            
            <path stroke="#74838f" stroke-dasharray="10 6" stroke-width="0.5"  d="M 50.0 112.4 L 974.0 112.4" />
        
    
        
        
        <text x="45.0" font-family="-apple-system, system-ui, BlinkMacSystemFont, Roboto" y="143.6" dominant-baseline="middle" text-anchor="end" font-size="12" fill="#24292f">5000.0</text>
        
            
            
            <path stroke="#74838f" stroke-dasharray="10 6" stroke-width="0.5"  d="M 50.0 143.6 L 974.0 143.6" />
        
    
        
        
        <text x="45.0" font-family="-apple-system, system-ui, BlinkMacSystemFont, Roboto" y="174.8" dominant-baseline="middle" text-anchor="end" font-size="12" fill="#24292f">2500.0</text>
        
            
            
            <path stroke="#74838f" stroke-dasharray="10 6" stroke-width="0.5"  d="M 50.0 174.8 L 974.0 174.8" />
        
    
        
        
        <text x="45.0" font-family="-apple-system, system-ui, BlinkMacSystemFont, Roboto" y="206.0" dominant-baseline="middle" text-anchor="end" font-size="12" fill="#24292f">0.0</text>
        
    
    
        
        <path stroke="#74838f"  stroke-width="2.0"  d="M 107.30232558139535 206.0 L 107.30232558139535 214.0" />
        <text x="107.30232558139535" font-family="-apple-system, system-ui, BlinkMacSystemFont, Roboto" y="216.0" dominant-baseline="hanging" text-anchor="middle" font-size="12" fill="#24292f">Mar 2022</text>
    
        
        <path stroke="#74838f"  stroke-width="2.0"  d="M 218.32558139534882 206.0 L 218.32558139534882 214.0" />
        <text x="218.32558139534882" font-family="-apple-system, system-ui, BlinkMacSystemFont, Roboto" y="216.0" dominant-baseline="hanging" text-anchor="middle" font-size="12" fill="#24292f">Apr 2022</text>
    
        
        <path stroke="#74838f"  stroke-width="2.0"  d="M 325.7674418604651 206.0 L 325.7674418604651 214.0" />
        <text x="325.7674418604651" font-family="-apple-system, system-ui, BlinkMacSystemFont, Roboto" y="216.0" dominant-baseline="hanging" text-anchor="middle" font-size="12" fill="#24292f">May 2022</text>
    
        
        <path stroke="#74838f"  stroke-width="2.0"  d="M 436.79069767441865 206.0 L 436.79069767441865 214.0" />
        <text x="436.79069767441865" font-family="-apple-system, system-ui, BlinkMacSystemFont, Roboto" y="216.0" dominant-baseline="hanging" text-anchor="middle" font-size="12" fill="#24292f">Jun 2022</text>
    
        
        <path stroke="#74838f"  stroke-width="2.0"  d="M 544.2325581395348 206.0 L 544.2325581395348 214.0" />
        <text x="544.2325581395348" font-family="-apple-system, system-ui, BlinkMacSystemFont, Roboto" y="216.0" dominant-baseline="hanging" text-anchor="middle" font-size="12" fill="#24292f">Jul 2022</text>
    
        
        <path stroke="#74838f"  stroke-width="2.0"  d="M 655.2558139534884 206.0 L 655.2558139534884 214.0" />
        <text x="655.2558139534884" font-family="-apple-system, system-ui, BlinkMacSystemFont, Roboto" y="216.0" dominant-baseline="hanging" text-anchor="middle" font-size="12" fill="#24292f">Aug 2022</text>
    
        
        <path stroke="#74838f"  stroke-width="2.0"  d="M 766.2790697674419 206.0 L 766.2790697674419 214.0" />
        <text x="766.2790697674419" font-family="-apple-system, system-ui, BlinkMacSystemFont, Roboto" y="216.0" dominant-baseline="hanging" text-anchor="middle" font-size="12" fill="#24292f">Sep 2022</text>
    
        
        <path stroke="#74838f"  stroke-width="2.0"  d="M 873.7209302325582 206.0 L 873.7209302325582 214.0" />
        <text x="873.7209302325582" font-family="-apple-system, system-ui, BlinkMacSystemFont, Roboto" y="216.0" dominant-baseline="hanging" text-anchor="middle" font-size="12" fill="#24292f">Oct 2022</text>
    
    <path stroke="#74838f"   stroke-linejoin="round" stroke-width="2.0" d="M 50.0 216.0 L 50.0 206.0 L 974.0 206.0 L 974.0 216.0"  fill="none" />
    <text x="512.0" y="25.0" font-family="-apple-system, system-ui, BlinkMacSystemFont, Roboto" dominant-baseline="middle" text-anchor="middle" font-size="18" fill="#24292f">Total daily suspensions</text>
</svg>
