<?xml version="1.0" standalone="no"?>
<svg width="1024.0" height="256.0"  viewBox="0 0 1024.0 256.0" preserveAspectRatio="xMidYMid meet" xmlns="http://www.w3.org/2000/svg">
    <path stroke="#e74c3c" stroke-linejoin="round" d="M 50.0 161.108 L 50 161.108L 53.36 193.664L 56.72 197.576L 60.08 197.924L 63.44 203.528L 66.8 199.94L 70.16 199.268L 73.52 191.108L 76.88 200.972L 80.24000000000001 198.62L 83.6 200L 86.96000000000001 202.57999999999998L 90.32 199.208L 93.68 195.608L 97.03999999999999 202.652L 100.4 198.716L 103.75999999999999 197.49200000000002L 107.12 191.42000000000002L 110.48 196.688L 113.84 199.46L 117.2 199.328L 120.56 198.308L 123.92 198.164L 127.28 199.832L 130.64 194.876L 134 199.904L 137.36 195.584L 140.72 200.732L 144.07999999999998 198.416L 147.44 190.652L 150.8 196.112L 154.16000000000003 190.82L 157.51999999999998 193.53199999999998L 160.88 199.688L 164.24 192.392L 167.6 197L 170.96 199.59199999999998L 174.32 193.54399999999998L 177.68 195.26L 181.04 195.428L 184.4 195.548L 187.76 196.484L 191.12 199.424L 194.48000000000002 199.22L 197.84 195.656L 201.2 193.952L 204.56 195.536L 207.92 198.764L 211.28 195.428L 214.64000000000001 194L 218 193.688L 221.36 186.32L 224.72 197.372L 228.07999999999998 195.96800000000002L 231.44 198.284L 234.8 194.38400000000001L 238.16 196.424L 241.52 196.988L 244.88 198.368L 248.23999999999998 198.05599999999998L 251.6 199.61599999999999L 254.96 191.54L 258.32000000000005 202.124L 261.68 193.34L 265.03999999999996 204.2L 268.4 206L 271.76 206L 275.12 206L 278.48 206L 281.84000000000003 190.472L 285.2 159.01999999999998L 288.56 193.56799999999998L 291.92 200.228L 295.28 193.232L 298.64 196.82L 302 199.772L 305.36 186.548L 308.72 197.888L 312.08 195.596L 315.44 190.508L 318.8 194.876L 322.16 190.4L 325.52 188.756L 328.88 197.852L 332.24 199.772L 335.59999999999997 191.936L 338.96000000000004 191.864L 342.32 199.316L 345.68 194.708L 349.03999999999996 192.608L 352.4 194.9L 355.76000000000005 199.7L 359.12 189.224L 362.48 198.428L 365.84 196.136L 369.2 195.296L 372.56 196.268L 375.92 193.184L 379.28000000000003 197.204L 382.64 193.856L 386 197.096L 389.35999999999996 178.16L 392.72 194.372L 396.08000000000004 195.92000000000002L 399.44 195.11599999999999L 402.8 196.688L 406.15999999999997 197.49200000000002L 409.52 197.696L 412.88 186.848L 416.24 192.644L 419.6 199.61599999999999L 422.96 193.052L 426.32 191.072L 429.68 195.44L 433.04 196.184L 436.4 196.46L 439.76 197.312L 443.12 193.076L 446.47999999999996 206L 449.84000000000003 186.44L 453.2 186.632L 456.56 191.276L 459.92 180.93200000000002L 463.28 201.704L 466.64000000000004 185.744L 470 196.028L 473.36 189.464L 476.71999999999997 194.228L 480.08 195.632L 483.44 196.844L 486.8 186.332L 490.16 197.99599999999998L 493.52 188.924L 496.88 189.128L 500.23999999999995 196.748L 503.6 182.45600000000002L 506.96000000000004 184.16L 510.32 206L 513.6800000000001 206L 517.04 206L 520.4 160.16L 523.76 198.536L 527.12 196.60399999999998L 530.48 195.668L 533.84 192.8L 537.1999999999999 196.964L 540.56 197.828L 543.9200000000001 200.84L 547.28 170.312L 550.6400000000001 189.236L 554 177.428L 557.3599999999999 191.564L 560.72 178.784L 564.08 176.372L 567.44 181.7L 570.8 187.472L 574.16 192.88400000000001L 577.52 189.38L 580.88 187.772L 584.24 189.404L 587.6 187.532L 590.96 193.59199999999998L 594.32 185.036L 597.6800000000001 171.332L 601.04 180.14L 604.4 172.316L 607.76 193.028L 611.12 191.996L 614.48 193.052L 617.8399999999999 194.84L 621.1999999999999 193.53199999999998L 624.5600000000001 194.024L 627.9200000000001 189.272L 631.2800000000001 195.188L 634.64 196.256L 638 192.62L 641.36 190.844L 644.72 200.984L 648.0799999999999 184.796L 651.4399999999999 190.88L 654.8 194.42000000000002L 658.16 189.86L 661.5200000000001 195.86L 664.88 191.984L 668.24 193.1L 671.6 186.464L 674.96 190.46L 678.32 182.156L 681.68 187.136L 685.04 191.528L 688.4 184.1L 691.76 189.14L 695.12 185.204L 698.48 185.468L 701.84 176.828L 705.2 189.04399999999998L 708.5600000000001 191.048L 711.92 188.756L 715.28 187.592L 718.64 191.39600000000002L 722 187.796L 725.36 188.228L 728.7199999999999 190.268L 732.0799999999999 194.372L 735.44 194.72L 738.8000000000001 201.308L 742.1600000000001 192.752L 745.52 181.148L 748.88 181.748L 752.24 181.208L 755.6 191.3L 758.9599999999999 186.88400000000001L 762.3199999999999 181.376L 765.68 186.5L 769.04 188.44400000000002L 772.4000000000001 179.66L 775.76 183.09199999999998L 779.12 173.564L 782.48 183.836L 785.84 171.668L 789.2 148.148L 792.56 178.004L 795.92 141.86L 799.28 186.128L 802.64 188.54000000000002L 806 187.748L 809.36 193.256L 812.72 186.596L 816.08 185.42000000000002L 819.44 186.872L 822.8 185.372L 826.16 192.824L 829.52 188.552L 832.88 189.32L 836.24 186.632L 839.5999999999999 185.768L 842.9599999999999 188.744L 846.32 187.34L 849.6800000000001 192.488L 853.0400000000001 187.028L 856.4 185.468L 859.76 181.928L 863.12 183.8L 866.48 180.296L 869.84 185.516L 873.1999999999999 194L 876.56 190.328L 879.92 186.584L 883.2800000000001 168.32L 886.64 117.5L 890 189.10399999999998L 893.36 187.844L 896.72 190.28L 900.08 192.32L 903.4399999999999 189.2L 906.8 182.288L 910.16 188.49200000000002L 913.52 178.916L 916.88 53.432000000000016L 920.24 162.656L 923.6 184.52L 926.96 182.708L 930.32 183.68L 933.6800000000001 184.196L 937.04 179.084L 940.4 190.16L 943.76 180.476L 947.12 160.916L 950.4799999999999 121.196L 953.8399999999999 151.50799999999998L 957.2 164.132L 960.5600000000001 181.184L 963.9200000000001 170.49200000000002L 967.28 179.792L 970.64 175.028L 974 201.656" stroke-width="2.0" fill="none" />
    
        
        
        <text x="45.0" font-family="-apple-system, system-ui, BlinkMacSystemFont, Roboto" y="50.0" dominant-baseline="middle" text-anchor="end" font-size="12" fill="#24292f">13000.0</text>
        
            
            <path stroke="#74838f" stroke-dasharray="10 6" stroke-width="0.5"  d="M 50.0 50.0 L 974.0 50.0" />
        
    
        
        
        <text x="45.0" font-family="-apple-system, system-ui, BlinkMacSystemFont, Roboto" y="81.2" dominant-baseline="middle" text-anchor="end" font-size="12" fill="#24292f">10400.0</text>
        
            
            
            <path stroke="#74838f" stroke-dasharray="10 6" stroke-width="0.5"  d="M 50.0 81.2 L 974.0 81.2" />
        
    
        
        
        <text x="45.0" font-family="-apple-system, system-ui, BlinkMacSystemFont, Roboto" y="112.4" dominant-baseline="middle" text-anchor="end" font-size="12" fill="#24292f">7800.0</text>
        
            
            
            <path stroke="#74838f" stroke-dasharray="10 6" stroke-width="0.5"  d="M 50.0 112.4 L 974.0 112.4" />
        
    
        
        
        <text x="45.0" font-family="-apple-system, system-ui, BlinkMacSystemFont, Roboto" y="143.6" dominant-baseline="middle" text-anchor="end" font-size="12" fill="#24292f">5200.0</text>
        
            
            
            <path stroke="#74838f" stroke-dasharray="10 6" stroke-width="0.5"  d="M 50.0 143.6 L 974.0 143.6" />
        
    
        
        
        <text x="45.0" font-family="-apple-system, system-ui, BlinkMacSystemFont, Roboto" y="174.8" dominant-baseline="middle" text-anchor="end" font-size="12" fill="#24292f">2600.0</text>
        
            
            
            <path stroke="#74838f" stroke-dasharray="10 6" stroke-width="0.5"  d="M 50.0 174.8 L 974.0 174.8" />
        
    
        
        
        <text x="45.0" font-family="-apple-system, system-ui, BlinkMacSystemFont, Roboto" y="206.0" dominant-baseline="middle" text-anchor="end" font-size="12" fill="#24292f">0.0</text>
        
    
    
        
        <path stroke="#74838f"  stroke-width="2.0"  d="M 103.75999999999999 206.0 L 103.75999999999999 214.0" />
        <text x="103.75999999999999" font-family="-apple-system, system-ui, BlinkMacSystemFont, Roboto" y="216.0" dominant-baseline="hanging" text-anchor="middle" font-size="12" fill="#24292f">Mar 2022</text>
    
        
        <path stroke="#74838f"  stroke-width="2.0"  d="M 207.92 206.0 L 207.92 214.0" />
        <text x="207.92" font-family="-apple-system, system-ui, BlinkMacSystemFont, Roboto" y="216.0" dominant-baseline="hanging" text-anchor="middle" font-size="12" fill="#24292f">Apr 2022</text>
    
        
        <path stroke="#74838f"  stroke-width="2.0"  d="M 308.72 206.0 L 308.72 214.0" />
        <text x="308.72" font-family="-apple-system, system-ui, BlinkMacSystemFont, Roboto" y="216.0" dominant-baseline="hanging" text-anchor="middle" font-size="12" fill="#24292f">May 2022</text>
    
        
        <path stroke="#74838f"  stroke-width="2.0"  d="M 412.88 206.0 L 412.88 214.0" />
        <text x="412.88" font-family="-apple-system, system-ui, BlinkMacSystemFont, Roboto" y="216.0" dominant-baseline="hanging" text-anchor="middle" font-size="12" fill="#24292f">Jun 2022</text>
    
        
        <path stroke="#74838f"  stroke-width="2.0"  d="M 513.6800000000001 206.0 L 513.6800000000001 214.0" />
        <text x="513.6800000000001" font-family="-apple-system, system-ui, BlinkMacSystemFont, Roboto" y="216.0" dominant-baseline="hanging" text-anchor="middle" font-size="12" fill="#24292f">Jul 2022</text>
    
        
        <path stroke="#74838f"  stroke-width="2.0"  d="M 617.8399999999999 206.0 L 617.8399999999999 214.0" />
        <text x="617.8399999999999" font-family="-apple-system, system-ui, BlinkMacSystemFont, Roboto" y="216.0" dominant-baseline="hanging" text-anchor="middle" font-size="12" fill="#24292f">Aug 2022</text>
    
        
        <path stroke="#74838f"  stroke-width="2.0"  d="M 722.0 206.0 L 722.0 214.0" />
        <text x="722.0" font-family="-apple-system, system-ui, BlinkMacSystemFont, Roboto" y="216.0" dominant-baseline="hanging" text-anchor="middle" font-size="12" fill="#24292f">Sep 2022</text>
    
        
        <path stroke="#74838f"  stroke-width="2.0"  d="M 822.8 206.0 L 822.8 214.0" />
        <text x="822.8" font-family="-apple-system, system-ui, BlinkMacSystemFont, Roboto" y="216.0" dominant-baseline="hanging" text-anchor="middle" font-size="12" fill="#24292f">Oct 2022</text>
    
        
        <path stroke="#74838f"  stroke-width="2.0"  d="M 926.96 206.0 L 926.96 214.0" />
        <text x="926.96" font-family="-apple-system, system-ui, BlinkMacSystemFont, Roboto" y="216.0" dominant-baseline="hanging" text-anchor="middle" font-size="12" fill="#24292f">Nov 2022</text>
    
    <path stroke="#74838f"   stroke-linejoin="round" stroke-width="2.0" d="M 50.0 216.0 L 50.0 206.0 L 974.0 206.0 L 974.0 216.0"  fill="none" />
    <text x="512.0" y="25.0" font-family="-apple-system, system-ui, BlinkMacSystemFont, Roboto" dominant-baseline="middle" text-anchor="middle" font-size="18" fill="#24292f">Total daily suspensions</text>
</svg>
