<?xml version="1.0" standalone="no"?>
<svg width="1024.0" height="256.0"  viewBox="0 0 1024.0 256.0" preserveAspectRatio="xMidYMid meet" xmlns="http://www.w3.org/2000/svg">
    <path stroke="#e74c3c" stroke-linejoin="round" d="M 50.0 161.108 L 50 161.108L 52.87850467289719 193.664L 55.757009345794394 197.576L 58.63551401869159 197.924L 61.51401869158879 203.528L 64.39252336448598 199.94L 67.27102803738318 199.268L 70.14953271028037 191.108L 73.02803738317758 200.972L 75.90654205607477 198.62L 78.78504672897196 200L 81.66355140186916 202.57999999999998L 84.54205607476635 199.208L 87.42056074766356 195.608L 90.29906542056074 202.652L 93.17757009345794 198.716L 96.05607476635514 197.49200000000002L 98.93457943925233 191.42000000000002L 101.81308411214954 196.688L 104.69158878504672 199.46L 107.57009345794393 199.328L 110.4485981308411 198.308L 113.32710280373831 198.164L 116.2056074766355 199.832L 119.0841121495327 194.876L 121.96261682242991 199.904L 124.8411214953271 195.584L 127.7196261682243 200.732L 130.59813084112147 198.416L 133.47663551401868 190.652L 136.3551401869159 196.112L 139.23364485981307 190.82L 142.11214953271028 193.53199999999998L 144.99065420560748 199.688L 147.86915887850466 192.392L 150.74766355140187 197L 153.62616822429908 199.59199999999998L 156.50467289719626 193.54399999999998L 159.38317757009344 195.26L 162.26168224299067 195.428L 165.14018691588785 195.548L 168.01869158878503 196.484L 170.8971962616822 199.424L 173.77570093457945 199.22L 176.65420560747663 195.656L 179.53271028037383 193.952L 182.411214953271 195.536L 185.28971962616822 198.764L 188.1682242990654 195.428L 191.0467289719626 194L 193.92523364485982 193.688L 196.803738317757 186.32L 199.6822429906542 197.372L 202.56074766355138 195.96800000000002L 205.4392523364486 198.284L 208.3177570093458 194.38400000000001L 211.19626168224298 196.424L 214.07476635514018 196.988L 216.95327102803736 198.368L 219.83177570093457 198.05599999999998L 222.71028037383178 199.61599999999999L 225.58878504672896 191.54L 228.46728971962617 202.124L 231.34579439252335 193.34L 234.22429906542055 204.2L 237.10280373831776 206L 239.98130841121494 206L 242.85981308411215 206L 245.73831775700936 206L 248.61682242990653 190.472L 251.49532710280374 159.01999999999998L 254.37383177570092 193.56799999999998L 257.25233644859816 200.228L 260.13084112149534 193.232L 263.0093457943925 196.82L 265.8878504672897 199.772L 268.7663551401869 186.548L 271.6448598130841 197.888L 274.52336448598135 195.596L 277.4018691588785 190.508L 280.2803738317757 194.876L 283.1588785046729 190.4L 286.03738317757006 188.756L 288.91588785046724 197.852L 291.7943925233644 199.772L 294.67289719626166 191.936L 297.5514018691589 191.864L 300.4299065420561 199.316L 303.30841121495325 194.72L 306.18691588785043 192.608L 309.06542056074767 194.9L 311.94392523364485 199.7L 314.822429906542 189.224L 317.7009345794392 198.428L 320.57943925233644 196.136L 323.4579439252336 195.296L 326.3364485981308 196.268L 329.21495327102804 193.184L 332.0934579439252 197.204L 334.9719626168224 193.856L 337.85046728971963 197.096L 340.7289719626168 178.16L 343.607476635514 194.372L 346.48598130841117 195.92000000000002L 349.3644859813084 195.11599999999999L 352.2429906542056 196.688L 355.12149532710276 197.49200000000002L 358 197.696L 360.8785046728972 186.848L 363.75700934579436 192.644L 366.6355140186916 199.61599999999999L 369.5140186915888 193.052L 372.39252336448595 191.072L 375.2710280373832 195.44L 378.14953271028037 196.184L 381.02803738317755 196.46L 383.9065420560747 197.312L 386.78504672897196 193.076L 389.66355140186914 206L 392.5420560747663 186.44L 395.42056074766356 186.632L 398.29906542056074 191.276L 401.1775700934579 180.93200000000002L 404.05607476635515 201.704L 406.93457943925233 185.744L 409.8130841121495 196.028L 412.6915887850467 189.464L 415.5700934579439 194.228L 418.4485981308411 195.632L 421.3271028037383 196.844L 424.2056074766355 186.332L 427.0841121495327 197.99599999999998L 429.9626168224299 188.924L 432.8411214953271 189.128L 435.7196261682243 196.748L 438.5981308411215 182.45600000000002L 441.4766355140187 184.16L 444.3551401869159 206L 447.23364485981307 206L 450.11214953271025 206L 452.9906542056075 160.16L 455.86915887850466 198.536L 458.74766355140184 196.60399999999998L 461.6261682242991 195.668L 464.50467289719626 192.8L 467.38317757009344 196.964L 470.2616822429907 197.828L 473.14018691588785 200.84L 476.01869158878503 170.312L 478.8971962616822 189.236L 481.77570093457945 177.428L 484.6542056074766 191.564L 487.5327102803738 178.784L 490.41121495327104 176.372L 493.2897196261682 181.7L 496.1682242990654 187.472L 499.04672897196264 192.88400000000001L 501.9252336448598 189.38L 504.803738317757 187.772L 507.68224299065423 189.404L 510.5607476635514 187.532L 513.4392523364486 193.59199999999998L 516.3177570093458 185.036L 519.196261682243 171.332L 522.0747663551401 180.14L 524.9532710280373 172.316L 527.8317757009345 193.028L 530.7102803738317 191.996L 533.5887850467288 193.052L 536.4672897196261 194.84L 539.3457943925233 193.53199999999998L 542.2242990654205 194.024L 545.1028037383178 189.272L 547.981308411215 195.188L 550.8598130841121 196.256L 553.7383177570093 192.62L 556.6168224299065 190.844L 559.4953271028037 200.984L 562.3738317757009 184.796L 565.252336448598 190.88L 568.1308411214953 194.42000000000002L 571.0093457943925 189.86L 573.8878504672897 195.86L 576.7663551401869 191.984L 579.644859813084 193.1L 582.5233644859812 186.464L 585.4018691588784 190.46L 588.2803738317757 182.156L 591.1588785046729 187.136L 594.0373831775701 191.528L 596.9158878504672 184.1L 599.7943925233644 189.14L 602.6728971962616 185.204L 605.5514018691588 185.468L 608.4299065420561 176.828L 611.3084112149533 189.04399999999998L 614.1869158878504 191.048L 617.0654205607476 188.756L 619.9439252336448 187.592L 622.822429906542 191.39600000000002L 625.7009345794393 187.796L 628.5794392523364 188.228L 631.4579439252336 190.268L 634.3364485981308 194.372L 637.214953271028 194.72L 640.0934579439252 201.308L 642.9719626168223 192.752L 645.8504672897196 181.148L 648.7289719626168 181.748L 651.607476635514 181.208L 654.4859813084112 191.3L 657.3644859813083 186.88400000000001L 660.2429906542055 181.376L 663.1214953271028 186.5L 666 188.44400000000002L 668.8785046728972 179.66L 671.7570093457944 183.09199999999998L 674.6355140186915 173.564L 677.5140186915887 183.836L 680.3925233644859 171.668L 683.2710280373832 148.148L 686.1495327102804 178.004L 689.0280373831775 141.86L 691.9065420560747 186.128L 694.7850467289719 188.54000000000002L 697.6635514018691 187.748L 700.5420560747664 193.256L 703.4205607476636 186.596L 706.2990654205607 185.42000000000002L 709.1775700934579 186.872L 712.0560747663551 185.372L 714.9345794392523 192.824L 717.8130841121495 188.552L 720.6915887850467 189.32L 723.5700934579439 186.632L 726.4485981308411 185.768L 729.3271028037383 188.744L 732.2056074766355 187.34L 735.0841121495326 192.488L 737.9626168224299 187.028L 740.8411214953271 185.468L 743.7196261682243 181.928L 746.5981308411215 183.8L 749.4766355140187 180.296L 752.3551401869158 185.516L 755.233644859813 194L 758.1121495327103 190.328L 760.9906542056075 186.584L 763.8691588785047 168.32L 766.7476635514018 117.5L 769.626168224299 189.10399999999998L 772.5046728971962 187.844L 775.3831775700934 190.28L 778.2616822429907 192.32L 781.1401869158879 189.2L 784.018691588785 182.288L 786.8971962616822 188.49200000000002L 789.7757009345794 178.916L 792.6542056074766 53.432000000000016L 795.5327102803739 162.656L 798.411214953271 184.52L 801.2897196261682 182.708L 804.1682242990654 183.68L 807.0467289719626 184.196L 809.9252336448598 179.084L 812.8037383177569 190.16L 815.6822429906542 180.476L 818.5607476635514 160.916L 821.4392523364486 121.196L 824.3177570093458 151.50799999999998L 827.196261682243 164.132L 830.0747663551401 181.184L 832.9532710280374 170.49200000000002L 835.8317757009346 179.792L 838.7102803738318 173.204L 841.588785046729 178.352L 844.4672897196261 182.792L 847.3457943925233 177.152L 850.2242990654205 184.232L 853.1028037383178 187.796L 855.981308411215 188.348L 858.8598130841121 184.736L 861.7383177570093 181.892L 864.6168224299065 181.796L 867.4953271028037 179.36L 870.373831775701 168.176L 873.2523364485982 181.808L 876.1308411214953 185.372L 879.0093457943925 167.708L 881.8878504672897 140.6L 884.7663551401869 160.784L 887.644859813084 151.664L 890.5233644859813 145.952L 893.4018691588785 155.288L 896.2803738317757 153.68L 899.1588785046729 163.04L 902.0373831775701 172.064L 904.9158878504672 148.952L 907.7943925233644 171.812L 910.6728971962617 172.46L 913.5514018691589 172.508L 916.4299065420561 183.644L 919.3084112149533 166.304L 922.1869158878504 159.26L 925.0654205607476 172.652L 927.9439252336449 165.5L 930.8224299065421 154.892L 933.7009345794393 173.888L 936.5794392523364 176.3L 939.4579439252336 186.5L 942.3364485981308 183.932L 945.214953271028 183.10399999999998L 948.0934579439253 150.128L 950.9719626168225 183.11599999999999L 953.8504672897196 186.152L 956.7289719626168 185.096L 959.607476635514 182.276L 962.4859813084112 182.18L 965.3644859813085 182.144L 968.2429906542056 174.956L 971.1214953271028 181.988L 974 187.34" stroke-width="2.0" fill="none" />
    
        
        
        <text x="45.0" font-family="-apple-system, system-ui, BlinkMacSystemFont, Roboto" y="50.0" dominant-baseline="middle" text-anchor="end" font-size="12" fill="#24292f">13000.0</text>
        
            
            <path stroke="#74838f" stroke-dasharray="10 6" stroke-width="0.5"  d="M 50.0 50.0 L 974.0 50.0" />
        
    
        
        
        <text x="45.0" font-family="-apple-system, system-ui, BlinkMacSystemFont, Roboto" y="81.2" dominant-baseline="middle" text-anchor="end" font-size="12" fill="#24292f">10400.0</text>
        
            
            
            <path stroke="#74838f" stroke-dasharray="10 6" stroke-width="0.5"  d="M 50.0 81.2 L 974.0 81.2" />
        
    
        
        
        <text x="45.0" font-family="-apple-system, system-ui, BlinkMacSystemFont, Roboto" y="112.4" dominant-baseline="middle" text-anchor="end" font-size="12" fill="#24292f">7800.0</text>
        
            
            
            <path stroke="#74838f" stroke-dasharray="10 6" stroke-width="0.5"  d="M 50.0 112.4 L 974.0 112.4" />
        
    
        
        
        <text x="45.0" font-family="-apple-system, system-ui, BlinkMacSystemFont, Roboto" y="143.6" dominant-baseline="middle" text-anchor="end" font-size="12" fill="#24292f">5200.0</text>
        
            
            
            <path stroke="#74838f" stroke-dasharray="10 6" stroke-width="0.5"  d="M 50.0 143.6 L 974.0 143.6" />
        
    
        
        
        <text x="45.0" font-family="-apple-system, system-ui, BlinkMacSystemFont, Roboto" y="174.8" dominant-baseline="middle" text-anchor="end" font-size="12" fill="#24292f">2600.0</text>
        
            
            
            <path stroke="#74838f" stroke-dasharray="10 6" stroke-width="0.5"  d="M 50.0 174.8 L 974.0 174.8" />
        
    
        
        
        <text x="45.0" font-family="-apple-system, system-ui, BlinkMacSystemFont, Roboto" y="206.0" dominant-baseline="middle" text-anchor="end" font-size="12" fill="#24292f">0.0</text>
        
    
    
        
        <path stroke="#74838f"  stroke-width="2.0"  d="M 96.05607476635514 206.0 L 96.05607476635514 214.0" />
        <text x="96.05607476635514" font-family="-apple-system, system-ui, BlinkMacSystemFont, Roboto" y="216.0" dominant-baseline="hanging" text-anchor="middle" font-size="12" fill="#24292f">Mar 2022</text>
    
        
        <path stroke="#74838f"  stroke-width="2.0"  d="M 185.28971962616822 206.0 L 185.28971962616822 214.0" />
        <text x="185.28971962616822" font-family="-apple-system, system-ui, BlinkMacSystemFont, Roboto" y="216.0" dominant-baseline="hanging" text-anchor="middle" font-size="12" fill="#24292f">Apr 2022</text>
    
        
        <path stroke="#74838f"  stroke-width="2.0"  d="M 271.6448598130841 206.0 L 271.6448598130841 214.0" />
        <text x="271.6448598130841" font-family="-apple-system, system-ui, BlinkMacSystemFont, Roboto" y="216.0" dominant-baseline="hanging" text-anchor="middle" font-size="12" fill="#24292f">May 2022</text>
    
        
        <path stroke="#74838f"  stroke-width="2.0"  d="M 360.8785046728972 206.0 L 360.8785046728972 214.0" />
        <text x="360.8785046728972" font-family="-apple-system, system-ui, BlinkMacSystemFont, Roboto" y="216.0" dominant-baseline="hanging" text-anchor="middle" font-size="12" fill="#24292f">Jun 2022</text>
    
        
        <path stroke="#74838f"  stroke-width="2.0"  d="M 447.23364485981307 206.0 L 447.23364485981307 214.0" />
        <text x="447.23364485981307" font-family="-apple-system, system-ui, BlinkMacSystemFont, Roboto" y="216.0" dominant-baseline="hanging" text-anchor="middle" font-size="12" fill="#24292f">Jul 2022</text>
    
        
        <path stroke="#74838f"  stroke-width="2.0"  d="M 536.4672897196261 206.0 L 536.4672897196261 214.0" />
        <text x="536.4672897196261" font-family="-apple-system, system-ui, BlinkMacSystemFont, Roboto" y="216.0" dominant-baseline="hanging" text-anchor="middle" font-size="12" fill="#24292f">Aug 2022</text>
    
        
        <path stroke="#74838f"  stroke-width="2.0"  d="M 625.7009345794393 206.0 L 625.7009345794393 214.0" />
        <text x="625.7009345794393" font-family="-apple-system, system-ui, BlinkMacSystemFont, Roboto" y="216.0" dominant-baseline="hanging" text-anchor="middle" font-size="12" fill="#24292f">Sep 2022</text>
    
        
        <path stroke="#74838f"  stroke-width="2.0"  d="M 712.0560747663551 206.0 L 712.0560747663551 214.0" />
        <text x="712.0560747663551" font-family="-apple-system, system-ui, BlinkMacSystemFont, Roboto" y="216.0" dominant-baseline="hanging" text-anchor="middle" font-size="12" fill="#24292f">Oct 2022</text>
    
        
        <path stroke="#74838f"  stroke-width="2.0"  d="M 801.2897196261682 206.0 L 801.2897196261682 214.0" />
        <text x="801.2897196261682" font-family="-apple-system, system-ui, BlinkMacSystemFont, Roboto" y="216.0" dominant-baseline="hanging" text-anchor="middle" font-size="12" fill="#24292f">Nov 2022</text>
    
        
        <path stroke="#74838f"  stroke-width="2.0"  d="M 887.644859813084 206.0 L 887.644859813084 214.0" />
        <text x="887.644859813084" font-family="-apple-system, system-ui, BlinkMacSystemFont, Roboto" y="216.0" dominant-baseline="hanging" text-anchor="middle" font-size="12" fill="#24292f">Dec 2022</text>
    
    <path stroke="#74838f"   stroke-linejoin="round" stroke-width="2.0" d="M 50.0 216.0 L 50.0 206.0 L 974.0 206.0 L 974.0 216.0"  fill="none" />
    <text x="512.0" y="25.0" font-family="-apple-system, system-ui, BlinkMacSystemFont, Roboto" dominant-baseline="middle" text-anchor="middle" font-size="18" fill="#24292f">Total daily suspensions</text>
</svg>
