<?xml version="1.0" standalone="no"?>
<svg width="1024.0" height="256.0"  viewBox="0 0 1024.0 256.0" preserveAspectRatio="xMidYMid meet" xmlns="http://www.w3.org/2000/svg">
    <path stroke="#e74c3c" stroke-linejoin="round" d="M 50.0 161.108 L 50 161.108L 52.552486187845304 193.664L 55.10497237569061 197.576L 57.65745856353591 197.924L 60.209944751381215 203.528L 62.76243093922652 199.94L 65.31491712707182 199.268L 67.86740331491713 191.108L 70.41988950276243 200.972L 72.97237569060773 198.62L 75.52486187845304 200L 78.07734806629834 202.57999999999998L 80.62983425414365 199.208L 83.18232044198895 195.608L 85.73480662983425 202.652L 88.28729281767956 198.716L 90.83977900552486 197.49200000000002L 93.39226519337016 191.42000000000002L 95.94475138121547 196.688L 98.49723756906077 199.46L 101.04972375690608 199.328L 103.60220994475138 198.308L 106.15469613259668 198.164L 108.707182320442 199.832L 111.25966850828729 194.876L 113.81215469613261 199.904L 116.3646408839779 195.584L 118.9171270718232 200.732L 121.4696132596685 198.416L 124.02209944751381 190.652L 126.57458563535911 196.112L 129.1270718232044 190.82L 131.67955801104972 193.53199999999998L 134.23204419889504 199.688L 136.78453038674033 192.392L 139.33701657458562 197L 141.88950276243094 199.59199999999998L 144.44198895027625 193.54399999999998L 146.99447513812154 195.26L 149.54696132596683 195.428L 152.09944751381215 195.548L 154.65193370165747 196.484L 157.20441988950276 199.424L 159.75690607734805 199.22L 162.30939226519337 195.656L 164.86187845303868 193.952L 167.414364640884 195.536L 169.96685082872926 198.764L 172.51933701657458 195.428L 175.07182320441987 194L 177.62430939226522 193.688L 180.1767955801105 186.32L 182.7292817679558 197.372L 185.2817679558011 195.96800000000002L 187.8342541436464 198.284L 190.38674033149172 194.38400000000001L 192.939226519337 196.424L 195.4917127071823 196.988L 198.04419889502762 198.368L 200.59668508287294 198.05599999999998L 203.14917127071823 199.61599999999999L 205.70165745856355 191.54L 208.25414364640883 202.124L 210.80662983425415 193.34L 213.35911602209944 204.2L 215.91160220994476 206L 218.46408839779005 206L 221.01657458563537 206L 223.56906077348066 206L 226.12154696132598 190.472L 228.67403314917127 159.01999999999998L 231.22651933701658 193.56799999999998L 233.77900552486187 200.228L 236.3314917127072 193.232L 238.88397790055248 196.82L 241.4364640883978 199.772L 243.9889502762431 186.548L 246.5414364640884 197.888L 249.0939226519337 195.596L 251.646408839779 190.508L 254.1988950276243 194.876L 256.7513812154696 190.4L 259.30386740331494 188.756L 261.8563535911602 197.852L 264.4088397790055 199.772L 266.96132596685084 191.936L 269.5138121546961 191.864L 272.0662983425415 199.316L 274.61878453038673 194.72L 277.17127071823205 192.608L 279.72375690607737 194.9L 282.2762430939227 199.7L 284.828729281768 189.224L 287.38121546961327 198.428L 289.9337016574585 196.136L 292.4861878453039 195.296L 295.03867403314916 196.268L 297.5911602209944 193.184L 300.14364640883974 197.204L 302.6961325966851 193.856L 305.24861878453044 197.096L 307.8011049723757 178.16L 310.353591160221 194.372L 312.9060773480663 195.92000000000002L 315.4585635359116 195.11599999999999L 318.0110497237569 196.688L 320.5635359116022 197.49200000000002L 323.11602209944755 197.696L 325.6685082872928 186.848L 328.2209944751381 192.644L 330.77348066298345 199.61599999999999L 333.3259668508287 193.052L 335.878453038674 191.072L 338.43093922651934 195.44L 340.9834254143646 196.184L 343.53591160221 196.46L 346.08839779005524 197.312L 348.64088397790056 193.076L 351.1933701657459 206L 353.74585635359114 186.44L 356.29834254143645 186.632L 358.8508287292818 191.276L 361.4033149171271 180.93200000000002L 363.9558011049724 201.704L 366.50828729281767 185.744L 369.060773480663 196.028L 371.6132596685083 189.464L 374.16574585635357 194.228L 376.7182320441989 195.632L 379.2707182320442 196.844L 381.8232044198895 186.332L 384.37569060773484 197.99599999999998L 386.9281767955801 188.924L 389.4806629834254 189.128L 392.03314917127074 196.748L 394.585635359116 182.45600000000002L 397.1381215469613 184.16L 399.69060773480663 206L 402.24309392265195 206L 404.79558011049727 206L 407.34806629834253 160.16L 409.90055248618785 198.536L 412.45303867403317 196.60399999999998L 415.0055248618784 195.668L 417.55801104972375 192.8L 420.11049723756906 196.964L 422.6629834254144 197.828L 425.2154696132597 200.84L 427.76795580110496 170.312L 430.3204419889503 189.236L 432.8729281767956 177.428L 435.42541436464086 191.564L 437.9779005524862 178.784L 440.5303867403315 176.372L 443.0828729281768 181.7L 445.63535911602213 187.472L 448.1878453038674 192.88400000000001L 450.7403314917127 189.38L 453.292817679558 187.772L 455.8453038674033 189.404L 458.3977900552486 187.532L 460.9502762430939 193.59199999999998L 463.50276243093924 185.036L 466.05524861878456 171.332L 468.6077348066298 180.14L 471.16022099447514 172.316L 473.71270718232046 193.028L 476.2651933701657 191.996L 478.81767955801104 193.052L 481.37016574585635 194.84L 483.9226519337017 193.53199999999998L 486.475138121547 194.024L 489.02762430939225 189.272L 491.58011049723757 195.188L 494.1325966850829 196.256L 496.68508287292815 192.62L 499.23756906077347 190.844L 501.7900552486188 200.984L 504.3425414364641 184.796L 506.8950276243094 190.88L 509.4475138121547 194.42000000000002L 512 189.86L 514.5524861878454 195.86L 517.1049723756905 191.984L 519.657458563536 193.1L 522.2099447513813 186.464L 524.7624309392265 190.46L 527.3149171270718 182.156L 529.867403314917 187.136L 532.4198895027625 191.528L 534.9723756906078 184.1L 537.5248618784531 189.14L 540.0773480662983 185.204L 542.6298342541436 185.468L 545.1823204419888 176.816L 547.7348066298343 189.04399999999998L 550.2872928176795 191.048L 552.8397790055249 188.756L 555.3922651933702 187.592L 557.9447513812154 191.39600000000002L 560.4972375690609 187.796L 563.049723756906 188.228L 565.6022099447514 190.268L 568.1546961325967 194.372L 570.707182320442 194.72L 573.2596685082873 201.308L 575.8121546961326 192.752L 578.3646408839779 181.148L 580.9171270718232 181.748L 583.4696132596686 181.208L 586.0220994475138 191.3L 588.5745856353591 186.88400000000001L 591.1270718232043 181.376L 593.6795580110497 186.5L 596.2320441988951 188.44400000000002L 598.7845303867404 179.66L 601.3370165745856 183.09199999999998L 603.8895027624309 173.564L 606.4419889502763 183.836L 608.9944751381215 171.668L 611.5469613259669 148.148L 614.0994475138122 178.004L 616.6519337016574 141.86L 619.2044198895028 186.128L 621.756906077348 188.54000000000002L 624.3093922651934 187.748L 626.8618784530387 193.256L 629.414364640884 186.596L 631.9668508287292 185.42000000000002L 634.5193370165746 186.872L 637.07182320442 185.372L 639.6243093922652 192.824L 642.1767955801105 188.552L 644.7292817679557 189.32L 647.2817679558011 186.632L 649.8342541436464 185.768L 652.3867403314918 188.744L 654.939226519337 187.34L 657.4917127071823 192.488L 660.0441988950276 187.028L 662.5966850828729 185.468L 665.1491712707183 181.928L 667.7016574585635 183.8L 670.2541436464088 180.296L 672.8066298342542 185.516L 675.3591160220994 194L 677.9116022099448 190.328L 680.4640883977901 186.584L 683.0165745856353 168.32L 685.5690607734806 117.5L 688.121546961326 189.10399999999998L 690.6740331491712 187.844L 693.2265193370166 190.28L 695.7790055248619 192.32L 698.3314917127071 189.2L 700.8839779005525 182.288L 703.4364640883978 188.49200000000002L 705.9889502762431 178.916L 708.5414364640884 53.432000000000016L 711.0939226519337 162.656L 713.646408839779 184.52L 716.1988950276243 182.708L 718.7513812154697 183.68L 721.3038674033149 184.196L 723.8563535911602 179.084L 726.4088397790055 190.16L 728.9613259668508 180.476L 731.5138121546961 160.916L 734.0662983425415 121.196L 736.6187845303867 151.50799999999998L 739.171270718232 164.132L 741.7237569060774 181.184L 744.2762430939226 170.49200000000002L 746.828729281768 179.792L 749.3812154696133 173.204L 751.9337016574585 178.352L 754.4861878453039 182.792L 757.0386740331492 177.152L 759.5911602209945 184.232L 762.1436464088398 187.796L 764.6961325966851 188.348L 767.2486187845303 184.736L 769.8011049723757 181.892L 772.353591160221 181.796L 774.9060773480663 179.36L 777.4585635359116 168.176L 780.0110497237569 181.808L 782.5635359116022 185.372L 785.1160220994475 167.708L 787.6685082872929 140.6L 790.2209944751381 160.784L 792.7734806629834 151.664L 795.3259668508288 145.952L 797.878453038674 155.288L 800.4309392265194 153.68L 802.9834254143647 163.04L 805.5359116022099 172.064L 808.0883977900552 148.952L 810.6408839779006 171.812L 813.1933701657458 172.46L 815.7458563535912 172.508L 818.2983425414365 183.644L 820.8508287292817 166.304L 823.4033149171271 159.26L 825.9558011049724 172.652L 828.5082872928177 165.5L 831.060773480663 154.892L 833.6132596685082 173.888L 836.1657458563536 176.3L 838.7182320441989 186.5L 841.2707182320443 183.932L 843.8232044198895 183.10399999999998L 846.3756906077348 150.128L 848.92817679558 183.11599999999999L 851.4806629834254 186.152L 854.0331491712708 185.096L 856.585635359116 182.276L 859.1381215469613 182.18L 861.6906077348066 182.144L 864.243093922652 174.956L 866.7955801104972 181.988L 869.3480662983426 179.504L 871.9005524861878 184.784L 874.4530386740331 179L 877.0055248618785 175.868L 879.5580110497237 177.14L 882.1104972375691 178.832L 884.6629834254144 182.216L 887.2154696132596 176.444L 889.7679558011049 182.576L 892.3204419889503 177.02L 894.8729281767957 178.58L 897.4254143646409 182.144L 899.9779005524862 179.48L 902.5303867403314 176.972L 905.0828729281768 186.164L 907.6353591160221 176.096L 910.1878453038674 178.04L 912.7403314917127 152.996L 915.292817679558 130.724L 917.8453038674033 149.888L 920.3977900552486 149.48L 922.950276243094 184.1L 925.5027624309392 184.484L 928.0552486187845 177.56L 930.6077348066298 139.952L 933.1602209944751 148.028L 935.7127071823205 162.428L 938.2651933701658 136.244L 940.817679558011 132.128L 943.3701657458563 142.508L 945.9226519337017 143.252L 948.4751381215469 125.732L 951.0276243093923 117.06800000000001L 953.5801104972376 164.264L 956.1325966850828 161.876L 958.6850828729282 158.636L 961.2375690607735 176.40800000000002L 963.7900552486188 186.632L 966.3425414364641 187.352L 968.8950276243094 186.152L 971.4475138121546 174.932L 974 197.204" stroke-width="2.0" fill="none" />
    
        
        
        <text x="45.0" font-family="-apple-system, system-ui, BlinkMacSystemFont, Roboto" y="50.0" dominant-baseline="middle" text-anchor="end" font-size="12" fill="#24292f">13000.0</text>
        
            
            <path stroke="#74838f" stroke-dasharray="10 6" stroke-width="0.5"  d="M 50.0 50.0 L 974.0 50.0" />
        
    
        
        
        <text x="45.0" font-family="-apple-system, system-ui, BlinkMacSystemFont, Roboto" y="81.2" dominant-baseline="middle" text-anchor="end" font-size="12" fill="#24292f">10400.0</text>
        
            
            
            <path stroke="#74838f" stroke-dasharray="10 6" stroke-width="0.5"  d="M 50.0 81.2 L 974.0 81.2" />
        
    
        
        
        <text x="45.0" font-family="-apple-system, system-ui, BlinkMacSystemFont, Roboto" y="112.4" dominant-baseline="middle" text-anchor="end" font-size="12" fill="#24292f">7800.0</text>
        
            
            
            <path stroke="#74838f" stroke-dasharray="10 6" stroke-width="0.5"  d="M 50.0 112.4 L 974.0 112.4" />
        
    
        
        
        <text x="45.0" font-family="-apple-system, system-ui, BlinkMacSystemFont, Roboto" y="143.6" dominant-baseline="middle" text-anchor="end" font-size="12" fill="#24292f">5200.0</text>
        
            
            
            <path stroke="#74838f" stroke-dasharray="10 6" stroke-width="0.5"  d="M 50.0 143.6 L 974.0 143.6" />
        
    
        
        
        <text x="45.0" font-family="-apple-system, system-ui, BlinkMacSystemFont, Roboto" y="174.8" dominant-baseline="middle" text-anchor="end" font-size="12" fill="#24292f">2600.0</text>
        
            
            
            <path stroke="#74838f" stroke-dasharray="10 6" stroke-width="0.5"  d="M 50.0 174.8 L 974.0 174.8" />
        
    
        
        
        <text x="45.0" font-family="-apple-system, system-ui, BlinkMacSystemFont, Roboto" y="206.0" dominant-baseline="middle" text-anchor="end" font-size="12" fill="#24292f">0.0</text>
        
    
    
        
        <path stroke="#74838f"  stroke-width="2.0"  d="M 90.83977900552486 206.0 L 90.83977900552486 214.0" />
        <text x="90.83977900552486" font-family="-apple-system, system-ui, BlinkMacSystemFont, Roboto" y="216.0" dominant-baseline="hanging" text-anchor="middle" font-size="12" fill="#24292f">Mar 2022</text>
    
        
        <path stroke="#74838f"  stroke-width="2.0"  d="M 169.96685082872926 206.0 L 169.96685082872926 214.0" />
        <text x="169.96685082872926" font-family="-apple-system, system-ui, BlinkMacSystemFont, Roboto" y="216.0" dominant-baseline="hanging" text-anchor="middle" font-size="12" fill="#24292f">Apr 2022</text>
    
        
        <path stroke="#74838f"  stroke-width="2.0"  d="M 246.5414364640884 206.0 L 246.5414364640884 214.0" />
        <text x="246.5414364640884" font-family="-apple-system, system-ui, BlinkMacSystemFont, Roboto" y="216.0" dominant-baseline="hanging" text-anchor="middle" font-size="12" fill="#24292f">May 2022</text>
    
        
        <path stroke="#74838f"  stroke-width="2.0"  d="M 325.6685082872928 206.0 L 325.6685082872928 214.0" />
        <text x="325.6685082872928" font-family="-apple-system, system-ui, BlinkMacSystemFont, Roboto" y="216.0" dominant-baseline="hanging" text-anchor="middle" font-size="12" fill="#24292f">Jun 2022</text>
    
        
        <path stroke="#74838f"  stroke-width="2.0"  d="M 402.24309392265195 206.0 L 402.24309392265195 214.0" />
        <text x="402.24309392265195" font-family="-apple-system, system-ui, BlinkMacSystemFont, Roboto" y="216.0" dominant-baseline="hanging" text-anchor="middle" font-size="12" fill="#24292f">Jul 2022</text>
    
        
        <path stroke="#74838f"  stroke-width="2.0"  d="M 481.37016574585635 206.0 L 481.37016574585635 214.0" />
        <text x="481.37016574585635" font-family="-apple-system, system-ui, BlinkMacSystemFont, Roboto" y="216.0" dominant-baseline="hanging" text-anchor="middle" font-size="12" fill="#24292f">Aug 2022</text>
    
        
        <path stroke="#74838f"  stroke-width="2.0"  d="M 560.4972375690609 206.0 L 560.4972375690609 214.0" />
        <text x="560.4972375690609" font-family="-apple-system, system-ui, BlinkMacSystemFont, Roboto" y="216.0" dominant-baseline="hanging" text-anchor="middle" font-size="12" fill="#24292f">Sep 2022</text>
    
        
        <path stroke="#74838f"  stroke-width="2.0"  d="M 637.07182320442 206.0 L 637.07182320442 214.0" />
        <text x="637.07182320442" font-family="-apple-system, system-ui, BlinkMacSystemFont, Roboto" y="216.0" dominant-baseline="hanging" text-anchor="middle" font-size="12" fill="#24292f">Oct 2022</text>
    
        
        <path stroke="#74838f"  stroke-width="2.0"  d="M 716.1988950276243 206.0 L 716.1988950276243 214.0" />
        <text x="716.1988950276243" font-family="-apple-system, system-ui, BlinkMacSystemFont, Roboto" y="216.0" dominant-baseline="hanging" text-anchor="middle" font-size="12" fill="#24292f">Nov 2022</text>
    
        
        <path stroke="#74838f"  stroke-width="2.0"  d="M 792.7734806629834 206.0 L 792.7734806629834 214.0" />
        <text x="792.7734806629834" font-family="-apple-system, system-ui, BlinkMacSystemFont, Roboto" y="216.0" dominant-baseline="hanging" text-anchor="middle" font-size="12" fill="#24292f">Dec 2022</text>
    
        
        <path stroke="#74838f"  stroke-width="2.0"  d="M 871.9005524861878 206.0 L 871.9005524861878 214.0" />
        <text x="871.9005524861878" font-family="-apple-system, system-ui, BlinkMacSystemFont, Roboto" y="216.0" dominant-baseline="hanging" text-anchor="middle" font-size="12" fill="#24292f">Jan 2023</text>
    
        
        <path stroke="#74838f"  stroke-width="2.0"  d="M 951.0276243093923 206.0 L 951.0276243093923 214.0" />
        <text x="951.0276243093923" font-family="-apple-system, system-ui, BlinkMacSystemFont, Roboto" y="216.0" dominant-baseline="hanging" text-anchor="middle" font-size="12" fill="#24292f">Feb 2023</text>
    
    <path stroke="#74838f"   stroke-linejoin="round" stroke-width="2.0" d="M 50.0 216.0 L 50.0 206.0 L 974.0 206.0 L 974.0 216.0"  fill="none" />
    <text x="512.0" y="25.0" font-family="-apple-system, system-ui, BlinkMacSystemFont, Roboto" dominant-baseline="middle" text-anchor="middle" font-size="18" fill="#24292f">Total daily suspensions</text>
</svg>
