<?xml version="1.0" standalone="no"?>
<svg width="1024.0" height="256.0"  viewBox="0 0 1024.0 256.0" preserveAspectRatio="xMidYMid meet" xmlns="http://www.w3.org/2000/svg">
    <path stroke="#e74c3c" stroke-linejoin="round" d="M 50.0 162.77066666666667 L 50 162.77066666666667L 51.8780487804878 194.12088888888889L 53.75609756097561 197.888L 55.63414634146341 198.2231111111111L 57.51219512195122 203.61955555555556L 59.390243902439025 200.16444444444443L 61.26829268292683 199.51733333333334L 63.146341463414636 191.65955555555556L 65.02439024390245 201.1582222222222L 66.90243902439025 198.89333333333332L 68.78048780487805 200.22222222222223L 70.65853658536585 202.70666666666665L 72.53658536585365 199.45955555555554L 74.41463414634147 195.9928888888889L 76.29268292682927 202.776L 78.17073170731707 198.98577777777777L 80.04878048780488 197.8071111111111L 81.92682926829268 191.96L 83.8048780487805 197.0328888888889L 85.6829268292683 199.70222222222222L 87.5609756097561 199.5751111111111L 89.4390243902439 198.5928888888889L 91.3170731707317 198.45422222222223L 93.1951219512195 200.06044444444444L 95.07317073170732 195.288L 96.95121951219512 200.12977777777778L 98.82926829268294 195.96977777777778L 100.70731707317074 200.92711111111112L 102.58536585365854 198.6968888888889L 104.46341463414635 191.22044444444444L 106.34146341463415 196.47822222222223L 108.21951219512195 191.38222222222223L 110.09756097560975 193.99377777777778L 111.97560975609755 199.92177777777778L 113.85365853658536 192.89600000000002L 115.73170731707317 197.33333333333334L 117.60975609756098 199.82933333333332L 119.48780487804879 194.00533333333334L 121.3658536585366 195.65777777777777L 123.2439024390244 195.81955555555555L 125.1219512195122 195.9351111111111L 127 196.83644444444445L 128.8780487804878 199.66755555555557L 130.7560975609756 199.4711111111111L 132.6341463414634 196.0391111111111L 134.5121951219512 194.39822222222222L 136.390243902439 195.92355555555554L 138.26829268292684 199.03199999999998L 140.14634146341464 195.81955555555555L 142.02439024390245 194.44444444444446L 143.90243902439025 194.144L 145.78048780487805 187.04888888888888L 147.65853658536588 197.69155555555557L 149.53658536585368 196.33955555555556L 151.41463414634148 198.56977777777777L 153.2926829268293 194.8142222222222L 155.1707317073171 196.77866666666665L 157.0487804878049 197.32177777777778L 158.9268292682927 198.65066666666667L 160.8048780487805 198.35022222222221L 162.6829268292683 199.85244444444444L 164.5609756097561 192.07555555555555L 166.4390243902439 202.26755555555556L 168.3170731707317 193.80888888888887L 170.1951219512195 204.26666666666665L 172.0731707317073 206L 173.9512195121951 206L 175.8292682926829 206L 177.7073170731707 206L 179.58536585365854 191.04711111111112L 181.46341463414635 160.76L 183.34146341463415 194.02844444444446L 185.21951219512195 200.4417777777778L 187.09756097560975 193.7048888888889L 188.97560975609758 197.16L 190.85365853658536 200.00266666666667L 192.7317073170732 187.26844444444444L 194.60975609756096 198.18844444444443L 196.4878048780488 195.98133333333334L 198.3658536585366 191.08177777777777L 200.2439024390244 195.288L 202.1219512195122 190.97777777777776L 204 189.39466666666667L 205.8780487804878 198.15377777777778L 207.75609756097563 200.00266666666667L 209.6341463414634 192.4568888888889L 211.51219512195124 192.38755555555556L 213.390243902439 199.56355555555555L 215.26829268292684 195.13777777777779L 217.14634146341464 193.10399999999998L 219.02439024390245 195.3111111111111L 220.90243902439025 199.93333333333334L 222.78048780487805 189.84533333333331L 224.65853658536585 198.70844444444444L 226.53658536585368 196.50133333333332L 228.41463414634146 195.69244444444445L 230.2926829268293 196.62844444444445L 232.17073170731706 193.65866666666668L 234.0487804878049 197.52977777777778L 235.9268292682927 194.3057777777778L 237.8048780487805 197.4257777777778L 239.6829268292683 179.19111111111113L 241.5609756097561 194.80266666666665L 243.4390243902439 196.29333333333335L 245.31707317073173 195.5191111111111L 247.1951219512195 197.0328888888889L 249.07317073170734 197.8071111111111L 250.9512195121951 198.00355555555555L 252.82926829268294 187.55733333333333L 254.70731707317074 193.13866666666667L 256.5853658536586 199.85244444444444L 258.4634146341464 193.53155555555554L 260.3414634146342 191.6248888888889L 262.219512195122 195.8311111111111L 264.0975609756098 196.54755555555556L 265.9756097560976 196.81333333333333L 267.8536585365854 197.63377777777777L 269.7317073170732 193.55466666666666L 271.609756097561 206L 273.4878048780488 187.16444444444446L 275.3658536585366 187.34933333333333L 277.2439024390244 191.8213333333333L 279.1219512195122 181.86044444444445L 281 201.8631111111111L 282.8780487804878 186.49422222222222L 284.7560975609756 196.39733333333334L 286.6341463414634 190.07644444444443L 288.5121951219512 194.664L 290.390243902439 196.016L 292.2682926829268 197.18311111111112L 294.1463414634146 187.06044444444444L 296.0243902439024 198.29244444444444L 297.9024390243902 189.55644444444445L 299.780487804878 189.7528888888889L 301.6585365853658 197.09066666666666L 303.5365853658537 183.328L 305.4146341463414 184.9688888888889L 307.29268292682923 206L 309.1707317073171 206L 311.0487804878049 206L 312.9268292682927 161.85777777777778L 314.8048780487805 198.81244444444445L 316.6829268292683 196.952L 318.5609756097561 196.05066666666667L 320.4390243902439 193.2888888888889L 322.3170731707317 197.29866666666666L 324.1951219512195 198.13066666666668L 326.0731707317073 201.0311111111111L 327.95121951219517 171.63377777777777L 329.8292682926829 189.85688888888888L 331.7073170731707 178.4862222222222L 333.5853658536585 192.09866666666667L 335.4634146341464 179.792L 337.3414634146341 177.46933333333334L 339.2195121951219 182.6L 341.0975609756098 188.1582222222222L 342.9756097560976 193.36977777777778L 344.8536585365853 189.99555555555554L 346.7317073170732 188.4471111111111L 348.609756097561 190.01866666666666L 350.4878048780488 188.216L 352.36585365853654 194.05155555555555L 354.2439024390244 185.81244444444445L 356.1219512195122 172.61599999999999L 358 181.09777777777776L 359.8780487804878 173.56355555555555L 361.7560975609756 193.50844444444445L 363.6341463414634 192.51466666666667L 365.51219512195127 193.53155555555554L 367.390243902439 195.25333333333333L 369.2682926829268 193.99377777777778L 371.1463414634146 194.46755555555555L 373.0243902439025 189.89155555555556L 374.9024390243902 195.58844444444446L 376.780487804878 196.6168888888889L 378.6585365853659 193.11555555555555L 380.5365853658537 191.40533333333332L 382.4146341463414 201.16977777777777L 384.2926829268293 185.58133333333333L 386.1707317073171 191.44L 388.0487804878049 194.8488888888889L 389.92682926829264 190.45777777777778L 391.8048780487805 196.23555555555555L 393.6829268292683 192.5031111111111L 395.5609756097561 193.57777777777778L 397.4390243902439 187.18755555555555L 399.3170731707317 191.03555555555556L 401.1951219512195 183.0391111111111L 403.07317073170736 187.83466666666666L 404.9512195121951 192.064L 406.8292682926829 184.9111111111111L 408.7073170731707 189.76444444444445L 410.5853658536586 185.97422222222224L 412.4634146341463 186.22844444444445L 414.3414634146341 177.8968888888889L 416.219512195122 189.672L 418.0975609756098 191.60177777777778L 419.9756097560975 189.39466666666667L 421.8536585365854 188.27377777777778L 423.7317073170732 191.9368888888889L 425.609756097561 188.47022222222222L 427.48780487804873 188.88622222222222L 429.3658536585366 190.85066666666665L 431.2439024390244 194.80266666666665L 433.1219512195122 195.13777777777779L 435 201.48177777777778L 436.8780487804878 193.24266666666665L 438.7560975609756 182.06844444444445L 440.63414634146346 182.64622222222224L 442.5121951219512 182.12622222222222L 444.390243902439 191.84444444444443L 446.2682926829268 187.592L 448.1463414634147 182.288L 450.0243902439024 187.22222222222223L 451.9024390243902 189.09422222222221L 453.7804878048781 180.63555555555556L 455.6585365853659 183.94044444444444L 457.5365853658536 174.76533333333333L 459.4146341463415 184.6568888888889L 461.2926829268293 172.93955555555556L 463.1707317073171 150.29066666666665L 465.04878048780483 179.0408888888889L 466.9268292682927 144.23555555555555L 468.8048780487805 186.864L 470.6829268292683 189.18666666666667L 472.5609756097561 188.424L 474.4390243902439 193.728L 476.3170731707317 187.31466666666665L 478.1951219512195 186.1822222222222L 480.0731707317073 187.58044444444445L 481.9512195121951 186.136L 483.8292682926829 193.312L 485.70731707317077 189.19822222222223L 487.5853658536585 189.9377777777778L 489.4634146341463 187.34933333333333L 491.3414634146342 186.51733333333334L 493.219512195122 189.3831111111111L 495.0975609756097 188.0311111111111L 496.9756097560976 192.98844444444444L 498.8536585365854 187.73066666666668L 500.7317073170732 186.22844444444445L 502.60975609756093 182.81955555555555L 504.4878048780488 184.6222222222222L 506.3658536585366 181.248L 508.2439024390244 186.27466666666666L 510.1219512195122 194.44444444444446L 512 190.90844444444446L 513.8780487804879 187.30311111111112L 515.7560975609756 169.71555555555557L 517.6341463414634 120.77777777777779L 519.5121951219512 189.72977777777777L 521.390243902439 188.51644444444446L 523.2682926829268 190.86222222222221L 525.1463414634147 192.82666666666665L 527.0243902439024 189.82222222222222L 528.9024390243903 183.16622222222222L 530.780487804878 189.14044444444443L 532.6585365853658 179.9191111111111L 534.5365853658536 59.082666666666654L 536.4146341463414 164.26133333333334L 538.2926829268292 185.31555555555556L 540.1707317073171 183.57066666666668L 542.0487804878048 184.50666666666666L 543.9268292682927 185.00355555555555L 545.8048780487804 180.0808888888889L 547.6829268292682 190.74666666666667L 549.560975609756 181.42133333333334L 551.439024390244 162.58577777777776L 553.3170731707316 124.3368888888889L 555.1951219512196 153.52622222222223L 557.0731707317074 165.68266666666668L 558.9512195121952 182.1031111111111L 560.8292682926829 171.8071111111111L 562.7073170731708 180.76266666666666L 564.5853658536585 174.41866666666667L 566.4634146341464 179.376L 568.3414634146342 183.65155555555555L 570.219512195122 178.22044444444444L 572.0975609756098 185.03822222222223L 573.9756097560975 188.47022222222222L 575.8536585365854 189.00177777777776L 577.7317073170732 185.52355555555556L 579.609756097561 182.7848888888889L 581.4878048780488 182.69244444444445L 583.3658536585366 180.34666666666666L 585.2439024390244 169.5768888888889L 587.1219512195122 182.704L 589 186.136L 590.8780487804878 169.12622222222222L 592.7560975609756 143.0222222222222L 594.6341463414634 162.45866666666666L 596.5121951219512 153.67644444444443L 598.390243902439 148.176L 600.2682926829269 157.16622222222222L 602.1463414634146 155.61777777777777L 604.0243902439024 164.63111111111112L 605.9024390243903 173.32088888888887L 607.780487804878 151.0648888888889L 609.6585365853658 173.07822222222222L 611.5365853658536 173.70222222222222L 613.4146341463414 173.74844444444443L 615.2926829268293 184.472L 617.170731707317 167.77422222222222L 619.0487804878048 160.9911111111111L 620.9268292682927 173.8871111111111L 622.8048780487804 167L 624.6829268292682 156.78488888888887L 626.5609756097562 175.07733333333334L 628.4390243902438 177.4L 630.3170731707318 187.22222222222223L 632.1951219512196 184.74933333333334L 634.0731707317073 183.952L 635.9512195121952 152.19733333333335L 637.829268292683 183.96355555555556L 639.7073170731707 186.8871111111111L 641.5853658536586 185.87022222222222L 643.4634146341464 183.15466666666666L 645.3414634146342 183.06222222222223L 647.219512195122 183.02755555555555L 649.0975609756097 176.10577777777777L 650.9756097560976 182.87733333333333L 652.8536585365854 180.48533333333333L 654.7317073170731 185.56977777777777L 656.609756097561 180L 658.4878048780488 176.984L 660.3658536585366 178.20888888888888L 662.2439024390244 179.8382222222222L 664.1219512195122 183.09688888888888L 666 177.53866666666667L 667.8780487804878 183.44355555555555L 669.7560975609756 178.09333333333333L 671.6341463414634 179.59555555555556L 673.5121951219512 183.02755555555555L 675.390243902439 180.4622222222222L 677.2682926829268 178.04711111111112L 679.1463414634146 186.89866666666666L 681.0243902439025 177.20355555555557L 682.9024390243902 179.07555555555555L 684.780487804878 154.9591111111111L 686.6585365853658 133.512L 688.5365853658536 151.96622222222223L 690.4146341463415 151.57333333333332L 692.2926829268292 184.9111111111111L 694.170731707317 185.28088888888888L 696.048780487805 178.61333333333334L 697.9268292682926 142.39822222222222L 699.8048780487804 150.1751111111111L 701.6829268292684 164.04177777777778L 703.560975609756 138.82755555555556L 705.439024390244 134.864L 707.3170731707318 144.85955555555557L 709.1951219512194 145.57600000000002L 711.0731707317074 128.7048888888889L 712.9512195121952 120.36177777777777L 714.8292682926829 165.80977777777778L 716.7073170731708 163.51022222222224L 718.5853658536586 160.39022222222223L 720.4634146341464 177.504L 722.3414634146342 187.34933333333333L 724.2195121951219 188.04266666666666L 726.0975609756098 186.8871111111111L 727.9756097560976 176.08266666666668L 729.8536585365853 179.41066666666666L 731.7317073170732 195.0568888888889L 733.609756097561 185.53511111111112L 735.4878048780488 183.6977777777778L 737.3658536585366 174.97333333333333L 739.2439024390244 178.61333333333334L 741.1219512195122 180.9591111111111L 743 184.0328888888889L 744.8780487804878 155.61777777777777L 746.7560975609756 149.7128888888889L 748.6341463414634 186.2631111111111L 750.5121951219512 191.28977777777777L 752.390243902439 175.90933333333334L 754.2682926829268 175.49333333333334L 756.1463414634147 184.51822222222222L 758.0243902439024 189.69511111111112L 759.9024390243902 187.592L 761.7804878048781 180.09244444444445L 763.6585365853658 176.92622222222224L 765.5365853658536 163.31377777777777L 767.4146341463414 162.112L 769.2926829268292 167.1271111111111L 771.1707317073171 180.32355555555554L 773.0487804878048 184.11377777777778L 774.9268292682926 191.57866666666666L 776.8048780487806 195.54222222222222L 778.6829268292682 183.54755555555556L 780.560975609756 164.03022222222222L 782.439024390244 171.05599999999998L 784.3170731707316 169.92355555555557L 786.1951219512196 180.02311111111112L 788.0731707317074 172.07288888888888L 789.951219512195 163.53333333333333L 791.829268292683 171.34488888888887L 793.7073170731708 181.59466666666668L 795.5853658536585 179.80355555555556L 797.4634146341464 166.17955555555557L 799.3414634146342 154.92444444444445L 801.219512195122 158.4488888888889L 803.0975609756098 156.4728888888889L 804.9756097560975 144.4551111111111L 806.8536585365854 158.52977777777778L 808.7317073170732 178.00088888888888L 810.609756097561 144.99822222222224L 812.4878048780488 134.136L 814.3658536585366 139.8213333333333L 816.2439024390244 145.04444444444445L 818.1219512195122 153.168L 820 140.53777777777776L 821.8780487804878 113.86755555555555L 823.7560975609756 113.28977777777777L 825.6341463414634 164.85066666666665L 827.5121951219512 163.62577777777778L 829.390243902439 150.16355555555555L 831.2682926829269 149.84L 833.1463414634146 56.54044444444443L 835.0243902439024 124.776L 836.9024390243903 64.07466666666667L 838.780487804878 123.55111111111111L 840.6585365853658 157.536L 842.5365853658536 147.9911111111111L 844.4146341463414 136.22755555555557L 846.2926829268293 91.11466666666666L 848.170731707317 107.36177777777779L 850.0487804878048 141.68177777777777L 851.9268292682927 157.73244444444444L 853.8048780487804 152.63644444444444L 855.6829268292682 96.22222222222221L 857.5609756097562 150.19822222222223L 859.4390243902438 116.57155555555556L 861.3170731707318 127.34133333333332L 863.1951219512196 180.53155555555554L 865.0731707317073 137.10577777777777L 866.9512195121952 122.64977777777779L 868.829268292683 104.61155555555555L 870.7073170731707 141.76266666666666L 872.5853658536586 164.23822222222222L 874.4634146341464 160.51733333333334L 876.3414634146342 154.57777777777778L 878.219512195122 175.01955555555554L 880.0975609756097 146.87022222222222L 881.9756097560976 153.23733333333334L 883.8536585365854 142.82577777777777L 885.7317073170731 130.98133333333334L 887.609756097561 88.53777777777778L 889.4878048780488 174.488L 891.3658536585366 50.55466666666666L 893.2439024390244 84.43555555555557L 895.1219512195122 152.47466666666668L 897 114.90755555555555L 898.8780487804878 96.30311111111112L 900.7560975609756 171.46044444444445L 902.6341463414634 183.96355555555556L 904.5121951219512 169.87733333333333L 906.390243902439 183.13155555555556L 908.2682926829268 171.992L 910.1463414634146 152.48622222222224L 912.0243902439025 169.704L 913.9024390243902 172.99733333333333L 915.780487804878 164.61955555555556L 917.6585365853658 162.64355555555557L 919.5365853658536 170.51288888888888L 921.4146341463415 145.6568888888889L 923.2926829268292 159.81244444444445L 925.170731707317 167.2542222222222L 927.048780487805 141.55466666666666L 928.9268292682926 160.864L 930.8048780487804 157.7208888888889L 932.6829268292684 154.87822222222223L 934.560975609756 145.29866666666666L 936.439024390244 177.65422222222222L 938.3170731707318 119.73777777777778L 940.1951219512194 144.96355555555556L 942.0731707317074 151.15733333333333L 943.9512195121952 164.4231111111111L 945.8292682926829 174.1991111111111L 947.7073170731708 171.784L 949.5853658536586 157.12L 951.4634146341464 159.44266666666667L 953.3414634146342 169.77333333333334L 955.2195121951219 166.64177777777778L 957.0975609756098 176.5102222222222L 958.9756097560976 174.04888888888888L 960.8536585365853 157.17777777777778L 962.7317073170732 148.66133333333335L 964.609756097561 141.01155555555556L 966.4878048780488 147.49422222222222L 968.3658536585366 147.08977777777778L 970.2439024390244 164.78133333333332L 972.1219512195122 160.4711111111111L 974 197.63377777777777" stroke-width="2.0" fill="none" />
    
        
        
        <text x="45.0" font-family="-apple-system, system-ui, BlinkMacSystemFont, Roboto" y="50.0" dominant-baseline="middle" text-anchor="end" font-size="12" fill="#24292f">13500.0</text>
        
            
            <path stroke="#74838f" stroke-dasharray="10 6" stroke-width="0.5"  d="M 50.0 50.0 L 974.0 50.0" />
        
    
        
        
        <text x="45.0" font-family="-apple-system, system-ui, BlinkMacSystemFont, Roboto" y="81.2" dominant-baseline="middle" text-anchor="end" font-size="12" fill="#24292f">10800.0</text>
        
            
            
            <path stroke="#74838f" stroke-dasharray="10 6" stroke-width="0.5"  d="M 50.0 81.2 L 974.0 81.2" />
        
    
        
        
        <text x="45.0" font-family="-apple-system, system-ui, BlinkMacSystemFont, Roboto" y="112.4" dominant-baseline="middle" text-anchor="end" font-size="12" fill="#24292f">8100.0</text>
        
            
            
            <path stroke="#74838f" stroke-dasharray="10 6" stroke-width="0.5"  d="M 50.0 112.4 L 974.0 112.4" />
        
    
        
        
        <text x="45.0" font-family="-apple-system, system-ui, BlinkMacSystemFont, Roboto" y="143.6" dominant-baseline="middle" text-anchor="end" font-size="12" fill="#24292f">5400.0</text>
        
            
            
            <path stroke="#74838f" stroke-dasharray="10 6" stroke-width="0.5"  d="M 50.0 143.6 L 974.0 143.6" />
        
    
        
        
        <text x="45.0" font-family="-apple-system, system-ui, BlinkMacSystemFont, Roboto" y="174.8" dominant-baseline="middle" text-anchor="end" font-size="12" fill="#24292f">2700.0</text>
        
            
            
            <path stroke="#74838f" stroke-dasharray="10 6" stroke-width="0.5"  d="M 50.0 174.8 L 974.0 174.8" />
        
    
        
        
        <text x="45.0" font-family="-apple-system, system-ui, BlinkMacSystemFont, Roboto" y="206.0" dominant-baseline="middle" text-anchor="end" font-size="12" fill="#24292f">0.0</text>
        
    
    
        
        <path stroke="#74838f"  stroke-width="2.0"  d="M 80.04878048780488 206.0 L 80.04878048780488 214.0" />
        <text x="80.04878048780488" font-family="-apple-system, system-ui, BlinkMacSystemFont, Roboto" y="216.0" dominant-baseline="hanging" text-anchor="middle" font-size="12" fill="#24292f">Mar 2022</text>
    
        
        <path stroke="#74838f"  stroke-width="2.0"  d="M 138.26829268292684 206.0 L 138.26829268292684 214.0" />
        <text x="138.26829268292684" font-family="-apple-system, system-ui, BlinkMacSystemFont, Roboto" y="216.0" dominant-baseline="hanging" text-anchor="middle" font-size="12" fill="#24292f">Apr 2022</text>
    
        
        <path stroke="#74838f"  stroke-width="2.0"  d="M 194.60975609756096 206.0 L 194.60975609756096 214.0" />
        <text x="194.60975609756096" font-family="-apple-system, system-ui, BlinkMacSystemFont, Roboto" y="216.0" dominant-baseline="hanging" text-anchor="middle" font-size="12" fill="#24292f">May 2022</text>
    
        
        <path stroke="#74838f"  stroke-width="2.0"  d="M 252.82926829268294 206.0 L 252.82926829268294 214.0" />
        <text x="252.82926829268294" font-family="-apple-system, system-ui, BlinkMacSystemFont, Roboto" y="216.0" dominant-baseline="hanging" text-anchor="middle" font-size="12" fill="#24292f">Jun 2022</text>
    
        
        <path stroke="#74838f"  stroke-width="2.0"  d="M 309.1707317073171 206.0 L 309.1707317073171 214.0" />
        <text x="309.1707317073171" font-family="-apple-system, system-ui, BlinkMacSystemFont, Roboto" y="216.0" dominant-baseline="hanging" text-anchor="middle" font-size="12" fill="#24292f">Jul 2022</text>
    
        
        <path stroke="#74838f"  stroke-width="2.0"  d="M 367.390243902439 206.0 L 367.390243902439 214.0" />
        <text x="367.390243902439" font-family="-apple-system, system-ui, BlinkMacSystemFont, Roboto" y="216.0" dominant-baseline="hanging" text-anchor="middle" font-size="12" fill="#24292f">Aug 2022</text>
    
        
        <path stroke="#74838f"  stroke-width="2.0"  d="M 425.609756097561 206.0 L 425.609756097561 214.0" />
        <text x="425.609756097561" font-family="-apple-system, system-ui, BlinkMacSystemFont, Roboto" y="216.0" dominant-baseline="hanging" text-anchor="middle" font-size="12" fill="#24292f">Sep 2022</text>
    
        
        <path stroke="#74838f"  stroke-width="2.0"  d="M 481.9512195121951 206.0 L 481.9512195121951 214.0" />
        <text x="481.9512195121951" font-family="-apple-system, system-ui, BlinkMacSystemFont, Roboto" y="216.0" dominant-baseline="hanging" text-anchor="middle" font-size="12" fill="#24292f">Oct 2022</text>
    
        
        <path stroke="#74838f"  stroke-width="2.0"  d="M 540.1707317073171 206.0 L 540.1707317073171 214.0" />
        <text x="540.1707317073171" font-family="-apple-system, system-ui, BlinkMacSystemFont, Roboto" y="216.0" dominant-baseline="hanging" text-anchor="middle" font-size="12" fill="#24292f">Nov 2022</text>
    
        
        <path stroke="#74838f"  stroke-width="2.0"  d="M 596.5121951219512 206.0 L 596.5121951219512 214.0" />
        <text x="596.5121951219512" font-family="-apple-system, system-ui, BlinkMacSystemFont, Roboto" y="216.0" dominant-baseline="hanging" text-anchor="middle" font-size="12" fill="#24292f">Dec 2022</text>
    
        
        <path stroke="#74838f"  stroke-width="2.0"  d="M 654.7317073170731 206.0 L 654.7317073170731 214.0" />
        <text x="654.7317073170731" font-family="-apple-system, system-ui, BlinkMacSystemFont, Roboto" y="216.0" dominant-baseline="hanging" text-anchor="middle" font-size="12" fill="#24292f">Jan 2023</text>
    
        
        <path stroke="#74838f"  stroke-width="2.0"  d="M 712.9512195121952 206.0 L 712.9512195121952 214.0" />
        <text x="712.9512195121952" font-family="-apple-system, system-ui, BlinkMacSystemFont, Roboto" y="216.0" dominant-baseline="hanging" text-anchor="middle" font-size="12" fill="#24292f">Feb 2023</text>
    
        
        <path stroke="#74838f"  stroke-width="2.0"  d="M 765.5365853658536 206.0 L 765.5365853658536 214.0" />
        <text x="765.5365853658536" font-family="-apple-system, system-ui, BlinkMacSystemFont, Roboto" y="216.0" dominant-baseline="hanging" text-anchor="middle" font-size="12" fill="#24292f">Mar 2023</text>
    
        
        <path stroke="#74838f"  stroke-width="2.0"  d="M 823.7560975609756 206.0 L 823.7560975609756 214.0" />
        <text x="823.7560975609756" font-family="-apple-system, system-ui, BlinkMacSystemFont, Roboto" y="216.0" dominant-baseline="hanging" text-anchor="middle" font-size="12" fill="#24292f">Apr 2023</text>
    
        
        <path stroke="#74838f"  stroke-width="2.0"  d="M 880.0975609756097 206.0 L 880.0975609756097 214.0" />
        <text x="880.0975609756097" font-family="-apple-system, system-ui, BlinkMacSystemFont, Roboto" y="216.0" dominant-baseline="hanging" text-anchor="middle" font-size="12" fill="#24292f">May 2023</text>
    
        
        <path stroke="#74838f"  stroke-width="2.0"  d="M 938.3170731707318 206.0 L 938.3170731707318 214.0" />
        <text x="938.3170731707318" font-family="-apple-system, system-ui, BlinkMacSystemFont, Roboto" y="216.0" dominant-baseline="hanging" text-anchor="middle" font-size="12" fill="#24292f">Jun 2023</text>
    
    <path stroke="#74838f"   stroke-linejoin="round" stroke-width="2.0" d="M 50.0 216.0 L 50.0 206.0 L 974.0 206.0 L 974.0 216.0"  fill="none" />
    <text x="512.0" y="25.0" font-family="-apple-system, system-ui, BlinkMacSystemFont, Roboto" dominant-baseline="middle" text-anchor="middle" font-size="18" fill="#24292f">Total daily suspensions</text>
</svg>
