<?xml version="1.0" standalone="no"?>
<svg width="1024.0" height="256.0"  viewBox="0 0 1024.0 256.0" preserveAspectRatio="xMidYMid meet" xmlns="http://www.w3.org/2000/svg">
    <path stroke="#e74c3c" stroke-linejoin="round" d="M 50.0 161.108 L 50 161.108L 53.44776119402985 193.664L 56.8955223880597 197.576L 60.343283582089555 197.924L 63.791044776119406 203.528L 67.23880597014926 199.94L 70.68656716417911 199.268L 74.13432835820896 191.108L 77.58208955223881 200.972L 81.02985074626866 198.62L 84.4776119402985 200L 87.92537313432837 202.57999999999998L 91.3731343283582 199.208L 94.82089552238807 195.608L 98.26865671641791 202.652L 101.71641791044776 198.716L 105.16417910447761 197.49200000000002L 108.61194029850746 191.42000000000002L 112.05970149253731 196.688L 115.50746268656717 199.46L 118.955223880597 199.328L 122.40298507462687 198.308L 125.85074626865672 198.164L 129.29850746268656 199.832L 132.7462686567164 194.876L 136.1940298507463 199.904L 139.64179104477614 195.584L 143.08955223880596 200.732L 146.53731343283582 198.416L 149.98507462686567 190.652L 153.43283582089552 196.112L 156.88059701492537 190.82L 160.32835820895522 193.53199999999998L 163.77611940298507 199.688L 167.22388059701493 192.392L 170.67164179104475 197L 174.11940298507463 199.59199999999998L 177.56716417910448 193.54399999999998L 181.01492537313433 195.26L 184.46268656716418 195.428L 187.910447761194 195.548L 191.3582089552239 196.484L 194.80597014925374 199.424L 198.25373134328356 199.22L 201.70149253731344 195.656L 205.1492537313433 193.952L 208.59701492537312 195.536L 212.044776119403 198.764L 215.49253731343282 195.428L 218.9402985074627 194L 222.38805970149255 193.688L 225.83582089552237 186.32L 229.28358208955225 197.372L 232.73134328358208 195.96800000000002L 236.17910447761193 198.284L 239.6268656716418 194.38400000000001L 243.07462686567163 196.424L 246.52238805970148 196.988L 249.97014925373134 198.368L 253.4179104477612 198.05599999999998L 256.86567164179104 199.61599999999999L 260.3134328358209 191.54L 263.76119402985074 202.124L 267.2089552238806 193.34L 270.65671641791045 204.2L 274.1044776119403 206L 277.55223880597015 206L 281 206L 284.44776119402985 206L 287.8955223880597 190.472L 291.3432835820895 159.01999999999998L 294.7910447761194 193.56799999999998L 298.23880597014926 200.228L 301.6865671641791 193.232L 305.13432835820896 196.82L 308.58208955223876 199.772L 312.02985074626866 186.548L 315.4776119402985 197.888L 318.92537313432837 195.596L 322.3731343283582 190.508L 325.820895522388 194.876L 329.2686567164179 190.4L 332.7164179104478 188.756L 336.1641791044776 197.852L 339.6119402985075 199.772L 343.05970149253733 191.936L 346.5074626865671 191.864L 349.95522388059703 199.316L 353.4029850746269 194.708L 356.85074626865674 192.608L 360.2985074626866 194.9L 363.7462686567164 199.7L 367.19402985074623 189.224L 370.64179104477614 198.428L 374.089552238806 196.136L 377.53731343283584 195.296L 380.98507462686564 196.268L 384.4328358208955 193.184L 387.8805970149254 197.204L 391.32835820895525 193.856L 394.7761194029851 197.096L 398.2238805970149 178.16L 401.67164179104475 194.372L 405.1194029850746 195.92000000000002L 408.5671641791045 195.11599999999999L 412.01492537313436 196.688L 415.46268656716416 197.49200000000002L 418.910447761194 197.696L 422.35820895522386 186.848L 425.80597014925377 192.644L 429.2537313432836 199.61599999999999L 432.7014925373134 193.052L 436.14925373134326 191.072L 439.5970149253731 195.44L 443.04477611940297 196.184L 446.4925373134329 196.46L 449.94029850746267 197.312L 453.3880597014925 193.076L 456.8358208955224 206L 460.2835820895522 186.44L 463.7313432835821 186.632L 467.179104477612 191.276L 470.6268656716418 180.93200000000002L 474.07462686567163 201.704L 477.5223880597015 185.744L 480.97014925373134 196.028L 484.41791044776124 189.464L 487.86567164179104 194.228L 491.3134328358209 195.632L 494.76119402985074 196.844L 498.2089552238806 186.332L 501.65671641791045 197.99599999999998L 505.1044776119403 188.924L 508.55223880597015 189.128L 512 196.748L 515.4477611940298 182.45600000000002L 518.8955223880597 184.16L 522.3432835820895 206L 525.7910447761194 206L 529.2388059701493 206L 532.686567164179 160.16L 536.1343283582089 198.536L 539.5820895522388 196.60399999999998L 543.0298507462687 195.668L 546.4776119402985 192.8L 549.9253731343283 196.964L 553.3731343283582 197.828L 556.820895522388 200.84L 560.2686567164179 170.312L 563.7164179104477 189.236L 567.1641791044775 177.428L 570.6119402985075 191.564L 574.0597014925373 178.784L 577.5074626865672 176.372L 580.955223880597 181.7L 584.4029850746268 187.472L 587.8507462686567 192.88400000000001L 591.2985074626865 189.38L 594.7462686567164 187.772L 598.1940298507462 189.404L 601.641791044776 187.532L 605.0895522388059 193.59199999999998L 608.5373134328358 185.036L 611.9850746268658 171.332L 615.4328358208955 180.14L 618.8805970149253 172.316L 622.3283582089553 193.028L 625.776119402985 191.996L 629.223880597015 193.052L 632.6716417910447 194.84L 636.1194029850747 193.53199999999998L 639.5671641791045 194.024L 643.0149253731342 189.272L 646.4626865671642 195.188L 649.9104477611941 196.256L 653.358208955224 192.62L 656.8059701492538 190.844L 660.2537313432836 200.984L 663.7014925373135 184.796L 667.1492537313433 190.88L 670.5970149253732 194.42000000000002L 674.044776119403 189.86L 677.4925373134328 195.86L 680.9402985074627 191.984L 684.3880597014925 193.1L 687.8358208955225 186.464L 691.2835820895523 190.46L 694.7313432835821 182.156L 698.179104477612 187.136L 701.6268656716418 191.528L 705.0746268656717 184.1L 708.5223880597015 189.14L 711.9701492537313 185.204L 715.4179104477612 185.468L 718.865671641791 176.828L 722.3134328358209 189.04399999999998L 725.7611940298508 191.048L 729.2089552238806 188.756L 732.6567164179105 187.592L 736.1044776119403 191.39600000000002L 739.5522388059702 187.796L 743 188.228L 746.4477611940298 190.268L 749.8955223880597 194.372L 753.3432835820895 194.72L 756.7910447761194 201.308L 760.2388059701492 192.752L 763.6865671641791 181.148L 767.134328358209 181.748L 770.5820895522388 181.208L 774.0298507462687 191.3L 777.4776119402985 186.88400000000001L 780.9253731343283 181.376L 784.3731343283582 186.5L 787.820895522388 188.44400000000002L 791.2686567164179 179.66L 794.7164179104477 183.09199999999998L 798.1641791044775 173.564L 801.6119402985075 183.836L 805.0597014925373 171.668L 808.5074626865672 148.148L 811.955223880597 178.004L 815.4029850746268 141.86L 818.8507462686567 186.128L 822.2985074626865 188.54000000000002L 825.7462686567164 187.748L 829.1940298507462 193.256L 832.641791044776 186.596L 836.0895522388059 185.42000000000002L 839.5373134328358 186.872L 842.9850746268658 185.372L 846.4328358208955 192.824L 849.8805970149253 188.552L 853.3283582089553 189.32L 856.776119402985 186.632L 860.223880597015 185.768L 863.6716417910447 188.744L 867.1194029850747 187.34L 870.5671641791045 192.488L 874.0149253731342 187.028L 877.4626865671642 185.468L 880.9104477611941 181.928L 884.358208955224 183.8L 887.8059701492538 180.296L 891.2537313432836 185.516L 894.7014925373135 194L 898.1492537313433 190.328L 901.5970149253732 186.584L 905.044776119403 168.32L 908.4925373134328 117.5L 911.9402985074627 189.10399999999998L 915.3880597014925 187.844L 918.8358208955225 190.28L 922.2835820895523 192.32L 925.7313432835821 189.2L 929.179104477612 182.288L 932.6268656716418 188.49200000000002L 936.0746268656717 178.916L 939.5223880597015 53.432000000000016L 942.9701492537313 162.656L 946.4179104477612 184.52L 949.865671641791 182.708L 953.3134328358209 183.68L 956.7611940298508 184.196L 960.2089552238806 179.084L 963.6567164179105 190.16L 967.1044776119403 180.476L 970.5522388059702 160.916L 974 134.984" stroke-width="2.0" fill="none" />
    
        
        
        <text x="45.0" font-family="-apple-system, system-ui, BlinkMacSystemFont, Roboto" y="50.0" dominant-baseline="middle" text-anchor="end" font-size="12" fill="#24292f">13000.0</text>
        
            
            <path stroke="#74838f" stroke-dasharray="10 6" stroke-width="0.5"  d="M 50.0 50.0 L 974.0 50.0" />
        
    
        
        
        <text x="45.0" font-family="-apple-system, system-ui, BlinkMacSystemFont, Roboto" y="81.2" dominant-baseline="middle" text-anchor="end" font-size="12" fill="#24292f">10400.0</text>
        
            
            
            <path stroke="#74838f" stroke-dasharray="10 6" stroke-width="0.5"  d="M 50.0 81.2 L 974.0 81.2" />
        
    
        
        
        <text x="45.0" font-family="-apple-system, system-ui, BlinkMacSystemFont, Roboto" y="112.4" dominant-baseline="middle" text-anchor="end" font-size="12" fill="#24292f">7800.0</text>
        
            
            
            <path stroke="#74838f" stroke-dasharray="10 6" stroke-width="0.5"  d="M 50.0 112.4 L 974.0 112.4" />
        
    
        
        
        <text x="45.0" font-family="-apple-system, system-ui, BlinkMacSystemFont, Roboto" y="143.6" dominant-baseline="middle" text-anchor="end" font-size="12" fill="#24292f">5200.0</text>
        
            
            
            <path stroke="#74838f" stroke-dasharray="10 6" stroke-width="0.5"  d="M 50.0 143.6 L 974.0 143.6" />
        
    
        
        
        <text x="45.0" font-family="-apple-system, system-ui, BlinkMacSystemFont, Roboto" y="174.8" dominant-baseline="middle" text-anchor="end" font-size="12" fill="#24292f">2600.0</text>
        
            
            
            <path stroke="#74838f" stroke-dasharray="10 6" stroke-width="0.5"  d="M 50.0 174.8 L 974.0 174.8" />
        
    
        
        
        <text x="45.0" font-family="-apple-system, system-ui, BlinkMacSystemFont, Roboto" y="206.0" dominant-baseline="middle" text-anchor="end" font-size="12" fill="#24292f">0.0</text>
        
    
    
        
        <path stroke="#74838f"  stroke-width="2.0"  d="M 105.16417910447761 206.0 L 105.16417910447761 214.0" />
        <text x="105.16417910447761" font-family="-apple-system, system-ui, BlinkMacSystemFont, Roboto" y="216.0" dominant-baseline="hanging" text-anchor="middle" font-size="12" fill="#24292f">Mar 2022</text>
    
        
        <path stroke="#74838f"  stroke-width="2.0"  d="M 212.044776119403 206.0 L 212.044776119403 214.0" />
        <text x="212.044776119403" font-family="-apple-system, system-ui, BlinkMacSystemFont, Roboto" y="216.0" dominant-baseline="hanging" text-anchor="middle" font-size="12" fill="#24292f">Apr 2022</text>
    
        
        <path stroke="#74838f"  stroke-width="2.0"  d="M 315.4776119402985 206.0 L 315.4776119402985 214.0" />
        <text x="315.4776119402985" font-family="-apple-system, system-ui, BlinkMacSystemFont, Roboto" y="216.0" dominant-baseline="hanging" text-anchor="middle" font-size="12" fill="#24292f">May 2022</text>
    
        
        <path stroke="#74838f"  stroke-width="2.0"  d="M 422.35820895522386 206.0 L 422.35820895522386 214.0" />
        <text x="422.35820895522386" font-family="-apple-system, system-ui, BlinkMacSystemFont, Roboto" y="216.0" dominant-baseline="hanging" text-anchor="middle" font-size="12" fill="#24292f">Jun 2022</text>
    
        
        <path stroke="#74838f"  stroke-width="2.0"  d="M 525.7910447761194 206.0 L 525.7910447761194 214.0" />
        <text x="525.7910447761194" font-family="-apple-system, system-ui, BlinkMacSystemFont, Roboto" y="216.0" dominant-baseline="hanging" text-anchor="middle" font-size="12" fill="#24292f">Jul 2022</text>
    
        
        <path stroke="#74838f"  stroke-width="2.0"  d="M 632.6716417910447 206.0 L 632.6716417910447 214.0" />
        <text x="632.6716417910447" font-family="-apple-system, system-ui, BlinkMacSystemFont, Roboto" y="216.0" dominant-baseline="hanging" text-anchor="middle" font-size="12" fill="#24292f">Aug 2022</text>
    
        
        <path stroke="#74838f"  stroke-width="2.0"  d="M 739.5522388059702 206.0 L 739.5522388059702 214.0" />
        <text x="739.5522388059702" font-family="-apple-system, system-ui, BlinkMacSystemFont, Roboto" y="216.0" dominant-baseline="hanging" text-anchor="middle" font-size="12" fill="#24292f">Sep 2022</text>
    
        
        <path stroke="#74838f"  stroke-width="2.0"  d="M 842.9850746268658 206.0 L 842.9850746268658 214.0" />
        <text x="842.9850746268658" font-family="-apple-system, system-ui, BlinkMacSystemFont, Roboto" y="216.0" dominant-baseline="hanging" text-anchor="middle" font-size="12" fill="#24292f">Oct 2022</text>
    
        
        <path stroke="#74838f"  stroke-width="2.0"  d="M 949.865671641791 206.0 L 949.865671641791 214.0" />
        <text x="949.865671641791" font-family="-apple-system, system-ui, BlinkMacSystemFont, Roboto" y="216.0" dominant-baseline="hanging" text-anchor="middle" font-size="12" fill="#24292f">Nov 2022</text>
    
    <path stroke="#74838f"   stroke-linejoin="round" stroke-width="2.0" d="M 50.0 216.0 L 50.0 206.0 L 974.0 206.0 L 974.0 216.0"  fill="none" />
    <text x="512.0" y="25.0" font-family="-apple-system, system-ui, BlinkMacSystemFont, Roboto" dominant-baseline="middle" text-anchor="middle" font-size="18" fill="#24292f">Total daily suspensions</text>
</svg>
