<?xml version="1.0" standalone="no"?>
<svg width="1024.0" height="256.0"  viewBox="0 0 1024.0 256.0" preserveAspectRatio="xMidYMid meet" xmlns="http://www.w3.org/2000/svg">
    <path stroke="#e74c3c" stroke-linejoin="round" d="M 50.0 161.108 L 50 161.108L 52.31 193.664L 54.62 197.576L 56.93 197.924L 59.24 203.528L 61.55 199.94L 63.86 199.268L 66.17 191.108L 68.48 200.972L 70.78999999999999 198.62L 73.1 200L 75.41 202.57999999999998L 77.72 199.208L 80.03 195.608L 82.34 202.652L 84.65 198.716L 86.96000000000001 197.49200000000002L 89.27000000000001 191.42000000000002L 91.58 196.688L 93.89 199.46L 96.2 199.328L 98.50999999999999 198.308L 100.82 198.164L 103.13 199.832L 105.44 194.876L 107.75 199.904L 110.06 195.584L 112.37 200.732L 114.68 198.416L 116.99 190.652L 119.3 196.112L 121.61 190.82L 123.92 193.53199999999998L 126.23 199.688L 128.54000000000002 192.392L 130.85 197L 133.16 199.59199999999998L 135.47 193.54399999999998L 137.78 195.26L 140.09 195.428L 142.4 195.548L 144.70999999999998 196.484L 147.01999999999998 199.424L 149.32999999999998 199.22L 151.64 195.656L 153.95 193.952L 156.26 195.536L 158.57 198.764L 160.88 195.428L 163.19 194L 165.5 193.688L 167.81 186.32L 170.12 197.372L 172.43 195.96800000000002L 174.74 198.284L 177.05 194.38400000000001L 179.36 196.424L 181.67 196.988L 183.98 198.368L 186.29 198.05599999999998L 188.6 199.61599999999999L 190.91 191.54L 193.22 202.124L 195.53 193.34L 197.84 204.2L 200.15 206L 202.46 206L 204.77 206L 207.08 206L 209.39 190.472L 211.7 159.01999999999998L 214.01 193.56799999999998L 216.32 200.228L 218.63 193.232L 220.94 196.82L 223.25 199.772L 225.56 186.548L 227.87 197.888L 230.18 195.596L 232.49 190.508L 234.8 194.876L 237.11 190.4L 239.42 188.756L 241.73 197.852L 244.04 199.772L 246.35 191.936L 248.66 191.864L 250.97 199.316L 253.28 194.72L 255.59 192.608L 257.9 194.9L 260.21000000000004 199.7L 262.52 189.224L 264.83000000000004 198.428L 267.14 196.136L 269.45 195.296L 271.76 196.268L 274.07 193.184L 276.38 197.204L 278.69 193.856L 281 197.096L 283.31 178.16L 285.62 194.372L 287.93 195.92000000000002L 290.24 195.11599999999999L 292.55 196.688L 294.86 197.49200000000002L 297.17 197.696L 299.48 186.848L 301.79 192.644L 304.1 199.61599999999999L 306.41 193.052L 308.72 191.072L 311.03 195.44L 313.34 196.184L 315.65 196.46L 317.96 197.312L 320.27 193.076L 322.58 206L 324.89 186.44L 327.2 186.632L 329.51 191.276L 331.82 180.93200000000002L 334.13 201.704L 336.44 185.744L 338.75 196.028L 341.06 189.464L 343.37 194.228L 345.68 195.632L 347.99 196.844L 350.3 186.332L 352.61 197.99599999999998L 354.92 188.924L 357.23 189.128L 359.54 196.748L 361.85 182.45600000000002L 364.16 184.16L 366.47 206L 368.78 206L 371.09 206L 373.4 160.16L 375.71 198.536L 378.02 196.60399999999998L 380.33 195.668L 382.64 192.8L 384.95 196.964L 387.26 197.828L 389.57 200.84L 391.88 170.312L 394.19 189.236L 396.5 177.428L 398.81 191.564L 401.12 178.784L 403.43 176.372L 405.74 181.7L 408.05 187.472L 410.36 192.88400000000001L 412.67 189.38L 414.98 187.772L 417.29 189.404L 419.6 187.532L 421.91 193.59199999999998L 424.22 185.036L 426.53 171.332L 428.84 180.14L 431.15 172.316L 433.46 193.028L 435.77 191.996L 438.08 193.052L 440.39 194.84L 442.7 193.53199999999998L 445.01 194.024L 447.32 189.272L 449.63 195.188L 451.94 196.256L 454.25 192.62L 456.56 190.844L 458.87 200.984L 461.18 184.796L 463.49 190.88L 465.8 194.42000000000002L 468.11 189.86L 470.42 195.86L 472.73 191.984L 475.04 193.1L 477.35 186.464L 479.66 190.46L 481.97 182.156L 484.28 187.136L 486.59 191.528L 488.9 184.1L 491.21 189.14L 493.52 185.204L 495.83 185.468L 498.14 176.816L 500.45 189.04399999999998L 502.76 191.048L 505.07 188.756L 507.38 187.592L 509.69 191.39600000000002L 512 187.796L 514.31 188.228L 516.62 190.268L 518.93 194.372L 521.24 194.72L 523.55 201.308L 525.86 192.752L 528.17 181.148L 530.48 181.748L 532.79 181.208L 535.1 191.3L 537.41 186.88400000000001L 539.72 181.376L 542.03 186.5L 544.34 188.44400000000002L 546.65 179.66L 548.96 183.09199999999998L 551.27 173.564L 553.58 183.836L 555.89 171.668L 558.2 148.148L 560.51 178.004L 562.82 141.86L 565.13 186.128L 567.44 188.54000000000002L 569.75 187.748L 572.06 193.256L 574.37 186.596L 576.68 185.42000000000002L 578.99 186.872L 581.3 185.372L 583.61 192.824L 585.92 188.552L 588.23 189.32L 590.54 186.632L 592.85 185.768L 595.16 188.744L 597.47 187.34L 599.78 192.488L 602.09 187.028L 604.4 185.468L 606.71 181.928L 609.02 183.8L 611.33 180.296L 613.64 185.516L 615.95 194L 618.26 190.328L 620.57 186.584L 622.88 168.32L 625.19 117.5L 627.5 189.10399999999998L 629.81 187.844L 632.12 190.28L 634.43 192.32L 636.74 189.2L 639.05 182.288L 641.36 188.49200000000002L 643.67 178.916L 645.98 53.432000000000016L 648.29 162.656L 650.6 184.52L 652.91 182.708L 655.22 183.68L 657.53 184.196L 659.84 179.084L 662.15 190.16L 664.46 180.476L 666.77 160.916L 669.08 121.196L 671.39 151.50799999999998L 673.7 164.132L 676.01 181.184L 678.32 170.49200000000002L 680.63 179.792L 682.94 173.204L 685.25 178.352L 687.56 182.792L 689.87 177.152L 692.18 184.232L 694.49 187.796L 696.8 188.348L 699.11 184.736L 701.42 181.892L 703.73 181.796L 706.04 179.36L 708.35 168.176L 710.66 181.808L 712.97 185.372L 715.28 167.708L 717.59 140.6L 719.9 160.784L 722.21 151.664L 724.52 145.952L 726.83 155.288L 729.14 153.68L 731.45 163.04L 733.76 172.064L 736.07 148.952L 738.38 171.812L 740.69 172.46L 743 172.508L 745.31 183.644L 747.62 166.304L 749.93 159.26L 752.24 172.652L 754.55 165.5L 756.86 154.892L 759.17 173.888L 761.48 176.3L 763.79 186.5L 766.1 183.932L 768.41 183.10399999999998L 770.72 150.128L 773.03 183.11599999999999L 775.34 186.152L 777.65 185.096L 779.96 182.276L 782.27 182.18L 784.58 182.144L 786.89 174.956L 789.2 181.988L 791.51 179.504L 793.82 184.784L 796.13 179L 798.44 175.868L 800.75 177.14L 803.06 178.832L 805.37 182.216L 807.68 176.444L 809.99 182.576L 812.3 177.02L 814.61 178.58L 816.92 182.144L 819.23 179.48L 821.54 176.972L 823.85 186.164L 826.16 176.096L 828.47 178.04L 830.78 152.996L 833.09 130.724L 835.4 149.888L 837.71 149.48L 840.02 184.1L 842.33 184.484L 844.64 177.56L 846.95 139.952L 849.26 148.028L 851.57 162.428L 853.88 136.244L 856.19 132.128L 858.5 142.508L 860.81 143.252L 863.12 125.732L 865.43 117.06800000000001L 867.74 164.264L 870.05 161.876L 872.36 158.636L 874.67 176.40800000000002L 876.98 186.632L 879.29 187.352L 881.6 186.152L 883.91 174.932L 886.22 178.388L 888.53 194.636L 890.84 184.748L 893.15 182.84L 895.46 173.78L 897.77 177.56L 900.08 179.996L 902.39 183.188L 904.7 153.68L 907.01 147.548L 909.32 185.504L 911.63 190.724L 913.94 174.752L 916.25 174.32L 918.56 183.692L 920.87 189.06799999999998L 923.18 186.88400000000001L 925.49 179.096L 927.8 175.808L 930.11 161.672L 932.42 160.424L 934.73 165.632L 937.04 179.336L 939.35 183.272L 941.66 191.024L 943.97 195.14L 946.28 182.684L 948.59 162.416L 950.9 169.712L 953.21 168.536L 955.52 179.024L 957.83 170.768L 960.14 161.9L 962.45 170.012L 964.76 180.656L 967.07 178.796L 969.38 164.648L 971.69 152.95999999999998L 974 198.392" stroke-width="2.0" fill="none" />
    
        
        
        <text x="45.0" font-family="-apple-system, system-ui, BlinkMacSystemFont, Roboto" y="50.0" dominant-baseline="middle" text-anchor="end" font-size="12" fill="#24292f">13000.0</text>
        
            
            <path stroke="#74838f" stroke-dasharray="10 6" stroke-width="0.5"  d="M 50.0 50.0 L 974.0 50.0" />
        
    
        
        
        <text x="45.0" font-family="-apple-system, system-ui, BlinkMacSystemFont, Roboto" y="81.2" dominant-baseline="middle" text-anchor="end" font-size="12" fill="#24292f">10400.0</text>
        
            
            
            <path stroke="#74838f" stroke-dasharray="10 6" stroke-width="0.5"  d="M 50.0 81.2 L 974.0 81.2" />
        
    
        
        
        <text x="45.0" font-family="-apple-system, system-ui, BlinkMacSystemFont, Roboto" y="112.4" dominant-baseline="middle" text-anchor="end" font-size="12" fill="#24292f">7800.0</text>
        
            
            
            <path stroke="#74838f" stroke-dasharray="10 6" stroke-width="0.5"  d="M 50.0 112.4 L 974.0 112.4" />
        
    
        
        
        <text x="45.0" font-family="-apple-system, system-ui, BlinkMacSystemFont, Roboto" y="143.6" dominant-baseline="middle" text-anchor="end" font-size="12" fill="#24292f">5200.0</text>
        
            
            
            <path stroke="#74838f" stroke-dasharray="10 6" stroke-width="0.5"  d="M 50.0 143.6 L 974.0 143.6" />
        
    
        
        
        <text x="45.0" font-family="-apple-system, system-ui, BlinkMacSystemFont, Roboto" y="174.8" dominant-baseline="middle" text-anchor="end" font-size="12" fill="#24292f">2600.0</text>
        
            
            
            <path stroke="#74838f" stroke-dasharray="10 6" stroke-width="0.5"  d="M 50.0 174.8 L 974.0 174.8" />
        
    
        
        
        <text x="45.0" font-family="-apple-system, system-ui, BlinkMacSystemFont, Roboto" y="206.0" dominant-baseline="middle" text-anchor="end" font-size="12" fill="#24292f">0.0</text>
        
    
    
        
        <path stroke="#74838f"  stroke-width="2.0"  d="M 86.96000000000001 206.0 L 86.96000000000001 214.0" />
        <text x="86.96000000000001" font-family="-apple-system, system-ui, BlinkMacSystemFont, Roboto" y="216.0" dominant-baseline="hanging" text-anchor="middle" font-size="12" fill="#24292f">Mar 2022</text>
    
        
        <path stroke="#74838f"  stroke-width="2.0"  d="M 158.57 206.0 L 158.57 214.0" />
        <text x="158.57" font-family="-apple-system, system-ui, BlinkMacSystemFont, Roboto" y="216.0" dominant-baseline="hanging" text-anchor="middle" font-size="12" fill="#24292f">Apr 2022</text>
    
        
        <path stroke="#74838f"  stroke-width="2.0"  d="M 227.87 206.0 L 227.87 214.0" />
        <text x="227.87" font-family="-apple-system, system-ui, BlinkMacSystemFont, Roboto" y="216.0" dominant-baseline="hanging" text-anchor="middle" font-size="12" fill="#24292f">May 2022</text>
    
        
        <path stroke="#74838f"  stroke-width="2.0"  d="M 299.48 206.0 L 299.48 214.0" />
        <text x="299.48" font-family="-apple-system, system-ui, BlinkMacSystemFont, Roboto" y="216.0" dominant-baseline="hanging" text-anchor="middle" font-size="12" fill="#24292f">Jun 2022</text>
    
        
        <path stroke="#74838f"  stroke-width="2.0"  d="M 368.78 206.0 L 368.78 214.0" />
        <text x="368.78" font-family="-apple-system, system-ui, BlinkMacSystemFont, Roboto" y="216.0" dominant-baseline="hanging" text-anchor="middle" font-size="12" fill="#24292f">Jul 2022</text>
    
        
        <path stroke="#74838f"  stroke-width="2.0"  d="M 440.39 206.0 L 440.39 214.0" />
        <text x="440.39" font-family="-apple-system, system-ui, BlinkMacSystemFont, Roboto" y="216.0" dominant-baseline="hanging" text-anchor="middle" font-size="12" fill="#24292f">Aug 2022</text>
    
        
        <path stroke="#74838f"  stroke-width="2.0"  d="M 512.0 206.0 L 512.0 214.0" />
        <text x="512.0" font-family="-apple-system, system-ui, BlinkMacSystemFont, Roboto" y="216.0" dominant-baseline="hanging" text-anchor="middle" font-size="12" fill="#24292f">Sep 2022</text>
    
        
        <path stroke="#74838f"  stroke-width="2.0"  d="M 581.3 206.0 L 581.3 214.0" />
        <text x="581.3" font-family="-apple-system, system-ui, BlinkMacSystemFont, Roboto" y="216.0" dominant-baseline="hanging" text-anchor="middle" font-size="12" fill="#24292f">Oct 2022</text>
    
        
        <path stroke="#74838f"  stroke-width="2.0"  d="M 652.91 206.0 L 652.91 214.0" />
        <text x="652.91" font-family="-apple-system, system-ui, BlinkMacSystemFont, Roboto" y="216.0" dominant-baseline="hanging" text-anchor="middle" font-size="12" fill="#24292f">Nov 2022</text>
    
        
        <path stroke="#74838f"  stroke-width="2.0"  d="M 722.21 206.0 L 722.21 214.0" />
        <text x="722.21" font-family="-apple-system, system-ui, BlinkMacSystemFont, Roboto" y="216.0" dominant-baseline="hanging" text-anchor="middle" font-size="12" fill="#24292f">Dec 2022</text>
    
        
        <path stroke="#74838f"  stroke-width="2.0"  d="M 793.82 206.0 L 793.82 214.0" />
        <text x="793.82" font-family="-apple-system, system-ui, BlinkMacSystemFont, Roboto" y="216.0" dominant-baseline="hanging" text-anchor="middle" font-size="12" fill="#24292f">Jan 2023</text>
    
        
        <path stroke="#74838f"  stroke-width="2.0"  d="M 865.43 206.0 L 865.43 214.0" />
        <text x="865.43" font-family="-apple-system, system-ui, BlinkMacSystemFont, Roboto" y="216.0" dominant-baseline="hanging" text-anchor="middle" font-size="12" fill="#24292f">Feb 2023</text>
    
        
        <path stroke="#74838f"  stroke-width="2.0"  d="M 930.11 206.0 L 930.11 214.0" />
        <text x="930.11" font-family="-apple-system, system-ui, BlinkMacSystemFont, Roboto" y="216.0" dominant-baseline="hanging" text-anchor="middle" font-size="12" fill="#24292f">Mar 2023</text>
    
    <path stroke="#74838f"   stroke-linejoin="round" stroke-width="2.0" d="M 50.0 216.0 L 50.0 206.0 L 974.0 206.0 L 974.0 216.0"  fill="none" />
    <text x="512.0" y="25.0" font-family="-apple-system, system-ui, BlinkMacSystemFont, Roboto" dominant-baseline="middle" text-anchor="middle" font-size="18" fill="#24292f">Total daily suspensions</text>
</svg>
