<?xml version="1.0" standalone="no"?>
<svg width="1024.0" height="256.0"  viewBox="0 0 1024.0 256.0" preserveAspectRatio="xMidYMid meet" xmlns="http://www.w3.org/2000/svg">
    <path stroke="#e74c3c" stroke-linejoin="round" d="M 50.0 161.108 L 50 161.108L 52.28148148148148 193.664L 54.56296296296296 197.576L 56.84444444444445 197.924L 59.12592592592593 203.528L 61.407407407407405 199.94L 63.68888888888889 199.268L 65.97037037037038 191.108L 68.25185185185185 200.972L 70.53333333333333 198.62L 72.81481481481481 200L 75.09629629629629 202.57999999999998L 77.37777777777778 199.208L 79.65925925925926 195.608L 81.94074074074074 202.652L 84.22222222222223 198.716L 86.5037037037037 197.49200000000002L 88.78518518518518 191.42000000000002L 91.06666666666666 196.688L 93.34814814814814 199.46L 95.62962962962962 199.328L 97.91111111111111 198.308L 100.19259259259259 198.164L 102.47407407407408 199.832L 104.75555555555556 194.876L 107.03703703703704 199.904L 109.31851851851852 195.584L 111.6 200.732L 113.88148148148147 198.416L 116.16296296296296 190.652L 118.44444444444444 196.112L 120.72592592592594 190.82L 123.0074074074074 193.53199999999998L 125.28888888888889 199.688L 127.57037037037037 192.392L 129.85185185185185 197L 132.13333333333333 199.59199999999998L 134.4148148148148 193.54399999999998L 136.69629629629628 195.26L 138.97777777777776 195.428L 141.25925925925924 195.548L 143.54074074074074 196.484L 145.82222222222222 199.424L 148.10370370370373 199.22L 150.38518518518518 195.656L 152.66666666666666 193.952L 154.94814814814816 195.536L 157.22962962962964 198.764L 159.51111111111112 195.428L 161.7925925925926 194L 164.07407407407408 193.688L 166.35555555555555 186.32L 168.63703703703703 197.372L 170.9185185185185 195.96800000000002L 173.2 198.284L 175.48148148148147 194.38400000000001L 177.76296296296294 196.424L 180.04444444444445 196.988L 182.32592592592593 198.368L 184.6074074074074 198.05599999999998L 186.88888888888889 199.61599999999999L 189.1703703703704 191.54L 191.45185185185187 202.124L 193.73333333333335 193.34L 196.0148148148148 204.2L 198.29629629629628 206L 200.57777777777778 206L 202.85925925925926 206L 205.14074074074074 206L 207.42222222222222 190.472L 209.7037037037037 159.01999999999998L 211.9851851851852 193.56799999999998L 214.26666666666668 200.228L 216.54814814814816 193.232L 218.82962962962964 196.82L 221.11111111111111 199.772L 223.3925925925926 186.548L 225.67407407407407 197.888L 227.95555555555555 195.596L 230.23703703703703 190.508L 232.5185185185185 194.876L 234.8 190.4L 237.0814814814815 188.756L 239.36296296296297 197.852L 241.64444444444445 199.772L 243.92592592592592 191.936L 246.20740740740743 191.864L 248.48888888888888 199.316L 250.77037037037036 194.72L 253.05185185185184 192.608L 255.33333333333331 194.9L 257.61481481481485 199.7L 259.8962962962963 189.224L 262.1777777777778 198.428L 264.4592592592593 196.136L 266.74074074074076 195.296L 269.02222222222224 196.268L 271.3037037037037 193.184L 273.5851851851852 197.204L 275.8666666666667 193.856L 278.14814814814815 197.096L 280.42962962962963 178.16L 282.7111111111111 194.372L 284.9925925925926 195.92000000000002L 287.27407407407406 195.11599999999999L 289.55555555555554 196.688L 291.837037037037 197.49200000000002L 294.1185185185185 197.696L 296.4 186.848L 298.6814814814815 192.644L 300.96296296296293 199.61599999999999L 303.2444444444444 193.052L 305.5259259259259 191.072L 307.8074074074074 195.44L 310.0888888888889 196.184L 312.3703703703704 196.46L 314.65185185185186 197.312L 316.9333333333333 193.076L 319.2148148148148 206L 321.4962962962963 186.44L 323.77777777777777 186.632L 326.05925925925925 191.276L 328.3407407407408 180.93200000000002L 330.6222222222222 201.704L 332.90370370370374 185.744L 335.18518518518516 196.028L 337.4666666666667 189.464L 339.7481481481482 194.228L 342.0296296296296 195.632L 344.31111111111113 196.844L 346.59259259259255 186.332L 348.8740740740741 197.99599999999998L 351.15555555555557 188.924L 353.43703703703704 189.128L 355.7185185185185 196.748L 358 182.45600000000002L 360.2814814814815 184.16L 362.562962962963 206L 364.84444444444443 206L 367.1259259259259 206L 369.4074074074074 160.16L 371.68888888888887 198.536L 373.9703703703704 196.60399999999998L 376.2518518518518 195.668L 378.53333333333336 192.8L 380.8148148148148 196.964L 383.0962962962963 197.828L 385.3777777777778 200.84L 387.6592592592593 170.312L 389.94074074074075 189.236L 392.22222222222223 177.428L 394.5037037037037 191.564L 396.7851851851852 178.784L 399.06666666666666 176.372L 401.34814814814814 181.7L 403.6296296296296 187.472L 405.9111111111111 192.88400000000001L 408.19259259259263 189.38L 410.47407407407405 187.772L 412.7555555555556 189.404L 415.037037037037 187.532L 417.31851851851854 193.59199999999998L 419.6 185.036L 421.88148148148144 171.332L 424.162962962963 180.14L 426.4444444444444 172.316L 428.72592592592594 193.028L 431.0074074074074 191.996L 433.2888888888889 193.052L 435.57037037037037 194.84L 437.85185185185185 193.53199999999998L 440.1333333333333 194.024L 442.41481481481486 189.272L 444.6962962962963 195.188L 446.97777777777776 196.256L 449.25925925925924 192.62L 451.5407407407407 190.844L 453.82222222222225 200.984L 456.1037037037037 184.796L 458.3851851851852 190.88L 460.66666666666663 194.42000000000002L 462.94814814814816 189.86L 465.22962962962964 195.86L 467.5111111111111 191.984L 469.7925925925926 193.1L 472.0740740740741 186.464L 474.35555555555555 190.46L 476.63703703703703 182.156L 478.9185185185185 187.136L 481.2 191.528L 483.48148148148147 184.1L 485.76296296296294 189.14L 488.0444444444445 185.204L 490.3259259259259 185.468L 492.60740740740744 176.816L 494.88888888888886 189.04399999999998L 497.1703703703704 191.048L 499.45185185185187 188.756L 501.7333333333333 187.592L 504.0148148148148 191.39600000000002L 506.29629629629625 187.796L 508.5777777777778 188.228L 510.85925925925926 190.268L 513.1407407407407 194.372L 515.4222222222222 194.72L 517.7037037037037 201.308L 519.9851851851852 192.752L 522.2666666666667 181.148L 524.5481481481481 181.748L 526.8296296296296 181.208L 529.1111111111111 191.3L 531.3925925925926 186.88400000000001L 533.674074074074 181.376L 535.9555555555555 186.5L 538.237037037037 188.44400000000002L 540.5185185185185 179.66L 542.8 183.09199999999998L 545.0814814814814 173.564L 547.362962962963 183.836L 549.6444444444444 171.668L 551.9259259259259 148.148L 554.2074074074075 178.004L 556.4888888888888 141.86L 558.7703703703703 186.128L 561.0518518518518 188.54000000000002L 563.3333333333334 187.748L 565.6148148148148 193.256L 567.8962962962962 186.596L 570.1777777777778 185.42000000000002L 572.4592592592593 186.872L 574.7407407407408 185.372L 577.0222222222222 192.824L 579.3037037037037 188.552L 581.5851851851852 189.32L 583.8666666666666 186.632L 586.1481481481482 185.768L 588.4296296296296 188.744L 590.7111111111111 187.34L 592.9925925925926 192.488L 595.2740740740741 187.028L 597.5555555555555 185.468L 599.8370370370371 181.928L 602.1185185185185 183.8L 604.4 180.296L 606.6814814814816 185.516L 608.9629629629629 194L 611.2444444444444 190.328L 613.5259259259259 186.584L 615.8074074074075 168.32L 618.0888888888888 117.5L 620.3703703703703 189.10399999999998L 622.6518518518519 187.844L 624.9333333333334 190.28L 627.2148148148148 192.32L 629.4962962962964 189.2L 631.7777777777778 182.288L 634.0592592592592 188.49200000000002L 636.3407407407407 178.916L 638.6222222222223 53.432000000000016L 640.9037037037037 162.656L 643.1851851851851 184.52L 645.4666666666667 182.708L 647.7481481481482 183.68L 650.0296296296297 184.196L 652.3111111111111 179.084L 654.5925925925926 190.16L 656.8740740740741 180.476L 659.1555555555556 160.916L 661.437037037037 121.196L 663.7185185185185 151.50799999999998L 666 164.132L 668.2814814814815 181.184L 670.562962962963 170.49200000000002L 672.8444444444444 179.792L 675.125925925926 173.204L 677.4074074074074 178.352L 679.6888888888889 182.792L 681.9703703703703 177.152L 684.2518518518518 184.232L 686.5333333333333 187.796L 688.8148148148148 188.348L 691.0962962962964 184.736L 693.3777777777777 181.892L 695.6592592592592 181.796L 697.9407407407408 179.36L 700.2222222222223 168.176L 702.5037037037036 181.808L 704.7851851851851 185.372L 707.0666666666667 167.708L 709.3481481481482 140.6L 711.6296296296296 160.784L 713.9111111111112 151.664L 716.1925925925926 145.952L 718.474074074074 155.288L 720.7555555555556 153.68L 723.0370370370371 163.04L 725.3185185185185 172.064L 727.5999999999999 148.952L 729.8814814814815 171.812L 732.162962962963 172.46L 734.4444444444445 172.508L 736.7259259259259 183.644L 739.0074074074074 166.304L 741.2888888888889 159.26L 743.5703703703704 172.652L 745.8518518518518 165.5L 748.1333333333333 154.892L 750.4148148148148 173.888L 752.6962962962963 176.3L 754.9777777777778 186.5L 757.2592592592592 183.932L 759.5407407407408 183.10399999999998L 761.8222222222222 150.128L 764.1037037037037 183.11599999999999L 766.3851851851853 186.152L 768.6666666666666 185.096L 770.9481481481481 182.276L 773.2296296296296 182.18L 775.5111111111112 182.144L 777.7925925925925 174.956L 780.074074074074 181.988L 782.3555555555556 179.504L 784.6370370370371 184.784L 786.9185185185185 179L 789.2 175.868L 791.4814814814815 177.14L 793.7629629629629 178.832L 796.0444444444445 182.216L 798.325925925926 176.444L 800.6074074074074 182.576L 802.8888888888888 177.02L 805.1703703703704 178.58L 807.4518518518519 182.144L 809.7333333333333 179.48L 812.0148148148148 176.972L 814.2962962962963 186.164L 816.5777777777778 176.096L 818.8592592592593 178.04L 821.1407407407407 152.996L 823.4222222222222 130.724L 825.7037037037037 149.888L 827.9851851851852 149.48L 830.2666666666667 184.1L 832.5481481481481 184.484L 834.8296296296297 177.56L 837.1111111111111 139.952L 839.3925925925926 148.028L 841.6740740740742 162.428L 843.9555555555555 136.244L 846.237037037037 132.128L 848.5185185185185 142.508L 850.8000000000001 143.252L 853.0814814814814 125.732L 855.3629629629629 117.06800000000001L 857.6444444444445 164.264L 859.925925925926 161.876L 862.2074074074073 158.636L 864.4888888888889 176.40800000000002L 866.7703703703704 186.632L 869.0518518518519 187.352L 871.3333333333333 186.152L 873.6148148148148 174.932L 875.8962962962963 178.388L 878.1777777777777 194.636L 880.4592592592593 184.748L 882.7407407407408 182.84L 885.0222222222222 173.78L 887.3037037037037 177.56L 889.5851851851852 179.996L 891.8666666666667 183.188L 894.1481481481482 153.68L 896.4296296296296 147.548L 898.7111111111111 185.504L 900.9925925925926 190.724L 903.2740740740741 174.752L 905.5555555555555 174.32L 907.837037037037 183.692L 910.1185185185186 189.06799999999998L 912.4 186.88400000000001L 914.6814814814815 179.096L 916.9629629629629 175.808L 919.2444444444444 161.672L 921.5259259259259 160.424L 923.8074074074074 165.632L 926.088888888889 179.336L 928.3703703703703 183.272L 930.6518518518518 191.024L 932.9333333333334 195.14L 935.2148148148149 182.684L 937.4962962962962 162.416L 939.7777777777777 169.712L 942.0592592592593 168.536L 944.3407407407408 179.024L 946.6222222222221 170.768L 948.9037037037037 161.9L 951.1851851851852 170.012L 953.4666666666666 180.656L 955.7481481481482 178.796L 958.0296296296297 164.648L 960.3111111111111 152.95999999999998L 962.5925925925925 156.62L 964.8740740740741 154.568L 967.1555555555556 142.088L 969.437037037037 156.704L 971.7185185185185 176.924L 974 161.024" stroke-width="2.0" fill="none" />
    
        
        
        <text x="45.0" font-family="-apple-system, system-ui, BlinkMacSystemFont, Roboto" y="50.0" dominant-baseline="middle" text-anchor="end" font-size="12" fill="#24292f">13000.0</text>
        
            
            <path stroke="#74838f" stroke-dasharray="10 6" stroke-width="0.5"  d="M 50.0 50.0 L 974.0 50.0" />
        
    
        
        
        <text x="45.0" font-family="-apple-system, system-ui, BlinkMacSystemFont, Roboto" y="81.2" dominant-baseline="middle" text-anchor="end" font-size="12" fill="#24292f">10400.0</text>
        
            
            
            <path stroke="#74838f" stroke-dasharray="10 6" stroke-width="0.5"  d="M 50.0 81.2 L 974.0 81.2" />
        
    
        
        
        <text x="45.0" font-family="-apple-system, system-ui, BlinkMacSystemFont, Roboto" y="112.4" dominant-baseline="middle" text-anchor="end" font-size="12" fill="#24292f">7800.0</text>
        
            
            
            <path stroke="#74838f" stroke-dasharray="10 6" stroke-width="0.5"  d="M 50.0 112.4 L 974.0 112.4" />
        
    
        
        
        <text x="45.0" font-family="-apple-system, system-ui, BlinkMacSystemFont, Roboto" y="143.6" dominant-baseline="middle" text-anchor="end" font-size="12" fill="#24292f">5200.0</text>
        
            
            
            <path stroke="#74838f" stroke-dasharray="10 6" stroke-width="0.5"  d="M 50.0 143.6 L 974.0 143.6" />
        
    
        
        
        <text x="45.0" font-family="-apple-system, system-ui, BlinkMacSystemFont, Roboto" y="174.8" dominant-baseline="middle" text-anchor="end" font-size="12" fill="#24292f">2600.0</text>
        
            
            
            <path stroke="#74838f" stroke-dasharray="10 6" stroke-width="0.5"  d="M 50.0 174.8 L 974.0 174.8" />
        
    
        
        
        <text x="45.0" font-family="-apple-system, system-ui, BlinkMacSystemFont, Roboto" y="206.0" dominant-baseline="middle" text-anchor="end" font-size="12" fill="#24292f">0.0</text>
        
    
    
        
        <path stroke="#74838f"  stroke-width="2.0"  d="M 86.5037037037037 206.0 L 86.5037037037037 214.0" />
        <text x="86.5037037037037" font-family="-apple-system, system-ui, BlinkMacSystemFont, Roboto" y="216.0" dominant-baseline="hanging" text-anchor="middle" font-size="12" fill="#24292f">Mar 2022</text>
    
        
        <path stroke="#74838f"  stroke-width="2.0"  d="M 157.22962962962964 206.0 L 157.22962962962964 214.0" />
        <text x="157.22962962962964" font-family="-apple-system, system-ui, BlinkMacSystemFont, Roboto" y="216.0" dominant-baseline="hanging" text-anchor="middle" font-size="12" fill="#24292f">Apr 2022</text>
    
        
        <path stroke="#74838f"  stroke-width="2.0"  d="M 225.67407407407407 206.0 L 225.67407407407407 214.0" />
        <text x="225.67407407407407" font-family="-apple-system, system-ui, BlinkMacSystemFont, Roboto" y="216.0" dominant-baseline="hanging" text-anchor="middle" font-size="12" fill="#24292f">May 2022</text>
    
        
        <path stroke="#74838f"  stroke-width="2.0"  d="M 296.4 206.0 L 296.4 214.0" />
        <text x="296.4" font-family="-apple-system, system-ui, BlinkMacSystemFont, Roboto" y="216.0" dominant-baseline="hanging" text-anchor="middle" font-size="12" fill="#24292f">Jun 2022</text>
    
        
        <path stroke="#74838f"  stroke-width="2.0"  d="M 364.84444444444443 206.0 L 364.84444444444443 214.0" />
        <text x="364.84444444444443" font-family="-apple-system, system-ui, BlinkMacSystemFont, Roboto" y="216.0" dominant-baseline="hanging" text-anchor="middle" font-size="12" fill="#24292f">Jul 2022</text>
    
        
        <path stroke="#74838f"  stroke-width="2.0"  d="M 435.57037037037037 206.0 L 435.57037037037037 214.0" />
        <text x="435.57037037037037" font-family="-apple-system, system-ui, BlinkMacSystemFont, Roboto" y="216.0" dominant-baseline="hanging" text-anchor="middle" font-size="12" fill="#24292f">Aug 2022</text>
    
        
        <path stroke="#74838f"  stroke-width="2.0"  d="M 506.29629629629625 206.0 L 506.29629629629625 214.0" />
        <text x="506.29629629629625" font-family="-apple-system, system-ui, BlinkMacSystemFont, Roboto" y="216.0" dominant-baseline="hanging" text-anchor="middle" font-size="12" fill="#24292f">Sep 2022</text>
    
        
        <path stroke="#74838f"  stroke-width="2.0"  d="M 574.7407407407408 206.0 L 574.7407407407408 214.0" />
        <text x="574.7407407407408" font-family="-apple-system, system-ui, BlinkMacSystemFont, Roboto" y="216.0" dominant-baseline="hanging" text-anchor="middle" font-size="12" fill="#24292f">Oct 2022</text>
    
        
        <path stroke="#74838f"  stroke-width="2.0"  d="M 645.4666666666667 206.0 L 645.4666666666667 214.0" />
        <text x="645.4666666666667" font-family="-apple-system, system-ui, BlinkMacSystemFont, Roboto" y="216.0" dominant-baseline="hanging" text-anchor="middle" font-size="12" fill="#24292f">Nov 2022</text>
    
        
        <path stroke="#74838f"  stroke-width="2.0"  d="M 713.9111111111112 206.0 L 713.9111111111112 214.0" />
        <text x="713.9111111111112" font-family="-apple-system, system-ui, BlinkMacSystemFont, Roboto" y="216.0" dominant-baseline="hanging" text-anchor="middle" font-size="12" fill="#24292f">Dec 2022</text>
    
        
        <path stroke="#74838f"  stroke-width="2.0"  d="M 784.6370370370371 206.0 L 784.6370370370371 214.0" />
        <text x="784.6370370370371" font-family="-apple-system, system-ui, BlinkMacSystemFont, Roboto" y="216.0" dominant-baseline="hanging" text-anchor="middle" font-size="12" fill="#24292f">Jan 2023</text>
    
        
        <path stroke="#74838f"  stroke-width="2.0"  d="M 855.3629629629629 206.0 L 855.3629629629629 214.0" />
        <text x="855.3629629629629" font-family="-apple-system, system-ui, BlinkMacSystemFont, Roboto" y="216.0" dominant-baseline="hanging" text-anchor="middle" font-size="12" fill="#24292f">Feb 2023</text>
    
        
        <path stroke="#74838f"  stroke-width="2.0"  d="M 919.2444444444444 206.0 L 919.2444444444444 214.0" />
        <text x="919.2444444444444" font-family="-apple-system, system-ui, BlinkMacSystemFont, Roboto" y="216.0" dominant-baseline="hanging" text-anchor="middle" font-size="12" fill="#24292f">Mar 2023</text>
    
    <path stroke="#74838f"   stroke-linejoin="round" stroke-width="2.0" d="M 50.0 216.0 L 50.0 206.0 L 974.0 206.0 L 974.0 216.0"  fill="none" />
    <text x="512.0" y="25.0" font-family="-apple-system, system-ui, BlinkMacSystemFont, Roboto" dominant-baseline="middle" text-anchor="middle" font-size="18" fill="#24292f">Total daily suspensions</text>
</svg>
