<?xml version="1.0" standalone="no"?>
<svg width="1024.0" height="256.0"  viewBox="0 0 1024.0 256.0" preserveAspectRatio="xMidYMid meet" xmlns="http://www.w3.org/2000/svg">
    <path stroke="#e74c3c" stroke-linejoin="round" d="M 50.0 161.108 L 50 161.108L 52.490566037735846 193.664L 54.9811320754717 197.576L 57.471698113207545 197.924L 59.9622641509434 203.528L 62.45283018867924 199.94L 64.94339622641509 199.268L 67.43396226415095 191.108L 69.9245283018868 200.972L 72.41509433962264 198.62L 74.90566037735849 200L 77.39622641509433 202.57999999999998L 79.88679245283019 199.208L 82.37735849056604 195.608L 84.86792452830188 202.652L 87.35849056603773 198.716L 89.84905660377359 197.49200000000002L 92.33962264150944 191.42000000000002L 94.83018867924528 196.688L 97.32075471698113 199.46L 99.81132075471697 199.328L 102.30188679245283 198.308L 104.79245283018868 198.164L 107.28301886792453 199.832L 109.77358490566039 194.876L 112.26415094339623 199.904L 114.75471698113208 195.584L 117.24528301886792 200.732L 119.73584905660377 198.416L 122.22641509433963 190.652L 124.71698113207546 196.112L 127.20754716981132 190.82L 129.69811320754718 193.53199999999998L 132.18867924528303 199.688L 134.67924528301887 192.392L 137.16981132075472 197L 139.66037735849056 199.59199999999998L 142.1509433962264 193.54399999999998L 144.64150943396226 195.26L 147.1320754716981 195.428L 149.62264150943395 195.548L 152.1132075471698 196.484L 154.60377358490567 199.424L 157.09433962264148 199.22L 159.58490566037736 195.656L 162.0754716981132 193.952L 164.56603773584905 195.536L 167.0566037735849 198.764L 169.54716981132077 195.428L 172.03773584905662 194L 174.52830188679246 193.688L 177.0188679245283 186.32L 179.50943396226415 197.372L 182 195.96800000000002L 184.49056603773585 198.284L 186.9811320754717 194.38400000000001L 189.47169811320754 196.424L 191.9622641509434 196.988L 194.45283018867926 198.368L 196.9433962264151 198.05599999999998L 199.43396226415092 199.61599999999999L 201.9245283018868 191.54L 204.41509433962264 202.124L 206.9056603773585 193.34L 209.39622641509436 204.2L 211.88679245283018 206L 214.37735849056602 206L 216.8679245283019 206L 219.35849056603774 206L 221.8490566037736 190.472L 224.33962264150944 159.01999999999998L 226.83018867924528 193.56799999999998L 229.32075471698113 200.228L 231.81132075471697 193.232L 234.30188679245285 196.82L 236.79245283018867 199.772L 239.2830188679245 186.548L 241.77358490566039 197.888L 244.26415094339623 195.596L 246.75471698113208 190.508L 249.24528301886792 194.876L 251.73584905660377 190.4L 254.22641509433961 188.756L 256.7169811320755 197.852L 259.20754716981133 199.772L 261.6981132075472 191.936L 264.18867924528297 191.864L 266.6792452830189 199.316L 269.1698113207547 194.72L 271.66037735849056 192.608L 274.1509433962264 194.9L 276.64150943396226 199.7L 279.1320754716981 189.224L 281.62264150943395 198.428L 284.1132075471698 196.136L 286.60377358490564 195.296L 289.09433962264154 196.268L 291.58490566037733 193.184L 294.07547169811323 197.204L 296.566037735849 193.856L 299.0566037735849 197.096L 301.54716981132077 178.16L 304.0377358490566 194.372L 306.52830188679246 195.92000000000002L 309.0188679245283 195.11599999999999L 311.50943396226415 196.688L 314 197.49200000000002L 316.49056603773585 197.696L 318.9811320754717 186.848L 321.47169811320754 192.644L 323.9622641509434 199.61599999999999L 326.45283018867923 193.052L 328.9433962264151 191.072L 331.4339622641509 195.44L 333.9245283018868 196.184L 336.41509433962267 196.46L 338.9056603773585 197.312L 341.39622641509436 193.076L 343.8867924528302 206L 346.377358490566 186.44L 348.86792452830184 186.632L 351.35849056603774 191.276L 353.8490566037736 180.93200000000002L 356.33962264150944 201.704L 358.8301886792453 185.744L 361.3207547169811 196.028L 363.811320754717 189.464L 366.3018867924529 194.228L 368.7924528301887 195.632L 371.2830188679245 196.844L 373.77358490566036 186.332L 376.2641509433962 197.99599999999998L 378.75471698113205 188.924L 381.2452830188679 189.128L 383.7358490566038 196.748L 386.22641509433964 182.45600000000002L 388.7169811320755 184.16L 391.20754716981133 206L 393.6981132075472 206L 396.188679245283 206L 398.6792452830189 160.16L 401.1698113207547 198.536L 403.66037735849056 196.60399999999998L 406.1509433962264 195.668L 408.64150943396226 192.8L 411.1320754716981 196.964L 413.62264150943395 197.828L 416.11320754716985 200.84L 418.6037735849057 170.312L 421.09433962264154 189.236L 423.58490566037733 177.428L 426.0754716981132 191.564L 428.566037735849 178.784L 431.0566037735849 176.372L 433.54716981132077 181.7L 436.0377358490566 187.472L 438.52830188679246 192.88400000000001L 441.0188679245283 189.38L 443.50943396226415 187.772L 446 189.404L 448.49056603773585 187.532L 450.9811320754717 193.59199999999998L 453.47169811320754 185.036L 455.9622641509434 171.332L 458.45283018867923 180.14L 460.9433962264151 172.316L 463.433962264151 193.028L 465.9245283018868 191.996L 468.41509433962267 193.052L 470.9056603773585 194.84L 473.39622641509436 193.53199999999998L 475.88679245283015 194.024L 478.377358490566 189.272L 480.8679245283019 195.188L 483.35849056603774 196.256L 485.8490566037736 192.62L 488.33962264150944 190.844L 490.8301886792453 200.984L 493.3207547169811 184.796L 495.81132075471703 190.88L 498.3018867924528 194.42000000000002L 500.79245283018867 189.86L 503.2830188679245 195.86L 505.77358490566036 191.984L 508.2641509433962 193.1L 510.75471698113205 186.464L 513.2452830188679 190.46L 515.7358490566038 182.156L 518.2264150943396 187.136L 520.7169811320755 191.528L 523.2075471698113 184.1L 525.6981132075472 189.14L 528.1886792452831 185.204L 530.6792452830189 185.468L 533.1698113207547 176.816L 535.6603773584905 189.04399999999998L 538.1509433962265 191.048L 540.6415094339623 188.756L 543.132075471698 187.592L 545.6226415094341 191.39600000000002L 548.1132075471698 187.796L 550.6037735849056 188.228L 553.0943396226415 190.268L 555.5849056603773 194.372L 558.0754716981132 194.72L 560.566037735849 201.308L 563.0566037735849 192.752L 565.5471698113207 181.148L 568.0377358490566 181.748L 570.5283018867925 181.208L 573.0188679245283 191.3L 575.5094339622642 186.88400000000001L 578 181.376L 580.4905660377359 186.5L 582.9811320754717 188.44400000000002L 585.4716981132076 179.66L 587.9622641509434 183.09199999999998L 590.4528301886792 173.564L 592.9433962264151 183.836L 595.4339622641509 171.668L 597.9245283018868 148.148L 600.4150943396226 178.004L 602.9056603773585 141.86L 605.3962264150944 186.128L 607.8867924528302 188.54000000000002L 610.377358490566 187.748L 612.8679245283018 193.256L 615.3584905660377 186.596L 617.8490566037736 185.42000000000002L 620.3396226415094 186.872L 622.8301886792453 185.372L 625.3207547169811 192.824L 627.811320754717 188.552L 630.3018867924528 189.32L 632.7924528301887 186.632L 635.2830188679246 185.768L 637.7735849056604 188.744L 640.2641509433962 187.34L 642.754716981132 192.488L 645.2452830188679 187.028L 647.7358490566037 185.468L 650.2264150943396 181.928L 652.7169811320755 183.8L 655.2075471698113 180.296L 657.6981132075472 185.516L 660.188679245283 194L 662.6792452830189 190.328L 665.1698113207547 186.584L 667.6603773584906 168.32L 670.1509433962265 117.5L 672.6415094339623 189.10399999999998L 675.1320754716982 187.844L 677.622641509434 190.28L 680.1132075471698 192.32L 682.6037735849058 189.2L 685.0943396226415 182.288L 687.5849056603774 188.49200000000002L 690.0754716981132 178.916L 692.566037735849 53.432000000000016L 695.0566037735848 162.656L 697.5471698113207 184.52L 700.0377358490566 182.708L 702.5283018867924 183.68L 705.0188679245283 184.196L 707.5094339622641 179.084L 710 190.16L 712.4905660377358 180.476L 714.9811320754717 160.916L 717.4716981132076 121.196L 719.9622641509434 151.50799999999998L 722.4528301886793 164.132L 724.9433962264151 181.184L 727.433962264151 170.49200000000002L 729.9245283018868 179.792L 732.4150943396227 173.204L 734.9056603773586 178.352L 737.3962264150944 182.792L 739.8867924528303 177.152L 742.377358490566 184.232L 744.8679245283018 187.796L 747.3584905660377 188.348L 749.8490566037735 184.736L 752.3396226415094 181.892L 754.8301886792452 181.796L 757.3207547169811 179.36L 759.8113207547169 168.176L 762.3018867924528 181.808L 764.7924528301887 185.372L 767.2830188679245 167.708L 769.7735849056604 140.6L 772.2641509433962 160.784L 774.7547169811321 151.664L 777.2452830188679 145.952L 779.7358490566038 155.288L 782.2264150943397 153.68L 784.7169811320755 163.04L 787.2075471698114 172.064L 789.6981132075472 148.952L 792.1886792452831 171.812L 794.6792452830189 172.46L 797.1698113207547 172.508L 799.6603773584906 183.644L 802.1509433962264 166.304L 804.6415094339623 159.26L 807.132075471698 172.652L 809.622641509434 165.5L 812.1132075471698 154.892L 814.6037735849056 173.888L 817.0943396226415 176.3L 819.5849056603773 186.5L 822.0754716981132 183.932L 824.566037735849 183.10399999999998L 827.0566037735849 150.128L 829.5471698113208 183.11599999999999L 832.0377358490566 186.152L 834.5283018867925 185.096L 837.0188679245283 182.276L 839.5094339622642 182.18L 842 182.144L 844.4905660377359 174.956L 846.9811320754717 181.988L 849.4716981132075 179.504L 851.9622641509434 184.784L 854.4528301886792 179L 856.9433962264151 175.868L 859.4339622641509 177.14L 861.9245283018868 178.832L 864.4150943396227 182.216L 866.9056603773585 176.444L 869.3962264150944 182.576L 871.8867924528302 177.02L 874.377358490566 178.58L 876.867924528302 182.144L 879.3584905660377 179.48L 881.8490566037736 176.972L 884.3396226415094 186.164L 886.8301886792453 176.096L 889.3207547169811 178.04L 891.811320754717 152.996L 894.3018867924529 130.724L 896.7924528301887 149.888L 899.2830188679245 149.48L 901.7735849056603 184.1L 904.2641509433962 184.484L 906.754716981132 177.56L 909.2452830188679 139.952L 911.7358490566038 148.028L 914.2264150943396 162.428L 916.7169811320755 136.244L 919.2075471698113 132.128L 921.6981132075472 142.508L 924.188679245283 143.252L 926.6792452830189 125.732L 929.1698113207548 117.06800000000001L 931.6603773584906 164.264L 934.1509433962265 161.876L 936.6415094339623 158.636L 939.1320754716982 176.40800000000002L 941.6226415094341 186.632L 944.1132075471698 187.352L 946.6037735849056 186.152L 949.0943396226415 174.932L 951.5849056603773 178.388L 954.0754716981131 194.636L 956.566037735849 184.748L 959.0566037735849 182.84L 961.5471698113207 173.78L 964.0377358490566 177.56L 966.5283018867924 179.996L 969.0188679245283 183.188L 971.5094339622641 153.68L 974 185.38400000000001" stroke-width="2.0" fill="none" />
    
        
        
        <text x="45.0" font-family="-apple-system, system-ui, BlinkMacSystemFont, Roboto" y="50.0" dominant-baseline="middle" text-anchor="end" font-size="12" fill="#24292f">13000.0</text>
        
            
            <path stroke="#74838f" stroke-dasharray="10 6" stroke-width="0.5"  d="M 50.0 50.0 L 974.0 50.0" />
        
    
        
        
        <text x="45.0" font-family="-apple-system, system-ui, BlinkMacSystemFont, Roboto" y="81.2" dominant-baseline="middle" text-anchor="end" font-size="12" fill="#24292f">10400.0</text>
        
            
            
            <path stroke="#74838f" stroke-dasharray="10 6" stroke-width="0.5"  d="M 50.0 81.2 L 974.0 81.2" />
        
    
        
        
        <text x="45.0" font-family="-apple-system, system-ui, BlinkMacSystemFont, Roboto" y="112.4" dominant-baseline="middle" text-anchor="end" font-size="12" fill="#24292f">7800.0</text>
        
            
            
            <path stroke="#74838f" stroke-dasharray="10 6" stroke-width="0.5"  d="M 50.0 112.4 L 974.0 112.4" />
        
    
        
        
        <text x="45.0" font-family="-apple-system, system-ui, BlinkMacSystemFont, Roboto" y="143.6" dominant-baseline="middle" text-anchor="end" font-size="12" fill="#24292f">5200.0</text>
        
            
            
            <path stroke="#74838f" stroke-dasharray="10 6" stroke-width="0.5"  d="M 50.0 143.6 L 974.0 143.6" />
        
    
        
        
        <text x="45.0" font-family="-apple-system, system-ui, BlinkMacSystemFont, Roboto" y="174.8" dominant-baseline="middle" text-anchor="end" font-size="12" fill="#24292f">2600.0</text>
        
            
            
            <path stroke="#74838f" stroke-dasharray="10 6" stroke-width="0.5"  d="M 50.0 174.8 L 974.0 174.8" />
        
    
        
        
        <text x="45.0" font-family="-apple-system, system-ui, BlinkMacSystemFont, Roboto" y="206.0" dominant-baseline="middle" text-anchor="end" font-size="12" fill="#24292f">0.0</text>
        
    
    
        
        <path stroke="#74838f"  stroke-width="2.0"  d="M 89.84905660377359 206.0 L 89.84905660377359 214.0" />
        <text x="89.84905660377359" font-family="-apple-system, system-ui, BlinkMacSystemFont, Roboto" y="216.0" dominant-baseline="hanging" text-anchor="middle" font-size="12" fill="#24292f">Mar 2022</text>
    
        
        <path stroke="#74838f"  stroke-width="2.0"  d="M 167.0566037735849 206.0 L 167.0566037735849 214.0" />
        <text x="167.0566037735849" font-family="-apple-system, system-ui, BlinkMacSystemFont, Roboto" y="216.0" dominant-baseline="hanging" text-anchor="middle" font-size="12" fill="#24292f">Apr 2022</text>
    
        
        <path stroke="#74838f"  stroke-width="2.0"  d="M 241.77358490566039 206.0 L 241.77358490566039 214.0" />
        <text x="241.77358490566039" font-family="-apple-system, system-ui, BlinkMacSystemFont, Roboto" y="216.0" dominant-baseline="hanging" text-anchor="middle" font-size="12" fill="#24292f">May 2022</text>
    
        
        <path stroke="#74838f"  stroke-width="2.0"  d="M 318.9811320754717 206.0 L 318.9811320754717 214.0" />
        <text x="318.9811320754717" font-family="-apple-system, system-ui, BlinkMacSystemFont, Roboto" y="216.0" dominant-baseline="hanging" text-anchor="middle" font-size="12" fill="#24292f">Jun 2022</text>
    
        
        <path stroke="#74838f"  stroke-width="2.0"  d="M 393.6981132075472 206.0 L 393.6981132075472 214.0" />
        <text x="393.6981132075472" font-family="-apple-system, system-ui, BlinkMacSystemFont, Roboto" y="216.0" dominant-baseline="hanging" text-anchor="middle" font-size="12" fill="#24292f">Jul 2022</text>
    
        
        <path stroke="#74838f"  stroke-width="2.0"  d="M 470.9056603773585 206.0 L 470.9056603773585 214.0" />
        <text x="470.9056603773585" font-family="-apple-system, system-ui, BlinkMacSystemFont, Roboto" y="216.0" dominant-baseline="hanging" text-anchor="middle" font-size="12" fill="#24292f">Aug 2022</text>
    
        
        <path stroke="#74838f"  stroke-width="2.0"  d="M 548.1132075471698 206.0 L 548.1132075471698 214.0" />
        <text x="548.1132075471698" font-family="-apple-system, system-ui, BlinkMacSystemFont, Roboto" y="216.0" dominant-baseline="hanging" text-anchor="middle" font-size="12" fill="#24292f">Sep 2022</text>
    
        
        <path stroke="#74838f"  stroke-width="2.0"  d="M 622.8301886792453 206.0 L 622.8301886792453 214.0" />
        <text x="622.8301886792453" font-family="-apple-system, system-ui, BlinkMacSystemFont, Roboto" y="216.0" dominant-baseline="hanging" text-anchor="middle" font-size="12" fill="#24292f">Oct 2022</text>
    
        
        <path stroke="#74838f"  stroke-width="2.0"  d="M 700.0377358490566 206.0 L 700.0377358490566 214.0" />
        <text x="700.0377358490566" font-family="-apple-system, system-ui, BlinkMacSystemFont, Roboto" y="216.0" dominant-baseline="hanging" text-anchor="middle" font-size="12" fill="#24292f">Nov 2022</text>
    
        
        <path stroke="#74838f"  stroke-width="2.0"  d="M 774.7547169811321 206.0 L 774.7547169811321 214.0" />
        <text x="774.7547169811321" font-family="-apple-system, system-ui, BlinkMacSystemFont, Roboto" y="216.0" dominant-baseline="hanging" text-anchor="middle" font-size="12" fill="#24292f">Dec 2022</text>
    
        
        <path stroke="#74838f"  stroke-width="2.0"  d="M 851.9622641509434 206.0 L 851.9622641509434 214.0" />
        <text x="851.9622641509434" font-family="-apple-system, system-ui, BlinkMacSystemFont, Roboto" y="216.0" dominant-baseline="hanging" text-anchor="middle" font-size="12" fill="#24292f">Jan 2023</text>
    
        
        <path stroke="#74838f"  stroke-width="2.0"  d="M 929.1698113207548 206.0 L 929.1698113207548 214.0" />
        <text x="929.1698113207548" font-family="-apple-system, system-ui, BlinkMacSystemFont, Roboto" y="216.0" dominant-baseline="hanging" text-anchor="middle" font-size="12" fill="#24292f">Feb 2023</text>
    
    <path stroke="#74838f"   stroke-linejoin="round" stroke-width="2.0" d="M 50.0 216.0 L 50.0 206.0 L 974.0 206.0 L 974.0 216.0"  fill="none" />
    <text x="512.0" y="25.0" font-family="-apple-system, system-ui, BlinkMacSystemFont, Roboto" dominant-baseline="middle" text-anchor="middle" font-size="18" fill="#24292f">Total daily suspensions</text>
</svg>
