<?xml version="1.0" standalone="no"?>
<svg width="1024.0" height="256.0"  viewBox="0 0 1024.0 256.0" preserveAspectRatio="xMidYMid meet" xmlns="http://www.w3.org/2000/svg">
    <path stroke="#e74c3c" stroke-linejoin="round" d="M 50.0 162.77066666666667 L 50 162.77066666666667L 51.987096774193546 194.12088888888889L 53.9741935483871 197.888L 55.961290322580645 198.2231111111111L 57.94838709677419 203.61955555555556L 59.935483870967744 200.16444444444443L 61.92258064516129 199.51733333333334L 63.909677419354836 191.65955555555556L 65.89677419354838 201.1582222222222L 67.88387096774193 198.89333333333332L 69.87096774193549 200.22222222222223L 71.85806451612903 202.70666666666665L 73.84516129032258 199.45955555555554L 75.83225806451613 195.9928888888889L 77.81935483870967 202.776L 79.80645161290323 198.98577777777777L 81.79354838709678 197.8071111111111L 83.78064516129032 191.96L 85.76774193548387 197.0328888888889L 87.75483870967741 199.70222222222222L 89.74193548387098 199.5751111111111L 91.7290322580645 198.5928888888889L 93.71612903225807 198.45422222222223L 95.70322580645161 200.06044444444444L 97.69032258064516 195.288L 99.67741935483872 200.12977777777778L 101.66451612903225 195.96977777777778L 103.65161290322581 200.92711111111112L 105.63870967741936 198.6968888888889L 107.6258064516129 191.22044444444444L 109.61290322580645 196.47822222222223L 111.6 191.38222222222223L 113.58709677419355 193.99377777777778L 115.5741935483871 199.92177777777778L 117.56129032258065 192.89600000000002L 119.54838709677419 197.33333333333334L 121.53548387096774 199.82933333333332L 123.5225806451613 194.00533333333334L 125.50967741935484 195.65777777777777L 127.49677419354839 195.81955555555555L 129.48387096774195 195.9351111111111L 131.47096774193548 196.83644444444445L 133.458064516129 199.66755555555557L 135.44516129032257 199.4711111111111L 137.43225806451613 196.0391111111111L 139.4193548387097 194.39822222222222L 141.40645161290323 195.92355555555554L 143.39354838709676 199.03199999999998L 145.38064516129032 195.81955555555555L 147.36774193548388 194.44444444444446L 149.35483870967744 194.144L 151.34193548387097 187.04888888888888L 153.3290322580645 197.69155555555557L 155.31612903225806 196.33955555555556L 157.30322580645162 198.56977777777777L 159.29032258064518 194.8142222222222L 161.2774193548387 196.77866666666665L 163.26451612903224 197.32177777777778L 165.2516129032258 198.65066666666667L 167.23870967741937 198.35022222222221L 169.2258064516129 199.85244444444444L 171.21290322580646 192.07555555555555L 173.2 202.26755555555556L 175.18709677419355 193.80888888888887L 177.1741935483871 204.26666666666665L 179.16129032258064 206L 181.1483870967742 206L 183.13548387096773 206L 185.1225806451613 206L 187.10967741935482 191.04711111111112L 189.09677419354838 160.76L 191.08387096774192 194.02844444444446L 193.07096774193548 200.4417777777778L 195.05806451612904 193.7048888888889L 197.0451612903226 197.16L 199.03225806451613 200.00266666666667L 201.0193548387097 187.26844444444444L 203.00645161290322 198.18844444444443L 204.99354838709678 195.98133333333334L 206.9806451612903 191.08177777777777L 208.96774193548387 195.288L 210.95483870967743 190.97777777777776L 212.94193548387096 189.39466666666667L 214.92903225806452 198.15377777777778L 216.91612903225806 200.00266666666667L 218.90322580645162 192.4568888888889L 220.89032258064515 192.38755555555556L 222.8774193548387 199.56355555555555L 224.86451612903224 195.13777777777779L 226.85161290322583 193.10399999999998L 228.83870967741936 195.3111111111111L 230.82580645161292 199.93333333333334L 232.81290322580645 189.84533333333331L 234.8 198.70844444444444L 236.78709677419354 196.50133333333332L 238.7741935483871 195.69244444444445L 240.76129032258063 196.62844444444445L 242.7483870967742 193.65866666666668L 244.73548387096776 197.52977777777778L 246.7225806451613 194.3057777777778L 248.70967741935485 197.4257777777778L 250.69677419354838 179.19111111111113L 252.68387096774194 194.80266666666665L 254.67096774193547 196.29333333333335L 256.658064516129 195.5191111111111L 258.64516129032256 197.0328888888889L 260.6322580645161 197.8071111111111L 262.6193548387097 198.00355555555555L 264.60645161290324 187.55733333333333L 266.5935483870968 193.13866666666667L 268.58064516129036 199.85244444444444L 270.56774193548387 193.53155555555554L 272.5548387096774 191.6248888888889L 274.54193548387093 195.8311111111111L 276.5290322580645 196.54755555555556L 278.51612903225805 196.81333333333333L 280.5032258064516 197.63377777777777L 282.49032258064517 193.55466666666666L 284.47741935483873 206L 286.4645161290323 187.16444444444446L 288.4516129032258 187.34933333333333L 290.4387096774193 191.8213333333333L 292.4258064516129 181.86044444444445L 294.4129032258065 201.8631111111111L 296.4 186.49422222222222L 298.38709677419354 196.39733333333334L 300.3741935483871 190.07644444444443L 302.36129032258066 194.664L 304.3483870967742 196.016L 306.3354838709677 197.18311111111112L 308.3225806451613 187.06044444444444L 310.30967741935484 198.29244444444444L 312.2967741935484 189.55644444444445L 314.2838709677419 189.7528888888889L 316.27096774193546 197.09066666666666L 318.258064516129 183.328L 320.2451612903226 184.9688888888889L 322.23225806451615 206L 324.21935483870965 206L 326.20645161290327 206L 328.19354838709677 161.85777777777778L 330.18064516129033 198.81244444444445L 332.16774193548383 196.952L 334.15483870967745 196.05066666666667L 336.14193548387095 193.2888888888889L 338.1290322580645 197.29866666666666L 340.1161290322581 198.13066666666668L 342.1032258064516 201.0311111111111L 344.0903225806452 171.63377777777777L 346.0774193548387 189.85688888888888L 348.06451612903226 178.4862222222222L 350.05161290322576 192.09866666666667L 352.0387096774194 179.792L 354.02580645161294 177.46933333333334L 356.01290322580644 182.6L 358 188.1582222222222L 359.98709677419356 193.36977777777778L 361.9741935483871 189.99555555555554L 363.9612903225806 188.4471111111111L 365.9483870967742 190.01866666666666L 367.93548387096774 188.216L 369.9225806451613 194.05155555555555L 371.90967741935486 185.81244444444445L 373.89677419354837 172.61599999999999L 375.8838709677419 181.09777777777776L 377.8709677419355 173.56355555555555L 379.85806451612905 193.50844444444445L 381.84516129032255 192.51466666666667L 383.8322580645161 193.53155555555554L 385.81935483870967 195.25333333333333L 387.80645161290323 193.99377777777778L 389.7935483870968 194.46755555555555L 391.7806451612903 189.89155555555556L 393.7677419354839 195.58844444444446L 395.7548387096774 196.6168888888889L 397.741935483871 193.11555555555555L 399.7290322580645 191.40533333333332L 401.71612903225804 201.16977777777777L 403.70322580645166 185.58133333333333L 405.69032258064516 191.44L 407.6774193548387 194.8488888888889L 409.6645161290322 190.45777777777778L 411.65161290322584 196.23555555555555L 413.63870967741934 192.5031111111111L 415.6258064516129 193.57777777777778L 417.6129032258064 187.18755555555555L 419.6 191.03555555555556L 421.5870967741936 183.0391111111111L 423.5741935483871 187.83466666666666L 425.56129032258065 192.064L 427.5483870967742 184.9111111111111L 429.53548387096777 189.76444444444445L 431.52258064516127 185.97422222222224L 433.50967741935483 186.22844444444445L 435.4967741935484 177.8968888888889L 437.48387096774195 189.672L 439.4709677419355 191.60177777777778L 441.458064516129 189.39466666666667L 443.4451612903226 188.27377777777778L 445.43225806451613 191.9368888888889L 447.4193548387097 188.47022222222222L 449.4064516129032 188.88622222222222L 451.39354838709676 190.85066666666665L 453.3806451612903 194.80266666666665L 455.3677419354839 195.13777777777779L 457.35483870967744 201.48177777777778L 459.34193548387094 193.24266666666665L 461.32903225806456 182.06844444444445L 463.31612903225806 182.64622222222224L 465.3032258064516 182.12622222222222L 467.2903225806451 191.84444444444443L 469.2774193548387 187.592L 471.2645161290323 182.288L 473.2516129032258 187.22222222222223L 475.23870967741937 189.09422222222221L 477.22580645161287 180.63555555555556L 479.2129032258065 183.94044444444444L 481.2 174.76533333333333L 483.18709677419355 184.6568888888889L 485.17419354838705 172.93955555555556L 487.16129032258067 150.29066666666665L 489.14838709677423 179.0408888888889L 491.13548387096773 144.23555555555555L 493.1225806451613 186.864L 495.10967741935485 189.18666666666667L 497.0967741935484 188.424L 499.0838709677419 193.728L 501.0709677419355 187.31466666666665L 503.05806451612904 186.1822222222222L 505.0451612903226 187.58044444444445L 507.03225806451616 186.136L 509.01935483870966 193.312L 511.0064516129032 189.19822222222223L 512.9935483870968 189.9377777777778L 514.9806451612903 187.34933333333333L 516.9677419354839 186.51733333333334L 518.9548387096775 189.3831111111111L 520.941935483871 188.0311111111111L 522.9290322580646 192.98844444444444L 524.9161290322581 187.73066666666668L 526.9032258064516 186.22844444444445L 528.8903225806453 182.81955555555555L 530.8774193548386 184.6222222222222L 532.8645161290323 181.248L 534.8516129032258 186.27466666666666L 536.8387096774193 194.44444444444446L 538.825806451613 190.90844444444446L 540.8129032258064 187.30311111111112L 542.8 169.71555555555557L 544.7870967741935 120.77777777777779L 546.7741935483871 189.72977777777777L 548.7612903225806 188.51644444444446L 550.7483870967742 190.86222222222221L 552.7354838709678 192.82666666666665L 554.7225806451613 189.82222222222222L 556.7096774193549 183.16622222222222L 558.6967741935484 189.14044444444443L 560.683870967742 179.9191111111111L 562.6709677419354 59.082666666666654L 564.658064516129 164.26133333333334L 566.6451612903226 185.31555555555556L 568.6322580645161 183.57066666666668L 570.6193548387097 184.50666666666666L 572.6064516129032 185.00355555555555L 574.5935483870968 180.0808888888889L 576.5806451612904 190.74666666666667L 578.5677419354838 181.42133333333334L 580.5548387096775 162.58577777777776L 582.5419354838709 124.3368888888889L 584.5290322580645 153.52622222222223L 586.516129032258 165.68266666666668L 588.5032258064516 182.1031111111111L 590.4903225806452 171.8071111111111L 592.4774193548386 180.76266666666666L 594.4645161290323 174.41866666666667L 596.4516129032259 179.376L 598.4387096774193 183.65155555555555L 600.4258064516129 178.22044444444444L 602.4129032258065 185.03822222222223L 604.4 188.47022222222222L 606.3870967741935 189.00177777777776L 608.3741935483871 185.52355555555556L 610.3612903225807 182.7848888888889L 612.3483870967742 182.69244444444445L 614.3354838709677 180.34666666666666L 616.3225806451613 169.5768888888889L 618.3096774193549 182.704L 620.2967741935483 186.136L 622.2838709677419 169.12622222222222L 624.2709677419355 143.0222222222222L 626.258064516129 162.45866666666666L 628.2451612903226 153.67644444444443L 630.2322580645161 148.176L 632.2193548387097 157.16622222222222L 634.2064516129032 155.61777777777777L 636.1935483870967 164.63111111111112L 638.1806451612904 173.32088888888887L 640.1677419354838 151.0648888888889L 642.1548387096774 173.07822222222222L 644.1419354838711 173.70222222222222L 646.1290322580645 173.74844444444443L 648.1161290322581 184.472L 650.1032258064515 167.77422222222222L 652.0903225806452 160.9911111111111L 654.0774193548388 173.8871111111111L 656.0645161290322 167L 658.0516129032259 156.78488888888887L 660.0387096774193 175.07733333333334L 662.0258064516129 177.4L 664.0129032258064 187.22222222222223L 666 184.74933333333334L 667.9870967741936 183.952L 669.9741935483871 152.19733333333335L 671.9612903225807 183.96355555555556L 673.9483870967742 186.8871111111111L 675.9354838709677 185.87022222222222L 677.9225806451612 183.15466666666666L 679.9096774193549 183.06222222222223L 681.8967741935484 183.02755555555555L 683.8838709677419 176.10577777777777L 685.8709677419355 182.87733333333333L 687.858064516129 180.48533333333333L 689.8451612903226 185.56977777777777L 691.832258064516 180L 693.8193548387097 176.984L 695.8064516129033 178.20888888888888L 697.7935483870967 179.8382222222222L 699.7806451612903 183.09688888888888L 701.7677419354839 177.53866666666667L 703.7548387096774 183.44355555555555L 705.741935483871 178.09333333333333L 707.7290322580645 179.59555555555556L 709.7161290322581 183.02755555555555L 711.7032258064517 180.4622222222222L 713.6903225806451 178.04711111111112L 715.6774193548388 186.89866666666666L 717.6645161290322 177.20355555555557L 719.6516129032258 179.07555555555555L 721.6387096774193 154.9591111111111L 723.6258064516129 133.512L 725.6129032258065 151.96622222222223L 727.5999999999999 151.57333333333332L 729.5870967741936 184.9111111111111L 731.5741935483871 185.28088888888888L 733.5612903225806 178.61333333333334L 735.5483870967741 142.39822222222222L 737.5354838709678 150.1751111111111L 739.5225806451613 164.04177777777778L 741.5096774193548 138.82755555555556L 743.4967741935484 134.864L 745.483870967742 144.85955555555557L 747.4709677419355 145.57600000000002L 749.458064516129 128.7048888888889L 751.4451612903226 120.36177777777777L 753.4322580645161 165.80977777777778L 755.4193548387096 163.51022222222224L 757.4064516129033 160.39022222222223L 759.3935483870968 177.504L 761.3806451612903 187.34933333333333L 763.3677419354839 188.04266666666666L 765.3548387096774 186.8871111111111L 767.341935483871 176.08266666666668L 769.3290322580644 179.41066666666666L 771.316129032258 195.0568888888889L 773.3032258064517 185.53511111111112L 775.2903225806451 183.6977777777778L 777.2774193548387 174.97333333333333L 779.2645161290324 178.61333333333334L 781.2516129032258 180.9591111111111L 783.2387096774194 184.0328888888889L 785.2258064516128 155.61777777777777L 787.2129032258065 149.7128888888889L 789.2 186.2631111111111L 791.1870967741935 191.28977777777777L 793.1741935483872 175.90933333333334L 795.1612903225806 175.49333333333334L 797.1483870967742 184.51822222222222L 799.1354838709677 189.69511111111112L 801.1225806451613 187.592L 803.1096774193549 180.09244444444445L 805.0967741935484 176.92622222222224L 807.083870967742 163.31377777777777L 809.0709677419355 162.112L 811.058064516129 167.1271111111111L 813.0451612903225 180.32355555555554L 815.0322580645162 184.11377777777778L 817.0193548387097 191.57866666666666L 819.0064516129032 195.54222222222222L 820.9935483870968 183.54755555555556L 822.9806451612903 164.03022222222222L 824.9677419354839 171.05599999999998L 826.9548387096773 169.92355555555557L 828.941935483871 180.02311111111112L 830.9290322580646 172.07288888888888L 832.916129032258 163.53333333333333L 834.9032258064516 171.34488888888887L 836.8903225806451 181.59466666666668L 838.8774193548387 179.80355555555556L 840.8645161290323 166.17955555555557L 842.8516129032258 154.92444444444445L 844.8387096774194 158.4488888888889L 846.8258064516128 156.4728888888889L 848.8129032258064 144.4551111111111L 850.8000000000001 158.52977777777778L 852.7870967741935 178.00088888888888L 854.7741935483871 144.99822222222224L 856.7612903225806 134.136L 858.7483870967742 139.8213333333333L 860.7354838709678 145.04444444444445L 862.7225806451612 153.168L 864.7096774193549 140.53777777777776L 866.6967741935484 113.86755555555555L 868.6838709677419 113.28977777777777L 870.6709677419354 164.85066666666665L 872.6580645161291 163.62577777777778L 874.6451612903226 150.16355555555555L 876.6322580645161 149.84L 878.6193548387097 56.54044444444443L 880.6064516129032 124.776L 882.5935483870968 64.07466666666667L 884.5806451612902 123.55111111111111L 886.5677419354839 157.536L 888.5548387096774 147.9911111111111L 890.5419354838709 136.22755555555557L 892.5290322580646 91.11466666666666L 894.516129032258 107.36177777777779L 896.5032258064516 141.68177777777777L 898.4903225806452 157.73244444444444L 900.4774193548387 152.63644444444444L 902.4645161290323 96.22222222222221L 904.4516129032257 150.19822222222223L 906.4387096774193 116.57155555555556L 908.425806451613 127.34133333333332L 910.4129032258064 180.53155555555554L 912.4 137.10577777777777L 914.3870967741935 122.64977777777779L 916.3741935483871 104.61155555555555L 918.3612903225807 141.76266666666666L 920.3483870967741 164.23822222222222L 922.3354838709678 160.51733333333334L 924.3225806451613 154.57777777777778L 926.3096774193548 175.01955555555554L 928.2967741935485 146.87022222222222L 930.2838709677419 153.23733333333334L 932.2709677419355 142.82577777777777L 934.258064516129 130.98133333333334L 936.2451612903226 88.53777777777778L 938.2322580645161 174.488L 940.2193548387097 50.55466666666666L 942.2064516129033 84.43555555555557L 944.1935483870968 152.47466666666668L 946.1806451612903 114.90755555555555L 948.1677419354838 96.30311111111112L 950.1548387096775 171.46044444444445L 952.141935483871 183.96355555555556L 954.1290322580645 169.87733333333333L 956.1161290322581 183.13155555555556L 958.1032258064516 171.992L 960.0903225806452 152.48622222222224L 962.0774193548386 169.704L 964.0645161290323 172.99733333333333L 966.0516129032259 164.61955555555556L 968.0387096774193 162.64355555555557L 970.0258064516129 170.51288888888888L 972.0129032258064 145.6568888888889L 974 192.272" stroke-width="2.0" fill="none" />
    
        
        
        <text x="45.0" font-family="-apple-system, system-ui, BlinkMacSystemFont, Roboto" y="50.0" dominant-baseline="middle" text-anchor="end" font-size="12" fill="#24292f">13500.0</text>
        
            
            <path stroke="#74838f" stroke-dasharray="10 6" stroke-width="0.5"  d="M 50.0 50.0 L 974.0 50.0" />
        
    
        
        
        <text x="45.0" font-family="-apple-system, system-ui, BlinkMacSystemFont, Roboto" y="81.2" dominant-baseline="middle" text-anchor="end" font-size="12" fill="#24292f">10800.0</text>
        
            
            
            <path stroke="#74838f" stroke-dasharray="10 6" stroke-width="0.5"  d="M 50.0 81.2 L 974.0 81.2" />
        
    
        
        
        <text x="45.0" font-family="-apple-system, system-ui, BlinkMacSystemFont, Roboto" y="112.4" dominant-baseline="middle" text-anchor="end" font-size="12" fill="#24292f">8100.0</text>
        
            
            
            <path stroke="#74838f" stroke-dasharray="10 6" stroke-width="0.5"  d="M 50.0 112.4 L 974.0 112.4" />
        
    
        
        
        <text x="45.0" font-family="-apple-system, system-ui, BlinkMacSystemFont, Roboto" y="143.6" dominant-baseline="middle" text-anchor="end" font-size="12" fill="#24292f">5400.0</text>
        
            
            
            <path stroke="#74838f" stroke-dasharray="10 6" stroke-width="0.5"  d="M 50.0 143.6 L 974.0 143.6" />
        
    
        
        
        <text x="45.0" font-family="-apple-system, system-ui, BlinkMacSystemFont, Roboto" y="174.8" dominant-baseline="middle" text-anchor="end" font-size="12" fill="#24292f">2700.0</text>
        
            
            
            <path stroke="#74838f" stroke-dasharray="10 6" stroke-width="0.5"  d="M 50.0 174.8 L 974.0 174.8" />
        
    
        
        
        <text x="45.0" font-family="-apple-system, system-ui, BlinkMacSystemFont, Roboto" y="206.0" dominant-baseline="middle" text-anchor="end" font-size="12" fill="#24292f">0.0</text>
        
    
    
        
        <path stroke="#74838f"  stroke-width="2.0"  d="M 81.79354838709678 206.0 L 81.79354838709678 214.0" />
        <text x="81.79354838709678" font-family="-apple-system, system-ui, BlinkMacSystemFont, Roboto" y="216.0" dominant-baseline="hanging" text-anchor="middle" font-size="12" fill="#24292f">Mar 2022</text>
    
        
        <path stroke="#74838f"  stroke-width="2.0"  d="M 143.39354838709676 206.0 L 143.39354838709676 214.0" />
        <text x="143.39354838709676" font-family="-apple-system, system-ui, BlinkMacSystemFont, Roboto" y="216.0" dominant-baseline="hanging" text-anchor="middle" font-size="12" fill="#24292f">Apr 2022</text>
    
        
        <path stroke="#74838f"  stroke-width="2.0"  d="M 203.00645161290322 206.0 L 203.00645161290322 214.0" />
        <text x="203.00645161290322" font-family="-apple-system, system-ui, BlinkMacSystemFont, Roboto" y="216.0" dominant-baseline="hanging" text-anchor="middle" font-size="12" fill="#24292f">May 2022</text>
    
        
        <path stroke="#74838f"  stroke-width="2.0"  d="M 264.60645161290324 206.0 L 264.60645161290324 214.0" />
        <text x="264.60645161290324" font-family="-apple-system, system-ui, BlinkMacSystemFont, Roboto" y="216.0" dominant-baseline="hanging" text-anchor="middle" font-size="12" fill="#24292f">Jun 2022</text>
    
        
        <path stroke="#74838f"  stroke-width="2.0"  d="M 324.21935483870965 206.0 L 324.21935483870965 214.0" />
        <text x="324.21935483870965" font-family="-apple-system, system-ui, BlinkMacSystemFont, Roboto" y="216.0" dominant-baseline="hanging" text-anchor="middle" font-size="12" fill="#24292f">Jul 2022</text>
    
        
        <path stroke="#74838f"  stroke-width="2.0"  d="M 385.81935483870967 206.0 L 385.81935483870967 214.0" />
        <text x="385.81935483870967" font-family="-apple-system, system-ui, BlinkMacSystemFont, Roboto" y="216.0" dominant-baseline="hanging" text-anchor="middle" font-size="12" fill="#24292f">Aug 2022</text>
    
        
        <path stroke="#74838f"  stroke-width="2.0"  d="M 447.4193548387097 206.0 L 447.4193548387097 214.0" />
        <text x="447.4193548387097" font-family="-apple-system, system-ui, BlinkMacSystemFont, Roboto" y="216.0" dominant-baseline="hanging" text-anchor="middle" font-size="12" fill="#24292f">Sep 2022</text>
    
        
        <path stroke="#74838f"  stroke-width="2.0"  d="M 507.03225806451616 206.0 L 507.03225806451616 214.0" />
        <text x="507.03225806451616" font-family="-apple-system, system-ui, BlinkMacSystemFont, Roboto" y="216.0" dominant-baseline="hanging" text-anchor="middle" font-size="12" fill="#24292f">Oct 2022</text>
    
        
        <path stroke="#74838f"  stroke-width="2.0"  d="M 568.6322580645161 206.0 L 568.6322580645161 214.0" />
        <text x="568.6322580645161" font-family="-apple-system, system-ui, BlinkMacSystemFont, Roboto" y="216.0" dominant-baseline="hanging" text-anchor="middle" font-size="12" fill="#24292f">Nov 2022</text>
    
        
        <path stroke="#74838f"  stroke-width="2.0"  d="M 628.2451612903226 206.0 L 628.2451612903226 214.0" />
        <text x="628.2451612903226" font-family="-apple-system, system-ui, BlinkMacSystemFont, Roboto" y="216.0" dominant-baseline="hanging" text-anchor="middle" font-size="12" fill="#24292f">Dec 2022</text>
    
        
        <path stroke="#74838f"  stroke-width="2.0"  d="M 689.8451612903226 206.0 L 689.8451612903226 214.0" />
        <text x="689.8451612903226" font-family="-apple-system, system-ui, BlinkMacSystemFont, Roboto" y="216.0" dominant-baseline="hanging" text-anchor="middle" font-size="12" fill="#24292f">Jan 2023</text>
    
        
        <path stroke="#74838f"  stroke-width="2.0"  d="M 751.4451612903226 206.0 L 751.4451612903226 214.0" />
        <text x="751.4451612903226" font-family="-apple-system, system-ui, BlinkMacSystemFont, Roboto" y="216.0" dominant-baseline="hanging" text-anchor="middle" font-size="12" fill="#24292f">Feb 2023</text>
    
        
        <path stroke="#74838f"  stroke-width="2.0"  d="M 807.083870967742 206.0 L 807.083870967742 214.0" />
        <text x="807.083870967742" font-family="-apple-system, system-ui, BlinkMacSystemFont, Roboto" y="216.0" dominant-baseline="hanging" text-anchor="middle" font-size="12" fill="#24292f">Mar 2023</text>
    
        
        <path stroke="#74838f"  stroke-width="2.0"  d="M 868.6838709677419 206.0 L 868.6838709677419 214.0" />
        <text x="868.6838709677419" font-family="-apple-system, system-ui, BlinkMacSystemFont, Roboto" y="216.0" dominant-baseline="hanging" text-anchor="middle" font-size="12" fill="#24292f">Apr 2023</text>
    
        
        <path stroke="#74838f"  stroke-width="2.0"  d="M 928.2967741935485 206.0 L 928.2967741935485 214.0" />
        <text x="928.2967741935485" font-family="-apple-system, system-ui, BlinkMacSystemFont, Roboto" y="216.0" dominant-baseline="hanging" text-anchor="middle" font-size="12" fill="#24292f">May 2023</text>
    
    <path stroke="#74838f"   stroke-linejoin="round" stroke-width="2.0" d="M 50.0 216.0 L 50.0 206.0 L 974.0 206.0 L 974.0 216.0"  fill="none" />
    <text x="512.0" y="25.0" font-family="-apple-system, system-ui, BlinkMacSystemFont, Roboto" dominant-baseline="middle" text-anchor="middle" font-size="18" fill="#24292f">Total daily suspensions</text>
</svg>
