<?xml version="1.0" standalone="no"?>
<svg width="1024.0" height="256.0"  viewBox="0 0 1024.0 256.0" preserveAspectRatio="xMidYMid meet" xmlns="http://www.w3.org/2000/svg">
    <path stroke="#e74c3c" stroke-linejoin="round" d="M 50.0 162.77066666666667 L 50 162.77066666666667L 51.95348837209303 194.12088888888889L 53.906976744186046 197.888L 55.86046511627907 198.2231111111111L 57.81395348837209 203.61955555555556L 59.76744186046511 200.16444444444443L 61.72093023255814 199.51733333333334L 63.674418604651166 191.65955555555556L 65.62790697674419 201.1582222222222L 67.5813953488372 198.89333333333332L 69.53488372093022 200.22222222222223L 71.48837209302326 202.70666666666665L 73.44186046511628 199.45955555555554L 75.3953488372093 195.9928888888889L 77.34883720930233 202.776L 79.30232558139535 198.98577777777777L 81.25581395348837 197.8071111111111L 83.20930232558139 191.96L 85.16279069767441 197.0328888888889L 87.11627906976744 199.70222222222222L 89.06976744186046 199.5751111111111L 91.02325581395348 198.5928888888889L 92.97674418604652 198.45422222222223L 94.93023255813954 200.06044444444444L 96.88372093023256 195.288L 98.83720930232559 200.12977777777778L 100.7906976744186 195.96977777777778L 102.74418604651163 200.92711111111112L 104.69767441860465 198.6968888888889L 106.65116279069767 191.22044444444444L 108.6046511627907 196.47822222222223L 110.55813953488374 191.38222222222223L 112.51162790697674 193.99377777777778L 114.46511627906976 199.92177777777778L 116.41860465116278 192.89600000000002L 118.37209302325581 197.33333333333334L 120.32558139534883 199.82933333333332L 122.27906976744185 194.00533333333334L 124.23255813953487 195.65777777777777L 126.18604651162791 195.81955555555555L 128.13953488372093 195.9351111111111L 130.09302325581393 196.83644444444445L 132.04651162790697 199.66755555555557L 134 199.4711111111111L 135.95348837209303 196.0391111111111L 137.90697674418604 194.39822222222222L 139.86046511627907 195.92355555555554L 141.81395348837208 199.03199999999998L 143.7674418604651 195.81955555555555L 145.72093023255815 194.44444444444446L 147.67441860465118 194.144L 149.62790697674419 187.04888888888888L 151.5813953488372 197.69155555555557L 153.53488372093022 196.33955555555556L 155.48837209302326 198.56977777777777L 157.4418604651163 194.8142222222222L 159.3953488372093 196.77866666666665L 161.34883720930233 197.32177777777778L 163.30232558139534 198.65066666666667L 165.25581395348837 198.35022222222221L 167.2093023255814 199.85244444444444L 169.1627906976744 192.07555555555555L 171.11627906976747 202.26755555555556L 173.06976744186048 193.80888888888887L 175.02325581395348 204.26666666666665L 176.97674418604652 206L 178.93023255813952 206L 180.88372093023256 206L 182.83720930232556 206L 184.7906976744186 191.04711111111112L 186.74418604651163 160.76L 188.69767441860466 194.02844444444446L 190.65116279069767 200.4417777777778L 192.6046511627907 193.7048888888889L 194.5581395348837 197.16L 196.51162790697674 200.00266666666667L 198.46511627906975 187.26844444444444L 200.4186046511628 198.18844444444443L 202.37209302325581 195.98133333333334L 204.32558139534885 191.08177777777777L 206.27906976744185 195.288L 208.2325581395349 190.97777777777776L 210.1860465116279 189.39466666666667L 212.13953488372093 198.15377777777778L 214.09302325581396 200.00266666666667L 216.046511627907 192.4568888888889L 218 192.38755555555556L 219.95348837209303 199.56355555555555L 221.90697674418604 195.13777777777779L 223.86046511627907 193.10399999999998L 225.81395348837208 195.3111111111111L 227.76744186046514 199.93333333333334L 229.72093023255815 189.84533333333331L 231.67441860465118 198.70844444444444L 233.62790697674419 196.50133333333332L 235.58139534883722 195.69244444444445L 237.53488372093022 196.62844444444445L 239.48837209302326 193.65866666666668L 241.44186046511626 197.52977777777778L 243.39534883720933 194.3057777777778L 245.34883720930233 197.4257777777778L 247.30232558139537 179.19111111111113L 249.25581395348837 194.80266666666665L 251.2093023255814 196.29333333333335L 253.1627906976744 195.5191111111111L 255.11627906976744 197.0328888888889L 257.06976744186045 197.8071111111111L 259.0232558139535 198.00355555555555L 260.9767441860465 187.55733333333333L 262.93023255813955 193.13866666666667L 264.8837209302326 199.85244444444444L 266.83720930232556 193.53155555555554L 268.7906976744186 191.6248888888889L 270.74418604651163 195.8311111111111L 272.69767441860466 196.54755555555556L 274.65116279069764 196.81333333333333L 276.6046511627907 197.63377777777777L 278.5581395348837 193.55466666666666L 280.51162790697674 206L 282.4651162790698 187.16444444444446L 284.4186046511628 187.34933333333333L 286.37209302325584 191.8213333333333L 288.3255813953488 181.86044444444445L 290.27906976744185 201.8631111111111L 292.23255813953494 186.49422222222222L 294.18604651162786 196.39733333333334L 296.13953488372096 190.07644444444443L 298.09302325581393 194.664L 300.04651162790697 196.016L 302 197.18311111111112L 303.95348837209303 187.06044444444444L 305.90697674418607 198.29244444444444L 307.86046511627904 189.55644444444445L 309.81395348837214 189.7528888888889L 311.7674418604651 197.09066666666666L 313.72093023255815 183.328L 315.6744186046511 184.9688888888889L 317.6279069767442 206L 319.5813953488372 206L 321.5348837209302 206L 323.48837209302326 161.85777777777778L 325.4418604651163 198.81244444444445L 327.3953488372093 196.952L 329.3488372093023 196.05066666666667L 331.30232558139534 193.2888888888889L 333.25581395348837 197.29866666666666L 335.2093023255814 198.13066666666668L 337.16279069767444 201.0311111111111L 339.1162790697674 171.63377777777777L 341.0697674418605 189.85688888888888L 343.0232558139535 178.4862222222222L 344.9767441860465 192.09866666666667L 346.9302325581395 179.792L 348.8837209302326 177.46933333333334L 350.8372093023256 182.6L 352.7906976744186 188.1582222222222L 354.74418604651163 193.36977777777778L 356.69767441860466 189.99555555555554L 358.6511627906977 188.4471111111111L 360.6046511627907 190.01866666666666L 362.5581395348837 188.216L 364.51162790697674 194.05155555555555L 366.4651162790698 185.81244444444445L 368.4186046511628 172.61599999999999L 370.3720930232558 181.09777777777776L 372.3255813953488 173.56355555555555L 374.27906976744185 193.50844444444445L 376.2325581395349 192.51466666666667L 378.1860465116279 193.53155555555554L 380.1395348837209 195.25333333333333L 382.093023255814 193.99377777777778L 384.04651162790697 194.46755555555555L 386 189.89155555555556L 387.953488372093 195.58844444444446L 389.90697674418607 196.6168888888889L 391.8604651162791 193.11555555555555L 393.8139534883721 191.40533333333332L 395.7674418604651 201.16977777777777L 397.72093023255815 185.58133333333333L 399.6744186046512 191.44L 401.62790697674416 194.8488888888889L 403.5813953488372 190.45777777777778L 405.5348837209303 196.23555555555555L 407.48837209302326 192.5031111111111L 409.4418604651163 193.57777777777778L 411.39534883720927 187.18755555555555L 413.34883720930236 191.03555555555556L 415.30232558139534 183.0391111111111L 417.25581395348837 187.83466666666666L 419.20930232558135 192.064L 421.16279069767444 184.9111111111111L 423.1162790697675 189.76444444444445L 425.06976744186045 185.97422222222224L 427.0232558139535 186.22844444444445L 428.9767441860465 177.8968888888889L 430.93023255813955 189.672L 432.8837209302325 191.60177777777778L 434.83720930232556 189.39466666666667L 436.79069767441865 188.27377777777778L 438.74418604651163 191.9368888888889L 440.69767441860466 188.47022222222222L 442.65116279069764 188.88622222222222L 444.60465116279073 190.85066666666665L 446.5581395348837 194.80266666666665L 448.51162790697674 195.13777777777779L 450.4651162790698 201.48177777777778L 452.4186046511628 193.24266666666665L 454.37209302325584 182.06844444444445L 456.3255813953488 182.64622222222224L 458.27906976744185 182.12622222222222L 460.2325581395349 191.84444444444443L 462.1860465116279 187.592L 464.13953488372096 182.288L 466.09302325581393 187.22222222222223L 468.04651162790697 189.09422222222221L 470 180.63555555555556L 471.95348837209303 183.94044444444444L 473.906976744186 174.76533333333333L 475.86046511627904 184.6568888888889L 477.81395348837214 172.93955555555556L 479.7674418604651 150.29066666666665L 481.72093023255815 179.0408888888889L 483.6744186046511 144.23555555555555L 485.6279069767442 186.864L 487.5813953488372 189.18666666666667L 489.5348837209302 188.424L 491.48837209302326 193.728L 493.4418604651163 187.31466666666665L 495.3953488372093 186.1822222222222L 497.3488372093023 187.58044444444445L 499.30232558139534 186.136L 501.25581395348837 193.312L 503.2093023255814 189.19822222222223L 505.16279069767444 189.9377777777778L 507.1162790697674 187.34933333333333L 509.0697674418605 186.51733333333334L 511.0232558139535 189.3831111111111L 512.9767441860465 188.0311111111111L 514.9302325581396 192.98844444444444L 516.8837209302326 187.73066666666668L 518.8372093023256 186.22844444444445L 520.7906976744187 182.81955555555555L 522.7441860465117 184.6222222222222L 524.6976744186047 181.248L 526.6511627906976 186.27466666666666L 528.6046511627907 194.44444444444446L 530.5581395348837 190.90844444444446L 532.5116279069769 187.30311111111112L 534.4651162790699 169.71555555555557L 536.4186046511627 120.77777777777779L 538.3720930232557 189.72977777777777L 540.3255813953489 188.51644444444446L 542.2790697674419 190.86222222222221L 544.2325581395348 192.82666666666665L 546.1860465116279 189.82222222222222L 548.1395348837209 183.16622222222222L 550.0930232558139 189.14044444444443L 552.046511627907 179.9191111111111L 554 59.082666666666654L 555.953488372093 164.26133333333334L 557.9069767441861 185.31555555555556L 559.8604651162791 183.57066666666668L 561.8139534883721 184.50666666666666L 563.767441860465 185.00355555555555L 565.7209302325581 180.0808888888889L 567.6744186046511 190.74666666666667L 569.6279069767443 181.42133333333334L 571.5813953488372 162.58577777777776L 573.5348837209302 124.3368888888889L 575.4883720930233 153.52622222222223L 577.4418604651163 165.68266666666668L 579.3953488372093 182.1031111111111L 581.3488372093022 171.8071111111111L 583.3023255813953 180.76266666666666L 585.2558139534884 174.41866666666667L 587.2093023255815 179.376L 589.1627906976744 183.65155555555555L 591.1162790697674 178.22044444444444L 593.0697674418604 185.03822222222223L 595.0232558139535 188.47022222222222L 596.9767441860465 189.00177777777776L 598.9302325581394 185.52355555555556L 600.8837209302326 182.7848888888889L 602.8372093023256 182.69244444444445L 604.7906976744187 180.34666666666666L 606.7441860465117 169.5768888888889L 608.6976744186046 182.704L 610.6511627906976 186.136L 612.6046511627907 169.12622222222222L 614.5581395348837 143.0222222222222L 616.5116279069767 162.45866666666666L 618.4651162790698 153.67644444444443L 620.4186046511628 148.176L 622.3720930232558 157.16622222222222L 624.3255813953489 155.61777777777777L 626.2790697674418 164.63111111111112L 628.2325581395348 173.32088888888887L 630.1860465116279 151.0648888888889L 632.139534883721 173.07822222222222L 634.093023255814 173.70222222222222L 636.046511627907 173.74844444444443L 638 184.472L 639.953488372093 167.77422222222222L 641.9069767441861 160.9911111111111L 643.860465116279 173.8871111111111L 645.813953488372 167L 647.7674418604652 156.78488888888887L 649.7209302325582 175.07733333333334L 651.6744186046512 177.4L 653.6279069767442 187.22222222222223L 655.5813953488372 184.74933333333334L 657.5348837209302 183.952L 659.4883720930233 152.19733333333335L 661.4418604651163 183.96355555555556L 663.3953488372093 186.8871111111111L 665.3488372093024 185.87022222222222L 667.3023255813954 183.15466666666666L 669.2558139534884 183.06222222222223L 671.2093023255813 183.02755555555555L 673.1627906976744 176.10577777777777L 675.1162790697674 182.87733333333333L 677.0697674418604 180.48533333333333L 679.0232558139535 185.56977777777777L 680.9767441860465 180L 682.9302325581396 176.984L 684.8837209302326 178.20888888888888L 686.8372093023256 179.8382222222222L 688.7906976744185 183.09688888888888L 690.7441860465116 177.53866666666667L 692.6976744186046 183.44355555555555L 694.6511627906976 178.09333333333333L 696.6046511627908 179.59555555555556L 698.5581395348837 183.02755555555555L 700.5116279069767 180.4622222222222L 702.4651162790698 178.04711111111112L 704.4186046511628 186.89866666666666L 706.3720930232558 177.20355555555557L 708.3255813953488 179.07555555555555L 710.2790697674418 154.9591111111111L 712.232558139535 133.512L 714.186046511628 151.96622222222223L 716.1395348837209 151.57333333333332L 718.0930232558139 184.9111111111111L 720.046511627907 185.28088888888888L 722 178.61333333333334L 723.953488372093 142.39822222222222L 725.906976744186 150.1751111111111L 727.8604651162791 164.04177777777778L 729.8139534883721 138.82755555555556L 731.7674418604652 134.864L 733.7209302325582 144.85955555555557L 735.6744186046511 145.57600000000002L 737.6279069767442 128.7048888888889L 739.5813953488372 120.36177777777777L 741.5348837209302 165.80977777777778L 743.4883720930233 163.51022222222224L 745.4418604651163 160.39022222222223L 747.3953488372093 177.504L 749.3488372093024 187.34933333333333L 751.3023255813954 188.04266666666666L 753.2558139534883 186.8871111111111L 755.2093023255813 176.08266666666668L 757.1627906976744 179.41066666666666L 759.1162790697674 195.0568888888889L 761.0697674418606 185.53511111111112L 763.0232558139535 183.6977777777778L 764.9767441860465 174.97333333333333L 766.9302325581396 178.61333333333334L 768.8837209302326 180.9591111111111L 770.8372093023255 184.0328888888889L 772.7906976744185 155.61777777777777L 774.7441860465116 149.7128888888889L 776.6976744186047 186.2631111111111L 778.6511627906978 191.28977777777777L 780.6046511627907 175.90933333333334L 782.5581395348837 175.49333333333334L 784.5116279069767 184.51822222222222L 786.4651162790698 189.69511111111112L 788.4186046511627 187.592L 790.3720930232557 180.09244444444445L 792.3255813953489 176.92622222222224L 794.2790697674419 163.31377777777777L 796.232558139535 162.112L 798.1860465116279 167.1271111111111L 800.1395348837209 180.32355555555554L 802.0930232558139 184.11377777777778L 804.046511627907 191.57866666666666L 806 195.54222222222222L 807.953488372093 183.54755555555556L 809.9069767441861 164.03022222222222L 811.8604651162791 171.05599999999998L 813.8139534883721 169.92355555555557L 815.767441860465 180.02311111111112L 817.7209302325581 172.07288888888888L 819.6744186046511 163.53333333333333L 821.6279069767442 171.34488888888887L 823.5813953488373 181.59466666666668L 825.5348837209302 179.80355555555556L 827.4883720930233 166.17955555555557L 829.4418604651163 154.92444444444445L 831.3953488372093 158.4488888888889L 833.3488372093024 156.4728888888889L 835.3023255813953 144.4551111111111L 837.2558139534883 158.52977777777778L 839.2093023255815 178.00088888888888L 841.1627906976745 144.99822222222224L 843.1162790697674 134.136L 845.0697674418604 139.8213333333333L 847.0232558139535 145.04444444444445L 848.9767441860465 153.168L 850.9302325581396 140.53777777777776L 852.8837209302325 113.86755555555555L 854.8372093023256 113.28977777777777L 856.7906976744187 164.85066666666665L 858.7441860465117 163.62577777777778L 860.6976744186047 150.16355555555555L 862.6511627906976 149.84L 864.6046511627907 56.54044444444443L 866.5581395348837 124.776L 868.5116279069767 64.07466666666667L 870.4651162790698 123.55111111111111L 872.4186046511628 157.536L 874.3720930232558 147.9911111111111L 876.3255813953489 136.22755555555557L 878.2790697674419 91.11466666666666L 880.2325581395348 107.36177777777779L 882.1860465116279 141.68177777777777L 884.1395348837209 157.73244444444444L 886.0930232558139 152.63644444444444L 888.046511627907 96.22222222222221L 890 150.19822222222223L 891.953488372093 116.57155555555556L 893.9069767441861 127.34133333333332L 895.8604651162791 180.53155555555554L 897.813953488372 137.10577777777777L 899.767441860465 122.64977777777779L 901.7209302325581 104.61155555555555L 903.6744186046512 141.76266666666666L 905.6279069767443 164.23822222222222L 907.5813953488372 160.51733333333334L 909.5348837209302 154.57777777777778L 911.4883720930233 175.01955555555554L 913.4418604651163 146.87022222222222L 915.3953488372092 153.23733333333334L 917.3488372093022 142.82577777777777L 919.3023255813954 130.98133333333334L 921.2558139534884 88.53777777777778L 923.2093023255815 174.488L 925.1627906976744 50.55466666666666L 927.1162790697674 84.43555555555557L 929.0697674418604 152.47466666666668L 931.0232558139535 114.90755555555555L 932.9767441860465 96.30311111111112L 934.9302325581396 171.46044444444445L 936.8837209302326 183.96355555555556L 938.8372093023256 169.87733333333333L 940.7906976744187 183.13155555555556L 942.7441860465116 171.992L 944.6976744186046 152.48622222222224L 946.6511627906976 169.704L 948.6046511627907 172.99733333333333L 950.5581395348837 164.61955555555556L 952.5116279069767 162.64355555555557L 954.4651162790698 170.51288888888888L 956.4186046511628 145.6568888888889L 958.3720930232558 159.81244444444445L 960.3255813953489 167.2542222222222L 962.2790697674418 141.55466666666666L 964.2325581395348 160.864L 966.1860465116279 157.7208888888889L 968.139534883721 154.87822222222223L 970.0930232558139 145.29866666666666L 972.046511627907 177.65422222222222L 974 179.52622222222223" stroke-width="2.0" fill="none" />
    
        
        
        <text x="45.0" font-family="-apple-system, system-ui, BlinkMacSystemFont, Roboto" y="50.0" dominant-baseline="middle" text-anchor="end" font-size="12" fill="#24292f">13500.0</text>
        
            
            <path stroke="#74838f" stroke-dasharray="10 6" stroke-width="0.5"  d="M 50.0 50.0 L 974.0 50.0" />
        
    
        
        
        <text x="45.0" font-family="-apple-system, system-ui, BlinkMacSystemFont, Roboto" y="81.2" dominant-baseline="middle" text-anchor="end" font-size="12" fill="#24292f">10800.0</text>
        
            
            
            <path stroke="#74838f" stroke-dasharray="10 6" stroke-width="0.5"  d="M 50.0 81.2 L 974.0 81.2" />
        
    
        
        
        <text x="45.0" font-family="-apple-system, system-ui, BlinkMacSystemFont, Roboto" y="112.4" dominant-baseline="middle" text-anchor="end" font-size="12" fill="#24292f">8100.0</text>
        
            
            
            <path stroke="#74838f" stroke-dasharray="10 6" stroke-width="0.5"  d="M 50.0 112.4 L 974.0 112.4" />
        
    
        
        
        <text x="45.0" font-family="-apple-system, system-ui, BlinkMacSystemFont, Roboto" y="143.6" dominant-baseline="middle" text-anchor="end" font-size="12" fill="#24292f">5400.0</text>
        
            
            
            <path stroke="#74838f" stroke-dasharray="10 6" stroke-width="0.5"  d="M 50.0 143.6 L 974.0 143.6" />
        
    
        
        
        <text x="45.0" font-family="-apple-system, system-ui, BlinkMacSystemFont, Roboto" y="174.8" dominant-baseline="middle" text-anchor="end" font-size="12" fill="#24292f">2700.0</text>
        
            
            
            <path stroke="#74838f" stroke-dasharray="10 6" stroke-width="0.5"  d="M 50.0 174.8 L 974.0 174.8" />
        
    
        
        
        <text x="45.0" font-family="-apple-system, system-ui, BlinkMacSystemFont, Roboto" y="206.0" dominant-baseline="middle" text-anchor="end" font-size="12" fill="#24292f">0.0</text>
        
    
    
        
        <path stroke="#74838f"  stroke-width="2.0"  d="M 81.25581395348837 206.0 L 81.25581395348837 214.0" />
        <text x="81.25581395348837" font-family="-apple-system, system-ui, BlinkMacSystemFont, Roboto" y="216.0" dominant-baseline="hanging" text-anchor="middle" font-size="12" fill="#24292f">Mar 2022</text>
    
        
        <path stroke="#74838f"  stroke-width="2.0"  d="M 141.81395348837208 206.0 L 141.81395348837208 214.0" />
        <text x="141.81395348837208" font-family="-apple-system, system-ui, BlinkMacSystemFont, Roboto" y="216.0" dominant-baseline="hanging" text-anchor="middle" font-size="12" fill="#24292f">Apr 2022</text>
    
        
        <path stroke="#74838f"  stroke-width="2.0"  d="M 200.4186046511628 206.0 L 200.4186046511628 214.0" />
        <text x="200.4186046511628" font-family="-apple-system, system-ui, BlinkMacSystemFont, Roboto" y="216.0" dominant-baseline="hanging" text-anchor="middle" font-size="12" fill="#24292f">May 2022</text>
    
        
        <path stroke="#74838f"  stroke-width="2.0"  d="M 260.9767441860465 206.0 L 260.9767441860465 214.0" />
        <text x="260.9767441860465" font-family="-apple-system, system-ui, BlinkMacSystemFont, Roboto" y="216.0" dominant-baseline="hanging" text-anchor="middle" font-size="12" fill="#24292f">Jun 2022</text>
    
        
        <path stroke="#74838f"  stroke-width="2.0"  d="M 319.5813953488372 206.0 L 319.5813953488372 214.0" />
        <text x="319.5813953488372" font-family="-apple-system, system-ui, BlinkMacSystemFont, Roboto" y="216.0" dominant-baseline="hanging" text-anchor="middle" font-size="12" fill="#24292f">Jul 2022</text>
    
        
        <path stroke="#74838f"  stroke-width="2.0"  d="M 380.1395348837209 206.0 L 380.1395348837209 214.0" />
        <text x="380.1395348837209" font-family="-apple-system, system-ui, BlinkMacSystemFont, Roboto" y="216.0" dominant-baseline="hanging" text-anchor="middle" font-size="12" fill="#24292f">Aug 2022</text>
    
        
        <path stroke="#74838f"  stroke-width="2.0"  d="M 440.69767441860466 206.0 L 440.69767441860466 214.0" />
        <text x="440.69767441860466" font-family="-apple-system, system-ui, BlinkMacSystemFont, Roboto" y="216.0" dominant-baseline="hanging" text-anchor="middle" font-size="12" fill="#24292f">Sep 2022</text>
    
        
        <path stroke="#74838f"  stroke-width="2.0"  d="M 499.30232558139534 206.0 L 499.30232558139534 214.0" />
        <text x="499.30232558139534" font-family="-apple-system, system-ui, BlinkMacSystemFont, Roboto" y="216.0" dominant-baseline="hanging" text-anchor="middle" font-size="12" fill="#24292f">Oct 2022</text>
    
        
        <path stroke="#74838f"  stroke-width="2.0"  d="M 559.8604651162791 206.0 L 559.8604651162791 214.0" />
        <text x="559.8604651162791" font-family="-apple-system, system-ui, BlinkMacSystemFont, Roboto" y="216.0" dominant-baseline="hanging" text-anchor="middle" font-size="12" fill="#24292f">Nov 2022</text>
    
        
        <path stroke="#74838f"  stroke-width="2.0"  d="M 618.4651162790698 206.0 L 618.4651162790698 214.0" />
        <text x="618.4651162790698" font-family="-apple-system, system-ui, BlinkMacSystemFont, Roboto" y="216.0" dominant-baseline="hanging" text-anchor="middle" font-size="12" fill="#24292f">Dec 2022</text>
    
        
        <path stroke="#74838f"  stroke-width="2.0"  d="M 679.0232558139535 206.0 L 679.0232558139535 214.0" />
        <text x="679.0232558139535" font-family="-apple-system, system-ui, BlinkMacSystemFont, Roboto" y="216.0" dominant-baseline="hanging" text-anchor="middle" font-size="12" fill="#24292f">Jan 2023</text>
    
        
        <path stroke="#74838f"  stroke-width="2.0"  d="M 739.5813953488372 206.0 L 739.5813953488372 214.0" />
        <text x="739.5813953488372" font-family="-apple-system, system-ui, BlinkMacSystemFont, Roboto" y="216.0" dominant-baseline="hanging" text-anchor="middle" font-size="12" fill="#24292f">Feb 2023</text>
    
        
        <path stroke="#74838f"  stroke-width="2.0"  d="M 794.2790697674419 206.0 L 794.2790697674419 214.0" />
        <text x="794.2790697674419" font-family="-apple-system, system-ui, BlinkMacSystemFont, Roboto" y="216.0" dominant-baseline="hanging" text-anchor="middle" font-size="12" fill="#24292f">Mar 2023</text>
    
        
        <path stroke="#74838f"  stroke-width="2.0"  d="M 854.8372093023256 206.0 L 854.8372093023256 214.0" />
        <text x="854.8372093023256" font-family="-apple-system, system-ui, BlinkMacSystemFont, Roboto" y="216.0" dominant-baseline="hanging" text-anchor="middle" font-size="12" fill="#24292f">Apr 2023</text>
    
        
        <path stroke="#74838f"  stroke-width="2.0"  d="M 913.4418604651163 206.0 L 913.4418604651163 214.0" />
        <text x="913.4418604651163" font-family="-apple-system, system-ui, BlinkMacSystemFont, Roboto" y="216.0" dominant-baseline="hanging" text-anchor="middle" font-size="12" fill="#24292f">May 2023</text>
    
        
        <path stroke="#74838f"  stroke-width="2.0"  d="M 974.0 206.0 L 974.0 214.0" />
        <text x="974.0" font-family="-apple-system, system-ui, BlinkMacSystemFont, Roboto" y="216.0" dominant-baseline="hanging" text-anchor="middle" font-size="12" fill="#24292f">Jun 2023</text>
    
    <path stroke="#74838f"   stroke-linejoin="round" stroke-width="2.0" d="M 50.0 216.0 L 50.0 206.0 L 974.0 206.0 L 974.0 216.0"  fill="none" />
    <text x="512.0" y="25.0" font-family="-apple-system, system-ui, BlinkMacSystemFont, Roboto" dominant-baseline="middle" text-anchor="middle" font-size="18" fill="#24292f">Total daily suspensions</text>
</svg>
