<?xml version="1.0" standalone="no"?>
<svg width="1024.0" height="256.0"  viewBox="0 0 1024.0 256.0" preserveAspectRatio="xMidYMid meet" xmlns="http://www.w3.org/2000/svg">
    <path stroke="#e74c3c" stroke-linejoin="round" d="M 50.0 161.108 L 50 161.108L 53.34782608695652 193.664L 56.69565217391305 197.576L 60.04347826086956 197.924L 63.391304347826086 203.528L 66.73913043478261 199.94L 70.08695652173913 199.268L 73.43478260869566 191.108L 76.78260869565217 200.972L 80.13043478260869 198.62L 83.47826086956522 200L 86.82608695652173 202.57999999999998L 90.17391304347825 199.208L 93.52173913043478 195.608L 96.86956521739131 202.652L 100.21739130434783 198.716L 103.56521739130434 197.49200000000002L 106.91304347826087 191.42000000000002L 110.26086956521739 196.688L 113.6086956521739 199.46L 116.95652173913044 199.328L 120.30434782608697 198.308L 123.65217391304347 198.164L 127 199.832L 130.3478260869565 194.876L 133.69565217391306 199.904L 137.04347826086956 195.584L 140.3913043478261 200.732L 143.73913043478262 198.416L 147.08695652173913 190.652L 150.43478260869566 196.112L 153.7826086956522 190.82L 157.1304347826087 193.53199999999998L 160.47826086956522 199.688L 163.82608695652175 192.392L 167.17391304347825 197L 170.52173913043478 199.59199999999998L 173.8695652173913 193.54399999999998L 177.2173913043478 195.26L 180.56521739130434 195.428L 183.91304347826087 195.548L 187.26086956521738 196.484L 190.60869565217394 199.424L 193.95652173913044 199.22L 197.30434782608694 195.656L 200.65217391304347 193.952L 204 195.536L 207.34782608695653 198.764L 210.69565217391303 195.428L 214.04347826086956 194L 217.3913043478261 193.688L 220.7391304347826 186.32L 224.08695652173913 197.372L 227.43478260869566 195.96800000000002L 230.7826086956522 198.284L 234.1304347826087 194.38400000000001L 237.47826086956522 196.424L 240.82608695652175 196.988L 244.17391304347825 198.368L 247.52173913043478 198.05599999999998L 250.8695652173913 199.61599999999999L 254.21739130434784 191.54L 257.5652173913044 202.124L 260.9130434782609 193.34L 264.2608695652174 204.2L 267.6086956521739 206L 270.95652173913044 206L 274.30434782608694 206L 277.6521739130435 206L 281 190.472L 284.3478260869565 159.01999999999998L 287.695652173913 193.56799999999998L 291.04347826086956 200.228L 294.3913043478261 193.232L 297.7391304347826 196.82L 301.0869565217391 199.772L 304.4347826086956 186.548L 307.7826086956522 197.888L 311.1304347826087 195.596L 314.4782608695652 190.508L 317.82608695652175 194.876L 321.1739130434783 190.4L 324.52173913043475 188.756L 327.8695652173913 197.852L 331.21739130434787 199.772L 334.5652173913043 191.936L 337.9130434782609 191.864L 341.2608695652174 199.316L 344.6086956521739 194.708L 347.95652173913044 192.608L 351.30434782608694 194.9L 354.6521739130435 199.7L 358 189.224L 361.3478260869565 198.428L 364.69565217391306 196.136L 368.04347826086956 195.296L 371.39130434782606 196.268L 374.7391304347826 193.184L 378.0869565217391 197.204L 381.4347826086956 193.856L 384.7826086956522 197.096L 388.1304347826087 178.16L 391.4782608695652 194.372L 394.82608695652175 195.92000000000002L 398.17391304347825 195.11599999999999L 401.5217391304348 196.688L 404.8695652173913 197.49200000000002L 408.2173913043478 197.696L 411.5652173913044 186.848L 414.9130434782609 192.644L 418.2608695652174 199.61599999999999L 421.60869565217394 193.052L 424.95652173913044 191.072L 428.30434782608694 195.44L 431.6521739130435 196.184L 435 196.46L 438.3478260869565 197.312L 441.69565217391306 193.076L 445.04347826086956 206L 448.3913043478261 186.44L 451.7391304347826 186.632L 455.0869565217391 191.276L 458.4347826086957 180.93200000000002L 461.78260869565213 201.704L 465.1304347826087 185.744L 468.47826086956525 196.028L 471.8260869565217 189.464L 475.17391304347825 194.228L 478.5217391304348 195.632L 481.8695652173913 196.844L 485.2173913043478 186.332L 488.5652173913044 197.99599999999998L 491.9130434782609 188.924L 495.2608695652174 189.128L 498.6086956521739 196.748L 501.95652173913044 182.45600000000002L 505.304347826087 184.16L 508.65217391304344 206L 512 206L 515.3478260869565 206L 518.695652173913 160.16L 522.0434782608696 198.536L 525.391304347826 196.60399999999998L 528.7391304347825 195.668L 532.0869565217391 192.8L 535.4347826086956 196.964L 538.7826086956522 197.828L 542.1304347826087 200.84L 545.4782608695652 170.312L 548.8260869565217 189.236L 552.1739130434783 177.428L 555.5217391304348 191.564L 558.8695652173913 178.784L 562.2173913043479 176.372L 565.5652173913044 181.7L 568.9130434782609 187.472L 572.2608695652174 192.88400000000001L 575.6086956521739 189.38L 578.9565217391304 187.772L 582.304347826087 189.404L 585.6521739130435 187.532L 589 193.59199999999998L 592.3478260869566 185.036L 595.695652173913 171.332L 599.0434782608695 180.14L 602.3913043478261 172.316L 605.7391304347826 193.028L 609.0869565217391 191.996L 612.4347826086957 193.052L 615.7826086956522 194.84L 619.1304347826086 193.53199999999998L 622.4782608695652 194.024L 625.8260869565217 189.272L 629.1739130434783 195.188L 632.5217391304348 196.256L 635.8695652173914 192.62L 639.2173913043478 190.844L 642.5652173913043 200.984L 645.9130434782609 184.796L 649.2608695652174 190.88L 652.6086956521739 194.42000000000002L 655.9565217391305 189.86L 659.304347826087 195.86L 662.6521739130434 191.984L 666 193.1L 669.3478260869565 186.464L 672.695652173913 190.46L 676.0434782608696 182.156L 679.3913043478261 187.136L 682.7391304347826 191.528L 686.0869565217391 184.1L 689.4347826086956 189.14L 692.7826086956521 185.204L 696.1304347826087 185.468L 699.4782608695652 176.828L 702.8260869565217 189.04399999999998L 706.1739130434783 191.048L 709.5217391304348 188.756L 712.8695652173913 187.592L 716.2173913043478 191.39600000000002L 719.5652173913044 187.796L 722.9130434782609 188.228L 726.2608695652174 190.268L 729.608695652174 194.372L 732.9565217391304 194.72L 736.3043478260869 201.308L 739.6521739130435 192.752L 743 181.148L 746.3478260869565 181.748L 749.6956521739131 181.208L 753.0434782608696 191.3L 756.391304347826 186.88400000000001L 759.7391304347826 181.376L 763.0869565217391 186.5L 766.4347826086956 188.44400000000002L 769.7826086956522 179.66L 773.1304347826087 183.09199999999998L 776.4782608695652 173.564L 779.8260869565217 183.836L 783.1739130434783 171.668L 786.5217391304348 148.148L 789.8695652173913 178.004L 793.2173913043479 141.86L 796.5652173913044 186.128L 799.9130434782609 188.54000000000002L 803.2608695652174 187.748L 806.6086956521739 193.256L 809.9565217391304 186.596L 813.304347826087 185.42000000000002L 816.6521739130435 186.872L 820 185.372L 823.3478260869566 192.824L 826.695652173913 188.552L 830.0434782608695 189.32L 833.3913043478261 186.632L 836.7391304347826 185.768L 840.0869565217391 188.744L 843.4347826086957 187.34L 846.7826086956522 192.488L 850.1304347826086 187.028L 853.4782608695652 185.468L 856.8260869565217 181.928L 860.1739130434783 183.8L 863.5217391304348 180.296L 866.8695652173914 185.516L 870.2173913043478 194L 873.5652173913043 190.328L 876.9130434782609 186.584L 880.2608695652174 168.32L 883.6086956521739 117.5L 886.9565217391305 189.10399999999998L 890.304347826087 187.844L 893.6521739130434 190.28L 897 192.32L 900.3478260869565 189.2L 903.695652173913 182.288L 907.0434782608696 188.49200000000002L 910.3913043478261 178.916L 913.7391304347826 53.432000000000016L 917.0869565217391 162.656L 920.4347826086956 184.52L 923.7826086956521 182.708L 927.1304347826087 183.68L 930.4782608695652 184.196L 933.8260869565217 179.084L 937.1739130434783 190.16L 940.5217391304348 180.476L 943.8695652173913 160.916L 947.2173913043478 121.196L 950.5652173913044 151.50799999999998L 953.9130434782609 164.132L 957.2608695652174 181.184L 960.608695652174 170.49200000000002L 963.9565217391304 179.792L 967.3043478260869 173.504L 970.6521739130435 178.60399999999998L 974 199.784" stroke-width="2.0" fill="none" />
    
        
        
        <text x="45.0" font-family="-apple-system, system-ui, BlinkMacSystemFont, Roboto" y="50.0" dominant-baseline="middle" text-anchor="end" font-size="12" fill="#24292f">13000.0</text>
        
            
            <path stroke="#74838f" stroke-dasharray="10 6" stroke-width="0.5"  d="M 50.0 50.0 L 974.0 50.0" />
        
    
        
        
        <text x="45.0" font-family="-apple-system, system-ui, BlinkMacSystemFont, Roboto" y="81.2" dominant-baseline="middle" text-anchor="end" font-size="12" fill="#24292f">10400.0</text>
        
            
            
            <path stroke="#74838f" stroke-dasharray="10 6" stroke-width="0.5"  d="M 50.0 81.2 L 974.0 81.2" />
        
    
        
        
        <text x="45.0" font-family="-apple-system, system-ui, BlinkMacSystemFont, Roboto" y="112.4" dominant-baseline="middle" text-anchor="end" font-size="12" fill="#24292f">7800.0</text>
        
            
            
            <path stroke="#74838f" stroke-dasharray="10 6" stroke-width="0.5"  d="M 50.0 112.4 L 974.0 112.4" />
        
    
        
        
        <text x="45.0" font-family="-apple-system, system-ui, BlinkMacSystemFont, Roboto" y="143.6" dominant-baseline="middle" text-anchor="end" font-size="12" fill="#24292f">5200.0</text>
        
            
            
            <path stroke="#74838f" stroke-dasharray="10 6" stroke-width="0.5"  d="M 50.0 143.6 L 974.0 143.6" />
        
    
        
        
        <text x="45.0" font-family="-apple-system, system-ui, BlinkMacSystemFont, Roboto" y="174.8" dominant-baseline="middle" text-anchor="end" font-size="12" fill="#24292f">2600.0</text>
        
            
            
            <path stroke="#74838f" stroke-dasharray="10 6" stroke-width="0.5"  d="M 50.0 174.8 L 974.0 174.8" />
        
    
        
        
        <text x="45.0" font-family="-apple-system, system-ui, BlinkMacSystemFont, Roboto" y="206.0" dominant-baseline="middle" text-anchor="end" font-size="12" fill="#24292f">0.0</text>
        
    
    
        
        <path stroke="#74838f"  stroke-width="2.0"  d="M 103.56521739130434 206.0 L 103.56521739130434 214.0" />
        <text x="103.56521739130434" font-family="-apple-system, system-ui, BlinkMacSystemFont, Roboto" y="216.0" dominant-baseline="hanging" text-anchor="middle" font-size="12" fill="#24292f">Mar 2022</text>
    
        
        <path stroke="#74838f"  stroke-width="2.0"  d="M 207.34782608695653 206.0 L 207.34782608695653 214.0" />
        <text x="207.34782608695653" font-family="-apple-system, system-ui, BlinkMacSystemFont, Roboto" y="216.0" dominant-baseline="hanging" text-anchor="middle" font-size="12" fill="#24292f">Apr 2022</text>
    
        
        <path stroke="#74838f"  stroke-width="2.0"  d="M 307.7826086956522 206.0 L 307.7826086956522 214.0" />
        <text x="307.7826086956522" font-family="-apple-system, system-ui, BlinkMacSystemFont, Roboto" y="216.0" dominant-baseline="hanging" text-anchor="middle" font-size="12" fill="#24292f">May 2022</text>
    
        
        <path stroke="#74838f"  stroke-width="2.0"  d="M 411.5652173913044 206.0 L 411.5652173913044 214.0" />
        <text x="411.5652173913044" font-family="-apple-system, system-ui, BlinkMacSystemFont, Roboto" y="216.0" dominant-baseline="hanging" text-anchor="middle" font-size="12" fill="#24292f">Jun 2022</text>
    
        
        <path stroke="#74838f"  stroke-width="2.0"  d="M 512.0 206.0 L 512.0 214.0" />
        <text x="512.0" font-family="-apple-system, system-ui, BlinkMacSystemFont, Roboto" y="216.0" dominant-baseline="hanging" text-anchor="middle" font-size="12" fill="#24292f">Jul 2022</text>
    
        
        <path stroke="#74838f"  stroke-width="2.0"  d="M 615.7826086956522 206.0 L 615.7826086956522 214.0" />
        <text x="615.7826086956522" font-family="-apple-system, system-ui, BlinkMacSystemFont, Roboto" y="216.0" dominant-baseline="hanging" text-anchor="middle" font-size="12" fill="#24292f">Aug 2022</text>
    
        
        <path stroke="#74838f"  stroke-width="2.0"  d="M 719.5652173913044 206.0 L 719.5652173913044 214.0" />
        <text x="719.5652173913044" font-family="-apple-system, system-ui, BlinkMacSystemFont, Roboto" y="216.0" dominant-baseline="hanging" text-anchor="middle" font-size="12" fill="#24292f">Sep 2022</text>
    
        
        <path stroke="#74838f"  stroke-width="2.0"  d="M 820.0 206.0 L 820.0 214.0" />
        <text x="820.0" font-family="-apple-system, system-ui, BlinkMacSystemFont, Roboto" y="216.0" dominant-baseline="hanging" text-anchor="middle" font-size="12" fill="#24292f">Oct 2022</text>
    
        
        <path stroke="#74838f"  stroke-width="2.0"  d="M 923.7826086956521 206.0 L 923.7826086956521 214.0" />
        <text x="923.7826086956521" font-family="-apple-system, system-ui, BlinkMacSystemFont, Roboto" y="216.0" dominant-baseline="hanging" text-anchor="middle" font-size="12" fill="#24292f">Nov 2022</text>
    
    <path stroke="#74838f"   stroke-linejoin="round" stroke-width="2.0" d="M 50.0 216.0 L 50.0 206.0 L 974.0 206.0 L 974.0 216.0"  fill="none" />
    <text x="512.0" y="25.0" font-family="-apple-system, system-ui, BlinkMacSystemFont, Roboto" dominant-baseline="middle" text-anchor="middle" font-size="18" fill="#24292f">Total daily suspensions</text>
</svg>
