<?xml version="1.0" standalone="no"?>
<svg width="1024.0" height="256.0"  viewBox="0 0 1024.0 256.0" preserveAspectRatio="xMidYMid meet" xmlns="http://www.w3.org/2000/svg">
    <path stroke="#e74c3c" stroke-linejoin="round" d="M 50.0 161.108 L 50 161.108L 53.31182795698925 193.664L 56.623655913978496 197.576L 59.935483870967744 197.924L 63.24731182795699 203.528L 66.55913978494624 199.94L 69.87096774193549 199.268L 73.18279569892474 191.108L 76.49462365591398 200.972L 79.80645161290323 198.62L 83.11827956989248 200L 86.43010752688173 202.57999999999998L 89.74193548387098 199.208L 93.05376344086022 195.608L 96.36559139784947 202.652L 99.67741935483872 198.716L 102.98924731182797 197.49200000000002L 106.3010752688172 191.42000000000002L 109.61290322580645 196.688L 112.92473118279571 199.46L 116.23655913978494 199.328L 119.54838709677419 198.308L 122.86021505376344 198.164L 126.17204301075269 199.832L 129.48387096774195 194.876L 132.7956989247312 199.904L 136.10752688172045 195.584L 139.4193548387097 200.732L 142.73118279569894 198.416L 146.04301075268816 190.652L 149.35483870967744 196.112L 152.66666666666666 190.82L 155.97849462365593 193.53199999999998L 159.29032258064518 199.688L 162.6021505376344 192.392L 165.91397849462365 197L 169.2258064516129 199.59199999999998L 172.53763440860217 193.54399999999998L 175.84946236559142 195.26L 179.16129032258064 195.428L 182.4731182795699 195.548L 185.78494623655914 196.484L 189.09677419354838 199.424L 192.40860215053763 199.22L 195.72043010752688 195.656L 199.03225806451613 193.952L 202.34408602150538 195.536L 205.65591397849462 198.764L 208.96774193548387 195.428L 212.27956989247312 194L 215.59139784946237 193.688L 218.90322580645162 186.32L 222.21505376344086 197.372L 225.52688172043008 195.96800000000002L 228.83870967741936 198.284L 232.1505376344086 194.38400000000001L 235.46236559139786 196.424L 238.7741935483871 196.988L 242.08602150537632 198.368L 245.3978494623656 198.05599999999998L 248.70967741935485 199.61599999999999L 252.0215053763441 191.54L 255.33333333333331 202.124L 258.64516129032256 193.34L 261.95698924731187 204.2L 265.26881720430106 206L 268.58064516129036 206L 271.89247311827955 206L 275.2043010752688 206L 278.51612903225805 190.472L 281.8279569892473 159.01999999999998L 285.13978494623655 193.56799999999998L 288.4516129032258 200.228L 291.76344086021504 193.232L 295.07526881720435 196.82L 298.38709677419354 199.772L 301.69892473118284 186.548L 305.01075268817203 197.888L 308.3225806451613 195.596L 311.63440860215053 190.508L 314.9462365591398 194.876L 318.258064516129 190.4L 321.5698924731183 188.756L 324.8817204301075 197.852L 328.19354838709677 199.772L 331.505376344086 191.936L 334.81720430107526 191.864L 338.1290322580645 199.316L 341.44086021505376 194.708L 344.752688172043 192.608L 348.06451612903226 194.9L 351.3763440860215 199.7L 354.68817204301075 189.224L 358 198.428L 361.31182795698925 196.136L 364.6236559139785 195.296L 367.93548387096774 196.268L 371.247311827957 193.184L 374.55913978494624 197.204L 377.8709677419355 193.856L 381.18279569892474 197.096L 384.494623655914 178.16L 387.80645161290323 194.372L 391.1182795698925 195.92000000000002L 394.4301075268817 195.11599999999999L 397.741935483871 196.688L 401.05376344086017 197.49200000000002L 404.36559139784947 197.696L 407.6774193548387 186.848L 410.98924731182797 192.644L 414.3010752688172 199.61599999999999L 417.6129032258064 193.052L 420.9247311827957 191.072L 424.23655913978496 195.44L 427.5483870967742 196.184L 430.86021505376345 196.46L 434.17204301075265 197.312L 437.48387096774195 193.076L 440.7956989247312 206L 444.1075268817204 186.44L 447.4193548387097 186.632L 450.7311827956989 191.276L 454.0430107526882 180.93200000000002L 457.35483870967744 201.704L 460.66666666666663 185.744L 463.97849462365593 196.028L 467.2903225806451 189.464L 470.60215053763443 194.228L 473.9139784946237 195.632L 477.22580645161287 196.844L 480.5376344086022 186.332L 483.84946236559136 197.99599999999998L 487.16129032258067 188.924L 490.4731182795699 189.128L 493.7849462365591 196.748L 497.0967741935484 182.45600000000002L 500.4086021505376 184.16L 503.7204301075269 206L 507.03225806451616 206L 510.34408602150535 206L 513.6559139784946 160.16L 516.9677419354839 198.536L 520.2795698924731 196.60399999999998L 523.5913978494623 195.668L 526.9032258064516 192.8L 530.2150537634409 196.964L 533.5268817204301 197.828L 536.8387096774193 200.84L 540.1505376344087 170.312L 543.4623655913979 189.236L 546.7741935483871 177.428L 550.0860215053763 191.564L 553.3978494623657 178.784L 556.7096774193549 176.372L 560.0215053763441 181.7L 563.3333333333334 187.472L 566.6451612903226 192.88400000000001L 569.9569892473119 189.38L 573.2688172043011 187.772L 576.5806451612904 189.404L 579.8924731182796 187.532L 583.2043010752689 193.59199999999998L 586.516129032258 185.036L 589.8279569892472 171.332L 593.1397849462365 180.14L 596.4516129032259 172.316L 599.763440860215 193.028L 603.0752688172042 191.996L 606.3870967741935 193.052L 609.6989247311828 194.84L 613.010752688172 193.53199999999998L 616.3225806451613 194.024L 619.6344086021505 189.272L 622.9462365591397 195.188L 626.258064516129 196.256L 629.5698924731183 192.62L 632.8817204301075 190.844L 636.1935483870967 200.984L 639.505376344086 184.796L 642.8172043010752 190.88L 646.1290322580645 194.42000000000002L 649.4408602150538 189.86L 652.752688172043 195.86L 656.0645161290322 191.984L 659.3763440860215 193.1L 662.6881720430108 186.464L 666 190.46L 669.3118279569892 182.156L 672.6236559139785 187.136L 675.9354838709677 191.528L 679.247311827957 184.1L 682.5591397849463 189.14L 685.8709677419355 185.204L 689.1827956989247 185.468L 692.494623655914 176.828L 695.8064516129033 189.04399999999998L 699.1182795698925 191.048L 702.4301075268817 188.756L 705.741935483871 187.592L 709.0537634408602 191.39600000000002L 712.3655913978495 187.796L 715.6774193548388 188.228L 718.989247311828 190.268L 722.3010752688172 194.372L 725.6129032258065 194.72L 728.9247311827958 201.308L 732.236559139785 192.752L 735.5483870967741 181.148L 738.8602150537635 181.748L 742.1720430107526 181.208L 745.483870967742 191.3L 748.7956989247313 186.88400000000001L 752.1075268817203 181.376L 755.4193548387096 186.5L 758.7311827956989 188.44400000000002L 762.0430107526881 179.66L 765.3548387096774 183.09199999999998L 768.6666666666666 173.564L 771.9784946236559 183.836L 775.2903225806451 171.668L 778.6021505376344 148.148L 781.9139784946237 178.004L 785.2258064516128 141.86L 788.5376344086021 186.128L 791.8494623655914 188.54000000000002L 795.1612903225806 187.748L 798.4731182795699 193.256L 801.7849462365591 186.596L 805.0967741935484 185.42000000000002L 808.4086021505376 186.872L 811.7204301075269 185.372L 815.0322580645162 192.824L 818.3440860215053 188.552L 821.6559139784946 189.32L 824.9677419354839 186.632L 828.2795698924731 185.768L 831.5913978494624 188.744L 834.9032258064516 187.34L 838.2150537634408 192.488L 841.5268817204301 187.028L 844.8387096774194 185.468L 848.1505376344087 181.928L 851.4623655913978 183.8L 854.7741935483871 180.296L 858.0860215053764 185.516L 861.3978494623656 194L 864.7096774193549 190.328L 868.0215053763441 186.584L 871.3333333333333 168.32L 874.6451612903226 117.5L 877.9569892473119 189.10399999999998L 881.2688172043012 187.844L 884.5806451612902 190.28L 887.8924731182796 192.32L 891.2043010752689 189.2L 894.516129032258 182.288L 897.8279569892474 188.49200000000002L 901.1397849462365 178.916L 904.4516129032257 53.432000000000016L 907.763440860215 162.656L 911.0752688172043 184.52L 914.3870967741935 182.708L 917.6989247311827 183.68L 921.010752688172 184.196L 924.3225806451613 179.084L 927.6344086021505 190.16L 930.9462365591398 180.476L 934.258064516129 160.916L 937.5698924731182 121.196L 940.8817204301075 151.50799999999998L 944.1935483870968 164.132L 947.505376344086 181.184L 950.8172043010752 170.49200000000002L 954.1290322580645 179.792L 957.4408602150538 173.504L 960.752688172043 178.088L 964.0645161290323 182.792L 967.3763440860215 177.164L 970.6881720430107 184.232L 974 190.304" stroke-width="2.0" fill="none" />
    
        
        
        <text x="45.0" font-family="-apple-system, system-ui, BlinkMacSystemFont, Roboto" y="50.0" dominant-baseline="middle" text-anchor="end" font-size="12" fill="#24292f">13000.0</text>
        
            
            <path stroke="#74838f" stroke-dasharray="10 6" stroke-width="0.5"  d="M 50.0 50.0 L 974.0 50.0" />
        
    
        
        
        <text x="45.0" font-family="-apple-system, system-ui, BlinkMacSystemFont, Roboto" y="81.2" dominant-baseline="middle" text-anchor="end" font-size="12" fill="#24292f">10400.0</text>
        
            
            
            <path stroke="#74838f" stroke-dasharray="10 6" stroke-width="0.5"  d="M 50.0 81.2 L 974.0 81.2" />
        
    
        
        
        <text x="45.0" font-family="-apple-system, system-ui, BlinkMacSystemFont, Roboto" y="112.4" dominant-baseline="middle" text-anchor="end" font-size="12" fill="#24292f">7800.0</text>
        
            
            
            <path stroke="#74838f" stroke-dasharray="10 6" stroke-width="0.5"  d="M 50.0 112.4 L 974.0 112.4" />
        
    
        
        
        <text x="45.0" font-family="-apple-system, system-ui, BlinkMacSystemFont, Roboto" y="143.6" dominant-baseline="middle" text-anchor="end" font-size="12" fill="#24292f">5200.0</text>
        
            
            
            <path stroke="#74838f" stroke-dasharray="10 6" stroke-width="0.5"  d="M 50.0 143.6 L 974.0 143.6" />
        
    
        
        
        <text x="45.0" font-family="-apple-system, system-ui, BlinkMacSystemFont, Roboto" y="174.8" dominant-baseline="middle" text-anchor="end" font-size="12" fill="#24292f">2600.0</text>
        
            
            
            <path stroke="#74838f" stroke-dasharray="10 6" stroke-width="0.5"  d="M 50.0 174.8 L 974.0 174.8" />
        
    
        
        
        <text x="45.0" font-family="-apple-system, system-ui, BlinkMacSystemFont, Roboto" y="206.0" dominant-baseline="middle" text-anchor="end" font-size="12" fill="#24292f">0.0</text>
        
    
    
        
        <path stroke="#74838f"  stroke-width="2.0"  d="M 102.98924731182797 206.0 L 102.98924731182797 214.0" />
        <text x="102.98924731182797" font-family="-apple-system, system-ui, BlinkMacSystemFont, Roboto" y="216.0" dominant-baseline="hanging" text-anchor="middle" font-size="12" fill="#24292f">Mar 2022</text>
    
        
        <path stroke="#74838f"  stroke-width="2.0"  d="M 205.65591397849462 206.0 L 205.65591397849462 214.0" />
        <text x="205.65591397849462" font-family="-apple-system, system-ui, BlinkMacSystemFont, Roboto" y="216.0" dominant-baseline="hanging" text-anchor="middle" font-size="12" fill="#24292f">Apr 2022</text>
    
        
        <path stroke="#74838f"  stroke-width="2.0"  d="M 305.01075268817203 206.0 L 305.01075268817203 214.0" />
        <text x="305.01075268817203" font-family="-apple-system, system-ui, BlinkMacSystemFont, Roboto" y="216.0" dominant-baseline="hanging" text-anchor="middle" font-size="12" fill="#24292f">May 2022</text>
    
        
        <path stroke="#74838f"  stroke-width="2.0"  d="M 407.6774193548387 206.0 L 407.6774193548387 214.0" />
        <text x="407.6774193548387" font-family="-apple-system, system-ui, BlinkMacSystemFont, Roboto" y="216.0" dominant-baseline="hanging" text-anchor="middle" font-size="12" fill="#24292f">Jun 2022</text>
    
        
        <path stroke="#74838f"  stroke-width="2.0"  d="M 507.03225806451616 206.0 L 507.03225806451616 214.0" />
        <text x="507.03225806451616" font-family="-apple-system, system-ui, BlinkMacSystemFont, Roboto" y="216.0" dominant-baseline="hanging" text-anchor="middle" font-size="12" fill="#24292f">Jul 2022</text>
    
        
        <path stroke="#74838f"  stroke-width="2.0"  d="M 609.6989247311828 206.0 L 609.6989247311828 214.0" />
        <text x="609.6989247311828" font-family="-apple-system, system-ui, BlinkMacSystemFont, Roboto" y="216.0" dominant-baseline="hanging" text-anchor="middle" font-size="12" fill="#24292f">Aug 2022</text>
    
        
        <path stroke="#74838f"  stroke-width="2.0"  d="M 712.3655913978495 206.0 L 712.3655913978495 214.0" />
        <text x="712.3655913978495" font-family="-apple-system, system-ui, BlinkMacSystemFont, Roboto" y="216.0" dominant-baseline="hanging" text-anchor="middle" font-size="12" fill="#24292f">Sep 2022</text>
    
        
        <path stroke="#74838f"  stroke-width="2.0"  d="M 811.7204301075269 206.0 L 811.7204301075269 214.0" />
        <text x="811.7204301075269" font-family="-apple-system, system-ui, BlinkMacSystemFont, Roboto" y="216.0" dominant-baseline="hanging" text-anchor="middle" font-size="12" fill="#24292f">Oct 2022</text>
    
        
        <path stroke="#74838f"  stroke-width="2.0"  d="M 914.3870967741935 206.0 L 914.3870967741935 214.0" />
        <text x="914.3870967741935" font-family="-apple-system, system-ui, BlinkMacSystemFont, Roboto" y="216.0" dominant-baseline="hanging" text-anchor="middle" font-size="12" fill="#24292f">Nov 2022</text>
    
    <path stroke="#74838f"   stroke-linejoin="round" stroke-width="2.0" d="M 50.0 216.0 L 50.0 206.0 L 974.0 206.0 L 974.0 216.0"  fill="none" />
    <text x="512.0" y="25.0" font-family="-apple-system, system-ui, BlinkMacSystemFont, Roboto" dominant-baseline="middle" text-anchor="middle" font-size="18" fill="#24292f">Total daily suspensions</text>
</svg>
