<?xml version="1.0" standalone="no"?>
<svg width="1024.0" height="256.0"  viewBox="0 0 1024.0 256.0" preserveAspectRatio="xMidYMid meet" xmlns="http://www.w3.org/2000/svg">
    <path stroke="#e74c3c" stroke-linejoin="round" d="M 50.0 161.108 L 50 161.108L 52.808510638297875 193.664L 55.61702127659574 197.576L 58.42553191489362 197.924L 61.234042553191486 203.528L 64.04255319148936 199.94L 66.85106382978724 199.268L 69.65957446808511 191.108L 72.46808510638297 200.972L 75.27659574468085 198.62L 78.08510638297872 200L 80.8936170212766 202.57999999999998L 83.70212765957447 199.208L 86.51063829787233 195.608L 89.31914893617022 202.652L 92.12765957446808 198.716L 94.93617021276596 197.49200000000002L 97.74468085106383 191.42000000000002L 100.5531914893617 196.688L 103.36170212765958 199.46L 106.17021276595744 199.328L 108.9787234042553 198.308L 111.7872340425532 198.164L 114.59574468085106 199.832L 117.40425531914893 194.876L 120.2127659574468 199.904L 123.02127659574468 195.584L 125.82978723404256 200.732L 128.63829787234044 198.416L 131.44680851063828 190.652L 134.25531914893617 196.112L 137.06382978723406 190.82L 139.87234042553192 193.53199999999998L 142.68085106382978 199.688L 145.48936170212767 192.392L 148.29787234042553 197L 151.1063829787234 199.59199999999998L 153.91489361702128 193.54399999999998L 156.72340425531917 195.26L 159.53191489361703 195.428L 162.3404255319149 195.548L 165.14893617021278 196.484L 167.9574468085106 199.424L 170.7659574468085 199.22L 173.5744680851064 195.656L 176.38297872340425 193.952L 179.1914893617021 195.536L 182 198.764L 184.80851063829786 195.428L 187.61702127659575 194L 190.4255319148936 193.688L 193.23404255319147 186.32L 196.04255319148936 197.372L 198.85106382978722 195.96800000000002L 201.6595744680851 198.284L 204.46808510638297 194.38400000000001L 207.27659574468086 196.424L 210.08510638297872 196.988L 212.89361702127658 198.368L 215.70212765957447 198.05599999999998L 218.51063829787233 199.61599999999999L 221.31914893617022 191.54L 224.12765957446808 202.124L 226.93617021276594 193.34L 229.74468085106383 204.2L 232.5531914893617 206L 235.36170212765958 206L 238.17021276595744 206L 240.97872340425533 206L 243.7872340425532 190.472L 246.59574468085106 159.01999999999998L 249.40425531914894 193.56799999999998L 252.2127659574468 200.228L 255.0212765957447 193.232L 257.82978723404256 196.82L 260.63829787234044 199.772L 263.44680851063833 186.548L 266.25531914893617 197.888L 269.06382978723406 195.596L 271.8723404255319 190.508L 274.6808510638298 194.876L 277.48936170212767 190.4L 280.29787234042556 188.756L 283.10638297872345 197.852L 285.9148936170212 199.772L 288.72340425531917 191.936L 291.531914893617 191.864L 294.3404255319149 199.316L 297.1489361702128 194.72L 299.95744680851067 192.608L 302.7659574468085 194.9L 305.5744680851064 199.7L 308.3829787234042 189.224L 311.1914893617021 198.428L 314 196.136L 316.8085106382979 195.296L 319.6170212765957 196.268L 322.4255319148936 193.184L 325.2340425531915 197.204L 328.0425531914894 193.856L 330.8510638297872 197.096L 333.6595744680851 178.16L 336.46808510638294 194.372L 339.2765957446809 195.92000000000002L 342.0851063829787 195.11599999999999L 344.8936170212766 196.688L 347.70212765957444 197.49200000000002L 350.51063829787233 197.696L 353.3191489361702 186.848L 356.1276595744681 192.644L 358.93617021276594 199.61599999999999L 361.74468085106383 193.052L 364.5531914893617 191.072L 367.3617021276596 195.44L 370.17021276595744 196.184L 372.97872340425533 196.46L 375.78723404255317 197.312L 378.5957446808511 193.076L 381.40425531914894 206L 384.21276595744683 186.44L 387.02127659574467 186.632L 389.82978723404256 191.276L 392.63829787234044 180.93200000000002L 395.44680851063833 201.704L 398.25531914893617 185.744L 401.06382978723406 196.028L 403.8723404255319 189.464L 406.68085106382983 194.228L 409.48936170212767 195.632L 412.29787234042556 196.844L 415.1063829787234 186.332L 417.9148936170213 197.99599999999998L 420.72340425531917 188.924L 423.531914893617 189.128L 426.3404255319149 196.748L 429.1489361702127 182.45600000000002L 431.95744680851067 184.16L 434.7659574468085 206L 437.5744680851064 206L 440.3829787234042 206L 443.1914893617021 160.16L 446 198.536L 448.8085106382979 196.60399999999998L 451.6170212765957 195.668L 454.4255319148936 192.8L 457.23404255319144 196.964L 460.0425531914894 197.828L 462.8510638297872 200.84L 465.6595744680851 170.312L 468.46808510638294 189.236L 471.27659574468083 177.428L 474.0851063829787 191.564L 476.8936170212766 178.784L 479.70212765957444 176.372L 482.51063829787233 181.7L 485.3191489361702 187.472L 488.1276595744681 192.88400000000001L 490.93617021276594 189.38L 493.74468085106383 187.772L 496.55319148936167 189.404L 499.3617021276596 187.532L 502.17021276595744 193.59199999999998L 504.97872340425533 185.036L 507.78723404255317 171.332L 510.59574468085106 180.14L 513.404255319149 172.316L 516.2127659574469 193.028L 519.0212765957447 191.996L 521.8297872340424 193.052L 524.6382978723404 194.84L 527.4468085106383 193.53199999999998L 530.2553191489362 194.024L 533.063829787234 189.272L 535.872340425532 195.188L 538.6808510638298 196.256L 541.4893617021277 192.62L 544.2978723404256 190.844L 547.1063829787234 200.984L 549.9148936170213 184.796L 552.7234042553191 190.88L 555.531914893617 194.42000000000002L 558.3404255319149 189.86L 561.1489361702128 195.86L 563.9574468085107 191.984L 566.7659574468084 193.1L 569.5744680851064 186.464L 572.3829787234042 190.46L 575.1914893617021 182.156L 578 187.136L 580.8085106382979 191.528L 583.6170212765958 184.1L 586.4255319148937 189.14L 589.2340425531914 185.204L 592.0425531914894 185.468L 594.8510638297872 176.828L 597.6595744680851 189.04399999999998L 600.468085106383 191.048L 603.2765957446809 188.756L 606.0851063829788 187.592L 608.8936170212766 191.39600000000002L 611.7021276595744 187.796L 614.5106382978723 188.228L 617.3191489361702 190.268L 620.1276595744681 194.372L 622.9361702127659 194.72L 625.7446808510638 201.308L 628.5531914893618 192.752L 631.3617021276596 181.148L 634.1702127659574 181.748L 636.9787234042552 181.208L 639.7872340425532 191.3L 642.5957446808511 186.88400000000001L 645.4042553191489 181.376L 648.2127659574468 186.5L 651.0212765957447 188.44400000000002L 653.8297872340426 179.66L 656.6382978723404 183.09199999999998L 659.4468085106382 173.564L 662.2553191489362 183.836L 665.063829787234 171.668L 667.8723404255319 148.148L 670.6808510638298 178.004L 673.4893617021277 141.86L 676.2978723404256 186.128L 679.1063829787234 188.54000000000002L 681.9148936170212 187.748L 684.7234042553192 193.256L 687.531914893617 186.596L 690.3404255319149 185.42000000000002L 693.1489361702128 186.872L 695.9574468085107 185.372L 698.7659574468086 192.824L 701.5744680851063 188.552L 704.3829787234042 189.32L 707.1914893617022 186.632L 710 185.768L 712.8085106382979 188.744L 715.6170212765957 187.34L 718.4255319148937 192.488L 721.2340425531916 187.028L 724.0425531914893 185.468L 726.8510638297872 181.928L 729.6595744680851 183.8L 732.468085106383 180.296L 735.2765957446809 185.516L 738.0851063829787 194L 740.8936170212767 190.328L 743.7021276595744 186.584L 746.5106382978723 168.32L 749.3191489361702 117.5L 752.1276595744681 189.10399999999998L 754.936170212766 187.844L 757.7446808510638 190.28L 760.5531914893617 192.32L 763.3617021276597 189.2L 766.1702127659574 182.288L 768.9787234042553 188.49200000000002L 771.7872340425531 178.916L 774.5957446808511 53.432000000000016L 777.404255319149 162.656L 780.2127659574468 184.52L 783.0212765957447 182.708L 785.8297872340426 183.68L 788.6382978723404 184.196L 791.4468085106383 179.084L 794.2553191489361 190.16L 797.063829787234 180.476L 799.8723404255319 160.916L 802.6808510638298 121.196L 805.4893617021277 151.50799999999998L 808.2978723404254 164.132L 811.1063829787234 181.184L 813.9148936170213 170.49200000000002L 816.7234042553191 179.792L 819.531914893617 173.204L 822.3404255319149 178.352L 825.1489361702128 182.792L 827.9574468085107 177.152L 830.7659574468084 184.232L 833.5744680851064 187.796L 836.3829787234042 188.348L 839.1914893617021 184.736L 842 181.892L 844.8085106382979 181.796L 847.6170212765958 179.36L 850.4255319148936 168.176L 853.2340425531914 181.808L 856.0425531914894 185.372L 858.8510638297872 167.708L 861.6595744680851 140.6L 864.4680851063829 160.784L 867.2765957446809 151.664L 870.0851063829788 145.952L 872.8936170212766 155.288L 875.7021276595744 153.68L 878.5106382978723 163.04L 881.3191489361702 172.064L 884.1276595744681 148.952L 886.9361702127659 171.812L 889.7446808510639 172.46L 892.5531914893617 172.508L 895.3617021276596 183.644L 898.1702127659574 166.304L 900.9787234042553 159.26L 903.7872340425532 172.652L 906.595744680851 165.5L 909.4042553191489 154.892L 912.2127659574469 173.888L 915.0212765957447 176.3L 917.8297872340426 186.5L 920.6382978723404 183.932L 923.4468085106383 183.10399999999998L 926.2553191489362 150.128L 929.063829787234 183.11599999999999L 931.8723404255319 186.152L 934.6808510638298 185.096L 937.4893617021277 182.276L 940.2978723404256 182.18L 943.1063829787233 182.144L 945.9148936170213 174.956L 948.7234042553192 181.988L 951.531914893617 179.504L 954.3404255319149 184.784L 957.1489361702128 179L 959.9574468085107 175.868L 962.7659574468086 177.14L 965.5744680851063 178.832L 968.3829787234043 182.216L 971.1914893617021 176.444L 974 199.844" stroke-width="2.0" fill="none" />
    
        
        
        <text x="45.0" font-family="-apple-system, system-ui, BlinkMacSystemFont, Roboto" y="50.0" dominant-baseline="middle" text-anchor="end" font-size="12" fill="#24292f">13000.0</text>
        
            
            <path stroke="#74838f" stroke-dasharray="10 6" stroke-width="0.5"  d="M 50.0 50.0 L 974.0 50.0" />
        
    
        
        
        <text x="45.0" font-family="-apple-system, system-ui, BlinkMacSystemFont, Roboto" y="81.2" dominant-baseline="middle" text-anchor="end" font-size="12" fill="#24292f">10400.0</text>
        
            
            
            <path stroke="#74838f" stroke-dasharray="10 6" stroke-width="0.5"  d="M 50.0 81.2 L 974.0 81.2" />
        
    
        
        
        <text x="45.0" font-family="-apple-system, system-ui, BlinkMacSystemFont, Roboto" y="112.4" dominant-baseline="middle" text-anchor="end" font-size="12" fill="#24292f">7800.0</text>
        
            
            
            <path stroke="#74838f" stroke-dasharray="10 6" stroke-width="0.5"  d="M 50.0 112.4 L 974.0 112.4" />
        
    
        
        
        <text x="45.0" font-family="-apple-system, system-ui, BlinkMacSystemFont, Roboto" y="143.6" dominant-baseline="middle" text-anchor="end" font-size="12" fill="#24292f">5200.0</text>
        
            
            
            <path stroke="#74838f" stroke-dasharray="10 6" stroke-width="0.5"  d="M 50.0 143.6 L 974.0 143.6" />
        
    
        
        
        <text x="45.0" font-family="-apple-system, system-ui, BlinkMacSystemFont, Roboto" y="174.8" dominant-baseline="middle" text-anchor="end" font-size="12" fill="#24292f">2600.0</text>
        
            
            
            <path stroke="#74838f" stroke-dasharray="10 6" stroke-width="0.5"  d="M 50.0 174.8 L 974.0 174.8" />
        
    
        
        
        <text x="45.0" font-family="-apple-system, system-ui, BlinkMacSystemFont, Roboto" y="206.0" dominant-baseline="middle" text-anchor="end" font-size="12" fill="#24292f">0.0</text>
        
    
    
        
        <path stroke="#74838f"  stroke-width="2.0"  d="M 94.93617021276596 206.0 L 94.93617021276596 214.0" />
        <text x="94.93617021276596" font-family="-apple-system, system-ui, BlinkMacSystemFont, Roboto" y="216.0" dominant-baseline="hanging" text-anchor="middle" font-size="12" fill="#24292f">Mar 2022</text>
    
        
        <path stroke="#74838f"  stroke-width="2.0"  d="M 182.0 206.0 L 182.0 214.0" />
        <text x="182.0" font-family="-apple-system, system-ui, BlinkMacSystemFont, Roboto" y="216.0" dominant-baseline="hanging" text-anchor="middle" font-size="12" fill="#24292f">Apr 2022</text>
    
        
        <path stroke="#74838f"  stroke-width="2.0"  d="M 266.25531914893617 206.0 L 266.25531914893617 214.0" />
        <text x="266.25531914893617" font-family="-apple-system, system-ui, BlinkMacSystemFont, Roboto" y="216.0" dominant-baseline="hanging" text-anchor="middle" font-size="12" fill="#24292f">May 2022</text>
    
        
        <path stroke="#74838f"  stroke-width="2.0"  d="M 353.3191489361702 206.0 L 353.3191489361702 214.0" />
        <text x="353.3191489361702" font-family="-apple-system, system-ui, BlinkMacSystemFont, Roboto" y="216.0" dominant-baseline="hanging" text-anchor="middle" font-size="12" fill="#24292f">Jun 2022</text>
    
        
        <path stroke="#74838f"  stroke-width="2.0"  d="M 437.5744680851064 206.0 L 437.5744680851064 214.0" />
        <text x="437.5744680851064" font-family="-apple-system, system-ui, BlinkMacSystemFont, Roboto" y="216.0" dominant-baseline="hanging" text-anchor="middle" font-size="12" fill="#24292f">Jul 2022</text>
    
        
        <path stroke="#74838f"  stroke-width="2.0"  d="M 524.6382978723404 206.0 L 524.6382978723404 214.0" />
        <text x="524.6382978723404" font-family="-apple-system, system-ui, BlinkMacSystemFont, Roboto" y="216.0" dominant-baseline="hanging" text-anchor="middle" font-size="12" fill="#24292f">Aug 2022</text>
    
        
        <path stroke="#74838f"  stroke-width="2.0"  d="M 611.7021276595744 206.0 L 611.7021276595744 214.0" />
        <text x="611.7021276595744" font-family="-apple-system, system-ui, BlinkMacSystemFont, Roboto" y="216.0" dominant-baseline="hanging" text-anchor="middle" font-size="12" fill="#24292f">Sep 2022</text>
    
        
        <path stroke="#74838f"  stroke-width="2.0"  d="M 695.9574468085107 206.0 L 695.9574468085107 214.0" />
        <text x="695.9574468085107" font-family="-apple-system, system-ui, BlinkMacSystemFont, Roboto" y="216.0" dominant-baseline="hanging" text-anchor="middle" font-size="12" fill="#24292f">Oct 2022</text>
    
        
        <path stroke="#74838f"  stroke-width="2.0"  d="M 783.0212765957447 206.0 L 783.0212765957447 214.0" />
        <text x="783.0212765957447" font-family="-apple-system, system-ui, BlinkMacSystemFont, Roboto" y="216.0" dominant-baseline="hanging" text-anchor="middle" font-size="12" fill="#24292f">Nov 2022</text>
    
        
        <path stroke="#74838f"  stroke-width="2.0"  d="M 867.2765957446809 206.0 L 867.2765957446809 214.0" />
        <text x="867.2765957446809" font-family="-apple-system, system-ui, BlinkMacSystemFont, Roboto" y="216.0" dominant-baseline="hanging" text-anchor="middle" font-size="12" fill="#24292f">Dec 2022</text>
    
        
        <path stroke="#74838f"  stroke-width="2.0"  d="M 954.3404255319149 206.0 L 954.3404255319149 214.0" />
        <text x="954.3404255319149" font-family="-apple-system, system-ui, BlinkMacSystemFont, Roboto" y="216.0" dominant-baseline="hanging" text-anchor="middle" font-size="12" fill="#24292f">Jan 2023</text>
    
    <path stroke="#74838f"   stroke-linejoin="round" stroke-width="2.0" d="M 50.0 216.0 L 50.0 206.0 L 974.0 206.0 L 974.0 216.0"  fill="none" />
    <text x="512.0" y="25.0" font-family="-apple-system, system-ui, BlinkMacSystemFont, Roboto" dominant-baseline="middle" text-anchor="middle" font-size="18" fill="#24292f">Total daily suspensions</text>
</svg>
