<?xml version="1.0" standalone="no"?>
<svg width="1024.0" height="256.0"  viewBox="0 0 1024.0 256.0" preserveAspectRatio="xMidYMid meet" xmlns="http://www.w3.org/2000/svg">
    <path stroke="#e74c3c" stroke-linejoin="round" d="M 50.0 161.108 L 50 161.108L 52.77477477477478 193.664L 55.54954954954955 197.576L 58.32432432432432 197.924L 61.0990990990991 203.528L 63.873873873873876 199.94L 66.64864864864865 199.268L 69.42342342342343 191.108L 72.1981981981982 200.972L 74.97297297297297 198.62L 77.74774774774775 200L 80.52252252252252 202.57999999999998L 83.29729729729729 199.208L 86.07207207207207 195.608L 88.84684684684686 202.652L 91.62162162162161 198.716L 94.3963963963964 197.49200000000002L 97.17117117117118 191.42000000000002L 99.94594594594595 196.688L 102.72072072072072 199.46L 105.4954954954955 199.328L 108.27027027027026 198.308L 111.04504504504504 198.164L 113.81981981981983 199.832L 116.5945945945946 194.876L 119.36936936936937 199.904L 122.14414414414415 195.584L 124.91891891891892 200.732L 127.6936936936937 198.416L 130.46846846846847 190.652L 133.24324324324323 196.112L 136.018018018018 190.82L 138.7927927927928 193.53199999999998L 141.56756756756755 199.688L 144.34234234234236 192.392L 147.11711711711712 197L 149.8918918918919 199.59199999999998L 152.66666666666666 193.54399999999998L 155.44144144144144 195.26L 158.2162162162162 195.428L 160.990990990991 195.548L 163.76576576576576 196.484L 166.54054054054052 199.424L 169.31531531531533 199.22L 172.0900900900901 195.656L 174.86486486486487 193.952L 177.63963963963965 195.536L 180.41441441441444 198.764L 183.1891891891892 195.428L 185.96396396396395 194L 188.73873873873873 193.688L 191.51351351351352 186.32L 194.2882882882883 197.372L 197.06306306306305 195.96800000000002L 199.83783783783784 198.284L 202.61261261261262 194.38400000000001L 205.3873873873874 196.424L 208.16216216216216 196.988L 210.93693693693692 198.368L 213.71171171171173 198.05599999999998L 216.48648648648648 199.61599999999999L 219.26126126126127 191.54L 222.03603603603602 202.124L 224.8108108108108 193.34L 227.5855855855856 204.2L 230.36036036036035 206L 233.13513513513513 206L 235.9099099099099 206L 238.6846846846847 206L 241.45945945945945 190.472L 244.23423423423424 159.01999999999998L 247.009009009009 193.56799999999998L 249.7837837837838 200.228L 252.55855855855856 193.232L 255.33333333333331 196.82L 258.1081081081081 199.772L 260.8828828828829 186.548L 263.65765765765764 197.888L 266.4324324324324 195.596L 269.2072072072072 190.508L 271.981981981982 194.876L 274.7567567567568 190.4L 277.5315315315315 188.756L 280.3063063063063 197.852L 283.08108108108104 199.772L 285.8558558558559 191.936L 288.63063063063066 191.864L 291.4054054054054 199.316L 294.1801801801802 194.72L 296.954954954955 192.608L 299.72972972972974 194.9L 302.5045045045045 199.7L 305.2792792792793 189.224L 308.054054054054 198.428L 310.8288288288289 196.136L 313.60360360360363 195.296L 316.3783783783784 196.268L 319.15315315315314 193.184L 321.9279279279279 197.204L 324.7027027027027 193.856L 327.47747747747746 197.096L 330.2522522522522 178.16L 333.02702702702703 194.372L 335.80180180180184 195.92000000000002L 338.5765765765766 195.11599999999999L 341.35135135135135 196.688L 344.1261261261261 197.49200000000002L 346.90090090090087 197.696L 349.6756756756757 186.848L 352.45045045045043 192.644L 355.22522522522524 199.61599999999999L 358 193.052L 360.7747747747748 191.072L 363.54954954954957 195.44L 366.3243243243243 196.184L 369.0990990990991 196.46L 371.87387387387383 197.312L 374.64864864864865 193.076L 377.42342342342346 206L 380.1981981981982 186.44L 382.97297297297297 186.632L 385.7477477477478 191.276L 388.52252252252254 180.93200000000002L 391.2972972972973 201.704L 394.07207207207205 185.744L 396.8468468468468 196.028L 399.6216216216216 189.464L 402.3963963963964 194.228L 405.1711711711712 195.632L 407.94594594594594 196.844L 410.7207207207207 186.332L 413.4954954954955 197.99599999999998L 416.27027027027026 188.924L 419.045045045045 189.128L 421.8198198198198 196.748L 424.59459459459464 182.45600000000002L 427.3693693693694 184.16L 430.14414414414415 206L 432.9189189189189 206L 435.69369369369366 206L 438.4684684684685 160.16L 441.2432432432432 198.536L 444.018018018018 196.60399999999998L 446.7927927927928 195.668L 449.5675675675676 192.8L 452.34234234234236 196.964L 455.1171171171171 197.828L 457.8918918918919 200.84L 460.66666666666663 170.312L 463.44144144144144 189.236L 466.2162162162162 177.428L 468.990990990991 191.564L 471.76576576576576 178.784L 474.5405405405406 176.372L 477.31531531531533 181.7L 480.0900900900901 187.472L 482.86486486486484 192.88400000000001L 485.6396396396396 189.38L 488.4144144144144 187.772L 491.1891891891892 189.404L 493.963963963964 187.532L 496.73873873873873 193.59199999999998L 499.51351351351354 185.036L 502.2882882882883 171.332L 505.06306306306305 180.14L 507.8378378378378 172.316L 510.61261261261257 193.028L 513.3873873873874 191.996L 516.1621621621621 193.052L 518.936936936937 194.84L 521.7117117117118 193.53199999999998L 524.4864864864865 194.024L 527.2612612612613 189.272L 530.036036036036 195.188L 532.8108108108108 196.256L 535.5855855855856 192.62L 538.3603603603603 190.844L 541.1351351351352 200.984L 543.90990990991 184.796L 546.6846846846847 190.88L 549.4594594594595 194.42000000000002L 552.2342342342342 189.86L 555.009009009009 195.86L 557.7837837837837 191.984L 560.5585585585586 193.1L 563.3333333333334 186.464L 566.108108108108 190.46L 568.8828828828829 182.156L 571.6576576576578 187.136L 574.4324324324324 191.528L 577.2072072072073 184.1L 579.9819819819819 189.14L 582.7567567567568 185.204L 585.5315315315315 185.468L 588.3063063063063 176.828L 591.081081081081 189.04399999999998L 593.8558558558558 191.048L 596.6306306306307 188.756L 599.4054054054054 187.592L 602.1801801801802 191.39600000000002L 604.9549549549549 187.796L 607.7297297297298 188.228L 610.5045045045044 190.268L 613.2792792792793 194.372L 616.0540540540541 194.72L 618.8288288288288 201.308L 621.6036036036037 192.752L 624.3783783783783 181.148L 627.1531531531532 181.748L 629.9279279279278 181.208L 632.7027027027027 191.3L 635.4774774774775 186.88400000000001L 638.2522522522522 181.376L 641.0270270270271 186.5L 643.8018018018017 188.44400000000002L 646.5765765765766 179.66L 649.3513513513514 183.09199999999998L 652.1261261261261 173.564L 654.9009009009009 183.836L 657.6756756756757 171.668L 660.4504504504505 148.148L 663.2252252252252 178.004L 666 141.86L 668.7747747747748 186.128L 671.5495495495496 188.54000000000002L 674.3243243243243 187.748L 677.0990990990991 193.256L 679.8738738738739 186.596L 682.6486486486486 185.42000000000002L 685.4234234234235 186.872L 688.1981981981982 185.372L 690.972972972973 192.824L 693.7477477477477 188.552L 696.5225225225225 189.32L 699.2972972972973 186.632L 702.072072072072 185.768L 704.8468468468469 188.744L 707.6216216216216 187.34L 710.3963963963964 192.488L 713.1711711711712 187.028L 715.9459459459459 185.468L 718.7207207207207 181.928L 721.4954954954956 183.8L 724.2702702702702 180.296L 727.0450450450451 185.516L 729.8198198198198 194L 732.5945945945946 190.328L 735.3693693693695 186.584L 738.1441441441441 168.32L 740.918918918919 117.5L 743.6936936936936 189.10399999999998L 746.4684684684685 187.844L 749.2432432432432 190.28L 752.018018018018 192.32L 754.7927927927929 189.2L 757.5675675675675 182.288L 760.3423423423424 188.49200000000002L 763.1171171171171 178.916L 765.8918918918919 53.432000000000016L 768.6666666666666 162.656L 771.4414414414414 184.52L 774.2162162162163 182.708L 776.990990990991 183.68L 779.7657657657658 184.196L 782.5405405405405 179.084L 785.3153153153154 190.16L 788.09009009009 180.476L 790.8648648648649 160.916L 793.6396396396397 121.196L 796.4144144144144 151.50799999999998L 799.1891891891893 164.132L 801.9639639639639 181.184L 804.7387387387388 170.49200000000002L 807.5135135135134 179.792L 810.2882882882883 173.204L 813.063063063063 178.352L 815.8378378378378 182.792L 818.6126126126127 177.152L 821.3873873873873 184.232L 824.1621621621622 187.796L 826.936936936937 188.348L 829.7117117117117 184.736L 832.4864864864865 181.892L 835.2612612612613 181.796L 838.036036036036 179.36L 840.8108108108108 168.176L 843.5855855855856 181.808L 846.3603603603603 185.372L 849.1351351351352 167.708L 851.9099099099099 140.6L 854.6846846846847 160.784L 857.4594594594594 151.664L 860.2342342342342 145.952L 863.0090090090091 155.288L 865.7837837837837 153.68L 868.5585585585586 163.04L 871.3333333333333 172.064L 874.1081081081081 148.952L 876.8828828828829 171.812L 879.6576576576576 172.46L 882.4324324324324 172.508L 885.2072072072071 183.644L 887.981981981982 166.304L 890.7567567567568 159.26L 893.5315315315315 172.652L 896.3063063063063 165.5L 899.0810810810812 154.892L 901.8558558558558 173.888L 904.6306306306307 176.3L 907.4054054054054 186.5L 910.1801801801802 183.932L 912.954954954955 183.10399999999998L 915.7297297297297 150.128L 918.5045045045046 183.11599999999999L 921.2792792792792 186.152L 924.0540540540541 185.096L 926.8288288288288 182.276L 929.6036036036036 182.18L 932.3783783783784 182.144L 935.1531531531531 174.956L 937.927927927928 181.988L 940.7027027027027 179.504L 943.4774774774775 184.784L 946.2522522522522 179L 949.0270270270271 175.868L 951.8018018018018 177.14L 954.5765765765766 178.832L 957.3513513513514 182.216L 960.1261261261261 176.444L 962.900900900901 182.576L 965.6756756756756 177.02L 968.4504504504505 178.58L 971.2252252252251 182.144L 974 198.764" stroke-width="2.0" fill="none" />
    
        
        
        <text x="45.0" font-family="-apple-system, system-ui, BlinkMacSystemFont, Roboto" y="50.0" dominant-baseline="middle" text-anchor="end" font-size="12" fill="#24292f">13000.0</text>
        
            
            <path stroke="#74838f" stroke-dasharray="10 6" stroke-width="0.5"  d="M 50.0 50.0 L 974.0 50.0" />
        
    
        
        
        <text x="45.0" font-family="-apple-system, system-ui, BlinkMacSystemFont, Roboto" y="81.2" dominant-baseline="middle" text-anchor="end" font-size="12" fill="#24292f">10400.0</text>
        
            
            
            <path stroke="#74838f" stroke-dasharray="10 6" stroke-width="0.5"  d="M 50.0 81.2 L 974.0 81.2" />
        
    
        
        
        <text x="45.0" font-family="-apple-system, system-ui, BlinkMacSystemFont, Roboto" y="112.4" dominant-baseline="middle" text-anchor="end" font-size="12" fill="#24292f">7800.0</text>
        
            
            
            <path stroke="#74838f" stroke-dasharray="10 6" stroke-width="0.5"  d="M 50.0 112.4 L 974.0 112.4" />
        
    
        
        
        <text x="45.0" font-family="-apple-system, system-ui, BlinkMacSystemFont, Roboto" y="143.6" dominant-baseline="middle" text-anchor="end" font-size="12" fill="#24292f">5200.0</text>
        
            
            
            <path stroke="#74838f" stroke-dasharray="10 6" stroke-width="0.5"  d="M 50.0 143.6 L 974.0 143.6" />
        
    
        
        
        <text x="45.0" font-family="-apple-system, system-ui, BlinkMacSystemFont, Roboto" y="174.8" dominant-baseline="middle" text-anchor="end" font-size="12" fill="#24292f">2600.0</text>
        
            
            
            <path stroke="#74838f" stroke-dasharray="10 6" stroke-width="0.5"  d="M 50.0 174.8 L 974.0 174.8" />
        
    
        
        
        <text x="45.0" font-family="-apple-system, system-ui, BlinkMacSystemFont, Roboto" y="206.0" dominant-baseline="middle" text-anchor="end" font-size="12" fill="#24292f">0.0</text>
        
    
    
        
        <path stroke="#74838f"  stroke-width="2.0"  d="M 94.3963963963964 206.0 L 94.3963963963964 214.0" />
        <text x="94.3963963963964" font-family="-apple-system, system-ui, BlinkMacSystemFont, Roboto" y="216.0" dominant-baseline="hanging" text-anchor="middle" font-size="12" fill="#24292f">Mar 2022</text>
    
        
        <path stroke="#74838f"  stroke-width="2.0"  d="M 180.41441441441444 206.0 L 180.41441441441444 214.0" />
        <text x="180.41441441441444" font-family="-apple-system, system-ui, BlinkMacSystemFont, Roboto" y="216.0" dominant-baseline="hanging" text-anchor="middle" font-size="12" fill="#24292f">Apr 2022</text>
    
        
        <path stroke="#74838f"  stroke-width="2.0"  d="M 263.65765765765764 206.0 L 263.65765765765764 214.0" />
        <text x="263.65765765765764" font-family="-apple-system, system-ui, BlinkMacSystemFont, Roboto" y="216.0" dominant-baseline="hanging" text-anchor="middle" font-size="12" fill="#24292f">May 2022</text>
    
        
        <path stroke="#74838f"  stroke-width="2.0"  d="M 349.6756756756757 206.0 L 349.6756756756757 214.0" />
        <text x="349.6756756756757" font-family="-apple-system, system-ui, BlinkMacSystemFont, Roboto" y="216.0" dominant-baseline="hanging" text-anchor="middle" font-size="12" fill="#24292f">Jun 2022</text>
    
        
        <path stroke="#74838f"  stroke-width="2.0"  d="M 432.9189189189189 206.0 L 432.9189189189189 214.0" />
        <text x="432.9189189189189" font-family="-apple-system, system-ui, BlinkMacSystemFont, Roboto" y="216.0" dominant-baseline="hanging" text-anchor="middle" font-size="12" fill="#24292f">Jul 2022</text>
    
        
        <path stroke="#74838f"  stroke-width="2.0"  d="M 518.936936936937 206.0 L 518.936936936937 214.0" />
        <text x="518.936936936937" font-family="-apple-system, system-ui, BlinkMacSystemFont, Roboto" y="216.0" dominant-baseline="hanging" text-anchor="middle" font-size="12" fill="#24292f">Aug 2022</text>
    
        
        <path stroke="#74838f"  stroke-width="2.0"  d="M 604.9549549549549 206.0 L 604.9549549549549 214.0" />
        <text x="604.9549549549549" font-family="-apple-system, system-ui, BlinkMacSystemFont, Roboto" y="216.0" dominant-baseline="hanging" text-anchor="middle" font-size="12" fill="#24292f">Sep 2022</text>
    
        
        <path stroke="#74838f"  stroke-width="2.0"  d="M 688.1981981981982 206.0 L 688.1981981981982 214.0" />
        <text x="688.1981981981982" font-family="-apple-system, system-ui, BlinkMacSystemFont, Roboto" y="216.0" dominant-baseline="hanging" text-anchor="middle" font-size="12" fill="#24292f">Oct 2022</text>
    
        
        <path stroke="#74838f"  stroke-width="2.0"  d="M 774.2162162162163 206.0 L 774.2162162162163 214.0" />
        <text x="774.2162162162163" font-family="-apple-system, system-ui, BlinkMacSystemFont, Roboto" y="216.0" dominant-baseline="hanging" text-anchor="middle" font-size="12" fill="#24292f">Nov 2022</text>
    
        
        <path stroke="#74838f"  stroke-width="2.0"  d="M 857.4594594594594 206.0 L 857.4594594594594 214.0" />
        <text x="857.4594594594594" font-family="-apple-system, system-ui, BlinkMacSystemFont, Roboto" y="216.0" dominant-baseline="hanging" text-anchor="middle" font-size="12" fill="#24292f">Dec 2022</text>
    
        
        <path stroke="#74838f"  stroke-width="2.0"  d="M 943.4774774774775 206.0 L 943.4774774774775 214.0" />
        <text x="943.4774774774775" font-family="-apple-system, system-ui, BlinkMacSystemFont, Roboto" y="216.0" dominant-baseline="hanging" text-anchor="middle" font-size="12" fill="#24292f">Jan 2023</text>
    
    <path stroke="#74838f"   stroke-linejoin="round" stroke-width="2.0" d="M 50.0 216.0 L 50.0 206.0 L 974.0 206.0 L 974.0 216.0"  fill="none" />
    <text x="512.0" y="25.0" font-family="-apple-system, system-ui, BlinkMacSystemFont, Roboto" dominant-baseline="middle" text-anchor="middle" font-size="18" fill="#24292f">Total daily suspensions</text>
</svg>
