<?xml version="1.0" standalone="no"?>
<svg width="1024.0" height="256.0"  viewBox="0 0 1024.0 256.0" preserveAspectRatio="xMidYMid meet" xmlns="http://www.w3.org/2000/svg">
    <path stroke="#e74c3c" stroke-linejoin="round" d="M 50.0 161.108 L 50 161.108L 52.497297297297294 193.664L 54.994594594594595 197.576L 57.491891891891896 197.924L 59.98918918918919 203.528L 62.486486486486484 199.94L 64.98378378378379 199.268L 67.48108108108109 191.108L 69.97837837837838 200.972L 72.47567567567567 198.62L 74.97297297297297 200L 77.47027027027028 202.57999999999998L 79.96756756756757 199.208L 82.46486486486486 195.608L 84.96216216216217 202.652L 87.45945945945945 198.716L 89.95675675675676 197.49200000000002L 92.45405405405405 191.42000000000002L 94.95135135135135 196.688L 97.44864864864866 199.46L 99.94594594594595 199.328L 102.44324324324324 198.308L 104.94054054054055 198.164L 107.43783783783783 199.832L 109.93513513513514 194.876L 112.43243243243244 199.904L 114.92972972972973 195.584L 117.42702702702704 200.732L 119.92432432432433 198.416L 122.42162162162163 190.652L 124.91891891891892 196.112L 127.41621621621623 190.82L 129.91351351351352 193.53199999999998L 132.4108108108108 199.688L 134.9081081081081 192.392L 137.40540540540542 197L 139.9027027027027 199.59199999999998L 142.4 193.54399999999998L 144.8972972972973 195.26L 147.3945945945946 195.428L 149.8918918918919 195.548L 152.3891891891892 196.484L 154.8864864864865 199.424L 157.38378378378377 199.22L 159.8810810810811 195.656L 162.3783783783784 193.952L 164.87567567567567 195.536L 167.37297297297297 198.764L 169.87027027027028 195.428L 172.36756756756756 194L 174.86486486486487 193.688L 177.36216216216218 186.32L 179.85945945945946 197.372L 182.35675675675677 195.96800000000002L 184.85405405405407 198.284L 187.35135135135135 194.38400000000001L 189.84864864864866 196.424L 192.34594594594594 196.988L 194.84324324324325 198.368L 197.34054054054056 198.05599999999998L 199.83783783783784 199.61599999999999L 202.33513513513515 191.54L 204.83243243243246 202.124L 207.32972972972973 193.34L 209.82702702702704 204.2L 212.32432432432432 206L 214.82162162162163 206L 217.31891891891894 206L 219.81621621621622 206L 222.31351351351353 190.472L 224.8108108108108 159.01999999999998L 227.30810810810812 193.56799999999998L 229.80540540540542 200.228L 232.3027027027027 193.232L 234.8 196.82L 237.29729729729732 199.772L 239.7945945945946 186.548L 242.2918918918919 197.888L 244.7891891891892 195.596L 247.2864864864865 190.508L 249.7837837837838 194.876L 252.28108108108108 190.4L 254.7783783783784 188.756L 257.2756756756757 197.852L 259.772972972973 199.772L 262.2702702702703 191.936L 264.76756756756754 191.864L 267.2648648648649 199.316L 269.7621621621622 194.72L 272.25945945945944 192.608L 274.7567567567568 194.9L 277.2540540540541 199.7L 279.75135135135133 189.224L 282.24864864864867 198.428L 284.74594594594595 196.136L 287.2432432432432 195.296L 289.74054054054056 196.268L 292.2378378378378 193.184L 294.7351351351351 197.204L 297.23243243243246 193.856L 299.72972972972974 197.096L 302.227027027027 178.16L 304.72432432432436 194.372L 307.22162162162164 195.92000000000002L 309.7189189189189 195.11599999999999L 312.2162162162162 196.688L 314.71351351351353 197.49200000000002L 317.2108108108108 197.696L 319.70810810810815 186.848L 322.2054054054054 192.644L 324.7027027027027 199.61599999999999L 327.2 193.052L 329.6972972972973 191.072L 332.1945945945946 195.44L 334.6918918918919 196.184L 337.18918918918916 196.46L 339.6864864864865 197.312L 342.1837837837838 193.076L 344.6810810810811 206L 347.1783783783784 186.44L 349.6756756756757 186.632L 352.17297297297296 191.276L 354.6702702702703 180.93200000000002L 357.1675675675676 201.704L 359.6648648648649 185.744L 362.16216216216213 196.028L 364.65945945945947 189.464L 367.15675675675675 194.228L 369.6540540540541 195.632L 372.15135135135137 196.844L 374.64864864864865 186.332L 377.1459459459459 197.99599999999998L 379.64324324324326 188.924L 382.14054054054054 189.128L 384.6378378378379 196.748L 387.1351351351351 182.45600000000002L 389.63243243243244 184.16L 392.1297297297297 206L 394.62702702702705 206L 397.12432432432433 206L 399.6216216216216 160.16L 402.1189189189189 198.536L 404.61621621621623 196.60399999999998L 407.1135135135135 195.668L 409.61081081081085 192.8L 412.1081081081081 196.964L 414.6054054054054 197.828L 417.1027027027027 200.84L 419.6 170.312L 422.0972972972973 189.236L 424.59459459459464 177.428L 427.09189189189186 191.564L 429.5891891891892 178.784L 432.0864864864865 176.372L 434.5837837837838 181.7L 437.0810810810811 187.472L 439.5783783783784 192.88400000000001L 442.07567567567565 189.38L 444.572972972973 187.772L 447.07027027027027 189.404L 449.5675675675676 187.532L 452.0648648648649 193.59199999999998L 454.56216216216217 185.036L 457.05945945945945 171.332L 459.5567567567568 180.14L 462.05405405405406 172.316L 464.5513513513514 193.028L 467.0486486486486 191.996L 469.54594594594596 193.052L 472.04324324324324 194.84L 474.5405405405406 193.53199999999998L 477.03783783783786 194.024L 479.53513513513514 189.272L 482.0324324324324 195.188L 484.52972972972975 196.256L 487.02702702702703 192.62L 489.52432432432437 190.844L 492.02162162162165 200.984L 494.5189189189189 184.796L 497.0162162162162 190.88L 499.51351351351354 194.42000000000002L 502.0108108108108 189.86L 504.50810810810816 195.86L 507.0054054054054 191.984L 509.5027027027027 193.1L 512 186.464L 514.4972972972973 190.46L 516.9945945945946 182.156L 519.4918918918919 187.136L 521.9891891891891 191.528L 524.4864864864865 184.1L 526.9837837837838 189.14L 529.4810810810811 185.204L 531.9783783783784 185.468L 534.4756756756756 176.816L 536.9729729729729 189.04399999999998L 539.4702702702702 191.048L 541.9675675675676 188.756L 544.4648648648649 187.592L 546.962162162162 191.39600000000002L 549.4594594594595 187.796L 551.9567567567567 188.228L 554.454054054054 190.268L 556.9513513513514 194.372L 559.4486486486487 194.72L 561.9459459459459 201.308L 564.4432432432433 192.752L 566.9405405405405 181.148L 569.4378378378378 181.748L 571.9351351351352 181.208L 574.4324324324324 191.3L 576.9297297297297 186.88400000000001L 579.4270270270271 181.376L 581.9243243243243 186.5L 584.4216216216216 188.44400000000002L 586.9189189189188 179.66L 589.4162162162163 183.09199999999998L 591.9135135135135 173.564L 594.4108108108107 183.836L 596.9081081081081 171.668L 599.4054054054054 148.148L 601.9027027027028 178.004L 604.4 141.86L 606.8972972972972 186.128L 609.3945945945947 188.54000000000002L 611.8918918918919 187.748L 614.3891891891892 193.256L 616.8864864864864 186.596L 619.3837837837838 185.42000000000002L 621.8810810810811 186.872L 624.3783783783783 185.372L 626.8756756756757 192.824L 629.372972972973 188.552L 631.8702702702702 189.32L 634.3675675675676 186.632L 636.8648648648648 185.768L 639.3621621621622 188.744L 641.8594594594595 187.34L 644.3567567567568 192.488L 646.854054054054 187.028L 649.3513513513514 185.468L 651.8486486486487 181.928L 654.3459459459459 183.8L 656.8432432432433 180.296L 659.3405405405406 185.516L 661.8378378378378 194L 664.3351351351351 190.328L 666.8324324324324 186.584L 669.3297297297298 168.32L 671.827027027027 117.5L 674.3243243243243 189.10399999999998L 676.8216216216216 187.844L 679.3189189189189 190.28L 681.8162162162163 192.32L 684.3135135135135 189.2L 686.8108108108107 182.288L 689.3081081081082 188.49200000000002L 691.8054054054054 178.916L 694.3027027027027 53.432000000000016L 696.8 162.656L 699.2972972972973 184.52L 701.7945945945946 182.708L 704.2918918918919 183.68L 706.7891891891892 184.196L 709.2864864864865 179.084L 711.7837837837837 190.16L 714.2810810810811 180.476L 716.7783783783783 160.916L 719.2756756756758 121.196L 721.772972972973 151.50799999999998L 724.2702702702702 164.132L 726.7675675675675 181.184L 729.2648648648649 170.49200000000002L 731.7621621621622 179.792L 734.2594594594594 173.204L 736.7567567567568 178.352L 739.2540540540541 182.792L 741.7513513513513 177.152L 744.2486486486487 184.232L 746.7459459459459 187.796L 749.2432432432432 188.348L 751.7405405405406 184.736L 754.2378378378378 181.892L 756.7351351351351 181.796L 759.2324324324325 179.36L 761.7297297297298 168.176L 764.227027027027 181.808L 766.7243243243242 185.372L 769.2216216216217 167.708L 771.7189189189189 140.6L 774.2162162162163 160.784L 776.7135135135135 151.664L 779.2108108108108 145.952L 781.7081081081081 155.288L 784.2054054054054 153.68L 786.7027027027027 163.04L 789.2 172.064L 791.6972972972973 148.952L 794.1945945945946 171.812L 796.6918918918918 172.46L 799.1891891891893 172.508L 801.6864864864865 183.644L 804.1837837837837 166.304L 806.6810810810811 159.26L 809.1783783783784 172.652L 811.6756756756757 165.5L 814.172972972973 154.892L 816.6702702702702 173.888L 819.1675675675676 176.3L 821.6648648648649 186.5L 824.1621621621622 183.932L 826.6594594594594 183.10399999999998L 829.1567567567567 150.128L 831.6540540540541 183.11599999999999L 834.1513513513513 186.152L 836.6486486486486 185.096L 839.145945945946 182.276L 841.6432432432432 182.18L 844.1405405405405 182.144L 846.6378378378378 174.956L 849.1351351351352 181.988L 851.6324324324324 179.504L 854.1297297297298 184.784L 856.627027027027 179L 859.1243243243243 175.868L 861.6216216216217 177.14L 864.1189189189189 178.832L 866.6162162162162 182.216L 869.1135135135136 176.444L 871.6108108108108 182.576L 874.1081081081081 177.02L 876.6054054054053 178.58L 879.1027027027028 182.144L 881.6 179.48L 884.0972972972972 176.972L 886.5945945945946 186.164L 889.0918918918919 176.096L 891.5891891891893 178.04L 894.0864864864865 152.996L 896.5837837837837 130.724L 899.0810810810812 149.888L 901.5783783783784 149.48L 904.0756756756757 184.1L 906.5729729729729 184.484L 909.0702702702703 177.56L 911.5675675675676 139.952L 914.0648648648648 148.028L 916.5621621621622 162.428L 919.0594594594595 136.244L 921.5567567567567 132.128L 924.0540540540541 142.508L 926.5513513513513 143.252L 929.0486486486487 125.732L 931.545945945946 117.06800000000001L 934.0432432432433 164.264L 936.5405405405405 161.876L 939.0378378378379 158.636L 941.5351351351352 176.40800000000002L 944.0324324324324 186.632L 946.5297297297298 187.352L 949.0270270270271 186.152L 951.5243243243243 174.932L 954.0216216216216 178.388L 956.5189189189189 194.636L 959.0162162162163 184.748L 961.5135135135135 182.84L 964.0108108108108 173.78L 966.5081081081081 177.56L 969.0054054054054 179.996L 971.5027027027028 183.188L 974 191.24" stroke-width="2.0" fill="none" />
    
        
        
        <text x="45.0" font-family="-apple-system, system-ui, BlinkMacSystemFont, Roboto" y="50.0" dominant-baseline="middle" text-anchor="end" font-size="12" fill="#24292f">13000.0</text>
        
            
            <path stroke="#74838f" stroke-dasharray="10 6" stroke-width="0.5"  d="M 50.0 50.0 L 974.0 50.0" />
        
    
        
        
        <text x="45.0" font-family="-apple-system, system-ui, BlinkMacSystemFont, Roboto" y="81.2" dominant-baseline="middle" text-anchor="end" font-size="12" fill="#24292f">10400.0</text>
        
            
            
            <path stroke="#74838f" stroke-dasharray="10 6" stroke-width="0.5"  d="M 50.0 81.2 L 974.0 81.2" />
        
    
        
        
        <text x="45.0" font-family="-apple-system, system-ui, BlinkMacSystemFont, Roboto" y="112.4" dominant-baseline="middle" text-anchor="end" font-size="12" fill="#24292f">7800.0</text>
        
            
            
            <path stroke="#74838f" stroke-dasharray="10 6" stroke-width="0.5"  d="M 50.0 112.4 L 974.0 112.4" />
        
    
        
        
        <text x="45.0" font-family="-apple-system, system-ui, BlinkMacSystemFont, Roboto" y="143.6" dominant-baseline="middle" text-anchor="end" font-size="12" fill="#24292f">5200.0</text>
        
            
            
            <path stroke="#74838f" stroke-dasharray="10 6" stroke-width="0.5"  d="M 50.0 143.6 L 974.0 143.6" />
        
    
        
        
        <text x="45.0" font-family="-apple-system, system-ui, BlinkMacSystemFont, Roboto" y="174.8" dominant-baseline="middle" text-anchor="end" font-size="12" fill="#24292f">2600.0</text>
        
            
            
            <path stroke="#74838f" stroke-dasharray="10 6" stroke-width="0.5"  d="M 50.0 174.8 L 974.0 174.8" />
        
    
        
        
        <text x="45.0" font-family="-apple-system, system-ui, BlinkMacSystemFont, Roboto" y="206.0" dominant-baseline="middle" text-anchor="end" font-size="12" fill="#24292f">0.0</text>
        
    
    
        
        <path stroke="#74838f"  stroke-width="2.0"  d="M 89.95675675675676 206.0 L 89.95675675675676 214.0" />
        <text x="89.95675675675676" font-family="-apple-system, system-ui, BlinkMacSystemFont, Roboto" y="216.0" dominant-baseline="hanging" text-anchor="middle" font-size="12" fill="#24292f">Mar 2022</text>
    
        
        <path stroke="#74838f"  stroke-width="2.0"  d="M 167.37297297297297 206.0 L 167.37297297297297 214.0" />
        <text x="167.37297297297297" font-family="-apple-system, system-ui, BlinkMacSystemFont, Roboto" y="216.0" dominant-baseline="hanging" text-anchor="middle" font-size="12" fill="#24292f">Apr 2022</text>
    
        
        <path stroke="#74838f"  stroke-width="2.0"  d="M 242.2918918918919 206.0 L 242.2918918918919 214.0" />
        <text x="242.2918918918919" font-family="-apple-system, system-ui, BlinkMacSystemFont, Roboto" y="216.0" dominant-baseline="hanging" text-anchor="middle" font-size="12" fill="#24292f">May 2022</text>
    
        
        <path stroke="#74838f"  stroke-width="2.0"  d="M 319.70810810810815 206.0 L 319.70810810810815 214.0" />
        <text x="319.70810810810815" font-family="-apple-system, system-ui, BlinkMacSystemFont, Roboto" y="216.0" dominant-baseline="hanging" text-anchor="middle" font-size="12" fill="#24292f">Jun 2022</text>
    
        
        <path stroke="#74838f"  stroke-width="2.0"  d="M 394.62702702702705 206.0 L 394.62702702702705 214.0" />
        <text x="394.62702702702705" font-family="-apple-system, system-ui, BlinkMacSystemFont, Roboto" y="216.0" dominant-baseline="hanging" text-anchor="middle" font-size="12" fill="#24292f">Jul 2022</text>
    
        
        <path stroke="#74838f"  stroke-width="2.0"  d="M 472.04324324324324 206.0 L 472.04324324324324 214.0" />
        <text x="472.04324324324324" font-family="-apple-system, system-ui, BlinkMacSystemFont, Roboto" y="216.0" dominant-baseline="hanging" text-anchor="middle" font-size="12" fill="#24292f">Aug 2022</text>
    
        
        <path stroke="#74838f"  stroke-width="2.0"  d="M 549.4594594594595 206.0 L 549.4594594594595 214.0" />
        <text x="549.4594594594595" font-family="-apple-system, system-ui, BlinkMacSystemFont, Roboto" y="216.0" dominant-baseline="hanging" text-anchor="middle" font-size="12" fill="#24292f">Sep 2022</text>
    
        
        <path stroke="#74838f"  stroke-width="2.0"  d="M 624.3783783783783 206.0 L 624.3783783783783 214.0" />
        <text x="624.3783783783783" font-family="-apple-system, system-ui, BlinkMacSystemFont, Roboto" y="216.0" dominant-baseline="hanging" text-anchor="middle" font-size="12" fill="#24292f">Oct 2022</text>
    
        
        <path stroke="#74838f"  stroke-width="2.0"  d="M 701.7945945945946 206.0 L 701.7945945945946 214.0" />
        <text x="701.7945945945946" font-family="-apple-system, system-ui, BlinkMacSystemFont, Roboto" y="216.0" dominant-baseline="hanging" text-anchor="middle" font-size="12" fill="#24292f">Nov 2022</text>
    
        
        <path stroke="#74838f"  stroke-width="2.0"  d="M 776.7135135135135 206.0 L 776.7135135135135 214.0" />
        <text x="776.7135135135135" font-family="-apple-system, system-ui, BlinkMacSystemFont, Roboto" y="216.0" dominant-baseline="hanging" text-anchor="middle" font-size="12" fill="#24292f">Dec 2022</text>
    
        
        <path stroke="#74838f"  stroke-width="2.0"  d="M 854.1297297297298 206.0 L 854.1297297297298 214.0" />
        <text x="854.1297297297298" font-family="-apple-system, system-ui, BlinkMacSystemFont, Roboto" y="216.0" dominant-baseline="hanging" text-anchor="middle" font-size="12" fill="#24292f">Jan 2023</text>
    
        
        <path stroke="#74838f"  stroke-width="2.0"  d="M 931.545945945946 206.0 L 931.545945945946 214.0" />
        <text x="931.545945945946" font-family="-apple-system, system-ui, BlinkMacSystemFont, Roboto" y="216.0" dominant-baseline="hanging" text-anchor="middle" font-size="12" fill="#24292f">Feb 2023</text>
    
    <path stroke="#74838f"   stroke-linejoin="round" stroke-width="2.0" d="M 50.0 216.0 L 50.0 206.0 L 974.0 206.0 L 974.0 216.0"  fill="none" />
    <text x="512.0" y="25.0" font-family="-apple-system, system-ui, BlinkMacSystemFont, Roboto" dominant-baseline="middle" text-anchor="middle" font-size="18" fill="#24292f">Total daily suspensions</text>
</svg>
