<?xml version="1.0" standalone="no"?>
<svg width="1024.0" height="256.0"  viewBox="0 0 1024.0 256.0" preserveAspectRatio="xMidYMid meet" xmlns="http://www.w3.org/2000/svg">
    <path stroke="#e74c3c" stroke-linejoin="round" d="M 50.0 161.108 L 50 161.108L 53.40959409594096 193.664L 56.81918819188192 197.576L 60.22878228782288 197.924L 63.63837638376384 203.528L 67.0479704797048 199.94L 70.45756457564576 199.268L 73.86715867158671 191.108L 77.27675276752768 200.972L 80.68634686346863 198.62L 84.0959409594096 200L 87.50553505535055 202.57999999999998L 90.91512915129151 199.208L 94.32472324723247 195.608L 97.73431734317343 202.652L 101.14391143911439 198.716L 104.55350553505535 197.49200000000002L 107.96309963099631 191.42000000000002L 111.37269372693727 196.688L 114.78228782287822 199.46L 118.19188191881919 199.328L 121.60147601476015 198.308L 125.0110701107011 198.164L 128.42066420664207 199.832L 131.83025830258302 194.876L 135.23985239852396 199.904L 138.64944649446494 195.584L 142.0590405904059 200.732L 145.46863468634686 198.416L 148.8782287822878 190.652L 152.28782287822878 196.112L 155.69741697416976 190.82L 159.1070110701107 193.53199999999998L 162.51660516605165 199.688L 165.92619926199262 192.392L 169.3357933579336 197L 172.74538745387454 199.59199999999998L 176.1549815498155 193.54399999999998L 179.56457564575643 195.26L 182.9741697416974 195.428L 186.38376383763838 195.548L 189.79335793357933 196.484L 193.2029520295203 199.424L 196.61254612546125 199.22L 200.0221402214022 195.656L 203.43173431734317 193.952L 206.84132841328415 195.536L 210.2509225092251 198.764L 213.66051660516604 195.428L 217.070110701107 194L 220.47970479704796 193.688L 223.88929889298893 186.32L 227.2988929889299 197.372L 230.70848708487082 195.96800000000002L 234.1180811808118 198.284L 237.52767527675277 194.38400000000001L 240.93726937269372 196.424L 244.3468634686347 196.988L 247.75645756457564 198.368L 251.1660516605166 198.05599999999998L 254.57564575645756 199.61599999999999L 257.98523985239854 191.54L 261.3948339483395 202.124L 264.8044280442804 193.34L 268.2140221402214 204.2L 271.6236162361623 206L 275.0332103321033 206L 278.44280442804427 206L 281.85239852398524 206L 285.2619926199262 190.472L 288.6715867158672 159.01999999999998L 292.0811808118081 193.56799999999998L 295.4907749077491 200.228L 298.90036900369006 193.232L 302.309963099631 196.82L 305.71955719557195 199.772L 309.12915129151287 186.548L 312.53874538745384 197.888L 315.9483394833948 195.596L 319.3579335793358 190.508L 322.76752767527677 194.876L 326.17712177121774 190.4L 329.58671586715866 188.756L 332.99630996309963 197.852L 336.4059040590406 199.772L 339.8154981549816 191.936L 343.2250922509225 191.864L 346.6346863468635 199.316L 350.0442804428044 194.708L 353.45387453874537 192.608L 356.86346863468634 194.9L 360.2730627306273 199.7L 363.6826568265683 189.224L 367.09225092250927 198.428L 370.5018450184502 196.136L 373.91143911439116 195.296L 377.3210332103321 196.268L 380.73062730627305 193.184L 384.140221402214 197.204L 387.549815498155 193.856L 390.9594095940959 197.096L 394.3690036900369 178.16L 397.77859778597787 194.372L 401.18819188191884 195.92000000000002L 404.5977859778598 195.11599999999999L 408.0073800738008 196.688L 411.41697416974165 197.49200000000002L 414.8265682656826 197.696L 418.2361623616236 186.848L 421.6457564575646 192.644L 425.05535055350555 199.61599999999999L 428.4649446494465 193.052L 431.87453874538744 191.072L 435.2841328413284 195.44L 438.6937269372694 196.184L 442.10332103321036 196.46L 445.5129151291513 197.312L 448.92250922509226 193.076L 452.3321033210332 206L 455.74169741697415 186.44L 459.1512915129151 186.632L 462.5608856088561 191.276L 465.97047970479707 180.93200000000002L 469.38007380073805 201.704L 472.78966789667896 185.744L 476.19926199261994 196.028L 479.60885608856086 189.464L 483.01845018450183 194.228L 486.4280442804428 195.632L 489.8376383763838 196.844L 493.2472324723247 186.332L 496.65682656826567 197.99599999999998L 500.06642066420665 188.924L 503.4760147601476 189.128L 506.8856088560886 196.748L 510.29520295202957 182.45600000000002L 513.7047970479705 184.16L 517.1143911439115 206L 520.5239852398524 206L 523.9335793357934 206L 527.3431734317344 160.16L 530.7527675276752 198.536L 534.1623616236162 196.60399999999998L 537.5719557195571 195.668L 540.9815498154982 192.8L 544.391143911439 196.964L 547.8007380073801 197.828L 551.210332103321 200.84L 554.619926199262 170.312L 558.0295202952029 189.236L 561.4391143911439 177.428L 564.8487084870849 191.564L 568.2583025830257 178.784L 571.6678966789668 176.372L 575.0774907749077 181.7L 578.4870848708488 187.472L 581.8966789667896 192.88400000000001L 585.3062730627306 189.38L 588.7158671586716 187.772L 592.1254612546126 189.404L 595.5350553505535 187.532L 598.9446494464944 193.59199999999998L 602.3542435424355 185.036L 605.7638376383763 171.332L 609.1734317343173 180.14L 612.5830258302583 172.316L 615.9926199261993 193.028L 619.4022140221402 191.996L 622.8118081180812 193.052L 626.2214022140221 194.84L 629.6309963099632 193.53199999999998L 633.040590405904 194.024L 636.450184501845 189.272L 639.859778597786 195.188L 643.269372693727 196.256L 646.6789667896679 192.62L 650.0885608856088 190.844L 653.4981549815499 200.984L 656.9077490774907 184.796L 660.3173431734318 190.88L 663.7269372693727 194.42000000000002L 667.1365313653137 189.86L 670.5461254612546 195.86L 673.9557195571955 191.984L 677.3653136531366 193.1L 680.7749077490774 186.464L 684.1845018450185 190.46L 687.5940959409594 182.156L 691.0036900369004 187.136L 694.4132841328413 191.528L 697.8228782287823 184.1L 701.2324723247233 189.14L 704.6420664206642 185.204L 708.0516605166051 185.468L 711.4612546125461 176.828L 714.8708487084871 189.04399999999998L 718.280442804428 191.048L 721.690036900369 188.756L 725.09963099631 187.592L 728.509225092251 191.39600000000002L 731.9188191881918 187.796L 735.3284132841328 188.228L 738.7380073800738 190.268L 742.1476014760148 194.372L 745.5571955719557 194.72L 748.9667896678967 201.308L 752.3763837638377 192.752L 755.7859778597785 181.148L 759.1955719557196 181.748L 762.6051660516605 181.208L 766.0147601476016 191.3L 769.4243542435424 186.88400000000001L 772.8339483394833 181.376L 776.2435424354244 186.5L 779.6531365313652 188.44400000000002L 783.0627306273063 179.66L 786.4723247232472 183.09199999999998L 789.8819188191882 173.564L 793.2915129151291 183.836L 796.7011070110701 171.668L 800.1107011070111 148.148L 803.520295202952 178.004L 806.929889298893 141.86L 810.3394833948339 186.128L 813.7490774907749 188.54000000000002L 817.1586715867159 187.748L 820.5682656826568 193.256L 823.9778597785978 186.596L 827.3874538745388 185.42000000000002L 830.7970479704796 186.872L 834.2066420664207 185.372L 837.6162361623616 192.824L 841.0258302583026 188.552L 844.4354243542435 189.32L 847.8450184501845 186.632L 851.2546125461255 185.768L 854.6642066420663 188.744L 858.0738007380074 187.34L 861.4833948339483 192.488L 864.8929889298894 187.028L 868.3025830258302 185.468L 871.7121771217712 181.928L 875.1217712177122 183.8L 878.531365313653 180.296L 881.9409594095941 185.516L 885.350553505535 194L 888.7601476014761 190.328L 892.169741697417 186.584L 895.5793357933579 168.32L 898.9889298892989 117.5L 902.3985239852399 189.10399999999998L 905.8081180811809 187.844L 909.2177121771217 190.28L 912.6273062730627 192.32L 916.0369003690037 189.2L 919.4464944649446 182.288L 922.8560885608856 188.49200000000002L 926.2656826568266 178.916L 929.6752767527676 53.432000000000016L 933.0848708487085 162.656L 936.4944649446494 184.52L 939.9040590405904 182.708L 943.3136531365313 183.68L 946.7232472324723 184.196L 950.1328413284133 179.084L 953.5424354243543 190.16L 956.9520295202952 180.476L 960.3616236162361 160.916L 963.7712177121772 121.196L 967.180811808118 151.50799999999998L 970.5904059040591 164.132L 974 185.96" stroke-width="2.0" fill="none" />
    
        
        
        <text x="45.0" font-family="-apple-system, system-ui, BlinkMacSystemFont, Roboto" y="50.0" dominant-baseline="middle" text-anchor="end" font-size="12" fill="#24292f">13000.0</text>
        
            
            <path stroke="#74838f" stroke-dasharray="10 6" stroke-width="0.5"  d="M 50.0 50.0 L 974.0 50.0" />
        
    
        
        
        <text x="45.0" font-family="-apple-system, system-ui, BlinkMacSystemFont, Roboto" y="81.2" dominant-baseline="middle" text-anchor="end" font-size="12" fill="#24292f">10400.0</text>
        
            
            
            <path stroke="#74838f" stroke-dasharray="10 6" stroke-width="0.5"  d="M 50.0 81.2 L 974.0 81.2" />
        
    
        
        
        <text x="45.0" font-family="-apple-system, system-ui, BlinkMacSystemFont, Roboto" y="112.4" dominant-baseline="middle" text-anchor="end" font-size="12" fill="#24292f">7800.0</text>
        
            
            
            <path stroke="#74838f" stroke-dasharray="10 6" stroke-width="0.5"  d="M 50.0 112.4 L 974.0 112.4" />
        
    
        
        
        <text x="45.0" font-family="-apple-system, system-ui, BlinkMacSystemFont, Roboto" y="143.6" dominant-baseline="middle" text-anchor="end" font-size="12" fill="#24292f">5200.0</text>
        
            
            
            <path stroke="#74838f" stroke-dasharray="10 6" stroke-width="0.5"  d="M 50.0 143.6 L 974.0 143.6" />
        
    
        
        
        <text x="45.0" font-family="-apple-system, system-ui, BlinkMacSystemFont, Roboto" y="174.8" dominant-baseline="middle" text-anchor="end" font-size="12" fill="#24292f">2600.0</text>
        
            
            
            <path stroke="#74838f" stroke-dasharray="10 6" stroke-width="0.5"  d="M 50.0 174.8 L 974.0 174.8" />
        
    
        
        
        <text x="45.0" font-family="-apple-system, system-ui, BlinkMacSystemFont, Roboto" y="206.0" dominant-baseline="middle" text-anchor="end" font-size="12" fill="#24292f">0.0</text>
        
    
    
        
        <path stroke="#74838f"  stroke-width="2.0"  d="M 104.55350553505535 206.0 L 104.55350553505535 214.0" />
        <text x="104.55350553505535" font-family="-apple-system, system-ui, BlinkMacSystemFont, Roboto" y="216.0" dominant-baseline="hanging" text-anchor="middle" font-size="12" fill="#24292f">Mar 2022</text>
    
        
        <path stroke="#74838f"  stroke-width="2.0"  d="M 210.2509225092251 206.0 L 210.2509225092251 214.0" />
        <text x="210.2509225092251" font-family="-apple-system, system-ui, BlinkMacSystemFont, Roboto" y="216.0" dominant-baseline="hanging" text-anchor="middle" font-size="12" fill="#24292f">Apr 2022</text>
    
        
        <path stroke="#74838f"  stroke-width="2.0"  d="M 312.53874538745384 206.0 L 312.53874538745384 214.0" />
        <text x="312.53874538745384" font-family="-apple-system, system-ui, BlinkMacSystemFont, Roboto" y="216.0" dominant-baseline="hanging" text-anchor="middle" font-size="12" fill="#24292f">May 2022</text>
    
        
        <path stroke="#74838f"  stroke-width="2.0"  d="M 418.2361623616236 206.0 L 418.2361623616236 214.0" />
        <text x="418.2361623616236" font-family="-apple-system, system-ui, BlinkMacSystemFont, Roboto" y="216.0" dominant-baseline="hanging" text-anchor="middle" font-size="12" fill="#24292f">Jun 2022</text>
    
        
        <path stroke="#74838f"  stroke-width="2.0"  d="M 520.5239852398524 206.0 L 520.5239852398524 214.0" />
        <text x="520.5239852398524" font-family="-apple-system, system-ui, BlinkMacSystemFont, Roboto" y="216.0" dominant-baseline="hanging" text-anchor="middle" font-size="12" fill="#24292f">Jul 2022</text>
    
        
        <path stroke="#74838f"  stroke-width="2.0"  d="M 626.2214022140221 206.0 L 626.2214022140221 214.0" />
        <text x="626.2214022140221" font-family="-apple-system, system-ui, BlinkMacSystemFont, Roboto" y="216.0" dominant-baseline="hanging" text-anchor="middle" font-size="12" fill="#24292f">Aug 2022</text>
    
        
        <path stroke="#74838f"  stroke-width="2.0"  d="M 731.9188191881918 206.0 L 731.9188191881918 214.0" />
        <text x="731.9188191881918" font-family="-apple-system, system-ui, BlinkMacSystemFont, Roboto" y="216.0" dominant-baseline="hanging" text-anchor="middle" font-size="12" fill="#24292f">Sep 2022</text>
    
        
        <path stroke="#74838f"  stroke-width="2.0"  d="M 834.2066420664207 206.0 L 834.2066420664207 214.0" />
        <text x="834.2066420664207" font-family="-apple-system, system-ui, BlinkMacSystemFont, Roboto" y="216.0" dominant-baseline="hanging" text-anchor="middle" font-size="12" fill="#24292f">Oct 2022</text>
    
        
        <path stroke="#74838f"  stroke-width="2.0"  d="M 939.9040590405904 206.0 L 939.9040590405904 214.0" />
        <text x="939.9040590405904" font-family="-apple-system, system-ui, BlinkMacSystemFont, Roboto" y="216.0" dominant-baseline="hanging" text-anchor="middle" font-size="12" fill="#24292f">Nov 2022</text>
    
    <path stroke="#74838f"   stroke-linejoin="round" stroke-width="2.0" d="M 50.0 216.0 L 50.0 206.0 L 974.0 206.0 L 974.0 216.0"  fill="none" />
    <text x="512.0" y="25.0" font-family="-apple-system, system-ui, BlinkMacSystemFont, Roboto" dominant-baseline="middle" text-anchor="middle" font-size="18" fill="#24292f">Total daily suspensions</text>
</svg>
