<?xml version="1.0" standalone="no"?>
<svg width="1024.0" height="256.0"  viewBox="0 0 1024.0 256.0" preserveAspectRatio="xMidYMid meet" xmlns="http://www.w3.org/2000/svg">
    <path stroke="#e74c3c" stroke-linejoin="round" d="M 50.0 161.108 L 50 161.108L 52.21582733812949 193.664L 54.431654676258994 197.576L 56.64748201438849 197.924L 58.86330935251799 203.528L 61.07913669064748 199.94L 63.29496402877698 199.268L 65.51079136690647 191.108L 67.72661870503597 200.972L 69.94244604316546 198.62L 72.15827338129496 200L 74.37410071942446 202.57999999999998L 76.58992805755396 199.208L 78.80575539568346 195.608L 81.02158273381295 202.652L 83.23741007194243 198.716L 85.45323741007195 197.49200000000002L 87.66906474820144 191.42000000000002L 89.88489208633094 196.688L 92.10071942446044 199.46L 94.31654676258992 199.328L 96.53237410071942 198.308L 98.74820143884892 198.164L 100.96402877697841 199.832L 103.17985611510792 194.876L 105.39568345323741 199.904L 107.61151079136691 195.584L 109.82733812949641 200.732L 112.0431654676259 198.416L 114.2589928057554 190.652L 116.47482014388488 196.112L 118.69064748201438 190.82L 120.90647482014388 193.53199999999998L 123.12230215827337 199.688L 125.33812949640289 192.392L 127.55395683453239 197L 129.76978417266187 199.59199999999998L 131.9856115107914 193.54399999999998L 134.20143884892087 195.26L 136.41726618705036 195.428L 138.63309352517985 195.548L 140.84892086330933 196.484L 143.06474820143885 199.424L 145.28057553956836 199.22L 147.49640287769785 195.656L 149.71223021582733 193.952L 151.92805755395682 195.536L 154.1438848920863 198.764L 156.35971223021585 195.428L 158.57553956834533 194L 160.79136690647482 193.688L 163.0071942446043 186.32L 165.22302158273382 197.372L 167.43884892086328 195.96800000000002L 169.65467625899282 198.284L 171.8705035971223 194.38400000000001L 174.0863309352518 196.424L 176.3021582733813 196.988L 178.5179856115108 198.368L 180.7338129496403 198.05599999999998L 182.94964028776977 199.61599999999999L 185.16546762589928 191.54L 187.38129496402877 202.124L 189.59712230215828 193.34L 191.81294964028777 204.2L 194.02877697841726 206L 196.24460431654674 206L 198.46043165467626 206L 200.67625899280577 206L 202.89208633093526 190.472L 205.10791366906477 159.01999999999998L 207.32374100719423 193.56799999999998L 209.53956834532374 200.228L 211.75539568345323 193.232L 213.97122302158274 196.82L 216.18705035971223 199.772L 218.40287769784172 186.548L 220.6187050359712 197.888L 222.83453237410072 195.596L 225.0503597122302 190.508L 227.26618705035972 194.876L 229.48201438848923 190.4L 231.6978417266187 188.756L 233.9136690647482 197.852L 236.1294964028777 199.772L 238.3453237410072 191.936L 240.5611510791367 191.864L 242.7769784172662 199.316L 244.99280575539566 194.72L 247.20863309352518 192.608L 249.42446043165467 194.9L 251.64028776978418 199.7L 253.85611510791367 189.224L 256.0719424460432 198.428L 258.2877697841726 196.136L 260.50359712230215 195.296L 262.7194244604317 196.268L 264.9352517985611 193.184L 267.15107913669067 197.204L 269.3669064748201 193.856L 271.58273381294964 197.096L 273.7985611510791 178.16L 276.0143884892086 194.372L 278.23021582733816 195.92000000000002L 280.44604316546764 195.11599999999999L 282.66187050359713 196.688L 284.87769784172656 197.49200000000002L 287.0935251798561 197.696L 289.30935251798564 186.848L 291.5251798561151 192.644L 293.7410071942446 199.61599999999999L 295.9568345323741 193.052L 298.1726618705036 191.072L 300.3884892086331 195.44L 302.6043165467626 196.184L 304.8201438848921 196.46L 307.0359712230216 197.312L 309.2517985611511 193.076L 311.4676258992806 206L 313.68345323741005 186.44L 315.89928057553954 186.632L 318.115107913669 191.276L 320.33093525179856 180.93200000000002L 322.54676258992805 201.704L 324.76258992805754 185.744L 326.9784172661871 196.028L 329.19424460431657 189.464L 331.41007194244605 194.228L 333.62589928057554 195.632L 335.8417266187051 196.844L 338.0575539568345 186.332L 340.273381294964 197.99599999999998L 342.4892086330935 188.924L 344.705035971223 189.128L 346.9208633093525 196.748L 349.136690647482 182.45600000000002L 351.35251798561154 184.16L 353.568345323741 206L 355.7841726618705 206L 358 206L 360.21582733812954 160.16L 362.431654676259 198.536L 364.64748201438846 196.60399999999998L 366.86330935251794 195.668L 369.0791366906475 192.8L 371.294964028777 196.964L 373.51079136690646 197.828L 375.72661870503595 200.84L 377.9424460431655 170.312L 380.158273381295 189.236L 382.37410071942446 177.428L 384.589928057554 191.564L 386.80575539568343 178.784L 389.0215827338129 176.372L 391.2374100719424 181.7L 393.45323741007195 187.472L 395.66906474820144 192.88400000000001L 397.8848920863309 189.38L 400.1007194244604 187.772L 402.31654676258995 189.404L 404.53237410071944 187.532L 406.7482014388489 193.59199999999998L 408.96402877697847 185.036L 411.17985611510795 171.332L 413.3956834532374 180.14L 415.61151079136687 172.316L 417.8273381294964 193.028L 420.0431654676259 191.996L 422.2589928057554 193.052L 424.47482014388487 194.84L 426.6906474820144 193.53199999999998L 428.9064748201439 194.024L 431.1223021582734 189.272L 433.33812949640287 195.188L 435.5539568345324 196.256L 437.76978417266184 192.62L 439.98561151079133 190.844L 442.2014388489209 200.984L 444.41726618705036 184.796L 446.63309352517985 190.88L 448.84892086330933 194.42000000000002L 451.0647482014389 189.86L 453.28057553956836 195.86L 455.49640287769785 191.984L 457.71223021582733 193.1L 459.9280575539569 186.464L 462.1438848920863 190.46L 464.3597122302158 182.156L 466.5755395683453 187.136L 468.7913669064748 191.528L 471.0071942446043 184.1L 473.2230215827338 189.14L 475.43884892086334 185.204L 477.6546762589928 185.468L 479.8705035971223 176.816L 482.0863309352518 189.04399999999998L 484.30215827338134 191.048L 486.5179856115108 188.756L 488.73381294964025 187.592L 490.94964028776974 191.39600000000002L 493.1654676258993 187.796L 495.38129496402877 188.228L 497.59712230215825 190.268L 499.8129496402878 194.372L 502.0287769784173 194.72L 504.24460431654677 201.308L 506.46043165467626 192.752L 508.6762589928058 181.148L 510.8920863309353 181.748L 513.1079136690647 181.208L 515.3237410071943 191.3L 517.5395683453237 186.88400000000001L 519.7553956834531 181.376L 521.9712230215828 186.5L 524.1870503597122 188.44400000000002L 526.4028776978417 179.66L 528.6187050359713 183.09199999999998L 530.8345323741007 173.564L 533.0503597122301 183.836L 535.2661870503597 171.668L 537.4820143884892 148.148L 539.6978417266187 178.004L 541.9136690647482 141.86L 544.1294964028777 186.128L 546.3453237410072 188.54000000000002L 548.5611510791366 187.748L 550.7769784172662 193.256L 552.9928057553957 186.596L 555.2086330935252 185.42000000000002L 557.4244604316548 186.872L 559.6402877697842 185.372L 561.8561151079136 192.824L 564.0719424460432 188.552L 566.2877697841726 189.32L 568.5035971223022 186.632L 570.7194244604317 185.768L 572.9352517985612 188.744L 575.1510791366907 187.34L 577.3669064748201 192.488L 579.5827338129496 187.028L 581.7985611510791 185.468L 584.0143884892086 181.928L 586.230215827338 183.8L 588.4460431654677 180.296L 590.6618705035971 185.516L 592.8776978417267 194L 595.0935251798561 190.328L 597.3093525179856 186.584L 599.5251798561151 168.32L 601.7410071942445 117.5L 603.9568345323742 189.10399999999998L 606.1726618705036 187.844L 608.3884892086331 190.28L 610.6043165467626 192.32L 612.8201438848921 189.2L 615.0359712230215 182.288L 617.2517985611511 188.49200000000002L 619.4676258992806 178.916L 621.6834532374102 53.432000000000016L 623.8992805755396 162.656L 626.115107913669 184.52L 628.3309352517986 182.708L 630.546762589928 183.68L 632.7625899280575 184.196L 634.978417266187 179.084L 637.1942446043166 190.16L 639.410071942446 180.476L 641.6258992805756 160.916L 643.841726618705 121.196L 646.0575539568346 151.50799999999998L 648.273381294964 164.132L 650.4892086330935 181.184L 652.7050359712231 170.49200000000002L 654.9208633093525 179.792L 657.136690647482 173.204L 659.3525179856115 178.352L 661.568345323741 182.792L 663.7841726618705 177.152L 666 184.232L 668.2158273381294 187.796L 670.4316546762591 188.348L 672.6474820143885 184.736L 674.863309352518 181.892L 677.0791366906475 181.796L 679.2949640287769 179.36L 681.5107913669065 168.176L 683.7266187050359 181.808L 685.9424460431655 185.372L 688.158273381295 167.708L 690.3741007194245 140.6L 692.589928057554 160.784L 694.8057553956835 151.664L 697.0215827338129 145.952L 699.2374100719425 155.288L 701.4532374100719 153.68L 703.6690647482014 163.04L 705.884892086331 172.064L 708.1007194244604 148.952L 710.31654676259 171.812L 712.5323741007194 172.46L 714.7482014388489 172.508L 716.9640287769784 183.644L 719.179856115108 166.304L 721.3956834532374 159.26L 723.6115107913669 172.652L 725.8273381294964 165.5L 728.0431654676258 154.892L 730.2589928057554 173.888L 732.4748201438848 176.3L 734.6906474820144 186.5L 736.9064748201439 183.932L 739.1223021582734 183.10399999999998L 741.3381294964029 150.128L 743.5539568345324 183.11599999999999L 745.7697841726618 186.152L 747.9856115107914 185.096L 750.2014388489208 182.276L 752.4172661870504 182.18L 754.6330935251799 182.144L 756.8489208633093 174.956L 759.0647482014389 181.988L 761.2805755395683 179.504L 763.4964028776978 184.784L 765.7122302158273 179L 767.9280575539569 175.868L 770.1438848920864 177.14L 772.3597122302159 178.832L 774.5755395683453 182.216L 776.7913669064748 176.444L 779.0071942446043 182.576L 781.2230215827337 177.02L 783.4388489208633 178.58L 785.6546762589928 182.144L 787.8705035971224 179.48L 790.0863309352518 176.972L 792.3021582733813 186.164L 794.5179856115108 176.096L 796.7338129496403 178.04L 798.9496402877697 152.996L 801.1654676258993 130.724L 803.3812949640288 149.888L 805.5971223021583 149.48L 807.8129496402878 184.1L 810.0287769784172 184.484L 812.2446043165468 177.56L 814.4604316546762 139.952L 816.6762589928057 148.028L 818.8920863309353 162.428L 821.1079136690648 136.244L 823.3237410071943 132.128L 825.5395683453237 142.508L 827.7553956834532 143.252L 829.9712230215827 125.732L 832.1870503597122 117.06800000000001L 834.4028776978417 164.264L 836.6187050359713 161.876L 838.8345323741007 158.636L 841.0503597122303 176.40800000000002L 843.2661870503597 186.632L 845.4820143884892 187.352L 847.6978417266187 186.152L 849.9136690647482 174.932L 852.1294964028777 178.388L 854.3453237410072 194.636L 856.5611510791367 184.748L 858.7769784172662 182.84L 860.9928057553957 173.78L 863.2086330935251 177.56L 865.4244604316547 179.996L 867.6402877697842 183.188L 869.8561151079138 153.68L 872.0719424460432 147.548L 874.2877697841726 185.504L 876.5035971223022 190.724L 878.7194244604316 174.752L 880.9352517985611 174.32L 883.1510791366906 183.692L 885.3669064748202 189.06799999999998L 887.5827338129496 186.88400000000001L 889.7985611510792 179.096L 892.0143884892086 175.808L 894.2302158273382 161.672L 896.4460431654676 160.424L 898.6618705035971 165.632L 900.8776978417267 179.336L 903.0935251798561 183.272L 905.3093525179856 191.024L 907.5251798561151 195.14L 909.7410071942446 182.684L 911.956834532374 162.416L 914.1726618705036 169.712L 916.3884892086331 168.536L 918.6043165467627 179.024L 920.8201438848921 170.768L 923.0359712230216 161.9L 925.2517985611511 170.012L 927.4676258992805 180.656L 929.68345323741 178.796L 931.8992805755395 164.648L 934.1151079136691 152.95999999999998L 936.3309352517986 156.62L 938.5467625899281 154.568L 940.7625899280575 142.088L 942.9784172661871 156.704L 945.1942446043165 176.924L 947.410071942446 142.652L 949.6258992805756 131.372L 951.841726618705 137.276L 954.0575539568346 142.7L 956.273381294964 151.136L 958.4892086330935 138.02L 960.705035971223 110.324L 962.9208633093525 109.724L 965.1366906474819 163.268L 967.3525179856116 161.996L 969.568345323741 148.016L 971.7841726618706 147.68L 974 141.5" stroke-width="2.0" fill="none" />
    
        
        
        <text x="45.0" font-family="-apple-system, system-ui, BlinkMacSystemFont, Roboto" y="50.0" dominant-baseline="middle" text-anchor="end" font-size="12" fill="#24292f">13000.0</text>
        
            
            <path stroke="#74838f" stroke-dasharray="10 6" stroke-width="0.5"  d="M 50.0 50.0 L 974.0 50.0" />
        
    
        
        
        <text x="45.0" font-family="-apple-system, system-ui, BlinkMacSystemFont, Roboto" y="81.2" dominant-baseline="middle" text-anchor="end" font-size="12" fill="#24292f">10400.0</text>
        
            
            
            <path stroke="#74838f" stroke-dasharray="10 6" stroke-width="0.5"  d="M 50.0 81.2 L 974.0 81.2" />
        
    
        
        
        <text x="45.0" font-family="-apple-system, system-ui, BlinkMacSystemFont, Roboto" y="112.4" dominant-baseline="middle" text-anchor="end" font-size="12" fill="#24292f">7800.0</text>
        
            
            
            <path stroke="#74838f" stroke-dasharray="10 6" stroke-width="0.5"  d="M 50.0 112.4 L 974.0 112.4" />
        
    
        
        
        <text x="45.0" font-family="-apple-system, system-ui, BlinkMacSystemFont, Roboto" y="143.6" dominant-baseline="middle" text-anchor="end" font-size="12" fill="#24292f">5200.0</text>
        
            
            
            <path stroke="#74838f" stroke-dasharray="10 6" stroke-width="0.5"  d="M 50.0 143.6 L 974.0 143.6" />
        
    
        
        
        <text x="45.0" font-family="-apple-system, system-ui, BlinkMacSystemFont, Roboto" y="174.8" dominant-baseline="middle" text-anchor="end" font-size="12" fill="#24292f">2600.0</text>
        
            
            
            <path stroke="#74838f" stroke-dasharray="10 6" stroke-width="0.5"  d="M 50.0 174.8 L 974.0 174.8" />
        
    
        
        
        <text x="45.0" font-family="-apple-system, system-ui, BlinkMacSystemFont, Roboto" y="206.0" dominant-baseline="middle" text-anchor="end" font-size="12" fill="#24292f">0.0</text>
        
    
    
        
        <path stroke="#74838f"  stroke-width="2.0"  d="M 85.45323741007195 206.0 L 85.45323741007195 214.0" />
        <text x="85.45323741007195" font-family="-apple-system, system-ui, BlinkMacSystemFont, Roboto" y="216.0" dominant-baseline="hanging" text-anchor="middle" font-size="12" fill="#24292f">Mar 2022</text>
    
        
        <path stroke="#74838f"  stroke-width="2.0"  d="M 154.1438848920863 206.0 L 154.1438848920863 214.0" />
        <text x="154.1438848920863" font-family="-apple-system, system-ui, BlinkMacSystemFont, Roboto" y="216.0" dominant-baseline="hanging" text-anchor="middle" font-size="12" fill="#24292f">Apr 2022</text>
    
        
        <path stroke="#74838f"  stroke-width="2.0"  d="M 220.6187050359712 206.0 L 220.6187050359712 214.0" />
        <text x="220.6187050359712" font-family="-apple-system, system-ui, BlinkMacSystemFont, Roboto" y="216.0" dominant-baseline="hanging" text-anchor="middle" font-size="12" fill="#24292f">May 2022</text>
    
        
        <path stroke="#74838f"  stroke-width="2.0"  d="M 289.30935251798564 206.0 L 289.30935251798564 214.0" />
        <text x="289.30935251798564" font-family="-apple-system, system-ui, BlinkMacSystemFont, Roboto" y="216.0" dominant-baseline="hanging" text-anchor="middle" font-size="12" fill="#24292f">Jun 2022</text>
    
        
        <path stroke="#74838f"  stroke-width="2.0"  d="M 355.7841726618705 206.0 L 355.7841726618705 214.0" />
        <text x="355.7841726618705" font-family="-apple-system, system-ui, BlinkMacSystemFont, Roboto" y="216.0" dominant-baseline="hanging" text-anchor="middle" font-size="12" fill="#24292f">Jul 2022</text>
    
        
        <path stroke="#74838f"  stroke-width="2.0"  d="M 424.47482014388487 206.0 L 424.47482014388487 214.0" />
        <text x="424.47482014388487" font-family="-apple-system, system-ui, BlinkMacSystemFont, Roboto" y="216.0" dominant-baseline="hanging" text-anchor="middle" font-size="12" fill="#24292f">Aug 2022</text>
    
        
        <path stroke="#74838f"  stroke-width="2.0"  d="M 493.1654676258993 206.0 L 493.1654676258993 214.0" />
        <text x="493.1654676258993" font-family="-apple-system, system-ui, BlinkMacSystemFont, Roboto" y="216.0" dominant-baseline="hanging" text-anchor="middle" font-size="12" fill="#24292f">Sep 2022</text>
    
        
        <path stroke="#74838f"  stroke-width="2.0"  d="M 559.6402877697842 206.0 L 559.6402877697842 214.0" />
        <text x="559.6402877697842" font-family="-apple-system, system-ui, BlinkMacSystemFont, Roboto" y="216.0" dominant-baseline="hanging" text-anchor="middle" font-size="12" fill="#24292f">Oct 2022</text>
    
        
        <path stroke="#74838f"  stroke-width="2.0"  d="M 628.3309352517986 206.0 L 628.3309352517986 214.0" />
        <text x="628.3309352517986" font-family="-apple-system, system-ui, BlinkMacSystemFont, Roboto" y="216.0" dominant-baseline="hanging" text-anchor="middle" font-size="12" fill="#24292f">Nov 2022</text>
    
        
        <path stroke="#74838f"  stroke-width="2.0"  d="M 694.8057553956835 206.0 L 694.8057553956835 214.0" />
        <text x="694.8057553956835" font-family="-apple-system, system-ui, BlinkMacSystemFont, Roboto" y="216.0" dominant-baseline="hanging" text-anchor="middle" font-size="12" fill="#24292f">Dec 2022</text>
    
        
        <path stroke="#74838f"  stroke-width="2.0"  d="M 763.4964028776978 206.0 L 763.4964028776978 214.0" />
        <text x="763.4964028776978" font-family="-apple-system, system-ui, BlinkMacSystemFont, Roboto" y="216.0" dominant-baseline="hanging" text-anchor="middle" font-size="12" fill="#24292f">Jan 2023</text>
    
        
        <path stroke="#74838f"  stroke-width="2.0"  d="M 832.1870503597122 206.0 L 832.1870503597122 214.0" />
        <text x="832.1870503597122" font-family="-apple-system, system-ui, BlinkMacSystemFont, Roboto" y="216.0" dominant-baseline="hanging" text-anchor="middle" font-size="12" fill="#24292f">Feb 2023</text>
    
        
        <path stroke="#74838f"  stroke-width="2.0"  d="M 894.2302158273382 206.0 L 894.2302158273382 214.0" />
        <text x="894.2302158273382" font-family="-apple-system, system-ui, BlinkMacSystemFont, Roboto" y="216.0" dominant-baseline="hanging" text-anchor="middle" font-size="12" fill="#24292f">Mar 2023</text>
    
        
        <path stroke="#74838f"  stroke-width="2.0"  d="M 962.9208633093525 206.0 L 962.9208633093525 214.0" />
        <text x="962.9208633093525" font-family="-apple-system, system-ui, BlinkMacSystemFont, Roboto" y="216.0" dominant-baseline="hanging" text-anchor="middle" font-size="12" fill="#24292f">Apr 2023</text>
    
    <path stroke="#74838f"   stroke-linejoin="round" stroke-width="2.0" d="M 50.0 216.0 L 50.0 206.0 L 974.0 206.0 L 974.0 216.0"  fill="none" />
    <text x="512.0" y="25.0" font-family="-apple-system, system-ui, BlinkMacSystemFont, Roboto" dominant-baseline="middle" text-anchor="middle" font-size="18" fill="#24292f">Total daily suspensions</text>
</svg>
