<?xml version="1.0" standalone="no"?>
<svg width="1024.0" height="256.0"  viewBox="0 0 1024.0 256.0" preserveAspectRatio="xMidYMid meet" xmlns="http://www.w3.org/2000/svg">
    <path stroke="#e74c3c" stroke-linejoin="round" d="M 50.0 161.108 L 50 161.108L 52.40625 193.664L 54.8125 197.576L 57.21875 197.924L 59.625 203.528L 62.03125 199.94L 64.4375 199.268L 66.84375 191.108L 69.25 200.972L 71.65625 198.62L 74.0625 200L 76.46875 202.57999999999998L 78.875 199.208L 81.28125 195.608L 83.6875 202.652L 86.09375 198.716L 88.5 197.49200000000002L 90.90625 191.42000000000002L 93.3125 196.688L 95.71875 199.46L 98.125 199.328L 100.53125 198.308L 102.9375 198.164L 105.34375 199.832L 107.75 194.876L 110.15625 199.904L 112.5625 195.584L 114.96875 200.732L 117.375 198.416L 119.78125 190.652L 122.1875 196.112L 124.59375 190.82L 127 193.53199999999998L 129.40625 199.688L 131.8125 192.392L 134.21875 197L 136.625 199.59199999999998L 139.03125 193.54399999999998L 141.4375 195.26L 143.84375 195.428L 146.25 195.548L 148.65625 196.484L 151.0625 199.424L 153.46875 199.22L 155.875 195.656L 158.28125 193.952L 160.6875 195.536L 163.09375 198.764L 165.5 195.428L 167.90625 194L 170.3125 193.688L 172.71875 186.32L 175.125 197.372L 177.53125 195.96800000000002L 179.9375 198.284L 182.34375 194.38400000000001L 184.75 196.424L 187.15625 196.988L 189.5625 198.368L 191.96875 198.05599999999998L 194.375 199.61599999999999L 196.78125 191.54L 199.1875 202.124L 201.59375 193.34L 204 204.2L 206.40625 206L 208.8125 206L 211.21875 206L 213.625 206L 216.03125 190.472L 218.4375 159.01999999999998L 220.84375 193.56799999999998L 223.25 200.228L 225.65625 193.232L 228.0625 196.82L 230.46875 199.772L 232.875 186.548L 235.28125 197.888L 237.6875 195.596L 240.09375 190.508L 242.5 194.876L 244.90625 190.4L 247.3125 188.756L 249.71875 197.852L 252.125 199.772L 254.53125 191.936L 256.9375 191.864L 259.34375 199.316L 261.75 194.72L 264.15625 192.608L 266.5625 194.9L 268.96875 199.7L 271.375 189.224L 273.78125 198.428L 276.1875 196.136L 278.59375 195.296L 281 196.268L 283.40625 193.184L 285.8125 197.204L 288.21875 193.856L 290.625 197.096L 293.03125 178.16L 295.4375 194.372L 297.84375 195.92000000000002L 300.25 195.11599999999999L 302.65625 196.688L 305.0625 197.49200000000002L 307.46875 197.696L 309.875 186.848L 312.28125 192.644L 314.6875 199.61599999999999L 317.09375 193.052L 319.5 191.072L 321.90625 195.44L 324.3125 196.184L 326.71875 196.46L 329.125 197.312L 331.53125 193.076L 333.9375 206L 336.34375 186.44L 338.75 186.632L 341.15625 191.276L 343.5625 180.93200000000002L 345.96875 201.704L 348.375 185.744L 350.78125 196.028L 353.1875 189.464L 355.59375 194.228L 358 195.632L 360.40625 196.844L 362.8125 186.332L 365.21875 197.99599999999998L 367.625 188.924L 370.03125 189.128L 372.4375 196.748L 374.84375 182.45600000000002L 377.25 184.16L 379.65625 206L 382.0625 206L 384.46875 206L 386.875 160.16L 389.28125 198.536L 391.6875 196.60399999999998L 394.09375 195.668L 396.5 192.8L 398.90625 196.964L 401.3125 197.828L 403.71875 200.84L 406.125 170.312L 408.53125 189.236L 410.9375 177.428L 413.34375 191.564L 415.75 178.784L 418.15625 176.372L 420.5625 181.7L 422.96875 187.472L 425.375 192.88400000000001L 427.78125 189.38L 430.1875 187.772L 432.59375 189.404L 435 187.532L 437.40625 193.59199999999998L 439.8125 185.036L 442.21875 171.332L 444.625 180.14L 447.03125 172.316L 449.4375 193.028L 451.84375 191.996L 454.25 193.052L 456.65625 194.84L 459.0625 193.53199999999998L 461.46875 194.024L 463.875 189.272L 466.28125 195.188L 468.6875 196.256L 471.09375 192.62L 473.5 190.844L 475.90625 200.984L 478.3125 184.796L 480.71875 190.88L 483.125 194.42000000000002L 485.53125 189.86L 487.9375 195.86L 490.34375 191.984L 492.75 193.1L 495.15625 186.464L 497.5625 190.46L 499.96875 182.156L 502.375 187.136L 504.78125 191.528L 507.1875 184.1L 509.59375 189.14L 512 185.204L 514.40625 185.468L 516.8125 176.816L 519.21875 189.04399999999998L 521.625 191.048L 524.03125 188.756L 526.4375 187.592L 528.84375 191.39600000000002L 531.25 187.796L 533.65625 188.228L 536.0625 190.268L 538.46875 194.372L 540.875 194.72L 543.28125 201.308L 545.6875 192.752L 548.09375 181.148L 550.5 181.748L 552.90625 181.208L 555.3125 191.3L 557.71875 186.88400000000001L 560.125 181.376L 562.53125 186.5L 564.9375 188.44400000000002L 567.34375 179.66L 569.75 183.09199999999998L 572.15625 173.564L 574.5625 183.836L 576.96875 171.668L 579.375 148.148L 581.78125 178.004L 584.1875 141.86L 586.59375 186.128L 589 188.54000000000002L 591.40625 187.748L 593.8125 193.256L 596.21875 186.596L 598.625 185.42000000000002L 601.03125 186.872L 603.4375 185.372L 605.84375 192.824L 608.25 188.552L 610.65625 189.32L 613.0625 186.632L 615.46875 185.768L 617.875 188.744L 620.28125 187.34L 622.6875 192.488L 625.09375 187.028L 627.5 185.468L 629.90625 181.928L 632.3125 183.8L 634.71875 180.296L 637.125 185.516L 639.53125 194L 641.9375 190.328L 644.34375 186.584L 646.75 168.32L 649.15625 117.5L 651.5625 189.10399999999998L 653.96875 187.844L 656.375 190.28L 658.78125 192.32L 661.1875 189.2L 663.59375 182.288L 666 188.49200000000002L 668.40625 178.916L 670.8125 53.432000000000016L 673.21875 162.656L 675.625 184.52L 678.03125 182.708L 680.4375 183.68L 682.84375 184.196L 685.25 179.084L 687.65625 190.16L 690.0625 180.476L 692.46875 160.916L 694.875 121.196L 697.28125 151.50799999999998L 699.6875 164.132L 702.09375 181.184L 704.5 170.49200000000002L 706.90625 179.792L 709.3125 173.204L 711.71875 178.352L 714.125 182.792L 716.53125 177.152L 718.9375 184.232L 721.34375 187.796L 723.75 188.348L 726.15625 184.736L 728.5625 181.892L 730.96875 181.796L 733.375 179.36L 735.78125 168.176L 738.1875 181.808L 740.59375 185.372L 743 167.708L 745.40625 140.6L 747.8125 160.784L 750.21875 151.664L 752.625 145.952L 755.03125 155.288L 757.4375 153.68L 759.84375 163.04L 762.25 172.064L 764.65625 148.952L 767.0625 171.812L 769.46875 172.46L 771.875 172.508L 774.28125 183.644L 776.6875 166.304L 779.09375 159.26L 781.5 172.652L 783.90625 165.5L 786.3125 154.892L 788.71875 173.888L 791.125 176.3L 793.53125 186.5L 795.9375 183.932L 798.34375 183.10399999999998L 800.75 150.128L 803.15625 183.11599999999999L 805.5625 186.152L 807.96875 185.096L 810.375 182.276L 812.78125 182.18L 815.1875 182.144L 817.59375 174.956L 820 181.988L 822.40625 179.504L 824.8125 184.784L 827.21875 179L 829.625 175.868L 832.03125 177.14L 834.4375 178.832L 836.84375 182.216L 839.25 176.444L 841.65625 182.576L 844.0625 177.02L 846.46875 178.58L 848.875 182.144L 851.28125 179.48L 853.6875 176.972L 856.09375 186.164L 858.5 176.096L 860.90625 178.04L 863.3125 152.996L 865.71875 130.724L 868.125 149.888L 870.53125 149.48L 872.9375 184.1L 875.34375 184.484L 877.75 177.56L 880.15625 139.952L 882.5625 148.028L 884.96875 162.428L 887.375 136.244L 889.78125 132.128L 892.1875 142.508L 894.59375 143.252L 897 125.732L 899.40625 117.06800000000001L 901.8125 164.264L 904.21875 161.876L 906.625 158.636L 909.03125 176.40800000000002L 911.4375 186.632L 913.84375 187.352L 916.25 186.152L 918.65625 174.932L 921.0625 178.388L 923.46875 194.636L 925.875 184.748L 928.28125 182.84L 930.6875 173.78L 933.09375 177.56L 935.5 179.996L 937.90625 183.188L 940.3125 153.68L 942.71875 147.548L 945.125 185.504L 947.53125 190.724L 949.9375 174.752L 952.34375 174.32L 954.75 183.692L 957.15625 189.06799999999998L 959.5625 186.88400000000001L 961.96875 179.096L 964.375 175.808L 966.78125 161.672L 969.1875 160.424L 971.59375 165.632L 974 194.46800000000002" stroke-width="2.0" fill="none" />
    
        
        
        <text x="45.0" font-family="-apple-system, system-ui, BlinkMacSystemFont, Roboto" y="50.0" dominant-baseline="middle" text-anchor="end" font-size="12" fill="#24292f">13000.0</text>
        
            
            <path stroke="#74838f" stroke-dasharray="10 6" stroke-width="0.5"  d="M 50.0 50.0 L 974.0 50.0" />
        
    
        
        
        <text x="45.0" font-family="-apple-system, system-ui, BlinkMacSystemFont, Roboto" y="81.2" dominant-baseline="middle" text-anchor="end" font-size="12" fill="#24292f">10400.0</text>
        
            
            
            <path stroke="#74838f" stroke-dasharray="10 6" stroke-width="0.5"  d="M 50.0 81.2 L 974.0 81.2" />
        
    
        
        
        <text x="45.0" font-family="-apple-system, system-ui, BlinkMacSystemFont, Roboto" y="112.4" dominant-baseline="middle" text-anchor="end" font-size="12" fill="#24292f">7800.0</text>
        
            
            
            <path stroke="#74838f" stroke-dasharray="10 6" stroke-width="0.5"  d="M 50.0 112.4 L 974.0 112.4" />
        
    
        
        
        <text x="45.0" font-family="-apple-system, system-ui, BlinkMacSystemFont, Roboto" y="143.6" dominant-baseline="middle" text-anchor="end" font-size="12" fill="#24292f">5200.0</text>
        
            
            
            <path stroke="#74838f" stroke-dasharray="10 6" stroke-width="0.5"  d="M 50.0 143.6 L 974.0 143.6" />
        
    
        
        
        <text x="45.0" font-family="-apple-system, system-ui, BlinkMacSystemFont, Roboto" y="174.8" dominant-baseline="middle" text-anchor="end" font-size="12" fill="#24292f">2600.0</text>
        
            
            
            <path stroke="#74838f" stroke-dasharray="10 6" stroke-width="0.5"  d="M 50.0 174.8 L 974.0 174.8" />
        
    
        
        
        <text x="45.0" font-family="-apple-system, system-ui, BlinkMacSystemFont, Roboto" y="206.0" dominant-baseline="middle" text-anchor="end" font-size="12" fill="#24292f">0.0</text>
        
    
    
        
        <path stroke="#74838f"  stroke-width="2.0"  d="M 88.5 206.0 L 88.5 214.0" />
        <text x="88.5" font-family="-apple-system, system-ui, BlinkMacSystemFont, Roboto" y="216.0" dominant-baseline="hanging" text-anchor="middle" font-size="12" fill="#24292f">Mar 2022</text>
    
        
        <path stroke="#74838f"  stroke-width="2.0"  d="M 163.09375 206.0 L 163.09375 214.0" />
        <text x="163.09375" font-family="-apple-system, system-ui, BlinkMacSystemFont, Roboto" y="216.0" dominant-baseline="hanging" text-anchor="middle" font-size="12" fill="#24292f">Apr 2022</text>
    
        
        <path stroke="#74838f"  stroke-width="2.0"  d="M 235.28125 206.0 L 235.28125 214.0" />
        <text x="235.28125" font-family="-apple-system, system-ui, BlinkMacSystemFont, Roboto" y="216.0" dominant-baseline="hanging" text-anchor="middle" font-size="12" fill="#24292f">May 2022</text>
    
        
        <path stroke="#74838f"  stroke-width="2.0"  d="M 309.875 206.0 L 309.875 214.0" />
        <text x="309.875" font-family="-apple-system, system-ui, BlinkMacSystemFont, Roboto" y="216.0" dominant-baseline="hanging" text-anchor="middle" font-size="12" fill="#24292f">Jun 2022</text>
    
        
        <path stroke="#74838f"  stroke-width="2.0"  d="M 382.0625 206.0 L 382.0625 214.0" />
        <text x="382.0625" font-family="-apple-system, system-ui, BlinkMacSystemFont, Roboto" y="216.0" dominant-baseline="hanging" text-anchor="middle" font-size="12" fill="#24292f">Jul 2022</text>
    
        
        <path stroke="#74838f"  stroke-width="2.0"  d="M 456.65625 206.0 L 456.65625 214.0" />
        <text x="456.65625" font-family="-apple-system, system-ui, BlinkMacSystemFont, Roboto" y="216.0" dominant-baseline="hanging" text-anchor="middle" font-size="12" fill="#24292f">Aug 2022</text>
    
        
        <path stroke="#74838f"  stroke-width="2.0"  d="M 531.25 206.0 L 531.25 214.0" />
        <text x="531.25" font-family="-apple-system, system-ui, BlinkMacSystemFont, Roboto" y="216.0" dominant-baseline="hanging" text-anchor="middle" font-size="12" fill="#24292f">Sep 2022</text>
    
        
        <path stroke="#74838f"  stroke-width="2.0"  d="M 603.4375 206.0 L 603.4375 214.0" />
        <text x="603.4375" font-family="-apple-system, system-ui, BlinkMacSystemFont, Roboto" y="216.0" dominant-baseline="hanging" text-anchor="middle" font-size="12" fill="#24292f">Oct 2022</text>
    
        
        <path stroke="#74838f"  stroke-width="2.0"  d="M 678.03125 206.0 L 678.03125 214.0" />
        <text x="678.03125" font-family="-apple-system, system-ui, BlinkMacSystemFont, Roboto" y="216.0" dominant-baseline="hanging" text-anchor="middle" font-size="12" fill="#24292f">Nov 2022</text>
    
        
        <path stroke="#74838f"  stroke-width="2.0"  d="M 750.21875 206.0 L 750.21875 214.0" />
        <text x="750.21875" font-family="-apple-system, system-ui, BlinkMacSystemFont, Roboto" y="216.0" dominant-baseline="hanging" text-anchor="middle" font-size="12" fill="#24292f">Dec 2022</text>
    
        
        <path stroke="#74838f"  stroke-width="2.0"  d="M 824.8125 206.0 L 824.8125 214.0" />
        <text x="824.8125" font-family="-apple-system, system-ui, BlinkMacSystemFont, Roboto" y="216.0" dominant-baseline="hanging" text-anchor="middle" font-size="12" fill="#24292f">Jan 2023</text>
    
        
        <path stroke="#74838f"  stroke-width="2.0"  d="M 899.40625 206.0 L 899.40625 214.0" />
        <text x="899.40625" font-family="-apple-system, system-ui, BlinkMacSystemFont, Roboto" y="216.0" dominant-baseline="hanging" text-anchor="middle" font-size="12" fill="#24292f">Feb 2023</text>
    
        
        <path stroke="#74838f"  stroke-width="2.0"  d="M 966.78125 206.0 L 966.78125 214.0" />
        <text x="966.78125" font-family="-apple-system, system-ui, BlinkMacSystemFont, Roboto" y="216.0" dominant-baseline="hanging" text-anchor="middle" font-size="12" fill="#24292f">Mar 2023</text>
    
    <path stroke="#74838f"   stroke-linejoin="round" stroke-width="2.0" d="M 50.0 216.0 L 50.0 206.0 L 974.0 206.0 L 974.0 216.0"  fill="none" />
    <text x="512.0" y="25.0" font-family="-apple-system, system-ui, BlinkMacSystemFont, Roboto" dominant-baseline="middle" text-anchor="middle" font-size="18" fill="#24292f">Total daily suspensions</text>
</svg>
