<?xml version="1.0" standalone="no"?>
<svg width="1024.0" height="256.0"  viewBox="0 0 1024.0 256.0" preserveAspectRatio="xMidYMid meet" xmlns="http://www.w3.org/2000/svg">
    <path stroke="#e74c3c" stroke-linejoin="round" d="M 50.0 161.108 L 50 161.108L 52.11926605504587 193.664L 54.23853211009174 197.576L 56.357798165137616 197.924L 58.477064220183486 203.528L 60.596330275229356 199.94L 62.71559633027523 199.268L 64.8348623853211 191.108L 66.95412844036697 200.972L 69.07339449541284 198.62L 71.19266055045871 200L 73.3119266055046 202.57999999999998L 75.43119266055047 199.208L 77.55045871559633 195.608L 79.6697247706422 202.652L 81.78899082568807 198.716L 83.90825688073394 197.49200000000002L 86.02752293577981 191.42000000000002L 88.14678899082568 196.688L 90.26605504587155 199.46L 92.38532110091742 199.328L 94.5045871559633 198.308L 96.62385321100918 198.164L 98.74311926605505 199.832L 100.86238532110093 194.876L 102.9816513761468 199.904L 105.10091743119267 195.584L 107.22018348623854 200.732L 109.33944954128441 198.416L 111.45871559633028 190.652L 113.57798165137615 196.112L 115.69724770642202 190.82L 117.81651376146789 193.53199999999998L 119.93577981651377 199.688L 122.05504587155964 192.392L 124.17431192660551 197L 126.29357798165138 199.59199999999998L 128.41284403669727 193.54399999999998L 130.5321100917431 195.26L 132.651376146789 195.428L 134.77064220183485 195.548L 136.88990825688074 196.484L 139.0091743119266 199.424L 141.12844036697248 199.22L 143.24770642201835 195.656L 145.36697247706422 193.952L 147.4862385321101 195.536L 149.60550458715596 198.764L 151.72477064220186 195.428L 153.8440366972477 194L 155.9633027522936 193.688L 158.08256880733944 186.32L 160.20183486238534 197.372L 162.32110091743118 195.96800000000002L 164.44036697247708 198.284L 166.55963302752292 194.38400000000001L 168.67889908256882 196.424L 170.79816513761466 196.988L 172.91743119266056 198.368L 175.0366972477064 198.05599999999998L 177.1559633027523 199.61599999999999L 179.27522935779817 191.54L 181.39449541284404 202.124L 183.5137614678899 193.34L 185.63302752293578 204.2L 187.75229357798165 206L 189.87155963302754 206L 191.9908256880734 206L 194.11009174311928 206L 196.22935779816513 190.472L 198.34862385321102 159.01999999999998L 200.46788990825686 193.56799999999998L 202.58715596330276 200.228L 204.70642201834863 193.232L 206.8256880733945 196.82L 208.94495412844037 199.772L 211.06422018348624 186.548L 213.1834862385321 197.888L 215.30275229357798 195.596L 217.42201834862385 190.508L 219.54128440366972 194.876L 221.6605504587156 190.4L 223.7798165137615 188.756L 225.89908256880733 197.852L 228.01834862385323 199.772L 230.13761467889907 191.936L 232.25688073394497 191.864L 234.3761467889908 199.316L 236.4954128440367 194.72L 238.61467889908258 192.608L 240.73394495412845 194.9L 242.85321100917432 199.7L 244.9724770642202 189.224L 247.09174311926606 198.428L 249.21100917431193 196.136L 251.3302752293578 195.296L 253.4495412844037 196.268L 255.56880733944953 193.184L 257.6880733944954 197.204L 259.80733944954125 193.856L 261.9266055045872 197.096L 264.04587155963304 178.16L 266.1651376146789 194.372L 268.2844036697248 195.92000000000002L 270.4036697247707 195.11599999999999L 272.5229357798165 196.688L 274.64220183486236 197.49200000000002L 276.76146788990826 197.696L 278.88073394495416 186.848L 281 192.644L 283.11926605504584 199.61599999999999L 285.2385321100917 193.052L 287.35779816513764 191.072L 289.4770642201835 195.44L 291.5963302752293 196.184L 293.7155963302752 196.46L 295.8348623853211 197.312L 297.95412844036696 193.076L 300.0733944954128 206L 302.1926605504587 186.44L 304.3119266055046 186.632L 306.43119266055044 191.276L 308.55045871559633 180.93200000000002L 310.6697247706422 201.704L 312.7889908256881 185.744L 314.908256880734 196.028L 317.0275229357798 189.464L 319.14678899082566 194.228L 321.26605504587155 195.632L 323.38532110091745 196.844L 325.5045871559633 186.332L 327.62385321100913 197.99599999999998L 329.7431192660551 188.924L 331.86238532110093 189.128L 333.9816513761468 196.748L 336.1009174311926 182.45600000000002L 338.22018348623857 184.16L 340.3394495412844 206L 342.45871559633025 206L 344.57798165137615 206L 346.69724770642205 160.16L 348.8165137614679 198.536L 350.93577981651373 196.60399999999998L 353.0550458715596 195.668L 355.1743119266055 192.8L 357.29357798165137 196.964L 359.41284403669727 197.828L 361.5321100917431 200.84L 363.651376146789 170.312L 365.77064220183485 189.236L 367.88990825688074 177.428L 370.0091743119266 191.564L 372.1284403669725 178.784L 374.2477064220184 176.372L 376.3669724770642 181.7L 378.48623853211006 187.472L 380.60550458715596 192.88400000000001L 382.72477064220186 189.38L 384.8440366972477 187.772L 386.96330275229354 189.404L 389.08256880733944 187.532L 391.20183486238534 193.59199999999998L 393.3211009174312 185.036L 395.440366972477 171.332L 397.559633027523 180.14L 399.6788990825688 172.316L 401.79816513761466 193.028L 403.91743119266056 191.996L 406.03669724770646 193.052L 408.1559633027523 194.84L 410.27522935779814 193.53199999999998L 412.39449541284404 194.024L 414.51376146788994 189.272L 416.6330275229358 195.188L 418.7522935779816 196.256L 420.8715596330275 192.62L 422.9908256880734 190.844L 425.11009174311926 200.984L 427.22935779816515 184.796L 429.348623853211 190.88L 431.4678899082569 194.42000000000002L 433.58715596330273 189.86L 435.70642201834863 195.86L 437.8256880733945 191.984L 439.9449541284404 193.1L 442.06422018348627 186.464L 444.1834862385321 190.46L 446.30275229357795 182.156L 448.42201834862385 187.136L 450.54128440366975 191.528L 452.6605504587156 184.1L 454.77981651376143 189.14L 456.8990825688074 185.204L 459.0183486238532 185.468L 461.13761467889907 176.816L 463.2568807339449 189.04399999999998L 465.37614678899087 191.048L 467.4954128440367 188.756L 469.61467889908255 187.592L 471.73394495412845 191.39600000000002L 473.85321100917434 187.796L 475.9724770642202 188.228L 478.091743119266 190.268L 480.2110091743119 194.372L 482.3302752293578 194.72L 484.44954128440367 201.308L 486.56880733944956 192.752L 488.6880733944954 181.148L 490.8073394495413 181.748L 492.92660550458714 181.208L 495.04587155963304 191.3L 497.1651376146789 186.88400000000001L 499.2844036697248 181.376L 501.4036697247707 186.5L 503.5229357798165 188.44400000000002L 505.64220183486236 179.66L 507.76146788990826 183.09199999999998L 509.88073394495416 173.564L 512 183.836L 514.119266055046 171.668L 516.2385321100917 148.148L 518.3577981651376 178.004L 520.4770642201834 141.86L 522.5963302752293 186.128L 524.7155963302753 188.54000000000002L 526.834862385321 187.748L 528.954128440367 193.256L 531.0733944954129 186.596L 533.1926605504586 185.42000000000002L 535.3119266055046 186.872L 537.4311926605504 185.372L 539.5504587155963 192.824L 541.6697247706422 188.552L 543.788990825688 189.32L 545.9082568807339 186.632L 548.0275229357799 185.768L 550.1467889908256 188.744L 552.2660550458716 187.34L 554.3853211009174 192.488L 556.5045871559632 187.028L 558.6238532110092 185.468L 560.743119266055 181.928L 562.8623853211009 183.8L 564.9816513761468 180.296L 567.1009174311927 185.516L 569.2201834862385 194L 571.3394495412844 190.328L 573.4587155963303 186.584L 575.5779816513761 168.32L 577.697247706422 117.5L 579.816513761468 189.10399999999998L 581.9357798165138 187.844L 584.0550458715596 190.28L 586.1743119266055 192.32L 588.2935779816513 189.2L 590.4128440366973 182.288L 592.5321100917431 188.49200000000002L 594.651376146789 178.916L 596.7706422018349 53.432000000000016L 598.8899082568807 162.656L 601.0091743119266 184.52L 603.1284403669725 182.708L 605.2477064220183 183.68L 607.3669724770642 184.196L 609.4862385321102 179.084L 611.6055045871559 190.16L 613.7247706422019 180.476L 615.8440366972477 160.916L 617.9633027522935 121.196L 620.0825688073395 151.50799999999998L 622.2018348623852 164.132L 624.3211009174312 181.184L 626.4403669724771 170.49200000000002L 628.5596330275229 179.792L 630.6788990825688 173.204L 632.7981651376148 178.352L 634.9174311926605 182.792L 637.0366972477065 177.152L 639.1559633027523 184.232L 641.2752293577981 187.796L 643.3944954128441 188.348L 645.5137614678898 184.736L 647.6330275229358 181.892L 649.7522935779817 181.796L 651.8715596330275 179.36L 653.9908256880734 168.176L 656.1100917431193 181.808L 658.2293577981651 185.372L 660.348623853211 167.708L 662.4678899082569 140.6L 664.5871559633027 160.784L 666.7064220183487 151.664L 668.8256880733945 145.952L 670.9449541284404 155.288L 673.0642201834862 153.68L 675.183486238532 163.04L 677.302752293578 172.064L 679.4220183486239 148.952L 681.5412844036697 171.812L 683.6605504587156 172.46L 685.7798165137615 172.508L 687.8990825688073 183.644L 690.0183486238532 166.304L 692.1376146788991 159.26L 694.256880733945 172.652L 696.3761467889908 165.5L 698.4954128440368 154.892L 700.6146788990826 173.888L 702.7339449541284 176.3L 704.8532110091743 186.5L 706.9724770642201 183.932L 709.0917431192661 183.10399999999998L 711.2110091743119 150.128L 713.3302752293578 183.11599999999999L 715.4495412844037 186.152L 717.5688073394496 185.096L 719.6880733944954 182.276L 721.8073394495414 182.18L 723.9266055045871 182.144L 726.045871559633 174.956L 728.1651376146789 181.988L 730.2844036697247 179.504L 732.4036697247707 184.784L 734.5229357798165 179L 736.6422018348624 175.868L 738.7614678899083 177.14L 740.880733944954 178.832L 743 182.216L 745.119266055046 176.444L 747.2385321100917 182.576L 749.3577981651376 177.02L 751.4770642201835 178.58L 753.5963302752293 182.144L 755.7155963302753 179.48L 757.8348623853211 176.972L 759.954128440367 186.164L 762.0733944954129 176.096L 764.1926605504586 178.04L 766.3119266055046 152.996L 768.4311926605504 130.724L 770.5504587155963 149.888L 772.6697247706422 149.48L 774.7889908256881 184.1L 776.9082568807339 184.484L 779.0275229357799 177.56L 781.1467889908257 139.952L 783.2660550458716 148.028L 785.3853211009174 162.428L 787.5045871559632 136.244L 789.6238532110092 132.128L 791.743119266055 142.508L 793.8623853211009 143.252L 795.9816513761468 125.732L 798.1009174311927 117.06800000000001L 800.2201834862385 164.264L 802.3394495412844 161.876L 804.4587155963303 158.636L 806.5779816513761 176.40800000000002L 808.697247706422 186.632L 810.816513761468 187.352L 812.9357798165138 186.152L 815.0550458715596 174.932L 817.1743119266055 178.388L 819.2935779816513 194.636L 821.4128440366973 184.748L 823.5321100917431 182.84L 825.651376146789 173.78L 827.7706422018349 177.56L 829.8899082568807 179.996L 832.0091743119266 183.188L 834.1284403669725 153.68L 836.2477064220183 147.548L 838.3669724770642 185.504L 840.4862385321102 190.724L 842.6055045871559 174.752L 844.7247706422019 174.32L 846.8440366972477 183.692L 848.9633027522935 189.06799999999998L 851.0825688073395 186.88400000000001L 853.2018348623852 179.096L 855.3211009174312 175.808L 857.4403669724771 161.672L 859.5596330275229 160.424L 861.6788990825688 165.632L 863.7981651376148 179.336L 865.9174311926605 183.272L 868.0366972477065 191.024L 870.1559633027523 195.14L 872.2752293577981 182.684L 874.3944954128441 162.416L 876.5137614678898 169.712L 878.6330275229358 168.536L 880.7522935779817 179.024L 882.8715596330275 170.768L 884.9908256880734 161.9L 887.1100917431193 170.012L 889.2293577981651 180.656L 891.348623853211 178.796L 893.4678899082569 164.648L 895.5871559633027 152.95999999999998L 897.7064220183487 156.62L 899.8256880733945 154.568L 901.9449541284404 142.088L 904.0642201834862 156.704L 906.183486238532 176.924L 908.302752293578 142.652L 910.4220183486239 131.372L 912.5412844036697 137.276L 914.6605504587156 142.7L 916.7798165137615 151.136L 918.8990825688073 138.02L 921.0183486238532 110.324L 923.1376146788991 109.724L 925.256880733945 163.268L 927.3761467889908 161.996L 929.4954128440368 148.016L 931.6146788990826 147.68L 933.7339449541284 50.792L 935.8532110091743 121.652L 937.9724770642201 58.615999999999985L 940.0917431192661 120.38L 942.2110091743119 155.672L 944.3302752293578 145.76L 946.4495412844037 133.54399999999998L 948.5688073394496 86.696L 950.6880733944954 103.568L 952.8073394495414 139.208L 954.9266055045871 155.876L 957.045871559633 150.584L 959.1651376146789 92L 961.2844036697247 148.052L 963.4036697247707 113.132L 965.5229357798165 124.316L 967.6422018348624 179.552L 969.7614678899083 134.45600000000002L 971.880733944954 119.44399999999999L 974 186.008" stroke-width="2.0" fill="none" />
    
        
        
        <text x="45.0" font-family="-apple-system, system-ui, BlinkMacSystemFont, Roboto" y="50.0" dominant-baseline="middle" text-anchor="end" font-size="12" fill="#24292f">13000.0</text>
        
            
            <path stroke="#74838f" stroke-dasharray="10 6" stroke-width="0.5"  d="M 50.0 50.0 L 974.0 50.0" />
        
    
        
        
        <text x="45.0" font-family="-apple-system, system-ui, BlinkMacSystemFont, Roboto" y="81.2" dominant-baseline="middle" text-anchor="end" font-size="12" fill="#24292f">10400.0</text>
        
            
            
            <path stroke="#74838f" stroke-dasharray="10 6" stroke-width="0.5"  d="M 50.0 81.2 L 974.0 81.2" />
        
    
        
        
        <text x="45.0" font-family="-apple-system, system-ui, BlinkMacSystemFont, Roboto" y="112.4" dominant-baseline="middle" text-anchor="end" font-size="12" fill="#24292f">7800.0</text>
        
            
            
            <path stroke="#74838f" stroke-dasharray="10 6" stroke-width="0.5"  d="M 50.0 112.4 L 974.0 112.4" />
        
    
        
        
        <text x="45.0" font-family="-apple-system, system-ui, BlinkMacSystemFont, Roboto" y="143.6" dominant-baseline="middle" text-anchor="end" font-size="12" fill="#24292f">5200.0</text>
        
            
            
            <path stroke="#74838f" stroke-dasharray="10 6" stroke-width="0.5"  d="M 50.0 143.6 L 974.0 143.6" />
        
    
        
        
        <text x="45.0" font-family="-apple-system, system-ui, BlinkMacSystemFont, Roboto" y="174.8" dominant-baseline="middle" text-anchor="end" font-size="12" fill="#24292f">2600.0</text>
        
            
            
            <path stroke="#74838f" stroke-dasharray="10 6" stroke-width="0.5"  d="M 50.0 174.8 L 974.0 174.8" />
        
    
        
        
        <text x="45.0" font-family="-apple-system, system-ui, BlinkMacSystemFont, Roboto" y="206.0" dominant-baseline="middle" text-anchor="end" font-size="12" fill="#24292f">0.0</text>
        
    
    
        
        <path stroke="#74838f"  stroke-width="2.0"  d="M 83.90825688073394 206.0 L 83.90825688073394 214.0" />
        <text x="83.90825688073394" font-family="-apple-system, system-ui, BlinkMacSystemFont, Roboto" y="216.0" dominant-baseline="hanging" text-anchor="middle" font-size="12" fill="#24292f">Mar 2022</text>
    
        
        <path stroke="#74838f"  stroke-width="2.0"  d="M 149.60550458715596 206.0 L 149.60550458715596 214.0" />
        <text x="149.60550458715596" font-family="-apple-system, system-ui, BlinkMacSystemFont, Roboto" y="216.0" dominant-baseline="hanging" text-anchor="middle" font-size="12" fill="#24292f">Apr 2022</text>
    
        
        <path stroke="#74838f"  stroke-width="2.0"  d="M 213.1834862385321 206.0 L 213.1834862385321 214.0" />
        <text x="213.1834862385321" font-family="-apple-system, system-ui, BlinkMacSystemFont, Roboto" y="216.0" dominant-baseline="hanging" text-anchor="middle" font-size="12" fill="#24292f">May 2022</text>
    
        
        <path stroke="#74838f"  stroke-width="2.0"  d="M 278.88073394495416 206.0 L 278.88073394495416 214.0" />
        <text x="278.88073394495416" font-family="-apple-system, system-ui, BlinkMacSystemFont, Roboto" y="216.0" dominant-baseline="hanging" text-anchor="middle" font-size="12" fill="#24292f">Jun 2022</text>
    
        
        <path stroke="#74838f"  stroke-width="2.0"  d="M 342.45871559633025 206.0 L 342.45871559633025 214.0" />
        <text x="342.45871559633025" font-family="-apple-system, system-ui, BlinkMacSystemFont, Roboto" y="216.0" dominant-baseline="hanging" text-anchor="middle" font-size="12" fill="#24292f">Jul 2022</text>
    
        
        <path stroke="#74838f"  stroke-width="2.0"  d="M 408.1559633027523 206.0 L 408.1559633027523 214.0" />
        <text x="408.1559633027523" font-family="-apple-system, system-ui, BlinkMacSystemFont, Roboto" y="216.0" dominant-baseline="hanging" text-anchor="middle" font-size="12" fill="#24292f">Aug 2022</text>
    
        
        <path stroke="#74838f"  stroke-width="2.0"  d="M 473.85321100917434 206.0 L 473.85321100917434 214.0" />
        <text x="473.85321100917434" font-family="-apple-system, system-ui, BlinkMacSystemFont, Roboto" y="216.0" dominant-baseline="hanging" text-anchor="middle" font-size="12" fill="#24292f">Sep 2022</text>
    
        
        <path stroke="#74838f"  stroke-width="2.0"  d="M 537.4311926605504 206.0 L 537.4311926605504 214.0" />
        <text x="537.4311926605504" font-family="-apple-system, system-ui, BlinkMacSystemFont, Roboto" y="216.0" dominant-baseline="hanging" text-anchor="middle" font-size="12" fill="#24292f">Oct 2022</text>
    
        
        <path stroke="#74838f"  stroke-width="2.0"  d="M 603.1284403669725 206.0 L 603.1284403669725 214.0" />
        <text x="603.1284403669725" font-family="-apple-system, system-ui, BlinkMacSystemFont, Roboto" y="216.0" dominant-baseline="hanging" text-anchor="middle" font-size="12" fill="#24292f">Nov 2022</text>
    
        
        <path stroke="#74838f"  stroke-width="2.0"  d="M 666.7064220183487 206.0 L 666.7064220183487 214.0" />
        <text x="666.7064220183487" font-family="-apple-system, system-ui, BlinkMacSystemFont, Roboto" y="216.0" dominant-baseline="hanging" text-anchor="middle" font-size="12" fill="#24292f">Dec 2022</text>
    
        
        <path stroke="#74838f"  stroke-width="2.0"  d="M 732.4036697247707 206.0 L 732.4036697247707 214.0" />
        <text x="732.4036697247707" font-family="-apple-system, system-ui, BlinkMacSystemFont, Roboto" y="216.0" dominant-baseline="hanging" text-anchor="middle" font-size="12" fill="#24292f">Jan 2023</text>
    
        
        <path stroke="#74838f"  stroke-width="2.0"  d="M 798.1009174311927 206.0 L 798.1009174311927 214.0" />
        <text x="798.1009174311927" font-family="-apple-system, system-ui, BlinkMacSystemFont, Roboto" y="216.0" dominant-baseline="hanging" text-anchor="middle" font-size="12" fill="#24292f">Feb 2023</text>
    
        
        <path stroke="#74838f"  stroke-width="2.0"  d="M 857.4403669724771 206.0 L 857.4403669724771 214.0" />
        <text x="857.4403669724771" font-family="-apple-system, system-ui, BlinkMacSystemFont, Roboto" y="216.0" dominant-baseline="hanging" text-anchor="middle" font-size="12" fill="#24292f">Mar 2023</text>
    
        
        <path stroke="#74838f"  stroke-width="2.0"  d="M 923.1376146788991 206.0 L 923.1376146788991 214.0" />
        <text x="923.1376146788991" font-family="-apple-system, system-ui, BlinkMacSystemFont, Roboto" y="216.0" dominant-baseline="hanging" text-anchor="middle" font-size="12" fill="#24292f">Apr 2023</text>
    
    <path stroke="#74838f"   stroke-linejoin="round" stroke-width="2.0" d="M 50.0 216.0 L 50.0 206.0 L 974.0 206.0 L 974.0 216.0"  fill="none" />
    <text x="512.0" y="25.0" font-family="-apple-system, system-ui, BlinkMacSystemFont, Roboto" dominant-baseline="middle" text-anchor="middle" font-size="18" fill="#24292f">Total daily suspensions</text>
</svg>
