<?xml version="1.0" standalone="no"?>
<svg width="1024.0" height="256.0"  viewBox="0 0 1024.0 256.0" preserveAspectRatio="xMidYMid meet" xmlns="http://www.w3.org/2000/svg">
    <path stroke="#e74c3c" stroke-linejoin="round" d="M 50.0 161.108 L 50 161.108L 52.8875 193.664L 55.775 197.576L 58.6625 197.924L 61.55 203.528L 64.4375 199.94L 67.325 199.268L 70.2125 191.108L 73.1 200.972L 75.9875 198.62L 78.875 200L 81.7625 202.57999999999998L 84.65 199.208L 87.5375 195.608L 90.425 202.652L 93.3125 198.716L 96.2 197.49200000000002L 99.0875 191.42000000000002L 101.975 196.688L 104.8625 199.46L 107.75 199.328L 110.6375 198.308L 113.525 198.164L 116.4125 199.832L 119.3 194.876L 122.1875 199.904L 125.075 195.584L 127.9625 200.732L 130.85 198.416L 133.7375 190.652L 136.625 196.112L 139.5125 190.82L 142.4 193.53199999999998L 145.2875 199.688L 148.175 192.392L 151.0625 197L 153.95 199.59199999999998L 156.8375 193.54399999999998L 159.725 195.26L 162.6125 195.428L 165.5 195.548L 168.3875 196.484L 171.275 199.424L 174.1625 199.22L 177.05 195.656L 179.9375 193.952L 182.825 195.536L 185.7125 198.764L 188.6 195.428L 191.4875 194L 194.375 193.688L 197.2625 186.32L 200.15 197.372L 203.0375 195.96800000000002L 205.925 198.284L 208.8125 194.38400000000001L 211.7 196.424L 214.5875 196.988L 217.475 198.368L 220.3625 198.05599999999998L 223.25 199.61599999999999L 226.1375 191.54L 229.025 202.124L 231.9125 193.34L 234.8 204.2L 237.6875 206L 240.575 206L 243.4625 206L 246.35 206L 249.2375 190.472L 252.125 159.01999999999998L 255.0125 193.56799999999998L 257.9 200.228L 260.7875 193.232L 263.675 196.82L 266.5625 199.772L 269.45 186.548L 272.3375 197.888L 275.225 195.596L 278.1125 190.508L 281 194.876L 283.8875 190.4L 286.775 188.756L 289.6625 197.852L 292.55 199.772L 295.4375 191.936L 298.325 191.864L 301.2125 199.316L 304.1 194.72L 306.9875 192.608L 309.875 194.9L 312.7625 199.7L 315.65 189.224L 318.5375 198.428L 321.425 196.136L 324.3125 195.296L 327.2 196.268L 330.0875 193.184L 332.975 197.204L 335.8625 193.856L 338.75 197.096L 341.6375 178.16L 344.525 194.372L 347.4125 195.92000000000002L 350.3 195.11599999999999L 353.1875 196.688L 356.075 197.49200000000002L 358.9625 197.696L 361.85 186.848L 364.7375 192.644L 367.625 199.61599999999999L 370.5125 193.052L 373.4 191.072L 376.2875 195.44L 379.175 196.184L 382.0625 196.46L 384.95 197.312L 387.8375 193.076L 390.725 206L 393.6125 186.44L 396.5 186.632L 399.3875 191.276L 402.275 180.93200000000002L 405.1625 201.704L 408.05 185.744L 410.9375 196.028L 413.825 189.464L 416.7125 194.228L 419.6 195.632L 422.4875 196.844L 425.375 186.332L 428.2625 197.99599999999998L 431.15 188.924L 434.0375 189.128L 436.925 196.748L 439.8125 182.45600000000002L 442.7 184.16L 445.5875 206L 448.475 206L 451.3625 206L 454.25 160.16L 457.1375 198.536L 460.025 196.60399999999998L 462.9125 195.668L 465.8 192.8L 468.6875 196.964L 471.575 197.828L 474.4625 200.84L 477.35 170.312L 480.2375 189.236L 483.125 177.428L 486.0125 191.564L 488.9 178.784L 491.7875 176.372L 494.675 181.7L 497.5625 187.472L 500.45 192.88400000000001L 503.3375 189.38L 506.225 187.772L 509.1125 189.404L 512 187.532L 514.8875 193.59199999999998L 517.775 185.036L 520.6625 171.332L 523.55 180.14L 526.4375 172.316L 529.325 193.028L 532.2125 191.996L 535.1 193.052L 537.9875 194.84L 540.875 193.53199999999998L 543.7625 194.024L 546.65 189.272L 549.5375 195.188L 552.425 196.256L 555.3125 192.62L 558.2 190.844L 561.0875 200.984L 563.975 184.796L 566.8625 190.88L 569.75 194.42000000000002L 572.6375 189.86L 575.525 195.86L 578.4125 191.984L 581.3 193.1L 584.1875 186.464L 587.075 190.46L 589.9625 182.156L 592.85 187.136L 595.7375 191.528L 598.625 184.1L 601.5125 189.14L 604.4 185.204L 607.2875 185.468L 610.175 176.828L 613.0625 189.04399999999998L 615.95 191.048L 618.8375 188.756L 621.725 187.592L 624.6125 191.39600000000002L 627.5 187.796L 630.3875 188.228L 633.275 190.268L 636.1625 194.372L 639.05 194.72L 641.9375 201.308L 644.825 192.752L 647.7125 181.148L 650.6 181.748L 653.4875 181.208L 656.375 191.3L 659.2625 186.88400000000001L 662.15 181.376L 665.0375 186.5L 667.925 188.44400000000002L 670.8125 179.66L 673.7 183.09199999999998L 676.5875 173.564L 679.475 183.836L 682.3625 171.668L 685.25 148.148L 688.1375 178.004L 691.025 141.86L 693.9125 186.128L 696.8 188.54000000000002L 699.6875 187.748L 702.575 193.256L 705.4625 186.596L 708.35 185.42000000000002L 711.2375 186.872L 714.125 185.372L 717.0125 192.824L 719.9 188.552L 722.7875 189.32L 725.675 186.632L 728.5625 185.768L 731.45 188.744L 734.3375 187.34L 737.225 192.488L 740.1125 187.028L 743 185.468L 745.8875 181.928L 748.775 183.8L 751.6625 180.296L 754.55 185.516L 757.4375 194L 760.325 190.328L 763.2125 186.584L 766.1 168.32L 768.9875 117.5L 771.875 189.10399999999998L 774.7625 187.844L 777.65 190.28L 780.5375 192.32L 783.425 189.2L 786.3125 182.288L 789.2 188.49200000000002L 792.0875 178.916L 794.975 53.432000000000016L 797.8625 162.656L 800.75 184.52L 803.6375 182.708L 806.525 183.68L 809.4125 184.196L 812.3 179.084L 815.1875 190.16L 818.075 180.476L 820.9625 160.916L 823.85 121.196L 826.7375 151.50799999999998L 829.625 164.132L 832.5125 181.184L 835.4 170.49200000000002L 838.2875 179.792L 841.175 173.204L 844.0625 178.352L 846.95 182.792L 849.8375 177.152L 852.725 184.232L 855.6125 187.796L 858.5 188.348L 861.3875 184.736L 864.275 181.892L 867.1625 181.796L 870.05 179.36L 872.9375 168.176L 875.825 181.808L 878.7125 185.372L 881.6 167.708L 884.4875 140.6L 887.375 160.784L 890.2625 151.664L 893.15 145.952L 896.0375 155.288L 898.925 153.68L 901.8125 163.04L 904.7 172.064L 907.5875 148.952L 910.475 171.812L 913.3625 172.46L 916.25 172.508L 919.1375 183.644L 922.025 166.304L 924.9125 159.26L 927.8 172.652L 930.6875 165.5L 933.575 154.892L 936.4625 173.888L 939.35 176.3L 942.2375 186.5L 945.125 183.932L 948.0125 183.10399999999998L 950.9 150.128L 953.7875 183.11599999999999L 956.675 186.152L 959.5625 185.096L 962.45 182.276L 965.3375 182.18L 968.225 182.144L 971.1125 174.956L 974 193.292" stroke-width="2.0" fill="none" />
    
        
        
        <text x="45.0" font-family="-apple-system, system-ui, BlinkMacSystemFont, Roboto" y="50.0" dominant-baseline="middle" text-anchor="end" font-size="12" fill="#24292f">13000.0</text>
        
            
            <path stroke="#74838f" stroke-dasharray="10 6" stroke-width="0.5"  d="M 50.0 50.0 L 974.0 50.0" />
        
    
        
        
        <text x="45.0" font-family="-apple-system, system-ui, BlinkMacSystemFont, Roboto" y="81.2" dominant-baseline="middle" text-anchor="end" font-size="12" fill="#24292f">10400.0</text>
        
            
            
            <path stroke="#74838f" stroke-dasharray="10 6" stroke-width="0.5"  d="M 50.0 81.2 L 974.0 81.2" />
        
    
        
        
        <text x="45.0" font-family="-apple-system, system-ui, BlinkMacSystemFont, Roboto" y="112.4" dominant-baseline="middle" text-anchor="end" font-size="12" fill="#24292f">7800.0</text>
        
            
            
            <path stroke="#74838f" stroke-dasharray="10 6" stroke-width="0.5"  d="M 50.0 112.4 L 974.0 112.4" />
        
    
        
        
        <text x="45.0" font-family="-apple-system, system-ui, BlinkMacSystemFont, Roboto" y="143.6" dominant-baseline="middle" text-anchor="end" font-size="12" fill="#24292f">5200.0</text>
        
            
            
            <path stroke="#74838f" stroke-dasharray="10 6" stroke-width="0.5"  d="M 50.0 143.6 L 974.0 143.6" />
        
    
        
        
        <text x="45.0" font-family="-apple-system, system-ui, BlinkMacSystemFont, Roboto" y="174.8" dominant-baseline="middle" text-anchor="end" font-size="12" fill="#24292f">2600.0</text>
        
            
            
            <path stroke="#74838f" stroke-dasharray="10 6" stroke-width="0.5"  d="M 50.0 174.8 L 974.0 174.8" />
        
    
        
        
        <text x="45.0" font-family="-apple-system, system-ui, BlinkMacSystemFont, Roboto" y="206.0" dominant-baseline="middle" text-anchor="end" font-size="12" fill="#24292f">0.0</text>
        
    
    
        
        <path stroke="#74838f"  stroke-width="2.0"  d="M 96.2 206.0 L 96.2 214.0" />
        <text x="96.2" font-family="-apple-system, system-ui, BlinkMacSystemFont, Roboto" y="216.0" dominant-baseline="hanging" text-anchor="middle" font-size="12" fill="#24292f">Mar 2022</text>
    
        
        <path stroke="#74838f"  stroke-width="2.0"  d="M 185.7125 206.0 L 185.7125 214.0" />
        <text x="185.7125" font-family="-apple-system, system-ui, BlinkMacSystemFont, Roboto" y="216.0" dominant-baseline="hanging" text-anchor="middle" font-size="12" fill="#24292f">Apr 2022</text>
    
        
        <path stroke="#74838f"  stroke-width="2.0"  d="M 272.3375 206.0 L 272.3375 214.0" />
        <text x="272.3375" font-family="-apple-system, system-ui, BlinkMacSystemFont, Roboto" y="216.0" dominant-baseline="hanging" text-anchor="middle" font-size="12" fill="#24292f">May 2022</text>
    
        
        <path stroke="#74838f"  stroke-width="2.0"  d="M 361.85 206.0 L 361.85 214.0" />
        <text x="361.85" font-family="-apple-system, system-ui, BlinkMacSystemFont, Roboto" y="216.0" dominant-baseline="hanging" text-anchor="middle" font-size="12" fill="#24292f">Jun 2022</text>
    
        
        <path stroke="#74838f"  stroke-width="2.0"  d="M 448.475 206.0 L 448.475 214.0" />
        <text x="448.475" font-family="-apple-system, system-ui, BlinkMacSystemFont, Roboto" y="216.0" dominant-baseline="hanging" text-anchor="middle" font-size="12" fill="#24292f">Jul 2022</text>
    
        
        <path stroke="#74838f"  stroke-width="2.0"  d="M 537.9875 206.0 L 537.9875 214.0" />
        <text x="537.9875" font-family="-apple-system, system-ui, BlinkMacSystemFont, Roboto" y="216.0" dominant-baseline="hanging" text-anchor="middle" font-size="12" fill="#24292f">Aug 2022</text>
    
        
        <path stroke="#74838f"  stroke-width="2.0"  d="M 627.5 206.0 L 627.5 214.0" />
        <text x="627.5" font-family="-apple-system, system-ui, BlinkMacSystemFont, Roboto" y="216.0" dominant-baseline="hanging" text-anchor="middle" font-size="12" fill="#24292f">Sep 2022</text>
    
        
        <path stroke="#74838f"  stroke-width="2.0"  d="M 714.125 206.0 L 714.125 214.0" />
        <text x="714.125" font-family="-apple-system, system-ui, BlinkMacSystemFont, Roboto" y="216.0" dominant-baseline="hanging" text-anchor="middle" font-size="12" fill="#24292f">Oct 2022</text>
    
        
        <path stroke="#74838f"  stroke-width="2.0"  d="M 803.6375 206.0 L 803.6375 214.0" />
        <text x="803.6375" font-family="-apple-system, system-ui, BlinkMacSystemFont, Roboto" y="216.0" dominant-baseline="hanging" text-anchor="middle" font-size="12" fill="#24292f">Nov 2022</text>
    
        
        <path stroke="#74838f"  stroke-width="2.0"  d="M 890.2625 206.0 L 890.2625 214.0" />
        <text x="890.2625" font-family="-apple-system, system-ui, BlinkMacSystemFont, Roboto" y="216.0" dominant-baseline="hanging" text-anchor="middle" font-size="12" fill="#24292f">Dec 2022</text>
    
    <path stroke="#74838f"   stroke-linejoin="round" stroke-width="2.0" d="M 50.0 216.0 L 50.0 206.0 L 974.0 206.0 L 974.0 216.0"  fill="none" />
    <text x="512.0" y="25.0" font-family="-apple-system, system-ui, BlinkMacSystemFont, Roboto" dominant-baseline="middle" text-anchor="middle" font-size="18" fill="#24292f">Total daily suspensions</text>
</svg>
