<?xml version="1.0" standalone="no"?>
<svg width="1024.0" height="256.0"  viewBox="0 0 1024.0 256.0" preserveAspectRatio="xMidYMid meet" xmlns="http://www.w3.org/2000/svg">
    <path stroke="#e74c3c" stroke-linejoin="round" d="M 50.0 161.108 L 50 161.108L 52.860681114551085 193.664L 55.72136222910217 197.576L 58.582043343653254 197.924L 61.44272445820434 203.528L 64.30340557275542 199.94L 67.16408668730651 199.268L 70.02476780185759 191.108L 72.88544891640868 200.972L 75.74613003095975 198.62L 78.60681114551083 200L 81.46749226006192 202.57999999999998L 84.328173374613 199.208L 87.18885448916409 195.608L 90.04953560371517 202.652L 92.91021671826626 198.716L 95.77089783281734 197.49200000000002L 98.63157894736841 191.42000000000002L 101.4922600619195 196.688L 104.35294117647058 199.46L 107.21362229102166 199.328L 110.07430340557275 198.308L 112.93498452012383 198.164L 115.79566563467493 199.832L 118.656346749226 194.876L 121.51702786377709 199.904L 124.37770897832817 195.584L 127.23839009287926 200.732L 130.09907120743034 198.416L 132.95975232198143 190.652L 135.8204334365325 196.112L 138.6811145510836 190.82L 141.54179566563468 193.53199999999998L 144.40247678018576 199.688L 147.26315789473682 192.392L 150.12383900928793 197L 152.984520123839 199.59199999999998L 155.8452012383901 193.54399999999998L 158.70588235294116 195.26L 161.56656346749227 195.428L 164.42724458204333 195.548L 167.2879256965944 196.484L 170.1486068111455 199.424L 173.00928792569658 199.22L 175.86996904024767 195.656L 178.73065015479875 193.952L 181.59133126934987 195.536L 184.45201238390092 198.764L 187.312693498452 195.428L 190.1733746130031 194L 193.03405572755418 193.688L 195.89473684210526 186.32L 198.75541795665634 197.372L 201.61609907120743 195.96800000000002L 204.4767801857585 198.284L 207.3374613003096 194.38400000000001L 210.19814241486068 196.424L 213.05882352941177 196.988L 215.91950464396285 198.368L 218.78018575851394 198.05599999999998L 221.64086687306502 199.61599999999999L 224.50154798761608 191.54L 227.3622291021672 202.124L 230.22291021671828 193.34L 233.08359133126936 204.2L 235.94427244582042 206L 238.80495356037153 206L 241.66563467492261 206L 244.52631578947367 206L 247.38699690402476 190.472L 250.24767801857587 159.01999999999998L 253.10835913312695 193.56799999999998L 255.969040247678 200.228L 258.82972136222907 193.232L 261.6904024767802 196.82L 264.55108359133123 199.772L 267.4117647058823 186.548L 270.2724458204334 197.888L 273.13312693498455 195.596L 275.9938080495356 190.508L 278.85448916408666 194.876L 281.71517027863774 190.4L 284.5758513931888 188.756L 287.43653250773997 197.852L 290.297213622291 199.772L 293.1578947368421 191.936L 296.01857585139317 191.864L 298.87925696594425 199.316L 301.73993808049534 194.72L 304.6006191950464 192.608L 307.4613003095975 194.9L 310.3219814241486 199.7L 313.18266253869973 189.224L 316.04334365325076 198.428L 318.90402476780184 196.136L 321.7647058823529 195.296L 324.625386996904 196.268L 327.48606811145515 193.184L 330.3467492260062 197.204L 333.20743034055727 193.856L 336.06811145510835 197.096L 338.92879256965944 178.16L 341.7894736842105 194.372L 344.6501547987616 195.92000000000002L 347.5108359133127 195.11599999999999L 350.3715170278638 196.688L 353.23219814241486 197.49200000000002L 356.09287925696594 197.696L 358.953560371517 186.848L 361.8142414860681 192.644L 364.6749226006192 199.61599999999999L 367.5356037151703 193.052L 370.39628482972137 191.072L 373.25696594427245 195.44L 376.11764705882354 196.184L 378.9783281733746 196.46L 381.8390092879257 197.312L 384.6996904024768 193.076L 387.5603715170279 206L 390.4210526315789 186.44L 393.28173374613004 186.632L 396.14241486068113 191.276L 399.00309597523216 180.93200000000002L 401.8637770897833 201.704L 404.7244582043344 185.744L 407.58513931888547 196.028L 410.44582043343655 189.464L 413.3065015479876 194.228L 416.1671826625387 195.632L 419.0278637770898 196.844L 421.88854489164083 186.332L 424.749226006192 197.99599999999998L 427.60990712074306 188.924L 430.4705882352941 189.128L 433.33126934984523 196.748L 436.19195046439626 182.45600000000002L 439.05263157894734 184.16L 441.9133126934985 206L 444.7739938080495 206L 447.6346749226006 206L 450.49535603715174 160.16L 453.35603715170276 198.536L 456.2167182662539 196.60399999999998L 459.07739938080493 195.668L 461.938080495356 192.8L 464.79876160990716 196.964L 467.6594427244582 197.828L 470.5201238390093 200.84L 473.3808049535604 170.312L 476.24148606811144 189.236L 479.1021671826625 177.428L 481.9628482972136 191.564L 484.8235294117647 178.784L 487.6842105263158 176.372L 490.54489164086687 181.7L 493.40557275541795 187.472L 496.2662538699691 192.88400000000001L 499.1269349845201 189.38L 501.9876160990712 187.772L 504.8482972136223 189.404L 507.7089783281734 187.532L 510.56965944272446 193.59199999999998L 513.4303405572755 185.036L 516.2910216718267 171.332L 519.1517027863777 180.14L 522.0123839009289 172.316L 524.8730650154799 193.028L 527.7337461300309 191.996L 530.594427244582 193.052L 533.4551083591332 194.84L 536.3157894736842 193.53199999999998L 539.1764705882354 194.024L 542.0371517027863 189.272L 544.8978328173374 195.188L 547.7585139318885 196.256L 550.6191950464397 192.62L 553.4798761609907 190.844L 556.3405572755419 200.984L 559.2012383900928 184.796L 562.0619195046439 190.88L 564.922600619195 194.42000000000002L 567.7832817337462 189.86L 570.6439628482972 195.86L 573.5046439628483 191.984L 576.3653250773995 193.1L 579.2260061919504 186.464L 582.0866873065015 190.46L 584.9473684210526 182.156L 587.8080495356037 187.136L 590.6687306501548 191.528L 593.5294117647059 184.1L 596.390092879257 189.14L 599.250773993808 185.204L 602.1114551083591 185.468L 604.9721362229103 176.828L 607.8328173374613 189.04399999999998L 610.6934984520124 191.048L 613.5541795665636 188.756L 616.4148606811145 187.592L 619.2755417956656 191.39600000000002L 622.1362229102167 187.796L 624.9969040247678 188.228L 627.8575851393189 190.268L 630.71826625387 194.372L 633.578947368421 194.72L 636.4396284829721 201.308L 639.3003095975232 192.752L 642.1609907120743 181.148L 645.0216718266254 181.748L 647.8823529411765 181.208L 650.7430340557275 191.3L 653.6037151702786 186.88400000000001L 656.4643962848297 181.376L 659.3250773993808 186.5L 662.1857585139319 188.44400000000002L 665.046439628483 179.66L 667.907120743034 183.09199999999998L 670.7678018575851 173.564L 673.6284829721362 183.836L 676.4891640866873 171.668L 679.3498452012384 148.148L 682.2105263157895 178.004L 685.0712074303406 141.86L 687.9318885448916 186.128L 690.7925696594427 188.54000000000002L 693.6532507739938 187.748L 696.5139318885449 193.256L 699.374613003096 186.596L 702.2352941176471 185.42000000000002L 705.0959752321982 186.872L 707.9566563467492 185.372L 710.8173374613003 192.824L 713.6780185758514 188.552L 716.5386996904025 189.32L 719.3993808049536 186.632L 722.2600619195047 185.768L 725.1207430340557 188.744L 727.9814241486068 187.34L 730.8421052631578 192.488L 733.702786377709 187.028L 736.5634674922601 185.468L 739.4241486068111 181.928L 742.2848297213623 183.8L 745.1455108359133 180.296L 748.0061919504643 185.516L 750.8668730650155 194L 753.7275541795666 190.328L 756.5882352941176 186.584L 759.4489164086688 168.32L 762.3095975232198 117.5L 765.1702786377709 189.10399999999998L 768.030959752322 187.844L 770.8916408668731 190.28L 773.7523219814242 192.32L 776.6130030959752 189.2L 779.4736842105264 182.288L 782.3343653250774 188.49200000000002L 785.1950464396284 178.916L 788.0557275541796 53.432000000000016L 790.9164086687307 162.656L 793.7770897832817 184.52L 796.6377708978329 182.708L 799.498452012384 183.68L 802.3591331269349 184.196L 805.2198142414861 179.084L 808.0804953560372 190.16L 810.9411764705882 180.476L 813.8018575851393 160.916L 816.6625386996905 121.196L 819.5232198142414 151.50799999999998L 822.3839009287925 164.132L 825.2445820433437 181.184L 828.1052631578947 170.49200000000002L 830.9659442724458 179.792L 833.826625386997 173.204L 836.6873065015479 178.352L 839.547987616099 182.792L 842.4086687306502 177.152L 845.2693498452012 184.232L 848.1300309597523 187.796L 850.9907120743035 188.348L 853.8513931888546 184.736L 856.7120743034055 181.892L 859.5727554179566 181.796L 862.4334365325078 179.36L 865.2941176470588 168.176L 868.1547987616099 181.808L 871.0154798761611 185.372L 873.876160990712 167.708L 876.7368421052631 140.6L 879.5975232198143 160.784L 882.4582043343653 151.664L 885.3188854489164 145.952L 888.1795665634676 155.288L 891.0402476780185 153.68L 893.9009287925696 163.04L 896.7616099071208 172.064L 899.6222910216718 148.952L 902.4829721362229 171.812L 905.343653250774 172.46L 908.204334365325 172.508L 911.0650154798761 183.644L 913.9256965944272 166.304L 916.7863777089783 159.26L 919.6470588235294 172.652L 922.5077399380805 165.5L 925.3684210526316 154.892L 928.2291021671826 173.888L 931.0897832817337 176.3L 933.9504643962849 186.5L 936.8111455108359 183.932L 939.671826625387 183.10399999999998L 942.5325077399382 150.128L 945.3931888544892 183.11599999999999L 948.2538699690402 186.152L 951.1145510835913 185.096L 953.9752321981424 182.276L 956.8359133126935 182.18L 959.6965944272446 182.144L 962.5572755417957 174.956L 965.4179566563467 181.988L 968.2786377708978 179.504L 971.1393188854489 184.784L 974 195.10399999999998" stroke-width="2.0" fill="none" />
    
        
        
        <text x="45.0" font-family="-apple-system, system-ui, BlinkMacSystemFont, Roboto" y="50.0" dominant-baseline="middle" text-anchor="end" font-size="12" fill="#24292f">13000.0</text>
        
            
            <path stroke="#74838f" stroke-dasharray="10 6" stroke-width="0.5"  d="M 50.0 50.0 L 974.0 50.0" />
        
    
        
        
        <text x="45.0" font-family="-apple-system, system-ui, BlinkMacSystemFont, Roboto" y="81.2" dominant-baseline="middle" text-anchor="end" font-size="12" fill="#24292f">10400.0</text>
        
            
            
            <path stroke="#74838f" stroke-dasharray="10 6" stroke-width="0.5"  d="M 50.0 81.2 L 974.0 81.2" />
        
    
        
        
        <text x="45.0" font-family="-apple-system, system-ui, BlinkMacSystemFont, Roboto" y="112.4" dominant-baseline="middle" text-anchor="end" font-size="12" fill="#24292f">7800.0</text>
        
            
            
            <path stroke="#74838f" stroke-dasharray="10 6" stroke-width="0.5"  d="M 50.0 112.4 L 974.0 112.4" />
        
    
        
        
        <text x="45.0" font-family="-apple-system, system-ui, BlinkMacSystemFont, Roboto" y="143.6" dominant-baseline="middle" text-anchor="end" font-size="12" fill="#24292f">5200.0</text>
        
            
            
            <path stroke="#74838f" stroke-dasharray="10 6" stroke-width="0.5"  d="M 50.0 143.6 L 974.0 143.6" />
        
    
        
        
        <text x="45.0" font-family="-apple-system, system-ui, BlinkMacSystemFont, Roboto" y="174.8" dominant-baseline="middle" text-anchor="end" font-size="12" fill="#24292f">2600.0</text>
        
            
            
            <path stroke="#74838f" stroke-dasharray="10 6" stroke-width="0.5"  d="M 50.0 174.8 L 974.0 174.8" />
        
    
        
        
        <text x="45.0" font-family="-apple-system, system-ui, BlinkMacSystemFont, Roboto" y="206.0" dominant-baseline="middle" text-anchor="end" font-size="12" fill="#24292f">0.0</text>
        
    
    
        
        <path stroke="#74838f"  stroke-width="2.0"  d="M 95.77089783281734 206.0 L 95.77089783281734 214.0" />
        <text x="95.77089783281734" font-family="-apple-system, system-ui, BlinkMacSystemFont, Roboto" y="216.0" dominant-baseline="hanging" text-anchor="middle" font-size="12" fill="#24292f">Mar 2022</text>
    
        
        <path stroke="#74838f"  stroke-width="2.0"  d="M 184.45201238390092 206.0 L 184.45201238390092 214.0" />
        <text x="184.45201238390092" font-family="-apple-system, system-ui, BlinkMacSystemFont, Roboto" y="216.0" dominant-baseline="hanging" text-anchor="middle" font-size="12" fill="#24292f">Apr 2022</text>
    
        
        <path stroke="#74838f"  stroke-width="2.0"  d="M 270.2724458204334 206.0 L 270.2724458204334 214.0" />
        <text x="270.2724458204334" font-family="-apple-system, system-ui, BlinkMacSystemFont, Roboto" y="216.0" dominant-baseline="hanging" text-anchor="middle" font-size="12" fill="#24292f">May 2022</text>
    
        
        <path stroke="#74838f"  stroke-width="2.0"  d="M 358.953560371517 206.0 L 358.953560371517 214.0" />
        <text x="358.953560371517" font-family="-apple-system, system-ui, BlinkMacSystemFont, Roboto" y="216.0" dominant-baseline="hanging" text-anchor="middle" font-size="12" fill="#24292f">Jun 2022</text>
    
        
        <path stroke="#74838f"  stroke-width="2.0"  d="M 444.7739938080495 206.0 L 444.7739938080495 214.0" />
        <text x="444.7739938080495" font-family="-apple-system, system-ui, BlinkMacSystemFont, Roboto" y="216.0" dominant-baseline="hanging" text-anchor="middle" font-size="12" fill="#24292f">Jul 2022</text>
    
        
        <path stroke="#74838f"  stroke-width="2.0"  d="M 533.4551083591332 206.0 L 533.4551083591332 214.0" />
        <text x="533.4551083591332" font-family="-apple-system, system-ui, BlinkMacSystemFont, Roboto" y="216.0" dominant-baseline="hanging" text-anchor="middle" font-size="12" fill="#24292f">Aug 2022</text>
    
        
        <path stroke="#74838f"  stroke-width="2.0"  d="M 622.1362229102167 206.0 L 622.1362229102167 214.0" />
        <text x="622.1362229102167" font-family="-apple-system, system-ui, BlinkMacSystemFont, Roboto" y="216.0" dominant-baseline="hanging" text-anchor="middle" font-size="12" fill="#24292f">Sep 2022</text>
    
        
        <path stroke="#74838f"  stroke-width="2.0"  d="M 707.9566563467492 206.0 L 707.9566563467492 214.0" />
        <text x="707.9566563467492" font-family="-apple-system, system-ui, BlinkMacSystemFont, Roboto" y="216.0" dominant-baseline="hanging" text-anchor="middle" font-size="12" fill="#24292f">Oct 2022</text>
    
        
        <path stroke="#74838f"  stroke-width="2.0"  d="M 796.6377708978329 206.0 L 796.6377708978329 214.0" />
        <text x="796.6377708978329" font-family="-apple-system, system-ui, BlinkMacSystemFont, Roboto" y="216.0" dominant-baseline="hanging" text-anchor="middle" font-size="12" fill="#24292f">Nov 2022</text>
    
        
        <path stroke="#74838f"  stroke-width="2.0"  d="M 882.4582043343653 206.0 L 882.4582043343653 214.0" />
        <text x="882.4582043343653" font-family="-apple-system, system-ui, BlinkMacSystemFont, Roboto" y="216.0" dominant-baseline="hanging" text-anchor="middle" font-size="12" fill="#24292f">Dec 2022</text>
    
        
        <path stroke="#74838f"  stroke-width="2.0"  d="M 971.1393188854489 206.0 L 971.1393188854489 214.0" />
        <text x="971.1393188854489" font-family="-apple-system, system-ui, BlinkMacSystemFont, Roboto" y="216.0" dominant-baseline="hanging" text-anchor="middle" font-size="12" fill="#24292f">Jan 2023</text>
    
    <path stroke="#74838f"   stroke-linejoin="round" stroke-width="2.0" d="M 50.0 216.0 L 50.0 206.0 L 974.0 206.0 L 974.0 216.0"  fill="none" />
    <text x="512.0" y="25.0" font-family="-apple-system, system-ui, BlinkMacSystemFont, Roboto" dominant-baseline="middle" text-anchor="middle" font-size="18" fill="#24292f">Total daily suspensions</text>
</svg>
