<?xml version="1.0" standalone="no"?>
<svg width="1024.0" height="256.0"  viewBox="0 0 1024.0 256.0" preserveAspectRatio="xMidYMid meet" xmlns="http://www.w3.org/2000/svg">
    <path stroke="#e74c3c" stroke-linejoin="round" d="M 50.0 161.108 L 50 161.108L 53.242105263157896 193.664L 56.48421052631579 197.576L 59.72631578947369 197.924L 62.96842105263158 203.528L 66.21052631578948 199.94L 69.45263157894738 199.268L 72.69473684210527 191.108L 75.93684210526315 200.972L 79.17894736842105 198.62L 82.42105263157895 200L 85.66315789473684 202.57999999999998L 88.90526315789474 199.208L 92.14736842105263 195.608L 95.38947368421053 202.652L 98.63157894736841 198.716L 101.8736842105263 197.49200000000002L 105.1157894736842 191.42000000000002L 108.3578947368421 196.688L 111.6 199.46L 114.84210526315789 199.328L 118.08421052631579 198.308L 121.32631578947368 198.164L 124.56842105263158 199.832L 127.81052631578947 194.876L 131.05263157894737 199.904L 134.29473684210527 195.584L 137.53684210526316 200.732L 140.77894736842106 198.416L 144.02105263157893 190.652L 147.26315789473682 196.112L 150.50526315789475 190.82L 153.7473684210526 193.53199999999998L 156.9894736842105 199.688L 160.2315789473684 192.392L 163.4736842105263 197L 166.7157894736842 199.59199999999998L 169.9578947368421 193.54399999999998L 173.2 195.26L 176.44210526315788 195.428L 179.68421052631578 195.548L 182.92631578947368 196.484L 186.16842105263157 199.424L 189.41052631578947 199.22L 192.65263157894736 195.656L 195.89473684210526 193.952L 199.13684210526316 195.536L 202.37894736842105 198.764L 205.62105263157895 195.428L 208.86315789473684 194L 212.10526315789474 193.688L 215.34736842105264 186.32L 218.58947368421053 197.372L 221.83157894736843 195.96800000000002L 225.07368421052632 198.284L 228.3157894736842 194.38400000000001L 231.55789473684212 196.424L 234.8 196.988L 238.04210526315788 198.368L 241.2842105263158 198.05599999999998L 244.52631578947367 199.61599999999999L 247.76842105263157 191.54L 251.0105263157895 202.124L 254.25263157894736 193.34L 257.4947368421052 204.2L 260.7368421052631 206L 263.978947368421 206L 267.2210526315789 206L 270.4631578947368 206L 273.7052631578947 190.472L 276.9473684210526 159.01999999999998L 280.1894736842105 193.56799999999998L 283.4315789473684 200.228L 286.67368421052635 193.232L 289.9157894736842 196.82L 293.1578947368421 199.772L 296.4 186.548L 299.6421052631579 197.888L 302.88421052631577 195.596L 306.12631578947367 190.508L 309.36842105263156 194.876L 312.61052631578946 190.4L 315.85263157894735 188.756L 319.0947368421053 197.852L 322.33684210526314 199.772L 325.57894736842104 191.936L 328.82105263157894 191.864L 332.06315789473683 199.316L 335.30526315789473 194.708L 338.5473684210527 192.608L 341.7894736842105 194.9L 345.0315789473684 199.7L 348.2736842105263 189.224L 351.5157894736842 198.428L 354.7578947368421 196.136L 358 195.296L 361.2421052631579 196.268L 364.4842105263158 193.184L 367.7263157894737 197.204L 370.9684210526316 193.856L 374.2105263157895 197.096L 377.4526315789474 178.16L 380.69473684210527 194.372L 383.93684210526317 195.92000000000002L 387.17894736842106 195.11599999999999L 390.4210526315789 196.688L 393.66315789473686 197.49200000000002L 396.90526315789475 197.696L 400.14736842105265 186.848L 403.38947368421054 192.644L 406.6315789473684 199.61599999999999L 409.8736842105263 193.052L 413.11578947368423 191.072L 416.3578947368421 195.44L 419.6 196.184L 422.84210526315786 196.46L 426.08421052631576 197.312L 429.3263157894737 193.076L 432.5684210526316 206L 435.8105263157895 186.44L 439.05263157894734 186.632L 442.29473684210524 191.276L 445.53684210526313 180.93200000000002L 448.7789473684211 201.704L 452.021052631579 185.744L 455.2631578947368 196.028L 458.5052631578947 189.464L 461.7473684210526 194.228L 464.9894736842105 195.632L 468.23157894736846 196.844L 471.4736842105263 186.332L 474.7157894736842 197.99599999999998L 477.9578947368421 188.924L 481.2 189.128L 484.4421052631579 196.748L 487.6842105263158 182.45600000000002L 490.9263157894737 184.16L 494.1684210526316 206L 497.41052631578947 206L 500.65263157894736 206L 503.89473684210526 160.16L 507.13684210526316 198.536L 510.37894736842105 196.60399999999998L 513.621052631579 195.668L 516.8631578947368 192.8L 520.1052631578948 196.964L 523.3473684210527 197.828L 526.5894736842106 200.84L 529.8315789473684 170.312L 533.0736842105263 189.236L 536.3157894736842 177.428L 539.5578947368422 191.564L 542.8 178.784L 546.042105263158 176.372L 549.2842105263157 181.7L 552.5263157894738 187.472L 555.7684210526315 192.88400000000001L 559.0105263157895 189.38L 562.2526315789473 187.772L 565.4947368421052 189.404L 568.7368421052631 187.532L 571.978947368421 193.59199999999998L 575.2210526315789 185.036L 578.4631578947368 171.332L 581.7052631578947 180.14L 584.9473684210526 172.316L 588.1894736842106 193.028L 591.4315789473685 191.996L 594.6736842105263 193.052L 597.9157894736842 194.84L 601.1578947368421 193.53199999999998L 604.4 194.024L 607.6421052631579 189.272L 610.8842105263158 195.188L 614.1263157894737 196.256L 617.3684210526316 192.62L 620.6105263157895 190.844L 623.8526315789474 200.984L 627.0947368421054 184.796L 630.3368421052631 190.88L 633.578947368421 194.42000000000002L 636.8210526315789 189.86L 640.0631578947368 195.86L 643.3052631578947 191.984L 646.5473684210526 193.1L 649.7894736842105 186.464L 653.0315789473684 190.46L 656.2736842105263 182.156L 659.5157894736842 187.136L 662.7578947368421 191.528L 666 184.1L 669.2421052631579 189.14L 672.4842105263158 185.204L 675.7263157894737 185.468L 678.9684210526316 176.828L 682.2105263157895 189.04399999999998L 685.4526315789474 191.048L 688.6947368421053 188.756L 691.9368421052632 187.592L 695.178947368421 191.39600000000002L 698.421052631579 187.796L 701.6631578947369 188.228L 704.9052631578948 190.268L 708.1473684210526 194.372L 711.3894736842105 194.72L 714.6315789473684 201.308L 717.8736842105263 192.752L 721.1157894736842 181.148L 724.3578947368421 181.748L 727.5999999999999 181.208L 730.8421052631578 191.3L 734.0842105263158 186.88400000000001L 737.3263157894737 181.376L 740.5684210526316 186.5L 743.8105263157895 188.44400000000002L 747.0526315789474 179.66L 750.2947368421053 183.09199999999998L 753.5368421052632 173.564L 756.7789473684211 183.836L 760.0210526315789 171.668L 763.2631578947368 148.148L 766.5052631578947 178.004L 769.7473684210526 141.86L 772.9894736842106 186.128L 776.2315789473685 188.54000000000002L 779.4736842105264 187.748L 782.7157894736843 193.256L 785.9578947368421 186.596L 789.2 185.42000000000002L 792.4421052631579 186.872L 795.6842105263157 185.372L 798.9263157894736 192.824L 802.1684210526315 188.552L 805.4105263157894 189.32L 808.6526315789474 186.632L 811.8947368421053 185.768L 815.1368421052632 188.744L 818.3789473684211 187.34L 821.621052631579 192.488L 824.8631578947369 187.028L 828.1052631578947 185.468L 831.3473684210526 181.928L 834.5894736842105 183.8L 837.8315789473684 180.296L 841.0736842105263 185.516L 844.3157894736842 194L 847.5578947368422 190.328L 850.8000000000001 186.584L 854.042105263158 168.32L 857.2842105263159 117.5L 860.5263157894736 189.10399999999998L 863.7684210526315 187.844L 867.0105263157894 190.28L 870.2526315789473 192.32L 873.4947368421052 189.2L 876.7368421052631 182.288L 879.978947368421 188.49200000000002L 883.221052631579 178.916L 886.4631578947369 53.432000000000016L 889.7052631578948 162.656L 892.9473684210526 184.52L 896.1894736842105 182.708L 899.4315789473684 183.68L 902.6736842105263 184.196L 905.9157894736842 179.084L 909.1578947368421 190.16L 912.4 180.476L 915.6421052631579 160.916L 918.8842105263158 121.196L 922.1263157894738 151.50799999999998L 925.3684210526316 164.132L 928.6105263157895 181.184L 931.8526315789474 170.49200000000002L 935.0947368421052 179.792L 938.3368421052631 173.144L 941.578947368421 178.352L 944.8210526315789 182.792L 948.0631578947368 177.152L 951.3052631578947 184.232L 954.5473684210526 187.796L 957.7894736842105 188.336L 961.0315789473684 184.64L 964.2736842105263 181.868L 967.5157894736842 181.772L 970.7578947368421 179.576L 974 198.98000000000002" stroke-width="2.0" fill="none" />
    
        
        
        <text x="45.0" font-family="-apple-system, system-ui, BlinkMacSystemFont, Roboto" y="50.0" dominant-baseline="middle" text-anchor="end" font-size="12" fill="#24292f">13000.0</text>
        
            
            <path stroke="#74838f" stroke-dasharray="10 6" stroke-width="0.5"  d="M 50.0 50.0 L 974.0 50.0" />
        
    
        
        
        <text x="45.0" font-family="-apple-system, system-ui, BlinkMacSystemFont, Roboto" y="81.2" dominant-baseline="middle" text-anchor="end" font-size="12" fill="#24292f">10400.0</text>
        
            
            
            <path stroke="#74838f" stroke-dasharray="10 6" stroke-width="0.5"  d="M 50.0 81.2 L 974.0 81.2" />
        
    
        
        
        <text x="45.0" font-family="-apple-system, system-ui, BlinkMacSystemFont, Roboto" y="112.4" dominant-baseline="middle" text-anchor="end" font-size="12" fill="#24292f">7800.0</text>
        
            
            
            <path stroke="#74838f" stroke-dasharray="10 6" stroke-width="0.5"  d="M 50.0 112.4 L 974.0 112.4" />
        
    
        
        
        <text x="45.0" font-family="-apple-system, system-ui, BlinkMacSystemFont, Roboto" y="143.6" dominant-baseline="middle" text-anchor="end" font-size="12" fill="#24292f">5200.0</text>
        
            
            
            <path stroke="#74838f" stroke-dasharray="10 6" stroke-width="0.5"  d="M 50.0 143.6 L 974.0 143.6" />
        
    
        
        
        <text x="45.0" font-family="-apple-system, system-ui, BlinkMacSystemFont, Roboto" y="174.8" dominant-baseline="middle" text-anchor="end" font-size="12" fill="#24292f">2600.0</text>
        
            
            
            <path stroke="#74838f" stroke-dasharray="10 6" stroke-width="0.5"  d="M 50.0 174.8 L 974.0 174.8" />
        
    
        
        
        <text x="45.0" font-family="-apple-system, system-ui, BlinkMacSystemFont, Roboto" y="206.0" dominant-baseline="middle" text-anchor="end" font-size="12" fill="#24292f">0.0</text>
        
    
    
        
        <path stroke="#74838f"  stroke-width="2.0"  d="M 101.8736842105263 206.0 L 101.8736842105263 214.0" />
        <text x="101.8736842105263" font-family="-apple-system, system-ui, BlinkMacSystemFont, Roboto" y="216.0" dominant-baseline="hanging" text-anchor="middle" font-size="12" fill="#24292f">Mar 2022</text>
    
        
        <path stroke="#74838f"  stroke-width="2.0"  d="M 202.37894736842105 206.0 L 202.37894736842105 214.0" />
        <text x="202.37894736842105" font-family="-apple-system, system-ui, BlinkMacSystemFont, Roboto" y="216.0" dominant-baseline="hanging" text-anchor="middle" font-size="12" fill="#24292f">Apr 2022</text>
    
        
        <path stroke="#74838f"  stroke-width="2.0"  d="M 299.6421052631579 206.0 L 299.6421052631579 214.0" />
        <text x="299.6421052631579" font-family="-apple-system, system-ui, BlinkMacSystemFont, Roboto" y="216.0" dominant-baseline="hanging" text-anchor="middle" font-size="12" fill="#24292f">May 2022</text>
    
        
        <path stroke="#74838f"  stroke-width="2.0"  d="M 400.14736842105265 206.0 L 400.14736842105265 214.0" />
        <text x="400.14736842105265" font-family="-apple-system, system-ui, BlinkMacSystemFont, Roboto" y="216.0" dominant-baseline="hanging" text-anchor="middle" font-size="12" fill="#24292f">Jun 2022</text>
    
        
        <path stroke="#74838f"  stroke-width="2.0"  d="M 497.41052631578947 206.0 L 497.41052631578947 214.0" />
        <text x="497.41052631578947" font-family="-apple-system, system-ui, BlinkMacSystemFont, Roboto" y="216.0" dominant-baseline="hanging" text-anchor="middle" font-size="12" fill="#24292f">Jul 2022</text>
    
        
        <path stroke="#74838f"  stroke-width="2.0"  d="M 597.9157894736842 206.0 L 597.9157894736842 214.0" />
        <text x="597.9157894736842" font-family="-apple-system, system-ui, BlinkMacSystemFont, Roboto" y="216.0" dominant-baseline="hanging" text-anchor="middle" font-size="12" fill="#24292f">Aug 2022</text>
    
        
        <path stroke="#74838f"  stroke-width="2.0"  d="M 698.421052631579 206.0 L 698.421052631579 214.0" />
        <text x="698.421052631579" font-family="-apple-system, system-ui, BlinkMacSystemFont, Roboto" y="216.0" dominant-baseline="hanging" text-anchor="middle" font-size="12" fill="#24292f">Sep 2022</text>
    
        
        <path stroke="#74838f"  stroke-width="2.0"  d="M 795.6842105263157 206.0 L 795.6842105263157 214.0" />
        <text x="795.6842105263157" font-family="-apple-system, system-ui, BlinkMacSystemFont, Roboto" y="216.0" dominant-baseline="hanging" text-anchor="middle" font-size="12" fill="#24292f">Oct 2022</text>
    
        
        <path stroke="#74838f"  stroke-width="2.0"  d="M 896.1894736842105 206.0 L 896.1894736842105 214.0" />
        <text x="896.1894736842105" font-family="-apple-system, system-ui, BlinkMacSystemFont, Roboto" y="216.0" dominant-baseline="hanging" text-anchor="middle" font-size="12" fill="#24292f">Nov 2022</text>
    
    <path stroke="#74838f"   stroke-linejoin="round" stroke-width="2.0" d="M 50.0 216.0 L 50.0 206.0 L 974.0 206.0 L 974.0 216.0"  fill="none" />
    <text x="512.0" y="25.0" font-family="-apple-system, system-ui, BlinkMacSystemFont, Roboto" dominant-baseline="middle" text-anchor="middle" font-size="18" fill="#24292f">Total daily suspensions</text>
</svg>
