<?xml version="1.0" standalone="no"?>
<svg width="1024.0" height="256.0"  viewBox="0 0 1024.0 256.0" preserveAspectRatio="xMidYMid meet" xmlns="http://www.w3.org/2000/svg">
    <path stroke="#e74c3c" stroke-linejoin="round" d="M 50.0 161.108 L 50 161.108L 52.71764705882353 193.664L 55.43529411764706 197.576L 58.15294117647059 197.924L 60.87058823529412 203.528L 63.588235294117645 199.94L 66.30588235294118 199.268L 69.02352941176471 191.108L 71.74117647058824 200.972L 74.45882352941176 198.62L 77.17647058823529 200L 79.89411764705883 202.57999999999998L 82.61176470588235 199.208L 85.3294117647059 195.608L 88.04705882352941 202.652L 90.76470588235294 198.716L 93.48235294117647 197.49200000000002L 96.2 191.42000000000002L 98.91764705882352 196.688L 101.63529411764706 199.46L 104.35294117647058 199.328L 107.07058823529411 198.308L 109.78823529411765 198.164L 112.50588235294117 199.832L 115.2235294117647 194.876L 117.94117647058823 199.904L 120.65882352941178 195.584L 123.37647058823529 200.732L 126.09411764705882 198.416L 128.81176470588235 190.652L 131.52941176470588 196.112L 134.24705882352941 190.82L 136.96470588235294 193.53199999999998L 139.68235294117648 199.688L 142.4 192.392L 145.11764705882354 197L 147.83529411764704 199.59199999999998L 150.5529411764706 193.54399999999998L 153.27058823529413 195.26L 155.98823529411766 195.428L 158.70588235294116 195.548L 161.42352941176472 196.484L 164.14117647058822 199.424L 166.85882352941178 199.22L 169.5764705882353 195.656L 172.29411764705884 193.952L 175.01176470588234 195.536L 177.7294117647059 198.764L 180.4470588235294 195.428L 183.16470588235293 194L 185.88235294117646 193.688L 188.6 186.32L 191.31764705882355 197.372L 194.03529411764706 195.96800000000002L 196.75294117647059 198.284L 199.47058823529412 194.38400000000001L 202.18823529411765 196.424L 204.90588235294118 196.988L 207.6235294117647 198.368L 210.34117647058824 198.05599999999998L 213.05882352941177 199.61599999999999L 215.7764705882353 191.54L 218.49411764705883 202.124L 221.21176470588236 193.34L 223.9294117647059 204.2L 226.6470588235294 206L 229.36470588235295 206L 232.08235294117645 206L 234.8 206L 237.51764705882354 190.472L 240.23529411764704 159.01999999999998L 242.9529411764706 193.56799999999998L 245.6705882352941 200.228L 248.38823529411764 193.232L 251.1058823529412 196.82L 253.8235294117647 199.772L 256.54117647058825 186.548L 259.25882352941176 197.888L 261.9764705882353 195.596L 264.6941176470588 190.508L 267.4117647058823 194.876L 270.1294117647059 190.4L 272.84705882352944 188.756L 275.56470588235294 197.852L 278.28235294117644 199.772L 281 191.936L 283.71764705882356 191.864L 286.435294117647 199.316L 289.1529411764706 194.72L 291.8705882352941 192.608L 294.5882352941177 194.9L 297.3058823529412 199.7L 300.0235294117647 189.224L 302.74117647058824 198.428L 305.4588235294118 196.136L 308.1764705882353 195.296L 310.8941176470588 196.268L 313.61176470588236 193.184L 316.32941176470587 197.204L 319.0470588235294 193.856L 321.7647058823529 197.096L 324.4823529411765 178.16L 327.2 194.372L 329.9176470588235 195.92000000000002L 332.6352941176471 195.11599999999999L 335.3529411764706 196.688L 338.0705882352941 197.49200000000002L 340.7882352941176 197.696L 343.50588235294117 186.848L 346.22352941176473 192.644L 348.94117647058823 199.61599999999999L 351.6588235294118 193.052L 354.3764705882353 191.072L 357.0941176470588 195.44L 359.81176470588235 196.184L 362.5294117647059 196.46L 365.2470588235294 197.312L 367.9647058823529 193.076L 370.6823529411765 206L 373.4 186.44L 376.11764705882354 186.632L 378.8352941176471 191.276L 381.5529411764706 180.93200000000002L 384.2705882352941 201.704L 386.98823529411766 185.744L 389.7058823529412 196.028L 392.4235294117647 189.464L 395.1411764705882 194.228L 397.8588235294118 195.632L 400.5764705882353 196.844L 403.2941176470588 186.332L 406.01176470588234 197.99599999999998L 408.7294117647059 188.924L 411.4470588235294 189.128L 414.1647058823529 196.748L 416.88235294117646 182.45600000000002L 419.6 184.16L 422.3176470588235 206L 425.0352941176471 206L 427.7529411764706 206L 430.4705882352941 160.16L 433.18823529411765 198.536L 435.9058823529412 196.60399999999998L 438.6235294117647 195.668L 441.3411764705882 192.8L 444.05882352941177 196.964L 446.77647058823527 197.828L 449.49411764705883 200.84L 452.2117647058824 170.312L 454.9294117647059 189.236L 457.6470588235294 177.428L 460.3647058823529 191.564L 463.0823529411765 178.784L 465.8 176.372L 468.5176470588235 181.7L 471.2352941176471 187.472L 473.9529411764706 192.88400000000001L 476.67058823529413 189.38L 479.38823529411764 187.772L 482.1058823529412 189.404L 484.8235294117647 187.532L 487.5411764705882 193.59199999999998L 490.25882352941176 185.036L 492.9764705882353 171.332L 495.6941176470588 180.14L 498.4117647058824 172.316L 501.1294117647059 193.028L 503.8470588235294 191.996L 506.56470588235294 193.052L 509.2823529411765 194.84L 512 193.53199999999998L 514.7176470588236 194.024L 517.4352941176471 189.272L 520.1529411764706 195.188L 522.870588235294 196.256L 525.5882352941176 192.62L 528.3058823529412 190.844L 531.0235294117647 200.984L 533.7411764705882 184.796L 536.4588235294118 190.88L 539.1764705882354 194.42000000000002L 541.8941176470588 189.86L 544.6117647058824 195.86L 547.3294117647058 191.984L 550.0470588235294 193.1L 552.7647058823529 186.464L 555.4823529411765 190.46L 558.2 182.156L 560.9176470588236 187.136L 563.635294117647 191.528L 566.3529411764706 184.1L 569.0705882352942 189.14L 571.7882352941176 185.204L 574.5058823529412 185.468L 577.2235294117647 176.816L 579.9411764705882 189.04399999999998L 582.6588235294117 191.048L 585.3764705882353 188.756L 588.0941176470589 187.592L 590.8117647058824 191.39600000000002L 593.5294117647059 187.796L 596.2470588235294 188.228L 598.964705882353 190.268L 601.6823529411764 194.372L 604.4 194.72L 607.1176470588235 201.308L 609.835294117647 192.752L 612.5529411764705 181.148L 615.2705882352942 181.748L 617.9882352941177 181.208L 620.7058823529412 191.3L 623.4235294117648 186.88400000000001L 626.1411764705882 181.376L 628.8588235294118 186.5L 631.5764705882352 188.44400000000002L 634.2941176470588 179.66L 637.0117647058823 183.09199999999998L 639.7294117647058 173.564L 642.4470588235295 183.836L 645.164705882353 171.668L 647.8823529411765 148.148L 650.6 178.004L 653.3176470588236 141.86L 656.035294117647 186.128L 658.7529411764706 188.54000000000002L 661.4705882352941 187.748L 664.1882352941176 193.256L 666.9058823529411 186.596L 669.6235294117647 185.42000000000002L 672.3411764705883 186.872L 675.0588235294118 185.372L 677.7764705882353 192.824L 680.4941176470588 188.552L 683.2117647058824 189.32L 685.9294117647058 186.632L 688.6470588235294 185.768L 691.364705882353 188.744L 694.0823529411764 187.34L 696.8 192.488L 699.5176470588235 187.028L 702.2352941176471 185.468L 704.9529411764706 181.928L 707.6705882352942 183.8L 710.3882352941176 180.296L 713.1058823529412 185.516L 715.8235294117648 194L 718.5411764705882 190.328L 721.2588235294118 186.584L 723.9764705882353 168.32L 726.6941176470588 117.5L 729.4117647058824 189.10399999999998L 732.1294117647059 187.844L 734.8470588235294 190.28L 737.564705882353 192.32L 740.2823529411764 189.2L 743 182.288L 745.7176470588236 188.49200000000002L 748.435294117647 178.916L 751.1529411764706 53.432000000000016L 753.8705882352941 162.656L 756.5882352941176 184.52L 759.3058823529412 182.708L 762.0235294117647 183.68L 764.7411764705882 184.196L 767.4588235294118 179.084L 770.1764705882352 190.16L 772.8941176470588 180.476L 775.6117647058824 160.916L 778.3294117647058 121.196L 781.0470588235294 151.50799999999998L 783.7647058823529 164.132L 786.4823529411765 181.184L 789.2 170.49200000000002L 791.9176470588236 179.792L 794.635294117647 173.204L 797.3529411764706 178.352L 800.0705882352942 182.792L 802.7882352941176 177.152L 805.5058823529412 184.232L 808.2235294117647 187.796L 810.9411764705882 188.348L 813.6588235294117 184.736L 816.3764705882353 181.892L 819.0941176470589 181.796L 821.8117647058824 179.36L 824.5294117647059 168.176L 827.2470588235294 181.808L 829.964705882353 185.372L 832.6823529411764 167.708L 835.4 140.6L 838.1176470588235 160.784L 840.835294117647 151.664L 843.5529411764705 145.952L 846.2705882352942 155.288L 848.9882352941177 153.68L 851.7058823529412 163.04L 854.4235294117648 172.064L 857.1411764705882 148.952L 859.8588235294118 171.812L 862.5764705882352 172.46L 865.2941176470588 172.508L 868.0117647058823 183.644L 870.7294117647058 166.304L 873.4470588235295 159.26L 876.164705882353 172.652L 878.8823529411765 165.5L 881.6 154.892L 884.3176470588236 173.888L 887.035294117647 176.3L 889.7529411764706 186.5L 892.4705882352941 183.932L 895.1882352941176 183.10399999999998L 897.9058823529411 150.128L 900.6235294117647 183.11599999999999L 903.3411764705883 186.152L 906.0588235294118 185.096L 908.7764705882353 182.276L 911.4941176470588 182.18L 914.2117647058824 182.144L 916.9294117647058 174.956L 919.6470588235294 181.988L 922.364705882353 179.504L 925.0823529411764 184.784L 927.8 179L 930.5176470588235 175.868L 933.2352941176471 177.14L 935.9529411764706 178.832L 938.6705882352942 182.216L 941.3882352941176 176.444L 944.1058823529412 182.576L 946.8235294117648 177.02L 949.5411764705882 178.58L 952.2588235294118 182.144L 954.9764705882353 179.48L 957.6941176470588 176.972L 960.4117647058824 186.164L 963.1294117647059 176.096L 965.8470588235294 178.04L 968.564705882353 152.996L 971.2823529411764 130.724L 974 196.46" stroke-width="2.0" fill="none" />
    
        
        
        <text x="45.0" font-family="-apple-system, system-ui, BlinkMacSystemFont, Roboto" y="50.0" dominant-baseline="middle" text-anchor="end" font-size="12" fill="#24292f">13000.0</text>
        
            
            <path stroke="#74838f" stroke-dasharray="10 6" stroke-width="0.5"  d="M 50.0 50.0 L 974.0 50.0" />
        
    
        
        
        <text x="45.0" font-family="-apple-system, system-ui, BlinkMacSystemFont, Roboto" y="81.2" dominant-baseline="middle" text-anchor="end" font-size="12" fill="#24292f">10400.0</text>
        
            
            
            <path stroke="#74838f" stroke-dasharray="10 6" stroke-width="0.5"  d="M 50.0 81.2 L 974.0 81.2" />
        
    
        
        
        <text x="45.0" font-family="-apple-system, system-ui, BlinkMacSystemFont, Roboto" y="112.4" dominant-baseline="middle" text-anchor="end" font-size="12" fill="#24292f">7800.0</text>
        
            
            
            <path stroke="#74838f" stroke-dasharray="10 6" stroke-width="0.5"  d="M 50.0 112.4 L 974.0 112.4" />
        
    
        
        
        <text x="45.0" font-family="-apple-system, system-ui, BlinkMacSystemFont, Roboto" y="143.6" dominant-baseline="middle" text-anchor="end" font-size="12" fill="#24292f">5200.0</text>
        
            
            
            <path stroke="#74838f" stroke-dasharray="10 6" stroke-width="0.5"  d="M 50.0 143.6 L 974.0 143.6" />
        
    
        
        
        <text x="45.0" font-family="-apple-system, system-ui, BlinkMacSystemFont, Roboto" y="174.8" dominant-baseline="middle" text-anchor="end" font-size="12" fill="#24292f">2600.0</text>
        
            
            
            <path stroke="#74838f" stroke-dasharray="10 6" stroke-width="0.5"  d="M 50.0 174.8 L 974.0 174.8" />
        
    
        
        
        <text x="45.0" font-family="-apple-system, system-ui, BlinkMacSystemFont, Roboto" y="206.0" dominant-baseline="middle" text-anchor="end" font-size="12" fill="#24292f">0.0</text>
        
    
    
        
        <path stroke="#74838f"  stroke-width="2.0"  d="M 93.48235294117647 206.0 L 93.48235294117647 214.0" />
        <text x="93.48235294117647" font-family="-apple-system, system-ui, BlinkMacSystemFont, Roboto" y="216.0" dominant-baseline="hanging" text-anchor="middle" font-size="12" fill="#24292f">Mar 2022</text>
    
        
        <path stroke="#74838f"  stroke-width="2.0"  d="M 177.7294117647059 206.0 L 177.7294117647059 214.0" />
        <text x="177.7294117647059" font-family="-apple-system, system-ui, BlinkMacSystemFont, Roboto" y="216.0" dominant-baseline="hanging" text-anchor="middle" font-size="12" fill="#24292f">Apr 2022</text>
    
        
        <path stroke="#74838f"  stroke-width="2.0"  d="M 259.25882352941176 206.0 L 259.25882352941176 214.0" />
        <text x="259.25882352941176" font-family="-apple-system, system-ui, BlinkMacSystemFont, Roboto" y="216.0" dominant-baseline="hanging" text-anchor="middle" font-size="12" fill="#24292f">May 2022</text>
    
        
        <path stroke="#74838f"  stroke-width="2.0"  d="M 343.50588235294117 206.0 L 343.50588235294117 214.0" />
        <text x="343.50588235294117" font-family="-apple-system, system-ui, BlinkMacSystemFont, Roboto" y="216.0" dominant-baseline="hanging" text-anchor="middle" font-size="12" fill="#24292f">Jun 2022</text>
    
        
        <path stroke="#74838f"  stroke-width="2.0"  d="M 425.0352941176471 206.0 L 425.0352941176471 214.0" />
        <text x="425.0352941176471" font-family="-apple-system, system-ui, BlinkMacSystemFont, Roboto" y="216.0" dominant-baseline="hanging" text-anchor="middle" font-size="12" fill="#24292f">Jul 2022</text>
    
        
        <path stroke="#74838f"  stroke-width="2.0"  d="M 509.2823529411765 206.0 L 509.2823529411765 214.0" />
        <text x="509.2823529411765" font-family="-apple-system, system-ui, BlinkMacSystemFont, Roboto" y="216.0" dominant-baseline="hanging" text-anchor="middle" font-size="12" fill="#24292f">Aug 2022</text>
    
        
        <path stroke="#74838f"  stroke-width="2.0"  d="M 593.5294117647059 206.0 L 593.5294117647059 214.0" />
        <text x="593.5294117647059" font-family="-apple-system, system-ui, BlinkMacSystemFont, Roboto" y="216.0" dominant-baseline="hanging" text-anchor="middle" font-size="12" fill="#24292f">Sep 2022</text>
    
        
        <path stroke="#74838f"  stroke-width="2.0"  d="M 675.0588235294118 206.0 L 675.0588235294118 214.0" />
        <text x="675.0588235294118" font-family="-apple-system, system-ui, BlinkMacSystemFont, Roboto" y="216.0" dominant-baseline="hanging" text-anchor="middle" font-size="12" fill="#24292f">Oct 2022</text>
    
        
        <path stroke="#74838f"  stroke-width="2.0"  d="M 759.3058823529412 206.0 L 759.3058823529412 214.0" />
        <text x="759.3058823529412" font-family="-apple-system, system-ui, BlinkMacSystemFont, Roboto" y="216.0" dominant-baseline="hanging" text-anchor="middle" font-size="12" fill="#24292f">Nov 2022</text>
    
        
        <path stroke="#74838f"  stroke-width="2.0"  d="M 840.835294117647 206.0 L 840.835294117647 214.0" />
        <text x="840.835294117647" font-family="-apple-system, system-ui, BlinkMacSystemFont, Roboto" y="216.0" dominant-baseline="hanging" text-anchor="middle" font-size="12" fill="#24292f">Dec 2022</text>
    
        
        <path stroke="#74838f"  stroke-width="2.0"  d="M 925.0823529411764 206.0 L 925.0823529411764 214.0" />
        <text x="925.0823529411764" font-family="-apple-system, system-ui, BlinkMacSystemFont, Roboto" y="216.0" dominant-baseline="hanging" text-anchor="middle" font-size="12" fill="#24292f">Jan 2023</text>
    
    <path stroke="#74838f"   stroke-linejoin="round" stroke-width="2.0" d="M 50.0 216.0 L 50.0 206.0 L 974.0 206.0 L 974.0 216.0"  fill="none" />
    <text x="512.0" y="25.0" font-family="-apple-system, system-ui, BlinkMacSystemFont, Roboto" dominant-baseline="middle" text-anchor="middle" font-size="18" fill="#24292f">Total daily suspensions</text>
</svg>
