<?xml version="1.0" standalone="no"?>
<svg width="1024.0" height="256.0"  viewBox="0 0 1024.0 256.0" preserveAspectRatio="xMidYMid meet" xmlns="http://www.w3.org/2000/svg">
    <path stroke="#e74c3c" stroke-linejoin="round" d="M 50.0 162.77066666666667 L 50 162.77066666666667L 51.89733059548254 194.12088888888889L 53.794661190965094 197.888L 55.69199178644764 198.2231111111111L 57.58932238193019 203.61955555555556L 59.48665297741273 200.16444444444443L 61.383983572895275 199.51733333333334L 63.281314168377826 191.65955555555556L 65.17864476386038 201.1582222222222L 67.07597535934292 198.89333333333332L 68.97330595482546 200.22222222222223L 70.870636550308 202.70666666666665L 72.76796714579055 199.45955555555554L 74.6652977412731 195.9928888888889L 76.56262833675565 202.776L 78.4599589322382 198.98577777777777L 80.35728952772074 197.8071111111111L 82.25462012320328 191.96L 84.15195071868584 197.0328888888889L 86.04928131416838 199.70222222222222L 87.94661190965093 199.5751111111111L 89.84394250513347 198.5928888888889L 91.74127310061601 198.45422222222223L 93.63860369609856 200.06044444444444L 95.53593429158111 195.288L 97.43326488706364 200.12977777777778L 99.3305954825462 195.96977777777778L 101.22792607802876 200.92711111111112L 103.1252566735113 198.6968888888889L 105.02258726899385 191.22044444444444L 106.91991786447639 196.47822222222223L 108.81724845995893 191.38222222222223L 110.71457905544148 193.99377777777778L 112.61190965092402 199.92177777777778L 114.50924024640656 192.89600000000002L 116.40657084188912 197.33333333333334L 118.30390143737166 199.82933333333332L 120.20123203285421 194.00533333333334L 122.09856262833677 195.65777777777777L 123.9958932238193 195.81955555555555L 125.89322381930184 195.9351111111111L 127.7905544147844 196.83644444444445L 129.68788501026694 199.66755555555557L 131.5852156057495 199.4711111111111L 133.48254620123203 196.0391111111111L 135.37987679671457 194.39822222222222L 137.2772073921971 195.92355555555554L 139.17453798767968 199.03199999999998L 141.07186858316223 195.81955555555555L 142.96919917864477 194.44444444444446L 144.8665297741273 194.144L 146.76386036960986 187.04888888888888L 148.6611909650924 197.69155555555557L 150.55852156057495 196.33955555555556L 152.45585215605752 198.56977777777777L 154.35318275154003 194.8142222222222L 156.2505133470226 196.77866666666665L 158.14784394250512 197.32177777777778L 160.0451745379877 198.65066666666667L 161.94250513347023 198.35022222222221L 163.83983572895278 199.85244444444444L 165.73716632443532 192.07555555555555L 167.63449691991786 202.26755555555556L 169.5318275154004 193.80888888888887L 171.42915811088295 204.26666666666665L 173.32648870636552 206L 175.22381930184804 206L 177.1211498973306 206L 179.01848049281313 206L 180.91581108829567 191.04711111111112L 182.81314168377824 160.76L 184.71047227926078 194.02844444444446L 186.60780287474333 200.4417777777778L 188.50513347022587 193.7048888888889L 190.40246406570841 197.16L 192.29979466119096 200.00266666666667L 194.19712525667353 187.26844444444444L 196.09445585215607 198.18844444444443L 197.9917864476386 195.98133333333334L 199.88911704312113 191.08177777777777L 201.78644763860368 195.288L 203.68377823408625 190.97777777777776L 205.5811088295688 189.39466666666667L 207.47843942505133 198.15377777777778L 209.37577002053388 200.00266666666667L 211.27310061601642 192.4568888888889L 213.170431211499 192.38755555555556L 215.06776180698154 199.56355555555555L 216.96509240246408 195.13777777777779L 218.8624229979466 193.10399999999998L 220.75975359342914 195.3111111111111L 222.6570841889117 199.93333333333334L 224.55441478439425 189.84533333333331L 226.4517453798768 198.70844444444444L 228.34907597535934 196.50133333333332L 230.24640657084188 195.69244444444445L 232.14373716632446 196.62844444444445L 234.041067761807 193.65866666666668L 235.93839835728954 197.52977777777778L 237.83572895277206 194.3057777777778L 239.7330595482546 197.4257777777778L 241.63039014373717 179.19111111111113L 243.52772073921972 194.80266666666665L 245.42505133470226 196.29333333333335L 247.3223819301848 195.5191111111111L 249.21971252566735 197.0328888888889L 251.1170431211499 197.8071111111111L 253.01437371663246 198.00355555555555L 254.911704312115 187.55733333333333L 256.8090349075975 193.13866666666667L 258.70636550308006 199.85244444444444L 260.60369609856264 193.53155555555554L 262.5010266940452 191.6248888888889L 264.3983572895277 195.8311111111111L 266.29568788501024 196.54755555555556L 268.1930184804928 196.81333333333333L 270.0903490759754 197.63377777777777L 271.98767967145795 193.55466666666666L 273.88501026694047 206L 275.782340862423 187.16444444444446L 277.67967145790556 187.34933333333333L 279.57700205338807 191.8213333333333L 281.47433264887064 181.86044444444445L 283.3716632443532 201.8631111111111L 285.26899383983573 186.49422222222222L 287.16632443531824 196.39733333333334L 289.0636550308008 190.07644444444443L 290.96098562628333 194.664L 292.8583162217659 196.016L 294.7556468172485 197.18311111111112L 296.65297741273105 187.06044444444444L 298.5503080082135 198.29244444444444L 300.4476386036961 189.55644444444445L 302.34496919917865 189.7528888888889L 304.2422997946612 197.09066666666666L 306.13963039014374 183.328L 308.03696098562625 184.9688888888889L 309.9342915811088 206L 311.83162217659134 206L 313.7289527720739 206L 315.6262833675565 161.85777777777778L 317.52361396303905 198.81244444444445L 319.42094455852157 196.952L 321.31827515400414 196.05066666666667L 323.21560574948666 193.2888888888889L 325.1129363449692 197.29866666666666L 327.01026694045174 198.13066666666668L 328.90759753593426 201.0311111111111L 330.80492813141683 171.63377777777777L 332.70225872689934 189.85688888888888L 334.5995893223819 178.4862222222222L 336.4969199178645 192.09866666666667L 338.39425051334706 179.792L 340.2915811088296 177.46933333333334L 342.18891170431215 182.6L 344.08624229979466 188.1582222222222L 345.9835728952772 193.36977777777778L 347.88090349075975 189.99555555555554L 349.77823408624226 188.4471111111111L 351.67556468172484 190.01866666666666L 353.57289527720735 188.216L 355.47022587269 194.05155555555555L 357.3675564681725 185.81244444444445L 359.26488706365507 172.61599999999999L 361.1622176591376 181.09777777777776L 363.05954825462015 173.56355555555555L 364.95687885010267 193.50844444444445L 366.8542094455852 192.51466666666667L 368.75154004106776 193.53155555555554L 370.64887063655027 195.25333333333333L 372.54620123203284 193.99377777777778L 374.4435318275154 194.46755555555555L 376.340862422998 189.89155555555556L 378.2381930184805 195.58844444444446L 380.1355236139631 196.6168888888889L 382.0328542094456 193.11555555555555L 383.93018480492816 191.40533333333332L 385.8275154004107 201.16977777777777L 387.7248459958932 185.58133333333333L 389.62217659137576 191.44L 391.5195071868583 194.8488888888889L 393.41683778234085 190.45777777777778L 395.3141683778234 196.23555555555555L 397.211498973306 192.5031111111111L 399.1088295687885 193.57777777777778L 401.0061601642711 187.18755555555555L 402.9034907597536 191.03555555555556L 404.8008213552361 183.0391111111111L 406.6981519507187 187.83466666666666L 408.5954825462012 192.064L 410.49281314168377 184.9111111111111L 412.3901437371663 189.76444444444445L 414.2874743326489 185.97422222222224L 416.1848049281314 186.22844444444445L 418.082135523614 177.8968888888889L 419.9794661190965 189.672L 421.8767967145791 191.60177777777778L 423.7741273100616 189.39466666666667L 425.6714579055441 188.27377777777778L 427.5687885010267 191.9368888888889L 429.4661190965092 188.47022222222222L 431.3634496919918 188.88622222222222L 433.26078028747435 190.85066666666665L 435.1581108829569 194.80266666666665L 437.05544147843943 195.13777777777779L 438.952772073922 201.48177777777778L 440.8501026694045 193.24266666666665L 442.7474332648871 182.06844444444445L 444.6447638603696 182.64622222222224L 446.5420944558521 182.12622222222222L 448.4394250513347 191.84444444444443L 450.3367556468172 187.592L 452.2340862422998 182.288L 454.13141683778235 187.22222222222223L 456.0287474332649 189.09422222222221L 457.92607802874744 180.63555555555556L 459.82340862423 183.94044444444444L 461.7207392197125 174.76533333333333L 463.61806981519504 184.6568888888889L 465.5154004106776 172.93955555555556L 467.41273100616013 150.29066666666665L 469.3100616016427 179.0408888888889L 471.2073921971252 144.23555555555555L 473.1047227926078 186.864L 475.00205338809036 189.18666666666667L 476.89938398357293 188.424L 478.79671457905545 193.728L 480.694045174538 187.31466666666665L 482.59137577002053 186.1822222222222L 484.48870636550305 187.58044444444445L 486.3860369609856 186.136L 488.28336755646814 193.312L 490.1806981519507 189.19822222222223L 492.0780287474333 189.9377777777778L 493.97535934291585 187.34933333333333L 495.87268993839837 186.51733333333334L 497.77002053388094 189.3831111111111L 499.66735112936345 188.0311111111111L 501.564681724846 192.98844444444444L 503.46201232032854 187.73066666666668L 505.35934291581106 186.22844444444445L 507.2566735112936 182.81955555555555L 509.15400410677614 184.6222222222222L 511.0513347022587 181.248L 512.9486652977413 186.27466666666666L 514.8459958932237 194.44444444444446L 516.7433264887064 190.90844444444446L 518.6406570841889 187.30311111111112L 520.5379876796715 169.71555555555557L 522.435318275154 120.77777777777779L 524.3326488706365 189.72977777777777L 526.2299794661192 188.51644444444446L 528.1273100616016 190.86222222222221L 530.0246406570841 192.82666666666665L 531.9219712525667 189.82222222222222L 533.8193018480493 183.16622222222222L 535.7166324435318 189.14044444444443L 537.6139630390144 179.9191111111111L 539.511293634497 59.082666666666654L 541.4086242299795 164.26133333333334L 543.3059548254621 185.31555555555556L 545.2032854209446 183.57066666666668L 547.100616016427 184.50666666666666L 548.9979466119096 185.00355555555555L 550.8952772073922 180.0808888888889L 552.7926078028747 190.74666666666667L 554.6899383983573 181.42133333333334L 556.5872689938399 162.58577777777776L 558.4845995893224 124.3368888888889L 560.381930184805 153.52622222222223L 562.2792607802875 165.68266666666668L 564.17659137577 182.1031111111111L 566.0739219712525 171.8071111111111L 567.9712525667352 180.76266666666666L 569.8685831622176 174.41866666666667L 571.7659137577002 179.376L 573.6632443531827 183.65155555555555L 575.5605749486654 178.22044444444444L 577.4579055441478 185.03822222222223L 579.3552361396304 188.47022222222222L 581.252566735113 189.00177777777776L 583.1498973305954 185.52355555555556L 585.0472279260781 182.7848888888889L 586.9445585215606 182.69244444444445L 588.8418891170431 180.34666666666666L 590.7392197125256 169.5768888888889L 592.6365503080083 182.704L 594.5338809034907 186.136L 596.4312114989733 169.12622222222222L 598.3285420944558 143.0222222222222L 600.2258726899385 162.45866666666666L 602.123203285421 153.67644444444443L 604.0205338809035 148.176L 605.9178644763861 157.16622222222222L 607.8151950718685 155.61777777777777L 609.7125256673512 164.63111111111112L 611.6098562628337 173.32088888888887L 613.5071868583162 151.0648888888889L 615.4045174537987 173.07822222222222L 617.3018480492814 173.70222222222222L 619.1991786447638 173.74844444444443L 621.0965092402464 184.472L 622.993839835729 167.77422222222222L 624.8911704312114 160.9911111111111L 626.7885010266941 173.8871111111111L 628.6858316221766 167L 630.5831622176592 156.78488888888887L 632.4804928131416 175.07733333333334L 634.3778234086243 177.4L 636.2751540041068 187.22222222222223L 638.1724845995893 184.74933333333334L 640.0698151950719 183.952L 641.9671457905544 152.19733333333335L 643.864476386037 183.96355555555556L 645.7618069815195 186.8871111111111L 647.6591375770021 185.87022222222222L 649.5564681724845 183.15466666666666L 651.4537987679672 183.06222222222223L 653.3511293634497 183.02755555555555L 655.2484599589322 176.10577777777777L 657.1457905544147 182.87733333333333L 659.0431211498974 180.48533333333333L 660.94045174538 185.56977777777777L 662.8377823408624 180L 664.735112936345 176.984L 666.6324435318274 178.20888888888888L 668.5297741273101 179.8382222222222L 670.4271047227926 183.09688888888888L 672.3244353182752 177.53866666666667L 674.2217659137576 183.44355555555555L 676.1190965092403 178.09333333333333L 678.0164271047228 179.59555555555556L 679.9137577002053 183.02755555555555L 681.8110882956879 180.4622222222222L 683.7084188911704 178.04711111111112L 685.605749486653 186.89866666666666L 687.5030800821355 177.20355555555557L 689.4004106776181 179.07555555555555L 691.2977412731005 154.9591111111111L 693.1950718685832 133.512L 695.0924024640657 151.96622222222223L 696.9897330595483 151.57333333333332L 698.8870636550308 184.9111111111111L 700.7843942505133 185.28088888888888L 702.681724845996 178.61333333333334L 704.5790554414784 142.39822222222222L 706.476386036961 150.1751111111111L 708.3737166324435 164.04177777777778L 710.2710472279261 138.82755555555556L 712.1683778234086 134.864L 714.0657084188912 144.85955555555557L 715.9630390143736 145.57600000000002L 717.8603696098563 128.7048888888889L 719.7577002053389 120.36177777777777L 721.6550308008214 165.80977777777778L 723.5523613963039 163.51022222222224L 725.4496919917864 160.39022222222223L 727.3470225872691 177.504L 729.2443531827515 187.34933333333333L 731.1416837782341 188.04266666666666L 733.0390143737166 186.8871111111111L 734.9363449691992 176.08266666666668L 736.8336755646817 179.41066666666666L 738.7310061601643 195.0568888888889L 740.6283367556468 185.53511111111112L 742.5256673511293 183.6977777777778L 744.422997946612 174.97333333333333L 746.3203285420944 178.61333333333334L 748.217659137577 180.9591111111111L 750.1149897330595 184.0328888888889L 752.0123203285422 155.61777777777777L 753.9096509240246 149.7128888888889L 755.8069815195072 186.2631111111111L 757.7043121149898 191.28977777777777L 759.6016427104722 175.90933333333334L 761.4989733059549 175.49333333333334L 763.3963039014374 184.51822222222222L 765.2936344969199 189.69511111111112L 767.1909650924024 187.592L 769.0882956878851 180.09244444444445L 770.9856262833675 176.92622222222224L 772.8829568788501 163.31377777777777L 774.7802874743326 162.112L 776.6776180698153 167.1271111111111L 778.5749486652978 180.32355555555554L 780.4722792607803 184.11377777777778L 782.3696098562629 191.57866666666666L 784.2669404517453 195.54222222222222L 786.164271047228 183.54755555555556L 788.0616016427105 164.03022222222222L 789.958932238193 171.05599999999998L 791.8562628336755 169.92355555555557L 793.7535934291582 180.02311111111112L 795.6509240246406 172.07288888888888L 797.5482546201232 163.53333333333333L 799.4455852156058 171.34488888888887L 801.3429158110882 181.59466666666668L 803.2402464065709 179.80355555555556L 805.1375770020534 166.17955555555557L 807.034907597536 154.92444444444445L 808.9322381930184 158.4488888888889L 810.8295687885011 156.4728888888889L 812.7268993839836 144.4551111111111L 814.6242299794661 158.52977777777778L 816.5215605749487 178.00088888888888L 818.4188911704312 144.99822222222224L 820.3162217659138 134.136L 822.2135523613963 139.8213333333333L 824.1108829568789 145.04444444444445L 826.0082135523613 153.168L 827.905544147844 140.53777777777776L 829.8028747433265 113.86755555555555L 831.700205338809 113.28977777777777L 833.5975359342915 164.85066666666665L 835.4948665297742 163.62577777777778L 837.3921971252566 150.16355555555555L 839.2895277207392 149.84L 841.1868583162218 56.54044444444443L 843.0841889117042 124.776L 844.9815195071869 64.07466666666667L 846.8788501026694 123.55111111111111L 848.776180698152 157.536L 850.6735112936344 147.9911111111111L 852.5708418891171 136.22755555555557L 854.4681724845996 91.11466666666666L 856.3655030800821 107.36177777777779L 858.2628336755647 141.68177777777777L 860.1601642710472 157.73244444444444L 862.0574948665299 152.63644444444444L 863.9548254620123 96.22222222222221L 865.8521560574949 150.19822222222223L 867.7494866529773 116.57155555555556L 869.64681724846 127.34133333333332L 871.5441478439425 180.53155555555554L 873.441478439425 137.10577777777777L 875.3388090349076 122.64977777777779L 877.2361396303901 104.61155555555555L 879.1334702258728 141.76266666666666L 881.0308008213552 164.23822222222222L 882.9281314168378 160.51733333333334L 884.8254620123203 154.57777777777778L 886.722792607803 175.01955555555554L 888.6201232032854 146.87022222222222L 890.517453798768 153.23733333333334L 892.4147843942504 142.82577777777777L 894.3121149897331 130.98133333333334L 896.2094455852156 88.53777777777778L 898.1067761806981 174.488L 900.0041067761807 50.55466666666666L 901.9014373716632 84.43555555555557L 903.7987679671459 152.47466666666668L 905.6960985626283 114.90755555555555L 907.5934291581109 96.30311111111112L 909.4907597535934 171.46044444444445L 911.388090349076 183.96355555555556L 913.2854209445585 169.87733333333333L 915.1827515400411 183.13155555555556L 917.0800821355236 171.992L 918.9774127310061 152.48622222222224L 920.8747433264888 169.704L 922.7720739219712 172.99733333333333L 924.6694045174538 164.61955555555556L 926.5667351129363 162.64355555555557L 928.464065708419 170.51288888888888L 930.3613963039014 145.6568888888889L 932.258726899384 159.81244444444445L 934.1560574948666 167.2542222222222L 936.053388090349 141.55466666666666L 937.9507186858317 160.864L 939.8480492813142 157.7208888888889L 941.7453798767967 154.87822222222223L 943.6427104722792 145.29866666666666L 945.5400410677619 177.65422222222222L 947.4373716632443 119.73777777777778L 949.3347022587269 144.96355555555556L 951.2320328542094 151.15733333333333L 953.129363449692 164.4231111111111L 955.0266940451745 174.1991111111111L 956.9240246406571 171.784L 958.8213552361397 157.12L 960.7186858316221 159.44266666666667L 962.6160164271048 169.77333333333334L 964.5133470225873 166.64177777777778L 966.4106776180698 176.5102222222222L 968.3080082135523 174.04888888888888L 970.205338809035 157.17777777777778L 972.1026694045174 148.66133333333335L 974 197.77244444444443" stroke-width="2.0" fill="none" />
    
        
        
        <text x="45.0" font-family="-apple-system, system-ui, BlinkMacSystemFont, Roboto" y="50.0" dominant-baseline="middle" text-anchor="end" font-size="12" fill="#24292f">13500.0</text>
        
            
            <path stroke="#74838f" stroke-dasharray="10 6" stroke-width="0.5"  d="M 50.0 50.0 L 974.0 50.0" />
        
    
        
        
        <text x="45.0" font-family="-apple-system, system-ui, BlinkMacSystemFont, Roboto" y="81.2" dominant-baseline="middle" text-anchor="end" font-size="12" fill="#24292f">10800.0</text>
        
            
            
            <path stroke="#74838f" stroke-dasharray="10 6" stroke-width="0.5"  d="M 50.0 81.2 L 974.0 81.2" />
        
    
        
        
        <text x="45.0" font-family="-apple-system, system-ui, BlinkMacSystemFont, Roboto" y="112.4" dominant-baseline="middle" text-anchor="end" font-size="12" fill="#24292f">8100.0</text>
        
            
            
            <path stroke="#74838f" stroke-dasharray="10 6" stroke-width="0.5"  d="M 50.0 112.4 L 974.0 112.4" />
        
    
        
        
        <text x="45.0" font-family="-apple-system, system-ui, BlinkMacSystemFont, Roboto" y="143.6" dominant-baseline="middle" text-anchor="end" font-size="12" fill="#24292f">5400.0</text>
        
            
            
            <path stroke="#74838f" stroke-dasharray="10 6" stroke-width="0.5"  d="M 50.0 143.6 L 974.0 143.6" />
        
    
        
        
        <text x="45.0" font-family="-apple-system, system-ui, BlinkMacSystemFont, Roboto" y="174.8" dominant-baseline="middle" text-anchor="end" font-size="12" fill="#24292f">2700.0</text>
        
            
            
            <path stroke="#74838f" stroke-dasharray="10 6" stroke-width="0.5"  d="M 50.0 174.8 L 974.0 174.8" />
        
    
        
        
        <text x="45.0" font-family="-apple-system, system-ui, BlinkMacSystemFont, Roboto" y="206.0" dominant-baseline="middle" text-anchor="end" font-size="12" fill="#24292f">0.0</text>
        
    
    
        
        <path stroke="#74838f"  stroke-width="2.0"  d="M 80.35728952772074 206.0 L 80.35728952772074 214.0" />
        <text x="80.35728952772074" font-family="-apple-system, system-ui, BlinkMacSystemFont, Roboto" y="216.0" dominant-baseline="hanging" text-anchor="middle" font-size="12" fill="#24292f">Mar 2022</text>
    
        
        <path stroke="#74838f"  stroke-width="2.0"  d="M 139.17453798767968 206.0 L 139.17453798767968 214.0" />
        <text x="139.17453798767968" font-family="-apple-system, system-ui, BlinkMacSystemFont, Roboto" y="216.0" dominant-baseline="hanging" text-anchor="middle" font-size="12" fill="#24292f">Apr 2022</text>
    
        
        <path stroke="#74838f"  stroke-width="2.0"  d="M 196.09445585215607 206.0 L 196.09445585215607 214.0" />
        <text x="196.09445585215607" font-family="-apple-system, system-ui, BlinkMacSystemFont, Roboto" y="216.0" dominant-baseline="hanging" text-anchor="middle" font-size="12" fill="#24292f">May 2022</text>
    
        
        <path stroke="#74838f"  stroke-width="2.0"  d="M 254.911704312115 206.0 L 254.911704312115 214.0" />
        <text x="254.911704312115" font-family="-apple-system, system-ui, BlinkMacSystemFont, Roboto" y="216.0" dominant-baseline="hanging" text-anchor="middle" font-size="12" fill="#24292f">Jun 2022</text>
    
        
        <path stroke="#74838f"  stroke-width="2.0"  d="M 311.83162217659134 206.0 L 311.83162217659134 214.0" />
        <text x="311.83162217659134" font-family="-apple-system, system-ui, BlinkMacSystemFont, Roboto" y="216.0" dominant-baseline="hanging" text-anchor="middle" font-size="12" fill="#24292f">Jul 2022</text>
    
        
        <path stroke="#74838f"  stroke-width="2.0"  d="M 370.64887063655027 206.0 L 370.64887063655027 214.0" />
        <text x="370.64887063655027" font-family="-apple-system, system-ui, BlinkMacSystemFont, Roboto" y="216.0" dominant-baseline="hanging" text-anchor="middle" font-size="12" fill="#24292f">Aug 2022</text>
    
        
        <path stroke="#74838f"  stroke-width="2.0"  d="M 429.4661190965092 206.0 L 429.4661190965092 214.0" />
        <text x="429.4661190965092" font-family="-apple-system, system-ui, BlinkMacSystemFont, Roboto" y="216.0" dominant-baseline="hanging" text-anchor="middle" font-size="12" fill="#24292f">Sep 2022</text>
    
        
        <path stroke="#74838f"  stroke-width="2.0"  d="M 486.3860369609856 206.0 L 486.3860369609856 214.0" />
        <text x="486.3860369609856" font-family="-apple-system, system-ui, BlinkMacSystemFont, Roboto" y="216.0" dominant-baseline="hanging" text-anchor="middle" font-size="12" fill="#24292f">Oct 2022</text>
    
        
        <path stroke="#74838f"  stroke-width="2.0"  d="M 545.2032854209446 206.0 L 545.2032854209446 214.0" />
        <text x="545.2032854209446" font-family="-apple-system, system-ui, BlinkMacSystemFont, Roboto" y="216.0" dominant-baseline="hanging" text-anchor="middle" font-size="12" fill="#24292f">Nov 2022</text>
    
        
        <path stroke="#74838f"  stroke-width="2.0"  d="M 602.123203285421 206.0 L 602.123203285421 214.0" />
        <text x="602.123203285421" font-family="-apple-system, system-ui, BlinkMacSystemFont, Roboto" y="216.0" dominant-baseline="hanging" text-anchor="middle" font-size="12" fill="#24292f">Dec 2022</text>
    
        
        <path stroke="#74838f"  stroke-width="2.0"  d="M 660.94045174538 206.0 L 660.94045174538 214.0" />
        <text x="660.94045174538" font-family="-apple-system, system-ui, BlinkMacSystemFont, Roboto" y="216.0" dominant-baseline="hanging" text-anchor="middle" font-size="12" fill="#24292f">Jan 2023</text>
    
        
        <path stroke="#74838f"  stroke-width="2.0"  d="M 719.7577002053389 206.0 L 719.7577002053389 214.0" />
        <text x="719.7577002053389" font-family="-apple-system, system-ui, BlinkMacSystemFont, Roboto" y="216.0" dominant-baseline="hanging" text-anchor="middle" font-size="12" fill="#24292f">Feb 2023</text>
    
        
        <path stroke="#74838f"  stroke-width="2.0"  d="M 772.8829568788501 206.0 L 772.8829568788501 214.0" />
        <text x="772.8829568788501" font-family="-apple-system, system-ui, BlinkMacSystemFont, Roboto" y="216.0" dominant-baseline="hanging" text-anchor="middle" font-size="12" fill="#24292f">Mar 2023</text>
    
        
        <path stroke="#74838f"  stroke-width="2.0"  d="M 831.700205338809 206.0 L 831.700205338809 214.0" />
        <text x="831.700205338809" font-family="-apple-system, system-ui, BlinkMacSystemFont, Roboto" y="216.0" dominant-baseline="hanging" text-anchor="middle" font-size="12" fill="#24292f">Apr 2023</text>
    
        
        <path stroke="#74838f"  stroke-width="2.0"  d="M 888.6201232032854 206.0 L 888.6201232032854 214.0" />
        <text x="888.6201232032854" font-family="-apple-system, system-ui, BlinkMacSystemFont, Roboto" y="216.0" dominant-baseline="hanging" text-anchor="middle" font-size="12" fill="#24292f">May 2023</text>
    
        
        <path stroke="#74838f"  stroke-width="2.0"  d="M 947.4373716632443 206.0 L 947.4373716632443 214.0" />
        <text x="947.4373716632443" font-family="-apple-system, system-ui, BlinkMacSystemFont, Roboto" y="216.0" dominant-baseline="hanging" text-anchor="middle" font-size="12" fill="#24292f">Jun 2023</text>
    
    <path stroke="#74838f"   stroke-linejoin="round" stroke-width="2.0" d="M 50.0 216.0 L 50.0 206.0 L 974.0 206.0 L 974.0 216.0"  fill="none" />
    <text x="512.0" y="25.0" font-family="-apple-system, system-ui, BlinkMacSystemFont, Roboto" dominant-baseline="middle" text-anchor="middle" font-size="18" fill="#24292f">Total daily suspensions</text>
</svg>
