<?xml version="1.0" standalone="no"?>
<svg width="1024.0" height="256.0"  viewBox="0 0 1024.0 256.0" preserveAspectRatio="xMidYMid meet" xmlns="http://www.w3.org/2000/svg">
    <path stroke="#e74c3c" stroke-linejoin="round" d="M 50.0 161.108 L 50 161.108L 52.75820895522388 193.664L 55.516417910447764 197.576L 58.27462686567164 197.924L 61.03283582089552 203.528L 63.791044776119406 199.94L 66.54925373134328 199.268L 69.30746268656716 191.108L 72.06567164179104 200.972L 74.82388059701492 198.62L 77.58208955223881 200L 80.34029850746268 202.57999999999998L 83.09850746268657 199.208L 85.85671641791045 195.608L 88.61492537313433 202.652L 91.3731343283582 198.716L 94.13134328358208 197.49200000000002L 96.88955223880598 191.42000000000002L 99.64776119402984 196.688L 102.40597014925373 199.46L 105.16417910447761 199.328L 107.92238805970149 198.308L 110.68059701492537 198.164L 113.43880597014925 199.832L 116.19701492537314 194.876L 118.955223880597 199.904L 121.7134328358209 195.584L 124.47164179104477 200.732L 127.22985074626865 198.416L 129.98805970149255 190.652L 132.7462686567164 196.112L 135.5044776119403 190.82L 138.26268656716417 193.53199999999998L 141.02089552238806 199.688L 143.77910447761195 192.392L 146.53731343283582 197L 149.29552238805968 199.59199999999998L 152.05373134328357 193.54399999999998L 154.81194029850747 195.26L 157.57014925373136 195.428L 160.32835820895522 195.548L 163.0865671641791 196.484L 165.84477611940298 199.424L 168.60298507462687 199.22L 171.36119402985074 195.656L 174.11940298507463 193.952L 176.8776119402985 195.536L 179.6358208955224 198.764L 182.39402985074628 195.428L 185.15223880597017 194L 187.910447761194 193.688L 190.6686567164179 186.32L 193.4268656716418 197.372L 196.18507462686566 195.96800000000002L 198.94328358208955 198.284L 201.70149253731344 194.38400000000001L 204.4597014925373 196.424L 207.2179104477612 196.988L 209.9761194029851 198.368L 212.73432835820896 198.05599999999998L 215.49253731343282 199.61599999999999L 218.2507462686567 191.54L 221.0089552238806 202.124L 223.76716417910447 193.34L 226.52537313432836 204.2L 229.28358208955225 206L 232.04179104477612 206L 234.8 206L 237.55820895522388 206L 240.31641791044774 190.472L 243.07462686567163 159.01999999999998L 245.83283582089553 193.56799999999998L 248.5910447761194 200.228L 251.34925373134328 193.232L 254.10746268656717 196.82L 256.86567164179104 199.772L 259.62388059701493 186.548L 262.38208955223877 197.888L 265.1402985074627 195.596L 267.89850746268655 190.508L 270.65671641791045 194.876L 273.41492537313434 190.4L 276.1731343283582 188.756L 278.9313432835821 197.852L 281.68955223880596 199.772L 284.44776119402985 191.936L 287.20597014925374 191.864L 289.96417910447764 199.316L 292.7223880597015 194.72L 295.48059701492537 192.608L 298.23880597014926 194.9L 300.99701492537315 199.7L 303.755223880597 189.224L 306.5134328358209 198.428L 309.2716417910448 196.136L 312.02985074626866 195.296L 314.78805970149256 196.268L 317.5462686567164 193.184L 320.30447761194034 197.204L 323.0626865671642 193.856L 325.820895522388 197.096L 328.57910447761196 178.16L 331.3373134328358 194.372L 334.0955223880597 195.92000000000002L 336.8537313432836 195.11599999999999L 339.6119402985075 196.688L 342.3701492537313 197.49200000000002L 345.12835820895526 197.696L 347.8865671641791 186.848L 350.64477611940293 192.644L 353.4029850746269 199.61599999999999L 356.1611940298507 193.052L 358.9194029850746 191.072L 361.6776119402985 195.44L 364.4358208955224 196.184L 367.19402985074623 196.46L 369.9522388059702 197.312L 372.710447761194 193.076L 375.4686567164179 206L 378.2268656716418 186.44L 380.98507462686564 186.632L 383.7432835820896 191.276L 386.5014925373134 180.93200000000002L 389.2597014925373 201.704L 392.0179104477612 185.744L 394.7761194029851 196.028L 397.53432835820894 189.464L 400.29253731343283 194.228L 403.0507462686567 195.632L 405.80895522388056 196.844L 408.5671641791045 186.332L 411.32537313432834 197.99599999999998L 414.08358208955224 188.924L 416.84179104477613 189.128L 419.6 196.748L 422.35820895522386 182.45600000000002L 425.11641791044775 184.16L 427.87462686567164 206L 430.6328358208955 206L 433.39104477611943 206L 436.14925373134326 160.16L 438.90746268656716 198.536L 441.66567164179105 196.60399999999998L 444.42388059701494 195.668L 447.1820895522388 192.8L 449.94029850746267 196.964L 452.69850746268656 197.828L 455.45671641791046 200.84L 458.21492537313435 170.312L 460.9731343283582 189.236L 463.7313432835821 177.428L 466.48955223880597 191.564L 469.24776119402986 178.784L 472.00597014925376 176.372L 474.7641791044776 181.7L 477.5223880597015 187.472L 480.2805970149254 192.88400000000001L 483.03880597014927 189.38L 485.7970149253731 187.772L 488.55522388059705 189.404L 491.3134328358209 187.532L 494.0716417910448 193.59199999999998L 496.8298507462687 185.036L 499.5880597014925 171.332L 502.3462686567164 180.14L 505.1044776119403 172.316L 507.8626865671642 193.028L 510.620895522388 191.996L 513.3791044776119 193.052L 516.1373134328358 194.84L 518.8955223880597 193.53199999999998L 521.6537313432837 194.024L 524.4119402985075 189.272L 527.1701492537313 195.188L 529.9283582089553 196.256L 532.686567164179 192.62L 535.444776119403 190.844L 538.2029850746269 200.984L 540.9611940298507 184.796L 543.7194029850746 190.88L 546.4776119402985 194.42000000000002L 549.2358208955225 189.86L 551.9940298507463 195.86L 554.7522388059701 191.984L 557.510447761194 193.1L 560.2686567164179 186.464L 563.0268656716418 190.46L 565.7850746268657 182.156L 568.5432835820895 187.136L 571.3014925373135 191.528L 574.0597014925373 184.1L 576.8179104477612 189.14L 579.5761194029851 185.204L 582.334328358209 185.468L 585.0925373134328 176.816L 587.8507462686567 189.04399999999998L 590.6089552238807 191.048L 593.3671641791044 188.756L 596.1253731343284 187.592L 598.8835820895523 191.39600000000002L 601.641791044776 187.796L 604.4 188.228L 607.1582089552239 190.268L 609.9164179104478 194.372L 612.6746268656716 194.72L 615.4328358208955 201.308L 618.1910447761194 192.752L 620.9492537313433 181.148L 623.7074626865672 181.748L 626.465671641791 181.208L 629.223880597015 191.3L 631.9820895522388 186.88400000000001L 634.7402985074626 181.376L 637.4985074626866 186.5L 640.2567164179105 188.44400000000002L 643.0149253731342 179.66L 645.7731343283582 183.09199999999998L 648.5313432835821 173.564L 651.2895522388059 183.836L 654.0477611940298 171.668L 656.8059701492538 148.148L 659.5641791044776 178.004L 662.3223880597014 141.86L 665.0805970149254 186.128L 667.8388059701492 188.54000000000002L 670.5970149253732 187.748L 673.355223880597 193.256L 676.1134328358208 186.596L 678.8716417910448 185.42000000000002L 681.6298507462686 186.872L 684.3880597014925 185.372L 687.1462686567164 192.824L 689.9044776119404 188.552L 692.6626865671642 189.32L 695.420895522388 186.632L 698.179104477612 185.768L 700.9373134328358 188.744L 703.6955223880597 187.34L 706.4537313432836 192.488L 709.2119402985074 187.028L 711.9701492537313 185.468L 714.7283582089552 181.928L 717.4865671641792 183.8L 720.244776119403 180.296L 723.0029850746268 185.516L 725.7611940298508 194L 728.5194029850746 190.328L 731.2776119402985 186.584L 734.0358208955224 168.32L 736.7940298507463 117.5L 739.5522388059702 189.10399999999998L 742.310447761194 187.844L 745.0686567164179 190.28L 747.8268656716418 192.32L 750.5850746268657 189.2L 753.3432835820895 182.288L 756.1014925373134 188.49200000000002L 758.8597014925374 178.916L 761.6179104477611 53.432000000000016L 764.3761194029851 162.656L 767.134328358209 184.52L 769.8925373134329 182.708L 772.6507462686567 183.68L 775.4089552238806 184.196L 778.1671641791045 179.084L 780.9253731343283 190.16L 783.6835820895523 180.476L 786.4417910447761 160.916L 789.2 121.196L 791.9582089552239 151.50799999999998L 794.7164179104477 164.132L 797.4746268656717 181.184L 800.2328358208955 170.49200000000002L 802.9910447761193 179.792L 805.7492537313433 173.204L 808.5074626865672 178.352L 811.265671641791 182.792L 814.0238805970149 177.152L 816.7820895522389 184.232L 819.5402985074627 187.796L 822.2985074626865 188.348L 825.0567164179105 184.736L 827.8149253731343 181.892L 830.5731343283582 181.796L 833.3313432835821 179.36L 836.0895522388059 168.176L 838.8477611940299 181.808L 841.6059701492537 185.372L 844.3641791044776 167.708L 847.1223880597015 140.6L 849.8805970149253 160.784L 852.6388059701492 151.664L 855.3970149253731 145.952L 858.1552238805971 155.288L 860.9134328358209 153.68L 863.6716417910447 163.04L 866.4298507462687 172.064L 869.1880597014925 148.952L 871.9462686567164 171.812L 874.7044776119403 172.46L 877.4626865671642 172.508L 880.220895522388 183.644L 882.9791044776119 166.304L 885.7373134328358 159.26L 888.4955223880597 172.652L 891.2537313432836 165.5L 894.0119402985075 154.892L 896.7701492537313 173.888L 899.5283582089552 176.3L 902.2865671641791 186.5L 905.044776119403 183.932L 907.8029850746269 183.10399999999998L 910.5611940298508 150.128L 913.3194029850746 183.11599999999999L 916.0776119402985 186.152L 918.8358208955225 185.096L 921.5940298507462 182.276L 924.3522388059702 182.18L 927.1104477611941 182.144L 929.8686567164178 174.956L 932.6268656716418 181.988L 935.3850746268657 179.504L 938.1432835820896 184.784L 940.9014925373134 179L 943.6597014925374 175.868L 946.4179104477612 177.14L 949.176119402985 178.832L 951.934328358209 182.216L 954.6925373134328 176.444L 957.4507462686568 182.576L 960.2089552238806 177.02L 962.9671641791044 178.58L 965.7253731343284 182.144L 968.4835820895523 179.48L 971.241791044776 176.972L 974 195.94400000000002" stroke-width="2.0" fill="none" />
    
        
        
        <text x="45.0" font-family="-apple-system, system-ui, BlinkMacSystemFont, Roboto" y="50.0" dominant-baseline="middle" text-anchor="end" font-size="12" fill="#24292f">13000.0</text>
        
            
            <path stroke="#74838f" stroke-dasharray="10 6" stroke-width="0.5"  d="M 50.0 50.0 L 974.0 50.0" />
        
    
        
        
        <text x="45.0" font-family="-apple-system, system-ui, BlinkMacSystemFont, Roboto" y="81.2" dominant-baseline="middle" text-anchor="end" font-size="12" fill="#24292f">10400.0</text>
        
            
            
            <path stroke="#74838f" stroke-dasharray="10 6" stroke-width="0.5"  d="M 50.0 81.2 L 974.0 81.2" />
        
    
        
        
        <text x="45.0" font-family="-apple-system, system-ui, BlinkMacSystemFont, Roboto" y="112.4" dominant-baseline="middle" text-anchor="end" font-size="12" fill="#24292f">7800.0</text>
        
            
            
            <path stroke="#74838f" stroke-dasharray="10 6" stroke-width="0.5"  d="M 50.0 112.4 L 974.0 112.4" />
        
    
        
        
        <text x="45.0" font-family="-apple-system, system-ui, BlinkMacSystemFont, Roboto" y="143.6" dominant-baseline="middle" text-anchor="end" font-size="12" fill="#24292f">5200.0</text>
        
            
            
            <path stroke="#74838f" stroke-dasharray="10 6" stroke-width="0.5"  d="M 50.0 143.6 L 974.0 143.6" />
        
    
        
        
        <text x="45.0" font-family="-apple-system, system-ui, BlinkMacSystemFont, Roboto" y="174.8" dominant-baseline="middle" text-anchor="end" font-size="12" fill="#24292f">2600.0</text>
        
            
            
            <path stroke="#74838f" stroke-dasharray="10 6" stroke-width="0.5"  d="M 50.0 174.8 L 974.0 174.8" />
        
    
        
        
        <text x="45.0" font-family="-apple-system, system-ui, BlinkMacSystemFont, Roboto" y="206.0" dominant-baseline="middle" text-anchor="end" font-size="12" fill="#24292f">0.0</text>
        
    
    
        
        <path stroke="#74838f"  stroke-width="2.0"  d="M 94.13134328358208 206.0 L 94.13134328358208 214.0" />
        <text x="94.13134328358208" font-family="-apple-system, system-ui, BlinkMacSystemFont, Roboto" y="216.0" dominant-baseline="hanging" text-anchor="middle" font-size="12" fill="#24292f">Mar 2022</text>
    
        
        <path stroke="#74838f"  stroke-width="2.0"  d="M 179.6358208955224 206.0 L 179.6358208955224 214.0" />
        <text x="179.6358208955224" font-family="-apple-system, system-ui, BlinkMacSystemFont, Roboto" y="216.0" dominant-baseline="hanging" text-anchor="middle" font-size="12" fill="#24292f">Apr 2022</text>
    
        
        <path stroke="#74838f"  stroke-width="2.0"  d="M 262.38208955223877 206.0 L 262.38208955223877 214.0" />
        <text x="262.38208955223877" font-family="-apple-system, system-ui, BlinkMacSystemFont, Roboto" y="216.0" dominant-baseline="hanging" text-anchor="middle" font-size="12" fill="#24292f">May 2022</text>
    
        
        <path stroke="#74838f"  stroke-width="2.0"  d="M 347.8865671641791 206.0 L 347.8865671641791 214.0" />
        <text x="347.8865671641791" font-family="-apple-system, system-ui, BlinkMacSystemFont, Roboto" y="216.0" dominant-baseline="hanging" text-anchor="middle" font-size="12" fill="#24292f">Jun 2022</text>
    
        
        <path stroke="#74838f"  stroke-width="2.0"  d="M 430.6328358208955 206.0 L 430.6328358208955 214.0" />
        <text x="430.6328358208955" font-family="-apple-system, system-ui, BlinkMacSystemFont, Roboto" y="216.0" dominant-baseline="hanging" text-anchor="middle" font-size="12" fill="#24292f">Jul 2022</text>
    
        
        <path stroke="#74838f"  stroke-width="2.0"  d="M 516.1373134328358 206.0 L 516.1373134328358 214.0" />
        <text x="516.1373134328358" font-family="-apple-system, system-ui, BlinkMacSystemFont, Roboto" y="216.0" dominant-baseline="hanging" text-anchor="middle" font-size="12" fill="#24292f">Aug 2022</text>
    
        
        <path stroke="#74838f"  stroke-width="2.0"  d="M 601.641791044776 206.0 L 601.641791044776 214.0" />
        <text x="601.641791044776" font-family="-apple-system, system-ui, BlinkMacSystemFont, Roboto" y="216.0" dominant-baseline="hanging" text-anchor="middle" font-size="12" fill="#24292f">Sep 2022</text>
    
        
        <path stroke="#74838f"  stroke-width="2.0"  d="M 684.3880597014925 206.0 L 684.3880597014925 214.0" />
        <text x="684.3880597014925" font-family="-apple-system, system-ui, BlinkMacSystemFont, Roboto" y="216.0" dominant-baseline="hanging" text-anchor="middle" font-size="12" fill="#24292f">Oct 2022</text>
    
        
        <path stroke="#74838f"  stroke-width="2.0"  d="M 769.8925373134329 206.0 L 769.8925373134329 214.0" />
        <text x="769.8925373134329" font-family="-apple-system, system-ui, BlinkMacSystemFont, Roboto" y="216.0" dominant-baseline="hanging" text-anchor="middle" font-size="12" fill="#24292f">Nov 2022</text>
    
        
        <path stroke="#74838f"  stroke-width="2.0"  d="M 852.6388059701492 206.0 L 852.6388059701492 214.0" />
        <text x="852.6388059701492" font-family="-apple-system, system-ui, BlinkMacSystemFont, Roboto" y="216.0" dominant-baseline="hanging" text-anchor="middle" font-size="12" fill="#24292f">Dec 2022</text>
    
        
        <path stroke="#74838f"  stroke-width="2.0"  d="M 938.1432835820896 206.0 L 938.1432835820896 214.0" />
        <text x="938.1432835820896" font-family="-apple-system, system-ui, BlinkMacSystemFont, Roboto" y="216.0" dominant-baseline="hanging" text-anchor="middle" font-size="12" fill="#24292f">Jan 2023</text>
    
    <path stroke="#74838f"   stroke-linejoin="round" stroke-width="2.0" d="M 50.0 216.0 L 50.0 206.0 L 974.0 206.0 L 974.0 216.0"  fill="none" />
    <text x="512.0" y="25.0" font-family="-apple-system, system-ui, BlinkMacSystemFont, Roboto" dominant-baseline="middle" text-anchor="middle" font-size="18" fill="#24292f">Total daily suspensions</text>
</svg>
