<?xml version="1.0" standalone="no"?>
<svg width="1024.0" height="256.0"  viewBox="0 0 1024.0 256.0" preserveAspectRatio="xMidYMid meet" xmlns="http://www.w3.org/2000/svg">
    <path stroke="#e74c3c" stroke-linejoin="round" d="M 50.0 161.108 L 50 161.108L 52.1 193.664L 54.2 197.576L 56.3 197.924L 58.4 203.528L 60.5 199.94L 62.6 199.268L 64.7 191.108L 66.8 200.972L 68.9 198.62L 71 200L 73.1 202.57999999999998L 75.2 199.208L 77.3 195.608L 79.4 202.652L 81.5 198.716L 83.6 197.49200000000002L 85.69999999999999 191.42000000000002L 87.8 196.688L 89.9 199.46L 92 199.328L 94.1 198.308L 96.2 198.164L 98.3 199.832L 100.4 194.876L 102.5 199.904L 104.6 195.584L 106.7 200.732L 108.8 198.416L 110.89999999999999 190.652L 113 196.112L 115.1 190.82L 117.2 193.53199999999998L 119.3 199.688L 121.39999999999999 192.392L 123.5 197L 125.6 199.59199999999998L 127.7 193.54399999999998L 129.8 195.26L 131.9 195.428L 134 195.548L 136.10000000000002 196.484L 138.2 199.424L 140.3 199.22L 142.4 195.656L 144.5 193.952L 146.6 195.536L 148.7 198.764L 150.8 195.428L 152.89999999999998 194L 155 193.688L 157.1 186.32L 159.2 197.372L 161.3 195.96800000000002L 163.4 198.284L 165.5 194.38400000000001L 167.6 196.424L 169.7 196.988L 171.79999999999998 198.368L 173.9 198.05599999999998L 176 199.61599999999999L 178.1 191.54L 180.2 202.124L 182.3 193.34L 184.4 204.2L 186.5 206L 188.6 206L 190.70000000000002 206L 192.79999999999998 206L 194.9 190.472L 197 159.01999999999998L 199.10000000000002 193.56799999999998L 201.2 200.228L 203.3 193.232L 205.4 196.82L 207.5 199.772L 209.6 186.548L 211.7 197.888L 213.8 195.596L 215.89999999999998 190.508L 218 194.876L 220.1 190.4L 222.20000000000002 188.756L 224.29999999999998 197.852L 226.4 199.772L 228.5 191.936L 230.60000000000002 191.864L 232.7 199.316L 234.8 194.72L 236.9 192.608L 239 194.9L 241.1 199.7L 243.2 189.224L 245.3 198.428L 247.39999999999998 196.136L 249.5 195.296L 251.6 196.268L 253.70000000000002 193.184L 255.79999999999998 197.204L 257.9 193.856L 260 197.096L 262.1 178.16L 264.2 194.372L 266.3 195.92000000000002L 268.4 195.11599999999999L 270.5 196.688L 272.6 197.49200000000002L 274.70000000000005 197.696L 276.8 186.848L 278.9 192.644L 281 199.61599999999999L 283.1 193.052L 285.2 191.072L 287.3 195.44L 289.4 196.184L 291.5 196.46L 293.59999999999997 197.312L 295.70000000000005 193.076L 297.8 206L 299.9 186.44L 302 186.632L 304.1 191.276L 306.2 180.93200000000002L 308.3 201.704L 310.4 185.744L 312.5 196.028L 314.6 189.464L 316.7 194.228L 318.8 195.632L 320.9 196.844L 323 186.332L 325.1 197.99599999999998L 327.2 188.924L 329.29999999999995 189.128L 331.40000000000003 196.748L 333.5 182.45600000000002L 335.59999999999997 184.16L 337.7 206L 339.8 206L 341.90000000000003 206L 344 160.16L 346.09999999999997 198.536L 348.20000000000005 196.60399999999998L 350.3 195.668L 352.4 192.8L 354.5 196.964L 356.6 197.828L 358.7 200.84L 360.8 170.312L 362.9 189.236L 365 177.428L 367.1 191.564L 369.2 178.784L 371.3 176.372L 373.4 181.7L 375.5 187.472L 377.6 192.88400000000001L 379.7 189.38L 381.79999999999995 187.772L 383.90000000000003 189.404L 386 187.532L 388.1 193.59199999999998L 390.2 185.036L 392.3 171.332L 394.40000000000003 180.14L 396.5 172.316L 398.59999999999997 193.028L 400.7 191.996L 402.8 193.052L 404.9 194.84L 407 193.53199999999998L 409.09999999999997 194.024L 411.20000000000005 189.272L 413.3 195.188L 415.4 196.256L 417.5 192.62L 419.6 190.844L 421.7 200.984L 423.8 184.796L 425.9 190.88L 428 194.42000000000002L 430.1 189.86L 432.2 195.86L 434.3 191.984L 436.4 193.1L 438.5 186.464L 440.6 190.46L 442.7 182.156L 444.79999999999995 187.136L 446.90000000000003 191.528L 449 184.1L 451.09999999999997 189.14L 453.2 185.204L 455.3 185.468L 457.40000000000003 176.816L 459.5 189.04399999999998L 461.59999999999997 191.048L 463.70000000000005 188.756L 465.8 187.592L 467.9 191.39600000000002L 470 187.796L 472.1 188.228L 474.2 190.268L 476.3 194.372L 478.4 194.72L 480.5 201.308L 482.6 192.752L 484.7 181.148L 486.8 181.748L 488.9 181.208L 491 191.3L 493.1 186.88400000000001L 495.2 181.376L 497.29999999999995 186.5L 499.40000000000003 188.44400000000002L 501.5 179.66L 503.6 183.09199999999998L 505.7 173.564L 507.8 183.836L 509.90000000000003 171.668L 512 148.148L 514.1 178.004L 516.2 141.86L 518.3 186.128L 520.4 188.54000000000002L 522.5 187.748L 524.6 193.256L 526.7 186.596L 528.8 185.42000000000002L 530.9000000000001 186.872L 533 185.372L 535.1 192.824L 537.1999999999999 188.552L 539.3 189.32L 541.4000000000001 186.632L 543.5 185.768L 545.6 188.744L 547.7 187.34L 549.8 192.488L 551.9000000000001 187.028L 554 185.468L 556.1 181.928L 558.2 183.8L 560.3 180.296L 562.4 185.516L 564.5 194L 566.6 190.328L 568.7 186.584L 570.8 168.32L 572.9 117.5L 575 189.10399999999998L 577.1 187.844L 579.2 190.28L 581.3 192.32L 583.4 189.2L 585.5 182.288L 587.6 188.49200000000002L 589.7 178.916L 591.8 53.432000000000016L 593.9 162.656L 596 184.52L 598.0999999999999 182.708L 600.2 183.68L 602.3000000000001 184.196L 604.4 179.084L 606.5 190.16L 608.5999999999999 180.476L 610.7 160.916L 612.8000000000001 121.196L 614.9 151.50799999999998L 617 164.132L 619.1 181.184L 621.1999999999999 170.49200000000002L 623.3000000000001 179.792L 625.4 173.204L 627.5 178.352L 629.6 182.792L 631.6999999999999 177.152L 633.8000000000001 184.232L 635.9 187.796L 638 188.348L 640.1 184.736L 642.1999999999999 181.892L 644.3 181.796L 646.4000000000001 179.36L 648.5 168.176L 650.6 181.808L 652.6999999999999 185.372L 654.8 167.708L 656.9000000000001 140.6L 659 160.784L 661.1 151.664L 663.2 145.952L 665.3 155.288L 667.4 153.68L 669.5 163.04L 671.6 172.064L 673.7 148.952L 675.8 171.812L 677.9 172.46L 680 172.508L 682.1 183.644L 684.2 166.304L 686.3 159.26L 688.4 172.652L 690.5 165.5L 692.6 154.892L 694.7 173.888L 696.8 176.3L 698.9 186.5L 701 183.932L 703.1 183.10399999999998L 705.2 150.128L 707.3 183.11599999999999L 709.4 186.152L 711.5 185.096L 713.5999999999999 182.276L 715.7 182.18L 717.8000000000001 182.144L 719.9 174.956L 722 181.988L 724.0999999999999 179.504L 726.2 184.784L 728.3000000000001 179L 730.4 175.868L 732.5 177.14L 734.6 178.832L 736.6999999999999 182.216L 738.8000000000001 176.444L 740.9 182.576L 743 177.02L 745.1 178.58L 747.1999999999999 182.144L 749.3000000000001 179.48L 751.4 176.972L 753.5 186.164L 755.6 176.096L 757.6999999999999 178.04L 759.8 152.996L 761.9000000000001 130.724L 764 149.888L 766.1 149.48L 768.1999999999999 184.1L 770.3 184.484L 772.4000000000001 177.56L 774.5 139.952L 776.6 148.028L 778.7 162.428L 780.8 136.244L 782.9 132.128L 785 142.508L 787.1 143.252L 789.2 125.732L 791.3 117.06800000000001L 793.4 164.264L 795.5 161.876L 797.6 158.636L 799.7 176.40800000000002L 801.8 186.632L 803.9 187.352L 806 186.152L 808.1 174.932L 810.2 178.388L 812.3 194.636L 814.4 184.748L 816.5 182.84L 818.6 173.78L 820.7 177.56L 822.8 179.996L 824.9 183.188L 827 153.68L 829.0999999999999 147.548L 831.2 185.504L 833.3000000000001 190.724L 835.4 174.752L 837.5 174.32L 839.5999999999999 183.692L 841.7 189.06799999999998L 843.8000000000001 186.88400000000001L 845.9 179.096L 848 175.808L 850.1 161.672L 852.1999999999999 160.424L 854.3000000000001 165.632L 856.4 179.336L 858.5 183.272L 860.6 191.024L 862.6999999999999 195.14L 864.8000000000001 182.684L 866.9 162.416L 869 169.712L 871.1 168.536L 873.1999999999999 179.024L 875.3 170.768L 877.4000000000001 161.9L 879.5 170.012L 881.6 180.656L 883.6999999999999 178.796L 885.8 164.648L 887.9000000000001 152.95999999999998L 890 156.62L 892.1 154.568L 894.2 142.088L 896.3 156.704L 898.4 176.924L 900.5 142.652L 902.6 131.372L 904.7 137.276L 906.8 142.7L 908.9 151.136L 911 138.02L 913.1 110.324L 915.2 109.724L 917.3 163.268L 919.4 161.996L 921.5 148.016L 923.6 147.68L 925.7 50.792L 927.8 121.652L 929.9 58.615999999999985L 932 120.38L 934.1 155.672L 936.2 145.76L 938.3 133.54399999999998L 940.4 86.696L 942.5 103.568L 944.5999999999999 139.208L 946.7 155.876L 948.8000000000001 150.584L 950.9 92L 953 148.052L 955.0999999999999 113.132L 957.2 124.316L 959.3000000000001 179.552L 961.4 134.45600000000002L 963.5 119.44399999999999L 965.6 100.71199999999999L 967.6999999999999 139.292L 969.8000000000001 162.632L 971.9 158.768L 974 185.984" stroke-width="2.0" fill="none" />
    
        
        
        <text x="45.0" font-family="-apple-system, system-ui, BlinkMacSystemFont, Roboto" y="50.0" dominant-baseline="middle" text-anchor="end" font-size="12" fill="#24292f">13000.0</text>
        
            
            <path stroke="#74838f" stroke-dasharray="10 6" stroke-width="0.5"  d="M 50.0 50.0 L 974.0 50.0" />
        
    
        
        
        <text x="45.0" font-family="-apple-system, system-ui, BlinkMacSystemFont, Roboto" y="81.2" dominant-baseline="middle" text-anchor="end" font-size="12" fill="#24292f">10400.0</text>
        
            
            
            <path stroke="#74838f" stroke-dasharray="10 6" stroke-width="0.5"  d="M 50.0 81.2 L 974.0 81.2" />
        
    
        
        
        <text x="45.0" font-family="-apple-system, system-ui, BlinkMacSystemFont, Roboto" y="112.4" dominant-baseline="middle" text-anchor="end" font-size="12" fill="#24292f">7800.0</text>
        
            
            
            <path stroke="#74838f" stroke-dasharray="10 6" stroke-width="0.5"  d="M 50.0 112.4 L 974.0 112.4" />
        
    
        
        
        <text x="45.0" font-family="-apple-system, system-ui, BlinkMacSystemFont, Roboto" y="143.6" dominant-baseline="middle" text-anchor="end" font-size="12" fill="#24292f">5200.0</text>
        
            
            
            <path stroke="#74838f" stroke-dasharray="10 6" stroke-width="0.5"  d="M 50.0 143.6 L 974.0 143.6" />
        
    
        
        
        <text x="45.0" font-family="-apple-system, system-ui, BlinkMacSystemFont, Roboto" y="174.8" dominant-baseline="middle" text-anchor="end" font-size="12" fill="#24292f">2600.0</text>
        
            
            
            <path stroke="#74838f" stroke-dasharray="10 6" stroke-width="0.5"  d="M 50.0 174.8 L 974.0 174.8" />
        
    
        
        
        <text x="45.0" font-family="-apple-system, system-ui, BlinkMacSystemFont, Roboto" y="206.0" dominant-baseline="middle" text-anchor="end" font-size="12" fill="#24292f">0.0</text>
        
    
    
        
        <path stroke="#74838f"  stroke-width="2.0"  d="M 83.6 206.0 L 83.6 214.0" />
        <text x="83.6" font-family="-apple-system, system-ui, BlinkMacSystemFont, Roboto" y="216.0" dominant-baseline="hanging" text-anchor="middle" font-size="12" fill="#24292f">Mar 2022</text>
    
        
        <path stroke="#74838f"  stroke-width="2.0"  d="M 148.7 206.0 L 148.7 214.0" />
        <text x="148.7" font-family="-apple-system, system-ui, BlinkMacSystemFont, Roboto" y="216.0" dominant-baseline="hanging" text-anchor="middle" font-size="12" fill="#24292f">Apr 2022</text>
    
        
        <path stroke="#74838f"  stroke-width="2.0"  d="M 211.7 206.0 L 211.7 214.0" />
        <text x="211.7" font-family="-apple-system, system-ui, BlinkMacSystemFont, Roboto" y="216.0" dominant-baseline="hanging" text-anchor="middle" font-size="12" fill="#24292f">May 2022</text>
    
        
        <path stroke="#74838f"  stroke-width="2.0"  d="M 276.8 206.0 L 276.8 214.0" />
        <text x="276.8" font-family="-apple-system, system-ui, BlinkMacSystemFont, Roboto" y="216.0" dominant-baseline="hanging" text-anchor="middle" font-size="12" fill="#24292f">Jun 2022</text>
    
        
        <path stroke="#74838f"  stroke-width="2.0"  d="M 339.8 206.0 L 339.8 214.0" />
        <text x="339.8" font-family="-apple-system, system-ui, BlinkMacSystemFont, Roboto" y="216.0" dominant-baseline="hanging" text-anchor="middle" font-size="12" fill="#24292f">Jul 2022</text>
    
        
        <path stroke="#74838f"  stroke-width="2.0"  d="M 404.9 206.0 L 404.9 214.0" />
        <text x="404.9" font-family="-apple-system, system-ui, BlinkMacSystemFont, Roboto" y="216.0" dominant-baseline="hanging" text-anchor="middle" font-size="12" fill="#24292f">Aug 2022</text>
    
        
        <path stroke="#74838f"  stroke-width="2.0"  d="M 470.0 206.0 L 470.0 214.0" />
        <text x="470.0" font-family="-apple-system, system-ui, BlinkMacSystemFont, Roboto" y="216.0" dominant-baseline="hanging" text-anchor="middle" font-size="12" fill="#24292f">Sep 2022</text>
    
        
        <path stroke="#74838f"  stroke-width="2.0"  d="M 533.0 206.0 L 533.0 214.0" />
        <text x="533.0" font-family="-apple-system, system-ui, BlinkMacSystemFont, Roboto" y="216.0" dominant-baseline="hanging" text-anchor="middle" font-size="12" fill="#24292f">Oct 2022</text>
    
        
        <path stroke="#74838f"  stroke-width="2.0"  d="M 598.0999999999999 206.0 L 598.0999999999999 214.0" />
        <text x="598.0999999999999" font-family="-apple-system, system-ui, BlinkMacSystemFont, Roboto" y="216.0" dominant-baseline="hanging" text-anchor="middle" font-size="12" fill="#24292f">Nov 2022</text>
    
        
        <path stroke="#74838f"  stroke-width="2.0"  d="M 661.1 206.0 L 661.1 214.0" />
        <text x="661.1" font-family="-apple-system, system-ui, BlinkMacSystemFont, Roboto" y="216.0" dominant-baseline="hanging" text-anchor="middle" font-size="12" fill="#24292f">Dec 2022</text>
    
        
        <path stroke="#74838f"  stroke-width="2.0"  d="M 726.2 206.0 L 726.2 214.0" />
        <text x="726.2" font-family="-apple-system, system-ui, BlinkMacSystemFont, Roboto" y="216.0" dominant-baseline="hanging" text-anchor="middle" font-size="12" fill="#24292f">Jan 2023</text>
    
        
        <path stroke="#74838f"  stroke-width="2.0"  d="M 791.3 206.0 L 791.3 214.0" />
        <text x="791.3" font-family="-apple-system, system-ui, BlinkMacSystemFont, Roboto" y="216.0" dominant-baseline="hanging" text-anchor="middle" font-size="12" fill="#24292f">Feb 2023</text>
    
        
        <path stroke="#74838f"  stroke-width="2.0"  d="M 850.1 206.0 L 850.1 214.0" />
        <text x="850.1" font-family="-apple-system, system-ui, BlinkMacSystemFont, Roboto" y="216.0" dominant-baseline="hanging" text-anchor="middle" font-size="12" fill="#24292f">Mar 2023</text>
    
        
        <path stroke="#74838f"  stroke-width="2.0"  d="M 915.2 206.0 L 915.2 214.0" />
        <text x="915.2" font-family="-apple-system, system-ui, BlinkMacSystemFont, Roboto" y="216.0" dominant-baseline="hanging" text-anchor="middle" font-size="12" fill="#24292f">Apr 2023</text>
    
    <path stroke="#74838f"   stroke-linejoin="round" stroke-width="2.0" d="M 50.0 216.0 L 50.0 206.0 L 974.0 206.0 L 974.0 216.0"  fill="none" />
    <text x="512.0" y="25.0" font-family="-apple-system, system-ui, BlinkMacSystemFont, Roboto" dominant-baseline="middle" text-anchor="middle" font-size="18" fill="#24292f">Total daily suspensions</text>
</svg>
