<?xml version="1.0" standalone="no"?>
<svg width="1024.0" height="256.0"  viewBox="0 0 1024.0 256.0" preserveAspectRatio="xMidYMid meet" xmlns="http://www.w3.org/2000/svg">
    <path stroke="#e74c3c" stroke-linejoin="round" d="M 50.0 161.108 L 50 161.108L 52.41884816753927 193.664L 54.83769633507853 197.576L 57.2565445026178 197.924L 59.675392670157066 203.528L 62.09424083769633 199.94L 64.5130890052356 199.268L 66.93193717277487 191.108L 69.35078534031413 200.972L 71.7696335078534 198.62L 74.18848167539267 200L 76.60732984293193 202.57999999999998L 79.0261780104712 199.208L 81.44502617801047 195.608L 83.86387434554973 202.652L 86.282722513089 198.716L 88.70157068062827 197.49200000000002L 91.12041884816753 191.42000000000002L 93.5392670157068 196.688L 95.95811518324606 199.46L 98.37696335078533 199.328L 100.79581151832461 198.308L 103.21465968586386 198.164L 105.63350785340315 199.832L 108.0523560209424 194.876L 110.47120418848168 199.904L 112.89005235602095 195.584L 115.30890052356021 200.732L 117.72774869109946 198.416L 120.14659685863874 190.652L 122.56544502617801 196.112L 124.98429319371728 190.82L 127.40314136125654 193.53199999999998L 129.82198952879583 199.688L 132.24083769633506 192.392L 134.65968586387436 197L 137.0785340314136 199.59199999999998L 139.4973821989529 193.54399999999998L 141.91623036649213 195.26L 144.33507853403142 195.428L 146.75392670157066 195.548L 149.17277486910996 196.484L 151.59162303664922 199.424L 154.0104712041885 199.22L 156.42931937172773 195.656L 158.84816753926702 193.952L 161.2670157068063 195.536L 163.68586387434556 198.764L 166.1047120418848 195.428L 168.5235602094241 194L 170.94240837696336 193.688L 173.36125654450262 186.32L 175.7801047120419 197.372L 178.19895287958116 195.96800000000002L 180.61780104712042 198.284L 183.0366492146597 194.38400000000001L 185.45549738219893 196.424L 187.87434554973822 196.988L 190.2931937172775 198.368L 192.71204188481676 198.05599999999998L 195.13089005235602 199.61599999999999L 197.5497382198953 191.54L 199.96858638743456 202.124L 202.38743455497382 193.34L 204.8062827225131 204.2L 207.22513089005236 206L 209.64397905759162 206L 212.0628272251309 206L 214.48167539267016 206L 216.90052356020942 190.472L 219.3193717277487 159.01999999999998L 221.73821989528795 193.56799999999998L 224.15706806282722 200.228L 226.5759162303665 193.232L 228.99476439790575 196.82L 231.41361256544505 199.772L 233.8324607329843 186.548L 236.25130890052355 197.888L 238.67015706806282 195.596L 241.0890052356021 190.508L 243.50785340314135 194.876L 245.92670157068062 190.4L 248.3455497382199 188.756L 250.76439790575918 197.852L 253.18324607329845 199.772L 255.60209424083772 191.936L 258.020942408377 191.864L 260.4397905759162 199.316L 262.85863874345546 194.72L 265.27748691099475 192.608L 267.69633507853405 194.9L 270.1151832460733 199.7L 272.5340314136126 189.224L 274.9528795811518 198.428L 277.3717277486911 196.136L 279.7905759162304 195.296L 282.2094240837696 196.268L 284.6282722513089 193.184L 287.0471204188482 197.204L 289.4659685863875 193.856L 291.8848167539267 197.096L 294.30366492146595 178.16L 296.72251308900525 194.372L 299.1413612565445 195.92000000000002L 301.5602094240838 195.11599999999999L 303.979057591623 196.688L 306.3979057591623 197.49200000000002L 308.81675392670155 197.696L 311.23560209424085 186.848L 313.6544502617801 192.644L 316.0732984293194 199.61599999999999L 318.4921465968586 193.052L 320.91099476439786 191.072L 323.32984293193715 195.44L 325.74869109947645 196.184L 328.16753926701574 196.46L 330.586387434555 197.312L 333.0052356020943 193.076L 335.4240837696335 206L 337.8429319371728 186.44L 340.26178010471205 186.632L 342.6806282722513 191.276L 345.0994764397906 180.93200000000002L 347.5183246073298 201.704L 349.9371727748691 185.744L 352.35602094240835 196.028L 354.77486910994764 189.464L 357.1937172774869 194.228L 359.6125654450262 195.632L 362.0314136125654 196.844L 364.4502617801047 186.332L 366.869109947644 197.99599999999998L 369.28795811518324 188.924L 371.70680628272254 189.128L 374.1256544502618 196.748L 376.5445026178011 182.45600000000002L 378.9633507853403 184.16L 381.3821989528796 206L 383.80104712041884 206L 386.21989528795814 206L 388.6387434554974 160.16L 391.0575916230366 198.536L 393.4764397905759 196.60399999999998L 395.89528795811515 195.668L 398.31413612565444 192.8L 400.7329842931937 196.964L 403.151832460733 197.828L 405.5706806282722 200.84L 407.9895287958115 170.312L 410.4083769633508 189.236L 412.8272251308901 177.428L 415.24607329842934 191.564L 417.6649214659686 178.784L 420.08376963350787 176.372L 422.5026178010471 181.7L 424.9214659685864 187.472L 427.34031413612564 192.88400000000001L 429.75916230366494 189.38L 432.1780104712042 187.772L 434.59685863874347 189.404L 437.0157068062827 187.532L 439.43455497382195 193.59199999999998L 441.85340314136124 185.036L 444.2722513089005 171.332L 446.6910994764398 180.14L 449.10994764397907 172.316L 451.52879581151836 193.028L 453.9476439790576 191.996L 456.3664921465969 193.052L 458.78534031413614 194.84L 461.20418848167543 193.53199999999998L 463.62303664921467 194.024L 466.0418848167539 189.272L 468.4607329842932 195.188L 470.87958115183244 196.256L 473.29842931937173 192.62L 475.717277486911 190.844L 478.13612565445027 200.984L 480.5549738219895 184.796L 482.9738219895288 190.88L 485.39267015706804 194.42000000000002L 487.8115183246073 189.86L 490.2303664921466 195.86L 492.64921465968587 191.984L 495.06806282722516 193.1L 497.4869109947644 186.464L 499.9057591623037 190.46L 502.32460732984293 182.156L 504.74345549738223 187.136L 507.16230366492147 191.528L 509.58115183246076 184.1L 512 189.14L 514.4188481675392 185.204L 516.8376963350785 185.468L 519.2565445026178 176.816L 521.6753926701571 189.04399999999998L 524.0942408376964 191.048L 526.5130890052355 188.756L 528.931937172775 187.592L 531.3507853403141 191.39600000000002L 533.7696335078534 187.796L 536.1884816753927 188.228L 538.6073298429319 190.268L 541.0261780104713 194.372L 543.4450261780105 194.72L 545.8638743455497 201.308L 548.282722513089 192.752L 550.7015706806283 181.148L 553.1204188481676 181.748L 555.5392670157069 181.208L 557.958115183246 191.3L 560.3769633507854 186.88400000000001L 562.7958115183246 181.376L 565.2146596858639 186.5L 567.6335078534031 188.44400000000002L 570.0523560209424 179.66L 572.4712041884817 183.09199999999998L 574.890052356021 173.564L 577.3089005235602 183.836L 579.7277486910995 171.668L 582.1465968586388 148.148L 584.565445026178 178.004L 586.9842931937172 141.86L 589.4031413612565 186.128L 591.8219895287957 188.54000000000002L 594.2408376963351 187.748L 596.6596858638743 193.256L 599.0785340314136 186.596L 601.4973821989529 185.42000000000002L 603.9162303664922 186.872L 606.3350785340315 185.372L 608.7539267015707 192.824L 611.17277486911 188.552L 613.5916230366491 189.32L 616.0104712041885 186.632L 618.4293193717277 185.768L 620.848167539267 188.744L 623.2670157068062 187.34L 625.6858638743456 192.488L 628.1047120418848 187.028L 630.5235602094241 185.468L 632.9424083769633 181.928L 635.3612565445026 183.8L 637.7801047120419 180.296L 640.1989528795812 185.516L 642.6178010471205 194L 645.0366492146596 190.328L 647.455497382199 186.584L 649.8743455497382 168.32L 652.2931937172775 117.5L 654.7120418848167 189.10399999999998L 657.1308900523561 187.844L 659.5497382198953 190.28L 661.9685863874346 192.32L 664.3874345549738 189.2L 666.8062827225131 182.288L 669.2251308900524 188.49200000000002L 671.6439790575917 178.916L 674.0628272251308 53.432000000000016L 676.4816753926701 162.656L 678.9005235602094 184.52L 681.3193717277487 182.708L 683.738219895288 183.68L 686.1570680628272 184.196L 688.5759162303665 179.084L 690.9947643979058 190.16L 693.4136125654451 180.476L 695.8324607329843 160.916L 698.2513089005236 121.196L 700.6701570680628 151.50799999999998L 703.0890052356021 164.132L 705.5078534031413 181.184L 707.9267015706806 170.49200000000002L 710.3455497382198 179.792L 712.7643979057592 173.204L 715.1832460732984 178.352L 717.6020942408377 182.792L 720.020942408377 177.152L 722.4397905759163 184.232L 724.8586387434556 187.796L 727.2774869109948 188.348L 729.696335078534 184.736L 732.1151832460732 181.892L 734.5340314136126 181.796L 736.9528795811518 179.36L 739.3717277486911 168.176L 741.7905759162303 181.808L 744.2094240837697 185.372L 746.6282722513089 167.708L 749.0471204188482 140.6L 751.4659685863874 160.784L 753.8848167539268 151.664L 756.303664921466 145.952L 758.7225130890052 155.288L 761.1413612565444 153.68L 763.5602094240837 163.04L 765.979057591623 172.064L 768.3979057591623 148.952L 770.8167539267016 171.812L 773.2356020942408 172.46L 775.6544502617802 172.508L 778.0732984293194 183.644L 780.4921465968587 166.304L 782.9109947643979 159.26L 785.3298429319372 172.652L 787.7486910994764 165.5L 790.1675392670157 154.892L 792.5863874345549 173.888L 795.0052356020942 176.3L 797.4240837696335 186.5L 799.8429319371728 183.932L 802.261780104712 183.10399999999998L 804.6806282722513 150.128L 807.0994764397906 183.11599999999999L 809.5183246073299 186.152L 811.9371727748692 185.096L 814.3560209424083 182.276L 816.7748691099476 182.18L 819.1937172774869 182.144L 821.6125654450262 174.956L 824.0314136125654 181.988L 826.4502617801047 179.504L 828.8691099476439 184.784L 831.2879581151833 179L 833.7068062827225 175.868L 836.1256544502618 177.14L 838.544502617801 178.832L 840.9633507853404 182.216L 843.3821989528795 176.444L 845.8010471204188 182.576L 848.2198952879581 177.02L 850.6387434554974 178.58L 853.0575916230367 182.144L 855.4764397905759 179.48L 857.8952879581152 176.972L 860.3141361256544 186.164L 862.7329842931938 176.096L 865.151832460733 178.04L 867.5706806282723 152.996L 869.9895287958115 130.724L 872.4083769633509 149.888L 874.82722513089 149.48L 877.2460732984293 184.1L 879.6649214659685 184.484L 882.0837696335078 177.56L 884.5026178010471 139.952L 886.9214659685864 148.028L 889.3403141361257 162.428L 891.7591623036649 136.244L 894.1780104712043 132.128L 896.5968586387435 142.508L 899.0157068062828 143.252L 901.434554973822 125.732L 903.8534031413612 117.06800000000001L 906.2722513089005 164.264L 908.6910994764398 161.876L 911.109947643979 158.636L 913.5287958115183 176.40800000000002L 915.9476439790576 186.632L 918.3664921465969 187.352L 920.7853403141361 186.152L 923.2041884816754 174.932L 925.6230366492146 178.388L 928.041884816754 194.636L 930.4607329842931 184.748L 932.8795811518324 182.84L 935.2984293193717 173.78L 937.717277486911 177.56L 940.1361256544503 179.996L 942.5549738219895 183.188L 944.9738219895288 153.68L 947.3926701570681 147.548L 949.8115183246074 185.504L 952.2303664921466 190.724L 954.6492146596859 174.752L 957.068062827225 174.32L 959.4869109947645 183.692L 961.9057591623036 189.06799999999998L 964.3246073298429 186.88400000000001L 966.7434554973821 179.096L 969.1623036649215 175.808L 971.5811518324607 161.672L 974 170.39600000000002" stroke-width="2.0" fill="none" />
    
        
        
        <text x="45.0" font-family="-apple-system, system-ui, BlinkMacSystemFont, Roboto" y="50.0" dominant-baseline="middle" text-anchor="end" font-size="12" fill="#24292f">13000.0</text>
        
            
            <path stroke="#74838f" stroke-dasharray="10 6" stroke-width="0.5"  d="M 50.0 50.0 L 974.0 50.0" />
        
    
        
        
        <text x="45.0" font-family="-apple-system, system-ui, BlinkMacSystemFont, Roboto" y="81.2" dominant-baseline="middle" text-anchor="end" font-size="12" fill="#24292f">10400.0</text>
        
            
            
            <path stroke="#74838f" stroke-dasharray="10 6" stroke-width="0.5"  d="M 50.0 81.2 L 974.0 81.2" />
        
    
        
        
        <text x="45.0" font-family="-apple-system, system-ui, BlinkMacSystemFont, Roboto" y="112.4" dominant-baseline="middle" text-anchor="end" font-size="12" fill="#24292f">7800.0</text>
        
            
            
            <path stroke="#74838f" stroke-dasharray="10 6" stroke-width="0.5"  d="M 50.0 112.4 L 974.0 112.4" />
        
    
        
        
        <text x="45.0" font-family="-apple-system, system-ui, BlinkMacSystemFont, Roboto" y="143.6" dominant-baseline="middle" text-anchor="end" font-size="12" fill="#24292f">5200.0</text>
        
            
            
            <path stroke="#74838f" stroke-dasharray="10 6" stroke-width="0.5"  d="M 50.0 143.6 L 974.0 143.6" />
        
    
        
        
        <text x="45.0" font-family="-apple-system, system-ui, BlinkMacSystemFont, Roboto" y="174.8" dominant-baseline="middle" text-anchor="end" font-size="12" fill="#24292f">2600.0</text>
        
            
            
            <path stroke="#74838f" stroke-dasharray="10 6" stroke-width="0.5"  d="M 50.0 174.8 L 974.0 174.8" />
        
    
        
        
        <text x="45.0" font-family="-apple-system, system-ui, BlinkMacSystemFont, Roboto" y="206.0" dominant-baseline="middle" text-anchor="end" font-size="12" fill="#24292f">0.0</text>
        
    
    
        
        <path stroke="#74838f"  stroke-width="2.0"  d="M 88.70157068062827 206.0 L 88.70157068062827 214.0" />
        <text x="88.70157068062827" font-family="-apple-system, system-ui, BlinkMacSystemFont, Roboto" y="216.0" dominant-baseline="hanging" text-anchor="middle" font-size="12" fill="#24292f">Mar 2022</text>
    
        
        <path stroke="#74838f"  stroke-width="2.0"  d="M 163.68586387434556 206.0 L 163.68586387434556 214.0" />
        <text x="163.68586387434556" font-family="-apple-system, system-ui, BlinkMacSystemFont, Roboto" y="216.0" dominant-baseline="hanging" text-anchor="middle" font-size="12" fill="#24292f">Apr 2022</text>
    
        
        <path stroke="#74838f"  stroke-width="2.0"  d="M 236.25130890052355 206.0 L 236.25130890052355 214.0" />
        <text x="236.25130890052355" font-family="-apple-system, system-ui, BlinkMacSystemFont, Roboto" y="216.0" dominant-baseline="hanging" text-anchor="middle" font-size="12" fill="#24292f">May 2022</text>
    
        
        <path stroke="#74838f"  stroke-width="2.0"  d="M 311.23560209424085 206.0 L 311.23560209424085 214.0" />
        <text x="311.23560209424085" font-family="-apple-system, system-ui, BlinkMacSystemFont, Roboto" y="216.0" dominant-baseline="hanging" text-anchor="middle" font-size="12" fill="#24292f">Jun 2022</text>
    
        
        <path stroke="#74838f"  stroke-width="2.0"  d="M 383.80104712041884 206.0 L 383.80104712041884 214.0" />
        <text x="383.80104712041884" font-family="-apple-system, system-ui, BlinkMacSystemFont, Roboto" y="216.0" dominant-baseline="hanging" text-anchor="middle" font-size="12" fill="#24292f">Jul 2022</text>
    
        
        <path stroke="#74838f"  stroke-width="2.0"  d="M 458.78534031413614 206.0 L 458.78534031413614 214.0" />
        <text x="458.78534031413614" font-family="-apple-system, system-ui, BlinkMacSystemFont, Roboto" y="216.0" dominant-baseline="hanging" text-anchor="middle" font-size="12" fill="#24292f">Aug 2022</text>
    
        
        <path stroke="#74838f"  stroke-width="2.0"  d="M 533.7696335078534 206.0 L 533.7696335078534 214.0" />
        <text x="533.7696335078534" font-family="-apple-system, system-ui, BlinkMacSystemFont, Roboto" y="216.0" dominant-baseline="hanging" text-anchor="middle" font-size="12" fill="#24292f">Sep 2022</text>
    
        
        <path stroke="#74838f"  stroke-width="2.0"  d="M 606.3350785340315 206.0 L 606.3350785340315 214.0" />
        <text x="606.3350785340315" font-family="-apple-system, system-ui, BlinkMacSystemFont, Roboto" y="216.0" dominant-baseline="hanging" text-anchor="middle" font-size="12" fill="#24292f">Oct 2022</text>
    
        
        <path stroke="#74838f"  stroke-width="2.0"  d="M 681.3193717277487 206.0 L 681.3193717277487 214.0" />
        <text x="681.3193717277487" font-family="-apple-system, system-ui, BlinkMacSystemFont, Roboto" y="216.0" dominant-baseline="hanging" text-anchor="middle" font-size="12" fill="#24292f">Nov 2022</text>
    
        
        <path stroke="#74838f"  stroke-width="2.0"  d="M 753.8848167539268 206.0 L 753.8848167539268 214.0" />
        <text x="753.8848167539268" font-family="-apple-system, system-ui, BlinkMacSystemFont, Roboto" y="216.0" dominant-baseline="hanging" text-anchor="middle" font-size="12" fill="#24292f">Dec 2022</text>
    
        
        <path stroke="#74838f"  stroke-width="2.0"  d="M 828.8691099476439 206.0 L 828.8691099476439 214.0" />
        <text x="828.8691099476439" font-family="-apple-system, system-ui, BlinkMacSystemFont, Roboto" y="216.0" dominant-baseline="hanging" text-anchor="middle" font-size="12" fill="#24292f">Jan 2023</text>
    
        
        <path stroke="#74838f"  stroke-width="2.0"  d="M 903.8534031413612 206.0 L 903.8534031413612 214.0" />
        <text x="903.8534031413612" font-family="-apple-system, system-ui, BlinkMacSystemFont, Roboto" y="216.0" dominant-baseline="hanging" text-anchor="middle" font-size="12" fill="#24292f">Feb 2023</text>
    
        
        <path stroke="#74838f"  stroke-width="2.0"  d="M 971.5811518324607 206.0 L 971.5811518324607 214.0" />
        <text x="971.5811518324607" font-family="-apple-system, system-ui, BlinkMacSystemFont, Roboto" y="216.0" dominant-baseline="hanging" text-anchor="middle" font-size="12" fill="#24292f">Mar 2023</text>
    
    <path stroke="#74838f"   stroke-linejoin="round" stroke-width="2.0" d="M 50.0 216.0 L 50.0 206.0 L 974.0 206.0 L 974.0 216.0"  fill="none" />
    <text x="512.0" y="25.0" font-family="-apple-system, system-ui, BlinkMacSystemFont, Roboto" dominant-baseline="middle" text-anchor="middle" font-size="18" fill="#24292f">Total daily suspensions</text>
</svg>
