<?xml version="1.0" standalone="no"?>
<svg width="1024.0" height="256.0"  viewBox="0 0 1024.0 256.0" preserveAspectRatio="xMidYMid meet" xmlns="http://www.w3.org/2000/svg">
    <path stroke="#e74c3c" stroke-linejoin="round" d="M 50.0 162.77066666666667 L 50 162.77066666666667L 52.0218818380744 194.12088888888889L 54.0437636761488 197.888L 56.06564551422319 198.2231111111111L 58.08752735229759 203.61955555555556L 60.10940919037199 200.16444444444443L 62.13129102844639 199.51733333333334L 64.15317286652079 191.65955555555556L 66.17505470459518 201.1582222222222L 68.19693654266959 198.89333333333332L 70.21881838074398 200.22222222222223L 72.24070021881838 202.70666666666665L 74.26258205689278 199.45955555555554L 76.28446389496717 195.9928888888889L 78.30634573304158 202.776L 80.32822757111597 198.98577777777777L 82.35010940919037 197.8071111111111L 84.37199124726477 191.96L 86.39387308533918 197.0328888888889L 88.41575492341357 199.70222222222222L 90.43763676148797 199.5751111111111L 92.45951859956236 198.5928888888889L 94.48140043763676 198.45422222222223L 96.50328227571117 200.06044444444444L 98.52516411378556 195.288L 100.54704595185996 200.12977777777778L 102.56892778993435 195.96977777777778L 104.59080962800876 200.92711111111112L 106.61269146608315 198.6968888888889L 108.63457330415756 191.22044444444444L 110.65645514223195 196.47822222222223L 112.67833698030634 191.38222222222223L 114.70021881838075 193.99377777777778L 116.72210065645515 199.92177777777778L 118.74398249452955 192.89600000000002L 120.76586433260394 197.33333333333334L 122.78774617067835 199.82933333333332L 124.80962800875274 194.00533333333334L 126.83150984682713 195.65777777777777L 128.85339168490154 195.81955555555555L 130.87527352297593 195.9351111111111L 132.89715536105035 196.83644444444445L 134.91903719912472 199.66755555555557L 136.94091903719914 199.4711111111111L 138.96280087527353 196.0391111111111L 140.98468271334792 194.39822222222222L 143.00656455142234 195.92355555555554L 145.0284463894967 199.03199999999998L 147.05032822757113 195.81955555555555L 149.07221006564552 194.44444444444446L 151.0940919037199 194.144L 153.1159737417943 187.04888888888888L 155.1378555798687 197.69155555555557L 157.15973741794312 196.33955555555556L 159.1816192560175 198.56977777777777L 161.2035010940919 194.8142222222222L 163.2253829321663 196.77866666666665L 165.2472647702407 197.32177777777778L 167.2691466083151 198.65066666666667L 169.29102844638948 198.35022222222221L 171.3129102844639 199.85244444444444L 173.33479212253832 192.07555555555555L 175.35667396061268 202.26755555555556L 177.3785557986871 193.80888888888887L 179.4004376367615 204.26666666666665L 181.4223194748359 206L 183.4442013129103 206L 185.4660831509847 206L 187.4879649890591 206L 189.5098468271335 191.04711111111112L 191.53172866520788 160.76L 193.5536105032823 194.02844444444446L 195.5754923413567 200.4417777777778L 197.59737417943109 193.7048888888889L 199.61925601750548 197.16L 201.64113785557987 200.00266666666667L 203.66301969365426 187.26844444444444L 205.68490153172868 198.18844444444443L 207.70678336980308 195.98133333333334L 209.72866520787747 191.08177777777777L 211.75054704595186 195.288L 213.77242888402625 190.97777777777776L 215.79431072210068 189.39466666666667L 217.81619256017507 198.15377777777778L 219.83807439824946 200.00266666666667L 221.85995623632385 192.4568888888889L 223.88183807439825 192.38755555555556L 225.90371991247267 199.56355555555555L 227.92560175054706 195.13777777777779L 229.94748358862145 193.10399999999998L 231.96936542669584 195.3111111111111L 233.99124726477024 199.93333333333334L 236.01312910284466 189.84533333333331L 238.03501094091905 198.70844444444444L 240.05689277899344 196.50133333333332L 242.07877461706784 195.69244444444445L 244.10065645514223 196.62844444444445L 246.12253829321662 193.65866666666668L 248.14442013129104 197.52977777777778L 250.16630196936543 194.3057777777778L 252.18818380743983 197.4257777777778L 254.21006564551422 179.19111111111113L 256.2319474835886 194.80266666666665L 258.25382932166303 196.29333333333335L 260.2757111597374 195.5191111111111L 262.2975929978118 197.0328888888889L 264.31947483588624 197.8071111111111L 266.3413566739606 198.00355555555555L 268.363238512035 187.55733333333333L 270.38512035010945 193.13866666666667L 272.4070021881838 199.85244444444444L 274.4288840262582 193.53155555555554L 276.4507658643326 191.6248888888889L 278.472647702407 195.8311111111111L 280.4945295404814 196.54755555555556L 282.51641137855574 196.81333333333333L 284.5382932166302 197.63377777777777L 286.5601750547046 193.55466666666666L 288.58205689277895 206L 290.60393873085343 187.16444444444446L 292.6258205689278 187.34933333333333L 294.64770240700216 191.8213333333333L 296.66958424507663 181.86044444444445L 298.691466083151 201.8631111111111L 300.71334792122536 186.49422222222222L 302.7352297592997 196.39733333333334L 304.7571115973742 190.07644444444443L 306.7789934354486 194.664L 308.800875273523 196.016L 310.8227571115974 197.18311111111112L 312.8446389496718 187.06044444444444L 314.8665207877462 198.29244444444444L 316.8884026258206 189.55644444444445L 318.910284463895 189.7528888888889L 320.9321663019694 197.09066666666666L 322.95404814004377 183.328L 324.9759299781182 184.9688888888889L 326.9978118161926 206L 329.019693654267 206L 331.0415754923414 206L 333.06345733041576 161.85777777777778L 335.0853391684902 198.81244444444445L 337.1072210065646 196.952L 339.12910284463896 196.05066666666667L 341.1509846827134 193.2888888888889L 343.17286652078775 197.29866666666666L 345.19474835886217 198.13066666666668L 347.21663019693653 201.0311111111111L 349.23851203501096 171.63377777777777L 351.2603938730854 189.85688888888888L 353.28227571115974 178.4862222222222L 355.30415754923416 192.09866666666667L 357.3260393873085 179.792L 359.34792122538295 177.46933333333334L 361.36980306345737 182.6L 363.39168490153173 188.1582222222222L 365.41356673960615 193.36977777777778L 367.4354485776805 189.99555555555554L 369.45733041575494 188.4471111111111L 371.47921225382936 190.01866666666666L 373.5010940919037 188.216L 375.52297592997814 194.05155555555555L 377.5448577680525 185.81244444444445L 379.56673960612693 172.61599999999999L 381.58862144420135 181.09777777777776L 383.6105032822757 173.56355555555555L 385.63238512035014 193.50844444444445L 387.6542669584245 192.51466666666667L 389.6761487964989 193.53155555555554L 391.69803063457334 195.25333333333333L 393.7199124726477 193.99377777777778L 395.7417943107221 194.46755555555555L 397.7636761487965 189.89155555555556L 399.7855579868709 195.58844444444446L 401.80743982494533 196.6168888888889L 403.8293216630197 193.11555555555555L 405.8512035010941 191.40533333333332L 407.8730853391685 201.16977777777777L 409.8949671772429 185.58133333333333L 411.9168490153173 191.44L 413.9387308533917 194.8488888888889L 415.9606126914661 190.45777777777778L 417.9824945295405 196.23555555555555L 420.0043763676149 192.5031111111111L 422.0262582056893 193.57777777777778L 424.0481400437637 187.18755555555555L 426.0700218818381 191.03555555555556L 428.09190371991247 183.0391111111111L 430.1137855579869 187.83466666666666L 432.13566739606125 192.064L 434.1575492341357 184.9111111111111L 436.1794310722101 189.76444444444445L 438.20131291028446 185.97422222222224L 440.2231947483589 186.22844444444445L 442.24507658643324 177.8968888888889L 444.26695842450766 189.672L 446.2888402625821 191.60177777777778L 448.31072210065645 189.39466666666667L 450.33260393873087 188.27377777777778L 452.35448577680523 191.9368888888889L 454.37636761487965 188.47022222222222L 456.3982494529541 188.88622222222222L 458.42013129102844 190.85066666666665L 460.44201312910286 194.80266666666665L 462.4638949671772 195.13777777777779L 464.48577680525165 201.48177777777778L 466.50765864332607 193.24266666666665L 468.52954048140043 182.06844444444445L 470.55142231947485 182.64622222222224L 472.5733041575492 182.12622222222222L 474.59518599562364 191.84444444444443L 476.61706783369806 187.592L 478.6389496717724 182.288L 480.66083150984684 187.22222222222223L 482.6827133479212 189.09422222222221L 484.70459518599563 180.63555555555556L 486.72647702407005 183.94044444444444L 488.7483588621444 174.76533333333333L 490.77024070021884 184.6568888888889L 492.7921225382932 172.93955555555556L 494.8140043763676 150.29066666666665L 496.83588621444204 179.0408888888889L 498.8577680525164 144.23555555555555L 500.8796498905908 186.864L 502.9015317286652 189.18666666666667L 504.9234135667396 188.424L 506.94529540481403 193.728L 508.9671772428884 187.31466666666665L 510.9890590809628 186.1822222222222L 513.0109409190372 187.58044444444445L 515.0328227571115 186.136L 517.054704595186 193.312L 519.0765864332604 189.19822222222223L 521.0984682713347 189.9377777777778L 523.1203501094092 187.34933333333333L 525.1422319474837 186.51733333333334L 527.1641137855579 189.3831111111111L 529.1859956236324 188.0311111111111L 531.2078774617069 192.98844444444444L 533.2297592997811 187.73066666666668L 535.2516411378556 186.22844444444445L 537.2735229759301 182.81955555555555L 539.2954048140043 184.6222222222222L 541.3172866520788 181.248L 543.3391684901533 186.27466666666666L 545.3610503282275 194.44444444444446L 547.382932166302 190.90844444444446L 549.4048140043765 187.30311111111112L 551.4266958424507 169.71555555555557L 553.4485776805252 120.77777777777779L 555.4704595185995 189.72977777777777L 557.4923413566739 188.51644444444446L 559.5142231947484 190.86222222222221L 561.5361050328227 192.82666666666665L 563.5579868708973 189.82222222222222L 565.5798687089716 183.16622222222222L 567.601750547046 189.14044444444443L 569.6236323851203 179.9191111111111L 571.6455142231948 59.082666666666654L 573.6673960612692 164.26133333333334L 575.6892778993436 185.31555555555556L 577.711159737418 183.57066666666668L 579.7330415754924 184.50666666666666L 581.7549234135668 185.00355555555555L 583.7768052516412 180.0808888888889L 585.7986870897156 190.74666666666667L 587.82056892779 181.42133333333334L 589.8424507658643 162.58577777777776L 591.8643326039388 124.3368888888889L 593.8862144420132 153.52622222222223L 595.9080962800875 165.68266666666668L 597.929978118162 182.1031111111111L 599.9518599562364 171.8071111111111L 601.9737417943107 180.76266666666666L 603.9956236323852 174.41866666666667L 606.0175054704596 179.376L 608.039387308534 183.65155555555555L 610.0612691466083 178.22044444444444L 612.0831509846828 185.03822222222223L 614.1050328227572 188.47022222222222L 616.1269146608315 189.00177777777776L 618.148796498906 185.52355555555556L 620.1706783369804 182.7848888888889L 622.1925601750547 182.69244444444445L 624.2144420131292 180.34666666666666L 626.2363238512036 169.5768888888889L 628.2582056892779 182.704L 630.2800875273523 186.136L 632.3019693654268 169.12622222222222L 634.3238512035011 143.0222222222222L 636.3457330415755 162.45866666666666L 638.36761487965 153.67644444444443L 640.3894967177243 148.176L 642.4113785557987 157.16622222222222L 644.4332603938731 155.61777777777777L 646.4551422319475 164.63111111111112L 648.4770240700219 173.32088888888887L 650.4989059080963 151.0648888888889L 652.5207877461708 173.07822222222222L 654.5426695842451 173.70222222222222L 656.5645514223195 173.74844444444443L 658.586433260394 184.472L 660.6083150984683 167.77422222222222L 662.6301969365427 160.9911111111111L 664.652078774617 173.8871111111111L 666.6739606126915 167L 668.6958424507659 156.78488888888887L 670.7177242888403 175.07733333333334L 672.7396061269147 177.4L 674.7614879649891 187.22222222222223L 676.7833698030635 184.74933333333334L 678.8052516411379 183.952L 680.8271334792123 152.19733333333335L 682.8490153172867 183.96355555555556L 684.870897155361 186.8871111111111L 686.8927789934355 185.87022222222222L 688.9146608315099 183.15466666666666L 690.9365426695842 183.06222222222223L 692.9584245076587 183.02755555555555L 694.9803063457331 176.10577777777777L 697.0021881838074 182.87733333333333L 699.0240700218819 180.48533333333333L 701.0459518599563 185.56977777777777L 703.0678336980307 180L 705.089715536105 176.984L 707.1115973741795 178.20888888888888L 709.1334792122539 179.8382222222222L 711.1553610503282 183.09688888888888L 713.1772428884027 177.53866666666667L 715.1991247264771 183.44355555555555L 717.2210065645514 178.09333333333333L 719.2428884026259 179.59555555555556L 721.2647702407003 183.02755555555555L 723.2866520787746 180.4622222222222L 725.308533916849 178.04711111111112L 727.3304157549235 186.89866666666666L 729.3522975929978 177.20355555555557L 731.3741794310722 179.07555555555555L 733.3960612691467 154.9591111111111L 735.417943107221 133.512L 737.4398249452954 151.96622222222223L 739.4617067833698 151.57333333333332L 741.4835886214443 184.9111111111111L 743.5054704595186 185.28088888888888L 745.527352297593 178.61333333333334L 747.5492341356675 142.39822222222222L 749.5711159737418 150.1751111111111L 751.5929978118162 164.04177777777778L 753.6148796498907 138.82755555555556L 755.636761487965 134.864L 757.6586433260394 144.85955555555557L 759.6805251641138 145.57600000000002L 761.7024070021882 128.7048888888889L 763.7242888402626 120.36177777777777L 765.746170678337 165.80977777777778L 767.7680525164114 163.51022222222224L 769.7899343544858 160.39022222222223L 771.8118161925602 177.504L 773.8336980306347 187.34933333333333L 775.855579868709 188.04266666666666L 777.8774617067834 186.8871111111111L 779.8993435448577 176.08266666666668L 781.9212253829322 179.41066666666666L 783.9431072210066 195.0568888888889L 785.964989059081 185.53511111111112L 787.9868708971554 183.6977777777778L 790.0087527352298 174.97333333333333L 792.0306345733042 178.61333333333334L 794.0525164113786 180.9591111111111L 796.074398249453 184.0328888888889L 798.0962800875274 155.61777777777777L 800.1181619256017 149.7128888888889L 802.1400437636762 186.2631111111111L 804.1619256017506 191.28977777777777L 806.1838074398249 175.90933333333334L 808.2056892778994 175.49333333333334L 810.2275711159738 184.51822222222222L 812.2494529540481 189.69511111111112L 814.2713347921225 187.592L 816.293216630197 180.09244444444445L 818.3150984682713 176.92622222222224L 820.3369803063457 163.31377777777777L 822.3588621444202 162.112L 824.3807439824946 167.1271111111111L 826.4026258205689 180.32355555555554L 828.4245076586434 184.11377777777778L 830.4463894967178 191.57866666666666L 832.4682713347921 195.54222222222222L 834.4901531728665 183.54755555555556L 836.512035010941 164.03022222222222L 838.5339168490153 171.05599999999998L 840.5557986870897 169.92355555555557L 842.5776805251642 180.02311111111112L 844.5995623632385 172.07288888888888L 846.6214442013129 163.53333333333333L 848.6433260393874 171.34488888888887L 850.6652078774617 181.59466666666668L 852.6870897155361 179.80355555555556L 854.7089715536105 166.17955555555557L 856.730853391685 154.92444444444445L 858.7527352297593 158.4488888888889L 860.7746170678337 156.4728888888889L 862.7964989059082 144.4551111111111L 864.8183807439825 158.52977777777778L 866.8402625820569 178.00088888888888L 868.8621444201314 144.99822222222224L 870.8840262582057 134.136L 872.9059080962801 139.8213333333333L 874.9277899343545 145.04444444444445L 876.9496717724289 153.168L 878.9715536105033 140.53777777777776L 880.9934354485777 113.86755555555555L 883.0153172866521 113.28977777777777L 885.0371991247265 164.85066666666665L 887.0590809628009 163.62577777777778L 889.0809628008753 150.16355555555555L 891.1028446389497 149.84L 893.1247264770241 56.54044444444443L 895.1466083150984 124.776L 897.1684901531729 64.07466666666667L 899.1903719912473 123.55111111111111L 901.2122538293216 157.536L 903.2341356673961 147.9911111111111L 905.2560175054705 136.22755555555557L 907.2778993435448 91.11466666666666L 909.2997811816192 107.36177777777779L 911.3216630196937 141.68177777777777L 913.343544857768 157.73244444444444L 915.3654266958424 152.63644444444444L 917.3873085339169 96.22222222222221L 919.4091903719913 150.19822222222223L 921.4310722100656 116.57155555555556L 923.4529540481401 127.34133333333332L 925.4748358862145 180.53155555555554L 927.4967177242888 137.10577777777777L 929.5185995623632 122.64977777777779L 931.5404814004377 104.61155555555555L 933.562363238512 141.76266666666666L 935.5842450765864 164.23822222222222L 937.6061269146609 160.51733333333334L 939.6280087527352 154.57777777777778L 941.6498905908096 175.01955555555554L 943.6717724288841 146.87022222222222L 945.6936542669584 153.23733333333334L 947.7155361050328 142.82577777777777L 949.7374179431072 130.98133333333334L 951.7592997811817 88.53777777777778L 953.781181619256 174.488L 955.8030634573304 50.55466666666666L 957.8249452954049 84.43555555555557L 959.8468271334792 152.47466666666668L 961.8687089715536 114.90755555555555L 963.8905908096281 96.30311111111112L 965.9124726477024 171.46044444444445L 967.9343544857768 183.96355555555556L 969.9562363238512 169.87733333333333L 971.9781181619256 183.13155555555556L 974 190.34222222222223" stroke-width="2.0" fill="none" />
    
        
        
        <text x="45.0" font-family="-apple-system, system-ui, BlinkMacSystemFont, Roboto" y="50.0" dominant-baseline="middle" text-anchor="end" font-size="12" fill="#24292f">13500.0</text>
        
            
            <path stroke="#74838f" stroke-dasharray="10 6" stroke-width="0.5"  d="M 50.0 50.0 L 974.0 50.0" />
        
    
        
        
        <text x="45.0" font-family="-apple-system, system-ui, BlinkMacSystemFont, Roboto" y="81.2" dominant-baseline="middle" text-anchor="end" font-size="12" fill="#24292f">10800.0</text>
        
            
            
            <path stroke="#74838f" stroke-dasharray="10 6" stroke-width="0.5"  d="M 50.0 81.2 L 974.0 81.2" />
        
    
        
        
        <text x="45.0" font-family="-apple-system, system-ui, BlinkMacSystemFont, Roboto" y="112.4" dominant-baseline="middle" text-anchor="end" font-size="12" fill="#24292f">8100.0</text>
        
            
            
            <path stroke="#74838f" stroke-dasharray="10 6" stroke-width="0.5"  d="M 50.0 112.4 L 974.0 112.4" />
        
    
        
        
        <text x="45.0" font-family="-apple-system, system-ui, BlinkMacSystemFont, Roboto" y="143.6" dominant-baseline="middle" text-anchor="end" font-size="12" fill="#24292f">5400.0</text>
        
            
            
            <path stroke="#74838f" stroke-dasharray="10 6" stroke-width="0.5"  d="M 50.0 143.6 L 974.0 143.6" />
        
    
        
        
        <text x="45.0" font-family="-apple-system, system-ui, BlinkMacSystemFont, Roboto" y="174.8" dominant-baseline="middle" text-anchor="end" font-size="12" fill="#24292f">2700.0</text>
        
            
            
            <path stroke="#74838f" stroke-dasharray="10 6" stroke-width="0.5"  d="M 50.0 174.8 L 974.0 174.8" />
        
    
        
        
        <text x="45.0" font-family="-apple-system, system-ui, BlinkMacSystemFont, Roboto" y="206.0" dominant-baseline="middle" text-anchor="end" font-size="12" fill="#24292f">0.0</text>
        
    
    
        
        <path stroke="#74838f"  stroke-width="2.0"  d="M 82.35010940919037 206.0 L 82.35010940919037 214.0" />
        <text x="82.35010940919037" font-family="-apple-system, system-ui, BlinkMacSystemFont, Roboto" y="216.0" dominant-baseline="hanging" text-anchor="middle" font-size="12" fill="#24292f">Mar 2022</text>
    
        
        <path stroke="#74838f"  stroke-width="2.0"  d="M 145.0284463894967 206.0 L 145.0284463894967 214.0" />
        <text x="145.0284463894967" font-family="-apple-system, system-ui, BlinkMacSystemFont, Roboto" y="216.0" dominant-baseline="hanging" text-anchor="middle" font-size="12" fill="#24292f">Apr 2022</text>
    
        
        <path stroke="#74838f"  stroke-width="2.0"  d="M 205.68490153172868 206.0 L 205.68490153172868 214.0" />
        <text x="205.68490153172868" font-family="-apple-system, system-ui, BlinkMacSystemFont, Roboto" y="216.0" dominant-baseline="hanging" text-anchor="middle" font-size="12" fill="#24292f">May 2022</text>
    
        
        <path stroke="#74838f"  stroke-width="2.0"  d="M 268.363238512035 206.0 L 268.363238512035 214.0" />
        <text x="268.363238512035" font-family="-apple-system, system-ui, BlinkMacSystemFont, Roboto" y="216.0" dominant-baseline="hanging" text-anchor="middle" font-size="12" fill="#24292f">Jun 2022</text>
    
        
        <path stroke="#74838f"  stroke-width="2.0"  d="M 329.019693654267 206.0 L 329.019693654267 214.0" />
        <text x="329.019693654267" font-family="-apple-system, system-ui, BlinkMacSystemFont, Roboto" y="216.0" dominant-baseline="hanging" text-anchor="middle" font-size="12" fill="#24292f">Jul 2022</text>
    
        
        <path stroke="#74838f"  stroke-width="2.0"  d="M 391.69803063457334 206.0 L 391.69803063457334 214.0" />
        <text x="391.69803063457334" font-family="-apple-system, system-ui, BlinkMacSystemFont, Roboto" y="216.0" dominant-baseline="hanging" text-anchor="middle" font-size="12" fill="#24292f">Aug 2022</text>
    
        
        <path stroke="#74838f"  stroke-width="2.0"  d="M 454.37636761487965 206.0 L 454.37636761487965 214.0" />
        <text x="454.37636761487965" font-family="-apple-system, system-ui, BlinkMacSystemFont, Roboto" y="216.0" dominant-baseline="hanging" text-anchor="middle" font-size="12" fill="#24292f">Sep 2022</text>
    
        
        <path stroke="#74838f"  stroke-width="2.0"  d="M 515.0328227571115 206.0 L 515.0328227571115 214.0" />
        <text x="515.0328227571115" font-family="-apple-system, system-ui, BlinkMacSystemFont, Roboto" y="216.0" dominant-baseline="hanging" text-anchor="middle" font-size="12" fill="#24292f">Oct 2022</text>
    
        
        <path stroke="#74838f"  stroke-width="2.0"  d="M 577.711159737418 206.0 L 577.711159737418 214.0" />
        <text x="577.711159737418" font-family="-apple-system, system-ui, BlinkMacSystemFont, Roboto" y="216.0" dominant-baseline="hanging" text-anchor="middle" font-size="12" fill="#24292f">Nov 2022</text>
    
        
        <path stroke="#74838f"  stroke-width="2.0"  d="M 638.36761487965 206.0 L 638.36761487965 214.0" />
        <text x="638.36761487965" font-family="-apple-system, system-ui, BlinkMacSystemFont, Roboto" y="216.0" dominant-baseline="hanging" text-anchor="middle" font-size="12" fill="#24292f">Dec 2022</text>
    
        
        <path stroke="#74838f"  stroke-width="2.0"  d="M 701.0459518599563 206.0 L 701.0459518599563 214.0" />
        <text x="701.0459518599563" font-family="-apple-system, system-ui, BlinkMacSystemFont, Roboto" y="216.0" dominant-baseline="hanging" text-anchor="middle" font-size="12" fill="#24292f">Jan 2023</text>
    
        
        <path stroke="#74838f"  stroke-width="2.0"  d="M 763.7242888402626 206.0 L 763.7242888402626 214.0" />
        <text x="763.7242888402626" font-family="-apple-system, system-ui, BlinkMacSystemFont, Roboto" y="216.0" dominant-baseline="hanging" text-anchor="middle" font-size="12" fill="#24292f">Feb 2023</text>
    
        
        <path stroke="#74838f"  stroke-width="2.0"  d="M 820.3369803063457 206.0 L 820.3369803063457 214.0" />
        <text x="820.3369803063457" font-family="-apple-system, system-ui, BlinkMacSystemFont, Roboto" y="216.0" dominant-baseline="hanging" text-anchor="middle" font-size="12" fill="#24292f">Mar 2023</text>
    
        
        <path stroke="#74838f"  stroke-width="2.0"  d="M 883.0153172866521 206.0 L 883.0153172866521 214.0" />
        <text x="883.0153172866521" font-family="-apple-system, system-ui, BlinkMacSystemFont, Roboto" y="216.0" dominant-baseline="hanging" text-anchor="middle" font-size="12" fill="#24292f">Apr 2023</text>
    
        
        <path stroke="#74838f"  stroke-width="2.0"  d="M 943.6717724288841 206.0 L 943.6717724288841 214.0" />
        <text x="943.6717724288841" font-family="-apple-system, system-ui, BlinkMacSystemFont, Roboto" y="216.0" dominant-baseline="hanging" text-anchor="middle" font-size="12" fill="#24292f">May 2023</text>
    
    <path stroke="#74838f"   stroke-linejoin="round" stroke-width="2.0" d="M 50.0 216.0 L 50.0 206.0 L 974.0 206.0 L 974.0 216.0"  fill="none" />
    <text x="512.0" y="25.0" font-family="-apple-system, system-ui, BlinkMacSystemFont, Roboto" dominant-baseline="middle" text-anchor="middle" font-size="18" fill="#24292f">Total daily suspensions</text>
</svg>
