<?xml version="1.0" standalone="no"?>
<svg width="1024.0" height="256.0"  viewBox="0 0 1024.0 256.0" preserveAspectRatio="xMidYMid meet" xmlns="http://www.w3.org/2000/svg">
    <path stroke="#e74c3c" stroke-linejoin="round" d="M 50.0 161.108 L 50 161.108L 53.288256227758005 193.664L 56.57651245551601 197.564L 59.86476868327402 197.924L 63.15302491103203 203.528L 66.44128113879003 199.94L 69.72953736654804 199.268L 73.01779359430606 191.108L 76.30604982206405 200.972L 79.59430604982207 198.62L 82.88256227758006 200L 86.17081850533808 202.57999999999998L 89.45907473309609 199.208L 92.7473309608541 195.608L 96.0355871886121 202.652L 99.32384341637011 198.716L 102.61209964412811 197.49200000000002L 105.90035587188612 191.42000000000002L 109.18861209964413 196.688L 112.47686832740214 199.46L 115.76512455516014 199.328L 119.05338078291814 198.308L 122.34163701067615 198.164L 125.62989323843416 199.832L 128.91814946619218 194.876L 132.2064056939502 199.904L 135.4946619217082 195.572L 138.78291814946618 200.732L 142.0711743772242 198.416L 145.3594306049822 190.64L 148.64768683274022 196.1L 151.93594306049823 190.82L 155.22419928825622 193.53199999999998L 158.51245551601423 199.688L 161.80071174377224 192.38L 165.08896797153025 197L 168.37722419928826 199.59199999999998L 171.66548042704625 193.54399999999998L 174.9537366548043 195.248L 178.24199288256227 195.428L 181.53024911032028 195.548L 184.8185053380783 196.484L 188.10676156583628 199.424L 191.39501779359432 199.22L 194.6832740213523 195.656L 197.97153024911034 193.952L 201.25978647686833 195.536L 204.5480427046263 198.764L 207.83629893238435 195.428L 211.12455516014234 194L 214.41281138790038 193.688L 217.70106761565836 186.32L 220.98932384341637 197.372L 224.27758007117438 195.96800000000002L 227.56583629893237 198.284L 230.8540925266904 194.372L 234.1423487544484 196.424L 237.4306049822064 196.988L 240.71886120996442 198.368L 244.0071174377224 198.05599999999998L 247.29537366548044 199.61599999999999L 250.58362989323842 191.54L 253.87188612099646 202.112L 257.16014234875445 193.34L 260.44839857651243 204.2L 263.7366548042705 206L 267.02491103202846 206L 270.3131672597865 206L 273.6014234875445 206L 276.88967971530246 190.472L 280.1779359430605 159.00799999999998L 283.46619217081854 193.56799999999998L 286.7544483985765 200.228L 290.0427046263345 193.232L 293.3309608540925 196.82L 296.6192170818505 199.76L 299.9074733096086 186.536L 303.19572953736656 197.888L 306.48398576512454 195.584L 309.7722419928825 190.49599999999998L 313.06049822064057 194.876L 316.3487544483986 190.4L 319.6370106761566 188.756L 322.9252669039146 197.852L 326.21352313167256 199.772L 329.50177935943066 191.936L 332.79003558718864 191.864L 336.0782918149466 199.316L 339.3665480427046 194.708L 342.6548042704626 192.596L 345.9430604982207 194.888L 349.2313167259787 199.7L 352.51957295373666 189.212L 355.80782918149464 198.416L 359.0960854092526 196.124L 362.3843416370107 195.272L 365.6725978647687 196.268L 368.9608540925267 193.184L 372.2491103202847 197.204L 375.53736654804266 193.856L 378.82562277580075 197.096L 382.11387900355874 178.148L 385.4021352313167 194.36L 388.6903914590747 195.92000000000002L 391.97864768683274 195.11599999999999L 395.2669039145908 196.688L 398.55516014234877 197.48000000000002L 401.84341637010675 197.696L 405.13167259786474 186.848L 408.4199288256228 192.632L 411.7081850533808 199.61599999999999L 414.9964412811388 193.052L 418.2846975088968 191.06L 421.57295373665477 195.44L 424.8612099644128 196.172L 428.14946619217085 196.46L 431.43772241992883 197.312L 434.7259786476868 193.076L 438.0142348754448 206L 441.3024911032029 186.44L 444.5907473309609 186.632L 447.87900355871886 191.276L 451.16725978647685 180.93200000000002L 454.45551601423483 201.704L 457.74377224199293 185.744L 461.0320284697509 196.028L 464.3202846975089 189.452L 467.6085409252669 194.228L 470.89679715302486 195.632L 474.18505338078296 196.832L 477.47330960854094 186.332L 480.7615658362989 197.99599999999998L 484.0498220640569 188.9L 487.3380782918149 189.128L 490.626334519573 196.736L 493.914590747331 182.45600000000002L 497.20284697508896 184.148L 500.49110320284694 206L 503.779359430605 206L 507.067615658363 206L 510.355871886121 160.148L 513.6441281138791 198.536L 516.9323843416371 196.59199999999998L 520.2206405693951 195.668L 523.508896797153 192.8L 526.797153024911 196.964L 530.085409252669 197.828L 533.373665480427 200.84L 536.661921708185 170.264L 539.950177935943 189.224L 543.238434163701 177.404L 546.5266903914592 191.552L 549.8149466192172 178.784L 553.1032028469751 176.372L 556.3914590747331 181.7L 559.6797153024911 187.472L 562.9679715302491 192.88400000000001L 566.2562277580071 189.356L 569.544483985765 187.772L 572.832740213523 189.392L 576.1209964412811 187.532L 579.4092526690392 193.57999999999998L 582.6975088967972 185.036L 585.9857651245552 171.332L 589.2740213523132 180.14L 592.5622775800712 172.316L 595.8505338078292 193.028L 599.1387900355871 191.996L 602.4270462633451 193.052L 605.7153024911031 194.816L 609.0035587188613 193.53199999999998L 612.2918149466193 194.024L 615.5800711743773 189.272L 618.8683274021353 195.188L 622.1565836298932 196.244L 625.4448398576512 192.62L 628.7330960854092 190.844L 632.0213523131672 200.984L 635.3096085409252 184.784L 638.5978647686833 190.88L 641.8861209964414 194.42000000000002L 645.1743772241994 189.86L 648.4626334519573 195.86L 651.7508896797153 191.984L 655.0391459074733 193.088L 658.3274021352313 186.464L 661.6156583629893 190.46L 664.9039145907473 182.144L 668.1921708185052 187.136L 671.4804270462633 191.528L 674.7686832740214 184.1L 678.0569395017794 189.14L 681.3451957295374 185.192L 684.6334519572954 185.456L 687.9217081850534 176.828L 691.2099644128114 189.03199999999998L 694.4982206405693 191.048L 697.7864768683273 188.756L 701.0747330960853 187.57999999999998L 704.3629893238434 191.38400000000001L 707.6512455516015 187.796L 710.9395017793595 188.216L 714.2277580071175 190.244L 717.5160142348755 194.372L 720.8042704626334 194.72L 724.0925266903914 201.308L 727.3807829181494 192.74L 730.6690391459074 181.136L 733.9572953736655 181.736L 737.2455516014236 181.196L 740.5338078291816 191.288L 743.8220640569396 186.88400000000001L 747.1103202846975 181.376L 750.3985765124555 186.476L 753.6868327402135 188.44400000000002L 756.9750889679715 179.66L 760.2633451957295 183.09199999999998L 763.5516014234875 173.552L 766.8398576512456 183.836L 770.1281138790036 171.668L 773.4163701067616 148.124L 776.7046263345196 178.004L 779.9928825622776 141.836L 783.2811387900356 186.10399999999998L 786.5693950177936 188.54000000000002L 789.8576512455516 187.736L 793.1459074733095 193.256L 796.4341637010675 186.584L 799.7224199288256 185.408L 803.0106761565837 186.848L 806.2989323843417 185.372L 809.5871886120997 192.824L 812.8754448398577 188.552L 816.1637010676156 189.308L 819.4519572953736 186.62L 822.7402135231316 185.768L 826.0284697508896 188.744L 829.3167259786477 187.328L 832.6049822064058 192.476L 835.8932384341638 187.016L 839.1814946619218 185.456L 842.4697508896797 181.916L 845.7580071174377 183.764L 849.0462633451957 180.272L 852.3345195729537 185.504L 855.6227758007117 194L 858.9110320284697 190.328L 862.1992882562278 186.5L 865.4875444839859 168.14L 868.7758007117438 117.152L 872.0640569395018 189.10399999999998L 875.3523131672598 187.844L 878.6405693950178 190.28L 881.9288256227758 192.32L 885.2170818505338 189.188L 888.5053380782917 182.276L 891.7935943060497 188.44400000000002L 895.0818505338078 178.844L 898.3701067615659 53.144000000000005L 901.6583629893239 162.632L 904.9466192170819 184.496L 908.2348754448399 182.672L 911.5231316725979 183.656L 914.8113879003558 184.196L 918.0996441281138 179.084L 921.3879003558718 190.136L 924.6761565836298 180.452L 927.964412811388 160.904L 931.252669039146 121.172L 934.540925266904 151.436L 937.829181494662 164.084L 941.1174377224199 181.172L 944.4056939501779 170.468L 947.6939501779359 179.756L 950.9822064056939 173.48000000000002L 954.2704626334519 178.076L 957.55871886121 182.756L 960.8469750889681 177.164L 964.135231316726 184.196L 967.423487544484 187.808L 970.711743772242 188.43200000000002L 974 202.94" stroke-width="2.0" fill="none" />
    
        
        
        <text x="45.0" font-family="-apple-system, system-ui, BlinkMacSystemFont, Roboto" y="50.0" dominant-baseline="middle" text-anchor="end" font-size="12" fill="#24292f">13000.0</text>
        
            
            <path stroke="#74838f" stroke-dasharray="10 6" stroke-width="0.5"  d="M 50.0 50.0 L 974.0 50.0" />
        
    
        
        
        <text x="45.0" font-family="-apple-system, system-ui, BlinkMacSystemFont, Roboto" y="81.2" dominant-baseline="middle" text-anchor="end" font-size="12" fill="#24292f">10400.0</text>
        
            
            
            <path stroke="#74838f" stroke-dasharray="10 6" stroke-width="0.5"  d="M 50.0 81.2 L 974.0 81.2" />
        
    
        
        
        <text x="45.0" font-family="-apple-system, system-ui, BlinkMacSystemFont, Roboto" y="112.4" dominant-baseline="middle" text-anchor="end" font-size="12" fill="#24292f">7800.0</text>
        
            
            
            <path stroke="#74838f" stroke-dasharray="10 6" stroke-width="0.5"  d="M 50.0 112.4 L 974.0 112.4" />
        
    
        
        
        <text x="45.0" font-family="-apple-system, system-ui, BlinkMacSystemFont, Roboto" y="143.6" dominant-baseline="middle" text-anchor="end" font-size="12" fill="#24292f">5200.0</text>
        
            
            
            <path stroke="#74838f" stroke-dasharray="10 6" stroke-width="0.5"  d="M 50.0 143.6 L 974.0 143.6" />
        
    
        
        
        <text x="45.0" font-family="-apple-system, system-ui, BlinkMacSystemFont, Roboto" y="174.8" dominant-baseline="middle" text-anchor="end" font-size="12" fill="#24292f">2600.0</text>
        
            
            
            <path stroke="#74838f" stroke-dasharray="10 6" stroke-width="0.5"  d="M 50.0 174.8 L 974.0 174.8" />
        
    
        
        
        <text x="45.0" font-family="-apple-system, system-ui, BlinkMacSystemFont, Roboto" y="206.0" dominant-baseline="middle" text-anchor="end" font-size="12" fill="#24292f">0.0</text>
        
    
    
        
        <path stroke="#74838f"  stroke-width="2.0"  d="M 102.61209964412811 206.0 L 102.61209964412811 214.0" />
        <text x="102.61209964412811" font-family="-apple-system, system-ui, BlinkMacSystemFont, Roboto" y="216.0" dominant-baseline="hanging" text-anchor="middle" font-size="12" fill="#24292f">Mar 2022</text>
    
        
        <path stroke="#74838f"  stroke-width="2.0"  d="M 204.5480427046263 206.0 L 204.5480427046263 214.0" />
        <text x="204.5480427046263" font-family="-apple-system, system-ui, BlinkMacSystemFont, Roboto" y="216.0" dominant-baseline="hanging" text-anchor="middle" font-size="12" fill="#24292f">Apr 2022</text>
    
        
        <path stroke="#74838f"  stroke-width="2.0"  d="M 303.19572953736656 206.0 L 303.19572953736656 214.0" />
        <text x="303.19572953736656" font-family="-apple-system, system-ui, BlinkMacSystemFont, Roboto" y="216.0" dominant-baseline="hanging" text-anchor="middle" font-size="12" fill="#24292f">May 2022</text>
    
        
        <path stroke="#74838f"  stroke-width="2.0"  d="M 405.13167259786474 206.0 L 405.13167259786474 214.0" />
        <text x="405.13167259786474" font-family="-apple-system, system-ui, BlinkMacSystemFont, Roboto" y="216.0" dominant-baseline="hanging" text-anchor="middle" font-size="12" fill="#24292f">Jun 2022</text>
    
        
        <path stroke="#74838f"  stroke-width="2.0"  d="M 503.779359430605 206.0 L 503.779359430605 214.0" />
        <text x="503.779359430605" font-family="-apple-system, system-ui, BlinkMacSystemFont, Roboto" y="216.0" dominant-baseline="hanging" text-anchor="middle" font-size="12" fill="#24292f">Jul 2022</text>
    
        
        <path stroke="#74838f"  stroke-width="2.0"  d="M 605.7153024911031 206.0 L 605.7153024911031 214.0" />
        <text x="605.7153024911031" font-family="-apple-system, system-ui, BlinkMacSystemFont, Roboto" y="216.0" dominant-baseline="hanging" text-anchor="middle" font-size="12" fill="#24292f">Aug 2022</text>
    
        
        <path stroke="#74838f"  stroke-width="2.0"  d="M 707.6512455516015 206.0 L 707.6512455516015 214.0" />
        <text x="707.6512455516015" font-family="-apple-system, system-ui, BlinkMacSystemFont, Roboto" y="216.0" dominant-baseline="hanging" text-anchor="middle" font-size="12" fill="#24292f">Sep 2022</text>
    
        
        <path stroke="#74838f"  stroke-width="2.0"  d="M 806.2989323843417 206.0 L 806.2989323843417 214.0" />
        <text x="806.2989323843417" font-family="-apple-system, system-ui, BlinkMacSystemFont, Roboto" y="216.0" dominant-baseline="hanging" text-anchor="middle" font-size="12" fill="#24292f">Oct 2022</text>
    
        
        <path stroke="#74838f"  stroke-width="2.0"  d="M 908.2348754448399 206.0 L 908.2348754448399 214.0" />
        <text x="908.2348754448399" font-family="-apple-system, system-ui, BlinkMacSystemFont, Roboto" y="216.0" dominant-baseline="hanging" text-anchor="middle" font-size="12" fill="#24292f">Nov 2022</text>
    
    <path stroke="#74838f"   stroke-linejoin="round" stroke-width="2.0" d="M 50.0 216.0 L 50.0 206.0 L 974.0 206.0 L 974.0 216.0"  fill="none" />
    <text x="512.0" y="25.0" font-family="-apple-system, system-ui, BlinkMacSystemFont, Roboto" dominant-baseline="middle" text-anchor="middle" font-size="18" fill="#24292f">Total daily suspensions</text>
</svg>
