<?xml version="1.0" standalone="no"?>
<svg width="1024.0" height="256.0"  viewBox="0 0 1024.0 256.0" preserveAspectRatio="xMidYMid meet" xmlns="http://www.w3.org/2000/svg">
    <path stroke="#e74c3c" stroke-linejoin="round" d="M 50.0 161.108 L 50 161.108L 52.64756446991404 193.664L 55.29512893982808 197.576L 57.94269340974212 197.924L 60.590257879656164 203.528L 63.2378223495702 199.94L 65.88538681948424 199.268L 68.53295128939828 191.108L 71.18051575931233 200.972L 73.82808022922636 198.62L 76.4756446991404 200L 79.12320916905443 202.57999999999998L 81.77077363896848 199.208L 84.41833810888252 195.608L 87.06590257879657 202.652L 89.7134670487106 198.716L 92.36103151862464 197.49200000000002L 95.00859598853867 191.42000000000002L 97.65616045845272 196.688L 100.30372492836676 199.46L 102.9512893982808 199.328L 105.59885386819484 198.308L 108.24641833810888 198.164L 110.89398280802291 199.832L 113.54154727793696 194.876L 116.189111747851 199.904L 118.83667621776505 195.584L 121.48424068767908 200.732L 124.13180515759313 198.416L 126.77936962750717 190.652L 129.4269340974212 196.112L 132.07449856733524 190.82L 134.72206303724928 193.53199999999998L 137.36962750716333 199.688L 140.01719197707735 192.392L 142.66475644699142 197L 145.31232091690543 199.59199999999998L 147.95988538681948 193.54399999999998L 150.60744985673352 195.26L 153.25501432664757 195.428L 155.9025787965616 195.548L 158.55014326647563 196.484L 161.19770773638967 199.424L 163.84527220630372 199.22L 166.49283667621776 195.656L 169.1404011461318 193.952L 171.78796561604582 195.536L 174.4355300859599 198.764L 177.0830945558739 195.428L 179.73065902578796 194L 182.378223495702 193.688L 185.02578796561605 186.32L 187.6733524355301 197.372L 190.32091690544414 195.96800000000002L 192.96848137535815 198.284L 195.6160458452722 194.38400000000001L 198.26361031518627 196.424L 200.9111747851003 196.988L 203.55873925501433 198.368L 206.20630372492838 198.05599999999998L 208.8538681948424 199.61599999999999L 211.50143266475646 191.54L 214.14899713467048 202.124L 216.79656160458453 193.34L 219.44412607449857 204.2L 222.0916905444126 206L 224.73925501432666 206L 227.3868194842407 206L 230.03438395415472 206L 232.68194842406876 190.472L 235.3295128939828 159.01999999999998L 237.97707736389685 193.56799999999998L 240.6246418338109 200.228L 243.27220630372491 193.232L 245.91977077363896 196.82L 248.567335243553 199.772L 251.21489971346705 186.548L 253.8624641833811 197.888L 256.51002865329514 195.596L 259.15759312320915 190.508L 261.8051575931232 194.876L 264.45272206303724 190.4L 267.10028653295126 188.756L 269.74785100286533 197.852L 272.39541547277935 199.772L 275.0429799426934 191.936L 277.69054441260744 191.864L 280.3381088825215 199.316L 282.9856733524355 194.72L 285.63323782234954 192.608L 288.2808022922636 194.9L 290.92836676217763 199.7L 293.57593123209165 189.224L 296.2234957020057 198.428L 298.8710601719198 196.136L 301.5186246418338 195.296L 304.1661891117478 196.268L 306.8137535816619 193.184L 309.4613180515759 197.204L 312.10888252149 193.856L 314.756446991404 197.096L 317.404011461318 178.16L 320.0515759312321 194.372L 322.69914040114617 195.92000000000002L 325.3467048710602 195.11599999999999L 327.9942693409742 196.688L 330.6418338108883 197.49200000000002L 333.2893982808023 197.696L 335.9369627507163 186.848L 338.5845272206304 192.644L 341.2320916905444 199.61599999999999L 343.8796561604584 193.052L 346.52722063037254 191.072L 349.17478510028656 195.44L 351.8223495702006 196.184L 354.46991404011465 196.46L 357.11747851002866 197.312L 359.7650429799427 193.076L 362.41260744985675 206L 365.06017191977077 186.44L 367.7077363896848 186.632L 370.35530085959886 191.276L 373.00286532951293 180.93200000000002L 375.65042979942695 201.704L 378.29799426934096 185.744L 380.94555873925503 196.028L 383.59312320916905 189.464L 386.24068767908307 194.228L 388.88825214899714 195.632L 391.53581661891116 196.844L 394.1833810888252 186.332L 396.8309455587393 197.99599999999998L 399.4785100286533 188.924L 402.12607449856733 189.128L 404.7736389684814 196.748L 407.4212034383954 182.45600000000002L 410.06876790830944 184.16L 412.7163323782235 206L 415.36389684813753 206L 418.01146131805154 206L 420.6590257879656 160.16L 423.3065902578797 198.536L 425.9541547277937 196.60399999999998L 428.6017191977077 195.668L 431.2492836676218 192.8L 433.8968481375358 196.964L 436.54441260744983 197.828L 439.1919770773639 200.84L 441.8395415472779 170.312L 444.48710601719193 189.236L 447.134670487106 177.428L 449.7822349570201 191.564L 452.4297994269341 178.784L 455.07736389684817 176.372L 457.7249283667622 181.7L 460.3724928366762 187.472L 463.0200573065903 192.88400000000001L 465.6676217765043 189.38L 468.3151862464183 187.772L 470.9627507163324 189.404L 473.61031518624645 187.532L 476.25787965616047 193.59199999999998L 478.9054441260745 185.036L 481.55300859598856 171.332L 484.2005730659026 180.14L 486.8481375358166 172.316L 489.49570200573066 193.028L 492.1432664756447 191.996L 494.7908309455587 193.052L 497.43839541547277 194.84L 500.08595988538684 193.53199999999998L 502.73352435530086 194.024L 505.38108882521493 189.272L 508.02865329512895 195.188L 510.67621776504296 196.256L 513.323782234957 192.62L 515.971346704871 190.844L 518.6189111747851 200.984L 521.2664756446991 184.796L 523.9140401146132 190.88L 526.5616045845272 194.42000000000002L 529.2091690544412 189.86L 531.8567335243553 195.86L 534.5042979942693 191.984L 537.1518624641833 193.1L 539.7994269340975 186.464L 542.4469914040114 190.46L 545.0945558739255 182.156L 547.7421203438396 187.136L 550.3896848137535 191.528L 553.0372492836676 184.1L 555.6848137535817 189.14L 558.3323782234957 185.204L 560.9799426934097 185.468L 563.6275071633238 176.816L 566.2750716332379 189.04399999999998L 568.9226361031518 191.048L 571.5702005730659 188.756L 574.21776504298 187.592L 576.8653295128939 191.39600000000002L 579.512893982808 187.796L 582.160458452722 188.228L 584.808022922636 190.268L 587.4555873925501 194.372L 590.1031518624642 194.72L 592.7507163323783 201.308L 595.3982808022923 192.752L 598.0458452722063 181.148L 600.6934097421204 181.748L 603.3409742120344 181.208L 605.9885386819484 191.3L 608.6361031518625 186.88400000000001L 611.2836676217765 181.376L 613.9312320916905 186.5L 616.5787965616046 188.44400000000002L 619.2263610315186 179.66L 621.8739255014326 183.09199999999998L 624.5214899713467 173.564L 627.1690544412608 183.836L 629.8166189111747 171.668L 632.4641833810888 148.148L 635.1117478510029 178.004L 637.7593123209168 141.86L 640.406876790831 186.128L 643.0544412607451 188.54000000000002L 645.702005730659 187.748L 648.3495702005731 193.256L 650.9971346704872 186.596L 653.6446991404011 185.42000000000002L 656.2922636103152 186.872L 658.9398280802293 185.372L 661.5873925501432 192.824L 664.2349570200573 188.552L 666.8825214899714 189.32L 669.5300859598854 186.632L 672.1776504297994 185.768L 674.8252148997135 188.744L 677.4727793696275 187.34L 680.1203438395415 192.488L 682.7679083094556 187.028L 685.4154727793696 185.468L 688.0630372492836 181.928L 690.7106017191977 183.8L 693.3581661891118 180.296L 696.0057306590259 185.516L 698.6532951289398 194L 701.3008595988539 190.328L 703.948424068768 186.584L 706.5959885386819 168.32L 709.243553008596 117.5L 711.8911174785101 189.10399999999998L 714.538681948424 187.844L 717.1862464183381 190.28L 719.8338108882522 192.32L 722.4813753581661 189.2L 725.1289398280802 182.288L 727.7765042979943 188.49200000000002L 730.4240687679082 178.916L 733.0716332378223 53.432000000000016L 735.7191977077364 162.656L 738.3667621776503 184.52L 741.0143266475644 182.708L 743.6618911174786 183.68L 746.3094555873926 184.196L 748.9570200573066 179.084L 751.6045845272207 190.16L 754.2521489971347 180.476L 756.8997134670487 160.916L 759.5472779369628 121.196L 762.1948424068768 151.50799999999998L 764.8424068767908 164.132L 767.4899713467049 181.184L 770.1375358166189 170.49200000000002L 772.785100286533 179.792L 775.432664756447 173.204L 778.080229226361 178.352L 780.7277936962751 182.792L 783.3753581661891 177.152L 786.0229226361031 184.232L 788.6704871060172 187.796L 791.3180515759312 188.348L 793.9656160458452 184.736L 796.6131805157594 181.892L 799.2607449856733 181.796L 801.9083094555874 179.36L 804.5558739255015 168.176L 807.2034383954154 181.808L 809.8510028653295 185.372L 812.4985673352436 167.708L 815.1461318051576 140.6L 817.7936962750716 160.784L 820.4412607449857 151.664L 823.0888252148997 145.952L 825.7363896848137 155.288L 828.3839541547278 153.68L 831.0315186246418 163.04L 833.6790830945558 172.064L 836.3266475644699 148.952L 838.9742120343839 171.812L 841.6217765042979 172.46L 844.269340974212 172.508L 846.9169054441261 183.644L 849.5644699140402 166.304L 852.2120343839542 159.26L 854.8595988538682 172.652L 857.5071633237823 165.5L 860.1547277936963 154.892L 862.8022922636103 173.888L 865.4498567335244 176.3L 868.0974212034384 186.5L 870.7449856733524 183.932L 873.3925501432665 183.10399999999998L 876.0401146131805 150.128L 878.6876790830945 183.11599999999999L 881.3352435530086 186.152L 883.9828080229227 185.096L 886.6303724928366 182.276L 889.2779369627507 182.18L 891.9255014326648 182.144L 894.5730659025787 174.956L 897.2206303724929 181.988L 899.868194842407 179.504L 902.5157593123209 184.784L 905.163323782235 179L 907.810888252149 175.868L 910.458452722063 177.14L 913.1060171919771 178.832L 915.7535816618911 182.216L 918.4011461318051 176.444L 921.0487106017192 182.576L 923.6962750716332 177.02L 926.3438395415473 178.58L 928.9914040114613 182.144L 931.6389684813753 179.48L 934.2865329512894 176.972L 936.9340974212034 186.164L 939.5816618911174 176.096L 942.2292263610315 178.04L 944.8767908309455 152.996L 947.5243553008595 130.724L 950.1719197707737 149.888L 952.8194842406878 149.48L 955.4670487106017 184.1L 958.1146131805158 184.484L 960.7621776504299 177.56L 963.4097421203438 139.952L 966.0573065902579 148.028L 968.704871060172 162.428L 971.3524355300859 136.244L 974 163.664" stroke-width="2.0" fill="none" />
    
        
        
        <text x="45.0" font-family="-apple-system, system-ui, BlinkMacSystemFont, Roboto" y="50.0" dominant-baseline="middle" text-anchor="end" font-size="12" fill="#24292f">13000.0</text>
        
            
            <path stroke="#74838f" stroke-dasharray="10 6" stroke-width="0.5"  d="M 50.0 50.0 L 974.0 50.0" />
        
    
        
        
        <text x="45.0" font-family="-apple-system, system-ui, BlinkMacSystemFont, Roboto" y="81.2" dominant-baseline="middle" text-anchor="end" font-size="12" fill="#24292f">10400.0</text>
        
            
            
            <path stroke="#74838f" stroke-dasharray="10 6" stroke-width="0.5"  d="M 50.0 81.2 L 974.0 81.2" />
        
    
        
        
        <text x="45.0" font-family="-apple-system, system-ui, BlinkMacSystemFont, Roboto" y="112.4" dominant-baseline="middle" text-anchor="end" font-size="12" fill="#24292f">7800.0</text>
        
            
            
            <path stroke="#74838f" stroke-dasharray="10 6" stroke-width="0.5"  d="M 50.0 112.4 L 974.0 112.4" />
        
    
        
        
        <text x="45.0" font-family="-apple-system, system-ui, BlinkMacSystemFont, Roboto" y="143.6" dominant-baseline="middle" text-anchor="end" font-size="12" fill="#24292f">5200.0</text>
        
            
            
            <path stroke="#74838f" stroke-dasharray="10 6" stroke-width="0.5"  d="M 50.0 143.6 L 974.0 143.6" />
        
    
        
        
        <text x="45.0" font-family="-apple-system, system-ui, BlinkMacSystemFont, Roboto" y="174.8" dominant-baseline="middle" text-anchor="end" font-size="12" fill="#24292f">2600.0</text>
        
            
            
            <path stroke="#74838f" stroke-dasharray="10 6" stroke-width="0.5"  d="M 50.0 174.8 L 974.0 174.8" />
        
    
        
        
        <text x="45.0" font-family="-apple-system, system-ui, BlinkMacSystemFont, Roboto" y="206.0" dominant-baseline="middle" text-anchor="end" font-size="12" fill="#24292f">0.0</text>
        
    
    
        
        <path stroke="#74838f"  stroke-width="2.0"  d="M 92.36103151862464 206.0 L 92.36103151862464 214.0" />
        <text x="92.36103151862464" font-family="-apple-system, system-ui, BlinkMacSystemFont, Roboto" y="216.0" dominant-baseline="hanging" text-anchor="middle" font-size="12" fill="#24292f">Mar 2022</text>
    
        
        <path stroke="#74838f"  stroke-width="2.0"  d="M 174.4355300859599 206.0 L 174.4355300859599 214.0" />
        <text x="174.4355300859599" font-family="-apple-system, system-ui, BlinkMacSystemFont, Roboto" y="216.0" dominant-baseline="hanging" text-anchor="middle" font-size="12" fill="#24292f">Apr 2022</text>
    
        
        <path stroke="#74838f"  stroke-width="2.0"  d="M 253.8624641833811 206.0 L 253.8624641833811 214.0" />
        <text x="253.8624641833811" font-family="-apple-system, system-ui, BlinkMacSystemFont, Roboto" y="216.0" dominant-baseline="hanging" text-anchor="middle" font-size="12" fill="#24292f">May 2022</text>
    
        
        <path stroke="#74838f"  stroke-width="2.0"  d="M 335.9369627507163 206.0 L 335.9369627507163 214.0" />
        <text x="335.9369627507163" font-family="-apple-system, system-ui, BlinkMacSystemFont, Roboto" y="216.0" dominant-baseline="hanging" text-anchor="middle" font-size="12" fill="#24292f">Jun 2022</text>
    
        
        <path stroke="#74838f"  stroke-width="2.0"  d="M 415.36389684813753 206.0 L 415.36389684813753 214.0" />
        <text x="415.36389684813753" font-family="-apple-system, system-ui, BlinkMacSystemFont, Roboto" y="216.0" dominant-baseline="hanging" text-anchor="middle" font-size="12" fill="#24292f">Jul 2022</text>
    
        
        <path stroke="#74838f"  stroke-width="2.0"  d="M 497.43839541547277 206.0 L 497.43839541547277 214.0" />
        <text x="497.43839541547277" font-family="-apple-system, system-ui, BlinkMacSystemFont, Roboto" y="216.0" dominant-baseline="hanging" text-anchor="middle" font-size="12" fill="#24292f">Aug 2022</text>
    
        
        <path stroke="#74838f"  stroke-width="2.0"  d="M 579.512893982808 206.0 L 579.512893982808 214.0" />
        <text x="579.512893982808" font-family="-apple-system, system-ui, BlinkMacSystemFont, Roboto" y="216.0" dominant-baseline="hanging" text-anchor="middle" font-size="12" fill="#24292f">Sep 2022</text>
    
        
        <path stroke="#74838f"  stroke-width="2.0"  d="M 658.9398280802293 206.0 L 658.9398280802293 214.0" />
        <text x="658.9398280802293" font-family="-apple-system, system-ui, BlinkMacSystemFont, Roboto" y="216.0" dominant-baseline="hanging" text-anchor="middle" font-size="12" fill="#24292f">Oct 2022</text>
    
        
        <path stroke="#74838f"  stroke-width="2.0"  d="M 741.0143266475644 206.0 L 741.0143266475644 214.0" />
        <text x="741.0143266475644" font-family="-apple-system, system-ui, BlinkMacSystemFont, Roboto" y="216.0" dominant-baseline="hanging" text-anchor="middle" font-size="12" fill="#24292f">Nov 2022</text>
    
        
        <path stroke="#74838f"  stroke-width="2.0"  d="M 820.4412607449857 206.0 L 820.4412607449857 214.0" />
        <text x="820.4412607449857" font-family="-apple-system, system-ui, BlinkMacSystemFont, Roboto" y="216.0" dominant-baseline="hanging" text-anchor="middle" font-size="12" fill="#24292f">Dec 2022</text>
    
        
        <path stroke="#74838f"  stroke-width="2.0"  d="M 902.5157593123209 206.0 L 902.5157593123209 214.0" />
        <text x="902.5157593123209" font-family="-apple-system, system-ui, BlinkMacSystemFont, Roboto" y="216.0" dominant-baseline="hanging" text-anchor="middle" font-size="12" fill="#24292f">Jan 2023</text>
    
    <path stroke="#74838f"   stroke-linejoin="round" stroke-width="2.0" d="M 50.0 216.0 L 50.0 206.0 L 974.0 206.0 L 974.0 216.0"  fill="none" />
    <text x="512.0" y="25.0" font-family="-apple-system, system-ui, BlinkMacSystemFont, Roboto" dominant-baseline="middle" text-anchor="middle" font-size="18" fill="#24292f">Total daily suspensions</text>
</svg>
