<?xml version="1.0" standalone="no"?>
<svg width="1024.0" height="256.0"  viewBox="0 0 1024.0 256.0" preserveAspectRatio="xMidYMid meet" xmlns="http://www.w3.org/2000/svg">
    <path stroke="#e74c3c" stroke-linejoin="round" d="M 50.0 161.108 L 50 161.108L 53.276595744680854 193.664L 56.5531914893617 197.576L 59.829787234042556 197.924L 63.1063829787234 203.528L 66.38297872340425 199.94L 69.65957446808511 199.268L 72.93617021276596 191.108L 76.2127659574468 200.972L 79.48936170212765 198.62L 82.76595744680851 200L 86.04255319148936 202.57999999999998L 89.31914893617022 199.208L 92.59574468085106 195.608L 95.87234042553192 202.652L 99.14893617021276 198.716L 102.42553191489361 197.49200000000002L 105.70212765957447 191.42000000000002L 108.9787234042553 196.688L 112.25531914893617 199.46L 115.53191489361703 199.328L 118.80851063829788 198.308L 122.08510638297872 198.164L 125.36170212765958 199.832L 128.63829787234044 194.876L 131.91489361702128 199.904L 135.1914893617021 195.584L 138.46808510638297 200.732L 141.74468085106383 198.416L 145.02127659574467 190.652L 148.29787234042553 196.112L 151.5744680851064 190.82L 154.85106382978722 193.53199999999998L 158.12765957446808 199.688L 161.40425531914894 192.392L 164.68085106382978 197L 167.9574468085106 199.59199999999998L 171.2340425531915 193.54399999999998L 174.51063829787233 195.26L 177.7872340425532 195.428L 181.06382978723406 195.548L 184.3404255319149 196.484L 187.61702127659575 199.424L 190.89361702127658 199.22L 194.17021276595744 195.656L 197.4468085106383 193.952L 200.72340425531917 195.536L 204 198.764L 207.27659574468086 195.428L 210.5531914893617 194L 213.82978723404256 193.688L 217.10638297872342 186.32L 220.38297872340425 197.372L 223.6595744680851 195.96800000000002L 226.93617021276594 198.284L 230.2127659574468 194.38400000000001L 233.48936170212767 196.424L 236.7659574468085 196.988L 240.04255319148936 198.368L 243.31914893617022 198.05599999999998L 246.59574468085106 199.61599999999999L 249.87234042553192 191.54L 253.14893617021278 202.124L 256.4255319148936 193.34L 259.70212765957444 204.2L 262.97872340425533 206L 266.25531914893617 206L 269.531914893617 206L 272.8085106382979 206L 276.0851063829787 190.472L 279.36170212765956 159.01999999999998L 282.6382978723404 193.56799999999998L 285.9148936170212 200.228L 289.1914893617021 193.232L 292.468085106383 196.82L 295.74468085106383 199.772L 299.02127659574467 186.548L 302.29787234042556 197.888L 305.5744680851064 195.596L 308.8510638297872 190.508L 312.1276595744681 194.876L 315.40425531914894 190.4L 318.6808510638298 188.756L 321.9574468085106 197.852L 325.2340425531915 199.772L 328.51063829787233 191.936L 331.78723404255317 191.864L 335.06382978723406 199.316L 338.3404255319149 194.708L 341.6170212765958 192.608L 344.8936170212766 194.9L 348.17021276595744 199.7L 351.44680851063833 189.224L 354.7234042553191 198.428L 358 196.136L 361.27659574468083 195.296L 364.5531914893617 196.268L 367.82978723404256 193.184L 371.1063829787234 197.204L 374.3829787234043 193.856L 377.6595744680851 197.096L 380.936170212766 178.16L 384.21276595744683 194.372L 387.48936170212767 195.92000000000002L 390.7659574468085 195.11599999999999L 394.04255319148933 196.688L 397.3191489361702 197.49200000000002L 400.59574468085106 197.696L 403.8723404255319 186.848L 407.1489361702128 192.644L 410.4255319148936 199.61599999999999L 413.7021276595745 193.052L 416.97872340425533 191.072L 420.25531914893617 195.44L 423.531914893617 196.184L 426.80851063829783 196.46L 430.0851063829787 197.312L 433.36170212765956 193.076L 436.63829787234044 206L 439.9148936170213 186.44L 443.1914893617021 186.632L 446.468085106383 191.276L 449.74468085106383 180.93200000000002L 453.0212765957447 201.704L 456.29787234042556 185.744L 459.57446808510633 196.028L 462.8510638297872 189.464L 466.12765957446805 194.228L 469.40425531914894 195.632L 472.6808510638298 196.844L 475.9574468085106 186.332L 479.2340425531915 197.99599999999998L 482.51063829787233 188.924L 485.7872340425532 189.128L 489.06382978723406 196.748L 492.3404255319149 182.45600000000002L 495.6170212765957 184.16L 498.89361702127655 206L 502.17021276595744 206L 505.4468085106383 206L 508.72340425531917 160.16L 512 198.536L 515.2765957446808 196.60399999999998L 518.5531914893618 195.668L 521.8297872340424 192.8L 525.1063829787234 196.964L 528.3829787234042 197.828L 531.6595744680851 200.84L 534.936170212766 170.312L 538.2127659574469 189.236L 541.4893617021277 177.428L 544.7659574468086 191.564L 548.0425531914893 178.784L 551.3191489361702 176.372L 554.5957446808511 181.7L 557.8723404255319 187.472L 561.1489361702128 192.88400000000001L 564.4255319148936 189.38L 567.7021276595744 187.772L 570.9787234042553 189.404L 574.2553191489362 187.532L 577.531914893617 193.59199999999998L 580.8085106382979 185.036L 584.0851063829788 171.332L 587.3617021276596 180.14L 590.6382978723404 172.316L 593.9148936170212 193.028L 597.1914893617021 191.996L 600.468085106383 193.052L 603.7446808510639 194.84L 607.0212765957447 193.53199999999998L 610.2978723404256 194.024L 613.5744680851063 189.272L 616.8510638297873 195.188L 620.1276595744681 196.256L 623.4042553191489 192.62L 626.6808510638298 190.844L 629.9574468085106 200.984L 633.2340425531916 184.796L 636.5106382978723 190.88L 639.7872340425532 194.42000000000002L 643.063829787234 189.86L 646.3404255319149 195.86L 649.6170212765958 191.984L 652.8936170212767 193.1L 656.1702127659574 186.464L 659.4468085106382 190.46L 662.7234042553191 182.156L 666 187.136L 669.2765957446809 191.528L 672.5531914893617 184.1L 675.8297872340426 189.14L 679.1063829787234 185.204L 682.3829787234043 185.468L 685.6595744680851 176.828L 688.936170212766 189.04399999999998L 692.2127659574468 191.048L 695.4893617021277 188.756L 698.7659574468086 187.592L 702.0425531914893 191.39600000000002L 705.3191489361702 187.796L 708.595744680851 188.228L 711.872340425532 190.268L 715.1489361702128 194.372L 718.4255319148937 194.72L 721.7021276595744 201.308L 724.9787234042553 192.752L 728.2553191489362 181.148L 731.531914893617 181.748L 734.8085106382979 181.208L 738.0851063829787 191.3L 741.3617021276596 186.88400000000001L 744.6382978723404 181.376L 747.9148936170213 186.5L 751.1914893617021 188.44400000000002L 754.468085106383 179.66L 757.7446808510638 183.09199999999998L 761.0212765957447 173.564L 764.2978723404256 183.836L 767.5744680851063 171.668L 770.8510638297872 148.148L 774.127659574468 178.004L 777.404255319149 141.86L 780.6808510638298 186.128L 783.9574468085107 188.54000000000002L 787.2340425531914 187.748L 790.5106382978723 193.256L 793.7872340425532 186.596L 797.063829787234 185.42000000000002L 800.3404255319149 186.872L 803.6170212765957 185.372L 806.8936170212766 192.824L 810.1702127659574 188.552L 813.4468085106383 189.32L 816.7234042553191 186.632L 820 185.768L 823.2765957446809 188.744L 826.5531914893618 187.34L 829.8297872340426 192.488L 833.1063829787233 187.028L 836.3829787234042 185.468L 839.6595744680851 181.928L 842.936170212766 183.8L 846.2127659574468 180.296L 849.4893617021277 185.516L 852.7659574468084 194L 856.0425531914894 190.328L 859.3191489361702 186.584L 862.5957446808511 168.32L 865.8723404255319 117.5L 869.1489361702127 189.10399999999998L 872.4255319148937 187.844L 875.7021276595744 190.28L 878.9787234042553 192.32L 882.2553191489361 189.2L 885.531914893617 182.288L 888.8085106382979 188.49200000000002L 892.0851063829788 178.916L 895.3617021276596 53.432000000000016L 898.6382978723404 162.656L 901.9148936170212 184.52L 905.1914893617021 182.708L 908.468085106383 183.68L 911.7446808510638 184.196L 915.0212765957447 179.084L 918.2978723404256 190.16L 921.5744680851064 180.476L 924.8510638297872 160.916L 928.1276595744681 121.196L 931.4042553191489 151.50799999999998L 934.6808510638298 164.132L 937.9574468085107 181.184L 941.2340425531914 170.49200000000002L 944.5106382978723 179.792L 947.7872340425531 173.144L 951.0638297872341 178.352L 954.3404255319149 182.792L 957.6170212765958 177.152L 960.8936170212766 184.232L 964.1702127659574 187.796L 967.4468085106383 188.336L 970.7234042553192 184.724L 974 186.008" stroke-width="2.0" fill="none" />
    
        
        
        <text x="45.0" font-family="-apple-system, system-ui, BlinkMacSystemFont, Roboto" y="50.0" dominant-baseline="middle" text-anchor="end" font-size="12" fill="#24292f">13000.0</text>
        
            
            <path stroke="#74838f" stroke-dasharray="10 6" stroke-width="0.5"  d="M 50.0 50.0 L 974.0 50.0" />
        
    
        
        
        <text x="45.0" font-family="-apple-system, system-ui, BlinkMacSystemFont, Roboto" y="81.2" dominant-baseline="middle" text-anchor="end" font-size="12" fill="#24292f">10400.0</text>
        
            
            
            <path stroke="#74838f" stroke-dasharray="10 6" stroke-width="0.5"  d="M 50.0 81.2 L 974.0 81.2" />
        
    
        
        
        <text x="45.0" font-family="-apple-system, system-ui, BlinkMacSystemFont, Roboto" y="112.4" dominant-baseline="middle" text-anchor="end" font-size="12" fill="#24292f">7800.0</text>
        
            
            
            <path stroke="#74838f" stroke-dasharray="10 6" stroke-width="0.5"  d="M 50.0 112.4 L 974.0 112.4" />
        
    
        
        
        <text x="45.0" font-family="-apple-system, system-ui, BlinkMacSystemFont, Roboto" y="143.6" dominant-baseline="middle" text-anchor="end" font-size="12" fill="#24292f">5200.0</text>
        
            
            
            <path stroke="#74838f" stroke-dasharray="10 6" stroke-width="0.5"  d="M 50.0 143.6 L 974.0 143.6" />
        
    
        
        
        <text x="45.0" font-family="-apple-system, system-ui, BlinkMacSystemFont, Roboto" y="174.8" dominant-baseline="middle" text-anchor="end" font-size="12" fill="#24292f">2600.0</text>
        
            
            
            <path stroke="#74838f" stroke-dasharray="10 6" stroke-width="0.5"  d="M 50.0 174.8 L 974.0 174.8" />
        
    
        
        
        <text x="45.0" font-family="-apple-system, system-ui, BlinkMacSystemFont, Roboto" y="206.0" dominant-baseline="middle" text-anchor="end" font-size="12" fill="#24292f">0.0</text>
        
    
    
        
        <path stroke="#74838f"  stroke-width="2.0"  d="M 102.42553191489361 206.0 L 102.42553191489361 214.0" />
        <text x="102.42553191489361" font-family="-apple-system, system-ui, BlinkMacSystemFont, Roboto" y="216.0" dominant-baseline="hanging" text-anchor="middle" font-size="12" fill="#24292f">Mar 2022</text>
    
        
        <path stroke="#74838f"  stroke-width="2.0"  d="M 204.0 206.0 L 204.0 214.0" />
        <text x="204.0" font-family="-apple-system, system-ui, BlinkMacSystemFont, Roboto" y="216.0" dominant-baseline="hanging" text-anchor="middle" font-size="12" fill="#24292f">Apr 2022</text>
    
        
        <path stroke="#74838f"  stroke-width="2.0"  d="M 302.29787234042556 206.0 L 302.29787234042556 214.0" />
        <text x="302.29787234042556" font-family="-apple-system, system-ui, BlinkMacSystemFont, Roboto" y="216.0" dominant-baseline="hanging" text-anchor="middle" font-size="12" fill="#24292f">May 2022</text>
    
        
        <path stroke="#74838f"  stroke-width="2.0"  d="M 403.8723404255319 206.0 L 403.8723404255319 214.0" />
        <text x="403.8723404255319" font-family="-apple-system, system-ui, BlinkMacSystemFont, Roboto" y="216.0" dominant-baseline="hanging" text-anchor="middle" font-size="12" fill="#24292f">Jun 2022</text>
    
        
        <path stroke="#74838f"  stroke-width="2.0"  d="M 502.17021276595744 206.0 L 502.17021276595744 214.0" />
        <text x="502.17021276595744" font-family="-apple-system, system-ui, BlinkMacSystemFont, Roboto" y="216.0" dominant-baseline="hanging" text-anchor="middle" font-size="12" fill="#24292f">Jul 2022</text>
    
        
        <path stroke="#74838f"  stroke-width="2.0"  d="M 603.7446808510639 206.0 L 603.7446808510639 214.0" />
        <text x="603.7446808510639" font-family="-apple-system, system-ui, BlinkMacSystemFont, Roboto" y="216.0" dominant-baseline="hanging" text-anchor="middle" font-size="12" fill="#24292f">Aug 2022</text>
    
        
        <path stroke="#74838f"  stroke-width="2.0"  d="M 705.3191489361702 206.0 L 705.3191489361702 214.0" />
        <text x="705.3191489361702" font-family="-apple-system, system-ui, BlinkMacSystemFont, Roboto" y="216.0" dominant-baseline="hanging" text-anchor="middle" font-size="12" fill="#24292f">Sep 2022</text>
    
        
        <path stroke="#74838f"  stroke-width="2.0"  d="M 803.6170212765957 206.0 L 803.6170212765957 214.0" />
        <text x="803.6170212765957" font-family="-apple-system, system-ui, BlinkMacSystemFont, Roboto" y="216.0" dominant-baseline="hanging" text-anchor="middle" font-size="12" fill="#24292f">Oct 2022</text>
    
        
        <path stroke="#74838f"  stroke-width="2.0"  d="M 905.1914893617021 206.0 L 905.1914893617021 214.0" />
        <text x="905.1914893617021" font-family="-apple-system, system-ui, BlinkMacSystemFont, Roboto" y="216.0" dominant-baseline="hanging" text-anchor="middle" font-size="12" fill="#24292f">Nov 2022</text>
    
    <path stroke="#74838f"   stroke-linejoin="round" stroke-width="2.0" d="M 50.0 216.0 L 50.0 206.0 L 974.0 206.0 L 974.0 216.0"  fill="none" />
    <text x="512.0" y="25.0" font-family="-apple-system, system-ui, BlinkMacSystemFont, Roboto" dominant-baseline="middle" text-anchor="middle" font-size="18" fill="#24292f">Total daily suspensions</text>
</svg>
