<?xml version="1.0" standalone="no"?>
<svg width="1024.0" height="256.0"  viewBox="0 0 1024.0 256.0" preserveAspectRatio="xMidYMid meet" xmlns="http://www.w3.org/2000/svg">
    <path stroke="#e74c3c" stroke-linejoin="round" d="M 50.0 161.108 L 50 161.108L 52.24817518248175 193.664L 54.496350364963504 197.576L 56.74452554744526 197.924L 58.99270072992701 203.528L 61.24087591240876 199.94L 63.48905109489051 199.268L 65.73722627737226 191.108L 67.98540145985402 200.972L 70.23357664233576 198.62L 72.48175182481752 200L 74.72992700729927 202.57999999999998L 76.97810218978103 199.208L 79.22627737226277 195.608L 81.47445255474453 202.652L 83.72262773722628 198.716L 85.97080291970804 197.49200000000002L 88.21897810218978 191.42000000000002L 90.46715328467153 196.688L 92.71532846715328 199.46L 94.96350364963504 199.328L 97.21167883211679 198.308L 99.45985401459853 198.164L 101.7080291970803 199.832L 103.95620437956205 194.876L 106.2043795620438 199.904L 108.45255474452554 195.584L 110.7007299270073 200.732L 112.94890510948906 198.416L 115.1970802919708 190.652L 117.44525547445255 196.112L 119.69343065693431 190.82L 121.94160583941606 193.53199999999998L 124.18978102189782 199.688L 126.43795620437956 192.392L 128.6861313868613 197L 130.93430656934305 199.59199999999998L 133.1824817518248 193.54399999999998L 135.43065693430657 195.26L 137.67883211678833 195.428L 139.9270072992701 195.548L 142.17518248175185 196.484L 144.42335766423358 199.424L 146.6715328467153 199.22L 148.91970802919707 195.656L 151.16788321167883 193.952L 153.4160583941606 195.536L 155.66423357664235 198.764L 157.9124087591241 195.428L 160.16058394160584 194L 162.4087591240876 193.688L 164.65693430656933 186.32L 166.90510948905109 197.372L 169.15328467153284 195.96800000000002L 171.4014598540146 198.284L 173.64963503649636 194.38400000000001L 175.89781021897812 196.424L 178.14598540145985 196.988L 180.3941605839416 198.368L 182.64233576642334 198.05599999999998L 184.8905109489051 199.61599999999999L 187.13868613138686 191.54L 189.38686131386862 202.124L 191.63503649635038 193.34L 193.8832116788321 204.2L 196.13138686131387 206L 198.37956204379563 206L 200.62773722627736 206L 202.87591240875912 206L 205.12408759124088 190.472L 207.3722627737226 159.01999999999998L 209.6204379562044 193.56799999999998L 211.86861313868613 200.228L 214.1167883211679 193.232L 216.36496350364965 196.82L 218.61313868613138 199.772L 220.86131386861314 186.548L 223.1094890510949 197.888L 225.35766423357663 195.596L 227.6058394160584 190.508L 229.85401459854015 194.876L 232.1021897810219 190.4L 234.35036496350367 188.756L 236.5985401459854 197.852L 238.84671532846716 199.772L 241.09489051094891 191.936L 243.34306569343065 191.864L 245.5912408759124 199.316L 247.83941605839414 194.72L 250.08759124087592 192.608L 252.33576642335768 194.9L 254.5839416058394 199.7L 256.8321167883212 189.224L 259.08029197080293 198.428L 261.3284671532847 196.136L 263.57664233576645 195.296L 265.8248175182482 196.268L 268.0729927007299 193.184L 270.3211678832117 197.204L 272.56934306569343 193.856L 274.8175182481752 197.096L 277.06569343065695 178.16L 279.31386861313865 194.372L 281.56204379562047 195.92000000000002L 283.81021897810217 195.11599999999999L 286.05839416058393 196.688L 288.3065693430657 197.49200000000002L 290.55474452554745 197.696L 292.8029197080292 186.848L 295.05109489051097 192.644L 297.2992700729927 199.61599999999999L 299.5474452554745 193.052L 301.79562043795625 191.072L 304.04379562043795 195.44L 306.2919708029197 196.184L 308.54014598540147 196.46L 310.7883211678832 197.312L 313.0364963503649 193.076L 315.2846715328467 206L 317.53284671532845 186.44L 319.7810218978102 186.632L 322.02919708029196 191.276L 324.2773722627737 180.93200000000002L 326.5255474452555 201.704L 328.77372262773724 185.744L 331.021897810219 196.028L 333.27007299270076 189.464L 335.51824817518246 194.228L 337.7664233576642 195.632L 340.014598540146 196.844L 342.26277372262774 186.332L 344.5109489051095 197.99599999999998L 346.75912408759126 188.924L 349.00729927007296 189.128L 351.2554744525547 196.748L 353.5036496350365 182.45600000000002L 355.75182481751824 184.16L 358 206L 360.24817518248176 206L 362.49635036496346 206L 364.7445255474452 160.16L 366.99270072992704 198.536L 369.2408759124088 196.60399999999998L 371.48905109489056 195.668L 373.73722627737226 192.8L 375.985401459854 196.964L 378.2335766423358 197.828L 380.48175182481754 200.84L 382.7299270072993 170.312L 384.978102189781 189.236L 387.22627737226276 177.428L 389.4744525547445 191.564L 391.7226277372263 178.784L 393.97080291970804 176.372L 396.2189781021898 181.7L 398.4671532846715 187.472L 400.71532846715326 192.88400000000001L 402.963503649635 189.38L 405.2116788321168 187.772L 407.4598540145986 189.404L 409.7080291970803 187.532L 411.95620437956205 193.59199999999998L 414.2043795620438 185.036L 416.45255474452557 171.332L 418.70072992700733 180.14L 420.94890510948903 172.316L 423.1970802919708 193.028L 425.44525547445255 191.996L 427.6934306569343 193.052L 429.94160583941607 194.84L 432.18978102189783 193.53199999999998L 434.43795620437953 194.024L 436.6861313868613 189.272L 438.93430656934305 195.188L 441.1824817518248 196.256L 443.43065693430657 192.62L 445.67883211678827 190.844L 447.92700729927003 200.984L 450.17518248175185 184.796L 452.4233576642336 190.88L 454.67153284671537 194.42000000000002L 456.91970802919707 189.86L 459.1678832116788 195.86L 461.4160583941606 191.984L 463.66423357664235 193.1L 465.9124087591241 186.464L 468.16058394160586 190.46L 470.40875912408757 182.156L 472.6569343065693 187.136L 474.9051094890511 191.528L 477.15328467153284 184.1L 479.4014598540146 189.14L 481.64963503649636 185.204L 483.89781021897807 185.468L 486.1459854014598 176.816L 488.3941605839416 189.04399999999998L 490.64233576642334 191.048L 492.89051094890516 188.756L 495.13868613138686 187.592L 497.3868613138686 191.39600000000002L 499.6350364963504 187.796L 501.88321167883214 188.228L 504.1313868613139 190.268L 506.3795620437956 194.372L 508.62773722627736 194.72L 510.8759124087591 201.308L 513.1240875912409 192.752L 515.3722627737227 181.148L 517.6204379562043 181.748L 519.8686131386862 181.208L 522.1167883211679 191.3L 524.3649635036497 186.88400000000001L 526.6131386861314 181.376L 528.8613138686133 186.5L 531.1094890510949 188.44400000000002L 533.3576642335767 179.66L 535.6058394160584 183.09199999999998L 537.8540145985402 173.564L 540.1021897810219 183.836L 542.3503649635036 171.668L 544.5985401459855 148.148L 546.8467153284671 178.004L 549.094890510949 141.86L 551.3430656934306 186.128L 553.5912408759125 188.54000000000002L 555.8394160583941 187.748L 558.0875912408759 193.256L 560.3357664233577 186.596L 562.5839416058394 185.42000000000002L 564.8321167883212 186.872L 567.0802919708029 185.372L 569.3284671532847 192.824L 571.5766423357665 188.552L 573.8248175182481 189.32L 576.0729927007299 186.632L 578.3211678832116 185.768L 580.5693430656934 188.744L 582.8175182481751 187.34L 585.0656934306569 192.488L 587.3138686131387 187.028L 589.5620437956204 185.468L 591.8102189781022 181.928L 594.0583941605839 183.8L 596.3065693430657 180.296L 598.5547445255474 185.516L 600.8029197080292 194L 603.051094890511 190.328L 605.2992700729927 186.584L 607.5474452554745 168.32L 609.7956204379562 117.5L 612.043795620438 189.10399999999998L 614.2919708029198 187.844L 616.5401459854015 190.28L 618.7883211678833 192.32L 621.0364963503649 189.2L 623.2846715328467 182.288L 625.5328467153284 188.49200000000002L 627.7810218978102 178.916L 630.029197080292 53.432000000000016L 632.2773722627737 162.656L 634.5255474452555 184.52L 636.7737226277372 182.708L 639.021897810219 183.68L 641.2700729927008 184.196L 643.5182481751825 179.084L 645.7664233576643 190.16L 648.0145985401459 180.476L 650.2627737226277 160.916L 652.5109489051094 121.196L 654.7591240875912 151.50799999999998L 657.007299270073 164.132L 659.2554744525547 181.184L 661.5036496350365 170.49200000000002L 663.7518248175182 179.792L 666 173.204L 668.2481751824818 178.352L 670.4963503649635 182.792L 672.7445255474452 177.152L 674.9927007299269 184.232L 677.2408759124087 187.796L 679.4890510948904 188.348L 681.7372262773723 184.736L 683.9854014598541 181.892L 686.2335766423358 181.796L 688.4817518248176 179.36L 690.7299270072994 168.176L 692.9781021897811 181.808L 695.2262773722628 185.372L 697.4744525547445 167.708L 699.7226277372263 140.6L 701.970802919708 160.784L 704.2189781021898 151.664L 706.4671532846716 145.952L 708.7153284671533 155.288L 710.9635036496351 153.68L 713.2116788321168 163.04L 715.4598540145986 172.064L 717.7080291970804 148.952L 719.956204379562 171.812L 722.2043795620438 172.46L 724.4525547445255 172.508L 726.7007299270073 183.644L 728.948905109489 166.304L 731.1970802919708 159.26L 733.4452554744526 172.652L 735.6934306569343 165.5L 737.9416058394161 154.892L 740.1897810218978 173.888L 742.4379562043796 176.3L 744.6861313868612 186.5L 746.934306569343 183.932L 749.1824817518248 183.10399999999998L 751.4306569343065 150.128L 753.6788321167883 183.11599999999999L 755.92700729927 186.152L 758.1751824817518 185.096L 760.4233576642335 182.276L 762.6715328467153 182.18L 764.9197080291972 182.144L 767.1678832116788 174.956L 769.4160583941606 181.988L 771.6642335766423 179.504L 773.9124087591241 184.784L 776.1605839416059 179L 778.4087591240876 175.868L 780.6569343065694 177.14L 782.9051094890511 178.832L 785.1532846715329 182.216L 787.4014598540147 176.444L 789.6496350364964 182.576L 791.8978102189781 177.02L 794.1459854014598 178.58L 796.3941605839416 182.144L 798.6423357664233 179.48L 800.8905109489051 176.972L 803.1386861313869 186.164L 805.3868613138686 176.096L 807.6350364963504 178.04L 809.8832116788321 152.996L 812.1313868613139 130.724L 814.3795620437957 149.888L 816.6277372262773 149.48L 818.8759124087591 184.1L 821.1240875912408 184.484L 823.3722627737226 177.56L 825.6204379562043 139.952L 827.8686131386861 148.028L 830.1167883211679 162.428L 832.3649635036496 136.244L 834.6131386861314 132.128L 836.8613138686131 142.508L 839.1094890510949 143.252L 841.3576642335765 125.732L 843.6058394160583 117.06800000000001L 845.8540145985401 164.264L 848.1021897810219 161.876L 850.3503649635037 158.636L 852.5985401459855 176.40800000000002L 854.8467153284672 186.632L 857.094890510949 187.352L 859.3430656934307 186.152L 861.5912408759125 174.932L 863.8394160583941 178.388L 866.0875912408759 194.636L 868.3357664233577 184.748L 870.5839416058394 182.84L 872.8321167883212 173.78L 875.0802919708029 177.56L 877.3284671532847 179.996L 879.5766423357665 183.188L 881.8248175182482 153.68L 884.07299270073 147.548L 886.3211678832117 185.504L 888.5693430656935 190.724L 890.8175182481751 174.752L 893.0656934306569 174.32L 895.3138686131387 183.692L 897.5620437956204 189.06799999999998L 899.8102189781022 186.88400000000001L 902.0583941605839 179.096L 904.3065693430657 175.808L 906.5547445255474 161.672L 908.8029197080292 160.424L 911.051094890511 165.632L 913.2992700729927 179.336L 915.5474452554744 183.272L 917.7956204379561 191.024L 920.0437956204379 195.14L 922.2919708029196 182.684L 924.5401459854014 162.416L 926.7883211678832 169.712L 929.0364963503649 168.536L 931.2846715328467 179.024L 933.5328467153286 170.768L 935.7810218978103 161.9L 938.029197080292 170.012L 940.2773722627737 180.656L 942.5255474452555 178.796L 944.7737226277372 164.648L 947.021897810219 152.95999999999998L 949.2700729927008 156.62L 951.5182481751825 154.568L 953.7664233576643 142.088L 956.014598540146 156.704L 958.2627737226278 176.924L 960.5109489051096 142.652L 962.7591240875912 131.372L 965.007299270073 137.276L 967.2554744525547 142.7L 969.5036496350365 151.136L 971.7518248175182 138.02L 974 193.232" stroke-width="2.0" fill="none" />
    
        
        
        <text x="45.0" font-family="-apple-system, system-ui, BlinkMacSystemFont, Roboto" y="50.0" dominant-baseline="middle" text-anchor="end" font-size="12" fill="#24292f">13000.0</text>
        
            
            <path stroke="#74838f" stroke-dasharray="10 6" stroke-width="0.5"  d="M 50.0 50.0 L 974.0 50.0" />
        
    
        
        
        <text x="45.0" font-family="-apple-system, system-ui, BlinkMacSystemFont, Roboto" y="81.2" dominant-baseline="middle" text-anchor="end" font-size="12" fill="#24292f">10400.0</text>
        
            
            
            <path stroke="#74838f" stroke-dasharray="10 6" stroke-width="0.5"  d="M 50.0 81.2 L 974.0 81.2" />
        
    
        
        
        <text x="45.0" font-family="-apple-system, system-ui, BlinkMacSystemFont, Roboto" y="112.4" dominant-baseline="middle" text-anchor="end" font-size="12" fill="#24292f">7800.0</text>
        
            
            
            <path stroke="#74838f" stroke-dasharray="10 6" stroke-width="0.5"  d="M 50.0 112.4 L 974.0 112.4" />
        
    
        
        
        <text x="45.0" font-family="-apple-system, system-ui, BlinkMacSystemFont, Roboto" y="143.6" dominant-baseline="middle" text-anchor="end" font-size="12" fill="#24292f">5200.0</text>
        
            
            
            <path stroke="#74838f" stroke-dasharray="10 6" stroke-width="0.5"  d="M 50.0 143.6 L 974.0 143.6" />
        
    
        
        
        <text x="45.0" font-family="-apple-system, system-ui, BlinkMacSystemFont, Roboto" y="174.8" dominant-baseline="middle" text-anchor="end" font-size="12" fill="#24292f">2600.0</text>
        
            
            
            <path stroke="#74838f" stroke-dasharray="10 6" stroke-width="0.5"  d="M 50.0 174.8 L 974.0 174.8" />
        
    
        
        
        <text x="45.0" font-family="-apple-system, system-ui, BlinkMacSystemFont, Roboto" y="206.0" dominant-baseline="middle" text-anchor="end" font-size="12" fill="#24292f">0.0</text>
        
    
    
        
        <path stroke="#74838f"  stroke-width="2.0"  d="M 85.97080291970804 206.0 L 85.97080291970804 214.0" />
        <text x="85.97080291970804" font-family="-apple-system, system-ui, BlinkMacSystemFont, Roboto" y="216.0" dominant-baseline="hanging" text-anchor="middle" font-size="12" fill="#24292f">Mar 2022</text>
    
        
        <path stroke="#74838f"  stroke-width="2.0"  d="M 155.66423357664235 206.0 L 155.66423357664235 214.0" />
        <text x="155.66423357664235" font-family="-apple-system, system-ui, BlinkMacSystemFont, Roboto" y="216.0" dominant-baseline="hanging" text-anchor="middle" font-size="12" fill="#24292f">Apr 2022</text>
    
        
        <path stroke="#74838f"  stroke-width="2.0"  d="M 223.1094890510949 206.0 L 223.1094890510949 214.0" />
        <text x="223.1094890510949" font-family="-apple-system, system-ui, BlinkMacSystemFont, Roboto" y="216.0" dominant-baseline="hanging" text-anchor="middle" font-size="12" fill="#24292f">May 2022</text>
    
        
        <path stroke="#74838f"  stroke-width="2.0"  d="M 292.8029197080292 206.0 L 292.8029197080292 214.0" />
        <text x="292.8029197080292" font-family="-apple-system, system-ui, BlinkMacSystemFont, Roboto" y="216.0" dominant-baseline="hanging" text-anchor="middle" font-size="12" fill="#24292f">Jun 2022</text>
    
        
        <path stroke="#74838f"  stroke-width="2.0"  d="M 360.24817518248176 206.0 L 360.24817518248176 214.0" />
        <text x="360.24817518248176" font-family="-apple-system, system-ui, BlinkMacSystemFont, Roboto" y="216.0" dominant-baseline="hanging" text-anchor="middle" font-size="12" fill="#24292f">Jul 2022</text>
    
        
        <path stroke="#74838f"  stroke-width="2.0"  d="M 429.94160583941607 206.0 L 429.94160583941607 214.0" />
        <text x="429.94160583941607" font-family="-apple-system, system-ui, BlinkMacSystemFont, Roboto" y="216.0" dominant-baseline="hanging" text-anchor="middle" font-size="12" fill="#24292f">Aug 2022</text>
    
        
        <path stroke="#74838f"  stroke-width="2.0"  d="M 499.6350364963504 206.0 L 499.6350364963504 214.0" />
        <text x="499.6350364963504" font-family="-apple-system, system-ui, BlinkMacSystemFont, Roboto" y="216.0" dominant-baseline="hanging" text-anchor="middle" font-size="12" fill="#24292f">Sep 2022</text>
    
        
        <path stroke="#74838f"  stroke-width="2.0"  d="M 567.0802919708029 206.0 L 567.0802919708029 214.0" />
        <text x="567.0802919708029" font-family="-apple-system, system-ui, BlinkMacSystemFont, Roboto" y="216.0" dominant-baseline="hanging" text-anchor="middle" font-size="12" fill="#24292f">Oct 2022</text>
    
        
        <path stroke="#74838f"  stroke-width="2.0"  d="M 636.7737226277372 206.0 L 636.7737226277372 214.0" />
        <text x="636.7737226277372" font-family="-apple-system, system-ui, BlinkMacSystemFont, Roboto" y="216.0" dominant-baseline="hanging" text-anchor="middle" font-size="12" fill="#24292f">Nov 2022</text>
    
        
        <path stroke="#74838f"  stroke-width="2.0"  d="M 704.2189781021898 206.0 L 704.2189781021898 214.0" />
        <text x="704.2189781021898" font-family="-apple-system, system-ui, BlinkMacSystemFont, Roboto" y="216.0" dominant-baseline="hanging" text-anchor="middle" font-size="12" fill="#24292f">Dec 2022</text>
    
        
        <path stroke="#74838f"  stroke-width="2.0"  d="M 773.9124087591241 206.0 L 773.9124087591241 214.0" />
        <text x="773.9124087591241" font-family="-apple-system, system-ui, BlinkMacSystemFont, Roboto" y="216.0" dominant-baseline="hanging" text-anchor="middle" font-size="12" fill="#24292f">Jan 2023</text>
    
        
        <path stroke="#74838f"  stroke-width="2.0"  d="M 843.6058394160583 206.0 L 843.6058394160583 214.0" />
        <text x="843.6058394160583" font-family="-apple-system, system-ui, BlinkMacSystemFont, Roboto" y="216.0" dominant-baseline="hanging" text-anchor="middle" font-size="12" fill="#24292f">Feb 2023</text>
    
        
        <path stroke="#74838f"  stroke-width="2.0"  d="M 906.5547445255474 206.0 L 906.5547445255474 214.0" />
        <text x="906.5547445255474" font-family="-apple-system, system-ui, BlinkMacSystemFont, Roboto" y="216.0" dominant-baseline="hanging" text-anchor="middle" font-size="12" fill="#24292f">Mar 2023</text>
    
    <path stroke="#74838f"   stroke-linejoin="round" stroke-width="2.0" d="M 50.0 216.0 L 50.0 206.0 L 974.0 206.0 L 974.0 216.0"  fill="none" />
    <text x="512.0" y="25.0" font-family="-apple-system, system-ui, BlinkMacSystemFont, Roboto" dominant-baseline="middle" text-anchor="middle" font-size="18" fill="#24292f">Total daily suspensions</text>
</svg>
