<?xml version="1.0" standalone="no"?>
<svg width="1024.0" height="256.0"  viewBox="0 0 1024.0 256.0" preserveAspectRatio="xMidYMid meet" xmlns="http://www.w3.org/2000/svg">
    <path stroke="#e74c3c" stroke-linejoin="round" d="M 50.0 161.108 L 50 161.108L 52.54545454545455 193.664L 55.09090909090909 197.576L 57.63636363636364 197.924L 60.18181818181818 203.528L 62.72727272727273 199.94L 65.27272727272728 199.268L 67.81818181818181 191.108L 70.36363636363636 200.972L 72.9090909090909 198.62L 75.45454545454545 200L 78 202.57999999999998L 80.54545454545455 199.208L 83.0909090909091 195.608L 85.63636363636364 202.652L 88.18181818181819 198.716L 90.72727272727272 197.49200000000002L 93.27272727272728 191.42000000000002L 95.81818181818181 196.688L 98.36363636363637 199.46L 100.9090909090909 199.328L 103.45454545454545 198.308L 106 198.164L 108.54545454545455 199.832L 111.0909090909091 194.876L 113.63636363636364 199.904L 116.18181818181819 195.584L 118.72727272727273 200.732L 121.27272727272728 198.416L 123.81818181818183 190.652L 126.36363636363636 196.112L 128.9090909090909 190.82L 131.45454545454544 193.53199999999998L 134 199.688L 136.54545454545456 192.392L 139.0909090909091 197L 141.63636363636363 199.59199999999998L 144.1818181818182 193.54399999999998L 146.72727272727275 195.26L 149.27272727272728 195.428L 151.8181818181818 195.548L 154.36363636363637 196.484L 156.9090909090909 199.424L 159.45454545454544 199.22L 162 195.656L 164.54545454545456 193.952L 167.0909090909091 195.536L 169.63636363636363 198.764L 172.1818181818182 195.428L 174.72727272727275 194L 177.27272727272728 193.688L 179.8181818181818 186.32L 182.36363636363637 197.372L 184.9090909090909 195.96800000000002L 187.45454545454547 198.284L 190 194.38400000000001L 192.54545454545456 196.424L 195.0909090909091 196.988L 197.63636363636365 198.368L 200.1818181818182 198.05599999999998L 202.72727272727272 199.61599999999999L 205.27272727272728 191.54L 207.8181818181818 202.124L 210.36363636363637 193.34L 212.9090909090909 204.2L 215.45454545454547 206L 218 206L 220.54545454545456 206L 223.0909090909091 206L 225.63636363636365 190.472L 228.1818181818182 159.01999999999998L 230.72727272727272 193.56799999999998L 233.27272727272728 200.228L 235.8181818181818 193.232L 238.36363636363637 196.82L 240.9090909090909 199.772L 243.45454545454547 186.548L 246 197.888L 248.54545454545456 195.596L 251.0909090909091 190.508L 253.63636363636365 194.876L 256.1818181818182 190.4L 258.72727272727275 188.756L 261.27272727272725 197.852L 263.8181818181818 199.772L 266.3636363636364 191.936L 268.9090909090909 191.864L 271.4545454545455 199.316L 274 194.72L 276.54545454545456 192.608L 279.0909090909091 194.9L 281.6363636363636 199.7L 284.1818181818182 189.224L 286.72727272727275 198.428L 289.27272727272725 196.136L 291.8181818181818 195.296L 294.3636363636364 196.268L 296.9090909090909 193.184L 299.4545454545455 197.204L 302 193.856L 304.54545454545456 197.096L 307.09090909090907 178.16L 309.6363636363636 194.372L 312.1818181818182 195.92000000000002L 314.72727272727275 195.11599999999999L 317.27272727272725 196.688L 319.8181818181818 197.49200000000002L 322.3636363636364 197.696L 324.90909090909093 186.848L 327.45454545454544 192.644L 330 199.61599999999999L 332.5454545454545 193.052L 335.0909090909091 191.072L 337.6363636363636 195.44L 340.1818181818182 196.184L 342.7272727272727 196.46L 345.2727272727273 197.312L 347.8181818181818 193.076L 350.3636363636364 206L 352.9090909090909 186.44L 355.45454545454544 186.632L 358 191.276L 360.54545454545456 180.93200000000002L 363.09090909090907 201.704L 365.6363636363636 185.744L 368.1818181818182 196.028L 370.72727272727275 189.464L 373.27272727272725 194.228L 375.8181818181818 195.632L 378.3636363636364 196.844L 380.90909090909093 186.332L 383.45454545454544 197.99599999999998L 386 188.924L 388.5454545454545 189.128L 391.0909090909091 196.748L 393.6363636363636 182.45600000000002L 396.1818181818182 184.16L 398.7272727272727 206L 401.2727272727273 206L 403.8181818181818 206L 406.3636363636364 160.16L 408.9090909090909 198.536L 411.45454545454544 196.60399999999998L 414 195.668L 416.54545454545456 192.8L 419.09090909090907 196.964L 421.6363636363636 197.828L 424.1818181818182 200.84L 426.72727272727275 170.312L 429.27272727272725 189.236L 431.8181818181818 177.428L 434.3636363636364 191.564L 436.90909090909093 178.784L 439.45454545454544 176.372L 442 181.7L 444.5454545454545 187.472L 447.0909090909091 192.88400000000001L 449.6363636363636 189.38L 452.1818181818182 187.772L 454.7272727272727 189.404L 457.2727272727273 187.532L 459.8181818181818 193.59199999999998L 462.3636363636364 185.036L 464.9090909090909 171.332L 467.45454545454544 180.14L 470 172.316L 472.54545454545456 193.028L 475.09090909090907 191.996L 477.6363636363636 193.052L 480.1818181818182 194.84L 482.72727272727275 193.53199999999998L 485.27272727272725 194.024L 487.8181818181818 189.272L 490.3636363636364 195.188L 492.90909090909093 196.256L 495.45454545454544 192.62L 498 190.844L 500.5454545454545 200.984L 503.0909090909091 184.796L 505.6363636363636 190.88L 508.1818181818182 194.42000000000002L 510.7272727272727 189.86L 513.2727272727273 195.86L 515.8181818181818 191.984L 518.3636363636364 193.1L 520.909090909091 186.464L 523.4545454545455 190.46L 526 182.156L 528.5454545454545 187.136L 531.0909090909091 191.528L 533.6363636363636 184.1L 536.1818181818182 189.14L 538.7272727272727 185.204L 541.2727272727273 185.468L 543.8181818181818 176.816L 546.3636363636364 189.04399999999998L 548.909090909091 191.048L 551.4545454545455 188.756L 554 187.592L 556.5454545454545 191.39600000000002L 559.0909090909091 187.796L 561.6363636363637 188.228L 564.1818181818181 190.268L 566.7272727272727 194.372L 569.2727272727273 194.72L 571.8181818181819 201.308L 574.3636363636364 192.752L 576.9090909090909 181.148L 579.4545454545455 181.748L 582 181.208L 584.5454545454545 191.3L 587.0909090909091 186.88400000000001L 589.6363636363636 181.376L 592.1818181818182 186.5L 594.7272727272727 188.44400000000002L 597.2727272727273 179.66L 599.8181818181819 183.09199999999998L 602.3636363636364 173.564L 604.9090909090909 183.836L 607.4545454545455 171.668L 610 148.148L 612.5454545454546 178.004L 615.090909090909 141.86L 617.6363636363636 186.128L 620.1818181818182 188.54000000000002L 622.7272727272727 187.748L 625.2727272727273 193.256L 627.8181818181818 186.596L 630.3636363636364 185.42000000000002L 632.909090909091 186.872L 635.4545454545454 185.372L 638 192.824L 640.5454545454546 188.552L 643.0909090909091 189.32L 645.6363636363636 186.632L 648.1818181818181 185.768L 650.7272727272727 188.744L 653.2727272727274 187.34L 655.8181818181818 192.488L 658.3636363636364 187.028L 660.9090909090909 185.468L 663.4545454545455 181.928L 666 183.8L 668.5454545454545 180.296L 671.0909090909091 185.516L 673.6363636363636 194L 676.1818181818181 190.328L 678.7272727272727 186.584L 681.2727272727273 168.32L 683.8181818181819 117.5L 686.3636363636364 189.10399999999998L 688.9090909090909 187.844L 691.4545454545455 190.28L 694 192.32L 696.5454545454545 189.2L 699.0909090909091 182.288L 701.6363636363636 188.49200000000002L 704.1818181818182 178.916L 706.7272727272727 53.432000000000016L 709.2727272727273 162.656L 711.8181818181819 184.52L 714.3636363636364 182.708L 716.9090909090909 183.68L 719.4545454545455 184.196L 722 179.084L 724.5454545454546 190.16L 727.090909090909 180.476L 729.6363636363636 160.916L 732.1818181818182 121.196L 734.7272727272727 151.50799999999998L 737.2727272727273 164.132L 739.8181818181818 181.184L 742.3636363636364 170.49200000000002L 744.909090909091 179.792L 747.4545454545454 173.204L 750 178.352L 752.5454545454546 182.792L 755.0909090909091 177.152L 757.6363636363636 184.232L 760.1818181818181 187.796L 762.7272727272727 188.348L 765.2727272727274 184.736L 767.8181818181818 181.892L 770.3636363636364 181.796L 772.9090909090909 179.36L 775.4545454545455 168.176L 778 181.808L 780.5454545454545 185.372L 783.0909090909091 167.708L 785.6363636363636 140.6L 788.1818181818181 160.784L 790.7272727272727 151.664L 793.2727272727273 145.952L 795.8181818181819 155.288L 798.3636363636364 153.68L 800.9090909090909 163.04L 803.4545454545455 172.064L 806 148.952L 808.5454545454545 171.812L 811.0909090909091 172.46L 813.6363636363636 172.508L 816.1818181818182 183.644L 818.7272727272727 166.304L 821.2727272727273 159.26L 823.8181818181819 172.652L 826.3636363636364 165.5L 828.9090909090909 154.892L 831.4545454545455 173.888L 834 176.3L 836.5454545454546 186.5L 839.090909090909 183.932L 841.6363636363636 183.10399999999998L 844.1818181818182 150.128L 846.7272727272727 183.11599999999999L 849.2727272727273 186.152L 851.8181818181819 185.096L 854.3636363636364 182.276L 856.909090909091 182.18L 859.4545454545454 182.144L 862 174.956L 864.5454545454546 181.988L 867.0909090909091 179.504L 869.6363636363636 184.784L 872.1818181818181 179L 874.7272727272727 175.868L 877.2727272727274 177.14L 879.8181818181818 178.832L 882.3636363636364 182.216L 884.9090909090909 176.444L 887.4545454545455 182.576L 890 177.02L 892.5454545454545 178.58L 895.0909090909091 182.144L 897.6363636363637 179.48L 900.1818181818181 176.972L 902.7272727272727 186.164L 905.2727272727273 176.096L 907.8181818181819 178.04L 910.3636363636364 152.996L 912.9090909090909 130.724L 915.4545454545455 149.888L 918 149.48L 920.5454545454545 184.1L 923.0909090909091 184.484L 925.6363636363636 177.56L 928.1818181818182 139.952L 930.7272727272727 148.028L 933.2727272727273 162.428L 935.8181818181819 136.244L 938.3636363636364 132.128L 940.9090909090909 142.508L 943.4545454545455 143.252L 946 125.732L 948.5454545454546 117.06800000000001L 951.090909090909 164.264L 953.6363636363636 161.876L 956.1818181818182 158.636L 958.7272727272727 176.40800000000002L 961.2727272727273 186.632L 963.8181818181819 187.352L 966.3636363636364 186.152L 968.909090909091 174.932L 971.4545454545454 178.388L 974 202.136" stroke-width="2.0" fill="none" />
    
        
        
        <text x="45.0" font-family="-apple-system, system-ui, BlinkMacSystemFont, Roboto" y="50.0" dominant-baseline="middle" text-anchor="end" font-size="12" fill="#24292f">13000.0</text>
        
            
            <path stroke="#74838f" stroke-dasharray="10 6" stroke-width="0.5"  d="M 50.0 50.0 L 974.0 50.0" />
        
    
        
        
        <text x="45.0" font-family="-apple-system, system-ui, BlinkMacSystemFont, Roboto" y="81.2" dominant-baseline="middle" text-anchor="end" font-size="12" fill="#24292f">10400.0</text>
        
            
            
            <path stroke="#74838f" stroke-dasharray="10 6" stroke-width="0.5"  d="M 50.0 81.2 L 974.0 81.2" />
        
    
        
        
        <text x="45.0" font-family="-apple-system, system-ui, BlinkMacSystemFont, Roboto" y="112.4" dominant-baseline="middle" text-anchor="end" font-size="12" fill="#24292f">7800.0</text>
        
            
            
            <path stroke="#74838f" stroke-dasharray="10 6" stroke-width="0.5"  d="M 50.0 112.4 L 974.0 112.4" />
        
    
        
        
        <text x="45.0" font-family="-apple-system, system-ui, BlinkMacSystemFont, Roboto" y="143.6" dominant-baseline="middle" text-anchor="end" font-size="12" fill="#24292f">5200.0</text>
        
            
            
            <path stroke="#74838f" stroke-dasharray="10 6" stroke-width="0.5"  d="M 50.0 143.6 L 974.0 143.6" />
        
    
        
        
        <text x="45.0" font-family="-apple-system, system-ui, BlinkMacSystemFont, Roboto" y="174.8" dominant-baseline="middle" text-anchor="end" font-size="12" fill="#24292f">2600.0</text>
        
            
            
            <path stroke="#74838f" stroke-dasharray="10 6" stroke-width="0.5"  d="M 50.0 174.8 L 974.0 174.8" />
        
    
        
        
        <text x="45.0" font-family="-apple-system, system-ui, BlinkMacSystemFont, Roboto" y="206.0" dominant-baseline="middle" text-anchor="end" font-size="12" fill="#24292f">0.0</text>
        
    
    
        
        <path stroke="#74838f"  stroke-width="2.0"  d="M 90.72727272727272 206.0 L 90.72727272727272 214.0" />
        <text x="90.72727272727272" font-family="-apple-system, system-ui, BlinkMacSystemFont, Roboto" y="216.0" dominant-baseline="hanging" text-anchor="middle" font-size="12" fill="#24292f">Mar 2022</text>
    
        
        <path stroke="#74838f"  stroke-width="2.0"  d="M 169.63636363636363 206.0 L 169.63636363636363 214.0" />
        <text x="169.63636363636363" font-family="-apple-system, system-ui, BlinkMacSystemFont, Roboto" y="216.0" dominant-baseline="hanging" text-anchor="middle" font-size="12" fill="#24292f">Apr 2022</text>
    
        
        <path stroke="#74838f"  stroke-width="2.0"  d="M 246.0 206.0 L 246.0 214.0" />
        <text x="246.0" font-family="-apple-system, system-ui, BlinkMacSystemFont, Roboto" y="216.0" dominant-baseline="hanging" text-anchor="middle" font-size="12" fill="#24292f">May 2022</text>
    
        
        <path stroke="#74838f"  stroke-width="2.0"  d="M 324.90909090909093 206.0 L 324.90909090909093 214.0" />
        <text x="324.90909090909093" font-family="-apple-system, system-ui, BlinkMacSystemFont, Roboto" y="216.0" dominant-baseline="hanging" text-anchor="middle" font-size="12" fill="#24292f">Jun 2022</text>
    
        
        <path stroke="#74838f"  stroke-width="2.0"  d="M 401.2727272727273 206.0 L 401.2727272727273 214.0" />
        <text x="401.2727272727273" font-family="-apple-system, system-ui, BlinkMacSystemFont, Roboto" y="216.0" dominant-baseline="hanging" text-anchor="middle" font-size="12" fill="#24292f">Jul 2022</text>
    
        
        <path stroke="#74838f"  stroke-width="2.0"  d="M 480.1818181818182 206.0 L 480.1818181818182 214.0" />
        <text x="480.1818181818182" font-family="-apple-system, system-ui, BlinkMacSystemFont, Roboto" y="216.0" dominant-baseline="hanging" text-anchor="middle" font-size="12" fill="#24292f">Aug 2022</text>
    
        
        <path stroke="#74838f"  stroke-width="2.0"  d="M 559.0909090909091 206.0 L 559.0909090909091 214.0" />
        <text x="559.0909090909091" font-family="-apple-system, system-ui, BlinkMacSystemFont, Roboto" y="216.0" dominant-baseline="hanging" text-anchor="middle" font-size="12" fill="#24292f">Sep 2022</text>
    
        
        <path stroke="#74838f"  stroke-width="2.0"  d="M 635.4545454545454 206.0 L 635.4545454545454 214.0" />
        <text x="635.4545454545454" font-family="-apple-system, system-ui, BlinkMacSystemFont, Roboto" y="216.0" dominant-baseline="hanging" text-anchor="middle" font-size="12" fill="#24292f">Oct 2022</text>
    
        
        <path stroke="#74838f"  stroke-width="2.0"  d="M 714.3636363636364 206.0 L 714.3636363636364 214.0" />
        <text x="714.3636363636364" font-family="-apple-system, system-ui, BlinkMacSystemFont, Roboto" y="216.0" dominant-baseline="hanging" text-anchor="middle" font-size="12" fill="#24292f">Nov 2022</text>
    
        
        <path stroke="#74838f"  stroke-width="2.0"  d="M 790.7272727272727 206.0 L 790.7272727272727 214.0" />
        <text x="790.7272727272727" font-family="-apple-system, system-ui, BlinkMacSystemFont, Roboto" y="216.0" dominant-baseline="hanging" text-anchor="middle" font-size="12" fill="#24292f">Dec 2022</text>
    
        
        <path stroke="#74838f"  stroke-width="2.0"  d="M 869.6363636363636 206.0 L 869.6363636363636 214.0" />
        <text x="869.6363636363636" font-family="-apple-system, system-ui, BlinkMacSystemFont, Roboto" y="216.0" dominant-baseline="hanging" text-anchor="middle" font-size="12" fill="#24292f">Jan 2023</text>
    
        
        <path stroke="#74838f"  stroke-width="2.0"  d="M 948.5454545454546 206.0 L 948.5454545454546 214.0" />
        <text x="948.5454545454546" font-family="-apple-system, system-ui, BlinkMacSystemFont, Roboto" y="216.0" dominant-baseline="hanging" text-anchor="middle" font-size="12" fill="#24292f">Feb 2023</text>
    
    <path stroke="#74838f"   stroke-linejoin="round" stroke-width="2.0" d="M 50.0 216.0 L 50.0 206.0 L 974.0 206.0 L 974.0 216.0"  fill="none" />
    <text x="512.0" y="25.0" font-family="-apple-system, system-ui, BlinkMacSystemFont, Roboto" dominant-baseline="middle" text-anchor="middle" font-size="18" fill="#24292f">Total daily suspensions</text>
</svg>
