<?xml version="1.0" standalone="no"?>
<svg width="1024.0" height="256.0"  viewBox="0 0 1024.0 256.0" preserveAspectRatio="xMidYMid meet" xmlns="http://www.w3.org/2000/svg">
    <path stroke="#e74c3c" stroke-linejoin="round" d="M 50.0 162.77066666666667 L 50 162.77066666666667L 51.90909090909091 194.12088888888889L 53.81818181818182 197.888L 55.72727272727273 198.2231111111111L 57.63636363636364 203.61955555555556L 59.54545454545455 200.16444444444443L 61.45454545454545 199.51733333333334L 63.36363636363636 191.65955555555556L 65.27272727272728 201.1582222222222L 67.18181818181819 198.89333333333332L 69.0909090909091 200.22222222222223L 71 202.70666666666665L 72.9090909090909 199.45955555555554L 74.81818181818181 195.9928888888889L 76.72727272727272 202.776L 78.63636363636364 198.98577777777777L 80.54545454545455 197.8071111111111L 82.45454545454545 191.96L 84.36363636363637 197.0328888888889L 86.27272727272728 199.70222222222222L 88.18181818181819 199.5751111111111L 90.0909090909091 198.5928888888889L 92 198.45422222222223L 93.9090909090909 200.06044444444444L 95.81818181818181 195.288L 97.72727272727272 200.12977777777778L 99.63636363636364 195.96977777777778L 101.54545454545455 200.92711111111112L 103.45454545454545 198.6968888888889L 105.36363636363637 191.22044444444444L 107.27272727272728 196.47822222222223L 109.18181818181819 191.38222222222223L 111.0909090909091 193.99377777777778L 113 199.92177777777778L 114.9090909090909 192.89600000000002L 116.81818181818181 197.33333333333334L 118.72727272727273 199.82933333333332L 120.63636363636363 194.00533333333334L 122.54545454545455 195.65777777777777L 124.45454545454545 195.81955555555555L 126.36363636363636 195.9351111111111L 128.27272727272725 196.83644444444445L 130.1818181818182 199.66755555555557L 132.0909090909091 199.4711111111111L 134 196.0391111111111L 135.9090909090909 194.39822222222222L 137.8181818181818 195.92355555555554L 139.72727272727272 199.03199999999998L 141.63636363636363 195.81955555555555L 143.54545454545456 194.44444444444446L 145.45454545454544 194.144L 147.36363636363637 187.04888888888888L 149.27272727272728 197.69155555555557L 151.1818181818182 196.33955555555556L 153.0909090909091 198.56977777777777L 155 194.8142222222222L 156.9090909090909 196.77866666666665L 158.8181818181818 197.32177777777778L 160.72727272727275 198.65066666666667L 162.63636363636363 198.35022222222221L 164.54545454545456 199.85244444444444L 166.45454545454544 192.07555555555555L 168.36363636363637 202.26755555555556L 170.27272727272728 193.80888888888887L 172.1818181818182 204.26666666666665L 174.0909090909091 206L 176 206L 177.90909090909093 206L 179.8181818181818 206L 181.72727272727272 191.04711111111112L 183.63636363636363 160.76L 185.54545454545456 194.02844444444446L 187.45454545454547 200.4417777777778L 189.36363636363637 193.7048888888889L 191.27272727272725 197.16L 193.1818181818182 200.00266666666667L 195.0909090909091 187.26844444444444L 197 198.18844444444443L 198.9090909090909 195.98133333333334L 200.81818181818184 191.08177777777777L 202.72727272727272 195.288L 204.63636363636363 190.97777777777776L 206.54545454545453 189.39466666666667L 208.45454545454547 198.15377777777778L 210.36363636363637 200.00266666666667L 212.27272727272728 192.4568888888889L 214.1818181818182 192.38755555555556L 216.0909090909091 199.56355555555555L 218 195.13777777777779L 219.9090909090909 193.10399999999998L 221.8181818181818 195.3111111111111L 223.72727272727275 199.93333333333334L 225.63636363636365 189.84533333333331L 227.54545454545453 198.70844444444444L 229.45454545454544 196.50133333333332L 231.36363636363637 195.69244444444445L 233.27272727272728 196.62844444444445L 235.1818181818182 193.65866666666668L 237.0909090909091 197.52977777777778L 239 194.3057777777778L 240.9090909090909 197.4257777777778L 242.8181818181818 179.19111111111113L 244.72727272727272 194.80266666666665L 246.63636363636365 196.29333333333335L 248.54545454545456 195.5191111111111L 250.45454545454547 197.0328888888889L 252.36363636363635 197.8071111111111L 254.27272727272728 198.00355555555555L 256.1818181818182 187.55733333333333L 258.0909090909091 193.13866666666667L 260 199.85244444444444L 261.90909090909093 193.53155555555554L 263.8181818181818 191.6248888888889L 265.72727272727275 195.8311111111111L 267.6363636363636 196.54755555555556L 269.54545454545456 196.81333333333333L 271.4545454545455 197.63377777777777L 273.3636363636364 193.55466666666666L 275.27272727272725 206L 277.1818181818182 187.16444444444446L 279.0909090909091 187.34933333333333L 281 191.8213333333333L 282.9090909090909 181.86044444444445L 284.8181818181818 201.8631111111111L 286.72727272727275 186.49422222222222L 288.6363636363636 196.39733333333334L 290.54545454545456 190.07644444444443L 292.4545454545455 194.664L 294.3636363636364 196.016L 296.27272727272725 197.18311111111112L 298.1818181818182 187.06044444444444L 300.09090909090907 198.29244444444444L 302 189.55644444444445L 303.9090909090909 189.7528888888889L 305.81818181818187 197.09066666666666L 307.72727272727275 183.328L 309.6363636363636 184.9688888888889L 311.54545454545456 206L 313.45454545454544 206L 315.3636363636364 206L 317.27272727272725 161.85777777777778L 319.18181818181813 198.81244444444445L 321.0909090909091 196.952L 323 196.05066666666667L 324.90909090909093 193.2888888888889L 326.8181818181818 197.29866666666666L 328.72727272727275 198.13066666666668L 330.6363636363636 201.0311111111111L 332.5454545454545 171.63377777777777L 334.45454545454544 189.85688888888888L 336.3636363636364 178.4862222222222L 338.2727272727273 192.09866666666667L 340.1818181818182 179.792L 342.09090909090907 177.46933333333334L 344 182.6L 345.9090909090909 188.1582222222222L 347.8181818181818 193.36977777777778L 349.7272727272727 189.99555555555554L 351.6363636363637 188.4471111111111L 353.54545454545456 190.01866666666666L 355.45454545454544 188.216L 357.3636363636364 194.05155555555555L 359.27272727272725 185.81244444444445L 361.1818181818182 172.61599999999999L 363.09090909090907 181.09777777777776L 365 173.56355555555555L 366.90909090909093 193.50844444444445L 368.8181818181818 192.51466666666667L 370.72727272727275 193.53155555555554L 372.6363636363636 195.25333333333333L 374.54545454545456 193.99377777777778L 376.45454545454544 194.46755555555555L 378.3636363636364 189.89155555555556L 380.27272727272725 195.58844444444446L 382.1818181818182 196.6168888888889L 384.0909090909091 193.11555555555555L 386 191.40533333333332L 387.90909090909093 201.16977777777777L 389.8181818181818 185.58133333333333L 391.7272727272727 191.44L 393.6363636363636 194.8488888888889L 395.5454545454545 190.45777777777778L 397.4545454545455 196.23555555555555L 399.3636363636364 192.5031111111111L 401.2727272727273 193.57777777777778L 403.1818181818182 187.18755555555555L 405.09090909090907 191.03555555555556L 407 183.0391111111111L 408.9090909090909 187.83466666666666L 410.8181818181818 192.064L 412.72727272727275 184.9111111111111L 414.6363636363636 189.76444444444445L 416.54545454545456 185.97422222222224L 418.45454545454544 186.22844444444445L 420.3636363636364 177.8968888888889L 422.27272727272725 189.672L 424.1818181818182 191.60177777777778L 426.09090909090907 189.39466666666667L 428 188.27377777777778L 429.90909090909093 191.9368888888889L 431.8181818181818 188.47022222222222L 433.72727272727275 188.88622222222222L 435.6363636363636 190.85066666666665L 437.54545454545456 194.80266666666665L 439.45454545454544 195.13777777777779L 441.3636363636363 201.48177777777778L 443.2727272727273 193.24266666666665L 445.1818181818182 182.06844444444445L 447.0909090909091 182.64622222222224L 449 182.12622222222222L 450.90909090909093 191.84444444444443L 452.8181818181818 187.592L 454.7272727272727 182.288L 456.6363636363636 187.22222222222223L 458.54545454545456 189.09422222222221L 460.4545454545455 180.63555555555556L 462.3636363636364 183.94044444444444L 464.27272727272725 174.76533333333333L 466.1818181818182 184.6568888888889L 468.09090909090907 172.93955555555556L 470 150.29066666666665L 471.9090909090909 179.0408888888889L 473.81818181818187 144.23555555555555L 475.72727272727275 186.864L 477.6363636363636 189.18666666666667L 479.54545454545456 188.424L 481.45454545454544 193.728L 483.3636363636364 187.31466666666665L 485.27272727272725 186.1822222222222L 487.1818181818182 187.58044444444445L 489.0909090909091 186.136L 491 193.312L 492.90909090909093 189.19822222222223L 494.8181818181818 189.9377777777778L 496.72727272727275 187.34933333333333L 498.6363636363636 186.51733333333334L 500.5454545454545 189.3831111111111L 502.45454545454544 188.0311111111111L 504.3636363636364 192.98844444444444L 506.2727272727273 187.73066666666668L 508.1818181818182 186.22844444444445L 510.0909090909091 182.81955555555555L 512 184.6222222222222L 513.909090909091 181.248L 515.8181818181818 186.27466666666666L 517.7272727272727 194.44444444444446L 519.6363636363636 190.90844444444446L 521.5454545454545 187.30311111111112L 523.4545454545455 169.71555555555557L 525.3636363636364 120.77777777777779L 527.2727272727273 189.72977777777777L 529.1818181818182 188.51644444444446L 531.0909090909091 190.86222222222221L 533 192.82666666666665L 534.909090909091 189.82222222222222L 536.8181818181818 183.16622222222222L 538.7272727272727 189.14044444444443L 540.6363636363635 179.9191111111111L 542.5454545454545 59.082666666666654L 544.4545454545455 164.26133333333334L 546.3636363636364 185.31555555555556L 548.2727272727273 183.57066666666668L 550.1818181818181 184.50666666666666L 552.0909090909091 185.00355555555555L 554 180.0808888888889L 555.909090909091 190.74666666666667L 557.8181818181818 181.42133333333334L 559.7272727272727 162.58577777777776L 561.6363636363637 124.3368888888889L 563.5454545454545 153.52622222222223L 565.4545454545455 165.68266666666668L 567.3636363636364 182.1031111111111L 569.2727272727273 171.8071111111111L 571.1818181818181 180.76266666666666L 573.0909090909091 174.41866666666667L 575 179.376L 576.9090909090909 183.65155555555555L 578.8181818181819 178.22044444444444L 580.7272727272727 185.03822222222223L 582.6363636363636 188.47022222222222L 584.5454545454545 189.00177777777776L 586.4545454545455 185.52355555555556L 588.3636363636363 182.7848888888889L 590.2727272727273 182.69244444444445L 592.1818181818182 180.34666666666666L 594.0909090909091 169.5768888888889L 596 182.704L 597.9090909090909 186.136L 599.8181818181819 169.12622222222222L 601.7272727272726 143.0222222222222L 603.6363636363636 162.45866666666666L 605.5454545454546 153.67644444444443L 607.4545454545455 148.176L 609.3636363636364 157.16622222222222L 611.2727272727273 155.61777777777777L 613.1818181818182 164.63111111111112L 615.090909090909 173.32088888888887L 617 151.0648888888889L 618.9090909090909 173.07822222222222L 620.8181818181819 173.70222222222222L 622.7272727272727 173.74844444444443L 624.6363636363636 184.472L 626.5454545454546 167.77422222222222L 628.4545454545454 160.9911111111111L 630.3636363636364 173.8871111111111L 632.2727272727273 167L 634.1818181818181 156.78488888888887L 636.0909090909091 175.07733333333334L 638 177.4L 639.909090909091 187.22222222222223L 641.8181818181818 184.74933333333334L 643.7272727272727 183.952L 645.6363636363636 152.19733333333335L 647.5454545454545 183.96355555555556L 649.4545454545454 186.8871111111111L 651.3636363636364 185.87022222222222L 653.2727272727274 183.15466666666666L 655.1818181818181 183.06222222222223L 657.0909090909091 183.02755555555555L 659 176.10577777777777L 660.9090909090909 182.87733333333333L 662.8181818181818 180.48533333333333L 664.7272727272727 185.56977777777777L 666.6363636363637 180L 668.5454545454545 176.984L 670.4545454545455 178.20888888888888L 672.3636363636364 179.8382222222222L 674.2727272727273 183.09688888888888L 676.1818181818181 177.53866666666667L 678.0909090909091 183.44355555555555L 680 178.09333333333333L 681.9090909090909 179.59555555555556L 683.8181818181819 183.02755555555555L 685.7272727272727 180.4622222222222L 687.6363636363636 178.04711111111112L 689.5454545454545 186.89866666666666L 691.4545454545455 177.20355555555557L 693.3636363636364 179.07555555555555L 695.2727272727273 154.9591111111111L 697.1818181818182 133.512L 699.0909090909091 151.96622222222223L 701 151.57333333333332L 702.9090909090909 184.9111111111111L 704.8181818181819 185.28088888888888L 706.7272727272727 178.61333333333334L 708.6363636363636 142.39822222222222L 710.5454545454545 150.1751111111111L 712.4545454545455 164.04177777777778L 714.3636363636364 138.82755555555556L 716.2727272727273 134.864L 718.1818181818182 144.85955555555557L 720.090909090909 145.57600000000002L 722 128.7048888888889L 723.9090909090909 120.36177777777777L 725.8181818181819 165.80977777777778L 727.7272727272727 163.51022222222224L 729.6363636363636 160.39022222222223L 731.5454545454546 177.504L 733.4545454545454 187.34933333333333L 735.3636363636364 188.04266666666666L 737.2727272727273 186.8871111111111L 739.1818181818182 176.08266666666668L 741.090909090909 179.41066666666666L 743 195.0568888888889L 744.909090909091 185.53511111111112L 746.8181818181818 183.6977777777778L 748.7272727272727 174.97333333333333L 750.6363636363636 178.61333333333334L 752.5454545454546 180.9591111111111L 754.4545454545454 184.0328888888889L 756.3636363636364 155.61777777777777L 758.2727272727273 149.7128888888889L 760.1818181818181 186.2631111111111L 762.0909090909091 191.28977777777777L 764 175.90933333333334L 765.909090909091 175.49333333333334L 767.8181818181818 184.51822222222222L 769.7272727272727 189.69511111111112L 771.6363636363636 187.592L 773.5454545454545 180.09244444444445L 775.4545454545455 176.92622222222224L 777.3636363636364 163.31377777777777L 779.2727272727273 162.112L 781.1818181818181 167.1271111111111L 783.0909090909091 180.32355555555554L 785 184.11377777777778L 786.9090909090909 191.57866666666666L 788.8181818181818 195.54222222222222L 790.7272727272727 183.54755555555556L 792.6363636363636 164.03022222222222L 794.5454545454545 171.05599999999998L 796.4545454545455 169.92355555555557L 798.3636363636364 180.02311111111112L 800.2727272727273 172.07288888888888L 802.1818181818181 163.53333333333333L 804.0909090909091 171.34488888888887L 806 181.59466666666668L 807.9090909090909 179.80355555555556L 809.8181818181819 166.17955555555557L 811.7272727272727 154.92444444444445L 813.6363636363636 158.4488888888889L 815.5454545454545 156.4728888888889L 817.4545454545455 144.4551111111111L 819.3636363636363 158.52977777777778L 821.2727272727273 178.00088888888888L 823.1818181818182 144.99822222222224L 825.0909090909091 134.136L 827 139.8213333333333L 828.9090909090909 145.04444444444445L 830.8181818181819 153.168L 832.7272727272726 140.53777777777776L 834.6363636363636 113.86755555555555L 836.5454545454546 113.28977777777777L 838.4545454545455 164.85066666666665L 840.3636363636364 163.62577777777778L 842.2727272727273 150.16355555555555L 844.1818181818182 149.84L 846.090909090909 56.54044444444443L 848 124.776L 849.9090909090909 64.07466666666667L 851.8181818181819 123.55111111111111L 853.7272727272727 157.536L 855.6363636363636 147.9911111111111L 857.5454545454546 136.22755555555557L 859.4545454545454 91.11466666666666L 861.3636363636364 107.36177777777779L 863.2727272727273 141.68177777777777L 865.1818181818181 157.73244444444444L 867.0909090909091 152.63644444444444L 869 96.22222222222221L 870.909090909091 150.19822222222223L 872.8181818181818 116.57155555555556L 874.7272727272727 127.34133333333332L 876.6363636363636 180.53155555555554L 878.5454545454545 137.10577777777777L 880.4545454545454 122.64977777777779L 882.3636363636364 104.61155555555555L 884.2727272727274 141.76266666666666L 886.1818181818181 164.23822222222222L 888.0909090909091 160.51733333333334L 890 154.57777777777778L 891.9090909090909 175.01955555555554L 893.8181818181818 146.87022222222222L 895.7272727272727 153.23733333333334L 897.6363636363637 142.82577777777777L 899.5454545454545 130.98133333333334L 901.4545454545455 88.53777777777778L 903.3636363636364 174.488L 905.2727272727273 50.55466666666666L 907.1818181818181 84.43555555555557L 909.0909090909091 152.47466666666668L 911 114.90755555555555L 912.9090909090909 96.30311111111112L 914.8181818181819 171.46044444444445L 916.7272727272727 183.96355555555556L 918.6363636363636 169.87733333333333L 920.5454545454545 183.13155555555556L 922.4545454545455 171.992L 924.3636363636364 152.48622222222224L 926.2727272727273 169.704L 928.1818181818182 172.99733333333333L 930.0909090909091 164.61955555555556L 932 162.64355555555557L 933.9090909090909 170.51288888888888L 935.8181818181819 145.6568888888889L 937.7272727272727 159.81244444444445L 939.6363636363636 167.2542222222222L 941.5454545454545 141.55466666666666L 943.4545454545455 160.864L 945.3636363636364 157.7208888888889L 947.2727272727273 154.87822222222223L 949.1818181818182 145.29866666666666L 951.090909090909 177.65422222222222L 953 119.73777777777778L 954.9090909090909 144.96355555555556L 956.8181818181819 151.15733333333333L 958.7272727272727 164.4231111111111L 960.6363636363636 174.1991111111111L 962.5454545454546 171.784L 964.4545454545454 157.12L 966.3636363636364 159.44266666666667L 968.2727272727273 169.77333333333334L 970.1818181818182 166.64177777777778L 972.090909090909 176.5102222222222L 974 198.75466666666665" stroke-width="2.0" fill="none" />
    
        
        
        <text x="45.0" font-family="-apple-system, system-ui, BlinkMacSystemFont, Roboto" y="50.0" dominant-baseline="middle" text-anchor="end" font-size="12" fill="#24292f">13500.0</text>
        
            
            <path stroke="#74838f" stroke-dasharray="10 6" stroke-width="0.5"  d="M 50.0 50.0 L 974.0 50.0" />
        
    
        
        
        <text x="45.0" font-family="-apple-system, system-ui, BlinkMacSystemFont, Roboto" y="81.2" dominant-baseline="middle" text-anchor="end" font-size="12" fill="#24292f">10800.0</text>
        
            
            
            <path stroke="#74838f" stroke-dasharray="10 6" stroke-width="0.5"  d="M 50.0 81.2 L 974.0 81.2" />
        
    
        
        
        <text x="45.0" font-family="-apple-system, system-ui, BlinkMacSystemFont, Roboto" y="112.4" dominant-baseline="middle" text-anchor="end" font-size="12" fill="#24292f">8100.0</text>
        
            
            
            <path stroke="#74838f" stroke-dasharray="10 6" stroke-width="0.5"  d="M 50.0 112.4 L 974.0 112.4" />
        
    
        
        
        <text x="45.0" font-family="-apple-system, system-ui, BlinkMacSystemFont, Roboto" y="143.6" dominant-baseline="middle" text-anchor="end" font-size="12" fill="#24292f">5400.0</text>
        
            
            
            <path stroke="#74838f" stroke-dasharray="10 6" stroke-width="0.5"  d="M 50.0 143.6 L 974.0 143.6" />
        
    
        
        
        <text x="45.0" font-family="-apple-system, system-ui, BlinkMacSystemFont, Roboto" y="174.8" dominant-baseline="middle" text-anchor="end" font-size="12" fill="#24292f">2700.0</text>
        
            
            
            <path stroke="#74838f" stroke-dasharray="10 6" stroke-width="0.5"  d="M 50.0 174.8 L 974.0 174.8" />
        
    
        
        
        <text x="45.0" font-family="-apple-system, system-ui, BlinkMacSystemFont, Roboto" y="206.0" dominant-baseline="middle" text-anchor="end" font-size="12" fill="#24292f">0.0</text>
        
    
    
        
        <path stroke="#74838f"  stroke-width="2.0"  d="M 80.54545454545455 206.0 L 80.54545454545455 214.0" />
        <text x="80.54545454545455" font-family="-apple-system, system-ui, BlinkMacSystemFont, Roboto" y="216.0" dominant-baseline="hanging" text-anchor="middle" font-size="12" fill="#24292f">Mar 2022</text>
    
        
        <path stroke="#74838f"  stroke-width="2.0"  d="M 139.72727272727272 206.0 L 139.72727272727272 214.0" />
        <text x="139.72727272727272" font-family="-apple-system, system-ui, BlinkMacSystemFont, Roboto" y="216.0" dominant-baseline="hanging" text-anchor="middle" font-size="12" fill="#24292f">Apr 2022</text>
    
        
        <path stroke="#74838f"  stroke-width="2.0"  d="M 197.0 206.0 L 197.0 214.0" />
        <text x="197.0" font-family="-apple-system, system-ui, BlinkMacSystemFont, Roboto" y="216.0" dominant-baseline="hanging" text-anchor="middle" font-size="12" fill="#24292f">May 2022</text>
    
        
        <path stroke="#74838f"  stroke-width="2.0"  d="M 256.1818181818182 206.0 L 256.1818181818182 214.0" />
        <text x="256.1818181818182" font-family="-apple-system, system-ui, BlinkMacSystemFont, Roboto" y="216.0" dominant-baseline="hanging" text-anchor="middle" font-size="12" fill="#24292f">Jun 2022</text>
    
        
        <path stroke="#74838f"  stroke-width="2.0"  d="M 313.45454545454544 206.0 L 313.45454545454544 214.0" />
        <text x="313.45454545454544" font-family="-apple-system, system-ui, BlinkMacSystemFont, Roboto" y="216.0" dominant-baseline="hanging" text-anchor="middle" font-size="12" fill="#24292f">Jul 2022</text>
    
        
        <path stroke="#74838f"  stroke-width="2.0"  d="M 372.6363636363636 206.0 L 372.6363636363636 214.0" />
        <text x="372.6363636363636" font-family="-apple-system, system-ui, BlinkMacSystemFont, Roboto" y="216.0" dominant-baseline="hanging" text-anchor="middle" font-size="12" fill="#24292f">Aug 2022</text>
    
        
        <path stroke="#74838f"  stroke-width="2.0"  d="M 431.8181818181818 206.0 L 431.8181818181818 214.0" />
        <text x="431.8181818181818" font-family="-apple-system, system-ui, BlinkMacSystemFont, Roboto" y="216.0" dominant-baseline="hanging" text-anchor="middle" font-size="12" fill="#24292f">Sep 2022</text>
    
        
        <path stroke="#74838f"  stroke-width="2.0"  d="M 489.0909090909091 206.0 L 489.0909090909091 214.0" />
        <text x="489.0909090909091" font-family="-apple-system, system-ui, BlinkMacSystemFont, Roboto" y="216.0" dominant-baseline="hanging" text-anchor="middle" font-size="12" fill="#24292f">Oct 2022</text>
    
        
        <path stroke="#74838f"  stroke-width="2.0"  d="M 548.2727272727273 206.0 L 548.2727272727273 214.0" />
        <text x="548.2727272727273" font-family="-apple-system, system-ui, BlinkMacSystemFont, Roboto" y="216.0" dominant-baseline="hanging" text-anchor="middle" font-size="12" fill="#24292f">Nov 2022</text>
    
        
        <path stroke="#74838f"  stroke-width="2.0"  d="M 605.5454545454546 206.0 L 605.5454545454546 214.0" />
        <text x="605.5454545454546" font-family="-apple-system, system-ui, BlinkMacSystemFont, Roboto" y="216.0" dominant-baseline="hanging" text-anchor="middle" font-size="12" fill="#24292f">Dec 2022</text>
    
        
        <path stroke="#74838f"  stroke-width="2.0"  d="M 664.7272727272727 206.0 L 664.7272727272727 214.0" />
        <text x="664.7272727272727" font-family="-apple-system, system-ui, BlinkMacSystemFont, Roboto" y="216.0" dominant-baseline="hanging" text-anchor="middle" font-size="12" fill="#24292f">Jan 2023</text>
    
        
        <path stroke="#74838f"  stroke-width="2.0"  d="M 723.9090909090909 206.0 L 723.9090909090909 214.0" />
        <text x="723.9090909090909" font-family="-apple-system, system-ui, BlinkMacSystemFont, Roboto" y="216.0" dominant-baseline="hanging" text-anchor="middle" font-size="12" fill="#24292f">Feb 2023</text>
    
        
        <path stroke="#74838f"  stroke-width="2.0"  d="M 777.3636363636364 206.0 L 777.3636363636364 214.0" />
        <text x="777.3636363636364" font-family="-apple-system, system-ui, BlinkMacSystemFont, Roboto" y="216.0" dominant-baseline="hanging" text-anchor="middle" font-size="12" fill="#24292f">Mar 2023</text>
    
        
        <path stroke="#74838f"  stroke-width="2.0"  d="M 836.5454545454546 206.0 L 836.5454545454546 214.0" />
        <text x="836.5454545454546" font-family="-apple-system, system-ui, BlinkMacSystemFont, Roboto" y="216.0" dominant-baseline="hanging" text-anchor="middle" font-size="12" fill="#24292f">Apr 2023</text>
    
        
        <path stroke="#74838f"  stroke-width="2.0"  d="M 893.8181818181818 206.0 L 893.8181818181818 214.0" />
        <text x="893.8181818181818" font-family="-apple-system, system-ui, BlinkMacSystemFont, Roboto" y="216.0" dominant-baseline="hanging" text-anchor="middle" font-size="12" fill="#24292f">May 2023</text>
    
        
        <path stroke="#74838f"  stroke-width="2.0"  d="M 953.0 206.0 L 953.0 214.0" />
        <text x="953.0" font-family="-apple-system, system-ui, BlinkMacSystemFont, Roboto" y="216.0" dominant-baseline="hanging" text-anchor="middle" font-size="12" fill="#24292f">Jun 2023</text>
    
    <path stroke="#74838f"   stroke-linejoin="round" stroke-width="2.0" d="M 50.0 216.0 L 50.0 206.0 L 974.0 206.0 L 974.0 216.0"  fill="none" />
    <text x="512.0" y="25.0" font-family="-apple-system, system-ui, BlinkMacSystemFont, Roboto" dominant-baseline="middle" text-anchor="middle" font-size="18" fill="#24292f">Total daily suspensions</text>
</svg>
