<?xml version="1.0" standalone="no"?>
<svg width="1024.0" height="256.0"  viewBox="0 0 1024.0 256.0" preserveAspectRatio="xMidYMid meet" xmlns="http://www.w3.org/2000/svg">
    <path stroke="#e74c3c" stroke-linejoin="round" d="M 50.0 161.108 L 50 161.108L 53.13220338983051 193.664L 56.264406779661016 197.576L 59.396610169491524 197.924L 62.52881355932203 203.528L 65.66101694915254 199.94L 68.79322033898305 199.268L 71.92542372881356 191.108L 75.05762711864406 200.972L 78.18983050847459 198.62L 81.32203389830508 200L 84.4542372881356 202.57999999999998L 87.5864406779661 199.208L 90.71864406779662 195.608L 93.85084745762711 202.652L 96.98305084745763 198.716L 100.11525423728813 197.49200000000002L 103.24745762711865 191.42000000000002L 106.37966101694916 196.688L 109.51186440677967 199.46L 112.64406779661016 199.328L 115.77627118644068 198.308L 118.90847457627119 198.164L 122.0406779661017 199.832L 125.1728813559322 194.876L 128.3050847457627 199.904L 131.43728813559323 195.584L 134.56949152542373 200.732L 137.70169491525422 198.416L 140.83389830508474 190.652L 143.96610169491527 196.112L 147.09830508474576 190.82L 150.23050847457625 193.53199999999998L 153.36271186440678 199.688L 156.4949152542373 192.392L 159.62711864406782 197L 162.75932203389831 199.59199999999998L 165.8915254237288 193.54399999999998L 169.02372881355933 195.26L 172.15593220338982 195.428L 175.28813559322032 195.548L 178.42033898305084 196.484L 181.55254237288136 199.424L 184.68474576271186 199.22L 187.81694915254238 195.656L 190.9491525423729 193.952L 194.0813559322034 195.536L 197.2135593220339 198.764L 200.3457627118644 195.428L 203.4779661016949 194L 206.61016949152543 193.688L 209.74237288135592 186.32L 212.87457627118644 197.372L 216.00677966101694 195.96800000000002L 219.13898305084746 198.284L 222.27118644067798 194.38400000000001L 225.40338983050847 196.424L 228.535593220339 196.988L 231.6677966101695 198.368L 234.8 198.05599999999998L 237.93220338983053 199.61599999999999L 241.064406779661 191.54L 244.19661016949152 202.124L 247.32881355932201 193.34L 250.46101694915254 204.2L 253.59322033898306 206L 256.72542372881355 206L 259.8576271186441 206L 262.9898305084746 206L 266.12203389830506 190.472L 269.25423728813564 159.01999999999998L 272.3864406779661 193.56799999999998L 275.51864406779663 200.228L 278.65084745762715 193.232L 281.7830508474576 196.82L 284.91525423728814 199.772L 288.04745762711866 186.548L 291.1796610169491 197.888L 294.31186440677965 195.596L 297.44406779661017 190.508L 300.57627118644064 194.876L 303.7084745762712 190.4L 306.8406779661017 188.756L 309.9728813559322 197.852L 313.1050847457627 199.772L 316.23728813559325 191.936L 319.3694915254237 191.864L 322.50169491525423 199.316L 325.63389830508476 194.72L 328.7661016949153 192.608L 331.8983050847458 194.9L 335.03050847457627 199.7L 338.1627118644068 189.224L 341.2949152542373 198.428L 344.4271186440678 196.136L 347.5593220338983 195.296L 350.6915254237288 196.268L 353.8237288135593 193.184L 356.9559322033898 197.204L 360.08813559322033 193.856L 363.22033898305085 197.096L 366.3525423728813 178.16L 369.48474576271184 194.372L 372.61694915254236 195.92000000000002L 375.7491525423729 195.11599999999999L 378.8813559322034 196.688L 382.01355932203387 197.49200000000002L 385.1457627118644 197.696L 388.2779661016949 186.848L 391.41016949152544 192.644L 394.54237288135596 199.61599999999999L 397.6745762711864 193.052L 400.80677966101695 191.072L 403.93898305084747 195.44L 407.071186440678 196.184L 410.2033898305085 196.46L 413.335593220339 197.312L 416.4677966101695 193.076L 419.6 206L 422.73220338983054 186.44L 425.86440677966107 186.632L 428.9966101694915 191.276L 432.128813559322 180.93200000000002L 435.2610169491525 201.704L 438.39322033898304 185.744L 441.52542372881356 196.028L 444.65762711864403 189.464L 447.78983050847455 194.228L 450.9220338983051 195.632L 454.0542372881356 196.844L 457.1864406779661 186.332L 460.3186440677966 197.99599999999998L 463.4508474576271 188.924L 466.5830508474576 189.128L 469.71525423728815 196.748L 472.8474576271187 182.45600000000002L 475.97966101694914 184.16L 479.11186440677966 206L 482.2440677966102 206L 485.3762711864407 206L 488.5084745762712 160.16L 491.6406779661017 198.536L 494.7728813559322 196.60399999999998L 497.90508474576274 195.668L 501.03728813559326 192.8L 504.1694915254237 196.964L 507.30169491525425 197.828L 510.43389830508477 200.84L 513.5661016949152 170.312L 516.6983050847458 189.236L 519.8305084745763 177.428L 522.9627118644069 191.564L 526.0949152542373 178.784L 529.2271186440678 176.372L 532.3593220338983 181.7L 535.4915254237288 187.472L 538.6237288135593 192.88400000000001L 541.7559322033899 189.38L 544.8881355932203 187.772L 548.0203389830509 189.404L 551.1525423728813 187.532L 554.2847457627117 193.59199999999998L 557.4169491525424 185.036L 560.5491525423729 171.332L 563.6813559322034 180.14L 566.8135593220338 172.316L 569.9457627118644 193.028L 573.0779661016949 191.996L 576.2101694915254 193.052L 579.3423728813559 194.84L 582.4745762711865 193.53199999999998L 585.606779661017 194.024L 588.7389830508474 189.272L 591.8711864406779 195.188L 595.0033898305085 196.256L 598.1355932203389 192.62L 601.2677966101695 190.844L 604.4 200.984L 607.5322033898306 184.796L 610.664406779661 190.88L 613.7966101694916 194.42000000000002L 616.9288135593221 189.86L 620.0610169491525 195.86L 623.193220338983 191.984L 626.3254237288136 193.1L 629.457627118644 186.464L 632.5898305084746 190.46L 635.7220338983051 182.156L 638.8542372881356 187.136L 641.9864406779661 191.528L 645.1186440677966 184.1L 648.2508474576272 189.14L 651.3830508474576 185.204L 654.5152542372881 185.468L 657.6474576271186 176.828L 660.7796610169491 189.04399999999998L 663.9118644067796 191.048L 667.0440677966102 188.756L 670.1762711864407 187.592L 673.3084745762712 191.39600000000002L 676.4406779661017 187.796L 679.5728813559323 188.228L 682.7050847457626 190.268L 685.8372881355932 194.372L 688.9694915254237 194.72L 692.1016949152543 201.308L 695.2338983050847 192.752L 698.3661016949153 181.148L 701.4983050847458 181.748L 704.6305084745763 181.208L 707.7627118644068 191.3L 710.8949152542373 186.88400000000001L 714.0271186440677 181.376L 717.1593220338983 186.5L 720.2915254237288 188.44400000000002L 723.4237288135593 179.66L 726.5559322033898 183.09199999999998L 729.6881355932203 173.564L 732.8203389830509 183.836L 735.9525423728813 171.668L 739.0847457627119 148.148L 742.2169491525424 178.004L 745.3491525423728 141.86L 748.4813559322033 186.128L 751.6135593220339 188.54000000000002L 754.7457627118644 187.748L 757.8779661016949 193.256L 761.0101694915254 186.596L 764.142372881356 185.42000000000002L 767.2745762711864 186.872L 770.406779661017 185.372L 773.5389830508475 192.824L 776.671186440678 188.552L 779.8033898305084 189.32L 782.935593220339 186.632L 786.0677966101695 185.768L 789.2 188.744L 792.3322033898305 187.34L 795.4644067796611 192.488L 798.5966101694916 187.028L 801.7288135593221 185.468L 804.8610169491525 181.928L 807.993220338983 183.8L 811.1254237288135 180.296L 814.257627118644 185.516L 817.3898305084746 194L 820.522033898305 190.328L 823.6542372881356 186.584L 826.7864406779661 168.32L 829.9186440677967 117.5L 833.0508474576271 189.10399999999998L 836.1830508474576 187.844L 839.3152542372881 190.28L 842.4474576271186 192.32L 845.5796610169491 189.2L 848.7118644067797 182.288L 851.8440677966101 188.49200000000002L 854.9762711864407 178.916L 858.1084745762712 53.432000000000016L 861.2406779661018 162.656L 864.3728813559322 184.52L 867.5050847457627 182.708L 870.6372881355932 183.68L 873.7694915254237 184.196L 876.9016949152542 179.084L 880.0338983050848 190.16L 883.1661016949153 180.476L 886.2983050847458 160.916L 889.4305084745763 121.196L 892.5627118644068 151.50799999999998L 895.6949152542373 164.132L 898.8271186440677 181.184L 901.9593220338983 170.49200000000002L 905.0915254237287 179.792L 908.2237288135593 173.204L 911.3559322033898 178.352L 914.4881355932204 182.792L 917.6203389830508 177.152L 920.7525423728814 184.232L 923.8847457627119 187.796L 927.0169491525425 188.348L 930.1491525423728 184.736L 933.2813559322034 181.892L 936.4135593220338 181.796L 939.5457627118644 179.36L 942.6779661016949 168.176L 945.8101694915255 181.808L 948.9423728813559 185.372L 952.0745762711865 167.708L 955.206779661017 140.6L 958.3389830508474 160.784L 961.4711864406779 151.664L 964.6033898305085 145.952L 967.735593220339 155.288L 970.8677966101695 153.68L 974 179.252" stroke-width="2.0" fill="none" />
    
        
        
        <text x="45.0" font-family="-apple-system, system-ui, BlinkMacSystemFont, Roboto" y="50.0" dominant-baseline="middle" text-anchor="end" font-size="12" fill="#24292f">13000.0</text>
        
            
            <path stroke="#74838f" stroke-dasharray="10 6" stroke-width="0.5"  d="M 50.0 50.0 L 974.0 50.0" />
        
    
        
        
        <text x="45.0" font-family="-apple-system, system-ui, BlinkMacSystemFont, Roboto" y="81.2" dominant-baseline="middle" text-anchor="end" font-size="12" fill="#24292f">10400.0</text>
        
            
            
            <path stroke="#74838f" stroke-dasharray="10 6" stroke-width="0.5"  d="M 50.0 81.2 L 974.0 81.2" />
        
    
        
        
        <text x="45.0" font-family="-apple-system, system-ui, BlinkMacSystemFont, Roboto" y="112.4" dominant-baseline="middle" text-anchor="end" font-size="12" fill="#24292f">7800.0</text>
        
            
            
            <path stroke="#74838f" stroke-dasharray="10 6" stroke-width="0.5"  d="M 50.0 112.4 L 974.0 112.4" />
        
    
        
        
        <text x="45.0" font-family="-apple-system, system-ui, BlinkMacSystemFont, Roboto" y="143.6" dominant-baseline="middle" text-anchor="end" font-size="12" fill="#24292f">5200.0</text>
        
            
            
            <path stroke="#74838f" stroke-dasharray="10 6" stroke-width="0.5"  d="M 50.0 143.6 L 974.0 143.6" />
        
    
        
        
        <text x="45.0" font-family="-apple-system, system-ui, BlinkMacSystemFont, Roboto" y="174.8" dominant-baseline="middle" text-anchor="end" font-size="12" fill="#24292f">2600.0</text>
        
            
            
            <path stroke="#74838f" stroke-dasharray="10 6" stroke-width="0.5"  d="M 50.0 174.8 L 974.0 174.8" />
        
    
        
        
        <text x="45.0" font-family="-apple-system, system-ui, BlinkMacSystemFont, Roboto" y="206.0" dominant-baseline="middle" text-anchor="end" font-size="12" fill="#24292f">0.0</text>
        
    
    
        
        <path stroke="#74838f"  stroke-width="2.0"  d="M 100.11525423728813 206.0 L 100.11525423728813 214.0" />
        <text x="100.11525423728813" font-family="-apple-system, system-ui, BlinkMacSystemFont, Roboto" y="216.0" dominant-baseline="hanging" text-anchor="middle" font-size="12" fill="#24292f">Mar 2022</text>
    
        
        <path stroke="#74838f"  stroke-width="2.0"  d="M 197.2135593220339 206.0 L 197.2135593220339 214.0" />
        <text x="197.2135593220339" font-family="-apple-system, system-ui, BlinkMacSystemFont, Roboto" y="216.0" dominant-baseline="hanging" text-anchor="middle" font-size="12" fill="#24292f">Apr 2022</text>
    
        
        <path stroke="#74838f"  stroke-width="2.0"  d="M 291.1796610169491 206.0 L 291.1796610169491 214.0" />
        <text x="291.1796610169491" font-family="-apple-system, system-ui, BlinkMacSystemFont, Roboto" y="216.0" dominant-baseline="hanging" text-anchor="middle" font-size="12" fill="#24292f">May 2022</text>
    
        
        <path stroke="#74838f"  stroke-width="2.0"  d="M 388.2779661016949 206.0 L 388.2779661016949 214.0" />
        <text x="388.2779661016949" font-family="-apple-system, system-ui, BlinkMacSystemFont, Roboto" y="216.0" dominant-baseline="hanging" text-anchor="middle" font-size="12" fill="#24292f">Jun 2022</text>
    
        
        <path stroke="#74838f"  stroke-width="2.0"  d="M 482.2440677966102 206.0 L 482.2440677966102 214.0" />
        <text x="482.2440677966102" font-family="-apple-system, system-ui, BlinkMacSystemFont, Roboto" y="216.0" dominant-baseline="hanging" text-anchor="middle" font-size="12" fill="#24292f">Jul 2022</text>
    
        
        <path stroke="#74838f"  stroke-width="2.0"  d="M 579.3423728813559 206.0 L 579.3423728813559 214.0" />
        <text x="579.3423728813559" font-family="-apple-system, system-ui, BlinkMacSystemFont, Roboto" y="216.0" dominant-baseline="hanging" text-anchor="middle" font-size="12" fill="#24292f">Aug 2022</text>
    
        
        <path stroke="#74838f"  stroke-width="2.0"  d="M 676.4406779661017 206.0 L 676.4406779661017 214.0" />
        <text x="676.4406779661017" font-family="-apple-system, system-ui, BlinkMacSystemFont, Roboto" y="216.0" dominant-baseline="hanging" text-anchor="middle" font-size="12" fill="#24292f">Sep 2022</text>
    
        
        <path stroke="#74838f"  stroke-width="2.0"  d="M 770.406779661017 206.0 L 770.406779661017 214.0" />
        <text x="770.406779661017" font-family="-apple-system, system-ui, BlinkMacSystemFont, Roboto" y="216.0" dominant-baseline="hanging" text-anchor="middle" font-size="12" fill="#24292f">Oct 2022</text>
    
        
        <path stroke="#74838f"  stroke-width="2.0"  d="M 867.5050847457627 206.0 L 867.5050847457627 214.0" />
        <text x="867.5050847457627" font-family="-apple-system, system-ui, BlinkMacSystemFont, Roboto" y="216.0" dominant-baseline="hanging" text-anchor="middle" font-size="12" fill="#24292f">Nov 2022</text>
    
        
        <path stroke="#74838f"  stroke-width="2.0"  d="M 961.4711864406779 206.0 L 961.4711864406779 214.0" />
        <text x="961.4711864406779" font-family="-apple-system, system-ui, BlinkMacSystemFont, Roboto" y="216.0" dominant-baseline="hanging" text-anchor="middle" font-size="12" fill="#24292f">Dec 2022</text>
    
    <path stroke="#74838f"   stroke-linejoin="round" stroke-width="2.0" d="M 50.0 216.0 L 50.0 206.0 L 974.0 206.0 L 974.0 216.0"  fill="none" />
    <text x="512.0" y="25.0" font-family="-apple-system, system-ui, BlinkMacSystemFont, Roboto" dominant-baseline="middle" text-anchor="middle" font-size="18" fill="#24292f">Total daily suspensions</text>
</svg>
