<?xml version="1.0" standalone="no"?>
<svg width="1024.0" height="256.0"  viewBox="0 0 1024.0 256.0" preserveAspectRatio="xMidYMid meet" xmlns="http://www.w3.org/2000/svg">
    <path stroke="#e74c3c" stroke-linejoin="round" d="M 50.0 161.108 L 50 161.108L 52.0625 193.664L 54.125 197.576L 56.1875 197.924L 58.25 203.528L 60.3125 199.94L 62.375 199.268L 64.4375 191.108L 66.5 200.972L 68.5625 198.62L 70.625 200L 72.6875 202.57999999999998L 74.75 199.208L 76.8125 195.608L 78.875 202.652L 80.9375 198.716L 83 197.49200000000002L 85.0625 191.42000000000002L 87.125 196.688L 89.1875 199.46L 91.25 199.328L 93.3125 198.308L 95.375 198.164L 97.4375 199.832L 99.5 194.876L 101.5625 199.904L 103.625 195.584L 105.6875 200.732L 107.75 198.416L 109.8125 190.652L 111.875 196.112L 113.9375 190.82L 116 193.53199999999998L 118.0625 199.688L 120.125 192.392L 122.1875 197L 124.25 199.59199999999998L 126.3125 193.54399999999998L 128.375 195.26L 130.4375 195.428L 132.5 195.548L 134.5625 196.484L 136.625 199.424L 138.6875 199.22L 140.75 195.656L 142.8125 193.952L 144.875 195.536L 146.9375 198.764L 149 195.428L 151.0625 194L 153.125 193.688L 155.1875 186.32L 157.25 197.372L 159.3125 195.96800000000002L 161.375 198.284L 163.4375 194.38400000000001L 165.5 196.424L 167.5625 196.988L 169.625 198.368L 171.6875 198.05599999999998L 173.75 199.61599999999999L 175.8125 191.54L 177.875 202.124L 179.9375 193.34L 182 204.2L 184.0625 206L 186.125 206L 188.1875 206L 190.25 206L 192.3125 190.472L 194.375 159.01999999999998L 196.4375 193.56799999999998L 198.5 200.228L 200.5625 193.232L 202.625 196.82L 204.6875 199.772L 206.75 186.548L 208.8125 197.888L 210.875 195.596L 212.9375 190.508L 215 194.876L 217.0625 190.4L 219.125 188.756L 221.1875 197.852L 223.25 199.772L 225.3125 191.936L 227.375 191.864L 229.4375 199.316L 231.5 194.72L 233.5625 192.608L 235.625 194.9L 237.6875 199.7L 239.75 189.224L 241.8125 198.428L 243.875 196.136L 245.9375 195.296L 248 196.268L 250.0625 193.184L 252.125 197.204L 254.1875 193.856L 256.25 197.096L 258.3125 178.16L 260.375 194.372L 262.4375 195.92000000000002L 264.5 195.11599999999999L 266.5625 196.688L 268.625 197.49200000000002L 270.6875 197.696L 272.75 186.848L 274.8125 192.644L 276.875 199.61599999999999L 278.9375 193.052L 281 191.072L 283.0625 195.44L 285.125 196.184L 287.1875 196.46L 289.25 197.312L 291.3125 193.076L 293.375 206L 295.4375 186.44L 297.5 186.632L 299.5625 191.276L 301.625 180.93200000000002L 303.6875 201.704L 305.75 185.744L 307.8125 196.028L 309.875 189.464L 311.9375 194.228L 314 195.632L 316.0625 196.844L 318.125 186.332L 320.1875 197.99599999999998L 322.25 188.924L 324.3125 189.128L 326.375 196.748L 328.4375 182.45600000000002L 330.5 184.16L 332.5625 206L 334.625 206L 336.6875 206L 338.75 160.16L 340.8125 198.536L 342.875 196.60399999999998L 344.9375 195.668L 347 192.8L 349.0625 196.964L 351.125 197.828L 353.1875 200.84L 355.25 170.312L 357.3125 189.236L 359.375 177.428L 361.4375 191.564L 363.5 178.784L 365.5625 176.372L 367.625 181.7L 369.6875 187.472L 371.75 192.88400000000001L 373.8125 189.38L 375.875 187.772L 377.9375 189.404L 380 187.532L 382.0625 193.59199999999998L 384.125 185.036L 386.1875 171.332L 388.25 180.14L 390.3125 172.316L 392.375 193.028L 394.4375 191.996L 396.5 193.052L 398.5625 194.84L 400.625 193.53199999999998L 402.6875 194.024L 404.75 189.272L 406.8125 195.188L 408.875 196.256L 410.9375 192.62L 413 190.844L 415.0625 200.984L 417.125 184.796L 419.1875 190.88L 421.25 194.42000000000002L 423.3125 189.86L 425.375 195.86L 427.4375 191.984L 429.5 193.1L 431.5625 186.464L 433.625 190.46L 435.6875 182.156L 437.75 187.136L 439.8125 191.528L 441.875 184.1L 443.9375 189.14L 446 185.204L 448.0625 185.468L 450.125 176.816L 452.1875 189.04399999999998L 454.25 191.048L 456.3125 188.756L 458.375 187.592L 460.4375 191.39600000000002L 462.5 187.796L 464.5625 188.228L 466.625 190.268L 468.6875 194.372L 470.75 194.72L 472.8125 201.308L 474.875 192.752L 476.9375 181.148L 479 181.748L 481.0625 181.208L 483.125 191.3L 485.1875 186.88400000000001L 487.25 181.376L 489.3125 186.5L 491.375 188.44400000000002L 493.4375 179.66L 495.5 183.09199999999998L 497.5625 173.564L 499.625 183.836L 501.6875 171.668L 503.75 148.148L 505.8125 178.004L 507.875 141.86L 509.9375 186.128L 512 188.54000000000002L 514.0625 187.748L 516.125 193.256L 518.1875 186.596L 520.25 185.42000000000002L 522.3125 186.872L 524.375 185.372L 526.4375 192.824L 528.5 188.552L 530.5625 189.32L 532.625 186.632L 534.6875 185.768L 536.75 188.744L 538.8125 187.34L 540.875 192.488L 542.9375 187.028L 545 185.468L 547.0625 181.928L 549.125 183.8L 551.1875 180.296L 553.25 185.516L 555.3125 194L 557.375 190.328L 559.4375 186.584L 561.5 168.32L 563.5625 117.5L 565.625 189.10399999999998L 567.6875 187.844L 569.75 190.28L 571.8125 192.32L 573.875 189.2L 575.9375 182.288L 578 188.49200000000002L 580.0625 178.916L 582.125 53.432000000000016L 584.1875 162.656L 586.25 184.52L 588.3125 182.708L 590.375 183.68L 592.4375 184.196L 594.5 179.084L 596.5625 190.16L 598.625 180.476L 600.6875 160.916L 602.75 121.196L 604.8125 151.50799999999998L 606.875 164.132L 608.9375 181.184L 611 170.49200000000002L 613.0625 179.792L 615.125 173.204L 617.1875 178.352L 619.25 182.792L 621.3125 177.152L 623.375 184.232L 625.4375 187.796L 627.5 188.348L 629.5625 184.736L 631.625 181.892L 633.6875 181.796L 635.75 179.36L 637.8125 168.176L 639.875 181.808L 641.9375 185.372L 644 167.708L 646.0625 140.6L 648.125 160.784L 650.1875 151.664L 652.25 145.952L 654.3125 155.288L 656.375 153.68L 658.4375 163.04L 660.5 172.064L 662.5625 148.952L 664.625 171.812L 666.6875 172.46L 668.75 172.508L 670.8125 183.644L 672.875 166.304L 674.9375 159.26L 677 172.652L 679.0625 165.5L 681.125 154.892L 683.1875 173.888L 685.25 176.3L 687.3125 186.5L 689.375 183.932L 691.4375 183.10399999999998L 693.5 150.128L 695.5625 183.11599999999999L 697.625 186.152L 699.6875 185.096L 701.75 182.276L 703.8125 182.18L 705.875 182.144L 707.9375 174.956L 710 181.988L 712.0625 179.504L 714.125 184.784L 716.1875 179L 718.25 175.868L 720.3125 177.14L 722.375 178.832L 724.4375 182.216L 726.5 176.444L 728.5625 182.576L 730.625 177.02L 732.6875 178.58L 734.75 182.144L 736.8125 179.48L 738.875 176.972L 740.9375 186.164L 743 176.096L 745.0625 178.04L 747.125 152.996L 749.1875 130.724L 751.25 149.888L 753.3125 149.48L 755.375 184.1L 757.4375 184.484L 759.5 177.56L 761.5625 139.952L 763.625 148.028L 765.6875 162.428L 767.75 136.244L 769.8125 132.128L 771.875 142.508L 773.9375 143.252L 776 125.732L 778.0625 117.06800000000001L 780.125 164.264L 782.1875 161.876L 784.25 158.636L 786.3125 176.40800000000002L 788.375 186.632L 790.4375 187.352L 792.5 186.152L 794.5625 174.932L 796.625 178.388L 798.6875 194.636L 800.75 184.748L 802.8125 182.84L 804.875 173.78L 806.9375 177.56L 809 179.996L 811.0625 183.188L 813.125 153.68L 815.1875 147.548L 817.25 185.504L 819.3125 190.724L 821.375 174.752L 823.4375 174.32L 825.5 183.692L 827.5625 189.06799999999998L 829.625 186.88400000000001L 831.6875 179.096L 833.75 175.808L 835.8125 161.672L 837.875 160.424L 839.9375 165.632L 842 179.336L 844.0625 183.272L 846.125 191.024L 848.1875 195.14L 850.25 182.684L 852.3125 162.416L 854.375 169.712L 856.4375 168.536L 858.5 179.024L 860.5625 170.768L 862.625 161.9L 864.6875 170.012L 866.75 180.656L 868.8125 178.796L 870.875 164.648L 872.9375 152.95999999999998L 875 156.62L 877.0625 154.568L 879.125 142.088L 881.1875 156.704L 883.25 176.924L 885.3125 142.652L 887.375 131.372L 889.4375 137.276L 891.5 142.7L 893.5625 151.136L 895.625 138.02L 897.6875 110.324L 899.75 109.724L 901.8125 163.268L 903.875 161.996L 905.9375 148.016L 908 147.68L 910.0625 50.792L 912.125 121.652L 914.1875 58.615999999999985L 916.25 120.38L 918.3125 155.672L 920.375 145.76L 922.4375 133.54399999999998L 924.5 86.696L 926.5625 103.568L 928.625 139.208L 930.6875 155.876L 932.75 150.584L 934.8125 92L 936.875 148.052L 938.9375 113.132L 941 124.316L 943.0625 179.552L 945.125 134.45600000000002L 947.1875 119.44399999999999L 949.25 100.71199999999999L 951.3125 139.292L 953.375 162.632L 955.4375 158.768L 957.5 152.6L 959.5625 173.828L 961.625 144.596L 963.6875 151.208L 965.75 140.39600000000002L 967.8125 128.096L 969.875 84.02L 971.9375 173.276L 974 155.636" stroke-width="2.0" fill="none" />
    
        
        
        <text x="45.0" font-family="-apple-system, system-ui, BlinkMacSystemFont, Roboto" y="50.0" dominant-baseline="middle" text-anchor="end" font-size="12" fill="#24292f">13000.0</text>
        
            
            <path stroke="#74838f" stroke-dasharray="10 6" stroke-width="0.5"  d="M 50.0 50.0 L 974.0 50.0" />
        
    
        
        
        <text x="45.0" font-family="-apple-system, system-ui, BlinkMacSystemFont, Roboto" y="81.2" dominant-baseline="middle" text-anchor="end" font-size="12" fill="#24292f">10400.0</text>
        
            
            
            <path stroke="#74838f" stroke-dasharray="10 6" stroke-width="0.5"  d="M 50.0 81.2 L 974.0 81.2" />
        
    
        
        
        <text x="45.0" font-family="-apple-system, system-ui, BlinkMacSystemFont, Roboto" y="112.4" dominant-baseline="middle" text-anchor="end" font-size="12" fill="#24292f">7800.0</text>
        
            
            
            <path stroke="#74838f" stroke-dasharray="10 6" stroke-width="0.5"  d="M 50.0 112.4 L 974.0 112.4" />
        
    
        
        
        <text x="45.0" font-family="-apple-system, system-ui, BlinkMacSystemFont, Roboto" y="143.6" dominant-baseline="middle" text-anchor="end" font-size="12" fill="#24292f">5200.0</text>
        
            
            
            <path stroke="#74838f" stroke-dasharray="10 6" stroke-width="0.5"  d="M 50.0 143.6 L 974.0 143.6" />
        
    
        
        
        <text x="45.0" font-family="-apple-system, system-ui, BlinkMacSystemFont, Roboto" y="174.8" dominant-baseline="middle" text-anchor="end" font-size="12" fill="#24292f">2600.0</text>
        
            
            
            <path stroke="#74838f" stroke-dasharray="10 6" stroke-width="0.5"  d="M 50.0 174.8 L 974.0 174.8" />
        
    
        
        
        <text x="45.0" font-family="-apple-system, system-ui, BlinkMacSystemFont, Roboto" y="206.0" dominant-baseline="middle" text-anchor="end" font-size="12" fill="#24292f">0.0</text>
        
    
    
        
        <path stroke="#74838f"  stroke-width="2.0"  d="M 83.0 206.0 L 83.0 214.0" />
        <text x="83.0" font-family="-apple-system, system-ui, BlinkMacSystemFont, Roboto" y="216.0" dominant-baseline="hanging" text-anchor="middle" font-size="12" fill="#24292f">Mar 2022</text>
    
        
        <path stroke="#74838f"  stroke-width="2.0"  d="M 146.9375 206.0 L 146.9375 214.0" />
        <text x="146.9375" font-family="-apple-system, system-ui, BlinkMacSystemFont, Roboto" y="216.0" dominant-baseline="hanging" text-anchor="middle" font-size="12" fill="#24292f">Apr 2022</text>
    
        
        <path stroke="#74838f"  stroke-width="2.0"  d="M 208.8125 206.0 L 208.8125 214.0" />
        <text x="208.8125" font-family="-apple-system, system-ui, BlinkMacSystemFont, Roboto" y="216.0" dominant-baseline="hanging" text-anchor="middle" font-size="12" fill="#24292f">May 2022</text>
    
        
        <path stroke="#74838f"  stroke-width="2.0"  d="M 272.75 206.0 L 272.75 214.0" />
        <text x="272.75" font-family="-apple-system, system-ui, BlinkMacSystemFont, Roboto" y="216.0" dominant-baseline="hanging" text-anchor="middle" font-size="12" fill="#24292f">Jun 2022</text>
    
        
        <path stroke="#74838f"  stroke-width="2.0"  d="M 334.625 206.0 L 334.625 214.0" />
        <text x="334.625" font-family="-apple-system, system-ui, BlinkMacSystemFont, Roboto" y="216.0" dominant-baseline="hanging" text-anchor="middle" font-size="12" fill="#24292f">Jul 2022</text>
    
        
        <path stroke="#74838f"  stroke-width="2.0"  d="M 398.5625 206.0 L 398.5625 214.0" />
        <text x="398.5625" font-family="-apple-system, system-ui, BlinkMacSystemFont, Roboto" y="216.0" dominant-baseline="hanging" text-anchor="middle" font-size="12" fill="#24292f">Aug 2022</text>
    
        
        <path stroke="#74838f"  stroke-width="2.0"  d="M 462.5 206.0 L 462.5 214.0" />
        <text x="462.5" font-family="-apple-system, system-ui, BlinkMacSystemFont, Roboto" y="216.0" dominant-baseline="hanging" text-anchor="middle" font-size="12" fill="#24292f">Sep 2022</text>
    
        
        <path stroke="#74838f"  stroke-width="2.0"  d="M 524.375 206.0 L 524.375 214.0" />
        <text x="524.375" font-family="-apple-system, system-ui, BlinkMacSystemFont, Roboto" y="216.0" dominant-baseline="hanging" text-anchor="middle" font-size="12" fill="#24292f">Oct 2022</text>
    
        
        <path stroke="#74838f"  stroke-width="2.0"  d="M 588.3125 206.0 L 588.3125 214.0" />
        <text x="588.3125" font-family="-apple-system, system-ui, BlinkMacSystemFont, Roboto" y="216.0" dominant-baseline="hanging" text-anchor="middle" font-size="12" fill="#24292f">Nov 2022</text>
    
        
        <path stroke="#74838f"  stroke-width="2.0"  d="M 650.1875 206.0 L 650.1875 214.0" />
        <text x="650.1875" font-family="-apple-system, system-ui, BlinkMacSystemFont, Roboto" y="216.0" dominant-baseline="hanging" text-anchor="middle" font-size="12" fill="#24292f">Dec 2022</text>
    
        
        <path stroke="#74838f"  stroke-width="2.0"  d="M 714.125 206.0 L 714.125 214.0" />
        <text x="714.125" font-family="-apple-system, system-ui, BlinkMacSystemFont, Roboto" y="216.0" dominant-baseline="hanging" text-anchor="middle" font-size="12" fill="#24292f">Jan 2023</text>
    
        
        <path stroke="#74838f"  stroke-width="2.0"  d="M 778.0625 206.0 L 778.0625 214.0" />
        <text x="778.0625" font-family="-apple-system, system-ui, BlinkMacSystemFont, Roboto" y="216.0" dominant-baseline="hanging" text-anchor="middle" font-size="12" fill="#24292f">Feb 2023</text>
    
        
        <path stroke="#74838f"  stroke-width="2.0"  d="M 835.8125 206.0 L 835.8125 214.0" />
        <text x="835.8125" font-family="-apple-system, system-ui, BlinkMacSystemFont, Roboto" y="216.0" dominant-baseline="hanging" text-anchor="middle" font-size="12" fill="#24292f">Mar 2023</text>
    
        
        <path stroke="#74838f"  stroke-width="2.0"  d="M 899.75 206.0 L 899.75 214.0" />
        <text x="899.75" font-family="-apple-system, system-ui, BlinkMacSystemFont, Roboto" y="216.0" dominant-baseline="hanging" text-anchor="middle" font-size="12" fill="#24292f">Apr 2023</text>
    
        
        <path stroke="#74838f"  stroke-width="2.0"  d="M 961.625 206.0 L 961.625 214.0" />
        <text x="961.625" font-family="-apple-system, system-ui, BlinkMacSystemFont, Roboto" y="216.0" dominant-baseline="hanging" text-anchor="middle" font-size="12" fill="#24292f">May 2023</text>
    
    <path stroke="#74838f"   stroke-linejoin="round" stroke-width="2.0" d="M 50.0 216.0 L 50.0 206.0 L 974.0 206.0 L 974.0 216.0"  fill="none" />
    <text x="512.0" y="25.0" font-family="-apple-system, system-ui, BlinkMacSystemFont, Roboto" dominant-baseline="middle" text-anchor="middle" font-size="18" fill="#24292f">Total daily suspensions</text>
</svg>
