<?xml version="1.0" standalone="no"?>
<svg width="1024.0" height="256.0"  viewBox="0 0 1024.0 256.0" preserveAspectRatio="xMidYMid meet" xmlns="http://www.w3.org/2000/svg">
    <path stroke="#e74c3c" stroke-linejoin="round" d="M 50.0 162.77066666666667 L 50 162.77066666666667L 51.92099792099792 194.12088888888889L 53.84199584199584 197.888L 55.762993762993766 198.2231111111111L 57.683991683991685 203.61955555555556L 59.604989604989605 200.16444444444443L 61.525987525987524 199.51733333333334L 63.44698544698545 191.65955555555556L 65.36798336798337 201.1582222222222L 67.28898128898129 198.89333333333332L 69.20997920997921 200.22222222222223L 71.13097713097713 202.70666666666665L 73.05197505197505 199.45955555555554L 74.97297297297297 195.9928888888889L 76.8939708939709 202.776L 78.81496881496882 198.98577777777777L 80.73596673596674 197.8071111111111L 82.65696465696466 191.96L 84.57796257796258 197.0328888888889L 86.4989604989605 199.70222222222222L 88.41995841995842 199.5751111111111L 90.34095634095635 198.5928888888889L 92.26195426195426 198.45422222222223L 94.18295218295219 200.06044444444444L 96.1039501039501 195.288L 98.02494802494803 200.12977777777778L 99.94594594594595 195.96977777777778L 101.86694386694387 200.92711111111112L 103.78794178794179 198.6968888888889L 105.70893970893971 191.22044444444444L 107.62993762993764 196.47822222222223L 109.55093555093555 191.38222222222223L 111.47193347193348 193.99377777777778L 113.39293139293139 199.92177777777778L 115.31392931392932 192.89600000000002L 117.23492723492724 197.33333333333334L 119.15592515592516 199.82933333333332L 121.07692307692308 194.00533333333334L 122.997920997921 195.65777777777777L 124.91891891891892 195.81955555555555L 126.83991683991684 195.9351111111111L 128.76091476091477 196.83644444444445L 130.6819126819127 199.66755555555557L 132.6029106029106 199.4711111111111L 134.52390852390852 196.0391111111111L 136.44490644490645 194.39822222222222L 138.36590436590438 195.92355555555554L 140.2869022869023 199.03199999999998L 142.2079002079002 195.81955555555555L 144.12889812889813 194.44444444444446L 146.04989604989606 194.144L 147.970893970894 187.04888888888888L 149.8918918918919 197.69155555555557L 151.8128898128898 196.33955555555556L 153.73388773388774 198.56977777777777L 155.65488565488567 194.8142222222222L 157.57588357588358 196.77866666666665L 159.49688149688149 197.32177777777778L 161.41787941787942 198.65066666666667L 163.33887733887735 198.35022222222221L 165.2598752598753 199.85244444444444L 167.1808731808732 192.07555555555555L 169.1018711018711 202.26755555555556L 171.02286902286903 193.80888888888887L 172.94386694386696 204.26666666666665L 174.86486486486487 206L 176.78586278586278 206L 178.7068607068607 206L 180.62785862785864 206L 182.54885654885655 191.04711111111112L 184.46985446985448 160.76L 186.3908523908524 194.02844444444446L 188.31185031185032 200.4417777777778L 190.23284823284823 193.7048888888889L 192.15384615384616 197.16L 194.0748440748441 200.00266666666667L 195.995841995842 187.26844444444444L 197.91683991683993 198.18844444444443L 199.83783783783784 195.98133333333334L 201.75883575883577 191.08177777777777L 203.67983367983368 195.288L 205.6008316008316 190.97777777777776L 207.52182952182952 189.39466666666667L 209.44282744282745 198.15377777777778L 211.36382536382538 200.00266666666667L 213.2848232848233 192.4568888888889L 215.20582120582122 192.38755555555556L 217.12681912681913 199.56355555555555L 219.04781704781706 195.13777777777779L 220.96881496881497 193.10399999999998L 222.8898128898129 195.3111111111111L 224.8108108108108 199.93333333333334L 226.73180873180874 189.84533333333331L 228.65280665280667 198.70844444444444L 230.57380457380458 196.50133333333332L 232.4948024948025 195.69244444444445L 234.41580041580042 196.62844444444445L 236.33679833679835 193.65866666666668L 238.25779625779626 197.52977777777778L 240.1787941787942 194.3057777777778L 242.0997920997921 197.4257777777778L 244.02079002079003 179.19111111111113L 245.94178794178796 194.80266666666665L 247.86278586278587 196.29333333333335L 249.7837837837838 195.5191111111111L 251.7047817047817 197.0328888888889L 253.62577962577964 197.8071111111111L 255.54677754677755 198.00355555555555L 257.4677754677755 187.55733333333333L 259.3887733887734 193.13866666666667L 261.30977130977135 199.85244444444444L 263.2307692307693 193.53155555555554L 265.15176715176716 191.6248888888889L 267.0727650727651 195.8311111111111L 268.99376299376297 196.54755555555556L 270.9147609147609 196.81333333333333L 272.83575883575884 197.63377777777777L 274.7567567567568 193.55466666666666L 276.6777546777547 206L 278.59875259875264 187.16444444444446L 280.5197505197506 187.34933333333333L 282.44074844074845 191.8213333333333L 284.3617463617464 181.86044444444445L 286.28274428274426 201.8631111111111L 288.2037422037422 186.49422222222222L 290.12474012474013 196.39733333333334L 292.04573804573806 190.07644444444443L 293.966735966736 194.664L 295.88773388773393 196.016L 297.80873180873186 197.18311111111112L 299.72972972972974 187.06044444444444L 301.6507276507277 198.29244444444444L 303.57172557172555 189.55644444444445L 305.4927234927235 189.7528888888889L 307.4137214137214 197.09066666666666L 309.33471933471935 183.328L 311.2557172557173 184.9688888888889L 313.17671517671516 206L 315.0977130977131 206L 317.01871101871103 206L 318.93970893970896 161.85777777777778L 320.8607068607069 198.81244444444445L 322.7817047817048 196.952L 324.7027027027027 196.05066666666667L 326.62370062370064 193.2888888888889L 328.5446985446986 197.29866666666666L 330.46569646569645 198.13066666666668L 332.3866943866944 201.0311111111111L 334.3076923076923 171.63377777777777L 336.22869022869025 189.85688888888888L 338.1496881496882 178.4862222222222L 340.07068607068607 192.09866666666667L 341.991683991684 179.792L 343.91268191268193 177.46933333333334L 345.83367983367987 182.6L 347.75467775467774 188.1582222222222L 349.6756756756757 193.36977777777778L 351.5966735966736 189.99555555555554L 353.51767151767154 188.4471111111111L 355.4386694386695 190.01866666666666L 357.35966735966736 188.216L 359.2806652806653 194.05155555555555L 361.2016632016632 185.81244444444445L 363.12266112266116 172.61599999999999L 365.04365904365903 181.09777777777776L 366.96465696465697 173.56355555555555L 368.8856548856549 193.50844444444445L 370.80665280665283 192.51466666666667L 372.72765072765077 193.53155555555554L 374.64864864864865 195.25333333333333L 376.5696465696466 193.99377777777778L 378.4906444906445 194.46755555555555L 380.41164241164245 189.89155555555556L 382.3326403326403 195.58844444444446L 384.25363825363826 196.6168888888889L 386.1746361746362 193.11555555555555L 388.0956340956341 191.40533333333332L 390.01663201663206 201.16977777777777L 391.93762993762994 185.58133333333333L 393.85862785862787 191.44L 395.7796257796258 194.8488888888889L 397.70062370062374 190.45777777777778L 399.6216216216216 196.23555555555555L 401.54261954261955 192.5031111111111L 403.4636174636175 193.57777777777778L 405.3846153846154 187.18755555555555L 407.30561330561335 191.03555555555556L 409.2266112266112 183.0391111111111L 411.14760914760916 187.83466666666666L 413.0686070686071 192.064L 414.989604989605 184.9111111111111L 416.9106029106029 189.76444444444445L 418.83160083160084 185.97422222222224L 420.7525987525988 186.22844444444445L 422.6735966735967 177.8968888888889L 424.59459459459464 189.672L 426.5155925155925 191.60177777777778L 428.43659043659045 189.39466666666667L 430.3575883575884 188.27377777777778L 432.2785862785863 191.9368888888889L 434.1995841995842 188.47022222222222L 436.1205821205821 188.88622222222222L 438.04158004158006 190.85066666666665L 439.962577962578 194.80266666666665L 441.88357588357593 195.13777777777779L 443.8045738045738 201.48177777777778L 445.72557172557174 193.24266666666665L 447.6465696465697 182.06844444444445L 449.5675675675676 182.64622222222224L 451.4885654885655 182.12622222222222L 453.4095634095634 191.84444444444443L 455.33056133056135 187.592L 457.2515592515593 182.288L 459.1725571725572 187.22222222222223L 461.0935550935551 189.09422222222221L 463.01455301455303 180.63555555555556L 464.93555093555096 183.94044444444444L 466.8565488565489 174.76533333333333L 468.7775467775468 184.6568888888889L 470.6985446985447 172.93955555555556L 472.61954261954264 150.29066666666665L 474.5405405405406 179.0408888888889L 476.4615384615385 144.23555555555555L 478.3825363825364 186.864L 480.3035343035343 189.18666666666667L 482.22453222453225 188.424L 484.1455301455302 193.728L 486.06652806652806 187.31466666666665L 487.987525987526 186.1822222222222L 489.90852390852393 187.58044444444445L 491.82952182952187 186.136L 493.7505197505198 193.312L 495.6715176715177 189.19822222222223L 497.5925155925156 189.9377777777778L 499.51351351351354 187.34933333333333L 501.4345114345115 186.51733333333334L 503.35550935550935 189.3831111111111L 505.2765072765073 188.0311111111111L 507.1975051975052 192.98844444444444L 509.11850311850316 187.73066666666668L 511.0395010395011 186.22844444444445L 512.9604989604989 182.81955555555555L 514.8814968814969 184.6222222222222L 516.8024948024947 181.248L 518.7234927234928 186.27466666666666L 520.6444906444906 194.44444444444446L 522.5654885654885 190.90844444444446L 524.4864864864865 187.30311111111112L 526.4074844074844 169.71555555555557L 528.3284823284823 120.77777777777779L 530.2494802494803 189.72977777777777L 532.1704781704782 188.51644444444446L 534.0914760914761 190.86222222222221L 536.0124740124741 192.82666666666665L 537.933471933472 189.82222222222222L 539.8544698544698 183.16622222222222L 541.7754677754679 189.14044444444443L 543.6964656964657 179.9191111111111L 545.6174636174637 59.082666666666654L 547.5384615384614 164.26133333333334L 549.4594594594595 185.31555555555556L 551.3804573804573 183.57066666666668L 553.3014553014553 184.50666666666666L 555.2224532224532 185.00355555555555L 557.1434511434511 180.0808888888889L 559.064449064449 190.74666666666667L 560.985446985447 181.42133333333334L 562.9064449064449 162.58577777777776L 564.8274428274428 124.3368888888889L 566.7484407484408 153.52622222222223L 568.6694386694387 165.68266666666668L 570.5904365904365 182.1031111111111L 572.5114345114346 171.8071111111111L 574.4324324324324 180.76266666666666L 576.3534303534303 174.41866666666667L 578.2744282744283 179.376L 580.1954261954262 183.65155555555555L 582.1164241164241 178.22044444444444L 584.0374220374221 185.03822222222223L 585.9584199584199 188.47022222222222L 587.8794178794179 189.00177777777776L 589.8004158004157 185.52355555555556L 591.7214137214138 182.7848888888889L 593.6424116424116 182.69244444444445L 595.5634095634096 180.34666666666666L 597.4844074844075 169.5768888888889L 599.4054054054054 182.704L 601.3264033264034 186.136L 603.2474012474013 169.12622222222222L 605.1683991683991 143.0222222222222L 607.0893970893972 162.45866666666666L 609.010395010395 153.67644444444443L 610.9313929313929 148.176L 612.8523908523908 157.16622222222222L 614.7733887733888 155.61777777777777L 616.6943866943867 164.63111111111112L 618.6153846153846 173.32088888888887L 620.5363825363825 151.0648888888889L 622.4573804573805 173.07822222222222L 624.3783783783783 173.70222222222222L 626.2993762993764 173.74844444444443L 628.2203742203742 184.472L 630.1413721413721 167.77422222222222L 632.0623700623701 160.9911111111111L 633.983367983368 173.8871111111111L 635.9043659043659 167L 637.8253638253639 156.78488888888887L 639.7463617463617 175.07733333333334L 641.6673596673597 177.4L 643.5883575883576 187.22222222222223L 645.5093555093555 184.74933333333334L 647.4303534303534 183.952L 649.3513513513514 152.19733333333335L 651.2723492723493 183.96355555555556L 653.1933471933472 186.8871111111111L 655.114345114345 185.87022222222222L 657.0353430353431 183.15466666666666L 658.9563409563409 183.06222222222223L 660.877338877339 183.02755555555555L 662.7983367983368 176.10577777777777L 664.7193347193347 182.87733333333333L 666.6403326403326 180.48533333333333L 668.5613305613306 185.56977777777777L 670.4823284823285 180L 672.4033264033264 176.984L 674.3243243243243 178.20888888888888L 676.2453222453223 179.8382222222222L 678.1663201663201 183.09688888888888L 680.0873180873181 177.53866666666667L 682.008316008316 183.44355555555555L 683.9293139293139 178.09333333333333L 685.8503118503119 179.59555555555556L 687.7713097713098 183.02755555555555L 689.6923076923076 180.4622222222222L 691.6133056133057 178.04711111111112L 693.5343035343035 186.89866666666666L 695.4553014553015 177.20355555555557L 697.3762993762994 179.07555555555555L 699.2972972972973 154.9591111111111L 701.2182952182952 133.512L 703.1392931392932 151.96622222222223L 705.0602910602911 151.57333333333332L 706.981288981289 184.9111111111111L 708.9022869022868 185.28088888888888L 710.8232848232849 178.61333333333334L 712.7442827442827 142.39822222222222L 714.6652806652806 150.1751111111111L 716.5862785862786 164.04177777777778L 718.5072765072765 138.82755555555556L 720.4282744282744 134.864L 722.3492723492724 144.85955555555557L 724.2702702702702 145.57600000000002L 726.1912681912683 128.7048888888889L 728.1122661122661 120.36177777777777L 730.0332640332641 165.80977777777778L 731.9542619542619 163.51022222222224L 733.8752598752599 160.39022222222223L 735.7962577962578 177.504L 737.7172557172557 187.34933333333333L 739.6382536382537 188.04266666666666L 741.5592515592516 186.8871111111111L 743.4802494802494 176.08266666666668L 745.4012474012475 179.41066666666666L 747.3222453222453 195.0568888888889L 749.2432432432432 185.53511111111112L 751.1642411642412 183.6977777777778L 753.0852390852391 174.97333333333333L 755.006237006237 178.61333333333334L 756.927234927235 180.9591111111111L 758.8482328482328 184.0328888888889L 760.7692307692308 155.61777777777777L 762.6902286902287 149.7128888888889L 764.6112266112267 186.2631111111111L 766.5322245322245 191.28977777777777L 768.4532224532225 175.90933333333334L 770.3742203742204 175.49333333333334L 772.2952182952183 184.51822222222222L 774.2162162162163 189.69511111111112L 776.1372141372142 187.592L 778.058212058212 180.09244444444445L 779.97920997921 176.92622222222224L 781.9002079002079 163.31377777777777L 783.8212058212058 162.112L 785.7422037422037 167.1271111111111L 787.6632016632017 180.32355555555554L 789.5841995841996 184.11377777777778L 791.5051975051975 191.57866666666666L 793.4261954261954 195.54222222222222L 795.3471933471934 183.54755555555556L 797.2681912681912 164.03022222222222L 799.1891891891893 171.05599999999998L 801.1101871101871 169.92355555555557L 803.031185031185 180.02311111111112L 804.952182952183 172.07288888888888L 806.8731808731809 163.53333333333333L 808.7941787941788 171.34488888888887L 810.7151767151768 181.59466666666668L 812.6361746361746 179.80355555555556L 814.5571725571726 166.17955555555557L 816.4781704781705 154.92444444444445L 818.3991683991684 158.4488888888889L 820.3201663201663 156.4728888888889L 822.2411642411643 144.4551111111111L 824.1621621621622 158.52977777777778L 826.0831600831601 178.00088888888888L 828.004158004158 144.99822222222224L 829.925155925156 134.136L 831.8461538461538 139.8213333333333L 833.7671517671519 145.04444444444445L 835.6881496881497 153.168L 837.6091476091476 140.53777777777776L 839.5301455301455 113.86755555555555L 841.4511434511435 113.28977777777777L 843.3721413721414 164.85066666666665L 845.2931392931393 163.62577777777778L 847.2141372141372 150.16355555555555L 849.1351351351352 149.84L 851.056133056133 56.54044444444443L 852.977130977131 124.776L 854.8981288981289 64.07466666666667L 856.8191268191268 123.55111111111111L 858.7401247401248 157.536L 860.6611226611227 147.9911111111111L 862.5821205821205 136.22755555555557L 864.5031185031186 91.11466666666666L 866.4241164241164 107.36177777777779L 868.3451143451144 141.68177777777777L 870.2661122661123 157.73244444444444L 872.1871101871102 152.63644444444444L 874.1081081081081 96.22222222222221L 876.0291060291061 150.19822222222223L 877.950103950104 116.57155555555556L 879.8711018711019 127.34133333333332L 881.7920997920997 180.53155555555554L 883.7130977130978 137.10577777777777L 885.6340956340956 122.64977777777779L 887.5550935550935 104.61155555555555L 889.4760914760915 141.76266666666666L 891.3970893970894 164.23822222222222L 893.3180873180874 160.51733333333334L 895.2390852390853 154.57777777777778L 897.1600831600831 175.01955555555554L 899.0810810810812 146.87022222222222L 901.002079002079 153.23733333333334L 902.923076923077 142.82577777777777L 904.8440748440748 130.98133333333334L 906.7650727650728 88.53777777777778L 908.6860706860707 174.488L 910.6070686070686 50.55466666666666L 912.5280665280666 84.43555555555557L 914.4490644490645 152.47466666666668L 916.3700623700623 114.90755555555555L 918.2910602910604 96.30311111111112L 920.2120582120582 171.46044444444445L 922.1330561330561 183.96355555555556L 924.0540540540541 169.87733333333333L 925.975051975052 183.13155555555556L 927.8960498960499 171.992L 929.8170478170479 152.48622222222224L 931.7380457380457 169.704L 933.6590436590437 172.99733333333333L 935.5800415800416 164.61955555555556L 937.5010395010396 162.64355555555557L 939.4220374220374 170.51288888888888L 941.3430353430354 145.6568888888889L 943.2640332640333 159.81244444444445L 945.1850311850312 167.2542222222222L 947.1060291060292 141.55466666666666L 949.0270270270271 160.864L 950.9480249480249 157.7208888888889L 952.869022869023 154.87822222222223L 954.7900207900208 145.29866666666666L 956.7110187110187 177.65422222222222L 958.6320166320166 119.73777777777778L 960.5530145530146 144.96355555555556L 962.4740124740125 151.15733333333333L 964.3950103950104 164.4231111111111L 966.3160083160083 174.1991111111111L 968.2370062370063 171.784L 970.1580041580041 157.12L 972.0790020790022 159.44266666666667L 974 197.19466666666665" stroke-width="2.0" fill="none" />
    
        
        
        <text x="45.0" font-family="-apple-system, system-ui, BlinkMacSystemFont, Roboto" y="50.0" dominant-baseline="middle" text-anchor="end" font-size="12" fill="#24292f">13500.0</text>
        
            
            <path stroke="#74838f" stroke-dasharray="10 6" stroke-width="0.5"  d="M 50.0 50.0 L 974.0 50.0" />
        
    
        
        
        <text x="45.0" font-family="-apple-system, system-ui, BlinkMacSystemFont, Roboto" y="81.2" dominant-baseline="middle" text-anchor="end" font-size="12" fill="#24292f">10800.0</text>
        
            
            
            <path stroke="#74838f" stroke-dasharray="10 6" stroke-width="0.5"  d="M 50.0 81.2 L 974.0 81.2" />
        
    
        
        
        <text x="45.0" font-family="-apple-system, system-ui, BlinkMacSystemFont, Roboto" y="112.4" dominant-baseline="middle" text-anchor="end" font-size="12" fill="#24292f">8100.0</text>
        
            
            
            <path stroke="#74838f" stroke-dasharray="10 6" stroke-width="0.5"  d="M 50.0 112.4 L 974.0 112.4" />
        
    
        
        
        <text x="45.0" font-family="-apple-system, system-ui, BlinkMacSystemFont, Roboto" y="143.6" dominant-baseline="middle" text-anchor="end" font-size="12" fill="#24292f">5400.0</text>
        
            
            
            <path stroke="#74838f" stroke-dasharray="10 6" stroke-width="0.5"  d="M 50.0 143.6 L 974.0 143.6" />
        
    
        
        
        <text x="45.0" font-family="-apple-system, system-ui, BlinkMacSystemFont, Roboto" y="174.8" dominant-baseline="middle" text-anchor="end" font-size="12" fill="#24292f">2700.0</text>
        
            
            
            <path stroke="#74838f" stroke-dasharray="10 6" stroke-width="0.5"  d="M 50.0 174.8 L 974.0 174.8" />
        
    
        
        
        <text x="45.0" font-family="-apple-system, system-ui, BlinkMacSystemFont, Roboto" y="206.0" dominant-baseline="middle" text-anchor="end" font-size="12" fill="#24292f">0.0</text>
        
    
    
        
        <path stroke="#74838f"  stroke-width="2.0"  d="M 80.73596673596674 206.0 L 80.73596673596674 214.0" />
        <text x="80.73596673596674" font-family="-apple-system, system-ui, BlinkMacSystemFont, Roboto" y="216.0" dominant-baseline="hanging" text-anchor="middle" font-size="12" fill="#24292f">Mar 2022</text>
    
        
        <path stroke="#74838f"  stroke-width="2.0"  d="M 140.2869022869023 206.0 L 140.2869022869023 214.0" />
        <text x="140.2869022869023" font-family="-apple-system, system-ui, BlinkMacSystemFont, Roboto" y="216.0" dominant-baseline="hanging" text-anchor="middle" font-size="12" fill="#24292f">Apr 2022</text>
    
        
        <path stroke="#74838f"  stroke-width="2.0"  d="M 197.91683991683993 206.0 L 197.91683991683993 214.0" />
        <text x="197.91683991683993" font-family="-apple-system, system-ui, BlinkMacSystemFont, Roboto" y="216.0" dominant-baseline="hanging" text-anchor="middle" font-size="12" fill="#24292f">May 2022</text>
    
        
        <path stroke="#74838f"  stroke-width="2.0"  d="M 257.4677754677755 206.0 L 257.4677754677755 214.0" />
        <text x="257.4677754677755" font-family="-apple-system, system-ui, BlinkMacSystemFont, Roboto" y="216.0" dominant-baseline="hanging" text-anchor="middle" font-size="12" fill="#24292f">Jun 2022</text>
    
        
        <path stroke="#74838f"  stroke-width="2.0"  d="M 315.0977130977131 206.0 L 315.0977130977131 214.0" />
        <text x="315.0977130977131" font-family="-apple-system, system-ui, BlinkMacSystemFont, Roboto" y="216.0" dominant-baseline="hanging" text-anchor="middle" font-size="12" fill="#24292f">Jul 2022</text>
    
        
        <path stroke="#74838f"  stroke-width="2.0"  d="M 374.64864864864865 206.0 L 374.64864864864865 214.0" />
        <text x="374.64864864864865" font-family="-apple-system, system-ui, BlinkMacSystemFont, Roboto" y="216.0" dominant-baseline="hanging" text-anchor="middle" font-size="12" fill="#24292f">Aug 2022</text>
    
        
        <path stroke="#74838f"  stroke-width="2.0"  d="M 434.1995841995842 206.0 L 434.1995841995842 214.0" />
        <text x="434.1995841995842" font-family="-apple-system, system-ui, BlinkMacSystemFont, Roboto" y="216.0" dominant-baseline="hanging" text-anchor="middle" font-size="12" fill="#24292f">Sep 2022</text>
    
        
        <path stroke="#74838f"  stroke-width="2.0"  d="M 491.82952182952187 206.0 L 491.82952182952187 214.0" />
        <text x="491.82952182952187" font-family="-apple-system, system-ui, BlinkMacSystemFont, Roboto" y="216.0" dominant-baseline="hanging" text-anchor="middle" font-size="12" fill="#24292f">Oct 2022</text>
    
        
        <path stroke="#74838f"  stroke-width="2.0"  d="M 551.3804573804573 206.0 L 551.3804573804573 214.0" />
        <text x="551.3804573804573" font-family="-apple-system, system-ui, BlinkMacSystemFont, Roboto" y="216.0" dominant-baseline="hanging" text-anchor="middle" font-size="12" fill="#24292f">Nov 2022</text>
    
        
        <path stroke="#74838f"  stroke-width="2.0"  d="M 609.010395010395 206.0 L 609.010395010395 214.0" />
        <text x="609.010395010395" font-family="-apple-system, system-ui, BlinkMacSystemFont, Roboto" y="216.0" dominant-baseline="hanging" text-anchor="middle" font-size="12" fill="#24292f">Dec 2022</text>
    
        
        <path stroke="#74838f"  stroke-width="2.0"  d="M 668.5613305613306 206.0 L 668.5613305613306 214.0" />
        <text x="668.5613305613306" font-family="-apple-system, system-ui, BlinkMacSystemFont, Roboto" y="216.0" dominant-baseline="hanging" text-anchor="middle" font-size="12" fill="#24292f">Jan 2023</text>
    
        
        <path stroke="#74838f"  stroke-width="2.0"  d="M 728.1122661122661 206.0 L 728.1122661122661 214.0" />
        <text x="728.1122661122661" font-family="-apple-system, system-ui, BlinkMacSystemFont, Roboto" y="216.0" dominant-baseline="hanging" text-anchor="middle" font-size="12" fill="#24292f">Feb 2023</text>
    
        
        <path stroke="#74838f"  stroke-width="2.0"  d="M 781.9002079002079 206.0 L 781.9002079002079 214.0" />
        <text x="781.9002079002079" font-family="-apple-system, system-ui, BlinkMacSystemFont, Roboto" y="216.0" dominant-baseline="hanging" text-anchor="middle" font-size="12" fill="#24292f">Mar 2023</text>
    
        
        <path stroke="#74838f"  stroke-width="2.0"  d="M 841.4511434511435 206.0 L 841.4511434511435 214.0" />
        <text x="841.4511434511435" font-family="-apple-system, system-ui, BlinkMacSystemFont, Roboto" y="216.0" dominant-baseline="hanging" text-anchor="middle" font-size="12" fill="#24292f">Apr 2023</text>
    
        
        <path stroke="#74838f"  stroke-width="2.0"  d="M 899.0810810810812 206.0 L 899.0810810810812 214.0" />
        <text x="899.0810810810812" font-family="-apple-system, system-ui, BlinkMacSystemFont, Roboto" y="216.0" dominant-baseline="hanging" text-anchor="middle" font-size="12" fill="#24292f">May 2023</text>
    
        
        <path stroke="#74838f"  stroke-width="2.0"  d="M 958.6320166320166 206.0 L 958.6320166320166 214.0" />
        <text x="958.6320166320166" font-family="-apple-system, system-ui, BlinkMacSystemFont, Roboto" y="216.0" dominant-baseline="hanging" text-anchor="middle" font-size="12" fill="#24292f">Jun 2023</text>
    
    <path stroke="#74838f"   stroke-linejoin="round" stroke-width="2.0" d="M 50.0 216.0 L 50.0 206.0 L 974.0 206.0 L 974.0 216.0"  fill="none" />
    <text x="512.0" y="25.0" font-family="-apple-system, system-ui, BlinkMacSystemFont, Roboto" dominant-baseline="middle" text-anchor="middle" font-size="18" fill="#24292f">Total daily suspensions</text>
</svg>
