<?xml version="1.0" standalone="no"?>
<svg width="1024.0" height="256.0"  viewBox="0 0 1024.0 256.0" preserveAspectRatio="xMidYMid meet" xmlns="http://www.w3.org/2000/svg">
    <path stroke="#e74c3c" stroke-linejoin="round" d="M 50.0 161.108 L 50 161.108L 52.11441647597254 193.664L 54.22883295194508 197.576L 56.34324942791762 197.924L 58.45766590389016 203.528L 60.5720823798627 199.94L 62.68649885583524 199.268L 64.80091533180779 191.108L 66.91533180778032 200.972L 69.02974828375287 198.62L 71.1441647597254 200L 73.25858123569793 202.57999999999998L 75.37299771167048 199.208L 77.48741418764303 195.608L 79.60183066361556 202.652L 81.7162471395881 198.716L 83.83066361556064 197.49200000000002L 85.94508009153319 191.42000000000002L 88.05949656750572 196.688L 90.17391304347825 199.46L 92.2883295194508 199.328L 94.40274599542334 198.308L 96.51716247139588 198.164L 98.63157894736841 199.832L 100.74599542334096 194.876L 102.8604118993135 199.904L 104.97482837528605 195.584L 107.08924485125858 200.732L 109.20366132723112 198.416L 111.31807780320366 190.652L 113.43249427917621 196.112L 115.54691075514873 190.82L 117.66132723112128 193.53199999999998L 119.77574370709382 199.688L 121.89016018306636 192.392L 124.0045766590389 197L 126.11899313501144 199.59199999999998L 128.23340961098398 193.54399999999998L 130.3478260869565 195.26L 132.46224256292908 195.428L 134.5766590389016 195.548L 136.69107551487414 196.484L 138.8054919908467 199.424L 140.9199084668192 199.22L 143.03432494279176 195.656L 145.1487414187643 193.952L 147.26315789473682 195.536L 149.3775743707094 198.764L 151.49199084668192 195.428L 153.60640732265446 194L 155.720823798627 193.688L 157.83524027459953 186.32L 159.9496567505721 197.372L 162.06407322654462 195.96800000000002L 164.17848970251717 198.284L 166.29290617848972 194.38400000000001L 168.40732265446223 196.424L 170.52173913043478 196.988L 172.63615560640733 198.368L 174.75057208237988 198.05599999999998L 176.86498855835242 199.61599999999999L 178.97940503432494 191.54L 181.09382151029746 202.124L 183.20823798627003 193.34L 185.32265446224255 204.2L 187.4370709382151 206L 189.55148741418765 206L 191.6659038901602 206L 193.7803203661327 206L 195.89473684210526 190.472L 198.0091533180778 159.01999999999998L 200.12356979405035 193.56799999999998L 202.23798627002287 200.228L 204.35240274599542 193.232L 206.46681922196797 196.82L 208.5812356979405 199.772L 210.69565217391303 186.548L 212.81006864988558 197.888L 214.92448512585813 195.596L 217.03890160183067 190.508L 219.1533180778032 194.876L 221.26773455377577 190.4L 223.3821510297483 188.756L 225.49656750572083 197.852L 227.61098398169335 199.772L 229.72540045766593 191.936L 231.83981693363845 191.864L 233.954233409611 199.316L 236.0686498855835 194.72L 238.1830663615561 192.608L 240.2974828375286 194.9L 242.41189931350115 199.7L 244.52631578947367 189.224L 246.64073226544625 198.428L 248.75514874141876 196.136L 250.8695652173913 195.296L 252.98398169336383 196.268L 255.09839816933638 193.184L 257.2128146453089 197.204L 259.32723112128144 193.856L 261.441647597254 197.096L 263.55606407322654 178.16L 265.67048054919906 194.372L 267.78489702517163 195.92000000000002L 269.8993135011442 195.11599999999999L 272.01372997711667 196.688L 274.12814645308924 197.49200000000002L 276.24256292906176 197.696L 278.35697940503434 186.848L 280.47139588100686 192.644L 282.58581235697943 199.61599999999999L 284.70022883295195 193.052L 286.81464530892447 191.072L 288.92906178489704 195.44L 291.04347826086956 196.184L 293.1578947368421 196.46L 295.27231121281466 197.312L 297.38672768878723 193.076L 299.50114416475975 206L 301.61556064073227 186.44L 303.72997711670484 186.632L 305.8443935926773 191.276L 307.9588100686499 180.93200000000002L 310.0732265446224 201.704L 312.1876430205949 185.744L 314.30205949656755 196.028L 316.41647597254007 189.464L 318.5308924485126 194.228L 320.6453089244851 195.632L 322.7597254004577 196.844L 324.8741418764302 186.332L 326.9885583524027 197.99599999999998L 329.1029748283753 188.924L 331.21739130434787 189.128L 333.3318077803204 196.748L 335.4462242562929 182.45600000000002L 337.5606407322654 184.16L 339.675057208238 206L 341.7894736842105 206L 343.90389016018304 206L 346.0183066361556 160.16L 348.13272311212813 198.536L 350.2471395881007 196.60399999999998L 352.3615560640732 195.668L 354.47597254004575 192.8L 356.5903890160183 196.964L 358.70480549199084 197.828L 360.8192219679634 200.84L 362.93363844393593 170.312L 365.04805491990845 189.236L 367.162471395881 177.428L 369.27688787185355 191.564L 371.39130434782606 178.784L 373.5057208237986 176.372L 375.62013729977116 181.7L 377.73455377574373 187.472L 379.84897025171625 192.88400000000001L 381.96338672768877 189.38L 384.07780320366135 187.772L 386.19221967963387 189.404L 388.3066361556064 187.532L 390.4210526315789 193.59199999999998L 392.53546910755153 185.036L 394.64988558352405 171.332L 396.7643020594966 180.14L 398.8787185354691 172.316L 400.99313501144167 193.028L 403.1075514874142 191.996L 405.2219679633867 193.052L 407.3363844393592 194.84L 409.45080091533185 193.53199999999998L 411.5652173913044 194.024L 413.6796338672769 189.272L 415.7940503432494 195.188L 417.908466819222 196.256L 420.0228832951945 192.62L 422.137299771167 190.844L 424.25171624713954 200.984L 426.3661327231122 184.796L 428.4805491990847 190.88L 430.5949656750572 194.42000000000002L 432.70938215102973 189.86L 434.8237986270023 195.86L 436.9382151029748 191.984L 439.05263157894734 193.1L 441.1670480549199 186.464L 443.2814645308925 190.46L 445.395881006865 182.156L 447.51029748283753 187.136L 449.62471395881005 191.528L 451.7391304347826 184.1L 453.85354691075514 189.14L 455.96796338672766 185.204L 458.08237986270024 185.468L 460.19679633867275 176.816L 462.31121281464533 189.04399999999998L 464.42562929061785 191.048L 466.54004576659037 188.756L 468.65446224256294 187.592L 470.76887871853546 191.39600000000002L 472.88329519450804 187.796L 474.99771167048056 188.228L 477.1121281464531 190.268L 479.22654462242565 194.372L 481.34096109839817 194.72L 483.4553775743707 201.308L 485.5697940503432 192.752L 487.6842105263158 181.148L 489.79862700228836 181.748L 491.9130434782609 181.208L 494.0274599542334 191.3L 496.14187643020597 186.88400000000001L 498.2562929061785 181.376L 500.370709382151 186.5L 502.4851258581235 188.44400000000002L 504.59954233409616 179.66L 506.7139588100687 183.09199999999998L 508.8283752860412 173.564L 510.9427917620137 183.836L 513.0572082379863 171.668L 515.1716247139589 148.148L 517.2860411899314 178.004L 519.4004576659039 141.86L 521.5148741418765 186.128L 523.6292906178489 188.54000000000002L 525.7437070938215 187.748L 527.8581235697941 193.256L 529.9725400457667 186.596L 532.0869565217391 185.42000000000002L 534.2013729977116 186.872L 536.3157894736842 185.372L 538.4302059496567 192.824L 540.5446224256293 188.552L 542.6590389016018 189.32L 544.7734553775745 186.632L 546.8878718535469 185.768L 549.0022883295195 188.744L 551.116704805492 187.34L 553.2311212814645 192.488L 555.3455377574371 187.028L 557.4599542334097 185.468L 559.5743707093822 181.928L 561.6887871853546 183.8L 563.8032036613272 180.296L 565.9176201372998 185.516L 568.0320366132723 194L 570.1464530892448 190.328L 572.2608695652174 186.584L 574.3752860411898 168.32L 576.4897025171625 117.5L 578.6041189931351 189.10399999999998L 580.7185354691076 187.844L 582.8329519450801 190.28L 584.9473684210526 192.32L 587.0617848970252 189.2L 589.1762013729978 182.288L 591.2906178489702 188.49200000000002L 593.4050343249428 178.916L 595.5194508009154 53.432000000000016L 597.6338672768878 162.656L 599.7482837528604 184.52L 601.8627002288329 182.708L 603.9771167048054 183.68L 606.091533180778 184.196L 608.2059496567506 179.084L 610.3203661327232 190.16L 612.4347826086957 180.476L 614.5491990846682 160.916L 616.6636155606408 121.196L 618.7780320366132 151.50799999999998L 620.8924485125858 164.132L 623.0068649885584 181.184L 625.1212814645309 170.49200000000002L 627.2356979405034 179.792L 629.350114416476 173.204L 631.4645308924485 178.352L 633.578947368421 182.792L 635.6933638443935 177.152L 637.8077803203661 184.232L 639.9221967963388 187.796L 642.0366132723112 188.348L 644.1510297482838 184.736L 646.2654462242563 181.892L 648.3798627002288 181.796L 650.4942791762014 179.36L 652.6086956521739 168.176L 654.7231121281465 181.808L 656.837528604119 185.372L 658.9519450800915 167.708L 661.0663615560641 140.6L 663.1807780320366 160.784L 665.2951945080091 151.664L 667.4096109839817 145.952L 669.5240274599541 155.288L 671.6384439359268 153.68L 673.7528604118994 163.04L 675.8672768878719 172.064L 677.9816933638444 148.952L 680.0961098398169 171.812L 682.2105263157895 172.46L 684.324942791762 172.508L 686.4393592677345 183.644L 688.5537757437071 166.304L 690.6681922196797 159.26L 692.7826086956521 172.652L 694.8970251716247 165.5L 697.0114416475972 154.892L 699.1258581235697 173.888L 701.2402745995423 176.3L 703.3546910755149 186.5L 705.4691075514875 183.932L 707.58352402746 183.10399999999998L 709.6979405034325 150.128L 711.8123569794051 183.11599999999999L 713.9267734553775 186.152L 716.0411899313501 185.096L 718.1556064073227 182.276L 720.2700228832952 182.18L 722.3844393592677 182.144L 724.4988558352403 174.956L 726.6132723112128 181.988L 728.7276887871853 179.504L 730.8421052631578 184.784L 732.9565217391304 179L 735.0709382151031 175.868L 737.1853546910755 177.14L 739.2997711670481 178.832L 741.4141876430207 182.216L 743.5286041189931 176.444L 745.6430205949657 182.576L 747.7574370709382 177.02L 749.8718535469108 178.58L 751.9862700228833 182.144L 754.1006864988558 179.48L 756.2151029748284 176.972L 758.329519450801 186.164L 760.4439359267734 176.096L 762.558352402746 178.04L 764.6727688787184 152.996L 766.787185354691 130.724L 768.9016018306637 149.888L 771.0160183066362 149.48L 773.1304347826087 184.1L 775.2448512585812 184.484L 777.3592677345538 177.56L 779.4736842105264 139.952L 781.5881006864988 148.028L 783.7025171624714 162.428L 785.816933638444 136.244L 787.9313501144164 132.128L 790.045766590389 142.508L 792.1601830663615 143.252L 794.274599542334 125.732L 796.3890160183066 117.06800000000001L 798.5034324942791 164.264L 800.6178489702518 161.876L 802.7322654462243 158.636L 804.8466819221968 176.40800000000002L 806.9610983981694 186.632L 809.0755148741418 187.352L 811.1899313501144 186.152L 813.304347826087 174.932L 815.4187643020595 178.388L 817.533180778032 194.636L 819.6475972540046 184.748L 821.7620137299771 182.84L 823.8764302059496 173.78L 825.9908466819221 177.56L 828.1052631578947 179.996L 830.2196796338673 183.188L 832.3340961098398 153.68L 834.4485125858124 147.548L 836.562929061785 185.504L 838.6773455377574 190.724L 840.79176201373 174.752L 842.9061784897025 174.32L 845.0205949656751 183.692L 847.1350114416476 189.06799999999998L 849.2494279176201 186.88400000000001L 851.3638443935927 179.096L 853.4782608695652 175.808L 855.5926773455377 161.672L 857.7070938215103 160.424L 859.8215102974827 165.632L 861.9359267734553 179.336L 864.050343249428 183.272L 866.1647597254005 191.024L 868.279176201373 195.14L 870.3935926773455 182.684L 872.5080091533181 162.416L 874.6224256292907 169.712L 876.7368421052631 168.536L 878.8512585812357 179.024L 880.9656750572083 170.768L 883.0800915331807 161.9L 885.1945080091533 170.012L 887.3089244851259 180.656L 889.4233409610983 178.796L 891.5377574370709 164.648L 893.6521739130434 152.95999999999998L 895.7665903890161 156.62L 897.8810068649886 154.568L 899.9954233409611 142.088L 902.1098398169337 156.704L 904.2242562929061 176.924L 906.3386727688787 142.652L 908.4530892448513 131.372L 910.5675057208238 137.276L 912.6819221967963 142.7L 914.7963386727689 151.136L 916.9107551487414 138.02L 919.025171624714 110.324L 921.1395881006864 109.724L 923.254004576659 163.268L 925.3684210526316 161.996L 927.4828375286041 148.016L 929.5972540045767 147.68L 931.7116704805493 50.792L 933.8260869565217 121.652L 935.9405034324943 58.615999999999985L 938.0549199084668 120.38L 940.1693363844394 155.672L 942.2837528604119 145.76L 944.3981693363844 133.54399999999998L 946.512585812357 86.696L 948.6270022883295 103.568L 950.741418764302 139.208L 952.8558352402746 155.876L 954.970251716247 150.584L 957.0846681922196 92L 959.1990846681923 148.052L 961.3135011441648 113.132L 963.4279176201374 124.316L 965.5423340961098 179.552L 967.6567505720824 134.45600000000002L 969.771167048055 119.44399999999999L 971.8855835240274 100.71199999999999L 974 179.288" stroke-width="2.0" fill="none" />
    
        
        
        <text x="45.0" font-family="-apple-system, system-ui, BlinkMacSystemFont, Roboto" y="50.0" dominant-baseline="middle" text-anchor="end" font-size="12" fill="#24292f">13000.0</text>
        
            
            <path stroke="#74838f" stroke-dasharray="10 6" stroke-width="0.5"  d="M 50.0 50.0 L 974.0 50.0" />
        
    
        
        
        <text x="45.0" font-family="-apple-system, system-ui, BlinkMacSystemFont, Roboto" y="81.2" dominant-baseline="middle" text-anchor="end" font-size="12" fill="#24292f">10400.0</text>
        
            
            
            <path stroke="#74838f" stroke-dasharray="10 6" stroke-width="0.5"  d="M 50.0 81.2 L 974.0 81.2" />
        
    
        
        
        <text x="45.0" font-family="-apple-system, system-ui, BlinkMacSystemFont, Roboto" y="112.4" dominant-baseline="middle" text-anchor="end" font-size="12" fill="#24292f">7800.0</text>
        
            
            
            <path stroke="#74838f" stroke-dasharray="10 6" stroke-width="0.5"  d="M 50.0 112.4 L 974.0 112.4" />
        
    
        
        
        <text x="45.0" font-family="-apple-system, system-ui, BlinkMacSystemFont, Roboto" y="143.6" dominant-baseline="middle" text-anchor="end" font-size="12" fill="#24292f">5200.0</text>
        
            
            
            <path stroke="#74838f" stroke-dasharray="10 6" stroke-width="0.5"  d="M 50.0 143.6 L 974.0 143.6" />
        
    
        
        
        <text x="45.0" font-family="-apple-system, system-ui, BlinkMacSystemFont, Roboto" y="174.8" dominant-baseline="middle" text-anchor="end" font-size="12" fill="#24292f">2600.0</text>
        
            
            
            <path stroke="#74838f" stroke-dasharray="10 6" stroke-width="0.5"  d="M 50.0 174.8 L 974.0 174.8" />
        
    
        
        
        <text x="45.0" font-family="-apple-system, system-ui, BlinkMacSystemFont, Roboto" y="206.0" dominant-baseline="middle" text-anchor="end" font-size="12" fill="#24292f">0.0</text>
        
    
    
        
        <path stroke="#74838f"  stroke-width="2.0"  d="M 83.83066361556064 206.0 L 83.83066361556064 214.0" />
        <text x="83.83066361556064" font-family="-apple-system, system-ui, BlinkMacSystemFont, Roboto" y="216.0" dominant-baseline="hanging" text-anchor="middle" font-size="12" fill="#24292f">Mar 2022</text>
    
        
        <path stroke="#74838f"  stroke-width="2.0"  d="M 149.3775743707094 206.0 L 149.3775743707094 214.0" />
        <text x="149.3775743707094" font-family="-apple-system, system-ui, BlinkMacSystemFont, Roboto" y="216.0" dominant-baseline="hanging" text-anchor="middle" font-size="12" fill="#24292f">Apr 2022</text>
    
        
        <path stroke="#74838f"  stroke-width="2.0"  d="M 212.81006864988558 206.0 L 212.81006864988558 214.0" />
        <text x="212.81006864988558" font-family="-apple-system, system-ui, BlinkMacSystemFont, Roboto" y="216.0" dominant-baseline="hanging" text-anchor="middle" font-size="12" fill="#24292f">May 2022</text>
    
        
        <path stroke="#74838f"  stroke-width="2.0"  d="M 278.35697940503434 206.0 L 278.35697940503434 214.0" />
        <text x="278.35697940503434" font-family="-apple-system, system-ui, BlinkMacSystemFont, Roboto" y="216.0" dominant-baseline="hanging" text-anchor="middle" font-size="12" fill="#24292f">Jun 2022</text>
    
        
        <path stroke="#74838f"  stroke-width="2.0"  d="M 341.7894736842105 206.0 L 341.7894736842105 214.0" />
        <text x="341.7894736842105" font-family="-apple-system, system-ui, BlinkMacSystemFont, Roboto" y="216.0" dominant-baseline="hanging" text-anchor="middle" font-size="12" fill="#24292f">Jul 2022</text>
    
        
        <path stroke="#74838f"  stroke-width="2.0"  d="M 407.3363844393592 206.0 L 407.3363844393592 214.0" />
        <text x="407.3363844393592" font-family="-apple-system, system-ui, BlinkMacSystemFont, Roboto" y="216.0" dominant-baseline="hanging" text-anchor="middle" font-size="12" fill="#24292f">Aug 2022</text>
    
        
        <path stroke="#74838f"  stroke-width="2.0"  d="M 472.88329519450804 206.0 L 472.88329519450804 214.0" />
        <text x="472.88329519450804" font-family="-apple-system, system-ui, BlinkMacSystemFont, Roboto" y="216.0" dominant-baseline="hanging" text-anchor="middle" font-size="12" fill="#24292f">Sep 2022</text>
    
        
        <path stroke="#74838f"  stroke-width="2.0"  d="M 536.3157894736842 206.0 L 536.3157894736842 214.0" />
        <text x="536.3157894736842" font-family="-apple-system, system-ui, BlinkMacSystemFont, Roboto" y="216.0" dominant-baseline="hanging" text-anchor="middle" font-size="12" fill="#24292f">Oct 2022</text>
    
        
        <path stroke="#74838f"  stroke-width="2.0"  d="M 601.8627002288329 206.0 L 601.8627002288329 214.0" />
        <text x="601.8627002288329" font-family="-apple-system, system-ui, BlinkMacSystemFont, Roboto" y="216.0" dominant-baseline="hanging" text-anchor="middle" font-size="12" fill="#24292f">Nov 2022</text>
    
        
        <path stroke="#74838f"  stroke-width="2.0"  d="M 665.2951945080091 206.0 L 665.2951945080091 214.0" />
        <text x="665.2951945080091" font-family="-apple-system, system-ui, BlinkMacSystemFont, Roboto" y="216.0" dominant-baseline="hanging" text-anchor="middle" font-size="12" fill="#24292f">Dec 2022</text>
    
        
        <path stroke="#74838f"  stroke-width="2.0"  d="M 730.8421052631578 206.0 L 730.8421052631578 214.0" />
        <text x="730.8421052631578" font-family="-apple-system, system-ui, BlinkMacSystemFont, Roboto" y="216.0" dominant-baseline="hanging" text-anchor="middle" font-size="12" fill="#24292f">Jan 2023</text>
    
        
        <path stroke="#74838f"  stroke-width="2.0"  d="M 796.3890160183066 206.0 L 796.3890160183066 214.0" />
        <text x="796.3890160183066" font-family="-apple-system, system-ui, BlinkMacSystemFont, Roboto" y="216.0" dominant-baseline="hanging" text-anchor="middle" font-size="12" fill="#24292f">Feb 2023</text>
    
        
        <path stroke="#74838f"  stroke-width="2.0"  d="M 855.5926773455377 206.0 L 855.5926773455377 214.0" />
        <text x="855.5926773455377" font-family="-apple-system, system-ui, BlinkMacSystemFont, Roboto" y="216.0" dominant-baseline="hanging" text-anchor="middle" font-size="12" fill="#24292f">Mar 2023</text>
    
        
        <path stroke="#74838f"  stroke-width="2.0"  d="M 921.1395881006864 206.0 L 921.1395881006864 214.0" />
        <text x="921.1395881006864" font-family="-apple-system, system-ui, BlinkMacSystemFont, Roboto" y="216.0" dominant-baseline="hanging" text-anchor="middle" font-size="12" fill="#24292f">Apr 2023</text>
    
    <path stroke="#74838f"   stroke-linejoin="round" stroke-width="2.0" d="M 50.0 216.0 L 50.0 206.0 L 974.0 206.0 L 974.0 216.0"  fill="none" />
    <text x="512.0" y="25.0" font-family="-apple-system, system-ui, BlinkMacSystemFont, Roboto" dominant-baseline="middle" text-anchor="middle" font-size="18" fill="#24292f">Total daily suspensions</text>
</svg>
