<?xml version="1.0" standalone="no"?>
<svg width="1024.0" height="256.0"  viewBox="0 0 1024.0 256.0" preserveAspectRatio="xMidYMid meet" xmlns="http://www.w3.org/2000/svg">
    <path stroke="#e74c3c" stroke-linejoin="round" d="M 50.0 161.108 L 50 161.108L 52.6628242074928 193.664L 55.325648414985594 197.576L 57.98847262247838 197.924L 60.65129682997118 203.528L 63.31412103746398 199.94L 65.97694524495677 199.268L 68.63976945244957 191.108L 71.30259365994236 200.972L 73.96541786743516 198.62L 76.62824207492795 200L 79.29106628242076 202.57999999999998L 81.95389048991355 199.208L 84.61671469740634 195.608L 87.27953890489914 202.652L 89.94236311239193 198.716L 92.60518731988472 197.49200000000002L 95.26801152737752 191.42000000000002L 97.93083573487033 196.688L 100.59365994236312 199.46L 103.25648414985591 199.328L 105.91930835734871 198.308L 108.5821325648415 198.164L 111.24495677233429 199.832L 113.9077809798271 194.876L 116.57060518731988 199.904L 119.23342939481267 195.584L 121.89625360230548 200.732L 124.55907780979827 198.416L 127.22190201729106 190.652L 129.88472622478386 196.112L 132.54755043227664 190.82L 135.21037463976944 193.53199999999998L 137.87319884726224 199.688L 140.53602305475505 192.392L 143.19884726224785 197L 145.86167146974066 199.59199999999998L 148.52449567723343 193.54399999999998L 151.18731988472624 195.26L 153.850144092219 195.428L 156.51296829971182 195.548L 159.17579250720462 196.484L 161.83861671469742 199.424L 164.5014409221902 199.22L 167.164265129683 195.656L 169.82708933717578 193.952L 172.48991354466858 195.536L 175.15273775216139 198.764L 177.8155619596542 195.428L 180.478386167147 194L 183.14121037463977 193.688L 185.80403458213257 186.32L 188.46685878962535 197.372L 191.12968299711815 195.96800000000002L 193.79250720461096 198.284L 196.45533141210376 194.38400000000001L 199.11815561959654 196.424L 201.78097982708934 196.988L 204.44380403458212 198.368L 207.10662824207495 198.05599999999998L 209.76945244956772 199.61599999999999L 212.43227665706053 191.54L 215.0951008645533 202.124L 217.7579250720461 193.34L 220.42074927953888 204.2L 223.0835734870317 206L 225.7463976945245 206L 228.4092219020173 206L 231.07204610951007 206L 233.73487031700287 190.472L 236.39769452449568 159.01999999999998L 239.06051873198848 193.56799999999998L 241.72334293948128 200.228L 244.38616714697406 193.232L 247.04899135446686 196.82L 249.71181556195964 199.772L 252.37463976945247 186.548L 255.03746397694525 197.888L 257.700288184438 195.596L 260.3631123919308 190.508L 263.02593659942363 194.876L 265.68876080691643 190.4L 268.35158501440924 188.756L 271.01440922190204 197.852L 273.67723342939485 199.772L 276.3400576368876 191.936L 279.0028818443804 191.864L 281.6657060518732 199.316L 284.328530259366 194.72L 286.99135446685875 192.608L 289.65417867435156 194.9L 292.31700288184436 199.7L 294.97982708933716 189.224L 297.64265129682997 198.428L 300.30547550432277 196.136L 302.9682997118156 195.296L 305.6311239193084 196.268L 308.2939481268012 193.184L 310.956772334294 197.204L 313.61959654178673 193.856L 316.28242074927954 197.096L 318.94524495677234 178.16L 321.60806916426515 194.372L 324.2708933717579 195.92000000000002L 326.9337175792507 195.11599999999999L 329.5965417867435 196.688L 332.2593659942363 197.49200000000002L 334.9221902017291 197.696L 337.5850144092219 186.848L 340.2478386167147 192.644L 342.9106628242075 199.61599999999999L 345.57348703170027 193.052L 348.23631123919307 191.072L 350.8991354466859 195.44L 353.5619596541787 196.184L 356.2247838616715 196.46L 358.88760806916423 197.312L 361.55043227665703 193.076L 364.2132564841499 206L 366.87608069164264 186.44L 369.53890489913545 186.632L 372.20172910662825 191.276L 374.86455331412105 180.93200000000002L 377.52737752161386 201.704L 380.1902017291066 185.744L 382.8530259365994 196.028L 385.5158501440922 189.464L 388.178674351585 194.228L 390.84149855907776 195.632L 393.5043227665706 196.844L 396.1671469740634 186.332L 398.82997118155623 197.99599999999998L 401.492795389049 188.924L 404.1556195965418 189.128L 406.8184438040346 196.748L 409.4812680115274 182.45600000000002L 412.14409221902014 184.16L 414.80691642651294 206L 417.46974063400575 206L 420.13256484149855 206L 422.79538904899135 160.16L 425.45821325648416 198.536L 428.12103746397696 196.60399999999998L 430.78386167146977 195.668L 433.44668587896257 192.8L 436.1095100864553 196.964L 438.7723342939481 197.828L 441.4351585014409 200.84L 444.0979827089337 170.312L 446.7608069164265 189.236L 449.4236311239193 177.428L 452.0864553314121 191.564L 454.74927953890494 178.784L 457.4121037463977 176.372L 460.0749279538905 181.7L 462.7377521613833 187.472L 465.4005763688761 192.88400000000001L 468.06340057636885 189.38L 470.72622478386165 187.772L 473.38904899135446 189.404L 476.05187319884726 187.532L 478.71469740634006 193.59199999999998L 481.3775216138328 185.036L 484.0403458213257 171.332L 486.7031700288185 180.14L 489.3659942363113 172.316L 492.028818443804 193.028L 494.69164265129683 191.996L 497.35446685878964 193.052L 500.01729106628244 194.84L 502.6801152737752 193.53199999999998L 505.342939481268 194.024L 508.0057636887608 189.272L 510.6685878962536 195.188L 513.3314121037464 196.256L 515.9942363112391 192.62L 518.657060518732 190.844L 521.3198847262247 200.984L 523.9827089337175 184.796L 526.6455331412103 190.88L 529.3083573487031 194.42000000000002L 531.971181556196 189.86L 534.6340057636887 195.86L 537.2968299711815 191.984L 539.9596541786743 193.1L 542.6224783861671 186.464L 545.2853025936599 190.46L 547.9481268011527 182.156L 550.6109510086455 187.136L 553.2737752161383 191.528L 555.9365994236312 184.1L 558.599423631124 189.14L 561.2622478386168 185.204L 563.9250720461094 185.468L 566.5878962536024 176.816L 569.250720461095 189.04399999999998L 571.913544668588 191.048L 574.5763688760807 188.756L 577.2391930835735 187.592L 579.9020172910663 191.39600000000002L 582.5648414985591 187.796L 585.2276657060519 188.228L 587.8904899135447 190.268L 590.5533141210375 194.372L 593.2161383285303 194.72L 595.8789625360231 201.308L 598.5417867435158 192.752L 601.2046109510087 181.148L 603.8674351585014 181.748L 606.5302593659942 181.208L 609.193083573487 191.3L 611.8559077809798 186.88400000000001L 614.5187319884726 181.376L 617.1815561959654 186.5L 619.8443804034582 188.44400000000002L 622.507204610951 179.66L 625.1700288184438 183.09199999999998L 627.8328530259366 173.564L 630.4956772334294 183.836L 633.1585014409221 171.668L 635.821325648415 148.148L 638.4841498559077 178.004L 641.1469740634005 141.86L 643.8097982708933 186.128L 646.4726224783861 188.54000000000002L 649.1354466858791 187.748L 651.7982708933718 193.256L 654.4610951008646 186.596L 657.1239193083574 185.42000000000002L 659.7867435158502 186.872L 662.449567723343 185.372L 665.1123919308358 192.824L 667.7752161383285 188.552L 670.4380403458214 189.32L 673.1008645533141 186.632L 675.7636887608069 185.768L 678.4265129682998 188.744L 681.0893371757925 187.34L 683.7521613832853 192.488L 686.4149855907781 187.028L 689.0778097982709 185.468L 691.7406340057637 181.928L 694.4034582132565 183.8L 697.0662824207492 180.296L 699.7291066282421 185.516L 702.3919308357348 194L 705.0547550432277 190.328L 707.7175792507205 186.584L 710.3804034582132 168.32L 713.0432276657061 117.5L 715.7060518731988 189.10399999999998L 718.3688760806916 187.844L 721.0317002881844 190.28L 723.6945244956772 192.32L 726.35734870317 189.2L 729.0201729106628 182.288L 731.6829971181555 188.49200000000002L 734.3458213256484 178.916L 737.0086455331412 53.432000000000016L 739.671469740634 162.656L 742.3342939481269 184.52L 744.9971181556195 182.708L 747.6599423631125 183.68L 750.3227665706052 184.196L 752.985590778098 179.084L 755.6484149855908 190.16L 758.3112391930836 180.476L 760.9740634005764 160.916L 763.6368876080692 121.196L 766.299711815562 151.50799999999998L 768.9625360230548 164.132L 771.6253602305476 181.184L 774.2881844380403 170.49200000000002L 776.9510086455332 179.792L 779.6138328530259 173.204L 782.2766570605188 178.352L 784.9394812680115 182.792L 787.6023054755043 177.152L 790.2651296829971 184.232L 792.9279538904899 187.796L 795.5907780979827 188.348L 798.2536023054755 184.736L 800.9164265129683 181.892L 803.5792507204611 181.796L 806.2420749279539 179.36L 808.9048991354466 168.176L 811.5677233429395 181.808L 814.2305475504322 185.372L 816.8933717579251 167.708L 819.5561959654178 140.6L 822.2190201729106 160.784L 824.8818443804034 151.664L 827.5446685878962 145.952L 830.207492795389 155.288L 832.8703170028818 153.68L 835.5331412103747 163.04L 838.1959654178675 172.064L 840.8587896253603 148.952L 843.521613832853 171.812L 846.1844380403459 172.46L 848.8472622478386 172.508L 851.5100864553314 183.644L 854.1729106628242 166.304L 856.835734870317 159.26L 859.4985590778099 172.652L 862.1613832853026 165.5L 864.8242074927954 154.892L 867.4870317002882 173.888L 870.149855907781 176.3L 872.8126801152738 186.5L 875.4755043227666 183.932L 878.1383285302593 183.10399999999998L 880.8011527377522 150.128L 883.4639769452449 183.11599999999999L 886.1268011527377 186.152L 888.7896253602306 185.096L 891.4524495677233 182.276L 894.1152737752162 182.18L 896.7780979827089 182.144L 899.4409221902017 174.956L 902.1037463976945 181.988L 904.7665706051873 179.504L 907.4293948126801 184.784L 910.0922190201729 179L 912.7550432276656 175.868L 915.4178674351585 177.14L 918.0806916426513 178.832L 920.743515850144 182.216L 923.406340057637 176.444L 926.0691642651296 182.576L 928.7319884726226 177.02L 931.3948126801153 178.58L 934.057636887608 182.144L 936.7204610951009 179.48L 939.3832853025937 176.972L 942.0461095100864 186.164L 944.7089337175793 176.096L 947.3717579250721 178.04L 950.0345821325649 152.996L 952.6974063400577 130.724L 955.3602305475504 149.888L 958.0230547550433 149.48L 960.685878962536 184.1L 963.3487031700288 184.484L 966.0115273775216 177.56L 968.6743515850144 139.952L 971.3371757925072 148.028L 974 201.776" stroke-width="2.0" fill="none" />
    
        
        
        <text x="45.0" font-family="-apple-system, system-ui, BlinkMacSystemFont, Roboto" y="50.0" dominant-baseline="middle" text-anchor="end" font-size="12" fill="#24292f">13000.0</text>
        
            
            <path stroke="#74838f" stroke-dasharray="10 6" stroke-width="0.5"  d="M 50.0 50.0 L 974.0 50.0" />
        
    
        
        
        <text x="45.0" font-family="-apple-system, system-ui, BlinkMacSystemFont, Roboto" y="81.2" dominant-baseline="middle" text-anchor="end" font-size="12" fill="#24292f">10400.0</text>
        
            
            
            <path stroke="#74838f" stroke-dasharray="10 6" stroke-width="0.5"  d="M 50.0 81.2 L 974.0 81.2" />
        
    
        
        
        <text x="45.0" font-family="-apple-system, system-ui, BlinkMacSystemFont, Roboto" y="112.4" dominant-baseline="middle" text-anchor="end" font-size="12" fill="#24292f">7800.0</text>
        
            
            
            <path stroke="#74838f" stroke-dasharray="10 6" stroke-width="0.5"  d="M 50.0 112.4 L 974.0 112.4" />
        
    
        
        
        <text x="45.0" font-family="-apple-system, system-ui, BlinkMacSystemFont, Roboto" y="143.6" dominant-baseline="middle" text-anchor="end" font-size="12" fill="#24292f">5200.0</text>
        
            
            
            <path stroke="#74838f" stroke-dasharray="10 6" stroke-width="0.5"  d="M 50.0 143.6 L 974.0 143.6" />
        
    
        
        
        <text x="45.0" font-family="-apple-system, system-ui, BlinkMacSystemFont, Roboto" y="174.8" dominant-baseline="middle" text-anchor="end" font-size="12" fill="#24292f">2600.0</text>
        
            
            
            <path stroke="#74838f" stroke-dasharray="10 6" stroke-width="0.5"  d="M 50.0 174.8 L 974.0 174.8" />
        
    
        
        
        <text x="45.0" font-family="-apple-system, system-ui, BlinkMacSystemFont, Roboto" y="206.0" dominant-baseline="middle" text-anchor="end" font-size="12" fill="#24292f">0.0</text>
        
    
    
        
        <path stroke="#74838f"  stroke-width="2.0"  d="M 92.60518731988472 206.0 L 92.60518731988472 214.0" />
        <text x="92.60518731988472" font-family="-apple-system, system-ui, BlinkMacSystemFont, Roboto" y="216.0" dominant-baseline="hanging" text-anchor="middle" font-size="12" fill="#24292f">Mar 2022</text>
    
        
        <path stroke="#74838f"  stroke-width="2.0"  d="M 175.15273775216139 206.0 L 175.15273775216139 214.0" />
        <text x="175.15273775216139" font-family="-apple-system, system-ui, BlinkMacSystemFont, Roboto" y="216.0" dominant-baseline="hanging" text-anchor="middle" font-size="12" fill="#24292f">Apr 2022</text>
    
        
        <path stroke="#74838f"  stroke-width="2.0"  d="M 255.03746397694525 206.0 L 255.03746397694525 214.0" />
        <text x="255.03746397694525" font-family="-apple-system, system-ui, BlinkMacSystemFont, Roboto" y="216.0" dominant-baseline="hanging" text-anchor="middle" font-size="12" fill="#24292f">May 2022</text>
    
        
        <path stroke="#74838f"  stroke-width="2.0"  d="M 337.5850144092219 206.0 L 337.5850144092219 214.0" />
        <text x="337.5850144092219" font-family="-apple-system, system-ui, BlinkMacSystemFont, Roboto" y="216.0" dominant-baseline="hanging" text-anchor="middle" font-size="12" fill="#24292f">Jun 2022</text>
    
        
        <path stroke="#74838f"  stroke-width="2.0"  d="M 417.46974063400575 206.0 L 417.46974063400575 214.0" />
        <text x="417.46974063400575" font-family="-apple-system, system-ui, BlinkMacSystemFont, Roboto" y="216.0" dominant-baseline="hanging" text-anchor="middle" font-size="12" fill="#24292f">Jul 2022</text>
    
        
        <path stroke="#74838f"  stroke-width="2.0"  d="M 500.01729106628244 206.0 L 500.01729106628244 214.0" />
        <text x="500.01729106628244" font-family="-apple-system, system-ui, BlinkMacSystemFont, Roboto" y="216.0" dominant-baseline="hanging" text-anchor="middle" font-size="12" fill="#24292f">Aug 2022</text>
    
        
        <path stroke="#74838f"  stroke-width="2.0"  d="M 582.5648414985591 206.0 L 582.5648414985591 214.0" />
        <text x="582.5648414985591" font-family="-apple-system, system-ui, BlinkMacSystemFont, Roboto" y="216.0" dominant-baseline="hanging" text-anchor="middle" font-size="12" fill="#24292f">Sep 2022</text>
    
        
        <path stroke="#74838f"  stroke-width="2.0"  d="M 662.449567723343 206.0 L 662.449567723343 214.0" />
        <text x="662.449567723343" font-family="-apple-system, system-ui, BlinkMacSystemFont, Roboto" y="216.0" dominant-baseline="hanging" text-anchor="middle" font-size="12" fill="#24292f">Oct 2022</text>
    
        
        <path stroke="#74838f"  stroke-width="2.0"  d="M 744.9971181556195 206.0 L 744.9971181556195 214.0" />
        <text x="744.9971181556195" font-family="-apple-system, system-ui, BlinkMacSystemFont, Roboto" y="216.0" dominant-baseline="hanging" text-anchor="middle" font-size="12" fill="#24292f">Nov 2022</text>
    
        
        <path stroke="#74838f"  stroke-width="2.0"  d="M 824.8818443804034 206.0 L 824.8818443804034 214.0" />
        <text x="824.8818443804034" font-family="-apple-system, system-ui, BlinkMacSystemFont, Roboto" y="216.0" dominant-baseline="hanging" text-anchor="middle" font-size="12" fill="#24292f">Dec 2022</text>
    
        
        <path stroke="#74838f"  stroke-width="2.0"  d="M 907.4293948126801 206.0 L 907.4293948126801 214.0" />
        <text x="907.4293948126801" font-family="-apple-system, system-ui, BlinkMacSystemFont, Roboto" y="216.0" dominant-baseline="hanging" text-anchor="middle" font-size="12" fill="#24292f">Jan 2023</text>
    
    <path stroke="#74838f"   stroke-linejoin="round" stroke-width="2.0" d="M 50.0 216.0 L 50.0 206.0 L 974.0 206.0 L 974.0 216.0"  fill="none" />
    <text x="512.0" y="25.0" font-family="-apple-system, system-ui, BlinkMacSystemFont, Roboto" dominant-baseline="middle" text-anchor="middle" font-size="18" fill="#24292f">Total daily suspensions</text>
</svg>
