<?xml version="1.0" standalone="no"?>
<svg width="1024.0" height="256.0"  viewBox="0 0 1024.0 256.0" preserveAspectRatio="xMidYMid meet" xmlns="http://www.w3.org/2000/svg">
    <path stroke="#e74c3c" stroke-linejoin="round" d="M 50.0 162.77066666666667 L 50 162.77066666666667L 51.87044534412956 194.12088888888889L 53.74089068825911 197.888L 55.611336032388664 198.2231111111111L 57.48178137651822 203.61955555555556L 59.35222672064777 200.16444444444443L 61.22267206477733 199.51733333333334L 63.093117408906885 191.65955555555556L 64.96356275303644 201.1582222222222L 66.83400809716599 198.89333333333332L 68.70445344129554 200.22222222222223L 70.57489878542509 202.70666666666665L 72.44534412955466 199.45955555555554L 74.3157894736842 195.9928888888889L 76.18623481781377 202.776L 78.05668016194332 198.98577777777777L 79.92712550607288 197.8071111111111L 81.79757085020242 191.96L 83.66801619433198 197.0328888888889L 85.53846153846155 199.70222222222222L 87.40890688259108 199.5751111111111L 89.27935222672065 198.5928888888889L 91.1497975708502 198.45422222222223L 93.02024291497976 200.06044444444444L 94.89068825910931 195.288L 96.76113360323887 200.12977777777778L 98.63157894736841 195.96977777777778L 100.50202429149797 200.92711111111112L 102.37246963562754 198.6968888888889L 104.24291497975707 191.22044444444444L 106.11336032388664 196.47822222222223L 107.98380566801619 191.38222222222223L 109.85425101214575 193.99377777777778L 111.7246963562753 199.92177777777778L 113.59514170040485 192.89600000000002L 115.46558704453442 197.33333333333334L 117.33603238866397 199.82933333333332L 119.20647773279352 194.00533333333334L 121.07692307692308 195.65777777777777L 122.94736842105263 195.81955555555555L 124.81781376518218 195.9351111111111L 126.68825910931174 196.83644444444445L 128.5587044534413 199.66755555555557L 130.42914979757086 199.4711111111111L 132.2995951417004 196.0391111111111L 134.17004048582996 194.39822222222222L 136.04048582995952 195.92355555555554L 137.91093117408906 199.03199999999998L 139.78137651821862 195.81955555555555L 141.65182186234819 194.44444444444446L 143.52226720647775 194.144L 145.39271255060729 187.04888888888888L 147.26315789473682 197.69155555555557L 149.13360323886639 196.33955555555556L 151.00404858299595 198.56977777777777L 152.8744939271255 194.8142222222222L 154.74493927125508 196.77866666666665L 156.61538461538464 197.32177777777778L 158.48582995951415 198.65066666666667L 160.3562753036437 198.35022222222221L 162.22672064777328 199.85244444444444L 164.09716599190284 192.07555555555555L 165.96761133603238 202.26755555555556L 167.83805668016197 193.80888888888887L 169.7085020242915 204.26666666666665L 171.57894736842104 206L 173.4493927125506 206L 175.31983805668017 206L 177.1902834008097 206L 179.0607287449393 191.04711111111112L 180.93117408906883 160.76L 182.80161943319837 194.02844444444446L 184.67206477732793 200.4417777777778L 186.5425101214575 193.7048888888889L 188.41295546558703 197.16L 190.2834008097166 200.00266666666667L 192.15384615384616 187.26844444444444L 194.0242914979757 198.18844444444443L 195.89473684210526 195.98133333333334L 197.76518218623482 191.08177777777777L 199.63562753036436 195.288L 201.50607287449392 190.97777777777776L 203.3765182186235 189.39466666666667L 205.24696356275305 198.15377777777778L 207.1174089068826 200.00266666666667L 208.98785425101212 192.4568888888889L 210.85829959514172 192.38755555555556L 212.72874493927125 199.56355555555555L 214.5991902834008 195.13777777777779L 216.46963562753038 193.10399999999998L 218.34008097165992 195.3111111111111L 220.21052631578945 199.93333333333334L 222.08097165991904 189.84533333333331L 223.95141700404858 198.70844444444444L 225.82186234817814 196.50133333333332L 227.6923076923077 195.69244444444445L 229.56275303643724 196.62844444444445L 231.4331983805668 193.65866666666668L 233.30364372469637 197.52977777777778L 235.1740890688259 194.3057777777778L 237.04453441295547 197.4257777777778L 238.914979757085 179.19111111111113L 240.78542510121457 194.80266666666665L 242.65587044534414 196.29333333333335L 244.52631578947367 195.5191111111111L 246.39676113360323 197.0328888888889L 248.2672064777328 197.8071111111111L 250.13765182186233 198.00355555555555L 252.0080971659919 187.55733333333333L 253.87854251012146 193.13866666666667L 255.748987854251 199.85244444444444L 257.6194331983806 193.53155555555554L 259.48987854251016 191.6248888888889L 261.36032388663966 195.8311111111111L 263.2307692307693 196.54755555555556L 265.1012145748988 196.81333333333333L 266.9716599190283 197.63377777777777L 268.8421052631579 193.55466666666666L 270.7125506072874 206L 272.582995951417 187.16444444444446L 274.45344129554655 187.34933333333333L 276.3238866396761 191.8213333333333L 278.1943319838057 181.86044444444445L 280.0647773279352 201.8631111111111L 281.93522267206475 186.49422222222222L 283.8056680161943 196.39733333333334L 285.67611336032394 190.07644444444443L 287.54655870445345 194.664L 289.417004048583 196.016L 291.2874493927126 197.18311111111112L 293.1578947368421 187.06044444444444L 295.0283400809717 198.29244444444444L 296.8987854251012 189.55644444444445L 298.7692307692307 189.7528888888889L 300.63967611336034 197.09066666666666L 302.5101214574899 183.328L 304.3805668016194 184.9688888888889L 306.251012145749 206L 308.1214574898786 206L 309.9919028340081 206L 311.86234817813767 161.85777777777778L 313.7327935222672 198.81244444444445L 315.60323886639674 196.952L 317.4736842105263 196.05066666666667L 319.34412955465586 193.2888888888889L 321.21457489878543 197.29866666666666L 323.085020242915 198.13066666666668L 324.9554655870445 201.0311111111111L 326.82591093117406 171.63377777777777L 328.6963562753037 189.85688888888888L 330.5668016194332 178.4862222222222L 332.43724696356276 192.09866666666667L 334.3076923076923 179.792L 336.1781376518218 177.46933333333334L 338.0485829959514 182.6L 339.919028340081 188.1582222222222L 341.7894736842105 193.36977777777778L 343.6599190283401 189.99555555555554L 345.53036437246965 188.4471111111111L 347.40080971659916 190.01866666666666L 349.2712550607287 188.216L 351.14170040485834 194.05155555555555L 353.01214574898785 185.81244444444445L 354.8825910931174 172.61599999999999L 356.753036437247 181.09777777777776L 358.6234817813765 173.56355555555555L 360.4939271255061 193.50844444444445L 362.36437246963567 192.51466666666667L 364.2348178137652 193.53155555555554L 366.10526315789474 195.25333333333333L 367.97570850202425 193.99377777777778L 369.8461538461538 194.46755555555555L 371.71659919028343 189.89155555555556L 373.58704453441294 195.58844444444446L 375.4574898785425 196.6168888888889L 377.32793522267207 193.11555555555555L 379.1983805668016 191.40533333333332L 381.0688259109312 201.16977777777777L 382.93927125506076 185.58133333333333L 384.80971659919027 191.44L 386.68016194331983 194.8488888888889L 388.5506072874494 190.45777777777778L 390.4210526315789 196.23555555555555L 392.2914979757085 192.5031111111111L 394.1619433198381 193.57777777777778L 396.0323886639676 187.18755555555555L 397.90283400809716 191.03555555555556L 399.7732793522267 183.0391111111111L 401.6437246963563 187.83466666666666L 403.51417004048585 192.064L 405.3846153846154 184.9111111111111L 407.2550607287449 189.76444444444445L 409.1255060728745 185.97422222222224L 410.99595141700405 186.22844444444445L 412.8663967611336 177.8968888888889L 414.7368421052632 189.672L 416.60728744939274 191.60177777777778L 418.47773279352225 189.39466666666667L 420.3481781376518 188.27377777777778L 422.2186234817814 191.9368888888889L 424.08906882591094 188.47022222222222L 425.9595141700405 188.88622222222222L 427.82995951417 190.85066666666665L 429.7004048582996 194.80266666666665L 431.57085020242914 195.13777777777779L 433.4412955465587 201.48177777777778L 435.31174089068827 193.24266666666665L 437.18218623481783 182.06844444444445L 439.05263157894734 182.64622222222224L 440.9230769230769 182.12622222222222L 442.79352226720647 191.84444444444443L 444.66396761133603 187.592L 446.5344129554656 182.288L 448.40485829959516 187.22222222222223L 450.27530364372467 189.09422222222221L 452.14574898785423 180.63555555555556L 454.0161943319838 183.94044444444444L 455.88663967611336 174.76533333333333L 457.7570850202429 184.6568888888889L 459.6275303643725 172.93955555555556L 461.497975708502 150.29066666666665L 463.36842105263156 179.0408888888889L 465.2388663967612 144.23555555555555L 467.1093117408907 186.864L 468.97975708502025 189.18666666666667L 470.8502024291498 188.424L 472.7206477732793 193.728L 474.5910931174089 187.31466666666665L 476.4615384615385 186.1822222222222L 478.331983805668 187.58044444444445L 480.2024291497976 186.136L 482.07287449392715 193.312L 483.94331983805665 189.19822222222223L 485.8137651821862 189.9377777777778L 487.6842105263158 187.34933333333333L 489.55465587044534 186.51733333333334L 491.4251012145749 189.3831111111111L 493.2955465587044 188.0311111111111L 495.165991902834 192.98844444444444L 497.0364372469636 187.73066666666668L 498.9068825910931 186.22844444444445L 500.7773279352227 182.81955555555555L 502.64777327935224 184.6222222222222L 504.51821862348174 181.248L 506.3886639676113 186.27466666666666L 508.25910931174093 194.44444444444446L 510.12955465587044 190.90844444444446L 512 187.30311111111112L 513.8704453441295 169.71555555555557L 515.7408906882591 120.77777777777779L 517.6113360323886 189.72977777777777L 519.4817813765183 188.51644444444446L 521.3522267206479 190.86222222222221L 523.2226720647773 192.82666666666665L 525.0931174089069 189.82222222222222L 526.9635627530365 183.16622222222222L 528.834008097166 189.14044444444443L 530.7044534412955 179.9191111111111L 532.5748987854251 59.082666666666654L 534.4453441295547 164.26133333333334L 536.3157894736842 185.31555555555556L 538.1862348178138 183.57066666666668L 540.0566801619434 184.50666666666666L 541.9271255060728 185.00355555555555L 543.7975708502024 180.0808888888889L 545.668016194332 190.74666666666667L 547.5384615384614 181.42133333333334L 549.408906882591 162.58577777777776L 551.2793522267207 124.3368888888889L 553.1497975708502 153.52622222222223L 555.0202429149798 165.68266666666668L 556.8906882591093 182.1031111111111L 558.7611336032388 171.8071111111111L 560.6315789473686 180.76266666666666L 562.502024291498 174.41866666666667L 564.3724696356276 179.376L 566.2429149797572 183.65155555555555L 568.1133603238867 178.22044444444444L 569.9838056680162 185.03822222222223L 571.8542510121457 188.47022222222222L 573.7246963562753 189.00177777777776L 575.5951417004048 185.52355555555556L 577.4655870445343 182.7848888888889L 579.336032388664 182.69244444444445L 581.2064777327935 180.34666666666666L 583.076923076923 169.5768888888889L 584.9473684210526 182.704L 586.8178137651822 186.136L 588.6882591093117 169.12622222222222L 590.5587044534414 143.0222222222222L 592.4291497975709 162.45866666666666L 594.2995951417004 153.67644444444443L 596.17004048583 148.176L 598.0404858299595 157.16622222222222L 599.910931174089 155.61777777777777L 601.7813765182186 164.63111111111112L 603.6518218623481 173.32088888888887L 605.5222672064776 151.0648888888889L 607.3927125506074 173.07822222222222L 609.2631578947369 173.70222222222222L 611.1336032388664 173.74844444444443L 613.004048582996 184.472L 614.8744939271255 167.77422222222222L 616.744939271255 160.9911111111111L 618.6153846153846 173.8871111111111L 620.4858299595141 167L 622.3562753036437 156.78488888888887L 624.2267206477733 175.07733333333334L 626.0971659919028 177.4L 627.9676113360324 187.22222222222223L 629.838056680162 184.74933333333334L 631.7085020242915 183.952L 633.578947368421 152.19733333333335L 635.4493927125507 183.96355555555556L 637.3198380566802 186.8871111111111L 639.1902834008097 185.87022222222222L 641.0607287449393 183.15466666666666L 642.9311740890688 183.06222222222223L 644.8016194331983 183.02755555555555L 646.6720647773279 176.10577777777777L 648.5425101214574 182.87733333333333L 650.4129554655871 180.48533333333333L 652.2834008097167 185.56977777777777L 654.1538461538462 180L 656.0242914979757 176.984L 657.8947368421053 178.20888888888888L 659.7651821862348 179.8382222222222L 661.6356275303643 183.09688888888888L 663.506072874494 177.53866666666667L 665.3765182186235 183.44355555555555L 667.246963562753 178.09333333333333L 669.1174089068826 179.59555555555556L 670.9878542510122 183.02755555555555L 672.8582995951417 180.4622222222222L 674.7287449392713 178.04711111111112L 676.5991902834008 186.89866666666666L 678.4696356275304 177.20355555555557L 680.34008097166 179.07555555555555L 682.2105263157895 154.9591111111111L 684.080971659919 133.512L 685.9514170040485 151.96622222222223L 687.8218623481781 151.57333333333332L 689.6923076923076 184.9111111111111L 691.5627530364372 185.28088888888888L 693.4331983805669 178.61333333333334L 695.3036437246964 142.39822222222222L 697.1740890688259 150.1751111111111L 699.0445344129555 164.04177777777778L 700.914979757085 138.82755555555556L 702.7854251012145 134.864L 704.6558704453441 144.85955555555557L 706.5263157894736 145.57600000000002L 708.3967611336031 128.7048888888889L 710.2672064777328 120.36177777777777L 712.1376518218624 165.80977777777778L 714.0080971659919 163.51022222222224L 715.8785425101215 160.39022222222223L 717.748987854251 177.504L 719.6194331983805 187.34933333333333L 721.4898785425102 188.04266666666666L 723.3603238866397 186.8871111111111L 725.2307692307692 176.08266666666668L 727.1012145748988 179.41066666666666L 728.9716599190283 195.0568888888889L 730.8421052631578 185.53511111111112L 732.7125506072874 183.6977777777778L 734.582995951417 174.97333333333333L 736.4534412955466 178.61333333333334L 738.3238866396762 180.9591111111111L 740.1943319838057 184.0328888888889L 742.0647773279352 155.61777777777777L 743.9352226720648 149.7128888888889L 745.8056680161943 186.2631111111111L 747.6761133603238 191.28977777777777L 749.5465587044534 175.90933333333334L 751.417004048583 175.49333333333334L 753.2874493927126 184.51822222222222L 755.1578947368422 189.69511111111112L 757.0283400809717 187.592L 758.8987854251012 180.09244444444445L 760.7692307692308 176.92622222222224L 762.6396761133603 163.31377777777777L 764.5101214574898 162.112L 766.3805668016195 167.1271111111111L 768.251012145749 180.32355555555554L 770.1214574898785 184.11377777777778L 771.9919028340081 191.57866666666666L 773.8623481781376 195.54222222222222L 775.7327935222672 183.54755555555556L 777.6032388663969 164.03022222222222L 779.4736842105264 171.05599999999998L 781.3441295546559 169.92355555555557L 783.2145748987855 180.02311111111112L 785.085020242915 172.07288888888888L 786.9554655870445 163.53333333333333L 788.8259109311741 171.34488888888887L 790.6963562753036 181.59466666666668L 792.5668016194331 179.80355555555556L 794.4372469635628 166.17955555555557L 796.3076923076924 154.92444444444445L 798.1781376518219 158.4488888888889L 800.0485829959515 156.4728888888889L 801.919028340081 144.4551111111111L 803.7894736842105 158.52977777777778L 805.65991902834 178.00088888888888L 807.5303643724696 144.99822222222224L 809.4008097165992 134.136L 811.2712550607287 139.8213333333333L 813.1417004048583 145.04444444444445L 815.0121457489878 153.168L 816.8825910931174 140.53777777777776L 818.753036437247 113.86755555555555L 820.6234817813765 113.28977777777777L 822.493927125506 164.85066666666665L 824.3643724696357 163.62577777777778L 826.2348178137652 150.16355555555555L 828.1052631578947 149.84L 829.9757085020243 56.54044444444443L 831.8461538461538 124.776L 833.7165991902833 64.07466666666667L 835.5870445344129 123.55111111111111L 837.4574898785426 157.536L 839.3279352226721 147.9911111111111L 841.1983805668017 136.22755555555557L 843.0688259109312 91.11466666666666L 844.9392712550607 107.36177777777779L 846.8097165991903 141.68177777777777L 848.6801619433198 157.73244444444444L 850.5506072874493 152.63644444444444L 852.421052631579 96.22222222222221L 854.2914979757085 150.19822222222223L 856.161943319838 116.57155555555556L 858.0323886639676 127.34133333333332L 859.9028340080972 180.53155555555554L 861.7732793522267 137.10577777777777L 863.6437246963563 122.64977777777779L 865.5141700404859 104.61155555555555L 867.3846153846154 141.76266666666666L 869.255060728745 164.23822222222222L 871.1255060728745 160.51733333333334L 872.995951417004 154.57777777777778L 874.8663967611336 175.01955555555554L 876.7368421052631 146.87022222222222L 878.6072874493926 153.23733333333334L 880.4777327935224 142.82577777777777L 882.3481781376519 130.98133333333334L 884.2186234817814 88.53777777777778L 886.089068825911 174.488L 887.9595141700405 50.55466666666666L 889.82995951417 84.43555555555557L 891.7004048582996 152.47466666666668L 893.5708502024291 114.90755555555555L 895.4412955465586 96.30311111111112L 897.3117408906883 171.46044444444445L 899.1821862348178 183.96355555555556L 901.0526315789474 169.87733333333333L 902.923076923077 183.13155555555556L 904.7935222672065 171.992L 906.663967611336 152.48622222222224L 908.5344129554657 169.704L 910.4048582995952 172.99733333333333L 912.2753036437247 164.61955555555556L 914.1457489878543 162.64355555555557L 916.0161943319838 170.51288888888888L 917.8866396761133 145.6568888888889L 919.7570850202428 159.81244444444445L 921.6275303643724 167.2542222222222L 923.497975708502 141.55466666666666L 925.3684210526316 160.864L 927.2388663967612 157.7208888888889L 929.1093117408907 154.87822222222223L 930.9797570850202 145.29866666666666L 932.8502024291498 177.65422222222222L 934.7206477732793 119.73777777777778L 936.5910931174088 144.96355555555556L 938.4615384615385 151.15733333333333L 940.331983805668 164.4231111111111L 942.2024291497976 174.1991111111111L 944.0728744939272 171.784L 945.9433198380567 157.12L 947.8137651821862 159.44266666666667L 949.6842105263158 169.77333333333334L 951.5546558704453 166.64177777777778L 953.4251012145749 176.5102222222222L 955.2955465587045 174.04888888888888L 957.165991902834 157.17777777777778L 959.0364372469635 148.66133333333335L 960.9068825910931 141.01155555555556L 962.7773279352226 147.49422222222222L 964.6477732793522 147.08977777777778L 966.5182186234819 164.78133333333332L 968.3886639676114 160.4711111111111L 970.2591093117409 165.59022222222222L 972.1295546558705 150.85688888888888L 974 201.51644444444446" stroke-width="2.0" fill="none" />
    
        
        
        <text x="45.0" font-family="-apple-system, system-ui, BlinkMacSystemFont, Roboto" y="50.0" dominant-baseline="middle" text-anchor="end" font-size="12" fill="#24292f">13500.0</text>
        
            
            <path stroke="#74838f" stroke-dasharray="10 6" stroke-width="0.5"  d="M 50.0 50.0 L 974.0 50.0" />
        
    
        
        
        <text x="45.0" font-family="-apple-system, system-ui, BlinkMacSystemFont, Roboto" y="81.2" dominant-baseline="middle" text-anchor="end" font-size="12" fill="#24292f">10800.0</text>
        
            
            
            <path stroke="#74838f" stroke-dasharray="10 6" stroke-width="0.5"  d="M 50.0 81.2 L 974.0 81.2" />
        
    
        
        
        <text x="45.0" font-family="-apple-system, system-ui, BlinkMacSystemFont, Roboto" y="112.4" dominant-baseline="middle" text-anchor="end" font-size="12" fill="#24292f">8100.0</text>
        
            
            
            <path stroke="#74838f" stroke-dasharray="10 6" stroke-width="0.5"  d="M 50.0 112.4 L 974.0 112.4" />
        
    
        
        
        <text x="45.0" font-family="-apple-system, system-ui, BlinkMacSystemFont, Roboto" y="143.6" dominant-baseline="middle" text-anchor="end" font-size="12" fill="#24292f">5400.0</text>
        
            
            
            <path stroke="#74838f" stroke-dasharray="10 6" stroke-width="0.5"  d="M 50.0 143.6 L 974.0 143.6" />
        
    
        
        
        <text x="45.0" font-family="-apple-system, system-ui, BlinkMacSystemFont, Roboto" y="174.8" dominant-baseline="middle" text-anchor="end" font-size="12" fill="#24292f">2700.0</text>
        
            
            
            <path stroke="#74838f" stroke-dasharray="10 6" stroke-width="0.5"  d="M 50.0 174.8 L 974.0 174.8" />
        
    
        
        
        <text x="45.0" font-family="-apple-system, system-ui, BlinkMacSystemFont, Roboto" y="206.0" dominant-baseline="middle" text-anchor="end" font-size="12" fill="#24292f">0.0</text>
        
    
    
        
        <path stroke="#74838f"  stroke-width="2.0"  d="M 79.92712550607288 206.0 L 79.92712550607288 214.0" />
        <text x="79.92712550607288" font-family="-apple-system, system-ui, BlinkMacSystemFont, Roboto" y="216.0" dominant-baseline="hanging" text-anchor="middle" font-size="12" fill="#24292f">Mar 2022</text>
    
        
        <path stroke="#74838f"  stroke-width="2.0"  d="M 137.91093117408906 206.0 L 137.91093117408906 214.0" />
        <text x="137.91093117408906" font-family="-apple-system, system-ui, BlinkMacSystemFont, Roboto" y="216.0" dominant-baseline="hanging" text-anchor="middle" font-size="12" fill="#24292f">Apr 2022</text>
    
        
        <path stroke="#74838f"  stroke-width="2.0"  d="M 194.0242914979757 206.0 L 194.0242914979757 214.0" />
        <text x="194.0242914979757" font-family="-apple-system, system-ui, BlinkMacSystemFont, Roboto" y="216.0" dominant-baseline="hanging" text-anchor="middle" font-size="12" fill="#24292f">May 2022</text>
    
        
        <path stroke="#74838f"  stroke-width="2.0"  d="M 252.0080971659919 206.0 L 252.0080971659919 214.0" />
        <text x="252.0080971659919" font-family="-apple-system, system-ui, BlinkMacSystemFont, Roboto" y="216.0" dominant-baseline="hanging" text-anchor="middle" font-size="12" fill="#24292f">Jun 2022</text>
    
        
        <path stroke="#74838f"  stroke-width="2.0"  d="M 308.1214574898786 206.0 L 308.1214574898786 214.0" />
        <text x="308.1214574898786" font-family="-apple-system, system-ui, BlinkMacSystemFont, Roboto" y="216.0" dominant-baseline="hanging" text-anchor="middle" font-size="12" fill="#24292f">Jul 2022</text>
    
        
        <path stroke="#74838f"  stroke-width="2.0"  d="M 366.10526315789474 206.0 L 366.10526315789474 214.0" />
        <text x="366.10526315789474" font-family="-apple-system, system-ui, BlinkMacSystemFont, Roboto" y="216.0" dominant-baseline="hanging" text-anchor="middle" font-size="12" fill="#24292f">Aug 2022</text>
    
        
        <path stroke="#74838f"  stroke-width="2.0"  d="M 424.08906882591094 206.0 L 424.08906882591094 214.0" />
        <text x="424.08906882591094" font-family="-apple-system, system-ui, BlinkMacSystemFont, Roboto" y="216.0" dominant-baseline="hanging" text-anchor="middle" font-size="12" fill="#24292f">Sep 2022</text>
    
        
        <path stroke="#74838f"  stroke-width="2.0"  d="M 480.2024291497976 206.0 L 480.2024291497976 214.0" />
        <text x="480.2024291497976" font-family="-apple-system, system-ui, BlinkMacSystemFont, Roboto" y="216.0" dominant-baseline="hanging" text-anchor="middle" font-size="12" fill="#24292f">Oct 2022</text>
    
        
        <path stroke="#74838f"  stroke-width="2.0"  d="M 538.1862348178138 206.0 L 538.1862348178138 214.0" />
        <text x="538.1862348178138" font-family="-apple-system, system-ui, BlinkMacSystemFont, Roboto" y="216.0" dominant-baseline="hanging" text-anchor="middle" font-size="12" fill="#24292f">Nov 2022</text>
    
        
        <path stroke="#74838f"  stroke-width="2.0"  d="M 594.2995951417004 206.0 L 594.2995951417004 214.0" />
        <text x="594.2995951417004" font-family="-apple-system, system-ui, BlinkMacSystemFont, Roboto" y="216.0" dominant-baseline="hanging" text-anchor="middle" font-size="12" fill="#24292f">Dec 2022</text>
    
        
        <path stroke="#74838f"  stroke-width="2.0"  d="M 652.2834008097167 206.0 L 652.2834008097167 214.0" />
        <text x="652.2834008097167" font-family="-apple-system, system-ui, BlinkMacSystemFont, Roboto" y="216.0" dominant-baseline="hanging" text-anchor="middle" font-size="12" fill="#24292f">Jan 2023</text>
    
        
        <path stroke="#74838f"  stroke-width="2.0"  d="M 710.2672064777328 206.0 L 710.2672064777328 214.0" />
        <text x="710.2672064777328" font-family="-apple-system, system-ui, BlinkMacSystemFont, Roboto" y="216.0" dominant-baseline="hanging" text-anchor="middle" font-size="12" fill="#24292f">Feb 2023</text>
    
        
        <path stroke="#74838f"  stroke-width="2.0"  d="M 762.6396761133603 206.0 L 762.6396761133603 214.0" />
        <text x="762.6396761133603" font-family="-apple-system, system-ui, BlinkMacSystemFont, Roboto" y="216.0" dominant-baseline="hanging" text-anchor="middle" font-size="12" fill="#24292f">Mar 2023</text>
    
        
        <path stroke="#74838f"  stroke-width="2.0"  d="M 820.6234817813765 206.0 L 820.6234817813765 214.0" />
        <text x="820.6234817813765" font-family="-apple-system, system-ui, BlinkMacSystemFont, Roboto" y="216.0" dominant-baseline="hanging" text-anchor="middle" font-size="12" fill="#24292f">Apr 2023</text>
    
        
        <path stroke="#74838f"  stroke-width="2.0"  d="M 876.7368421052631 206.0 L 876.7368421052631 214.0" />
        <text x="876.7368421052631" font-family="-apple-system, system-ui, BlinkMacSystemFont, Roboto" y="216.0" dominant-baseline="hanging" text-anchor="middle" font-size="12" fill="#24292f">May 2023</text>
    
        
        <path stroke="#74838f"  stroke-width="2.0"  d="M 934.7206477732793 206.0 L 934.7206477732793 214.0" />
        <text x="934.7206477732793" font-family="-apple-system, system-ui, BlinkMacSystemFont, Roboto" y="216.0" dominant-baseline="hanging" text-anchor="middle" font-size="12" fill="#24292f">Jun 2023</text>
    
    <path stroke="#74838f"   stroke-linejoin="round" stroke-width="2.0" d="M 50.0 216.0 L 50.0 206.0 L 974.0 206.0 L 974.0 216.0"  fill="none" />
    <text x="512.0" y="25.0" font-family="-apple-system, system-ui, BlinkMacSystemFont, Roboto" dominant-baseline="middle" text-anchor="middle" font-size="18" fill="#24292f">Total daily suspensions</text>
</svg>
