<?xml version="1.0" standalone="no"?>
<svg width="1024.0" height="256.0"  viewBox="0 0 1024.0 256.0" preserveAspectRatio="xMidYMid meet" xmlns="http://www.w3.org/2000/svg">
    <path stroke="#e74c3c" stroke-linejoin="round" d="M 50.0 161.108 L 50 161.108L 52.5595567867036 193.664L 55.119113573407205 197.576L 57.6786703601108 197.924L 60.2382271468144 203.528L 62.797783933518005 199.94L 65.3573407202216 199.268L 67.91689750692521 191.108L 70.4764542936288 200.972L 73.03601108033241 198.62L 75.59556786703601 200L 78.15512465373962 202.57999999999998L 80.71468144044321 199.208L 83.27423822714681 195.608L 85.83379501385042 202.652L 88.39335180055402 198.716L 90.95290858725761 197.49200000000002L 93.51246537396122 191.42000000000002L 96.07202216066483 196.688L 98.63157894736841 199.46L 101.19113573407202 199.328L 103.75069252077563 198.308L 106.31024930747922 198.164L 108.86980609418282 199.832L 111.42936288088643 194.876L 113.98891966759004 199.904L 116.54847645429363 195.584L 119.10803324099723 200.732L 121.66759002770083 198.416L 124.22714681440443 190.652L 126.78670360110803 196.112L 129.34626038781164 190.82L 131.90581717451522 193.53199999999998L 134.46537396121886 199.688L 137.02493074792244 192.392L 139.58448753462605 197L 142.14404432132966 199.59199999999998L 144.70360110803324 193.54399999999998L 147.26315789473682 195.26L 149.82271468144046 195.428L 152.38227146814404 195.548L 154.94182825484765 196.484L 157.50138504155126 199.424L 160.06094182825484 199.22L 162.62049861495845 195.656L 165.18005540166206 193.952L 167.73961218836564 195.536L 170.29916897506928 198.764L 172.85872576177286 195.428L 175.41828254847647 194L 177.97783933518008 193.688L 180.53739612188366 186.32L 183.09695290858727 197.372L 185.65650969529088 195.96800000000002L 188.21606648199446 198.284L 190.77562326869804 194.38400000000001L 193.33518005540165 196.424L 195.89473684210526 196.988L 198.45429362880887 198.368L 201.01385041551245 198.05599999999998L 203.57340720221606 199.61599999999999L 206.13296398891967 191.54L 208.69252077562328 202.124L 211.25207756232686 193.34L 213.81163434903047 204.2L 216.37119113573408 206L 218.9307479224377 206L 221.49030470914127 206L 224.04986149584488 206L 226.6094182825485 190.472L 229.1689750692521 159.01999999999998L 231.72853185595568 193.56799999999998L 234.2880886426593 200.228L 236.8476454293629 193.232L 239.4072022160665 196.82L 241.96675900277006 199.772L 244.52631578947367 186.548L 247.08587257617728 197.888L 249.6454293628809 195.596L 252.20498614958447 190.508L 254.76454293628808 194.876L 257.3240997229917 190.4L 259.8836565096953 188.756L 262.4432132963989 197.852L 265.0027700831025 199.772L 267.5623268698061 191.936L 270.1218836565097 191.864L 272.6814404432133 199.316L 275.2409972299169 194.72L 277.8005540166205 192.608L 280.3601108033241 194.9L 282.91966759002764 199.7L 285.4792243767313 189.224L 288.0387811634349 198.428L 290.59833795013856 196.136L 293.1578947368421 195.296L 295.7174515235457 196.268L 298.2770083102493 193.184L 300.83656509695294 197.204L 303.3961218836565 193.856L 305.95567867036016 197.096L 308.5152354570637 178.16L 311.0747922437673 194.372L 313.6343490304709 195.92000000000002L 316.19390581717454 195.11599999999999L 318.7534626038781 196.688L 321.31301939058176 197.49200000000002L 323.87257617728534 197.696L 326.4321329639889 186.848L 328.9916897506925 192.644L 331.5512465373961 199.61599999999999L 334.1108033240997 193.052L 336.6703601108033 191.072L 339.22991689750694 195.44L 341.7894736842105 196.184L 344.34903047091416 196.46L 346.90858725761774 197.312L 349.4681440443213 193.076L 352.0277008310249 206L 354.58725761772854 186.44L 357.1468144044321 186.632L 359.70637119113576 191.276L 362.26592797783934 180.93200000000002L 364.825484764543 201.704L 367.38504155124656 185.744L 369.94459833795014 196.028L 372.5041551246537 189.464L 375.06371191135736 194.228L 377.62326869806094 195.632L 380.1828254847645 196.844L 382.74238227146816 186.332L 385.30193905817174 197.99599999999998L 387.8614958448754 188.924L 390.4210526315789 189.128L 392.98060941828254 196.748L 395.5401662049861 182.45600000000002L 398.09972299168976 184.16L 400.65927977839334 206L 403.218836565097 206L 405.77839335180056 206L 408.3379501385042 160.16L 410.8975069252077 198.536L 413.45706371191136 196.60399999999998L 416.01662049861494 195.668L 418.5761772853186 192.8L 421.13573407202216 196.964L 423.6952908587258 197.828L 426.2548476454294 200.84L 428.814404432133 170.312L 431.37396121883654 189.236L 433.9335180055401 177.428L 436.49307479224376 191.564L 439.05263157894734 178.784L 441.612188365651 176.372L 444.17174515235456 181.7L 446.7313019390582 187.472L 449.2908587257618 192.88400000000001L 451.85041551246536 189.38L 454.40997229916894 187.772L 456.9695290858726 189.404L 459.52908587257616 187.532L 462.0886426592798 193.59199999999998L 464.6481994459834 185.036L 467.207756232687 171.332L 469.7673130193906 180.14L 472.3268698060942 172.316L 474.88642659279776 193.028L 477.4459833795014 191.996L 480.005540166205 193.052L 482.5650969529086 194.84L 485.1246537396122 193.53199999999998L 487.6842105263158 194.024L 490.2437673130194 189.272L 492.80332409972294 195.188L 495.3628808864266 196.256L 497.92243767313016 192.62L 500.4819944598338 190.844L 503.0415512465374 200.984L 505.601108033241 184.796L 508.1606648199446 190.88L 510.72022160664824 194.42000000000002L 513.2797783933518 189.86L 515.8393351800553 195.86L 518.398891966759 191.984L 520.9584487534626 193.1L 523.5180055401662 186.464L 526.0775623268698 190.46L 528.6371191135735 182.156L 531.1966759002771 187.136L 533.7562326869806 191.528L 536.3157894736842 184.1L 538.8753462603879 189.14L 541.4349030470914 185.204L 543.994459833795 185.468L 546.5540166204986 176.816L 549.1135734072022 189.04399999999998L 551.6731301939059 191.048L 554.2326869806094 188.756L 556.792243767313 187.592L 559.3518005540166 191.39600000000002L 561.9113573407203 187.796L 564.4709141274238 188.228L 567.0304709141274 190.268L 569.590027700831 194.372L 572.1495844875346 194.72L 574.7091412742383 201.308L 577.2686980609418 192.752L 579.8282548476454 181.148L 582.3878116343491 181.748L 584.9473684210526 181.208L 587.5069252077562 191.3L 590.0664819944598 186.88400000000001L 592.6260387811635 181.376L 595.185595567867 186.5L 597.7451523545707 188.44400000000002L 600.3047091412742 179.66L 602.8642659279778 183.09199999999998L 605.4238227146815 173.564L 607.983379501385 183.836L 610.5429362880886 171.668L 613.1024930747922 148.148L 615.6620498614959 178.004L 618.2216066481994 141.86L 620.7811634349031 186.128L 623.3407202216066 188.54000000000002L 625.9002770083102 187.748L 628.4598337950139 193.256L 631.0193905817174 186.596L 633.578947368421 185.42000000000002L 636.1385041551247 186.872L 638.6980609418283 185.372L 641.2576177285318 192.824L 643.8171745152355 188.552L 646.3767313019391 189.32L 648.9362880886426 186.632L 651.4958448753463 185.768L 654.0554016620498 188.744L 656.6149584487534 187.34L 659.1745152354571 192.488L 661.7340720221607 187.028L 664.2936288088642 185.468L 666.8531855955679 181.928L 669.4127423822715 183.8L 671.972299168975 180.296L 674.5318559556787 185.516L 677.0914127423822 194L 679.650969529086 190.328L 682.2105263157895 186.584L 684.7700831024931 168.32L 687.3296398891966 117.5L 689.8891966759003 189.10399999999998L 692.4487534626039 187.844L 695.0083102493074 190.28L 697.5678670360111 192.32L 700.1274238227147 189.2L 702.6869806094184 182.288L 705.2465373961219 188.49200000000002L 707.8060941828255 178.916L 710.365650969529 53.432000000000016L 712.9252077562327 162.656L 715.4847645429363 184.52L 718.0443213296398 182.708L 720.6038781163435 183.68L 723.1634349030471 184.196L 725.7229916897508 179.084L 728.2825484764543 190.16L 730.8421052631578 180.476L 733.4016620498616 160.916L 735.9612188365651 121.196L 738.5207756232687 151.50799999999998L 741.0803324099722 164.132L 743.639889196676 181.184L 746.1994459833795 170.49200000000002L 748.759002770083 179.792L 751.3185595567867 173.204L 753.8781163434903 178.352L 756.437673130194 182.792L 758.9972299168975 177.152L 761.5567867036011 184.232L 764.1163434903046 187.796L 766.6759002770084 188.348L 769.2354570637119 184.736L 771.7950138504154 181.892L 774.3545706371191 181.796L 776.9141274238227 179.36L 779.4736842105264 168.176L 782.0332409972299 181.808L 784.5927977839335 185.372L 787.1523545706372 167.708L 789.7119113573407 140.6L 792.2714681440443 160.784L 794.8310249307478 151.664L 797.3905817174516 145.952L 799.9501385041551 155.288L 802.5096952908588 153.68L 805.0692520775623 163.04L 807.628808864266 172.064L 810.1883656509696 148.952L 812.7479224376731 171.812L 815.3074792243767 172.46L 817.8670360110802 172.508L 820.426592797784 183.644L 822.9861495844875 166.304L 825.5457063711912 159.26L 828.1052631578947 172.652L 830.6648199445983 165.5L 833.224376731302 154.892L 835.7839335180055 173.888L 838.3434903047091 176.3L 840.9030470914128 186.5L 843.4626038781164 183.932L 846.0221606648199 183.10399999999998L 848.5817174515236 150.128L 851.1412742382272 183.11599999999999L 853.7008310249307 186.152L 856.2603878116344 185.096L 858.8199445983379 182.276L 861.3795013850416 182.18L 863.9390581717452 182.144L 866.4986149584488 174.956L 869.0581717451523 181.988L 871.617728531856 179.504L 874.1772853185596 184.784L 876.7368421052631 179L 879.2963988919668 175.868L 881.8559556786703 177.14L 884.415512465374 178.832L 886.9750692520776 182.216L 889.5346260387812 176.444L 892.0941828254847 182.576L 894.6537396121884 177.02L 897.213296398892 178.58L 899.7728531855955 182.144L 902.3324099722992 179.48L 904.8919667590028 176.972L 907.4515235457064 186.164L 910.01108033241 176.096L 912.5706371191136 178.04L 915.1301939058172 152.996L 917.6897506925208 130.724L 920.2493074792244 149.888L 922.8088642659279 149.48L 925.3684210526316 184.1L 927.9279778393352 184.484L 930.4875346260388 177.56L 933.0470914127424 139.952L 935.6066481994459 148.028L 938.1662049861496 162.428L 940.7257617728532 136.244L 943.2853185595568 132.128L 945.8448753462603 142.508L 948.4044321329641 143.252L 950.9639889196676 125.732L 953.5235457063712 117.06800000000001L 956.0831024930748 164.264L 958.6426592797784 161.876L 961.202216066482 158.636L 963.7617728531856 176.40800000000002L 966.3213296398892 186.632L 968.8808864265928 187.352L 971.4404432132965 186.152L 974 200.24" stroke-width="2.0" fill="none" />
    
        
        
        <text x="45.0" font-family="-apple-system, system-ui, BlinkMacSystemFont, Roboto" y="50.0" dominant-baseline="middle" text-anchor="end" font-size="12" fill="#24292f">13000.0</text>
        
            
            <path stroke="#74838f" stroke-dasharray="10 6" stroke-width="0.5"  d="M 50.0 50.0 L 974.0 50.0" />
        
    
        
        
        <text x="45.0" font-family="-apple-system, system-ui, BlinkMacSystemFont, Roboto" y="81.2" dominant-baseline="middle" text-anchor="end" font-size="12" fill="#24292f">10400.0</text>
        
            
            
            <path stroke="#74838f" stroke-dasharray="10 6" stroke-width="0.5"  d="M 50.0 81.2 L 974.0 81.2" />
        
    
        
        
        <text x="45.0" font-family="-apple-system, system-ui, BlinkMacSystemFont, Roboto" y="112.4" dominant-baseline="middle" text-anchor="end" font-size="12" fill="#24292f">7800.0</text>
        
            
            
            <path stroke="#74838f" stroke-dasharray="10 6" stroke-width="0.5"  d="M 50.0 112.4 L 974.0 112.4" />
        
    
        
        
        <text x="45.0" font-family="-apple-system, system-ui, BlinkMacSystemFont, Roboto" y="143.6" dominant-baseline="middle" text-anchor="end" font-size="12" fill="#24292f">5200.0</text>
        
            
            
            <path stroke="#74838f" stroke-dasharray="10 6" stroke-width="0.5"  d="M 50.0 143.6 L 974.0 143.6" />
        
    
        
        
        <text x="45.0" font-family="-apple-system, system-ui, BlinkMacSystemFont, Roboto" y="174.8" dominant-baseline="middle" text-anchor="end" font-size="12" fill="#24292f">2600.0</text>
        
            
            
            <path stroke="#74838f" stroke-dasharray="10 6" stroke-width="0.5"  d="M 50.0 174.8 L 974.0 174.8" />
        
    
        
        
        <text x="45.0" font-family="-apple-system, system-ui, BlinkMacSystemFont, Roboto" y="206.0" dominant-baseline="middle" text-anchor="end" font-size="12" fill="#24292f">0.0</text>
        
    
    
        
        <path stroke="#74838f"  stroke-width="2.0"  d="M 90.95290858725761 206.0 L 90.95290858725761 214.0" />
        <text x="90.95290858725761" font-family="-apple-system, system-ui, BlinkMacSystemFont, Roboto" y="216.0" dominant-baseline="hanging" text-anchor="middle" font-size="12" fill="#24292f">Mar 2022</text>
    
        
        <path stroke="#74838f"  stroke-width="2.0"  d="M 170.29916897506928 206.0 L 170.29916897506928 214.0" />
        <text x="170.29916897506928" font-family="-apple-system, system-ui, BlinkMacSystemFont, Roboto" y="216.0" dominant-baseline="hanging" text-anchor="middle" font-size="12" fill="#24292f">Apr 2022</text>
    
        
        <path stroke="#74838f"  stroke-width="2.0"  d="M 247.08587257617728 206.0 L 247.08587257617728 214.0" />
        <text x="247.08587257617728" font-family="-apple-system, system-ui, BlinkMacSystemFont, Roboto" y="216.0" dominant-baseline="hanging" text-anchor="middle" font-size="12" fill="#24292f">May 2022</text>
    
        
        <path stroke="#74838f"  stroke-width="2.0"  d="M 326.4321329639889 206.0 L 326.4321329639889 214.0" />
        <text x="326.4321329639889" font-family="-apple-system, system-ui, BlinkMacSystemFont, Roboto" y="216.0" dominant-baseline="hanging" text-anchor="middle" font-size="12" fill="#24292f">Jun 2022</text>
    
        
        <path stroke="#74838f"  stroke-width="2.0"  d="M 403.218836565097 206.0 L 403.218836565097 214.0" />
        <text x="403.218836565097" font-family="-apple-system, system-ui, BlinkMacSystemFont, Roboto" y="216.0" dominant-baseline="hanging" text-anchor="middle" font-size="12" fill="#24292f">Jul 2022</text>
    
        
        <path stroke="#74838f"  stroke-width="2.0"  d="M 482.5650969529086 206.0 L 482.5650969529086 214.0" />
        <text x="482.5650969529086" font-family="-apple-system, system-ui, BlinkMacSystemFont, Roboto" y="216.0" dominant-baseline="hanging" text-anchor="middle" font-size="12" fill="#24292f">Aug 2022</text>
    
        
        <path stroke="#74838f"  stroke-width="2.0"  d="M 561.9113573407203 206.0 L 561.9113573407203 214.0" />
        <text x="561.9113573407203" font-family="-apple-system, system-ui, BlinkMacSystemFont, Roboto" y="216.0" dominant-baseline="hanging" text-anchor="middle" font-size="12" fill="#24292f">Sep 2022</text>
    
        
        <path stroke="#74838f"  stroke-width="2.0"  d="M 638.6980609418283 206.0 L 638.6980609418283 214.0" />
        <text x="638.6980609418283" font-family="-apple-system, system-ui, BlinkMacSystemFont, Roboto" y="216.0" dominant-baseline="hanging" text-anchor="middle" font-size="12" fill="#24292f">Oct 2022</text>
    
        
        <path stroke="#74838f"  stroke-width="2.0"  d="M 718.0443213296398 206.0 L 718.0443213296398 214.0" />
        <text x="718.0443213296398" font-family="-apple-system, system-ui, BlinkMacSystemFont, Roboto" y="216.0" dominant-baseline="hanging" text-anchor="middle" font-size="12" fill="#24292f">Nov 2022</text>
    
        
        <path stroke="#74838f"  stroke-width="2.0"  d="M 794.8310249307478 206.0 L 794.8310249307478 214.0" />
        <text x="794.8310249307478" font-family="-apple-system, system-ui, BlinkMacSystemFont, Roboto" y="216.0" dominant-baseline="hanging" text-anchor="middle" font-size="12" fill="#24292f">Dec 2022</text>
    
        
        <path stroke="#74838f"  stroke-width="2.0"  d="M 874.1772853185596 206.0 L 874.1772853185596 214.0" />
        <text x="874.1772853185596" font-family="-apple-system, system-ui, BlinkMacSystemFont, Roboto" y="216.0" dominant-baseline="hanging" text-anchor="middle" font-size="12" fill="#24292f">Jan 2023</text>
    
        
        <path stroke="#74838f"  stroke-width="2.0"  d="M 953.5235457063712 206.0 L 953.5235457063712 214.0" />
        <text x="953.5235457063712" font-family="-apple-system, system-ui, BlinkMacSystemFont, Roboto" y="216.0" dominant-baseline="hanging" text-anchor="middle" font-size="12" fill="#24292f">Feb 2023</text>
    
    <path stroke="#74838f"   stroke-linejoin="round" stroke-width="2.0" d="M 50.0 216.0 L 50.0 206.0 L 974.0 206.0 L 974.0 216.0"  fill="none" />
    <text x="512.0" y="25.0" font-family="-apple-system, system-ui, BlinkMacSystemFont, Roboto" dominant-baseline="middle" text-anchor="middle" font-size="18" fill="#24292f">Total daily suspensions</text>
</svg>
