<?xml version="1.0" standalone="no"?>
<svg width="1024.0" height="256.0"  viewBox="0 0 1024.0 256.0" preserveAspectRatio="xMidYMid meet" xmlns="http://www.w3.org/2000/svg">
    <path stroke="#e74c3c" stroke-linejoin="round" d="M 50.0 162.77066666666667 L 50 162.77066666666667L 51.85170340681363 194.12088888888889L 53.703406813627254 197.888L 55.55511022044088 198.2231111111111L 57.40681362725451 203.61955555555556L 59.258517034068134 200.16444444444443L 61.11022044088176 199.51733333333334L 62.96192384769539 191.65955555555556L 64.81362725450902 201.1582222222222L 66.66533066132264 198.89333333333332L 68.51703406813627 200.22222222222223L 70.3687374749499 202.70666666666665L 72.22044088176352 199.45955555555554L 74.07214428857715 195.9928888888889L 75.92384769539078 202.776L 77.7755511022044 198.98577777777777L 79.62725450901803 197.8071111111111L 81.47895791583167 191.96L 83.33066132264528 197.0328888888889L 85.18236472945893 199.70222222222222L 87.03406813627254 199.5751111111111L 88.88577154308618 198.5928888888889L 90.73747494989979 198.45422222222223L 92.58917835671343 200.06044444444444L 94.44088176352705 195.288L 96.29258517034069 200.12977777777778L 98.1442885771543 195.96977777777778L 99.99599198396794 200.92711111111112L 101.84769539078157 198.6968888888889L 103.6993987975952 191.22044444444444L 105.5511022044088 196.47822222222223L 107.40280561122245 191.38222222222223L 109.25450901803606 193.99377777777778L 111.1062124248497 199.92177777777778L 112.95791583166333 192.89600000000002L 114.80961923847696 197.33333333333334L 116.66132264529058 199.82933333333332L 118.51302605210421 194.00533333333334L 120.36472945891784 195.65777777777777L 122.21643286573146 195.81955555555555L 124.06813627254509 195.9351111111111L 125.91983967935872 196.83644444444445L 127.77154308617234 199.66755555555557L 129.62324649298597 199.4711111111111L 131.47494989979958 196.0391111111111L 133.32665330661325 194.39822222222222L 135.17835671342687 195.92355555555554L 137.03006012024048 199.03199999999998L 138.8817635270541 195.81955555555555L 140.73346693386773 194.44444444444446L 142.58517034068137 194.144L 144.43687374749499 187.04888888888888L 146.2885771543086 197.69155555555557L 148.14028056112224 196.33955555555556L 149.99198396793588 198.56977777777777L 151.8436873747495 194.8142222222222L 153.69539078156313 196.77866666666665L 155.54709418837678 197.32177777777778L 157.3987975951904 198.65066666666667L 159.250501002004 198.35022222222221L 161.1022044088176 199.85244444444444L 162.95390781563125 192.07555555555555L 164.8056112224449 202.26755555555556L 166.6573146292585 193.80888888888887L 168.50901803607212 204.26666666666665L 170.36072144288576 206L 172.2124248496994 206L 174.06412825651302 206L 175.91583166332666 206L 177.7675350701403 191.04711111111112L 179.6192384769539 160.76L 181.47094188376755 194.02844444444446L 183.32264529058116 200.4417777777778L 185.1743486973948 193.7048888888889L 187.02605210420842 197.16L 188.87775551102206 200.00266666666667L 190.72945891783567 187.26844444444444L 192.58116232464928 198.18844444444443L 194.43286573146293 195.98133333333334L 196.28456913827654 191.08177777777777L 198.13627254509018 195.288L 199.9879759519038 190.97777777777776L 201.83967935871743 189.39466666666667L 203.69138276553107 198.15377777777778L 205.5430861723447 200.00266666666667L 207.39478957915833 192.4568888888889L 209.24649298597194 192.38755555555556L 211.09819639278558 199.56355555555555L 212.9498997995992 195.13777777777779L 214.80160320641284 193.10399999999998L 216.65330661322648 195.3111111111111L 218.50501002004006 199.93333333333334L 220.3567134268537 189.84533333333331L 222.20841683366731 198.70844444444444L 224.06012024048096 196.50133333333332L 225.9118236472946 195.69244444444445L 227.7635270541082 196.62844444444445L 229.61523046092185 193.65866666666668L 231.46693386773546 197.52977777777778L 233.3186372745491 194.3057777777778L 235.17034068136272 197.4257777777778L 237.02204408817636 179.19111111111113L 238.87374749499 194.80266666666665L 240.7254509018036 196.29333333333335L 242.57715430861722 195.5191111111111L 244.42885771543084 197.0328888888889L 246.28056112224448 197.8071111111111L 248.13226452905812 198.00355555555555L 249.98396793587173 187.55733333333333L 251.83567134268537 193.13866666666667L 253.68737474949899 199.85244444444444L 255.53907815631263 193.53155555555554L 257.39078156312627 191.6248888888889L 259.2424849699399 195.8311111111111L 261.09418837675355 196.54755555555556L 262.94589178356716 196.81333333333333L 264.7975951903808 197.63377777777777L 266.6492985971944 193.55466666666666L 268.501002004008 206L 270.3527054108216 187.16444444444446L 272.2044088176352 187.34933333333333L 274.0561122244489 191.8213333333333L 275.9078156312625 181.86044444444445L 277.7595190380762 201.8631111111111L 279.6112224448898 186.49422222222222L 281.4629258517034 196.39733333333334L 283.314629258517 190.07644444444443L 285.16633266533063 194.664L 287.01803607214424 196.016L 288.8697394789579 197.18311111111112L 290.7214428857715 187.06044444444444L 292.5731462925852 198.29244444444444L 294.4248496993988 189.55644444444445L 296.2765531062124 189.7528888888889L 298.12825651302603 197.09066666666666L 299.97995991983964 183.328L 301.8316633266533 184.9688888888889L 303.6833667334669 206L 305.5350701402806 206L 307.3867735470942 206L 309.2384769539078 161.85777777777778L 311.09018036072143 198.81244444444445L 312.9418837675351 196.952L 314.7935871743487 196.05066666666667L 316.6452905811623 193.2888888888889L 318.49699398797594 197.29866666666666L 320.3486973947896 198.13066666666668L 322.2004008016032 201.0311111111111L 324.05210420841684 171.63377777777777L 325.9038076152305 189.85688888888888L 327.7555110220441 178.4862222222222L 329.60721442885773 192.09866666666667L 331.45891783567134 179.792L 333.31062124248496 177.46933333333334L 335.16232464929857 182.6L 337.0140280561122 188.1582222222222L 338.86573146292585 193.36977777777778L 340.71743486973946 189.99555555555554L 342.5691382765531 188.4471111111111L 344.42084168336675 190.01866666666666L 346.27254509018036 188.216L 348.12424849699397 194.05155555555555L 349.9759519038076 185.81244444444445L 351.82765531062125 172.61599999999999L 353.67935871743487 181.09777777777776L 355.5310621242485 173.56355555555555L 357.38276553106215 193.50844444444445L 359.23446893787576 192.51466666666667L 361.0861723446894 193.53155555555554L 362.937875751503 195.25333333333333L 364.78957915831666 193.99377777777778L 366.64128256513027 194.46755555555555L 368.4929859719439 189.89155555555556L 370.34468937875755 195.58844444444446L 372.19639278557116 196.6168888888889L 374.0480961923848 193.11555555555555L 375.8997995991984 191.40533333333332L 377.75150300601206 201.16977777777777L 379.60320641282567 185.58133333333333L 381.4549098196393 191.44L 383.30661322645295 194.8488888888889L 385.1583166332665 190.45777777777778L 387.0100200400801 196.23555555555555L 388.8617234468938 192.5031111111111L 390.7134268537074 193.57777777777778L 392.565130260521 187.18755555555555L 394.41683366733463 191.03555555555556L 396.2685370741483 183.0391111111111L 398.1202404809619 187.83466666666666L 399.9719438877755 192.064L 401.8236472945892 184.9111111111111L 403.6753507014028 189.76444444444445L 405.5270541082164 185.97422222222224L 407.37875751503003 186.22844444444445L 409.2304609218437 177.8968888888889L 411.0821643286573 189.672L 412.9338677354709 191.60177777777778L 414.7855711422846 189.39466666666667L 416.6372745490982 188.27377777777778L 418.4889779559118 191.9368888888889L 420.34068136272543 188.47022222222222L 422.1923847695391 188.88622222222222L 424.0440881763527 190.85066666666665L 425.89579158316633 194.80266666666665L 427.74749498998 195.13777777777779L 429.5991983967936 201.48177777777778L 431.4509018036072 193.24266666666665L 433.3026052104209 182.06844444444445L 435.15430861723445 182.64622222222224L 437.00601202404806 182.12622222222222L 438.8577154308617 191.84444444444443L 440.70941883767534 187.592L 442.56112224448896 182.288L 444.41282565130257 187.22222222222223L 446.26452905811624 189.09422222222221L 448.11623246492985 180.63555555555556L 449.96793587174346 183.94044444444444L 451.81963927855713 174.76533333333333L 453.67134268537075 184.6568888888889L 455.52304609218436 172.93955555555556L 457.37474949899797 150.29066666666665L 459.22645290581164 179.0408888888889L 461.07815631262525 144.23555555555555L 462.92985971943887 186.864L 464.78156312625254 189.18666666666667L 466.63326653306615 188.424L 468.48496993987976 193.728L 470.3366733466934 187.31466666666665L 472.18837675350704 186.1822222222222L 474.04008016032066 187.58044444444445L 475.89178356713427 186.136L 477.74348697394794 193.312L 479.59519038076155 189.19822222222223L 481.44689378757516 189.9377777777778L 483.2985971943888 187.34933333333333L 485.15030060120245 186.51733333333334L 487.002004008016 189.3831111111111L 488.8537074148296 188.0311111111111L 490.7054108216433 192.98844444444444L 492.5571142284569 187.73066666666668L 494.4088176352705 186.22844444444445L 496.2605210420842 182.81955555555555L 498.1122244488978 184.6222222222222L 499.9639278557114 181.248L 501.815631262525 186.27466666666666L 503.6673346693387 194.44444444444446L 505.5190380761523 190.90844444444446L 507.3707414829659 187.30311111111112L 509.2224448897796 169.71555555555557L 511.0741482965932 120.77777777777779L 512.9258517034068 189.72977777777777L 514.7775551102204 188.51644444444446L 516.629258517034 190.86222222222221L 518.4809619238476 192.82666666666665L 520.3326653306613 189.82222222222222L 522.1843687374749 183.16622222222222L 524.0360721442885 189.14044444444443L 525.8877755511021 179.9191111111111L 527.7394789579158 59.082666666666654L 529.5911823647294 164.26133333333334L 531.442885771543 185.31555555555556L 533.2945891783567 183.57066666666668L 535.1462925851704 184.50666666666666L 536.997995991984 185.00355555555555L 538.8496993987976 180.0808888888889L 540.7014028056112 190.74666666666667L 542.5531062124248 181.42133333333334L 544.4048096192384 162.58577777777776L 546.2565130260521 124.3368888888889L 548.1082164328657 153.52622222222223L 549.9599198396793 165.68266666666668L 551.8116232464929 182.1031111111111L 553.6633266533066 171.8071111111111L 555.5150300601202 180.76266666666666L 557.3667334669339 174.41866666666667L 559.2184368737475 179.376L 561.0701402805612 183.65155555555555L 562.9218436873748 178.22044444444444L 564.7735470941884 185.03822222222223L 566.625250501002 188.47022222222222L 568.4769539078156 189.00177777777776L 570.3286573146293 185.52355555555556L 572.1803607214429 182.7848888888889L 574.0320641282565 182.69244444444445L 575.8837675350702 180.34666666666666L 577.7354709418838 169.5768888888889L 579.5871743486974 182.704L 581.438877755511 186.136L 583.2905811623247 169.12622222222222L 585.1422845691383 143.0222222222222L 586.9939879759519 162.45866666666666L 588.8456913827656 153.67644444444443L 590.6973947895792 148.176L 592.5490981963928 157.16622222222222L 594.4008016032064 155.61777777777777L 596.2525050100201 164.63111111111112L 598.1042084168337 173.32088888888887L 599.9559118236473 151.0648888888889L 601.807615230461 173.07822222222222L 603.6593186372746 173.70222222222222L 605.5110220440882 173.74844444444443L 607.3627254509018 184.472L 609.2144288577155 167.77422222222222L 611.0661322645291 160.9911111111111L 612.9178356713427 173.8871111111111L 614.7695390781563 167L 616.6212424849699 156.78488888888887L 618.4729458917835 175.07733333333334L 620.3246492985971 177.4L 622.1763527054107 187.22222222222223L 624.0280561122244 184.74933333333334L 625.8797595190381 183.952L 627.7314629258517 152.19733333333335L 629.5831663326653 183.96355555555556L 631.4348697394789 186.8871111111111L 633.2865731462925 185.87022222222222L 635.1382765531062 183.15466666666666L 636.9899799599198 183.06222222222223L 638.8416833667335 183.02755555555555L 640.6933867735471 176.10577777777777L 642.5450901803607 182.87733333333333L 644.3967935871743 180.48533333333333L 646.2484969939879 185.56977777777777L 648.1002004008016 180L 649.9519038076152 176.984L 651.8036072144289 178.20888888888888L 653.6553106212425 179.8382222222222L 655.5070140280561 183.09688888888888L 657.3587174348697 177.53866666666667L 659.2104208416833 183.44355555555555L 661.062124248497 178.09333333333333L 662.9138276553106 179.59555555555556L 664.7655310621243 183.02755555555555L 666.6172344689379 180.4622222222222L 668.4689378757515 178.04711111111112L 670.3206412825651 186.89866666666666L 672.1723446893787 177.20355555555557L 674.0240480961924 179.07555555555555L 675.875751503006 154.9591111111111L 677.7274549098197 133.512L 679.5791583166333 151.96622222222223L 681.4308617234469 151.57333333333332L 683.2825651302605 184.9111111111111L 685.1342685370741 185.28088888888888L 686.9859719438878 178.61333333333334L 688.8376753507014 142.39822222222222L 690.6893787575151 150.1751111111111L 692.5410821643287 164.04177777777778L 694.3927855711423 138.82755555555556L 696.2444889779559 134.864L 698.0961923847696 144.85955555555557L 699.9478957915832 145.57600000000002L 701.7995991983968 128.7048888888889L 703.6513026052105 120.36177777777777L 705.5030060120241 165.80977777777778L 707.3547094188377 163.51022222222224L 709.2064128256513 160.39022222222223L 711.058116232465 177.504L 712.9098196392786 187.34933333333333L 714.7615230460922 188.04266666666666L 716.6132264529059 186.8871111111111L 718.4649298597194 176.08266666666668L 720.316633266533 179.41066666666666L 722.1683366733466 195.0568888888889L 724.0200400801602 185.53511111111112L 725.8717434869739 183.6977777777778L 727.7234468937876 174.97333333333333L 729.5751503006012 178.61333333333334L 731.4268537074148 180.9591111111111L 733.2785571142284 184.0328888888889L 735.130260521042 155.61777777777777L 736.9819639278556 149.7128888888889L 738.8336673346693 186.2631111111111L 740.685370741483 191.28977777777777L 742.5370741482966 175.90933333333334L 744.3887775551102 175.49333333333334L 746.2404809619238 184.51822222222222L 748.0921843687374 189.69511111111112L 749.943887775551 187.592L 751.7955911823647 180.09244444444445L 753.6472945891784 176.92622222222224L 755.498997995992 163.31377777777777L 757.3507014028056 162.112L 759.2024048096192 167.1271111111111L 761.0541082164328 180.32355555555554L 762.9058116232464 184.11377777777778L 764.7575150300601 191.57866666666666L 766.6092184368738 195.54222222222222L 768.4609218436874 183.54755555555556L 770.312625250501 164.03022222222222L 772.1643286573146 171.05599999999998L 774.0160320641282 169.92355555555557L 775.8677354709419 180.02311111111112L 777.7194388777555 172.07288888888888L 779.5711422845692 163.53333333333333L 781.4228456913828 171.34488888888887L 783.2745490981964 181.59466666666668L 785.12625250501 179.80355555555556L 786.9779559118236 166.17955555555557L 788.8296593186373 154.92444444444445L 790.6813627254509 158.4488888888889L 792.5330661322646 156.4728888888889L 794.3847695390782 144.4551111111111L 796.2364729458918 158.52977777777778L 798.0881763527054 178.00088888888888L 799.939879759519 144.99822222222224L 801.7915831663327 134.136L 803.6432865731464 139.8213333333333L 805.49498997996 145.04444444444445L 807.3466933867736 153.168L 809.1983967935872 140.53777777777776L 811.0501002004008 113.86755555555555L 812.9018036072144 113.28977777777777L 814.7535070140281 164.85066666666665L 816.6052104208418 163.62577777777778L 818.4569138276554 150.16355555555555L 820.3086172344689 149.84L 822.1603206412825 56.54044444444443L 824.0120240480961 124.776L 825.8637274549097 64.07466666666667L 827.7154308617233 123.55111111111111L 829.5671342685371 157.536L 831.4188376753507 147.9911111111111L 833.2705410821643 136.22755555555557L 835.1222444889779 91.11466666666666L 836.9739478957915 107.36177777777779L 838.8256513026051 141.68177777777777L 840.6773547094188 157.73244444444444L 842.5290581162325 152.63644444444444L 844.3807615230461 96.22222222222221L 846.2324649298597 150.19822222222223L 848.0841683366733 116.57155555555556L 849.9358717434869 127.34133333333332L 851.7875751503005 180.53155555555554L 853.6392785571143 137.10577777777777L 855.4909819639279 122.64977777777779L 857.3426853707415 104.61155555555555L 859.1943887775551 141.76266666666666L 861.0460921843687 164.23822222222222L 862.8977955911823 160.51733333333334L 864.7494989979959 154.57777777777778L 866.6012024048097 175.01955555555554L 868.4529058116233 146.87022222222222L 870.3046092184369 153.23733333333334L 872.1563126252505 142.82577777777777L 874.0080160320641 130.98133333333334L 875.8597194388777 88.53777777777778L 877.7114228456913 174.488L 879.5631262525051 50.55466666666666L 881.4148296593187 84.43555555555557L 883.2665330661323 152.47466666666668L 885.1182364729459 114.90755555555555L 886.9699398797595 96.30311111111112L 888.8216432865731 171.46044444444445L 890.6733466933867 183.96355555555556L 892.5250501002005 169.87733333333333L 894.3767535070141 183.13155555555556L 896.2284569138277 171.992L 898.0801603206413 152.48622222222224L 899.9318637274549 169.704L 901.7835671342685 172.99733333333333L 903.6352705410821 164.61955555555556L 905.4869739478959 162.64355555555557L 907.3386773547095 170.51288888888888L 909.1903807615231 145.6568888888889L 911.0420841683367 159.81244444444445L 912.8937875751503 167.2542222222222L 914.7454909819639 141.55466666666666L 916.5971943887776 160.864L 918.4488977955913 157.7208888888889L 920.3006012024049 154.87822222222223L 922.1523046092185 145.29866666666666L 924.004008016032 177.65422222222222L 925.8557114228456 119.73777777777778L 927.7074148296592 144.96355555555556L 929.559118236473 151.15733333333333L 931.4108216432866 164.4231111111111L 933.2625250501002 174.1991111111111L 935.1142284569138 171.784L 936.9659318637274 157.12L 938.817635270541 159.44266666666667L 940.6693386773546 169.77333333333334L 942.5210420841684 166.64177777777778L 944.372745490982 176.5102222222222L 946.2244488977956 174.04888888888888L 948.0761523046092 157.17777777777778L 949.9278557114228 148.66133333333335L 951.7795591182364 141.01155555555556L 953.63126252505 147.49422222222222L 955.4829659318638 147.08977777777778L 957.3346693386774 164.78133333333332L 959.186372745491 160.4711111111111L 961.0380761523046 165.59022222222222L 962.8897795591182 150.85688888888888L 964.7414829659318 165.84444444444443L 966.5931863727454 164.65422222222222L 968.4448897795592 206L 970.2965931863728 150.68355555555556L 972.1482965931864 81.07288888888888L 974 180.65866666666668" stroke-width="2.0" fill="none" />
    
        
        
        <text x="45.0" font-family="-apple-system, system-ui, BlinkMacSystemFont, Roboto" y="50.0" dominant-baseline="middle" text-anchor="end" font-size="12" fill="#24292f">13500.0</text>
        
            
            <path stroke="#74838f" stroke-dasharray="10 6" stroke-width="0.5"  d="M 50.0 50.0 L 974.0 50.0" />
        
    
        
        
        <text x="45.0" font-family="-apple-system, system-ui, BlinkMacSystemFont, Roboto" y="81.2" dominant-baseline="middle" text-anchor="end" font-size="12" fill="#24292f">10800.0</text>
        
            
            
            <path stroke="#74838f" stroke-dasharray="10 6" stroke-width="0.5"  d="M 50.0 81.2 L 974.0 81.2" />
        
    
        
        
        <text x="45.0" font-family="-apple-system, system-ui, BlinkMacSystemFont, Roboto" y="112.4" dominant-baseline="middle" text-anchor="end" font-size="12" fill="#24292f">8100.0</text>
        
            
            
            <path stroke="#74838f" stroke-dasharray="10 6" stroke-width="0.5"  d="M 50.0 112.4 L 974.0 112.4" />
        
    
        
        
        <text x="45.0" font-family="-apple-system, system-ui, BlinkMacSystemFont, Roboto" y="143.6" dominant-baseline="middle" text-anchor="end" font-size="12" fill="#24292f">5400.0</text>
        
            
            
            <path stroke="#74838f" stroke-dasharray="10 6" stroke-width="0.5"  d="M 50.0 143.6 L 974.0 143.6" />
        
    
        
        
        <text x="45.0" font-family="-apple-system, system-ui, BlinkMacSystemFont, Roboto" y="174.8" dominant-baseline="middle" text-anchor="end" font-size="12" fill="#24292f">2700.0</text>
        
            
            
            <path stroke="#74838f" stroke-dasharray="10 6" stroke-width="0.5"  d="M 50.0 174.8 L 974.0 174.8" />
        
    
        
        
        <text x="45.0" font-family="-apple-system, system-ui, BlinkMacSystemFont, Roboto" y="206.0" dominant-baseline="middle" text-anchor="end" font-size="12" fill="#24292f">0.0</text>
        
    
    
        
        <path stroke="#74838f"  stroke-width="2.0"  d="M 79.62725450901803 206.0 L 79.62725450901803 214.0" />
        <text x="79.62725450901803" font-family="-apple-system, system-ui, BlinkMacSystemFont, Roboto" y="216.0" dominant-baseline="hanging" text-anchor="middle" font-size="12" fill="#24292f">Mar 2022</text>
    
        
        <path stroke="#74838f"  stroke-width="2.0"  d="M 137.03006012024048 206.0 L 137.03006012024048 214.0" />
        <text x="137.03006012024048" font-family="-apple-system, system-ui, BlinkMacSystemFont, Roboto" y="216.0" dominant-baseline="hanging" text-anchor="middle" font-size="12" fill="#24292f">Apr 2022</text>
    
        
        <path stroke="#74838f"  stroke-width="2.0"  d="M 192.58116232464928 206.0 L 192.58116232464928 214.0" />
        <text x="192.58116232464928" font-family="-apple-system, system-ui, BlinkMacSystemFont, Roboto" y="216.0" dominant-baseline="hanging" text-anchor="middle" font-size="12" fill="#24292f">May 2022</text>
    
        
        <path stroke="#74838f"  stroke-width="2.0"  d="M 249.98396793587173 206.0 L 249.98396793587173 214.0" />
        <text x="249.98396793587173" font-family="-apple-system, system-ui, BlinkMacSystemFont, Roboto" y="216.0" dominant-baseline="hanging" text-anchor="middle" font-size="12" fill="#24292f">Jun 2022</text>
    
        
        <path stroke="#74838f"  stroke-width="2.0"  d="M 305.5350701402806 206.0 L 305.5350701402806 214.0" />
        <text x="305.5350701402806" font-family="-apple-system, system-ui, BlinkMacSystemFont, Roboto" y="216.0" dominant-baseline="hanging" text-anchor="middle" font-size="12" fill="#24292f">Jul 2022</text>
    
        
        <path stroke="#74838f"  stroke-width="2.0"  d="M 362.937875751503 206.0 L 362.937875751503 214.0" />
        <text x="362.937875751503" font-family="-apple-system, system-ui, BlinkMacSystemFont, Roboto" y="216.0" dominant-baseline="hanging" text-anchor="middle" font-size="12" fill="#24292f">Aug 2022</text>
    
        
        <path stroke="#74838f"  stroke-width="2.0"  d="M 420.34068136272543 206.0 L 420.34068136272543 214.0" />
        <text x="420.34068136272543" font-family="-apple-system, system-ui, BlinkMacSystemFont, Roboto" y="216.0" dominant-baseline="hanging" text-anchor="middle" font-size="12" fill="#24292f">Sep 2022</text>
    
        
        <path stroke="#74838f"  stroke-width="2.0"  d="M 475.89178356713427 206.0 L 475.89178356713427 214.0" />
        <text x="475.89178356713427" font-family="-apple-system, system-ui, BlinkMacSystemFont, Roboto" y="216.0" dominant-baseline="hanging" text-anchor="middle" font-size="12" fill="#24292f">Oct 2022</text>
    
        
        <path stroke="#74838f"  stroke-width="2.0"  d="M 533.2945891783567 206.0 L 533.2945891783567 214.0" />
        <text x="533.2945891783567" font-family="-apple-system, system-ui, BlinkMacSystemFont, Roboto" y="216.0" dominant-baseline="hanging" text-anchor="middle" font-size="12" fill="#24292f">Nov 2022</text>
    
        
        <path stroke="#74838f"  stroke-width="2.0"  d="M 588.8456913827656 206.0 L 588.8456913827656 214.0" />
        <text x="588.8456913827656" font-family="-apple-system, system-ui, BlinkMacSystemFont, Roboto" y="216.0" dominant-baseline="hanging" text-anchor="middle" font-size="12" fill="#24292f">Dec 2022</text>
    
        
        <path stroke="#74838f"  stroke-width="2.0"  d="M 646.2484969939879 206.0 L 646.2484969939879 214.0" />
        <text x="646.2484969939879" font-family="-apple-system, system-ui, BlinkMacSystemFont, Roboto" y="216.0" dominant-baseline="hanging" text-anchor="middle" font-size="12" fill="#24292f">Jan 2023</text>
    
        
        <path stroke="#74838f"  stroke-width="2.0"  d="M 703.6513026052105 206.0 L 703.6513026052105 214.0" />
        <text x="703.6513026052105" font-family="-apple-system, system-ui, BlinkMacSystemFont, Roboto" y="216.0" dominant-baseline="hanging" text-anchor="middle" font-size="12" fill="#24292f">Feb 2023</text>
    
        
        <path stroke="#74838f"  stroke-width="2.0"  d="M 755.498997995992 206.0 L 755.498997995992 214.0" />
        <text x="755.498997995992" font-family="-apple-system, system-ui, BlinkMacSystemFont, Roboto" y="216.0" dominant-baseline="hanging" text-anchor="middle" font-size="12" fill="#24292f">Mar 2023</text>
    
        
        <path stroke="#74838f"  stroke-width="2.0"  d="M 812.9018036072144 206.0 L 812.9018036072144 214.0" />
        <text x="812.9018036072144" font-family="-apple-system, system-ui, BlinkMacSystemFont, Roboto" y="216.0" dominant-baseline="hanging" text-anchor="middle" font-size="12" fill="#24292f">Apr 2023</text>
    
        
        <path stroke="#74838f"  stroke-width="2.0"  d="M 868.4529058116233 206.0 L 868.4529058116233 214.0" />
        <text x="868.4529058116233" font-family="-apple-system, system-ui, BlinkMacSystemFont, Roboto" y="216.0" dominant-baseline="hanging" text-anchor="middle" font-size="12" fill="#24292f">May 2023</text>
    
        
        <path stroke="#74838f"  stroke-width="2.0"  d="M 925.8557114228456 206.0 L 925.8557114228456 214.0" />
        <text x="925.8557114228456" font-family="-apple-system, system-ui, BlinkMacSystemFont, Roboto" y="216.0" dominant-baseline="hanging" text-anchor="middle" font-size="12" fill="#24292f">Jun 2023</text>
    
    <path stroke="#74838f"   stroke-linejoin="round" stroke-width="2.0" d="M 50.0 216.0 L 50.0 206.0 L 974.0 206.0 L 974.0 216.0"  fill="none" />
    <text x="512.0" y="25.0" font-family="-apple-system, system-ui, BlinkMacSystemFont, Roboto" dominant-baseline="middle" text-anchor="middle" font-size="18" fill="#24292f">Total daily suspensions</text>
</svg>
