<?xml version="1.0" standalone="no"?>
<svg width="1024.0" height="256.0"  viewBox="0 0 1024.0 256.0" preserveAspectRatio="xMidYMid meet" xmlns="http://www.w3.org/2000/svg">
    <path stroke="#e74c3c" stroke-linejoin="round" d="M 50.0 161.108 L 50 161.108L 52.625 193.664L 55.25 197.576L 57.875 197.924L 60.5 203.528L 63.125 199.94L 65.75 199.268L 68.375 191.108L 71 200.972L 73.625 198.62L 76.25 200L 78.875 202.57999999999998L 81.5 199.208L 84.125 195.608L 86.75 202.652L 89.375 198.716L 92 197.49200000000002L 94.625 191.42000000000002L 97.25 196.688L 99.875 199.46L 102.5 199.328L 105.125 198.308L 107.75 198.164L 110.375 199.832L 113 194.876L 115.625 199.904L 118.25 195.584L 120.875 200.732L 123.5 198.416L 126.125 190.652L 128.75 196.112L 131.375 190.82L 134 193.53199999999998L 136.625 199.688L 139.25 192.392L 141.875 197L 144.5 199.59199999999998L 147.125 193.54399999999998L 149.75 195.26L 152.375 195.428L 155 195.548L 157.625 196.484L 160.25 199.424L 162.875 199.22L 165.5 195.656L 168.125 193.952L 170.75 195.536L 173.375 198.764L 176 195.428L 178.625 194L 181.25 193.688L 183.875 186.32L 186.5 197.372L 189.125 195.96800000000002L 191.75 198.284L 194.375 194.38400000000001L 197 196.424L 199.625 196.988L 202.25 198.368L 204.875 198.05599999999998L 207.5 199.61599999999999L 210.125 191.54L 212.75 202.124L 215.375 193.34L 218 204.2L 220.625 206L 223.25 206L 225.875 206L 228.5 206L 231.125 190.472L 233.75 159.01999999999998L 236.375 193.56799999999998L 239 200.228L 241.625 193.232L 244.25 196.82L 246.875 199.772L 249.5 186.548L 252.125 197.888L 254.75 195.596L 257.375 190.508L 260 194.876L 262.625 190.4L 265.25 188.756L 267.875 197.852L 270.5 199.772L 273.125 191.936L 275.75 191.864L 278.375 199.316L 281 194.72L 283.625 192.608L 286.25 194.9L 288.875 199.7L 291.5 189.224L 294.125 198.428L 296.75 196.136L 299.375 195.296L 302 196.268L 304.625 193.184L 307.25 197.204L 309.875 193.856L 312.5 197.096L 315.125 178.16L 317.75 194.372L 320.375 195.92000000000002L 323 195.11599999999999L 325.625 196.688L 328.25 197.49200000000002L 330.875 197.696L 333.5 186.848L 336.125 192.644L 338.75 199.61599999999999L 341.375 193.052L 344 191.072L 346.625 195.44L 349.25 196.184L 351.875 196.46L 354.5 197.312L 357.125 193.076L 359.75 206L 362.375 186.44L 365 186.632L 367.625 191.276L 370.25 180.93200000000002L 372.875 201.704L 375.5 185.744L 378.125 196.028L 380.75 189.464L 383.375 194.228L 386 195.632L 388.625 196.844L 391.25 186.332L 393.875 197.99599999999998L 396.5 188.924L 399.125 189.128L 401.75 196.748L 404.375 182.45600000000002L 407 184.16L 409.625 206L 412.25 206L 414.875 206L 417.5 160.16L 420.125 198.536L 422.75 196.60399999999998L 425.375 195.668L 428 192.8L 430.625 196.964L 433.25 197.828L 435.875 200.84L 438.5 170.312L 441.125 189.236L 443.75 177.428L 446.375 191.564L 449 178.784L 451.625 176.372L 454.25 181.7L 456.875 187.472L 459.5 192.88400000000001L 462.125 189.38L 464.75 187.772L 467.375 189.404L 470 187.532L 472.625 193.59199999999998L 475.25 185.036L 477.875 171.332L 480.5 180.14L 483.125 172.316L 485.75 193.028L 488.375 191.996L 491 193.052L 493.625 194.84L 496.25 193.53199999999998L 498.875 194.024L 501.5 189.272L 504.125 195.188L 506.75 196.256L 509.375 192.62L 512 190.844L 514.625 200.984L 517.25 184.796L 519.875 190.88L 522.5 194.42000000000002L 525.125 189.86L 527.75 195.86L 530.375 191.984L 533 193.1L 535.625 186.464L 538.25 190.46L 540.875 182.156L 543.5 187.136L 546.125 191.528L 548.75 184.1L 551.375 189.14L 554 185.204L 556.625 185.468L 559.25 176.816L 561.875 189.04399999999998L 564.5 191.048L 567.125 188.756L 569.75 187.592L 572.375 191.39600000000002L 575 187.796L 577.625 188.228L 580.25 190.268L 582.875 194.372L 585.5 194.72L 588.125 201.308L 590.75 192.752L 593.375 181.148L 596 181.748L 598.625 181.208L 601.25 191.3L 603.875 186.88400000000001L 606.5 181.376L 609.125 186.5L 611.75 188.44400000000002L 614.375 179.66L 617 183.09199999999998L 619.625 173.564L 622.25 183.836L 624.875 171.668L 627.5 148.148L 630.125 178.004L 632.75 141.86L 635.375 186.128L 638 188.54000000000002L 640.625 187.748L 643.25 193.256L 645.875 186.596L 648.5 185.42000000000002L 651.125 186.872L 653.75 185.372L 656.375 192.824L 659 188.552L 661.625 189.32L 664.25 186.632L 666.875 185.768L 669.5 188.744L 672.125 187.34L 674.75 192.488L 677.375 187.028L 680 185.468L 682.625 181.928L 685.25 183.8L 687.875 180.296L 690.5 185.516L 693.125 194L 695.75 190.328L 698.375 186.584L 701 168.32L 703.625 117.5L 706.25 189.10399999999998L 708.875 187.844L 711.5 190.28L 714.125 192.32L 716.75 189.2L 719.375 182.288L 722 188.49200000000002L 724.625 178.916L 727.25 53.432000000000016L 729.875 162.656L 732.5 184.52L 735.125 182.708L 737.75 183.68L 740.375 184.196L 743 179.084L 745.625 190.16L 748.25 180.476L 750.875 160.916L 753.5 121.196L 756.125 151.50799999999998L 758.75 164.132L 761.375 181.184L 764 170.49200000000002L 766.625 179.792L 769.25 173.204L 771.875 178.352L 774.5 182.792L 777.125 177.152L 779.75 184.232L 782.375 187.796L 785 188.348L 787.625 184.736L 790.25 181.892L 792.875 181.796L 795.5 179.36L 798.125 168.176L 800.75 181.808L 803.375 185.372L 806 167.708L 808.625 140.6L 811.25 160.784L 813.875 151.664L 816.5 145.952L 819.125 155.288L 821.75 153.68L 824.375 163.04L 827 172.064L 829.625 148.952L 832.25 171.812L 834.875 172.46L 837.5 172.508L 840.125 183.644L 842.75 166.304L 845.375 159.26L 848 172.652L 850.625 165.5L 853.25 154.892L 855.875 173.888L 858.5 176.3L 861.125 186.5L 863.75 183.932L 866.375 183.10399999999998L 869 150.128L 871.625 183.11599999999999L 874.25 186.152L 876.875 185.096L 879.5 182.276L 882.125 182.18L 884.75 182.144L 887.375 174.956L 890 181.988L 892.625 179.504L 895.25 184.784L 897.875 179L 900.5 175.868L 903.125 177.14L 905.75 178.832L 908.375 182.216L 911 176.444L 913.625 182.576L 916.25 177.02L 918.875 178.58L 921.5 182.144L 924.125 179.48L 926.75 176.972L 929.375 186.164L 932 176.096L 934.625 178.04L 937.25 152.996L 939.875 130.724L 942.5 149.888L 945.125 149.48L 947.75 184.1L 950.375 184.484L 953 177.56L 955.625 139.952L 958.25 148.028L 960.875 162.428L 963.5 136.244L 966.125 132.128L 968.75 142.508L 971.375 143.252L 974 191.672" stroke-width="2.0" fill="none" />
    
        
        
        <text x="45.0" font-family="-apple-system, system-ui, BlinkMacSystemFont, Roboto" y="50.0" dominant-baseline="middle" text-anchor="end" font-size="12" fill="#24292f">13000.0</text>
        
            
            <path stroke="#74838f" stroke-dasharray="10 6" stroke-width="0.5"  d="M 50.0 50.0 L 974.0 50.0" />
        
    
        
        
        <text x="45.0" font-family="-apple-system, system-ui, BlinkMacSystemFont, Roboto" y="81.2" dominant-baseline="middle" text-anchor="end" font-size="12" fill="#24292f">10400.0</text>
        
            
            
            <path stroke="#74838f" stroke-dasharray="10 6" stroke-width="0.5"  d="M 50.0 81.2 L 974.0 81.2" />
        
    
        
        
        <text x="45.0" font-family="-apple-system, system-ui, BlinkMacSystemFont, Roboto" y="112.4" dominant-baseline="middle" text-anchor="end" font-size="12" fill="#24292f">7800.0</text>
        
            
            
            <path stroke="#74838f" stroke-dasharray="10 6" stroke-width="0.5"  d="M 50.0 112.4 L 974.0 112.4" />
        
    
        
        
        <text x="45.0" font-family="-apple-system, system-ui, BlinkMacSystemFont, Roboto" y="143.6" dominant-baseline="middle" text-anchor="end" font-size="12" fill="#24292f">5200.0</text>
        
            
            
            <path stroke="#74838f" stroke-dasharray="10 6" stroke-width="0.5"  d="M 50.0 143.6 L 974.0 143.6" />
        
    
        
        
        <text x="45.0" font-family="-apple-system, system-ui, BlinkMacSystemFont, Roboto" y="174.8" dominant-baseline="middle" text-anchor="end" font-size="12" fill="#24292f">2600.0</text>
        
            
            
            <path stroke="#74838f" stroke-dasharray="10 6" stroke-width="0.5"  d="M 50.0 174.8 L 974.0 174.8" />
        
    
        
        
        <text x="45.0" font-family="-apple-system, system-ui, BlinkMacSystemFont, Roboto" y="206.0" dominant-baseline="middle" text-anchor="end" font-size="12" fill="#24292f">0.0</text>
        
    
    
        
        <path stroke="#74838f"  stroke-width="2.0"  d="M 92.0 206.0 L 92.0 214.0" />
        <text x="92.0" font-family="-apple-system, system-ui, BlinkMacSystemFont, Roboto" y="216.0" dominant-baseline="hanging" text-anchor="middle" font-size="12" fill="#24292f">Mar 2022</text>
    
        
        <path stroke="#74838f"  stroke-width="2.0"  d="M 173.375 206.0 L 173.375 214.0" />
        <text x="173.375" font-family="-apple-system, system-ui, BlinkMacSystemFont, Roboto" y="216.0" dominant-baseline="hanging" text-anchor="middle" font-size="12" fill="#24292f">Apr 2022</text>
    
        
        <path stroke="#74838f"  stroke-width="2.0"  d="M 252.125 206.0 L 252.125 214.0" />
        <text x="252.125" font-family="-apple-system, system-ui, BlinkMacSystemFont, Roboto" y="216.0" dominant-baseline="hanging" text-anchor="middle" font-size="12" fill="#24292f">May 2022</text>
    
        
        <path stroke="#74838f"  stroke-width="2.0"  d="M 333.5 206.0 L 333.5 214.0" />
        <text x="333.5" font-family="-apple-system, system-ui, BlinkMacSystemFont, Roboto" y="216.0" dominant-baseline="hanging" text-anchor="middle" font-size="12" fill="#24292f">Jun 2022</text>
    
        
        <path stroke="#74838f"  stroke-width="2.0"  d="M 412.25 206.0 L 412.25 214.0" />
        <text x="412.25" font-family="-apple-system, system-ui, BlinkMacSystemFont, Roboto" y="216.0" dominant-baseline="hanging" text-anchor="middle" font-size="12" fill="#24292f">Jul 2022</text>
    
        
        <path stroke="#74838f"  stroke-width="2.0"  d="M 493.625 206.0 L 493.625 214.0" />
        <text x="493.625" font-family="-apple-system, system-ui, BlinkMacSystemFont, Roboto" y="216.0" dominant-baseline="hanging" text-anchor="middle" font-size="12" fill="#24292f">Aug 2022</text>
    
        
        <path stroke="#74838f"  stroke-width="2.0"  d="M 575.0 206.0 L 575.0 214.0" />
        <text x="575.0" font-family="-apple-system, system-ui, BlinkMacSystemFont, Roboto" y="216.0" dominant-baseline="hanging" text-anchor="middle" font-size="12" fill="#24292f">Sep 2022</text>
    
        
        <path stroke="#74838f"  stroke-width="2.0"  d="M 653.75 206.0 L 653.75 214.0" />
        <text x="653.75" font-family="-apple-system, system-ui, BlinkMacSystemFont, Roboto" y="216.0" dominant-baseline="hanging" text-anchor="middle" font-size="12" fill="#24292f">Oct 2022</text>
    
        
        <path stroke="#74838f"  stroke-width="2.0"  d="M 735.125 206.0 L 735.125 214.0" />
        <text x="735.125" font-family="-apple-system, system-ui, BlinkMacSystemFont, Roboto" y="216.0" dominant-baseline="hanging" text-anchor="middle" font-size="12" fill="#24292f">Nov 2022</text>
    
        
        <path stroke="#74838f"  stroke-width="2.0"  d="M 813.875 206.0 L 813.875 214.0" />
        <text x="813.875" font-family="-apple-system, system-ui, BlinkMacSystemFont, Roboto" y="216.0" dominant-baseline="hanging" text-anchor="middle" font-size="12" fill="#24292f">Dec 2022</text>
    
        
        <path stroke="#74838f"  stroke-width="2.0"  d="M 895.25 206.0 L 895.25 214.0" />
        <text x="895.25" font-family="-apple-system, system-ui, BlinkMacSystemFont, Roboto" y="216.0" dominant-baseline="hanging" text-anchor="middle" font-size="12" fill="#24292f">Jan 2023</text>
    
    <path stroke="#74838f"   stroke-linejoin="round" stroke-width="2.0" d="M 50.0 216.0 L 50.0 206.0 L 974.0 206.0 L 974.0 216.0"  fill="none" />
    <text x="512.0" y="25.0" font-family="-apple-system, system-ui, BlinkMacSystemFont, Roboto" dominant-baseline="middle" text-anchor="middle" font-size="18" fill="#24292f">Total daily suspensions</text>
</svg>
